<?xml version="1.0" encoding="utf-8" standalone="no"?>
<!DOCTYPE svg PUBLIC "-//W3C//DTD SVG 1.1//EN"
  "http://www.w3.org/Graphics/SVG/1.1/DTD/svg11.dtd">
<!-- Created with matplotlib (http://matplotlib.org/) -->
<svg height="432pt" version="1.1" viewBox="0 0 1152 432" width="1152pt" xmlns="http://www.w3.org/2000/svg" xmlns:xlink="http://www.w3.org/1999/xlink">
 <defs>
  <style type="text/css">
*{stroke-linecap:butt;stroke-linejoin:round;}
  </style>
 </defs>
 <g id="figure_1">
  <g id="patch_1">
   <path d="M 0 432 
L 1152 432 
L 1152 0 
L 0 0 
z
" style="fill:#ffffff;"/>
  </g>
  <g id="axes_1">
   <g id="patch_2">
    <path d="M 144 378 
L 858.24 378 
L 858.24 51.84 
L 144 51.84 
z
" style="fill:#ffffff;"/>
   </g>
   <g id="patch_3">
    <path clip-path="url(#pfda421af83)" d="M 688.481101 129.360949 
L 688.481101 117.829451 
L 701.094574 123.589434 
L 786.803374 84.450234 
L 786.828626 84.461766 
L 701.119826 123.600966 
L 713.733299 129.360949 
z
" style="stroke:#000000;stroke-linejoin:miter;stroke-width:2;"/>
   </g>
   <g id="patch_4">
    <path clip-path="url(#pfda421af83)" d="M 628.484941 156.758389 
L 628.484941 145.226891 
L 641.098414 150.986874 
L 701.094574 123.589434 
L 701.119826 123.600966 
L 641.123666 150.998406 
L 653.737139 156.758389 
z
" style="stroke:#000000;stroke-linejoin:miter;stroke-width:2;"/>
   </g>
   <g id="patch_5">
    <path clip-path="url(#pfda421af83)" d="M 586.487629 175.936597 
L 586.487629 164.405099 
L 599.101102 170.165082 
L 641.098414 150.986874 
L 641.123666 150.998406 
L 599.126354 170.176614 
L 611.739827 175.936597 
z
" style="stroke:#000000;stroke-linejoin:miter;stroke-width:2;"/>
   </g>
   <g id="patch_6">
    <path clip-path="url(#pfda421af83)" d="M 557.089511 189.361342 
L 557.089511 177.829845 
L 569.702984 183.589828 
L 599.101102 170.165082 
L 599.126354 170.176614 
L 569.728236 183.601359 
L 582.341708 189.361342 
z
" style="stroke:#000000;stroke-linejoin:miter;stroke-width:2;"/>
   </g>
   <g id="patch_7">
    <path clip-path="url(#pfda421af83)" d="M 536.510828 198.758664 
L 536.510828 187.227167 
L 549.124301 192.98715 
L 569.702984 183.589828 
L 569.728236 183.601359 
L 549.149553 192.998681 
L 561.763025 198.758664 
z
" style="stroke:#000000;stroke-linejoin:miter;stroke-width:2;"/>
   </g>
   <g id="matplotlib.axis_1">
    <g id="xtick_1">
     <g id="line2d_1">
      <defs>
       <path d="M 0 0 
L 0 3.5 
" id="mfdebfa87e3" style="stroke:#000000;stroke-width:0.8;"/>
      </defs>
      <g>
       <use style="stroke:#000000;stroke-width:0.8;" x="144" xlink:href="#mfdebfa87e3" y="378"/>
      </g>
     </g>
     <g id="text_1">
      <!-- −10.0 -->
      <defs>
       <path d="M 10.59375 35.5 
L 73.1875 35.5 
L 73.1875 27.203125 
L 10.59375 27.203125 
z
" id="DejaVuSans-2212"/>
       <path d="M 12.40625 8.296875 
L 28.515625 8.296875 
L 28.515625 63.921875 
L 10.984375 60.40625 
L 10.984375 69.390625 
L 28.421875 72.90625 
L 38.28125 72.90625 
L 38.28125 8.296875 
L 54.390625 8.296875 
L 54.390625 0 
L 12.40625 0 
z
" id="DejaVuSans-31"/>
       <path d="M 31.78125 66.40625 
Q 24.171875 66.40625 20.328125 58.90625 
Q 16.5 51.421875 16.5 36.375 
Q 16.5 21.390625 20.328125 13.890625 
Q 24.171875 6.390625 31.78125 6.390625 
Q 39.453125 6.390625 43.28125 13.890625 
Q 47.125 21.390625 47.125 36.375 
Q 47.125 51.421875 43.28125 58.90625 
Q 39.453125 66.40625 31.78125 66.40625 
z
M 31.78125 74.21875 
Q 44.046875 74.21875 50.515625 64.515625 
Q 56.984375 54.828125 56.984375 36.375 
Q 56.984375 17.96875 50.515625 8.265625 
Q 44.046875 -1.421875 31.78125 -1.421875 
Q 19.53125 -1.421875 13.0625 8.265625 
Q 6.59375 17.96875 6.59375 36.375 
Q 6.59375 54.828125 13.0625 64.515625 
Q 19.53125 74.21875 31.78125 74.21875 
z
" id="DejaVuSans-30"/>
       <path d="M 10.6875 12.40625 
L 21 12.40625 
L 21 0 
L 10.6875 0 
z
" id="DejaVuSans-2e"/>
      </defs>
      <g transform="translate(128.677344 392.598437)scale(0.1 -0.1)">
       <use xlink:href="#DejaVuSans-2212"/>
       <use x="83.789062" xlink:href="#DejaVuSans-31"/>
       <use x="147.412109" xlink:href="#DejaVuSans-30"/>
       <use x="211.035156" xlink:href="#DejaVuSans-2e"/>
       <use x="242.822266" xlink:href="#DejaVuSans-30"/>
      </g>
     </g>
    </g>
    <g id="xtick_2">
     <g id="line2d_2">
      <g>
       <use style="stroke:#000000;stroke-width:0.8;" x="233.28" xlink:href="#mfdebfa87e3" y="378"/>
      </g>
     </g>
     <g id="text_2">
      <!-- −7.5 -->
      <defs>
       <path d="M 8.203125 72.90625 
L 55.078125 72.90625 
L 55.078125 68.703125 
L 28.609375 0 
L 18.3125 0 
L 43.21875 64.59375 
L 8.203125 64.59375 
z
" id="DejaVuSans-37"/>
       <path d="M 10.796875 72.90625 
L 49.515625 72.90625 
L 49.515625 64.59375 
L 19.828125 64.59375 
L 19.828125 46.734375 
Q 21.96875 47.46875 24.109375 47.828125 
Q 26.265625 48.1875 28.421875 48.1875 
Q 40.625 48.1875 47.75 41.5 
Q 54.890625 34.8125 54.890625 23.390625 
Q 54.890625 11.625 47.5625 5.09375 
Q 40.234375 -1.421875 26.90625 -1.421875 
Q 22.3125 -1.421875 17.546875 -0.640625 
Q 12.796875 0.140625 7.71875 1.703125 
L 7.71875 11.625 
Q 12.109375 9.234375 16.796875 8.0625 
Q 21.484375 6.890625 26.703125 6.890625 
Q 35.15625 6.890625 40.078125 11.328125 
Q 45.015625 15.765625 45.015625 23.390625 
Q 45.015625 31 40.078125 35.4375 
Q 35.15625 39.890625 26.703125 39.890625 
Q 22.75 39.890625 18.8125 39.015625 
Q 14.890625 38.140625 10.796875 36.28125 
z
" id="DejaVuSans-35"/>
      </defs>
      <g transform="translate(221.138594 392.598437)scale(0.1 -0.1)">
       <use xlink:href="#DejaVuSans-2212"/>
       <use x="83.789062" xlink:href="#DejaVuSans-37"/>
       <use x="147.412109" xlink:href="#DejaVuSans-2e"/>
       <use x="179.199219" xlink:href="#DejaVuSans-35"/>
      </g>
     </g>
    </g>
    <g id="xtick_3">
     <g id="line2d_3">
      <g>
       <use style="stroke:#000000;stroke-width:0.8;" x="322.56" xlink:href="#mfdebfa87e3" y="378"/>
      </g>
     </g>
     <g id="text_3">
      <!-- −5.0 -->
      <g transform="translate(310.418594 392.598437)scale(0.1 -0.1)">
       <use xlink:href="#DejaVuSans-2212"/>
       <use x="83.789062" xlink:href="#DejaVuSans-35"/>
       <use x="147.412109" xlink:href="#DejaVuSans-2e"/>
       <use x="179.199219" xlink:href="#DejaVuSans-30"/>
      </g>
     </g>
    </g>
    <g id="xtick_4">
     <g id="line2d_4">
      <g>
       <use style="stroke:#000000;stroke-width:0.8;" x="411.84" xlink:href="#mfdebfa87e3" y="378"/>
      </g>
     </g>
     <g id="text_4">
      <!-- −2.5 -->
      <defs>
       <path d="M 19.1875 8.296875 
L 53.609375 8.296875 
L 53.609375 0 
L 7.328125 0 
L 7.328125 8.296875 
Q 12.9375 14.109375 22.625 23.890625 
Q 32.328125 33.6875 34.8125 36.53125 
Q 39.546875 41.84375 41.421875 45.53125 
Q 43.3125 49.21875 43.3125 52.78125 
Q 43.3125 58.59375 39.234375 62.25 
Q 35.15625 65.921875 28.609375 65.921875 
Q 23.96875 65.921875 18.8125 64.3125 
Q 13.671875 62.703125 7.8125 59.421875 
L 7.8125 69.390625 
Q 13.765625 71.78125 18.9375 73 
Q 24.125 74.21875 28.421875 74.21875 
Q 39.75 74.21875 46.484375 68.546875 
Q 53.21875 62.890625 53.21875 53.421875 
Q 53.21875 48.921875 51.53125 44.890625 
Q 49.859375 40.875 45.40625 35.40625 
Q 44.1875 33.984375 37.640625 27.21875 
Q 31.109375 20.453125 19.1875 8.296875 
z
" id="DejaVuSans-32"/>
      </defs>
      <g transform="translate(399.698594 392.598437)scale(0.1 -0.1)">
       <use xlink:href="#DejaVuSans-2212"/>
       <use x="83.789062" xlink:href="#DejaVuSans-32"/>
       <use x="147.412109" xlink:href="#DejaVuSans-2e"/>
       <use x="179.199219" xlink:href="#DejaVuSans-35"/>
      </g>
     </g>
    </g>
    <g id="xtick_5">
     <g id="line2d_5">
      <g>
       <use style="stroke:#000000;stroke-width:0.8;" x="501.12" xlink:href="#mfdebfa87e3" y="378"/>
      </g>
     </g>
     <g id="text_5">
      <!-- 0.0 -->
      <g transform="translate(493.168437 392.598437)scale(0.1 -0.1)">
       <use xlink:href="#DejaVuSans-30"/>
       <use x="63.623047" xlink:href="#DejaVuSans-2e"/>
       <use x="95.410156" xlink:href="#DejaVuSans-30"/>
      </g>
     </g>
    </g>
    <g id="xtick_6">
     <g id="line2d_6">
      <g>
       <use style="stroke:#000000;stroke-width:0.8;" x="590.4" xlink:href="#mfdebfa87e3" y="378"/>
      </g>
     </g>
     <g id="text_6">
      <!-- 2.5 -->
      <g transform="translate(582.448437 392.598437)scale(0.1 -0.1)">
       <use xlink:href="#DejaVuSans-32"/>
       <use x="63.623047" xlink:href="#DejaVuSans-2e"/>
       <use x="95.410156" xlink:href="#DejaVuSans-35"/>
      </g>
     </g>
    </g>
    <g id="xtick_7">
     <g id="line2d_7">
      <g>
       <use style="stroke:#000000;stroke-width:0.8;" x="679.68" xlink:href="#mfdebfa87e3" y="378"/>
      </g>
     </g>
     <g id="text_7">
      <!-- 5.0 -->
      <g transform="translate(671.728438 392.598437)scale(0.1 -0.1)">
       <use xlink:href="#DejaVuSans-35"/>
       <use x="63.623047" xlink:href="#DejaVuSans-2e"/>
       <use x="95.410156" xlink:href="#DejaVuSans-30"/>
      </g>
     </g>
    </g>
    <g id="xtick_8">
     <g id="line2d_8">
      <g>
       <use style="stroke:#000000;stroke-width:0.8;" x="768.96" xlink:href="#mfdebfa87e3" y="378"/>
      </g>
     </g>
     <g id="text_8">
      <!-- 7.5 -->
      <g transform="translate(761.008438 392.598437)scale(0.1 -0.1)">
       <use xlink:href="#DejaVuSans-37"/>
       <use x="63.623047" xlink:href="#DejaVuSans-2e"/>
       <use x="95.410156" xlink:href="#DejaVuSans-35"/>
      </g>
     </g>
    </g>
    <g id="xtick_9">
     <g id="line2d_9">
      <g>
       <use style="stroke:#000000;stroke-width:0.8;" x="858.24" xlink:href="#mfdebfa87e3" y="378"/>
      </g>
     </g>
     <g id="text_9">
      <!-- 10.0 -->
      <g transform="translate(847.107188 392.598437)scale(0.1 -0.1)">
       <use xlink:href="#DejaVuSans-31"/>
       <use x="63.623047" xlink:href="#DejaVuSans-30"/>
       <use x="127.246094" xlink:href="#DejaVuSans-2e"/>
       <use x="159.033203" xlink:href="#DejaVuSans-30"/>
      </g>
     </g>
    </g>
   </g>
   <g id="matplotlib.axis_2">
    <g id="ytick_1">
     <g id="line2d_10">
      <defs>
       <path d="M 0 0 
L -3.5 0 
" id="m533f8d741a" style="stroke:#000000;stroke-width:0.8;"/>
      </defs>
      <g>
       <use style="stroke:#000000;stroke-width:0.8;" x="144" xlink:href="#m533f8d741a" y="378"/>
      </g>
     </g>
     <g id="text_10">
      <!-- −10.0 -->
      <g transform="translate(106.354687 381.799219)scale(0.1 -0.1)">
       <use xlink:href="#DejaVuSans-2212"/>
       <use x="83.789062" xlink:href="#DejaVuSans-31"/>
       <use x="147.412109" xlink:href="#DejaVuSans-30"/>
       <use x="211.035156" xlink:href="#DejaVuSans-2e"/>
       <use x="242.822266" xlink:href="#DejaVuSans-30"/>
      </g>
     </g>
    </g>
    <g id="ytick_2">
     <g id="line2d_11">
      <g>
       <use style="stroke:#000000;stroke-width:0.8;" x="144" xlink:href="#m533f8d741a" y="337.23"/>
      </g>
     </g>
     <g id="text_11">
      <!-- −7.5 -->
      <g transform="translate(112.717187 341.029219)scale(0.1 -0.1)">
       <use xlink:href="#DejaVuSans-2212"/>
       <use x="83.789062" xlink:href="#DejaVuSans-37"/>
       <use x="147.412109" xlink:href="#DejaVuSans-2e"/>
       <use x="179.199219" xlink:href="#DejaVuSans-35"/>
      </g>
     </g>
    </g>
    <g id="ytick_3">
     <g id="line2d_12">
      <g>
       <use style="stroke:#000000;stroke-width:0.8;" x="144" xlink:href="#m533f8d741a" y="296.46"/>
      </g>
     </g>
     <g id="text_12">
      <!-- −5.0 -->
      <g transform="translate(112.717187 300.259219)scale(0.1 -0.1)">
       <use xlink:href="#DejaVuSans-2212"/>
       <use x="83.789062" xlink:href="#DejaVuSans-35"/>
       <use x="147.412109" xlink:href="#DejaVuSans-2e"/>
       <use x="179.199219" xlink:href="#DejaVuSans-30"/>
      </g>
     </g>
    </g>
    <g id="ytick_4">
     <g id="line2d_13">
      <g>
       <use style="stroke:#000000;stroke-width:0.8;" x="144" xlink:href="#m533f8d741a" y="255.69"/>
      </g>
     </g>
     <g id="text_13">
      <!-- −2.5 -->
      <g transform="translate(112.717187 259.489219)scale(0.1 -0.1)">
       <use xlink:href="#DejaVuSans-2212"/>
       <use x="83.789062" xlink:href="#DejaVuSans-32"/>
       <use x="147.412109" xlink:href="#DejaVuSans-2e"/>
       <use x="179.199219" xlink:href="#DejaVuSans-35"/>
      </g>
     </g>
    </g>
    <g id="ytick_5">
     <g id="line2d_14">
      <g>
       <use style="stroke:#000000;stroke-width:0.8;" x="144" xlink:href="#m533f8d741a" y="214.92"/>
      </g>
     </g>
     <g id="text_14">
      <!-- 0.0 -->
      <g transform="translate(121.096875 218.719219)scale(0.1 -0.1)">
       <use xlink:href="#DejaVuSans-30"/>
       <use x="63.623047" xlink:href="#DejaVuSans-2e"/>
       <use x="95.410156" xlink:href="#DejaVuSans-30"/>
      </g>
     </g>
    </g>
    <g id="ytick_6">
     <g id="line2d_15">
      <g>
       <use style="stroke:#000000;stroke-width:0.8;" x="144" xlink:href="#m533f8d741a" y="174.15"/>
      </g>
     </g>
     <g id="text_15">
      <!-- 2.5 -->
      <g transform="translate(121.096875 177.949219)scale(0.1 -0.1)">
       <use xlink:href="#DejaVuSans-32"/>
       <use x="63.623047" xlink:href="#DejaVuSans-2e"/>
       <use x="95.410156" xlink:href="#DejaVuSans-35"/>
      </g>
     </g>
    </g>
    <g id="ytick_7">
     <g id="line2d_16">
      <g>
       <use style="stroke:#000000;stroke-width:0.8;" x="144" xlink:href="#m533f8d741a" y="133.38"/>
      </g>
     </g>
     <g id="text_16">
      <!-- 5.0 -->
      <g transform="translate(121.096875 137.179219)scale(0.1 -0.1)">
       <use xlink:href="#DejaVuSans-35"/>
       <use x="63.623047" xlink:href="#DejaVuSans-2e"/>
       <use x="95.410156" xlink:href="#DejaVuSans-30"/>
      </g>
     </g>
    </g>
    <g id="ytick_8">
     <g id="line2d_17">
      <g>
       <use style="stroke:#000000;stroke-width:0.8;" x="144" xlink:href="#m533f8d741a" y="92.61"/>
      </g>
     </g>
     <g id="text_17">
      <!-- 7.5 -->
      <g transform="translate(121.096875 96.409219)scale(0.1 -0.1)">
       <use xlink:href="#DejaVuSans-37"/>
       <use x="63.623047" xlink:href="#DejaVuSans-2e"/>
       <use x="95.410156" xlink:href="#DejaVuSans-35"/>
      </g>
     </g>
    </g>
    <g id="ytick_9">
     <g id="line2d_18">
      <g>
       <use style="stroke:#000000;stroke-width:0.8;" x="144" xlink:href="#m533f8d741a" y="51.84"/>
      </g>
     </g>
     <g id="text_18">
      <!-- 10.0 -->
      <g transform="translate(114.734375 55.639219)scale(0.1 -0.1)">
       <use xlink:href="#DejaVuSans-31"/>
       <use x="63.623047" xlink:href="#DejaVuSans-30"/>
       <use x="127.246094" xlink:href="#DejaVuSans-2e"/>
       <use x="159.033203" xlink:href="#DejaVuSans-30"/>
      </g>
     </g>
    </g>
   </g>
   <g id="LineCollection_1">
    <path clip-path="url(#pfda421af83)" d="M 497.512727 217.61626 
L 495.215607 216.567273 
L 491.279344 213.272727 
L 497.512727 210.426233 
L 504.727273 212.22374 
L 507.024393 213.272727 
L 510.960656 216.567273 
L 504.727273 219.413767 
L 497.512727 217.61626 
" style="fill:none;stroke:#8000ff;stroke-width:1.5;"/>
   </g>
   <g id="LineCollection_2">
    <path clip-path="url(#pfda421af83)" d="M 504.727273 220.438615 
L 501.780048 219.861818 
L 497.512727 218.692607 
L 492.858575 216.567273 
L 490.298182 214.618587 
L 489.035086 213.272727 
L 489.972756 209.978182 
L 490.298182 209.829575 
L 497.512727 209.401385 
L 500.459952 209.978182 
L 504.727273 211.147393 
L 509.381425 213.272727 
L 511.941818 215.221413 
L 513.204914 216.567273 
L 512.267244 219.861818 
L 511.941818 220.010425 
L 504.727273 220.438615 
" style="fill:none;stroke:#8000ff;stroke-width:1.5;"/>
   </g>
   <g id="LineCollection_3">
    <path clip-path="url(#pfda421af83)" d="M 497.512727 220.126138 
L 496.768531 219.861818 
L 490.298182 216.907113 
L 489.719362 216.567273 
L 486.462037 213.272727 
L 486.370488 209.978182 
L 490.298182 208.184588 
L 497.512727 208.226394 
L 504.727273 209.713862 
L 505.471469 209.978182 
L 511.941818 212.932887 
L 512.520638 213.272727 
L 515.777963 216.567273 
L 515.869512 219.861818 
L 511.941818 221.655412 
L 504.727273 221.613606 
L 497.512727 220.126138 
" style="fill:none;stroke:#8000ff;stroke-width:1.5;"/>
   </g>
   <g id="LineCollection_4">
    <path clip-path="url(#pfda421af83)" d="M 504.727273 223.317357 
L 503.951663 223.156364 
L 497.512727 221.52283 
L 492.836123 219.861818 
L 490.298182 218.702859 
L 486.660823 216.567273 
L 483.083636 213.626912 
L 482.731087 213.272727 
L 481.851126 209.978182 
L 483.083636 208.289692 
L 486.600651 206.683636 
L 490.298182 206.120806 
L 497.512727 206.522643 
L 498.288337 206.683636 
L 504.727273 208.31717 
L 509.403877 209.978182 
L 511.941818 211.137141 
L 515.579177 213.272727 
L 519.156364 216.213088 
L 519.508913 216.567273 
L 520.388874 219.861818 
L 519.156364 221.550308 
L 515.639349 223.156364 
L 511.941818 223.719194 
L 504.727273 223.317357 
" style="fill:none;stroke:#8000ff;stroke-width:1.5;"/>
   </g>
   <g id="LineCollection_5">
    <path clip-path="url(#pfda421af83)" d="M 497.512727 223.503237 
L 496.415528 223.156364 
L 490.298182 220.870768 
L 488.088738 219.861818 
L 483.083636 217.068312 
L 482.324037 216.567273 
L 478.906589 213.272727 
L 477.17674 209.978182 
L 478.581003 206.683636 
L 483.083636 204.627494 
L 490.298182 203.986233 
L 497.512727 204.776174 
L 504.727273 206.336763 
L 505.824472 206.683636 
L 511.941818 208.969232 
L 514.151262 209.978182 
L 519.156364 212.771688 
L 519.915963 213.272727 
L 523.333411 216.567273 
L 525.06326 219.861818 
L 523.658997 223.156364 
L 519.156364 225.212506 
L 511.941818 225.853767 
L 504.727273 225.063826 
L 497.512727 223.503237 
" style="fill:none;stroke:#8000ff;stroke-width:1.5;"/>
   </g>
   <g id="LineCollection_6">
    <path clip-path="url(#pfda421af83)" d="M 504.727273 227.391085 
L 500.315475 226.450909 
L 497.512727 225.761741 
L 490.298182 223.43763 
L 489.587493 223.156364 
L 483.083636 220.186356 
L 482.467706 219.861818 
L 477.378263 216.567273 
L 475.869091 215.287389 
L 473.810252 213.272727 
L 471.828612 209.978182 
L 471.749848 206.683636 
L 474.842541 203.389091 
L 475.869091 202.920314 
L 483.083636 201.508025 
L 490.298182 201.543993 
L 497.512727 202.448915 
L 501.924525 203.389091 
L 504.727273 204.078259 
L 511.941818 206.40237 
L 512.652507 206.683636 
L 519.156364 209.653644 
L 519.772294 209.978182 
L 524.861737 213.272727 
L 526.370909 214.552611 
L 528.429748 216.567273 
L 530.411388 219.861818 
L 530.490152 223.156364 
L 527.397459 226.450909 
L 526.370909 226.919686 
L 519.156364 228.331975 
L 511.941818 228.296007 
L 504.727273 227.391085 
" style="fill:none;stroke:#8000ff;stroke-width:1.5;"/>
   </g>
   <g id="LineCollection_7">
    <path clip-path="url(#pfda421af83)" d="M 504.727273 230.248422 
L 502.402053 229.745455 
L 497.512727 228.563423 
L 490.363332 226.450909 
L 490.298182 226.429092 
L 483.083636 223.524706 
L 482.277023 223.156364 
L 475.916868 219.861818 
L 475.869091 219.832067 
L 471.243012 216.567273 
L 468.654545 214.334546 
L 467.553125 213.272727 
L 465.301622 209.978182 
L 464.373595 206.683636 
L 465.379883 203.389091 
L 468.654545 200.611947 
L 469.787574 200.094545 
L 475.869091 198.59916 
L 483.083636 198.139636 
L 490.298182 198.563422 
L 497.512727 199.591578 
L 499.837947 200.094545 
L 504.727273 201.276577 
L 511.876668 203.389091 
L 511.941818 203.410908 
L 519.156364 206.315294 
L 519.962977 206.683636 
L 526.323132 209.978182 
L 526.370909 210.007933 
L 530.996988 213.272727 
L 533.585455 215.505454 
L 534.686875 216.567273 
L 536.938378 219.861818 
L 537.866405 223.156364 
L 536.860117 226.450909 
L 533.585455 229.228053 
L 532.452426 229.745455 
L 526.370909 231.24084 
L 519.156364 231.700364 
L 511.941818 231.276578 
L 504.727273 230.248422 
" style="fill:none;stroke:#8000ff;stroke-width:1.5;"/>
   </g>
   <g id="LineCollection_8">
    <path clip-path="url(#pfda421af83)" d="M 504.727273 233.715568 
L 501.634003 233.04 
L 497.512727 232.054194 
L 490.298182 229.991299 
L 489.569809 229.745455 
L 483.083636 227.3477 
L 480.913083 226.450909 
L 475.869091 224.147554 
L 473.905257 223.156364 
L 468.654545 220.194432 
L 468.116183 219.861818 
L 463.598763 216.567273 
L 461.44 214.685279 
L 459.96061 213.272727 
L 457.414867 209.978182 
L 455.85203 206.683636 
L 455.619007 203.389091 
L 457.247723 200.094545 
L 461.44 196.903851 
L 461.667417 196.8 
L 468.654545 194.885583 
L 475.869091 194.141825 
L 483.083636 194.248236 
L 490.298182 194.96191 
L 497.512727 196.124432 
L 500.605997 196.8 
L 504.727273 197.785806 
L 511.941818 199.848701 
L 512.670191 200.094545 
L 519.156364 202.4923 
L 521.326917 203.389091 
L 526.370909 205.692446 
L 528.334743 206.683636 
L 533.585455 209.645568 
L 534.123817 209.978182 
L 538.641237 213.272727 
L 540.8 215.154721 
L 542.27939 216.567273 
L 544.825133 219.861818 
L 546.38797 223.156364 
L 546.620993 226.450909 
L 544.992277 229.745455 
L 540.8 232.936149 
L 540.572583 233.04 
L 533.585455 234.954417 
L 526.370909 235.698175 
L 519.156364 235.591764 
L 511.941818 234.87809 
L 504.727273 233.715568 
" style="fill:none;stroke:#7e03ff;stroke-width:1.5;"/>
   </g>
   <g id="LineCollection_9">
    <path clip-path="url(#pfda421af83)" d="M 519.156364 240.181718 
L 514.488574 239.629091 
L 511.941818 239.303455 
L 504.727273 237.985354 
L 497.512727 236.39464 
L 497.288236 236.334545 
L 490.298182 234.324748 
L 486.300192 233.04 
L 483.083636 231.923673 
L 477.405109 229.745455 
L 475.869091 229.105021 
L 470.056997 226.450909 
L 468.654545 225.749481 
L 463.884583 223.156364 
L 461.44 221.687513 
L 458.6266 219.861818 
L 454.225455 216.669787 
L 454.093856 216.567273 
L 450.610438 213.272727 
L 447.724001 209.978182 
L 447.010909 208.815197 
L 445.800741 206.683636 
L 444.838183 203.389091 
L 444.962926 200.094545 
L 446.485629 196.8 
L 447.010909 196.240301 
L 450.604244 193.505455 
L 454.225455 191.851817 
L 460.214346 190.210909 
L 461.44 189.971038 
L 468.654545 189.275691 
L 475.869091 189.218727 
L 483.083636 189.658282 
L 487.751426 190.210909 
L 490.298182 190.536545 
L 497.512727 191.854646 
L 504.727273 193.44536 
L 504.951764 193.505455 
L 511.941818 195.515252 
L 515.939808 196.8 
L 519.156364 197.916327 
L 524.834891 200.094545 
L 526.370909 200.734979 
L 532.183003 203.389091 
L 533.585455 204.090519 
L 538.355417 206.683636 
L 540.8 208.152487 
L 543.6134 209.978182 
L 548.014545 213.170213 
L 548.146144 213.272727 
L 551.629562 216.567273 
L 554.515999 219.861818 
L 555.229091 221.024803 
L 556.439259 223.156364 
L 557.401817 226.450909 
L 557.277074 229.745455 
L 555.754371 233.04 
L 555.229091 233.599699 
L 551.635756 236.334545 
L 548.014545 237.988183 
L 542.025654 239.629091 
L 540.8 239.868962 
L 533.585455 240.564309 
L 526.370909 240.621273 
L 519.156364 240.181718 
" style="fill:none;stroke:#7c06ff;stroke-width:1.5;"/>
   </g>
   <g id="LineCollection_10">
    <path clip-path="url(#pfda421af83)" d="M 526.370909 246.432678 
L 524.15655 246.218182 
L 519.156364 245.702586 
L 511.941818 244.635653 
L 504.727273 243.314135 
L 502.966708 242.923636 
L 497.512727 241.640611 
L 490.298182 239.7372 
L 489.937922 239.629091 
L 483.083636 237.447554 
L 479.86638 236.334545 
L 475.869091 234.862469 
L 471.286917 233.04 
L 468.654545 231.920821 
L 463.890829 229.745455 
L 461.44 228.543374 
L 457.449074 226.450909 
L 454.225455 224.625534 
L 451.788139 223.156364 
L 447.010909 220.026332 
L 446.774167 219.861818 
L 442.60599 216.567273 
L 439.796364 214.076695 
L 438.941232 213.272727 
L 436.047312 209.978182 
L 433.710893 206.683636 
L 432.581818 204.400285 
L 432.112106 203.389091 
L 431.38362 200.094545 
L 431.549763 196.8 
L 432.581818 194.06651 
L 432.848911 193.505455 
L 435.966296 190.210909 
L 439.796364 187.762291 
L 441.648814 186.916364 
L 447.010909 185.167351 
L 454.225455 183.743787 
L 455.45408 183.621818 
L 461.44 183.150527 
L 468.654545 183.074657 
L 475.869091 183.407322 
L 478.08345 183.621818 
L 483.083636 184.137414 
L 490.298182 185.204347 
L 497.512727 186.525865 
L 499.273292 186.916364 
L 504.727273 188.199389 
L 511.941818 190.1028 
L 512.302078 190.210909 
L 519.156364 192.392446 
L 522.37362 193.505455 
L 526.370909 194.977531 
L 530.953083 196.8 
L 533.585455 197.919179 
L 538.349171 200.094545 
L 540.8 201.296626 
L 544.790926 203.389091 
L 548.014545 205.214466 
L 550.451861 206.683636 
L 555.229091 209.813668 
L 555.465833 209.978182 
L 559.63401 213.272727 
L 562.443636 215.763305 
L 563.298768 216.567273 
L 566.192688 219.861818 
L 568.529107 223.156364 
L 569.658182 225.439715 
L 570.127894 226.450909 
L 570.85638 229.745455 
L 570.690237 233.04 
L 569.658182 235.77349 
L 569.391089 236.334545 
L 566.273704 239.629091 
L 562.443636 242.077709 
L 560.591186 242.923636 
L 555.229091 244.672649 
L 548.014545 246.096213 
L 546.78592 246.218182 
L 540.8 246.689473 
L 533.585455 246.765343 
L 526.370909 246.432678 
" style="fill:none;stroke:#7a09ff;stroke-width:1.5;"/>
   </g>
   <g id="LineCollection_11">
    <path clip-path="url(#pfda421af83)" d="M 526.370909 253.325887 
L 522.137898 252.807273 
L 519.156364 252.423252 
L 511.941818 251.236663 
L 504.727273 249.853986 
L 503.197081 249.512727 
L 497.512727 248.183182 
L 490.298182 246.329588 
L 489.909649 246.218182 
L 483.083636 244.165444 
L 479.239015 242.923636 
L 475.869091 241.779336 
L 469.945236 239.629091 
L 468.654545 239.135271 
L 461.777977 236.334545 
L 461.44 236.189027 
L 454.544119 233.04 
L 454.225455 232.885662 
L 448.092299 229.745455 
L 447.010909 229.156056 
L 442.302204 226.450909 
L 439.796364 224.912023 
L 437.076997 223.156364 
L 432.581818 220.039243 
L 432.337855 219.861818 
L 428.278771 216.567273 
L 425.367273 213.971494 
L 424.61997 213.272727 
L 421.592119 209.978182 
L 418.993673 206.683636 
L 418.152727 205.322109 
L 417.017041 203.389091 
L 415.663883 200.094545 
L 414.944387 196.8 
L 414.967183 193.505455 
L 415.867233 190.210909 
L 417.814327 186.916364 
L 418.152727 186.547866 
L 421.484675 183.621818 
L 425.367273 181.288922 
L 427.473137 180.327273 
L 432.581818 178.554272 
L 438.98941 177.032727 
L 439.796364 176.878196 
L 447.010909 175.989049 
L 454.225455 175.578038 
L 461.44 175.567628 
L 468.654545 175.896188 
L 475.869091 176.514113 
L 480.102102 177.032727 
L 483.083636 177.416748 
L 490.298182 178.603337 
L 497.512727 179.986014 
L 499.042919 180.327273 
L 504.727273 181.656818 
L 511.941818 183.510412 
L 512.330351 183.621818 
L 519.156364 185.674556 
L 523.000985 186.916364 
L 526.370909 188.060664 
L 532.294764 190.210909 
L 533.585455 190.704729 
L 540.462023 193.505455 
L 540.8 193.650973 
L 547.695881 196.8 
L 548.014545 196.954338 
L 554.147701 200.094545 
L 555.229091 200.683944 
L 559.937796 203.389091 
L 562.443636 204.927977 
L 565.163003 206.683636 
L 569.658182 209.800757 
L 569.902145 209.978182 
L 573.961229 213.272727 
L 576.872727 215.868506 
L 577.62003 216.567273 
L 580.647881 219.861818 
L 583.246327 223.156364 
L 584.087273 224.517891 
L 585.222959 226.450909 
L 586.576117 229.745455 
L 587.295613 233.04 
L 587.272817 236.334545 
L 586.372767 239.629091 
L 584.425673 242.923636 
L 584.087273 243.292134 
L 580.755325 246.218182 
L 576.872727 248.551078 
L 574.766863 249.512727 
L 569.658182 251.285728 
L 563.25059 252.807273 
L 562.443636 252.961804 
L 555.229091 253.850951 
L 548.014545 254.261962 
L 540.8 254.272372 
L 533.585455 253.943812 
L 526.370909 253.325887 
" style="fill:none;stroke:#7610ff;stroke-width:1.5;"/>
   </g>
   <g id="LineCollection_12">
    <path clip-path="url(#pfda421af83)" d="M 540.8 263.162617 
L 535.176069 262.690909 
L 533.585455 262.551819 
L 526.370909 261.683433 
L 519.156364 260.62476 
L 511.941818 259.397342 
L 511.936881 259.396364 
L 504.727273 257.911605 
L 497.512727 256.28928 
L 496.762479 256.101818 
L 490.298182 254.423263 
L 484.476337 252.807273 
L 483.083636 252.404917 
L 475.869091 250.159733 
L 473.916145 249.512727 
L 468.654545 247.698424 
L 464.58189 246.218182 
L 461.44 245.027641 
L 456.158295 242.923636 
L 454.225455 242.119455 
L 448.518289 239.629091 
L 447.010909 238.940741 
L 441.557396 236.334545 
L 439.796364 235.451908 
L 435.188918 233.04 
L 432.581818 231.605246 
L 429.340317 229.745455 
L 425.367273 227.342728 
L 423.950429 226.450909 
L 419.033823 223.156364 
L 418.152727 222.520382 
L 414.613959 219.861818 
L 410.938182 216.909876 
L 410.527669 216.567273 
L 406.975028 213.272727 
L 403.723636 209.980436 
L 403.721494 209.978182 
L 401.033638 206.683636 
L 398.715308 203.389091 
L 396.813677 200.094545 
L 396.509091 199.368186 
L 395.476124 196.8 
L 394.664663 193.505455 
L 394.422365 190.210909 
L 394.828649 186.916364 
L 395.978428 183.621818 
L 396.509091 182.718591 
L 398.154885 180.327273 
L 401.533969 177.032727 
L 403.723636 175.461427 
L 406.65869 173.738182 
L 410.938182 171.783938 
L 414.711822 170.443636 
L 418.152727 169.443718 
L 425.367273 167.900648 
L 430.603891 167.149091 
L 432.581818 166.906762 
L 439.796364 166.381712 
L 447.010909 166.196181 
L 454.225455 166.306827 
L 461.44 166.677383 
L 467.063931 167.149091 
L 468.654545 167.288181 
L 475.869091 168.156567 
L 483.083636 169.21524 
L 490.298182 170.442658 
L 490.303119 170.443636 
L 497.512727 171.928395 
L 504.727273 173.55072 
L 505.477521 173.738182 
L 511.941818 175.416737 
L 517.763663 177.032727 
L 519.156364 177.435083 
L 526.370909 179.680267 
L 528.323855 180.327273 
L 533.585455 182.141576 
L 537.65811 183.621818 
L 540.8 184.812359 
L 546.081705 186.916364 
L 548.014545 187.720545 
L 553.721711 190.210909 
L 555.229091 190.899259 
L 560.682604 193.505455 
L 562.443636 194.388092 
L 567.051082 196.8 
L 569.658182 198.234754 
L 572.899683 200.094545 
L 576.872727 202.497272 
L 578.289571 203.389091 
L 583.206177 206.683636 
L 584.087273 207.319618 
L 587.626041 209.978182 
L 591.301818 212.930124 
L 591.712331 213.272727 
L 595.264972 216.567273 
L 598.516364 219.859564 
L 598.518506 219.861818 
L 601.206362 223.156364 
L 603.524692 226.450909 
L 605.426323 229.745455 
L 605.730909 230.471814 
L 606.763876 233.04 
L 607.575337 236.334545 
L 607.817635 239.629091 
L 607.411351 242.923636 
L 606.261572 246.218182 
L 605.730909 247.121409 
L 604.085115 249.512727 
L 600.706031 252.807273 
L 598.516364 254.378573 
L 595.58131 256.101818 
L 591.301818 258.056062 
L 587.528178 259.396364 
L 584.087273 260.396282 
L 576.872727 261.939352 
L 571.636109 262.690909 
L 569.658182 262.933238 
L 562.443636 263.458288 
L 555.229091 263.643819 
L 548.014545 263.533173 
L 540.8 263.162617 
" style="fill:none;stroke:#7019ff;stroke-width:1.5;"/>
   </g>
   <g id="LineCollection_13">
    <path clip-path="url(#pfda421af83)" d="M 533.585455 272.918267 
L 526.370909 271.903366 
L 519.156364 270.721903 
L 511.301759 269.28 
L 504.727273 267.898007 
L 496.364003 265.985455 
L 483.083636 262.505811 
L 472.752941 259.396364 
L 462.791073 256.101818 
L 461.44 255.631246 
L 453.720038 252.807273 
L 445.435577 249.512727 
L 437.753622 246.218182 
L 430.610751 242.923636 
L 423.952144 239.629091 
L 417.730166 236.334545 
L 410.938182 232.423028 
L 403.723636 227.873909 
L 401.596741 226.450909 
L 396.509091 222.851201 
L 392.664446 219.861818 
L 388.676002 216.567273 
L 385.106351 213.272727 
L 381.794435 209.978182 
L 378.922455 206.683636 
L 376.335233 203.389091 
L 374.112758 200.094545 
L 372.314011 196.8 
L 370.882436 193.505455 
L 369.856684 190.210909 
L 369.281027 186.916364 
L 369.206417 183.621818 
L 369.691802 180.327273 
L 370.805754 177.032727 
L 372.628513 173.738182 
L 375.292553 170.443636 
L 379.19921 167.149091 
L 382.08 165.248893 
L 384.57824 163.854545 
L 389.294545 161.700829 
L 392.34795 160.56 
L 396.509091 159.244478 
L 404.753696 157.265455 
L 410.938182 156.243948 
L 418.152727 155.411579 
L 425.367273 154.90289 
L 432.581818 154.681237 
L 439.796364 154.715308 
L 447.010909 154.978184 
L 454.225455 155.446596 
L 461.44 156.100329 
L 471.150329 157.265455 
L 475.869091 157.936634 
L 483.083636 159.118097 
L 490.938241 160.56 
L 497.512727 161.941993 
L 505.875997 163.854545 
L 519.156364 167.334189 
L 529.487059 170.443636 
L 539.448927 173.738182 
L 540.8 174.208754 
L 548.519962 177.032727 
L 556.804423 180.327273 
L 564.486378 183.621818 
L 571.629249 186.916364 
L 578.287856 190.210909 
L 584.509834 193.505455 
L 591.301818 197.416972 
L 598.516364 201.966091 
L 600.643259 203.389091 
L 605.730909 206.988799 
L 609.575554 209.978182 
L 613.563998 213.272727 
L 617.133649 216.567273 
L 620.445565 219.861818 
L 623.317545 223.156364 
L 625.904767 226.450909 
L 628.127242 229.745455 
L 629.925989 233.04 
L 631.357564 236.334545 
L 632.383316 239.629091 
L 632.958973 242.923636 
L 633.033583 246.218182 
L 632.548198 249.512727 
L 631.434246 252.807273 
L 629.611487 256.101818 
L 626.947447 259.396364 
L 623.04079 262.690909 
L 620.16 264.591107 
L 617.66176 265.985455 
L 612.945455 268.139171 
L 609.89205 269.28 
L 605.730909 270.595522 
L 597.486304 272.574545 
L 591.301818 273.596052 
L 584.087273 274.428421 
L 576.872727 274.93711 
L 569.658182 275.158763 
L 562.443636 275.124692 
L 555.229091 274.861816 
L 548.014545 274.393404 
L 540.8 273.739671 
L 533.585455 272.918267 
L 533.585455 272.918267 
" style="fill:none;stroke:#6629fe;stroke-width:1.5;"/>
   </g>
   <g id="LineCollection_14">
    <path clip-path="url(#pfda421af83)" d="M 569.658182 289.129468 
L 562.443636 288.714165 
L 555.229091 288.136591 
L 548.014545 287.414112 
L 534.896222 285.752727 
L 533.585455 285.569167 
L 519.156364 283.159681 
L 511.941818 281.765954 
L 499.950639 279.163636 
L 490.298182 276.820809 
L 483.083636 274.920145 
L 474.762681 272.574545 
L 461.44 268.437531 
L 454.12503 265.985455 
L 445.021437 262.690909 
L 436.49585 259.396364 
L 428.494915 256.101818 
L 420.971647 252.807273 
L 413.884511 249.512727 
L 407.196651 246.218182 
L 400.875248 242.923636 
L 394.890987 239.629091 
L 389.217596 236.334545 
L 382.08 231.847826 
L 374.865455 226.956155 
L 374.15119 226.450909 
L 367.650909 221.532612 
L 365.566794 219.861818 
L 360.436364 215.453992 
L 358.078279 213.272727 
L 353.221818 208.362983 
L 351.685643 206.683636 
L 348.928576 203.389091 
L 346.007273 199.495979 
L 344.243807 196.8 
L 342.369096 193.505455 
L 340.786979 190.210909 
L 339.522182 186.916364 
L 338.612732 183.621818 
L 338.099596 180.327273 
L 337.974946 177.032727 
L 338.273574 173.738182 
L 339.050409 170.443636 
L 340.404228 167.149091 
L 342.359337 163.854545 
L 344.981329 160.56 
L 346.007273 159.529299 
L 348.536594 157.265455 
L 353.221818 153.893603 
L 360.436364 150.128242 
L 367.650909 147.32425 
L 374.865455 145.242295 
L 382.08 143.618772 
L 389.294545 142.421431 
L 396.509091 141.528624 
L 405.969145 140.792727 
L 410.938182 140.555654 
L 418.152727 140.419285 
L 425.367273 140.476206 
L 434.041776 140.792727 
L 439.796364 141.125835 
L 447.010909 141.703409 
L 454.225455 142.425888 
L 467.343778 144.087273 
L 468.654545 144.270833 
L 483.083636 146.680319 
L 490.298182 148.074046 
L 502.289361 150.676364 
L 511.941818 153.019191 
L 519.156364 154.919855 
L 527.477319 157.265455 
L 540.8 161.402469 
L 548.11497 163.854545 
L 557.218563 167.149091 
L 565.74415 170.443636 
L 573.745085 173.738182 
L 581.268353 177.032727 
L 588.355489 180.327273 
L 595.043349 183.621818 
L 601.364752 186.916364 
L 607.349013 190.210909 
L 613.022404 193.505455 
L 620.16 197.992174 
L 627.374545 202.883845 
L 628.08881 203.389091 
L 634.589091 208.307388 
L 636.673206 209.978182 
L 641.803636 214.386008 
L 644.161721 216.567273 
L 649.018182 221.477017 
L 650.554357 223.156364 
L 653.311424 226.450909 
L 656.232727 230.344021 
L 657.996193 233.04 
L 659.870904 236.334545 
L 661.453021 239.629091 
L 662.717818 242.923636 
L 663.627268 246.218182 
L 664.140404 249.512727 
L 664.265054 252.807273 
L 663.966426 256.101818 
L 663.189591 259.396364 
L 661.835772 262.690909 
L 659.880663 265.985455 
L 657.258671 269.28 
L 656.232727 270.310701 
L 653.703406 272.574545 
L 649.018182 275.946397 
L 641.803636 279.711758 
L 634.589091 282.51575 
L 627.374545 284.597705 
L 620.16 286.221228 
L 612.945455 287.418569 
L 605.730909 288.311376 
L 596.270855 289.047273 
L 591.301818 289.284346 
L 584.087273 289.420715 
L 576.872727 289.363794 
L 569.658182 289.129468 
L 569.658182 289.129468 
" style="fill:none;stroke:#583efd;stroke-width:1.5;"/>
   </g>
   <g id="LineCollection_15">
    <path clip-path="url(#pfda421af83)" d="M 569.658182 305.598016 
L 562.443636 304.911858 
L 548.014545 303.203493 
L 540.8 302.197194 
L 526.370909 299.820853 
L 519.156364 298.487091 
L 504.727273 295.50466 
L 490.298182 292.106076 
L 475.869091 288.29134 
L 467.028151 285.752727 
L 454.225455 281.792268 
L 446.279064 279.163636 
L 432.581818 274.283446 
L 425.367273 271.545546 
L 418.152727 268.681766 
L 410.938182 265.683219 
L 403.723636 262.540164 
L 396.509091 259.241897 
L 389.294545 255.776628 
L 382.08 252.131346 
L 374.865455 248.291648 
L 365.385522 242.923636 
L 359.889405 239.629091 
L 353.221818 235.381776 
L 344.950955 229.745455 
L 338.792727 225.191021 
L 332.09442 219.861818 
L 328.290561 216.567273 
L 324.363636 212.994687 
L 321.299146 209.978182 
L 317.149091 205.602541 
L 315.200252 203.389091 
L 312.501233 200.094545 
L 309.934545 196.709373 
L 307.792793 193.505455 
L 305.80734 190.210909 
L 304.051737 186.916364 
L 302.549158 183.621818 
L 301.356192 180.327273 
L 300.43386 177.032727 
L 299.800824 173.738182 
L 299.477507 170.443636 
L 299.486296 167.149091 
L 299.851794 163.854545 
L 300.601092 160.56 
L 301.764095 157.265455 
L 303.410741 153.970909 
L 305.626494 150.676364 
L 308.405249 147.381818 
L 309.934545 145.872464 
L 311.921235 144.087273 
L 317.149091 140.213991 
L 321.749758 137.498182 
L 324.363636 136.152167 
L 328.630616 134.203636 
L 331.578182 133.01 
L 338.792727 130.506919 
L 346.007273 128.521774 
L 353.221818 126.916187 
L 360.436364 125.64726 
L 370.535768 124.32 
L 374.865455 123.883483 
L 382.08 123.352394 
L 389.294545 123.010225 
L 396.509091 122.843319 
L 403.723636 122.839305 
L 410.938182 122.986949 
L 418.152727 123.276027 
L 425.367273 123.697213 
L 433.418045 124.32 
L 439.796364 124.928142 
L 454.225455 126.636507 
L 461.44 127.642806 
L 475.869091 130.019147 
L 483.083636 131.352909 
L 497.512727 134.33534 
L 511.941818 137.733924 
L 526.370909 141.54866 
L 535.211849 144.087273 
L 548.014545 148.047732 
L 555.960936 150.676364 
L 569.658182 155.556554 
L 576.872727 158.294454 
L 584.087273 161.158234 
L 591.301818 164.156781 
L 598.516364 167.299836 
L 605.730909 170.598103 
L 612.945455 174.063372 
L 620.16 177.708654 
L 627.374545 181.548352 
L 636.854478 186.916364 
L 642.350595 190.210909 
L 649.018182 194.458224 
L 657.289045 200.094545 
L 663.447273 204.648979 
L 670.14558 209.978182 
L 673.949439 213.272727 
L 677.876364 216.845313 
L 680.940854 219.861818 
L 685.090909 224.237459 
L 687.039748 226.450909 
L 689.738767 229.745455 
L 692.305455 233.130627 
L 694.447207 236.334545 
L 696.43266 239.629091 
L 698.188263 242.923636 
L 699.690842 246.218182 
L 700.883808 249.512727 
L 701.80614 252.807273 
L 702.439176 256.101818 
L 702.762493 259.396364 
L 702.753704 262.690909 
L 702.388206 265.985455 
L 701.638908 269.28 
L 700.475905 272.574545 
L 698.829259 275.869091 
L 696.613506 279.163636 
L 693.834751 282.458182 
L 692.305455 283.967536 
L 690.318765 285.752727 
L 685.090909 289.626009 
L 680.490242 292.341818 
L 677.876364 293.687833 
L 673.609384 295.636364 
L 670.661818 296.83 
L 663.447273 299.333081 
L 656.232727 301.318226 
L 649.018182 302.923813 
L 641.803636 304.19274 
L 631.704232 305.52 
L 627.374545 305.956517 
L 620.16 306.487606 
L 612.945455 306.829775 
L 605.730909 306.996681 
L 598.516364 307.000695 
L 591.301818 306.853051 
L 584.087273 306.563973 
L 576.872727 306.142787 
L 569.658182 305.598016 
L 569.658182 305.598016 
" style="fill:none;stroke:#445cfb;stroke-width:1.5;"/>
   </g>
   <g id="LineCollection_16">
    <path clip-path="url(#pfda421af83)" d="M 612.945455 328.60445 
L 605.730909 328.327761 
L 591.301818 327.446499 
L 576.872727 326.16817 
L 562.443636 324.506573 
L 548.014545 322.484106 
L 533.585455 320.103174 
L 519.156364 317.390019 
L 504.727273 314.344641 
L 490.298182 310.96704 
L 475.869091 307.257215 
L 461.44 303.215168 
L 447.010909 298.837767 
L 432.581818 294.082162 
L 418.152727 288.980455 
L 403.723636 283.459865 
L 393.175187 279.163636 
L 382.08 274.386507 
L 370.89754 269.28 
L 360.436364 264.213347 
L 351.028287 259.396364 
L 344.874094 256.101818 
L 338.792727 252.723938 
L 327.767098 246.218182 
L 322.467582 242.923636 
L 317.149091 239.493504 
L 307.767226 233.04 
L 302.72 229.36258 
L 294.745318 223.156364 
L 286.994154 216.567273 
L 279.958481 209.978182 
L 273.638301 203.389091 
L 270.785102 200.094545 
L 266.647273 194.931652 
L 265.571229 193.505455 
L 263.271312 190.210909 
L 261.142339 186.916364 
L 259.201568 183.621818 
L 257.503698 180.327273 
L 256.001109 177.032727 
L 254.704356 173.738182 
L 253.624769 170.443636 
L 252.774527 167.149091 
L 252.168623 163.854545 
L 251.830568 160.56 
L 251.754475 157.265455 
L 251.955603 153.970909 
L 252.459999 150.676364 
L 253.300458 147.381818 
L 254.487369 144.087273 
L 256.043575 140.792727 
L 257.993972 137.498182 
L 260.41071 134.203636 
L 263.374117 130.909091 
L 266.863828 127.614545 
L 271.119425 124.32 
L 276.150147 121.025455 
L 282.170519 117.730909 
L 289.504427 114.436364 
L 295.505455 112.186791 
L 302.72 109.889496 
L 310.350999 107.847273 
L 317.149091 106.352576 
L 327.162691 104.552727 
L 331.578182 103.895715 
L 338.792727 103.00506 
L 346.007273 102.294413 
L 353.221818 101.752407 
L 363.787253 101.258182 
L 367.650909 101.138274 
L 374.865455 101.046429 
L 382.08 101.081177 
L 389.894763 101.258182 
L 403.723636 101.900505 
L 418.152727 102.985668 
L 432.581818 104.447168 
L 439.796364 105.333427 
L 454.225455 107.355894 
L 468.654545 109.736826 
L 483.083636 112.449981 
L 497.512727 115.495359 
L 511.941818 118.87296 
L 526.370909 122.582785 
L 540.8 126.624832 
L 555.229091 131.002233 
L 569.658182 135.757838 
L 584.087273 140.859545 
L 598.516364 146.380135 
L 609.064813 150.676364 
L 620.16 155.453493 
L 631.34246 160.56 
L 641.803636 165.626653 
L 651.211713 170.443636 
L 657.365906 173.738182 
L 663.447273 177.116062 
L 674.472902 183.621818 
L 679.772418 186.916364 
L 685.090909 190.346496 
L 694.472774 196.8 
L 699.52 200.47742 
L 707.494682 206.683636 
L 715.245846 213.272727 
L 722.281519 219.861818 
L 728.601699 226.450909 
L 731.454898 229.745455 
L 735.592727 234.908348 
L 736.668771 236.334545 
L 738.968688 239.629091 
L 741.097661 242.923636 
L 743.038432 246.218182 
L 744.736302 249.512727 
L 746.238891 252.807273 
L 747.535644 256.101818 
L 748.615231 259.396364 
L 749.465473 262.690909 
L 750.071377 265.985455 
L 750.409432 269.28 
L 750.485525 272.574545 
L 750.284397 275.869091 
L 749.780001 279.163636 
L 748.939542 282.458182 
L 747.752631 285.752727 
L 746.196425 289.047273 
L 744.246028 292.341818 
L 741.82929 295.636364 
L 738.865883 298.930909 
L 735.376172 302.225455 
L 731.120575 305.52 
L 726.089853 308.814545 
L 720.069481 312.109091 
L 712.735573 315.403636 
L 706.734545 317.653209 
L 699.52 319.950504 
L 691.889001 321.992727 
L 685.090909 323.487424 
L 675.077309 325.287273 
L 670.661818 325.944285 
L 663.447273 326.83494 
L 656.232727 327.545587 
L 649.018182 328.087593 
L 638.452747 328.581818 
L 634.589091 328.701726 
L 627.374545 328.793571 
L 620.16 328.758823 
L 612.945455 328.60445 
L 612.945455 328.60445 
" style="fill:none;stroke:#2489f5;stroke-width:1.5;"/>
   </g>
   <g id="LineCollection_17">
    <path clip-path="url(#pfda421af83)" d="M 627.374545 354.976799 
L 612.945455 354.062983 
L 598.516364 352.826071 
L 584.087273 351.283943 
L 569.658182 349.430743 
L 555.229091 347.294969 
L 540.8 344.886543 
L 524.194797 341.76 
L 508.425404 338.465455 
L 493.989233 335.170909 
L 480.597152 331.876364 
L 468.037998 328.581818 
L 454.225455 324.710292 
L 439.796364 320.393301 
L 424.157576 315.403636 
L 410.938182 310.908237 
L 395.969202 305.52 
L 382.08 300.195963 
L 370.774876 295.636364 
L 360.436364 291.275639 
L 347.961117 285.752727 
L 338.792727 281.498964 
L 327.205742 275.869091 
L 317.149091 270.736406 
L 308.242198 265.985455 
L 296.512073 259.396364 
L 288.290909 254.519385 
L 280.200376 249.512727 
L 270.149768 242.923636 
L 265.341497 239.629091 
L 256.212888 233.04 
L 251.849909 229.745455 
L 243.618548 223.156364 
L 235.968225 216.567273 
L 228.898938 209.978182 
L 222.41069 203.389091 
L 216.513354 196.8 
L 213.809029 193.505455 
L 208.803018 186.916364 
L 206.562257 183.621818 
L 204.460623 180.327273 
L 201.716364 175.583677 
L 200.727222 173.738182 
L 199.127015 170.443636 
L 197.688372 167.149091 
L 196.418368 163.854545 
L 195.324498 160.56 
L 194.417253 157.265455 
L 193.721266 153.970909 
L 193.221326 150.676364 
L 192.926412 147.381818 
L 192.846061 144.087273 
L 192.990408 140.792727 
L 193.37024 137.498182 
L 193.997044 134.203636 
L 194.8961 130.909091 
L 196.094925 127.614545 
L 197.591569 124.32 
L 199.40213 121.025455 
L 201.716364 117.49888 
L 204.125472 114.436364 
L 207.101854 111.141818 
L 210.555637 107.847273 
L 216.145455 103.361729 
L 219.163469 101.258182 
L 224.463928 97.963636 
L 230.612461 94.669091 
L 237.830303 91.374545 
L 246.422973 88.08 
L 252.218182 86.163641 
L 259.432727 84.055488 
L 269.931296 81.490909 
L 273.861818 80.655665 
L 281.076364 79.296491 
L 288.290909 78.117601 
L 295.505455 77.139561 
L 302.72 76.312763 
L 309.934545 75.629316 
L 320.224486 74.901818 
L 324.363636 74.671311 
L 331.578182 74.385079 
L 346.007273 74.145711 
L 360.436364 74.317077 
L 375.546951 74.901818 
L 389.294545 75.777017 
L 403.723636 77.013929 
L 418.152727 78.556057 
L 432.581818 80.409257 
L 447.010909 82.545031 
L 461.44 84.953457 
L 478.045203 88.08 
L 493.814596 91.374545 
L 508.250767 94.669091 
L 521.642848 97.963636 
L 534.202002 101.258182 
L 548.014545 105.129708 
L 562.443636 109.446699 
L 578.082424 114.436364 
L 591.301818 118.931763 
L 606.270798 124.32 
L 620.16 129.644037 
L 631.465124 134.203636 
L 641.803636 138.564361 
L 654.278883 144.087273 
L 663.447273 148.341036 
L 675.034258 153.970909 
L 685.090909 159.103594 
L 693.997802 163.854545 
L 705.727927 170.443636 
L 713.949091 175.320615 
L 722.039624 180.327273 
L 732.090232 186.916364 
L 736.898503 190.210909 
L 746.027112 196.8 
L 750.390091 200.094545 
L 758.621452 206.683636 
L 766.271775 213.272727 
L 773.341062 219.861818 
L 779.82931 226.450909 
L 785.726646 233.04 
L 788.430971 236.334545 
L 793.436982 242.923636 
L 795.677743 246.218182 
L 797.779377 249.512727 
L 800.523636 254.256323 
L 801.512778 256.101818 
L 803.112985 259.396364 
L 804.551628 262.690909 
L 805.821632 265.985455 
L 806.915502 269.28 
L 807.822747 272.574545 
L 808.518734 275.869091 
L 809.018674 279.163636 
L 809.313588 282.458182 
L 809.393939 285.752727 
L 809.249592 289.047273 
L 808.86976 292.341818 
L 808.242956 295.636364 
L 807.3439 298.930909 
L 806.145075 302.225455 
L 804.648431 305.52 
L 802.83787 308.814545 
L 800.523636 312.34112 
L 798.114528 315.403636 
L 795.138146 318.698182 
L 791.684363 321.992727 
L 786.094545 326.478271 
L 783.076531 328.581818 
L 777.776072 331.876364 
L 771.627539 335.170909 
L 764.409697 338.465455 
L 755.817027 341.76 
L 750.021818 343.676359 
L 742.807273 345.784512 
L 732.308704 348.349091 
L 728.378182 349.184335 
L 721.163636 350.543509 
L 713.949091 351.722399 
L 706.734545 352.700439 
L 699.52 353.527237 
L 692.305455 354.210684 
L 682.015514 354.938182 
L 677.876364 355.168689 
L 670.661818 355.454921 
L 656.232727 355.694289 
L 641.803636 355.522923 
L 627.374545 354.976799 
L 627.374545 354.976799 
" style="fill:none;stroke:#0fc4e7;stroke-width:1.5;"/>
   </g>
   <g id="LineCollection_18">
    <path clip-path="url(#pfda421af83)" d="M 564.425472 378 
L 562.443636 377.681476 
L 555.229091 376.465468 
L 548.014545 375.204027 
L 545.277574 374.705455 
L 540.8 373.880797 
L 533.585455 372.50358 
L 528.042683 371.410909 
L 526.370909 371.077703 
L 519.156364 369.587097 
L 512.22243 368.116364 
L 511.941818 368.056186 
L 504.727273 366.454579 
L 497.536995 364.821818 
L 497.512727 364.816247 
L 490.298182 363.106024 
L 483.775794 361.527273 
L 483.083636 361.357884 
L 475.869091 359.541434 
L 470.77731 358.232727 
L 468.654545 357.681098 
L 461.44 355.760808 
L 458.415589 354.938182 
L 454.225455 353.78589 
L 447.010909 351.764147 
L 446.590966 351.643636 
L 439.796364 349.672259 
L 435.313855 348.349091 
L 432.581818 347.533625 
L 425.367273 345.340204 
L 424.446749 345.054545 
L 418.152727 343.079547 
L 414.014816 341.76 
L 410.938182 340.7678 
L 403.911447 338.465455 
L 403.723636 338.403214 
L 396.509091 335.965581 
L 394.193173 335.170909 
L 389.294545 333.470809 
L 384.768412 331.876364 
L 382.08 330.918354 
L 375.618827 328.581818 
L 374.865455 328.306192 
L 367.650909 325.624229 
L 366.758227 325.287273 
L 360.436364 322.873082 
L 358.162841 321.992727 
L 353.221818 320.056819 
L 349.801343 318.698182 
L 346.007273 317.173101 
L 341.664315 315.403636 
L 338.792727 314.219475 
L 333.742837 312.109091 
L 331.578182 311.193367 
L 326.028456 308.814545 
L 324.363636 308.092076 
L 318.513156 305.52 
L 317.149091 304.912766 
L 311.189329 302.225455 
L 309.934545 301.652453 
L 304.049749 298.930909 
L 302.72 298.308004 
L 297.08755 295.636364 
L 295.505455 294.876118 
L 290.296203 292.341818 
L 288.290909 291.353322 
L 283.669494 289.047273 
L 281.076364 287.735953 
L 277.201509 285.752727 
L 273.861818 284.020153 
L 270.886612 282.458182 
L 266.647273 280.201848 
L 264.719432 279.163636 
L 259.432727 276.276737 
L 258.694846 275.869091 
L 252.821761 272.574545 
L 252.218182 272.230516 
L 247.10153 269.28 
L 245.003636 268.052328 
L 241.512048 265.985455 
L 237.789091 263.748481 
L 236.048881 262.690909 
L 230.710842 259.396364 
L 230.574545 259.310599 
L 225.532764 256.101818 
L 223.36 254.696863 
L 220.470397 252.807273 
L 216.145455 249.933087 
L 215.519905 249.512727 
L 210.716654 246.218182 
L 208.930909 244.970588 
L 206.033376 242.923636 
L 201.716364 239.820859 
L 201.452465 239.629091 
L 197.025159 236.334545 
L 194.501818 234.421107 
L 192.700393 233.04 
L 188.495255 229.745455 
L 187.287273 228.776087 
L 184.421407 226.450909 
L 180.443662 223.156364 
L 180.072727 222.840288 
L 176.615505 219.861818 
L 172.870383 216.567273 
L 172.858182 216.556191 
L 169.282688 213.272727 
L 165.775415 209.978182 
L 165.643636 209.85004 
L 162.422957 206.683636 
L 159.15876 203.389091 
L 158.429091 202.62567 
L 156.03631 200.094545 
L 153.020418 196.8 
L 151.214545 194.755301 
L 150.122748 193.505455 
L 147.360388 190.210909 
L 144.697517 186.916364 
L 144 186.011352 
" style="fill:none;stroke:#5af8c8;stroke-width:1.5;"/>
    <path clip-path="url(#pfda421af83)" d="M 858.24 349.093856 
L 855.02818 351.643636 
L 851.025455 354.552762 
L 850.465411 354.938182 
L 845.301496 358.232727 
L 843.810909 359.115092 
L 839.489025 361.527273 
L 836.596364 363.030415 
L 832.926557 364.821818 
L 829.381818 366.440535 
L 825.458922 368.116364 
L 822.167273 369.437307 
L 816.88497 371.410909 
L 814.952727 372.091591 
L 807.738182 374.449709 
L 806.894172 374.705455 
L 800.523636 376.533312 
L 794.940011 378 
" style="fill:none;stroke:#5af8c8;stroke-width:1.5;"/>
    <path clip-path="url(#pfda421af83)" d="M 144 80.746144 
L 147.21182 78.196364 
L 151.214545 75.287238 
L 151.774589 74.901818 
L 156.938504 71.607273 
L 158.429091 70.724908 
L 162.750975 68.312727 
L 165.643636 66.809585 
L 169.313443 65.018182 
L 172.858182 63.399465 
L 176.781078 61.723636 
L 180.072727 60.402693 
L 185.35503 58.429091 
L 187.287273 57.748409 
L 194.501818 55.390291 
L 195.345828 55.134545 
L 201.716364 53.306688 
L 207.299989 51.84 
" style="fill:none;stroke:#5af8c8;stroke-width:1.5;"/>
    <path clip-path="url(#pfda421af83)" d="M 437.814528 51.84 
L 439.796364 52.158524 
L 447.010909 53.374532 
L 454.225455 54.635973 
L 456.962426 55.134545 
L 461.44 55.959203 
L 468.654545 57.33642 
L 474.197317 58.429091 
L 475.869091 58.762297 
L 483.083636 60.252903 
L 490.01757 61.723636 
L 490.298182 61.783814 
L 497.512727 63.385421 
L 504.703005 65.018182 
L 504.727273 65.023753 
L 511.941818 66.733976 
L 518.464206 68.312727 
L 519.156364 68.482116 
L 526.370909 70.298566 
L 531.46269 71.607273 
L 533.585455 72.158902 
L 540.8 74.079192 
L 543.824411 74.901818 
L 548.014545 76.05411 
L 555.229091 78.075853 
L 555.649034 78.196364 
L 562.443636 80.167741 
L 566.926145 81.490909 
L 569.658182 82.306375 
L 576.872727 84.499796 
L 577.793251 84.785455 
L 584.087273 86.760453 
L 588.225184 88.08 
L 591.301818 89.0722 
L 598.328553 91.374545 
L 598.516364 91.436786 
L 605.730909 93.874419 
L 608.046827 94.669091 
L 612.945455 96.369191 
L 617.471588 97.963636 
L 620.16 98.921646 
L 626.621173 101.258182 
L 627.374545 101.533808 
L 634.589091 104.215771 
L 635.481773 104.552727 
L 641.803636 106.966918 
L 644.077159 107.847273 
L 649.018182 109.783181 
L 652.438657 111.141818 
L 656.232727 112.666899 
L 660.575685 114.436364 
L 663.447273 115.620525 
L 668.497163 117.730909 
L 670.661818 118.646633 
L 676.211544 121.025455 
L 677.876364 121.747924 
L 683.726844 124.32 
L 685.090909 124.927234 
L 691.050671 127.614545 
L 692.305455 128.187547 
L 698.190251 130.909091 
L 699.52 131.531996 
L 705.15245 134.203636 
L 706.734545 134.963882 
L 711.943797 137.498182 
L 713.949091 138.486678 
L 718.570506 140.792727 
L 721.163636 142.104047 
L 725.038491 144.087273 
L 728.378182 145.819847 
L 731.353388 147.381818 
L 735.592727 149.638152 
L 737.520568 150.676364 
L 742.807273 153.563263 
L 743.545154 153.970909 
L 749.418239 157.265455 
L 750.021818 157.609484 
L 755.13847 160.56 
L 757.236364 161.787672 
L 760.727952 163.854545 
L 764.450909 166.091519 
L 766.191119 167.149091 
L 771.529158 170.443636 
L 771.665455 170.529401 
L 776.707236 173.738182 
L 778.88 175.143137 
L 781.769603 177.032727 
L 786.094545 179.906913 
L 786.720095 180.327273 
L 791.523346 183.621818 
L 793.309091 184.869412 
L 796.206624 186.916364 
L 800.523636 190.019141 
L 800.787535 190.210909 
L 805.214841 193.505455 
L 807.738182 195.418893 
L 809.539607 196.8 
L 813.744745 200.094545 
L 814.952727 201.063913 
L 817.818593 203.389091 
L 821.796338 206.683636 
L 822.167273 206.999712 
L 825.624495 209.978182 
L 829.369617 213.272727 
L 829.381818 213.283809 
L 832.957312 216.567273 
L 836.464585 219.861818 
L 836.596364 219.98996 
L 839.817043 223.156364 
L 843.08124 226.450909 
L 843.810909 227.21433 
L 846.20369 229.745455 
L 849.219582 233.04 
L 851.025455 235.084699 
L 852.117252 236.334545 
L 854.879612 239.629091 
L 857.542483 242.923636 
L 858.24 243.828648 
" style="fill:none;stroke:#5af8c8;stroke-width:1.5;"/>
   </g>
   <g id="LineCollection_19">
    <path clip-path="url(#pfda421af83)" d="M 413.525194 378 
L 410.938182 377.214204 
L 403.723636 374.990415 
L 402.814117 374.705455 
L 396.509091 372.712155 
L 392.446216 371.410909 
L 389.294545 370.392283 
L 382.342466 368.116364 
L 382.08 368.029648 
L 374.865455 365.608422 
L 372.55112 364.821818 
L 367.650909 363.140967 
L 363.003503 361.527273 
L 360.436364 360.627606 
L 353.684572 358.232727 
L 353.221818 358.067046 
L 346.007273 355.448274 
L 344.619064 354.938182 
L 338.792727 352.777213 
L 335.771345 351.643636 
L 331.578182 350.055514 
L 327.123574 348.349091 
L 324.363636 347.281726 
L 318.669049 345.054545 
L 317.149091 344.454339 
L 310.401365 341.76 
L 309.934545 341.571782 
L 302.72 338.6292 
L 302.323072 338.465455 
L 295.505455 335.625529 
L 294.425627 335.170909 
L 288.290909 332.562673 
L 286.693574 331.876364 
L 281.076364 329.438864 
L 279.12177 328.581818 
L 273.861818 326.252265 
L 271.705286 325.287273 
L 266.647273 323.000964 
L 264.43939 321.992727 
L 259.432727 319.682969 
L 257.319542 318.698182 
L 252.218182 316.296208 
L 250.341383 315.403636 
L 245.003636 312.838519 
L 243.500725 312.109091 
L 237.789091 309.307652 
L 236.793543 308.814545 
L 230.574545 305.701259 
L 230.215968 305.52 
L 223.772168 302.225455 
L 223.36 302.01228 
L 217.459815 298.930909 
L 216.145455 298.236815 
L 211.268272 295.636364 
L 208.930909 294.376029 
L 205.194105 292.341818 
L 201.716364 290.426997 
L 199.234007 289.047273 
L 194.501818 286.386657 
L 193.384794 285.752727 
L 187.650089 282.458182 
L 187.287273 282.246864 
L 182.042858 279.163636 
L 180.072727 277.991344 
L 176.538985 275.869091 
L 172.858182 273.631394 
L 171.135641 272.574545 
L 165.833531 269.28 
L 165.643636 269.160144 
L 160.659725 265.985455 
L 158.429091 264.546234 
L 155.579563 262.690909 
L 151.214545 259.811699 
L 150.590525 259.396364 
L 145.720773 256.101818 
L 144 254.920451 
" style="fill:none;stroke:#cee184;stroke-width:1.5;"/>
    <path clip-path="url(#pfda421af83)" d="M 588.714806 51.84 
L 591.301818 52.625796 
L 598.516364 54.849585 
L 599.425883 55.134545 
L 605.730909 57.127845 
L 609.793784 58.429091 
L 612.945455 59.447717 
L 619.897534 61.723636 
L 620.16 61.810352 
L 627.374545 64.231578 
L 629.68888 65.018182 
L 634.589091 66.699033 
L 639.236497 68.312727 
L 641.803636 69.212394 
L 648.555428 71.607273 
L 649.018182 71.772954 
L 656.232727 74.391726 
L 657.620936 74.901818 
L 663.447273 77.062787 
L 666.468655 78.196364 
L 670.661818 79.784486 
L 675.116426 81.490909 
L 677.876364 82.558274 
L 683.570951 84.785455 
L 685.090909 85.385661 
L 691.838635 88.08 
L 692.305455 88.268218 
L 699.52 91.2108 
L 699.916928 91.374545 
L 706.734545 94.214471 
L 707.814373 94.669091 
L 713.949091 97.277327 
L 715.546426 97.963636 
L 721.163636 100.401136 
L 723.11823 101.258182 
L 728.378182 103.587735 
L 730.534714 104.552727 
L 735.592727 106.839036 
L 737.80061 107.847273 
L 742.807273 110.157031 
L 744.920458 111.141818 
L 750.021818 113.543792 
L 751.898617 114.436364 
L 757.236364 117.001481 
L 758.739275 117.730909 
L 764.450909 120.532348 
L 765.446457 121.025455 
L 771.665455 124.138741 
L 772.024032 124.32 
L 778.467832 127.614545 
L 778.88 127.82772 
L 784.780185 130.909091 
L 786.094545 131.603185 
L 790.971728 134.203636 
L 793.309091 135.463971 
L 797.045895 137.498182 
L 800.523636 139.413003 
L 803.005993 140.792727 
L 807.738182 143.453343 
L 808.855206 144.087273 
L 814.589911 147.381818 
L 814.952727 147.593136 
L 820.197142 150.676364 
L 822.167273 151.848656 
L 825.701015 153.970909 
L 829.381818 156.208606 
L 831.104359 157.265455 
L 836.406469 160.56 
L 836.596364 160.679856 
L 841.580275 163.854545 
L 843.810909 165.293766 
L 846.660437 167.149091 
L 851.025455 170.028301 
L 851.649475 170.443636 
L 856.519227 173.738182 
L 858.24 174.919549 
" style="fill:none;stroke:#cee184;stroke-width:1.5;"/>
   </g>
   <g id="LineCollection_20">
    <path clip-path="url(#pfda421af83)" d="M 281.165871 378 
L 281.076364 377.96517 
L 273.861818 375.128822 
L 272.794611 374.705455 
L 266.647273 372.247787 
L 264.57244 371.410909 
L 259.432727 369.32156 
L 256.493888 368.116364 
L 252.218182 366.349068 
L 248.555224 364.821818 
L 245.003636 363.329205 
L 240.752846 361.527273 
L 237.789091 360.260831 
L 233.083274 358.232727 
L 230.574545 357.142766 
L 225.543147 354.938182 
L 223.36 353.973794 
L 218.129214 351.643636 
L 216.145455 350.752658 
L 210.838334 348.349091 
L 208.930909 347.478059 
L 203.667468 345.054545 
L 201.716364 344.148655 
L 196.613678 341.76 
L 194.501818 340.763059 
L 189.67412 338.465455 
L 187.287273 337.319836 
L 182.84604 335.170909 
L 180.072727 333.817501 
L 176.126774 331.876364 
L 172.858182 330.25452 
L 169.513742 328.581818 
L 165.643636 326.629303 
L 163.004443 325.287273 
L 158.429091 322.940206 
L 156.596457 321.992727 
L 151.214545 319.185525 
L 150.287435 318.698182 
L 144.076273 315.403636 
L 144 315.362763 
" style="fill:none;stroke:#ff0000;stroke-width:1.5;"/>
    <path clip-path="url(#pfda421af83)" d="M 721.074129 51.84 
L 721.163636 51.87483 
L 728.378182 54.711178 
L 729.445389 55.134545 
L 735.592727 57.592213 
L 737.66756 58.429091 
L 742.807273 60.51844 
L 745.746112 61.723636 
L 750.021818 63.490932 
L 753.684776 65.018182 
L 757.236364 66.510795 
L 761.487154 68.312727 
L 764.450909 69.579169 
L 769.156726 71.607273 
L 771.665455 72.697234 
L 776.696853 74.901818 
L 778.88 75.866206 
L 784.110786 78.196364 
L 786.094545 79.087342 
L 791.401666 81.490909 
L 793.309091 82.361941 
L 798.572532 84.785455 
L 800.523636 85.691345 
L 805.626322 88.08 
L 807.738182 89.076941 
L 812.56588 91.374545 
L 814.952727 92.520164 
L 819.39396 94.669091 
L 822.167273 96.022499 
L 826.113226 97.963636 
L 829.381818 99.58548 
L 832.726258 101.258182 
L 836.596364 103.210697 
L 839.235557 104.552727 
L 843.810909 106.899794 
L 845.643543 107.847273 
L 851.025455 110.654475 
L 851.952565 111.141818 
L 858.163727 114.436364 
L 858.24 114.477237 
" style="fill:none;stroke:#ff0000;stroke-width:1.5;"/>
   </g>
   <g id="patch_8">
    <path d="M 144 378 
L 144 51.84 
" style="fill:none;stroke:#000000;stroke-linecap:square;stroke-linejoin:miter;stroke-width:0.8;"/>
   </g>
   <g id="patch_9">
    <path d="M 858.24 378 
L 858.24 51.84 
" style="fill:none;stroke:#000000;stroke-linecap:square;stroke-linejoin:miter;stroke-width:0.8;"/>
   </g>
   <g id="patch_10">
    <path d="M 144 378 
L 858.24 378 
" style="fill:none;stroke:#000000;stroke-linecap:square;stroke-linejoin:miter;stroke-width:0.8;"/>
   </g>
   <g id="patch_11">
    <path d="M 144 51.84 
L 858.24 51.84 
" style="fill:none;stroke:#000000;stroke-linecap:square;stroke-linejoin:miter;stroke-width:0.8;"/>
   </g>
  </g>
  <g id="axes_2">
   <g id="patch_12">
    <path clip-path="url(#p00d2381562)" d="M 902.88 378 
L 902.88 360.833684 
L 902.88 69.006316 
L 902.88 51.84 
L 919.188 51.84 
L 919.188 69.006316 
L 919.188 360.833684 
L 919.188 378 
z
" style="fill:#ffffff;stroke:#ffffff;stroke-linejoin:miter;stroke-width:0.01;"/>
   </g>
   <g id="matplotlib.axis_3"/>
   <g id="matplotlib.axis_4">
    <g id="ytick_10">
     <g id="line2d_19">
      <defs>
       <path d="M 0 0 
L 3.5 0 
" id="mf6c4f6a283" style="stroke:#000000;stroke-width:0.8;"/>
      </defs>
      <g>
       <use style="stroke:#000000;stroke-width:0.8;" x="919.188" xlink:href="#mf6c4f6a283" y="378"/>
      </g>
     </g>
     <g id="text_19">
      <!-- 0.1 -->
      <g transform="translate(926.188 381.799219)scale(0.1 -0.1)">
       <use xlink:href="#DejaVuSans-30"/>
       <use x="63.623047" xlink:href="#DejaVuSans-2e"/>
       <use x="95.410156" xlink:href="#DejaVuSans-31"/>
      </g>
     </g>
    </g>
    <g id="ytick_11">
     <g id="line2d_20">
      <g>
       <use style="stroke:#000000;stroke-width:0.8;" x="919.188" xlink:href="#mf6c4f6a283" y="343.667368"/>
      </g>
     </g>
     <g id="text_20">
      <!-- 0.1 -->
      <g transform="translate(926.188 347.466587)scale(0.1 -0.1)">
       <use xlink:href="#DejaVuSans-30"/>
       <use x="63.623047" xlink:href="#DejaVuSans-2e"/>
       <use x="95.410156" xlink:href="#DejaVuSans-31"/>
      </g>
     </g>
    </g>
    <g id="ytick_12">
     <g id="line2d_21">
      <g>
       <use style="stroke:#000000;stroke-width:0.8;" x="919.188" xlink:href="#mf6c4f6a283" y="309.334737"/>
      </g>
     </g>
     <g id="text_21">
      <!-- 0.3 -->
      <defs>
       <path d="M 40.578125 39.3125 
Q 47.65625 37.796875 51.625 33 
Q 55.609375 28.21875 55.609375 21.1875 
Q 55.609375 10.40625 48.1875 4.484375 
Q 40.765625 -1.421875 27.09375 -1.421875 
Q 22.515625 -1.421875 17.65625 -0.515625 
Q 12.796875 0.390625 7.625 2.203125 
L 7.625 11.71875 
Q 11.71875 9.328125 16.59375 8.109375 
Q 21.484375 6.890625 26.8125 6.890625 
Q 36.078125 6.890625 40.9375 10.546875 
Q 45.796875 14.203125 45.796875 21.1875 
Q 45.796875 27.640625 41.28125 31.265625 
Q 36.765625 34.90625 28.71875 34.90625 
L 20.21875 34.90625 
L 20.21875 43.015625 
L 29.109375 43.015625 
Q 36.375 43.015625 40.234375 45.921875 
Q 44.09375 48.828125 44.09375 54.296875 
Q 44.09375 59.90625 40.109375 62.90625 
Q 36.140625 65.921875 28.71875 65.921875 
Q 24.65625 65.921875 20.015625 65.03125 
Q 15.375 64.15625 9.8125 62.3125 
L 9.8125 71.09375 
Q 15.4375 72.65625 20.34375 73.4375 
Q 25.25 74.21875 29.59375 74.21875 
Q 40.828125 74.21875 47.359375 69.109375 
Q 53.90625 64.015625 53.90625 55.328125 
Q 53.90625 49.265625 50.4375 45.09375 
Q 46.96875 40.921875 40.578125 39.3125 
z
" id="DejaVuSans-33"/>
      </defs>
      <g transform="translate(926.188 313.133956)scale(0.1 -0.1)">
       <use xlink:href="#DejaVuSans-30"/>
       <use x="63.623047" xlink:href="#DejaVuSans-2e"/>
       <use x="95.410156" xlink:href="#DejaVuSans-33"/>
      </g>
     </g>
    </g>
    <g id="ytick_13">
     <g id="line2d_22">
      <g>
       <use style="stroke:#000000;stroke-width:0.8;" x="919.188" xlink:href="#mf6c4f6a283" y="275.002105"/>
      </g>
     </g>
     <g id="text_22">
      <!-- 0.8 -->
      <defs>
       <path d="M 31.78125 34.625 
Q 24.75 34.625 20.71875 30.859375 
Q 16.703125 27.09375 16.703125 20.515625 
Q 16.703125 13.921875 20.71875 10.15625 
Q 24.75 6.390625 31.78125 6.390625 
Q 38.8125 6.390625 42.859375 10.171875 
Q 46.921875 13.96875 46.921875 20.515625 
Q 46.921875 27.09375 42.890625 30.859375 
Q 38.875 34.625 31.78125 34.625 
z
M 21.921875 38.8125 
Q 15.578125 40.375 12.03125 44.71875 
Q 8.5 49.078125 8.5 55.328125 
Q 8.5 64.0625 14.71875 69.140625 
Q 20.953125 74.21875 31.78125 74.21875 
Q 42.671875 74.21875 48.875 69.140625 
Q 55.078125 64.0625 55.078125 55.328125 
Q 55.078125 49.078125 51.53125 44.71875 
Q 48 40.375 41.703125 38.8125 
Q 48.828125 37.15625 52.796875 32.3125 
Q 56.78125 27.484375 56.78125 20.515625 
Q 56.78125 9.90625 50.3125 4.234375 
Q 43.84375 -1.421875 31.78125 -1.421875 
Q 19.734375 -1.421875 13.25 4.234375 
Q 6.78125 9.90625 6.78125 20.515625 
Q 6.78125 27.484375 10.78125 32.3125 
Q 14.796875 37.15625 21.921875 38.8125 
z
M 18.3125 54.390625 
Q 18.3125 48.734375 21.84375 45.5625 
Q 25.390625 42.390625 31.78125 42.390625 
Q 38.140625 42.390625 41.71875 45.5625 
Q 45.3125 48.734375 45.3125 54.390625 
Q 45.3125 60.0625 41.71875 63.234375 
Q 38.140625 66.40625 31.78125 66.40625 
Q 25.390625 66.40625 21.84375 63.234375 
Q 18.3125 60.0625 18.3125 54.390625 
z
" id="DejaVuSans-38"/>
      </defs>
      <g transform="translate(926.188 278.801324)scale(0.1 -0.1)">
       <use xlink:href="#DejaVuSans-30"/>
       <use x="63.623047" xlink:href="#DejaVuSans-2e"/>
       <use x="95.410156" xlink:href="#DejaVuSans-38"/>
      </g>
     </g>
    </g>
    <g id="ytick_14">
     <g id="line2d_23">
      <g>
       <use style="stroke:#000000;stroke-width:0.8;" x="919.188" xlink:href="#mf6c4f6a283" y="240.669474"/>
      </g>
     </g>
     <g id="text_23">
      <!-- 1.9 -->
      <defs>
       <path d="M 10.984375 1.515625 
L 10.984375 10.5 
Q 14.703125 8.734375 18.5 7.8125 
Q 22.3125 6.890625 25.984375 6.890625 
Q 35.75 6.890625 40.890625 13.453125 
Q 46.046875 20.015625 46.78125 33.40625 
Q 43.953125 29.203125 39.59375 26.953125 
Q 35.25 24.703125 29.984375 24.703125 
Q 19.046875 24.703125 12.671875 31.3125 
Q 6.296875 37.9375 6.296875 49.421875 
Q 6.296875 60.640625 12.9375 67.421875 
Q 19.578125 74.21875 30.609375 74.21875 
Q 43.265625 74.21875 49.921875 64.515625 
Q 56.59375 54.828125 56.59375 36.375 
Q 56.59375 19.140625 48.40625 8.859375 
Q 40.234375 -1.421875 26.421875 -1.421875 
Q 22.703125 -1.421875 18.890625 -0.6875 
Q 15.09375 0.046875 10.984375 1.515625 
z
M 30.609375 32.421875 
Q 37.25 32.421875 41.125 36.953125 
Q 45.015625 41.5 45.015625 49.421875 
Q 45.015625 57.28125 41.125 61.84375 
Q 37.25 66.40625 30.609375 66.40625 
Q 23.96875 66.40625 20.09375 61.84375 
Q 16.21875 57.28125 16.21875 49.421875 
Q 16.21875 41.5 20.09375 36.953125 
Q 23.96875 32.421875 30.609375 32.421875 
z
" id="DejaVuSans-39"/>
      </defs>
      <g transform="translate(926.188 244.468692)scale(0.1 -0.1)">
       <use xlink:href="#DejaVuSans-31"/>
       <use x="63.623047" xlink:href="#DejaVuSans-2e"/>
       <use x="95.410156" xlink:href="#DejaVuSans-39"/>
      </g>
     </g>
    </g>
    <g id="ytick_15">
     <g id="line2d_24">
      <g>
       <use style="stroke:#000000;stroke-width:0.8;" x="919.188" xlink:href="#mf6c4f6a283" y="206.336842"/>
      </g>
     </g>
     <g id="text_24">
      <!-- 4.4 -->
      <defs>
       <path d="M 37.796875 64.3125 
L 12.890625 25.390625 
L 37.796875 25.390625 
z
M 35.203125 72.90625 
L 47.609375 72.90625 
L 47.609375 25.390625 
L 58.015625 25.390625 
L 58.015625 17.1875 
L 47.609375 17.1875 
L 47.609375 0 
L 37.796875 0 
L 37.796875 17.1875 
L 4.890625 17.1875 
L 4.890625 26.703125 
z
" id="DejaVuSans-34"/>
      </defs>
      <g transform="translate(926.188 210.136061)scale(0.1 -0.1)">
       <use xlink:href="#DejaVuSans-34"/>
       <use x="63.623047" xlink:href="#DejaVuSans-2e"/>
       <use x="95.410156" xlink:href="#DejaVuSans-34"/>
      </g>
     </g>
    </g>
    <g id="ytick_16">
     <g id="line2d_25">
      <g>
       <use style="stroke:#000000;stroke-width:0.8;" x="919.188" xlink:href="#mf6c4f6a283" y="172.004211"/>
      </g>
     </g>
     <g id="text_25">
      <!-- 10.2 -->
      <g transform="translate(926.188 175.803429)scale(0.1 -0.1)">
       <use xlink:href="#DejaVuSans-31"/>
       <use x="63.623047" xlink:href="#DejaVuSans-30"/>
       <use x="127.246094" xlink:href="#DejaVuSans-2e"/>
       <use x="159.033203" xlink:href="#DejaVuSans-32"/>
      </g>
     </g>
    </g>
    <g id="ytick_17">
     <g id="line2d_26">
      <g>
       <use style="stroke:#000000;stroke-width:0.8;" x="919.188" xlink:href="#mf6c4f6a283" y="137.671579"/>
      </g>
     </g>
     <g id="text_26">
      <!-- 23.9 -->
      <g transform="translate(926.188 141.470798)scale(0.1 -0.1)">
       <use xlink:href="#DejaVuSans-32"/>
       <use x="63.623047" xlink:href="#DejaVuSans-33"/>
       <use x="127.246094" xlink:href="#DejaVuSans-2e"/>
       <use x="159.033203" xlink:href="#DejaVuSans-39"/>
      </g>
     </g>
    </g>
    <g id="ytick_18">
     <g id="line2d_27">
      <g>
       <use style="stroke:#000000;stroke-width:0.8;" x="919.188" xlink:href="#mf6c4f6a283" y="103.338947"/>
      </g>
     </g>
     <g id="text_27">
      <!-- 55.9 -->
      <g transform="translate(926.188 107.138166)scale(0.1 -0.1)">
       <use xlink:href="#DejaVuSans-35"/>
       <use x="63.623047" xlink:href="#DejaVuSans-35"/>
       <use x="127.246094" xlink:href="#DejaVuSans-2e"/>
       <use x="159.033203" xlink:href="#DejaVuSans-39"/>
      </g>
     </g>
    </g>
    <g id="ytick_19">
     <g id="line2d_28">
      <g>
       <use style="stroke:#000000;stroke-width:0.8;" x="919.188" xlink:href="#mf6c4f6a283" y="69.006316"/>
      </g>
     </g>
     <g id="text_28">
      <!-- 130.6 -->
      <defs>
       <path d="M 33.015625 40.375 
Q 26.375 40.375 22.484375 35.828125 
Q 18.609375 31.296875 18.609375 23.390625 
Q 18.609375 15.53125 22.484375 10.953125 
Q 26.375 6.390625 33.015625 6.390625 
Q 39.65625 6.390625 43.53125 10.953125 
Q 47.40625 15.53125 47.40625 23.390625 
Q 47.40625 31.296875 43.53125 35.828125 
Q 39.65625 40.375 33.015625 40.375 
z
M 52.59375 71.296875 
L 52.59375 62.3125 
Q 48.875 64.0625 45.09375 64.984375 
Q 41.3125 65.921875 37.59375 65.921875 
Q 27.828125 65.921875 22.671875 59.328125 
Q 17.53125 52.734375 16.796875 39.40625 
Q 19.671875 43.65625 24.015625 45.921875 
Q 28.375 48.1875 33.59375 48.1875 
Q 44.578125 48.1875 50.953125 41.515625 
Q 57.328125 34.859375 57.328125 23.390625 
Q 57.328125 12.15625 50.6875 5.359375 
Q 44.046875 -1.421875 33.015625 -1.421875 
Q 20.359375 -1.421875 13.671875 8.265625 
Q 6.984375 17.96875 6.984375 36.375 
Q 6.984375 53.65625 15.1875 63.9375 
Q 23.390625 74.21875 37.203125 74.21875 
Q 40.921875 74.21875 44.703125 73.484375 
Q 48.484375 72.75 52.59375 71.296875 
z
" id="DejaVuSans-36"/>
      </defs>
      <g transform="translate(926.188 72.805535)scale(0.1 -0.1)">
       <use xlink:href="#DejaVuSans-31"/>
       <use x="63.623047" xlink:href="#DejaVuSans-33"/>
       <use x="127.246094" xlink:href="#DejaVuSans-30"/>
       <use x="190.869141" xlink:href="#DejaVuSans-2e"/>
       <use x="222.65625" xlink:href="#DejaVuSans-36"/>
      </g>
     </g>
    </g>
   </g>
   <g id="LineCollection_21">
    <path clip-path="url(#p00d2381562)" d="M 902.88 378 
L 919.188 378 
" style="fill:none;stroke:#8000ff;stroke-width:1.5;"/>
    <path clip-path="url(#p00d2381562)" d="M 902.88 360.833684 
L 919.188 360.833684 
" style="fill:none;stroke:#8000ff;stroke-width:1.5;"/>
    <path clip-path="url(#p00d2381562)" d="M 902.88 343.667368 
L 919.188 343.667368 
" style="fill:none;stroke:#8000ff;stroke-width:1.5;"/>
    <path clip-path="url(#p00d2381562)" d="M 902.88 326.501053 
L 919.188 326.501053 
" style="fill:none;stroke:#8000ff;stroke-width:1.5;"/>
    <path clip-path="url(#p00d2381562)" d="M 902.88 309.334737 
L 919.188 309.334737 
" style="fill:none;stroke:#8000ff;stroke-width:1.5;"/>
    <path clip-path="url(#p00d2381562)" d="M 902.88 292.168421 
L 919.188 292.168421 
" style="fill:none;stroke:#8000ff;stroke-width:1.5;"/>
    <path clip-path="url(#p00d2381562)" d="M 902.88 275.002105 
L 919.188 275.002105 
" style="fill:none;stroke:#8000ff;stroke-width:1.5;"/>
    <path clip-path="url(#p00d2381562)" d="M 902.88 257.835789 
L 919.188 257.835789 
" style="fill:none;stroke:#7e03ff;stroke-width:1.5;"/>
    <path clip-path="url(#p00d2381562)" d="M 902.88 240.669474 
L 919.188 240.669474 
" style="fill:none;stroke:#7c06ff;stroke-width:1.5;"/>
    <path clip-path="url(#p00d2381562)" d="M 902.88 223.503158 
L 919.188 223.503158 
" style="fill:none;stroke:#7a09ff;stroke-width:1.5;"/>
    <path clip-path="url(#p00d2381562)" d="M 902.88 206.336842 
L 919.188 206.336842 
" style="fill:none;stroke:#7610ff;stroke-width:1.5;"/>
    <path clip-path="url(#p00d2381562)" d="M 902.88 189.170526 
L 919.188 189.170526 
" style="fill:none;stroke:#7019ff;stroke-width:1.5;"/>
    <path clip-path="url(#p00d2381562)" d="M 902.88 172.004211 
L 919.188 172.004211 
" style="fill:none;stroke:#6629fe;stroke-width:1.5;"/>
    <path clip-path="url(#p00d2381562)" d="M 902.88 154.837895 
L 919.188 154.837895 
" style="fill:none;stroke:#583efd;stroke-width:1.5;"/>
    <path clip-path="url(#p00d2381562)" d="M 902.88 137.671579 
L 919.188 137.671579 
" style="fill:none;stroke:#445cfb;stroke-width:1.5;"/>
    <path clip-path="url(#p00d2381562)" d="M 902.88 120.505263 
L 919.188 120.505263 
" style="fill:none;stroke:#2489f5;stroke-width:1.5;"/>
    <path clip-path="url(#p00d2381562)" d="M 902.88 103.338947 
L 919.188 103.338947 
" style="fill:none;stroke:#0fc4e7;stroke-width:1.5;"/>
    <path clip-path="url(#p00d2381562)" d="M 902.88 86.172632 
L 919.188 86.172632 
" style="fill:none;stroke:#5af8c8;stroke-width:1.5;"/>
    <path clip-path="url(#p00d2381562)" d="M 902.88 69.006316 
L 919.188 69.006316 
" style="fill:none;stroke:#cee184;stroke-width:1.5;"/>
    <path clip-path="url(#p00d2381562)" d="M 902.88 51.84 
L 919.188 51.84 
" style="fill:none;stroke:#ff0000;stroke-width:1.5;"/>
   </g>
   <g id="patch_13">
    <path d="M 902.88 378 
L 902.88 360.833684 
L 902.88 69.006316 
L 902.88 51.84 
L 919.188 51.84 
L 919.188 69.006316 
L 919.188 360.833684 
L 919.188 378 
z
" style="fill:none;stroke:#000000;stroke-linejoin:miter;stroke-width:0.8;"/>
   </g>
  </g>
 </g>
 <defs>
  <clipPath id="pfda421af83">
   <rect height="326.16" width="714.24" x="144" y="51.84"/>
  </clipPath>
  <clipPath id="p00d2381562">
   <rect height="326.16" width="16.308" x="902.88" y="51.84"/>
  </clipPath>
 </defs>
</svg>
