<?xml version="1.0" encoding="utf-8" standalone="no"?>
<!DOCTYPE svg PUBLIC "-//W3C//DTD SVG 1.1//EN"
  "http://www.w3.org/Graphics/SVG/1.1/DTD/svg11.dtd">
<!-- Created with matplotlib (http://matplotlib.org/) -->
<svg height="432pt" version="1.1" viewBox="0 0 864 432" width="864pt" xmlns="http://www.w3.org/2000/svg" xmlns:xlink="http://www.w3.org/1999/xlink">
 <defs>
  <style type="text/css">
*{stroke-linecap:butt;stroke-linejoin:round;}
  </style>
 </defs>
 <g id="figure_1">
  <g id="patch_1">
   <path d="M 0 432 
L 864 432 
L 864 0 
L 0 0 
z
" style="fill:#ffffff;"/>
  </g>
  <g id="axes_1">
   <g id="patch_2">
    <path d="M 108 378 
L 777.6 378 
L 777.6 51.84 
L 108 51.84 
z
" style="fill:#ffffff;"/>
   </g>
   <g id="PathCollection_1">
    <defs>
     <path d="M 0 5 
C 1.326016 5 2.597899 4.473168 3.535534 3.535534 
C 4.473168 2.597899 5 1.326016 5 0 
C 5 -1.326016 4.473168 -2.597899 3.535534 -3.535534 
C 2.597899 -4.473168 1.326016 -5 0 -5 
C -1.326016 -5 -2.597899 -4.473168 -3.535534 -3.535534 
C -4.473168 -2.597899 -5 -1.326016 -5 0 
C -5 1.326016 -4.473168 2.597899 -3.535534 3.535534 
C -2.597899 4.473168 -1.326016 5 0 5 
z
" id="mb76f0d920e" style="stroke:#1f77b4;"/>
    </defs>
    <g clip-path="url(#pc540c12cc7)">
     <use style="fill:#1f77b4;stroke:#1f77b4;" x="139.434724" xlink:href="#mb76f0d920e" y="359.227788"/>
     <use style="fill:#1f77b4;stroke:#1f77b4;" x="260.980506" xlink:href="#mb76f0d920e" y="359.227788"/>
     <use style="fill:#1f77b4;stroke:#1f77b4;" x="260.980506" xlink:href="#mb76f0d920e" y="183.690388"/>
     <use style="fill:#1f77b4;stroke:#1f77b4;" x="200.207615" xlink:href="#mb76f0d920e" y="242.202855"/>
     <use style="fill:#1f77b4;stroke:#1f77b4;" x="139.434724" xlink:href="#mb76f0d920e" y="125.177921"/>
     <use style="fill:#1f77b4;stroke:#1f77b4;" x="139.434724" xlink:href="#mb76f0d920e" y="359.227788"/>
    </g>
   </g>
   <g id="PolyCollection_1">
    <path clip-path="url(#pc540c12cc7)" d="M 382.526289 318.670037 
L 382.526289 242.202855 
L 386.209494 240.42975 
L 389.8927 238.656645 
L 393.575905 236.88354 
L 397.259111 235.110435 
L 400.942316 233.33733 
L 404.625522 231.564225 
L 408.308727 229.79112 
L 411.991933 228.018014 
L 415.675138 226.244909 
L 419.358344 224.471804 
L 423.04155 222.698699 
L 426.724755 220.925594 
L 430.407961 219.152489 
L 434.091166 217.379384 
L 437.774372 215.606279 
L 441.457577 213.833174 
L 445.140783 212.060069 
L 448.823988 210.286964 
L 452.507194 208.513859 
L 456.190399 206.740754 
L 459.873605 204.967649 
L 463.55681 203.194544 
L 467.240016 201.421439 
L 470.923221 199.648334 
L 474.606427 197.875229 
L 478.289633 196.102123 
L 481.972838 194.329018 
L 485.656044 192.555913 
L 489.339249 190.782808 
L 493.022455 189.009703 
L 496.70566 187.236598 
L 500.388866 185.463493 
L 504.072071 183.690388 
L 507.755277 181.917283 
L 511.438482 180.144178 
L 515.121688 178.371073 
L 518.804893 176.597968 
L 522.488099 174.824863 
L 526.171304 173.051758 
L 529.85451 171.278653 
L 533.537715 169.505548 
L 537.220921 167.732443 
L 540.904127 165.959338 
L 544.587332 164.186233 
L 548.270538 162.413127 
L 551.953743 160.640022 
L 555.636949 158.866917 
L 559.320154 157.093812 
L 563.00336 155.320707 
L 566.686565 153.547602 
L 570.369771 151.774497 
L 574.052976 150.001392 
L 577.736182 148.228287 
L 581.419387 146.455182 
L 585.102593 144.682077 
L 588.785798 142.908972 
L 592.469004 141.135867 
L 596.15221 139.362762 
L 599.835415 137.589657 
L 603.518621 135.816552 
L 607.201826 134.043447 
L 610.885032 132.270342 
L 614.568237 130.497236 
L 618.251443 128.724131 
L 621.934648 126.951026 
L 625.617854 125.177921 
L 629.301059 123.404816 
L 632.984265 121.631711 
L 636.66747 119.858606 
L 640.350676 118.085501 
L 644.033881 116.312396 
L 647.717087 114.539291 
L 651.400293 112.766186 
L 655.083498 110.993081 
L 658.766704 109.219976 
L 662.449909 107.446871 
L 666.133115 105.673766 
L 669.81632 103.900661 
L 673.499526 102.127556 
L 677.182731 100.354451 
L 680.865937 98.581346 
L 684.549142 96.80824 
L 688.232348 95.035135 
L 691.915553 93.26203 
L 695.598759 91.488925 
L 699.281964 89.71582 
L 702.96517 87.942715 
L 706.648376 86.16961 
L 710.331581 84.396505 
L 714.014787 82.6234 
L 717.697992 80.850295 
L 721.381198 79.07719 
L 725.064403 77.304085 
L 728.747609 75.53098 
L 732.430814 73.757875 
L 736.11402 71.98477 
L 739.797225 70.211665 
L 743.480431 68.43856 
L 747.163636 66.665455 
L 747.163636 265.055606 
L 747.163636 265.055606 
L 743.480431 265.411306 
L 739.797225 265.769182 
L 736.11402 266.129259 
L 732.430814 266.491567 
L 728.747609 266.856132 
L 725.064403 267.222982 
L 721.381198 267.592147 
L 717.697992 267.963656 
L 714.014787 268.337539 
L 710.331581 268.713826 
L 706.648376 269.092549 
L 702.96517 269.473739 
L 699.281964 269.857429 
L 695.598759 270.243651 
L 691.915553 270.63244 
L 688.232348 271.023829 
L 684.549142 271.417854 
L 680.865937 271.81455 
L 677.182731 272.213954 
L 673.499526 272.616103 
L 669.81632 273.021035 
L 666.133115 273.428789 
L 662.449909 273.839405 
L 658.766704 274.252922 
L 655.083498 274.669383 
L 651.400293 275.088829 
L 647.717087 275.511303 
L 644.033881 275.93685 
L 640.350676 276.365515 
L 636.66747 276.797343 
L 632.984265 277.232382 
L 629.301059 277.67068 
L 625.617854 278.112286 
L 621.934648 278.55725 
L 618.251443 279.005623 
L 614.568237 279.457459 
L 610.885032 279.912811 
L 607.201826 280.371735 
L 603.518621 280.834287 
L 599.835415 281.300524 
L 596.15221 281.770506 
L 592.469004 282.244294 
L 588.785798 282.721949 
L 585.102593 283.203536 
L 581.419387 283.689119 
L 577.736182 284.178766 
L 574.052976 284.672545 
L 570.369771 285.170527 
L 566.686565 285.672783 
L 563.00336 286.179387 
L 559.320154 286.690417 
L 555.636949 287.205948 
L 551.953743 287.726063 
L 548.270538 288.250842 
L 544.587332 288.78037 
L 540.904127 289.314734 
L 537.220921 289.854023 
L 533.537715 290.398329 
L 529.85451 290.947746 
L 526.171304 291.502371 
L 522.488099 292.062303 
L 518.804893 292.627645 
L 515.121688 293.198503 
L 511.438482 293.774985 
L 507.755277 294.357203 
L 504.072071 294.945273 
L 500.388866 295.539314 
L 496.70566 296.139447 
L 493.022455 296.745799 
L 489.339249 297.358501 
L 485.656044 297.977686 
L 481.972838 298.603494 
L 478.289633 299.236067 
L 474.606427 299.875554 
L 470.923221 300.522107 
L 467.240016 301.175885 
L 463.55681 301.837049 
L 459.873605 302.505771 
L 456.190399 303.182223 
L 452.507194 303.866587 
L 448.823988 304.55905 
L 445.140783 305.259807 
L 441.457577 305.969057 
L 437.774372 306.687011 
L 434.091166 307.413883 
L 430.407961 308.149899 
L 426.724755 308.89529 
L 423.04155 309.650301 
L 419.358344 310.41518 
L 415.675138 311.190191 
L 411.991933 311.975605 
L 408.308727 312.771705 
L 404.625522 313.578787 
L 400.942316 314.397156 
L 397.259111 315.227134 
L 393.575905 316.069055 
L 389.8927 316.923267 
L 386.209494 317.790134 
L 382.526289 318.670037 
z
" style="fill:#ff7f0e;"/>
   </g>
   <g id="patch_3">
    <path clip-path="url(#pc540c12cc7)" d="M 139.434724 359.227788 
L 260.980506 359.227788 
L 260.980506 183.690388 
L 200.207615 242.202855 
L 139.434724 125.177921 
z
" style="fill:#008000;opacity:0.5;"/>
   </g>
   <g id="matplotlib.axis_1">
    <g id="xtick_1">
     <g id="line2d_1">
      <defs>
       <path d="M 0 0 
L 0 3.5 
" id="ma78eb47cd8" style="stroke:#000000;stroke-width:0.8;"/>
      </defs>
      <g>
       <use style="stroke:#000000;stroke-width:0.8;" x="139.434724" xlink:href="#ma78eb47cd8" y="378"/>
      </g>
     </g>
     <g id="text_1">
      <!-- 0 -->
      <defs>
       <path d="M 31.78125 66.40625 
Q 24.171875 66.40625 20.328125 58.90625 
Q 16.5 51.421875 16.5 36.375 
Q 16.5 21.390625 20.328125 13.890625 
Q 24.171875 6.390625 31.78125 6.390625 
Q 39.453125 6.390625 43.28125 13.890625 
Q 47.125 21.390625 47.125 36.375 
Q 47.125 51.421875 43.28125 58.90625 
Q 39.453125 66.40625 31.78125 66.40625 
z
M 31.78125 74.21875 
Q 44.046875 74.21875 50.515625 64.515625 
Q 56.984375 54.828125 56.984375 36.375 
Q 56.984375 17.96875 50.515625 8.265625 
Q 44.046875 -1.421875 31.78125 -1.421875 
Q 19.53125 -1.421875 13.0625 8.265625 
Q 6.59375 17.96875 6.59375 36.375 
Q 6.59375 54.828125 13.0625 64.515625 
Q 19.53125 74.21875 31.78125 74.21875 
z
" id="DejaVuSans-30"/>
      </defs>
      <g transform="translate(136.253474 392.598437)scale(0.1 -0.1)">
       <use xlink:href="#DejaVuSans-30"/>
      </g>
     </g>
    </g>
    <g id="xtick_2">
     <g id="line2d_2">
      <g>
       <use style="stroke:#000000;stroke-width:0.8;" x="260.980506" xlink:href="#ma78eb47cd8" y="378"/>
      </g>
     </g>
     <g id="text_2">
      <!-- 1 -->
      <defs>
       <path d="M 12.40625 8.296875 
L 28.515625 8.296875 
L 28.515625 63.921875 
L 10.984375 60.40625 
L 10.984375 69.390625 
L 28.421875 72.90625 
L 38.28125 72.90625 
L 38.28125 8.296875 
L 54.390625 8.296875 
L 54.390625 0 
L 12.40625 0 
z
" id="DejaVuSans-31"/>
      </defs>
      <g transform="translate(257.799256 392.598437)scale(0.1 -0.1)">
       <use xlink:href="#DejaVuSans-31"/>
      </g>
     </g>
    </g>
    <g id="xtick_3">
     <g id="line2d_3">
      <g>
       <use style="stroke:#000000;stroke-width:0.8;" x="382.526289" xlink:href="#ma78eb47cd8" y="378"/>
      </g>
     </g>
     <g id="text_3">
      <!-- 2 -->
      <defs>
       <path d="M 19.1875 8.296875 
L 53.609375 8.296875 
L 53.609375 0 
L 7.328125 0 
L 7.328125 8.296875 
Q 12.9375 14.109375 22.625 23.890625 
Q 32.328125 33.6875 34.8125 36.53125 
Q 39.546875 41.84375 41.421875 45.53125 
Q 43.3125 49.21875 43.3125 52.78125 
Q 43.3125 58.59375 39.234375 62.25 
Q 35.15625 65.921875 28.609375 65.921875 
Q 23.96875 65.921875 18.8125 64.3125 
Q 13.671875 62.703125 7.8125 59.421875 
L 7.8125 69.390625 
Q 13.765625 71.78125 18.9375 73 
Q 24.125 74.21875 28.421875 74.21875 
Q 39.75 74.21875 46.484375 68.546875 
Q 53.21875 62.890625 53.21875 53.421875 
Q 53.21875 48.921875 51.53125 44.890625 
Q 49.859375 40.875 45.40625 35.40625 
Q 44.1875 33.984375 37.640625 27.21875 
Q 31.109375 20.453125 19.1875 8.296875 
z
" id="DejaVuSans-32"/>
      </defs>
      <g transform="translate(379.345039 392.598437)scale(0.1 -0.1)">
       <use xlink:href="#DejaVuSans-32"/>
      </g>
     </g>
    </g>
    <g id="xtick_4">
     <g id="line2d_4">
      <g>
       <use style="stroke:#000000;stroke-width:0.8;" x="504.072071" xlink:href="#ma78eb47cd8" y="378"/>
      </g>
     </g>
     <g id="text_4">
      <!-- 3 -->
      <defs>
       <path d="M 40.578125 39.3125 
Q 47.65625 37.796875 51.625 33 
Q 55.609375 28.21875 55.609375 21.1875 
Q 55.609375 10.40625 48.1875 4.484375 
Q 40.765625 -1.421875 27.09375 -1.421875 
Q 22.515625 -1.421875 17.65625 -0.515625 
Q 12.796875 0.390625 7.625 2.203125 
L 7.625 11.71875 
Q 11.71875 9.328125 16.59375 8.109375 
Q 21.484375 6.890625 26.8125 6.890625 
Q 36.078125 6.890625 40.9375 10.546875 
Q 45.796875 14.203125 45.796875 21.1875 
Q 45.796875 27.640625 41.28125 31.265625 
Q 36.765625 34.90625 28.71875 34.90625 
L 20.21875 34.90625 
L 20.21875 43.015625 
L 29.109375 43.015625 
Q 36.375 43.015625 40.234375 45.921875 
Q 44.09375 48.828125 44.09375 54.296875 
Q 44.09375 59.90625 40.109375 62.90625 
Q 36.140625 65.921875 28.71875 65.921875 
Q 24.65625 65.921875 20.015625 65.03125 
Q 15.375 64.15625 9.8125 62.3125 
L 9.8125 71.09375 
Q 15.4375 72.65625 20.34375 73.4375 
Q 25.25 74.21875 29.59375 74.21875 
Q 40.828125 74.21875 47.359375 69.109375 
Q 53.90625 64.015625 53.90625 55.328125 
Q 53.90625 49.265625 50.4375 45.09375 
Q 46.96875 40.921875 40.578125 39.3125 
z
" id="DejaVuSans-33"/>
      </defs>
      <g transform="translate(500.890821 392.598437)scale(0.1 -0.1)">
       <use xlink:href="#DejaVuSans-33"/>
      </g>
     </g>
    </g>
    <g id="xtick_5">
     <g id="line2d_5">
      <g>
       <use style="stroke:#000000;stroke-width:0.8;" x="625.617854" xlink:href="#ma78eb47cd8" y="378"/>
      </g>
     </g>
     <g id="text_5">
      <!-- 4 -->
      <defs>
       <path d="M 37.796875 64.3125 
L 12.890625 25.390625 
L 37.796875 25.390625 
z
M 35.203125 72.90625 
L 47.609375 72.90625 
L 47.609375 25.390625 
L 58.015625 25.390625 
L 58.015625 17.1875 
L 47.609375 17.1875 
L 47.609375 0 
L 37.796875 0 
L 37.796875 17.1875 
L 4.890625 17.1875 
L 4.890625 26.703125 
z
" id="DejaVuSans-34"/>
      </defs>
      <g transform="translate(622.436604 392.598437)scale(0.1 -0.1)">
       <use xlink:href="#DejaVuSans-34"/>
      </g>
     </g>
    </g>
    <g id="xtick_6">
     <g id="line2d_6">
      <g>
       <use style="stroke:#000000;stroke-width:0.8;" x="747.163636" xlink:href="#ma78eb47cd8" y="378"/>
      </g>
     </g>
     <g id="text_6">
      <!-- 5 -->
      <defs>
       <path d="M 10.796875 72.90625 
L 49.515625 72.90625 
L 49.515625 64.59375 
L 19.828125 64.59375 
L 19.828125 46.734375 
Q 21.96875 47.46875 24.109375 47.828125 
Q 26.265625 48.1875 28.421875 48.1875 
Q 40.625 48.1875 47.75 41.5 
Q 54.890625 34.8125 54.890625 23.390625 
Q 54.890625 11.625 47.5625 5.09375 
Q 40.234375 -1.421875 26.90625 -1.421875 
Q 22.3125 -1.421875 17.546875 -0.640625 
Q 12.796875 0.140625 7.71875 1.703125 
L 7.71875 11.625 
Q 12.109375 9.234375 16.796875 8.0625 
Q 21.484375 6.890625 26.703125 6.890625 
Q 35.15625 6.890625 40.078125 11.328125 
Q 45.015625 15.765625 45.015625 23.390625 
Q 45.015625 31 40.078125 35.4375 
Q 35.15625 39.890625 26.703125 39.890625 
Q 22.75 39.890625 18.8125 39.015625 
Q 14.890625 38.140625 10.796875 36.28125 
z
" id="DejaVuSans-35"/>
      </defs>
      <g transform="translate(743.982386 392.598437)scale(0.1 -0.1)">
       <use xlink:href="#DejaVuSans-35"/>
      </g>
     </g>
    </g>
   </g>
   <g id="matplotlib.axis_2">
    <g id="ytick_1">
     <g id="line2d_7">
      <defs>
       <path d="M 0 0 
L -3.5 0 
" id="mec49f8f76a" style="stroke:#000000;stroke-width:0.8;"/>
      </defs>
      <g>
       <use style="stroke:#000000;stroke-width:0.8;" x="108" xlink:href="#mec49f8f76a" y="359.227788"/>
      </g>
     </g>
     <g id="text_7">
      <!-- 0 -->
      <g transform="translate(94.6375 363.027007)scale(0.1 -0.1)">
       <use xlink:href="#DejaVuSans-30"/>
      </g>
     </g>
    </g>
    <g id="ytick_2">
     <g id="line2d_8">
      <g>
       <use style="stroke:#000000;stroke-width:0.8;" x="108" xlink:href="#mec49f8f76a" y="300.715322"/>
      </g>
     </g>
     <g id="text_8">
      <!-- 1 -->
      <g transform="translate(94.6375 304.51454)scale(0.1 -0.1)">
       <use xlink:href="#DejaVuSans-31"/>
      </g>
     </g>
    </g>
    <g id="ytick_3">
     <g id="line2d_9">
      <g>
       <use style="stroke:#000000;stroke-width:0.8;" x="108" xlink:href="#mec49f8f76a" y="242.202855"/>
      </g>
     </g>
     <g id="text_9">
      <!-- 2 -->
      <g transform="translate(94.6375 246.002074)scale(0.1 -0.1)">
       <use xlink:href="#DejaVuSans-32"/>
      </g>
     </g>
    </g>
    <g id="ytick_4">
     <g id="line2d_10">
      <g>
       <use style="stroke:#000000;stroke-width:0.8;" x="108" xlink:href="#mec49f8f76a" y="183.690388"/>
      </g>
     </g>
     <g id="text_10">
      <!-- 3 -->
      <g transform="translate(94.6375 187.489607)scale(0.1 -0.1)">
       <use xlink:href="#DejaVuSans-33"/>
      </g>
     </g>
    </g>
    <g id="ytick_5">
     <g id="line2d_11">
      <g>
       <use style="stroke:#000000;stroke-width:0.8;" x="108" xlink:href="#mec49f8f76a" y="125.177921"/>
      </g>
     </g>
     <g id="text_11">
      <!-- 4 -->
      <g transform="translate(94.6375 128.97714)scale(0.1 -0.1)">
       <use xlink:href="#DejaVuSans-34"/>
      </g>
     </g>
    </g>
    <g id="ytick_6">
     <g id="line2d_12">
      <g>
       <use style="stroke:#000000;stroke-width:0.8;" x="108" xlink:href="#mec49f8f76a" y="66.665455"/>
      </g>
     </g>
     <g id="text_12">
      <!-- 5 -->
      <g transform="translate(94.6375 70.464673)scale(0.1 -0.1)">
       <use xlink:href="#DejaVuSans-35"/>
      </g>
     </g>
    </g>
   </g>
   <g id="line2d_13">
    <path clip-path="url(#pc540c12cc7)" d="M 139.434724 359.227788 
L 260.980506 359.227788 
L 260.980506 183.690388 
L 200.207615 242.202855 
L 139.434724 125.177921 
L 139.434724 359.227788 
" style="fill:none;stroke:#ff0000;stroke-dasharray:1.5,2.475;stroke-dashoffset:0;stroke-width:1.5;"/>
   </g>
   <g id="line2d_14">
    <path clip-path="url(#pc540c12cc7)" d="M 382.526289 242.202855 
L 386.209494 240.42975 
L 389.8927 238.656645 
L 393.575905 236.88354 
L 397.259111 235.110435 
L 400.942316 233.33733 
L 404.625522 231.564225 
L 408.308727 229.79112 
L 411.991933 228.018014 
L 415.675138 226.244909 
L 419.358344 224.471804 
L 423.04155 222.698699 
L 426.724755 220.925594 
L 430.407961 219.152489 
L 434.091166 217.379384 
L 437.774372 215.606279 
L 441.457577 213.833174 
L 445.140783 212.060069 
L 448.823988 210.286964 
L 452.507194 208.513859 
L 456.190399 206.740754 
L 459.873605 204.967649 
L 463.55681 203.194544 
L 467.240016 201.421439 
L 470.923221 199.648334 
L 474.606427 197.875229 
L 478.289633 196.102123 
L 481.972838 194.329018 
L 485.656044 192.555913 
L 489.339249 190.782808 
L 493.022455 189.009703 
L 496.70566 187.236598 
L 500.388866 185.463493 
L 504.072071 183.690388 
L 507.755277 181.917283 
L 511.438482 180.144178 
L 515.121688 178.371073 
L 518.804893 176.597968 
L 522.488099 174.824863 
L 526.171304 173.051758 
L 529.85451 171.278653 
L 533.537715 169.505548 
L 537.220921 167.732443 
L 540.904127 165.959338 
L 544.587332 164.186233 
L 548.270538 162.413127 
L 551.953743 160.640022 
L 555.636949 158.866917 
L 559.320154 157.093812 
L 563.00336 155.320707 
L 566.686565 153.547602 
L 570.369771 151.774497 
L 574.052976 150.001392 
L 577.736182 148.228287 
L 581.419387 146.455182 
L 585.102593 144.682077 
L 588.785798 142.908972 
L 592.469004 141.135867 
L 596.15221 139.362762 
L 599.835415 137.589657 
L 603.518621 135.816552 
L 607.201826 134.043447 
L 610.885032 132.270342 
L 614.568237 130.497236 
L 618.251443 128.724131 
L 621.934648 126.951026 
L 625.617854 125.177921 
L 629.301059 123.404816 
L 632.984265 121.631711 
L 636.66747 119.858606 
L 640.350676 118.085501 
L 644.033881 116.312396 
L 647.717087 114.539291 
L 651.400293 112.766186 
L 655.083498 110.993081 
L 658.766704 109.219976 
L 662.449909 107.446871 
L 666.133115 105.673766 
L 669.81632 103.900661 
L 673.499526 102.127556 
L 677.182731 100.354451 
L 680.865937 98.581346 
L 684.549142 96.80824 
L 688.232348 95.035135 
L 691.915553 93.26203 
L 695.598759 91.488925 
L 699.281964 89.71582 
L 702.96517 87.942715 
L 706.648376 86.16961 
L 710.331581 84.396505 
L 714.014787 82.6234 
L 717.697992 80.850295 
L 721.381198 79.07719 
L 725.064403 77.304085 
L 728.747609 75.53098 
L 732.430814 73.757875 
L 736.11402 71.98477 
L 739.797225 70.211665 
L 743.480431 68.43856 
L 747.163636 66.665455 
" style="fill:none;stroke:#0000ff;stroke-linecap:square;stroke-width:1.5;"/>
   </g>
   <g id="line2d_15">
    <path clip-path="url(#pc540c12cc7)" d="M 382.526289 318.670037 
L 386.209494 317.790134 
L 389.8927 316.923267 
L 393.575905 316.069055 
L 397.259111 315.227134 
L 400.942316 314.397156 
L 404.625522 313.578787 
L 408.308727 312.771705 
L 411.991933 311.975605 
L 415.675138 311.190191 
L 419.358344 310.41518 
L 423.04155 309.650301 
L 426.724755 308.89529 
L 430.407961 308.149899 
L 434.091166 307.413883 
L 437.774372 306.687011 
L 441.457577 305.969057 
L 445.140783 305.259807 
L 448.823988 304.55905 
L 452.507194 303.866587 
L 456.190399 303.182223 
L 459.873605 302.505771 
L 463.55681 301.837049 
L 467.240016 301.175885 
L 470.923221 300.522107 
L 474.606427 299.875554 
L 478.289633 299.236067 
L 481.972838 298.603494 
L 485.656044 297.977686 
L 489.339249 297.358501 
L 493.022455 296.745799 
L 496.70566 296.139447 
L 500.388866 295.539314 
L 504.072071 294.945273 
L 507.755277 294.357203 
L 511.438482 293.774985 
L 515.121688 293.198503 
L 518.804893 292.627645 
L 522.488099 292.062303 
L 526.171304 291.502371 
L 529.85451 290.947746 
L 533.537715 290.398329 
L 537.220921 289.854023 
L 540.904127 289.314734 
L 544.587332 288.78037 
L 548.270538 288.250842 
L 551.953743 287.726063 
L 555.636949 287.205948 
L 559.320154 286.690417 
L 563.00336 286.179387 
L 566.686565 285.672783 
L 570.369771 285.170527 
L 574.052976 284.672545 
L 577.736182 284.178766 
L 581.419387 283.689119 
L 585.102593 283.203536 
L 588.785798 282.721949 
L 592.469004 282.244294 
L 596.15221 281.770506 
L 599.835415 281.300524 
L 603.518621 280.834287 
L 607.201826 280.371735 
L 610.885032 279.912811 
L 614.568237 279.457459 
L 618.251443 279.005623 
L 621.934648 278.55725 
L 625.617854 278.112286 
L 629.301059 277.67068 
L 632.984265 277.232382 
L 636.66747 276.797343 
L 640.350676 276.365515 
L 644.033881 275.93685 
L 647.717087 275.511303 
L 651.400293 275.088829 
L 655.083498 274.669383 
L 658.766704 274.252922 
L 662.449909 273.839405 
L 666.133115 273.428789 
L 669.81632 273.021035 
L 673.499526 272.616103 
L 677.182731 272.213954 
L 680.865937 271.81455 
L 684.549142 271.417854 
L 688.232348 271.023829 
L 691.915553 270.63244 
L 695.598759 270.243651 
L 699.281964 269.857429 
L 702.96517 269.473739 
L 706.648376 269.092549 
L 710.331581 268.713826 
L 714.014787 268.337539 
L 717.697992 267.963656 
L 721.381198 267.592147 
L 725.064403 267.222982 
L 728.747609 266.856132 
L 732.430814 266.491567 
L 736.11402 266.129259 
L 739.797225 265.769182 
L 743.480431 265.411306 
L 747.163636 265.055606 
" style="fill:none;stroke:#0000ff;stroke-linecap:square;stroke-width:1.5;"/>
   </g>
   <g id="patch_4">
    <path d="M 108 378 
L 108 51.84 
" style="fill:none;stroke:#000000;stroke-linecap:square;stroke-linejoin:miter;stroke-width:0.8;"/>
   </g>
   <g id="patch_5">
    <path d="M 777.6 378 
L 777.6 51.84 
" style="fill:none;stroke:#000000;stroke-linecap:square;stroke-linejoin:miter;stroke-width:0.8;"/>
   </g>
   <g id="patch_6">
    <path d="M 108 378 
L 777.6 378 
" style="fill:none;stroke:#000000;stroke-linecap:square;stroke-linejoin:miter;stroke-width:0.8;"/>
   </g>
   <g id="patch_7">
    <path d="M 108 51.84 
L 777.6 51.84 
" style="fill:none;stroke:#000000;stroke-linecap:square;stroke-linejoin:miter;stroke-width:0.8;"/>
   </g>
  </g>
 </g>
 <defs>
  <clipPath id="pc540c12cc7">
   <rect height="326.16" width="669.6" x="108" y="51.84"/>
  </clipPath>
 </defs>
</svg>
