<?xml version="1.0" encoding="utf-8" standalone="no"?>
<!DOCTYPE svg PUBLIC "-//W3C//DTD SVG 1.1//EN"
  "http://www.w3.org/Graphics/SVG/1.1/DTD/svg11.dtd">
<!-- Created with matplotlib (http://matplotlib.org/) -->
<svg height="576pt" version="1.1" viewBox="0 0 1152 576" width="1152pt" xmlns="http://www.w3.org/2000/svg" xmlns:xlink="http://www.w3.org/1999/xlink">
 <defs>
  <style type="text/css">
*{stroke-linecap:butt;stroke-linejoin:round;}
  </style>
 </defs>
 <g id="figure_1">
  <g id="patch_1">
   <path d="M 0 576 
L 1152 576 
L 1152 0 
L 0 0 
z
" style="fill:#ffffff;"/>
  </g>
  <g id="axes_1">
   <g id="patch_2">
    <path d="M 144 504 
L 1036.8 504 
L 1036.8 69.12 
L 144 69.12 
z
" style="fill:#ffffff;"/>
   </g>
   <g id="Quiver_1">
    <path clip-path="url(#p44bd71a26c)" d="M 142.30786 502.544498 
L 175.28511 464.205757 
L 170.445328 462.986893 
L 190.076769 450.432 
L 180.598167 471.719906 
L 178.66939 467.116761 
L 145.69214 505.455502 
L 142.30786 502.544498 
" style="fill:#ff0000;"/>
    <path clip-path="url(#p44bd71a26c)" d="M 241.568586 502.476743 
L 274.170963 467.55947 
L 269.384877 466.144371 
L 289.51169 454.4 
L 279.173362 475.283913 
L 277.433791 470.605984 
L 244.831414 505.523257 
L 241.568586 502.476743 
" style="fill:#ff0000;"/>
    <path clip-path="url(#p44bd71a26c)" d="M 340.799642 502.444147 
L 371.159975 471.215367 
L 366.403406 469.704019 
L 386.76301 458.368 
L 376.005553 479.039137 
L 374.36069 474.327073 
L 344.000358 505.555853 
L 340.799642 502.444147 
" style="fill:#ff0000;"/>
    <path clip-path="url(#p44bd71a26c)" d="M 439.606779 502.995562 
L 451.562454 479.270549 
L 446.571575 479.254894 
L 462.595614 462.336 
L 458.530899 485.28152 
L 455.548896 481.279424 
L 443.593221 505.004438 
L 439.606779 502.995562 
" style="fill:#ff0000;"/>
    <path clip-path="url(#p44bd71a26c)" d="M 538.957756 502.739857 
L 553.401518 481.624054 
L 548.456887 480.946011 
L 566.58505 466.304 
L 559.510351 488.50687 
L 557.086006 484.14434 
L 542.642244 505.260143 
L 538.957756 502.739857 
" style="fill:#ff0000;"/>
    <path clip-path="url(#p44bd71a26c)" d="M 638.027217 502.955992 
L 646.480197 486.983036 
L 641.490623 486.867803 
L 657.84905 470.272 
L 653.32732 493.131851 
L 650.425762 489.071052 
L 641.972783 505.044008 
L 638.027217 502.955992 
" style="fill:#ff0000;"/>
    <path clip-path="url(#p44bd71a26c)" d="M 736.9779 504.209993 
L 736.055455 494.44889 
L 731.821249 497.090976 
L 736.387614 474.24 
L 745.153846 495.831016 
L 740.499654 494.028903 
L 741.4221 503.790007 
L 736.9779 504.209993 
" style="fill:#ff0000;"/>
    <path clip-path="url(#p44bd71a26c)" d="M 836.203906 503.601259 
L 837.298246 497.574106 
L 832.507316 498.972718 
L 843.08301 478.208 
L 845.683881 501.365165 
L 841.690434 498.371588 
L 840.596094 504.398741 
L 836.203906 503.601259 
" style="fill:#ff0000;"/>
    <path clip-path="url(#p44bd71a26c)" d="M 935.54464 504.870242 
L 934.136508 501.544478 
L 930.89603 505.340322 
L 928.35969 482.176 
L 943.228188 500.11887 
L 938.247227 499.803994 
L 939.65536 503.129758 
L 935.54464 504.870242 
" style="fill:#ff0000;"/>
    <path clip-path="url(#p44bd71a26c)" d="M 1035.514581 505.824698 
L 1026.589632 499.537467 
L 1025.843492 504.472282 
L 1011.452769 486.144 
L 1033.556005 493.524094 
L 1029.16047 495.888071 
L 1038.085419 502.175302 
L 1035.514581 505.824698 
" style="fill:#ff0000;"/>
    <path clip-path="url(#p44bd71a26c)" d="M 142.359684 454.166333 
L 170.845448 423.297173 
L 166.051149 421.910153 
L 186.108769 410.048 
L 175.893042 430.992158 
L 174.126079 426.324507 
L 145.640316 457.193667 
L 142.359684 454.166333 
" style="fill:#ff0000;"/>
    <path clip-path="url(#p44bd71a26c)" d="M 241.634558 454.08902 
L 269.659431 426.513996 
L 264.937568 424.897478 
L 285.54369 414.016 
L 274.330218 434.443356 
L 272.790314 429.695955 
L 244.765442 457.27098 
L 241.634558 454.08902 
" style="fill:#ff0000;"/>
    <path clip-path="url(#p44bd71a26c)" d="M 340.877195 454.048164 
L 366.585678 430.057405 
L 361.908232 428.316536 
L 382.79501 417.984 
L 371.04506 438.107555 
L 369.631287 433.321078 
L 343.922805 457.311836 
L 340.877195 454.048164 
" style="fill:#ff0000;"/>
    <path clip-path="url(#p44bd71a26c)" d="M 439.60752 454.674094 
L 447.581983 438.878417 
L 442.591117 438.859086 
L 458.627614 421.952 
L 454.545999 444.89452 
L 451.566944 440.890228 
L 443.59248 456.685906 
L 439.60752 454.674094 
" style="fill:#ff0000;"/>
    <path clip-path="url(#p44bd71a26c)" d="M 538.999904 454.36035 
L 548.940101 440.801217 
L 544.020258 439.962013 
L 562.61705 425.92 
L 554.820836 447.879915 
L 552.540294 443.440518 
L 542.600096 456.99965 
L 538.999904 454.36035 
" style="fill:#ff0000;"/>
    <path clip-path="url(#p44bd71a26c)" d="M 638.034567 454.62222 
L 642.395596 446.519112 
L 637.40695 446.368985 
L 653.88105 429.888 
L 649.199546 452.715666 
L 646.326461 448.634673 
L 641.965433 456.73778 
L 638.034567 454.62222 
" style="fill:#ff0000;"/>
    <path clip-path="url(#p44bd71a26c)" d="M 737.068502 456.342224 
L 736.248133 453.701705 
L 732.647361 457.157651 
L 732.419614 433.856 
L 745.436349 453.184307 
L 740.511129 452.377257 
L 741.331498 455.017776 
L 737.068502 456.342224 
" style="fill:#ff0000;"/>
    <path clip-path="url(#p44bd71a26c)" d="M 836.6144 455.608499 
L 836.685901 453.822899 
L 833.0432 455.465497 
L 839.11501 437.824 
L 843.7568 455.894503 
L 840.257101 453.965901 
L 840.1856 455.751501 
L 836.6144 455.608499 
" style="fill:#ff0000;"/>
    <path clip-path="url(#p44bd71a26c)" d="M 936.2112 457.000831 
L 934.890369 455.612031 
L 933.4336 459.642493 
L 924.39169 441.792 
L 941.7664 451.717507 
L 937.667969 452.970369 
L 938.9888 454.359169 
L 936.2112 457.000831 
" style="fill:#ff0000;"/>
    <path clip-path="url(#p44bd71a26c)" d="M 1036.084564 457.794232 
L 1025.797417 454.313157 
L 1026.480776 459.257057 
L 1007.484769 445.76 
L 1030.773393 446.571667 
L 1027.22829 450.084694 
L 1037.515436 453.565768 
L 1036.084564 457.794232 
" style="fill:#ff0000;"/>
    <path clip-path="url(#p44bd71a26c)" d="M 142.431021 405.772509 
L 166.284369 382.197321 
L 161.558919 380.591317 
L 182.140769 369.664 
L 170.972794 390.116265 
L 169.422327 385.372303 
L 145.568979 408.947491 
L 142.431021 405.772509 
" style="fill:#ff0000;"/>
    <path clip-path="url(#p44bd71a26c)" d="M 241.726528 405.683485 
L 265.013579 385.216734 
L 260.39012 383.337175 
L 281.57569 373.632 
L 269.230953 393.396268 
L 267.960524 388.569765 
L 244.673472 409.036515 
L 241.726528 405.683485 
" style="fill:#ff0000;"/>
    <path clip-path="url(#p44bd71a26c)" d="M 340.987862 405.631506 
L 361.85843 388.580749 
L 357.30566 386.5359 
L 378.82701 377.6 
L 365.778489 396.906862 
L 364.682706 392.037736 
L 343.812138 409.088494 
L 340.987862 405.631506 
" style="fill:#ff0000;"/>
    <path clip-path="url(#p44bd71a26c)" d="M 439.608717 406.351726 
L 443.59387 398.481275 
L 438.60303 398.456011 
L 454.659614 381.568 
L 450.550729 404.505652 
L 447.576436 400.497822 
L 443.591283 408.368274 
L 439.608717 406.351726 
" style="fill:#ff0000;"/>
    <path clip-path="url(#p44bd71a26c)" d="M 539.072258 405.946943 
L 544.203794 399.672624 
L 539.335252 398.574252 
L 558.64905 385.536 
L 549.701706 407.052595 
L 547.659278 402.498738 
L 542.527742 408.773057 
L 539.072258 405.946943 
" style="fill:#ff0000;"/>
    <path clip-path="url(#p44bd71a26c)" d="M 638.2144 406.368695 
L 639.205705 404.583095 
L 634.6432 404.386085 
L 649.91305 389.504 
L 645.3568 410.333915 
L 642.776905 406.565705 
L 641.7856 408.351305 
L 638.2144 406.368695 
" style="fill:#ff0000;"/>
    <path clip-path="url(#p44bd71a26c)" d="M 737.8112 408.434839 
L 736.736361 407.046039 
L 735.0336 410.584516 
L 728.451614 393.472 
L 743.3664 404.135484 
L 739.513961 404.896361 
L 740.5888 406.285161 
L 737.8112 408.434839 
" style="fill:#ff0000;"/>
    <path clip-path="url(#p44bd71a26c)" d="M 837.408 407.685299 
L 837.082701 406.693299 
L 835.424 408.335897 
L 835.14701 397.44 
L 841.376 406.384103 
L 839.066701 406.042701 
L 839.392 407.034701 
L 837.408 407.685299 
" style="fill:#ff0000;"/>
    <path clip-path="url(#p44bd71a26c)" d="M 937.0048 409.077631 
L 935.287169 408.482431 
L 935.8144 412.512893 
L 920.42369 401.408 
L 939.3856 402.207107 
L 936.477569 405.047169 
L 938.1952 405.642369 
L 937.0048 409.077631 
" style="fill:#ff0000;"/>
    <path clip-path="url(#p44bd71a26c)" d="M 1036.667187 409.588045 
L 1023.436362 408.799361 
L 1025.398781 413.388264 
L 1003.516769 405.376 
L 1026.195658 400.019994 
L 1023.701988 404.343271 
L 1036.932813 405.131955 
L 1036.667187 409.588045 
" style="fill:#ff0000;"/>
    <path clip-path="url(#p44bd71a26c)" d="M 142.53416 357.356807 
L 161.558196 340.789367 
L 156.943324 338.888822 
L 178.172769 329.28 
L 165.738364 348.987977 
L 164.489876 344.155752 
L 145.46584 360.723193 
L 142.53416 357.356807 
" style="fill:#ff0000;"/>
    <path clip-path="url(#p44bd71a26c)" d="M 241.861257 357.254057 
L 260.195461 343.510741 
L 255.732032 341.277597 
L 277.60769 333.248 
L 263.764488 351.993255 
L 262.872946 347.082626 
L 244.538743 360.825943 
L 241.861257 357.254057 
" style="fill:#ff0000;"/>
    <path clip-path="url(#p44bd71a26c)" d="M 341.154624 357.187742 
L 356.943308 346.57213 
L 352.600296 344.11299 
L 374.85901 337.216 
L 360.072555 355.22654 
L 359.434061 350.276647 
L 343.645376 360.892258 
L 341.154624 357.187742 
" style="fill:#ff0000;"/>
    <path clip-path="url(#p44bd71a26c)" d="M 439.8144 358.130839 
L 440.723561 356.345239 
L 436.2432 356.312516 
L 450.691614 341.184 
L 446.9568 361.767484 
L 444.294761 358.163561 
L 443.3856 359.949161 
L 439.8144 358.130839 
" style="fill:#ff0000;"/>
    <path clip-path="url(#p44bd71a26c)" d="M 539.4112 357.651895 
L 540.799305 356.263095 
L 536.6336 354.875685 
L 554.68105 345.152 
L 544.9664 363.204315 
L 543.576905 359.039305 
L 542.1888 360.428105 
L 539.4112 357.651895 
" style="fill:#ff0000;"/>
    <path clip-path="url(#p44bd71a26c)" d="M 639.008 358.445495 
L 639.602505 357.453495 
L 637.024 357.256485 
L 645.94505 349.12 
L 642.976 360.823515 
L 641.586505 358.642505 
L 640.992 359.634505 
L 639.008 358.445495 
" style="fill:#ff0000;"/>
    <path clip-path="url(#p44bd71a26c)" d="M 738.6048 360.511639 
L 737.133161 359.916439 
L 737.4144 363.454916 
L 724.483614 353.088 
L 740.9856 354.625084 
L 738.323561 356.973161 
L 739.7952 357.568361 
L 738.6048 360.511639 
" style="fill:#ff0000;"/>
    <path clip-path="url(#p44bd71a26c)" d="M 838.2016 359.762099 
L 837.479501 359.563699 
L 837.8048 361.206297 
L 831.17901 357.056 
L 838.9952 356.873703 
L 837.876301 358.119501 
L 838.5984 358.317901 
L 838.2016 359.762099 
" style="fill:#ff0000;"/>
    <path clip-path="url(#p44bd71a26c)" d="M 937.7984 361.154431 
L 935.683969 361.352831 
L 938.1952 365.383293 
L 916.45569 361.024 
L 937.0048 352.696707 
L 935.287169 357.123969 
L 937.4016 356.925569 
L 937.7984 361.154431 
" style="fill:#ff0000;"/>
    <path clip-path="url(#p44bd71a26c)" d="M 1037.152162 361.244043 
L 1019.737319 364.026586 
L 1022.645686 368.08251 
L 999.548769 364.992 
L 1020.532715 354.858252 
L 1019.032995 359.6185 
L 1036.447838 356.835957 
L 1037.152162 361.244043 
" style="fill:#ff0000;"/>
    <path clip-path="url(#p44bd71a26c)" d="M 142.692813 308.910832 
L 156.615075 298.851512 
L 152.191534 296.540364 
L 174.204769 288.896 
L 160.034654 307.395369 
L 159.229449 302.469847 
L 145.307187 312.529168 
L 142.692813 308.910832 
" style="fill:#ff0000;"/>
    <path clip-path="url(#p44bd71a26c)" d="M 242.070667 308.794791 
L 255.183472 301.102786 
L 250.999597 298.3817 
L 273.63969 292.864 
L 257.775594 309.932956 
L 257.442137 304.953205 
L 244.329333 312.645209 
L 242.070667 308.794791 
" style="fill:#ff0000;"/>
    <path clip-path="url(#p44bd71a26c)" d="M 341.42201 308.71367 
L 351.85605 303.627576 
L 347.893741 300.592906 
L 370.89101 296.832 
L 353.761679 312.630886 
L 353.812029 307.640237 
L 343.37799 312.72633 
L 341.42201 308.71367 
" style="fill:#ff0000;"/>
    <path clip-path="url(#p44bd71a26c)" d="M 440.608 310.207639 
L 441.120361 309.215639 
L 438.624 309.182916 
L 446.723614 300.8 
L 444.576 312.257084 
L 443.104361 310.240361 
L 442.592 311.232361 
L 440.608 310.207639 
" style="fill:#ff0000;"/>
    <path clip-path="url(#p44bd71a26c)" d="M 540.2048 309.728695 
L 541.196105 309.133495 
L 539.0144 307.746085 
L 550.71305 304.768 
L 542.5856 313.693915 
L 542.386505 311.116105 
L 541.3952 311.711305 
L 540.2048 309.728695 
" style="fill:#ff0000;"/>
    <path clip-path="url(#p44bd71a26c)" d="M 641.575491 309.138971 
L 639.418534 308.56507 
L 637.843043 310.146099 
L 638.424509 312.301029 
L 640.581466 312.87493 
L 642.156957 311.293901 
L 641.575491 309.138971 
L 639.418534 308.56507 
" style="fill:#ff0000;"/>
    <path clip-path="url(#p44bd71a26c)" d="M 739.3984 312.588439 
L 737.529961 312.786839 
L 739.7952 316.325316 
L 720.515614 312.704 
L 738.6048 305.114684 
L 737.133161 309.049961 
L 739.0016 308.851561 
L 739.3984 312.588439 
" style="fill:#ff0000;"/>
    <path clip-path="url(#p44bd71a26c)" d="M 838.9952 311.838899 
L 837.876301 312.434099 
L 840.1856 314.076697 
L 827.21101 316.672 
L 836.6144 307.363303 
L 836.685901 310.196301 
L 837.8048 309.601101 
L 838.9952 311.838899 
" style="fill:#ff0000;"/>
    <path clip-path="url(#p44bd71a26c)" d="M 938.420034 312.795902 
L 931.99084 315.335597 
L 935.70681 318.667366 
L 912.48769 320.64 
L 930.786606 306.211955 
L 930.350772 311.183793 
L 936.779966 308.644098 
L 938.420034 312.795902 
" style="fill:#ff0000;"/>
    <path clip-path="url(#p44bd71a26c)" d="M 1037.512664 312.835168 
L 1015.329943 320.309194 
L 1018.870438 323.826866 
L 995.580769 324.608 
L 1014.594455 311.13586 
L 1013.904615 316.078859 
L 1036.087336 308.604832 
L 1037.512664 312.835168 
" style="fill:#ff0000;"/>
    <path clip-path="url(#p44bd71a26c)" d="M 142.955795 260.427322 
L 151.438458 255.937164 
L 147.37737 253.036012 
L 170.236769 248.512 
L 153.642599 264.872083 
L 153.526868 259.882521 
L 145.044205 264.372678 
L 142.955795 260.427322 
" style="fill:#ff0000;"/>
    <path clip-path="url(#p44bd71a26c)" d="M 242.416769 260.309935 
L 250.077871 257.439014 
L 246.421343 254.042114 
L 269.67169 252.48 
L 251.120729 266.582506 
L 251.644333 261.619144 
L 243.983231 264.490065 
L 242.416769 260.309935 
" style="fill:#ff0000;"/>
    <path clip-path="url(#p44bd71a26c)" d="M 341.873554 260.230973 
L 346.875321 259.01699 
L 343.653401 255.205382 
L 366.92301 256.448 
L 346.812079 268.219544 
L 347.928213 263.355044 
L 342.926446 264.569027 
L 341.873554 260.230973 
" style="fill:#ff0000;"/>
    <path clip-path="url(#p44bd71a26c)" d="M 442.723393 260.471319 
L 440.49141 260.462772 
L 439.368016 262.391454 
L 440.476607 264.328681 
L 442.70859 264.337228 
L 443.831984 262.408546 
L 442.723393 260.471319 
L 440.49141 260.462772 
" style="fill:#ff0000;"/>
    <path clip-path="url(#p44bd71a26c)" d="M 540.9984 261.805495 
L 541.592905 262.003895 
L 541.3952 260.616485 
L 546.74505 264.384 
L 540.2048 264.183515 
L 541.196105 263.192905 
L 540.6016 262.994505 
L 540.9984 261.805495 
" style="fill:#ff0000;"/>
    <path clip-path="url(#p44bd71a26c)" d="M 640.5952 262.599095 
L 640.396105 263.194295 
L 641.7856 262.997285 
L 638.00905 268.352 
L 638.2144 261.802715 
L 639.205705 262.796105 
L 639.4048 262.200905 
L 640.5952 262.599095 
" style="fill:#ff0000;"/>
    <path clip-path="url(#p44bd71a26c)" d="M 740.095353 264.444545 
L 735.843877 266.306365 
L 739.67913 269.500102 
L 716.547614 272.32 
L 734.307009 257.232829 
L 734.05317 262.217274 
L 738.304647 260.355455 
L 740.095353 264.444545 
" style="fill:#ff0000;"/>
    <path clip-path="url(#p44bd71a26c)" d="M 839.7888 263.915699 
L 838.273101 265.304499 
L 842.5664 266.947097 
L 823.24301 276.288 
L 834.2336 257.852903 
L 835.495501 262.273101 
L 837.0112 260.884301 
L 839.7888 263.915699 
" style="fill:#ff0000;"/>
    <path clip-path="url(#p44bd71a26c)" d="M 938.767907 264.302056 
L 926.8061 271.646889 
L 931.04397 274.283094 
L 908.51969 280.256 
L 924.036526 262.870759 
L 924.470285 267.842778 
L 936.432093 260.497944 
L 938.767907 264.302056 
" style="fill:#ff0000;"/>
    <path clip-path="url(#p44bd71a26c)" d="M 1037.770702 264.409866 
L 1010.672267 277.497551 
L 1014.623537 280.546582 
L 991.612769 284.224 
L 1008.799327 268.487385 
L 1008.730864 273.477819 
L 1035.829298 260.390134 
L 1037.770702 264.409866 
" style="fill:#ff0000;"/>
    <path clip-path="url(#p44bd71a26c)" d="M 143.423662 211.923693 
L 146.285671 211.158735 
L 142.976689 207.42246 
L 166.268769 208.128 
L 146.434716 220.3603 
L 147.438347 215.471348 
L 144.576338 216.236307 
L 143.423662 211.923693 
" style="fill:#ff0000;"/>
    <path clip-path="url(#p44bd71a26c)" d="M 243.00398 211.856624 
L 245.497287 211.636806 
L 242.881871 207.386074 
L 265.70369 212.096 
L 244.057992 220.726329 
L 245.889327 216.083558 
L 243.39602 216.303376 
L 243.00398 211.856624 
" style="fill:#ff0000;"/>
    <path clip-path="url(#p44bd71a26c)" d="M 342.5984 212.024499 
L 344.653901 212.222899 
L 342.9952 207.913497 
L 362.95501 216.064 
L 341.8048 220.246503 
L 344.257101 216.333901 
L 342.2016 216.135501 
L 342.5984 212.024499 
" style="fill:#ff0000;"/>
    <path clip-path="url(#p44bd71a26c)" d="M 442.1952 214.361239 
L 441.913961 214.956439 
L 443.3856 214.923716 
L 438.787614 220.032 
L 439.8144 213.236284 
L 440.723561 214.393961 
L 441.0048 213.798761 
L 442.1952 214.361239 
" style="fill:#ff0000;"/>
    <path clip-path="url(#p44bd71a26c)" d="M 541.792 213.882295 
L 541.989705 214.874295 
L 543.776 213.486885 
L 542.77705 224 
L 537.824 214.673115 
L 540.005705 215.269705 
L 539.808 214.277705 
L 541.792 213.882295 
" style="fill:#ff0000;"/>
    <path clip-path="url(#p44bd71a26c)" d="M 641.3888 214.675895 
L 640.792905 216.064695 
L 644.1664 215.867685 
L 634.04105 227.968 
L 635.8336 212.292315 
L 638.015305 214.872905 
L 638.6112 213.484105 
L 641.3888 214.675895 
" style="fill:#ff0000;"/>
    <path clip-path="url(#p44bd71a26c)" d="M 740.443344 215.933623 
L 730.505569 222.599527 
L 734.84588 225.063429 
L 712.579614 231.936 
L 727.385816 213.941689 
L 728.018881 218.89228 
L 737.956656 212.226377 
L 740.443344 215.933623 
" style="fill:#ff0000;"/>
    <path clip-path="url(#p44bd71a26c)" d="M 840.078646 215.551045 
L 834.193059 222.267234 
L 839.021395 223.530678 
L 819.27501 235.904 
L 828.949521 214.704409 
L 830.835768 219.325144 
L 836.721354 212.608955 
L 840.078646 215.551045 
" style="fill:#ff0000;"/>
    <path clip-path="url(#p44bd71a26c)" d="M 938.973225 215.839567 
L 921.761021 229.272543 
L 926.267038 231.418453 
L 904.55169 239.872 
L 918.027689 220.861049 
L 919.014571 225.753409 
L 936.226775 212.320433 
L 938.973225 215.839567 
" style="fill:#ff0000;"/>
    <path clip-path="url(#p44bd71a26c)" d="M 1037.955967 215.989336 
L 1005.98476 235.345631 
L 1010.20603 238.008335 
L 987.644769 243.84 
L 1003.270227 226.55232 
L 1003.672825 231.526959 
L 1035.644033 212.170664 
L 1037.955967 215.989336 
" style="fill:#ff0000;"/>
    <path clip-path="url(#p44bd71a26c)" d="M 144.1984 163.929923 
L 146.028477 164.128323 
L 144.5952 160.269769 
L 162.300769 167.744 
L 143.4048 171.250231 
L 145.631677 167.788477 
L 143.8016 167.590077 
L 144.1984 163.929923 
" style="fill:#ff0000;"/>
    <path clip-path="url(#p44bd71a26c)" d="M 243.7952 163.906431 
L 245.648769 164.501631 
L 244.9856 160.199293 
L 261.73569 171.712 
L 241.4144 171.320707 
L 244.458369 168.208769 
L 242.6048 167.613569 
L 243.7952 163.906431 
" style="fill:#ff0000;"/>
    <path clip-path="url(#p44bd71a26c)" d="M 343.392 164.101299 
L 345.050701 165.093299 
L 345.376 160.783897 
L 358.98701 175.68 
L 339.424 170.736103 
L 343.066701 168.410701 
L 341.408 167.418701 
L 343.392 164.101299 
" style="fill:#ff0000;"/>
    <path clip-path="url(#p44bd71a26c)" d="M 442.9888 166.438039 
L 442.310761 167.826839 
L 445.7664 167.794116 
L 434.819614 179.648 
L 437.4336 163.725884 
L 439.533161 166.470761 
L 440.2112 165.081961 
L 442.9888 166.438039 
" style="fill:#ff0000;"/>
    <path clip-path="url(#p44bd71a26c)" d="M 542.5856 165.959095 
L 542.386505 167.744695 
L 546.1568 166.357285 
L 538.80905 183.616 
L 535.4432 165.162715 
L 538.815305 167.346505 
L 539.0144 165.560905 
L 542.5856 165.959095 
" style="fill:#ff0000;"/>
    <path clip-path="url(#p44bd71a26c)" d="M 642.031694 166.684144 
L 640.422043 170.222897 
L 645.409576 170.039491 
L 630.07305 187.584 
L 633.219411 164.494625 
L 636.358655 168.374608 
L 637.968306 164.835856 
L 642.031694 166.684144 
" style="fill:#ff0000;"/>
    <path clip-path="url(#p44bd71a26c)" d="M 740.6388 167.466365 
L 725.407695 180.309169 
L 729.991658 182.283098 
L 708.611614 191.552 
L 721.358861 172.044911 
L 722.530096 176.89644 
L 737.7612 164.053635 
L 740.6388 167.466365 
" style="fill:#ff0000;"/>
    <path clip-path="url(#p44bd71a26c)" d="M 840.163374 167.128333 
L 829.385381 181.017964 
L 834.280462 181.991255 
L 815.30701 195.52 
L 823.700216 173.781258 
L 825.858632 178.281298 
L 836.636626 164.391667 
L 840.163374 167.128333 
" style="fill:#ff0000;"/>
    <path clip-path="url(#p44bd71a26c)" d="M 939.103279 167.409841 
L 916.93554 187.60833 
L 921.591939 189.404733 
L 900.58369 199.488 
L 912.572265 179.505686 
L 913.928982 184.308647 
L 936.096721 164.110159 
L 939.103279 167.409841 
" style="fill:#ff0000;"/>
    <path clip-path="url(#p44bd71a26c)" d="M 1038.091664 167.580282 
L 1001.350975 193.651306 
L 1005.754586 196.000207 
L 983.676769 203.456 
L 998.004601 185.078513 
L 998.767647 190.010741 
L 1035.508336 163.939718 
L 1038.091664 167.580282 
" style="fill:#ff0000;"/>
    <path clip-path="url(#p44bd71a26c)" d="M 144.992 116.006723 
L 146.425277 116.998723 
L 146.976 113.140169 
L 158.332769 127.36 
L 141.024 121.739831 
L 144.441277 119.865277 
L 143.008 118.873277 
L 144.992 116.006723 
" style="fill:#ff0000;"/>
    <path clip-path="url(#p44bd71a26c)" d="M 244.5888 115.983231 
L 246.045569 117.372031 
L 247.3664 113.069693 
L 257.76769 131.328 
L 239.0336 121.810307 
L 243.267969 120.285569 
L 241.8112 118.896769 
L 244.5888 115.983231 
" style="fill:#ff0000;"/>
    <path clip-path="url(#p44bd71a26c)" d="M 344.1856 116.178099 
L 345.447501 117.963699 
L 347.7568 113.654297 
L 355.01901 135.296 
L 337.0432 121.225703 
L 341.876301 120.487501 
L 340.6144 118.701901 
L 344.1856 116.178099 
" style="fill:#ff0000;"/>
    <path clip-path="url(#p44bd71a26c)" d="M 443.60233 118.426154 
L 441.729326 122.229184 
L 446.720139 122.199161 
L 430.851614 139.264 
L 434.70616 116.28224 
L 437.724666 120.256877 
L 439.59767 116.453846 
L 443.60233 118.426154 
" style="fill:#ff0000;"/>
    <path clip-path="url(#p44bd71a26c)" d="M 542.974713 117.942443 
L 541.537748 124.162029 
L 546.389616 122.992201 
L 534.84105 143.232 
L 533.34134 119.977545 
L 537.188322 123.157143 
L 538.625287 116.937557 
L 542.974713 117.942443 
" style="fill:#ff0000;"/>
    <path clip-path="url(#p44bd71a26c)" d="M 642.02242 118.384268 
L 636.625884 129.94249 
L 641.614991 129.808607 
L 626.10505 147.2 
L 629.480473 124.142998 
L 632.581044 128.053954 
L 637.97758 116.495732 
L 642.02242 118.384268 
" style="fill:#ff0000;"/>
    <path clip-path="url(#p44bd71a26c)" d="M 740.759001 119.037291 
L 720.578238 138.734282 
L 725.293531 140.369863 
L 704.643614 151.168 
L 715.939525 130.786115 
L 717.460235 135.539699 
L 737.640999 115.842709 
L 740.759001 119.037291 
" style="fill:#ff0000;"/>
    <path clip-path="url(#p44bd71a26c)" d="M 840.21317 118.741629 
L 824.866837 140.119094 
L 829.794807 140.909181 
L 811.33901 155.136 
L 818.915784 133.09941 
L 821.240496 137.515837 
L 836.58683 116.138371 
L 840.21317 118.741629 
" style="fill:#ff0000;"/>
    <path clip-path="url(#p44bd71a26c)" d="M 939.191188 119.00523 
L 912.293947 146.348538 
L 917.041553 147.88781 
L 896.61569 159.104 
L 907.494426 138.49643 
L 909.111571 143.218078 
L 936.008812 115.87477 
L 939.191188 119.00523 
" style="fill:#ff0000;"/>
    <path clip-path="url(#p44bd71a26c)" d="M 1038.193556 119.18351 
L 996.793911 152.273505 
L 1001.324533 154.366968 
L 979.708769 163.072 
L 992.963197 143.905911 
L 994.006799 148.786486 
L 1035.406444 115.69649 
L 1038.193556 119.18351 
" style="fill:#ff0000;"/>
    <path clip-path="url(#p44bd71a26c)" d="M 145.7856 68.083523 
L 146.822077 69.869123 
L 149.3568 66.010569 
L 154.364769 86.976 
L 138.6432 72.229431 
L 143.250877 71.942077 
L 142.2144 70.156477 
L 145.7856 68.083523 
" style="fill:#ff0000;"/>
    <path clip-path="url(#p44bd71a26c)" d="M 245.207722 68.14487 
L 247.031246 71.899375 
L 250.071559 67.941394 
L 253.79969 90.944 
L 238.025229 73.792172 
L 243.015802 73.849634 
L 241.192278 70.09513 
L 245.207722 68.14487 
" style="fill:#ff0000;"/>
    <path clip-path="url(#p44bd71a26c)" d="M 344.516136 68.410217 
L 346.779102 75.156991 
L 350.301592 71.62129 
L 351.05101 94.912 
L 337.604774 75.879986 
L 342.54683 76.576557 
L 340.283864 69.829783 
L 344.516136 68.410217 
" style="fill:#ff0000;"/>
    <path clip-path="url(#p44bd71a26c)" d="M 443.600742 70.109371 
L 437.788698 81.862694 
L 442.779553 81.840694 
L 426.883614 98.88 
L 430.775102 75.904466 
L 433.787214 79.883951 
L 439.599258 68.130629 
L 443.600742 70.109371 
" style="fill:#ff0000;"/>
    <path clip-path="url(#p44bd71a26c)" d="M 542.941184 69.750201 
L 538.686046 84.207542 
L 543.598616 83.326761 
L 530.87305 102.848 
L 530.75151 79.545553 
L 534.403678 82.94714 
L 538.658816 68.489799 
L 542.941184 69.750201 
" style="fill:#ff0000;"/>
    <path clip-path="url(#p44bd71a26c)" d="M 642.016999 70.075792 
L 632.756181 89.618802 
L 637.745971 89.513388 
L 622.13705 106.816 
L 625.643978 83.778633 
L 628.722183 87.707217 
L 637.983001 68.164208 
L 642.016999 70.075792 
" style="fill:#ff0000;"/>
    <path clip-path="url(#p44bd71a26c)" d="M 740.8388 70.635308 
L 715.952184 97.550104 
L 720.745092 98.941919 
L 700.675614 110.784 
L 710.91229 89.850073 
L 712.674583 94.519489 
L 737.5612 67.604692 
L 740.8388 70.635308 
" style="fill:#ff0000;"/>
    <path clip-path="url(#p44bd71a26c)" d="M 840.245714 70.375055 
L 820.512217 99.395625 
L 825.4587 100.06002 
L 807.37101 114.752 
L 814.384414 92.529692 
L 816.820788 96.885515 
L 836.554286 67.864945 
L 840.245714 70.375055 
" style="fill:#ff0000;"/>
    <path clip-path="url(#p44bd71a26c)" d="M 939.253845 70.618874 
L 907.791397 105.334273 
L 912.59796 106.678176 
L 892.64769 118.72 
L 902.674893 97.684934 
L 904.483708 102.336525 
L 935.946155 67.621126 
L 939.253845 70.618874 
" style="fill:#ff0000;"/>
    <path clip-path="url(#p44bd71a26c)" d="M 1038.271978 70.797827 
L 992.313193 111.118024 
L 996.934977 113.001701 
L 975.740769 122.688 
L 988.103108 102.934737 
L 989.369237 107.76237 
L 1035.328022 67.442173 
L 1038.271978 70.797827 
" style="fill:#ff0000;"/>
   </g>
   <g id="matplotlib.axis_1">
    <g id="xtick_1">
     <g id="line2d_1">
      <defs>
       <path d="M 0 0 
L 0 3.5 
" id="mc7f2905ed1" style="stroke:#000000;stroke-width:0.8;"/>
      </defs>
      <g>
       <use style="stroke:#000000;stroke-width:0.8;" x="144" xlink:href="#mc7f2905ed1" y="504"/>
      </g>
     </g>
     <g id="text_1">
      <!-- −10.0 -->
      <defs>
       <path d="M 10.59375 35.5 
L 73.1875 35.5 
L 73.1875 27.203125 
L 10.59375 27.203125 
z
" id="DejaVuSans-2212"/>
       <path d="M 12.40625 8.296875 
L 28.515625 8.296875 
L 28.515625 63.921875 
L 10.984375 60.40625 
L 10.984375 69.390625 
L 28.421875 72.90625 
L 38.28125 72.90625 
L 38.28125 8.296875 
L 54.390625 8.296875 
L 54.390625 0 
L 12.40625 0 
z
" id="DejaVuSans-31"/>
       <path d="M 31.78125 66.40625 
Q 24.171875 66.40625 20.328125 58.90625 
Q 16.5 51.421875 16.5 36.375 
Q 16.5 21.390625 20.328125 13.890625 
Q 24.171875 6.390625 31.78125 6.390625 
Q 39.453125 6.390625 43.28125 13.890625 
Q 47.125 21.390625 47.125 36.375 
Q 47.125 51.421875 43.28125 58.90625 
Q 39.453125 66.40625 31.78125 66.40625 
z
M 31.78125 74.21875 
Q 44.046875 74.21875 50.515625 64.515625 
Q 56.984375 54.828125 56.984375 36.375 
Q 56.984375 17.96875 50.515625 8.265625 
Q 44.046875 -1.421875 31.78125 -1.421875 
Q 19.53125 -1.421875 13.0625 8.265625 
Q 6.59375 17.96875 6.59375 36.375 
Q 6.59375 54.828125 13.0625 64.515625 
Q 19.53125 74.21875 31.78125 74.21875 
z
" id="DejaVuSans-30"/>
       <path d="M 10.6875 12.40625 
L 21 12.40625 
L 21 0 
L 10.6875 0 
z
" id="DejaVuSans-2e"/>
      </defs>
      <g transform="translate(128.677344 518.598438)scale(0.1 -0.1)">
       <use xlink:href="#DejaVuSans-2212"/>
       <use x="83.789062" xlink:href="#DejaVuSans-31"/>
       <use x="147.412109" xlink:href="#DejaVuSans-30"/>
       <use x="211.035156" xlink:href="#DejaVuSans-2e"/>
       <use x="242.822266" xlink:href="#DejaVuSans-30"/>
      </g>
     </g>
    </g>
    <g id="xtick_2">
     <g id="line2d_2">
      <g>
       <use style="stroke:#000000;stroke-width:0.8;" x="255.6" xlink:href="#mc7f2905ed1" y="504"/>
      </g>
     </g>
     <g id="text_2">
      <!-- −7.5 -->
      <defs>
       <path d="M 8.203125 72.90625 
L 55.078125 72.90625 
L 55.078125 68.703125 
L 28.609375 0 
L 18.3125 0 
L 43.21875 64.59375 
L 8.203125 64.59375 
z
" id="DejaVuSans-37"/>
       <path d="M 10.796875 72.90625 
L 49.515625 72.90625 
L 49.515625 64.59375 
L 19.828125 64.59375 
L 19.828125 46.734375 
Q 21.96875 47.46875 24.109375 47.828125 
Q 26.265625 48.1875 28.421875 48.1875 
Q 40.625 48.1875 47.75 41.5 
Q 54.890625 34.8125 54.890625 23.390625 
Q 54.890625 11.625 47.5625 5.09375 
Q 40.234375 -1.421875 26.90625 -1.421875 
Q 22.3125 -1.421875 17.546875 -0.640625 
Q 12.796875 0.140625 7.71875 1.703125 
L 7.71875 11.625 
Q 12.109375 9.234375 16.796875 8.0625 
Q 21.484375 6.890625 26.703125 6.890625 
Q 35.15625 6.890625 40.078125 11.328125 
Q 45.015625 15.765625 45.015625 23.390625 
Q 45.015625 31 40.078125 35.4375 
Q 35.15625 39.890625 26.703125 39.890625 
Q 22.75 39.890625 18.8125 39.015625 
Q 14.890625 38.140625 10.796875 36.28125 
z
" id="DejaVuSans-35"/>
      </defs>
      <g transform="translate(243.458594 518.598438)scale(0.1 -0.1)">
       <use xlink:href="#DejaVuSans-2212"/>
       <use x="83.789062" xlink:href="#DejaVuSans-37"/>
       <use x="147.412109" xlink:href="#DejaVuSans-2e"/>
       <use x="179.199219" xlink:href="#DejaVuSans-35"/>
      </g>
     </g>
    </g>
    <g id="xtick_3">
     <g id="line2d_3">
      <g>
       <use style="stroke:#000000;stroke-width:0.8;" x="367.2" xlink:href="#mc7f2905ed1" y="504"/>
      </g>
     </g>
     <g id="text_3">
      <!-- −5.0 -->
      <g transform="translate(355.058594 518.598438)scale(0.1 -0.1)">
       <use xlink:href="#DejaVuSans-2212"/>
       <use x="83.789062" xlink:href="#DejaVuSans-35"/>
       <use x="147.412109" xlink:href="#DejaVuSans-2e"/>
       <use x="179.199219" xlink:href="#DejaVuSans-30"/>
      </g>
     </g>
    </g>
    <g id="xtick_4">
     <g id="line2d_4">
      <g>
       <use style="stroke:#000000;stroke-width:0.8;" x="478.8" xlink:href="#mc7f2905ed1" y="504"/>
      </g>
     </g>
     <g id="text_4">
      <!-- −2.5 -->
      <defs>
       <path d="M 19.1875 8.296875 
L 53.609375 8.296875 
L 53.609375 0 
L 7.328125 0 
L 7.328125 8.296875 
Q 12.9375 14.109375 22.625 23.890625 
Q 32.328125 33.6875 34.8125 36.53125 
Q 39.546875 41.84375 41.421875 45.53125 
Q 43.3125 49.21875 43.3125 52.78125 
Q 43.3125 58.59375 39.234375 62.25 
Q 35.15625 65.921875 28.609375 65.921875 
Q 23.96875 65.921875 18.8125 64.3125 
Q 13.671875 62.703125 7.8125 59.421875 
L 7.8125 69.390625 
Q 13.765625 71.78125 18.9375 73 
Q 24.125 74.21875 28.421875 74.21875 
Q 39.75 74.21875 46.484375 68.546875 
Q 53.21875 62.890625 53.21875 53.421875 
Q 53.21875 48.921875 51.53125 44.890625 
Q 49.859375 40.875 45.40625 35.40625 
Q 44.1875 33.984375 37.640625 27.21875 
Q 31.109375 20.453125 19.1875 8.296875 
z
" id="DejaVuSans-32"/>
      </defs>
      <g transform="translate(466.658594 518.598438)scale(0.1 -0.1)">
       <use xlink:href="#DejaVuSans-2212"/>
       <use x="83.789062" xlink:href="#DejaVuSans-32"/>
       <use x="147.412109" xlink:href="#DejaVuSans-2e"/>
       <use x="179.199219" xlink:href="#DejaVuSans-35"/>
      </g>
     </g>
    </g>
    <g id="xtick_5">
     <g id="line2d_5">
      <g>
       <use style="stroke:#000000;stroke-width:0.8;" x="590.4" xlink:href="#mc7f2905ed1" y="504"/>
      </g>
     </g>
     <g id="text_5">
      <!-- 0.0 -->
      <g transform="translate(582.448437 518.598438)scale(0.1 -0.1)">
       <use xlink:href="#DejaVuSans-30"/>
       <use x="63.623047" xlink:href="#DejaVuSans-2e"/>
       <use x="95.410156" xlink:href="#DejaVuSans-30"/>
      </g>
     </g>
    </g>
    <g id="xtick_6">
     <g id="line2d_6">
      <g>
       <use style="stroke:#000000;stroke-width:0.8;" x="702" xlink:href="#mc7f2905ed1" y="504"/>
      </g>
     </g>
     <g id="text_6">
      <!-- 2.5 -->
      <g transform="translate(694.048437 518.598438)scale(0.1 -0.1)">
       <use xlink:href="#DejaVuSans-32"/>
       <use x="63.623047" xlink:href="#DejaVuSans-2e"/>
       <use x="95.410156" xlink:href="#DejaVuSans-35"/>
      </g>
     </g>
    </g>
    <g id="xtick_7">
     <g id="line2d_7">
      <g>
       <use style="stroke:#000000;stroke-width:0.8;" x="813.6" xlink:href="#mc7f2905ed1" y="504"/>
      </g>
     </g>
     <g id="text_7">
      <!-- 5.0 -->
      <g transform="translate(805.648437 518.598438)scale(0.1 -0.1)">
       <use xlink:href="#DejaVuSans-35"/>
       <use x="63.623047" xlink:href="#DejaVuSans-2e"/>
       <use x="95.410156" xlink:href="#DejaVuSans-30"/>
      </g>
     </g>
    </g>
    <g id="xtick_8">
     <g id="line2d_8">
      <g>
       <use style="stroke:#000000;stroke-width:0.8;" x="925.2" xlink:href="#mc7f2905ed1" y="504"/>
      </g>
     </g>
     <g id="text_8">
      <!-- 7.5 -->
      <g transform="translate(917.248438 518.598438)scale(0.1 -0.1)">
       <use xlink:href="#DejaVuSans-37"/>
       <use x="63.623047" xlink:href="#DejaVuSans-2e"/>
       <use x="95.410156" xlink:href="#DejaVuSans-35"/>
      </g>
     </g>
    </g>
    <g id="xtick_9">
     <g id="line2d_9">
      <g>
       <use style="stroke:#000000;stroke-width:0.8;" x="1036.8" xlink:href="#mc7f2905ed1" y="504"/>
      </g>
     </g>
     <g id="text_9">
      <!-- 10.0 -->
      <g transform="translate(1025.667187 518.598438)scale(0.1 -0.1)">
       <use xlink:href="#DejaVuSans-31"/>
       <use x="63.623047" xlink:href="#DejaVuSans-30"/>
       <use x="127.246094" xlink:href="#DejaVuSans-2e"/>
       <use x="159.033203" xlink:href="#DejaVuSans-30"/>
      </g>
     </g>
    </g>
   </g>
   <g id="matplotlib.axis_2">
    <g id="ytick_1">
     <g id="line2d_10">
      <defs>
       <path d="M 0 0 
L -3.5 0 
" id="m631dcb34f0" style="stroke:#000000;stroke-width:0.8;"/>
      </defs>
      <g>
       <use style="stroke:#000000;stroke-width:0.8;" x="144" xlink:href="#m631dcb34f0" y="504"/>
      </g>
     </g>
     <g id="text_10">
      <!-- −10.0 -->
      <g transform="translate(106.354687 507.799219)scale(0.1 -0.1)">
       <use xlink:href="#DejaVuSans-2212"/>
       <use x="83.789062" xlink:href="#DejaVuSans-31"/>
       <use x="147.412109" xlink:href="#DejaVuSans-30"/>
       <use x="211.035156" xlink:href="#DejaVuSans-2e"/>
       <use x="242.822266" xlink:href="#DejaVuSans-30"/>
      </g>
     </g>
    </g>
    <g id="ytick_2">
     <g id="line2d_11">
      <g>
       <use style="stroke:#000000;stroke-width:0.8;" x="144" xlink:href="#m631dcb34f0" y="449.64"/>
      </g>
     </g>
     <g id="text_11">
      <!-- −7.5 -->
      <g transform="translate(112.717187 453.439219)scale(0.1 -0.1)">
       <use xlink:href="#DejaVuSans-2212"/>
       <use x="83.789062" xlink:href="#DejaVuSans-37"/>
       <use x="147.412109" xlink:href="#DejaVuSans-2e"/>
       <use x="179.199219" xlink:href="#DejaVuSans-35"/>
      </g>
     </g>
    </g>
    <g id="ytick_3">
     <g id="line2d_12">
      <g>
       <use style="stroke:#000000;stroke-width:0.8;" x="144" xlink:href="#m631dcb34f0" y="395.28"/>
      </g>
     </g>
     <g id="text_12">
      <!-- −5.0 -->
      <g transform="translate(112.717187 399.079219)scale(0.1 -0.1)">
       <use xlink:href="#DejaVuSans-2212"/>
       <use x="83.789062" xlink:href="#DejaVuSans-35"/>
       <use x="147.412109" xlink:href="#DejaVuSans-2e"/>
       <use x="179.199219" xlink:href="#DejaVuSans-30"/>
      </g>
     </g>
    </g>
    <g id="ytick_4">
     <g id="line2d_13">
      <g>
       <use style="stroke:#000000;stroke-width:0.8;" x="144" xlink:href="#m631dcb34f0" y="340.92"/>
      </g>
     </g>
     <g id="text_13">
      <!-- −2.5 -->
      <g transform="translate(112.717187 344.719219)scale(0.1 -0.1)">
       <use xlink:href="#DejaVuSans-2212"/>
       <use x="83.789062" xlink:href="#DejaVuSans-32"/>
       <use x="147.412109" xlink:href="#DejaVuSans-2e"/>
       <use x="179.199219" xlink:href="#DejaVuSans-35"/>
      </g>
     </g>
    </g>
    <g id="ytick_5">
     <g id="line2d_14">
      <g>
       <use style="stroke:#000000;stroke-width:0.8;" x="144" xlink:href="#m631dcb34f0" y="286.56"/>
      </g>
     </g>
     <g id="text_14">
      <!-- 0.0 -->
      <g transform="translate(121.096875 290.359219)scale(0.1 -0.1)">
       <use xlink:href="#DejaVuSans-30"/>
       <use x="63.623047" xlink:href="#DejaVuSans-2e"/>
       <use x="95.410156" xlink:href="#DejaVuSans-30"/>
      </g>
     </g>
    </g>
    <g id="ytick_6">
     <g id="line2d_15">
      <g>
       <use style="stroke:#000000;stroke-width:0.8;" x="144" xlink:href="#m631dcb34f0" y="232.2"/>
      </g>
     </g>
     <g id="text_15">
      <!-- 2.5 -->
      <g transform="translate(121.096875 235.999219)scale(0.1 -0.1)">
       <use xlink:href="#DejaVuSans-32"/>
       <use x="63.623047" xlink:href="#DejaVuSans-2e"/>
       <use x="95.410156" xlink:href="#DejaVuSans-35"/>
      </g>
     </g>
    </g>
    <g id="ytick_7">
     <g id="line2d_16">
      <g>
       <use style="stroke:#000000;stroke-width:0.8;" x="144" xlink:href="#m631dcb34f0" y="177.84"/>
      </g>
     </g>
     <g id="text_16">
      <!-- 5.0 -->
      <g transform="translate(121.096875 181.639219)scale(0.1 -0.1)">
       <use xlink:href="#DejaVuSans-35"/>
       <use x="63.623047" xlink:href="#DejaVuSans-2e"/>
       <use x="95.410156" xlink:href="#DejaVuSans-30"/>
      </g>
     </g>
    </g>
    <g id="ytick_8">
     <g id="line2d_17">
      <g>
       <use style="stroke:#000000;stroke-width:0.8;" x="144" xlink:href="#m631dcb34f0" y="123.48"/>
      </g>
     </g>
     <g id="text_17">
      <!-- 7.5 -->
      <g transform="translate(121.096875 127.279219)scale(0.1 -0.1)">
       <use xlink:href="#DejaVuSans-37"/>
       <use x="63.623047" xlink:href="#DejaVuSans-2e"/>
       <use x="95.410156" xlink:href="#DejaVuSans-35"/>
      </g>
     </g>
    </g>
    <g id="ytick_9">
     <g id="line2d_18">
      <g>
       <use style="stroke:#000000;stroke-width:0.8;" x="144" xlink:href="#m631dcb34f0" y="69.12"/>
      </g>
     </g>
     <g id="text_18">
      <!-- 10.0 -->
      <g transform="translate(114.734375 72.919219)scale(0.1 -0.1)">
       <use xlink:href="#DejaVuSans-31"/>
       <use x="63.623047" xlink:href="#DejaVuSans-30"/>
       <use x="127.246094" xlink:href="#DejaVuSans-2e"/>
       <use x="159.033203" xlink:href="#DejaVuSans-30"/>
      </g>
     </g>
    </g>
   </g>
   <g id="LineCollection_1">
    <path clip-path="url(#p44bd71a26c)" d="M 649.018182 342.091749 
L 646.300854 341.469091 
L 640 339.947248 
L 632.551671 337.076364 
L 630.981818 336.436703 
L 624.091972 332.683636 
L 621.963636 331.454016 
L 617.463037 328.290909 
L 612.945455 324.911025 
L 611.761336 323.898182 
L 607.07267 319.505455 
L 603.927273 316.291884 
L 602.873124 315.112727 
L 599.417304 310.72 
L 596.378055 306.327273 
L 594.909091 303.779473 
L 593.902034 301.934545 
L 592.042023 297.541818 
L 590.728271 293.149091 
L 590.025791 288.756364 
L 590.010332 284.363636 
L 590.770706 279.970909 
L 592.411715 275.578182 
L 594.909091 271.422006 
L 595.077846 271.185455 
L 599.416808 266.792727 
L 603.927273 263.410165 
L 605.731513 262.4 
L 612.945455 259.196679 
L 617.480439 258.007273 
L 621.963636 257.033019 
L 630.981818 256.475354 
L 640 257.311025 
L 642.836457 258.007273 
L 649.018182 259.606683 
L 655.799214 262.4 
L 658.036364 263.374211 
L 663.716971 266.792727 
L 667.054545 268.922965 
L 669.836372 271.185455 
L 674.86629 275.578182 
L 676.072727 276.733907 
L 678.855957 279.970909 
L 682.26547 284.363636 
L 685.090909 288.457541 
L 685.267481 288.756364 
L 687.4329 293.149091 
L 689.200839 297.541818 
L 690.53568 301.934545 
L 691.397423 306.327273 
L 691.740984 310.72 
L 691.515361 315.112727 
L 690.662634 319.505455 
L 689.116749 323.898182 
L 686.802034 328.290909 
L 685.090909 330.701952 
L 683.180775 332.683636 
L 677.689463 337.076364 
L 676.072727 338.120971 
L 667.443673 341.469091 
L 667.054545 341.594192 
L 658.036364 342.684542 
L 649.018182 342.091749 
" style="fill:none;stroke:#8000ff;stroke-width:1.5;"/>
   </g>
   <g id="LineCollection_2">
    <path clip-path="url(#p44bd71a26c)" d="M 649.018182 342.275739 
L 645.497904 341.469091 
L 640 340.141185 
L 632.048515 337.076364 
L 630.981818 336.641722 
L 623.715602 332.683636 
L 621.963636 331.67146 
L 617.153649 328.290909 
L 612.945455 325.142497 
L 611.490721 323.898182 
L 606.791733 319.505455 
L 603.927273 316.57891 
L 602.616527 315.112727 
L 599.151446 310.72 
L 596.102242 306.327273 
L 594.909091 304.25785 
L 593.640911 301.934545 
L 591.771303 297.541818 
L 590.447222 293.149091 
L 589.733592 288.756364 
L 589.706063 284.363636 
L 590.453326 279.970909 
L 592.080045 275.578182 
L 594.710623 271.185455 
L 594.909091 270.94425 
L 599.000793 266.792727 
L 603.927273 263.098181 
L 605.174282 262.4 
L 612.945455 258.949243 
L 616.537011 258.007273 
L 621.963636 256.828 
L 630.981818 256.281418 
L 640 257.127035 
L 643.586022 258.007273 
L 649.018182 259.412746 
L 656.270012 262.4 
L 658.036364 263.169193 
L 664.057653 266.792727 
L 667.054545 268.705521 
L 670.103729 271.185455 
L 675.143716 275.578182 
L 676.072727 276.468142 
L 679.084465 279.970909 
L 682.501295 284.363636 
L 685.090909 288.115844 
L 685.469387 288.756364 
L 687.640497 293.149091 
L 689.414456 297.541818 
L 690.755678 301.934545 
L 691.624194 306.327273 
L 691.974958 310.72 
L 691.757011 315.112727 
L 690.912481 319.505455 
L 689.375368 323.898182 
L 687.070064 328.290909 
L 685.090909 331.079617 
L 683.544805 332.683636 
L 678.072418 337.076364 
L 676.072727 338.368407 
L 668.081386 341.469091 
L 667.054545 341.79921 
L 658.036364 342.878479 
L 649.018182 342.275739 
" style="fill:none;stroke:#8000ff;stroke-width:1.5;"/>
   </g>
   <g id="LineCollection_3">
    <path clip-path="url(#p44bd71a26c)" d="M 649.018182 342.556934 
L 644.270749 341.469091 
L 640 340.437579 
L 631.279539 337.076364 
L 630.981818 336.955053 
L 623.140392 332.683636 
L 621.963636 332.00378 
L 616.680809 328.290909 
L 612.945455 325.496258 
L 611.077138 323.898182 
L 606.362376 319.505455 
L 603.927273 317.017573 
L 602.224368 315.112727 
L 598.745132 310.72 
L 595.680714 306.327273 
L 594.909091 304.988955 
L 593.241836 301.934545 
L 591.35756 297.541818 
L 590.017692 293.149091 
L 589.287023 288.756364 
L 589.241047 284.363636 
L 589.968273 279.970909 
L 591.57315 275.578182 
L 594.179827 271.185455 
L 594.909091 270.299157 
L 598.364996 266.792727 
L 603.927273 262.621373 
L 604.322663 262.4 
L 612.945455 258.571085 
L 615.095165 258.007273 
L 621.963636 256.51467 
L 630.981818 255.985024 
L 640 256.84584 
L 644.731586 258.007273 
L 649.018182 259.116352 
L 656.989536 262.4 
L 658.036364 262.855862 
L 664.57832 266.792727 
L 667.054545 268.3732 
L 670.512331 271.185455 
L 675.567708 275.578182 
L 676.072727 276.061973 
L 679.433697 279.970909 
L 682.861708 284.363636 
L 685.090909 287.593626 
L 685.777961 288.756364 
L 687.957768 293.149091 
L 689.740929 297.541818 
L 691.091902 301.934545 
L 691.970769 306.327273 
L 692.332542 310.72 
L 692.126327 315.112727 
L 691.294324 319.505455 
L 689.770618 323.898182 
L 687.479697 328.290909 
L 685.090909 331.656806 
L 684.101153 332.683636 
L 678.657692 337.076364 
L 676.072727 338.746565 
L 669.056006 341.469091 
L 667.054545 342.112541 
L 658.036364 343.174873 
L 649.018182 342.556934 
" style="fill:none;stroke:#8000ff;stroke-width:1.5;"/>
   </g>
   <g id="LineCollection_4">
    <path clip-path="url(#p44bd71a26c)" d="M 649.018182 342.986685 
L 642.39528 341.469091 
L 640 340.89056 
L 630.981818 337.397246 
L 630.357332 337.076364 
L 622.261294 332.683636 
L 621.963636 332.511668 
L 615.958165 328.290909 
L 612.945455 326.036913 
L 610.445056 323.898182 
L 605.706186 319.505455 
L 603.927273 317.687985 
L 601.62503 315.112727 
L 598.124161 310.72 
L 595.03649 306.327273 
L 594.909091 306.106309 
L 592.631927 301.934545 
L 590.725234 297.541818 
L 589.361239 293.149091 
L 588.604528 288.756364 
L 588.530359 284.363636 
L 589.226962 279.970909 
L 590.798459 275.578182 
L 593.368608 271.185455 
L 594.909091 269.313257 
L 597.393302 266.792727 
L 603.210271 262.4 
L 603.927273 261.967825 
L 612.911031 258.007273 
L 612.945455 257.994856 
L 621.963636 256.035804 
L 630.981818 255.532043 
L 640 256.416089 
L 646.482359 258.007273 
L 649.018182 258.663371 
L 658.036364 262.379355 
L 658.0729 262.4 
L 665.37406 266.792727 
L 667.054545 267.865312 
L 671.136801 271.185455 
L 676.072727 275.458893 
L 676.186945 275.578182 
L 679.96743 279.970909 
L 683.412529 284.363636 
L 685.090909 286.795516 
L 686.249558 288.756364 
L 688.442657 293.149091 
L 690.239879 297.541818 
L 691.605755 301.934545 
L 692.500443 306.327273 
L 692.879041 310.72 
L 692.690755 315.112727 
L 691.877897 319.505455 
L 690.374681 323.898182 
L 688.105741 328.290909 
L 685.090909 332.538927 
L 684.951424 332.683636 
L 679.552171 337.076364 
L 676.072727 339.324506 
L 670.545525 341.469091 
L 667.054545 342.591407 
L 658.036364 343.627854 
L 649.018182 342.986685 
" style="fill:none;stroke:#8000ff;stroke-width:1.5;"/>
   </g>
   <g id="LineCollection_5">
    <path clip-path="url(#p44bd71a26c)" d="M 640 341.571755 
L 639.723721 341.469091 
L 630.981818 338.054038 
L 629.079116 337.076364 
L 621.963636 333.222553 
L 621.138555 332.683636 
L 614.853744 328.290909 
L 612.945455 326.863199 
L 609.479042 323.898182 
L 604.703326 319.505455 
L 603.927273 318.712581 
L 600.709057 315.112727 
L 597.175127 310.72 
L 594.909091 307.500979 
L 594.12536 306.327273 
L 591.699798 301.934545 
L 589.758846 297.541818 
L 588.357977 293.149091 
L 587.561466 288.756364 
L 587.44421 284.363636 
L 588.094013 279.970909 
L 589.614494 275.578182 
L 592.128816 271.185455 
L 594.909091 267.806499 
L 595.908255 266.792727 
L 601.636329 262.4 
L 603.927273 261.019126 
L 610.759087 258.007273 
L 612.945455 257.218647 
L 621.963636 255.30395 
L 630.981818 254.839749 
L 640 255.759297 
L 649.018182 257.974608 
L 649.100771 258.007273 
L 658.036364 261.722564 
L 659.235271 262.4 
L 666.590194 266.792727 
L 667.054545 267.089104 
L 672.091182 271.185455 
L 676.072727 274.632607 
L 676.978109 275.578182 
L 680.783138 279.970909 
L 684.254353 284.363636 
L 685.090909 285.57576 
L 686.970302 288.756364 
L 689.183714 293.149091 
L 691.002429 297.541818 
L 692.39108 301.934545 
L 693.309946 306.327273 
L 693.714258 310.72 
L 693.553373 315.112727 
L 692.769776 319.505455 
L 691.297875 323.898182 
L 689.062529 328.290909 
L 685.977249 332.683636 
L 685.090909 333.677784 
L 680.919208 337.076364 
L 676.072727 340.207778 
L 672.821966 341.469091 
L 667.054545 343.32326 
L 658.036364 344.320148 
L 649.018182 343.643477 
L 640 341.571755 
" style="fill:none;stroke:#8000ff;stroke-width:1.5;"/>
   </g>
   <g id="LineCollection_6">
    <path clip-path="url(#p44bd71a26c)" d="M 640 342.52657 
L 637.154232 341.469091 
L 630.981818 339.057817 
L 627.125609 337.076364 
L 621.963636 334.280591 
L 619.5187 332.683636 
L 613.165849 328.290909 
L 612.945455 328.126019 
L 608.002675 323.898182 
L 603.927273 320.171853 
L 603.259467 319.505455 
L 599.309169 315.112727 
L 595.724712 310.72 
L 594.909091 309.561368 
L 592.749555 306.327273 
L 590.27522 301.934545 
L 588.281909 297.541818 
L 586.824685 293.149091 
L 585.967349 288.756364 
L 585.890909 286.879203 
L 585.790456 284.363636 
L 585.890909 283.525114 
L 586.362518 279.970909 
L 587.805032 275.578182 
L 590.234034 271.185455 
L 593.795976 266.792727 
L 594.909091 265.749238 
L 599.230862 262.4 
L 603.927273 259.569222 
L 607.470257 258.007273 
L 612.945455 256.032363 
L 621.963636 254.185453 
L 630.981818 253.781711 
L 640 254.755518 
L 649.018182 257.019794 
L 651.514947 258.007273 
L 658.036364 260.718784 
L 661.011731 262.4 
L 667.054545 265.999025 
L 668.1104 266.792727 
L 673.549769 271.185455 
L 676.072727 273.369787 
L 678.187249 275.578182 
L 682.029789 279.970909 
L 685.090909 283.815924 
L 685.465914 284.363636 
L 688.07182 288.756364 
L 690.316278 293.149091 
L 692.167838 297.541818 
L 693.591298 301.934545 
L 694.109091 304.347234 
L 694.482331 306.327273 
L 694.85682 310.72 
L 694.752681 315.112727 
L 694.129028 319.505455 
L 694.109091 319.581242 
L 692.708798 323.898182 
L 690.524794 328.290909 
L 687.494733 332.683636 
L 685.090909 335.379845 
L 683.00846 337.076364 
L 676.217369 341.469091 
L 676.072727 341.546949 
L 667.054545 344.441757 
L 658.036364 345.378186 
L 649.018182 344.647256 
L 640 342.52657 
" style="fill:none;stroke:#8000ff;stroke-width:1.5;"/>
   </g>
   <g id="LineCollection_7">
    <path clip-path="url(#p44bd71a26c)" d="M 649.018182 346.151616 
L 647.760833 345.861818 
L 640 343.985819 
L 633.227264 341.469091 
L 630.981818 340.5919 
L 624.14005 337.076364 
L 621.963636 335.897597 
L 617.043064 332.683636 
L 612.945455 329.85427 
L 610.955016 328.290909 
L 605.746334 323.898182 
L 603.927273 322.23493 
L 601.192031 319.505455 
L 597.169711 315.112727 
L 594.909091 312.36414 
L 593.624099 310.72 
L 590.646904 306.327273 
L 588.098027 301.934545 
L 586.024695 297.541818 
L 585.890909 297.147806 
L 584.557534 293.149091 
L 583.663378 288.756364 
L 583.401308 284.363636 
L 583.848079 279.970909 
L 585.093396 275.578182 
L 585.890909 273.903861 
L 587.338226 271.185455 
L 590.756867 266.792727 
L 594.909091 262.900227 
L 595.554571 262.4 
L 602.773258 258.007273 
L 603.927273 257.437705 
L 612.945455 254.219356 
L 615.955034 253.614545 
L 621.963636 252.592816 
L 630.981818 252.306153 
L 640 253.258003 
L 641.45358 253.614545 
L 649.018182 255.560544 
L 655.204547 258.007273 
L 658.036364 259.184701 
L 663.726707 262.4 
L 667.054545 264.382019 
L 670.26149 266.792727 
L 675.778938 271.185455 
L 676.072727 271.439812 
L 680.035186 275.578182 
L 683.935055 279.970909 
L 685.090909 281.422755 
L 687.104456 284.363636 
L 689.755278 288.756364 
L 692.047182 293.149091 
L 693.948942 297.541818 
L 694.109091 298.030872 
L 695.235865 301.934545 
L 696.093461 306.327273 
L 696.511354 310.72 
L 696.453023 315.112727 
L 695.877787 319.505455 
L 694.740196 323.898182 
L 694.109091 325.51178 
L 692.759583 328.290909 
L 689.813915 332.683636 
L 685.929204 337.076364 
L 685.090909 337.847078 
L 679.585502 341.469091 
L 676.072727 343.359956 
L 668.039868 345.861818 
L 667.054545 346.121488 
L 658.036364 346.884619 
L 649.018182 346.151616 
" style="fill:none;stroke:#8000ff;stroke-width:1.5;"/>
   </g>
   <g id="LineCollection_8">
    <path clip-path="url(#p44bd71a26c)" d="M 640 346.184517 
L 639.104148 345.861818 
L 630.981818 342.799951 
L 628.258506 341.469091 
L 621.963636 338.24278 
L 620.061474 337.076364 
L 613.259533 332.683636 
L 612.945455 332.466767 
L 607.628838 328.290909 
L 603.927273 325.207367 
L 602.482983 323.898182 
L 598.032355 319.505455 
L 594.909091 316.157909 
L 593.980883 315.112727 
L 590.516981 310.72 
L 587.433407 306.327273 
L 585.890909 303.745478 
L 584.827085 301.934545 
L 582.747968 297.541818 
L 581.169768 293.149091 
L 580.148755 288.756364 
L 579.749959 284.363636 
L 580.048934 279.970909 
L 581.133987 275.578182 
L 583.108978 271.185455 
L 585.890909 267.083125 
L 586.112177 266.792727 
L 590.583974 262.4 
L 594.909091 259.162694 
L 596.797016 258.007273 
L 603.927273 254.488111 
L 606.405145 253.614545 
L 612.945455 251.682689 
L 621.963636 250.248266 
L 630.981818 250.075972 
L 640 251.131552 
L 649.018182 253.355624 
L 649.695993 253.614545 
L 658.036364 256.948722 
L 660.014453 258.007273 
L 667.054545 261.958471 
L 667.683381 262.4 
L 673.549016 266.792727 
L 676.072727 268.798245 
L 678.578013 271.185455 
L 682.8594 275.578182 
L 685.090909 278.069486 
L 686.561818 279.970909 
L 689.608652 284.363636 
L 692.328117 288.756364 
L 694.109091 292.087674 
L 694.61254 293.149091 
L 696.310996 297.541818 
L 697.63522 301.934545 
L 698.555761 306.327273 
L 699.03999 310.72 
L 699.051668 315.112727 
L 698.550428 319.505455 
L 697.49117 323.898182 
L 695.823346 328.290909 
L 694.109091 331.544364 
L 693.358337 332.683636 
L 689.612726 337.076364 
L 685.090909 341.233649 
L 684.733041 341.469091 
L 676.6014 345.861818 
L 676.072727 346.101709 
L 667.054545 348.466037 
L 658.036364 349.1148 
L 649.018182 348.278068 
L 640 346.184517 
" style="fill:none;stroke:#7e03ff;stroke-width:1.5;"/>
   </g>
   <g id="LineCollection_9">
    <path clip-path="url(#p44bd71a26c)" d="M 649.018182 351.419564 
L 643.987775 350.254545 
L 640 349.289949 
L 630.981818 346.033821 
L 630.614157 345.861818 
L 621.963636 341.634994 
L 621.677767 341.469091 
L 614.503138 337.076364 
L 612.945455 336.072201 
L 608.302677 332.683636 
L 603.927273 329.317599 
L 602.697396 328.290909 
L 597.811297 323.898182 
L 594.909091 321.097735 
L 593.33593 319.505455 
L 589.384415 315.112727 
L 585.890909 310.864265 
L 585.774142 310.72 
L 582.686492 306.327273 
L 579.998132 301.934545 
L 577.75079 297.541818 
L 576.872727 295.309569 
L 576.008229 293.149091 
L 574.816827 288.756364 
L 574.222468 284.363636 
L 574.296177 279.970909 
L 575.120709 275.578182 
L 576.793078 271.185455 
L 576.872727 271.046869 
L 579.488145 266.792727 
L 583.316603 262.4 
L 585.890909 260.142321 
L 588.659313 258.007273 
L 594.909091 254.184553 
L 596.062955 253.614545 
L 603.927273 250.395577 
L 608.054103 249.221818 
L 612.945455 248.034204 
L 621.963636 246.902913 
L 630.981818 246.894616 
L 640 247.995736 
L 645.001607 249.221818 
L 649.018182 250.250193 
L 657.825474 253.614545 
L 658.036364 253.698851 
L 666.08741 258.007273 
L 667.054545 258.55007 
L 672.537701 262.4 
L 676.072727 265.009361 
L 678.099008 266.792727 
L 682.768197 271.185455 
L 685.090909 273.532831 
L 686.845796 275.578182 
L 690.289541 279.970909 
L 693.435831 284.363636 
L 694.109091 285.432472 
L 695.972271 288.756364 
L 698.101131 293.149091 
L 699.886544 297.541818 
L 701.302172 301.934545 
L 702.31891 306.327273 
L 702.904521 310.72 
L 703.023194 315.112727 
L 702.635043 319.505455 
L 701.695503 323.898182 
L 700.154627 328.290909 
L 697.956248 332.683636 
L 695.03698 337.076364 
L 694.109091 338.201544 
L 690.683871 341.469091 
L 685.090909 345.771913 
L 684.924906 345.861818 
L 676.072727 349.878585 
L 674.577578 350.254545 
L 667.054545 351.88228 
L 658.036364 352.321542 
L 649.018182 351.419564 
" style="fill:none;stroke:#7c06ff;stroke-width:1.5;"/>
   </g>
   <g id="LineCollection_10">
    <path clip-path="url(#p44bd71a26c)" d="M 649.018182 355.860411 
L 643.801121 354.647273 
L 640 353.72731 
L 630.981818 350.552551 
L 630.319934 350.254545 
L 621.963636 346.33866 
L 621.101125 345.861818 
L 613.499809 341.469091 
L 612.945455 341.132409 
L 607.020925 337.076364 
L 603.927273 334.855074 
L 601.133019 332.683636 
L 595.782816 328.290909 
L 594.909091 327.519853 
L 590.990861 323.898182 
L 586.529226 319.505455 
L 585.890909 318.814823 
L 582.521295 315.112727 
L 578.859562 310.72 
L 576.872727 308.051832 
L 575.568512 306.327273 
L 572.690239 301.934545 
L 570.232243 297.541818 
L 568.239204 293.149091 
L 567.854545 291.974163 
L 566.745622 288.756364 
L 565.829049 284.363636 
L 565.565637 279.970909 
L 566.03769 275.578182 
L 567.341949 271.185455 
L 567.854545 270.150065 
L 569.56074 266.792727 
L 572.828771 262.4 
L 576.872727 258.419422 
L 577.323588 258.007273 
L 583.37413 253.614545 
L 585.890909 252.135107 
L 591.610597 249.221818 
L 594.909091 247.814193 
L 603.832392 244.829091 
L 603.927273 244.801779 
L 612.945455 243.003253 
L 621.963636 242.182325 
L 630.981818 242.367382 
L 640 243.559679 
L 645.180999 244.829091 
L 649.018182 245.807625 
L 658.036364 249.153407 
L 658.176151 249.221818 
L 666.789586 253.614545 
L 667.054545 253.75577 
L 673.482833 258.007273 
L 676.072727 259.799831 
L 679.240179 262.4 
L 684.321141 266.792727 
L 685.090909 267.506835 
L 688.542273 271.185455 
L 692.398599 275.578182 
L 694.109091 277.70041 
L 695.74672 279.970909 
L 698.608196 284.363636 
L 701.177323 288.756364 
L 703.127273 292.566355 
L 703.400357 293.149091 
L 705.109893 297.541818 
L 706.487212 301.934545 
L 707.509134 306.327273 
L 708.150274 310.72 
L 708.382769 315.112727 
L 708.17597 319.505455 
L 707.496084 323.898182 
L 706.305762 328.290909 
L 704.563616 332.683636 
L 703.127273 335.408478 
L 702.081942 337.076364 
L 698.603887 341.469091 
L 694.267533 345.861818 
L 694.109091 345.998017 
L 687.695374 350.254545 
L 685.090909 351.717105 
L 677.390719 354.647273 
L 676.072727 355.081939 
L 667.054545 356.66169 
L 658.036364 356.870016 
L 649.018182 355.860411 
" style="fill:none;stroke:#7a09ff;stroke-width:1.5;"/>
   </g>
   <g id="LineCollection_11">
    <path clip-path="url(#p44bd71a26c)" d="M 640 359.891076 
L 637.464421 359.04 
L 630.981818 356.784967 
L 626.069902 354.647273 
L 621.963636 352.792765 
L 617.170104 350.254545 
L 612.945455 347.929829 
L 609.585193 345.861818 
L 603.927273 342.23763 
L 602.813442 341.469091 
L 596.760329 337.076364 
L 594.909091 335.662722 
L 591.174305 332.683636 
L 585.924373 328.290909 
L 585.890909 328.260769 
L 581.116685 323.898182 
L 576.872727 319.79854 
L 576.565007 319.505455 
L 572.347786 315.112727 
L 568.428591 310.72 
L 567.854545 309.999296 
L 564.795788 306.327273 
L 561.516414 301.934545 
L 558.836364 297.838556 
L 558.626451 297.541818 
L 556.072997 293.149091 
L 554.025185 288.756364 
L 552.544752 284.363636 
L 551.703914 279.970909 
L 551.587684 275.578182 
L 552.29684 271.185455 
L 553.951757 266.792727 
L 556.697413 262.4 
L 558.836364 260.001186 
L 560.593001 258.007273 
L 565.721168 253.614545 
L 567.854545 252.166847 
L 572.334736 249.221818 
L 576.872727 246.781163 
L 580.831005 244.829091 
L 585.890909 242.717639 
L 592.318765 240.436364 
L 594.909091 239.639621 
L 603.927273 237.485488 
L 612.945455 236.132404 
L 614.535836 236.043636 
L 621.963636 235.674277 
L 630.54647 236.043636 
L 630.981818 236.063078 
L 640 237.39791 
L 649.018182 239.635638 
L 651.287493 240.436364 
L 658.036364 242.904292 
L 662.118491 244.829091 
L 667.054545 247.24436 
L 670.359641 249.221818 
L 676.072727 252.774039 
L 677.223575 253.614545 
L 682.94627 258.007273 
L 685.090909 259.735995 
L 687.98764 262.4 
L 692.514285 266.792727 
L 694.109091 268.445211 
L 696.487748 271.185455 
L 700.038314 275.578182 
L 703.127273 279.692517 
L 703.319731 279.970909 
L 706.048033 284.363636 
L 708.508676 288.756364 
L 710.684203 293.149091 
L 712.145455 296.595495 
L 712.522077 297.541818 
L 713.938863 301.934545 
L 715.032221 306.327273 
L 715.781059 310.72 
L 716.162413 315.112727 
L 716.15123 319.505455 
L 715.720126 323.898182 
L 714.839111 328.290909 
L 713.475268 332.683636 
L 712.145455 335.808458 
L 711.530846 337.076364 
L 708.807762 341.469091 
L 705.393998 345.861818 
L 703.127273 348.283684 
L 700.896899 350.254545 
L 694.995114 354.647273 
L 694.109091 355.218192 
L 686.255693 359.04 
L 685.090909 359.534473 
L 676.072727 362.066353 
L 667.054545 363.248304 
L 658.036364 363.192355 
L 649.018182 362.026272 
L 640 359.891076 
" style="fill:none;stroke:#7610ff;stroke-width:1.5;"/>
   </g>
   <g id="LineCollection_12">
    <path clip-path="url(#p44bd71a26c)" d="M 640 368.271839 
L 638.623619 367.825455 
L 630.981818 365.268406 
L 626.514015 363.432727 
L 621.963636 361.501822 
L 616.959997 359.04 
L 612.945455 356.997865 
L 608.785164 354.647273 
L 603.927273 351.806225 
L 601.453835 350.254545 
L 594.909091 345.999484 
L 594.705672 345.861818 
L 588.519705 341.469091 
L 585.890909 339.52444 
L 582.625244 337.076364 
L 577.008238 332.683636 
L 576.872727 332.570947 
L 571.656687 328.290909 
L 567.854545 325.018862 
L 566.499516 323.898182 
L 561.524531 319.505455 
L 558.836364 316.975892 
L 556.716079 315.112727 
L 552.074265 310.72 
L 549.818182 308.403121 
L 547.582423 306.327273 
L 543.266843 301.934545 
L 540.8 299.151131 
L 539.160412 297.541818 
L 535.222693 293.149091 
L 531.781818 288.776931 
L 531.762264 288.756364 
L 528.383503 284.363636 
L 525.694378 279.970909 
L 523.829627 275.578182 
L 522.961535 271.185455 
L 523.313992 266.792727 
L 525.18337 262.4 
L 528.970449 258.007273 
L 531.781818 255.934023 
L 534.492889 253.614545 
L 540.8 249.76019 
L 541.592762 249.221818 
L 549.818182 244.877187 
L 549.903792 244.829091 
L 558.836364 240.723199 
L 559.451033 240.436364 
L 567.854545 237.118166 
L 570.681164 236.043636 
L 576.872727 234.003761 
L 584.802642 231.650909 
L 585.890909 231.366001 
L 594.909091 229.353125 
L 603.927273 227.886375 
L 610.723517 227.258182 
L 612.945455 227.073004 
L 621.963636 226.966288 
L 626.225068 227.258182 
L 630.981818 227.594686 
L 640 229.028853 
L 649.018182 231.248678 
L 650.203315 231.650909 
L 658.036364 234.393819 
L 661.764176 236.043636 
L 667.054545 238.461761 
L 670.633148 240.436364 
L 676.072727 243.539562 
L 678.013819 244.829091 
L 684.384362 249.221818 
L 685.090909 249.73135 
L 689.840387 253.614545 
L 694.109091 257.241524 
L 694.925231 258.007273 
L 699.346454 262.4 
L 703.127273 266.338512 
L 703.530763 266.792727 
L 707.163693 271.185455 
L 710.581209 275.578182 
L 712.145455 277.755112 
L 713.647334 279.970909 
L 716.36406 284.363636 
L 718.833696 288.756364 
L 721.041417 293.149091 
L 721.163636 293.43261 
L 722.865282 297.541818 
L 724.40002 301.934545 
L 725.63575 306.327273 
L 726.554186 310.72 
L 727.135519 315.112727 
L 727.358257 319.505455 
L 727.199042 323.898182 
L 726.632442 328.290909 
L 725.630714 332.683636 
L 724.16354 337.076364 
L 722.197718 341.469091 
L 721.163636 343.311096 
L 719.579094 345.861818 
L 716.246312 350.254545 
L 712.227463 354.647273 
L 712.145455 354.725017 
L 706.858735 359.04 
L 703.127273 361.660627 
L 700.0133 363.432727 
L 694.109091 366.381271 
L 690.178577 367.825455 
L 685.090909 369.490881 
L 676.072727 371.318061 
L 667.054545 372.02613 
L 658.036364 371.689722 
L 649.018182 370.401955 
L 640 368.271839 
" style="fill:none;stroke:#7019ff;stroke-width:1.5;"/>
   </g>
   <g id="LineCollection_13">
    <path clip-path="url(#p44bd71a26c)" d="M 649.018182 381.560573 
L 640 379.388696 
L 630.981818 376.541874 
L 620.263977 372.218182 
L 610.991446 367.825455 
L 602.71309 363.432727 
L 594.909091 358.920124 
L 585.890909 353.269316 
L 574.691645 345.861818 
L 562.008538 337.076364 
L 555.743006 332.683636 
L 549.505761 328.290909 
L 536.481367 319.505455 
L 531.781818 316.359477 
L 529.627384 315.112727 
L 522.337262 310.72 
L 513.745455 306.083417 
L 504.632431 301.934545 
L 495.709091 298.571615 
L 486.690909 295.940335 
L 477.672727 293.939181 
L 448.873585 288.756364 
L 441.6 287.061401 
L 432.391642 284.363636 
L 423.563636 280.778895 
L 422.00422 279.970909 
L 414.144411 275.578182 
L 408.360496 271.185455 
L 405.527273 268.853902 
L 403.516912 266.792727 
L 399.696372 262.4 
L 396.347591 258.007273 
L 394.084538 253.614545 
L 392.288022 249.221818 
L 391.008103 244.829091 
L 390.30227 240.436364 
L 390.236868 236.043636 
L 390.888878 231.650909 
L 392.34813 227.258182 
L 394.720107 222.865455 
L 396.509091 220.511773 
L 398.833059 218.472727 
L 405.676898 214.08 
L 414.545455 211.661391 
L 423.563636 211.094373 
L 432.581818 211.872969 
L 441.6 213.544497 
L 450.618182 215.936377 
L 459.636364 218.62237 
L 468.654545 221.543148 
L 477.672727 224.291605 
L 486.690909 226.632798 
L 495.709091 228.42916 
L 504.727273 229.485359 
L 513.745455 229.747219 
L 522.763636 229.285121 
L 531.781818 228.200177 
L 549.818182 224.897189 
L 567.854545 221.027133 
L 580.893471 218.472727 
L 585.890909 217.645438 
L 594.909091 216.426341 
L 603.927273 215.608167 
L 612.945455 215.281407 
L 621.963636 215.518873 
L 630.981818 216.373595 
L 640 217.877524 
L 649.018182 220.126983 
L 658.036364 223.099409 
L 667.772343 227.258182 
L 676.268502 231.650909 
L 685.090909 237.097258 
L 694.109091 243.61255 
L 695.618576 244.829091 
L 703.127273 251.209323 
L 705.68603 253.614545 
L 712.145455 260.056186 
L 714.297911 262.4 
L 718.120413 266.792727 
L 721.722985 271.185455 
L 724.973039 275.578182 
L 728.01729 279.970909 
L 730.820721 284.363636 
L 733.323483 288.756364 
L 735.589777 293.149091 
L 737.606493 297.541818 
L 739.356438 301.934545 
L 740.801429 306.327273 
L 741.956019 310.72 
L 742.803178 315.112727 
L 743.324516 319.505455 
L 743.500151 323.898182 
L 743.308545 328.290909 
L 742.726335 332.683636 
L 741.728134 337.076364 
L 740.286305 341.469091 
L 738.350501 345.861818 
L 735.867296 350.254545 
L 732.824498 354.647273 
L 729.126265 359.04 
L 724.595391 363.432727 
L 721.163636 366.313711 
L 719.141921 367.825455 
L 712.145455 372.401509 
L 703.127273 376.849915 
L 694.109091 380.027694 
L 685.090909 382.145048 
L 676.072727 383.287671 
L 667.054545 383.538894 
L 658.036364 382.942368 
L 649.018182 381.560573 
L 649.018182 381.560573 
" style="fill:none;stroke:#6629fe;stroke-width:1.5;"/>
   </g>
   <g id="LineCollection_14">
    <path clip-path="url(#p44bd71a26c)" d="M 676.072727 398.632714 
L 667.054545 398.480659 
L 658.036364 397.616777 
L 649.018182 396.088232 
L 640 393.94465 
L 630.981818 391.159048 
L 621.963636 387.824862 
L 612.945455 383.987358 
L 603.927273 379.69884 
L 594.909091 375.027815 
L 585.890909 370.056808 
L 574.353745 363.432727 
L 549.818182 349.072558 
L 540.8 344.065107 
L 531.781818 339.372473 
L 522.763636 335.0792 
L 513.745455 331.251492 
L 504.727273 327.932859 
L 495.709091 325.052985 
L 486.690909 322.616032 
L 477.672727 320.521479 
L 450.618182 314.977157 
L 441.6 312.840468 
L 432.581818 310.386838 
L 423.563636 307.353659 
L 414.545455 303.628994 
L 405.527273 299.031952 
L 403.093558 297.541818 
L 396.236258 293.149091 
L 387.490909 286.16369 
L 385.595678 284.363636 
L 381.239303 279.970909 
L 378.472727 277.008124 
L 377.300929 275.578182 
L 373.978412 271.185455 
L 370.899029 266.792727 
L 369.454545 264.519251 
L 368.257368 262.4 
L 366.053625 258.007273 
L 364.118717 253.614545 
L 362.468875 249.221818 
L 361.121659 244.829091 
L 360.136971 240.436364 
L 359.538111 236.043636 
L 359.261792 231.650909 
L 359.326912 227.258182 
L 359.753871 222.865455 
L 360.584306 218.472727 
L 361.993705 214.08 
L 363.915567 209.687273 
L 366.388623 205.294545 
L 369.455831 200.901818 
L 373.986554 196.509091 
L 378.472727 192.864852 
L 379.715614 192.116364 
L 387.490909 188.087301 
L 388.563994 187.723636 
L 396.509091 185.360773 
L 405.527273 184.021768 
L 414.545455 183.810323 
L 423.563636 184.503497 
L 432.581818 185.887277 
L 441.6 187.762358 
L 450.618182 190.089346 
L 459.636364 192.580203 
L 477.672727 197.692417 
L 486.690909 199.98115 
L 495.709091 201.94132 
L 504.727273 203.482201 
L 513.745455 204.519005 
L 522.763636 205.065871 
L 531.781818 205.163104 
L 540.8 204.8734 
L 549.818182 204.277668 
L 567.854545 202.555864 
L 585.142246 200.901818 
L 585.890909 200.839912 
L 594.909091 200.276576 
L 603.927273 200.005273 
L 612.945455 200.107147 
L 621.963636 200.649775 
L 630.981818 201.72183 
L 640 203.355143 
L 649.018182 205.565478 
L 658.036364 208.451905 
L 667.054545 212.001153 
L 676.072727 216.243256 
L 685.090909 221.202844 
L 694.109091 226.88586 
L 694.647105 227.258182 
L 703.127273 233.368369 
L 712.145455 240.60287 
L 721.696398 249.221818 
L 730.420466 258.007273 
L 734.417462 262.4 
L 739.2 267.946728 
L 741.863674 271.185455 
L 745.280962 275.578182 
L 748.508459 279.970909 
L 751.532669 284.363636 
L 754.347465 288.756364 
L 757.236364 293.705883 
L 759.333549 297.541818 
L 761.481863 301.934545 
L 763.368211 306.327273 
L 764.977318 310.72 
L 766.293921 315.112727 
L 767.33063 319.505455 
L 768.026845 323.898182 
L 768.360302 328.290909 
L 768.306753 332.683636 
L 767.839742 337.076364 
L 766.930342 341.469091 
L 765.572386 345.861818 
L 763.750498 350.254545 
L 761.405549 354.647273 
L 758.498746 359.04 
L 755.031856 363.432727 
L 750.954315 367.825455 
L 746.187255 372.218182 
L 739.2 377.655461 
L 734.207156 381.003636 
L 730.181818 383.418863 
L 726.572299 385.396364 
L 721.163636 388.077331 
L 717.210873 389.789091 
L 712.145455 391.791943 
L 703.127273 394.677236 
L 694.109091 396.731651 
L 685.090909 398.055082 
L 676.072727 398.632714 
L 676.072727 398.632714 
" style="fill:none;stroke:#583efd;stroke-width:1.5;"/>
   </g>
   <g id="LineCollection_15">
    <path clip-path="url(#p44bd71a26c)" d="M 658.036364 416.431945 
L 649.018182 414.786626 
L 640 412.622561 
L 630.981818 409.940775 
L 621.963636 406.810815 
L 612.27156 402.967273 
L 602.290093 398.574545 
L 592.993019 394.181818 
L 576.872727 386.093809 
L 566.944708 381.003636 
L 549.818182 372.360866 
L 531.781818 364.014951 
L 519.378675 359.04 
L 513.745455 356.914001 
L 504.727273 353.918745 
L 495.709091 351.25054 
L 486.690909 348.882657 
L 473.523333 345.861818 
L 459.636364 342.855967 
L 450.618182 340.895454 
L 441.6 338.7519 
L 432.581818 336.365163 
L 423.563636 333.589263 
L 414.545455 330.325835 
L 405.527273 326.4859 
L 396.509091 321.950052 
L 387.490909 316.606321 
L 379.00829 310.72 
L 378.472727 310.331634 
L 369.454545 302.905805 
L 368.404164 301.934545 
L 360.436364 294.115502 
L 359.552327 293.149091 
L 355.735445 288.756364 
L 351.418182 283.518072 
L 348.839911 279.970909 
L 345.826881 275.578182 
L 342.4 270.190756 
L 340.497798 266.792727 
L 338.232703 262.4 
L 336.161904 258.007273 
L 334.293906 253.614545 
L 332.684222 249.221818 
L 331.340986 244.829091 
L 330.216991 240.436364 
L 329.321766 236.043636 
L 328.665403 231.650909 
L 328.258594 227.258182 
L 328.112681 222.865455 
L 328.239702 218.472727 
L 328.652448 214.08 
L 329.364522 209.687273 
L 330.390405 205.294545 
L 331.745526 200.901818 
L 333.451574 196.509091 
L 335.686151 192.116364 
L 338.341283 187.723636 
L 342.4 182.134292 
L 345.311538 178.938182 
L 349.865135 174.545455 
L 351.418182 173.204562 
L 355.599882 170.152727 
L 360.436364 166.994576 
L 362.78961 165.76 
L 369.454545 162.596406 
L 372.932828 161.367273 
L 378.472727 159.579849 
L 387.490909 157.666177 
L 396.509091 156.704235 
L 405.527273 156.565296 
L 414.545455 157.111652 
L 423.563636 158.270157 
L 432.581818 159.891665 
L 441.6 161.873483 
L 456.686891 165.76 
L 477.672727 171.455815 
L 490.430625 174.545455 
L 495.709091 175.748411 
L 504.727273 177.479473 
L 514.587935 178.938182 
L 522.763636 179.884164 
L 531.781818 180.564755 
L 540.8 180.922001 
L 549.818182 181.013826 
L 558.836364 180.910877 
L 585.890909 180.256262 
L 594.909091 180.210253 
L 603.927273 180.388177 
L 612.945455 180.86237 
L 621.963636 181.694391 
L 633.088685 183.330909 
L 640 184.661873 
L 649.018182 186.881136 
L 658.036364 189.649271 
L 667.054545 192.95981 
L 676.072727 196.841582 
L 685.090909 201.307633 
L 694.109091 206.35449 
L 703.127273 211.962063 
L 712.673137 218.472727 
L 721.163636 224.78631 
L 730.181818 231.944446 
L 740.159839 240.436364 
L 749.865059 249.221818 
L 759.063146 258.007273 
L 767.821377 266.792727 
L 776.166987 275.578182 
L 780.223365 279.970909 
L 787.95523 288.756364 
L 795.165918 297.541818 
L 798.58003 301.934545 
L 804.783869 310.72 
L 807.566884 315.112727 
L 810.014203 319.505455 
L 812.162218 323.898182 
L 814.002075 328.290909 
L 815.383313 332.683636 
L 816.26053 337.076364 
L 816.582129 341.469091 
L 816.289218 345.861818 
L 815.314278 350.254545 
L 813.579524 354.647273 
L 811.030291 359.04 
L 807.862884 363.432727 
L 803.76342 367.825455 
L 802.327273 369.086933 
L 799.013395 372.218182 
L 793.309091 376.676621 
L 787.344372 381.003636 
L 784.290909 382.92338 
L 780.568671 385.396364 
L 773.157537 389.789091 
L 765.116158 394.181818 
L 756.356099 398.574545 
L 746.654441 402.967273 
L 735.560719 407.36 
L 730.181818 409.242959 
L 721.163636 412.047147 
L 712.145455 414.311435 
L 702.728423 416.145455 
L 694.109091 417.281085 
L 685.090909 417.922016 
L 676.072727 417.994165 
L 667.054545 417.493426 
L 658.036364 416.431945 
L 658.036364 416.431945 
" style="fill:none;stroke:#445cfb;stroke-width:1.5;"/>
   </g>
   <g id="LineCollection_16">
    <path clip-path="url(#p44bd71a26c)" d="M 685.090909 442.701288 
L 679.80681 442.501818 
L 676.072727 442.35853 
L 667.054545 441.543044 
L 658.036364 440.266606 
L 647.183364 438.109091 
L 640 436.363887 
L 630.763609 433.716364 
L 621.963636 430.796758 
L 612.945455 427.477423 
L 603.927273 423.8733 
L 594.909091 420.038249 
L 576.494652 411.752727 
L 557.211968 402.967273 
L 547.181889 398.574545 
L 540.8 395.850234 
L 531.781818 392.239855 
L 522.763636 388.890142 
L 512.391541 385.396364 
L 504.727273 382.992452 
L 495.709091 380.456102 
L 486.690909 378.12472 
L 468.654545 373.946932 
L 450.618182 369.928629 
L 441.6 367.802139 
L 432.581818 365.434336 
L 423.563636 362.815481 
L 412.446188 359.04 
L 405.527273 356.400454 
L 396.509091 352.484378 
L 387.490909 348.008932 
L 378.472727 342.916604 
L 369.330431 337.076364 
L 360.436364 330.633374 
L 351.418182 323.335623 
L 342.360914 315.112727 
L 333.381818 305.947434 
L 326.011635 297.541818 
L 322.4325 293.149091 
L 315.805923 284.363636 
L 312.780704 279.970909 
L 309.912072 275.578182 
L 306.327273 269.695432 
L 304.656183 266.792727 
L 302.294388 262.4 
L 300.095335 258.007273 
L 297.309091 251.811262 
L 296.218286 249.221818 
L 294.55793 244.829091 
L 293.085241 240.436364 
L 291.807493 236.043636 
L 290.732338 231.650909 
L 289.867837 227.258182 
L 289.222481 222.865455 
L 288.805226 218.472727 
L 288.625523 214.08 
L 288.693349 209.687273 
L 289.019252 205.294545 
L 289.614384 200.901818 
L 290.490554 196.509091 
L 291.660266 192.116364 
L 293.13678 187.723636 
L 294.934168 183.330909 
L 297.309091 178.50481 
L 299.574111 174.545455 
L 302.456199 170.152727 
L 306.327273 165.037666 
L 309.499178 161.367273 
L 315.345455 155.45102 
L 318.587475 152.581818 
L 324.363636 147.9561 
L 330.499873 143.796364 
L 333.381818 141.998995 
L 338.081664 139.403636 
L 342.4 137.195599 
L 351.418182 133.389417 
L 360.436364 130.451605 
L 369.454545 128.356232 
L 378.472727 126.967103 
L 387.490909 126.253514 
L 397.527375 126.225455 
L 405.527273 126.655918 
L 414.545455 127.641872 
L 423.563636 129.048054 
L 432.581818 130.795728 
L 441.6 132.857952 
L 450.618182 135.084955 
L 477.672727 142.231755 
L 486.690909 144.470999 
L 495.709091 146.550554 
L 504.727273 148.379674 
L 513.745455 149.981324 
L 522.763636 151.288059 
L 534.907871 152.581818 
L 540.8 153.099303 
L 549.818182 153.672584 
L 567.854545 154.369734 
L 585.890909 154.905873 
L 594.909091 155.288003 
L 603.927273 155.83645 
L 616.003785 156.974545 
L 621.963636 157.691691 
L 630.981818 159.116084 
L 641.889716 161.367273 
L 649.018182 163.135437 
L 658.036364 165.781624 
L 667.054545 168.917369 
L 676.072727 172.507905 
L 685.090909 176.557203 
L 694.109091 181.056162 
L 703.127273 185.982085 
L 713.466455 192.116364 
L 721.163636 196.977476 
L 733.559898 205.294545 
L 746.013484 214.08 
L 769.997924 231.650909 
L 784.290909 242.17161 
L 802.327273 254.910426 
L 820.363636 266.794637 
L 838.4 277.894316 
L 849.399171 284.363636 
L 864.017286 293.149091 
L 870.901459 297.541818 
L 877.392611 301.934545 
L 883.496113 306.327273 
L 892.509091 313.79785 
L 893.927838 315.112727 
L 898.369938 319.505455 
L 902.453949 323.898182 
L 905.930629 328.290909 
L 909.143842 332.683636 
L 910.545455 334.810995 
L 911.883202 337.076364 
L 914.170132 341.469091 
L 916.157454 345.861818 
L 917.824707 350.254545 
L 919.149528 354.647273 
L 920.035225 359.04 
L 920.5213 363.432727 
L 920.639237 367.825455 
L 920.364687 372.218182 
L 919.563636 377.033029 
L 918.349735 381.003636 
L 916.433691 385.396364 
L 913.891645 389.789091 
L 910.545455 394.321801 
L 905.868124 398.574545 
L 901.527273 401.844759 
L 899.598364 402.967273 
L 892.509091 406.489084 
L 890.1575 407.36 
L 883.490909 409.513795 
L 873.673153 411.752727 
L 865.454545 413.033375 
L 856.436364 414.129251 
L 829.381818 417.088456 
L 820.363636 418.308132 
L 811.345455 419.769709 
L 793.309091 423.325612 
L 775.272727 427.586286 
L 757.236364 432.109626 
L 748.218182 434.314011 
L 739.2 436.362869 
L 730.181818 438.24077 
L 721.163636 439.825722 
L 712.145455 441.117443 
L 703.127273 442.058194 
L 694.109091 442.597058 
L 685.090909 442.701288 
L 685.090909 442.701288 
" style="fill:none;stroke:#2489f5;stroke-width:1.5;"/>
   </g>
   <g id="LineCollection_17">
    <path clip-path="url(#p44bd71a26c)" d="M 685.090909 473.467415 
L 676.072727 472.776558 
L 667.054545 471.709399 
L 658.036364 470.272227 
L 649.018182 468.466676 
L 640 466.279833 
L 630.981818 463.764864 
L 619.468356 460.072727 
L 612.945455 457.808337 
L 603.927273 454.463146 
L 594.909091 450.938059 
L 574.373388 442.501818 
L 558.836364 436.064331 
L 540.8 428.976527 
L 529.619337 424.930909 
L 522.763636 422.559471 
L 513.745455 419.678909 
L 501.551687 416.145455 
L 495.709091 414.534872 
L 484.597329 411.752727 
L 468.654545 408.022599 
L 446.6155 402.967273 
L 441.6 401.758463 
L 429.449887 398.574545 
L 423.563636 396.910534 
L 414.545455 394.116749 
L 402.47502 389.789091 
L 396.509091 387.450919 
L 387.490909 383.521188 
L 378.472727 379.141926 
L 369.454545 374.287718 
L 360.436364 368.945556 
L 351.418182 363.10496 
L 342.4 356.735566 
L 333.381818 349.886986 
L 323.125864 341.469091 
L 313.150349 332.683636 
L 303.769328 323.898182 
L 294.884254 315.112727 
L 286.426901 306.327273 
L 278.355282 297.541818 
L 270.254545 288.288041 
L 263.258618 279.970909 
L 252.905988 266.792727 
L 243.2 253.154962 
L 240.562643 249.221818 
L 237.800558 244.829091 
L 234.181818 238.493226 
L 232.783632 236.043636 
L 230.504459 231.650909 
L 228.446442 227.258182 
L 226.620649 222.865455 
L 225.03287 218.472727 
L 223.642484 214.08 
L 222.533432 209.687273 
L 221.721571 205.294545 
L 221.223973 200.901818 
L 221.059041 196.509091 
L 221.246647 192.116364 
L 221.808275 187.723636 
L 222.767193 183.330909 
L 224.148636 178.938182 
L 225.934697 174.545455 
L 228.113931 170.152727 
L 230.770224 165.76 
L 234.181818 161.068374 
L 237.428705 156.974545 
L 241.440883 152.581818 
L 245.849584 148.189091 
L 252.218182 142.563059 
L 255.941614 139.403636 
L 261.651582 135.010909 
L 267.694038 130.618182 
L 274.200202 126.225455 
L 281.187964 121.832727 
L 288.694886 117.44 
L 297.309091 112.801739 
L 306.327273 108.397306 
L 315.840837 104.261818 
L 324.363636 101.016969 
L 333.381818 98.052993 
L 342.802452 95.476364 
L 351.418182 93.620294 
L 360.436364 92.159548 
L 369.454545 91.195167 
L 378.472727 90.737501 
L 387.490909 90.750938 
L 396.509091 91.211063 
L 405.527273 92.100028 
L 414.545455 93.360151 
L 426.200636 95.476364 
L 432.581818 96.803379 
L 445.620174 99.869091 
L 462.801671 104.261818 
L 479.851413 108.654545 
L 486.690909 110.362541 
L 498.50835 113.047273 
L 504.727273 114.38428 
L 513.745455 116.106346 
L 522.763636 117.601598 
L 531.781818 118.904146 
L 540.8 119.994126 
L 549.818182 120.90213 
L 567.854545 122.353401 
L 594.909091 124.388358 
L 603.927273 125.244373 
L 612.945455 126.279653 
L 621.963636 127.570141 
L 630.981818 129.127606 
L 640 130.990681 
L 649.018182 133.215289 
L 658.036364 135.789044 
L 668.857439 139.403636 
L 676.072727 142.082614 
L 685.090909 145.788056 
L 694.109091 149.848152 
L 703.127273 154.240658 
L 712.145455 158.932997 
L 724.473654 165.76 
L 739.2 174.355896 
L 748.218182 179.789951 
L 775.973242 196.509091 
L 791.218323 205.294545 
L 793.309091 206.496464 
L 807.46935 214.08 
L 811.345455 216.123349 
L 829.381818 224.911087 
L 847.418182 233.045415 
L 865.454545 240.962983 
L 874.472727 245.037763 
L 883.490909 249.316845 
L 892.509091 253.904544 
L 901.527273 258.908811 
L 910.545455 264.437973 
L 919.563636 270.597415 
L 926.051771 275.578182 
L 928.581818 277.578284 
L 936.344964 284.363636 
L 937.6 285.509182 
L 945.196918 293.149091 
L 946.618182 294.652885 
L 952.865791 301.934545 
L 956.385417 306.327273 
L 962.606069 315.112727 
L 965.448338 319.505455 
L 968.010207 323.898182 
L 970.427111 328.290909 
L 973.672727 334.731591 
L 974.736334 337.076364 
L 976.565692 341.469091 
L 978.236672 345.861818 
L 979.743983 350.254545 
L 981.082093 354.647273 
L 982.690909 361.045965 
L 983.198295 363.432727 
L 983.949238 367.825455 
L 984.515941 372.218182 
L 984.892176 376.610909 
L 985.07143 381.003636 
L 985.046892 385.396364 
L 984.81143 389.789091 
L 984.357579 394.181818 
L 983.677514 398.574545 
L 982.690909 403.244127 
L 981.535374 407.36 
L 980.032582 411.752727 
L 978.248408 416.145455 
L 976.171412 420.538182 
L 973.672727 425.123493 
L 970.866921 429.323636 
L 967.567084 433.716364 
L 963.798596 438.109091 
L 959.256488 442.501818 
L 955.636364 445.679998 
L 954.035283 446.894545 
L 946.618182 451.990955 
L 937.6 456.732017 
L 928.581818 460.290211 
L 919.563636 462.845403 
L 910.545455 464.644056 
L 901.527273 465.75614 
L 892.509091 466.355156 
L 883.490909 466.546525 
L 874.472727 466.435532 
L 856.436364 465.707753 
L 838.4 464.894223 
L 829.381818 464.633257 
L 820.363636 464.536514 
L 811.345455 464.634907 
L 802.327273 464.94346 
L 793.309091 465.461644 
L 784.290909 466.174256 
L 775.272727 467.052808 
L 757.236364 469.130086 
L 739.2 471.230643 
L 730.181818 472.164736 
L 721.163636 472.942303 
L 712.145455 473.500687 
L 703.127273 473.796061 
L 694.109091 473.795741 
L 685.090909 473.467415 
L 685.090909 473.467415 
" style="fill:none;stroke:#0fc4e7;stroke-width:1.5;"/>
   </g>
   <g id="LineCollection_18">
    <path clip-path="url(#p44bd71a26c)" d="M 641.046538 504 
L 640 503.74554 
L 630.981818 501.275223 
L 625.420467 499.607273 
L 621.963636 498.559298 
L 612.945455 495.619749 
L 611.770854 495.214545 
L 603.927273 492.479485 
L 599.345511 490.821818 
L 594.909091 489.199194 
L 587.49743 486.429091 
L 585.890909 485.82202 
L 576.872727 482.386223 
L 575.949929 482.036364 
L 567.854545 478.933257 
L 564.422177 477.643636 
L 558.836364 475.521466 
L 552.66212 473.250909 
L 549.818182 472.193243 
L 540.8 468.983446 
L 540.429805 468.858182 
L 531.781818 465.898868 
L 527.318861 464.465455 
L 522.763636 462.985686 
L 513.745455 460.253627 
L 513.106629 460.072727 
L 504.727273 457.672782 
L 497.232946 455.68 
L 495.709091 455.270114 
L 486.690909 452.989623 
L 479.559529 451.287273 
L 477.672727 450.831662 
L 468.654545 448.728316 
L 460.619134 446.894545 
L 459.636364 446.667674 
L 450.618182 444.564523 
L 441.979721 442.501818 
L 441.6 442.4101 
L 432.581818 440.109695 
L 425.210691 438.109091 
L 423.563636 437.656894 
L 414.545455 434.973645 
L 410.659368 433.716364 
L 405.527273 432.03676 
L 397.917144 429.323636 
L 396.509091 428.815773 
L 387.490909 425.26894 
L 386.699732 424.930909 
L 378.472727 421.374806 
L 376.67861 420.538182 
L 369.454545 417.129622 
L 367.507701 416.145455 
L 360.436364 412.527946 
L 359.010588 411.752727 
L 351.418182 407.574566 
L 351.048107 407.36 
L 343.575505 402.967273 
L 342.4 402.26721 
L 336.463004 398.574545 
L 333.381818 396.633711 
L 329.619038 394.181818 
L 324.363636 390.71312 
L 322.997273 389.789091 
L 316.597187 385.396364 
L 315.345455 384.523952 
L 310.369407 381.003636 
L 306.327273 378.105113 
L 304.255014 376.610909 
L 298.254469 372.218182 
L 297.309091 371.514041 
L 292.338871 367.825455 
L 288.290909 364.778085 
L 286.481558 363.432727 
L 280.672039 359.04 
L 279.272727 357.962842 
L 274.87523 354.647273 
L 270.254545 351.110239 
L 269.104656 350.254545 
L 263.31254 345.861818 
L 261.236364 344.258846 
L 257.493888 341.469091 
L 252.218182 337.472474 
L 251.673717 337.076364 
L 245.761857 332.683636 
L 243.2 330.74558 
L 239.807043 328.290909 
L 234.181818 324.150503 
L 233.822711 323.898182 
L 227.710352 319.505455 
L 225.163636 317.640304 
L 221.548413 315.112727 
L 216.145455 311.264651 
L 215.347049 310.72 
L 209.053812 306.327273 
L 207.127273 304.953548 
L 202.732437 301.934545 
L 198.109091 298.694408 
L 196.417836 297.541818 
L 190.117197 293.149091 
L 189.090909 292.415303 
L 183.889686 288.756364 
L 180.072727 286.012208 
L 177.774532 284.363636 
L 171.796499 279.970909 
L 171.054545 279.409616 
L 166.054028 275.578182 
L 162.036364 272.42564 
L 160.49838 271.185455 
L 155.21408 266.792727 
L 153.018182 264.911825 
L 150.202837 262.4 
L 145.427433 258.007273 
L 144 256.645693 
" style="fill:none;stroke:#5af8c8;stroke-width:1.5;"/>
    <path clip-path="url(#p44bd71a26c)" d="M 1036.8 455.629867 
L 1036.766527 455.68 
L 1033.572604 460.072727 
L 1030.071387 464.465455 
L 1027.781818 467.111456 
L 1026.247548 468.858182 
L 1022.08601 473.250909 
L 1018.763636 476.500082 
L 1017.560846 477.643636 
L 1012.618792 482.036364 
L 1009.745455 484.422015 
L 1007.220699 486.429091 
L 1001.322263 490.821818 
L 1000.727273 491.240073 
L 994.717025 495.214545 
L 991.709091 497.08777 
L 987.323768 499.607273 
L 982.690909 502.122476 
L 978.856149 504 
" style="fill:none;stroke:#5af8c8;stroke-width:1.5;"/>
    <path clip-path="url(#p44bd71a26c)" d="M 144 99.027091 
L 152.182089 95.476364 
L 153.018182 95.141087 
L 162.036364 92.036308 
L 165.223544 91.083636 
L 171.054545 89.460908 
L 180.072727 87.226332 
L 182.384794 86.690909 
L 189.090909 85.236005 
L 198.109091 83.340834 
L 203.001664 82.298182 
L 207.127273 81.470193 
L 216.145455 79.56771 
L 223.540862 77.905455 
L 225.163636 77.560422 
L 234.181818 75.47174 
L 242.048033 73.512727 
L 243.2 73.240305 
L 252.218182 70.931858 
L 258.906495 69.12 
" style="fill:none;stroke:#5af8c8;stroke-width:1.5;"/>
    <path clip-path="url(#p44bd71a26c)" d="M 484.730563 69.12 
L 486.690909 69.607028 
L 495.709091 71.734116 
L 503.852621 73.512727 
L 504.727273 73.705967 
L 513.745455 75.538675 
L 522.763636 77.184547 
L 527.181915 77.905455 
L 531.781818 78.664574 
L 540.8 79.987547 
L 549.818182 81.159937 
L 558.836364 82.212673 
L 559.623139 82.298182 
L 567.854545 83.202785 
L 576.872727 84.152955 
L 585.890909 85.106984 
L 594.909091 86.1115 
L 599.632519 86.690909 
L 603.927273 87.223491 
L 612.945455 88.489561 
L 621.963636 89.935784 
L 628.18257 91.083636 
L 630.981818 91.60589 
L 640 93.543484 
L 647.923332 95.476364 
L 649.018182 95.746337 
L 658.036364 98.263757 
L 663.204884 99.869091 
L 667.054545 101.077716 
L 676.072727 104.191389 
L 676.259886 104.261818 
L 685.090909 107.620938 
L 687.624213 108.654545 
L 694.109091 111.329342 
L 698.038882 113.047273 
L 703.127273 115.29627 
L 707.758641 117.44 
L 712.145455 119.49322 
L 716.975123 121.832727 
L 721.163636 123.884583 
L 725.834544 126.225455 
L 730.181818 128.429032 
L 734.451336 130.618182 
L 739.2 133.081156 
L 742.918567 135.010909 
L 748.218182 137.793314 
L 751.315994 139.403636 
L 757.236364 142.517618 
L 759.716365 143.796364 
L 766.254545 147.207974 
L 768.19036 148.189091 
L 775.272727 151.822113 
L 776.810226 152.581818 
L 784.290909 156.323508 
L 785.651831 156.974545 
L 793.309091 160.683125 
L 794.794302 161.367273 
L 802.327273 164.88091 
L 804.315942 165.76 
L 811.345455 168.906976 
L 814.28472 170.152727 
L 820.363636 172.762404 
L 824.742045 174.545455 
L 829.381818 176.459642 
L 835.680512 178.938182 
L 838.4 180.022475 
L 847.020605 183.330909 
L 847.418182 183.48554 
L 856.436364 186.915407 
L 858.581436 187.723636 
L 865.454545 190.348077 
L 870.054317 192.116364 
L 874.472727 193.838039 
L 881.168092 196.509091 
L 883.490909 197.448538 
L 891.703359 200.901818 
L 892.509091 201.245361 
L 901.527273 205.294507 
L 901.527353 205.294545 
L 910.545455 209.66057 
L 910.597074 209.687273 
L 918.962023 214.08 
L 919.563636 214.400567 
L 926.690504 218.472727 
L 928.581818 219.569399 
L 933.884023 222.865455 
L 937.6 225.210186 
L 940.635395 227.258182 
L 946.618182 231.356425 
L 947.022024 231.650909 
L 952.926405 236.043636 
L 955.636364 238.093488 
L 958.561393 240.436364 
L 963.951026 244.829091 
L 964.654545 245.415245 
L 968.997172 249.221818 
L 973.672727 253.390282 
L 973.91368 253.614545 
L 978.515273 258.007273 
L 982.690909 262.067118 
L 983.021459 262.4 
L 987.266098 266.792727 
L 991.426057 271.185455 
L 991.709091 271.493246 
L 995.364949 275.578182 
L 999.205282 279.970909 
L 1000.727273 281.763332 
L 1002.894682 284.363636 
L 1006.45087 288.756364 
L 1009.745455 292.939379 
L 1009.908999 293.149091 
L 1013.210297 297.541818 
L 1016.412298 301.934545 
L 1018.763636 305.273314 
L 1019.504917 306.327273 
L 1022.470167 310.72 
L 1025.328569 315.112727 
L 1027.781818 319.037018 
L 1028.076785 319.505455 
L 1030.708486 323.898182 
L 1033.224574 328.290909 
L 1035.621883 332.683636 
L 1036.8 334.968243 
" style="fill:none;stroke:#5af8c8;stroke-width:1.5;"/>
   </g>
   <g id="LineCollection_19">
    <path clip-path="url(#p44bd71a26c)" d="M 493.439208 504 
L 486.690909 502.303357 
L 477.672727 500.137004 
L 475.405374 499.607273 
L 468.654545 498.015646 
L 459.636364 495.923334 
L 456.5994 495.214545 
L 450.618182 493.805857 
L 441.6 491.636406 
L 438.349086 490.821818 
L 432.581818 489.363506 
L 423.563636 486.961494 
L 421.692599 486.429091 
L 414.545455 484.376799 
L 406.933389 482.036364 
L 405.527273 481.600049 
L 396.509091 478.582844 
L 393.90115 477.643636 
L 387.490909 475.313814 
L 382.201437 473.250909 
L 378.472727 471.783177 
L 371.520471 468.858182 
L 369.454545 467.980832 
L 361.66688 464.465455 
L 360.436364 463.904731 
L 352.471656 460.072727 
L 351.418182 459.561026 
L 343.793413 455.68 
L 342.4 454.963897 
L 335.517825 451.287273 
L 333.381818 450.135034 
L 327.55433 446.894545 
L 324.363636 445.102818 
L 319.83189 442.501818 
L 315.345455 439.901203 
L 312.294725 438.109091 
L 306.327273 434.568355 
L 304.898418 433.716364 
L 297.607979 429.323636 
L 297.309091 429.141385 
L 290.381717 424.930909 
L 288.290909 423.646804 
L 283.173245 420.538182 
L 279.272727 418.143819 
L 275.957216 416.145455 
L 270.254545 412.671511 
L 268.708396 411.752727 
L 261.39668 407.36 
L 261.236364 407.262439 
L 253.958295 402.967273 
L 252.218182 401.928867 
L 246.395833 398.574545 
L 243.2 396.712585 
L 238.687047 394.181818 
L 234.181818 391.626509 
L 230.811856 389.789091 
L 225.163636 386.673887 
L 222.755952 385.396364 
L 216.145455 381.847792 
L 214.515841 381.003636 
L 207.127273 377.130992 
L 206.104566 376.610909 
L 198.109091 372.496229 
L 197.556502 372.218182 
L 189.090909 367.906897 
L 188.928926 367.825455 
L 180.300638 363.432727 
L 180.072727 363.31521 
L 171.766642 359.04 
L 171.054545 358.668809 
L 163.416542 354.647273 
L 162.036364 353.911209 
L 155.326035 350.254545 
L 153.018182 348.980486 
L 147.546732 345.861818 
L 144 343.813443 
" style="fill:none;stroke:#cee184;stroke-width:1.5;"/>
    <path clip-path="url(#p44bd71a26c)" d="M 707.261062 69.12 
L 712.145455 71.189754 
L 717.462637 73.512727 
L 721.163636 75.144254 
L 727.301403 77.905455 
L 730.181818 79.213103 
L 736.908175 82.298182 
L 739.2 83.359027 
L 746.3946 86.690909 
L 748.218182 87.543282 
L 755.860028 91.083636 
L 757.236364 91.727259 
L 765.396883 95.476364 
L 766.254545 95.874126 
L 775.094474 99.869091 
L 775.272727 99.950419 
L 784.290909 103.933877 
L 785.062612 104.261818 
L 793.309091 107.799761 
L 795.389962 108.654545 
L 802.327273 111.5318 
L 806.154029 113.047273 
L 811.345455 115.12324 
L 817.416338 117.44 
L 820.363636 118.575824 
L 829.201128 121.832727 
L 829.381818 121.89998 
L 838.4 125.136538 
L 841.530329 126.225455 
L 847.418182 128.293983 
L 854.173582 130.618182 
L 856.436364 131.404517 
L 865.454545 134.517565 
L 866.872273 135.010909 
L 874.472727 137.682314 
L 879.276387 139.403636 
L 883.490909 140.929181 
L 891.16154 143.796364 
L 892.509091 144.305227 
L 901.527273 147.863635 
L 902.31015 148.189091 
L 910.545455 151.647773 
L 912.647739 152.581818 
L 919.563636 155.686393 
L 922.268368 156.974545 
L 928.581818 160.012868 
L 931.233433 161.367273 
L 937.6 164.653631 
L 939.622779 165.76 
L 946.618182 169.627091 
L 947.518602 170.152727 
L 954.956835 174.545455 
L 955.636364 174.951634 
L 961.979203 178.938182 
L 964.654545 180.638453 
L 968.707146 183.330909 
L 973.672727 186.667206 
L 975.18669 187.723636 
L 981.400568 192.116364 
L 982.690909 193.040994 
L 987.382866 196.509091 
L 991.709091 199.744698 
L 993.220142 200.901818 
L 998.874653 205.294545 
L 1000.727273 206.754378 
L 1004.389584 209.687273 
L 1009.745455 214.029706 
L 1009.806957 214.08 
L 1015.08466 218.472727 
L 1018.763636 221.574585 
L 1020.292956 222.865455 
L 1025.412317 227.258182 
L 1027.781818 229.323279 
L 1030.469017 231.650909 
L 1035.462157 236.043636 
L 1036.8 237.241974 
" style="fill:none;stroke:#cee184;stroke-width:1.5;"/>
   </g>
   <g id="LineCollection_20">
    <path clip-path="url(#p44bd71a26c)" d="M 314.451694 504 
L 306.327273 499.837793 
L 305.879281 499.607273 
L 297.409126 495.214545 
L 297.309091 495.162236 
L 288.984837 490.821818 
L 288.290909 490.457108 
L 280.551363 486.429091 
L 279.272727 485.758285 
L 272.062242 482.036364 
L 270.254545 481.095708 
L 263.473165 477.643636 
L 261.236364 476.495695 
L 254.741735 473.250909 
L 252.218182 471.979738 
L 245.828395 468.858182 
L 243.2 467.563495 
L 236.698817 464.465455 
L 234.181818 463.25598 
L 227.327976 460.072727 
L 225.163636 459.059021 
L 217.705842 455.68 
L 216.145455 454.966994 
L 207.844012 451.287273 
L 207.127273 450.966842 
L 198.109091 447.035959 
L 197.778722 446.894545 
L 189.090909 443.143831 
L 187.587806 442.501818 
L 180.072727 439.26415 
L 177.387736 438.109091 
L 171.054545 435.360816 
L 167.296215 433.716364 
L 162.036364 431.394647 
L 157.427338 429.323636 
L 153.018182 427.324824 
L 147.875819 424.930909 
L 144 423.110424 
" style="fill:none;stroke:#ff0000;stroke-width:1.5;"/>
    <path clip-path="url(#p44bd71a26c)" d="M 863.742221 69.12 
L 865.454545 69.674324 
L 874.472727 72.614266 
L 877.181024 73.512727 
L 883.490909 75.622283 
L 890.139998 77.905455 
L 892.509091 78.725337 
L 901.527273 81.963337 
L 902.418947 82.298182 
L 910.545455 85.373808 
L 913.862552 86.690909 
L 919.563636 88.972501 
L 924.577368 91.083636 
L 928.581818 92.783229 
L 934.608027 95.476364 
L 937.6 96.824227 
L 944.025867 99.869091 
L 946.618182 101.107392 
L 952.912885 104.261818 
L 955.636364 105.63776 
L 961.350517 108.654545 
L 964.654545 110.413263 
L 969.413011 113.047273 
L 973.672727 115.424771 
L 977.164341 117.44 
L 982.690909 120.65642 
L 984.657493 121.832727 
L 991.709091 126.086219 
L 991.935147 126.225455 
L 998.995203 130.618182 
L 1000.727273 131.70543 
L 1005.918176 135.010909 
L 1009.745455 137.46934 
L 1012.733928 139.403636 
L 1018.763636 143.340763 
L 1019.460695 143.796364 
L 1026.111295 148.189091 
L 1027.781818 149.30323 
L 1032.724365 152.581818 
L 1036.8 155.310039 
" style="fill:none;stroke:#ff0000;stroke-width:1.5;"/>
   </g>
   <g id="patch_3">
    <path d="M 144 504 
L 144 69.12 
" style="fill:none;stroke:#000000;stroke-linecap:square;stroke-linejoin:miter;stroke-width:0.8;"/>
   </g>
   <g id="patch_4">
    <path d="M 1036.8 504 
L 1036.8 69.12 
" style="fill:none;stroke:#000000;stroke-linecap:square;stroke-linejoin:miter;stroke-width:0.8;"/>
   </g>
   <g id="patch_5">
    <path d="M 144 504 
L 1036.8 504 
" style="fill:none;stroke:#000000;stroke-linecap:square;stroke-linejoin:miter;stroke-width:0.8;"/>
   </g>
   <g id="patch_6">
    <path d="M 144 69.12 
L 1036.8 69.12 
" style="fill:none;stroke:#000000;stroke-linecap:square;stroke-linejoin:miter;stroke-width:0.8;"/>
   </g>
  </g>
 </g>
 <defs>
  <clipPath id="p44bd71a26c">
   <rect height="434.88" width="892.8" x="144" y="69.12"/>
  </clipPath>
 </defs>
</svg>
