<?xml version="1.0" encoding="utf-8" standalone="no"?>
<!DOCTYPE svg PUBLIC "-//W3C//DTD SVG 1.1//EN"
  "http://www.w3.org/Graphics/SVG/1.1/DTD/svg11.dtd">
<!-- Created with matplotlib (http://matplotlib.org/) -->
<svg height="360pt" version="1.1" viewBox="0 0 1080 360" width="1080pt" xmlns="http://www.w3.org/2000/svg" xmlns:xlink="http://www.w3.org/1999/xlink">
 <defs>
  <style type="text/css">
*{stroke-linecap:butt;stroke-linejoin:round;}
  </style>
 </defs>
 <g id="figure_1">
  <g id="patch_1">
   <path d="M 0 360 
L 1080 360 
L 1080 0 
L 0 0 
z
" style="fill:#ffffff;"/>
  </g>
  <g id="axes_1">
   <g id="patch_2">
    <path d="M 135 315 
L 972 315 
L 972 43.2 
L 135 43.2 
z
" style="fill:#ffffff;"/>
   </g>
   <g id="PathCollection_1">
    <defs>
     <path d="M 0 11.18034 
C 2.965061 11.18034 5.80908 10.002309 7.905694 7.905694 
C 10.002309 5.80908 11.18034 2.965061 11.18034 0 
C 11.18034 -2.965061 10.002309 -5.80908 7.905694 -7.905694 
C 5.80908 -10.002309 2.965061 -11.18034 0 -11.18034 
C -2.965061 -11.18034 -5.80908 -10.002309 -7.905694 -7.905694 
C -10.002309 -5.80908 -11.18034 -2.965061 -11.18034 0 
C -11.18034 2.965061 -10.002309 5.80908 -7.905694 7.905694 
C -5.80908 10.002309 -2.965061 11.18034 0 11.18034 
z
" id="m4057bf049c" style="stroke:#ff0000;"/>
    </defs>
    <g clip-path="url(#pc0ea805e35)">
     <use style="fill:#ff0000;stroke:#ff0000;" x="762.749994" xlink:href="#m4057bf049c" y="215.340004"/>
    </g>
   </g>
   <g id="patch_3">
    <path clip-path="url(#pc0ea805e35)" d="M 778.693574 216.444511 
L 756.372561 219.654485 
L 762.743616 215.344319 
L 239.618623 179.104314 
L 239.631377 179.095686 
L 762.756371 215.33569 
L 769.127426 211.025523 
z
" style="stroke:#000000;stroke-linejoin:miter;stroke-width:2;"/>
   </g>
   <g id="matplotlib.axis_1">
    <g id="xtick_1">
     <g id="line2d_1">
      <defs>
       <path d="M 0 0 
L 0 3.5 
" id="ma3139e2137" style="stroke:#000000;stroke-width:0.8;"/>
      </defs>
      <g>
       <use style="stroke:#000000;stroke-width:0.8;" x="135" xlink:href="#ma3139e2137" y="315"/>
      </g>
     </g>
     <g id="text_1">
      <!-- −10.0 -->
      <defs>
       <path d="M 10.59375 35.5 
L 73.1875 35.5 
L 73.1875 27.203125 
L 10.59375 27.203125 
z
" id="DejaVuSans-2212"/>
       <path d="M 12.40625 8.296875 
L 28.515625 8.296875 
L 28.515625 63.921875 
L 10.984375 60.40625 
L 10.984375 69.390625 
L 28.421875 72.90625 
L 38.28125 72.90625 
L 38.28125 8.296875 
L 54.390625 8.296875 
L 54.390625 0 
L 12.40625 0 
z
" id="DejaVuSans-31"/>
       <path d="M 31.78125 66.40625 
Q 24.171875 66.40625 20.328125 58.90625 
Q 16.5 51.421875 16.5 36.375 
Q 16.5 21.390625 20.328125 13.890625 
Q 24.171875 6.390625 31.78125 6.390625 
Q 39.453125 6.390625 43.28125 13.890625 
Q 47.125 21.390625 47.125 36.375 
Q 47.125 51.421875 43.28125 58.90625 
Q 39.453125 66.40625 31.78125 66.40625 
z
M 31.78125 74.21875 
Q 44.046875 74.21875 50.515625 64.515625 
Q 56.984375 54.828125 56.984375 36.375 
Q 56.984375 17.96875 50.515625 8.265625 
Q 44.046875 -1.421875 31.78125 -1.421875 
Q 19.53125 -1.421875 13.0625 8.265625 
Q 6.59375 17.96875 6.59375 36.375 
Q 6.59375 54.828125 13.0625 64.515625 
Q 19.53125 74.21875 31.78125 74.21875 
z
" id="DejaVuSans-30"/>
       <path d="M 10.6875 12.40625 
L 21 12.40625 
L 21 0 
L 10.6875 0 
z
" id="DejaVuSans-2e"/>
      </defs>
      <g transform="translate(119.677344 329.598437)scale(0.1 -0.1)">
       <use xlink:href="#DejaVuSans-2212"/>
       <use x="83.789062" xlink:href="#DejaVuSans-31"/>
       <use x="147.412109" xlink:href="#DejaVuSans-30"/>
       <use x="211.035156" xlink:href="#DejaVuSans-2e"/>
       <use x="242.822266" xlink:href="#DejaVuSans-30"/>
      </g>
     </g>
    </g>
    <g id="xtick_2">
     <g id="line2d_2">
      <g>
       <use style="stroke:#000000;stroke-width:0.8;" x="239.625" xlink:href="#ma3139e2137" y="315"/>
      </g>
     </g>
     <g id="text_2">
      <!-- −7.5 -->
      <defs>
       <path d="M 8.203125 72.90625 
L 55.078125 72.90625 
L 55.078125 68.703125 
L 28.609375 0 
L 18.3125 0 
L 43.21875 64.59375 
L 8.203125 64.59375 
z
" id="DejaVuSans-37"/>
       <path d="M 10.796875 72.90625 
L 49.515625 72.90625 
L 49.515625 64.59375 
L 19.828125 64.59375 
L 19.828125 46.734375 
Q 21.96875 47.46875 24.109375 47.828125 
Q 26.265625 48.1875 28.421875 48.1875 
Q 40.625 48.1875 47.75 41.5 
Q 54.890625 34.8125 54.890625 23.390625 
Q 54.890625 11.625 47.5625 5.09375 
Q 40.234375 -1.421875 26.90625 -1.421875 
Q 22.3125 -1.421875 17.546875 -0.640625 
Q 12.796875 0.140625 7.71875 1.703125 
L 7.71875 11.625 
Q 12.109375 9.234375 16.796875 8.0625 
Q 21.484375 6.890625 26.703125 6.890625 
Q 35.15625 6.890625 40.078125 11.328125 
Q 45.015625 15.765625 45.015625 23.390625 
Q 45.015625 31 40.078125 35.4375 
Q 35.15625 39.890625 26.703125 39.890625 
Q 22.75 39.890625 18.8125 39.015625 
Q 14.890625 38.140625 10.796875 36.28125 
z
" id="DejaVuSans-35"/>
      </defs>
      <g transform="translate(227.483594 329.598437)scale(0.1 -0.1)">
       <use xlink:href="#DejaVuSans-2212"/>
       <use x="83.789062" xlink:href="#DejaVuSans-37"/>
       <use x="147.412109" xlink:href="#DejaVuSans-2e"/>
       <use x="179.199219" xlink:href="#DejaVuSans-35"/>
      </g>
     </g>
    </g>
    <g id="xtick_3">
     <g id="line2d_3">
      <g>
       <use style="stroke:#000000;stroke-width:0.8;" x="344.25" xlink:href="#ma3139e2137" y="315"/>
      </g>
     </g>
     <g id="text_3">
      <!-- −5.0 -->
      <g transform="translate(332.108594 329.598437)scale(0.1 -0.1)">
       <use xlink:href="#DejaVuSans-2212"/>
       <use x="83.789062" xlink:href="#DejaVuSans-35"/>
       <use x="147.412109" xlink:href="#DejaVuSans-2e"/>
       <use x="179.199219" xlink:href="#DejaVuSans-30"/>
      </g>
     </g>
    </g>
    <g id="xtick_4">
     <g id="line2d_4">
      <g>
       <use style="stroke:#000000;stroke-width:0.8;" x="448.875" xlink:href="#ma3139e2137" y="315"/>
      </g>
     </g>
     <g id="text_4">
      <!-- −2.5 -->
      <defs>
       <path d="M 19.1875 8.296875 
L 53.609375 8.296875 
L 53.609375 0 
L 7.328125 0 
L 7.328125 8.296875 
Q 12.9375 14.109375 22.625 23.890625 
Q 32.328125 33.6875 34.8125 36.53125 
Q 39.546875 41.84375 41.421875 45.53125 
Q 43.3125 49.21875 43.3125 52.78125 
Q 43.3125 58.59375 39.234375 62.25 
Q 35.15625 65.921875 28.609375 65.921875 
Q 23.96875 65.921875 18.8125 64.3125 
Q 13.671875 62.703125 7.8125 59.421875 
L 7.8125 69.390625 
Q 13.765625 71.78125 18.9375 73 
Q 24.125 74.21875 28.421875 74.21875 
Q 39.75 74.21875 46.484375 68.546875 
Q 53.21875 62.890625 53.21875 53.421875 
Q 53.21875 48.921875 51.53125 44.890625 
Q 49.859375 40.875 45.40625 35.40625 
Q 44.1875 33.984375 37.640625 27.21875 
Q 31.109375 20.453125 19.1875 8.296875 
z
" id="DejaVuSans-32"/>
      </defs>
      <g transform="translate(436.733594 329.598437)scale(0.1 -0.1)">
       <use xlink:href="#DejaVuSans-2212"/>
       <use x="83.789062" xlink:href="#DejaVuSans-32"/>
       <use x="147.412109" xlink:href="#DejaVuSans-2e"/>
       <use x="179.199219" xlink:href="#DejaVuSans-35"/>
      </g>
     </g>
    </g>
    <g id="xtick_5">
     <g id="line2d_5">
      <g>
       <use style="stroke:#000000;stroke-width:0.8;" x="553.5" xlink:href="#ma3139e2137" y="315"/>
      </g>
     </g>
     <g id="text_5">
      <!-- 0.0 -->
      <g transform="translate(545.548437 329.598437)scale(0.1 -0.1)">
       <use xlink:href="#DejaVuSans-30"/>
       <use x="63.623047" xlink:href="#DejaVuSans-2e"/>
       <use x="95.410156" xlink:href="#DejaVuSans-30"/>
      </g>
     </g>
    </g>
    <g id="xtick_6">
     <g id="line2d_6">
      <g>
       <use style="stroke:#000000;stroke-width:0.8;" x="658.125" xlink:href="#ma3139e2137" y="315"/>
      </g>
     </g>
     <g id="text_6">
      <!-- 2.5 -->
      <g transform="translate(650.173437 329.598437)scale(0.1 -0.1)">
       <use xlink:href="#DejaVuSans-32"/>
       <use x="63.623047" xlink:href="#DejaVuSans-2e"/>
       <use x="95.410156" xlink:href="#DejaVuSans-35"/>
      </g>
     </g>
    </g>
    <g id="xtick_7">
     <g id="line2d_7">
      <g>
       <use style="stroke:#000000;stroke-width:0.8;" x="762.75" xlink:href="#ma3139e2137" y="315"/>
      </g>
     </g>
     <g id="text_7">
      <!-- 5.0 -->
      <g transform="translate(754.798437 329.598437)scale(0.1 -0.1)">
       <use xlink:href="#DejaVuSans-35"/>
       <use x="63.623047" xlink:href="#DejaVuSans-2e"/>
       <use x="95.410156" xlink:href="#DejaVuSans-30"/>
      </g>
     </g>
    </g>
    <g id="xtick_8">
     <g id="line2d_8">
      <g>
       <use style="stroke:#000000;stroke-width:0.8;" x="867.375" xlink:href="#ma3139e2137" y="315"/>
      </g>
     </g>
     <g id="text_8">
      <!-- 7.5 -->
      <g transform="translate(859.423437 329.598437)scale(0.1 -0.1)">
       <use xlink:href="#DejaVuSans-37"/>
       <use x="63.623047" xlink:href="#DejaVuSans-2e"/>
       <use x="95.410156" xlink:href="#DejaVuSans-35"/>
      </g>
     </g>
    </g>
    <g id="xtick_9">
     <g id="line2d_9">
      <g>
       <use style="stroke:#000000;stroke-width:0.8;" x="972" xlink:href="#ma3139e2137" y="315"/>
      </g>
     </g>
     <g id="text_9">
      <!-- 10.0 -->
      <g transform="translate(960.867188 329.598437)scale(0.1 -0.1)">
       <use xlink:href="#DejaVuSans-31"/>
       <use x="63.623047" xlink:href="#DejaVuSans-30"/>
       <use x="127.246094" xlink:href="#DejaVuSans-2e"/>
       <use x="159.033203" xlink:href="#DejaVuSans-30"/>
      </g>
     </g>
    </g>
   </g>
   <g id="matplotlib.axis_2">
    <g id="ytick_1">
     <g id="line2d_10">
      <defs>
       <path d="M 0 0 
L -3.5 0 
" id="m6bfae7d074" style="stroke:#000000;stroke-width:0.8;"/>
      </defs>
      <g>
       <use style="stroke:#000000;stroke-width:0.8;" x="135" xlink:href="#m6bfae7d074" y="315"/>
      </g>
     </g>
     <g id="text_10">
      <!-- −10 -->
      <g transform="translate(106.895313 318.799219)scale(0.1 -0.1)">
       <use xlink:href="#DejaVuSans-2212"/>
       <use x="83.789062" xlink:href="#DejaVuSans-31"/>
       <use x="147.412109" xlink:href="#DejaVuSans-30"/>
      </g>
     </g>
    </g>
    <g id="ytick_2">
     <g id="line2d_11">
      <g>
       <use style="stroke:#000000;stroke-width:0.8;" x="135" xlink:href="#m6bfae7d074" y="269.7"/>
      </g>
     </g>
     <g id="text_11">
      <!-- −5 -->
      <g transform="translate(113.257812 273.499219)scale(0.1 -0.1)">
       <use xlink:href="#DejaVuSans-2212"/>
       <use x="83.789062" xlink:href="#DejaVuSans-35"/>
      </g>
     </g>
    </g>
    <g id="ytick_3">
     <g id="line2d_12">
      <g>
       <use style="stroke:#000000;stroke-width:0.8;" x="135" xlink:href="#m6bfae7d074" y="224.4"/>
      </g>
     </g>
     <g id="text_12">
      <!-- 0 -->
      <g transform="translate(121.6375 228.199219)scale(0.1 -0.1)">
       <use xlink:href="#DejaVuSans-30"/>
      </g>
     </g>
    </g>
    <g id="ytick_4">
     <g id="line2d_13">
      <g>
       <use style="stroke:#000000;stroke-width:0.8;" x="135" xlink:href="#m6bfae7d074" y="179.1"/>
      </g>
     </g>
     <g id="text_13">
      <!-- 5 -->
      <g transform="translate(121.6375 182.899219)scale(0.1 -0.1)">
       <use xlink:href="#DejaVuSans-35"/>
      </g>
     </g>
    </g>
    <g id="ytick_5">
     <g id="line2d_14">
      <g>
       <use style="stroke:#000000;stroke-width:0.8;" x="135" xlink:href="#m6bfae7d074" y="133.8"/>
      </g>
     </g>
     <g id="text_14">
      <!-- 10 -->
      <g transform="translate(115.275 137.599219)scale(0.1 -0.1)">
       <use xlink:href="#DejaVuSans-31"/>
       <use x="63.623047" xlink:href="#DejaVuSans-30"/>
      </g>
     </g>
    </g>
    <g id="ytick_6">
     <g id="line2d_15">
      <g>
       <use style="stroke:#000000;stroke-width:0.8;" x="135" xlink:href="#m6bfae7d074" y="88.5"/>
      </g>
     </g>
     <g id="text_15">
      <!-- 15 -->
      <g transform="translate(115.275 92.299219)scale(0.1 -0.1)">
       <use xlink:href="#DejaVuSans-31"/>
       <use x="63.623047" xlink:href="#DejaVuSans-35"/>
      </g>
     </g>
    </g>
    <g id="ytick_7">
     <g id="line2d_16">
      <g>
       <use style="stroke:#000000;stroke-width:0.8;" x="135" xlink:href="#m6bfae7d074" y="43.2"/>
      </g>
     </g>
     <g id="text_16">
      <!-- 20 -->
      <g transform="translate(115.275 46.999219)scale(0.1 -0.1)">
       <use xlink:href="#DejaVuSans-32"/>
       <use x="63.623047" xlink:href="#DejaVuSans-30"/>
      </g>
     </g>
    </g>
   </g>
   <g id="LineCollection_1"/>
   <g id="LineCollection_2">
    <path clip-path="url(#pc0ea805e35)" d="M 752.181818 230.147491 
L 746.289656 229.890909 
L 743.727273 229.75608 
L 735.272727 229.057006 
L 726.818182 228.103723 
L 720.108629 227.145455 
L 718.363636 226.830647 
L 709.909091 224.984289 
L 707.629978 224.4 
L 701.454545 222.251405 
L 699.960421 221.654545 
L 695.542239 218.909091 
L 693.578603 216.163636 
L 694.069512 213.418182 
L 697.014966 210.672727 
L 701.454545 208.415568 
L 702.557251 207.927273 
L 709.909091 205.689112 
L 711.865231 205.181818 
L 718.363636 203.897813 
L 726.818182 202.517823 
L 727.450324 202.436364 
L 735.272727 201.622204 
L 743.727273 200.976905 
L 752.181818 200.56626 
L 760.636364 200.390269 
L 769.090909 200.448933 
L 777.545455 200.742251 
L 786 201.270223 
L 794.454545 202.032849 
L 797.875382 202.436364 
L 802.909091 203.171502 
L 811.363636 204.696755 
L 813.622169 205.181818 
L 819.818182 206.928379 
L 822.87303 207.927273 
L 828.272727 210.495457 
L 828.600266 210.672727 
L 831.367208 213.418182 
L 831.828365 216.163636 
L 829.983737 218.909091 
L 828.272727 220.040906 
L 825.496854 221.654545 
L 819.818182 223.776657 
L 817.88326 224.4 
L 811.363636 225.947606 
L 805.356262 227.145455 
L 802.909091 227.531754 
L 794.454545 228.612141 
L 786 229.438319 
L 779.310065 229.890909 
L 777.545455 229.989706 
L 769.090909 230.252681 
L 760.636364 230.305276 
L 752.181818 230.147491 
" style="fill:none;stroke:#8000ff;stroke-width:1.5;"/>
   </g>
   <g id="LineCollection_3">
    <path clip-path="url(#pc0ea805e35)" d="M 718.363636 235.80231 
L 714.411397 235.381818 
L 709.909091 234.832359 
L 701.454545 233.621129 
L 695.467693 232.636364 
L 693 232.160474 
L 684.545455 230.319652 
L 682.778283 229.890909 
L 676.090909 227.930438 
L 673.662333 227.145455 
L 667.636364 224.685125 
L 666.997453 224.4 
L 662.464378 221.654545 
L 659.550258 218.909091 
L 659.181818 218.128082 
L 658.327778 216.163636 
L 658.626174 213.418182 
L 659.181818 212.566127 
L 660.521631 210.672727 
L 664.083334 207.927273 
L 667.636364 206.044368 
L 669.415398 205.181818 
L 676.090909 202.715863 
L 676.925136 202.436364 
L 684.545455 200.374234 
L 687.359178 199.690909 
L 693 198.541961 
L 701.454545 197.016709 
L 701.908025 196.945455 
L 709.909091 195.862873 
L 718.363636 194.888406 
L 725.593701 194.2 
L 726.818182 194.09763 
L 735.272727 193.539611 
L 743.727273 193.130397 
L 752.181818 192.869988 
L 760.636364 192.758384 
L 769.090909 192.795585 
L 777.545455 192.981591 
L 786 193.316403 
L 794.454545 193.80002 
L 799.801693 194.2 
L 802.909091 194.464725 
L 811.363636 195.354456 
L 819.818182 196.413659 
L 823.477481 196.945455 
L 828.272727 197.754734 
L 836.727273 199.37839 
L 838.178665 199.690909 
L 845.181818 201.488842 
L 848.512454 202.436364 
L 853.636364 204.241116 
L 856.06973 205.181818 
L 861.48064 207.927273 
L 862.090909 208.377667 
L 864.946784 210.672727 
L 866.810235 213.418182 
L 867.12081 216.163636 
L 865.878509 218.909091 
L 863.083333 221.654545 
L 862.090909 222.281184 
L 858.437003 224.4 
L 853.636364 226.451207 
L 851.85303 227.145455 
L 845.181818 229.201482 
L 842.702989 229.890909 
L 836.727273 231.26636 
L 830.053765 232.636364 
L 828.272727 232.948224 
L 819.818182 234.249174 
L 811.363636 235.370683 
L 811.263708 235.381818 
L 802.909091 236.193401 
L 794.454545 236.858254 
L 786 237.366672 
L 777.545455 237.718653 
L 769.090909 237.914199 
L 760.636364 237.953308 
L 752.181818 237.83598 
L 743.727273 237.562217 
L 735.272727 237.132018 
L 726.818182 236.545382 
L 718.363636 235.80231 
" style="fill:none;stroke:#7e03ff;stroke-width:1.5;"/>
   </g>
   <g id="LineCollection_4">
    <path clip-path="url(#pc0ea805e35)" d="M 726.818182 243.911966 
L 722.189934 243.618182 
L 718.363636 243.350519 
L 709.909091 242.634584 
L 701.454545 241.794139 
L 693.381514 240.872727 
L 693 240.824235 
L 684.545455 239.610966 
L 676.090909 238.259038 
L 675.343544 238.127273 
L 667.636364 236.594242 
L 662.05976 235.381818 
L 659.181818 234.664102 
L 651.688585 232.636364 
L 650.727273 232.331372 
L 643.594539 229.890909 
L 642.272727 229.344431 
L 637.314478 227.145455 
L 633.818182 225.186799 
L 632.50288 224.4 
L 629.121062 221.654545 
L 626.947036 218.909091 
L 625.980803 216.163636 
L 626.222361 213.418182 
L 627.671712 210.672727 
L 630.328854 207.927273 
L 633.818182 205.448631 
L 634.219254 205.181818 
L 639.635895 202.436364 
L 642.272727 201.356889 
L 646.638175 199.690909 
L 650.727273 198.382089 
L 655.567729 196.945455 
L 659.181818 196.021782 
L 666.916627 194.2 
L 667.636364 194.051153 
L 676.090909 192.451498 
L 681.900457 191.454545 
L 684.545455 191.049985 
L 693 189.889467 
L 701.454545 188.861579 
L 702.8946 188.709091 
L 709.909091 188.039143 
L 718.363636 187.351284 
L 726.818182 186.783052 
L 735.272727 186.334449 
L 743.727273 186.005473 
L 745.416833 185.963636 
L 752.181818 185.811081 
L 760.636364 185.729371 
L 769.090909 185.756607 
L 777.545455 185.892791 
L 779.988928 185.963636 
L 786 186.155007 
L 794.454545 186.543797 
L 802.909091 187.052215 
L 811.363636 187.68026 
L 819.818182 188.427933 
L 822.558946 188.709091 
L 828.272727 189.358944 
L 836.727273 190.453147 
L 843.628265 191.454545 
L 845.181818 191.707473 
L 853.636364 193.232725 
L 858.521422 194.2 
L 862.090909 195.004947 
L 869.993514 196.945455 
L 870.545455 197.102845 
L 878.93637 199.690909 
L 879 199.714309 
L 885.882462 202.436364 
L 887.454545 203.206172 
L 891.224596 205.181818 
L 895.21625 207.927273 
L 895.909091 208.620414 
L 897.834271 210.672727 
L 899.239026 213.418182 
L 899.473152 216.163636 
L 898.536649 218.909091 
L 896.429516 221.654545 
L 895.909091 222.090454 
L 892.970945 224.4 
L 888.230855 227.145455 
L 887.454545 227.501418 
L 881.877678 229.890909 
L 879 230.911309 
L 873.767931 232.636364 
L 870.545455 233.542593 
L 863.471436 235.381818 
L 862.090909 235.694734 
L 853.636364 237.454641 
L 850.089809 238.127273 
L 845.181818 238.952334 
L 836.727273 240.234933 
L 832.013509 240.872727 
L 828.272727 241.327225 
L 819.818182 242.229926 
L 811.363636 243.008116 
L 803.473177 243.618182 
L 802.909091 243.657757 
L 794.454545 244.137929 
L 786 244.505119 
L 777.545455 244.759328 
L 769.090909 244.900555 
L 760.636364 244.928801 
L 752.181818 244.844064 
L 743.727273 244.646347 
L 735.272727 244.335647 
L 726.818182 243.911966 
" style="fill:none;stroke:#7c06ff;stroke-width:1.5;"/>
   </g>
   <g id="LineCollection_5">
    <path clip-path="url(#pc0ea805e35)" d="M 752.181818 251.918888 
L 743.727273 251.757091 
L 726.818182 251.137457 
L 709.909091 250.13651 
L 697.060698 249.109091 
L 684.545455 247.819368 
L 672.687311 246.363636 
L 667.636364 245.638033 
L 655.118535 243.618182 
L 650.727273 242.793636 
L 641.311091 240.872727 
L 630.206779 238.127273 
L 621.059292 235.381818 
L 613.537898 232.636364 
L 607.382422 229.890909 
L 602.512604 227.145455 
L 598.725314 224.4 
L 596.028421 221.654545 
L 594.294704 218.909091 
L 593.524164 216.163636 
L 593.716799 213.418182 
L 594.87261 210.672727 
L 596.991597 207.927273 
L 600.077695 205.181818 
L 604.338786 202.436364 
L 609.679767 199.690909 
L 616.909091 196.737394 
L 625.363636 193.93547 
L 634.346838 191.454545 
L 646.498344 188.709091 
L 650.727273 187.886329 
L 661.572337 185.963636 
L 676.090909 183.874292 
L 684.545455 182.845351 
L 701.454545 181.195078 
L 710.60355 180.472727 
L 726.818182 179.545772 
L 743.727273 178.944915 
L 760.636364 178.713816 
L 777.545455 178.852475 
L 794.454545 179.360893 
L 811.363636 180.239068 
L 819.818182 180.84502 
L 836.727273 182.395276 
L 845.181818 183.329559 
L 862.090909 185.671911 
L 870.545455 187.108749 
L 879.075761 188.709091 
L 891.101195 191.454545 
L 900.996226 194.2 
L 909.13136 196.945455 
L 915.795893 199.690909 
L 921.272727 202.471897 
L 925.369424 205.181818 
L 928.531643 207.927273 
L 930.657353 210.672727 
L 931.784626 213.418182 
L 931.972505 216.163636 
L 931.22099 218.909091 
L 929.519837 221.654545 
L 926.752895 224.4 
L 922.997759 227.145455 
L 918.089043 229.890909 
L 911.998553 232.636364 
L 904.363636 235.425259 
L 895.342328 238.127273 
L 884.148488 240.872727 
L 879 241.95319 
L 870.461042 243.618182 
L 862.090909 244.988389 
L 852.875614 246.363636 
L 836.727273 248.284699 
L 828.272727 249.135563 
L 811.363636 250.422495 
L 794.454545 251.328113 
L 777.39458 251.854545 
L 760.636364 251.985204 
L 752.181818 251.918888 
L 752.181818 251.918888 
" style="fill:none;stroke:#780dff;stroke-width:1.5;"/>
   </g>
   <g id="LineCollection_6">
    <path clip-path="url(#pc0ea805e35)" d="M 709.909091 257.826178 
L 702.11245 257.345455 
L 701.454545 257.302149 
L 684.545455 255.941788 
L 667.636364 254.2264 
L 650.727273 252.0601 
L 642.272727 250.765395 
L 632.409232 249.109091 
L 618.587514 246.363636 
L 608.454545 243.982518 
L 607.000482 243.618182 
L 597.206902 240.872727 
L 588.866591 238.127273 
L 581.779099 235.381818 
L 574.636364 231.989391 
L 570.929468 229.890909 
L 566.181818 226.511186 
L 563.841337 224.4 
L 561.598658 221.654545 
L 560.156935 218.909091 
L 559.51617 216.163636 
L 559.676361 213.418182 
L 560.63751 210.672727 
L 562.399615 207.927273 
L 564.962677 205.181818 
L 568.420977 202.436364 
L 572.769029 199.690909 
L 578.105745 196.945455 
L 584.466153 194.2 
L 592.005751 191.454545 
L 600.913209 188.709091 
L 611.419715 185.963636 
L 623.811666 183.218182 
L 633.818182 181.335396 
L 642.272727 179.906559 
L 659.181818 177.475951 
L 676.090909 175.542532 
L 684.545455 174.722948 
L 701.454545 173.398386 
L 718.363636 172.394931 
L 726.818182 172.027367 
L 743.727273 171.53778 
L 760.636364 171.349477 
L 777.545455 171.462459 
L 794.454545 171.876725 
L 811.363636 172.615691 
L 828.272727 173.699423 
L 845.181818 175.112884 
L 862.090909 176.960373 
L 870.545455 178.034658 
L 887.454545 180.585272 
L 901.671052 183.218182 
L 912.818182 185.661338 
L 914.103615 185.963636 
L 924.555611 188.709091 
L 933.453426 191.454545 
L 941.016473 194.2 
L 947.424722 196.945455 
L 952.725437 199.690909 
L 957.081723 202.436364 
L 960.518086 205.181818 
L 963.136268 207.927273 
L 964.878915 210.672727 
L 965.820246 213.418182 
L 965.977134 216.163636 
L 965.349581 218.909091 
L 963.937584 221.654545 
L 961.663541 224.4 
L 958.55445 227.145455 
L 954.606336 229.890909 
L 949.647602 232.636364 
L 943.702035 235.381818 
L 936.647365 238.127273 
L 928.310747 240.872727 
L 918.481448 243.618182 
L 906.899871 246.363636 
L 895.909091 248.579103 
L 887.454545 250.074265 
L 876.176334 251.854545 
L 862.090909 253.717983 
L 853.636364 254.705097 
L 836.727273 256.312796 
L 819.818182 257.575188 
L 802.909091 258.463309 
L 786 259.042519 
L 769.090909 259.312817 
L 752.181818 259.274203 
L 735.272727 258.926677 
L 718.363636 258.270239 
L 709.909091 257.826178 
L 709.909091 257.826178 
" style="fill:none;stroke:#7413ff;stroke-width:1.5;"/>
   </g>
   <g id="LineCollection_7">
    <path clip-path="url(#pc0ea805e35)" d="M 972 240.653886 
L 971.449752 240.872727 
L 963.545455 243.688427 
L 954.928177 246.363636 
L 944.755172 249.109091 
L 933.055539 251.854545 
L 921.272727 254.261503 
L 912.818182 255.789016 
L 903.516483 257.345455 
L 887.454545 259.652388 
L 879 260.713483 
L 862.090909 262.565576 
L 853.636364 263.351984 
L 836.727273 264.688722 
L 819.818182 265.742245 
L 802.909091 266.488645 
L 786 266.975427 
L 769.090909 267.202593 
L 752.181818 267.170141 
L 735.272727 266.878071 
L 718.363636 266.326384 
L 701.454545 265.51133 
L 684.545455 264.380244 
L 666.181653 262.836364 
L 650.727273 261.203743 
L 641.371825 260.090909 
L 625.363636 257.856838 
L 616.909091 256.510419 
L 606.009836 254.6 
L 591.545455 251.661194 
L 580.750172 249.109091 
L 570.6147 246.363636 
L 561.777717 243.618182 
L 554.081831 240.872727 
L 547.394099 238.127273 
L 540.818182 234.937115 
L 536.765773 232.636364 
L 532.363636 229.667647 
L 529.340798 227.145455 
L 526.735884 224.4 
L 524.816474 221.654545 
L 523.593924 218.909091 
L 523.064596 216.163636 
L 523.196928 213.418182 
L 523.993869 210.672727 
L 525.501977 207.927273 
L 527.695589 205.181818 
L 530.574705 202.436364 
L 534.205705 199.690909 
L 538.614711 196.945455 
L 543.848115 194.2 
L 549.931418 191.454545 
L 557.727273 188.455273 
L 566.181818 185.645323 
L 574.636364 183.171 
L 585.221155 180.472727 
L 597.614861 177.727273 
L 608.454545 175.637313 
L 616.909091 174.169281 
L 629.297423 172.236364 
L 642.272727 170.491043 
L 650.727273 169.457443 
L 667.636364 167.719365 
L 684.545455 166.29145 
L 701.454545 165.185223 
L 718.363636 164.347172 
L 735.272727 163.788896 
L 752.181818 163.502912 
L 769.090909 163.471135 
L 786 163.693568 
L 802.909091 164.179562 
L 819.818182 164.950569 
L 836.727273 165.989752 
L 853.636364 167.329184 
L 870.545455 168.99632 
L 879 169.963795 
L 896.258581 172.236364 
L 913.453656 174.981818 
L 927.892191 177.727273 
L 938.181818 179.98541 
L 940.279236 180.472727 
L 950.995389 183.218182 
L 960.335177 185.963636 
L 968.468871 188.709091 
L 972 190.052409 
L 972 190.052409 
" style="fill:none;stroke:#7019ff;stroke-width:1.5;"/>
   </g>
   <g id="LineCollection_8">
    <path clip-path="url(#pc0ea805e35)" d="M 972 255.386004 
L 963.714042 257.345455 
L 963.545455 257.382799 
L 950.600902 260.090909 
L 938.181818 262.39212 
L 929.727273 263.805228 
L 912.818182 266.333641 
L 895.909091 268.498813 
L 879 270.316791 
L 862.090909 271.849055 
L 845.181818 273.110321 
L 828.272727 274.122312 
L 811.363636 274.877942 
L 794.454545 275.409681 
L 777.545455 275.71753 
L 760.636364 275.801489 
L 743.727273 275.661558 
L 726.818182 275.297736 
L 709.909091 274.710024 
L 691.61485 273.818182 
L 676.090909 272.817003 
L 659.181818 271.497073 
L 650.727273 270.732769 
L 633.818182 268.976417 
L 625.363636 267.988703 
L 607.289597 265.581818 
L 589.861246 262.836364 
L 574.636364 260.047164 
L 561.826907 257.345455 
L 549.272727 254.337706 
L 540.080643 251.854545 
L 531.028106 249.109091 
L 522.972899 246.363636 
L 515.454545 243.460496 
L 509.548142 240.872727 
L 504.021373 238.127273 
L 498.545455 234.95718 
L 495.101444 232.636364 
L 491.626426 229.890909 
L 488.791476 227.145455 
L 486.584259 224.4 
L 484.957888 221.654545 
L 483.912365 218.909091 
L 483.447687 216.163636 
L 483.563857 213.418182 
L 484.260873 210.672727 
L 485.538735 207.927273 
L 487.397444 205.181818 
L 490.090909 202.205568 
L 492.944536 199.690909 
L 496.659211 196.945455 
L 501.051971 194.2 
L 507 191.032308 
L 511.977935 188.709091 
L 518.605943 185.963636 
L 526.092479 183.218182 
L 534.533829 180.472727 
L 544.041233 177.727273 
L 554.743909 174.981818 
L 566.819698 172.236364 
L 583.090909 169.041594 
L 600 166.200148 
L 616.909091 163.765902 
L 633.818182 161.700456 
L 642.272727 160.787392 
L 659.181818 159.186632 
L 676.090909 157.859647 
L 693 156.794848 
L 709.909091 155.960276 
L 726.818182 155.374295 
L 743.727273 155.017029 
L 760.636364 154.879619 
L 777.545455 154.962065 
L 794.454545 155.264367 
L 811.363636 155.787606 
L 828.272727 156.564621 
L 845.181818 157.571863 
L 862.090909 158.824196 
L 879 160.36455 
L 895.909091 162.192985 
L 912.818182 164.339675 
L 929.727273 166.860128 
L 946.636364 169.823561 
L 958.648566 172.236364 
L 972 175.283985 
L 972 175.283985 
" style="fill:none;stroke:#6a22fe;stroke-width:1.5;"/>
   </g>
   <g id="LineCollection_9">
    <path clip-path="url(#pc0ea805e35)" d="M 972 268.564724 
L 963.545455 270.059163 
L 955.090909 271.47182 
L 938.181818 274.014258 
L 918.471412 276.563636 
L 904.363636 278.139895 
L 887.454545 279.803994 
L 870.545455 281.213892 
L 853.636364 282.404029 
L 836.727273 283.363462 
L 819.818182 284.126088 
L 798.538736 284.8 
L 786 285.050807 
L 769.090909 285.216338 
L 752.181818 285.192691 
L 735.272727 284.979865 
L 718.363636 284.568903 
L 701.454545 283.953882 
L 684.545455 283.142054 
L 666.482894 282.054545 
L 650.727273 280.880643 
L 632.662419 279.309091 
L 616.909091 277.684995 
L 600 275.693435 
L 583.090909 273.407717 
L 566.181818 270.783273 
L 549.272727 267.76605 
L 538.320354 265.581818 
L 523.909091 262.360853 
L 514.743206 260.090909 
L 504.717115 257.345455 
L 495.655445 254.6 
L 487.469852 251.854545 
L 480.082462 249.109091 
L 473.181818 246.251002 
L 467.512267 243.618182 
L 462.219743 240.872727 
L 456.272727 237.29082 
L 453.465341 235.381818 
L 449.945489 232.636364 
L 446.96644 229.890909 
L 444.547656 227.145455 
L 442.632785 224.4 
L 441.221828 221.654545 
L 440.314784 218.909091 
L 439.911653 216.163636 
L 440.012436 213.418182 
L 440.617132 210.672727 
L 441.725741 207.927273 
L 443.338264 205.181818 
L 445.4547 202.436364 
L 448.082039 199.690909 
L 451.291315 196.945455 
L 456.272727 193.388555 
L 459.34638 191.454545 
L 464.727273 188.463486 
L 469.811417 185.963636 
L 476.02428 183.218182 
L 482.939248 180.472727 
L 490.62266 177.727273 
L 499.149487 174.981818 
L 508.604779 172.236364 
L 519.08542 169.490909 
L 532.363636 166.379858 
L 543.690076 164 
L 558.242351 161.254545 
L 574.790654 158.509091 
L 593.941377 155.763636 
L 608.454545 153.95515 
L 625.363636 152.100239 
L 644.88406 150.272727 
L 659.181818 149.150692 
L 676.090909 148.016207 
L 693 147.101022 
L 709.909091 146.398921 
L 726.818182 145.890504 
L 743.727273 145.575769 
L 760.636364 145.454717 
L 777.545455 145.527348 
L 794.454545 145.793662 
L 811.363636 146.253659 
L 828.272727 146.907339 
L 845.181818 147.764099 
L 862.090909 148.848163 
L 880.633403 150.272727 
L 895.909091 151.67948 
L 912.818182 153.460473 
L 931.565593 155.763636 
L 946.636364 157.898813 
L 955.090909 159.212636 
L 972 162.125015 
L 972 162.125015 
" style="fill:none;stroke:#622ffe;stroke-width:1.5;"/>
   </g>
   <g id="LineCollection_10">
    <path clip-path="url(#pc0ea805e35)" d="M 972 281.654778 
L 963.545455 282.864039 
L 946.636364 285.090983 
L 925.160743 287.545455 
L 912.818182 288.779432 
L 895.909091 290.304189 
L 879 291.599007 
L 856.644342 293.036364 
L 845.181818 293.640218 
L 828.272727 294.38166 
L 811.363636 294.953629 
L 794.454545 295.356127 
L 777.545455 295.589151 
L 760.636364 295.652704 
L 743.727273 295.546783 
L 726.818182 295.27139 
L 709.909091 294.826525 
L 693 294.212187 
L 676.090909 293.428377 
L 659.181818 292.454905 
L 642.272727 291.291762 
L 625.363636 289.940445 
L 608.454545 288.369662 
L 591.545455 286.580764 
L 574.636364 284.561497 
L 556.206291 282.054545 
L 538.446942 279.309091 
L 522.643835 276.563636 
L 507 273.516214 
L 495.64227 271.072727 
L 481.636364 267.740054 
L 473.181818 265.547718 
L 463.591514 262.836364 
L 454.696259 260.090909 
L 446.552228 257.345455 
L 439.101261 254.6 
L 430.909091 251.235155 
L 426.165495 249.109091 
L 420.566007 246.363636 
L 414 242.703348 
L 411.022673 240.872727 
L 405.545455 236.99351 
L 403.507948 235.381818 
L 400.482111 232.636364 
L 397.90125 229.890909 
L 395.795663 227.145455 
L 394.143403 224.4 
L 392.925948 221.654545 
L 392.143299 218.909091 
L 391.795455 216.163636 
L 391.882416 213.418182 
L 392.404182 210.672727 
L 393.360754 207.927273 
L 394.75213 205.181818 
L 397.090909 201.813931 
L 398.880197 199.690909 
L 401.639049 196.945455 
L 405.545455 193.671362 
L 408.562249 191.454545 
L 414 187.973076 
L 417.485026 185.963636 
L 422.719869 183.218182 
L 430.909091 179.451034 
L 434.977625 177.727273 
L 442.017008 174.981818 
L 449.727057 172.236364 
L 458.16405 169.490909 
L 467.390746 166.745455 
L 477.477341 164 
L 490.090909 160.882894 
L 500.620584 158.509091 
L 515.454545 155.474935 
L 532.363636 152.397428 
L 549.272727 149.662498 
L 566.181818 147.229362 
L 585.55493 144.781818 
L 600 143.177273 
L 616.909091 141.497925 
L 633.818182 140.039963 
L 650.727273 138.780218 
L 667.636364 137.720113 
L 690.968444 136.545455 
L 701.454545 136.133739 
L 718.363636 135.611392 
L 735.272727 135.256196 
L 752.181818 135.068151 
L 769.090909 135.047257 
L 786 135.193515 
L 802.909091 135.506923 
L 819.818182 135.987482 
L 836.727273 136.638374 
L 853.636364 137.48213 
L 870.545455 138.498965 
L 887.454545 139.70351 
L 904.363636 141.116612 
L 921.272727 142.734834 
L 939.953315 144.781818 
L 955.090909 146.672524 
L 972 149.032228 
L 972 149.032228 
" style="fill:none;stroke:#583efd;stroke-width:1.5;"/>
   </g>
   <g id="LineCollection_11">
    <path clip-path="url(#pc0ea805e35)" d="M 972 295.289184 
L 955.090909 297.250668 
L 938.181818 299.015453 
L 921.272727 300.580323 
L 904.363636 301.964272 
L 887.454545 303.172963 
L 870.545455 304.221767 
L 853.636364 305.095997 
L 836.727273 305.821422 
L 819.818182 306.398042 
L 802.909091 306.824015 
L 777.545455 307.175997 
L 752.181818 307.203072 
L 726.818182 306.905242 
L 709.909091 306.518946 
L 693 305.979527 
L 676.090909 305.291303 
L 651.408595 304.018182 
L 642.272727 303.451153 
L 625.363636 302.280834 
L 608.454545 300.94678 
L 591.545455 299.421527 
L 574.636364 297.711315 
L 557.514621 295.781818 
L 536.101803 293.036364 
L 523.909091 291.299223 
L 507 288.673346 
L 490.090909 285.761147 
L 481.636364 284.188547 
L 464.727273 280.766285 
L 456.272727 278.916942 
L 446.200615 276.563636 
L 430.909091 272.631566 
L 422.454545 270.260647 
L 414 267.718633 
L 405.545455 264.976689 
L 397.090909 261.999111 
L 388.636364 258.741159 
L 385.221951 257.345455 
L 378.957984 254.6 
L 371.727273 251.084533 
L 367.97969 249.109091 
L 363.18021 246.363636 
L 358.877688 243.618182 
L 354.818182 240.751057 
L 351.536514 238.127273 
L 348.492877 235.381818 
L 345.849987 232.636364 
L 343.632262 229.890909 
L 341.796904 227.145455 
L 340.343911 224.4 
L 339.273285 221.654545 
L 338.585026 218.909091 
L 338.279133 216.163636 
L 338.355606 213.418182 
L 338.814446 210.672727 
L 339.655652 207.927273 
L 340.879224 205.181818 
L 342.485163 202.436364 
L 344.473468 199.690909 
L 346.853996 196.945455 
L 349.663507 194.2 
L 352.863227 191.454545 
L 356.487397 188.709091 
L 360.550891 185.963636 
L 365.049986 183.218182 
L 371.727273 179.597092 
L 375.465287 177.727273 
L 381.396151 174.981818 
L 388.636364 171.925851 
L 397.090909 168.680573 
L 405.545455 165.708114 
L 414 162.965846 
L 422.454545 160.419582 
L 430.909091 158.041585 
L 439.54896 155.763636 
L 456.272727 151.770498 
L 464.727273 149.906035 
L 481.636364 146.494821 
L 498.545455 143.425507 
L 515.454545 140.660383 
L 532.363636 138.167089 
L 549.272727 135.917697 
L 566.991031 133.8 
L 583.090909 132.089999 
L 600 130.472895 
L 616.909091 129.045415 
L 633.818182 127.790978 
L 650.727273 126.710985 
L 672.180173 125.563636 
L 693 124.700949 
L 718.363636 123.956699 
L 743.727273 123.543227 
L 769.090909 123.460533 
L 794.454545 123.708616 
L 819.818182 124.287477 
L 845.181818 125.197116 
L 862.090909 126.000464 
L 879 126.966773 
L 898.990459 128.309091 
L 912.818182 129.38762 
L 931.865969 131.054545 
L 946.636364 132.524343 
L 963.545455 134.381998 
L 972 135.395351 
L 972 135.395351 
" style="fill:none;stroke:#4c50fc;stroke-width:1.5;"/>
   </g>
   <g id="LineCollection_12">
    <path clip-path="url(#pc0ea805e35)" d="M 612.819511 315 
L 591.545455 313.375424 
L 574.636364 311.917444 
L 549.272727 309.416526 
L 525.969892 306.763636 
L 507 304.335729 
L 490.090909 301.947519 
L 473.181818 299.334901 
L 456.272727 296.475283 
L 447.818182 294.942333 
L 430.909091 291.653143 
L 422.454545 289.894158 
L 405.545455 286.083384 
L 397.090909 284.031761 
L 388.636364 281.871819 
L 379.214227 279.309091 
L 369.776684 276.563636 
L 360.955753 273.818182 
L 352.713491 271.072727 
L 345.015001 268.327273 
L 337.828141 265.581818 
L 329.454545 262.094504 
L 321 258.224766 
L 319.175113 257.345455 
L 312.545455 253.88697 
L 308.92991 251.854545 
L 304.090909 248.905991 
L 300.294329 246.363636 
L 295.636364 242.888043 
L 293.181752 240.872727 
L 290.179062 238.127273 
L 287.181818 234.98452 
L 285.232294 232.636364 
L 283.288121 229.890909 
L 281.67915 227.145455 
L 280.405382 224.4 
L 279.466815 221.654545 
L 278.863451 218.909091 
L 278.597575 216.163636 
L 278.727273 212.974924 
L 279.064573 210.672727 
L 279.802018 207.927273 
L 280.874665 205.181818 
L 282.282514 202.436364 
L 284.025566 199.690909 
L 286.10382 196.945455 
L 288.54123 194.2 
L 291.339192 191.454545 
L 295.636364 187.795624 
L 298.001178 185.963636 
L 304.090909 181.794354 
L 306.169403 180.472727 
L 312.545455 176.796145 
L 315.92953 174.981818 
L 321.418901 172.236364 
L 329.454545 168.587398 
L 337.909091 165.083706 
L 346.363636 161.865541 
L 348.030973 161.254545 
L 355.936144 158.509091 
L 364.405561 155.763636 
L 373.476224 153.018182 
L 388.636364 148.818775 
L 397.090909 146.649119 
L 405.545455 144.586869 
L 422.454545 140.79212 
L 430.909091 139.01892 
L 447.818182 135.73745 
L 464.727273 132.744003 
L 481.636364 130.010885 
L 498.545455 127.513841 
L 515.454545 125.231539 
L 535.260015 122.818182 
L 557.727273 120.388984 
L 574.636364 118.768085 
L 591.545455 117.295725 
L 616.909091 115.399693 
L 633.818182 114.311671 
L 659.181818 112.958624 
L 684.545455 111.900788 
L 701.454545 111.372051 
L 726.818182 110.821043 
L 752.181818 110.557518 
L 777.545455 110.581475 
L 802.909091 110.892914 
L 828.272727 111.491835 
L 853.636364 112.392805 
L 879 113.598246 
L 896.161905 114.581818 
L 921.272727 116.309789 
L 938.181818 117.650144 
L 963.545455 119.964021 
L 972 120.826044 
L 972 120.826044 
" style="fill:none;stroke:#3c68f9;stroke-width:1.5;"/>
    <path clip-path="url(#pc0ea805e35)" d="M 972 309.857477 
L 963.545455 310.707761 
L 955.090909 311.522982 
L 947.162985 312.254545 
L 946.636364 312.301783 
L 938.181818 313.026065 
L 929.727273 313.716263 
L 921.272727 314.372377 
L 912.818182 314.994408 
L 912.737763 315 
" style="fill:none;stroke:#3c68f9;stroke-width:1.5;"/>
   </g>
   <g id="LineCollection_13">
    <path clip-path="url(#pc0ea805e35)" d="M 460.130958 315 
L 441.66249 312.254545 
L 424.680272 309.509091 
L 408.970711 306.763636 
L 394.359271 304.018182 
L 380.181818 301.161225 
L 363.272727 297.462073 
L 354.818182 295.497337 
L 337.909091 291.262484 
L 329.454545 288.988093 
L 321 286.596511 
L 312.545455 284.073561 
L 304.090909 281.402686 
L 295.636364 278.564419 
L 287.181818 275.535728 
L 278.727273 272.289145 
L 270.272727 268.791658 
L 269.188316 268.327273 
L 261.818182 264.970723 
L 253.363636 260.758061 
L 252.085296 260.090909 
L 244.909091 256.025121 
L 242.542435 254.6 
L 236.454545 250.575764 
L 234.3816 249.109091 
L 230.804417 246.363636 
L 227.537753 243.618182 
L 224.613475 240.872727 
L 221.987592 238.127273 
L 219.545455 235.22669 
L 217.660581 232.636364 
L 215.956615 229.890909 
L 214.546436 227.145455 
L 213.430044 224.4 
L 212.60744 221.654545 
L 212.078623 218.909091 
L 211.843593 216.163636 
L 211.90235 213.418182 
L 212.254895 210.672727 
L 212.901227 207.927273 
L 213.841347 205.181818 
L 215.075253 202.436364 
L 216.602947 199.690909 
L 218.424428 196.945455 
L 220.555293 194.2 
L 223.002138 191.454545 
L 225.747378 188.709091 
L 228.803621 185.963636 
L 232.198912 183.218182 
L 236.454545 180.090444 
L 239.954728 177.727273 
L 244.909091 174.641808 
L 249.079235 172.236364 
L 254.165157 169.490909 
L 261.818182 165.713948 
L 270.272727 161.890989 
L 271.738842 161.254545 
L 278.727273 158.377545 
L 287.181818 155.140592 
L 295.636364 152.116942 
L 304.090909 149.280154 
L 312.545455 146.607982 
L 321 144.081576 
L 329.454545 141.684861 
L 338.353402 139.290909 
L 354.818182 135.190049 
L 363.272727 133.214728 
L 380.181818 129.527905 
L 397.090909 126.136393 
L 405.545455 124.547947 
L 422.454545 121.553899 
L 439.363636 118.790631 
L 456.272727 116.239018 
L 473.181818 113.88199 
L 490.090909 111.704266 
L 515.454545 108.766077 
L 540.818182 106.178952 
L 566.181818 103.92522 
L 583.090909 102.59939 
L 608.454545 100.844845 
L 633.818182 99.391879 
L 661.422817 98.109091 
L 684.545455 97.286147 
L 709.909091 96.629441 
L 735.272727 96.226944 
L 760.636364 96.078655 
L 786 96.184575 
L 811.363636 96.544705 
L 836.727273 97.159042 
L 864.082381 98.109091 
L 887.454545 99.175019 
L 912.818182 100.584612 
L 929.727273 101.688681 
L 955.376543 103.6 
L 972 105.017939 
L 972 105.017939 
" style="fill:none;stroke:#2884f6;stroke-width:1.5;"/>
   </g>
   <g id="LineCollection_14">
    <path clip-path="url(#pc0ea805e35)" d="M 338.910761 315 
L 325.548992 312.254545 
L 312.545455 309.426268 
L 295.636364 305.471106 
L 287.181818 303.377605 
L 270.272727 298.909805 
L 259.277465 295.781818 
L 244.909091 291.379688 
L 233.307735 287.545455 
L 225.525866 284.8 
L 218.14758 282.054545 
L 211.090909 279.282641 
L 202.636364 275.727169 
L 194.181818 271.903155 
L 192.415315 271.072727 
L 185.727273 267.740262 
L 181.637638 265.581818 
L 176.720513 262.836364 
L 168.818182 257.975308 
L 167.843577 257.345455 
L 163.864265 254.6 
L 160.156749 251.854545 
L 156.763147 249.109091 
L 151.909091 244.709106 
L 150.786959 243.618182 
L 148.224447 240.872727 
L 145.923416 238.127273 
L 143.454545 234.718919 
L 142.124085 232.636364 
L 140.62806 229.890909 
L 139.389971 227.145455 
L 138.409817 224.4 
L 137.687598 221.654545 
L 137.223314 218.909091 
L 137.016966 216.163636 
L 137.068553 213.418182 
L 137.378076 210.672727 
L 137.945533 207.927273 
L 138.770926 205.181818 
L 139.854254 202.436364 
L 141.195518 199.690909 
L 143.454545 195.970011 
L 144.668308 194.2 
L 146.812451 191.454545 
L 149.218074 188.709091 
L 151.909091 185.941219 
L 154.854246 183.218182 
L 158.088773 180.472727 
L 161.605736 177.727273 
L 165.423725 174.981818 
L 169.520513 172.236364 
L 177.272727 167.539596 
L 178.649341 166.745455 
L 185.727273 162.944667 
L 189.045976 161.254545 
L 194.725725 158.509091 
L 202.636364 154.9526 
L 211.090909 151.411104 
L 219.545455 148.099267 
L 228.578579 144.781818 
L 236.522214 142.036364 
L 244.909091 139.288496 
L 253.737792 136.545455 
L 270.272727 131.773504 
L 283.233022 128.309091 
L 295.636364 125.203244 
L 312.545455 121.262397 
L 329.454545 117.606125 
L 344.49331 114.581818 
L 359.057713 111.836364 
L 374.572109 109.090909 
L 391.166782 106.345455 
L 414 102.8683 
L 430.909091 100.492945 
L 456.272727 97.238969 
L 481.636364 94.318576 
L 507 91.709624 
L 532.363636 89.391889 
L 560.751058 87.127273 
L 583.090909 85.582482 
L 608.454545 84.057635 
L 633.818182 82.785537 
L 662.163744 81.636364 
L 684.545455 80.939317 
L 709.909091 80.362697 
L 735.272727 80.009285 
L 760.636364 79.87908 
L 786 79.972083 
L 811.363636 80.288294 
L 836.727273 80.827713 
L 863.371697 81.636364 
L 887.454545 82.595671 
L 912.818182 83.829797 
L 938.181818 85.311039 
L 964.767708 87.127273 
L 972 87.675155 
L 972 87.675155 
" style="fill:none;stroke:#0ea5ef;stroke-width:1.5;"/>
   </g>
   <g id="LineCollection_15">
    <path clip-path="url(#pc0ea805e35)" d="M 222.53504 315 
L 219.545455 314.231667 
L 211.971284 312.254545 
L 211.090909 312.018133 
L 202.636364 309.712723 
L 201.900779 309.509091 
L 194.181818 307.309029 
L 192.296541 306.763636 
L 185.727273 304.80527 
L 183.125417 304.018182 
L 177.272727 302.192006 
L 174.368781 301.272727 
L 168.818182 299.458571 
L 166.009055 298.527273 
L 160.363636 296.592866 
L 158.029645 295.781818 
L 151.909091 293.581114 
L 150.414867 293.036364 
L 143.454545 290.407555 
L 143.149888 290.290909 
L 136.237223 287.545455 
L 135 287.03503 
" style="fill:none;stroke:#14cae5;stroke-width:1.5;"/>
    <path clip-path="url(#pc0ea805e35)" d="M 135 143.649752 
L 146.021989 139.290909 
L 153.416467 136.545455 
L 161.16935 133.8 
L 169.296053 131.054545 
L 177.812888 128.309091 
L 194.181818 123.371038 
L 205.882194 120.072727 
L 219.545455 116.448944 
L 236.454545 112.24941 
L 250.029475 109.090909 
L 262.464676 106.345455 
L 278.727273 102.961539 
L 295.636364 99.658702 
L 312.545455 96.558204 
L 329.454545 93.646311 
L 346.363636 90.910505 
L 363.272727 88.339352 
L 380.181818 85.922386 
L 397.090909 83.650012 
L 422.454545 80.502777 
L 447.818182 77.645001 
L 473.181818 75.059724 
L 498.545455 72.731283 
L 523.909091 70.645198 
L 549.272727 68.804573 
L 574.636364 67.184004 
L 600 65.782572 
L 625.363636 64.594263 
L 650.727273 63.616112 
L 676.090909 62.836907 
L 701.454545 62.259522 
L 726.818182 61.884993 
L 752.181818 61.705871 
L 777.545455 61.722155 
L 802.909091 61.933845 
L 831.918491 62.418182 
L 853.636364 62.952958 
L 879 63.765321 
L 904.363636 64.77663 
L 929.727273 66.002074 
L 955.090909 67.437274 
L 972 68.517872 
L 972 68.517872 
" style="fill:none;stroke:#14cae5;stroke-width:1.5;"/>
   </g>
   <g id="LineCollection_16">
    <path clip-path="url(#pc0ea805e35)" d="M 135 106.520561 
L 135.644888 106.345455 
L 143.454545 104.27765 
L 146.049066 103.6 
L 151.909091 102.106598 
L 156.890548 100.854545 
L 160.363636 100.002296 
L 168.187877 98.109091 
L 168.818182 97.960108 
L 177.272727 95.989991 
L 179.999755 95.363636 
L 185.727273 94.077881 
L 192.325616 92.618182 
L 194.181818 92.216634 
L 202.636364 90.414676 
L 205.217788 89.872727 
L 211.090909 88.666403 
L 218.700056 87.127273 
L 219.545455 86.959894 
L 228 85.311846 
L 232.847106 84.381818 
L 236.454545 83.704009 
L 244.909091 82.140784 
L 247.682103 81.636364 
L 253.363636 80.623879 
L 261.818182 79.142028 
L 263.275304 78.890909 
L 270.272727 77.709001 
L 278.727273 76.305282 
L 279.706872 76.145455 
L 287.181818 74.949691 
L 295.636364 73.621053 
L 297.068684 73.4 
L 304.090909 72.337008 
L 312.545455 71.080574 
L 315.466549 70.654545 
L 321 69.862685 
L 329.454545 68.675741 
L 335.022956 67.909091 
L 337.909091 67.519064 
L 346.363636 66.399044 
L 354.818182 65.301538 
L 355.902742 65.163636 
L 363.272727 64.243521 
L 371.727273 63.210107 
L 378.347769 62.418182 
L 380.181818 62.202702 
L 388.636364 61.2311 
L 397.090909 60.281209 
L 402.633418 59.672727 
L 405.545455 59.35862 
L 414 58.468 
L 422.454545 57.598713 
L 429.149148 56.927273 
L 430.909091 56.753791 
L 439.363636 55.941371 
L 447.818182 55.149917 
L 456.272727 54.379429 
L 458.501755 54.181818 
L 464.727273 53.639229 
L 473.181818 52.922978 
L 481.636364 52.22734 
L 490.090909 51.552312 
L 491.588876 51.436364 
L 498.545455 50.906841 
L 507 50.283565 
L 515.454545 49.680558 
L 523.909091 49.097821 
L 530.025438 48.690909 
L 532.363636 48.537894 
L 540.818182 48.004554 
L 549.272727 47.491152 
L 557.727273 46.997688 
L 566.181818 46.524162 
L 574.636364 46.070574 
L 577.075716 45.945455 
L 583.090909 45.641884 
L 591.545455 45.234823 
L 600 44.847379 
L 608.454545 44.479553 
L 616.909091 44.131344 
L 625.363636 43.802753 
L 633.818182 43.493779 
L 642.272727 43.204422 
L 642.411339 43.2 
" style="fill:none;stroke:#3febd5;stroke-width:1.5;"/>
    <path clip-path="url(#pc0ea805e35)" d="M 883.019362 43.2 
L 887.454545 43.346648 
L 895.909091 43.645814 
L 904.363636 43.964596 
L 912.818182 44.302997 
L 921.272727 44.661014 
L 929.727273 45.038649 
L 938.181818 45.435901 
L 946.636364 45.852771 
L 948.431604 45.945455 
L 955.090909 46.294876 
L 963.545455 46.758433 
L 972 47.241928 
" style="fill:none;stroke:#3febd5;stroke-width:1.5;"/>
   </g>
   <g id="LineCollection_17">
    <path clip-path="url(#pc0ea805e35)" d="M 135 72.584226 
L 143.454545 70.860281 
L 144.477382 70.654545 
L 151.909091 69.187811 
L 158.47846 67.909091 
L 160.363636 67.548914 
L 168.818182 65.956122 
L 173.085011 65.163636 
L 177.272727 64.399934 
L 185.727273 62.880208 
L 188.335558 62.418182 
L 194.181818 61.401014 
L 202.636364 59.951753 
L 204.288869 59.672727 
L 211.090909 58.544282 
L 219.545455 57.163022 
L 221.011087 56.927273 
L 228 55.82241 
L 236.454545 54.506814 
L 238.576923 54.181818 
L 244.909091 53.228563 
L 253.363636 51.976413 
L 257.071091 51.436364 
L 261.818182 50.756361 
L 270.272727 49.56555 
L 276.590043 48.690909 
L 278.727273 48.399842 
L 287.181818 47.268364 
L 295.636364 46.156823 
L 297.273433 45.945455 
L 304.090909 45.079373 
L 312.545455 44.024938 
L 319.285265 43.2 
" style="fill:none;stroke:#74feba;stroke-width:1.5;"/>
   </g>
   <g id="LineCollection_18"/>
   <g id="LineCollection_19"/>
   <g id="LineCollection_20"/>
   <g id="patch_4">
    <path d="M 135 315 
L 135 43.2 
" style="fill:none;stroke:#000000;stroke-linecap:square;stroke-linejoin:miter;stroke-width:0.8;"/>
   </g>
   <g id="patch_5">
    <path d="M 972 315 
L 972 43.2 
" style="fill:none;stroke:#000000;stroke-linecap:square;stroke-linejoin:miter;stroke-width:0.8;"/>
   </g>
   <g id="patch_6">
    <path d="M 135 315 
L 972 315 
" style="fill:none;stroke:#000000;stroke-linecap:square;stroke-linejoin:miter;stroke-width:0.8;"/>
   </g>
   <g id="patch_7">
    <path d="M 135 43.2 
L 972 43.2 
" style="fill:none;stroke:#000000;stroke-linecap:square;stroke-linejoin:miter;stroke-width:0.8;"/>
   </g>
   <g id="patch_8">
    <path d="M 791.528146 179.439391 
Q 782.245584 192.110994 772.963022 204.782596 
L 776.189849 207.146403 
Q 770.223484 210.214517 764.257119 213.282631 
Q 765.383243 206.668806 766.509367 200.054982 
L 769.736194 202.418789 
Q 779.018757 189.747186 788.301319 177.075584 
L 791.528146 179.439391 
z
" style="stroke:#000000;stroke-linecap:round;"/>
   </g>
   <g id="text_17">
    <!-- global optimum: 10.00 -->
    <defs>
     <path d="M 45.40625 27.984375 
Q 45.40625 37.75 41.375 43.109375 
Q 37.359375 48.484375 30.078125 48.484375 
Q 22.859375 48.484375 18.828125 43.109375 
Q 14.796875 37.75 14.796875 27.984375 
Q 14.796875 18.265625 18.828125 12.890625 
Q 22.859375 7.515625 30.078125 7.515625 
Q 37.359375 7.515625 41.375 12.890625 
Q 45.40625 18.265625 45.40625 27.984375 
z
M 54.390625 6.78125 
Q 54.390625 -7.171875 48.1875 -13.984375 
Q 42 -20.796875 29.203125 -20.796875 
Q 24.46875 -20.796875 20.265625 -20.09375 
Q 16.0625 -19.390625 12.109375 -17.921875 
L 12.109375 -9.1875 
Q 16.0625 -11.328125 19.921875 -12.34375 
Q 23.78125 -13.375 27.78125 -13.375 
Q 36.625 -13.375 41.015625 -8.765625 
Q 45.40625 -4.15625 45.40625 5.171875 
L 45.40625 9.625 
Q 42.625 4.78125 38.28125 2.390625 
Q 33.9375 0 27.875 0 
Q 17.828125 0 11.671875 7.65625 
Q 5.515625 15.328125 5.515625 27.984375 
Q 5.515625 40.671875 11.671875 48.328125 
Q 17.828125 56 27.875 56 
Q 33.9375 56 38.28125 53.609375 
Q 42.625 51.21875 45.40625 46.390625 
L 45.40625 54.6875 
L 54.390625 54.6875 
z
" id="DejaVuSans-67"/>
     <path d="M 9.421875 75.984375 
L 18.40625 75.984375 
L 18.40625 0 
L 9.421875 0 
z
" id="DejaVuSans-6c"/>
     <path d="M 30.609375 48.390625 
Q 23.390625 48.390625 19.1875 42.75 
Q 14.984375 37.109375 14.984375 27.296875 
Q 14.984375 17.484375 19.15625 11.84375 
Q 23.34375 6.203125 30.609375 6.203125 
Q 37.796875 6.203125 41.984375 11.859375 
Q 46.1875 17.53125 46.1875 27.296875 
Q 46.1875 37.015625 41.984375 42.703125 
Q 37.796875 48.390625 30.609375 48.390625 
z
M 30.609375 56 
Q 42.328125 56 49.015625 48.375 
Q 55.71875 40.765625 55.71875 27.296875 
Q 55.71875 13.875 49.015625 6.21875 
Q 42.328125 -1.421875 30.609375 -1.421875 
Q 18.84375 -1.421875 12.171875 6.21875 
Q 5.515625 13.875 5.515625 27.296875 
Q 5.515625 40.765625 12.171875 48.375 
Q 18.84375 56 30.609375 56 
z
" id="DejaVuSans-6f"/>
     <path d="M 48.6875 27.296875 
Q 48.6875 37.203125 44.609375 42.84375 
Q 40.53125 48.484375 33.40625 48.484375 
Q 26.265625 48.484375 22.1875 42.84375 
Q 18.109375 37.203125 18.109375 27.296875 
Q 18.109375 17.390625 22.1875 11.75 
Q 26.265625 6.109375 33.40625 6.109375 
Q 40.53125 6.109375 44.609375 11.75 
Q 48.6875 17.390625 48.6875 27.296875 
z
M 18.109375 46.390625 
Q 20.953125 51.265625 25.265625 53.625 
Q 29.59375 56 35.59375 56 
Q 45.5625 56 51.78125 48.09375 
Q 58.015625 40.1875 58.015625 27.296875 
Q 58.015625 14.40625 51.78125 6.484375 
Q 45.5625 -1.421875 35.59375 -1.421875 
Q 29.59375 -1.421875 25.265625 0.953125 
Q 20.953125 3.328125 18.109375 8.203125 
L 18.109375 0 
L 9.078125 0 
L 9.078125 75.984375 
L 18.109375 75.984375 
z
" id="DejaVuSans-62"/>
     <path d="M 34.28125 27.484375 
Q 23.390625 27.484375 19.1875 25 
Q 14.984375 22.515625 14.984375 16.5 
Q 14.984375 11.71875 18.140625 8.90625 
Q 21.296875 6.109375 26.703125 6.109375 
Q 34.1875 6.109375 38.703125 11.40625 
Q 43.21875 16.703125 43.21875 25.484375 
L 43.21875 27.484375 
z
M 52.203125 31.203125 
L 52.203125 0 
L 43.21875 0 
L 43.21875 8.296875 
Q 40.140625 3.328125 35.546875 0.953125 
Q 30.953125 -1.421875 24.3125 -1.421875 
Q 15.921875 -1.421875 10.953125 3.296875 
Q 6 8.015625 6 15.921875 
Q 6 25.140625 12.171875 29.828125 
Q 18.359375 34.515625 30.609375 34.515625 
L 43.21875 34.515625 
L 43.21875 35.40625 
Q 43.21875 41.609375 39.140625 45 
Q 35.0625 48.390625 27.6875 48.390625 
Q 23 48.390625 18.546875 47.265625 
Q 14.109375 46.140625 10.015625 43.890625 
L 10.015625 52.203125 
Q 14.9375 54.109375 19.578125 55.046875 
Q 24.21875 56 28.609375 56 
Q 40.484375 56 46.34375 49.84375 
Q 52.203125 43.703125 52.203125 31.203125 
z
" id="DejaVuSans-61"/>
     <path id="DejaVuSans-20"/>
     <path d="M 18.109375 8.203125 
L 18.109375 -20.796875 
L 9.078125 -20.796875 
L 9.078125 54.6875 
L 18.109375 54.6875 
L 18.109375 46.390625 
Q 20.953125 51.265625 25.265625 53.625 
Q 29.59375 56 35.59375 56 
Q 45.5625 56 51.78125 48.09375 
Q 58.015625 40.1875 58.015625 27.296875 
Q 58.015625 14.40625 51.78125 6.484375 
Q 45.5625 -1.421875 35.59375 -1.421875 
Q 29.59375 -1.421875 25.265625 0.953125 
Q 20.953125 3.328125 18.109375 8.203125 
z
M 48.6875 27.296875 
Q 48.6875 37.203125 44.609375 42.84375 
Q 40.53125 48.484375 33.40625 48.484375 
Q 26.265625 48.484375 22.1875 42.84375 
Q 18.109375 37.203125 18.109375 27.296875 
Q 18.109375 17.390625 22.1875 11.75 
Q 26.265625 6.109375 33.40625 6.109375 
Q 40.53125 6.109375 44.609375 11.75 
Q 48.6875 17.390625 48.6875 27.296875 
z
" id="DejaVuSans-70"/>
     <path d="M 18.3125 70.21875 
L 18.3125 54.6875 
L 36.8125 54.6875 
L 36.8125 47.703125 
L 18.3125 47.703125 
L 18.3125 18.015625 
Q 18.3125 11.328125 20.140625 9.421875 
Q 21.96875 7.515625 27.59375 7.515625 
L 36.8125 7.515625 
L 36.8125 0 
L 27.59375 0 
Q 17.1875 0 13.234375 3.875 
Q 9.28125 7.765625 9.28125 18.015625 
L 9.28125 47.703125 
L 2.6875 47.703125 
L 2.6875 54.6875 
L 9.28125 54.6875 
L 9.28125 70.21875 
z
" id="DejaVuSans-74"/>
     <path d="M 9.421875 54.6875 
L 18.40625 54.6875 
L 18.40625 0 
L 9.421875 0 
z
M 9.421875 75.984375 
L 18.40625 75.984375 
L 18.40625 64.59375 
L 9.421875 64.59375 
z
" id="DejaVuSans-69"/>
     <path d="M 52 44.1875 
Q 55.375 50.25 60.0625 53.125 
Q 64.75 56 71.09375 56 
Q 79.640625 56 84.28125 50.015625 
Q 88.921875 44.046875 88.921875 33.015625 
L 88.921875 0 
L 79.890625 0 
L 79.890625 32.71875 
Q 79.890625 40.578125 77.09375 44.375 
Q 74.3125 48.1875 68.609375 48.1875 
Q 61.625 48.1875 57.5625 43.546875 
Q 53.515625 38.921875 53.515625 30.90625 
L 53.515625 0 
L 44.484375 0 
L 44.484375 32.71875 
Q 44.484375 40.625 41.703125 44.40625 
Q 38.921875 48.1875 33.109375 48.1875 
Q 26.21875 48.1875 22.15625 43.53125 
Q 18.109375 38.875 18.109375 30.90625 
L 18.109375 0 
L 9.078125 0 
L 9.078125 54.6875 
L 18.109375 54.6875 
L 18.109375 46.1875 
Q 21.1875 51.21875 25.484375 53.609375 
Q 29.78125 56 35.6875 56 
Q 41.65625 56 45.828125 52.96875 
Q 50 49.953125 52 44.1875 
z
" id="DejaVuSans-6d"/>
     <path d="M 8.5 21.578125 
L 8.5 54.6875 
L 17.484375 54.6875 
L 17.484375 21.921875 
Q 17.484375 14.15625 20.5 10.265625 
Q 23.53125 6.390625 29.59375 6.390625 
Q 36.859375 6.390625 41.078125 11.03125 
Q 45.3125 15.671875 45.3125 23.6875 
L 45.3125 54.6875 
L 54.296875 54.6875 
L 54.296875 0 
L 45.3125 0 
L 45.3125 8.40625 
Q 42.046875 3.421875 37.71875 1 
Q 33.40625 -1.421875 27.6875 -1.421875 
Q 18.265625 -1.421875 13.375 4.4375 
Q 8.5 10.296875 8.5 21.578125 
z
M 31.109375 56 
z
" id="DejaVuSans-75"/>
     <path d="M 11.71875 12.40625 
L 22.015625 12.40625 
L 22.015625 0 
L 11.71875 0 
z
M 11.71875 51.703125 
L 22.015625 51.703125 
L 22.015625 39.3125 
L 11.71875 39.3125 
z
" id="DejaVuSans-3a"/>
    </defs>
    <g transform="translate(679.049994 170.040004)scale(0.2 -0.2)">
     <use xlink:href="#DejaVuSans-67"/>
     <use x="63.476562" xlink:href="#DejaVuSans-6c"/>
     <use x="91.259766" xlink:href="#DejaVuSans-6f"/>
     <use x="152.441406" xlink:href="#DejaVuSans-62"/>
     <use x="215.917969" xlink:href="#DejaVuSans-61"/>
     <use x="277.197266" xlink:href="#DejaVuSans-6c"/>
     <use x="304.980469" xlink:href="#DejaVuSans-20"/>
     <use x="336.767578" xlink:href="#DejaVuSans-6f"/>
     <use x="397.949219" xlink:href="#DejaVuSans-70"/>
     <use x="461.425781" xlink:href="#DejaVuSans-74"/>
     <use x="500.634766" xlink:href="#DejaVuSans-69"/>
     <use x="528.417969" xlink:href="#DejaVuSans-6d"/>
     <use x="625.830078" xlink:href="#DejaVuSans-75"/>
     <use x="689.208984" xlink:href="#DejaVuSans-6d"/>
     <use x="786.621094" xlink:href="#DejaVuSans-3a"/>
     <use x="820.3125" xlink:href="#DejaVuSans-20"/>
     <use x="852.099609" xlink:href="#DejaVuSans-31"/>
     <use x="915.722656" xlink:href="#DejaVuSans-30"/>
     <use x="979.345703" xlink:href="#DejaVuSans-2e"/>
     <use x="1011.132812" xlink:href="#DejaVuSans-30"/>
     <use x="1074.755859" xlink:href="#DejaVuSans-30"/>
    </g>
   </g>
  </g>
 </g>
 <defs>
  <clipPath id="pc0ea805e35">
   <rect height="271.8" width="837" x="135" y="43.2"/>
  </clipPath>
 </defs>
</svg>
