<?xml version="1.0" encoding="utf-8" standalone="no"?>
<!DOCTYPE svg PUBLIC "-//W3C//DTD SVG 1.1//EN"
  "http://www.w3.org/Graphics/SVG/1.1/DTD/svg11.dtd">
<!-- Created with matplotlib (http://matplotlib.org/) -->
<svg height="288pt" version="1.1" viewBox="0 0 864 288" width="864pt" xmlns="http://www.w3.org/2000/svg" xmlns:xlink="http://www.w3.org/1999/xlink">
 <defs>
  <style type="text/css">
*{stroke-linecap:butt;stroke-linejoin:round;}
  </style>
 </defs>
 <g id="figure_1">
  <g id="patch_1">
   <path d="M 0 288 
L 864 288 
L 864 0 
L 0 0 
z
" style="fill:#ffffff;"/>
  </g>
  <g id="axes_1">
   <g id="patch_2">
    <path d="M 108 252 
L 304.941176 252 
L 304.941176 34.56 
L 108 34.56 
z
" style="fill:#ffffff;"/>
   </g>
   <g id="patch_3">
    <path clip-path="url(#p40a141bc32)" d="M 124.108468 252 
L 127.402953 252 
L 127.402953 44.914286 
L 124.108468 44.914286 
z
" style="fill:#1f77b4;opacity:0.4;"/>
   </g>
   <g id="patch_4">
    <path clip-path="url(#p40a141bc32)" d="M 127.402953 252 
L 130.697438 252 
L 130.697438 44.914286 
L 127.402953 44.914286 
z
" style="fill:#1f77b4;opacity:0.4;"/>
   </g>
   <g id="patch_5">
    <path clip-path="url(#p40a141bc32)" d="M 130.697438 252 
L 133.991923 252 
L 133.991923 98.060177 
L 130.697438 98.060177 
z
" style="fill:#1f77b4;opacity:0.4;"/>
   </g>
   <g id="patch_6">
    <path clip-path="url(#p40a141bc32)" d="M 133.991923 252 
L 137.286407 252 
L 137.286407 162.20177 
L 133.991923 162.20177 
z
" style="fill:#1f77b4;opacity:0.4;"/>
   </g>
   <g id="patch_7">
    <path clip-path="url(#p40a141bc32)" d="M 137.286407 252 
L 140.580892 252 
L 140.580892 176.862705 
L 137.286407 176.862705 
z
" style="fill:#1f77b4;opacity:0.4;"/>
   </g>
   <g id="patch_8">
    <path clip-path="url(#p40a141bc32)" d="M 140.580892 252 
L 143.875377 252 
L 143.875377 224.510746 
L 140.580892 224.510746 
z
" style="fill:#1f77b4;opacity:0.4;"/>
   </g>
   <g id="patch_9">
    <path clip-path="url(#p40a141bc32)" d="M 143.875377 252 
L 147.169862 252 
L 147.169862 217.180278 
L 143.875377 217.180278 
z
" style="fill:#1f77b4;opacity:0.4;"/>
   </g>
   <g id="patch_10">
    <path clip-path="url(#p40a141bc32)" d="M 147.169862 252 
L 150.464347 252 
L 150.464347 230.008597 
L 147.169862 230.008597 
z
" style="fill:#1f77b4;opacity:0.4;"/>
   </g>
   <g id="patch_11">
    <path clip-path="url(#p40a141bc32)" d="M 150.464347 252 
L 153.758831 252 
L 153.758831 237.339064 
L 150.464347 237.339064 
z
" style="fill:#1f77b4;opacity:0.4;"/>
   </g>
   <g id="patch_12">
    <path clip-path="url(#p40a141bc32)" d="M 153.758831 252 
L 157.053316 252 
L 157.053316 235.506448 
L 153.758831 235.506448 
z
" style="fill:#1f77b4;opacity:0.4;"/>
   </g>
   <g id="patch_13">
    <path clip-path="url(#p40a141bc32)" d="M 157.053316 252 
L 160.347801 252 
L 160.347801 237.339064 
L 157.053316 237.339064 
z
" style="fill:#1f77b4;opacity:0.4;"/>
   </g>
   <g id="patch_14">
    <path clip-path="url(#p40a141bc32)" d="M 160.347801 252 
L 163.642286 252 
L 163.642286 241.004298 
L 160.347801 241.004298 
z
" style="fill:#1f77b4;opacity:0.4;"/>
   </g>
   <g id="patch_15">
    <path clip-path="url(#p40a141bc32)" d="M 163.642286 252 
L 166.936771 252 
L 166.936771 248.334766 
L 163.642286 248.334766 
z
" style="fill:#1f77b4;opacity:0.4;"/>
   </g>
   <g id="patch_16">
    <path clip-path="url(#p40a141bc32)" d="M 166.936771 252 
L 170.231255 252 
L 170.231255 250.167383 
L 166.936771 250.167383 
z
" style="fill:#1f77b4;opacity:0.4;"/>
   </g>
   <g id="patch_17">
    <path clip-path="url(#p40a141bc32)" d="M 170.231255 252 
L 173.52574 252 
L 173.52574 246.502149 
L 170.231255 246.502149 
z
" style="fill:#1f77b4;opacity:0.4;"/>
   </g>
   <g id="patch_18">
    <path clip-path="url(#p40a141bc32)" d="M 173.52574 252 
L 176.820225 252 
L 176.820225 250.167383 
L 173.52574 250.167383 
z
" style="fill:#1f77b4;opacity:0.4;"/>
   </g>
   <g id="patch_19">
    <path clip-path="url(#p40a141bc32)" d="M 176.820225 252 
L 180.11471 252 
L 180.11471 252 
L 176.820225 252 
z
" style="fill:#1f77b4;opacity:0.4;"/>
   </g>
   <g id="patch_20">
    <path clip-path="url(#p40a141bc32)" d="M 180.11471 252 
L 183.409195 252 
L 183.409195 246.502149 
L 180.11471 246.502149 
z
" style="fill:#1f77b4;opacity:0.4;"/>
   </g>
   <g id="patch_21">
    <path clip-path="url(#p40a141bc32)" d="M 183.409195 252 
L 186.703679 252 
L 186.703679 246.502149 
L 183.409195 246.502149 
z
" style="fill:#1f77b4;opacity:0.4;"/>
   </g>
   <g id="patch_22">
    <path clip-path="url(#p40a141bc32)" d="M 186.703679 252 
L 189.998164 252 
L 189.998164 248.334766 
L 186.703679 248.334766 
z
" style="fill:#1f77b4;opacity:0.4;"/>
   </g>
   <g id="patch_23">
    <path clip-path="url(#p40a141bc32)" d="M 189.998164 252 
L 193.292649 252 
L 193.292649 250.167383 
L 189.998164 250.167383 
z
" style="fill:#1f77b4;opacity:0.4;"/>
   </g>
   <g id="patch_24">
    <path clip-path="url(#p40a141bc32)" d="M 193.292649 252 
L 196.587134 252 
L 196.587134 252 
L 193.292649 252 
z
" style="fill:#1f77b4;opacity:0.4;"/>
   </g>
   <g id="patch_25">
    <path clip-path="url(#p40a141bc32)" d="M 196.587134 252 
L 199.881619 252 
L 199.881619 252 
L 196.587134 252 
z
" style="fill:#1f77b4;opacity:0.4;"/>
   </g>
   <g id="patch_26">
    <path clip-path="url(#p40a141bc32)" d="M 199.881619 252 
L 203.176103 252 
L 203.176103 252 
L 199.881619 252 
z
" style="fill:#1f77b4;opacity:0.4;"/>
   </g>
   <g id="patch_27">
    <path clip-path="url(#p40a141bc32)" d="M 203.176103 252 
L 206.470588 252 
L 206.470588 252 
L 203.176103 252 
z
" style="fill:#1f77b4;opacity:0.4;"/>
   </g>
   <g id="patch_28">
    <path clip-path="url(#p40a141bc32)" d="M 206.470588 252 
L 209.765073 252 
L 209.765073 252 
L 206.470588 252 
z
" style="fill:#1f77b4;opacity:0.4;"/>
   </g>
   <g id="patch_29">
    <path clip-path="url(#p40a141bc32)" d="M 209.765073 252 
L 213.059558 252 
L 213.059558 252 
L 209.765073 252 
z
" style="fill:#1f77b4;opacity:0.4;"/>
   </g>
   <g id="patch_30">
    <path clip-path="url(#p40a141bc32)" d="M 213.059558 252 
L 216.354043 252 
L 216.354043 250.167383 
L 213.059558 250.167383 
z
" style="fill:#1f77b4;opacity:0.4;"/>
   </g>
   <g id="patch_31">
    <path clip-path="url(#p40a141bc32)" d="M 216.354043 252 
L 219.648527 252 
L 219.648527 252 
L 216.354043 252 
z
" style="fill:#1f77b4;opacity:0.4;"/>
   </g>
   <g id="patch_32">
    <path clip-path="url(#p40a141bc32)" d="M 219.648527 252 
L 222.943012 252 
L 222.943012 250.167383 
L 219.648527 250.167383 
z
" style="fill:#1f77b4;opacity:0.4;"/>
   </g>
   <g id="patch_33">
    <path clip-path="url(#p40a141bc32)" d="M 222.943012 252 
L 226.237497 252 
L 226.237497 252 
L 222.943012 252 
z
" style="fill:#1f77b4;opacity:0.4;"/>
   </g>
   <g id="patch_34">
    <path clip-path="url(#p40a141bc32)" d="M 226.237497 252 
L 229.531982 252 
L 229.531982 252 
L 226.237497 252 
z
" style="fill:#1f77b4;opacity:0.4;"/>
   </g>
   <g id="patch_35">
    <path clip-path="url(#p40a141bc32)" d="M 229.531982 252 
L 232.826467 252 
L 232.826467 252 
L 229.531982 252 
z
" style="fill:#1f77b4;opacity:0.4;"/>
   </g>
   <g id="patch_36">
    <path clip-path="url(#p40a141bc32)" d="M 232.826467 252 
L 236.120951 252 
L 236.120951 250.167383 
L 232.826467 250.167383 
z
" style="fill:#1f77b4;opacity:0.4;"/>
   </g>
   <g id="patch_37">
    <path clip-path="url(#p40a141bc32)" d="M 236.120951 252 
L 239.415436 252 
L 239.415436 250.167383 
L 236.120951 250.167383 
z
" style="fill:#1f77b4;opacity:0.4;"/>
   </g>
   <g id="patch_38">
    <path clip-path="url(#p40a141bc32)" d="M 239.415436 252 
L 242.709921 252 
L 242.709921 252 
L 239.415436 252 
z
" style="fill:#1f77b4;opacity:0.4;"/>
   </g>
   <g id="patch_39">
    <path clip-path="url(#p40a141bc32)" d="M 242.709921 252 
L 246.004406 252 
L 246.004406 252 
L 242.709921 252 
z
" style="fill:#1f77b4;opacity:0.4;"/>
   </g>
   <g id="patch_40">
    <path clip-path="url(#p40a141bc32)" d="M 246.004406 252 
L 249.298891 252 
L 249.298891 252 
L 246.004406 252 
z
" style="fill:#1f77b4;opacity:0.4;"/>
   </g>
   <g id="patch_41">
    <path clip-path="url(#p40a141bc32)" d="M 249.298891 252 
L 252.593375 252 
L 252.593375 252 
L 249.298891 252 
z
" style="fill:#1f77b4;opacity:0.4;"/>
   </g>
   <g id="patch_42">
    <path clip-path="url(#p40a141bc32)" d="M 252.593375 252 
L 255.88786 252 
L 255.88786 250.167383 
L 252.593375 250.167383 
z
" style="fill:#1f77b4;opacity:0.4;"/>
   </g>
   <g id="patch_43">
    <path clip-path="url(#p40a141bc32)" d="M 255.88786 252 
L 259.182345 252 
L 259.182345 252 
L 255.88786 252 
z
" style="fill:#1f77b4;opacity:0.4;"/>
   </g>
   <g id="patch_44">
    <path clip-path="url(#p40a141bc32)" d="M 259.182345 252 
L 262.47683 252 
L 262.47683 250.167383 
L 259.182345 250.167383 
z
" style="fill:#1f77b4;opacity:0.4;"/>
   </g>
   <g id="patch_45">
    <path clip-path="url(#p40a141bc32)" d="M 262.47683 252 
L 265.771315 252 
L 265.771315 252 
L 262.47683 252 
z
" style="fill:#1f77b4;opacity:0.4;"/>
   </g>
   <g id="patch_46">
    <path clip-path="url(#p40a141bc32)" d="M 265.771315 252 
L 269.065799 252 
L 269.065799 252 
L 265.771315 252 
z
" style="fill:#1f77b4;opacity:0.4;"/>
   </g>
   <g id="patch_47">
    <path clip-path="url(#p40a141bc32)" d="M 269.065799 252 
L 272.360284 252 
L 272.360284 252 
L 269.065799 252 
z
" style="fill:#1f77b4;opacity:0.4;"/>
   </g>
   <g id="patch_48">
    <path clip-path="url(#p40a141bc32)" d="M 272.360284 252 
L 275.654769 252 
L 275.654769 252 
L 272.360284 252 
z
" style="fill:#1f77b4;opacity:0.4;"/>
   </g>
   <g id="patch_49">
    <path clip-path="url(#p40a141bc32)" d="M 275.654769 252 
L 278.949254 252 
L 278.949254 252 
L 275.654769 252 
z
" style="fill:#1f77b4;opacity:0.4;"/>
   </g>
   <g id="patch_50">
    <path clip-path="url(#p40a141bc32)" d="M 278.949254 252 
L 282.243739 252 
L 282.243739 252 
L 278.949254 252 
z
" style="fill:#1f77b4;opacity:0.4;"/>
   </g>
   <g id="patch_51">
    <path clip-path="url(#p40a141bc32)" d="M 282.243739 252 
L 285.538223 252 
L 285.538223 252 
L 282.243739 252 
z
" style="fill:#1f77b4;opacity:0.4;"/>
   </g>
   <g id="patch_52">
    <path clip-path="url(#p40a141bc32)" d="M 285.538223 252 
L 288.832708 252 
L 288.832708 250.167383 
L 285.538223 250.167383 
z
" style="fill:#1f77b4;opacity:0.4;"/>
   </g>
   <g id="matplotlib.axis_1">
    <g id="xtick_1">
     <g id="line2d_1">
      <defs>
       <path d="M 0 0 
L 0 3.5 
" id="mef1e44b8da" style="stroke:#000000;stroke-width:0.8;"/>
      </defs>
      <g>
       <use style="stroke:#000000;stroke-width:0.8;" x="123.716608" xlink:href="#mef1e44b8da" y="252"/>
      </g>
     </g>
     <g id="text_1">
      <!-- 0 -->
      <defs>
       <path d="M 31.78125 66.40625 
Q 24.171875 66.40625 20.328125 58.90625 
Q 16.5 51.421875 16.5 36.375 
Q 16.5 21.390625 20.328125 13.890625 
Q 24.171875 6.390625 31.78125 6.390625 
Q 39.453125 6.390625 43.28125 13.890625 
Q 47.125 21.390625 47.125 36.375 
Q 47.125 51.421875 43.28125 58.90625 
Q 39.453125 66.40625 31.78125 66.40625 
z
M 31.78125 74.21875 
Q 44.046875 74.21875 50.515625 64.515625 
Q 56.984375 54.828125 56.984375 36.375 
Q 56.984375 17.96875 50.515625 8.265625 
Q 44.046875 -1.421875 31.78125 -1.421875 
Q 19.53125 -1.421875 13.0625 8.265625 
Q 6.59375 17.96875 6.59375 36.375 
Q 6.59375 54.828125 13.0625 64.515625 
Q 19.53125 74.21875 31.78125 74.21875 
z
" id="DejaVuSans-30"/>
      </defs>
      <g transform="translate(120.535358 266.598437)scale(0.1 -0.1)">
       <use xlink:href="#DejaVuSans-30"/>
      </g>
     </g>
    </g>
    <g id="xtick_2">
     <g id="line2d_2">
      <g>
       <use style="stroke:#000000;stroke-width:0.8;" x="166.39957" xlink:href="#mef1e44b8da" y="252"/>
      </g>
     </g>
     <g id="text_2">
      <!-- 5 -->
      <defs>
       <path d="M 10.796875 72.90625 
L 49.515625 72.90625 
L 49.515625 64.59375 
L 19.828125 64.59375 
L 19.828125 46.734375 
Q 21.96875 47.46875 24.109375 47.828125 
Q 26.265625 48.1875 28.421875 48.1875 
Q 40.625 48.1875 47.75 41.5 
Q 54.890625 34.8125 54.890625 23.390625 
Q 54.890625 11.625 47.5625 5.09375 
Q 40.234375 -1.421875 26.90625 -1.421875 
Q 22.3125 -1.421875 17.546875 -0.640625 
Q 12.796875 0.140625 7.71875 1.703125 
L 7.71875 11.625 
Q 12.109375 9.234375 16.796875 8.0625 
Q 21.484375 6.890625 26.703125 6.890625 
Q 35.15625 6.890625 40.078125 11.328125 
Q 45.015625 15.765625 45.015625 23.390625 
Q 45.015625 31 40.078125 35.4375 
Q 35.15625 39.890625 26.703125 39.890625 
Q 22.75 39.890625 18.8125 39.015625 
Q 14.890625 38.140625 10.796875 36.28125 
z
" id="DejaVuSans-35"/>
      </defs>
      <g transform="translate(163.21832 266.598437)scale(0.1 -0.1)">
       <use xlink:href="#DejaVuSans-35"/>
      </g>
     </g>
    </g>
    <g id="xtick_3">
     <g id="line2d_3">
      <g>
       <use style="stroke:#000000;stroke-width:0.8;" x="209.082531" xlink:href="#mef1e44b8da" y="252"/>
      </g>
     </g>
     <g id="text_3">
      <!-- 10 -->
      <defs>
       <path d="M 12.40625 8.296875 
L 28.515625 8.296875 
L 28.515625 63.921875 
L 10.984375 60.40625 
L 10.984375 69.390625 
L 28.421875 72.90625 
L 38.28125 72.90625 
L 38.28125 8.296875 
L 54.390625 8.296875 
L 54.390625 0 
L 12.40625 0 
z
" id="DejaVuSans-31"/>
      </defs>
      <g transform="translate(202.720031 266.598437)scale(0.1 -0.1)">
       <use xlink:href="#DejaVuSans-31"/>
       <use x="63.623047" xlink:href="#DejaVuSans-30"/>
      </g>
     </g>
    </g>
    <g id="xtick_4">
     <g id="line2d_4">
      <g>
       <use style="stroke:#000000;stroke-width:0.8;" x="251.765493" xlink:href="#mef1e44b8da" y="252"/>
      </g>
     </g>
     <g id="text_4">
      <!-- 15 -->
      <g transform="translate(245.402993 266.598437)scale(0.1 -0.1)">
       <use xlink:href="#DejaVuSans-31"/>
       <use x="63.623047" xlink:href="#DejaVuSans-35"/>
      </g>
     </g>
    </g>
    <g id="xtick_5">
     <g id="line2d_5">
      <g>
       <use style="stroke:#000000;stroke-width:0.8;" x="294.448454" xlink:href="#mef1e44b8da" y="252"/>
      </g>
     </g>
     <g id="text_5">
      <!-- 20 -->
      <defs>
       <path d="M 19.1875 8.296875 
L 53.609375 8.296875 
L 53.609375 0 
L 7.328125 0 
L 7.328125 8.296875 
Q 12.9375 14.109375 22.625 23.890625 
Q 32.328125 33.6875 34.8125 36.53125 
Q 39.546875 41.84375 41.421875 45.53125 
Q 43.3125 49.21875 43.3125 52.78125 
Q 43.3125 58.59375 39.234375 62.25 
Q 35.15625 65.921875 28.609375 65.921875 
Q 23.96875 65.921875 18.8125 64.3125 
Q 13.671875 62.703125 7.8125 59.421875 
L 7.8125 69.390625 
Q 13.765625 71.78125 18.9375 73 
Q 24.125 74.21875 28.421875 74.21875 
Q 39.75 74.21875 46.484375 68.546875 
Q 53.21875 62.890625 53.21875 53.421875 
Q 53.21875 48.921875 51.53125 44.890625 
Q 49.859375 40.875 45.40625 35.40625 
Q 44.1875 33.984375 37.640625 27.21875 
Q 31.109375 20.453125 19.1875 8.296875 
z
" id="DejaVuSans-32"/>
      </defs>
      <g transform="translate(288.085954 266.598437)scale(0.1 -0.1)">
       <use xlink:href="#DejaVuSans-32"/>
       <use x="63.623047" xlink:href="#DejaVuSans-30"/>
      </g>
     </g>
    </g>
    <g id="text_6">
     <!-- x1 -->
     <defs>
      <path d="M 54.890625 54.6875 
L 35.109375 28.078125 
L 55.90625 0 
L 45.3125 0 
L 29.390625 21.484375 
L 13.484375 0 
L 2.875 0 
L 24.125 28.609375 
L 4.6875 54.6875 
L 15.28125 54.6875 
L 29.78125 35.203125 
L 44.28125 54.6875 
z
" id="DejaVuSans-78"/>
     </defs>
     <g transform="translate(200.329963 280.276563)scale(0.1 -0.1)">
      <use xlink:href="#DejaVuSans-78"/>
      <use x="59.179688" xlink:href="#DejaVuSans-31"/>
     </g>
    </g>
   </g>
   <g id="matplotlib.axis_2">
    <g id="ytick_1">
     <g id="line2d_6">
      <defs>
       <path d="M 0 0 
L -3.5 0 
" id="m11e41c37df" style="stroke:#000000;stroke-width:0.8;"/>
      </defs>
      <g>
       <use style="stroke:#000000;stroke-width:0.8;" x="108" xlink:href="#m11e41c37df" y="252"/>
      </g>
     </g>
     <g id="text_7">
      <!-- 0.0 -->
      <defs>
       <path d="M 10.6875 12.40625 
L 21 12.40625 
L 21 0 
L 10.6875 0 
z
" id="DejaVuSans-2e"/>
      </defs>
      <g transform="translate(85.096875 255.799219)scale(0.1 -0.1)">
       <use xlink:href="#DejaVuSans-30"/>
       <use x="63.623047" xlink:href="#DejaVuSans-2e"/>
       <use x="95.410156" xlink:href="#DejaVuSans-30"/>
      </g>
     </g>
    </g>
    <g id="ytick_2">
     <g id="line2d_7">
      <g>
       <use style="stroke:#000000;stroke-width:0.8;" x="108" xlink:href="#m11e41c37df" y="216.637361"/>
      </g>
     </g>
     <g id="text_8">
      <!-- 0.1 -->
      <g transform="translate(85.096875 220.43658)scale(0.1 -0.1)">
       <use xlink:href="#DejaVuSans-30"/>
       <use x="63.623047" xlink:href="#DejaVuSans-2e"/>
       <use x="95.410156" xlink:href="#DejaVuSans-31"/>
      </g>
     </g>
    </g>
    <g id="ytick_3">
     <g id="line2d_8">
      <g>
       <use style="stroke:#000000;stroke-width:0.8;" x="108" xlink:href="#m11e41c37df" y="181.274722"/>
      </g>
     </g>
     <g id="text_9">
      <!-- 0.2 -->
      <g transform="translate(85.096875 185.073941)scale(0.1 -0.1)">
       <use xlink:href="#DejaVuSans-30"/>
       <use x="63.623047" xlink:href="#DejaVuSans-2e"/>
       <use x="95.410156" xlink:href="#DejaVuSans-32"/>
      </g>
     </g>
    </g>
    <g id="ytick_4">
     <g id="line2d_9">
      <g>
       <use style="stroke:#000000;stroke-width:0.8;" x="108" xlink:href="#m11e41c37df" y="145.912083"/>
      </g>
     </g>
     <g id="text_10">
      <!-- 0.3 -->
      <defs>
       <path d="M 40.578125 39.3125 
Q 47.65625 37.796875 51.625 33 
Q 55.609375 28.21875 55.609375 21.1875 
Q 55.609375 10.40625 48.1875 4.484375 
Q 40.765625 -1.421875 27.09375 -1.421875 
Q 22.515625 -1.421875 17.65625 -0.515625 
Q 12.796875 0.390625 7.625 2.203125 
L 7.625 11.71875 
Q 11.71875 9.328125 16.59375 8.109375 
Q 21.484375 6.890625 26.8125 6.890625 
Q 36.078125 6.890625 40.9375 10.546875 
Q 45.796875 14.203125 45.796875 21.1875 
Q 45.796875 27.640625 41.28125 31.265625 
Q 36.765625 34.90625 28.71875 34.90625 
L 20.21875 34.90625 
L 20.21875 43.015625 
L 29.109375 43.015625 
Q 36.375 43.015625 40.234375 45.921875 
Q 44.09375 48.828125 44.09375 54.296875 
Q 44.09375 59.90625 40.109375 62.90625 
Q 36.140625 65.921875 28.71875 65.921875 
Q 24.65625 65.921875 20.015625 65.03125 
Q 15.375 64.15625 9.8125 62.3125 
L 9.8125 71.09375 
Q 15.4375 72.65625 20.34375 73.4375 
Q 25.25 74.21875 29.59375 74.21875 
Q 40.828125 74.21875 47.359375 69.109375 
Q 53.90625 64.015625 53.90625 55.328125 
Q 53.90625 49.265625 50.4375 45.09375 
Q 46.96875 40.921875 40.578125 39.3125 
z
" id="DejaVuSans-33"/>
      </defs>
      <g transform="translate(85.096875 149.711301)scale(0.1 -0.1)">
       <use xlink:href="#DejaVuSans-30"/>
       <use x="63.623047" xlink:href="#DejaVuSans-2e"/>
       <use x="95.410156" xlink:href="#DejaVuSans-33"/>
      </g>
     </g>
    </g>
    <g id="ytick_5">
     <g id="line2d_10">
      <g>
       <use style="stroke:#000000;stroke-width:0.8;" x="108" xlink:href="#m11e41c37df" y="110.549444"/>
      </g>
     </g>
     <g id="text_11">
      <!-- 0.4 -->
      <defs>
       <path d="M 37.796875 64.3125 
L 12.890625 25.390625 
L 37.796875 25.390625 
z
M 35.203125 72.90625 
L 47.609375 72.90625 
L 47.609375 25.390625 
L 58.015625 25.390625 
L 58.015625 17.1875 
L 47.609375 17.1875 
L 47.609375 0 
L 37.796875 0 
L 37.796875 17.1875 
L 4.890625 17.1875 
L 4.890625 26.703125 
z
" id="DejaVuSans-34"/>
      </defs>
      <g transform="translate(85.096875 114.348662)scale(0.1 -0.1)">
       <use xlink:href="#DejaVuSans-30"/>
       <use x="63.623047" xlink:href="#DejaVuSans-2e"/>
       <use x="95.410156" xlink:href="#DejaVuSans-34"/>
      </g>
     </g>
    </g>
    <g id="ytick_6">
     <g id="line2d_11">
      <g>
       <use style="stroke:#000000;stroke-width:0.8;" x="108" xlink:href="#m11e41c37df" y="75.186804"/>
      </g>
     </g>
     <g id="text_12">
      <!-- 0.5 -->
      <g transform="translate(85.096875 78.986023)scale(0.1 -0.1)">
       <use xlink:href="#DejaVuSans-30"/>
       <use x="63.623047" xlink:href="#DejaVuSans-2e"/>
       <use x="95.410156" xlink:href="#DejaVuSans-35"/>
      </g>
     </g>
    </g>
    <g id="ytick_7">
     <g id="line2d_12">
      <g>
       <use style="stroke:#000000;stroke-width:0.8;" x="108" xlink:href="#m11e41c37df" y="39.824165"/>
      </g>
     </g>
     <g id="text_13">
      <!-- 0.6 -->
      <defs>
       <path d="M 33.015625 40.375 
Q 26.375 40.375 22.484375 35.828125 
Q 18.609375 31.296875 18.609375 23.390625 
Q 18.609375 15.53125 22.484375 10.953125 
Q 26.375 6.390625 33.015625 6.390625 
Q 39.65625 6.390625 43.53125 10.953125 
Q 47.40625 15.53125 47.40625 23.390625 
Q 47.40625 31.296875 43.53125 35.828125 
Q 39.65625 40.375 33.015625 40.375 
z
M 52.59375 71.296875 
L 52.59375 62.3125 
Q 48.875 64.0625 45.09375 64.984375 
Q 41.3125 65.921875 37.59375 65.921875 
Q 27.828125 65.921875 22.671875 59.328125 
Q 17.53125 52.734375 16.796875 39.40625 
Q 19.671875 43.65625 24.015625 45.921875 
Q 28.375 48.1875 33.59375 48.1875 
Q 44.578125 48.1875 50.953125 41.515625 
Q 57.328125 34.859375 57.328125 23.390625 
Q 57.328125 12.15625 50.6875 5.359375 
Q 44.046875 -1.421875 33.015625 -1.421875 
Q 20.359375 -1.421875 13.671875 8.265625 
Q 6.984375 17.96875 6.984375 36.375 
Q 6.984375 53.65625 15.1875 63.9375 
Q 23.390625 74.21875 37.203125 74.21875 
Q 40.921875 74.21875 44.703125 73.484375 
Q 48.484375 72.75 52.59375 71.296875 
z
" id="DejaVuSans-36"/>
      </defs>
      <g transform="translate(85.096875 43.623384)scale(0.1 -0.1)">
       <use xlink:href="#DejaVuSans-30"/>
       <use x="63.623047" xlink:href="#DejaVuSans-2e"/>
       <use x="95.410156" xlink:href="#DejaVuSans-36"/>
      </g>
     </g>
    </g>
   </g>
   <g id="line2d_13">
    <path clip-path="url(#p40a141bc32)" d="M 116.951872 251.832125 
L 118.361615 250.937056 
L 119.771359 246.978641 
L 121.181102 234.345826 
L 122.590846 205.415602 
L 124.000589 158.391419 
L 125.410333 105.253812 
L 126.820077 65.850138 
L 128.22982 51.576385 
L 129.639564 59.221139 
L 131.049307 79.139767 
L 133.868794 127.454897 
L 135.278538 147.645918 
L 136.688282 163.072232 
L 140.917512 202.269804 
L 142.327256 213.026604 
L 143.736999 219.395529 
L 145.146743 222.052394 
L 146.556487 223.6638 
L 147.96623 226.234897 
L 149.375974 229.571818 
L 150.785717 232.519996 
L 152.195461 234.514978 
L 153.605204 235.670388 
L 155.014948 236.299739 
L 156.424692 236.719712 
L 157.834435 237.288226 
L 159.244179 238.320104 
L 160.653922 239.832408 
L 163.473409 243.523857 
L 164.883153 245.503414 
L 166.292897 247.285136 
L 167.70264 248.498928 
L 169.112384 248.895155 
L 171.931871 248.277151 
L 173.341614 248.528304 
L 176.161102 250.330145 
L 177.570845 250.644775 
L 178.980589 250.197521 
L 183.209819 247.44342 
L 184.619563 247.07381 
L 186.029306 247.225343 
L 187.43905 247.840352 
L 190.258537 249.296594 
L 195.897511 251.679807 
L 197.307255 251.899742 
L 200.126742 251.996037 
L 209.994947 251.960156 
L 211.404691 251.851825 
L 214.224178 251.265762 
L 215.633921 251.006051 
L 217.043665 250.98553 
L 219.863152 251.105302 
L 221.272896 250.988571 
L 222.682639 250.983591 
L 226.91187 251.794491 
L 228.321614 251.798321 
L 229.731357 251.580114 
L 232.550844 250.943895 
L 235.370331 250.853718 
L 238.189819 250.889936 
L 241.009306 251.536329 
L 242.419049 251.818037 
L 245.238536 251.990096 
L 249.467767 251.95598 
L 250.877511 251.838175 
L 253.696998 251.213156 
L 255.106741 250.917786 
L 257.926228 250.811847 
L 260.745716 250.919583 
L 264.974946 251.838997 
L 267.794433 251.991586 
L 281.891869 251.985589 
L 284.711356 251.777876 
L 288.940587 250.979847 
L 290.350331 251.16765 
L 293.169818 251.811497 
L 295.989305 251.970538 
L 295.989305 251.970538 
" style="fill:none;stroke:#1f77b4;stroke-linecap:square;stroke-width:1.5;"/>
   </g>
   <g id="patch_53">
    <path d="M 108 252 
L 108 34.56 
" style="fill:none;stroke:#000000;stroke-linecap:square;stroke-linejoin:miter;stroke-width:0.8;"/>
   </g>
   <g id="patch_54">
    <path d="M 304.941176 252 
L 304.941176 34.56 
" style="fill:none;stroke:#000000;stroke-linecap:square;stroke-linejoin:miter;stroke-width:0.8;"/>
   </g>
   <g id="patch_55">
    <path d="M 108 252 
L 304.941176 252 
" style="fill:none;stroke:#000000;stroke-linecap:square;stroke-linejoin:miter;stroke-width:0.8;"/>
   </g>
   <g id="patch_56">
    <path d="M 108 34.56 
L 304.941176 34.56 
" style="fill:none;stroke:#000000;stroke-linecap:square;stroke-linejoin:miter;stroke-width:0.8;"/>
   </g>
   <g id="text_14">
    <!-- skewness: 4.290130622189554 -->
    <defs>
     <path d="M 44.28125 53.078125 
L 44.28125 44.578125 
Q 40.484375 46.53125 36.375 47.5 
Q 32.28125 48.484375 27.875 48.484375 
Q 21.1875 48.484375 17.84375 46.4375 
Q 14.5 44.390625 14.5 40.28125 
Q 14.5 37.15625 16.890625 35.375 
Q 19.28125 33.59375 26.515625 31.984375 
L 29.59375 31.296875 
Q 39.15625 29.25 43.1875 25.515625 
Q 47.21875 21.78125 47.21875 15.09375 
Q 47.21875 7.46875 41.1875 3.015625 
Q 35.15625 -1.421875 24.609375 -1.421875 
Q 20.21875 -1.421875 15.453125 -0.5625 
Q 10.6875 0.296875 5.421875 2 
L 5.421875 11.28125 
Q 10.40625 8.6875 15.234375 7.390625 
Q 20.0625 6.109375 24.8125 6.109375 
Q 31.15625 6.109375 34.5625 8.28125 
Q 37.984375 10.453125 37.984375 14.40625 
Q 37.984375 18.0625 35.515625 20.015625 
Q 33.0625 21.96875 24.703125 23.78125 
L 21.578125 24.515625 
Q 13.234375 26.265625 9.515625 29.90625 
Q 5.8125 33.546875 5.8125 39.890625 
Q 5.8125 47.609375 11.28125 51.796875 
Q 16.75 56 26.8125 56 
Q 31.78125 56 36.171875 55.265625 
Q 40.578125 54.546875 44.28125 53.078125 
z
" id="DejaVuSans-73"/>
     <path d="M 9.078125 75.984375 
L 18.109375 75.984375 
L 18.109375 31.109375 
L 44.921875 54.6875 
L 56.390625 54.6875 
L 27.390625 29.109375 
L 57.625 0 
L 45.90625 0 
L 18.109375 26.703125 
L 18.109375 0 
L 9.078125 0 
z
" id="DejaVuSans-6b"/>
     <path d="M 56.203125 29.59375 
L 56.203125 25.203125 
L 14.890625 25.203125 
Q 15.484375 15.921875 20.484375 11.0625 
Q 25.484375 6.203125 34.421875 6.203125 
Q 39.59375 6.203125 44.453125 7.46875 
Q 49.3125 8.734375 54.109375 11.28125 
L 54.109375 2.78125 
Q 49.265625 0.734375 44.1875 -0.34375 
Q 39.109375 -1.421875 33.890625 -1.421875 
Q 20.796875 -1.421875 13.15625 6.1875 
Q 5.515625 13.8125 5.515625 26.8125 
Q 5.515625 40.234375 12.765625 48.109375 
Q 20.015625 56 32.328125 56 
Q 43.359375 56 49.78125 48.890625 
Q 56.203125 41.796875 56.203125 29.59375 
z
M 47.21875 32.234375 
Q 47.125 39.59375 43.09375 43.984375 
Q 39.0625 48.390625 32.421875 48.390625 
Q 24.90625 48.390625 20.390625 44.140625 
Q 15.875 39.890625 15.1875 32.171875 
z
" id="DejaVuSans-65"/>
     <path d="M 4.203125 54.6875 
L 13.1875 54.6875 
L 24.421875 12.015625 
L 35.59375 54.6875 
L 46.1875 54.6875 
L 57.421875 12.015625 
L 68.609375 54.6875 
L 77.59375 54.6875 
L 63.28125 0 
L 52.6875 0 
L 40.921875 44.828125 
L 29.109375 0 
L 18.5 0 
z
" id="DejaVuSans-77"/>
     <path d="M 54.890625 33.015625 
L 54.890625 0 
L 45.90625 0 
L 45.90625 32.71875 
Q 45.90625 40.484375 42.875 44.328125 
Q 39.84375 48.1875 33.796875 48.1875 
Q 26.515625 48.1875 22.3125 43.546875 
Q 18.109375 38.921875 18.109375 30.90625 
L 18.109375 0 
L 9.078125 0 
L 9.078125 54.6875 
L 18.109375 54.6875 
L 18.109375 46.1875 
Q 21.34375 51.125 25.703125 53.5625 
Q 30.078125 56 35.796875 56 
Q 45.21875 56 50.046875 50.171875 
Q 54.890625 44.34375 54.890625 33.015625 
z
" id="DejaVuSans-6e"/>
     <path d="M 11.71875 12.40625 
L 22.015625 12.40625 
L 22.015625 0 
L 11.71875 0 
z
M 11.71875 51.703125 
L 22.015625 51.703125 
L 22.015625 39.3125 
L 11.71875 39.3125 
z
" id="DejaVuSans-3a"/>
     <path id="DejaVuSans-20"/>
     <path d="M 10.984375 1.515625 
L 10.984375 10.5 
Q 14.703125 8.734375 18.5 7.8125 
Q 22.3125 6.890625 25.984375 6.890625 
Q 35.75 6.890625 40.890625 13.453125 
Q 46.046875 20.015625 46.78125 33.40625 
Q 43.953125 29.203125 39.59375 26.953125 
Q 35.25 24.703125 29.984375 24.703125 
Q 19.046875 24.703125 12.671875 31.3125 
Q 6.296875 37.9375 6.296875 49.421875 
Q 6.296875 60.640625 12.9375 67.421875 
Q 19.578125 74.21875 30.609375 74.21875 
Q 43.265625 74.21875 49.921875 64.515625 
Q 56.59375 54.828125 56.59375 36.375 
Q 56.59375 19.140625 48.40625 8.859375 
Q 40.234375 -1.421875 26.421875 -1.421875 
Q 22.703125 -1.421875 18.890625 -0.6875 
Q 15.09375 0.046875 10.984375 1.515625 
z
M 30.609375 32.421875 
Q 37.25 32.421875 41.125 36.953125 
Q 45.015625 41.5 45.015625 49.421875 
Q 45.015625 57.28125 41.125 61.84375 
Q 37.25 66.40625 30.609375 66.40625 
Q 23.96875 66.40625 20.09375 61.84375 
Q 16.21875 57.28125 16.21875 49.421875 
Q 16.21875 41.5 20.09375 36.953125 
Q 23.96875 32.421875 30.609375 32.421875 
z
" id="DejaVuSans-39"/>
     <path d="M 31.78125 34.625 
Q 24.75 34.625 20.71875 30.859375 
Q 16.703125 27.09375 16.703125 20.515625 
Q 16.703125 13.921875 20.71875 10.15625 
Q 24.75 6.390625 31.78125 6.390625 
Q 38.8125 6.390625 42.859375 10.171875 
Q 46.921875 13.96875 46.921875 20.515625 
Q 46.921875 27.09375 42.890625 30.859375 
Q 38.875 34.625 31.78125 34.625 
z
M 21.921875 38.8125 
Q 15.578125 40.375 12.03125 44.71875 
Q 8.5 49.078125 8.5 55.328125 
Q 8.5 64.0625 14.71875 69.140625 
Q 20.953125 74.21875 31.78125 74.21875 
Q 42.671875 74.21875 48.875 69.140625 
Q 55.078125 64.0625 55.078125 55.328125 
Q 55.078125 49.078125 51.53125 44.71875 
Q 48 40.375 41.703125 38.8125 
Q 48.828125 37.15625 52.796875 32.3125 
Q 56.78125 27.484375 56.78125 20.515625 
Q 56.78125 9.90625 50.3125 4.234375 
Q 43.84375 -1.421875 31.78125 -1.421875 
Q 19.734375 -1.421875 13.25 4.234375 
Q 6.78125 9.90625 6.78125 20.515625 
Q 6.78125 27.484375 10.78125 32.3125 
Q 14.796875 37.15625 21.921875 38.8125 
z
M 18.3125 54.390625 
Q 18.3125 48.734375 21.84375 45.5625 
Q 25.390625 42.390625 31.78125 42.390625 
Q 38.140625 42.390625 41.71875 45.5625 
Q 45.3125 48.734375 45.3125 54.390625 
Q 45.3125 60.0625 41.71875 63.234375 
Q 38.140625 66.40625 31.78125 66.40625 
Q 25.390625 66.40625 21.84375 63.234375 
Q 18.3125 60.0625 18.3125 54.390625 
z
" id="DejaVuSans-38"/>
    </defs>
    <g transform="translate(110.614026 28.56)scale(0.12 -0.12)">
     <use xlink:href="#DejaVuSans-73"/>
     <use x="52.099609" xlink:href="#DejaVuSans-6b"/>
     <use x="109.962891" xlink:href="#DejaVuSans-65"/>
     <use x="171.486328" xlink:href="#DejaVuSans-77"/>
     <use x="253.273438" xlink:href="#DejaVuSans-6e"/>
     <use x="316.652344" xlink:href="#DejaVuSans-65"/>
     <use x="378.175781" xlink:href="#DejaVuSans-73"/>
     <use x="430.275391" xlink:href="#DejaVuSans-73"/>
     <use x="482.375" xlink:href="#DejaVuSans-3a"/>
     <use x="516.066406" xlink:href="#DejaVuSans-20"/>
     <use x="547.853516" xlink:href="#DejaVuSans-34"/>
     <use x="611.476562" xlink:href="#DejaVuSans-2e"/>
     <use x="643.263672" xlink:href="#DejaVuSans-32"/>
     <use x="706.886719" xlink:href="#DejaVuSans-39"/>
     <use x="770.509766" xlink:href="#DejaVuSans-30"/>
     <use x="834.132812" xlink:href="#DejaVuSans-31"/>
     <use x="897.755859" xlink:href="#DejaVuSans-33"/>
     <use x="961.378906" xlink:href="#DejaVuSans-30"/>
     <use x="1025.001953" xlink:href="#DejaVuSans-36"/>
     <use x="1088.625" xlink:href="#DejaVuSans-32"/>
     <use x="1152.248047" xlink:href="#DejaVuSans-32"/>
     <use x="1215.871094" xlink:href="#DejaVuSans-31"/>
     <use x="1279.494141" xlink:href="#DejaVuSans-38"/>
     <use x="1343.117188" xlink:href="#DejaVuSans-39"/>
     <use x="1406.740234" xlink:href="#DejaVuSans-35"/>
     <use x="1470.363281" xlink:href="#DejaVuSans-35"/>
     <use x="1533.986328" xlink:href="#DejaVuSans-34"/>
    </g>
   </g>
  </g>
  <g id="axes_2">
   <g id="patch_57">
    <path d="M 344.329412 252 
L 541.270588 252 
L 541.270588 34.56 
L 344.329412 34.56 
z
" style="fill:#ffffff;"/>
   </g>
   <g id="patch_58">
    <path clip-path="url(#p4d5cb71f9a)" d="M 389.500269 252 
L 402.825202 252 
L 402.825202 44.914286 
L 389.500269 44.914286 
z
" style="fill:#1f77b4;opacity:0.4;"/>
   </g>
   <g id="patch_59">
    <path clip-path="url(#p4d5cb71f9a)" d="M 402.825202 252 
L 416.150134 252 
L 416.150134 252 
L 402.825202 252 
z
" style="fill:#1f77b4;opacity:0.4;"/>
   </g>
   <g id="patch_60">
    <path clip-path="url(#p4d5cb71f9a)" d="M 416.150134 252 
L 429.475067 252 
L 429.475067 44.914286 
L 416.150134 44.914286 
z
" style="fill:#1f77b4;opacity:0.4;"/>
   </g>
   <g id="patch_61">
    <path clip-path="url(#p4d5cb71f9a)" d="M 429.475067 252 
L 442.8 252 
L 442.8 252 
L 429.475067 252 
z
" style="fill:#1f77b4;opacity:0.4;"/>
   </g>
   <g id="patch_62">
    <path clip-path="url(#p4d5cb71f9a)" d="M 442.8 252 
L 456.124933 252 
L 456.124933 252 
L 442.8 252 
z
" style="fill:#1f77b4;opacity:0.4;"/>
   </g>
   <g id="patch_63">
    <path clip-path="url(#p4d5cb71f9a)" d="M 456.124933 252 
L 469.449866 252 
L 469.449866 44.914286 
L 456.124933 44.914286 
z
" style="fill:#1f77b4;opacity:0.4;"/>
   </g>
   <g id="patch_64">
    <path clip-path="url(#p4d5cb71f9a)" d="M 469.449866 252 
L 482.774798 252 
L 482.774798 252 
L 469.449866 252 
z
" style="fill:#1f77b4;opacity:0.4;"/>
   </g>
   <g id="patch_65">
    <path clip-path="url(#p4d5cb71f9a)" d="M 482.774798 252 
L 496.099731 252 
L 496.099731 44.914286 
L 482.774798 44.914286 
z
" style="fill:#1f77b4;opacity:0.4;"/>
   </g>
   <g id="matplotlib.axis_3">
    <g id="xtick_6">
     <g id="line2d_14">
      <g>
       <use style="stroke:#000000;stroke-width:0.8;" x="353.967115" xlink:href="#mef1e44b8da" y="252"/>
      </g>
     </g>
     <g id="text_15">
      <!-- −1 -->
      <defs>
       <path d="M 10.59375 35.5 
L 73.1875 35.5 
L 73.1875 27.203125 
L 10.59375 27.203125 
z
" id="DejaVuSans-2212"/>
      </defs>
      <g transform="translate(346.596021 266.598437)scale(0.1 -0.1)">
       <use xlink:href="#DejaVuSans-2212"/>
       <use x="83.789062" xlink:href="#DejaVuSans-31"/>
      </g>
     </g>
    </g>
    <g id="xtick_7">
     <g id="line2d_15">
      <g>
       <use style="stroke:#000000;stroke-width:0.8;" x="389.500269" xlink:href="#mef1e44b8da" y="252"/>
      </g>
     </g>
     <g id="text_16">
      <!-- 0 -->
      <g transform="translate(386.319019 266.598437)scale(0.1 -0.1)">
       <use xlink:href="#DejaVuSans-30"/>
      </g>
     </g>
    </g>
    <g id="xtick_8">
     <g id="line2d_16">
      <g>
       <use style="stroke:#000000;stroke-width:0.8;" x="425.033423" xlink:href="#mef1e44b8da" y="252"/>
      </g>
     </g>
     <g id="text_17">
      <!-- 1 -->
      <g transform="translate(421.852173 266.598437)scale(0.1 -0.1)">
       <use xlink:href="#DejaVuSans-31"/>
      </g>
     </g>
    </g>
    <g id="xtick_9">
     <g id="line2d_17">
      <g>
       <use style="stroke:#000000;stroke-width:0.8;" x="460.566577" xlink:href="#mef1e44b8da" y="252"/>
      </g>
     </g>
     <g id="text_18">
      <!-- 2 -->
      <g transform="translate(457.385327 266.598437)scale(0.1 -0.1)">
       <use xlink:href="#DejaVuSans-32"/>
      </g>
     </g>
    </g>
    <g id="xtick_10">
     <g id="line2d_18">
      <g>
       <use style="stroke:#000000;stroke-width:0.8;" x="496.099731" xlink:href="#mef1e44b8da" y="252"/>
      </g>
     </g>
     <g id="text_19">
      <!-- 3 -->
      <g transform="translate(492.918481 266.598437)scale(0.1 -0.1)">
       <use xlink:href="#DejaVuSans-33"/>
      </g>
     </g>
    </g>
    <g id="xtick_11">
     <g id="line2d_19">
      <g>
       <use style="stroke:#000000;stroke-width:0.8;" x="531.632885" xlink:href="#mef1e44b8da" y="252"/>
      </g>
     </g>
     <g id="text_20">
      <!-- 4 -->
      <g transform="translate(528.451635 266.598437)scale(0.1 -0.1)">
       <use xlink:href="#DejaVuSans-34"/>
      </g>
     </g>
    </g>
    <g id="text_21">
     <!-- x2 -->
     <g transform="translate(436.659375 280.276563)scale(0.1 -0.1)">
      <use xlink:href="#DejaVuSans-78"/>
      <use x="59.179688" xlink:href="#DejaVuSans-32"/>
     </g>
    </g>
   </g>
   <g id="matplotlib.axis_4">
    <g id="ytick_8">
     <g id="line2d_20">
      <g>
       <use style="stroke:#000000;stroke-width:0.8;" x="344.329412" xlink:href="#m11e41c37df" y="252"/>
      </g>
     </g>
     <g id="text_22">
      <!-- 0.0 -->
      <g transform="translate(321.426287 255.799219)scale(0.1 -0.1)">
       <use xlink:href="#DejaVuSans-30"/>
       <use x="63.623047" xlink:href="#DejaVuSans-2e"/>
       <use x="95.410156" xlink:href="#DejaVuSans-30"/>
      </g>
     </g>
    </g>
    <g id="ytick_9">
     <g id="line2d_21">
      <g>
       <use style="stroke:#000000;stroke-width:0.8;" x="344.329412" xlink:href="#m11e41c37df" y="220.937143"/>
      </g>
     </g>
     <g id="text_23">
      <!-- 0.1 -->
      <g transform="translate(321.426287 224.736362)scale(0.1 -0.1)">
       <use xlink:href="#DejaVuSans-30"/>
       <use x="63.623047" xlink:href="#DejaVuSans-2e"/>
       <use x="95.410156" xlink:href="#DejaVuSans-31"/>
      </g>
     </g>
    </g>
    <g id="ytick_10">
     <g id="line2d_22">
      <g>
       <use style="stroke:#000000;stroke-width:0.8;" x="344.329412" xlink:href="#m11e41c37df" y="189.874286"/>
      </g>
     </g>
     <g id="text_24">
      <!-- 0.2 -->
      <g transform="translate(321.426287 193.673504)scale(0.1 -0.1)">
       <use xlink:href="#DejaVuSans-30"/>
       <use x="63.623047" xlink:href="#DejaVuSans-2e"/>
       <use x="95.410156" xlink:href="#DejaVuSans-32"/>
      </g>
     </g>
    </g>
    <g id="ytick_11">
     <g id="line2d_23">
      <g>
       <use style="stroke:#000000;stroke-width:0.8;" x="344.329412" xlink:href="#m11e41c37df" y="158.811429"/>
      </g>
     </g>
     <g id="text_25">
      <!-- 0.3 -->
      <g transform="translate(321.426287 162.610647)scale(0.1 -0.1)">
       <use xlink:href="#DejaVuSans-30"/>
       <use x="63.623047" xlink:href="#DejaVuSans-2e"/>
       <use x="95.410156" xlink:href="#DejaVuSans-33"/>
      </g>
     </g>
    </g>
    <g id="ytick_12">
     <g id="line2d_24">
      <g>
       <use style="stroke:#000000;stroke-width:0.8;" x="344.329412" xlink:href="#m11e41c37df" y="127.748571"/>
      </g>
     </g>
     <g id="text_26">
      <!-- 0.4 -->
      <g transform="translate(321.426287 131.54779)scale(0.1 -0.1)">
       <use xlink:href="#DejaVuSans-30"/>
       <use x="63.623047" xlink:href="#DejaVuSans-2e"/>
       <use x="95.410156" xlink:href="#DejaVuSans-34"/>
      </g>
     </g>
    </g>
    <g id="ytick_13">
     <g id="line2d_25">
      <g>
       <use style="stroke:#000000;stroke-width:0.8;" x="344.329412" xlink:href="#m11e41c37df" y="96.685714"/>
      </g>
     </g>
     <g id="text_27">
      <!-- 0.5 -->
      <g transform="translate(321.426287 100.484933)scale(0.1 -0.1)">
       <use xlink:href="#DejaVuSans-30"/>
       <use x="63.623047" xlink:href="#DejaVuSans-2e"/>
       <use x="95.410156" xlink:href="#DejaVuSans-35"/>
      </g>
     </g>
    </g>
    <g id="ytick_14">
     <g id="line2d_26">
      <g>
       <use style="stroke:#000000;stroke-width:0.8;" x="344.329412" xlink:href="#m11e41c37df" y="65.622857"/>
      </g>
     </g>
     <g id="text_28">
      <!-- 0.6 -->
      <g transform="translate(321.426287 69.422076)scale(0.1 -0.1)">
       <use xlink:href="#DejaVuSans-30"/>
       <use x="63.623047" xlink:href="#DejaVuSans-2e"/>
       <use x="95.410156" xlink:href="#DejaVuSans-36"/>
      </g>
     </g>
    </g>
    <g id="ytick_15">
     <g id="line2d_27">
      <g>
       <use style="stroke:#000000;stroke-width:0.8;" x="344.329412" xlink:href="#m11e41c37df" y="34.56"/>
      </g>
     </g>
     <g id="text_29">
      <!-- 0.7 -->
      <defs>
       <path d="M 8.203125 72.90625 
L 55.078125 72.90625 
L 55.078125 68.703125 
L 28.609375 0 
L 18.3125 0 
L 43.21875 64.59375 
L 8.203125 64.59375 
z
" id="DejaVuSans-37"/>
      </defs>
      <g transform="translate(321.426287 38.359219)scale(0.1 -0.1)">
       <use xlink:href="#DejaVuSans-30"/>
       <use x="63.623047" xlink:href="#DejaVuSans-2e"/>
       <use x="95.410156" xlink:href="#DejaVuSans-37"/>
      </g>
     </g>
    </g>
   </g>
   <g id="line2d_28">
    <path clip-path="url(#p4d5cb71f9a)" d="M 353.281283 250.158217 
L 354.691027 249.956183 
L 356.100771 249.541625 
L 357.510514 248.89398 
L 358.920258 247.983475 
L 360.330001 246.772496 
L 361.739745 245.217543 
L 363.149488 243.271813 
L 364.559232 240.888451 
L 365.968976 238.024451 
L 367.378719 234.645081 
L 368.788463 230.728658 
L 370.198206 226.271364 
L 371.60795 221.291743 
L 374.427437 209.972555 
L 381.476155 179.076371 
L 382.885898 173.751996 
L 384.295642 169.130232 
L 385.705385 165.364893 
L 387.115129 162.577597 
L 388.524873 160.848392 
L 389.934616 160.208628 
L 391.34436 160.636746 
L 392.754103 162.057429 
L 394.163847 164.344294 
L 395.57359 167.326006 
L 398.393078 174.521254 
L 401.212565 181.775825 
L 402.622308 184.842904 
L 404.032052 187.269752 
L 405.441795 188.904604 
L 406.851539 189.645261 
L 408.261283 189.444886 
L 409.671026 188.314597 
L 411.08077 186.32269 
L 412.490513 183.590516 
L 413.900257 180.285216 
L 419.539231 165.658638 
L 420.948975 162.789015 
L 422.358718 160.632857 
L 423.768462 159.324814 
L 425.178205 158.946736 
L 426.587949 159.522392 
L 427.997693 161.015928 
L 429.407436 163.334172 
L 430.81718 166.332623 
L 433.636667 173.593572 
L 436.456154 181.026085 
L 437.865898 184.231301 
L 439.275641 186.824581 
L 440.685385 188.646946 
L 442.095128 189.586861 
L 443.504872 189.586861 
L 444.914615 188.646946 
L 446.324359 186.824581 
L 447.734102 184.231301 
L 449.143846 181.026085 
L 451.963333 173.593572 
L 454.78282 166.332623 
L 456.192564 163.334172 
L 457.602307 161.015928 
L 459.012051 159.522392 
L 460.421795 158.946736 
L 461.831538 159.324814 
L 463.241282 160.632857 
L 464.651025 162.789015 
L 466.060769 165.658638 
L 467.470512 169.062913 
L 471.699743 180.285216 
L 473.109487 183.590516 
L 474.51923 186.32269 
L 475.928974 188.314597 
L 477.338717 189.444886 
L 478.748461 189.645261 
L 480.158205 188.904604 
L 481.567948 187.269752 
L 482.977692 184.842904 
L 484.387435 181.775825 
L 487.206922 174.521254 
L 490.02641 167.326006 
L 491.436153 164.344294 
L 492.845897 162.057429 
L 494.25564 160.636746 
L 495.665384 160.208628 
L 497.075127 160.848392 
L 498.484871 162.577597 
L 499.894615 165.364893 
L 501.304358 169.130232 
L 502.714102 173.751996 
L 504.123845 179.076371 
L 506.943332 191.121991 
L 511.172563 209.972555 
L 513.99205 221.291743 
L 515.401794 226.271364 
L 516.811537 230.728658 
L 518.221281 234.645081 
L 519.631024 238.024451 
L 521.040768 240.888451 
L 522.450512 243.271813 
L 523.860255 245.217543 
L 525.269999 246.772496 
L 526.679742 247.983475 
L 528.089486 248.89398 
L 529.499229 249.541625 
L 530.908973 249.956183 
L 532.318717 250.158217 
L 532.318717 250.158217 
" style="fill:none;stroke:#1f77b4;stroke-linecap:square;stroke-width:1.5;"/>
   </g>
   <g id="patch_66">
    <path d="M 344.329412 252 
L 344.329412 34.56 
" style="fill:none;stroke:#000000;stroke-linecap:square;stroke-linejoin:miter;stroke-width:0.8;"/>
   </g>
   <g id="patch_67">
    <path d="M 541.270588 252 
L 541.270588 34.56 
" style="fill:none;stroke:#000000;stroke-linecap:square;stroke-linejoin:miter;stroke-width:0.8;"/>
   </g>
   <g id="patch_68">
    <path d="M 344.329412 252 
L 541.270588 252 
" style="fill:none;stroke:#000000;stroke-linecap:square;stroke-linejoin:miter;stroke-width:0.8;"/>
   </g>
   <g id="patch_69">
    <path d="M 344.329412 34.56 
L 541.270588 34.56 
" style="fill:none;stroke:#000000;stroke-linecap:square;stroke-linejoin:miter;stroke-width:0.8;"/>
   </g>
   <g id="text_30">
    <!-- skewness: 0.0 -->
    <g transform="translate(400.388438 28.56)scale(0.12 -0.12)">
     <use xlink:href="#DejaVuSans-73"/>
     <use x="52.099609" xlink:href="#DejaVuSans-6b"/>
     <use x="109.962891" xlink:href="#DejaVuSans-65"/>
     <use x="171.486328" xlink:href="#DejaVuSans-77"/>
     <use x="253.273438" xlink:href="#DejaVuSans-6e"/>
     <use x="316.652344" xlink:href="#DejaVuSans-65"/>
     <use x="378.175781" xlink:href="#DejaVuSans-73"/>
     <use x="430.275391" xlink:href="#DejaVuSans-73"/>
     <use x="482.375" xlink:href="#DejaVuSans-3a"/>
     <use x="516.066406" xlink:href="#DejaVuSans-20"/>
     <use x="547.853516" xlink:href="#DejaVuSans-30"/>
     <use x="611.476562" xlink:href="#DejaVuSans-2e"/>
     <use x="643.263672" xlink:href="#DejaVuSans-30"/>
    </g>
   </g>
  </g>
  <g id="axes_3">
   <g id="patch_70">
    <path d="M 580.658824 252 
L 777.6 252 
L 777.6 34.56 
L 580.658824 34.56 
z
" style="fill:#ffffff;"/>
   </g>
   <g id="patch_71">
    <path clip-path="url(#p41409a4fb7)" d="M 593.453749 252 
L 596.880776 252 
L 596.880776 44.914286 
L 593.453749 44.914286 
z
" style="fill:#1f77b4;opacity:0.4;"/>
   </g>
   <g id="patch_72">
    <path clip-path="url(#p41409a4fb7)" d="M 596.880776 252 
L 600.307802 252 
L 600.307802 229.580464 
L 596.880776 229.580464 
z
" style="fill:#1f77b4;opacity:0.4;"/>
   </g>
   <g id="patch_73">
    <path clip-path="url(#p41409a4fb7)" d="M 600.307802 252 
L 603.734829 252 
L 603.734829 221.320635 
L 600.307802 221.320635 
z
" style="fill:#1f77b4;opacity:0.4;"/>
   </g>
   <g id="patch_74">
    <path clip-path="url(#p41409a4fb7)" d="M 603.734829 252 
L 607.161855 252 
L 607.161855 236.07033 
L 603.734829 236.07033 
z
" style="fill:#1f77b4;opacity:0.4;"/>
   </g>
   <g id="patch_75">
    <path clip-path="url(#p41409a4fb7)" d="M 607.161855 252 
L 610.588882 252 
L 610.588882 243.740171 
L 607.161855 243.740171 
z
" style="fill:#1f77b4;opacity:0.4;"/>
   </g>
   <g id="patch_76">
    <path clip-path="url(#p41409a4fb7)" d="M 610.588882 252 
L 614.015908 252 
L 614.015908 248.460073 
L 610.588882 248.460073 
z
" style="fill:#1f77b4;opacity:0.4;"/>
   </g>
   <g id="patch_77">
    <path clip-path="url(#p41409a4fb7)" d="M 614.015908 252 
L 617.442935 252 
L 617.442935 250.820024 
L 614.015908 250.820024 
z
" style="fill:#1f77b4;opacity:0.4;"/>
   </g>
   <g id="patch_78">
    <path clip-path="url(#p41409a4fb7)" d="M 617.442935 252 
L 620.869961 252 
L 620.869961 250.230037 
L 617.442935 250.230037 
z
" style="fill:#1f77b4;opacity:0.4;"/>
   </g>
   <g id="patch_79">
    <path clip-path="url(#p41409a4fb7)" d="M 620.869961 252 
L 624.296988 252 
L 624.296988 251.410012 
L 620.869961 251.410012 
z
" style="fill:#1f77b4;opacity:0.4;"/>
   </g>
   <g id="patch_80">
    <path clip-path="url(#p41409a4fb7)" d="M 624.296988 252 
L 627.724014 252 
L 627.724014 251.410012 
L 624.296988 251.410012 
z
" style="fill:#1f77b4;opacity:0.4;"/>
   </g>
   <g id="patch_81">
    <path clip-path="url(#p41409a4fb7)" d="M 627.724014 252 
L 631.151041 252 
L 631.151041 252 
L 627.724014 252 
z
" style="fill:#1f77b4;opacity:0.4;"/>
   </g>
   <g id="patch_82">
    <path clip-path="url(#p41409a4fb7)" d="M 631.151041 252 
L 634.578067 252 
L 634.578067 251.410012 
L 631.151041 251.410012 
z
" style="fill:#1f77b4;opacity:0.4;"/>
   </g>
   <g id="patch_83">
    <path clip-path="url(#p41409a4fb7)" d="M 634.578067 252 
L 638.005094 252 
L 638.005094 251.410012 
L 634.578067 251.410012 
z
" style="fill:#1f77b4;opacity:0.4;"/>
   </g>
   <g id="patch_84">
    <path clip-path="url(#p41409a4fb7)" d="M 638.005094 252 
L 641.43212 252 
L 641.43212 252 
L 638.005094 252 
z
" style="fill:#1f77b4;opacity:0.4;"/>
   </g>
   <g id="patch_85">
    <path clip-path="url(#p41409a4fb7)" d="M 641.43212 252 
L 644.859147 252 
L 644.859147 252 
L 641.43212 252 
z
" style="fill:#1f77b4;opacity:0.4;"/>
   </g>
   <g id="patch_86">
    <path clip-path="url(#p41409a4fb7)" d="M 644.859147 252 
L 648.286173 252 
L 648.286173 252 
L 644.859147 252 
z
" style="fill:#1f77b4;opacity:0.4;"/>
   </g>
   <g id="patch_87">
    <path clip-path="url(#p41409a4fb7)" d="M 648.286173 252 
L 651.7132 252 
L 651.7132 251.410012 
L 648.286173 251.410012 
z
" style="fill:#1f77b4;opacity:0.4;"/>
   </g>
   <g id="patch_88">
    <path clip-path="url(#p41409a4fb7)" d="M 651.7132 252 
L 655.140226 252 
L 655.140226 251.410012 
L 651.7132 251.410012 
z
" style="fill:#1f77b4;opacity:0.4;"/>
   </g>
   <g id="patch_89">
    <path clip-path="url(#p41409a4fb7)" d="M 655.140226 252 
L 658.567253 252 
L 658.567253 252 
L 655.140226 252 
z
" style="fill:#1f77b4;opacity:0.4;"/>
   </g>
   <g id="patch_90">
    <path clip-path="url(#p41409a4fb7)" d="M 658.567253 252 
L 661.994279 252 
L 661.994279 252 
L 658.567253 252 
z
" style="fill:#1f77b4;opacity:0.4;"/>
   </g>
   <g id="patch_91">
    <path clip-path="url(#p41409a4fb7)" d="M 661.994279 252 
L 665.421306 252 
L 665.421306 252 
L 661.994279 252 
z
" style="fill:#1f77b4;opacity:0.4;"/>
   </g>
   <g id="patch_92">
    <path clip-path="url(#p41409a4fb7)" d="M 665.421306 252 
L 668.848332 252 
L 668.848332 252 
L 665.421306 252 
z
" style="fill:#1f77b4;opacity:0.4;"/>
   </g>
   <g id="patch_93">
    <path clip-path="url(#p41409a4fb7)" d="M 668.848332 252 
L 672.275359 252 
L 672.275359 252 
L 668.848332 252 
z
" style="fill:#1f77b4;opacity:0.4;"/>
   </g>
   <g id="patch_94">
    <path clip-path="url(#p41409a4fb7)" d="M 672.275359 252 
L 675.702385 252 
L 675.702385 252 
L 672.275359 252 
z
" style="fill:#1f77b4;opacity:0.4;"/>
   </g>
   <g id="patch_95">
    <path clip-path="url(#p41409a4fb7)" d="M 675.702385 252 
L 679.129412 252 
L 679.129412 252 
L 675.702385 252 
z
" style="fill:#1f77b4;opacity:0.4;"/>
   </g>
   <g id="patch_96">
    <path clip-path="url(#p41409a4fb7)" d="M 679.129412 252 
L 682.556438 252 
L 682.556438 252 
L 679.129412 252 
z
" style="fill:#1f77b4;opacity:0.4;"/>
   </g>
   <g id="patch_97">
    <path clip-path="url(#p41409a4fb7)" d="M 682.556438 252 
L 685.983465 252 
L 685.983465 252 
L 682.556438 252 
z
" style="fill:#1f77b4;opacity:0.4;"/>
   </g>
   <g id="patch_98">
    <path clip-path="url(#p41409a4fb7)" d="M 685.983465 252 
L 689.410491 252 
L 689.410491 252 
L 685.983465 252 
z
" style="fill:#1f77b4;opacity:0.4;"/>
   </g>
   <g id="patch_99">
    <path clip-path="url(#p41409a4fb7)" d="M 689.410491 252 
L 692.837518 252 
L 692.837518 252 
L 689.410491 252 
z
" style="fill:#1f77b4;opacity:0.4;"/>
   </g>
   <g id="patch_100">
    <path clip-path="url(#p41409a4fb7)" d="M 692.837518 252 
L 696.264544 252 
L 696.264544 252 
L 692.837518 252 
z
" style="fill:#1f77b4;opacity:0.4;"/>
   </g>
   <g id="patch_101">
    <path clip-path="url(#p41409a4fb7)" d="M 696.264544 252 
L 699.691571 252 
L 699.691571 252 
L 696.264544 252 
z
" style="fill:#1f77b4;opacity:0.4;"/>
   </g>
   <g id="patch_102">
    <path clip-path="url(#p41409a4fb7)" d="M 699.691571 252 
L 703.118597 252 
L 703.118597 252 
L 699.691571 252 
z
" style="fill:#1f77b4;opacity:0.4;"/>
   </g>
   <g id="patch_103">
    <path clip-path="url(#p41409a4fb7)" d="M 703.118597 252 
L 706.545624 252 
L 706.545624 252 
L 703.118597 252 
z
" style="fill:#1f77b4;opacity:0.4;"/>
   </g>
   <g id="patch_104">
    <path clip-path="url(#p41409a4fb7)" d="M 706.545624 252 
L 709.97265 252 
L 709.97265 252 
L 706.545624 252 
z
" style="fill:#1f77b4;opacity:0.4;"/>
   </g>
   <g id="patch_105">
    <path clip-path="url(#p41409a4fb7)" d="M 709.97265 252 
L 713.399677 252 
L 713.399677 252 
L 709.97265 252 
z
" style="fill:#1f77b4;opacity:0.4;"/>
   </g>
   <g id="patch_106">
    <path clip-path="url(#p41409a4fb7)" d="M 713.399677 252 
L 716.826703 252 
L 716.826703 252 
L 713.399677 252 
z
" style="fill:#1f77b4;opacity:0.4;"/>
   </g>
   <g id="patch_107">
    <path clip-path="url(#p41409a4fb7)" d="M 716.826703 252 
L 720.25373 252 
L 720.25373 252 
L 716.826703 252 
z
" style="fill:#1f77b4;opacity:0.4;"/>
   </g>
   <g id="patch_108">
    <path clip-path="url(#p41409a4fb7)" d="M 720.25373 252 
L 723.680756 252 
L 723.680756 252 
L 720.25373 252 
z
" style="fill:#1f77b4;opacity:0.4;"/>
   </g>
   <g id="patch_109">
    <path clip-path="url(#p41409a4fb7)" d="M 723.680756 252 
L 727.107783 252 
L 727.107783 252 
L 723.680756 252 
z
" style="fill:#1f77b4;opacity:0.4;"/>
   </g>
   <g id="patch_110">
    <path clip-path="url(#p41409a4fb7)" d="M 727.107783 252 
L 730.534809 252 
L 730.534809 252 
L 727.107783 252 
z
" style="fill:#1f77b4;opacity:0.4;"/>
   </g>
   <g id="patch_111">
    <path clip-path="url(#p41409a4fb7)" d="M 730.534809 252 
L 733.961836 252 
L 733.961836 252 
L 730.534809 252 
z
" style="fill:#1f77b4;opacity:0.4;"/>
   </g>
   <g id="patch_112">
    <path clip-path="url(#p41409a4fb7)" d="M 733.961836 252 
L 737.388862 252 
L 737.388862 252 
L 733.961836 252 
z
" style="fill:#1f77b4;opacity:0.4;"/>
   </g>
   <g id="patch_113">
    <path clip-path="url(#p41409a4fb7)" d="M 737.388862 252 
L 740.815889 252 
L 740.815889 252 
L 737.388862 252 
z
" style="fill:#1f77b4;opacity:0.4;"/>
   </g>
   <g id="patch_114">
    <path clip-path="url(#p41409a4fb7)" d="M 740.815889 252 
L 744.242915 252 
L 744.242915 252 
L 740.815889 252 
z
" style="fill:#1f77b4;opacity:0.4;"/>
   </g>
   <g id="patch_115">
    <path clip-path="url(#p41409a4fb7)" d="M 744.242915 252 
L 747.669942 252 
L 747.669942 252 
L 744.242915 252 
z
" style="fill:#1f77b4;opacity:0.4;"/>
   </g>
   <g id="patch_116">
    <path clip-path="url(#p41409a4fb7)" d="M 747.669942 252 
L 751.096968 252 
L 751.096968 252 
L 747.669942 252 
z
" style="fill:#1f77b4;opacity:0.4;"/>
   </g>
   <g id="patch_117">
    <path clip-path="url(#p41409a4fb7)" d="M 751.096968 252 
L 754.523995 252 
L 754.523995 252 
L 751.096968 252 
z
" style="fill:#1f77b4;opacity:0.4;"/>
   </g>
   <g id="patch_118">
    <path clip-path="url(#p41409a4fb7)" d="M 754.523995 252 
L 757.951021 252 
L 757.951021 252 
L 754.523995 252 
z
" style="fill:#1f77b4;opacity:0.4;"/>
   </g>
   <g id="patch_119">
    <path clip-path="url(#p41409a4fb7)" d="M 757.951021 252 
L 761.378048 252 
L 761.378048 252 
L 757.951021 252 
z
" style="fill:#1f77b4;opacity:0.4;"/>
   </g>
   <g id="patch_120">
    <path clip-path="url(#p41409a4fb7)" d="M 761.378048 252 
L 764.805074 252 
L 764.805074 251.410012 
L 761.378048 251.410012 
z
" style="fill:#1f77b4;opacity:0.4;"/>
   </g>
   <g id="matplotlib.axis_5">
    <g id="xtick_12">
     <g id="line2d_29">
      <g>
       <use style="stroke:#000000;stroke-width:0.8;" x="593.45382" xlink:href="#mef1e44b8da" y="252"/>
      </g>
     </g>
     <g id="text_31">
      <!-- 0.0 -->
      <g transform="translate(585.502257 266.598437)scale(0.1 -0.1)">
       <use xlink:href="#DejaVuSans-30"/>
       <use x="63.623047" xlink:href="#DejaVuSans-2e"/>
       <use x="95.410156" xlink:href="#DejaVuSans-30"/>
      </g>
     </g>
    </g>
    <g id="xtick_13">
     <g id="line2d_30">
      <g>
       <use style="stroke:#000000;stroke-width:0.8;" x="636.702302" xlink:href="#mef1e44b8da" y="252"/>
      </g>
     </g>
     <g id="text_32">
      <!-- 0.5 -->
      <g transform="translate(628.750739 266.598437)scale(0.1 -0.1)">
       <use xlink:href="#DejaVuSans-30"/>
       <use x="63.623047" xlink:href="#DejaVuSans-2e"/>
       <use x="95.410156" xlink:href="#DejaVuSans-35"/>
      </g>
     </g>
    </g>
    <g id="xtick_14">
     <g id="line2d_31">
      <g>
       <use style="stroke:#000000;stroke-width:0.8;" x="679.950784" xlink:href="#mef1e44b8da" y="252"/>
      </g>
     </g>
     <g id="text_33">
      <!-- 1.0 -->
      <g transform="translate(671.999222 266.598437)scale(0.1 -0.1)">
       <use xlink:href="#DejaVuSans-31"/>
       <use x="63.623047" xlink:href="#DejaVuSans-2e"/>
       <use x="95.410156" xlink:href="#DejaVuSans-30"/>
      </g>
     </g>
    </g>
    <g id="xtick_15">
     <g id="line2d_32">
      <g>
       <use style="stroke:#000000;stroke-width:0.8;" x="723.199267" xlink:href="#mef1e44b8da" y="252"/>
      </g>
     </g>
     <g id="text_34">
      <!-- 1.5 -->
      <g transform="translate(715.247704 266.598437)scale(0.1 -0.1)">
       <use xlink:href="#DejaVuSans-31"/>
       <use x="63.623047" xlink:href="#DejaVuSans-2e"/>
       <use x="95.410156" xlink:href="#DejaVuSans-35"/>
      </g>
     </g>
    </g>
    <g id="xtick_16">
     <g id="line2d_33">
      <g>
       <use style="stroke:#000000;stroke-width:0.8;" x="766.447749" xlink:href="#mef1e44b8da" y="252"/>
      </g>
     </g>
     <g id="text_35">
      <!-- 2.0 -->
      <g transform="translate(758.496187 266.598437)scale(0.1 -0.1)">
       <use xlink:href="#DejaVuSans-32"/>
       <use x="63.623047" xlink:href="#DejaVuSans-2e"/>
       <use x="95.410156" xlink:href="#DejaVuSans-30"/>
      </g>
     </g>
    </g>
    <g id="text_36">
     <!-- y -->
     <defs>
      <path d="M 32.171875 -5.078125 
Q 28.375 -14.84375 24.75 -17.8125 
Q 21.140625 -20.796875 15.09375 -20.796875 
L 7.90625 -20.796875 
L 7.90625 -13.28125 
L 13.1875 -13.28125 
Q 16.890625 -13.28125 18.9375 -11.515625 
Q 21 -9.765625 23.484375 -3.21875 
L 25.09375 0.875 
L 2.984375 54.6875 
L 12.5 54.6875 
L 29.59375 11.921875 
L 46.6875 54.6875 
L 56.203125 54.6875 
z
" id="DejaVuSans-79"/>
     </defs>
     <g transform="translate(676.170037 280.276563)scale(0.1 -0.1)">
      <use xlink:href="#DejaVuSans-79"/>
     </g>
    </g>
    <g id="text_37">
     <!-- 1e7 -->
     <g transform="translate(758.721875 279.276563)scale(0.1 -0.1)">
      <use xlink:href="#DejaVuSans-31"/>
      <use x="63.623047" xlink:href="#DejaVuSans-65"/>
      <use x="125.146484" xlink:href="#DejaVuSans-37"/>
     </g>
    </g>
   </g>
   <g id="matplotlib.axis_6">
    <g id="ytick_16">
     <g id="line2d_34">
      <g>
       <use style="stroke:#000000;stroke-width:0.8;" x="580.658824" xlink:href="#m11e41c37df" y="252"/>
      </g>
     </g>
     <g id="text_38">
      <!-- 0.00000000 -->
      <g transform="translate(513.218199 255.799219)scale(0.1 -0.1)">
       <use xlink:href="#DejaVuSans-30"/>
       <use x="63.623047" xlink:href="#DejaVuSans-2e"/>
       <use x="95.410156" xlink:href="#DejaVuSans-30"/>
       <use x="159.033203" xlink:href="#DejaVuSans-30"/>
       <use x="222.65625" xlink:href="#DejaVuSans-30"/>
       <use x="286.279297" xlink:href="#DejaVuSans-30"/>
       <use x="349.902344" xlink:href="#DejaVuSans-30"/>
       <use x="413.525391" xlink:href="#DejaVuSans-30"/>
       <use x="477.148438" xlink:href="#DejaVuSans-30"/>
       <use x="540.771484" xlink:href="#DejaVuSans-30"/>
      </g>
     </g>
    </g>
    <g id="ytick_17">
     <g id="line2d_35">
      <g>
       <use style="stroke:#000000;stroke-width:0.8;" x="580.658824" xlink:href="#m11e41c37df" y="222.780712"/>
      </g>
     </g>
     <g id="text_39">
      <!-- 0.00000025 -->
      <g transform="translate(513.218199 226.579931)scale(0.1 -0.1)">
       <use xlink:href="#DejaVuSans-30"/>
       <use x="63.623047" xlink:href="#DejaVuSans-2e"/>
       <use x="95.410156" xlink:href="#DejaVuSans-30"/>
       <use x="159.033203" xlink:href="#DejaVuSans-30"/>
       <use x="222.65625" xlink:href="#DejaVuSans-30"/>
       <use x="286.279297" xlink:href="#DejaVuSans-30"/>
       <use x="349.902344" xlink:href="#DejaVuSans-30"/>
       <use x="413.525391" xlink:href="#DejaVuSans-30"/>
       <use x="477.148438" xlink:href="#DejaVuSans-32"/>
       <use x="540.771484" xlink:href="#DejaVuSans-35"/>
      </g>
     </g>
    </g>
    <g id="ytick_18">
     <g id="line2d_36">
      <g>
       <use style="stroke:#000000;stroke-width:0.8;" x="580.658824" xlink:href="#m11e41c37df" y="193.561424"/>
      </g>
     </g>
     <g id="text_40">
      <!-- 0.00000050 -->
      <g transform="translate(513.218199 197.360643)scale(0.1 -0.1)">
       <use xlink:href="#DejaVuSans-30"/>
       <use x="63.623047" xlink:href="#DejaVuSans-2e"/>
       <use x="95.410156" xlink:href="#DejaVuSans-30"/>
       <use x="159.033203" xlink:href="#DejaVuSans-30"/>
       <use x="222.65625" xlink:href="#DejaVuSans-30"/>
       <use x="286.279297" xlink:href="#DejaVuSans-30"/>
       <use x="349.902344" xlink:href="#DejaVuSans-30"/>
       <use x="413.525391" xlink:href="#DejaVuSans-30"/>
       <use x="477.148438" xlink:href="#DejaVuSans-35"/>
       <use x="540.771484" xlink:href="#DejaVuSans-30"/>
      </g>
     </g>
    </g>
    <g id="ytick_19">
     <g id="line2d_37">
      <g>
       <use style="stroke:#000000;stroke-width:0.8;" x="580.658824" xlink:href="#m11e41c37df" y="164.342136"/>
      </g>
     </g>
     <g id="text_41">
      <!-- 0.00000075 -->
      <g transform="translate(513.218199 168.141354)scale(0.1 -0.1)">
       <use xlink:href="#DejaVuSans-30"/>
       <use x="63.623047" xlink:href="#DejaVuSans-2e"/>
       <use x="95.410156" xlink:href="#DejaVuSans-30"/>
       <use x="159.033203" xlink:href="#DejaVuSans-30"/>
       <use x="222.65625" xlink:href="#DejaVuSans-30"/>
       <use x="286.279297" xlink:href="#DejaVuSans-30"/>
       <use x="349.902344" xlink:href="#DejaVuSans-30"/>
       <use x="413.525391" xlink:href="#DejaVuSans-30"/>
       <use x="477.148438" xlink:href="#DejaVuSans-37"/>
       <use x="540.771484" xlink:href="#DejaVuSans-35"/>
      </g>
     </g>
    </g>
    <g id="ytick_20">
     <g id="line2d_38">
      <g>
       <use style="stroke:#000000;stroke-width:0.8;" x="580.658824" xlink:href="#m11e41c37df" y="135.122848"/>
      </g>
     </g>
     <g id="text_42">
      <!-- 0.00000100 -->
      <g transform="translate(513.218199 138.922066)scale(0.1 -0.1)">
       <use xlink:href="#DejaVuSans-30"/>
       <use x="63.623047" xlink:href="#DejaVuSans-2e"/>
       <use x="95.410156" xlink:href="#DejaVuSans-30"/>
       <use x="159.033203" xlink:href="#DejaVuSans-30"/>
       <use x="222.65625" xlink:href="#DejaVuSans-30"/>
       <use x="286.279297" xlink:href="#DejaVuSans-30"/>
       <use x="349.902344" xlink:href="#DejaVuSans-30"/>
       <use x="413.525391" xlink:href="#DejaVuSans-31"/>
       <use x="477.148438" xlink:href="#DejaVuSans-30"/>
       <use x="540.771484" xlink:href="#DejaVuSans-30"/>
      </g>
     </g>
    </g>
    <g id="ytick_21">
     <g id="line2d_39">
      <g>
       <use style="stroke:#000000;stroke-width:0.8;" x="580.658824" xlink:href="#m11e41c37df" y="105.903559"/>
      </g>
     </g>
     <g id="text_43">
      <!-- 0.00000125 -->
      <g transform="translate(513.218199 109.702778)scale(0.1 -0.1)">
       <use xlink:href="#DejaVuSans-30"/>
       <use x="63.623047" xlink:href="#DejaVuSans-2e"/>
       <use x="95.410156" xlink:href="#DejaVuSans-30"/>
       <use x="159.033203" xlink:href="#DejaVuSans-30"/>
       <use x="222.65625" xlink:href="#DejaVuSans-30"/>
       <use x="286.279297" xlink:href="#DejaVuSans-30"/>
       <use x="349.902344" xlink:href="#DejaVuSans-30"/>
       <use x="413.525391" xlink:href="#DejaVuSans-31"/>
       <use x="477.148438" xlink:href="#DejaVuSans-32"/>
       <use x="540.771484" xlink:href="#DejaVuSans-35"/>
      </g>
     </g>
    </g>
    <g id="ytick_22">
     <g id="line2d_40">
      <g>
       <use style="stroke:#000000;stroke-width:0.8;" x="580.658824" xlink:href="#m11e41c37df" y="76.684271"/>
      </g>
     </g>
     <g id="text_44">
      <!-- 0.00000150 -->
      <g transform="translate(513.218199 80.48349)scale(0.1 -0.1)">
       <use xlink:href="#DejaVuSans-30"/>
       <use x="63.623047" xlink:href="#DejaVuSans-2e"/>
       <use x="95.410156" xlink:href="#DejaVuSans-30"/>
       <use x="159.033203" xlink:href="#DejaVuSans-30"/>
       <use x="222.65625" xlink:href="#DejaVuSans-30"/>
       <use x="286.279297" xlink:href="#DejaVuSans-30"/>
       <use x="349.902344" xlink:href="#DejaVuSans-30"/>
       <use x="413.525391" xlink:href="#DejaVuSans-31"/>
       <use x="477.148438" xlink:href="#DejaVuSans-35"/>
       <use x="540.771484" xlink:href="#DejaVuSans-30"/>
      </g>
     </g>
    </g>
    <g id="ytick_23">
     <g id="line2d_41">
      <g>
       <use style="stroke:#000000;stroke-width:0.8;" x="580.658824" xlink:href="#m11e41c37df" y="47.464983"/>
      </g>
     </g>
     <g id="text_45">
      <!-- 0.00000175 -->
      <g transform="translate(513.218199 51.264202)scale(0.1 -0.1)">
       <use xlink:href="#DejaVuSans-30"/>
       <use x="63.623047" xlink:href="#DejaVuSans-2e"/>
       <use x="95.410156" xlink:href="#DejaVuSans-30"/>
       <use x="159.033203" xlink:href="#DejaVuSans-30"/>
       <use x="222.65625" xlink:href="#DejaVuSans-30"/>
       <use x="286.279297" xlink:href="#DejaVuSans-30"/>
       <use x="349.902344" xlink:href="#DejaVuSans-30"/>
       <use x="413.525391" xlink:href="#DejaVuSans-31"/>
       <use x="477.148438" xlink:href="#DejaVuSans-37"/>
       <use x="540.771484" xlink:href="#DejaVuSans-35"/>
      </g>
     </g>
    </g>
   </g>
   <g id="line2d_42">
    <path clip-path="url(#p41409a4fb7)" d="M 589.610695 249.50246 
L 591.020439 226.188795 
L 593.839926 59.529077 
L 596.659413 203.702925 
L 598.069157 223.538975 
L 599.4789 223.538751 
L 600.888644 221.126707 
L 602.298387 224.372689 
L 603.708131 230.552267 
L 605.117874 234.845651 
L 606.527618 238.288262 
L 607.937362 242.324265 
L 609.347105 245.268772 
L 610.756849 245.706925 
L 612.166592 247.929308 
L 613.576336 250.381667 
L 614.986079 250.868079 
L 616.395823 250.362751 
L 617.805567 250.112669 
L 619.21531 250.272469 
L 620.625054 251.135964 
L 622.034797 251.394507 
L 623.444541 251.429975 
L 624.854284 251.63402 
L 626.264028 251.483855 
L 627.673772 251.455997 
L 629.083515 251.779664 
L 630.493259 251.716145 
L 631.903002 251.356189 
L 636.132233 251.451506 
L 637.541977 251.808094 
L 638.95172 251.977891 
L 646.000438 251.981889 
L 647.410181 251.815448 
L 648.819925 251.476493 
L 650.229669 251.467107 
L 651.639412 251.642971 
L 653.049156 251.457444 
L 654.458899 251.487071 
L 655.868643 251.823465 
L 657.278386 251.982558 
L 668.556335 252 
L 761.599411 251.973851 
L 763.009154 251.757906 
L 764.418898 251.387315 
L 768.648128 251.962337 
L 768.648128 251.962337 
" style="fill:none;stroke:#1f77b4;stroke-linecap:square;stroke-width:1.5;"/>
   </g>
   <g id="patch_121">
    <path d="M 580.658824 252 
L 580.658824 34.56 
" style="fill:none;stroke:#000000;stroke-linecap:square;stroke-linejoin:miter;stroke-width:0.8;"/>
   </g>
   <g id="patch_122">
    <path d="M 777.6 252 
L 777.6 34.56 
" style="fill:none;stroke:#000000;stroke-linecap:square;stroke-linejoin:miter;stroke-width:0.8;"/>
   </g>
   <g id="patch_123">
    <path d="M 580.658824 252 
L 777.6 252 
" style="fill:none;stroke:#000000;stroke-linecap:square;stroke-linejoin:miter;stroke-width:0.8;"/>
   </g>
   <g id="patch_124">
    <path d="M 580.658824 34.56 
L 777.6 34.56 
" style="fill:none;stroke:#000000;stroke-linecap:square;stroke-linejoin:miter;stroke-width:0.8;"/>
   </g>
   <g id="text_46">
    <!-- skewness: 10.355241349505134 -->
    <g transform="translate(579.455349 28.56)scale(0.12 -0.12)">
     <use xlink:href="#DejaVuSans-73"/>
     <use x="52.099609" xlink:href="#DejaVuSans-6b"/>
     <use x="109.962891" xlink:href="#DejaVuSans-65"/>
     <use x="171.486328" xlink:href="#DejaVuSans-77"/>
     <use x="253.273438" xlink:href="#DejaVuSans-6e"/>
     <use x="316.652344" xlink:href="#DejaVuSans-65"/>
     <use x="378.175781" xlink:href="#DejaVuSans-73"/>
     <use x="430.275391" xlink:href="#DejaVuSans-73"/>
     <use x="482.375" xlink:href="#DejaVuSans-3a"/>
     <use x="516.066406" xlink:href="#DejaVuSans-20"/>
     <use x="547.853516" xlink:href="#DejaVuSans-31"/>
     <use x="611.476562" xlink:href="#DejaVuSans-30"/>
     <use x="675.099609" xlink:href="#DejaVuSans-2e"/>
     <use x="706.886719" xlink:href="#DejaVuSans-33"/>
     <use x="770.509766" xlink:href="#DejaVuSans-35"/>
     <use x="834.132812" xlink:href="#DejaVuSans-35"/>
     <use x="897.755859" xlink:href="#DejaVuSans-32"/>
     <use x="961.378906" xlink:href="#DejaVuSans-34"/>
     <use x="1025.001953" xlink:href="#DejaVuSans-31"/>
     <use x="1088.625" xlink:href="#DejaVuSans-33"/>
     <use x="1152.248047" xlink:href="#DejaVuSans-34"/>
     <use x="1215.871094" xlink:href="#DejaVuSans-39"/>
     <use x="1279.494141" xlink:href="#DejaVuSans-35"/>
     <use x="1343.117188" xlink:href="#DejaVuSans-30"/>
     <use x="1406.740234" xlink:href="#DejaVuSans-35"/>
     <use x="1470.363281" xlink:href="#DejaVuSans-31"/>
     <use x="1533.986328" xlink:href="#DejaVuSans-33"/>
     <use x="1597.609375" xlink:href="#DejaVuSans-34"/>
    </g>
   </g>
  </g>
 </g>
 <defs>
  <clipPath id="p40a141bc32">
   <rect height="217.44" width="196.941176" x="108" y="34.56"/>
  </clipPath>
  <clipPath id="p4d5cb71f9a">
   <rect height="217.44" width="196.941176" x="344.329412" y="34.56"/>
  </clipPath>
  <clipPath id="p41409a4fb7">
   <rect height="217.44" width="196.941176" x="580.658824" y="34.56"/>
  </clipPath>
 </defs>
</svg>
