<?xml version="1.0" encoding="utf-8" standalone="no"?>
<!DOCTYPE svg PUBLIC "-//W3C//DTD SVG 1.1//EN"
  "http://www.w3.org/Graphics/SVG/1.1/DTD/svg11.dtd">
<!-- Created with matplotlib (http://matplotlib.org/) -->
<svg height="216pt" version="1.1" viewBox="0 0 864 216" width="864pt" xmlns="http://www.w3.org/2000/svg" xmlns:xlink="http://www.w3.org/1999/xlink">
 <defs>
  <style type="text/css">
*{stroke-linecap:butt;stroke-linejoin:round;}
  </style>
 </defs>
 <g id="figure_1">
  <g id="patch_1">
   <path d="M 0 216 
L 864 216 
L 864 0 
L 0 0 
z
" style="fill:#ffffff;"/>
  </g>
  <g id="axes_1">
   <g id="patch_2">
    <path d="M 108 189 
L 777.6 189 
L 777.6 25.92 
L 108 25.92 
z
" style="fill:#eaeaf2;"/>
   </g>
   <g id="matplotlib.axis_1">
    <g id="xtick_1">
     <g id="line2d_1"/>
     <g id="text_1">
      <!-- −40 -->
      <defs>
       <path d="M 52.828125 31.203125 
L 5.5625 31.203125 
L 5.5625 39.40625 
L 52.828125 39.40625 
z
" id="ArialMT-2212"/>
       <path d="M 32.328125 0 
L 32.328125 17.140625 
L 1.265625 17.140625 
L 1.265625 25.203125 
L 33.9375 71.578125 
L 41.109375 71.578125 
L 41.109375 25.203125 
L 50.78125 25.203125 
L 50.78125 17.140625 
L 41.109375 17.140625 
L 41.109375 0 
z
M 32.328125 25.203125 
L 32.328125 57.46875 
L 9.90625 25.203125 
z
" id="ArialMT-34"/>
       <path d="M 4.15625 35.296875 
Q 4.15625 48 6.765625 55.734375 
Q 9.375 63.484375 14.515625 67.671875 
Q 19.671875 71.875 27.484375 71.875 
Q 33.25 71.875 37.59375 69.546875 
Q 41.9375 67.234375 44.765625 62.859375 
Q 47.609375 58.5 49.21875 52.21875 
Q 50.828125 45.953125 50.828125 35.296875 
Q 50.828125 22.703125 48.234375 14.96875 
Q 45.65625 7.234375 40.5 3 
Q 35.359375 -1.21875 27.484375 -1.21875 
Q 17.140625 -1.21875 11.234375 6.203125 
Q 4.15625 15.140625 4.15625 35.296875 
z
M 13.1875 35.296875 
Q 13.1875 17.671875 17.3125 11.828125 
Q 21.4375 6 27.484375 6 
Q 33.546875 6 37.671875 11.859375 
Q 41.796875 17.71875 41.796875 35.296875 
Q 41.796875 52.984375 37.671875 58.78125 
Q 33.546875 64.59375 27.390625 64.59375 
Q 21.34375 64.59375 17.71875 59.46875 
Q 13.1875 52.9375 13.1875 35.296875 
z
" id="ArialMT-30"/>
      </defs>
      <g style="fill:#262626;" transform="translate(109.500284 203.157813)scale(0.1 -0.1)">
       <use xlink:href="#ArialMT-2212"/>
       <use x="58.398438" xlink:href="#ArialMT-34"/>
       <use x="114.013672" xlink:href="#ArialMT-30"/>
      </g>
     </g>
    </g>
    <g id="xtick_2">
     <g id="line2d_2"/>
     <g id="text_2">
      <!-- −30 -->
      <defs>
       <path d="M 4.203125 18.890625 
L 12.984375 20.0625 
Q 14.5 12.59375 18.140625 9.296875 
Q 21.78125 6 27 6 
Q 33.203125 6 37.46875 10.296875 
Q 41.75 14.59375 41.75 20.953125 
Q 41.75 27 37.796875 30.921875 
Q 33.84375 34.859375 27.734375 34.859375 
Q 25.25 34.859375 21.53125 33.890625 
L 22.515625 41.609375 
Q 23.390625 41.5 23.921875 41.5 
Q 29.546875 41.5 34.03125 44.421875 
Q 38.53125 47.359375 38.53125 53.46875 
Q 38.53125 58.296875 35.25 61.46875 
Q 31.984375 64.65625 26.8125 64.65625 
Q 21.6875 64.65625 18.265625 61.421875 
Q 14.84375 58.203125 13.875 51.765625 
L 5.078125 53.328125 
Q 6.6875 62.15625 12.390625 67.015625 
Q 18.109375 71.875 26.609375 71.875 
Q 32.46875 71.875 37.390625 69.359375 
Q 42.328125 66.84375 44.9375 62.5 
Q 47.5625 58.15625 47.5625 53.265625 
Q 47.5625 48.640625 45.0625 44.828125 
Q 42.578125 41.015625 37.703125 38.765625 
Q 44.046875 37.3125 47.5625 32.6875 
Q 51.078125 28.078125 51.078125 21.140625 
Q 51.078125 11.765625 44.234375 5.25 
Q 37.40625 -1.265625 26.953125 -1.265625 
Q 17.53125 -1.265625 11.296875 4.34375 
Q 5.078125 9.96875 4.203125 18.890625 
z
" id="ArialMT-33"/>
      </defs>
      <g style="fill:#262626;" transform="translate(190.080152 203.157813)scale(0.1 -0.1)">
       <use xlink:href="#ArialMT-2212"/>
       <use x="58.398438" xlink:href="#ArialMT-33"/>
       <use x="114.013672" xlink:href="#ArialMT-30"/>
      </g>
     </g>
    </g>
    <g id="xtick_3">
     <g id="line2d_3"/>
     <g id="text_3">
      <!-- −20 -->
      <defs>
       <path d="M 50.34375 8.453125 
L 50.34375 0 
L 3.03125 0 
Q 2.9375 3.171875 4.046875 6.109375 
Q 5.859375 10.9375 9.828125 15.625 
Q 13.8125 20.3125 21.34375 26.46875 
Q 33.015625 36.03125 37.109375 41.625 
Q 41.21875 47.21875 41.21875 52.203125 
Q 41.21875 57.421875 37.46875 61 
Q 33.734375 64.59375 27.734375 64.59375 
Q 21.390625 64.59375 17.578125 60.78125 
Q 13.765625 56.984375 13.71875 50.25 
L 4.6875 51.171875 
Q 5.609375 61.28125 11.65625 66.578125 
Q 17.71875 71.875 27.9375 71.875 
Q 38.234375 71.875 44.234375 66.15625 
Q 50.25 60.453125 50.25 52 
Q 50.25 47.703125 48.484375 43.546875 
Q 46.734375 39.40625 42.65625 34.8125 
Q 38.578125 30.21875 29.109375 22.21875 
Q 21.1875 15.578125 18.9375 13.203125 
Q 16.703125 10.84375 15.234375 8.453125 
z
" id="ArialMT-32"/>
      </defs>
      <g style="fill:#262626;" transform="translate(270.66002 203.157813)scale(0.1 -0.1)">
       <use xlink:href="#ArialMT-2212"/>
       <use x="58.398438" xlink:href="#ArialMT-32"/>
       <use x="114.013672" xlink:href="#ArialMT-30"/>
      </g>
     </g>
    </g>
    <g id="xtick_4">
     <g id="line2d_4"/>
     <g id="text_4">
      <!-- −10 -->
      <defs>
       <path d="M 37.25 0 
L 28.46875 0 
L 28.46875 56 
Q 25.296875 52.984375 20.140625 49.953125 
Q 14.984375 46.921875 10.890625 45.40625 
L 10.890625 53.90625 
Q 18.265625 57.375 23.78125 62.296875 
Q 29.296875 67.234375 31.59375 71.875 
L 37.25 71.875 
z
" id="ArialMT-31"/>
      </defs>
      <g style="fill:#262626;" transform="translate(351.239888 203.157813)scale(0.1 -0.1)">
       <use xlink:href="#ArialMT-2212"/>
       <use x="58.398438" xlink:href="#ArialMT-31"/>
       <use x="114.013672" xlink:href="#ArialMT-30"/>
      </g>
     </g>
    </g>
    <g id="xtick_5">
     <g id="line2d_5"/>
     <g id="text_5">
      <!-- 0 -->
      <g style="fill:#262626;" transform="translate(437.520538 203.157813)scale(0.1 -0.1)">
       <use xlink:href="#ArialMT-30"/>
      </g>
     </g>
    </g>
    <g id="xtick_6">
     <g id="line2d_6"/>
     <g id="text_6">
      <!-- 10 -->
      <g style="fill:#262626;" transform="translate(515.319937 203.157813)scale(0.1 -0.1)">
       <use xlink:href="#ArialMT-31"/>
       <use x="55.615234" xlink:href="#ArialMT-30"/>
      </g>
     </g>
    </g>
    <g id="xtick_7">
     <g id="line2d_7"/>
     <g id="text_7">
      <!-- 20 -->
      <g style="fill:#262626;" transform="translate(595.899805 203.157813)scale(0.1 -0.1)">
       <use xlink:href="#ArialMT-32"/>
       <use x="55.615234" xlink:href="#ArialMT-30"/>
      </g>
     </g>
    </g>
    <g id="xtick_8">
     <g id="line2d_8"/>
     <g id="text_8">
      <!-- 30 -->
      <g style="fill:#262626;" transform="translate(676.479673 203.157813)scale(0.1 -0.1)">
       <use xlink:href="#ArialMT-33"/>
       <use x="55.615234" xlink:href="#ArialMT-30"/>
      </g>
     </g>
    </g>
    <g id="xtick_9">
     <g id="line2d_9"/>
     <g id="text_9">
      <!-- 40 -->
      <g style="fill:#262626;" transform="translate(757.059541 203.157813)scale(0.1 -0.1)">
       <use xlink:href="#ArialMT-34"/>
       <use x="55.615234" xlink:href="#ArialMT-30"/>
      </g>
     </g>
    </g>
   </g>
   <g id="matplotlib.axis_2">
    <g id="ytick_1">
     <g id="line2d_10"/>
     <g id="text_10">
      <!-- 0.00 -->
      <defs>
       <path d="M 9.078125 0 
L 9.078125 10.015625 
L 19.09375 10.015625 
L 19.09375 0 
z
" id="ArialMT-2e"/>
      </defs>
      <g style="fill:#262626;" transform="translate(81.539062 192.578906)scale(0.1 -0.1)">
       <use xlink:href="#ArialMT-30"/>
       <use x="55.615234" xlink:href="#ArialMT-2e"/>
       <use x="83.398438" xlink:href="#ArialMT-30"/>
       <use x="139.013672" xlink:href="#ArialMT-30"/>
      </g>
     </g>
    </g>
    <g id="ytick_2">
     <g id="line2d_11"/>
     <g id="text_11">
      <!-- 0.01 -->
      <g style="fill:#262626;" transform="translate(81.539062 161.741296)scale(0.1 -0.1)">
       <use xlink:href="#ArialMT-30"/>
       <use x="55.615234" xlink:href="#ArialMT-2e"/>
       <use x="83.398438" xlink:href="#ArialMT-30"/>
       <use x="139.013672" xlink:href="#ArialMT-31"/>
      </g>
     </g>
    </g>
    <g id="ytick_3">
     <g id="line2d_12"/>
     <g id="text_12">
      <!-- 0.02 -->
      <g style="fill:#262626;" transform="translate(81.539062 130.903687)scale(0.1 -0.1)">
       <use xlink:href="#ArialMT-30"/>
       <use x="55.615234" xlink:href="#ArialMT-2e"/>
       <use x="83.398438" xlink:href="#ArialMT-30"/>
       <use x="139.013672" xlink:href="#ArialMT-32"/>
      </g>
     </g>
    </g>
    <g id="ytick_4">
     <g id="line2d_13"/>
     <g id="text_13">
      <!-- 0.03 -->
      <g style="fill:#262626;" transform="translate(81.539062 100.066077)scale(0.1 -0.1)">
       <use xlink:href="#ArialMT-30"/>
       <use x="55.615234" xlink:href="#ArialMT-2e"/>
       <use x="83.398438" xlink:href="#ArialMT-30"/>
       <use x="139.013672" xlink:href="#ArialMT-33"/>
      </g>
     </g>
    </g>
    <g id="ytick_5">
     <g id="line2d_14"/>
     <g id="text_14">
      <!-- 0.04 -->
      <g style="fill:#262626;" transform="translate(81.539062 69.228467)scale(0.1 -0.1)">
       <use xlink:href="#ArialMT-30"/>
       <use x="55.615234" xlink:href="#ArialMT-2e"/>
       <use x="83.398438" xlink:href="#ArialMT-30"/>
       <use x="139.013672" xlink:href="#ArialMT-34"/>
      </g>
     </g>
    </g>
    <g id="ytick_6">
     <g id="line2d_15"/>
     <g id="text_15">
      <!-- 0.05 -->
      <defs>
       <path d="M 4.15625 18.75 
L 13.375 19.53125 
Q 14.40625 12.796875 18.140625 9.390625 
Q 21.875 6 27.15625 6 
Q 33.5 6 37.890625 10.78125 
Q 42.28125 15.578125 42.28125 23.484375 
Q 42.28125 31 38.0625 35.34375 
Q 33.84375 39.703125 27 39.703125 
Q 22.75 39.703125 19.328125 37.765625 
Q 15.921875 35.84375 13.96875 32.765625 
L 5.71875 33.84375 
L 12.640625 70.609375 
L 48.25 70.609375 
L 48.25 62.203125 
L 19.671875 62.203125 
L 15.828125 42.96875 
Q 22.265625 47.46875 29.34375 47.46875 
Q 38.71875 47.46875 45.15625 40.96875 
Q 51.609375 34.46875 51.609375 24.265625 
Q 51.609375 14.546875 45.953125 7.46875 
Q 39.0625 -1.21875 27.15625 -1.21875 
Q 17.390625 -1.21875 11.203125 4.25 
Q 5.03125 9.71875 4.15625 18.75 
z
" id="ArialMT-35"/>
      </defs>
      <g style="fill:#262626;" transform="translate(81.539062 38.390857)scale(0.1 -0.1)">
       <use xlink:href="#ArialMT-30"/>
       <use x="55.615234" xlink:href="#ArialMT-2e"/>
       <use x="83.398438" xlink:href="#ArialMT-30"/>
       <use x="139.013672" xlink:href="#ArialMT-35"/>
      </g>
     </g>
    </g>
   </g>
   <g id="patch_3">
    <path clip-path="url(#pfc2f1d9963)" d="M 226.811999 189 
L 241.211199 189 
L 241.211199 163.114286 
L 226.811999 163.114286 
z
" style="fill:#4c72b0;opacity:0.4;"/>
   </g>
   <g id="patch_4">
    <path clip-path="url(#pfc2f1d9963)" d="M 241.211199 189 
L 255.610399 189 
L 255.610399 171.742857 
L 241.211199 171.742857 
z
" style="fill:#4c72b0;opacity:0.4;"/>
   </g>
   <g id="patch_5">
    <path clip-path="url(#pfc2f1d9963)" d="M 255.610399 189 
L 270.009599 189 
L 270.009599 163.114286 
L 255.610399 163.114286 
z
" style="fill:#4c72b0;opacity:0.4;"/>
   </g>
   <g id="patch_6">
    <path clip-path="url(#pfc2f1d9963)" d="M 270.009599 189 
L 284.408799 189 
L 284.408799 163.114286 
L 270.009599 163.114286 
z
" style="fill:#4c72b0;opacity:0.4;"/>
   </g>
   <g id="patch_7">
    <path clip-path="url(#pfc2f1d9963)" d="M 284.408799 189 
L 298.807999 189 
L 298.807999 154.485714 
L 284.408799 154.485714 
z
" style="fill:#4c72b0;opacity:0.4;"/>
   </g>
   <g id="patch_8">
    <path clip-path="url(#pfc2f1d9963)" d="M 298.807999 189 
L 313.207199 189 
L 313.207199 180.371429 
L 298.807999 180.371429 
z
" style="fill:#4c72b0;opacity:0.4;"/>
   </g>
   <g id="patch_9">
    <path clip-path="url(#pfc2f1d9963)" d="M 313.207199 189 
L 327.606399 189 
L 327.606399 137.228571 
L 313.207199 137.228571 
z
" style="fill:#4c72b0;opacity:0.4;"/>
   </g>
   <g id="patch_10">
    <path clip-path="url(#pfc2f1d9963)" d="M 327.606399 189 
L 342.005599 189 
L 342.005599 137.228571 
L 327.606399 137.228571 
z
" style="fill:#4c72b0;opacity:0.4;"/>
   </g>
   <g id="patch_11">
    <path clip-path="url(#pfc2f1d9963)" d="M 342.005599 189 
L 356.404799 189 
L 356.404799 111.342857 
L 342.005599 111.342857 
z
" style="fill:#4c72b0;opacity:0.4;"/>
   </g>
   <g id="patch_12">
    <path clip-path="url(#pfc2f1d9963)" d="M 356.404799 189 
L 370.804 189 
L 370.804 137.228571 
L 356.404799 137.228571 
z
" style="fill:#4c72b0;opacity:0.4;"/>
   </g>
   <g id="patch_13">
    <path clip-path="url(#pfc2f1d9963)" d="M 370.804 189 
L 385.2032 189 
L 385.2032 94.085714 
L 370.804 94.085714 
z
" style="fill:#4c72b0;opacity:0.4;"/>
   </g>
   <g id="patch_14">
    <path clip-path="url(#pfc2f1d9963)" d="M 385.2032 189 
L 399.6024 189 
L 399.6024 102.714286 
L 385.2032 102.714286 
z
" style="fill:#4c72b0;opacity:0.4;"/>
   </g>
   <g id="patch_15">
    <path clip-path="url(#pfc2f1d9963)" d="M 399.6024 189 
L 414.0016 189 
L 414.0016 85.457143 
L 399.6024 85.457143 
z
" style="fill:#4c72b0;opacity:0.4;"/>
   </g>
   <g id="patch_16">
    <path clip-path="url(#pfc2f1d9963)" d="M 414.0016 189 
L 428.4008 189 
L 428.4008 59.571429 
L 414.0016 59.571429 
z
" style="fill:#4c72b0;opacity:0.4;"/>
   </g>
   <g id="patch_17">
    <path clip-path="url(#pfc2f1d9963)" d="M 428.4008 189 
L 442.8 189 
L 442.8 33.685714 
L 428.4008 33.685714 
z
" style="fill:#4c72b0;opacity:0.4;"/>
   </g>
   <g id="patch_18">
    <path clip-path="url(#pfc2f1d9963)" d="M 442.8 189 
L 457.1992 189 
L 457.1992 85.457143 
L 442.8 85.457143 
z
" style="fill:#4c72b0;opacity:0.4;"/>
   </g>
   <g id="patch_19">
    <path clip-path="url(#pfc2f1d9963)" d="M 457.1992 189 
L 471.5984 189 
L 471.5984 68.2 
L 457.1992 68.2 
z
" style="fill:#4c72b0;opacity:0.4;"/>
   </g>
   <g id="patch_20">
    <path clip-path="url(#pfc2f1d9963)" d="M 471.5984 189 
L 485.9976 189 
L 485.9976 76.828571 
L 471.5984 76.828571 
z
" style="fill:#4c72b0;opacity:0.4;"/>
   </g>
   <g id="patch_21">
    <path clip-path="url(#pfc2f1d9963)" d="M 485.9976 189 
L 500.3968 189 
L 500.3968 137.228571 
L 485.9976 137.228571 
z
" style="fill:#4c72b0;opacity:0.4;"/>
   </g>
   <g id="patch_22">
    <path clip-path="url(#pfc2f1d9963)" d="M 500.3968 189 
L 514.796 189 
L 514.796 102.714286 
L 500.3968 102.714286 
z
" style="fill:#4c72b0;opacity:0.4;"/>
   </g>
   <g id="patch_23">
    <path clip-path="url(#pfc2f1d9963)" d="M 514.796 189 
L 529.195201 189 
L 529.195201 102.714286 
L 514.796 102.714286 
z
" style="fill:#4c72b0;opacity:0.4;"/>
   </g>
   <g id="patch_24">
    <path clip-path="url(#pfc2f1d9963)" d="M 529.195201 189 
L 543.594401 189 
L 543.594401 145.857143 
L 529.195201 145.857143 
z
" style="fill:#4c72b0;opacity:0.4;"/>
   </g>
   <g id="patch_25">
    <path clip-path="url(#pfc2f1d9963)" d="M 543.594401 189 
L 557.993601 189 
L 557.993601 111.342857 
L 543.594401 111.342857 
z
" style="fill:#4c72b0;opacity:0.4;"/>
   </g>
   <g id="patch_26">
    <path clip-path="url(#pfc2f1d9963)" d="M 557.993601 189 
L 572.392801 189 
L 572.392801 145.857143 
L 557.993601 145.857143 
z
" style="fill:#4c72b0;opacity:0.4;"/>
   </g>
   <g id="patch_27">
    <path clip-path="url(#pfc2f1d9963)" d="M 572.392801 189 
L 586.792001 189 
L 586.792001 145.857143 
L 572.392801 145.857143 
z
" style="fill:#4c72b0;opacity:0.4;"/>
   </g>
   <g id="patch_28">
    <path clip-path="url(#pfc2f1d9963)" d="M 586.792001 189 
L 601.191201 189 
L 601.191201 180.371429 
L 586.792001 180.371429 
z
" style="fill:#4c72b0;opacity:0.4;"/>
   </g>
   <g id="patch_29">
    <path clip-path="url(#pfc2f1d9963)" d="M 601.191201 189 
L 615.590401 189 
L 615.590401 189 
L 601.191201 189 
z
" style="fill:#4c72b0;opacity:0.4;"/>
   </g>
   <g id="patch_30">
    <path clip-path="url(#pfc2f1d9963)" d="M 615.590401 189 
L 629.989601 189 
L 629.989601 189 
L 615.590401 189 
z
" style="fill:#4c72b0;opacity:0.4;"/>
   </g>
   <g id="patch_31">
    <path clip-path="url(#pfc2f1d9963)" d="M 629.989601 189 
L 644.388801 189 
L 644.388801 189 
L 629.989601 189 
z
" style="fill:#4c72b0;opacity:0.4;"/>
   </g>
   <g id="patch_32">
    <path clip-path="url(#pfc2f1d9963)" d="M 644.388801 189 
L 658.788001 189 
L 658.788001 180.371429 
L 644.388801 180.371429 
z
" style="fill:#4c72b0;opacity:0.4;"/>
   </g>
   <g id="line2d_16">
    <path clip-path="url(#pfc2f1d9963)" d="M 138.436364 188.948529 
L 152.815748 188.833336 
L 162.402004 188.61965 
L 171.988261 188.198979 
L 181.574517 187.453853 
L 186.367645 186.919804 
L 191.160773 186.25898 
L 195.953901 185.460827 
L 200.747029 184.519516 
L 205.540157 183.435103 
L 210.333286 182.214255 
L 219.919542 179.423196 
L 229.505798 176.321281 
L 243.885183 171.577017 
L 253.471439 168.628697 
L 263.057695 165.935568 
L 282.230208 160.802644 
L 287.023336 159.378731 
L 291.816464 157.819993 
L 296.609592 156.092454 
L 301.40272 154.170872 
L 306.195848 152.041391 
L 310.988976 149.702922 
L 315.782105 147.166886 
L 320.575233 144.455234 
L 330.161489 138.623563 
L 339.747745 132.442185 
L 349.334001 126.052993 
L 358.920258 119.448672 
L 368.506514 112.526358 
L 378.09277 105.21205 
L 402.058411 86.24347 
L 406.851539 82.764862 
L 411.644667 79.581816 
L 416.437795 76.789768 
L 421.230923 74.482206 
L 426.024052 72.743934 
L 430.81718 71.643965 
L 435.610308 71.228867 
L 440.403436 71.517489 
L 445.196564 72.497852 
L 449.989692 74.12678 
L 454.78282 76.332436 
L 459.575948 79.019559 
L 464.369077 82.076848 
L 473.955333 88.829246 
L 483.541589 95.712386 
L 488.334717 98.996849 
L 493.127845 102.113501 
L 497.920974 105.046574 
L 502.714102 107.80311 
L 512.300358 112.902045 
L 531.47287 122.686531 
L 536.265999 125.301658 
L 541.059127 128.051149 
L 545.852255 130.955953 
L 550.645383 134.029291 
L 555.438511 137.275973 
L 560.231639 140.691349 
L 569.817895 147.955148 
L 588.990408 163.062957 
L 593.783536 166.617371 
L 598.576664 169.953488 
L 603.369792 173.015828 
L 608.162921 175.761165 
L 612.956049 178.161529 
L 617.749177 180.20573 
L 622.542305 181.899294 
L 627.335433 183.262895 
L 632.128561 184.329561 
L 636.921689 185.141053 
L 641.714817 185.743851 
L 646.507946 186.185207 
L 656.094202 186.756266 
L 680.059843 187.654911 
L 704.025483 188.473465 
L 718.404868 188.776002 
L 737.57738 188.942776 
L 747.163636 188.956753 
L 747.163636 188.956753 
" style="fill:none;stroke:#4c72b0;stroke-linecap:round;stroke-width:1.75;"/>
   </g>
   <g id="line2d_17">
    <path clip-path="url(#pfc2f1d9963)" d="M 464.854654 189 
L 464.854654 180.846 
" style="fill:none;stroke:#4c72b0;stroke-linecap:round;"/>
   </g>
   <g id="line2d_18">
    <path clip-path="url(#pfc2f1d9963)" d="M 490.253688 189 
L 490.253688 180.846 
" style="fill:none;stroke:#4c72b0;stroke-linecap:round;"/>
   </g>
   <g id="line2d_19">
    <path clip-path="url(#pfc2f1d9963)" d="M 451.823206 189 
L 451.823206 180.846 
" style="fill:none;stroke:#4c72b0;stroke-linecap:round;"/>
   </g>
   <g id="line2d_20">
    <path clip-path="url(#pfc2f1d9963)" d="M 226.811999 189 
L 226.811999 180.846 
" style="fill:none;stroke:#4c72b0;stroke-linecap:round;"/>
   </g>
   <g id="line2d_21">
    <path clip-path="url(#pfc2f1d9963)" d="M 476.753565 189 
L 476.753565 180.846 
" style="fill:none;stroke:#4c72b0;stroke-linecap:round;"/>
   </g>
   <g id="line2d_22">
    <path clip-path="url(#pfc2f1d9963)" d="M 342.905087 189 
L 342.905087 180.846 
" style="fill:none;stroke:#4c72b0;stroke-linecap:round;"/>
   </g>
   <g id="line2d_23">
    <path clip-path="url(#pfc2f1d9963)" d="M 442.334503 189 
L 442.334503 180.846 
" style="fill:none;stroke:#4c72b0;stroke-linecap:round;"/>
   </g>
   <g id="line2d_24">
    <path clip-path="url(#pfc2f1d9963)" d="M 508.902771 189 
L 508.902771 180.846 
" style="fill:none;stroke:#4c72b0;stroke-linecap:round;"/>
   </g>
   <g id="line2d_25">
    <path clip-path="url(#pfc2f1d9963)" d="M 359.332961 189 
L 359.332961 180.846 
" style="fill:none;stroke:#4c72b0;stroke-linecap:round;"/>
   </g>
   <g id="line2d_26">
    <path clip-path="url(#pfc2f1d9963)" d="M 315.119665 189 
L 315.119665 180.846 
" style="fill:none;stroke:#4c72b0;stroke-linecap:round;"/>
   </g>
   <g id="line2d_27">
    <path clip-path="url(#pfc2f1d9963)" d="M 449.2875 189 
L 449.2875 180.846 
" style="fill:none;stroke:#4c72b0;stroke-linecap:round;"/>
   </g>
   <g id="line2d_28">
    <path clip-path="url(#pfc2f1d9963)" d="M 317.007578 189 
L 317.007578 180.846 
" style="fill:none;stroke:#4c72b0;stroke-linecap:round;"/>
   </g>
   <g id="line2d_29">
    <path clip-path="url(#pfc2f1d9963)" d="M 547.524724 189 
L 547.524724 180.846 
" style="fill:none;stroke:#4c72b0;stroke-linecap:round;"/>
   </g>
   <g id="line2d_30">
    <path clip-path="url(#pfc2f1d9963)" d="M 393.877116 189 
L 393.877116 180.846 
" style="fill:none;stroke:#4c72b0;stroke-linecap:round;"/>
   </g>
   <g id="line2d_31">
    <path clip-path="url(#pfc2f1d9963)" d="M 514.640872 189 
L 514.640872 180.846 
" style="fill:none;stroke:#4c72b0;stroke-linecap:round;"/>
   </g>
   <g id="line2d_32">
    <path clip-path="url(#pfc2f1d9963)" d="M 378.801816 189 
L 378.801816 180.846 
" style="fill:none;stroke:#4c72b0;stroke-linecap:round;"/>
   </g>
   <g id="line2d_33">
    <path clip-path="url(#pfc2f1d9963)" d="M 401.724635 189 
L 401.724635 180.846 
" style="fill:none;stroke:#4c72b0;stroke-linecap:round;"/>
   </g>
   <g id="line2d_34">
    <path clip-path="url(#pfc2f1d9963)" d="M 575.634871 189 
L 575.634871 180.846 
" style="fill:none;stroke:#4c72b0;stroke-linecap:round;"/>
   </g>
   <g id="line2d_35">
    <path clip-path="url(#pfc2f1d9963)" d="M 432.26706 189 
L 432.26706 180.846 
" style="fill:none;stroke:#4c72b0;stroke-linecap:round;"/>
   </g>
   <g id="line2d_36">
    <path clip-path="url(#pfc2f1d9963)" d="M 548.614375 189 
L 548.614375 180.846 
" style="fill:none;stroke:#4c72b0;stroke-linecap:round;"/>
   </g>
   <g id="line2d_37">
    <path clip-path="url(#pfc2f1d9963)" d="M 475.681207 189 
L 475.681207 180.846 
" style="fill:none;stroke:#4c72b0;stroke-linecap:round;"/>
   </g>
   <g id="line2d_38">
    <path clip-path="url(#pfc2f1d9963)" d="M 431.008142 189 
L 431.008142 180.846 
" style="fill:none;stroke:#4c72b0;stroke-linecap:round;"/>
   </g>
   <g id="line2d_39">
    <path clip-path="url(#pfc2f1d9963)" d="M 361.532272 189 
L 361.532272 180.846 
" style="fill:none;stroke:#4c72b0;stroke-linecap:round;"/>
   </g>
   <g id="line2d_40">
    <path clip-path="url(#pfc2f1d9963)" d="M 357.535132 189 
L 357.535132 180.846 
" style="fill:none;stroke:#4c72b0;stroke-linecap:round;"/>
   </g>
   <g id="line2d_41">
    <path clip-path="url(#pfc2f1d9963)" d="M 508.758295 189 
L 508.758295 180.846 
" style="fill:none;stroke:#4c72b0;stroke-linecap:round;"/>
   </g>
   <g id="line2d_42">
    <path clip-path="url(#pfc2f1d9963)" d="M 480.32126 189 
L 480.32126 180.846 
" style="fill:none;stroke:#4c72b0;stroke-linecap:round;"/>
   </g>
   <g id="line2d_43">
    <path clip-path="url(#pfc2f1d9963)" d="M 465.544105 189 
L 465.544105 180.846 
" style="fill:none;stroke:#4c72b0;stroke-linecap:round;"/>
   </g>
   <g id="line2d_44">
    <path clip-path="url(#pfc2f1d9963)" d="M 485.936174 189 
L 485.936174 180.846 
" style="fill:none;stroke:#4c72b0;stroke-linecap:round;"/>
   </g>
   <g id="line2d_45">
    <path clip-path="url(#pfc2f1d9963)" d="M 436.077458 189 
L 436.077458 180.846 
" style="fill:none;stroke:#4c72b0;stroke-linecap:round;"/>
   </g>
   <g id="line2d_46">
    <path clip-path="url(#pfc2f1d9963)" d="M 508.511035 189 
L 508.511035 180.846 
" style="fill:none;stroke:#4c72b0;stroke-linecap:round;"/>
   </g>
   <g id="line2d_47">
    <path clip-path="url(#pfc2f1d9963)" d="M 425.722365 189 
L 425.722365 180.846 
" style="fill:none;stroke:#4c72b0;stroke-linecap:round;"/>
   </g>
   <g id="line2d_48">
    <path clip-path="url(#pfc2f1d9963)" d="M 442.173427 189 
L 442.173427 180.846 
" style="fill:none;stroke:#4c72b0;stroke-linecap:round;"/>
   </g>
   <g id="line2d_49">
    <path clip-path="url(#pfc2f1d9963)" d="M 430.265208 189 
L 430.265208 180.846 
" style="fill:none;stroke:#4c72b0;stroke-linecap:round;"/>
   </g>
   <g id="line2d_50">
    <path clip-path="url(#pfc2f1d9963)" d="M 536.64 189 
L 536.64 180.846 
" style="fill:none;stroke:#4c72b0;stroke-linecap:round;"/>
   </g>
   <g id="line2d_51">
    <path clip-path="url(#pfc2f1d9963)" d="M 387.127631 189 
L 387.127631 180.846 
" style="fill:none;stroke:#4c72b0;stroke-linecap:round;"/>
   </g>
   <g id="line2d_52">
    <path clip-path="url(#pfc2f1d9963)" d="M 402.190981 189 
L 402.190981 180.846 
" style="fill:none;stroke:#4c72b0;stroke-linecap:round;"/>
   </g>
   <g id="line2d_53">
    <path clip-path="url(#pfc2f1d9963)" d="M 414.559527 189 
L 414.559527 180.846 
" style="fill:none;stroke:#4c72b0;stroke-linecap:round;"/>
   </g>
   <g id="line2d_54">
    <path clip-path="url(#pfc2f1d9963)" d="M 563.724455 189 
L 563.724455 180.846 
" style="fill:none;stroke:#4c72b0;stroke-linecap:round;"/>
   </g>
   <g id="line2d_55">
    <path clip-path="url(#pfc2f1d9963)" d="M 482.99607 189 
L 482.99607 180.846 
" style="fill:none;stroke:#4c72b0;stroke-linecap:round;"/>
   </g>
   <g id="line2d_56">
    <path clip-path="url(#pfc2f1d9963)" d="M 433.514602 189 
L 433.514602 180.846 
" style="fill:none;stroke:#4c72b0;stroke-linecap:round;"/>
   </g>
   <g id="line2d_57">
    <path clip-path="url(#pfc2f1d9963)" d="M 437.051832 189 
L 437.051832 180.846 
" style="fill:none;stroke:#4c72b0;stroke-linecap:round;"/>
   </g>
   <g id="line2d_58">
    <path clip-path="url(#pfc2f1d9963)" d="M 320.066733 189 
L 320.066733 180.846 
" style="fill:none;stroke:#4c72b0;stroke-linecap:round;"/>
   </g>
   <g id="line2d_59">
    <path clip-path="url(#pfc2f1d9963)" d="M 556.767382 189 
L 556.767382 180.846 
" style="fill:none;stroke:#4c72b0;stroke-linecap:round;"/>
   </g>
   <g id="line2d_60">
    <path clip-path="url(#pfc2f1d9963)" d="M 260.54086 189 
L 260.54086 180.846 
" style="fill:none;stroke:#4c72b0;stroke-linecap:round;"/>
   </g>
   <g id="line2d_61">
    <path clip-path="url(#pfc2f1d9963)" d="M 544.229021 189 
L 544.229021 180.846 
" style="fill:none;stroke:#4c72b0;stroke-linecap:round;"/>
   </g>
   <g id="line2d_62">
    <path clip-path="url(#pfc2f1d9963)" d="M 343.711442 189 
L 343.711442 180.846 
" style="fill:none;stroke:#4c72b0;stroke-linecap:round;"/>
   </g>
   <g id="line2d_63">
    <path clip-path="url(#pfc2f1d9963)" d="M 511.210873 189 
L 511.210873 180.846 
" style="fill:none;stroke:#4c72b0;stroke-linecap:round;"/>
   </g>
   <g id="line2d_64">
    <path clip-path="url(#pfc2f1d9963)" d="M 481.924256 189 
L 481.924256 180.846 
" style="fill:none;stroke:#4c72b0;stroke-linecap:round;"/>
   </g>
   <g id="line2d_65">
    <path clip-path="url(#pfc2f1d9963)" d="M 450.348503 189 
L 450.348503 180.846 
" style="fill:none;stroke:#4c72b0;stroke-linecap:round;"/>
   </g>
   <g id="line2d_66">
    <path clip-path="url(#pfc2f1d9963)" d="M 547.744128 189 
L 547.744128 180.846 
" style="fill:none;stroke:#4c72b0;stroke-linecap:round;"/>
   </g>
   <g id="line2d_67">
    <path clip-path="url(#pfc2f1d9963)" d="M 427.314037 189 
L 427.314037 180.846 
" style="fill:none;stroke:#4c72b0;stroke-linecap:round;"/>
   </g>
   <g id="line2d_68">
    <path clip-path="url(#pfc2f1d9963)" d="M 337.503193 189 
L 337.503193 180.846 
" style="fill:none;stroke:#4c72b0;stroke-linecap:round;"/>
   </g>
   <g id="line2d_69">
    <path clip-path="url(#pfc2f1d9963)" d="M 372.115471 189 
L 372.115471 180.846 
" style="fill:none;stroke:#4c72b0;stroke-linecap:round;"/>
   </g>
   <g id="line2d_70">
    <path clip-path="url(#pfc2f1d9963)" d="M 387.053314 189 
L 387.053314 180.846 
" style="fill:none;stroke:#4c72b0;stroke-linecap:round;"/>
   </g>
   <g id="line2d_71">
    <path clip-path="url(#pfc2f1d9963)" d="M 490.891476 189 
L 490.891476 180.846 
" style="fill:none;stroke:#4c72b0;stroke-linecap:round;"/>
   </g>
   <g id="line2d_72">
    <path clip-path="url(#pfc2f1d9963)" d="M 475.526699 189 
L 475.526699 180.846 
" style="fill:none;stroke:#4c72b0;stroke-linecap:round;"/>
   </g>
   <g id="line2d_73">
    <path clip-path="url(#pfc2f1d9963)" d="M 510.846943 189 
L 510.846943 180.846 
" style="fill:none;stroke:#4c72b0;stroke-linecap:round;"/>
   </g>
   <g id="line2d_74">
    <path clip-path="url(#pfc2f1d9963)" d="M 266.244794 189 
L 266.244794 180.846 
" style="fill:none;stroke:#4c72b0;stroke-linecap:round;"/>
   </g>
   <g id="line2d_75">
    <path clip-path="url(#pfc2f1d9963)" d="M 389.652823 189 
L 389.652823 180.846 
" style="fill:none;stroke:#4c72b0;stroke-linecap:round;"/>
   </g>
   <g id="line2d_76">
    <path clip-path="url(#pfc2f1d9963)" d="M 658.788001 189 
L 658.788001 180.846 
" style="fill:none;stroke:#4c72b0;stroke-linecap:round;"/>
   </g>
   <g id="line2d_77">
    <path clip-path="url(#pfc2f1d9963)" d="M 389.068618 189 
L 389.068618 180.846 
" style="fill:none;stroke:#4c72b0;stroke-linecap:round;"/>
   </g>
   <g id="line2d_78">
    <path clip-path="url(#pfc2f1d9963)" d="M 321.985288 189 
L 321.985288 180.846 
" style="fill:none;stroke:#4c72b0;stroke-linecap:round;"/>
   </g>
   <g id="line2d_79">
    <path clip-path="url(#pfc2f1d9963)" d="M 386.918922 189 
L 386.918922 180.846 
" style="fill:none;stroke:#4c72b0;stroke-linecap:round;"/>
   </g>
   <g id="line2d_80">
    <path clip-path="url(#pfc2f1d9963)" d="M 504.095508 189 
L 504.095508 180.846 
" style="fill:none;stroke:#4c72b0;stroke-linecap:round;"/>
   </g>
   <g id="line2d_81">
    <path clip-path="url(#pfc2f1d9963)" d="M 437.818131 189 
L 437.818131 180.846 
" style="fill:none;stroke:#4c72b0;stroke-linecap:round;"/>
   </g>
   <g id="line2d_82">
    <path clip-path="url(#pfc2f1d9963)" d="M 419.230827 189 
L 419.230827 180.846 
" style="fill:none;stroke:#4c72b0;stroke-linecap:round;"/>
   </g>
   <g id="line2d_83">
    <path clip-path="url(#pfc2f1d9963)" d="M 562.063295 189 
L 562.063295 180.846 
" style="fill:none;stroke:#4c72b0;stroke-linecap:round;"/>
   </g>
   <g id="line2d_84">
    <path clip-path="url(#pfc2f1d9963)" d="M 271.001564 189 
L 271.001564 180.846 
" style="fill:none;stroke:#4c72b0;stroke-linecap:round;"/>
   </g>
   <g id="line2d_85">
    <path clip-path="url(#pfc2f1d9963)" d="M 427.934776 189 
L 427.934776 180.846 
" style="fill:none;stroke:#4c72b0;stroke-linecap:round;"/>
   </g>
   <g id="line2d_86">
    <path clip-path="url(#pfc2f1d9963)" d="M 503.29415 189 
L 503.29415 180.846 
" style="fill:none;stroke:#4c72b0;stroke-linecap:round;"/>
   </g>
   <g id="line2d_87">
    <path clip-path="url(#pfc2f1d9963)" d="M 539.937605 189 
L 539.937605 180.846 
" style="fill:none;stroke:#4c72b0;stroke-linecap:round;"/>
   </g>
   <g id="line2d_88">
    <path clip-path="url(#pfc2f1d9963)" d="M 262.76009 189 
L 262.76009 180.846 
" style="fill:none;stroke:#4c72b0;stroke-linecap:round;"/>
   </g>
   <g id="line2d_89">
    <path clip-path="url(#pfc2f1d9963)" d="M 479.744801 189 
L 479.744801 180.846 
" style="fill:none;stroke:#4c72b0;stroke-linecap:round;"/>
   </g>
   <g id="line2d_90">
    <path clip-path="url(#pfc2f1d9963)" d="M 340.799812 189 
L 340.799812 180.846 
" style="fill:none;stroke:#4c72b0;stroke-linecap:round;"/>
   </g>
   <g id="line2d_91">
    <path clip-path="url(#pfc2f1d9963)" d="M 534.378962 189 
L 534.378962 180.846 
" style="fill:none;stroke:#4c72b0;stroke-linecap:round;"/>
   </g>
   <g id="line2d_92">
    <path clip-path="url(#pfc2f1d9963)" d="M 408.900723 189 
L 408.900723 180.846 
" style="fill:none;stroke:#4c72b0;stroke-linecap:round;"/>
   </g>
   <g id="line2d_93">
    <path clip-path="url(#pfc2f1d9963)" d="M 440.04821 189 
L 440.04821 180.846 
" style="fill:none;stroke:#4c72b0;stroke-linecap:round;"/>
   </g>
   <g id="line2d_94">
    <path clip-path="url(#pfc2f1d9963)" d="M 287.338454 189 
L 287.338454 180.846 
" style="fill:none;stroke:#4c72b0;stroke-linecap:round;"/>
   </g>
   <g id="line2d_95">
    <path clip-path="url(#pfc2f1d9963)" d="M 384.544714 189 
L 384.544714 180.846 
" style="fill:none;stroke:#4c72b0;stroke-linecap:round;"/>
   </g>
   <g id="line2d_96">
    <path clip-path="url(#pfc2f1d9963)" d="M 292.905408 189 
L 292.905408 180.846 
" style="fill:none;stroke:#4c72b0;stroke-linecap:round;"/>
   </g>
   <g id="line2d_97">
    <path clip-path="url(#pfc2f1d9963)" d="M 547.034236 189 
L 547.034236 180.846 
" style="fill:none;stroke:#4c72b0;stroke-linecap:round;"/>
   </g>
   <g id="line2d_98">
    <path clip-path="url(#pfc2f1d9963)" d="M 349.562263 189 
L 349.562263 180.846 
" style="fill:none;stroke:#4c72b0;stroke-linecap:round;"/>
   </g>
   <g id="line2d_99">
    <path clip-path="url(#pfc2f1d9963)" d="M 458.071545 189 
L 458.071545 180.846 
" style="fill:none;stroke:#4c72b0;stroke-linecap:round;"/>
   </g>
   <g id="line2d_100">
    <path clip-path="url(#pfc2f1d9963)" d="M 397.741195 189 
L 397.741195 180.846 
" style="fill:none;stroke:#4c72b0;stroke-linecap:round;"/>
   </g>
   <g id="line2d_101">
    <path clip-path="url(#pfc2f1d9963)" d="M 410.470776 189 
L 410.470776 180.846 
" style="fill:none;stroke:#4c72b0;stroke-linecap:round;"/>
   </g>
   <g id="line2d_102">
    <path clip-path="url(#pfc2f1d9963)" d="M 516.446128 189 
L 516.446128 180.846 
" style="fill:none;stroke:#4c72b0;stroke-linecap:round;"/>
   </g>
   <g id="line2d_103">
    <path clip-path="url(#pfc2f1d9963)" d="M 345.837888 189 
L 345.837888 180.846 
" style="fill:none;stroke:#4c72b0;stroke-linecap:round;"/>
   </g>
   <g id="line2d_104">
    <path clip-path="url(#pfc2f1d9963)" d="M 542.548068 189 
L 542.548068 180.846 
" style="fill:none;stroke:#4c72b0;stroke-linecap:round;"/>
   </g>
   <g id="line2d_105">
    <path clip-path="url(#pfc2f1d9963)" d="M 413.495618 189 
L 413.495618 180.846 
" style="fill:none;stroke:#4c72b0;stroke-linecap:round;"/>
   </g>
   <g id="line2d_106">
    <path clip-path="url(#pfc2f1d9963)" d="M 500.025232 189 
L 500.025232 180.846 
" style="fill:none;stroke:#4c72b0;stroke-linecap:round;"/>
   </g>
   <g id="line2d_107">
    <path clip-path="url(#pfc2f1d9963)" d="M 481.960245 189 
L 481.960245 180.846 
" style="fill:none;stroke:#4c72b0;stroke-linecap:round;"/>
   </g>
   <g id="line2d_108">
    <path clip-path="url(#pfc2f1d9963)" d="M 518.569668 189 
L 518.569668 180.846 
" style="fill:none;stroke:#4c72b0;stroke-linecap:round;"/>
   </g>
   <g id="line2d_109">
    <path clip-path="url(#pfc2f1d9963)" d="M 430.834694 189 
L 430.834694 180.846 
" style="fill:none;stroke:#4c72b0;stroke-linecap:round;"/>
   </g>
   <g id="line2d_110">
    <path clip-path="url(#pfc2f1d9963)" d="M 523.544023 189 
L 523.544023 180.846 
" style="fill:none;stroke:#4c72b0;stroke-linecap:round;"/>
   </g>
   <g id="line2d_111">
    <path clip-path="url(#pfc2f1d9963)" d="M 445.155441 189 
L 445.155441 180.846 
" style="fill:none;stroke:#4c72b0;stroke-linecap:round;"/>
   </g>
   <g id="line2d_112">
    <path clip-path="url(#pfc2f1d9963)" d="M 245.73135 189 
L 245.73135 180.846 
" style="fill:none;stroke:#4c72b0;stroke-linecap:round;"/>
   </g>
   <g id="line2d_113">
    <path clip-path="url(#pfc2f1d9963)" d="M 424.125163 189 
L 424.125163 180.846 
" style="fill:none;stroke:#4c72b0;stroke-linecap:round;"/>
   </g>
   <g id="line2d_114">
    <path clip-path="url(#pfc2f1d9963)" d="M 570.166666 189 
L 570.166666 180.846 
" style="fill:none;stroke:#4c72b0;stroke-linecap:round;"/>
   </g>
   <g id="line2d_115">
    <path clip-path="url(#pfc2f1d9963)" d="M 376.275183 189 
L 376.275183 180.846 
" style="fill:none;stroke:#4c72b0;stroke-linecap:round;"/>
   </g>
   <g id="line2d_116">
    <path clip-path="url(#pfc2f1d9963)" d="M 556.128914 189 
L 556.128914 180.846 
" style="fill:none;stroke:#4c72b0;stroke-linecap:round;"/>
   </g>
   <g id="line2d_117">
    <path clip-path="url(#pfc2f1d9963)" d="M 529.706163 189 
L 529.706163 180.846 
" style="fill:none;stroke:#4c72b0;stroke-linecap:round;"/>
   </g>
   <g id="line2d_118">
    <path clip-path="url(#pfc2f1d9963)" d="M 464.833479 189 
L 464.833479 180.846 
" style="fill:none;stroke:#4c72b0;stroke-linecap:round;"/>
   </g>
   <g id="line2d_119">
    <path clip-path="url(#pfc2f1d9963)" d="M 337.183882 189 
L 337.183882 180.846 
" style="fill:none;stroke:#4c72b0;stroke-linecap:round;"/>
   </g>
   <g id="line2d_120">
    <path clip-path="url(#pfc2f1d9963)" d="M 367.300746 189 
L 367.300746 180.846 
" style="fill:none;stroke:#4c72b0;stroke-linecap:round;"/>
   </g>
   <g id="line2d_121">
    <path clip-path="url(#pfc2f1d9963)" d="M 483.709944 189 
L 483.709944 180.846 
" style="fill:none;stroke:#4c72b0;stroke-linecap:round;"/>
   </g>
   <g id="line2d_122">
    <path clip-path="url(#pfc2f1d9963)" d="M 420.993395 189 
L 420.993395 180.846 
" style="fill:none;stroke:#4c72b0;stroke-linecap:round;"/>
   </g>
   <g id="line2d_123">
    <path clip-path="url(#pfc2f1d9963)" d="M 402.240835 189 
L 402.240835 180.846 
" style="fill:none;stroke:#4c72b0;stroke-linecap:round;"/>
   </g>
   <g id="line2d_124">
    <path clip-path="url(#pfc2f1d9963)" d="M 446.086622 189 
L 446.086622 180.846 
" style="fill:none;stroke:#4c72b0;stroke-linecap:round;"/>
   </g>
   <g id="line2d_125">
    <path clip-path="url(#pfc2f1d9963)" d="M 525.321476 189 
L 525.321476 180.846 
" style="fill:none;stroke:#4c72b0;stroke-linecap:round;"/>
   </g>
   <g id="line2d_126">
    <path clip-path="url(#pfc2f1d9963)" d="M 427.895097 189 
L 427.895097 180.846 
" style="fill:none;stroke:#4c72b0;stroke-linecap:round;"/>
   </g>
   <g id="line2d_127">
    <path clip-path="url(#pfc2f1d9963)" d="M 463.759934 189 
L 463.759934 180.846 
" style="fill:none;stroke:#4c72b0;stroke-linecap:round;"/>
   </g>
   <g id="line2d_128">
    <path clip-path="url(#pfc2f1d9963)" d="M 472.776136 189 
L 472.776136 180.846 
" style="fill:none;stroke:#4c72b0;stroke-linecap:round;"/>
   </g>
   <g id="line2d_129">
    <path clip-path="url(#pfc2f1d9963)" d="M 434.064889 189 
L 434.064889 180.846 
" style="fill:none;stroke:#4c72b0;stroke-linecap:round;"/>
   </g>
   <g id="line2d_130">
    <path clip-path="url(#pfc2f1d9963)" d="M 318.444151 189 
L 318.444151 180.846 
" style="fill:none;stroke:#4c72b0;stroke-linecap:round;"/>
   </g>
   <g id="line2d_131">
    <path clip-path="url(#pfc2f1d9963)" d="M 551.012049 189 
L 551.012049 180.846 
" style="fill:none;stroke:#4c72b0;stroke-linecap:round;"/>
   </g>
   <g id="line2d_132">
    <path clip-path="url(#pfc2f1d9963)" d="M 351.445255 189 
L 351.445255 180.846 
" style="fill:none;stroke:#4c72b0;stroke-linecap:round;"/>
   </g>
   <g id="line2d_133">
    <path clip-path="url(#pfc2f1d9963)" d="M 478.18343 189 
L 478.18343 180.846 
" style="fill:none;stroke:#4c72b0;stroke-linecap:round;"/>
   </g>
   <g id="line2d_134">
    <path clip-path="url(#pfc2f1d9963)" d="M 419.650769 189 
L 419.650769 180.846 
" style="fill:none;stroke:#4c72b0;stroke-linecap:round;"/>
   </g>
   <g id="line2d_135">
    <path clip-path="url(#pfc2f1d9963)" d="M 386.088181 189 
L 386.088181 180.846 
" style="fill:none;stroke:#4c72b0;stroke-linecap:round;"/>
   </g>
   <g id="line2d_136">
    <path clip-path="url(#pfc2f1d9963)" d="M 414.50099 189 
L 414.50099 180.846 
" style="fill:none;stroke:#4c72b0;stroke-linecap:round;"/>
   </g>
   <g id="line2d_137">
    <path clip-path="url(#pfc2f1d9963)" d="M 425.216385 189 
L 425.216385 180.846 
" style="fill:none;stroke:#4c72b0;stroke-linecap:round;"/>
   </g>
   <g id="line2d_138">
    <path clip-path="url(#pfc2f1d9963)" d="M 316.259218 189 
L 316.259218 180.846 
" style="fill:none;stroke:#4c72b0;stroke-linecap:round;"/>
   </g>
   <g id="line2d_139">
    <path clip-path="url(#pfc2f1d9963)" d="M 407.635242 189 
L 407.635242 180.846 
" style="fill:none;stroke:#4c72b0;stroke-linecap:round;"/>
   </g>
   <g id="line2d_140">
    <path clip-path="url(#pfc2f1d9963)" d="M 433.781117 189 
L 433.781117 180.846 
" style="fill:none;stroke:#4c72b0;stroke-linecap:round;"/>
   </g>
   <g id="line2d_141">
    <path clip-path="url(#pfc2f1d9963)" d="M 382.87348 189 
L 382.87348 180.846 
" style="fill:none;stroke:#4c72b0;stroke-linecap:round;"/>
   </g>
   <g id="line2d_142">
    <path clip-path="url(#pfc2f1d9963)" d="M 458.245898 189 
L 458.245898 180.846 
" style="fill:none;stroke:#4c72b0;stroke-linecap:round;"/>
   </g>
   <g id="line2d_143">
    <path clip-path="url(#pfc2f1d9963)" d="M 436.451614 189 
L 436.451614 180.846 
" style="fill:none;stroke:#4c72b0;stroke-linecap:round;"/>
   </g>
   <g id="line2d_144">
    <path clip-path="url(#pfc2f1d9963)" d="M 460.321086 189 
L 460.321086 180.846 
" style="fill:none;stroke:#4c72b0;stroke-linecap:round;"/>
   </g>
   <g id="line2d_145">
    <path clip-path="url(#pfc2f1d9963)" d="M 344.384304 189 
L 344.384304 180.846 
" style="fill:none;stroke:#4c72b0;stroke-linecap:round;"/>
   </g>
   <g id="line2d_146">
    <path clip-path="url(#pfc2f1d9963)" d="M 330.938625 189 
L 330.938625 180.846 
" style="fill:none;stroke:#4c72b0;stroke-linecap:round;"/>
   </g>
   <g id="line2d_147">
    <path clip-path="url(#pfc2f1d9963)" d="M 442.858896 189 
L 442.858896 180.846 
" style="fill:none;stroke:#4c72b0;stroke-linecap:round;"/>
   </g>
   <g id="line2d_148">
    <path clip-path="url(#pfc2f1d9963)" d="M 405.039271 189 
L 405.039271 180.846 
" style="fill:none;stroke:#4c72b0;stroke-linecap:round;"/>
   </g>
   <g id="line2d_149">
    <path clip-path="url(#pfc2f1d9963)" d="M 273.00862 189 
L 273.00862 180.846 
" style="fill:none;stroke:#4c72b0;stroke-linecap:round;"/>
   </g>
   <g id="line2d_150">
    <path clip-path="url(#pfc2f1d9963)" d="M 379.811659 189 
L 379.811659 180.846 
" style="fill:none;stroke:#4c72b0;stroke-linecap:round;"/>
   </g>
   <g id="line2d_151">
    <path clip-path="url(#pfc2f1d9963)" d="M 490.121784 189 
L 490.121784 180.846 
" style="fill:none;stroke:#4c72b0;stroke-linecap:round;"/>
   </g>
   <g id="line2d_152">
    <path clip-path="url(#pfc2f1d9963)" d="M 363.996387 189 
L 363.996387 180.846 
" style="fill:none;stroke:#4c72b0;stroke-linecap:round;"/>
   </g>
   <g id="line2d_153">
    <path clip-path="url(#pfc2f1d9963)" d="M 464.44793 189 
L 464.44793 180.846 
" style="fill:none;stroke:#4c72b0;stroke-linecap:round;"/>
   </g>
   <g id="line2d_154">
    <path clip-path="url(#pfc2f1d9963)" d="M 577.851851 189 
L 577.851851 180.846 
" style="fill:none;stroke:#4c72b0;stroke-linecap:round;"/>
   </g>
   <g id="line2d_155">
    <path clip-path="url(#pfc2f1d9963)" d="M 489.666197 189 
L 489.666197 180.846 
" style="fill:none;stroke:#4c72b0;stroke-linecap:round;"/>
   </g>
   <g id="line2d_156">
    <path clip-path="url(#pfc2f1d9963)" d="M 291.026857 189 
L 291.026857 180.846 
" style="fill:none;stroke:#4c72b0;stroke-linecap:round;"/>
   </g>
   <g id="line2d_157">
    <path clip-path="url(#pfc2f1d9963)" d="M 233.748432 189 
L 233.748432 180.846 
" style="fill:none;stroke:#4c72b0;stroke-linecap:round;"/>
   </g>
   <g id="line2d_158">
    <path clip-path="url(#pfc2f1d9963)" d="M 444.070713 189 
L 444.070713 180.846 
" style="fill:none;stroke:#4c72b0;stroke-linecap:round;"/>
   </g>
   <g id="line2d_159">
    <path clip-path="url(#pfc2f1d9963)" d="M 383.531301 189 
L 383.531301 180.846 
" style="fill:none;stroke:#4c72b0;stroke-linecap:round;"/>
   </g>
   <g id="line2d_160">
    <path clip-path="url(#pfc2f1d9963)" d="M 397.630665 189 
L 397.630665 180.846 
" style="fill:none;stroke:#4c72b0;stroke-linecap:round;"/>
   </g>
   <g id="line2d_161">
    <path clip-path="url(#pfc2f1d9963)" d="M 522.832858 189 
L 522.832858 180.846 
" style="fill:none;stroke:#4c72b0;stroke-linecap:round;"/>
   </g>
   <g id="line2d_162">
    <path clip-path="url(#pfc2f1d9963)" d="M 441.454668 189 
L 441.454668 180.846 
" style="fill:none;stroke:#4c72b0;stroke-linecap:round;"/>
   </g>
   <g id="line2d_163">
    <path clip-path="url(#pfc2f1d9963)" d="M 336.731337 189 
L 336.731337 180.846 
" style="fill:none;stroke:#4c72b0;stroke-linecap:round;"/>
   </g>
   <g id="line2d_164">
    <path clip-path="url(#pfc2f1d9963)" d="M 253.98869 189 
L 253.98869 180.846 
" style="fill:none;stroke:#4c72b0;stroke-linecap:round;"/>
   </g>
   <g id="line2d_165">
    <path clip-path="url(#pfc2f1d9963)" d="M 450.798526 189 
L 450.798526 180.846 
" style="fill:none;stroke:#4c72b0;stroke-linecap:round;"/>
   </g>
   <g id="line2d_166">
    <path clip-path="url(#pfc2f1d9963)" d="M 450.431915 189 
L 450.431915 180.846 
" style="fill:none;stroke:#4c72b0;stroke-linecap:round;"/>
   </g>
   <g id="line2d_167">
    <path clip-path="url(#pfc2f1d9963)" d="M 521.708648 189 
L 521.708648 180.846 
" style="fill:none;stroke:#4c72b0;stroke-linecap:round;"/>
   </g>
   <g id="line2d_168">
    <path clip-path="url(#pfc2f1d9963)" d="M 514.823384 189 
L 514.823384 180.846 
" style="fill:none;stroke:#4c72b0;stroke-linecap:round;"/>
   </g>
   <g id="line2d_169">
    <path clip-path="url(#pfc2f1d9963)" d="M 460.883719 189 
L 460.883719 180.846 
" style="fill:none;stroke:#4c72b0;stroke-linecap:round;"/>
   </g>
   <g id="line2d_170">
    <path clip-path="url(#pfc2f1d9963)" d="M 516.409907 189 
L 516.409907 180.846 
" style="fill:none;stroke:#4c72b0;stroke-linecap:round;"/>
   </g>
   <g id="line2d_171">
    <path clip-path="url(#pfc2f1d9963)" d="M 351.708213 189 
L 351.708213 180.846 
" style="fill:none;stroke:#4c72b0;stroke-linecap:round;"/>
   </g>
   <g id="line2d_172">
    <path clip-path="url(#pfc2f1d9963)" d="M 469.213766 189 
L 469.213766 180.846 
" style="fill:none;stroke:#4c72b0;stroke-linecap:round;"/>
   </g>
   <g id="line2d_173">
    <path clip-path="url(#pfc2f1d9963)" d="M 507.87066 189 
L 507.87066 180.846 
" style="fill:none;stroke:#4c72b0;stroke-linecap:round;"/>
   </g>
   <g id="line2d_174">
    <path clip-path="url(#pfc2f1d9963)" d="M 514.750125 189 
L 514.750125 180.846 
" style="fill:none;stroke:#4c72b0;stroke-linecap:round;"/>
   </g>
   <g id="line2d_175">
    <path clip-path="url(#pfc2f1d9963)" d="M 585.066932 189 
L 585.066932 180.846 
" style="fill:none;stroke:#4c72b0;stroke-linecap:round;"/>
   </g>
   <g id="line2d_176">
    <path clip-path="url(#pfc2f1d9963)" d="M 377.851563 189 
L 377.851563 180.846 
" style="fill:none;stroke:#4c72b0;stroke-linecap:round;"/>
   </g>
   <g id="line2d_177">
    <path clip-path="url(#pfc2f1d9963)" d="M 454.380635 189 
L 454.380635 180.846 
" style="fill:none;stroke:#4c72b0;stroke-linecap:round;"/>
   </g>
   <g id="line2d_178">
    <path clip-path="url(#pfc2f1d9963)" d="M 456.620297 189 
L 456.620297 180.846 
" style="fill:none;stroke:#4c72b0;stroke-linecap:round;"/>
   </g>
   <g id="line2d_179">
    <path clip-path="url(#pfc2f1d9963)" d="M 414.717594 189 
L 414.717594 180.846 
" style="fill:none;stroke:#4c72b0;stroke-linecap:round;"/>
   </g>
   <g id="line2d_180">
    <path clip-path="url(#pfc2f1d9963)" d="M 459.962622 189 
L 459.962622 180.846 
" style="fill:none;stroke:#4c72b0;stroke-linecap:round;"/>
   </g>
   <g id="line2d_181">
    <path clip-path="url(#pfc2f1d9963)" d="M 521.643713 189 
L 521.643713 180.846 
" style="fill:none;stroke:#4c72b0;stroke-linecap:round;"/>
   </g>
   <g id="line2d_182">
    <path clip-path="url(#pfc2f1d9963)" d="M 582.94071 189 
L 582.94071 180.846 
" style="fill:none;stroke:#4c72b0;stroke-linecap:round;"/>
   </g>
   <g id="line2d_183">
    <path clip-path="url(#pfc2f1d9963)" d="M 381.390086 189 
L 381.390086 180.846 
" style="fill:none;stroke:#4c72b0;stroke-linecap:round;"/>
   </g>
   <g id="line2d_184">
    <path clip-path="url(#pfc2f1d9963)" d="M 589.980004 189 
L 589.980004 180.846 
" style="fill:none;stroke:#4c72b0;stroke-linecap:round;"/>
   </g>
   <g id="line2d_185">
    <path clip-path="url(#pfc2f1d9963)" d="M 457.258437 189 
L 457.258437 180.846 
" style="fill:none;stroke:#4c72b0;stroke-linecap:round;"/>
   </g>
   <g id="line2d_186">
    <path clip-path="url(#pfc2f1d9963)" d="M 405.554087 189 
L 405.554087 180.846 
" style="fill:none;stroke:#4c72b0;stroke-linecap:round;"/>
   </g>
   <g id="line2d_187">
    <path clip-path="url(#pfc2f1d9963)" d="M 431.03054 189 
L 431.03054 180.846 
" style="fill:none;stroke:#4c72b0;stroke-linecap:round;"/>
   </g>
   <g id="line2d_188">
    <path clip-path="url(#pfc2f1d9963)" d="M 421.896548 189 
L 421.896548 180.846 
" style="fill:none;stroke:#4c72b0;stroke-linecap:round;"/>
   </g>
   <g id="line2d_189">
    <path clip-path="url(#pfc2f1d9963)" d="M 295.785767 189 
L 295.785767 180.846 
" style="fill:none;stroke:#4c72b0;stroke-linecap:round;"/>
   </g>
   <g id="line2d_190">
    <path clip-path="url(#pfc2f1d9963)" d="M 492.235867 189 
L 492.235867 180.846 
" style="fill:none;stroke:#4c72b0;stroke-linecap:round;"/>
   </g>
   <g id="line2d_191">
    <path clip-path="url(#pfc2f1d9963)" d="M 398.967815 189 
L 398.967815 180.846 
" style="fill:none;stroke:#4c72b0;stroke-linecap:round;"/>
   </g>
   <g id="line2d_192">
    <path clip-path="url(#pfc2f1d9963)" d="M 425.796402 189 
L 425.796402 180.846 
" style="fill:none;stroke:#4c72b0;stroke-linecap:round;"/>
   </g>
   <g id="line2d_193">
    <path clip-path="url(#pfc2f1d9963)" d="M 556.506848 189 
L 556.506848 180.846 
" style="fill:none;stroke:#4c72b0;stroke-linecap:round;"/>
   </g>
   <g id="line2d_194">
    <path clip-path="url(#pfc2f1d9963)" d="M 300.349001 189 
L 300.349001 180.846 
" style="fill:none;stroke:#4c72b0;stroke-linecap:round;"/>
   </g>
   <g id="line2d_195">
    <path clip-path="url(#pfc2f1d9963)" d="M 401.181462 189 
L 401.181462 180.846 
" style="fill:none;stroke:#4c72b0;stroke-linecap:round;"/>
   </g>
   <g id="line2d_196">
    <path clip-path="url(#pfc2f1d9963)" d="M 382.023105 189 
L 382.023105 180.846 
" style="fill:none;stroke:#4c72b0;stroke-linecap:round;"/>
   </g>
   <g id="line2d_197">
    <path clip-path="url(#pfc2f1d9963)" d="M 423.69411 189 
L 423.69411 180.846 
" style="fill:none;stroke:#4c72b0;stroke-linecap:round;"/>
   </g>
   <g id="line2d_198">
    <path clip-path="url(#pfc2f1d9963)" d="M 238.924692 189 
L 238.924692 180.846 
" style="fill:none;stroke:#4c72b0;stroke-linecap:round;"/>
   </g>
   <g id="line2d_199">
    <path clip-path="url(#pfc2f1d9963)" d="M 578.096817 189 
L 578.096817 180.846 
" style="fill:none;stroke:#4c72b0;stroke-linecap:round;"/>
   </g>
   <g id="line2d_200">
    <path clip-path="url(#pfc2f1d9963)" d="M 347.379559 189 
L 347.379559 180.846 
" style="fill:none;stroke:#4c72b0;stroke-linecap:round;"/>
   </g>
   <g id="line2d_201">
    <path clip-path="url(#pfc2f1d9963)" d="M 461.14549 189 
L 461.14549 180.846 
" style="fill:none;stroke:#4c72b0;stroke-linecap:round;"/>
   </g>
   <g id="line2d_202">
    <path clip-path="url(#pfc2f1d9963)" d="M 436.76557 189 
L 436.76557 180.846 
" style="fill:none;stroke:#4c72b0;stroke-linecap:round;"/>
   </g>
   <g id="line2d_203">
    <path clip-path="url(#pfc2f1d9963)" d="M 403.687962 189 
L 403.687962 180.846 
" style="fill:none;stroke:#4c72b0;stroke-linecap:round;"/>
   </g>
   <g id="line2d_204">
    <path clip-path="url(#pfc2f1d9963)" d="M 407.451269 189 
L 407.451269 180.846 
" style="fill:none;stroke:#4c72b0;stroke-linecap:round;"/>
   </g>
   <g id="line2d_205">
    <path clip-path="url(#pfc2f1d9963)" d="M 362.747953 189 
L 362.747953 180.846 
" style="fill:none;stroke:#4c72b0;stroke-linecap:round;"/>
   </g>
   <g id="line2d_206">
    <path clip-path="url(#pfc2f1d9963)" d="M 444.887193 189 
L 444.887193 180.846 
" style="fill:none;stroke:#4c72b0;stroke-linecap:round;"/>
   </g>
   <g id="line2d_207">
    <path clip-path="url(#pfc2f1d9963)" d="M 474.880146 189 
L 474.880146 180.846 
" style="fill:none;stroke:#4c72b0;stroke-linecap:round;"/>
   </g>
   <g id="line2d_208">
    <path clip-path="url(#pfc2f1d9963)" d="M 381.444652 189 
L 381.444652 180.846 
" style="fill:none;stroke:#4c72b0;stroke-linecap:round;"/>
   </g>
   <g id="line2d_209">
    <path clip-path="url(#pfc2f1d9963)" d="M 527.128674 189 
L 527.128674 180.846 
" style="fill:none;stroke:#4c72b0;stroke-linecap:round;"/>
   </g>
   <g id="line2d_210">
    <path clip-path="url(#pfc2f1d9963)" d="M 570.19588 189 
L 570.19588 180.846 
" style="fill:none;stroke:#4c72b0;stroke-linecap:round;"/>
   </g>
   <g id="line2d_211">
    <path clip-path="url(#pfc2f1d9963)" d="M 459.001164 189 
L 459.001164 180.846 
" style="fill:none;stroke:#4c72b0;stroke-linecap:round;"/>
   </g>
   <g id="line2d_212">
    <path clip-path="url(#pfc2f1d9963)" d="M 283.281482 189 
L 283.281482 180.846 
" style="fill:none;stroke:#4c72b0;stroke-linecap:round;"/>
   </g>
   <g id="line2d_213">
    <path clip-path="url(#pfc2f1d9963)" d="M 344.681446 189 
L 344.681446 180.846 
" style="fill:none;stroke:#4c72b0;stroke-linecap:round;"/>
   </g>
   <g id="line2d_214">
    <path clip-path="url(#pfc2f1d9963)" d="M 341.69748 189 
L 341.69748 180.846 
" style="fill:none;stroke:#4c72b0;stroke-linecap:round;"/>
   </g>
   <g id="line2d_215">
    <path clip-path="url(#pfc2f1d9963)" d="M 561.109538 189 
L 561.109538 180.846 
" style="fill:none;stroke:#4c72b0;stroke-linecap:round;"/>
   </g>
   <g id="line2d_216">
    <path clip-path="url(#pfc2f1d9963)" d="M 428.759814 189 
L 428.759814 180.846 
" style="fill:none;stroke:#4c72b0;stroke-linecap:round;"/>
   </g>
   <g id="patch_33">
    <path d="M 108 189 
L 108 25.92 
" style="fill:none;"/>
   </g>
   <g id="patch_34">
    <path d="M 777.6 189 
L 777.6 25.92 
" style="fill:none;"/>
   </g>
   <g id="patch_35">
    <path d="M 108 189 
L 777.6 189 
" style="fill:none;"/>
   </g>
   <g id="patch_36">
    <path d="M 108 25.92 
L 777.6 25.92 
" style="fill:none;"/>
   </g>
   <g id="text_16">
    <!-- hist in seaborn -->
    <defs>
     <path d="M 6.59375 0 
L 6.59375 71.578125 
L 15.375 71.578125 
L 15.375 45.90625 
Q 21.53125 53.03125 30.90625 53.03125 
Q 36.671875 53.03125 40.921875 50.75 
Q 45.171875 48.484375 47 44.484375 
Q 48.828125 40.484375 48.828125 32.859375 
L 48.828125 0 
L 40.046875 0 
L 40.046875 32.859375 
Q 40.046875 39.453125 37.1875 42.453125 
Q 34.328125 45.453125 29.109375 45.453125 
Q 25.203125 45.453125 21.75 43.421875 
Q 18.3125 41.40625 16.84375 37.9375 
Q 15.375 34.46875 15.375 28.375 
L 15.375 0 
z
" id="ArialMT-68"/>
     <path d="M 6.640625 61.46875 
L 6.640625 71.578125 
L 15.4375 71.578125 
L 15.4375 61.46875 
z
M 6.640625 0 
L 6.640625 51.859375 
L 15.4375 51.859375 
L 15.4375 0 
z
" id="ArialMT-69"/>
     <path d="M 3.078125 15.484375 
L 11.765625 16.84375 
Q 12.5 11.625 15.84375 8.84375 
Q 19.1875 6.0625 25.203125 6.0625 
Q 31.25 6.0625 34.171875 8.515625 
Q 37.109375 10.984375 37.109375 14.3125 
Q 37.109375 17.28125 34.515625 19 
Q 32.71875 20.171875 25.53125 21.96875 
Q 15.875 24.421875 12.140625 26.203125 
Q 8.40625 27.984375 6.46875 31.125 
Q 4.546875 34.28125 4.546875 38.09375 
Q 4.546875 41.546875 6.125 44.5 
Q 7.71875 47.46875 10.453125 49.421875 
Q 12.5 50.921875 16.03125 51.96875 
Q 19.578125 53.03125 23.640625 53.03125 
Q 29.734375 53.03125 34.34375 51.265625 
Q 38.96875 49.515625 41.15625 46.5 
Q 43.359375 43.5 44.1875 38.484375 
L 35.59375 37.3125 
Q 35.015625 41.3125 32.203125 43.546875 
Q 29.390625 45.796875 24.265625 45.796875 
Q 18.21875 45.796875 15.625 43.796875 
Q 13.03125 41.796875 13.03125 39.109375 
Q 13.03125 37.40625 14.109375 36.03125 
Q 15.1875 34.625 17.484375 33.6875 
Q 18.796875 33.203125 25.25 31.453125 
Q 34.578125 28.953125 38.25 27.359375 
Q 41.9375 25.78125 44.03125 22.75 
Q 46.140625 19.734375 46.140625 15.234375 
Q 46.140625 10.84375 43.578125 6.953125 
Q 41.015625 3.078125 36.171875 0.953125 
Q 31.34375 -1.171875 25.25 -1.171875 
Q 15.140625 -1.171875 9.84375 3.03125 
Q 4.546875 7.234375 3.078125 15.484375 
z
" id="ArialMT-73"/>
     <path d="M 25.78125 7.859375 
L 27.046875 0.09375 
Q 23.34375 -0.6875 20.40625 -0.6875 
Q 15.625 -0.6875 12.984375 0.828125 
Q 10.359375 2.34375 9.28125 4.8125 
Q 8.203125 7.28125 8.203125 15.1875 
L 8.203125 45.015625 
L 1.765625 45.015625 
L 1.765625 51.859375 
L 8.203125 51.859375 
L 8.203125 64.703125 
L 16.9375 69.96875 
L 16.9375 51.859375 
L 25.78125 51.859375 
L 25.78125 45.015625 
L 16.9375 45.015625 
L 16.9375 14.703125 
Q 16.9375 10.9375 17.40625 9.859375 
Q 17.875 8.796875 18.921875 8.15625 
Q 19.96875 7.515625 21.921875 7.515625 
Q 23.390625 7.515625 25.78125 7.859375 
z
" id="ArialMT-74"/>
     <path id="ArialMT-20"/>
     <path d="M 6.59375 0 
L 6.59375 51.859375 
L 14.5 51.859375 
L 14.5 44.484375 
Q 20.21875 53.03125 31 53.03125 
Q 35.6875 53.03125 39.625 51.34375 
Q 43.5625 49.65625 45.515625 46.921875 
Q 47.46875 44.1875 48.25 40.4375 
Q 48.734375 37.984375 48.734375 31.890625 
L 48.734375 0 
L 39.9375 0 
L 39.9375 31.546875 
Q 39.9375 36.921875 38.90625 39.578125 
Q 37.890625 42.234375 35.28125 43.8125 
Q 32.671875 45.40625 29.15625 45.40625 
Q 23.53125 45.40625 19.453125 41.84375 
Q 15.375 38.28125 15.375 28.328125 
L 15.375 0 
z
" id="ArialMT-6e"/>
     <path d="M 42.09375 16.703125 
L 51.171875 15.578125 
Q 49.03125 7.625 43.21875 3.21875 
Q 37.40625 -1.171875 28.375 -1.171875 
Q 17 -1.171875 10.328125 5.828125 
Q 3.65625 12.84375 3.65625 25.484375 
Q 3.65625 38.578125 10.390625 45.796875 
Q 17.140625 53.03125 27.875 53.03125 
Q 38.28125 53.03125 44.875 45.953125 
Q 51.46875 38.875 51.46875 26.03125 
Q 51.46875 25.25 51.421875 23.6875 
L 12.75 23.6875 
Q 13.234375 15.140625 17.578125 10.59375 
Q 21.921875 6.0625 28.421875 6.0625 
Q 33.25 6.0625 36.671875 8.59375 
Q 40.09375 11.140625 42.09375 16.703125 
z
M 13.234375 30.90625 
L 42.1875 30.90625 
Q 41.609375 37.453125 38.875 40.71875 
Q 34.671875 45.796875 27.984375 45.796875 
Q 21.921875 45.796875 17.796875 41.75 
Q 13.671875 37.703125 13.234375 30.90625 
z
" id="ArialMT-65"/>
     <path d="M 40.4375 6.390625 
Q 35.546875 2.25 31.03125 0.53125 
Q 26.515625 -1.171875 21.34375 -1.171875 
Q 12.796875 -1.171875 8.203125 3 
Q 3.609375 7.171875 3.609375 13.671875 
Q 3.609375 17.484375 5.34375 20.625 
Q 7.078125 23.78125 9.890625 25.6875 
Q 12.703125 27.59375 16.21875 28.5625 
Q 18.796875 29.25 24.03125 29.890625 
Q 34.671875 31.15625 39.703125 32.90625 
Q 39.75 34.71875 39.75 35.203125 
Q 39.75 40.578125 37.25 42.78125 
Q 33.890625 45.75 27.25 45.75 
Q 21.046875 45.75 18.09375 43.578125 
Q 15.140625 41.40625 13.71875 35.890625 
L 5.125 37.0625 
Q 6.296875 42.578125 8.984375 45.96875 
Q 11.671875 49.359375 16.75 51.1875 
Q 21.828125 53.03125 28.515625 53.03125 
Q 35.15625 53.03125 39.296875 51.46875 
Q 43.453125 49.90625 45.40625 47.53125 
Q 47.359375 45.171875 48.140625 41.546875 
Q 48.578125 39.3125 48.578125 33.453125 
L 48.578125 21.734375 
Q 48.578125 9.46875 49.140625 6.21875 
Q 49.703125 2.984375 51.375 0 
L 42.1875 0 
Q 40.828125 2.734375 40.4375 6.390625 
z
M 39.703125 26.03125 
Q 34.90625 24.078125 25.34375 22.703125 
Q 19.921875 21.921875 17.671875 20.9375 
Q 15.4375 19.96875 14.203125 18.09375 
Q 12.984375 16.21875 12.984375 13.921875 
Q 12.984375 10.40625 15.640625 8.0625 
Q 18.3125 5.71875 23.4375 5.71875 
Q 28.515625 5.71875 32.46875 7.9375 
Q 36.421875 10.15625 38.28125 14.015625 
Q 39.703125 17 39.703125 22.796875 
z
" id="ArialMT-61"/>
     <path d="M 14.703125 0 
L 6.546875 0 
L 6.546875 71.578125 
L 15.328125 71.578125 
L 15.328125 46.046875 
Q 20.90625 53.03125 29.546875 53.03125 
Q 34.328125 53.03125 38.59375 51.09375 
Q 42.875 49.171875 45.625 45.671875 
Q 48.390625 42.1875 49.953125 37.25 
Q 51.515625 32.328125 51.515625 26.703125 
Q 51.515625 13.375 44.921875 6.09375 
Q 38.328125 -1.171875 29.109375 -1.171875 
Q 19.921875 -1.171875 14.703125 6.5 
z
M 14.59375 26.3125 
Q 14.59375 17 17.140625 12.84375 
Q 21.296875 6.0625 28.375 6.0625 
Q 34.125 6.0625 38.328125 11.0625 
Q 42.53125 16.0625 42.53125 25.984375 
Q 42.53125 36.140625 38.5 40.96875 
Q 34.46875 45.796875 28.765625 45.796875 
Q 23 45.796875 18.796875 40.796875 
Q 14.59375 35.796875 14.59375 26.3125 
z
" id="ArialMT-62"/>
     <path d="M 3.328125 25.921875 
Q 3.328125 40.328125 11.328125 47.265625 
Q 18.015625 53.03125 27.640625 53.03125 
Q 38.328125 53.03125 45.109375 46.015625 
Q 51.90625 39.015625 51.90625 26.65625 
Q 51.90625 16.65625 48.90625 10.90625 
Q 45.90625 5.171875 40.15625 2 
Q 34.421875 -1.171875 27.640625 -1.171875 
Q 16.75 -1.171875 10.03125 5.8125 
Q 3.328125 12.796875 3.328125 25.921875 
z
M 12.359375 25.921875 
Q 12.359375 15.96875 16.703125 11.015625 
Q 21.046875 6.0625 27.640625 6.0625 
Q 34.1875 6.0625 38.53125 11.03125 
Q 42.875 16.015625 42.875 26.21875 
Q 42.875 35.84375 38.5 40.796875 
Q 34.125 45.75 27.640625 45.75 
Q 21.046875 45.75 16.703125 40.8125 
Q 12.359375 35.890625 12.359375 25.921875 
z
" id="ArialMT-6f"/>
     <path d="M 6.5 0 
L 6.5 51.859375 
L 14.40625 51.859375 
L 14.40625 44 
Q 17.4375 49.515625 20 51.265625 
Q 22.5625 53.03125 25.640625 53.03125 
Q 30.078125 53.03125 34.671875 50.203125 
L 31.640625 42.046875 
Q 28.421875 43.953125 25.203125 43.953125 
Q 22.3125 43.953125 20.015625 42.21875 
Q 17.71875 40.484375 16.75 37.40625 
Q 15.28125 32.71875 15.28125 27.15625 
L 15.28125 0 
z
" id="ArialMT-72"/>
    </defs>
    <g style="fill:#262626;" transform="translate(375.37236 19.92)scale(0.20736 -0.20736)">
     <use xlink:href="#ArialMT-68"/>
     <use x="55.615234" xlink:href="#ArialMT-69"/>
     <use x="77.832031" xlink:href="#ArialMT-73"/>
     <use x="127.832031" xlink:href="#ArialMT-74"/>
     <use x="155.615234" xlink:href="#ArialMT-20"/>
     <use x="183.398438" xlink:href="#ArialMT-69"/>
     <use x="205.615234" xlink:href="#ArialMT-6e"/>
     <use x="261.230469" xlink:href="#ArialMT-20"/>
     <use x="289.013672" xlink:href="#ArialMT-73"/>
     <use x="339.013672" xlink:href="#ArialMT-65"/>
     <use x="394.628906" xlink:href="#ArialMT-61"/>
     <use x="450.244141" xlink:href="#ArialMT-62"/>
     <use x="505.859375" xlink:href="#ArialMT-6f"/>
     <use x="561.474609" xlink:href="#ArialMT-72"/>
     <use x="594.775391" xlink:href="#ArialMT-6e"/>
    </g>
   </g>
  </g>
 </g>
 <defs>
  <clipPath id="pfc2f1d9963">
   <rect height="163.08" width="669.6" x="108" y="25.92"/>
  </clipPath>
 </defs>
</svg>
