<?xml version="1.0" encoding="utf-8" standalone="no"?>
<!DOCTYPE svg PUBLIC "-//W3C//DTD SVG 1.1//EN"
  "http://www.w3.org/Graphics/SVG/1.1/DTD/svg11.dtd">
<!-- Created with matplotlib (http://matplotlib.org/) -->
<svg height="288pt" version="1.1" viewBox="0 0 864 288" width="864pt" xmlns="http://www.w3.org/2000/svg" xmlns:xlink="http://www.w3.org/1999/xlink">
 <defs>
  <style type="text/css">
*{stroke-linecap:butt;stroke-linejoin:round;}
  </style>
 </defs>
 <g id="figure_1">
  <g id="patch_1">
   <path d="M 0 288 
L 864 288 
L 864 0 
L 0 0 
z
" style="fill:#ffffff;"/>
  </g>
  <g id="axes_1">
   <g id="patch_2">
    <path d="M 108 252 
L 412.363636 252 
L 412.363636 34.56 
L 108 34.56 
z
" style="fill:#ffffff;"/>
   </g>
   <g id="patch_3">
    <path clip-path="url(#pc11b85addd)" d="M 159.133007 252 
L 174.678978 252 
L 174.678978 198.901099 
L 159.133007 198.901099 
z
" style="fill:#1f77b4;opacity:0.4;"/>
   </g>
   <g id="patch_4">
    <path clip-path="url(#pc11b85addd)" d="M 174.678978 252 
L 190.224949 252 
L 190.224949 172.351648 
L 174.678978 172.351648 
z
" style="fill:#1f77b4;opacity:0.4;"/>
   </g>
   <g id="patch_5">
    <path clip-path="url(#pc11b85addd)" d="M 190.224949 252 
L 205.77092 252 
L 205.77092 103.323077 
L 190.224949 103.323077 
z
" style="fill:#1f77b4;opacity:0.4;"/>
   </g>
   <g id="patch_6">
    <path clip-path="url(#pc11b85addd)" d="M 205.77092 252 
L 221.316891 252 
L 221.316891 60.843956 
L 205.77092 60.843956 
z
" style="fill:#1f77b4;opacity:0.4;"/>
   </g>
   <g id="patch_7">
    <path clip-path="url(#pc11b85addd)" d="M 221.316891 252 
L 236.862862 252 
L 236.862862 44.914286 
L 221.316891 44.914286 
z
" style="fill:#1f77b4;opacity:0.4;"/>
   </g>
   <g id="patch_8">
    <path clip-path="url(#pc11b85addd)" d="M 236.862862 252 
L 252.408833 252 
L 252.408833 119.252747 
L 236.862862 119.252747 
z
" style="fill:#1f77b4;opacity:0.4;"/>
   </g>
   <g id="patch_9">
    <path clip-path="url(#pc11b85addd)" d="M 252.408833 252 
L 267.954804 252 
L 267.954804 151.112088 
L 252.408833 151.112088 
z
" style="fill:#1f77b4;opacity:0.4;"/>
   </g>
   <g id="patch_10">
    <path clip-path="url(#pc11b85addd)" d="M 267.954804 252 
L 283.500775 252 
L 283.500775 177.661538 
L 267.954804 177.661538 
z
" style="fill:#1f77b4;opacity:0.4;"/>
   </g>
   <g id="patch_11">
    <path clip-path="url(#pc11b85addd)" d="M 283.500775 252 
L 299.046746 252 
L 299.046746 220.140659 
L 283.500775 220.140659 
z
" style="fill:#1f77b4;opacity:0.4;"/>
   </g>
   <g id="patch_12">
    <path clip-path="url(#pc11b85addd)" d="M 299.046746 252 
L 314.592717 252 
L 314.592717 220.140659 
L 299.046746 220.140659 
z
" style="fill:#1f77b4;opacity:0.4;"/>
   </g>
   <g id="patch_13">
    <path clip-path="url(#pc11b85addd)" d="M 314.592717 252 
L 330.138688 252 
L 330.138688 246.69011 
L 314.592717 246.69011 
z
" style="fill:#1f77b4;opacity:0.4;"/>
   </g>
   <g id="patch_14">
    <path clip-path="url(#pc11b85addd)" d="M 330.138688 252 
L 345.684658 252 
L 345.684658 252 
L 330.138688 252 
z
" style="fill:#1f77b4;opacity:0.4;"/>
   </g>
   <g id="patch_15">
    <path clip-path="url(#pc11b85addd)" d="M 345.684658 252 
L 361.230629 252 
L 361.230629 246.69011 
L 345.684658 246.69011 
z
" style="fill:#1f77b4;opacity:0.4;"/>
   </g>
   <g id="matplotlib.axis_1">
    <g id="xtick_1">
     <g id="line2d_1">
      <defs>
       <path d="M 0 0 
L 0 3.5 
" id="m99c97b2e4c" style="stroke:#000000;stroke-width:0.8;"/>
      </defs>
      <g>
       <use style="stroke:#000000;stroke-width:0.8;" x="110.131438" xlink:href="#m99c97b2e4c" y="252"/>
      </g>
     </g>
     <g id="text_1">
      <!-- −15 -->
      <defs>
       <path d="M 10.59375 35.5 
L 73.1875 35.5 
L 73.1875 27.203125 
L 10.59375 27.203125 
z
" id="DejaVuSans-2212"/>
       <path d="M 12.40625 8.296875 
L 28.515625 8.296875 
L 28.515625 63.921875 
L 10.984375 60.40625 
L 10.984375 69.390625 
L 28.421875 72.90625 
L 38.28125 72.90625 
L 38.28125 8.296875 
L 54.390625 8.296875 
L 54.390625 0 
L 12.40625 0 
z
" id="DejaVuSans-31"/>
       <path d="M 10.796875 72.90625 
L 49.515625 72.90625 
L 49.515625 64.59375 
L 19.828125 64.59375 
L 19.828125 46.734375 
Q 21.96875 47.46875 24.109375 47.828125 
Q 26.265625 48.1875 28.421875 48.1875 
Q 40.625 48.1875 47.75 41.5 
Q 54.890625 34.8125 54.890625 23.390625 
Q 54.890625 11.625 47.5625 5.09375 
Q 40.234375 -1.421875 26.90625 -1.421875 
Q 22.3125 -1.421875 17.546875 -0.640625 
Q 12.796875 0.140625 7.71875 1.703125 
L 7.71875 11.625 
Q 12.109375 9.234375 16.796875 8.0625 
Q 21.484375 6.890625 26.703125 6.890625 
Q 35.15625 6.890625 40.078125 11.328125 
Q 45.015625 15.765625 45.015625 23.390625 
Q 45.015625 31 40.078125 35.4375 
Q 35.15625 39.890625 26.703125 39.890625 
Q 22.75 39.890625 18.8125 39.015625 
Q 14.890625 38.140625 10.796875 36.28125 
z
" id="DejaVuSans-35"/>
      </defs>
      <g transform="translate(99.579094 266.598437)scale(0.1 -0.1)">
       <use xlink:href="#DejaVuSans-2212"/>
       <use x="83.789062" xlink:href="#DejaVuSans-31"/>
       <use x="147.412109" xlink:href="#DejaVuSans-35"/>
      </g>
     </g>
    </g>
    <g id="xtick_2">
     <g id="line2d_2">
      <g>
       <use style="stroke:#000000;stroke-width:0.8;" x="149.620857" xlink:href="#m99c97b2e4c" y="252"/>
      </g>
     </g>
     <g id="text_2">
      <!-- −10 -->
      <defs>
       <path d="M 31.78125 66.40625 
Q 24.171875 66.40625 20.328125 58.90625 
Q 16.5 51.421875 16.5 36.375 
Q 16.5 21.390625 20.328125 13.890625 
Q 24.171875 6.390625 31.78125 6.390625 
Q 39.453125 6.390625 43.28125 13.890625 
Q 47.125 21.390625 47.125 36.375 
Q 47.125 51.421875 43.28125 58.90625 
Q 39.453125 66.40625 31.78125 66.40625 
z
M 31.78125 74.21875 
Q 44.046875 74.21875 50.515625 64.515625 
Q 56.984375 54.828125 56.984375 36.375 
Q 56.984375 17.96875 50.515625 8.265625 
Q 44.046875 -1.421875 31.78125 -1.421875 
Q 19.53125 -1.421875 13.0625 8.265625 
Q 6.59375 17.96875 6.59375 36.375 
Q 6.59375 54.828125 13.0625 64.515625 
Q 19.53125 74.21875 31.78125 74.21875 
z
" id="DejaVuSans-30"/>
      </defs>
      <g transform="translate(139.068513 266.598437)scale(0.1 -0.1)">
       <use xlink:href="#DejaVuSans-2212"/>
       <use x="83.789062" xlink:href="#DejaVuSans-31"/>
       <use x="147.412109" xlink:href="#DejaVuSans-30"/>
      </g>
     </g>
    </g>
    <g id="xtick_3">
     <g id="line2d_3">
      <g>
       <use style="stroke:#000000;stroke-width:0.8;" x="189.110277" xlink:href="#m99c97b2e4c" y="252"/>
      </g>
     </g>
     <g id="text_3">
      <!-- −5 -->
      <g transform="translate(181.739183 266.598437)scale(0.1 -0.1)">
       <use xlink:href="#DejaVuSans-2212"/>
       <use x="83.789062" xlink:href="#DejaVuSans-35"/>
      </g>
     </g>
    </g>
    <g id="xtick_4">
     <g id="line2d_4">
      <g>
       <use style="stroke:#000000;stroke-width:0.8;" x="228.599696" xlink:href="#m99c97b2e4c" y="252"/>
      </g>
     </g>
     <g id="text_4">
      <!-- 0 -->
      <g transform="translate(225.418446 266.598437)scale(0.1 -0.1)">
       <use xlink:href="#DejaVuSans-30"/>
      </g>
     </g>
    </g>
    <g id="xtick_5">
     <g id="line2d_5">
      <g>
       <use style="stroke:#000000;stroke-width:0.8;" x="268.089116" xlink:href="#m99c97b2e4c" y="252"/>
      </g>
     </g>
     <g id="text_5">
      <!-- 5 -->
      <g transform="translate(264.907866 266.598437)scale(0.1 -0.1)">
       <use xlink:href="#DejaVuSans-35"/>
      </g>
     </g>
    </g>
    <g id="xtick_6">
     <g id="line2d_6">
      <g>
       <use style="stroke:#000000;stroke-width:0.8;" x="307.578535" xlink:href="#m99c97b2e4c" y="252"/>
      </g>
     </g>
     <g id="text_6">
      <!-- 10 -->
      <g transform="translate(301.216035 266.598437)scale(0.1 -0.1)">
       <use xlink:href="#DejaVuSans-31"/>
       <use x="63.623047" xlink:href="#DejaVuSans-30"/>
      </g>
     </g>
    </g>
    <g id="xtick_7">
     <g id="line2d_7">
      <g>
       <use style="stroke:#000000;stroke-width:0.8;" x="347.067954" xlink:href="#m99c97b2e4c" y="252"/>
      </g>
     </g>
     <g id="text_7">
      <!-- 15 -->
      <g transform="translate(340.705454 266.598437)scale(0.1 -0.1)">
       <use xlink:href="#DejaVuSans-31"/>
       <use x="63.623047" xlink:href="#DejaVuSans-35"/>
      </g>
     </g>
    </g>
    <g id="xtick_8">
     <g id="line2d_8">
      <g>
       <use style="stroke:#000000;stroke-width:0.8;" x="386.557374" xlink:href="#m99c97b2e4c" y="252"/>
      </g>
     </g>
     <g id="text_8">
      <!-- 20 -->
      <defs>
       <path d="M 19.1875 8.296875 
L 53.609375 8.296875 
L 53.609375 0 
L 7.328125 0 
L 7.328125 8.296875 
Q 12.9375 14.109375 22.625 23.890625 
Q 32.328125 33.6875 34.8125 36.53125 
Q 39.546875 41.84375 41.421875 45.53125 
Q 43.3125 49.21875 43.3125 52.78125 
Q 43.3125 58.59375 39.234375 62.25 
Q 35.15625 65.921875 28.609375 65.921875 
Q 23.96875 65.921875 18.8125 64.3125 
Q 13.671875 62.703125 7.8125 59.421875 
L 7.8125 69.390625 
Q 13.765625 71.78125 18.9375 73 
Q 24.125 74.21875 28.421875 74.21875 
Q 39.75 74.21875 46.484375 68.546875 
Q 53.21875 62.890625 53.21875 53.421875 
Q 53.21875 48.921875 51.53125 44.890625 
Q 49.859375 40.875 45.40625 35.40625 
Q 44.1875 33.984375 37.640625 27.21875 
Q 31.109375 20.453125 19.1875 8.296875 
z
" id="DejaVuSans-32"/>
      </defs>
      <g transform="translate(380.194874 266.598437)scale(0.1 -0.1)">
       <use xlink:href="#DejaVuSans-32"/>
       <use x="63.623047" xlink:href="#DejaVuSans-30"/>
      </g>
     </g>
    </g>
   </g>
   <g id="matplotlib.axis_2">
    <g id="ytick_1">
     <g id="line2d_9">
      <defs>
       <path d="M 0 0 
L -3.5 0 
" id="m3c0cb297c6" style="stroke:#000000;stroke-width:0.8;"/>
      </defs>
      <g>
       <use style="stroke:#000000;stroke-width:0.8;" x="108" xlink:href="#m3c0cb297c6" y="252"/>
      </g>
     </g>
     <g id="text_9">
      <!-- 0.00 -->
      <defs>
       <path d="M 10.6875 12.40625 
L 21 12.40625 
L 21 0 
L 10.6875 0 
z
" id="DejaVuSans-2e"/>
      </defs>
      <g transform="translate(78.734375 255.799219)scale(0.1 -0.1)">
       <use xlink:href="#DejaVuSans-30"/>
       <use x="63.623047" xlink:href="#DejaVuSans-2e"/>
       <use x="95.410156" xlink:href="#DejaVuSans-30"/>
       <use x="159.033203" xlink:href="#DejaVuSans-30"/>
      </g>
     </g>
    </g>
    <g id="ytick_2">
     <g id="line2d_10">
      <g>
       <use style="stroke:#000000;stroke-width:0.8;" x="108" xlink:href="#m3c0cb297c6" y="210.192651"/>
      </g>
     </g>
     <g id="text_10">
      <!-- 0.02 -->
      <g transform="translate(78.734375 213.99187)scale(0.1 -0.1)">
       <use xlink:href="#DejaVuSans-30"/>
       <use x="63.623047" xlink:href="#DejaVuSans-2e"/>
       <use x="95.410156" xlink:href="#DejaVuSans-30"/>
       <use x="159.033203" xlink:href="#DejaVuSans-32"/>
      </g>
     </g>
    </g>
    <g id="ytick_3">
     <g id="line2d_11">
      <g>
       <use style="stroke:#000000;stroke-width:0.8;" x="108" xlink:href="#m3c0cb297c6" y="168.385302"/>
      </g>
     </g>
     <g id="text_11">
      <!-- 0.04 -->
      <defs>
       <path d="M 37.796875 64.3125 
L 12.890625 25.390625 
L 37.796875 25.390625 
z
M 35.203125 72.90625 
L 47.609375 72.90625 
L 47.609375 25.390625 
L 58.015625 25.390625 
L 58.015625 17.1875 
L 47.609375 17.1875 
L 47.609375 0 
L 37.796875 0 
L 37.796875 17.1875 
L 4.890625 17.1875 
L 4.890625 26.703125 
z
" id="DejaVuSans-34"/>
      </defs>
      <g transform="translate(78.734375 172.18452)scale(0.1 -0.1)">
       <use xlink:href="#DejaVuSans-30"/>
       <use x="63.623047" xlink:href="#DejaVuSans-2e"/>
       <use x="95.410156" xlink:href="#DejaVuSans-30"/>
       <use x="159.033203" xlink:href="#DejaVuSans-34"/>
      </g>
     </g>
    </g>
    <g id="ytick_4">
     <g id="line2d_12">
      <g>
       <use style="stroke:#000000;stroke-width:0.8;" x="108" xlink:href="#m3c0cb297c6" y="126.577952"/>
      </g>
     </g>
     <g id="text_12">
      <!-- 0.06 -->
      <defs>
       <path d="M 33.015625 40.375 
Q 26.375 40.375 22.484375 35.828125 
Q 18.609375 31.296875 18.609375 23.390625 
Q 18.609375 15.53125 22.484375 10.953125 
Q 26.375 6.390625 33.015625 6.390625 
Q 39.65625 6.390625 43.53125 10.953125 
Q 47.40625 15.53125 47.40625 23.390625 
Q 47.40625 31.296875 43.53125 35.828125 
Q 39.65625 40.375 33.015625 40.375 
z
M 52.59375 71.296875 
L 52.59375 62.3125 
Q 48.875 64.0625 45.09375 64.984375 
Q 41.3125 65.921875 37.59375 65.921875 
Q 27.828125 65.921875 22.671875 59.328125 
Q 17.53125 52.734375 16.796875 39.40625 
Q 19.671875 43.65625 24.015625 45.921875 
Q 28.375 48.1875 33.59375 48.1875 
Q 44.578125 48.1875 50.953125 41.515625 
Q 57.328125 34.859375 57.328125 23.390625 
Q 57.328125 12.15625 50.6875 5.359375 
Q 44.046875 -1.421875 33.015625 -1.421875 
Q 20.359375 -1.421875 13.671875 8.265625 
Q 6.984375 17.96875 6.984375 36.375 
Q 6.984375 53.65625 15.1875 63.9375 
Q 23.390625 74.21875 37.203125 74.21875 
Q 40.921875 74.21875 44.703125 73.484375 
Q 48.484375 72.75 52.59375 71.296875 
z
" id="DejaVuSans-36"/>
      </defs>
      <g transform="translate(78.734375 130.377171)scale(0.1 -0.1)">
       <use xlink:href="#DejaVuSans-30"/>
       <use x="63.623047" xlink:href="#DejaVuSans-2e"/>
       <use x="95.410156" xlink:href="#DejaVuSans-30"/>
       <use x="159.033203" xlink:href="#DejaVuSans-36"/>
      </g>
     </g>
    </g>
    <g id="ytick_5">
     <g id="line2d_13">
      <g>
       <use style="stroke:#000000;stroke-width:0.8;" x="108" xlink:href="#m3c0cb297c6" y="84.770603"/>
      </g>
     </g>
     <g id="text_13">
      <!-- 0.08 -->
      <defs>
       <path d="M 31.78125 34.625 
Q 24.75 34.625 20.71875 30.859375 
Q 16.703125 27.09375 16.703125 20.515625 
Q 16.703125 13.921875 20.71875 10.15625 
Q 24.75 6.390625 31.78125 6.390625 
Q 38.8125 6.390625 42.859375 10.171875 
Q 46.921875 13.96875 46.921875 20.515625 
Q 46.921875 27.09375 42.890625 30.859375 
Q 38.875 34.625 31.78125 34.625 
z
M 21.921875 38.8125 
Q 15.578125 40.375 12.03125 44.71875 
Q 8.5 49.078125 8.5 55.328125 
Q 8.5 64.0625 14.71875 69.140625 
Q 20.953125 74.21875 31.78125 74.21875 
Q 42.671875 74.21875 48.875 69.140625 
Q 55.078125 64.0625 55.078125 55.328125 
Q 55.078125 49.078125 51.53125 44.71875 
Q 48 40.375 41.703125 38.8125 
Q 48.828125 37.15625 52.796875 32.3125 
Q 56.78125 27.484375 56.78125 20.515625 
Q 56.78125 9.90625 50.3125 4.234375 
Q 43.84375 -1.421875 31.78125 -1.421875 
Q 19.734375 -1.421875 13.25 4.234375 
Q 6.78125 9.90625 6.78125 20.515625 
Q 6.78125 27.484375 10.78125 32.3125 
Q 14.796875 37.15625 21.921875 38.8125 
z
M 18.3125 54.390625 
Q 18.3125 48.734375 21.84375 45.5625 
Q 25.390625 42.390625 31.78125 42.390625 
Q 38.140625 42.390625 41.71875 45.5625 
Q 45.3125 48.734375 45.3125 54.390625 
Q 45.3125 60.0625 41.71875 63.234375 
Q 38.140625 66.40625 31.78125 66.40625 
Q 25.390625 66.40625 21.84375 63.234375 
Q 18.3125 60.0625 18.3125 54.390625 
z
" id="DejaVuSans-38"/>
      </defs>
      <g transform="translate(78.734375 88.569822)scale(0.1 -0.1)">
       <use xlink:href="#DejaVuSans-30"/>
       <use x="63.623047" xlink:href="#DejaVuSans-2e"/>
       <use x="95.410156" xlink:href="#DejaVuSans-30"/>
       <use x="159.033203" xlink:href="#DejaVuSans-38"/>
      </g>
     </g>
    </g>
    <g id="ytick_6">
     <g id="line2d_14">
      <g>
       <use style="stroke:#000000;stroke-width:0.8;" x="108" xlink:href="#m3c0cb297c6" y="42.963254"/>
      </g>
     </g>
     <g id="text_14">
      <!-- 0.10 -->
      <g transform="translate(78.734375 46.762473)scale(0.1 -0.1)">
       <use xlink:href="#DejaVuSans-30"/>
       <use x="63.623047" xlink:href="#DejaVuSans-2e"/>
       <use x="95.410156" xlink:href="#DejaVuSans-31"/>
       <use x="159.033203" xlink:href="#DejaVuSans-30"/>
      </g>
     </g>
    </g>
   </g>
   <g id="line2d_15">
    <path clip-path="url(#pc11b85addd)" d="M 121.834711 251.870068 
L 126.1921 251.677307 
L 130.549489 251.193895 
L 132.728184 250.769044 
L 134.906878 250.168545 
L 137.085573 249.345526 
L 139.264268 248.251003 
L 141.442962 246.837934 
L 143.621657 245.066055 
L 145.800351 242.906838 
L 147.979046 240.347677 
L 150.157741 237.394377 
L 152.336435 234.071159 
L 154.51513 230.417806 
L 158.872519 222.322628 
L 163.229908 213.492042 
L 167.587297 204.128409 
L 171.944687 194.160961 
L 176.302076 183.338538 
L 180.659465 171.419087 
L 185.016854 158.310204 
L 189.374244 144.094051 
L 193.731633 128.9914 
L 204.625106 90.227486 
L 206.8038 83.042371 
L 208.982495 76.358908 
L 211.16119 70.341817 
L 213.339884 65.161727 
L 215.518579 60.986202 
L 217.697273 57.968707 
L 219.875968 56.23594 
L 222.054663 55.87447 
L 224.233357 56.918179 
L 226.412052 59.338584 
L 228.590746 63.040276 
L 230.769441 67.863431 
L 232.948136 73.594341 
L 235.12683 79.983485 
L 243.841609 107.216394 
L 246.020303 113.542792 
L 248.198998 119.515949 
L 252.556387 130.516067 
L 259.092471 145.730234 
L 265.628555 160.96294 
L 274.343333 181.642576 
L 278.700722 191.305615 
L 280.879417 195.745835 
L 283.058112 199.85858 
L 285.236806 203.615518 
L 287.415501 207.009368 
L 289.594195 210.05399 
L 291.77289 212.781866 
L 293.951585 215.239548 
L 298.308974 219.566308 
L 304.845058 225.373921 
L 322.274614 240.548121 
L 326.632004 243.714477 
L 328.810698 245.079155 
L 330.989393 246.278227 
L 333.168087 247.302672 
L 335.346782 248.148365 
L 337.525477 248.816161 
L 339.704171 249.312011 
L 341.882866 249.647099 
L 344.06156 249.837904 
L 348.41895 249.87759 
L 361.491117 249.33186 
L 365.848507 249.529754 
L 370.205896 249.961693 
L 381.099369 251.253035 
L 387.635453 251.71312 
L 394.171536 251.898627 
L 398.528926 251.905369 
L 398.528926 251.905369 
" style="fill:none;stroke:#1f77b4;stroke-linecap:square;stroke-width:1.5;"/>
   </g>
   <g id="patch_16">
    <path d="M 108 252 
L 108 34.56 
" style="fill:none;stroke:#000000;stroke-linecap:square;stroke-linejoin:miter;stroke-width:0.8;"/>
   </g>
   <g id="patch_17">
    <path d="M 412.363636 252 
L 412.363636 34.56 
" style="fill:none;stroke:#000000;stroke-linecap:square;stroke-linejoin:miter;stroke-width:0.8;"/>
   </g>
   <g id="patch_18">
    <path d="M 108 252 
L 412.363636 252 
" style="fill:none;stroke:#000000;stroke-linecap:square;stroke-linejoin:miter;stroke-width:0.8;"/>
   </g>
   <g id="patch_19">
    <path d="M 108 34.56 
L 412.363636 34.56 
" style="fill:none;stroke:#000000;stroke-linecap:square;stroke-linejoin:miter;stroke-width:0.8;"/>
   </g>
  </g>
  <g id="axes_2">
   <g id="patch_20">
    <path d="M 473.236364 252 
L 777.6 252 
L 777.6 34.56 
L 473.236364 34.56 
z
" style="fill:#ffffff;"/>
   </g>
   <g id="matplotlib.axis_3">
    <g id="xtick_9">
     <g id="line2d_16">
      <g>
       <use style="stroke:#000000;stroke-width:0.8;" x="522.965218" xlink:href="#m99c97b2e4c" y="252"/>
      </g>
     </g>
     <g id="text_15">
      <!-- −2 -->
      <g transform="translate(515.594125 266.598437)scale(0.1 -0.1)">
       <use xlink:href="#DejaVuSans-2212"/>
       <use x="83.789062" xlink:href="#DejaVuSans-32"/>
      </g>
     </g>
    </g>
    <g id="xtick_10">
     <g id="line2d_17">
      <g>
       <use style="stroke:#000000;stroke-width:0.8;" x="574.1917" xlink:href="#m99c97b2e4c" y="252"/>
      </g>
     </g>
     <g id="text_16">
      <!-- −1 -->
      <g transform="translate(566.820606 266.598437)scale(0.1 -0.1)">
       <use xlink:href="#DejaVuSans-2212"/>
       <use x="83.789062" xlink:href="#DejaVuSans-31"/>
      </g>
     </g>
    </g>
    <g id="xtick_11">
     <g id="line2d_18">
      <g>
       <use style="stroke:#000000;stroke-width:0.8;" x="625.418182" xlink:href="#m99c97b2e4c" y="252"/>
      </g>
     </g>
     <g id="text_17">
      <!-- 0 -->
      <g transform="translate(622.236932 266.598437)scale(0.1 -0.1)">
       <use xlink:href="#DejaVuSans-30"/>
      </g>
     </g>
    </g>
    <g id="xtick_12">
     <g id="line2d_19">
      <g>
       <use style="stroke:#000000;stroke-width:0.8;" x="676.644664" xlink:href="#m99c97b2e4c" y="252"/>
      </g>
     </g>
     <g id="text_18">
      <!-- 1 -->
      <g transform="translate(673.463414 266.598437)scale(0.1 -0.1)">
       <use xlink:href="#DejaVuSans-31"/>
      </g>
     </g>
    </g>
    <g id="xtick_13">
     <g id="line2d_20">
      <g>
       <use style="stroke:#000000;stroke-width:0.8;" x="727.871145" xlink:href="#m99c97b2e4c" y="252"/>
      </g>
     </g>
     <g id="text_19">
      <!-- 2 -->
      <g transform="translate(724.689895 266.598437)scale(0.1 -0.1)">
       <use xlink:href="#DejaVuSans-32"/>
      </g>
     </g>
    </g>
    <g id="text_20">
     <!-- Theoretical quantiles -->
     <defs>
      <path d="M -0.296875 72.90625 
L 61.375 72.90625 
L 61.375 64.59375 
L 35.5 64.59375 
L 35.5 0 
L 25.59375 0 
L 25.59375 64.59375 
L -0.296875 64.59375 
z
" id="DejaVuSans-54"/>
      <path d="M 54.890625 33.015625 
L 54.890625 0 
L 45.90625 0 
L 45.90625 32.71875 
Q 45.90625 40.484375 42.875 44.328125 
Q 39.84375 48.1875 33.796875 48.1875 
Q 26.515625 48.1875 22.3125 43.546875 
Q 18.109375 38.921875 18.109375 30.90625 
L 18.109375 0 
L 9.078125 0 
L 9.078125 75.984375 
L 18.109375 75.984375 
L 18.109375 46.1875 
Q 21.34375 51.125 25.703125 53.5625 
Q 30.078125 56 35.796875 56 
Q 45.21875 56 50.046875 50.171875 
Q 54.890625 44.34375 54.890625 33.015625 
z
" id="DejaVuSans-68"/>
      <path d="M 56.203125 29.59375 
L 56.203125 25.203125 
L 14.890625 25.203125 
Q 15.484375 15.921875 20.484375 11.0625 
Q 25.484375 6.203125 34.421875 6.203125 
Q 39.59375 6.203125 44.453125 7.46875 
Q 49.3125 8.734375 54.109375 11.28125 
L 54.109375 2.78125 
Q 49.265625 0.734375 44.1875 -0.34375 
Q 39.109375 -1.421875 33.890625 -1.421875 
Q 20.796875 -1.421875 13.15625 6.1875 
Q 5.515625 13.8125 5.515625 26.8125 
Q 5.515625 40.234375 12.765625 48.109375 
Q 20.015625 56 32.328125 56 
Q 43.359375 56 49.78125 48.890625 
Q 56.203125 41.796875 56.203125 29.59375 
z
M 47.21875 32.234375 
Q 47.125 39.59375 43.09375 43.984375 
Q 39.0625 48.390625 32.421875 48.390625 
Q 24.90625 48.390625 20.390625 44.140625 
Q 15.875 39.890625 15.1875 32.171875 
z
" id="DejaVuSans-65"/>
      <path d="M 30.609375 48.390625 
Q 23.390625 48.390625 19.1875 42.75 
Q 14.984375 37.109375 14.984375 27.296875 
Q 14.984375 17.484375 19.15625 11.84375 
Q 23.34375 6.203125 30.609375 6.203125 
Q 37.796875 6.203125 41.984375 11.859375 
Q 46.1875 17.53125 46.1875 27.296875 
Q 46.1875 37.015625 41.984375 42.703125 
Q 37.796875 48.390625 30.609375 48.390625 
z
M 30.609375 56 
Q 42.328125 56 49.015625 48.375 
Q 55.71875 40.765625 55.71875 27.296875 
Q 55.71875 13.875 49.015625 6.21875 
Q 42.328125 -1.421875 30.609375 -1.421875 
Q 18.84375 -1.421875 12.171875 6.21875 
Q 5.515625 13.875 5.515625 27.296875 
Q 5.515625 40.765625 12.171875 48.375 
Q 18.84375 56 30.609375 56 
z
" id="DejaVuSans-6f"/>
      <path d="M 41.109375 46.296875 
Q 39.59375 47.171875 37.8125 47.578125 
Q 36.03125 48 33.890625 48 
Q 26.265625 48 22.1875 43.046875 
Q 18.109375 38.09375 18.109375 28.8125 
L 18.109375 0 
L 9.078125 0 
L 9.078125 54.6875 
L 18.109375 54.6875 
L 18.109375 46.1875 
Q 20.953125 51.171875 25.484375 53.578125 
Q 30.03125 56 36.53125 56 
Q 37.453125 56 38.578125 55.875 
Q 39.703125 55.765625 41.0625 55.515625 
z
" id="DejaVuSans-72"/>
      <path d="M 18.3125 70.21875 
L 18.3125 54.6875 
L 36.8125 54.6875 
L 36.8125 47.703125 
L 18.3125 47.703125 
L 18.3125 18.015625 
Q 18.3125 11.328125 20.140625 9.421875 
Q 21.96875 7.515625 27.59375 7.515625 
L 36.8125 7.515625 
L 36.8125 0 
L 27.59375 0 
Q 17.1875 0 13.234375 3.875 
Q 9.28125 7.765625 9.28125 18.015625 
L 9.28125 47.703125 
L 2.6875 47.703125 
L 2.6875 54.6875 
L 9.28125 54.6875 
L 9.28125 70.21875 
z
" id="DejaVuSans-74"/>
      <path d="M 9.421875 54.6875 
L 18.40625 54.6875 
L 18.40625 0 
L 9.421875 0 
z
M 9.421875 75.984375 
L 18.40625 75.984375 
L 18.40625 64.59375 
L 9.421875 64.59375 
z
" id="DejaVuSans-69"/>
      <path d="M 48.78125 52.59375 
L 48.78125 44.1875 
Q 44.96875 46.296875 41.140625 47.34375 
Q 37.3125 48.390625 33.40625 48.390625 
Q 24.65625 48.390625 19.8125 42.84375 
Q 14.984375 37.3125 14.984375 27.296875 
Q 14.984375 17.28125 19.8125 11.734375 
Q 24.65625 6.203125 33.40625 6.203125 
Q 37.3125 6.203125 41.140625 7.25 
Q 44.96875 8.296875 48.78125 10.40625 
L 48.78125 2.09375 
Q 45.015625 0.34375 40.984375 -0.53125 
Q 36.96875 -1.421875 32.421875 -1.421875 
Q 20.0625 -1.421875 12.78125 6.34375 
Q 5.515625 14.109375 5.515625 27.296875 
Q 5.515625 40.671875 12.859375 48.328125 
Q 20.21875 56 33.015625 56 
Q 37.15625 56 41.109375 55.140625 
Q 45.0625 54.296875 48.78125 52.59375 
z
" id="DejaVuSans-63"/>
      <path d="M 34.28125 27.484375 
Q 23.390625 27.484375 19.1875 25 
Q 14.984375 22.515625 14.984375 16.5 
Q 14.984375 11.71875 18.140625 8.90625 
Q 21.296875 6.109375 26.703125 6.109375 
Q 34.1875 6.109375 38.703125 11.40625 
Q 43.21875 16.703125 43.21875 25.484375 
L 43.21875 27.484375 
z
M 52.203125 31.203125 
L 52.203125 0 
L 43.21875 0 
L 43.21875 8.296875 
Q 40.140625 3.328125 35.546875 0.953125 
Q 30.953125 -1.421875 24.3125 -1.421875 
Q 15.921875 -1.421875 10.953125 3.296875 
Q 6 8.015625 6 15.921875 
Q 6 25.140625 12.171875 29.828125 
Q 18.359375 34.515625 30.609375 34.515625 
L 43.21875 34.515625 
L 43.21875 35.40625 
Q 43.21875 41.609375 39.140625 45 
Q 35.0625 48.390625 27.6875 48.390625 
Q 23 48.390625 18.546875 47.265625 
Q 14.109375 46.140625 10.015625 43.890625 
L 10.015625 52.203125 
Q 14.9375 54.109375 19.578125 55.046875 
Q 24.21875 56 28.609375 56 
Q 40.484375 56 46.34375 49.84375 
Q 52.203125 43.703125 52.203125 31.203125 
z
" id="DejaVuSans-61"/>
      <path d="M 9.421875 75.984375 
L 18.40625 75.984375 
L 18.40625 0 
L 9.421875 0 
z
" id="DejaVuSans-6c"/>
      <path id="DejaVuSans-20"/>
      <path d="M 14.796875 27.296875 
Q 14.796875 17.390625 18.875 11.75 
Q 22.953125 6.109375 30.078125 6.109375 
Q 37.203125 6.109375 41.296875 11.75 
Q 45.40625 17.390625 45.40625 27.296875 
Q 45.40625 37.203125 41.296875 42.84375 
Q 37.203125 48.484375 30.078125 48.484375 
Q 22.953125 48.484375 18.875 42.84375 
Q 14.796875 37.203125 14.796875 27.296875 
z
M 45.40625 8.203125 
Q 42.578125 3.328125 38.25 0.953125 
Q 33.9375 -1.421875 27.875 -1.421875 
Q 17.96875 -1.421875 11.734375 6.484375 
Q 5.515625 14.40625 5.515625 27.296875 
Q 5.515625 40.1875 11.734375 48.09375 
Q 17.96875 56 27.875 56 
Q 33.9375 56 38.25 53.625 
Q 42.578125 51.265625 45.40625 46.390625 
L 45.40625 54.6875 
L 54.390625 54.6875 
L 54.390625 -20.796875 
L 45.40625 -20.796875 
z
" id="DejaVuSans-71"/>
      <path d="M 8.5 21.578125 
L 8.5 54.6875 
L 17.484375 54.6875 
L 17.484375 21.921875 
Q 17.484375 14.15625 20.5 10.265625 
Q 23.53125 6.390625 29.59375 6.390625 
Q 36.859375 6.390625 41.078125 11.03125 
Q 45.3125 15.671875 45.3125 23.6875 
L 45.3125 54.6875 
L 54.296875 54.6875 
L 54.296875 0 
L 45.3125 0 
L 45.3125 8.40625 
Q 42.046875 3.421875 37.71875 1 
Q 33.40625 -1.421875 27.6875 -1.421875 
Q 18.265625 -1.421875 13.375 4.4375 
Q 8.5 10.296875 8.5 21.578125 
z
M 31.109375 56 
z
" id="DejaVuSans-75"/>
      <path d="M 54.890625 33.015625 
L 54.890625 0 
L 45.90625 0 
L 45.90625 32.71875 
Q 45.90625 40.484375 42.875 44.328125 
Q 39.84375 48.1875 33.796875 48.1875 
Q 26.515625 48.1875 22.3125 43.546875 
Q 18.109375 38.921875 18.109375 30.90625 
L 18.109375 0 
L 9.078125 0 
L 9.078125 54.6875 
L 18.109375 54.6875 
L 18.109375 46.1875 
Q 21.34375 51.125 25.703125 53.5625 
Q 30.078125 56 35.796875 56 
Q 45.21875 56 50.046875 50.171875 
Q 54.890625 44.34375 54.890625 33.015625 
z
" id="DejaVuSans-6e"/>
      <path d="M 44.28125 53.078125 
L 44.28125 44.578125 
Q 40.484375 46.53125 36.375 47.5 
Q 32.28125 48.484375 27.875 48.484375 
Q 21.1875 48.484375 17.84375 46.4375 
Q 14.5 44.390625 14.5 40.28125 
Q 14.5 37.15625 16.890625 35.375 
Q 19.28125 33.59375 26.515625 31.984375 
L 29.59375 31.296875 
Q 39.15625 29.25 43.1875 25.515625 
Q 47.21875 21.78125 47.21875 15.09375 
Q 47.21875 7.46875 41.1875 3.015625 
Q 35.15625 -1.421875 24.609375 -1.421875 
Q 20.21875 -1.421875 15.453125 -0.5625 
Q 10.6875 0.296875 5.421875 2 
L 5.421875 11.28125 
Q 10.40625 8.6875 15.234375 7.390625 
Q 20.0625 6.109375 24.8125 6.109375 
Q 31.15625 6.109375 34.5625 8.28125 
Q 37.984375 10.453125 37.984375 14.40625 
Q 37.984375 18.0625 35.515625 20.015625 
Q 33.0625 21.96875 24.703125 23.78125 
L 21.578125 24.515625 
Q 13.234375 26.265625 9.515625 29.90625 
Q 5.8125 33.546875 5.8125 39.890625 
Q 5.8125 47.609375 11.28125 51.796875 
Q 16.75 56 26.8125 56 
Q 31.78125 56 36.171875 55.265625 
Q 40.578125 54.546875 44.28125 53.078125 
z
" id="DejaVuSans-73"/>
     </defs>
     <g transform="translate(572.793182 280.276563)scale(0.1 -0.1)">
      <use xlink:href="#DejaVuSans-54"/>
      <use x="61.083984" xlink:href="#DejaVuSans-68"/>
      <use x="124.462891" xlink:href="#DejaVuSans-65"/>
      <use x="185.986328" xlink:href="#DejaVuSans-6f"/>
      <use x="247.167969" xlink:href="#DejaVuSans-72"/>
      <use x="288.25" xlink:href="#DejaVuSans-65"/>
      <use x="349.773438" xlink:href="#DejaVuSans-74"/>
      <use x="388.982422" xlink:href="#DejaVuSans-69"/>
      <use x="416.765625" xlink:href="#DejaVuSans-63"/>
      <use x="471.746094" xlink:href="#DejaVuSans-61"/>
      <use x="533.025391" xlink:href="#DejaVuSans-6c"/>
      <use x="560.808594" xlink:href="#DejaVuSans-20"/>
      <use x="592.595703" xlink:href="#DejaVuSans-71"/>
      <use x="656.072266" xlink:href="#DejaVuSans-75"/>
      <use x="719.451172" xlink:href="#DejaVuSans-61"/>
      <use x="780.730469" xlink:href="#DejaVuSans-6e"/>
      <use x="844.109375" xlink:href="#DejaVuSans-74"/>
      <use x="883.318359" xlink:href="#DejaVuSans-69"/>
      <use x="911.101562" xlink:href="#DejaVuSans-6c"/>
      <use x="938.884766" xlink:href="#DejaVuSans-65"/>
      <use x="1000.408203" xlink:href="#DejaVuSans-73"/>
     </g>
    </g>
   </g>
   <g id="matplotlib.axis_4">
    <g id="ytick_7">
     <g id="line2d_21">
      <g>
       <use style="stroke:#000000;stroke-width:0.8;" x="473.236364" xlink:href="#m3c0cb297c6" y="228.267543"/>
      </g>
     </g>
     <g id="text_21">
      <!-- −10 -->
      <g transform="translate(445.131676 232.066761)scale(0.1 -0.1)">
       <use xlink:href="#DejaVuSans-2212"/>
       <use x="83.789062" xlink:href="#DejaVuSans-31"/>
       <use x="147.412109" xlink:href="#DejaVuSans-30"/>
      </g>
     </g>
    </g>
    <g id="ytick_8">
     <g id="line2d_22">
      <g>
       <use style="stroke:#000000;stroke-width:0.8;" x="473.236364" xlink:href="#m3c0cb297c6" y="193.963364"/>
      </g>
     </g>
     <g id="text_22">
      <!-- −5 -->
      <g transform="translate(451.494176 197.762583)scale(0.1 -0.1)">
       <use xlink:href="#DejaVuSans-2212"/>
       <use x="83.789062" xlink:href="#DejaVuSans-35"/>
      </g>
     </g>
    </g>
    <g id="ytick_9">
     <g id="line2d_23">
      <g>
       <use style="stroke:#000000;stroke-width:0.8;" x="473.236364" xlink:href="#m3c0cb297c6" y="159.659186"/>
      </g>
     </g>
     <g id="text_23">
      <!-- 0 -->
      <g transform="translate(459.873864 163.458405)scale(0.1 -0.1)">
       <use xlink:href="#DejaVuSans-30"/>
      </g>
     </g>
    </g>
    <g id="ytick_10">
     <g id="line2d_24">
      <g>
       <use style="stroke:#000000;stroke-width:0.8;" x="473.236364" xlink:href="#m3c0cb297c6" y="125.355008"/>
      </g>
     </g>
     <g id="text_24">
      <!-- 5 -->
      <g transform="translate(459.873864 129.154227)scale(0.1 -0.1)">
       <use xlink:href="#DejaVuSans-35"/>
      </g>
     </g>
    </g>
    <g id="ytick_11">
     <g id="line2d_25">
      <g>
       <use style="stroke:#000000;stroke-width:0.8;" x="473.236364" xlink:href="#m3c0cb297c6" y="91.05083"/>
      </g>
     </g>
     <g id="text_25">
      <!-- 10 -->
      <g transform="translate(453.511364 94.850048)scale(0.1 -0.1)">
       <use xlink:href="#DejaVuSans-31"/>
       <use x="63.623047" xlink:href="#DejaVuSans-30"/>
      </g>
     </g>
    </g>
    <g id="ytick_12">
     <g id="line2d_26">
      <g>
       <use style="stroke:#000000;stroke-width:0.8;" x="473.236364" xlink:href="#m3c0cb297c6" y="56.746652"/>
      </g>
     </g>
     <g id="text_26">
      <!-- 15 -->
      <g transform="translate(453.511364 60.54587)scale(0.1 -0.1)">
       <use xlink:href="#DejaVuSans-31"/>
       <use x="63.623047" xlink:href="#DejaVuSans-35"/>
      </g>
     </g>
    </g>
    <g id="text_27">
     <!-- Ordered Values -->
     <defs>
      <path d="M 39.40625 66.21875 
Q 28.65625 66.21875 22.328125 58.203125 
Q 16.015625 50.203125 16.015625 36.375 
Q 16.015625 22.609375 22.328125 14.59375 
Q 28.65625 6.59375 39.40625 6.59375 
Q 50.140625 6.59375 56.421875 14.59375 
Q 62.703125 22.609375 62.703125 36.375 
Q 62.703125 50.203125 56.421875 58.203125 
Q 50.140625 66.21875 39.40625 66.21875 
z
M 39.40625 74.21875 
Q 54.734375 74.21875 63.90625 63.9375 
Q 73.09375 53.65625 73.09375 36.375 
Q 73.09375 19.140625 63.90625 8.859375 
Q 54.734375 -1.421875 39.40625 -1.421875 
Q 24.03125 -1.421875 14.8125 8.828125 
Q 5.609375 19.09375 5.609375 36.375 
Q 5.609375 53.65625 14.8125 63.9375 
Q 24.03125 74.21875 39.40625 74.21875 
z
" id="DejaVuSans-4f"/>
      <path d="M 45.40625 46.390625 
L 45.40625 75.984375 
L 54.390625 75.984375 
L 54.390625 0 
L 45.40625 0 
L 45.40625 8.203125 
Q 42.578125 3.328125 38.25 0.953125 
Q 33.9375 -1.421875 27.875 -1.421875 
Q 17.96875 -1.421875 11.734375 6.484375 
Q 5.515625 14.40625 5.515625 27.296875 
Q 5.515625 40.1875 11.734375 48.09375 
Q 17.96875 56 27.875 56 
Q 33.9375 56 38.25 53.625 
Q 42.578125 51.265625 45.40625 46.390625 
z
M 14.796875 27.296875 
Q 14.796875 17.390625 18.875 11.75 
Q 22.953125 6.109375 30.078125 6.109375 
Q 37.203125 6.109375 41.296875 11.75 
Q 45.40625 17.390625 45.40625 27.296875 
Q 45.40625 37.203125 41.296875 42.84375 
Q 37.203125 48.484375 30.078125 48.484375 
Q 22.953125 48.484375 18.875 42.84375 
Q 14.796875 37.203125 14.796875 27.296875 
z
" id="DejaVuSans-64"/>
      <path d="M 28.609375 0 
L 0.78125 72.90625 
L 11.078125 72.90625 
L 34.1875 11.53125 
L 57.328125 72.90625 
L 67.578125 72.90625 
L 39.796875 0 
z
" id="DejaVuSans-56"/>
     </defs>
     <g transform="translate(439.051989 182.133125)rotate(-90)scale(0.1 -0.1)">
      <use xlink:href="#DejaVuSans-4f"/>
      <use x="78.710938" xlink:href="#DejaVuSans-72"/>
      <use x="119.808594" xlink:href="#DejaVuSans-64"/>
      <use x="183.285156" xlink:href="#DejaVuSans-65"/>
      <use x="244.808594" xlink:href="#DejaVuSans-72"/>
      <use x="285.890625" xlink:href="#DejaVuSans-65"/>
      <use x="347.414062" xlink:href="#DejaVuSans-64"/>
      <use x="410.890625" xlink:href="#DejaVuSans-20"/>
      <use x="442.677734" xlink:href="#DejaVuSans-56"/>
      <use x="510.976562" xlink:href="#DejaVuSans-61"/>
      <use x="572.255859" xlink:href="#DejaVuSans-6c"/>
      <use x="600.039062" xlink:href="#DejaVuSans-75"/>
      <use x="663.417969" xlink:href="#DejaVuSans-65"/>
      <use x="724.941406" xlink:href="#DejaVuSans-73"/>
     </g>
    </g>
   </g>
   <g id="line2d_27">
    <defs>
     <path d="M 0 3 
C 0.795609 3 1.55874 2.683901 2.12132 2.12132 
C 2.683901 1.55874 3 0.795609 3 0 
C 3 -0.795609 2.683901 -1.55874 2.12132 -2.12132 
C 1.55874 -2.683901 0.795609 -3 0 -3 
C -0.795609 -3 -1.55874 -2.683901 -2.12132 -2.12132 
C -2.683901 -1.55874 -3 -0.795609 -3 0 
C -3 0.795609 -2.683901 1.55874 -2.12132 2.12132 
C -1.55874 2.683901 -0.795609 3 0 3 
z
" id="mb0b7ffaf80" style="stroke:#0000ff;"/>
    </defs>
    <g clip-path="url(#p46989c1e8b)">
     <use style="fill:#0000ff;stroke:#0000ff;" x="487.071074" xlink:href="#mb0b7ffaf80" y="220.004406"/>
     <use style="fill:#0000ff;stroke:#0000ff;" x="502.926481" xlink:href="#mb0b7ffaf80" y="218.906611"/>
     <use style="fill:#0000ff;stroke:#0000ff;" x="511.963514" xlink:href="#mb0b7ffaf80" y="218.873291"/>
     <use style="fill:#0000ff;stroke:#0000ff;" x="518.434609" xlink:href="#mb0b7ffaf80" y="217.782399"/>
     <use style="fill:#0000ff;stroke:#0000ff;" x="523.54657" xlink:href="#mb0b7ffaf80" y="213.376211"/>
     <use style="fill:#0000ff;stroke:#0000ff;" x="527.808636" xlink:href="#mb0b7ffaf80" y="213.371028"/>
     <use style="fill:#0000ff;stroke:#0000ff;" x="531.485813" xlink:href="#mb0b7ffaf80" y="213.302729"/>
     <use style="fill:#0000ff;stroke:#0000ff;" x="534.734363" xlink:href="#mb0b7ffaf80" y="211.087666"/>
     <use style="fill:#0000ff;stroke:#0000ff;" x="537.654489" xlink:href="#mb0b7ffaf80" y="210.392387"/>
     <use style="fill:#0000ff;stroke:#0000ff;" x="540.314455" xlink:href="#mb0b7ffaf80" y="207.476009"/>
     <use style="fill:#0000ff;stroke:#0000ff;" x="542.76295" xlink:href="#mb0b7ffaf80" y="205.773364"/>
     <use style="fill:#0000ff;stroke:#0000ff;" x="545.03597" xlink:href="#mb0b7ffaf80" y="205.452361"/>
     <use style="fill:#0000ff;stroke:#0000ff;" x="547.160914" xlink:href="#mb0b7ffaf80" y="204.419227"/>
     <use style="fill:#0000ff;stroke:#0000ff;" x="549.159139" xlink:href="#mb0b7ffaf80" y="201.368904"/>
     <use style="fill:#0000ff;stroke:#0000ff;" x="551.047632" xlink:href="#mb0b7ffaf80" y="200.885767"/>
     <use style="fill:#0000ff;stroke:#0000ff;" x="552.840136" xlink:href="#mb0b7ffaf80" y="200.513658"/>
     <use style="fill:#0000ff;stroke:#0000ff;" x="554.547931" xlink:href="#mb0b7ffaf80" y="198.65316"/>
     <use style="fill:#0000ff;stroke:#0000ff;" x="556.180401" xlink:href="#mb0b7ffaf80" y="198.380599"/>
     <use style="fill:#0000ff;stroke:#0000ff;" x="557.745434" xlink:href="#mb0b7ffaf80" y="197.65457"/>
     <use style="fill:#0000ff;stroke:#0000ff;" x="559.249733" xlink:href="#mb0b7ffaf80" y="197.545559"/>
     <use style="fill:#0000ff;stroke:#0000ff;" x="560.699039" xlink:href="#mb0b7ffaf80" y="197.289107"/>
     <use style="fill:#0000ff;stroke:#0000ff;" x="562.098316" xlink:href="#mb0b7ffaf80" y="197.159184"/>
     <use style="fill:#0000ff;stroke:#0000ff;" x="563.451878" xlink:href="#mb0b7ffaf80" y="195.826635"/>
     <use style="fill:#0000ff;stroke:#0000ff;" x="564.763506" xlink:href="#mb0b7ffaf80" y="195.759451"/>
     <use style="fill:#0000ff;stroke:#0000ff;" x="566.036531" xlink:href="#mb0b7ffaf80" y="194.233142"/>
     <use style="fill:#0000ff;stroke:#0000ff;" x="567.273903" xlink:href="#mb0b7ffaf80" y="192.023925"/>
     <use style="fill:#0000ff;stroke:#0000ff;" x="568.478249" xlink:href="#mb0b7ffaf80" y="191.033783"/>
     <use style="fill:#0000ff;stroke:#0000ff;" x="569.651919" xlink:href="#mb0b7ffaf80" y="190.808948"/>
     <use style="fill:#0000ff;stroke:#0000ff;" x="570.797022" xlink:href="#mb0b7ffaf80" y="190.578947"/>
     <use style="fill:#0000ff;stroke:#0000ff;" x="571.915463" xlink:href="#mb0b7ffaf80" y="190.460553"/>
     <use style="fill:#0000ff;stroke:#0000ff;" x="573.008964" xlink:href="#mb0b7ffaf80" y="190.163781"/>
     <use style="fill:#0000ff;stroke:#0000ff;" x="574.079091" xlink:href="#mb0b7ffaf80" y="189.668081"/>
     <use style="fill:#0000ff;stroke:#0000ff;" x="575.12727" xlink:href="#mb0b7ffaf80" y="188.914786"/>
     <use style="fill:#0000ff;stroke:#0000ff;" x="576.154805" xlink:href="#mb0b7ffaf80" y="188.686565"/>
     <use style="fill:#0000ff;stroke:#0000ff;" x="577.162892" xlink:href="#mb0b7ffaf80" y="187.670363"/>
     <use style="fill:#0000ff;stroke:#0000ff;" x="578.152629" xlink:href="#mb0b7ffaf80" y="187.347308"/>
     <use style="fill:#0000ff;stroke:#0000ff;" x="579.125029" xlink:href="#mb0b7ffaf80" y="186.60913"/>
     <use style="fill:#0000ff;stroke:#0000ff;" x="580.081028" xlink:href="#mb0b7ffaf80" y="186.313209"/>
     <use style="fill:#0000ff;stroke:#0000ff;" x="581.021492" xlink:href="#mb0b7ffaf80" y="185.632093"/>
     <use style="fill:#0000ff;stroke:#0000ff;" x="581.947224" xlink:href="#mb0b7ffaf80" y="184.04684"/>
     <use style="fill:#0000ff;stroke:#0000ff;" x="582.858974" xlink:href="#mb0b7ffaf80" y="183.499452"/>
     <use style="fill:#0000ff;stroke:#0000ff;" x="583.757436" xlink:href="#mb0b7ffaf80" y="183.383009"/>
     <use style="fill:#0000ff;stroke:#0000ff;" x="584.643262" xlink:href="#mb0b7ffaf80" y="182.876026"/>
     <use style="fill:#0000ff;stroke:#0000ff;" x="585.51706" xlink:href="#mb0b7ffaf80" y="182.841742"/>
     <use style="fill:#0000ff;stroke:#0000ff;" x="586.379399" xlink:href="#mb0b7ffaf80" y="182.719951"/>
     <use style="fill:#0000ff;stroke:#0000ff;" x="587.230815" xlink:href="#mb0b7ffaf80" y="181.841327"/>
     <use style="fill:#0000ff;stroke:#0000ff;" x="588.07181" xlink:href="#mb0b7ffaf80" y="181.829396"/>
     <use style="fill:#0000ff;stroke:#0000ff;" x="588.902857" xlink:href="#mb0b7ffaf80" y="181.653623"/>
     <use style="fill:#0000ff;stroke:#0000ff;" x="589.724404" xlink:href="#mb0b7ffaf80" y="181.213468"/>
     <use style="fill:#0000ff;stroke:#0000ff;" x="590.536871" xlink:href="#mb0b7ffaf80" y="180.949073"/>
     <use style="fill:#0000ff;stroke:#0000ff;" x="591.340656" xlink:href="#mb0b7ffaf80" y="180.203787"/>
     <use style="fill:#0000ff;stroke:#0000ff;" x="592.136138" xlink:href="#mb0b7ffaf80" y="179.996858"/>
     <use style="fill:#0000ff;stroke:#0000ff;" x="592.923673" xlink:href="#mb0b7ffaf80" y="179.728909"/>
     <use style="fill:#0000ff;stroke:#0000ff;" x="593.703602" xlink:href="#mb0b7ffaf80" y="179.482437"/>
     <use style="fill:#0000ff;stroke:#0000ff;" x="594.476248" xlink:href="#mb0b7ffaf80" y="177.331476"/>
     <use style="fill:#0000ff;stroke:#0000ff;" x="595.241918" xlink:href="#mb0b7ffaf80" y="176.613813"/>
     <use style="fill:#0000ff;stroke:#0000ff;" x="596.000905" xlink:href="#mb0b7ffaf80" y="175.921092"/>
     <use style="fill:#0000ff;stroke:#0000ff;" x="596.753488" xlink:href="#mb0b7ffaf80" y="175.654398"/>
     <use style="fill:#0000ff;stroke:#0000ff;" x="597.499934" xlink:href="#mb0b7ffaf80" y="175.483507"/>
     <use style="fill:#0000ff;stroke:#0000ff;" x="598.240499" xlink:href="#mb0b7ffaf80" y="175.323358"/>
     <use style="fill:#0000ff;stroke:#0000ff;" x="598.975426" xlink:href="#mb0b7ffaf80" y="174.655827"/>
     <use style="fill:#0000ff;stroke:#0000ff;" x="599.704951" xlink:href="#mb0b7ffaf80" y="174.533065"/>
     <use style="fill:#0000ff;stroke:#0000ff;" x="600.429298" xlink:href="#mb0b7ffaf80" y="174.454919"/>
     <use style="fill:#0000ff;stroke:#0000ff;" x="601.148682" xlink:href="#mb0b7ffaf80" y="174.211793"/>
     <use style="fill:#0000ff;stroke:#0000ff;" x="601.863311" xlink:href="#mb0b7ffaf80" y="174.026497"/>
     <use style="fill:#0000ff;stroke:#0000ff;" x="602.573386" xlink:href="#mb0b7ffaf80" y="173.780325"/>
     <use style="fill:#0000ff;stroke:#0000ff;" x="603.279097" xlink:href="#mb0b7ffaf80" y="173.564312"/>
     <use style="fill:#0000ff;stroke:#0000ff;" x="603.980632" xlink:href="#mb0b7ffaf80" y="173.452369"/>
     <use style="fill:#0000ff;stroke:#0000ff;" x="604.678169" xlink:href="#mb0b7ffaf80" y="173.266297"/>
     <use style="fill:#0000ff;stroke:#0000ff;" x="605.371881" xlink:href="#mb0b7ffaf80" y="172.904491"/>
     <use style="fill:#0000ff;stroke:#0000ff;" x="606.061936" xlink:href="#mb0b7ffaf80" y="172.864479"/>
     <use style="fill:#0000ff;stroke:#0000ff;" x="606.748497" xlink:href="#mb0b7ffaf80" y="172.602586"/>
     <use style="fill:#0000ff;stroke:#0000ff;" x="607.43172" xlink:href="#mb0b7ffaf80" y="172.37596"/>
     <use style="fill:#0000ff;stroke:#0000ff;" x="608.111758" xlink:href="#mb0b7ffaf80" y="171.675463"/>
     <use style="fill:#0000ff;stroke:#0000ff;" x="608.78876" xlink:href="#mb0b7ffaf80" y="171.461898"/>
     <use style="fill:#0000ff;stroke:#0000ff;" x="609.462869" xlink:href="#mb0b7ffaf80" y="171.427469"/>
     <use style="fill:#0000ff;stroke:#0000ff;" x="610.134227" xlink:href="#mb0b7ffaf80" y="171.047396"/>
     <use style="fill:#0000ff;stroke:#0000ff;" x="610.80297" xlink:href="#mb0b7ffaf80" y="170.538794"/>
     <use style="fill:#0000ff;stroke:#0000ff;" x="611.469231" xlink:href="#mb0b7ffaf80" y="170.446143"/>
     <use style="fill:#0000ff;stroke:#0000ff;" x="612.133141" xlink:href="#mb0b7ffaf80" y="169.744252"/>
     <use style="fill:#0000ff;stroke:#0000ff;" x="612.794827" xlink:href="#mb0b7ffaf80" y="169.158864"/>
     <use style="fill:#0000ff;stroke:#0000ff;" x="613.454413" xlink:href="#mb0b7ffaf80" y="168.384117"/>
     <use style="fill:#0000ff;stroke:#0000ff;" x="614.112021" xlink:href="#mb0b7ffaf80" y="168.292413"/>
     <use style="fill:#0000ff;stroke:#0000ff;" x="614.767772" xlink:href="#mb0b7ffaf80" y="167.61428"/>
     <use style="fill:#0000ff;stroke:#0000ff;" x="615.421781" xlink:href="#mb0b7ffaf80" y="167.303939"/>
     <use style="fill:#0000ff;stroke:#0000ff;" x="616.074166" xlink:href="#mb0b7ffaf80" y="167.163391"/>
     <use style="fill:#0000ff;stroke:#0000ff;" x="616.725038" xlink:href="#mb0b7ffaf80" y="166.432449"/>
     <use style="fill:#0000ff;stroke:#0000ff;" x="617.37451" xlink:href="#mb0b7ffaf80" y="166.190229"/>
     <use style="fill:#0000ff;stroke:#0000ff;" x="618.022692" xlink:href="#mb0b7ffaf80" y="166.100641"/>
     <use style="fill:#0000ff;stroke:#0000ff;" x="618.669691" xlink:href="#mb0b7ffaf80" y="165.670163"/>
     <use style="fill:#0000ff;stroke:#0000ff;" x="619.315616" xlink:href="#mb0b7ffaf80" y="164.625693"/>
     <use style="fill:#0000ff;stroke:#0000ff;" x="619.960572" xlink:href="#mb0b7ffaf80" y="164.571305"/>
     <use style="fill:#0000ff;stroke:#0000ff;" x="620.604664" xlink:href="#mb0b7ffaf80" y="163.950948"/>
     <use style="fill:#0000ff;stroke:#0000ff;" x="621.247996" xlink:href="#mb0b7ffaf80" y="163.718543"/>
     <use style="fill:#0000ff;stroke:#0000ff;" x="621.890671" xlink:href="#mb0b7ffaf80" y="163.559868"/>
     <use style="fill:#0000ff;stroke:#0000ff;" x="622.532791" xlink:href="#mb0b7ffaf80" y="163.263125"/>
     <use style="fill:#0000ff;stroke:#0000ff;" x="623.174458" xlink:href="#mb0b7ffaf80" y="163.250762"/>
     <use style="fill:#0000ff;stroke:#0000ff;" x="623.815773" xlink:href="#mb0b7ffaf80" y="162.75495"/>
     <use style="fill:#0000ff;stroke:#0000ff;" x="624.456837" xlink:href="#mb0b7ffaf80" y="162.747429"/>
     <use style="fill:#0000ff;stroke:#0000ff;" x="625.09775" xlink:href="#mb0b7ffaf80" y="162.747042"/>
     <use style="fill:#0000ff;stroke:#0000ff;" x="625.738613" xlink:href="#mb0b7ffaf80" y="162.219351"/>
     <use style="fill:#0000ff;stroke:#0000ff;" x="626.379527" xlink:href="#mb0b7ffaf80" y="161.760858"/>
     <use style="fill:#0000ff;stroke:#0000ff;" x="627.020591" xlink:href="#mb0b7ffaf80" y="161.697574"/>
     <use style="fill:#0000ff;stroke:#0000ff;" x="627.661906" xlink:href="#mb0b7ffaf80" y="161.484545"/>
     <use style="fill:#0000ff;stroke:#0000ff;" x="628.303573" xlink:href="#mb0b7ffaf80" y="161.401371"/>
     <use style="fill:#0000ff;stroke:#0000ff;" x="628.945693" xlink:href="#mb0b7ffaf80" y="161.311289"/>
     <use style="fill:#0000ff;stroke:#0000ff;" x="629.588368" xlink:href="#mb0b7ffaf80" y="160.610412"/>
     <use style="fill:#0000ff;stroke:#0000ff;" x="630.2317" xlink:href="#mb0b7ffaf80" y="160.256086"/>
     <use style="fill:#0000ff;stroke:#0000ff;" x="630.875792" xlink:href="#mb0b7ffaf80" y="159.840565"/>
     <use style="fill:#0000ff;stroke:#0000ff;" x="631.520748" xlink:href="#mb0b7ffaf80" y="159.723743"/>
     <use style="fill:#0000ff;stroke:#0000ff;" x="632.166672" xlink:href="#mb0b7ffaf80" y="158.968665"/>
     <use style="fill:#0000ff;stroke:#0000ff;" x="632.813672" xlink:href="#mb0b7ffaf80" y="158.661996"/>
     <use style="fill:#0000ff;stroke:#0000ff;" x="633.461853" xlink:href="#mb0b7ffaf80" y="158.523433"/>
     <use style="fill:#0000ff;stroke:#0000ff;" x="634.111325" xlink:href="#mb0b7ffaf80" y="158.513872"/>
     <use style="fill:#0000ff;stroke:#0000ff;" x="634.762198" xlink:href="#mb0b7ffaf80" y="158.374858"/>
     <use style="fill:#0000ff;stroke:#0000ff;" x="635.414582" xlink:href="#mb0b7ffaf80" y="158.282351"/>
     <use style="fill:#0000ff;stroke:#0000ff;" x="636.068592" xlink:href="#mb0b7ffaf80" y="157.863185"/>
     <use style="fill:#0000ff;stroke:#0000ff;" x="636.724343" xlink:href="#mb0b7ffaf80" y="157.818778"/>
     <use style="fill:#0000ff;stroke:#0000ff;" x="637.381951" xlink:href="#mb0b7ffaf80" y="157.725899"/>
     <use style="fill:#0000ff;stroke:#0000ff;" x="638.041537" xlink:href="#mb0b7ffaf80" y="157.586229"/>
     <use style="fill:#0000ff;stroke:#0000ff;" x="638.703223" xlink:href="#mb0b7ffaf80" y="156.444641"/>
     <use style="fill:#0000ff;stroke:#0000ff;" x="639.367133" xlink:href="#mb0b7ffaf80" y="156.323805"/>
     <use style="fill:#0000ff;stroke:#0000ff;" x="640.033394" xlink:href="#mb0b7ffaf80" y="156.153656"/>
     <use style="fill:#0000ff;stroke:#0000ff;" x="640.702136" xlink:href="#mb0b7ffaf80" y="156.125918"/>
     <use style="fill:#0000ff;stroke:#0000ff;" x="641.373494" xlink:href="#mb0b7ffaf80" y="155.757764"/>
     <use style="fill:#0000ff;stroke:#0000ff;" x="642.047604" xlink:href="#mb0b7ffaf80" y="154.49732"/>
     <use style="fill:#0000ff;stroke:#0000ff;" x="642.724606" xlink:href="#mb0b7ffaf80" y="152.990762"/>
     <use style="fill:#0000ff;stroke:#0000ff;" x="643.404644" xlink:href="#mb0b7ffaf80" y="152.583959"/>
     <use style="fill:#0000ff;stroke:#0000ff;" x="644.087867" xlink:href="#mb0b7ffaf80" y="152.252341"/>
     <use style="fill:#0000ff;stroke:#0000ff;" x="644.774427" xlink:href="#mb0b7ffaf80" y="152.223653"/>
     <use style="fill:#0000ff;stroke:#0000ff;" x="645.464483" xlink:href="#mb0b7ffaf80" y="151.690149"/>
     <use style="fill:#0000ff;stroke:#0000ff;" x="646.158195" xlink:href="#mb0b7ffaf80" y="151.666644"/>
     <use style="fill:#0000ff;stroke:#0000ff;" x="646.855732" xlink:href="#mb0b7ffaf80" y="151.270722"/>
     <use style="fill:#0000ff;stroke:#0000ff;" x="647.557266" xlink:href="#mb0b7ffaf80" y="150.944104"/>
     <use style="fill:#0000ff;stroke:#0000ff;" x="648.262978" xlink:href="#mb0b7ffaf80" y="150.888672"/>
     <use style="fill:#0000ff;stroke:#0000ff;" x="648.973052" xlink:href="#mb0b7ffaf80" y="150.215493"/>
     <use style="fill:#0000ff;stroke:#0000ff;" x="649.687682" xlink:href="#mb0b7ffaf80" y="148.597516"/>
     <use style="fill:#0000ff;stroke:#0000ff;" x="650.407066" xlink:href="#mb0b7ffaf80" y="148.56606"/>
     <use style="fill:#0000ff;stroke:#0000ff;" x="651.131412" xlink:href="#mb0b7ffaf80" y="147.830797"/>
     <use style="fill:#0000ff;stroke:#0000ff;" x="651.860937" xlink:href="#mb0b7ffaf80" y="147.710621"/>
     <use style="fill:#0000ff;stroke:#0000ff;" x="652.595865" xlink:href="#mb0b7ffaf80" y="145.951241"/>
     <use style="fill:#0000ff;stroke:#0000ff;" x="653.33643" xlink:href="#mb0b7ffaf80" y="144.830864"/>
     <use style="fill:#0000ff;stroke:#0000ff;" x="654.082876" xlink:href="#mb0b7ffaf80" y="144.054821"/>
     <use style="fill:#0000ff;stroke:#0000ff;" x="654.835459" xlink:href="#mb0b7ffaf80" y="143.870635"/>
     <use style="fill:#0000ff;stroke:#0000ff;" x="655.594446" xlink:href="#mb0b7ffaf80" y="143.271786"/>
     <use style="fill:#0000ff;stroke:#0000ff;" x="656.360116" xlink:href="#mb0b7ffaf80" y="142.162322"/>
     <use style="fill:#0000ff;stroke:#0000ff;" x="657.132761" xlink:href="#mb0b7ffaf80" y="142.041966"/>
     <use style="fill:#0000ff;stroke:#0000ff;" x="657.912691" xlink:href="#mb0b7ffaf80" y="141.918824"/>
     <use style="fill:#0000ff;stroke:#0000ff;" x="658.700226" xlink:href="#mb0b7ffaf80" y="141.459954"/>
     <use style="fill:#0000ff;stroke:#0000ff;" x="659.495708" xlink:href="#mb0b7ffaf80" y="140.891352"/>
     <use style="fill:#0000ff;stroke:#0000ff;" x="660.299493" xlink:href="#mb0b7ffaf80" y="140.098995"/>
     <use style="fill:#0000ff;stroke:#0000ff;" x="661.11196" xlink:href="#mb0b7ffaf80" y="140.088835"/>
     <use style="fill:#0000ff;stroke:#0000ff;" x="661.933506" xlink:href="#mb0b7ffaf80" y="139.388246"/>
     <use style="fill:#0000ff;stroke:#0000ff;" x="662.764554" xlink:href="#mb0b7ffaf80" y="138.771012"/>
     <use style="fill:#0000ff;stroke:#0000ff;" x="663.605549" xlink:href="#mb0b7ffaf80" y="138.577435"/>
     <use style="fill:#0000ff;stroke:#0000ff;" x="664.456965" xlink:href="#mb0b7ffaf80" y="138.507081"/>
     <use style="fill:#0000ff;stroke:#0000ff;" x="665.319304" xlink:href="#mb0b7ffaf80" y="137.339395"/>
     <use style="fill:#0000ff;stroke:#0000ff;" x="666.193102" xlink:href="#mb0b7ffaf80" y="136.110701"/>
     <use style="fill:#0000ff;stroke:#0000ff;" x="667.078928" xlink:href="#mb0b7ffaf80" y="136.087284"/>
     <use style="fill:#0000ff;stroke:#0000ff;" x="667.97739" xlink:href="#mb0b7ffaf80" y="136.079311"/>
     <use style="fill:#0000ff;stroke:#0000ff;" x="668.889139" xlink:href="#mb0b7ffaf80" y="135.441733"/>
     <use style="fill:#0000ff;stroke:#0000ff;" x="669.814872" xlink:href="#mb0b7ffaf80" y="134.560641"/>
     <use style="fill:#0000ff;stroke:#0000ff;" x="670.755336" xlink:href="#mb0b7ffaf80" y="134.172725"/>
     <use style="fill:#0000ff;stroke:#0000ff;" x="671.711335" xlink:href="#mb0b7ffaf80" y="133.973656"/>
     <use style="fill:#0000ff;stroke:#0000ff;" x="672.683735" xlink:href="#mb0b7ffaf80" y="132.772619"/>
     <use style="fill:#0000ff;stroke:#0000ff;" x="673.673472" xlink:href="#mb0b7ffaf80" y="132.177433"/>
     <use style="fill:#0000ff;stroke:#0000ff;" x="674.681559" xlink:href="#mb0b7ffaf80" y="130.275837"/>
     <use style="fill:#0000ff;stroke:#0000ff;" x="675.709094" xlink:href="#mb0b7ffaf80" y="130.274313"/>
     <use style="fill:#0000ff;stroke:#0000ff;" x="676.757273" xlink:href="#mb0b7ffaf80" y="130.10603"/>
     <use style="fill:#0000ff;stroke:#0000ff;" x="677.8274" xlink:href="#mb0b7ffaf80" y="128.092574"/>
     <use style="fill:#0000ff;stroke:#0000ff;" x="678.920901" xlink:href="#mb0b7ffaf80" y="127.324655"/>
     <use style="fill:#0000ff;stroke:#0000ff;" x="680.039342" xlink:href="#mb0b7ffaf80" y="125.602455"/>
     <use style="fill:#0000ff;stroke:#0000ff;" x="681.184445" xlink:href="#mb0b7ffaf80" y="125.034111"/>
     <use style="fill:#0000ff;stroke:#0000ff;" x="682.358114" xlink:href="#mb0b7ffaf80" y="124.82612"/>
     <use style="fill:#0000ff;stroke:#0000ff;" x="683.56246" xlink:href="#mb0b7ffaf80" y="123.730702"/>
     <use style="fill:#0000ff;stroke:#0000ff;" x="684.799832" xlink:href="#mb0b7ffaf80" y="123.320146"/>
     <use style="fill:#0000ff;stroke:#0000ff;" x="686.072857" xlink:href="#mb0b7ffaf80" y="122.988326"/>
     <use style="fill:#0000ff;stroke:#0000ff;" x="687.384486" xlink:href="#mb0b7ffaf80" y="122.779229"/>
     <use style="fill:#0000ff;stroke:#0000ff;" x="688.738048" xlink:href="#mb0b7ffaf80" y="121.913691"/>
     <use style="fill:#0000ff;stroke:#0000ff;" x="690.137324" xlink:href="#mb0b7ffaf80" y="121.82005"/>
     <use style="fill:#0000ff;stroke:#0000ff;" x="691.586631" xlink:href="#mb0b7ffaf80" y="119.968574"/>
     <use style="fill:#0000ff;stroke:#0000ff;" x="693.09093" xlink:href="#mb0b7ffaf80" y="118.661209"/>
     <use style="fill:#0000ff;stroke:#0000ff;" x="694.655963" xlink:href="#mb0b7ffaf80" y="118.096734"/>
     <use style="fill:#0000ff;stroke:#0000ff;" x="696.288433" xlink:href="#mb0b7ffaf80" y="116.018952"/>
     <use style="fill:#0000ff;stroke:#0000ff;" x="697.996228" xlink:href="#mb0b7ffaf80" y="112.997824"/>
     <use style="fill:#0000ff;stroke:#0000ff;" x="699.788731" xlink:href="#mb0b7ffaf80" y="112.288355"/>
     <use style="fill:#0000ff;stroke:#0000ff;" x="701.677224" xlink:href="#mb0b7ffaf80" y="109.495835"/>
     <use style="fill:#0000ff;stroke:#0000ff;" x="703.67545" xlink:href="#mb0b7ffaf80" y="106.523193"/>
     <use style="fill:#0000ff;stroke:#0000ff;" x="705.800394" xlink:href="#mb0b7ffaf80" y="106.169129"/>
     <use style="fill:#0000ff;stroke:#0000ff;" x="708.073414" xlink:href="#mb0b7ffaf80" y="105.753741"/>
     <use style="fill:#0000ff;stroke:#0000ff;" x="710.521908" xlink:href="#mb0b7ffaf80" y="101.18983"/>
     <use style="fill:#0000ff;stroke:#0000ff;" x="713.181875" xlink:href="#mb0b7ffaf80" y="100.874902"/>
     <use style="fill:#0000ff;stroke:#0000ff;" x="716.102001" xlink:href="#mb0b7ffaf80" y="97.337413"/>
     <use style="fill:#0000ff;stroke:#0000ff;" x="719.350551" xlink:href="#mb0b7ffaf80" y="96.425422"/>
     <use style="fill:#0000ff;stroke:#0000ff;" x="723.027728" xlink:href="#mb0b7ffaf80" y="91.682071"/>
     <use style="fill:#0000ff;stroke:#0000ff;" x="727.289794" xlink:href="#mb0b7ffaf80" y="90.865367"/>
     <use style="fill:#0000ff;stroke:#0000ff;" x="732.401755" xlink:href="#mb0b7ffaf80" y="86.539597"/>
     <use style="fill:#0000ff;stroke:#0000ff;" x="738.872849" xlink:href="#mb0b7ffaf80" y="85.693384"/>
     <use style="fill:#0000ff;stroke:#0000ff;" x="747.909883" xlink:href="#mb0b7ffaf80" y="76.236372"/>
     <use style="fill:#0000ff;stroke:#0000ff;" x="763.765289" xlink:href="#mb0b7ffaf80" y="44.443636"/>
    </g>
   </g>
   <g id="line2d_28">
    <path clip-path="url(#p46989c1e8b)" d="M 487.071074 242.116364 
L 763.765289 77.202009 
L 763.765289 77.202009 
" style="fill:none;stroke:#ff0000;stroke-linecap:square;stroke-width:1.5;"/>
   </g>
   <g id="patch_21">
    <path d="M 473.236364 252 
L 473.236364 34.56 
" style="fill:none;stroke:#000000;stroke-linecap:square;stroke-linejoin:miter;stroke-width:0.8;"/>
   </g>
   <g id="patch_22">
    <path d="M 777.6 252 
L 777.6 34.56 
" style="fill:none;stroke:#000000;stroke-linecap:square;stroke-linejoin:miter;stroke-width:0.8;"/>
   </g>
   <g id="patch_23">
    <path d="M 473.236364 252 
L 777.6 252 
" style="fill:none;stroke:#000000;stroke-linecap:square;stroke-linejoin:miter;stroke-width:0.8;"/>
   </g>
   <g id="patch_24">
    <path d="M 473.236364 34.56 
L 777.6 34.56 
" style="fill:none;stroke:#000000;stroke-linecap:square;stroke-linejoin:miter;stroke-width:0.8;"/>
   </g>
   <g id="text_28">
    <!-- Probability Plot -->
    <defs>
     <path d="M 19.671875 64.796875 
L 19.671875 37.40625 
L 32.078125 37.40625 
Q 38.96875 37.40625 42.71875 40.96875 
Q 46.484375 44.53125 46.484375 51.125 
Q 46.484375 57.671875 42.71875 61.234375 
Q 38.96875 64.796875 32.078125 64.796875 
z
M 9.8125 72.90625 
L 32.078125 72.90625 
Q 44.34375 72.90625 50.609375 67.359375 
Q 56.890625 61.8125 56.890625 51.125 
Q 56.890625 40.328125 50.609375 34.8125 
Q 44.34375 29.296875 32.078125 29.296875 
L 19.671875 29.296875 
L 19.671875 0 
L 9.8125 0 
z
" id="DejaVuSans-50"/>
     <path d="M 48.6875 27.296875 
Q 48.6875 37.203125 44.609375 42.84375 
Q 40.53125 48.484375 33.40625 48.484375 
Q 26.265625 48.484375 22.1875 42.84375 
Q 18.109375 37.203125 18.109375 27.296875 
Q 18.109375 17.390625 22.1875 11.75 
Q 26.265625 6.109375 33.40625 6.109375 
Q 40.53125 6.109375 44.609375 11.75 
Q 48.6875 17.390625 48.6875 27.296875 
z
M 18.109375 46.390625 
Q 20.953125 51.265625 25.265625 53.625 
Q 29.59375 56 35.59375 56 
Q 45.5625 56 51.78125 48.09375 
Q 58.015625 40.1875 58.015625 27.296875 
Q 58.015625 14.40625 51.78125 6.484375 
Q 45.5625 -1.421875 35.59375 -1.421875 
Q 29.59375 -1.421875 25.265625 0.953125 
Q 20.953125 3.328125 18.109375 8.203125 
L 18.109375 0 
L 9.078125 0 
L 9.078125 75.984375 
L 18.109375 75.984375 
z
" id="DejaVuSans-62"/>
     <path d="M 32.171875 -5.078125 
Q 28.375 -14.84375 24.75 -17.8125 
Q 21.140625 -20.796875 15.09375 -20.796875 
L 7.90625 -20.796875 
L 7.90625 -13.28125 
L 13.1875 -13.28125 
Q 16.890625 -13.28125 18.9375 -11.515625 
Q 21 -9.765625 23.484375 -3.21875 
L 25.09375 0.875 
L 2.984375 54.6875 
L 12.5 54.6875 
L 29.59375 11.921875 
L 46.6875 54.6875 
L 56.203125 54.6875 
z
" id="DejaVuSans-79"/>
    </defs>
    <g transform="translate(580.251307 28.56)scale(0.12 -0.12)">
     <use xlink:href="#DejaVuSans-50"/>
     <use x="60.287109" xlink:href="#DejaVuSans-72"/>
     <use x="101.369141" xlink:href="#DejaVuSans-6f"/>
     <use x="162.550781" xlink:href="#DejaVuSans-62"/>
     <use x="226.027344" xlink:href="#DejaVuSans-61"/>
     <use x="287.306641" xlink:href="#DejaVuSans-62"/>
     <use x="350.783203" xlink:href="#DejaVuSans-69"/>
     <use x="378.566406" xlink:href="#DejaVuSans-6c"/>
     <use x="406.349609" xlink:href="#DejaVuSans-69"/>
     <use x="434.132812" xlink:href="#DejaVuSans-74"/>
     <use x="473.341797" xlink:href="#DejaVuSans-79"/>
     <use x="532.521484" xlink:href="#DejaVuSans-20"/>
     <use x="564.308594" xlink:href="#DejaVuSans-50"/>
     <use x="624.611328" xlink:href="#DejaVuSans-6c"/>
     <use x="652.394531" xlink:href="#DejaVuSans-6f"/>
     <use x="713.576172" xlink:href="#DejaVuSans-74"/>
    </g>
   </g>
  </g>
 </g>
 <defs>
  <clipPath id="pc11b85addd">
   <rect height="217.44" width="304.363636" x="108" y="34.56"/>
  </clipPath>
  <clipPath id="p46989c1e8b">
   <rect height="217.44" width="304.363636" x="473.236364" y="34.56"/>
  </clipPath>
 </defs>
</svg>
