<?xml version="1.0" encoding="utf-8" standalone="no"?>
<!DOCTYPE svg PUBLIC "-//W3C//DTD SVG 1.1//EN"
  "http://www.w3.org/Graphics/SVG/1.1/DTD/svg11.dtd">
<!-- Created with matplotlib (http://matplotlib.org/) -->
<svg height="288pt" version="1.1" viewBox="0 0 1008 288" width="1008pt" xmlns="http://www.w3.org/2000/svg" xmlns:xlink="http://www.w3.org/1999/xlink">
 <defs>
  <style type="text/css">
*{stroke-linecap:butt;stroke-linejoin:round;}
  </style>
 </defs>
 <g id="figure_1">
  <g id="patch_1">
   <path d="M 0 288 
L 1008 288 
L 1008 0 
L 0 0 
z
" style="fill:#ffffff;"/>
  </g>
  <g id="axes_1">
   <g id="patch_2">
    <path d="M 126 252 
L 481.090909 252 
L 481.090909 34.56 
L 126 34.56 
z
" style="fill:#ffffff;"/>
   </g>
   <g id="matplotlib.axis_1">
    <g id="xtick_1">
     <g id="line2d_1">
      <defs>
       <path d="M 0 0 
L 0 3.5 
" id="mbbc0fb16c0" style="stroke:#000000;stroke-width:0.8;"/>
      </defs>
      <g>
       <use style="stroke:#000000;stroke-width:0.8;" x="142.140496" xlink:href="#mbbc0fb16c0" y="252"/>
      </g>
     </g>
     <g id="text_1">
      <!-- 0 -->
      <defs>
       <path d="M 31.78125 66.40625 
Q 24.171875 66.40625 20.328125 58.90625 
Q 16.5 51.421875 16.5 36.375 
Q 16.5 21.390625 20.328125 13.890625 
Q 24.171875 6.390625 31.78125 6.390625 
Q 39.453125 6.390625 43.28125 13.890625 
Q 47.125 21.390625 47.125 36.375 
Q 47.125 51.421875 43.28125 58.90625 
Q 39.453125 66.40625 31.78125 66.40625 
z
M 31.78125 74.21875 
Q 44.046875 74.21875 50.515625 64.515625 
Q 56.984375 54.828125 56.984375 36.375 
Q 56.984375 17.96875 50.515625 8.265625 
Q 44.046875 -1.421875 31.78125 -1.421875 
Q 19.53125 -1.421875 13.0625 8.265625 
Q 6.59375 17.96875 6.59375 36.375 
Q 6.59375 54.828125 13.0625 64.515625 
Q 19.53125 74.21875 31.78125 74.21875 
z
" id="DejaVuSans-30"/>
      </defs>
      <g transform="translate(138.959246 266.598437)scale(0.1 -0.1)">
       <use xlink:href="#DejaVuSans-30"/>
      </g>
     </g>
    </g>
    <g id="xtick_2">
     <g id="line2d_2">
      <g>
       <use style="stroke:#000000;stroke-width:0.8;" x="187.288736" xlink:href="#mbbc0fb16c0" y="252"/>
      </g>
     </g>
     <g id="text_2">
      <!-- 20 -->
      <defs>
       <path d="M 19.1875 8.296875 
L 53.609375 8.296875 
L 53.609375 0 
L 7.328125 0 
L 7.328125 8.296875 
Q 12.9375 14.109375 22.625 23.890625 
Q 32.328125 33.6875 34.8125 36.53125 
Q 39.546875 41.84375 41.421875 45.53125 
Q 43.3125 49.21875 43.3125 52.78125 
Q 43.3125 58.59375 39.234375 62.25 
Q 35.15625 65.921875 28.609375 65.921875 
Q 23.96875 65.921875 18.8125 64.3125 
Q 13.671875 62.703125 7.8125 59.421875 
L 7.8125 69.390625 
Q 13.765625 71.78125 18.9375 73 
Q 24.125 74.21875 28.421875 74.21875 
Q 39.75 74.21875 46.484375 68.546875 
Q 53.21875 62.890625 53.21875 53.421875 
Q 53.21875 48.921875 51.53125 44.890625 
Q 49.859375 40.875 45.40625 35.40625 
Q 44.1875 33.984375 37.640625 27.21875 
Q 31.109375 20.453125 19.1875 8.296875 
z
" id="DejaVuSans-32"/>
      </defs>
      <g transform="translate(180.926236 266.598437)scale(0.1 -0.1)">
       <use xlink:href="#DejaVuSans-32"/>
       <use x="63.623047" xlink:href="#DejaVuSans-30"/>
      </g>
     </g>
    </g>
    <g id="xtick_3">
     <g id="line2d_3">
      <g>
       <use style="stroke:#000000;stroke-width:0.8;" x="232.436976" xlink:href="#mbbc0fb16c0" y="252"/>
      </g>
     </g>
     <g id="text_3">
      <!-- 40 -->
      <defs>
       <path d="M 37.796875 64.3125 
L 12.890625 25.390625 
L 37.796875 25.390625 
z
M 35.203125 72.90625 
L 47.609375 72.90625 
L 47.609375 25.390625 
L 58.015625 25.390625 
L 58.015625 17.1875 
L 47.609375 17.1875 
L 47.609375 0 
L 37.796875 0 
L 37.796875 17.1875 
L 4.890625 17.1875 
L 4.890625 26.703125 
z
" id="DejaVuSans-34"/>
      </defs>
      <g transform="translate(226.074476 266.598437)scale(0.1 -0.1)">
       <use xlink:href="#DejaVuSans-34"/>
       <use x="63.623047" xlink:href="#DejaVuSans-30"/>
      </g>
     </g>
    </g>
    <g id="xtick_4">
     <g id="line2d_4">
      <g>
       <use style="stroke:#000000;stroke-width:0.8;" x="277.585216" xlink:href="#mbbc0fb16c0" y="252"/>
      </g>
     </g>
     <g id="text_4">
      <!-- 60 -->
      <defs>
       <path d="M 33.015625 40.375 
Q 26.375 40.375 22.484375 35.828125 
Q 18.609375 31.296875 18.609375 23.390625 
Q 18.609375 15.53125 22.484375 10.953125 
Q 26.375 6.390625 33.015625 6.390625 
Q 39.65625 6.390625 43.53125 10.953125 
Q 47.40625 15.53125 47.40625 23.390625 
Q 47.40625 31.296875 43.53125 35.828125 
Q 39.65625 40.375 33.015625 40.375 
z
M 52.59375 71.296875 
L 52.59375 62.3125 
Q 48.875 64.0625 45.09375 64.984375 
Q 41.3125 65.921875 37.59375 65.921875 
Q 27.828125 65.921875 22.671875 59.328125 
Q 17.53125 52.734375 16.796875 39.40625 
Q 19.671875 43.65625 24.015625 45.921875 
Q 28.375 48.1875 33.59375 48.1875 
Q 44.578125 48.1875 50.953125 41.515625 
Q 57.328125 34.859375 57.328125 23.390625 
Q 57.328125 12.15625 50.6875 5.359375 
Q 44.046875 -1.421875 33.015625 -1.421875 
Q 20.359375 -1.421875 13.671875 8.265625 
Q 6.984375 17.96875 6.984375 36.375 
Q 6.984375 53.65625 15.1875 63.9375 
Q 23.390625 74.21875 37.203125 74.21875 
Q 40.921875 74.21875 44.703125 73.484375 
Q 48.484375 72.75 52.59375 71.296875 
z
" id="DejaVuSans-36"/>
      </defs>
      <g transform="translate(271.222716 266.598437)scale(0.1 -0.1)">
       <use xlink:href="#DejaVuSans-36"/>
       <use x="63.623047" xlink:href="#DejaVuSans-30"/>
      </g>
     </g>
    </g>
    <g id="xtick_5">
     <g id="line2d_5">
      <g>
       <use style="stroke:#000000;stroke-width:0.8;" x="322.733457" xlink:href="#mbbc0fb16c0" y="252"/>
      </g>
     </g>
     <g id="text_5">
      <!-- 80 -->
      <defs>
       <path d="M 31.78125 34.625 
Q 24.75 34.625 20.71875 30.859375 
Q 16.703125 27.09375 16.703125 20.515625 
Q 16.703125 13.921875 20.71875 10.15625 
Q 24.75 6.390625 31.78125 6.390625 
Q 38.8125 6.390625 42.859375 10.171875 
Q 46.921875 13.96875 46.921875 20.515625 
Q 46.921875 27.09375 42.890625 30.859375 
Q 38.875 34.625 31.78125 34.625 
z
M 21.921875 38.8125 
Q 15.578125 40.375 12.03125 44.71875 
Q 8.5 49.078125 8.5 55.328125 
Q 8.5 64.0625 14.71875 69.140625 
Q 20.953125 74.21875 31.78125 74.21875 
Q 42.671875 74.21875 48.875 69.140625 
Q 55.078125 64.0625 55.078125 55.328125 
Q 55.078125 49.078125 51.53125 44.71875 
Q 48 40.375 41.703125 38.8125 
Q 48.828125 37.15625 52.796875 32.3125 
Q 56.78125 27.484375 56.78125 20.515625 
Q 56.78125 9.90625 50.3125 4.234375 
Q 43.84375 -1.421875 31.78125 -1.421875 
Q 19.734375 -1.421875 13.25 4.234375 
Q 6.78125 9.90625 6.78125 20.515625 
Q 6.78125 27.484375 10.78125 32.3125 
Q 14.796875 37.15625 21.921875 38.8125 
z
M 18.3125 54.390625 
Q 18.3125 48.734375 21.84375 45.5625 
Q 25.390625 42.390625 31.78125 42.390625 
Q 38.140625 42.390625 41.71875 45.5625 
Q 45.3125 48.734375 45.3125 54.390625 
Q 45.3125 60.0625 41.71875 63.234375 
Q 38.140625 66.40625 31.78125 66.40625 
Q 25.390625 66.40625 21.84375 63.234375 
Q 18.3125 60.0625 18.3125 54.390625 
z
" id="DejaVuSans-38"/>
      </defs>
      <g transform="translate(316.370957 266.598437)scale(0.1 -0.1)">
       <use xlink:href="#DejaVuSans-38"/>
       <use x="63.623047" xlink:href="#DejaVuSans-30"/>
      </g>
     </g>
    </g>
    <g id="xtick_6">
     <g id="line2d_6">
      <g>
       <use style="stroke:#000000;stroke-width:0.8;" x="367.881697" xlink:href="#mbbc0fb16c0" y="252"/>
      </g>
     </g>
     <g id="text_6">
      <!-- 100 -->
      <defs>
       <path d="M 12.40625 8.296875 
L 28.515625 8.296875 
L 28.515625 63.921875 
L 10.984375 60.40625 
L 10.984375 69.390625 
L 28.421875 72.90625 
L 38.28125 72.90625 
L 38.28125 8.296875 
L 54.390625 8.296875 
L 54.390625 0 
L 12.40625 0 
z
" id="DejaVuSans-31"/>
      </defs>
      <g transform="translate(358.337947 266.598437)scale(0.1 -0.1)">
       <use xlink:href="#DejaVuSans-31"/>
       <use x="63.623047" xlink:href="#DejaVuSans-30"/>
       <use x="127.246094" xlink:href="#DejaVuSans-30"/>
      </g>
     </g>
    </g>
    <g id="xtick_7">
     <g id="line2d_7">
      <g>
       <use style="stroke:#000000;stroke-width:0.8;" x="413.029937" xlink:href="#mbbc0fb16c0" y="252"/>
      </g>
     </g>
     <g id="text_7">
      <!-- 120 -->
      <g transform="translate(403.486187 266.598437)scale(0.1 -0.1)">
       <use xlink:href="#DejaVuSans-31"/>
       <use x="63.623047" xlink:href="#DejaVuSans-32"/>
       <use x="127.246094" xlink:href="#DejaVuSans-30"/>
      </g>
     </g>
    </g>
    <g id="xtick_8">
     <g id="line2d_8">
      <g>
       <use style="stroke:#000000;stroke-width:0.8;" x="458.178177" xlink:href="#mbbc0fb16c0" y="252"/>
      </g>
     </g>
     <g id="text_8">
      <!-- 140 -->
      <g transform="translate(448.634427 266.598437)scale(0.1 -0.1)">
       <use xlink:href="#DejaVuSans-31"/>
       <use x="63.623047" xlink:href="#DejaVuSans-34"/>
       <use x="127.246094" xlink:href="#DejaVuSans-30"/>
      </g>
     </g>
    </g>
   </g>
   <g id="matplotlib.axis_2">
    <g id="ytick_1">
     <g id="line2d_9">
      <defs>
       <path d="M 0 0 
L -3.5 0 
" id="m0feeac4c13" style="stroke:#000000;stroke-width:0.8;"/>
      </defs>
      <g>
       <use style="stroke:#000000;stroke-width:0.8;" x="126" xlink:href="#m0feeac4c13" y="243.642794"/>
      </g>
     </g>
     <g id="text_9">
      <!-- 100 -->
      <g transform="translate(99.9125 247.442013)scale(0.1 -0.1)">
       <use xlink:href="#DejaVuSans-31"/>
       <use x="63.623047" xlink:href="#DejaVuSans-30"/>
       <use x="127.246094" xlink:href="#DejaVuSans-30"/>
      </g>
     </g>
    </g>
    <g id="ytick_2">
     <g id="line2d_10">
      <g>
       <use style="stroke:#000000;stroke-width:0.8;" x="126" xlink:href="#m0feeac4c13" y="205.482036"/>
      </g>
     </g>
     <g id="text_10">
      <!-- 200 -->
      <g transform="translate(99.9125 209.281255)scale(0.1 -0.1)">
       <use xlink:href="#DejaVuSans-32"/>
       <use x="63.623047" xlink:href="#DejaVuSans-30"/>
       <use x="127.246094" xlink:href="#DejaVuSans-30"/>
      </g>
     </g>
    </g>
    <g id="ytick_3">
     <g id="line2d_11">
      <g>
       <use style="stroke:#000000;stroke-width:0.8;" x="126" xlink:href="#m0feeac4c13" y="167.321278"/>
      </g>
     </g>
     <g id="text_11">
      <!-- 300 -->
      <defs>
       <path d="M 40.578125 39.3125 
Q 47.65625 37.796875 51.625 33 
Q 55.609375 28.21875 55.609375 21.1875 
Q 55.609375 10.40625 48.1875 4.484375 
Q 40.765625 -1.421875 27.09375 -1.421875 
Q 22.515625 -1.421875 17.65625 -0.515625 
Q 12.796875 0.390625 7.625 2.203125 
L 7.625 11.71875 
Q 11.71875 9.328125 16.59375 8.109375 
Q 21.484375 6.890625 26.8125 6.890625 
Q 36.078125 6.890625 40.9375 10.546875 
Q 45.796875 14.203125 45.796875 21.1875 
Q 45.796875 27.640625 41.28125 31.265625 
Q 36.765625 34.90625 28.71875 34.90625 
L 20.21875 34.90625 
L 20.21875 43.015625 
L 29.109375 43.015625 
Q 36.375 43.015625 40.234375 45.921875 
Q 44.09375 48.828125 44.09375 54.296875 
Q 44.09375 59.90625 40.109375 62.90625 
Q 36.140625 65.921875 28.71875 65.921875 
Q 24.65625 65.921875 20.015625 65.03125 
Q 15.375 64.15625 9.8125 62.3125 
L 9.8125 71.09375 
Q 15.4375 72.65625 20.34375 73.4375 
Q 25.25 74.21875 29.59375 74.21875 
Q 40.828125 74.21875 47.359375 69.109375 
Q 53.90625 64.015625 53.90625 55.328125 
Q 53.90625 49.265625 50.4375 45.09375 
Q 46.96875 40.921875 40.578125 39.3125 
z
" id="DejaVuSans-33"/>
      </defs>
      <g transform="translate(99.9125 171.120496)scale(0.1 -0.1)">
       <use xlink:href="#DejaVuSans-33"/>
       <use x="63.623047" xlink:href="#DejaVuSans-30"/>
       <use x="127.246094" xlink:href="#DejaVuSans-30"/>
      </g>
     </g>
    </g>
    <g id="ytick_4">
     <g id="line2d_12">
      <g>
       <use style="stroke:#000000;stroke-width:0.8;" x="126" xlink:href="#m0feeac4c13" y="129.160519"/>
      </g>
     </g>
     <g id="text_12">
      <!-- 400 -->
      <g transform="translate(99.9125 132.959738)scale(0.1 -0.1)">
       <use xlink:href="#DejaVuSans-34"/>
       <use x="63.623047" xlink:href="#DejaVuSans-30"/>
       <use x="127.246094" xlink:href="#DejaVuSans-30"/>
      </g>
     </g>
    </g>
    <g id="ytick_5">
     <g id="line2d_13">
      <g>
       <use style="stroke:#000000;stroke-width:0.8;" x="126" xlink:href="#m0feeac4c13" y="90.999761"/>
      </g>
     </g>
     <g id="text_13">
      <!-- 500 -->
      <defs>
       <path d="M 10.796875 72.90625 
L 49.515625 72.90625 
L 49.515625 64.59375 
L 19.828125 64.59375 
L 19.828125 46.734375 
Q 21.96875 47.46875 24.109375 47.828125 
Q 26.265625 48.1875 28.421875 48.1875 
Q 40.625 48.1875 47.75 41.5 
Q 54.890625 34.8125 54.890625 23.390625 
Q 54.890625 11.625 47.5625 5.09375 
Q 40.234375 -1.421875 26.90625 -1.421875 
Q 22.3125 -1.421875 17.546875 -0.640625 
Q 12.796875 0.140625 7.71875 1.703125 
L 7.71875 11.625 
Q 12.109375 9.234375 16.796875 8.0625 
Q 21.484375 6.890625 26.703125 6.890625 
Q 35.15625 6.890625 40.078125 11.328125 
Q 45.015625 15.765625 45.015625 23.390625 
Q 45.015625 31 40.078125 35.4375 
Q 35.15625 39.890625 26.703125 39.890625 
Q 22.75 39.890625 18.8125 39.015625 
Q 14.890625 38.140625 10.796875 36.28125 
z
" id="DejaVuSans-35"/>
      </defs>
      <g transform="translate(99.9125 94.79898)scale(0.1 -0.1)">
       <use xlink:href="#DejaVuSans-35"/>
       <use x="63.623047" xlink:href="#DejaVuSans-30"/>
       <use x="127.246094" xlink:href="#DejaVuSans-30"/>
      </g>
     </g>
    </g>
    <g id="ytick_6">
     <g id="line2d_14">
      <g>
       <use style="stroke:#000000;stroke-width:0.8;" x="126" xlink:href="#m0feeac4c13" y="52.839003"/>
      </g>
     </g>
     <g id="text_14">
      <!-- 600 -->
      <g transform="translate(99.9125 56.638222)scale(0.1 -0.1)">
       <use xlink:href="#DejaVuSans-36"/>
       <use x="63.623047" xlink:href="#DejaVuSans-30"/>
       <use x="127.246094" xlink:href="#DejaVuSans-30"/>
      </g>
     </g>
    </g>
   </g>
   <g id="line2d_15">
    <path clip-path="url(#p72fd638d0a)" d="M 142.140496 239.063503 
L 144.397908 236.773857 
L 146.65532 231.431351 
L 148.912732 232.576174 
L 151.170144 235.629035 
L 153.427556 230.286529 
L 155.684968 225.32563 
L 157.94238 225.32563 
L 160.199792 229.904921 
L 162.457204 236.39225 
L 164.714616 242.116364 
L 166.972028 236.773857 
L 169.22944 237.91868 
L 171.486852 233.720997 
L 173.744264 227.996883 
L 176.001676 230.286529 
L 178.259088 234.102604 
L 180.5165 224.944022 
L 182.773912 216.930263 
L 185.031324 216.930263 
L 187.288736 221.509554 
L 189.546148 231.049744 
L 191.80356 238.300288 
L 194.060972 228.378491 
L 198.575796 224.562415 
L 200.833208 213.877403 
L 203.09062 219.601516 
L 205.348032 216.167048 
L 207.605444 213.877403 
L 209.862856 205.863643 
L 212.120268 205.863643 
L 214.37768 211.587757 
L 216.635092 219.983124 
L 218.892504 226.088845 
L 221.149916 218.456694 
L 223.407328 216.548656 
L 225.66474 213.114187 
L 227.922152 208.153289 
L 230.179564 212.73258 
L 232.436976 211.969365 
L 234.694388 198.613099 
L 239.209212 189.454517 
L 241.466624 202.047568 
L 243.724036 208.916504 
L 245.981448 216.167048 
L 248.23886 207.771681 
L 250.496272 207.008466 
L 252.753684 207.008466 
L 255.011096 191.744163 
L 257.268508 192.12577 
L 259.52592 194.415416 
L 261.783332 189.07291 
L 264.040744 181.059151 
L 266.298156 178.00629 
L 268.555568 191.362555 
L 270.81298 201.284352 
L 273.070392 213.114187 
L 275.327804 205.100428 
L 277.585216 203.955605 
L 279.842628 210.061327 
L 282.10004 192.12577 
L 284.357452 195.178631 
L 286.614864 192.507378 
L 288.872276 181.059151 
L 291.129688 166.558062 
L 293.387101 169.992531 
L 295.644513 182.967188 
L 297.901925 194.415416 
L 300.159337 204.337213 
L 302.416749 194.415416 
L 304.674161 189.454517 
L 306.931573 192.888986 
L 309.188985 179.914328 
L 311.446397 179.151113 
L 313.703809 178.769505 
L 315.961221 161.597164 
L 318.218633 142.898392 
L 320.476045 149.385721 
L 322.733457 162.741987 
L 327.248281 191.362555 
L 329.505693 175.716644 
L 331.763105 173.426999 
L 334.020517 176.098252 
L 336.277929 160.833949 
L 338.535341 162.360379 
L 340.792753 160.452341 
L 343.050165 139.082317 
L 345.307577 124.199621 
L 347.564989 127.252482 
L 352.079813 165.031632 
L 354.337225 178.387898 
L 356.594637 165.031632 
L 358.852049 161.597164 
L 361.109461 166.93967 
L 363.366873 145.951253 
L 365.624285 149.004114 
L 367.881697 146.332861 
L 370.139109 120.765153 
L 372.396521 104.356027 
L 374.653933 103.592812 
L 376.911345 127.634089 
L 379.168757 149.385721 
L 381.426169 165.41324 
L 383.683581 153.583405 
L 385.940993 152.056974 
L 388.198405 160.452341 
L 390.455817 143.661608 
L 392.713229 149.004114 
L 394.970641 143.28 
L 397.228053 115.804254 
L 399.485465 94.43423 
L 401.742877 89.091723 
L 404.000289 127.634089 
L 406.257701 144.80643 
L 408.515113 163.505202 
L 410.772525 153.201797 
L 413.029937 144.424823 
L 415.287349 151.293759 
L 417.544761 126.870874 
L 419.802173 130.68695 
L 422.059585 121.528368 
L 424.316997 101.684774 
L 426.574409 72.682597 
L 428.831821 68.484914 
L 431.089233 105.119242 
L 433.346645 126.489266 
L 435.604057 143.661608 
L 437.861469 127.252482 
L 440.118881 122.673191 
L 442.376293 132.594988 
L 444.633705 121.909975 
L 446.891117 105.882457 
L 449.148529 101.684774 
L 451.405941 77.643496 
L 453.663353 44.443636 
L 455.920765 50.549358 
L 458.178177 87.946901 
L 460.435589 105.882457 
L 462.693001 132.976595 
L 464.950413 116.949077 
L 464.950413 116.949077 
" style="fill:none;stroke:#1f77b4;stroke-linecap:square;stroke-width:1.5;"/>
   </g>
   <g id="patch_3">
    <path d="M 126 252 
L 126 34.56 
" style="fill:none;stroke:#000000;stroke-linecap:square;stroke-linejoin:miter;stroke-width:0.8;"/>
   </g>
   <g id="patch_4">
    <path d="M 481.090909 252 
L 481.090909 34.56 
" style="fill:none;stroke:#000000;stroke-linecap:square;stroke-linejoin:miter;stroke-width:0.8;"/>
   </g>
   <g id="patch_5">
    <path d="M 126 252 
L 481.090909 252 
" style="fill:none;stroke:#000000;stroke-linecap:square;stroke-linejoin:miter;stroke-width:0.8;"/>
   </g>
   <g id="patch_6">
    <path d="M 126 34.56 
L 481.090909 34.56 
" style="fill:none;stroke:#000000;stroke-linecap:square;stroke-linejoin:miter;stroke-width:0.8;"/>
   </g>
   <g id="text_15">
    <!-- air line passenger -->
    <defs>
     <path d="M 34.28125 27.484375 
Q 23.390625 27.484375 19.1875 25 
Q 14.984375 22.515625 14.984375 16.5 
Q 14.984375 11.71875 18.140625 8.90625 
Q 21.296875 6.109375 26.703125 6.109375 
Q 34.1875 6.109375 38.703125 11.40625 
Q 43.21875 16.703125 43.21875 25.484375 
L 43.21875 27.484375 
z
M 52.203125 31.203125 
L 52.203125 0 
L 43.21875 0 
L 43.21875 8.296875 
Q 40.140625 3.328125 35.546875 0.953125 
Q 30.953125 -1.421875 24.3125 -1.421875 
Q 15.921875 -1.421875 10.953125 3.296875 
Q 6 8.015625 6 15.921875 
Q 6 25.140625 12.171875 29.828125 
Q 18.359375 34.515625 30.609375 34.515625 
L 43.21875 34.515625 
L 43.21875 35.40625 
Q 43.21875 41.609375 39.140625 45 
Q 35.0625 48.390625 27.6875 48.390625 
Q 23 48.390625 18.546875 47.265625 
Q 14.109375 46.140625 10.015625 43.890625 
L 10.015625 52.203125 
Q 14.9375 54.109375 19.578125 55.046875 
Q 24.21875 56 28.609375 56 
Q 40.484375 56 46.34375 49.84375 
Q 52.203125 43.703125 52.203125 31.203125 
z
" id="DejaVuSans-61"/>
     <path d="M 9.421875 54.6875 
L 18.40625 54.6875 
L 18.40625 0 
L 9.421875 0 
z
M 9.421875 75.984375 
L 18.40625 75.984375 
L 18.40625 64.59375 
L 9.421875 64.59375 
z
" id="DejaVuSans-69"/>
     <path d="M 41.109375 46.296875 
Q 39.59375 47.171875 37.8125 47.578125 
Q 36.03125 48 33.890625 48 
Q 26.265625 48 22.1875 43.046875 
Q 18.109375 38.09375 18.109375 28.8125 
L 18.109375 0 
L 9.078125 0 
L 9.078125 54.6875 
L 18.109375 54.6875 
L 18.109375 46.1875 
Q 20.953125 51.171875 25.484375 53.578125 
Q 30.03125 56 36.53125 56 
Q 37.453125 56 38.578125 55.875 
Q 39.703125 55.765625 41.0625 55.515625 
z
" id="DejaVuSans-72"/>
     <path id="DejaVuSans-20"/>
     <path d="M 9.421875 75.984375 
L 18.40625 75.984375 
L 18.40625 0 
L 9.421875 0 
z
" id="DejaVuSans-6c"/>
     <path d="M 54.890625 33.015625 
L 54.890625 0 
L 45.90625 0 
L 45.90625 32.71875 
Q 45.90625 40.484375 42.875 44.328125 
Q 39.84375 48.1875 33.796875 48.1875 
Q 26.515625 48.1875 22.3125 43.546875 
Q 18.109375 38.921875 18.109375 30.90625 
L 18.109375 0 
L 9.078125 0 
L 9.078125 54.6875 
L 18.109375 54.6875 
L 18.109375 46.1875 
Q 21.34375 51.125 25.703125 53.5625 
Q 30.078125 56 35.796875 56 
Q 45.21875 56 50.046875 50.171875 
Q 54.890625 44.34375 54.890625 33.015625 
z
" id="DejaVuSans-6e"/>
     <path d="M 56.203125 29.59375 
L 56.203125 25.203125 
L 14.890625 25.203125 
Q 15.484375 15.921875 20.484375 11.0625 
Q 25.484375 6.203125 34.421875 6.203125 
Q 39.59375 6.203125 44.453125 7.46875 
Q 49.3125 8.734375 54.109375 11.28125 
L 54.109375 2.78125 
Q 49.265625 0.734375 44.1875 -0.34375 
Q 39.109375 -1.421875 33.890625 -1.421875 
Q 20.796875 -1.421875 13.15625 6.1875 
Q 5.515625 13.8125 5.515625 26.8125 
Q 5.515625 40.234375 12.765625 48.109375 
Q 20.015625 56 32.328125 56 
Q 43.359375 56 49.78125 48.890625 
Q 56.203125 41.796875 56.203125 29.59375 
z
M 47.21875 32.234375 
Q 47.125 39.59375 43.09375 43.984375 
Q 39.0625 48.390625 32.421875 48.390625 
Q 24.90625 48.390625 20.390625 44.140625 
Q 15.875 39.890625 15.1875 32.171875 
z
" id="DejaVuSans-65"/>
     <path d="M 18.109375 8.203125 
L 18.109375 -20.796875 
L 9.078125 -20.796875 
L 9.078125 54.6875 
L 18.109375 54.6875 
L 18.109375 46.390625 
Q 20.953125 51.265625 25.265625 53.625 
Q 29.59375 56 35.59375 56 
Q 45.5625 56 51.78125 48.09375 
Q 58.015625 40.1875 58.015625 27.296875 
Q 58.015625 14.40625 51.78125 6.484375 
Q 45.5625 -1.421875 35.59375 -1.421875 
Q 29.59375 -1.421875 25.265625 0.953125 
Q 20.953125 3.328125 18.109375 8.203125 
z
M 48.6875 27.296875 
Q 48.6875 37.203125 44.609375 42.84375 
Q 40.53125 48.484375 33.40625 48.484375 
Q 26.265625 48.484375 22.1875 42.84375 
Q 18.109375 37.203125 18.109375 27.296875 
Q 18.109375 17.390625 22.1875 11.75 
Q 26.265625 6.109375 33.40625 6.109375 
Q 40.53125 6.109375 44.609375 11.75 
Q 48.6875 17.390625 48.6875 27.296875 
z
" id="DejaVuSans-70"/>
     <path d="M 44.28125 53.078125 
L 44.28125 44.578125 
Q 40.484375 46.53125 36.375 47.5 
Q 32.28125 48.484375 27.875 48.484375 
Q 21.1875 48.484375 17.84375 46.4375 
Q 14.5 44.390625 14.5 40.28125 
Q 14.5 37.15625 16.890625 35.375 
Q 19.28125 33.59375 26.515625 31.984375 
L 29.59375 31.296875 
Q 39.15625 29.25 43.1875 25.515625 
Q 47.21875 21.78125 47.21875 15.09375 
Q 47.21875 7.46875 41.1875 3.015625 
Q 35.15625 -1.421875 24.609375 -1.421875 
Q 20.21875 -1.421875 15.453125 -0.5625 
Q 10.6875 0.296875 5.421875 2 
L 5.421875 11.28125 
Q 10.40625 8.6875 15.234375 7.390625 
Q 20.0625 6.109375 24.8125 6.109375 
Q 31.15625 6.109375 34.5625 8.28125 
Q 37.984375 10.453125 37.984375 14.40625 
Q 37.984375 18.0625 35.515625 20.015625 
Q 33.0625 21.96875 24.703125 23.78125 
L 21.578125 24.515625 
Q 13.234375 26.265625 9.515625 29.90625 
Q 5.8125 33.546875 5.8125 39.890625 
Q 5.8125 47.609375 11.28125 51.796875 
Q 16.75 56 26.8125 56 
Q 31.78125 56 36.171875 55.265625 
Q 40.578125 54.546875 44.28125 53.078125 
z
" id="DejaVuSans-73"/>
     <path d="M 45.40625 27.984375 
Q 45.40625 37.75 41.375 43.109375 
Q 37.359375 48.484375 30.078125 48.484375 
Q 22.859375 48.484375 18.828125 43.109375 
Q 14.796875 37.75 14.796875 27.984375 
Q 14.796875 18.265625 18.828125 12.890625 
Q 22.859375 7.515625 30.078125 7.515625 
Q 37.359375 7.515625 41.375 12.890625 
Q 45.40625 18.265625 45.40625 27.984375 
z
M 54.390625 6.78125 
Q 54.390625 -7.171875 48.1875 -13.984375 
Q 42 -20.796875 29.203125 -20.796875 
Q 24.46875 -20.796875 20.265625 -20.09375 
Q 16.0625 -19.390625 12.109375 -17.921875 
L 12.109375 -9.1875 
Q 16.0625 -11.328125 19.921875 -12.34375 
Q 23.78125 -13.375 27.78125 -13.375 
Q 36.625 -13.375 41.015625 -8.765625 
Q 45.40625 -4.15625 45.40625 5.171875 
L 45.40625 9.625 
Q 42.625 4.78125 38.28125 2.390625 
Q 33.9375 0 27.875 0 
Q 17.828125 0 11.671875 7.65625 
Q 5.515625 15.328125 5.515625 27.984375 
Q 5.515625 40.671875 11.671875 48.328125 
Q 17.828125 56 27.875 56 
Q 33.9375 56 38.28125 53.609375 
Q 42.625 51.21875 45.40625 46.390625 
L 45.40625 54.6875 
L 54.390625 54.6875 
z
" id="DejaVuSans-67"/>
    </defs>
    <g transform="translate(249.894205 28.56)scale(0.12 -0.12)">
     <use xlink:href="#DejaVuSans-61"/>
     <use x="61.279297" xlink:href="#DejaVuSans-69"/>
     <use x="89.0625" xlink:href="#DejaVuSans-72"/>
     <use x="130.175781" xlink:href="#DejaVuSans-20"/>
     <use x="161.962891" xlink:href="#DejaVuSans-6c"/>
     <use x="189.746094" xlink:href="#DejaVuSans-69"/>
     <use x="217.529297" xlink:href="#DejaVuSans-6e"/>
     <use x="280.908203" xlink:href="#DejaVuSans-65"/>
     <use x="342.431641" xlink:href="#DejaVuSans-20"/>
     <use x="374.21875" xlink:href="#DejaVuSans-70"/>
     <use x="437.695312" xlink:href="#DejaVuSans-61"/>
     <use x="498.974609" xlink:href="#DejaVuSans-73"/>
     <use x="551.074219" xlink:href="#DejaVuSans-73"/>
     <use x="603.173828" xlink:href="#DejaVuSans-65"/>
     <use x="664.697266" xlink:href="#DejaVuSans-6e"/>
     <use x="728.076172" xlink:href="#DejaVuSans-67"/>
     <use x="791.552734" xlink:href="#DejaVuSans-65"/>
     <use x="853.076172" xlink:href="#DejaVuSans-72"/>
    </g>
   </g>
  </g>
  <g id="axes_2">
   <g id="patch_7">
    <path d="M 552.109091 252 
L 907.2 252 
L 907.2 34.56 
L 552.109091 34.56 
z
" style="fill:#ffffff;"/>
   </g>
   <g id="matplotlib.axis_3">
    <g id="xtick_9">
     <g id="line2d_16">
      <g>
       <use style="stroke:#000000;stroke-width:0.8;" x="568.249587" xlink:href="#mbbc0fb16c0" y="252"/>
      </g>
     </g>
     <g id="text_16">
      <!-- 0 -->
      <g transform="translate(565.068337 266.598437)scale(0.1 -0.1)">
       <use xlink:href="#DejaVuSans-30"/>
      </g>
     </g>
    </g>
    <g id="xtick_10">
     <g id="line2d_17">
      <g>
       <use style="stroke:#000000;stroke-width:0.8;" x="612.591608" xlink:href="#mbbc0fb16c0" y="252"/>
      </g>
     </g>
     <g id="text_17">
      <!-- 50 -->
      <g transform="translate(606.229108 266.598437)scale(0.1 -0.1)">
       <use xlink:href="#DejaVuSans-35"/>
       <use x="63.623047" xlink:href="#DejaVuSans-30"/>
      </g>
     </g>
    </g>
    <g id="xtick_11">
     <g id="line2d_18">
      <g>
       <use style="stroke:#000000;stroke-width:0.8;" x="656.93363" xlink:href="#mbbc0fb16c0" y="252"/>
      </g>
     </g>
     <g id="text_18">
      <!-- 100 -->
      <g transform="translate(647.38988 266.598437)scale(0.1 -0.1)">
       <use xlink:href="#DejaVuSans-31"/>
       <use x="63.623047" xlink:href="#DejaVuSans-30"/>
       <use x="127.246094" xlink:href="#DejaVuSans-30"/>
      </g>
     </g>
    </g>
    <g id="xtick_12">
     <g id="line2d_19">
      <g>
       <use style="stroke:#000000;stroke-width:0.8;" x="701.275652" xlink:href="#mbbc0fb16c0" y="252"/>
      </g>
     </g>
     <g id="text_19">
      <!-- 150 -->
      <g transform="translate(691.731902 266.598437)scale(0.1 -0.1)">
       <use xlink:href="#DejaVuSans-31"/>
       <use x="63.623047" xlink:href="#DejaVuSans-35"/>
       <use x="127.246094" xlink:href="#DejaVuSans-30"/>
      </g>
     </g>
    </g>
    <g id="xtick_13">
     <g id="line2d_20">
      <g>
       <use style="stroke:#000000;stroke-width:0.8;" x="745.617673" xlink:href="#mbbc0fb16c0" y="252"/>
      </g>
     </g>
     <g id="text_20">
      <!-- 200 -->
      <g transform="translate(736.073923 266.598437)scale(0.1 -0.1)">
       <use xlink:href="#DejaVuSans-32"/>
       <use x="63.623047" xlink:href="#DejaVuSans-30"/>
       <use x="127.246094" xlink:href="#DejaVuSans-30"/>
      </g>
     </g>
    </g>
    <g id="xtick_14">
     <g id="line2d_21">
      <g>
       <use style="stroke:#000000;stroke-width:0.8;" x="789.959695" xlink:href="#mbbc0fb16c0" y="252"/>
      </g>
     </g>
     <g id="text_21">
      <!-- 250 -->
      <g transform="translate(780.415945 266.598437)scale(0.1 -0.1)">
       <use xlink:href="#DejaVuSans-32"/>
       <use x="63.623047" xlink:href="#DejaVuSans-35"/>
       <use x="127.246094" xlink:href="#DejaVuSans-30"/>
      </g>
     </g>
    </g>
    <g id="xtick_15">
     <g id="line2d_22">
      <g>
       <use style="stroke:#000000;stroke-width:0.8;" x="834.301716" xlink:href="#mbbc0fb16c0" y="252"/>
      </g>
     </g>
     <g id="text_22">
      <!-- 300 -->
      <g transform="translate(824.757966 266.598437)scale(0.1 -0.1)">
       <use xlink:href="#DejaVuSans-33"/>
       <use x="63.623047" xlink:href="#DejaVuSans-30"/>
       <use x="127.246094" xlink:href="#DejaVuSans-30"/>
      </g>
     </g>
    </g>
    <g id="xtick_16">
     <g id="line2d_23">
      <g>
       <use style="stroke:#000000;stroke-width:0.8;" x="878.643738" xlink:href="#mbbc0fb16c0" y="252"/>
      </g>
     </g>
     <g id="text_23">
      <!-- 350 -->
      <g transform="translate(869.099988 266.598437)scale(0.1 -0.1)">
       <use xlink:href="#DejaVuSans-33"/>
       <use x="63.623047" xlink:href="#DejaVuSans-35"/>
       <use x="127.246094" xlink:href="#DejaVuSans-30"/>
      </g>
     </g>
    </g>
   </g>
   <g id="matplotlib.axis_4">
    <g id="ytick_7">
     <g id="line2d_24">
      <g>
       <use style="stroke:#000000;stroke-width:0.8;" x="552.109091" xlink:href="#m0feeac4c13" y="214.442182"/>
      </g>
     </g>
     <g id="text_24">
      <!-- 30 -->
      <g transform="translate(532.384091 218.241401)scale(0.1 -0.1)">
       <use xlink:href="#DejaVuSans-33"/>
       <use x="63.623047" xlink:href="#DejaVuSans-30"/>
      </g>
     </g>
    </g>
    <g id="ytick_8">
     <g id="line2d_25">
      <g>
       <use style="stroke:#000000;stroke-width:0.8;" x="552.109091" xlink:href="#m0feeac4c13" y="174.907636"/>
      </g>
     </g>
     <g id="text_25">
      <!-- 40 -->
      <g transform="translate(532.384091 178.706855)scale(0.1 -0.1)">
       <use xlink:href="#DejaVuSans-34"/>
       <use x="63.623047" xlink:href="#DejaVuSans-30"/>
      </g>
     </g>
    </g>
    <g id="ytick_9">
     <g id="line2d_26">
      <g>
       <use style="stroke:#000000;stroke-width:0.8;" x="552.109091" xlink:href="#m0feeac4c13" y="135.373091"/>
      </g>
     </g>
     <g id="text_26">
      <!-- 50 -->
      <g transform="translate(532.384091 139.17231)scale(0.1 -0.1)">
       <use xlink:href="#DejaVuSans-35"/>
       <use x="63.623047" xlink:href="#DejaVuSans-30"/>
      </g>
     </g>
    </g>
    <g id="ytick_10">
     <g id="line2d_27">
      <g>
       <use style="stroke:#000000;stroke-width:0.8;" x="552.109091" xlink:href="#m0feeac4c13" y="95.838545"/>
      </g>
     </g>
     <g id="text_27">
      <!-- 60 -->
      <g transform="translate(532.384091 99.637764)scale(0.1 -0.1)">
       <use xlink:href="#DejaVuSans-36"/>
       <use x="63.623047" xlink:href="#DejaVuSans-30"/>
      </g>
     </g>
    </g>
    <g id="ytick_11">
     <g id="line2d_28">
      <g>
       <use style="stroke:#000000;stroke-width:0.8;" x="552.109091" xlink:href="#m0feeac4c13" y="56.304"/>
      </g>
     </g>
     <g id="text_28">
      <!-- 70 -->
      <defs>
       <path d="M 8.203125 72.90625 
L 55.078125 72.90625 
L 55.078125 68.703125 
L 28.609375 0 
L 18.3125 0 
L 43.21875 64.59375 
L 8.203125 64.59375 
z
" id="DejaVuSans-37"/>
      </defs>
      <g transform="translate(532.384091 60.103219)scale(0.1 -0.1)">
       <use xlink:href="#DejaVuSans-37"/>
       <use x="63.623047" xlink:href="#DejaVuSans-30"/>
      </g>
     </g>
    </g>
   </g>
   <g id="line2d_29">
    <path clip-path="url(#p5a85e111b1)" d="M 568.249587 194.674909 
L 569.136427 206.535273 
L 570.023268 214.442182 
L 570.910108 210.488727 
L 571.796949 159.093818 
L 572.683789 218.395636 
L 573.570629 155.140364 
L 574.45747 163.047273 
L 575.34431 182.814545 
L 576.231151 226.302545 
L 577.117991 182.814545 
L 578.004832 202.581818 
L 578.891672 115.605818 
L 579.778512 147.233455 
L 580.665353 155.140364 
L 581.552193 186.768 
L 582.439034 135.373091 
L 583.325874 163.047273 
L 584.212715 170.954182 
L 585.099555 127.466182 
L 585.986395 198.628364 
L 586.873236 123.512727 
L 587.760076 178.861091 
L 588.646917 206.535273 
L 589.533757 186.768 
L 590.420598 163.047273 
L 592.194278 194.674909 
L 593.081119 159.093818 
L 593.967959 182.814545 
L 594.8548 238.162909 
L 595.74164 242.116364 
L 596.628481 210.488727 
L 597.515321 159.093818 
L 598.402161 182.814545 
L 599.289002 135.373091 
L 600.175842 182.814545 
L 601.062683 131.419636 
L 601.949523 210.488727 
L 602.836364 210.488727 
L 603.723204 131.419636 
L 604.610045 190.721455 
L 605.496885 155.140364 
L 606.383725 131.419636 
L 607.270566 198.628364 
L 608.157406 127.466182 
L 609.044247 147.233455 
L 609.931087 155.140364 
L 610.817928 151.186909 
L 611.704768 178.861091 
L 612.591608 143.28 
L 613.478449 186.768 
L 614.365289 194.674909 
L 615.25213 127.466182 
L 616.13897 167.000727 
L 617.025811 155.140364 
L 617.912651 178.861091 
L 618.799491 186.768 
L 619.686332 214.442182 
L 620.573172 194.674909 
L 621.460013 222.349091 
L 622.346853 155.140364 
L 623.233694 198.628364 
L 624.120534 190.721455 
L 625.007374 135.373091 
L 625.894215 159.093818 
L 626.781055 178.861091 
L 627.667896 206.535273 
L 628.554736 178.861091 
L 629.441577 155.140364 
L 630.328417 163.047273 
L 631.215257 178.861091 
L 632.102098 210.488727 
L 632.988938 226.302545 
L 633.875779 214.442182 
L 634.762619 167.000727 
L 635.64946 151.186909 
L 637.42314 190.721455 
L 638.309981 155.140364 
L 639.196821 151.186909 
L 640.083662 163.047273 
L 640.970502 182.814545 
L 641.857343 198.628364 
L 642.744183 194.674909 
L 643.631024 111.652364 
L 644.517864 190.721455 
L 645.404704 206.535273 
L 646.291545 135.373091 
L 647.178385 170.954182 
L 648.065226 178.861091 
L 648.952066 170.954182 
L 649.838907 147.233455 
L 650.725747 198.628364 
L 651.612587 190.721455 
L 652.499428 202.581818 
L 653.386268 194.674909 
L 654.273109 182.814545 
L 655.159949 182.814545 
L 656.04679 198.628364 
L 656.93363 123.512727 
L 657.82047 198.628364 
L 658.707311 198.628364 
L 659.594151 182.814545 
L 661.367832 206.535273 
L 662.254673 167.000727 
L 663.141513 198.628364 
L 664.028353 151.186909 
L 664.915194 214.442182 
L 665.802034 151.186909 
L 666.688875 155.140364 
L 667.575715 119.559273 
L 668.462556 198.628364 
L 669.349396 186.768 
L 670.236236 194.674909 
L 671.123077 174.907636 
L 672.009917 167.000727 
L 672.896758 103.745455 
L 673.783598 131.419636 
L 674.670439 206.535273 
L 676.44412 182.814545 
L 677.33096 202.581818 
L 678.2178 178.861091 
L 679.104641 147.233455 
L 679.991481 182.814545 
L 680.878322 127.466182 
L 681.765162 214.442182 
L 682.652003 198.628364 
L 683.538843 174.907636 
L 684.425683 194.674909 
L 685.312524 167.000727 
L 686.199364 170.954182 
L 687.086205 167.000727 
L 687.973045 182.814545 
L 688.859886 238.162909 
L 690.633566 163.047273 
L 691.520407 190.721455 
L 692.407247 115.605818 
L 693.294088 170.954182 
L 694.180928 155.140364 
L 695.954609 186.768 
L 696.841449 163.047273 
L 697.72829 178.861091 
L 698.61513 202.581818 
L 699.501971 163.047273 
L 700.388811 174.907636 
L 701.275652 182.814545 
L 702.162492 155.140364 
L 703.049332 151.186909 
L 703.936173 198.628364 
L 704.823013 194.674909 
L 705.709854 143.28 
L 706.596694 131.419636 
L 707.483535 190.721455 
L 708.370375 202.581818 
L 709.257216 151.186909 
L 710.144056 167.000727 
L 711.030896 143.28 
L 711.917737 198.628364 
L 712.804577 170.954182 
L 713.691418 194.674909 
L 714.578258 174.907636 
L 715.465099 198.628364 
L 716.351939 214.442182 
L 717.238779 190.721455 
L 718.12562 174.907636 
L 719.01246 178.861091 
L 719.899301 155.140364 
L 720.786141 182.814545 
L 721.672982 147.233455 
L 722.559822 202.581818 
L 723.446662 214.442182 
L 724.333503 167.000727 
L 725.220343 163.047273 
L 726.107184 170.954182 
L 726.994024 170.954182 
L 727.880865 99.792 
L 728.767705 163.047273 
L 729.654545 155.140364 
L 730.541386 182.814545 
L 731.428226 186.768 
L 732.315067 155.140364 
L 733.201907 167.000727 
L 734.088748 107.698909 
L 734.975588 151.186909 
L 735.862428 131.419636 
L 736.749269 170.954182 
L 737.636109 147.233455 
L 738.52295 230.256 
L 740.296631 159.093818 
L 741.183471 170.954182 
L 742.070312 167.000727 
L 742.957152 190.721455 
L 743.843992 155.140364 
L 745.617673 155.140364 
L 746.504514 147.233455 
L 747.391354 182.814545 
L 748.278195 167.000727 
L 749.165035 194.674909 
L 750.051875 190.721455 
L 750.938716 178.861091 
L 751.825556 155.140364 
L 752.712397 163.047273 
L 753.599237 147.233455 
L 754.486078 190.721455 
L 755.372918 170.954182 
L 756.259758 135.373091 
L 757.146599 178.861091 
L 758.033439 170.954182 
L 758.92028 151.186909 
L 759.80712 80.024727 
L 760.693961 155.140364 
L 761.580801 198.628364 
L 762.467641 182.814545 
L 763.354482 159.093818 
L 764.241322 143.28 
L 766.015003 159.093818 
L 766.901844 186.768 
L 767.788684 178.861091 
L 768.675524 159.093818 
L 769.562365 155.140364 
L 770.449205 202.581818 
L 771.336046 159.093818 
L 772.222886 182.814545 
L 773.109727 151.186909 
L 773.996567 151.186909 
L 774.883408 174.907636 
L 775.770248 178.861091 
L 776.657088 159.093818 
L 777.543929 143.28 
L 778.430769 135.373091 
L 779.31761 170.954182 
L 780.20445 167.000727 
L 781.091291 131.419636 
L 781.978131 170.954182 
L 782.864971 159.093818 
L 783.751812 182.814545 
L 784.638652 64.210909 
L 785.525493 174.907636 
L 786.412333 167.000727 
L 787.299174 131.419636 
L 788.186014 159.093818 
L 789.072854 155.140364 
L 789.959695 190.721455 
L 790.846535 107.698909 
L 791.733376 159.093818 
L 792.620216 167.000727 
L 793.507057 123.512727 
L 794.393897 167.000727 
L 795.280737 198.628364 
L 796.167578 174.907636 
L 797.054418 111.652364 
L 797.941259 159.093818 
L 798.828099 123.512727 
L 799.71494 115.605818 
L 800.60178 178.861091 
L 801.48862 99.792 
L 802.375461 115.605818 
L 803.262301 44.443636 
L 804.149142 115.605818 
L 805.035982 159.093818 
L 805.922823 163.047273 
L 806.809663 174.907636 
L 807.696503 147.233455 
L 808.583344 131.419636 
L 809.470184 111.652364 
L 810.357025 139.326545 
L 811.243865 119.559273 
L 812.130706 111.652364 
L 813.017546 147.233455 
L 813.904387 159.093818 
L 815.678067 167.000727 
L 816.564908 155.140364 
L 817.451748 135.373091 
L 818.338589 143.28 
L 819.225429 163.047273 
L 820.11227 174.907636 
L 820.99911 99.792 
L 821.88595 170.954182 
L 822.772791 167.000727 
L 823.659631 131.419636 
L 824.546472 139.326545 
L 825.433312 155.140364 
L 826.320153 163.047273 
L 827.206993 167.000727 
L 828.093833 182.814545 
L 828.980674 147.233455 
L 829.867514 182.814545 
L 830.754355 190.721455 
L 831.641195 167.000727 
L 833.414876 222.349091 
L 834.301716 159.093818 
L 835.188557 190.721455 
L 836.075397 155.140364 
L 836.962238 151.186909 
L 837.849078 143.28 
L 838.735919 139.326545 
L 839.622759 163.047273 
L 840.509599 167.000727 
L 841.39644 99.792 
L 842.28328 155.140364 
L 843.170121 127.466182 
L 844.056961 151.186909 
L 844.943802 167.000727 
L 845.830642 174.907636 
L 846.717483 174.907636 
L 847.604323 155.140364 
L 848.491163 194.674909 
L 849.378004 194.674909 
L 850.264844 174.907636 
L 851.151685 178.861091 
L 852.038525 202.581818 
L 852.925366 167.000727 
L 853.812206 147.233455 
L 854.699046 131.419636 
L 855.585887 159.093818 
L 856.472727 174.907636 
L 857.359568 107.698909 
L 858.246408 139.326545 
L 859.133249 155.140364 
L 860.020089 139.326545 
L 860.906929 131.419636 
L 861.79377 151.186909 
L 862.68061 159.093818 
L 863.567451 127.466182 
L 864.454291 155.140364 
L 865.341132 206.535273 
L 866.227972 151.186909 
L 867.114812 170.954182 
L 868.001653 198.628364 
L 868.888493 202.581818 
L 869.775334 190.721455 
L 870.662174 139.326545 
L 871.549015 163.047273 
L 872.435855 163.047273 
L 873.322695 198.628364 
L 874.209536 178.861091 
L 875.096376 194.674909 
L 875.983217 127.466182 
L 876.870057 147.233455 
L 877.756898 127.466182 
L 878.643738 178.861091 
L 879.530579 174.907636 
L 880.417419 167.000727 
L 881.304259 167.000727 
L 882.1911 123.512727 
L 883.07794 178.861091 
L 883.964781 174.907636 
L 884.851621 182.814545 
L 885.738462 159.093818 
L 886.625302 198.628364 
L 887.512142 186.768 
L 888.398983 127.466182 
L 889.285823 143.28 
L 890.172664 115.605818 
L 891.059504 135.373091 
L 891.059504 135.373091 
" style="fill:none;stroke:#1f77b4;stroke-linecap:square;stroke-width:1.5;"/>
   </g>
   <g id="patch_8">
    <path d="M 552.109091 252 
L 552.109091 34.56 
" style="fill:none;stroke:#000000;stroke-linecap:square;stroke-linejoin:miter;stroke-width:0.8;"/>
   </g>
   <g id="patch_9">
    <path d="M 907.2 252 
L 907.2 34.56 
" style="fill:none;stroke:#000000;stroke-linecap:square;stroke-linejoin:miter;stroke-width:0.8;"/>
   </g>
   <g id="patch_10">
    <path d="M 552.109091 252 
L 907.2 252 
" style="fill:none;stroke:#000000;stroke-linecap:square;stroke-linejoin:miter;stroke-width:0.8;"/>
   </g>
   <g id="patch_11">
    <path d="M 552.109091 34.56 
L 907.2 34.56 
" style="fill:none;stroke:#000000;stroke-linecap:square;stroke-linejoin:miter;stroke-width:0.8;"/>
   </g>
   <g id="text_29">
    <!-- femail birth -->
    <defs>
     <path d="M 37.109375 75.984375 
L 37.109375 68.5 
L 28.515625 68.5 
Q 23.6875 68.5 21.796875 66.546875 
Q 19.921875 64.59375 19.921875 59.515625 
L 19.921875 54.6875 
L 34.71875 54.6875 
L 34.71875 47.703125 
L 19.921875 47.703125 
L 19.921875 0 
L 10.890625 0 
L 10.890625 47.703125 
L 2.296875 47.703125 
L 2.296875 54.6875 
L 10.890625 54.6875 
L 10.890625 58.5 
Q 10.890625 67.625 15.140625 71.796875 
Q 19.390625 75.984375 28.609375 75.984375 
z
" id="DejaVuSans-66"/>
     <path d="M 52 44.1875 
Q 55.375 50.25 60.0625 53.125 
Q 64.75 56 71.09375 56 
Q 79.640625 56 84.28125 50.015625 
Q 88.921875 44.046875 88.921875 33.015625 
L 88.921875 0 
L 79.890625 0 
L 79.890625 32.71875 
Q 79.890625 40.578125 77.09375 44.375 
Q 74.3125 48.1875 68.609375 48.1875 
Q 61.625 48.1875 57.5625 43.546875 
Q 53.515625 38.921875 53.515625 30.90625 
L 53.515625 0 
L 44.484375 0 
L 44.484375 32.71875 
Q 44.484375 40.625 41.703125 44.40625 
Q 38.921875 48.1875 33.109375 48.1875 
Q 26.21875 48.1875 22.15625 43.53125 
Q 18.109375 38.875 18.109375 30.90625 
L 18.109375 0 
L 9.078125 0 
L 9.078125 54.6875 
L 18.109375 54.6875 
L 18.109375 46.1875 
Q 21.1875 51.21875 25.484375 53.609375 
Q 29.78125 56 35.6875 56 
Q 41.65625 56 45.828125 52.96875 
Q 50 49.953125 52 44.1875 
z
" id="DejaVuSans-6d"/>
     <path d="M 48.6875 27.296875 
Q 48.6875 37.203125 44.609375 42.84375 
Q 40.53125 48.484375 33.40625 48.484375 
Q 26.265625 48.484375 22.1875 42.84375 
Q 18.109375 37.203125 18.109375 27.296875 
Q 18.109375 17.390625 22.1875 11.75 
Q 26.265625 6.109375 33.40625 6.109375 
Q 40.53125 6.109375 44.609375 11.75 
Q 48.6875 17.390625 48.6875 27.296875 
z
M 18.109375 46.390625 
Q 20.953125 51.265625 25.265625 53.625 
Q 29.59375 56 35.59375 56 
Q 45.5625 56 51.78125 48.09375 
Q 58.015625 40.1875 58.015625 27.296875 
Q 58.015625 14.40625 51.78125 6.484375 
Q 45.5625 -1.421875 35.59375 -1.421875 
Q 29.59375 -1.421875 25.265625 0.953125 
Q 20.953125 3.328125 18.109375 8.203125 
L 18.109375 0 
L 9.078125 0 
L 9.078125 75.984375 
L 18.109375 75.984375 
z
" id="DejaVuSans-62"/>
     <path d="M 18.3125 70.21875 
L 18.3125 54.6875 
L 36.8125 54.6875 
L 36.8125 47.703125 
L 18.3125 47.703125 
L 18.3125 18.015625 
Q 18.3125 11.328125 20.140625 9.421875 
Q 21.96875 7.515625 27.59375 7.515625 
L 36.8125 7.515625 
L 36.8125 0 
L 27.59375 0 
Q 17.1875 0 13.234375 3.875 
Q 9.28125 7.765625 9.28125 18.015625 
L 9.28125 47.703125 
L 2.6875 47.703125 
L 2.6875 54.6875 
L 9.28125 54.6875 
L 9.28125 70.21875 
z
" id="DejaVuSans-74"/>
     <path d="M 54.890625 33.015625 
L 54.890625 0 
L 45.90625 0 
L 45.90625 32.71875 
Q 45.90625 40.484375 42.875 44.328125 
Q 39.84375 48.1875 33.796875 48.1875 
Q 26.515625 48.1875 22.3125 43.546875 
Q 18.109375 38.921875 18.109375 30.90625 
L 18.109375 0 
L 9.078125 0 
L 9.078125 75.984375 
L 18.109375 75.984375 
L 18.109375 46.1875 
Q 21.34375 51.125 25.703125 53.5625 
Q 30.078125 56 35.796875 56 
Q 45.21875 56 50.046875 50.171875 
Q 54.890625 44.34375 54.890625 33.015625 
z
" id="DejaVuSans-68"/>
    </defs>
    <g transform="translate(694.99142 28.56)scale(0.12 -0.12)">
     <use xlink:href="#DejaVuSans-66"/>
     <use x="35.205078" xlink:href="#DejaVuSans-65"/>
     <use x="96.728516" xlink:href="#DejaVuSans-6d"/>
     <use x="194.140625" xlink:href="#DejaVuSans-61"/>
     <use x="255.419922" xlink:href="#DejaVuSans-69"/>
     <use x="283.203125" xlink:href="#DejaVuSans-6c"/>
     <use x="310.986328" xlink:href="#DejaVuSans-20"/>
     <use x="342.773438" xlink:href="#DejaVuSans-62"/>
     <use x="406.25" xlink:href="#DejaVuSans-69"/>
     <use x="434.033203" xlink:href="#DejaVuSans-72"/>
     <use x="475.146484" xlink:href="#DejaVuSans-74"/>
     <use x="514.355469" xlink:href="#DejaVuSans-68"/>
    </g>
   </g>
  </g>
 </g>
 <defs>
  <clipPath id="p72fd638d0a">
   <rect height="217.44" width="355.090909" x="126" y="34.56"/>
  </clipPath>
  <clipPath id="p5a85e111b1">
   <rect height="217.44" width="355.090909" x="552.109091" y="34.56"/>
  </clipPath>
 </defs>
</svg>
