<?xml version="1.0" encoding="UTF-8" standalone="no"?>
<!DOCTYPE svg PUBLIC "-//W3C//DTD SVG 1.1//EN"
 "http://www.w3.org/Graphics/SVG/1.1/DTD/svg11.dtd">
<!-- Generated by graphviz version 2.40.1 (20161225.0304)
 -->
<!-- Title: G Pages: 1 -->
<svg width="143pt" height="337pt"
 viewBox="0.00 0.00 143.36 337.00" xmlns="http://www.w3.org/2000/svg" xmlns:xlink="http://www.w3.org/1999/xlink">
<g id="graph0" class="graph" transform="scale(1 1) rotate(0) translate(4 333)">
<title>G</title>
<polygon fill="#ffffff" stroke="transparent" points="-4,4 -4,-333 139.3623,-333 139.3623,4 -4,4"/>
<!-- 56484854640 -->
<g id="node1" class="node">
<title>56484854640</title>
<polygon fill="none" stroke="#000000" points="0,-292.5 0,-328.5 135.3623,-328.5 135.3623,-292.5 0,-292.5"/>
<text text-anchor="middle" x="67.6812" y="-306.3" font-family="Times,serif" font-size="14.00" fill="#000000">input_35: InputLayer</text>
</g>
<!-- 56405413728 -->
<g id="node2" class="node">
<title>56405413728</title>
<polygon fill="none" stroke="#000000" points="12.0552,-219.5 12.0552,-255.5 123.3071,-255.5 123.3071,-219.5 12.0552,-219.5"/>
<text text-anchor="middle" x="67.6812" y="-233.3" font-family="Times,serif" font-size="14.00" fill="#000000">dense_74: Dense</text>
</g>
<!-- 56484854640&#45;&gt;56405413728 -->
<g id="edge1" class="edge">
<title>56484854640&#45;&gt;56405413728</title>
<path fill="none" stroke="#000000" d="M67.6812,-292.4551C67.6812,-284.3828 67.6812,-274.6764 67.6812,-265.6817"/>
<polygon fill="#000000" stroke="#000000" points="71.1813,-265.5903 67.6812,-255.5904 64.1813,-265.5904 71.1813,-265.5903"/>
</g>
<!-- 56397247320 -->
<g id="node3" class="node">
<title>56397247320</title>
<polygon fill="none" stroke="#000000" points="12.0552,-146.5 12.0552,-182.5 123.3071,-182.5 123.3071,-146.5 12.0552,-146.5"/>
<text text-anchor="middle" x="67.6812" y="-160.3" font-family="Times,serif" font-size="14.00" fill="#000000">dense_75: Dense</text>
</g>
<!-- 56405413728&#45;&gt;56397247320 -->
<g id="edge2" class="edge">
<title>56405413728&#45;&gt;56397247320</title>
<path fill="none" stroke="#000000" d="M67.6812,-219.4551C67.6812,-211.3828 67.6812,-201.6764 67.6812,-192.6817"/>
<polygon fill="#000000" stroke="#000000" points="71.1813,-192.5903 67.6812,-182.5904 64.1813,-192.5904 71.1813,-192.5903"/>
</g>
<!-- 56397247768 -->
<g id="node4" class="node">
<title>56397247768</title>
<polygon fill="none" stroke="#000000" points="12.0552,-73.5 12.0552,-109.5 123.3071,-109.5 123.3071,-73.5 12.0552,-73.5"/>
<text text-anchor="middle" x="67.6812" y="-87.3" font-family="Times,serif" font-size="14.00" fill="#000000">dense_76: Dense</text>
</g>
<!-- 56397247320&#45;&gt;56397247768 -->
<g id="edge3" class="edge">
<title>56397247320&#45;&gt;56397247768</title>
<path fill="none" stroke="#000000" d="M67.6812,-146.4551C67.6812,-138.3828 67.6812,-128.6764 67.6812,-119.6817"/>
<polygon fill="#000000" stroke="#000000" points="71.1813,-119.5903 67.6812,-109.5904 64.1813,-119.5904 71.1813,-119.5903"/>
</g>
<!-- 56397248104 -->
<g id="node5" class="node">
<title>56397248104</title>
<polygon fill="none" stroke="#000000" points="12.0552,-.5 12.0552,-36.5 123.3071,-36.5 123.3071,-.5 12.0552,-.5"/>
<text text-anchor="middle" x="67.6812" y="-14.3" font-family="Times,serif" font-size="14.00" fill="#000000">dense_77: Dense</text>
</g>
<!-- 56397247768&#45;&gt;56397248104 -->
<g id="edge4" class="edge">
<title>56397247768&#45;&gt;56397248104</title>
<path fill="none" stroke="#000000" d="M67.6812,-73.4551C67.6812,-65.3828 67.6812,-55.6764 67.6812,-46.6817"/>
<polygon fill="#000000" stroke="#000000" points="71.1813,-46.5903 67.6812,-36.5904 64.1813,-46.5904 71.1813,-46.5903"/>
</g>
</g>
</svg>
