<?xml version="1.0" encoding="utf-8" standalone="no"?>
<!DOCTYPE svg PUBLIC "-//W3C//DTD SVG 1.1//EN"
  "http://www.w3.org/Graphics/SVG/1.1/DTD/svg11.dtd">
<!-- Created with matplotlib (http://matplotlib.org/) -->
<svg height="288pt" version="1.1" viewBox="0 0 1080 288" width="1080pt" xmlns="http://www.w3.org/2000/svg" xmlns:xlink="http://www.w3.org/1999/xlink">
 <defs>
  <style type="text/css">
*{stroke-linecap:butt;stroke-linejoin:round;}
  </style>
 </defs>
 <g id="figure_1">
  <g id="patch_1">
   <path d="M 0 288 
L 1080 288 
L 1080 0 
L 0 0 
z
" style="fill:#ffffff;"/>
  </g>
  <g id="axes_1">
   <g id="patch_2">
    <path d="M 135 252 
L 972 252 
L 972 34.56 
L 135 34.56 
z
" style="fill:#ffffff;"/>
   </g>
   <g id="matplotlib.axis_1">
    <g id="xtick_1">
     <g id="line2d_1">
      <defs>
       <path d="M 0 0 
L 0 3.5 
" id="mfa8337ca44" style="stroke:#000000;stroke-width:0.8;"/>
      </defs>
      <g>
       <use style="stroke:#000000;stroke-width:0.8;" x="173.045455" xlink:href="#mfa8337ca44" y="252"/>
      </g>
     </g>
     <g id="text_1">
      <!-- 0 -->
      <defs>
       <path d="M 31.78125 66.40625 
Q 24.171875 66.40625 20.328125 58.90625 
Q 16.5 51.421875 16.5 36.375 
Q 16.5 21.390625 20.328125 13.890625 
Q 24.171875 6.390625 31.78125 6.390625 
Q 39.453125 6.390625 43.28125 13.890625 
Q 47.125 21.390625 47.125 36.375 
Q 47.125 51.421875 43.28125 58.90625 
Q 39.453125 66.40625 31.78125 66.40625 
z
M 31.78125 74.21875 
Q 44.046875 74.21875 50.515625 64.515625 
Q 56.984375 54.828125 56.984375 36.375 
Q 56.984375 17.96875 50.515625 8.265625 
Q 44.046875 -1.421875 31.78125 -1.421875 
Q 19.53125 -1.421875 13.0625 8.265625 
Q 6.59375 17.96875 6.59375 36.375 
Q 6.59375 54.828125 13.0625 64.515625 
Q 19.53125 74.21875 31.78125 74.21875 
z
" id="DejaVuSans-30"/>
      </defs>
      <g transform="translate(169.864205 266.598437)scale(0.1 -0.1)">
       <use xlink:href="#DejaVuSans-30"/>
      </g>
     </g>
    </g>
    <g id="xtick_2">
     <g id="line2d_2">
      <g>
       <use style="stroke:#000000;stroke-width:0.8;" x="326.764463" xlink:href="#mfa8337ca44" y="252"/>
      </g>
     </g>
     <g id="text_2">
      <!-- 20 -->
      <defs>
       <path d="M 19.1875 8.296875 
L 53.609375 8.296875 
L 53.609375 0 
L 7.328125 0 
L 7.328125 8.296875 
Q 12.9375 14.109375 22.625 23.890625 
Q 32.328125 33.6875 34.8125 36.53125 
Q 39.546875 41.84375 41.421875 45.53125 
Q 43.3125 49.21875 43.3125 52.78125 
Q 43.3125 58.59375 39.234375 62.25 
Q 35.15625 65.921875 28.609375 65.921875 
Q 23.96875 65.921875 18.8125 64.3125 
Q 13.671875 62.703125 7.8125 59.421875 
L 7.8125 69.390625 
Q 13.765625 71.78125 18.9375 73 
Q 24.125 74.21875 28.421875 74.21875 
Q 39.75 74.21875 46.484375 68.546875 
Q 53.21875 62.890625 53.21875 53.421875 
Q 53.21875 48.921875 51.53125 44.890625 
Q 49.859375 40.875 45.40625 35.40625 
Q 44.1875 33.984375 37.640625 27.21875 
Q 31.109375 20.453125 19.1875 8.296875 
z
" id="DejaVuSans-32"/>
      </defs>
      <g transform="translate(320.401963 266.598437)scale(0.1 -0.1)">
       <use xlink:href="#DejaVuSans-32"/>
       <use x="63.623047" xlink:href="#DejaVuSans-30"/>
      </g>
     </g>
    </g>
    <g id="xtick_3">
     <g id="line2d_3">
      <g>
       <use style="stroke:#000000;stroke-width:0.8;" x="480.483471" xlink:href="#mfa8337ca44" y="252"/>
      </g>
     </g>
     <g id="text_3">
      <!-- 40 -->
      <defs>
       <path d="M 37.796875 64.3125 
L 12.890625 25.390625 
L 37.796875 25.390625 
z
M 35.203125 72.90625 
L 47.609375 72.90625 
L 47.609375 25.390625 
L 58.015625 25.390625 
L 58.015625 17.1875 
L 47.609375 17.1875 
L 47.609375 0 
L 37.796875 0 
L 37.796875 17.1875 
L 4.890625 17.1875 
L 4.890625 26.703125 
z
" id="DejaVuSans-34"/>
      </defs>
      <g transform="translate(474.120971 266.598437)scale(0.1 -0.1)">
       <use xlink:href="#DejaVuSans-34"/>
       <use x="63.623047" xlink:href="#DejaVuSans-30"/>
      </g>
     </g>
    </g>
    <g id="xtick_4">
     <g id="line2d_4">
      <g>
       <use style="stroke:#000000;stroke-width:0.8;" x="634.202479" xlink:href="#mfa8337ca44" y="252"/>
      </g>
     </g>
     <g id="text_4">
      <!-- 60 -->
      <defs>
       <path d="M 33.015625 40.375 
Q 26.375 40.375 22.484375 35.828125 
Q 18.609375 31.296875 18.609375 23.390625 
Q 18.609375 15.53125 22.484375 10.953125 
Q 26.375 6.390625 33.015625 6.390625 
Q 39.65625 6.390625 43.53125 10.953125 
Q 47.40625 15.53125 47.40625 23.390625 
Q 47.40625 31.296875 43.53125 35.828125 
Q 39.65625 40.375 33.015625 40.375 
z
M 52.59375 71.296875 
L 52.59375 62.3125 
Q 48.875 64.0625 45.09375 64.984375 
Q 41.3125 65.921875 37.59375 65.921875 
Q 27.828125 65.921875 22.671875 59.328125 
Q 17.53125 52.734375 16.796875 39.40625 
Q 19.671875 43.65625 24.015625 45.921875 
Q 28.375 48.1875 33.59375 48.1875 
Q 44.578125 48.1875 50.953125 41.515625 
Q 57.328125 34.859375 57.328125 23.390625 
Q 57.328125 12.15625 50.6875 5.359375 
Q 44.046875 -1.421875 33.015625 -1.421875 
Q 20.359375 -1.421875 13.671875 8.265625 
Q 6.984375 17.96875 6.984375 36.375 
Q 6.984375 53.65625 15.1875 63.9375 
Q 23.390625 74.21875 37.203125 74.21875 
Q 40.921875 74.21875 44.703125 73.484375 
Q 48.484375 72.75 52.59375 71.296875 
z
" id="DejaVuSans-36"/>
      </defs>
      <g transform="translate(627.839979 266.598437)scale(0.1 -0.1)">
       <use xlink:href="#DejaVuSans-36"/>
       <use x="63.623047" xlink:href="#DejaVuSans-30"/>
      </g>
     </g>
    </g>
    <g id="xtick_5">
     <g id="line2d_5">
      <g>
       <use style="stroke:#000000;stroke-width:0.8;" x="787.921488" xlink:href="#mfa8337ca44" y="252"/>
      </g>
     </g>
     <g id="text_5">
      <!-- 80 -->
      <defs>
       <path d="M 31.78125 34.625 
Q 24.75 34.625 20.71875 30.859375 
Q 16.703125 27.09375 16.703125 20.515625 
Q 16.703125 13.921875 20.71875 10.15625 
Q 24.75 6.390625 31.78125 6.390625 
Q 38.8125 6.390625 42.859375 10.171875 
Q 46.921875 13.96875 46.921875 20.515625 
Q 46.921875 27.09375 42.890625 30.859375 
Q 38.875 34.625 31.78125 34.625 
z
M 21.921875 38.8125 
Q 15.578125 40.375 12.03125 44.71875 
Q 8.5 49.078125 8.5 55.328125 
Q 8.5 64.0625 14.71875 69.140625 
Q 20.953125 74.21875 31.78125 74.21875 
Q 42.671875 74.21875 48.875 69.140625 
Q 55.078125 64.0625 55.078125 55.328125 
Q 55.078125 49.078125 51.53125 44.71875 
Q 48 40.375 41.703125 38.8125 
Q 48.828125 37.15625 52.796875 32.3125 
Q 56.78125 27.484375 56.78125 20.515625 
Q 56.78125 9.90625 50.3125 4.234375 
Q 43.84375 -1.421875 31.78125 -1.421875 
Q 19.734375 -1.421875 13.25 4.234375 
Q 6.78125 9.90625 6.78125 20.515625 
Q 6.78125 27.484375 10.78125 32.3125 
Q 14.796875 37.15625 21.921875 38.8125 
z
M 18.3125 54.390625 
Q 18.3125 48.734375 21.84375 45.5625 
Q 25.390625 42.390625 31.78125 42.390625 
Q 38.140625 42.390625 41.71875 45.5625 
Q 45.3125 48.734375 45.3125 54.390625 
Q 45.3125 60.0625 41.71875 63.234375 
Q 38.140625 66.40625 31.78125 66.40625 
Q 25.390625 66.40625 21.84375 63.234375 
Q 18.3125 60.0625 18.3125 54.390625 
z
" id="DejaVuSans-38"/>
      </defs>
      <g transform="translate(781.558988 266.598437)scale(0.1 -0.1)">
       <use xlink:href="#DejaVuSans-38"/>
       <use x="63.623047" xlink:href="#DejaVuSans-30"/>
      </g>
     </g>
    </g>
    <g id="xtick_6">
     <g id="line2d_6">
      <g>
       <use style="stroke:#000000;stroke-width:0.8;" x="941.640496" xlink:href="#mfa8337ca44" y="252"/>
      </g>
     </g>
     <g id="text_6">
      <!-- 100 -->
      <defs>
       <path d="M 12.40625 8.296875 
L 28.515625 8.296875 
L 28.515625 63.921875 
L 10.984375 60.40625 
L 10.984375 69.390625 
L 28.421875 72.90625 
L 38.28125 72.90625 
L 38.28125 8.296875 
L 54.390625 8.296875 
L 54.390625 0 
L 12.40625 0 
z
" id="DejaVuSans-31"/>
      </defs>
      <g transform="translate(932.096746 266.598437)scale(0.1 -0.1)">
       <use xlink:href="#DejaVuSans-31"/>
       <use x="63.623047" xlink:href="#DejaVuSans-30"/>
       <use x="127.246094" xlink:href="#DejaVuSans-30"/>
      </g>
     </g>
    </g>
   </g>
   <g id="matplotlib.axis_2">
    <g id="ytick_1">
     <g id="line2d_7">
      <defs>
       <path d="M 0 0 
L -3.5 0 
" id="m7e9611387c" style="stroke:#000000;stroke-width:0.8;"/>
      </defs>
      <g>
       <use style="stroke:#000000;stroke-width:0.8;" x="135" xlink:href="#m7e9611387c" y="247.45887"/>
      </g>
     </g>
     <g id="text_7">
      <!-- −20 -->
      <defs>
       <path d="M 10.59375 35.5 
L 73.1875 35.5 
L 73.1875 27.203125 
L 10.59375 27.203125 
z
" id="DejaVuSans-2212"/>
      </defs>
      <g transform="translate(106.895313 251.258089)scale(0.1 -0.1)">
       <use xlink:href="#DejaVuSans-2212"/>
       <use x="83.789062" xlink:href="#DejaVuSans-32"/>
       <use x="147.412109" xlink:href="#DejaVuSans-30"/>
      </g>
     </g>
    </g>
    <g id="ytick_2">
     <g id="line2d_8">
      <g>
       <use style="stroke:#000000;stroke-width:0.8;" x="135" xlink:href="#m7e9611387c" y="220.746339"/>
      </g>
     </g>
     <g id="text_8">
      <!-- −15 -->
      <defs>
       <path d="M 10.796875 72.90625 
L 49.515625 72.90625 
L 49.515625 64.59375 
L 19.828125 64.59375 
L 19.828125 46.734375 
Q 21.96875 47.46875 24.109375 47.828125 
Q 26.265625 48.1875 28.421875 48.1875 
Q 40.625 48.1875 47.75 41.5 
Q 54.890625 34.8125 54.890625 23.390625 
Q 54.890625 11.625 47.5625 5.09375 
Q 40.234375 -1.421875 26.90625 -1.421875 
Q 22.3125 -1.421875 17.546875 -0.640625 
Q 12.796875 0.140625 7.71875 1.703125 
L 7.71875 11.625 
Q 12.109375 9.234375 16.796875 8.0625 
Q 21.484375 6.890625 26.703125 6.890625 
Q 35.15625 6.890625 40.078125 11.328125 
Q 45.015625 15.765625 45.015625 23.390625 
Q 45.015625 31 40.078125 35.4375 
Q 35.15625 39.890625 26.703125 39.890625 
Q 22.75 39.890625 18.8125 39.015625 
Q 14.890625 38.140625 10.796875 36.28125 
z
" id="DejaVuSans-35"/>
      </defs>
      <g transform="translate(106.895313 224.545558)scale(0.1 -0.1)">
       <use xlink:href="#DejaVuSans-2212"/>
       <use x="83.789062" xlink:href="#DejaVuSans-31"/>
       <use x="147.412109" xlink:href="#DejaVuSans-35"/>
      </g>
     </g>
    </g>
    <g id="ytick_3">
     <g id="line2d_9">
      <g>
       <use style="stroke:#000000;stroke-width:0.8;" x="135" xlink:href="#m7e9611387c" y="194.033808"/>
      </g>
     </g>
     <g id="text_9">
      <!-- −10 -->
      <g transform="translate(106.895313 197.833027)scale(0.1 -0.1)">
       <use xlink:href="#DejaVuSans-2212"/>
       <use x="83.789062" xlink:href="#DejaVuSans-31"/>
       <use x="147.412109" xlink:href="#DejaVuSans-30"/>
      </g>
     </g>
    </g>
    <g id="ytick_4">
     <g id="line2d_10">
      <g>
       <use style="stroke:#000000;stroke-width:0.8;" x="135" xlink:href="#m7e9611387c" y="167.321278"/>
      </g>
     </g>
     <g id="text_10">
      <!-- −5 -->
      <g transform="translate(113.257812 171.120496)scale(0.1 -0.1)">
       <use xlink:href="#DejaVuSans-2212"/>
       <use x="83.789062" xlink:href="#DejaVuSans-35"/>
      </g>
     </g>
    </g>
    <g id="ytick_5">
     <g id="line2d_11">
      <g>
       <use style="stroke:#000000;stroke-width:0.8;" x="135" xlink:href="#m7e9611387c" y="140.608747"/>
      </g>
     </g>
     <g id="text_11">
      <!-- 0 -->
      <g transform="translate(121.6375 144.407966)scale(0.1 -0.1)">
       <use xlink:href="#DejaVuSans-30"/>
      </g>
     </g>
    </g>
    <g id="ytick_6">
     <g id="line2d_12">
      <g>
       <use style="stroke:#000000;stroke-width:0.8;" x="135" xlink:href="#m7e9611387c" y="113.896216"/>
      </g>
     </g>
     <g id="text_12">
      <!-- 5 -->
      <g transform="translate(121.6375 117.695435)scale(0.1 -0.1)">
       <use xlink:href="#DejaVuSans-35"/>
      </g>
     </g>
    </g>
    <g id="ytick_7">
     <g id="line2d_13">
      <g>
       <use style="stroke:#000000;stroke-width:0.8;" x="135" xlink:href="#m7e9611387c" y="87.183686"/>
      </g>
     </g>
     <g id="text_13">
      <!-- 10 -->
      <g transform="translate(115.275 90.982904)scale(0.1 -0.1)">
       <use xlink:href="#DejaVuSans-31"/>
       <use x="63.623047" xlink:href="#DejaVuSans-30"/>
      </g>
     </g>
    </g>
    <g id="ytick_8">
     <g id="line2d_14">
      <g>
       <use style="stroke:#000000;stroke-width:0.8;" x="135" xlink:href="#m7e9611387c" y="60.471155"/>
      </g>
     </g>
     <g id="text_14">
      <!-- 15 -->
      <g transform="translate(115.275 64.270374)scale(0.1 -0.1)">
       <use xlink:href="#DejaVuSans-31"/>
       <use x="63.623047" xlink:href="#DejaVuSans-35"/>
      </g>
     </g>
    </g>
   </g>
   <g id="line2d_15">
    <path clip-path="url(#pb3dc2a13a3)" d="M 173.045455 145.951253 
L 180.731405 140.608747 
L 188.417355 135.266241 
L 196.103306 129.923735 
L 203.789256 135.266241 
L 211.475207 140.608747 
L 219.161157 135.266241 
L 226.847107 129.923735 
L 234.533058 135.266241 
L 242.219008 129.923735 
L 249.904959 135.266241 
L 257.590909 140.608747 
L 265.27686 145.951253 
L 272.96281 151.293759 
L 280.64876 145.951253 
L 288.334711 151.293759 
L 296.020661 145.951253 
L 303.706612 151.293759 
L 311.392562 156.636265 
L 319.078512 161.978771 
L 326.764463 156.636265 
L 334.450413 151.293759 
L 342.136364 156.636265 
L 349.822314 151.293759 
L 357.508264 156.636265 
L 365.194215 161.978771 
L 372.880165 167.321278 
L 380.566116 172.663784 
L 388.252066 178.00629 
L 395.938017 183.348796 
L 403.623967 178.00629 
L 411.309917 183.348796 
L 418.995868 178.00629 
L 426.681818 183.348796 
L 434.367769 178.00629 
L 442.053719 183.348796 
L 449.739669 178.00629 
L 457.42562 172.663784 
L 465.11157 167.321278 
L 472.797521 172.663784 
L 480.483471 178.00629 
L 488.169421 172.663784 
L 495.855372 167.321278 
L 503.541322 161.978771 
L 511.227273 156.636265 
L 518.913223 151.293759 
L 526.599174 156.636265 
L 534.285124 161.978771 
L 541.971074 167.321278 
L 549.657025 172.663784 
L 557.342975 178.00629 
L 565.028926 172.663784 
L 572.714876 178.00629 
L 580.400826 172.663784 
L 588.086777 178.00629 
L 595.772727 183.348796 
L 603.458678 188.691302 
L 611.144628 194.033808 
L 618.830579 199.376314 
L 626.516529 194.033808 
L 634.202479 188.691302 
L 641.88843 183.348796 
L 649.57438 188.691302 
L 657.260331 194.033808 
L 664.946281 188.691302 
L 672.632231 194.033808 
L 680.318182 199.376314 
L 688.004132 204.718821 
L 695.690083 199.376314 
L 703.376033 194.033808 
L 711.061983 199.376314 
L 718.747934 194.033808 
L 726.433884 199.376314 
L 734.119835 204.718821 
L 741.805785 199.376314 
L 749.491736 204.718821 
L 757.177686 199.376314 
L 764.863636 204.718821 
L 772.549587 210.061327 
L 780.235537 215.403833 
L 787.921488 210.061327 
L 795.607438 215.403833 
L 803.293388 220.746339 
L 810.979339 226.088845 
L 818.665289 220.746339 
L 826.35124 226.088845 
L 834.03719 231.431351 
L 841.72314 236.773857 
L 849.409091 242.116364 
L 857.095041 236.773857 
L 864.780992 231.431351 
L 872.466942 226.088845 
L 880.152893 220.746339 
L 887.838843 215.403833 
L 895.524793 210.061327 
L 903.210744 204.718821 
L 910.896694 210.061327 
L 918.582645 204.718821 
L 926.268595 210.061327 
L 933.954545 204.718821 
" style="fill:none;stroke:#1f77b4;stroke-dasharray:5.55,2.4;stroke-dashoffset:0;stroke-width:1.5;"/>
   </g>
   <g id="line2d_16">
    <path clip-path="url(#pb3dc2a13a3)" d="M 173.045455 145.951253 
L 180.731405 151.293759 
L 188.417355 145.951253 
L 196.103306 140.608747 
L 203.789256 145.951253 
L 211.475207 140.608747 
L 219.161157 145.951253 
L 226.847107 151.293759 
L 234.533058 145.951253 
L 242.219008 140.608747 
L 249.904959 135.266241 
L 257.590909 140.608747 
L 265.27686 145.951253 
L 272.96281 140.608747 
L 280.64876 135.266241 
L 288.334711 129.923735 
L 296.020661 124.581229 
L 303.706612 129.923735 
L 311.392562 124.581229 
L 319.078512 129.923735 
L 326.764463 124.581229 
L 334.450413 119.238722 
L 342.136364 124.581229 
L 349.822314 119.238722 
L 357.508264 124.581229 
L 365.194215 119.238722 
L 372.880165 113.896216 
L 380.566116 108.55371 
L 388.252066 103.211204 
L 395.938017 108.55371 
L 403.623967 113.896216 
L 411.309917 119.238722 
L 418.995868 113.896216 
L 426.681818 108.55371 
L 434.367769 113.896216 
L 442.053719 119.238722 
L 449.739669 113.896216 
L 457.42562 119.238722 
L 465.11157 124.581229 
L 472.797521 129.923735 
L 480.483471 135.266241 
L 488.169421 129.923735 
L 495.855372 135.266241 
L 503.541322 129.923735 
L 511.227273 135.266241 
L 518.913223 129.923735 
L 526.599174 124.581229 
L 534.285124 129.923735 
L 541.971074 124.581229 
L 549.657025 129.923735 
L 557.342975 124.581229 
L 565.028926 129.923735 
L 572.714876 124.581229 
L 580.400826 129.923735 
L 588.086777 135.266241 
L 595.772727 129.923735 
L 603.458678 124.581229 
L 611.144628 119.238722 
L 618.830579 113.896216 
L 626.516529 108.55371 
L 634.202479 103.211204 
L 641.88843 108.55371 
L 649.57438 103.211204 
L 657.260331 97.868698 
L 664.946281 103.211204 
L 672.632231 108.55371 
L 680.318182 103.211204 
L 688.004132 108.55371 
L 695.690083 103.211204 
L 703.376033 97.868698 
L 711.061983 92.526192 
L 718.747934 97.868698 
L 726.433884 103.211204 
L 734.119835 108.55371 
L 741.805785 113.896216 
L 749.491736 108.55371 
L 757.177686 103.211204 
L 764.863636 108.55371 
L 772.549587 113.896216 
L 780.235537 119.238722 
L 787.921488 124.581229 
L 795.607438 119.238722 
L 803.293388 113.896216 
L 810.979339 119.238722 
L 818.665289 113.896216 
L 826.35124 108.55371 
L 834.03719 113.896216 
L 841.72314 119.238722 
L 849.409091 113.896216 
L 857.095041 108.55371 
L 864.780992 103.211204 
L 872.466942 108.55371 
L 880.152893 103.211204 
L 887.838843 97.868698 
L 895.524793 92.526192 
L 903.210744 87.183686 
L 910.896694 92.526192 
L 918.582645 97.868698 
L 926.268595 103.211204 
L 933.954545 108.55371 
" style="fill:none;stroke:#ff7f0e;stroke-dasharray:5.55,2.4;stroke-dashoffset:0;stroke-width:1.5;"/>
   </g>
   <g id="line2d_17">
    <path clip-path="url(#pb3dc2a13a3)" d="M 173.045455 135.266241 
L 180.731405 129.923735 
L 188.417355 124.581229 
L 196.103306 119.238722 
L 203.789256 124.581229 
L 211.475207 129.923735 
L 219.161157 124.581229 
L 226.847107 129.923735 
L 234.533058 124.581229 
L 242.219008 129.923735 
L 249.904959 135.266241 
L 257.590909 140.608747 
L 265.27686 135.266241 
L 272.96281 129.923735 
L 280.64876 135.266241 
L 288.334711 129.923735 
L 296.020661 124.581229 
L 303.706612 119.238722 
L 311.392562 113.896216 
L 319.078512 119.238722 
L 326.764463 113.896216 
L 334.450413 108.55371 
L 342.136364 103.211204 
L 349.822314 108.55371 
L 357.508264 113.896216 
L 365.194215 119.238722 
L 372.880165 113.896216 
L 380.566116 119.238722 
L 388.252066 124.581229 
L 395.938017 129.923735 
L 403.623967 124.581229 
L 411.309917 129.923735 
L 418.995868 135.266241 
L 426.681818 140.608747 
L 434.367769 145.951253 
L 442.053719 151.293759 
L 449.739669 156.636265 
L 457.42562 151.293759 
L 465.11157 156.636265 
L 472.797521 151.293759 
L 480.483471 156.636265 
L 488.169421 151.293759 
L 495.855372 145.951253 
L 503.541322 151.293759 
L 511.227273 156.636265 
L 518.913223 151.293759 
L 526.599174 156.636265 
L 534.285124 161.978771 
L 541.971074 167.321278 
L 549.657025 161.978771 
L 557.342975 167.321278 
L 565.028926 172.663784 
L 572.714876 178.00629 
L 580.400826 172.663784 
L 588.086777 178.00629 
L 595.772727 172.663784 
L 603.458678 167.321278 
L 611.144628 161.978771 
L 618.830579 156.636265 
L 626.516529 161.978771 
L 634.202479 156.636265 
L 641.88843 161.978771 
L 649.57438 167.321278 
L 657.260331 161.978771 
L 664.946281 156.636265 
L 672.632231 161.978771 
L 680.318182 156.636265 
L 688.004132 151.293759 
L 695.690083 145.951253 
L 703.376033 151.293759 
L 711.061983 156.636265 
L 718.747934 161.978771 
L 726.433884 167.321278 
L 734.119835 161.978771 
L 741.805785 167.321278 
L 749.491736 172.663784 
L 757.177686 167.321278 
L 764.863636 161.978771 
L 772.549587 167.321278 
L 780.235537 172.663784 
L 787.921488 178.00629 
L 795.607438 183.348796 
L 803.293388 178.00629 
L 810.979339 172.663784 
L 818.665289 178.00629 
L 826.35124 183.348796 
L 834.03719 178.00629 
L 841.72314 183.348796 
L 849.409091 188.691302 
L 857.095041 183.348796 
L 864.780992 178.00629 
L 872.466942 172.663784 
L 880.152893 167.321278 
L 887.838843 172.663784 
L 895.524793 167.321278 
L 903.210744 172.663784 
L 910.896694 167.321278 
L 918.582645 161.978771 
L 926.268595 167.321278 
L 933.954545 161.978771 
" style="fill:none;stroke:#2ca02c;stroke-dasharray:5.55,2.4;stroke-dashoffset:0;stroke-width:1.5;"/>
   </g>
   <g id="line2d_18">
    <path clip-path="url(#pb3dc2a13a3)" d="M 173.045455 145.951253 
L 180.731405 151.293759 
L 188.417355 145.951253 
L 196.103306 140.608747 
L 203.789256 145.951253 
L 211.475207 140.608747 
L 219.161157 135.266241 
L 226.847107 129.923735 
L 234.533058 124.581229 
L 242.219008 129.923735 
L 249.904959 135.266241 
L 257.590909 129.923735 
L 265.27686 135.266241 
L 272.96281 129.923735 
L 280.64876 135.266241 
L 288.334711 140.608747 
L 296.020661 135.266241 
L 303.706612 129.923735 
L 311.392562 124.581229 
L 319.078512 129.923735 
L 326.764463 135.266241 
L 334.450413 140.608747 
L 342.136364 145.951253 
L 349.822314 151.293759 
L 357.508264 145.951253 
L 365.194215 140.608747 
L 372.880165 145.951253 
L 380.566116 151.293759 
L 388.252066 145.951253 
L 395.938017 140.608747 
L 403.623967 135.266241 
L 411.309917 129.923735 
L 418.995868 135.266241 
L 426.681818 129.923735 
L 434.367769 124.581229 
L 442.053719 119.238722 
L 449.739669 124.581229 
L 457.42562 119.238722 
L 465.11157 113.896216 
L 472.797521 108.55371 
L 480.483471 103.211204 
L 488.169421 97.868698 
L 495.855372 103.211204 
L 503.541322 108.55371 
L 511.227273 113.896216 
L 518.913223 119.238722 
L 526.599174 113.896216 
L 534.285124 119.238722 
L 541.971074 113.896216 
L 549.657025 108.55371 
L 557.342975 113.896216 
L 565.028926 119.238722 
L 572.714876 113.896216 
L 580.400826 119.238722 
L 588.086777 113.896216 
L 595.772727 108.55371 
L 603.458678 113.896216 
L 611.144628 108.55371 
L 618.830579 113.896216 
L 626.516529 119.238722 
L 634.202479 113.896216 
L 641.88843 119.238722 
L 649.57438 124.581229 
L 657.260331 129.923735 
L 664.946281 135.266241 
L 672.632231 140.608747 
L 680.318182 135.266241 
L 688.004132 129.923735 
L 695.690083 124.581229 
L 703.376033 119.238722 
L 711.061983 113.896216 
L 718.747934 119.238722 
L 726.433884 124.581229 
L 734.119835 129.923735 
L 741.805785 135.266241 
L 749.491736 129.923735 
L 757.177686 135.266241 
L 764.863636 129.923735 
L 772.549587 135.266241 
L 780.235537 140.608747 
L 787.921488 135.266241 
L 795.607438 129.923735 
L 803.293388 135.266241 
L 810.979339 129.923735 
L 818.665289 135.266241 
L 826.35124 129.923735 
L 834.03719 124.581229 
L 841.72314 129.923735 
L 849.409091 135.266241 
L 857.095041 140.608747 
L 864.780992 135.266241 
L 872.466942 140.608747 
L 880.152893 145.951253 
L 887.838843 140.608747 
L 895.524793 145.951253 
L 903.210744 140.608747 
L 910.896694 145.951253 
L 918.582645 151.293759 
L 926.268595 145.951253 
L 933.954545 140.608747 
" style="fill:none;stroke:#d62728;stroke-dasharray:5.55,2.4;stroke-dashoffset:0;stroke-width:1.5;"/>
   </g>
   <g id="line2d_19">
    <path clip-path="url(#pb3dc2a13a3)" d="M 173.045455 135.266241 
L 180.731405 140.608747 
L 188.417355 145.951253 
L 196.103306 140.608747 
L 203.789256 145.951253 
L 211.475207 151.293759 
L 219.161157 156.636265 
L 226.847107 151.293759 
L 234.533058 145.951253 
L 242.219008 151.293759 
L 249.904959 156.636265 
L 257.590909 151.293759 
L 265.27686 156.636265 
L 272.96281 151.293759 
L 280.64876 145.951253 
L 288.334711 140.608747 
L 296.020661 135.266241 
L 303.706612 129.923735 
L 311.392562 124.581229 
L 319.078512 129.923735 
L 326.764463 124.581229 
L 334.450413 119.238722 
L 342.136364 124.581229 
L 349.822314 119.238722 
L 357.508264 113.896216 
L 365.194215 119.238722 
L 372.880165 113.896216 
L 380.566116 119.238722 
L 388.252066 124.581229 
L 395.938017 119.238722 
L 403.623967 113.896216 
L 411.309917 108.55371 
L 418.995868 113.896216 
L 426.681818 119.238722 
L 434.367769 113.896216 
L 442.053719 108.55371 
L 449.739669 103.211204 
L 457.42562 97.868698 
L 465.11157 92.526192 
L 472.797521 97.868698 
L 480.483471 103.211204 
L 488.169421 97.868698 
L 495.855372 92.526192 
L 503.541322 97.868698 
L 511.227273 103.211204 
L 518.913223 108.55371 
L 526.599174 113.896216 
L 534.285124 108.55371 
L 541.971074 113.896216 
L 549.657025 119.238722 
L 557.342975 124.581229 
L 565.028926 119.238722 
L 572.714876 113.896216 
L 580.400826 108.55371 
L 588.086777 103.211204 
L 595.772727 97.868698 
L 603.458678 92.526192 
L 611.144628 87.183686 
L 618.830579 81.841179 
L 626.516529 76.498673 
L 634.202479 71.156167 
L 641.88843 76.498673 
L 649.57438 71.156167 
L 657.260331 65.813661 
L 664.946281 60.471155 
L 672.632231 55.128649 
L 680.318182 60.471155 
L 688.004132 55.128649 
L 695.690083 60.471155 
L 703.376033 55.128649 
L 711.061983 60.471155 
L 718.747934 55.128649 
L 726.433884 49.786143 
L 734.119835 55.128649 
L 741.805785 49.786143 
L 749.491736 44.443636 
L 757.177686 49.786143 
L 764.863636 55.128649 
L 772.549587 60.471155 
L 780.235537 65.813661 
L 787.921488 71.156167 
L 795.607438 65.813661 
L 803.293388 60.471155 
L 810.979339 55.128649 
L 818.665289 60.471155 
L 826.35124 65.813661 
L 834.03719 71.156167 
L 841.72314 76.498673 
L 849.409091 81.841179 
L 857.095041 76.498673 
L 864.780992 81.841179 
L 872.466942 87.183686 
L 880.152893 92.526192 
L 887.838843 87.183686 
L 895.524793 81.841179 
L 903.210744 87.183686 
L 910.896694 81.841179 
L 918.582645 76.498673 
L 926.268595 71.156167 
L 933.954545 65.813661 
" style="fill:none;stroke:#9467bd;stroke-dasharray:5.55,2.4;stroke-dashoffset:0;stroke-width:1.5;"/>
   </g>
   <g id="patch_3">
    <path d="M 135 252 
L 135 34.56 
" style="fill:none;stroke:#000000;stroke-linecap:square;stroke-linejoin:miter;stroke-width:0.8;"/>
   </g>
   <g id="patch_4">
    <path d="M 972 252 
L 972 34.56 
" style="fill:none;stroke:#000000;stroke-linecap:square;stroke-linejoin:miter;stroke-width:0.8;"/>
   </g>
   <g id="patch_5">
    <path d="M 135 252 
L 972 252 
" style="fill:none;stroke:#000000;stroke-linecap:square;stroke-linejoin:miter;stroke-width:0.8;"/>
   </g>
   <g id="patch_6">
    <path d="M 135 34.56 
L 972 34.56 
" style="fill:none;stroke:#000000;stroke-linecap:square;stroke-linejoin:miter;stroke-width:0.8;"/>
   </g>
   <g id="legend_1">
    <g id="patch_7">
     <path d="M 142 117.34125 
L 252.021875 117.34125 
Q 254.021875 117.34125 254.021875 115.34125 
L 254.021875 41.56 
Q 254.021875 39.56 252.021875 39.56 
L 142 39.56 
Q 140 39.56 140 41.56 
L 140 115.34125 
Q 140 117.34125 142 117.34125 
z
" style="fill:#ffffff;opacity:0.8;stroke:#cccccc;stroke-linejoin:miter;"/>
    </g>
    <g id="line2d_20">
     <path d="M 144 47.658437 
L 164 47.658437 
" style="fill:none;stroke:#1f77b4;stroke-dasharray:5.55,2.4;stroke-dashoffset:0;stroke-width:1.5;"/>
    </g>
    <g id="line2d_21"/>
    <g id="text_15">
     <!-- random_walk_0 -->
     <defs>
      <path d="M 41.109375 46.296875 
Q 39.59375 47.171875 37.8125 47.578125 
Q 36.03125 48 33.890625 48 
Q 26.265625 48 22.1875 43.046875 
Q 18.109375 38.09375 18.109375 28.8125 
L 18.109375 0 
L 9.078125 0 
L 9.078125 54.6875 
L 18.109375 54.6875 
L 18.109375 46.1875 
Q 20.953125 51.171875 25.484375 53.578125 
Q 30.03125 56 36.53125 56 
Q 37.453125 56 38.578125 55.875 
Q 39.703125 55.765625 41.0625 55.515625 
z
" id="DejaVuSans-72"/>
      <path d="M 34.28125 27.484375 
Q 23.390625 27.484375 19.1875 25 
Q 14.984375 22.515625 14.984375 16.5 
Q 14.984375 11.71875 18.140625 8.90625 
Q 21.296875 6.109375 26.703125 6.109375 
Q 34.1875 6.109375 38.703125 11.40625 
Q 43.21875 16.703125 43.21875 25.484375 
L 43.21875 27.484375 
z
M 52.203125 31.203125 
L 52.203125 0 
L 43.21875 0 
L 43.21875 8.296875 
Q 40.140625 3.328125 35.546875 0.953125 
Q 30.953125 -1.421875 24.3125 -1.421875 
Q 15.921875 -1.421875 10.953125 3.296875 
Q 6 8.015625 6 15.921875 
Q 6 25.140625 12.171875 29.828125 
Q 18.359375 34.515625 30.609375 34.515625 
L 43.21875 34.515625 
L 43.21875 35.40625 
Q 43.21875 41.609375 39.140625 45 
Q 35.0625 48.390625 27.6875 48.390625 
Q 23 48.390625 18.546875 47.265625 
Q 14.109375 46.140625 10.015625 43.890625 
L 10.015625 52.203125 
Q 14.9375 54.109375 19.578125 55.046875 
Q 24.21875 56 28.609375 56 
Q 40.484375 56 46.34375 49.84375 
Q 52.203125 43.703125 52.203125 31.203125 
z
" id="DejaVuSans-61"/>
      <path d="M 54.890625 33.015625 
L 54.890625 0 
L 45.90625 0 
L 45.90625 32.71875 
Q 45.90625 40.484375 42.875 44.328125 
Q 39.84375 48.1875 33.796875 48.1875 
Q 26.515625 48.1875 22.3125 43.546875 
Q 18.109375 38.921875 18.109375 30.90625 
L 18.109375 0 
L 9.078125 0 
L 9.078125 54.6875 
L 18.109375 54.6875 
L 18.109375 46.1875 
Q 21.34375 51.125 25.703125 53.5625 
Q 30.078125 56 35.796875 56 
Q 45.21875 56 50.046875 50.171875 
Q 54.890625 44.34375 54.890625 33.015625 
z
" id="DejaVuSans-6e"/>
      <path d="M 45.40625 46.390625 
L 45.40625 75.984375 
L 54.390625 75.984375 
L 54.390625 0 
L 45.40625 0 
L 45.40625 8.203125 
Q 42.578125 3.328125 38.25 0.953125 
Q 33.9375 -1.421875 27.875 -1.421875 
Q 17.96875 -1.421875 11.734375 6.484375 
Q 5.515625 14.40625 5.515625 27.296875 
Q 5.515625 40.1875 11.734375 48.09375 
Q 17.96875 56 27.875 56 
Q 33.9375 56 38.25 53.625 
Q 42.578125 51.265625 45.40625 46.390625 
z
M 14.796875 27.296875 
Q 14.796875 17.390625 18.875 11.75 
Q 22.953125 6.109375 30.078125 6.109375 
Q 37.203125 6.109375 41.296875 11.75 
Q 45.40625 17.390625 45.40625 27.296875 
Q 45.40625 37.203125 41.296875 42.84375 
Q 37.203125 48.484375 30.078125 48.484375 
Q 22.953125 48.484375 18.875 42.84375 
Q 14.796875 37.203125 14.796875 27.296875 
z
" id="DejaVuSans-64"/>
      <path d="M 30.609375 48.390625 
Q 23.390625 48.390625 19.1875 42.75 
Q 14.984375 37.109375 14.984375 27.296875 
Q 14.984375 17.484375 19.15625 11.84375 
Q 23.34375 6.203125 30.609375 6.203125 
Q 37.796875 6.203125 41.984375 11.859375 
Q 46.1875 17.53125 46.1875 27.296875 
Q 46.1875 37.015625 41.984375 42.703125 
Q 37.796875 48.390625 30.609375 48.390625 
z
M 30.609375 56 
Q 42.328125 56 49.015625 48.375 
Q 55.71875 40.765625 55.71875 27.296875 
Q 55.71875 13.875 49.015625 6.21875 
Q 42.328125 -1.421875 30.609375 -1.421875 
Q 18.84375 -1.421875 12.171875 6.21875 
Q 5.515625 13.875 5.515625 27.296875 
Q 5.515625 40.765625 12.171875 48.375 
Q 18.84375 56 30.609375 56 
z
" id="DejaVuSans-6f"/>
      <path d="M 52 44.1875 
Q 55.375 50.25 60.0625 53.125 
Q 64.75 56 71.09375 56 
Q 79.640625 56 84.28125 50.015625 
Q 88.921875 44.046875 88.921875 33.015625 
L 88.921875 0 
L 79.890625 0 
L 79.890625 32.71875 
Q 79.890625 40.578125 77.09375 44.375 
Q 74.3125 48.1875 68.609375 48.1875 
Q 61.625 48.1875 57.5625 43.546875 
Q 53.515625 38.921875 53.515625 30.90625 
L 53.515625 0 
L 44.484375 0 
L 44.484375 32.71875 
Q 44.484375 40.625 41.703125 44.40625 
Q 38.921875 48.1875 33.109375 48.1875 
Q 26.21875 48.1875 22.15625 43.53125 
Q 18.109375 38.875 18.109375 30.90625 
L 18.109375 0 
L 9.078125 0 
L 9.078125 54.6875 
L 18.109375 54.6875 
L 18.109375 46.1875 
Q 21.1875 51.21875 25.484375 53.609375 
Q 29.78125 56 35.6875 56 
Q 41.65625 56 45.828125 52.96875 
Q 50 49.953125 52 44.1875 
z
" id="DejaVuSans-6d"/>
      <path d="M 50.984375 -16.609375 
L 50.984375 -23.578125 
L -0.984375 -23.578125 
L -0.984375 -16.609375 
z
" id="DejaVuSans-5f"/>
      <path d="M 4.203125 54.6875 
L 13.1875 54.6875 
L 24.421875 12.015625 
L 35.59375 54.6875 
L 46.1875 54.6875 
L 57.421875 12.015625 
L 68.609375 54.6875 
L 77.59375 54.6875 
L 63.28125 0 
L 52.6875 0 
L 40.921875 44.828125 
L 29.109375 0 
L 18.5 0 
z
" id="DejaVuSans-77"/>
      <path d="M 9.421875 75.984375 
L 18.40625 75.984375 
L 18.40625 0 
L 9.421875 0 
z
" id="DejaVuSans-6c"/>
      <path d="M 9.078125 75.984375 
L 18.109375 75.984375 
L 18.109375 31.109375 
L 44.921875 54.6875 
L 56.390625 54.6875 
L 27.390625 29.109375 
L 57.625 0 
L 45.90625 0 
L 18.109375 26.703125 
L 18.109375 0 
L 9.078125 0 
z
" id="DejaVuSans-6b"/>
     </defs>
     <g transform="translate(172 51.158437)scale(0.1 -0.1)">
      <use xlink:href="#DejaVuSans-72"/>
      <use x="41.113281" xlink:href="#DejaVuSans-61"/>
      <use x="102.392578" xlink:href="#DejaVuSans-6e"/>
      <use x="165.771484" xlink:href="#DejaVuSans-64"/>
      <use x="229.248047" xlink:href="#DejaVuSans-6f"/>
      <use x="290.429688" xlink:href="#DejaVuSans-6d"/>
      <use x="387.841797" xlink:href="#DejaVuSans-5f"/>
      <use x="437.841797" xlink:href="#DejaVuSans-77"/>
      <use x="519.628906" xlink:href="#DejaVuSans-61"/>
      <use x="580.908203" xlink:href="#DejaVuSans-6c"/>
      <use x="608.691406" xlink:href="#DejaVuSans-6b"/>
      <use x="666.601562" xlink:href="#DejaVuSans-5f"/>
      <use x="716.601562" xlink:href="#DejaVuSans-30"/>
     </g>
    </g>
    <g id="line2d_22">
     <path d="M 144 62.614688 
L 164 62.614688 
" style="fill:none;stroke:#ff7f0e;stroke-dasharray:5.55,2.4;stroke-dashoffset:0;stroke-width:1.5;"/>
    </g>
    <g id="line2d_23"/>
    <g id="text_16">
     <!-- random_walk_1 -->
     <g transform="translate(172 66.114688)scale(0.1 -0.1)">
      <use xlink:href="#DejaVuSans-72"/>
      <use x="41.113281" xlink:href="#DejaVuSans-61"/>
      <use x="102.392578" xlink:href="#DejaVuSans-6e"/>
      <use x="165.771484" xlink:href="#DejaVuSans-64"/>
      <use x="229.248047" xlink:href="#DejaVuSans-6f"/>
      <use x="290.429688" xlink:href="#DejaVuSans-6d"/>
      <use x="387.841797" xlink:href="#DejaVuSans-5f"/>
      <use x="437.841797" xlink:href="#DejaVuSans-77"/>
      <use x="519.628906" xlink:href="#DejaVuSans-61"/>
      <use x="580.908203" xlink:href="#DejaVuSans-6c"/>
      <use x="608.691406" xlink:href="#DejaVuSans-6b"/>
      <use x="666.601562" xlink:href="#DejaVuSans-5f"/>
      <use x="716.601562" xlink:href="#DejaVuSans-31"/>
     </g>
    </g>
    <g id="line2d_24">
     <path d="M 144 77.570937 
L 164 77.570937 
" style="fill:none;stroke:#2ca02c;stroke-dasharray:5.55,2.4;stroke-dashoffset:0;stroke-width:1.5;"/>
    </g>
    <g id="line2d_25"/>
    <g id="text_17">
     <!-- random_walk_2 -->
     <g transform="translate(172 81.070937)scale(0.1 -0.1)">
      <use xlink:href="#DejaVuSans-72"/>
      <use x="41.113281" xlink:href="#DejaVuSans-61"/>
      <use x="102.392578" xlink:href="#DejaVuSans-6e"/>
      <use x="165.771484" xlink:href="#DejaVuSans-64"/>
      <use x="229.248047" xlink:href="#DejaVuSans-6f"/>
      <use x="290.429688" xlink:href="#DejaVuSans-6d"/>
      <use x="387.841797" xlink:href="#DejaVuSans-5f"/>
      <use x="437.841797" xlink:href="#DejaVuSans-77"/>
      <use x="519.628906" xlink:href="#DejaVuSans-61"/>
      <use x="580.908203" xlink:href="#DejaVuSans-6c"/>
      <use x="608.691406" xlink:href="#DejaVuSans-6b"/>
      <use x="666.601562" xlink:href="#DejaVuSans-5f"/>
      <use x="716.601562" xlink:href="#DejaVuSans-32"/>
     </g>
    </g>
    <g id="line2d_26">
     <path d="M 144 92.527187 
L 164 92.527187 
" style="fill:none;stroke:#d62728;stroke-dasharray:5.55,2.4;stroke-dashoffset:0;stroke-width:1.5;"/>
    </g>
    <g id="line2d_27"/>
    <g id="text_18">
     <!-- random_walk_3 -->
     <defs>
      <path d="M 40.578125 39.3125 
Q 47.65625 37.796875 51.625 33 
Q 55.609375 28.21875 55.609375 21.1875 
Q 55.609375 10.40625 48.1875 4.484375 
Q 40.765625 -1.421875 27.09375 -1.421875 
Q 22.515625 -1.421875 17.65625 -0.515625 
Q 12.796875 0.390625 7.625 2.203125 
L 7.625 11.71875 
Q 11.71875 9.328125 16.59375 8.109375 
Q 21.484375 6.890625 26.8125 6.890625 
Q 36.078125 6.890625 40.9375 10.546875 
Q 45.796875 14.203125 45.796875 21.1875 
Q 45.796875 27.640625 41.28125 31.265625 
Q 36.765625 34.90625 28.71875 34.90625 
L 20.21875 34.90625 
L 20.21875 43.015625 
L 29.109375 43.015625 
Q 36.375 43.015625 40.234375 45.921875 
Q 44.09375 48.828125 44.09375 54.296875 
Q 44.09375 59.90625 40.109375 62.90625 
Q 36.140625 65.921875 28.71875 65.921875 
Q 24.65625 65.921875 20.015625 65.03125 
Q 15.375 64.15625 9.8125 62.3125 
L 9.8125 71.09375 
Q 15.4375 72.65625 20.34375 73.4375 
Q 25.25 74.21875 29.59375 74.21875 
Q 40.828125 74.21875 47.359375 69.109375 
Q 53.90625 64.015625 53.90625 55.328125 
Q 53.90625 49.265625 50.4375 45.09375 
Q 46.96875 40.921875 40.578125 39.3125 
z
" id="DejaVuSans-33"/>
     </defs>
     <g transform="translate(172 96.027187)scale(0.1 -0.1)">
      <use xlink:href="#DejaVuSans-72"/>
      <use x="41.113281" xlink:href="#DejaVuSans-61"/>
      <use x="102.392578" xlink:href="#DejaVuSans-6e"/>
      <use x="165.771484" xlink:href="#DejaVuSans-64"/>
      <use x="229.248047" xlink:href="#DejaVuSans-6f"/>
      <use x="290.429688" xlink:href="#DejaVuSans-6d"/>
      <use x="387.841797" xlink:href="#DejaVuSans-5f"/>
      <use x="437.841797" xlink:href="#DejaVuSans-77"/>
      <use x="519.628906" xlink:href="#DejaVuSans-61"/>
      <use x="580.908203" xlink:href="#DejaVuSans-6c"/>
      <use x="608.691406" xlink:href="#DejaVuSans-6b"/>
      <use x="666.601562" xlink:href="#DejaVuSans-5f"/>
      <use x="716.601562" xlink:href="#DejaVuSans-33"/>
     </g>
    </g>
    <g id="line2d_28">
     <path d="M 144 107.483437 
L 164 107.483437 
" style="fill:none;stroke:#9467bd;stroke-dasharray:5.55,2.4;stroke-dashoffset:0;stroke-width:1.5;"/>
    </g>
    <g id="line2d_29"/>
    <g id="text_19">
     <!-- random_walk_4 -->
     <g transform="translate(172 110.983437)scale(0.1 -0.1)">
      <use xlink:href="#DejaVuSans-72"/>
      <use x="41.113281" xlink:href="#DejaVuSans-61"/>
      <use x="102.392578" xlink:href="#DejaVuSans-6e"/>
      <use x="165.771484" xlink:href="#DejaVuSans-64"/>
      <use x="229.248047" xlink:href="#DejaVuSans-6f"/>
      <use x="290.429688" xlink:href="#DejaVuSans-6d"/>
      <use x="387.841797" xlink:href="#DejaVuSans-5f"/>
      <use x="437.841797" xlink:href="#DejaVuSans-77"/>
      <use x="519.628906" xlink:href="#DejaVuSans-61"/>
      <use x="580.908203" xlink:href="#DejaVuSans-6c"/>
      <use x="608.691406" xlink:href="#DejaVuSans-6b"/>
      <use x="666.601562" xlink:href="#DejaVuSans-5f"/>
      <use x="716.601562" xlink:href="#DejaVuSans-34"/>
     </g>
    </g>
   </g>
  </g>
 </g>
 <defs>
  <clipPath id="pb3dc2a13a3">
   <rect height="217.44" width="837" x="135" y="34.56"/>
  </clipPath>
 </defs>
</svg>
