<?xml version="1.0" encoding="utf-8" standalone="no"?>
<!DOCTYPE svg PUBLIC "-//W3C//DTD SVG 1.1//EN"
  "http://www.w3.org/Graphics/SVG/1.1/DTD/svg11.dtd">
<!-- Created with matplotlib (http://matplotlib.org/) -->
<svg height="288pt" version="1.1" viewBox="0 0 1080 288" width="1080pt" xmlns="http://www.w3.org/2000/svg" xmlns:xlink="http://www.w3.org/1999/xlink">
 <defs>
  <style type="text/css">
*{stroke-linecap:butt;stroke-linejoin:round;}
  </style>
 </defs>
 <g id="figure_1">
  <g id="patch_1">
   <path d="M 0 288 
L 1080 288 
L 1080 0 
L 0 0 
z
" style="fill:#ffffff;"/>
  </g>
  <g id="axes_1">
   <g id="patch_2">
    <path d="M 135 252 
L 972 252 
L 972 34.56 
L 135 34.56 
z
" style="fill:#ffffff;"/>
   </g>
   <g id="matplotlib.axis_1">
    <g id="xtick_1">
     <g id="line2d_1">
      <defs>
       <path d="M 0 0 
L 0 3.5 
" id="m370ca13796" style="stroke:#000000;stroke-width:0.8;"/>
      </defs>
      <g>
       <use style="stroke:#000000;stroke-width:0.8;" x="173.045455" xlink:href="#m370ca13796" y="252"/>
      </g>
     </g>
     <g id="text_1">
      <!-- 0 -->
      <defs>
       <path d="M 31.78125 66.40625 
Q 24.171875 66.40625 20.328125 58.90625 
Q 16.5 51.421875 16.5 36.375 
Q 16.5 21.390625 20.328125 13.890625 
Q 24.171875 6.390625 31.78125 6.390625 
Q 39.453125 6.390625 43.28125 13.890625 
Q 47.125 21.390625 47.125 36.375 
Q 47.125 51.421875 43.28125 58.90625 
Q 39.453125 66.40625 31.78125 66.40625 
z
M 31.78125 74.21875 
Q 44.046875 74.21875 50.515625 64.515625 
Q 56.984375 54.828125 56.984375 36.375 
Q 56.984375 17.96875 50.515625 8.265625 
Q 44.046875 -1.421875 31.78125 -1.421875 
Q 19.53125 -1.421875 13.0625 8.265625 
Q 6.59375 17.96875 6.59375 36.375 
Q 6.59375 54.828125 13.0625 64.515625 
Q 19.53125 74.21875 31.78125 74.21875 
z
" id="DejaVuSans-30"/>
      </defs>
      <g transform="translate(169.864205 266.598437)scale(0.1 -0.1)">
       <use xlink:href="#DejaVuSans-30"/>
      </g>
     </g>
    </g>
    <g id="xtick_2">
     <g id="line2d_2">
      <g>
       <use style="stroke:#000000;stroke-width:0.8;" x="338.460474" xlink:href="#m370ca13796" y="252"/>
      </g>
     </g>
     <g id="text_2">
      <!-- 10 -->
      <defs>
       <path d="M 12.40625 8.296875 
L 28.515625 8.296875 
L 28.515625 63.921875 
L 10.984375 60.40625 
L 10.984375 69.390625 
L 28.421875 72.90625 
L 38.28125 72.90625 
L 38.28125 8.296875 
L 54.390625 8.296875 
L 54.390625 0 
L 12.40625 0 
z
" id="DejaVuSans-31"/>
      </defs>
      <g transform="translate(332.097974 266.598437)scale(0.1 -0.1)">
       <use xlink:href="#DejaVuSans-31"/>
       <use x="63.623047" xlink:href="#DejaVuSans-30"/>
      </g>
     </g>
    </g>
    <g id="xtick_3">
     <g id="line2d_3">
      <g>
       <use style="stroke:#000000;stroke-width:0.8;" x="503.875494" xlink:href="#m370ca13796" y="252"/>
      </g>
     </g>
     <g id="text_3">
      <!-- 20 -->
      <defs>
       <path d="M 19.1875 8.296875 
L 53.609375 8.296875 
L 53.609375 0 
L 7.328125 0 
L 7.328125 8.296875 
Q 12.9375 14.109375 22.625 23.890625 
Q 32.328125 33.6875 34.8125 36.53125 
Q 39.546875 41.84375 41.421875 45.53125 
Q 43.3125 49.21875 43.3125 52.78125 
Q 43.3125 58.59375 39.234375 62.25 
Q 35.15625 65.921875 28.609375 65.921875 
Q 23.96875 65.921875 18.8125 64.3125 
Q 13.671875 62.703125 7.8125 59.421875 
L 7.8125 69.390625 
Q 13.765625 71.78125 18.9375 73 
Q 24.125 74.21875 28.421875 74.21875 
Q 39.75 74.21875 46.484375 68.546875 
Q 53.21875 62.890625 53.21875 53.421875 
Q 53.21875 48.921875 51.53125 44.890625 
Q 49.859375 40.875 45.40625 35.40625 
Q 44.1875 33.984375 37.640625 27.21875 
Q 31.109375 20.453125 19.1875 8.296875 
z
" id="DejaVuSans-32"/>
      </defs>
      <g transform="translate(497.512994 266.598437)scale(0.1 -0.1)">
       <use xlink:href="#DejaVuSans-32"/>
       <use x="63.623047" xlink:href="#DejaVuSans-30"/>
      </g>
     </g>
    </g>
    <g id="xtick_4">
     <g id="line2d_4">
      <g>
       <use style="stroke:#000000;stroke-width:0.8;" x="669.290514" xlink:href="#m370ca13796" y="252"/>
      </g>
     </g>
     <g id="text_4">
      <!-- 30 -->
      <defs>
       <path d="M 40.578125 39.3125 
Q 47.65625 37.796875 51.625 33 
Q 55.609375 28.21875 55.609375 21.1875 
Q 55.609375 10.40625 48.1875 4.484375 
Q 40.765625 -1.421875 27.09375 -1.421875 
Q 22.515625 -1.421875 17.65625 -0.515625 
Q 12.796875 0.390625 7.625 2.203125 
L 7.625 11.71875 
Q 11.71875 9.328125 16.59375 8.109375 
Q 21.484375 6.890625 26.8125 6.890625 
Q 36.078125 6.890625 40.9375 10.546875 
Q 45.796875 14.203125 45.796875 21.1875 
Q 45.796875 27.640625 41.28125 31.265625 
Q 36.765625 34.90625 28.71875 34.90625 
L 20.21875 34.90625 
L 20.21875 43.015625 
L 29.109375 43.015625 
Q 36.375 43.015625 40.234375 45.921875 
Q 44.09375 48.828125 44.09375 54.296875 
Q 44.09375 59.90625 40.109375 62.90625 
Q 36.140625 65.921875 28.71875 65.921875 
Q 24.65625 65.921875 20.015625 65.03125 
Q 15.375 64.15625 9.8125 62.3125 
L 9.8125 71.09375 
Q 15.4375 72.65625 20.34375 73.4375 
Q 25.25 74.21875 29.59375 74.21875 
Q 40.828125 74.21875 47.359375 69.109375 
Q 53.90625 64.015625 53.90625 55.328125 
Q 53.90625 49.265625 50.4375 45.09375 
Q 46.96875 40.921875 40.578125 39.3125 
z
" id="DejaVuSans-33"/>
      </defs>
      <g transform="translate(662.928014 266.598437)scale(0.1 -0.1)">
       <use xlink:href="#DejaVuSans-33"/>
       <use x="63.623047" xlink:href="#DejaVuSans-30"/>
      </g>
     </g>
    </g>
    <g id="xtick_5">
     <g id="line2d_5">
      <g>
       <use style="stroke:#000000;stroke-width:0.8;" x="834.705534" xlink:href="#m370ca13796" y="252"/>
      </g>
     </g>
     <g id="text_5">
      <!-- 40 -->
      <defs>
       <path d="M 37.796875 64.3125 
L 12.890625 25.390625 
L 37.796875 25.390625 
z
M 35.203125 72.90625 
L 47.609375 72.90625 
L 47.609375 25.390625 
L 58.015625 25.390625 
L 58.015625 17.1875 
L 47.609375 17.1875 
L 47.609375 0 
L 37.796875 0 
L 37.796875 17.1875 
L 4.890625 17.1875 
L 4.890625 26.703125 
z
" id="DejaVuSans-34"/>
      </defs>
      <g transform="translate(828.343034 266.598437)scale(0.1 -0.1)">
       <use xlink:href="#DejaVuSans-34"/>
       <use x="63.623047" xlink:href="#DejaVuSans-30"/>
      </g>
     </g>
    </g>
   </g>
   <g id="matplotlib.axis_2">
    <g id="ytick_1">
     <g id="line2d_6">
      <defs>
       <path d="M 0 0 
L -3.5 0 
" id="m411fe94698" style="stroke:#000000;stroke-width:0.8;"/>
      </defs>
      <g>
       <use style="stroke:#000000;stroke-width:0.8;" x="135" xlink:href="#m411fe94698" y="242.574251"/>
      </g>
     </g>
     <g id="text_6">
      <!-- −1.00 -->
      <defs>
       <path d="M 10.59375 35.5 
L 73.1875 35.5 
L 73.1875 27.203125 
L 10.59375 27.203125 
z
" id="DejaVuSans-2212"/>
       <path d="M 10.6875 12.40625 
L 21 12.40625 
L 21 0 
L 10.6875 0 
z
" id="DejaVuSans-2e"/>
      </defs>
      <g transform="translate(97.354687 246.37347)scale(0.1 -0.1)">
       <use xlink:href="#DejaVuSans-2212"/>
       <use x="83.789062" xlink:href="#DejaVuSans-31"/>
       <use x="147.412109" xlink:href="#DejaVuSans-2e"/>
       <use x="179.199219" xlink:href="#DejaVuSans-30"/>
       <use x="242.822266" xlink:href="#DejaVuSans-30"/>
      </g>
     </g>
    </g>
    <g id="ytick_2">
     <g id="line2d_7">
      <g>
       <use style="stroke:#000000;stroke-width:0.8;" x="135" xlink:href="#m411fe94698" y="217.80156"/>
      </g>
     </g>
     <g id="text_7">
      <!-- −0.75 -->
      <defs>
       <path d="M 8.203125 72.90625 
L 55.078125 72.90625 
L 55.078125 68.703125 
L 28.609375 0 
L 18.3125 0 
L 43.21875 64.59375 
L 8.203125 64.59375 
z
" id="DejaVuSans-37"/>
       <path d="M 10.796875 72.90625 
L 49.515625 72.90625 
L 49.515625 64.59375 
L 19.828125 64.59375 
L 19.828125 46.734375 
Q 21.96875 47.46875 24.109375 47.828125 
Q 26.265625 48.1875 28.421875 48.1875 
Q 40.625 48.1875 47.75 41.5 
Q 54.890625 34.8125 54.890625 23.390625 
Q 54.890625 11.625 47.5625 5.09375 
Q 40.234375 -1.421875 26.90625 -1.421875 
Q 22.3125 -1.421875 17.546875 -0.640625 
Q 12.796875 0.140625 7.71875 1.703125 
L 7.71875 11.625 
Q 12.109375 9.234375 16.796875 8.0625 
Q 21.484375 6.890625 26.703125 6.890625 
Q 35.15625 6.890625 40.078125 11.328125 
Q 45.015625 15.765625 45.015625 23.390625 
Q 45.015625 31 40.078125 35.4375 
Q 35.15625 39.890625 26.703125 39.890625 
Q 22.75 39.890625 18.8125 39.015625 
Q 14.890625 38.140625 10.796875 36.28125 
z
" id="DejaVuSans-35"/>
      </defs>
      <g transform="translate(97.354687 221.600779)scale(0.1 -0.1)">
       <use xlink:href="#DejaVuSans-2212"/>
       <use x="83.789062" xlink:href="#DejaVuSans-30"/>
       <use x="147.412109" xlink:href="#DejaVuSans-2e"/>
       <use x="179.199219" xlink:href="#DejaVuSans-37"/>
       <use x="242.822266" xlink:href="#DejaVuSans-35"/>
      </g>
     </g>
    </g>
    <g id="ytick_3">
     <g id="line2d_8">
      <g>
       <use style="stroke:#000000;stroke-width:0.8;" x="135" xlink:href="#m411fe94698" y="193.028869"/>
      </g>
     </g>
     <g id="text_8">
      <!-- −0.50 -->
      <g transform="translate(97.354687 196.828088)scale(0.1 -0.1)">
       <use xlink:href="#DejaVuSans-2212"/>
       <use x="83.789062" xlink:href="#DejaVuSans-30"/>
       <use x="147.412109" xlink:href="#DejaVuSans-2e"/>
       <use x="179.199219" xlink:href="#DejaVuSans-35"/>
       <use x="242.822266" xlink:href="#DejaVuSans-30"/>
      </g>
     </g>
    </g>
    <g id="ytick_4">
     <g id="line2d_9">
      <g>
       <use style="stroke:#000000;stroke-width:0.8;" x="135" xlink:href="#m411fe94698" y="168.256179"/>
      </g>
     </g>
     <g id="text_9">
      <!-- −0.25 -->
      <g transform="translate(97.354687 172.055397)scale(0.1 -0.1)">
       <use xlink:href="#DejaVuSans-2212"/>
       <use x="83.789062" xlink:href="#DejaVuSans-30"/>
       <use x="147.412109" xlink:href="#DejaVuSans-2e"/>
       <use x="179.199219" xlink:href="#DejaVuSans-32"/>
       <use x="242.822266" xlink:href="#DejaVuSans-35"/>
      </g>
     </g>
    </g>
    <g id="ytick_5">
     <g id="line2d_10">
      <g>
       <use style="stroke:#000000;stroke-width:0.8;" x="135" xlink:href="#m411fe94698" y="143.483488"/>
      </g>
     </g>
     <g id="text_10">
      <!-- 0.00 -->
      <g transform="translate(105.734375 147.282707)scale(0.1 -0.1)">
       <use xlink:href="#DejaVuSans-30"/>
       <use x="63.623047" xlink:href="#DejaVuSans-2e"/>
       <use x="95.410156" xlink:href="#DejaVuSans-30"/>
       <use x="159.033203" xlink:href="#DejaVuSans-30"/>
      </g>
     </g>
    </g>
    <g id="ytick_6">
     <g id="line2d_11">
      <g>
       <use style="stroke:#000000;stroke-width:0.8;" x="135" xlink:href="#m411fe94698" y="118.710797"/>
      </g>
     </g>
     <g id="text_11">
      <!-- 0.25 -->
      <g transform="translate(105.734375 122.510016)scale(0.1 -0.1)">
       <use xlink:href="#DejaVuSans-30"/>
       <use x="63.623047" xlink:href="#DejaVuSans-2e"/>
       <use x="95.410156" xlink:href="#DejaVuSans-32"/>
       <use x="159.033203" xlink:href="#DejaVuSans-35"/>
      </g>
     </g>
    </g>
    <g id="ytick_7">
     <g id="line2d_12">
      <g>
       <use style="stroke:#000000;stroke-width:0.8;" x="135" xlink:href="#m411fe94698" y="93.938107"/>
      </g>
     </g>
     <g id="text_12">
      <!-- 0.50 -->
      <g transform="translate(105.734375 97.737325)scale(0.1 -0.1)">
       <use xlink:href="#DejaVuSans-30"/>
       <use x="63.623047" xlink:href="#DejaVuSans-2e"/>
       <use x="95.410156" xlink:href="#DejaVuSans-35"/>
       <use x="159.033203" xlink:href="#DejaVuSans-30"/>
      </g>
     </g>
    </g>
    <g id="ytick_8">
     <g id="line2d_13">
      <g>
       <use style="stroke:#000000;stroke-width:0.8;" x="135" xlink:href="#m411fe94698" y="69.165416"/>
      </g>
     </g>
     <g id="text_13">
      <!-- 0.75 -->
      <g transform="translate(105.734375 72.964635)scale(0.1 -0.1)">
       <use xlink:href="#DejaVuSans-30"/>
       <use x="63.623047" xlink:href="#DejaVuSans-2e"/>
       <use x="95.410156" xlink:href="#DejaVuSans-37"/>
       <use x="159.033203" xlink:href="#DejaVuSans-35"/>
      </g>
     </g>
    </g>
    <g id="ytick_9">
     <g id="line2d_14">
      <g>
       <use style="stroke:#000000;stroke-width:0.8;" x="135" xlink:href="#m411fe94698" y="44.392725"/>
      </g>
     </g>
     <g id="text_14">
      <!-- 1.00 -->
      <g transform="translate(105.734375 48.191944)scale(0.1 -0.1)">
       <use xlink:href="#DejaVuSans-31"/>
       <use x="63.623047" xlink:href="#DejaVuSans-2e"/>
       <use x="95.410156" xlink:href="#DejaVuSans-30"/>
       <use x="159.033203" xlink:href="#DejaVuSans-30"/>
      </g>
     </g>
    </g>
   </g>
   <g id="line2d_15">
    <path clip-path="url(#p90988224f8)" d="M 173.045455 62.211994 
L 189.586957 48.488359 
L 206.128458 44.443636 
L 222.66996 50.489936 
L 239.211462 66.01121 
L 255.752964 89.426018 
L 272.294466 118.348662 
L 288.835968 149.832255 
L 305.37747 180.668982 
L 321.918972 207.716934 
L 338.460474 228.220237 
L 355.001976 240.089839 
L 371.543478 242.116364 
L 388.08498 234.093332 
L 404.626482 216.838199 
L 421.167984 192.109065 
L 437.709486 162.425542 
L 454.250988 130.812042 
L 470.79249 100.489617 
L 487.333992 74.547773 
L 503.875494 55.629686 
L 520.416996 45.662892 
L 536.958498 45.662892 
L 553.5 55.629686 
L 570.041502 74.547773 
L 586.583004 100.489617 
L 603.124506 130.812042 
L 619.666008 162.425542 
L 636.20751 192.109065 
L 652.749012 216.838199 
L 669.290514 234.093332 
L 685.832016 242.116364 
L 702.373518 240.089839 
L 718.91502 228.220237 
L 735.456522 207.716934 
L 751.998024 180.668982 
L 768.539526 149.832255 
L 785.081028 118.348662 
L 801.62253 89.426018 
L 818.164032 66.01121 
L 834.705534 50.489936 
L 851.247036 44.443636 
L 867.788538 48.488359 
L 884.33004 62.211994 
L 900.871542 84.216259 
L 917.413043 112.259174 
L 933.954545 143.483488 
" style="fill:none;stroke:#ff0000;stroke-linecap:square;stroke-width:1.5;"/>
    <defs>
     <path d="M 0 3 
C 0.795609 3 1.55874 2.683901 2.12132 2.12132 
C 2.683901 1.55874 3 0.795609 3 0 
C 3 -0.795609 2.683901 -1.55874 2.12132 -2.12132 
C 1.55874 -2.683901 0.795609 -3 0 -3 
C -0.795609 -3 -1.55874 -2.683901 -2.12132 -2.12132 
C -2.683901 -1.55874 -3 -0.795609 -3 0 
C -3 0.795609 -2.683901 1.55874 -2.12132 2.12132 
C -1.55874 2.683901 -0.795609 3 0 3 
z
" id="m01cb37eb40" style="stroke:#ff0000;"/>
    </defs>
    <g clip-path="url(#p90988224f8)">
     <use style="fill:#ff0000;stroke:#ff0000;" x="173.045455" xlink:href="#m01cb37eb40" y="62.211994"/>
     <use style="fill:#ff0000;stroke:#ff0000;" x="189.586957" xlink:href="#m01cb37eb40" y="48.488359"/>
     <use style="fill:#ff0000;stroke:#ff0000;" x="206.128458" xlink:href="#m01cb37eb40" y="44.443636"/>
     <use style="fill:#ff0000;stroke:#ff0000;" x="222.66996" xlink:href="#m01cb37eb40" y="50.489936"/>
     <use style="fill:#ff0000;stroke:#ff0000;" x="239.211462" xlink:href="#m01cb37eb40" y="66.01121"/>
     <use style="fill:#ff0000;stroke:#ff0000;" x="255.752964" xlink:href="#m01cb37eb40" y="89.426018"/>
     <use style="fill:#ff0000;stroke:#ff0000;" x="272.294466" xlink:href="#m01cb37eb40" y="118.348662"/>
     <use style="fill:#ff0000;stroke:#ff0000;" x="288.835968" xlink:href="#m01cb37eb40" y="149.832255"/>
     <use style="fill:#ff0000;stroke:#ff0000;" x="305.37747" xlink:href="#m01cb37eb40" y="180.668982"/>
     <use style="fill:#ff0000;stroke:#ff0000;" x="321.918972" xlink:href="#m01cb37eb40" y="207.716934"/>
     <use style="fill:#ff0000;stroke:#ff0000;" x="338.460474" xlink:href="#m01cb37eb40" y="228.220237"/>
     <use style="fill:#ff0000;stroke:#ff0000;" x="355.001976" xlink:href="#m01cb37eb40" y="240.089839"/>
     <use style="fill:#ff0000;stroke:#ff0000;" x="371.543478" xlink:href="#m01cb37eb40" y="242.116364"/>
     <use style="fill:#ff0000;stroke:#ff0000;" x="388.08498" xlink:href="#m01cb37eb40" y="234.093332"/>
     <use style="fill:#ff0000;stroke:#ff0000;" x="404.626482" xlink:href="#m01cb37eb40" y="216.838199"/>
     <use style="fill:#ff0000;stroke:#ff0000;" x="421.167984" xlink:href="#m01cb37eb40" y="192.109065"/>
     <use style="fill:#ff0000;stroke:#ff0000;" x="437.709486" xlink:href="#m01cb37eb40" y="162.425542"/>
     <use style="fill:#ff0000;stroke:#ff0000;" x="454.250988" xlink:href="#m01cb37eb40" y="130.812042"/>
     <use style="fill:#ff0000;stroke:#ff0000;" x="470.79249" xlink:href="#m01cb37eb40" y="100.489617"/>
     <use style="fill:#ff0000;stroke:#ff0000;" x="487.333992" xlink:href="#m01cb37eb40" y="74.547773"/>
     <use style="fill:#ff0000;stroke:#ff0000;" x="503.875494" xlink:href="#m01cb37eb40" y="55.629686"/>
     <use style="fill:#ff0000;stroke:#ff0000;" x="520.416996" xlink:href="#m01cb37eb40" y="45.662892"/>
     <use style="fill:#ff0000;stroke:#ff0000;" x="536.958498" xlink:href="#m01cb37eb40" y="45.662892"/>
     <use style="fill:#ff0000;stroke:#ff0000;" x="553.5" xlink:href="#m01cb37eb40" y="55.629686"/>
     <use style="fill:#ff0000;stroke:#ff0000;" x="570.041502" xlink:href="#m01cb37eb40" y="74.547773"/>
     <use style="fill:#ff0000;stroke:#ff0000;" x="586.583004" xlink:href="#m01cb37eb40" y="100.489617"/>
     <use style="fill:#ff0000;stroke:#ff0000;" x="603.124506" xlink:href="#m01cb37eb40" y="130.812042"/>
     <use style="fill:#ff0000;stroke:#ff0000;" x="619.666008" xlink:href="#m01cb37eb40" y="162.425542"/>
     <use style="fill:#ff0000;stroke:#ff0000;" x="636.20751" xlink:href="#m01cb37eb40" y="192.109065"/>
     <use style="fill:#ff0000;stroke:#ff0000;" x="652.749012" xlink:href="#m01cb37eb40" y="216.838199"/>
     <use style="fill:#ff0000;stroke:#ff0000;" x="669.290514" xlink:href="#m01cb37eb40" y="234.093332"/>
     <use style="fill:#ff0000;stroke:#ff0000;" x="685.832016" xlink:href="#m01cb37eb40" y="242.116364"/>
     <use style="fill:#ff0000;stroke:#ff0000;" x="702.373518" xlink:href="#m01cb37eb40" y="240.089839"/>
     <use style="fill:#ff0000;stroke:#ff0000;" x="718.91502" xlink:href="#m01cb37eb40" y="228.220237"/>
     <use style="fill:#ff0000;stroke:#ff0000;" x="735.456522" xlink:href="#m01cb37eb40" y="207.716934"/>
     <use style="fill:#ff0000;stroke:#ff0000;" x="751.998024" xlink:href="#m01cb37eb40" y="180.668982"/>
     <use style="fill:#ff0000;stroke:#ff0000;" x="768.539526" xlink:href="#m01cb37eb40" y="149.832255"/>
     <use style="fill:#ff0000;stroke:#ff0000;" x="785.081028" xlink:href="#m01cb37eb40" y="118.348662"/>
     <use style="fill:#ff0000;stroke:#ff0000;" x="801.62253" xlink:href="#m01cb37eb40" y="89.426018"/>
     <use style="fill:#ff0000;stroke:#ff0000;" x="818.164032" xlink:href="#m01cb37eb40" y="66.01121"/>
     <use style="fill:#ff0000;stroke:#ff0000;" x="834.705534" xlink:href="#m01cb37eb40" y="50.489936"/>
     <use style="fill:#ff0000;stroke:#ff0000;" x="851.247036" xlink:href="#m01cb37eb40" y="44.443636"/>
     <use style="fill:#ff0000;stroke:#ff0000;" x="867.788538" xlink:href="#m01cb37eb40" y="48.488359"/>
     <use style="fill:#ff0000;stroke:#ff0000;" x="884.33004" xlink:href="#m01cb37eb40" y="62.211994"/>
     <use style="fill:#ff0000;stroke:#ff0000;" x="900.871542" xlink:href="#m01cb37eb40" y="84.216259"/>
     <use style="fill:#ff0000;stroke:#ff0000;" x="917.413043" xlink:href="#m01cb37eb40" y="112.259174"/>
     <use style="fill:#ff0000;stroke:#ff0000;" x="933.954545" xlink:href="#m01cb37eb40" y="143.483488"/>
    </g>
   </g>
   <g id="line2d_16">
    <path clip-path="url(#p90988224f8)" d="M 173.045455 105.479548 
L 189.586957 84.483043 
L 206.128458 73.741227 
L 222.66996 69.537623 
L 239.211462 69.55872 
L 255.752964 73.307554 
L 272.294466 81.744418 
L 288.835968 97.188218 
L 305.37747 122.243795 
L 321.918972 154.936163 
L 338.460474 184.973373 
L 355.001976 204.184567 
L 371.543478 213.662494 
L 388.08498 217.039297 
L 404.626482 216.288149 
L 421.167984 211.610844 
L 437.709486 201.741964 
L 454.250988 184.114058 
L 470.79249 156.635417 
L 487.333992 123.415866 
L 503.875494 95.65984 
L 520.416996 79.169001 
L 536.958498 71.450995 
L 553.5 69.102236 
L 570.041502 70.58823 
L 586.583004 76.01888 
L 603.124506 86.913207 
L 619.666008 105.983722 
L 636.20751 134.833463 
L 652.749012 167.947486 
L 669.290514 194.0518 
L 685.832016 208.920025 
L 702.373518 215.589426 
L 718.91502 217.188289 
L 735.456522 214.927215 
L 751.998024 208.405394 
L 768.539526 195.792005 
L 785.081028 174.29176 
L 801.62253 143.467707 
L 818.164032 111.078352 
L 834.705534 87.751956 
L 851.247036 75.256044 
L 867.788538 69.995642 
L 884.33004 69.262592 
L 900.871542 72.233522 
L 917.413043 79.588683 
L 933.954545 93.393791 
" style="fill:none;stroke:#1f77b4;stroke-dasharray:5.55,2.4;stroke-dashoffset:0;stroke-width:1.5;"/>
    <defs>
     <path d="M 0 3 
C 0.795609 3 1.55874 2.683901 2.12132 2.12132 
C 2.683901 1.55874 3 0.795609 3 0 
C 3 -0.795609 2.683901 -1.55874 2.12132 -2.12132 
C 1.55874 -2.683901 0.795609 -3 0 -3 
C -0.795609 -3 -1.55874 -2.683901 -2.12132 -2.12132 
C -2.683901 -1.55874 -3 -0.795609 -3 0 
C -3 0.795609 -2.683901 1.55874 -2.12132 2.12132 
C -1.55874 2.683901 -0.795609 3 0 3 
z
" id="md3a23dde2e" style="stroke:#1f77b4;"/>
    </defs>
    <g clip-path="url(#p90988224f8)">
     <use style="fill:#1f77b4;stroke:#1f77b4;" x="173.045455" xlink:href="#md3a23dde2e" y="105.479548"/>
     <use style="fill:#1f77b4;stroke:#1f77b4;" x="189.586957" xlink:href="#md3a23dde2e" y="84.483043"/>
     <use style="fill:#1f77b4;stroke:#1f77b4;" x="206.128458" xlink:href="#md3a23dde2e" y="73.741227"/>
     <use style="fill:#1f77b4;stroke:#1f77b4;" x="222.66996" xlink:href="#md3a23dde2e" y="69.537623"/>
     <use style="fill:#1f77b4;stroke:#1f77b4;" x="239.211462" xlink:href="#md3a23dde2e" y="69.55872"/>
     <use style="fill:#1f77b4;stroke:#1f77b4;" x="255.752964" xlink:href="#md3a23dde2e" y="73.307554"/>
     <use style="fill:#1f77b4;stroke:#1f77b4;" x="272.294466" xlink:href="#md3a23dde2e" y="81.744418"/>
     <use style="fill:#1f77b4;stroke:#1f77b4;" x="288.835968" xlink:href="#md3a23dde2e" y="97.188218"/>
     <use style="fill:#1f77b4;stroke:#1f77b4;" x="305.37747" xlink:href="#md3a23dde2e" y="122.243795"/>
     <use style="fill:#1f77b4;stroke:#1f77b4;" x="321.918972" xlink:href="#md3a23dde2e" y="154.936163"/>
     <use style="fill:#1f77b4;stroke:#1f77b4;" x="338.460474" xlink:href="#md3a23dde2e" y="184.973373"/>
     <use style="fill:#1f77b4;stroke:#1f77b4;" x="355.001976" xlink:href="#md3a23dde2e" y="204.184567"/>
     <use style="fill:#1f77b4;stroke:#1f77b4;" x="371.543478" xlink:href="#md3a23dde2e" y="213.662494"/>
     <use style="fill:#1f77b4;stroke:#1f77b4;" x="388.08498" xlink:href="#md3a23dde2e" y="217.039297"/>
     <use style="fill:#1f77b4;stroke:#1f77b4;" x="404.626482" xlink:href="#md3a23dde2e" y="216.288149"/>
     <use style="fill:#1f77b4;stroke:#1f77b4;" x="421.167984" xlink:href="#md3a23dde2e" y="211.610844"/>
     <use style="fill:#1f77b4;stroke:#1f77b4;" x="437.709486" xlink:href="#md3a23dde2e" y="201.741964"/>
     <use style="fill:#1f77b4;stroke:#1f77b4;" x="454.250988" xlink:href="#md3a23dde2e" y="184.114058"/>
     <use style="fill:#1f77b4;stroke:#1f77b4;" x="470.79249" xlink:href="#md3a23dde2e" y="156.635417"/>
     <use style="fill:#1f77b4;stroke:#1f77b4;" x="487.333992" xlink:href="#md3a23dde2e" y="123.415866"/>
     <use style="fill:#1f77b4;stroke:#1f77b4;" x="503.875494" xlink:href="#md3a23dde2e" y="95.65984"/>
     <use style="fill:#1f77b4;stroke:#1f77b4;" x="520.416996" xlink:href="#md3a23dde2e" y="79.169001"/>
     <use style="fill:#1f77b4;stroke:#1f77b4;" x="536.958498" xlink:href="#md3a23dde2e" y="71.450995"/>
     <use style="fill:#1f77b4;stroke:#1f77b4;" x="553.5" xlink:href="#md3a23dde2e" y="69.102236"/>
     <use style="fill:#1f77b4;stroke:#1f77b4;" x="570.041502" xlink:href="#md3a23dde2e" y="70.58823"/>
     <use style="fill:#1f77b4;stroke:#1f77b4;" x="586.583004" xlink:href="#md3a23dde2e" y="76.01888"/>
     <use style="fill:#1f77b4;stroke:#1f77b4;" x="603.124506" xlink:href="#md3a23dde2e" y="86.913207"/>
     <use style="fill:#1f77b4;stroke:#1f77b4;" x="619.666008" xlink:href="#md3a23dde2e" y="105.983722"/>
     <use style="fill:#1f77b4;stroke:#1f77b4;" x="636.20751" xlink:href="#md3a23dde2e" y="134.833463"/>
     <use style="fill:#1f77b4;stroke:#1f77b4;" x="652.749012" xlink:href="#md3a23dde2e" y="167.947486"/>
     <use style="fill:#1f77b4;stroke:#1f77b4;" x="669.290514" xlink:href="#md3a23dde2e" y="194.0518"/>
     <use style="fill:#1f77b4;stroke:#1f77b4;" x="685.832016" xlink:href="#md3a23dde2e" y="208.920025"/>
     <use style="fill:#1f77b4;stroke:#1f77b4;" x="702.373518" xlink:href="#md3a23dde2e" y="215.589426"/>
     <use style="fill:#1f77b4;stroke:#1f77b4;" x="718.91502" xlink:href="#md3a23dde2e" y="217.188289"/>
     <use style="fill:#1f77b4;stroke:#1f77b4;" x="735.456522" xlink:href="#md3a23dde2e" y="214.927215"/>
     <use style="fill:#1f77b4;stroke:#1f77b4;" x="751.998024" xlink:href="#md3a23dde2e" y="208.405394"/>
     <use style="fill:#1f77b4;stroke:#1f77b4;" x="768.539526" xlink:href="#md3a23dde2e" y="195.792005"/>
     <use style="fill:#1f77b4;stroke:#1f77b4;" x="785.081028" xlink:href="#md3a23dde2e" y="174.29176"/>
     <use style="fill:#1f77b4;stroke:#1f77b4;" x="801.62253" xlink:href="#md3a23dde2e" y="143.467707"/>
     <use style="fill:#1f77b4;stroke:#1f77b4;" x="818.164032" xlink:href="#md3a23dde2e" y="111.078352"/>
     <use style="fill:#1f77b4;stroke:#1f77b4;" x="834.705534" xlink:href="#md3a23dde2e" y="87.751956"/>
     <use style="fill:#1f77b4;stroke:#1f77b4;" x="851.247036" xlink:href="#md3a23dde2e" y="75.256044"/>
     <use style="fill:#1f77b4;stroke:#1f77b4;" x="867.788538" xlink:href="#md3a23dde2e" y="69.995642"/>
     <use style="fill:#1f77b4;stroke:#1f77b4;" x="884.33004" xlink:href="#md3a23dde2e" y="69.262592"/>
     <use style="fill:#1f77b4;stroke:#1f77b4;" x="900.871542" xlink:href="#md3a23dde2e" y="72.233522"/>
     <use style="fill:#1f77b4;stroke:#1f77b4;" x="917.413043" xlink:href="#md3a23dde2e" y="79.588683"/>
     <use style="fill:#1f77b4;stroke:#1f77b4;" x="933.954545" xlink:href="#md3a23dde2e" y="93.393791"/>
    </g>
   </g>
   <g id="line2d_17">
    <path clip-path="url(#p90988224f8)" d="M 173.045455 83.723585 
L 189.586957 74.577207 
L 206.128458 72.703573 
L 222.66996 72.323788 
L 239.211462 72.719561 
L 255.752964 74.204474 
L 272.294466 78.230849 
L 288.835968 89.120847 
L 305.37747 118.188742 
L 321.918972 173.361948 
L 338.460474 204.773162 
L 355.001976 210.8475 
L 371.543478 212.192966 
L 388.08498 212.394601 
L 404.626482 211.849511 
L 421.167984 210.087375 
L 437.709486 205.346743 
L 454.250988 192.495312 
L 470.79249 158.809802 
L 487.333992 103.123481 
L 503.875494 78.150417 
L 520.416996 73.512566 
L 536.958498 72.446343 
L 553.5 72.388816 
L 570.041502 73.136821 
L 586.583004 75.363816 
L 603.124506 81.345166 
L 619.666008 97.593839 
L 636.20751 138.450506 
L 652.749012 191.266536 
L 669.290514 208.422185 
L 685.832016 211.608441 
L 702.373518 212.364679 
L 718.91502 212.27452 
L 735.456522 211.347909 
L 751.998024 208.723683 
L 768.539526 201.67188 
L 785.081028 182.535608 
L 801.62253 136.717993 
L 818.164032 88.373745 
L 834.705534 75.402927 
L 851.247036 72.903571 
L 867.788538 72.334277 
L 884.33004 72.574763 
L 900.871542 73.775177 
L 917.413043 77.08143 
L 933.954545 85.994705 
" style="fill:none;stroke:#ff7f0e;stroke-dasharray:5.55,2.4;stroke-dashoffset:0;stroke-width:1.5;"/>
    <defs>
     <path d="M 0 3 
C 0.795609 3 1.55874 2.683901 2.12132 2.12132 
C 2.683901 1.55874 3 0.795609 3 0 
C 3 -0.795609 2.683901 -1.55874 2.12132 -2.12132 
C 1.55874 -2.683901 0.795609 -3 0 -3 
C -0.795609 -3 -1.55874 -2.683901 -2.12132 -2.12132 
C -2.683901 -1.55874 -3 -0.795609 -3 0 
C -3 0.795609 -2.683901 1.55874 -2.12132 2.12132 
C -1.55874 2.683901 -0.795609 3 0 3 
z
" id="m90945408d5" style="stroke:#ff7f0e;"/>
    </defs>
    <g clip-path="url(#p90988224f8)">
     <use style="fill:#ff7f0e;stroke:#ff7f0e;" x="173.045455" xlink:href="#m90945408d5" y="83.723585"/>
     <use style="fill:#ff7f0e;stroke:#ff7f0e;" x="189.586957" xlink:href="#m90945408d5" y="74.577207"/>
     <use style="fill:#ff7f0e;stroke:#ff7f0e;" x="206.128458" xlink:href="#m90945408d5" y="72.703573"/>
     <use style="fill:#ff7f0e;stroke:#ff7f0e;" x="222.66996" xlink:href="#m90945408d5" y="72.323788"/>
     <use style="fill:#ff7f0e;stroke:#ff7f0e;" x="239.211462" xlink:href="#m90945408d5" y="72.719561"/>
     <use style="fill:#ff7f0e;stroke:#ff7f0e;" x="255.752964" xlink:href="#m90945408d5" y="74.204474"/>
     <use style="fill:#ff7f0e;stroke:#ff7f0e;" x="272.294466" xlink:href="#m90945408d5" y="78.230849"/>
     <use style="fill:#ff7f0e;stroke:#ff7f0e;" x="288.835968" xlink:href="#m90945408d5" y="89.120847"/>
     <use style="fill:#ff7f0e;stroke:#ff7f0e;" x="305.37747" xlink:href="#m90945408d5" y="118.188742"/>
     <use style="fill:#ff7f0e;stroke:#ff7f0e;" x="321.918972" xlink:href="#m90945408d5" y="173.361948"/>
     <use style="fill:#ff7f0e;stroke:#ff7f0e;" x="338.460474" xlink:href="#m90945408d5" y="204.773162"/>
     <use style="fill:#ff7f0e;stroke:#ff7f0e;" x="355.001976" xlink:href="#m90945408d5" y="210.8475"/>
     <use style="fill:#ff7f0e;stroke:#ff7f0e;" x="371.543478" xlink:href="#m90945408d5" y="212.192966"/>
     <use style="fill:#ff7f0e;stroke:#ff7f0e;" x="388.08498" xlink:href="#m90945408d5" y="212.394601"/>
     <use style="fill:#ff7f0e;stroke:#ff7f0e;" x="404.626482" xlink:href="#m90945408d5" y="211.849511"/>
     <use style="fill:#ff7f0e;stroke:#ff7f0e;" x="421.167984" xlink:href="#m90945408d5" y="210.087375"/>
     <use style="fill:#ff7f0e;stroke:#ff7f0e;" x="437.709486" xlink:href="#m90945408d5" y="205.346743"/>
     <use style="fill:#ff7f0e;stroke:#ff7f0e;" x="454.250988" xlink:href="#m90945408d5" y="192.495312"/>
     <use style="fill:#ff7f0e;stroke:#ff7f0e;" x="470.79249" xlink:href="#m90945408d5" y="158.809802"/>
     <use style="fill:#ff7f0e;stroke:#ff7f0e;" x="487.333992" xlink:href="#m90945408d5" y="103.123481"/>
     <use style="fill:#ff7f0e;stroke:#ff7f0e;" x="503.875494" xlink:href="#m90945408d5" y="78.150417"/>
     <use style="fill:#ff7f0e;stroke:#ff7f0e;" x="520.416996" xlink:href="#m90945408d5" y="73.512566"/>
     <use style="fill:#ff7f0e;stroke:#ff7f0e;" x="536.958498" xlink:href="#m90945408d5" y="72.446343"/>
     <use style="fill:#ff7f0e;stroke:#ff7f0e;" x="553.5" xlink:href="#m90945408d5" y="72.388816"/>
     <use style="fill:#ff7f0e;stroke:#ff7f0e;" x="570.041502" xlink:href="#m90945408d5" y="73.136821"/>
     <use style="fill:#ff7f0e;stroke:#ff7f0e;" x="586.583004" xlink:href="#m90945408d5" y="75.363816"/>
     <use style="fill:#ff7f0e;stroke:#ff7f0e;" x="603.124506" xlink:href="#m90945408d5" y="81.345166"/>
     <use style="fill:#ff7f0e;stroke:#ff7f0e;" x="619.666008" xlink:href="#m90945408d5" y="97.593839"/>
     <use style="fill:#ff7f0e;stroke:#ff7f0e;" x="636.20751" xlink:href="#m90945408d5" y="138.450506"/>
     <use style="fill:#ff7f0e;stroke:#ff7f0e;" x="652.749012" xlink:href="#m90945408d5" y="191.266536"/>
     <use style="fill:#ff7f0e;stroke:#ff7f0e;" x="669.290514" xlink:href="#m90945408d5" y="208.422185"/>
     <use style="fill:#ff7f0e;stroke:#ff7f0e;" x="685.832016" xlink:href="#m90945408d5" y="211.608441"/>
     <use style="fill:#ff7f0e;stroke:#ff7f0e;" x="702.373518" xlink:href="#m90945408d5" y="212.364679"/>
     <use style="fill:#ff7f0e;stroke:#ff7f0e;" x="718.91502" xlink:href="#m90945408d5" y="212.27452"/>
     <use style="fill:#ff7f0e;stroke:#ff7f0e;" x="735.456522" xlink:href="#m90945408d5" y="211.347909"/>
     <use style="fill:#ff7f0e;stroke:#ff7f0e;" x="751.998024" xlink:href="#m90945408d5" y="208.723683"/>
     <use style="fill:#ff7f0e;stroke:#ff7f0e;" x="768.539526" xlink:href="#m90945408d5" y="201.67188"/>
     <use style="fill:#ff7f0e;stroke:#ff7f0e;" x="785.081028" xlink:href="#m90945408d5" y="182.535608"/>
     <use style="fill:#ff7f0e;stroke:#ff7f0e;" x="801.62253" xlink:href="#m90945408d5" y="136.717993"/>
     <use style="fill:#ff7f0e;stroke:#ff7f0e;" x="818.164032" xlink:href="#m90945408d5" y="88.373745"/>
     <use style="fill:#ff7f0e;stroke:#ff7f0e;" x="834.705534" xlink:href="#m90945408d5" y="75.402927"/>
     <use style="fill:#ff7f0e;stroke:#ff7f0e;" x="851.247036" xlink:href="#m90945408d5" y="72.903571"/>
     <use style="fill:#ff7f0e;stroke:#ff7f0e;" x="867.788538" xlink:href="#m90945408d5" y="72.334277"/>
     <use style="fill:#ff7f0e;stroke:#ff7f0e;" x="884.33004" xlink:href="#m90945408d5" y="72.574763"/>
     <use style="fill:#ff7f0e;stroke:#ff7f0e;" x="900.871542" xlink:href="#m90945408d5" y="73.775177"/>
     <use style="fill:#ff7f0e;stroke:#ff7f0e;" x="917.413043" xlink:href="#m90945408d5" y="77.08143"/>
     <use style="fill:#ff7f0e;stroke:#ff7f0e;" x="933.954545" xlink:href="#m90945408d5" y="85.994705"/>
    </g>
   </g>
   <g id="line2d_18">
    <path clip-path="url(#p90988224f8)" d="M 173.045455 62.211994 
L 189.586957 48.488359 
L 206.128458 44.443636 
L 222.66996 50.489936 
L 239.211462 66.01121 
L 255.752964 89.426018 
L 272.294466 118.348662 
L 288.835968 149.832255 
L 305.37747 180.668982 
L 321.918972 207.716934 
L 338.460474 228.220237 
L 355.001976 240.089839 
L 371.543478 242.116364 
L 388.08498 234.093332 
L 404.626482 216.838199 
L 421.167984 192.109065 
L 437.709486 162.425542 
L 454.250988 130.812042 
L 470.79249 100.489617 
L 487.333992 74.547773 
L 503.875494 55.629686 
L 520.416996 45.662892 
L 536.958498 45.662892 
L 553.5 55.629686 
L 570.041502 74.547773 
L 586.583004 100.489617 
L 603.124506 130.812042 
L 619.666008 162.425542 
L 636.20751 192.109065 
L 652.749012 216.838199 
L 669.290514 234.093332 
L 685.832016 242.116364 
L 702.373518 240.089839 
L 718.91502 228.220237 
L 735.456522 207.716934 
L 751.998024 180.668982 
L 768.539526 149.832255 
L 785.081028 118.348662 
L 801.62253 89.426018 
L 818.164032 66.01121 
L 834.705534 50.489936 
L 851.247036 44.443636 
L 867.788538 48.488359 
L 884.33004 62.211994 
L 900.871542 84.216259 
L 917.413043 112.259174 
L 933.954545 143.483488 
" style="fill:none;stroke:#2ca02c;stroke-linecap:square;stroke-width:1.5;"/>
   </g>
   <g id="patch_3">
    <path d="M 135 252 
L 135 34.56 
" style="fill:none;stroke:#000000;stroke-linecap:square;stroke-linejoin:miter;stroke-width:0.8;"/>
   </g>
   <g id="patch_4">
    <path d="M 972 252 
L 972 34.56 
" style="fill:none;stroke:#000000;stroke-linecap:square;stroke-linejoin:miter;stroke-width:0.8;"/>
   </g>
   <g id="patch_5">
    <path d="M 135 252 
L 972 252 
" style="fill:none;stroke:#000000;stroke-linecap:square;stroke-linejoin:miter;stroke-width:0.8;"/>
   </g>
   <g id="patch_6">
    <path d="M 135 34.56 
L 972 34.56 
" style="fill:none;stroke:#000000;stroke-linecap:square;stroke-linejoin:miter;stroke-width:0.8;"/>
   </g>
   <g id="legend_1">
    <g id="patch_7">
     <path d="M 142 247 
L 237.08125 247 
Q 239.08125 247 239.08125 245 
L 239.08125 186.73125 
Q 239.08125 184.73125 237.08125 184.73125 
L 142 184.73125 
Q 140 184.73125 140 186.73125 
L 140 245 
Q 140 247 142 247 
z
" style="fill:#ffffff;opacity:0.8;stroke:#cccccc;stroke-linejoin:miter;"/>
    </g>
    <g id="line2d_19">
     <path d="M 144 192.829688 
L 164 192.829688 
" style="fill:none;stroke:#ff0000;stroke-linecap:square;stroke-width:1.5;"/>
    </g>
    <g id="line2d_20">
     <g>
      <use style="fill:#ff0000;stroke:#ff0000;" x="154" xlink:href="#m01cb37eb40" y="192.829688"/>
     </g>
    </g>
    <g id="text_15">
     <!-- original data -->
     <defs>
      <path d="M 30.609375 48.390625 
Q 23.390625 48.390625 19.1875 42.75 
Q 14.984375 37.109375 14.984375 27.296875 
Q 14.984375 17.484375 19.15625 11.84375 
Q 23.34375 6.203125 30.609375 6.203125 
Q 37.796875 6.203125 41.984375 11.859375 
Q 46.1875 17.53125 46.1875 27.296875 
Q 46.1875 37.015625 41.984375 42.703125 
Q 37.796875 48.390625 30.609375 48.390625 
z
M 30.609375 56 
Q 42.328125 56 49.015625 48.375 
Q 55.71875 40.765625 55.71875 27.296875 
Q 55.71875 13.875 49.015625 6.21875 
Q 42.328125 -1.421875 30.609375 -1.421875 
Q 18.84375 -1.421875 12.171875 6.21875 
Q 5.515625 13.875 5.515625 27.296875 
Q 5.515625 40.765625 12.171875 48.375 
Q 18.84375 56 30.609375 56 
z
" id="DejaVuSans-6f"/>
      <path d="M 41.109375 46.296875 
Q 39.59375 47.171875 37.8125 47.578125 
Q 36.03125 48 33.890625 48 
Q 26.265625 48 22.1875 43.046875 
Q 18.109375 38.09375 18.109375 28.8125 
L 18.109375 0 
L 9.078125 0 
L 9.078125 54.6875 
L 18.109375 54.6875 
L 18.109375 46.1875 
Q 20.953125 51.171875 25.484375 53.578125 
Q 30.03125 56 36.53125 56 
Q 37.453125 56 38.578125 55.875 
Q 39.703125 55.765625 41.0625 55.515625 
z
" id="DejaVuSans-72"/>
      <path d="M 9.421875 54.6875 
L 18.40625 54.6875 
L 18.40625 0 
L 9.421875 0 
z
M 9.421875 75.984375 
L 18.40625 75.984375 
L 18.40625 64.59375 
L 9.421875 64.59375 
z
" id="DejaVuSans-69"/>
      <path d="M 45.40625 27.984375 
Q 45.40625 37.75 41.375 43.109375 
Q 37.359375 48.484375 30.078125 48.484375 
Q 22.859375 48.484375 18.828125 43.109375 
Q 14.796875 37.75 14.796875 27.984375 
Q 14.796875 18.265625 18.828125 12.890625 
Q 22.859375 7.515625 30.078125 7.515625 
Q 37.359375 7.515625 41.375 12.890625 
Q 45.40625 18.265625 45.40625 27.984375 
z
M 54.390625 6.78125 
Q 54.390625 -7.171875 48.1875 -13.984375 
Q 42 -20.796875 29.203125 -20.796875 
Q 24.46875 -20.796875 20.265625 -20.09375 
Q 16.0625 -19.390625 12.109375 -17.921875 
L 12.109375 -9.1875 
Q 16.0625 -11.328125 19.921875 -12.34375 
Q 23.78125 -13.375 27.78125 -13.375 
Q 36.625 -13.375 41.015625 -8.765625 
Q 45.40625 -4.15625 45.40625 5.171875 
L 45.40625 9.625 
Q 42.625 4.78125 38.28125 2.390625 
Q 33.9375 0 27.875 0 
Q 17.828125 0 11.671875 7.65625 
Q 5.515625 15.328125 5.515625 27.984375 
Q 5.515625 40.671875 11.671875 48.328125 
Q 17.828125 56 27.875 56 
Q 33.9375 56 38.28125 53.609375 
Q 42.625 51.21875 45.40625 46.390625 
L 45.40625 54.6875 
L 54.390625 54.6875 
z
" id="DejaVuSans-67"/>
      <path d="M 54.890625 33.015625 
L 54.890625 0 
L 45.90625 0 
L 45.90625 32.71875 
Q 45.90625 40.484375 42.875 44.328125 
Q 39.84375 48.1875 33.796875 48.1875 
Q 26.515625 48.1875 22.3125 43.546875 
Q 18.109375 38.921875 18.109375 30.90625 
L 18.109375 0 
L 9.078125 0 
L 9.078125 54.6875 
L 18.109375 54.6875 
L 18.109375 46.1875 
Q 21.34375 51.125 25.703125 53.5625 
Q 30.078125 56 35.796875 56 
Q 45.21875 56 50.046875 50.171875 
Q 54.890625 44.34375 54.890625 33.015625 
z
" id="DejaVuSans-6e"/>
      <path d="M 34.28125 27.484375 
Q 23.390625 27.484375 19.1875 25 
Q 14.984375 22.515625 14.984375 16.5 
Q 14.984375 11.71875 18.140625 8.90625 
Q 21.296875 6.109375 26.703125 6.109375 
Q 34.1875 6.109375 38.703125 11.40625 
Q 43.21875 16.703125 43.21875 25.484375 
L 43.21875 27.484375 
z
M 52.203125 31.203125 
L 52.203125 0 
L 43.21875 0 
L 43.21875 8.296875 
Q 40.140625 3.328125 35.546875 0.953125 
Q 30.953125 -1.421875 24.3125 -1.421875 
Q 15.921875 -1.421875 10.953125 3.296875 
Q 6 8.015625 6 15.921875 
Q 6 25.140625 12.171875 29.828125 
Q 18.359375 34.515625 30.609375 34.515625 
L 43.21875 34.515625 
L 43.21875 35.40625 
Q 43.21875 41.609375 39.140625 45 
Q 35.0625 48.390625 27.6875 48.390625 
Q 23 48.390625 18.546875 47.265625 
Q 14.109375 46.140625 10.015625 43.890625 
L 10.015625 52.203125 
Q 14.9375 54.109375 19.578125 55.046875 
Q 24.21875 56 28.609375 56 
Q 40.484375 56 46.34375 49.84375 
Q 52.203125 43.703125 52.203125 31.203125 
z
" id="DejaVuSans-61"/>
      <path d="M 9.421875 75.984375 
L 18.40625 75.984375 
L 18.40625 0 
L 9.421875 0 
z
" id="DejaVuSans-6c"/>
      <path id="DejaVuSans-20"/>
      <path d="M 45.40625 46.390625 
L 45.40625 75.984375 
L 54.390625 75.984375 
L 54.390625 0 
L 45.40625 0 
L 45.40625 8.203125 
Q 42.578125 3.328125 38.25 0.953125 
Q 33.9375 -1.421875 27.875 -1.421875 
Q 17.96875 -1.421875 11.734375 6.484375 
Q 5.515625 14.40625 5.515625 27.296875 
Q 5.515625 40.1875 11.734375 48.09375 
Q 17.96875 56 27.875 56 
Q 33.9375 56 38.25 53.625 
Q 42.578125 51.265625 45.40625 46.390625 
z
M 14.796875 27.296875 
Q 14.796875 17.390625 18.875 11.75 
Q 22.953125 6.109375 30.078125 6.109375 
Q 37.203125 6.109375 41.296875 11.75 
Q 45.40625 17.390625 45.40625 27.296875 
Q 45.40625 37.203125 41.296875 42.84375 
Q 37.203125 48.484375 30.078125 48.484375 
Q 22.953125 48.484375 18.875 42.84375 
Q 14.796875 37.203125 14.796875 27.296875 
z
" id="DejaVuSans-64"/>
      <path d="M 18.3125 70.21875 
L 18.3125 54.6875 
L 36.8125 54.6875 
L 36.8125 47.703125 
L 18.3125 47.703125 
L 18.3125 18.015625 
Q 18.3125 11.328125 20.140625 9.421875 
Q 21.96875 7.515625 27.59375 7.515625 
L 36.8125 7.515625 
L 36.8125 0 
L 27.59375 0 
Q 17.1875 0 13.234375 3.875 
Q 9.28125 7.765625 9.28125 18.015625 
L 9.28125 47.703125 
L 2.6875 47.703125 
L 2.6875 54.6875 
L 9.28125 54.6875 
L 9.28125 70.21875 
z
" id="DejaVuSans-74"/>
     </defs>
     <g transform="translate(172 196.329688)scale(0.1 -0.1)">
      <use xlink:href="#DejaVuSans-6f"/>
      <use x="61.181641" xlink:href="#DejaVuSans-72"/>
      <use x="102.294922" xlink:href="#DejaVuSans-69"/>
      <use x="130.078125" xlink:href="#DejaVuSans-67"/>
      <use x="193.554688" xlink:href="#DejaVuSans-69"/>
      <use x="221.337891" xlink:href="#DejaVuSans-6e"/>
      <use x="284.716797" xlink:href="#DejaVuSans-61"/>
      <use x="345.996094" xlink:href="#DejaVuSans-6c"/>
      <use x="373.779297" xlink:href="#DejaVuSans-20"/>
      <use x="405.566406" xlink:href="#DejaVuSans-64"/>
      <use x="469.042969" xlink:href="#DejaVuSans-61"/>
      <use x="530.322266" xlink:href="#DejaVuSans-74"/>
      <use x="569.53125" xlink:href="#DejaVuSans-61"/>
     </g>
    </g>
    <g id="line2d_21">
     <path d="M 144 207.507812 
L 164 207.507812 
" style="fill:none;stroke:#1f77b4;stroke-dasharray:5.55,2.4;stroke-dashoffset:0;stroke-width:1.5;"/>
    </g>
    <g id="line2d_22">
     <g>
      <use style="fill:#1f77b4;stroke:#1f77b4;" x="154" xlink:href="#md3a23dde2e" y="207.507812"/>
     </g>
    </g>
    <g id="text_16">
     <!-- model_0 -->
     <defs>
      <path d="M 52 44.1875 
Q 55.375 50.25 60.0625 53.125 
Q 64.75 56 71.09375 56 
Q 79.640625 56 84.28125 50.015625 
Q 88.921875 44.046875 88.921875 33.015625 
L 88.921875 0 
L 79.890625 0 
L 79.890625 32.71875 
Q 79.890625 40.578125 77.09375 44.375 
Q 74.3125 48.1875 68.609375 48.1875 
Q 61.625 48.1875 57.5625 43.546875 
Q 53.515625 38.921875 53.515625 30.90625 
L 53.515625 0 
L 44.484375 0 
L 44.484375 32.71875 
Q 44.484375 40.625 41.703125 44.40625 
Q 38.921875 48.1875 33.109375 48.1875 
Q 26.21875 48.1875 22.15625 43.53125 
Q 18.109375 38.875 18.109375 30.90625 
L 18.109375 0 
L 9.078125 0 
L 9.078125 54.6875 
L 18.109375 54.6875 
L 18.109375 46.1875 
Q 21.1875 51.21875 25.484375 53.609375 
Q 29.78125 56 35.6875 56 
Q 41.65625 56 45.828125 52.96875 
Q 50 49.953125 52 44.1875 
z
" id="DejaVuSans-6d"/>
      <path d="M 56.203125 29.59375 
L 56.203125 25.203125 
L 14.890625 25.203125 
Q 15.484375 15.921875 20.484375 11.0625 
Q 25.484375 6.203125 34.421875 6.203125 
Q 39.59375 6.203125 44.453125 7.46875 
Q 49.3125 8.734375 54.109375 11.28125 
L 54.109375 2.78125 
Q 49.265625 0.734375 44.1875 -0.34375 
Q 39.109375 -1.421875 33.890625 -1.421875 
Q 20.796875 -1.421875 13.15625 6.1875 
Q 5.515625 13.8125 5.515625 26.8125 
Q 5.515625 40.234375 12.765625 48.109375 
Q 20.015625 56 32.328125 56 
Q 43.359375 56 49.78125 48.890625 
Q 56.203125 41.796875 56.203125 29.59375 
z
M 47.21875 32.234375 
Q 47.125 39.59375 43.09375 43.984375 
Q 39.0625 48.390625 32.421875 48.390625 
Q 24.90625 48.390625 20.390625 44.140625 
Q 15.875 39.890625 15.1875 32.171875 
z
" id="DejaVuSans-65"/>
      <path d="M 50.984375 -16.609375 
L 50.984375 -23.578125 
L -0.984375 -23.578125 
L -0.984375 -16.609375 
z
" id="DejaVuSans-5f"/>
     </defs>
     <g transform="translate(172 211.007812)scale(0.1 -0.1)">
      <use xlink:href="#DejaVuSans-6d"/>
      <use x="97.412109" xlink:href="#DejaVuSans-6f"/>
      <use x="158.59375" xlink:href="#DejaVuSans-64"/>
      <use x="222.070312" xlink:href="#DejaVuSans-65"/>
      <use x="283.59375" xlink:href="#DejaVuSans-6c"/>
      <use x="311.376953" xlink:href="#DejaVuSans-5f"/>
      <use x="361.376953" xlink:href="#DejaVuSans-30"/>
     </g>
    </g>
    <g id="line2d_23">
     <path d="M 144 222.464063 
L 164 222.464063 
" style="fill:none;stroke:#ff7f0e;stroke-dasharray:5.55,2.4;stroke-dashoffset:0;stroke-width:1.5;"/>
    </g>
    <g id="line2d_24">
     <g>
      <use style="fill:#ff7f0e;stroke:#ff7f0e;" x="154" xlink:href="#m90945408d5" y="222.464063"/>
     </g>
    </g>
    <g id="text_17">
     <!-- model_1 -->
     <g transform="translate(172 225.964063)scale(0.1 -0.1)">
      <use xlink:href="#DejaVuSans-6d"/>
      <use x="97.412109" xlink:href="#DejaVuSans-6f"/>
      <use x="158.59375" xlink:href="#DejaVuSans-64"/>
      <use x="222.070312" xlink:href="#DejaVuSans-65"/>
      <use x="283.59375" xlink:href="#DejaVuSans-6c"/>
      <use x="311.376953" xlink:href="#DejaVuSans-5f"/>
      <use x="361.376953" xlink:href="#DejaVuSans-31"/>
     </g>
    </g>
    <g id="line2d_25">
     <path d="M 144 237.420313 
L 164 237.420313 
" style="fill:none;stroke:#2ca02c;stroke-linecap:square;stroke-width:1.5;"/>
    </g>
    <g id="line2d_26"/>
    <g id="text_18">
     <!-- Linear Reg -->
     <defs>
      <path d="M 9.8125 72.90625 
L 19.671875 72.90625 
L 19.671875 8.296875 
L 55.171875 8.296875 
L 55.171875 0 
L 9.8125 0 
z
" id="DejaVuSans-4c"/>
      <path d="M 44.390625 34.1875 
Q 47.5625 33.109375 50.5625 29.59375 
Q 53.5625 26.078125 56.59375 19.921875 
L 66.609375 0 
L 56 0 
L 46.6875 18.703125 
Q 43.0625 26.03125 39.671875 28.421875 
Q 36.28125 30.8125 30.421875 30.8125 
L 19.671875 30.8125 
L 19.671875 0 
L 9.8125 0 
L 9.8125 72.90625 
L 32.078125 72.90625 
Q 44.578125 72.90625 50.734375 67.671875 
Q 56.890625 62.453125 56.890625 51.90625 
Q 56.890625 45.015625 53.6875 40.46875 
Q 50.484375 35.9375 44.390625 34.1875 
z
M 19.671875 64.796875 
L 19.671875 38.921875 
L 32.078125 38.921875 
Q 39.203125 38.921875 42.84375 42.21875 
Q 46.484375 45.515625 46.484375 51.90625 
Q 46.484375 58.296875 42.84375 61.546875 
Q 39.203125 64.796875 32.078125 64.796875 
z
" id="DejaVuSans-52"/>
     </defs>
     <g transform="translate(172 240.920313)scale(0.1 -0.1)">
      <use xlink:href="#DejaVuSans-4c"/>
      <use x="55.712891" xlink:href="#DejaVuSans-69"/>
      <use x="83.496094" xlink:href="#DejaVuSans-6e"/>
      <use x="146.875" xlink:href="#DejaVuSans-65"/>
      <use x="208.398438" xlink:href="#DejaVuSans-61"/>
      <use x="269.677734" xlink:href="#DejaVuSans-72"/>
      <use x="310.791016" xlink:href="#DejaVuSans-20"/>
      <use x="342.578125" xlink:href="#DejaVuSans-52"/>
      <use x="411.998047" xlink:href="#DejaVuSans-65"/>
      <use x="473.521484" xlink:href="#DejaVuSans-67"/>
     </g>
    </g>
   </g>
  </g>
 </g>
 <defs>
  <clipPath id="p90988224f8">
   <rect height="217.44" width="837" x="135" y="34.56"/>
  </clipPath>
 </defs>
</svg>
