<?xml version="1.0" encoding="utf-8" standalone="no"?>
<!DOCTYPE svg PUBLIC "-//W3C//DTD SVG 1.1//EN"
  "http://www.w3.org/Graphics/SVG/1.1/DTD/svg11.dtd">
<!-- Created with matplotlib (http://matplotlib.org/) -->
<svg height="216pt" version="1.1" viewBox="0 0 1080 216" width="1080pt" xmlns="http://www.w3.org/2000/svg" xmlns:xlink="http://www.w3.org/1999/xlink">
 <defs>
  <style type="text/css">
*{stroke-linecap:butt;stroke-linejoin:round;}
  </style>
 </defs>
 <g id="figure_1">
  <g id="patch_1">
   <path d="M 0 216 
L 1080 216 
L 1080 0 
L 0 0 
z
" style="fill:#ffffff;"/>
  </g>
  <g id="axes_1">
   <g id="patch_2">
    <path d="M 135 189 
L 279.310345 189 
L 279.310345 25.92 
L 135 25.92 
z
" style="fill:#ffffff;"/>
   </g>
   <g id="patch_3">
    <path clip-path="url(#pcb5742fe5b)" d="M 147.868395 189 
L 150.239866 189 
L 150.239866 186.812475 
L 147.868395 186.812475 
z
" style="fill:#1f77b4;opacity:0.4;"/>
   </g>
   <g id="patch_4">
    <path clip-path="url(#pcb5742fe5b)" d="M 150.239866 189 
L 152.611337 189 
L 152.611337 189 
L 150.239866 189 
z
" style="fill:#1f77b4;opacity:0.4;"/>
   </g>
   <g id="patch_5">
    <path clip-path="url(#pcb5742fe5b)" d="M 152.611337 189 
L 154.982808 189 
L 154.982808 189 
L 152.611337 189 
z
" style="fill:#1f77b4;opacity:0.4;"/>
   </g>
   <g id="patch_6">
    <path clip-path="url(#pcb5742fe5b)" d="M 154.982808 189 
L 157.354279 189 
L 157.354279 189 
L 154.982808 189 
z
" style="fill:#1f77b4;opacity:0.4;"/>
   </g>
   <g id="patch_7">
    <path clip-path="url(#pcb5742fe5b)" d="M 157.354279 189 
L 159.72575 189 
L 159.72575 189 
L 157.354279 189 
z
" style="fill:#1f77b4;opacity:0.4;"/>
   </g>
   <g id="patch_8">
    <path clip-path="url(#pcb5742fe5b)" d="M 159.72575 189 
L 162.097221 189 
L 162.097221 189 
L 159.72575 189 
z
" style="fill:#1f77b4;opacity:0.4;"/>
   </g>
   <g id="patch_9">
    <path clip-path="url(#pcb5742fe5b)" d="M 162.097221 189 
L 164.468692 189 
L 164.468692 189 
L 162.097221 189 
z
" style="fill:#1f77b4;opacity:0.4;"/>
   </g>
   <g id="patch_10">
    <path clip-path="url(#pcb5742fe5b)" d="M 164.468692 189 
L 166.840164 189 
L 166.840164 189 
L 164.468692 189 
z
" style="fill:#1f77b4;opacity:0.4;"/>
   </g>
   <g id="patch_11">
    <path clip-path="url(#pcb5742fe5b)" d="M 166.840164 189 
L 169.211635 189 
L 169.211635 189 
L 166.840164 189 
z
" style="fill:#1f77b4;opacity:0.4;"/>
   </g>
   <g id="patch_12">
    <path clip-path="url(#pcb5742fe5b)" d="M 169.211635 189 
L 171.583106 189 
L 171.583106 189 
L 169.211635 189 
z
" style="fill:#1f77b4;opacity:0.4;"/>
   </g>
   <g id="patch_13">
    <path clip-path="url(#pcb5742fe5b)" d="M 171.583106 189 
L 173.954577 189 
L 173.954577 189 
L 171.583106 189 
z
" style="fill:#1f77b4;opacity:0.4;"/>
   </g>
   <g id="patch_14">
    <path clip-path="url(#pcb5742fe5b)" d="M 173.954577 189 
L 176.326048 189 
L 176.326048 189 
L 173.954577 189 
z
" style="fill:#1f77b4;opacity:0.4;"/>
   </g>
   <g id="patch_15">
    <path clip-path="url(#pcb5742fe5b)" d="M 176.326048 189 
L 178.697519 189 
L 178.697519 189 
L 176.326048 189 
z
" style="fill:#1f77b4;opacity:0.4;"/>
   </g>
   <g id="patch_16">
    <path clip-path="url(#pcb5742fe5b)" d="M 178.697519 189 
L 181.06899 189 
L 181.06899 189 
L 178.697519 189 
z
" style="fill:#1f77b4;opacity:0.4;"/>
   </g>
   <g id="patch_17">
    <path clip-path="url(#pcb5742fe5b)" d="M 181.06899 189 
L 183.440461 189 
L 183.440461 189 
L 181.06899 189 
z
" style="fill:#1f77b4;opacity:0.4;"/>
   </g>
   <g id="patch_18">
    <path clip-path="url(#pcb5742fe5b)" d="M 183.440461 189 
L 185.811932 189 
L 185.811932 189 
L 183.440461 189 
z
" style="fill:#1f77b4;opacity:0.4;"/>
   </g>
   <g id="patch_19">
    <path clip-path="url(#pcb5742fe5b)" d="M 185.811932 189 
L 188.183404 189 
L 188.183404 189 
L 185.811932 189 
z
" style="fill:#1f77b4;opacity:0.4;"/>
   </g>
   <g id="patch_20">
    <path clip-path="url(#pcb5742fe5b)" d="M 188.183404 189 
L 190.554875 189 
L 190.554875 189 
L 188.183404 189 
z
" style="fill:#1f77b4;opacity:0.4;"/>
   </g>
   <g id="patch_21">
    <path clip-path="url(#pcb5742fe5b)" d="M 190.554875 189 
L 192.926346 189 
L 192.926346 189 
L 190.554875 189 
z
" style="fill:#1f77b4;opacity:0.4;"/>
   </g>
   <g id="patch_22">
    <path clip-path="url(#pcb5742fe5b)" d="M 192.926346 189 
L 195.297817 189 
L 195.297817 189 
L 192.926346 189 
z
" style="fill:#1f77b4;opacity:0.4;"/>
   </g>
   <g id="patch_23">
    <path clip-path="url(#pcb5742fe5b)" d="M 195.297817 189 
L 197.669288 189 
L 197.669288 189 
L 195.297817 189 
z
" style="fill:#1f77b4;opacity:0.4;"/>
   </g>
   <g id="patch_24">
    <path clip-path="url(#pcb5742fe5b)" d="M 197.669288 189 
L 200.040759 189 
L 200.040759 189 
L 197.669288 189 
z
" style="fill:#1f77b4;opacity:0.4;"/>
   </g>
   <g id="patch_25">
    <path clip-path="url(#pcb5742fe5b)" d="M 200.040759 189 
L 202.41223 189 
L 202.41223 189 
L 200.040759 189 
z
" style="fill:#1f77b4;opacity:0.4;"/>
   </g>
   <g id="patch_26">
    <path clip-path="url(#pcb5742fe5b)" d="M 202.41223 189 
L 204.783701 189 
L 204.783701 189 
L 202.41223 189 
z
" style="fill:#1f77b4;opacity:0.4;"/>
   </g>
   <g id="patch_27">
    <path clip-path="url(#pcb5742fe5b)" d="M 204.783701 189 
L 207.155172 189 
L 207.155172 189 
L 204.783701 189 
z
" style="fill:#1f77b4;opacity:0.4;"/>
   </g>
   <g id="patch_28">
    <path clip-path="url(#pcb5742fe5b)" d="M 207.155172 189 
L 209.526644 189 
L 209.526644 189 
L 207.155172 189 
z
" style="fill:#1f77b4;opacity:0.4;"/>
   </g>
   <g id="patch_29">
    <path clip-path="url(#pcb5742fe5b)" d="M 209.526644 189 
L 211.898115 189 
L 211.898115 186.812475 
L 209.526644 186.812475 
z
" style="fill:#1f77b4;opacity:0.4;"/>
   </g>
   <g id="patch_30">
    <path clip-path="url(#pcb5742fe5b)" d="M 211.898115 189 
L 214.269586 189 
L 214.269586 189 
L 211.898115 189 
z
" style="fill:#1f77b4;opacity:0.4;"/>
   </g>
   <g id="patch_31">
    <path clip-path="url(#pcb5742fe5b)" d="M 214.269586 189 
L 216.641057 189 
L 216.641057 189 
L 214.269586 189 
z
" style="fill:#1f77b4;opacity:0.4;"/>
   </g>
   <g id="patch_32">
    <path clip-path="url(#pcb5742fe5b)" d="M 216.641057 189 
L 219.012528 189 
L 219.012528 186.812475 
L 216.641057 186.812475 
z
" style="fill:#1f77b4;opacity:0.4;"/>
   </g>
   <g id="patch_33">
    <path clip-path="url(#pcb5742fe5b)" d="M 219.012528 189 
L 221.383999 189 
L 221.383999 186.812475 
L 219.012528 186.812475 
z
" style="fill:#1f77b4;opacity:0.4;"/>
   </g>
   <g id="patch_34">
    <path clip-path="url(#pcb5742fe5b)" d="M 221.383999 189 
L 223.75547 189 
L 223.75547 189 
L 221.383999 189 
z
" style="fill:#1f77b4;opacity:0.4;"/>
   </g>
   <g id="patch_35">
    <path clip-path="url(#pcb5742fe5b)" d="M 223.75547 189 
L 226.126941 189 
L 226.126941 186.812475 
L 223.75547 186.812475 
z
" style="fill:#1f77b4;opacity:0.4;"/>
   </g>
   <g id="patch_36">
    <path clip-path="url(#pcb5742fe5b)" d="M 226.126941 189 
L 228.498412 189 
L 228.498412 180.249899 
L 226.126941 180.249899 
z
" style="fill:#1f77b4;opacity:0.4;"/>
   </g>
   <g id="patch_37">
    <path clip-path="url(#pcb5742fe5b)" d="M 228.498412 189 
L 230.869884 189 
L 230.869884 182.437425 
L 228.498412 182.437425 
z
" style="fill:#1f77b4;opacity:0.4;"/>
   </g>
   <g id="patch_38">
    <path clip-path="url(#pcb5742fe5b)" d="M 230.869884 189 
L 233.241355 189 
L 233.241355 175.874849 
L 230.869884 175.874849 
z
" style="fill:#1f77b4;opacity:0.4;"/>
   </g>
   <g id="patch_39">
    <path clip-path="url(#pcb5742fe5b)" d="M 233.241355 189 
L 235.612826 189 
L 235.612826 173.687324 
L 233.241355 173.687324 
z
" style="fill:#1f77b4;opacity:0.4;"/>
   </g>
   <g id="patch_40">
    <path clip-path="url(#pcb5742fe5b)" d="M 235.612826 189 
L 237.984297 189 
L 237.984297 164.937223 
L 235.612826 164.937223 
z
" style="fill:#1f77b4;opacity:0.4;"/>
   </g>
   <g id="patch_41">
    <path clip-path="url(#pcb5742fe5b)" d="M 237.984297 189 
L 240.355768 189 
L 240.355768 151.812072 
L 237.984297 151.812072 
z
" style="fill:#1f77b4;opacity:0.4;"/>
   </g>
   <g id="patch_42">
    <path clip-path="url(#pcb5742fe5b)" d="M 240.355768 189 
L 242.727239 189 
L 242.727239 129.936821 
L 240.355768 129.936821 
z
" style="fill:#1f77b4;opacity:0.4;"/>
   </g>
   <g id="patch_43">
    <path clip-path="url(#pcb5742fe5b)" d="M 242.727239 189 
L 245.09871 189 
L 245.09871 129.936821 
L 242.727239 129.936821 
z
" style="fill:#1f77b4;opacity:0.4;"/>
   </g>
   <g id="patch_44">
    <path clip-path="url(#pcb5742fe5b)" d="M 245.09871 189 
L 247.470181 189 
L 247.470181 108.061569 
L 245.09871 108.061569 
z
" style="fill:#1f77b4;opacity:0.4;"/>
   </g>
   <g id="patch_45">
    <path clip-path="url(#pcb5742fe5b)" d="M 247.470181 189 
L 249.841652 189 
L 249.841652 53.373441 
L 247.470181 53.373441 
z
" style="fill:#1f77b4;opacity:0.4;"/>
   </g>
   <g id="patch_46">
    <path clip-path="url(#pcb5742fe5b)" d="M 249.841652 189 
L 252.213124 189 
L 252.213124 44.62334 
L 249.841652 44.62334 
z
" style="fill:#1f77b4;opacity:0.4;"/>
   </g>
   <g id="patch_47">
    <path clip-path="url(#pcb5742fe5b)" d="M 252.213124 189 
L 254.584595 189 
L 254.584595 35.873239 
L 252.213124 35.873239 
z
" style="fill:#1f77b4;opacity:0.4;"/>
   </g>
   <g id="patch_48">
    <path clip-path="url(#pcb5742fe5b)" d="M 254.584595 189 
L 256.956066 189 
L 256.956066 33.685714 
L 254.584595 33.685714 
z
" style="fill:#1f77b4;opacity:0.4;"/>
   </g>
   <g id="patch_49">
    <path clip-path="url(#pcb5742fe5b)" d="M 256.956066 189 
L 259.327537 189 
L 259.327537 90.561368 
L 256.956066 90.561368 
z
" style="fill:#1f77b4;opacity:0.4;"/>
   </g>
   <g id="patch_50">
    <path clip-path="url(#pcb5742fe5b)" d="M 259.327537 189 
L 261.699008 189 
L 261.699008 134.311871 
L 259.327537 134.311871 
z
" style="fill:#1f77b4;opacity:0.4;"/>
   </g>
   <g id="patch_51">
    <path clip-path="url(#pcb5742fe5b)" d="M 261.699008 189 
L 264.070479 189 
L 264.070479 158.374648 
L 261.699008 158.374648 
z
" style="fill:#1f77b4;opacity:0.4;"/>
   </g>
   <g id="patch_52">
    <path clip-path="url(#pcb5742fe5b)" d="M 264.070479 189 
L 266.44195 189 
L 266.44195 182.437425 
L 264.070479 182.437425 
z
" style="fill:#1f77b4;opacity:0.4;"/>
   </g>
   <g id="matplotlib.axis_1">
    <g id="xtick_1">
     <g id="line2d_1">
      <defs>
       <path d="M 0 0 
L 0 3.5 
" id="mc5590be651" style="stroke:#000000;stroke-width:0.8;"/>
      </defs>
      <g>
       <use style="stroke:#000000;stroke-width:0.8;" x="147.868395" xlink:href="#mc5590be651" y="189"/>
      </g>
     </g>
     <g id="text_1">
      <!-- 0 -->
      <defs>
       <path d="M 31.78125 66.40625 
Q 24.171875 66.40625 20.328125 58.90625 
Q 16.5 51.421875 16.5 36.375 
Q 16.5 21.390625 20.328125 13.890625 
Q 24.171875 6.390625 31.78125 6.390625 
Q 39.453125 6.390625 43.28125 13.890625 
Q 47.125 21.390625 47.125 36.375 
Q 47.125 51.421875 43.28125 58.90625 
Q 39.453125 66.40625 31.78125 66.40625 
z
M 31.78125 74.21875 
Q 44.046875 74.21875 50.515625 64.515625 
Q 56.984375 54.828125 56.984375 36.375 
Q 56.984375 17.96875 50.515625 8.265625 
Q 44.046875 -1.421875 31.78125 -1.421875 
Q 19.53125 -1.421875 13.0625 8.265625 
Q 6.59375 17.96875 6.59375 36.375 
Q 6.59375 54.828125 13.0625 64.515625 
Q 19.53125 74.21875 31.78125 74.21875 
z
" id="DejaVuSans-30"/>
      </defs>
      <g transform="translate(144.687145 203.598437)scale(0.1 -0.1)">
       <use xlink:href="#DejaVuSans-30"/>
      </g>
     </g>
    </g>
    <g id="xtick_2">
     <g id="line2d_2">
      <g>
       <use style="stroke:#000000;stroke-width:0.8;" x="208.292507" xlink:href="#mc5590be651" y="189"/>
      </g>
     </g>
     <g id="text_2">
      <!-- 1 -->
      <defs>
       <path d="M 12.40625 8.296875 
L 28.515625 8.296875 
L 28.515625 63.921875 
L 10.984375 60.40625 
L 10.984375 69.390625 
L 28.421875 72.90625 
L 38.28125 72.90625 
L 38.28125 8.296875 
L 54.390625 8.296875 
L 54.390625 0 
L 12.40625 0 
z
" id="DejaVuSans-31"/>
      </defs>
      <g transform="translate(205.111257 203.598437)scale(0.1 -0.1)">
       <use xlink:href="#DejaVuSans-31"/>
      </g>
     </g>
    </g>
    <g id="xtick_3">
     <g id="line2d_3">
      <g>
       <use style="stroke:#000000;stroke-width:0.8;" x="268.71662" xlink:href="#mc5590be651" y="189"/>
      </g>
     </g>
     <g id="text_3">
      <!-- 2 -->
      <defs>
       <path d="M 19.1875 8.296875 
L 53.609375 8.296875 
L 53.609375 0 
L 7.328125 0 
L 7.328125 8.296875 
Q 12.9375 14.109375 22.625 23.890625 
Q 32.328125 33.6875 34.8125 36.53125 
Q 39.546875 41.84375 41.421875 45.53125 
Q 43.3125 49.21875 43.3125 52.78125 
Q 43.3125 58.59375 39.234375 62.25 
Q 35.15625 65.921875 28.609375 65.921875 
Q 23.96875 65.921875 18.8125 64.3125 
Q 13.671875 62.703125 7.8125 59.421875 
L 7.8125 69.390625 
Q 13.765625 71.78125 18.9375 73 
Q 24.125 74.21875 28.421875 74.21875 
Q 39.75 74.21875 46.484375 68.546875 
Q 53.21875 62.890625 53.21875 53.421875 
Q 53.21875 48.921875 51.53125 44.890625 
Q 49.859375 40.875 45.40625 35.40625 
Q 44.1875 33.984375 37.640625 27.21875 
Q 31.109375 20.453125 19.1875 8.296875 
z
" id="DejaVuSans-32"/>
      </defs>
      <g transform="translate(265.53537 203.598437)scale(0.1 -0.1)">
       <use xlink:href="#DejaVuSans-32"/>
      </g>
     </g>
    </g>
    <g id="text_4">
     <!-- X -->
     <defs>
      <path d="M 6.296875 72.90625 
L 16.890625 72.90625 
L 35.015625 45.796875 
L 53.21875 72.90625 
L 63.8125 72.90625 
L 40.375 37.890625 
L 65.375 0 
L 54.78125 0 
L 34.28125 31 
L 13.625 0 
L 2.984375 0 
L 29 38.921875 
z
" id="DejaVuSans-58"/>
     </defs>
     <g transform="translate(203.730172 217.276563)scale(0.1 -0.1)">
      <use xlink:href="#DejaVuSans-58"/>
     </g>
    </g>
   </g>
   <g id="matplotlib.axis_2">
    <g id="ytick_1">
     <g id="line2d_4">
      <defs>
       <path d="M 0 0 
L -3.5 0 
" id="mc6f827247c" style="stroke:#000000;stroke-width:0.8;"/>
      </defs>
      <g>
       <use style="stroke:#000000;stroke-width:0.8;" x="135" xlink:href="#mc6f827247c" y="189"/>
      </g>
     </g>
     <g id="text_5">
      <!-- 0.0 -->
      <defs>
       <path d="M 10.6875 12.40625 
L 21 12.40625 
L 21 0 
L 10.6875 0 
z
" id="DejaVuSans-2e"/>
      </defs>
      <g transform="translate(112.096875 192.799219)scale(0.1 -0.1)">
       <use xlink:href="#DejaVuSans-30"/>
       <use x="63.623047" xlink:href="#DejaVuSans-2e"/>
       <use x="95.410156" xlink:href="#DejaVuSans-30"/>
      </g>
     </g>
    </g>
    <g id="ytick_2">
     <g id="line2d_5">
      <g>
       <use style="stroke:#000000;stroke-width:0.8;" x="135" xlink:href="#mc6f827247c" y="167.536496"/>
      </g>
     </g>
     <g id="text_6">
      <!-- 0.5 -->
      <defs>
       <path d="M 10.796875 72.90625 
L 49.515625 72.90625 
L 49.515625 64.59375 
L 19.828125 64.59375 
L 19.828125 46.734375 
Q 21.96875 47.46875 24.109375 47.828125 
Q 26.265625 48.1875 28.421875 48.1875 
Q 40.625 48.1875 47.75 41.5 
Q 54.890625 34.8125 54.890625 23.390625 
Q 54.890625 11.625 47.5625 5.09375 
Q 40.234375 -1.421875 26.90625 -1.421875 
Q 22.3125 -1.421875 17.546875 -0.640625 
Q 12.796875 0.140625 7.71875 1.703125 
L 7.71875 11.625 
Q 12.109375 9.234375 16.796875 8.0625 
Q 21.484375 6.890625 26.703125 6.890625 
Q 35.15625 6.890625 40.078125 11.328125 
Q 45.015625 15.765625 45.015625 23.390625 
Q 45.015625 31 40.078125 35.4375 
Q 35.15625 39.890625 26.703125 39.890625 
Q 22.75 39.890625 18.8125 39.015625 
Q 14.890625 38.140625 10.796875 36.28125 
z
" id="DejaVuSans-35"/>
      </defs>
      <g transform="translate(112.096875 171.335715)scale(0.1 -0.1)">
       <use xlink:href="#DejaVuSans-30"/>
       <use x="63.623047" xlink:href="#DejaVuSans-2e"/>
       <use x="95.410156" xlink:href="#DejaVuSans-35"/>
      </g>
     </g>
    </g>
    <g id="ytick_3">
     <g id="line2d_6">
      <g>
       <use style="stroke:#000000;stroke-width:0.8;" x="135" xlink:href="#mc6f827247c" y="146.072992"/>
      </g>
     </g>
     <g id="text_7">
      <!-- 1.0 -->
      <g transform="translate(112.096875 149.872211)scale(0.1 -0.1)">
       <use xlink:href="#DejaVuSans-31"/>
       <use x="63.623047" xlink:href="#DejaVuSans-2e"/>
       <use x="95.410156" xlink:href="#DejaVuSans-30"/>
      </g>
     </g>
    </g>
    <g id="ytick_4">
     <g id="line2d_7">
      <g>
       <use style="stroke:#000000;stroke-width:0.8;" x="135" xlink:href="#mc6f827247c" y="124.609488"/>
      </g>
     </g>
     <g id="text_8">
      <!-- 1.5 -->
      <g transform="translate(112.096875 128.408707)scale(0.1 -0.1)">
       <use xlink:href="#DejaVuSans-31"/>
       <use x="63.623047" xlink:href="#DejaVuSans-2e"/>
       <use x="95.410156" xlink:href="#DejaVuSans-35"/>
      </g>
     </g>
    </g>
    <g id="ytick_5">
     <g id="line2d_8">
      <g>
       <use style="stroke:#000000;stroke-width:0.8;" x="135" xlink:href="#mc6f827247c" y="103.145985"/>
      </g>
     </g>
     <g id="text_9">
      <!-- 2.0 -->
      <g transform="translate(112.096875 106.945203)scale(0.1 -0.1)">
       <use xlink:href="#DejaVuSans-32"/>
       <use x="63.623047" xlink:href="#DejaVuSans-2e"/>
       <use x="95.410156" xlink:href="#DejaVuSans-30"/>
      </g>
     </g>
    </g>
    <g id="ytick_6">
     <g id="line2d_9">
      <g>
       <use style="stroke:#000000;stroke-width:0.8;" x="135" xlink:href="#mc6f827247c" y="81.682481"/>
      </g>
     </g>
     <g id="text_10">
      <!-- 2.5 -->
      <g transform="translate(112.096875 85.481699)scale(0.1 -0.1)">
       <use xlink:href="#DejaVuSans-32"/>
       <use x="63.623047" xlink:href="#DejaVuSans-2e"/>
       <use x="95.410156" xlink:href="#DejaVuSans-35"/>
      </g>
     </g>
    </g>
    <g id="ytick_7">
     <g id="line2d_10">
      <g>
       <use style="stroke:#000000;stroke-width:0.8;" x="135" xlink:href="#mc6f827247c" y="60.218977"/>
      </g>
     </g>
     <g id="text_11">
      <!-- 3.0 -->
      <defs>
       <path d="M 40.578125 39.3125 
Q 47.65625 37.796875 51.625 33 
Q 55.609375 28.21875 55.609375 21.1875 
Q 55.609375 10.40625 48.1875 4.484375 
Q 40.765625 -1.421875 27.09375 -1.421875 
Q 22.515625 -1.421875 17.65625 -0.515625 
Q 12.796875 0.390625 7.625 2.203125 
L 7.625 11.71875 
Q 11.71875 9.328125 16.59375 8.109375 
Q 21.484375 6.890625 26.8125 6.890625 
Q 36.078125 6.890625 40.9375 10.546875 
Q 45.796875 14.203125 45.796875 21.1875 
Q 45.796875 27.640625 41.28125 31.265625 
Q 36.765625 34.90625 28.71875 34.90625 
L 20.21875 34.90625 
L 20.21875 43.015625 
L 29.109375 43.015625 
Q 36.375 43.015625 40.234375 45.921875 
Q 44.09375 48.828125 44.09375 54.296875 
Q 44.09375 59.90625 40.109375 62.90625 
Q 36.140625 65.921875 28.71875 65.921875 
Q 24.65625 65.921875 20.015625 65.03125 
Q 15.375 64.15625 9.8125 62.3125 
L 9.8125 71.09375 
Q 15.4375 72.65625 20.34375 73.4375 
Q 25.25 74.21875 29.59375 74.21875 
Q 40.828125 74.21875 47.359375 69.109375 
Q 53.90625 64.015625 53.90625 55.328125 
Q 53.90625 49.265625 50.4375 45.09375 
Q 46.96875 40.921875 40.578125 39.3125 
z
" id="DejaVuSans-33"/>
      </defs>
      <g transform="translate(112.096875 64.018196)scale(0.1 -0.1)">
       <use xlink:href="#DejaVuSans-33"/>
       <use x="63.623047" xlink:href="#DejaVuSans-2e"/>
       <use x="95.410156" xlink:href="#DejaVuSans-30"/>
      </g>
     </g>
    </g>
    <g id="ytick_8">
     <g id="line2d_11">
      <g>
       <use style="stroke:#000000;stroke-width:0.8;" x="135" xlink:href="#mc6f827247c" y="38.755473"/>
      </g>
     </g>
     <g id="text_12">
      <!-- 3.5 -->
      <g transform="translate(112.096875 42.554692)scale(0.1 -0.1)">
       <use xlink:href="#DejaVuSans-33"/>
       <use x="63.623047" xlink:href="#DejaVuSans-2e"/>
       <use x="95.410156" xlink:href="#DejaVuSans-35"/>
      </g>
     </g>
    </g>
   </g>
   <g id="line2d_12">
    <path clip-path="url(#pcb5742fe5b)" d="M 141.559561 188.985542 
L 143.625565 188.872219 
L 145.691568 188.422796 
L 146.72457 188.14857 
L 147.757572 188.015423 
L 148.790573 188.106754 
L 151.889579 188.842071 
L 153.955582 188.984705 
L 164.2856 189 
L 206.638672 188.896222 
L 208.704675 188.495304 
L 210.770679 188.039583 
L 211.80368 188.051671 
L 213.869684 188.350649 
L 214.902686 188.322274 
L 216.968689 187.776671 
L 218.001691 187.508968 
L 219.034693 187.393869 
L 222.133698 187.533389 
L 223.1667 187.18584 
L 224.199701 186.409282 
L 226.265705 184.019838 
L 228.331708 181.835695 
L 229.36471 180.763293 
L 230.397712 179.283956 
L 234.529719 171.452435 
L 235.562721 168.706999 
L 236.595722 164.406668 
L 237.628724 158.568454 
L 239.694728 145.595716 
L 240.727729 140.221744 
L 242.793733 131.355056 
L 243.826735 125.522431 
L 244.859736 117.051533 
L 245.892738 105.393866 
L 248.991743 61.60634 
L 250.024745 50.640149 
L 251.057747 43.20893 
L 252.090749 38.837574 
L 253.12375 37.212596 
L 254.156752 38.861967 
L 255.189754 44.976733 
L 256.222756 56.441824 
L 257.255757 72.707268 
L 259.321761 110.183711 
L 260.354763 126.776341 
L 261.387764 141.021739 
L 262.420766 153.37762 
L 263.453768 164.029624 
L 264.48677 172.653063 
L 265.519771 178.955095 
L 266.552773 183.138678 
L 267.585775 185.767259 
L 268.618777 187.368985 
L 269.651778 188.281398 
L 270.68478 188.734362 
L 271.717782 188.919476 
L 272.750784 188.97838 
L 272.750784 188.97838 
" style="fill:none;stroke:#1f77b4;stroke-linecap:square;stroke-width:1.5;"/>
   </g>
   <g id="patch_53">
    <path d="M 135 189 
L 135 25.92 
" style="fill:none;stroke:#000000;stroke-linecap:square;stroke-linejoin:miter;stroke-width:0.8;"/>
   </g>
   <g id="patch_54">
    <path d="M 279.310345 189 
L 279.310345 25.92 
" style="fill:none;stroke:#000000;stroke-linecap:square;stroke-linejoin:miter;stroke-width:0.8;"/>
   </g>
   <g id="patch_55">
    <path d="M 135 189 
L 279.310345 189 
" style="fill:none;stroke:#000000;stroke-linecap:square;stroke-linejoin:miter;stroke-width:0.8;"/>
   </g>
   <g id="patch_56">
    <path d="M 135 25.92 
L 279.310345 25.92 
" style="fill:none;stroke:#000000;stroke-linecap:square;stroke-linejoin:miter;stroke-width:0.8;"/>
   </g>
   <g id="text_13">
    <!-- X ** 0.2  -->
    <defs>
     <path id="DejaVuSans-20"/>
     <path d="M 47.015625 60.890625 
L 29.5 51.421875 
L 47.015625 41.890625 
L 44.1875 37.109375 
L 27.78125 47.015625 
L 27.78125 28.609375 
L 22.21875 28.609375 
L 22.21875 47.015625 
L 5.8125 37.109375 
L 2.984375 41.890625 
L 20.515625 51.421875 
L 2.984375 60.890625 
L 5.8125 65.71875 
L 22.21875 55.8125 
L 22.21875 74.21875 
L 27.78125 74.21875 
L 27.78125 55.8125 
L 44.1875 65.71875 
z
" id="DejaVuSans-2a"/>
    </defs>
    <g transform="translate(181.782672 6.482625)scale(0.12 -0.12)">
     <use xlink:href="#DejaVuSans-58"/>
     <use x="68.505859" xlink:href="#DejaVuSans-20"/>
     <use x="100.292969" xlink:href="#DejaVuSans-2a"/>
     <use x="150.292969" xlink:href="#DejaVuSans-2a"/>
     <use x="200.292969" xlink:href="#DejaVuSans-20"/>
     <use x="232.080078" xlink:href="#DejaVuSans-30"/>
     <use x="295.703125" xlink:href="#DejaVuSans-2e"/>
     <use x="327.490234" xlink:href="#DejaVuSans-32"/>
     <use x="391.113281" xlink:href="#DejaVuSans-20"/>
    </g>
    <!-- skewness = -3.55 -->
    <defs>
     <path d="M 44.28125 53.078125 
L 44.28125 44.578125 
Q 40.484375 46.53125 36.375 47.5 
Q 32.28125 48.484375 27.875 48.484375 
Q 21.1875 48.484375 17.84375 46.4375 
Q 14.5 44.390625 14.5 40.28125 
Q 14.5 37.15625 16.890625 35.375 
Q 19.28125 33.59375 26.515625 31.984375 
L 29.59375 31.296875 
Q 39.15625 29.25 43.1875 25.515625 
Q 47.21875 21.78125 47.21875 15.09375 
Q 47.21875 7.46875 41.1875 3.015625 
Q 35.15625 -1.421875 24.609375 -1.421875 
Q 20.21875 -1.421875 15.453125 -0.5625 
Q 10.6875 0.296875 5.421875 2 
L 5.421875 11.28125 
Q 10.40625 8.6875 15.234375 7.390625 
Q 20.0625 6.109375 24.8125 6.109375 
Q 31.15625 6.109375 34.5625 8.28125 
Q 37.984375 10.453125 37.984375 14.40625 
Q 37.984375 18.0625 35.515625 20.015625 
Q 33.0625 21.96875 24.703125 23.78125 
L 21.578125 24.515625 
Q 13.234375 26.265625 9.515625 29.90625 
Q 5.8125 33.546875 5.8125 39.890625 
Q 5.8125 47.609375 11.28125 51.796875 
Q 16.75 56 26.8125 56 
Q 31.78125 56 36.171875 55.265625 
Q 40.578125 54.546875 44.28125 53.078125 
z
" id="DejaVuSans-73"/>
     <path d="M 9.078125 75.984375 
L 18.109375 75.984375 
L 18.109375 31.109375 
L 44.921875 54.6875 
L 56.390625 54.6875 
L 27.390625 29.109375 
L 57.625 0 
L 45.90625 0 
L 18.109375 26.703125 
L 18.109375 0 
L 9.078125 0 
z
" id="DejaVuSans-6b"/>
     <path d="M 56.203125 29.59375 
L 56.203125 25.203125 
L 14.890625 25.203125 
Q 15.484375 15.921875 20.484375 11.0625 
Q 25.484375 6.203125 34.421875 6.203125 
Q 39.59375 6.203125 44.453125 7.46875 
Q 49.3125 8.734375 54.109375 11.28125 
L 54.109375 2.78125 
Q 49.265625 0.734375 44.1875 -0.34375 
Q 39.109375 -1.421875 33.890625 -1.421875 
Q 20.796875 -1.421875 13.15625 6.1875 
Q 5.515625 13.8125 5.515625 26.8125 
Q 5.515625 40.234375 12.765625 48.109375 
Q 20.015625 56 32.328125 56 
Q 43.359375 56 49.78125 48.890625 
Q 56.203125 41.796875 56.203125 29.59375 
z
M 47.21875 32.234375 
Q 47.125 39.59375 43.09375 43.984375 
Q 39.0625 48.390625 32.421875 48.390625 
Q 24.90625 48.390625 20.390625 44.140625 
Q 15.875 39.890625 15.1875 32.171875 
z
" id="DejaVuSans-65"/>
     <path d="M 4.203125 54.6875 
L 13.1875 54.6875 
L 24.421875 12.015625 
L 35.59375 54.6875 
L 46.1875 54.6875 
L 57.421875 12.015625 
L 68.609375 54.6875 
L 77.59375 54.6875 
L 63.28125 0 
L 52.6875 0 
L 40.921875 44.828125 
L 29.109375 0 
L 18.5 0 
z
" id="DejaVuSans-77"/>
     <path d="M 54.890625 33.015625 
L 54.890625 0 
L 45.90625 0 
L 45.90625 32.71875 
Q 45.90625 40.484375 42.875 44.328125 
Q 39.84375 48.1875 33.796875 48.1875 
Q 26.515625 48.1875 22.3125 43.546875 
Q 18.109375 38.921875 18.109375 30.90625 
L 18.109375 0 
L 9.078125 0 
L 9.078125 54.6875 
L 18.109375 54.6875 
L 18.109375 46.1875 
Q 21.34375 51.125 25.703125 53.5625 
Q 30.078125 56 35.796875 56 
Q 45.21875 56 50.046875 50.171875 
Q 54.890625 44.34375 54.890625 33.015625 
z
" id="DejaVuSans-6e"/>
     <path d="M 10.59375 45.40625 
L 73.1875 45.40625 
L 73.1875 37.203125 
L 10.59375 37.203125 
z
M 10.59375 25.484375 
L 73.1875 25.484375 
L 73.1875 17.1875 
L 10.59375 17.1875 
z
" id="DejaVuSans-3d"/>
     <path d="M 4.890625 31.390625 
L 31.203125 31.390625 
L 31.203125 23.390625 
L 4.890625 23.390625 
z
" id="DejaVuSans-2d"/>
    </defs>
    <g transform="translate(153.847985 19.92)scale(0.12 -0.12)">
     <use xlink:href="#DejaVuSans-73"/>
     <use x="52.099609" xlink:href="#DejaVuSans-6b"/>
     <use x="109.962891" xlink:href="#DejaVuSans-65"/>
     <use x="171.486328" xlink:href="#DejaVuSans-77"/>
     <use x="253.273438" xlink:href="#DejaVuSans-6e"/>
     <use x="316.652344" xlink:href="#DejaVuSans-65"/>
     <use x="378.175781" xlink:href="#DejaVuSans-73"/>
     <use x="430.275391" xlink:href="#DejaVuSans-73"/>
     <use x="482.375" xlink:href="#DejaVuSans-20"/>
     <use x="514.162109" xlink:href="#DejaVuSans-3d"/>
     <use x="597.951172" xlink:href="#DejaVuSans-20"/>
     <use x="629.738281" xlink:href="#DejaVuSans-2d"/>
     <use x="665.822266" xlink:href="#DejaVuSans-33"/>
     <use x="729.445312" xlink:href="#DejaVuSans-2e"/>
     <use x="761.232422" xlink:href="#DejaVuSans-35"/>
     <use x="824.855469" xlink:href="#DejaVuSans-35"/>
    </g>
   </g>
  </g>
  <g id="axes_2">
   <g id="patch_57">
    <path d="M 308.172414 189 
L 452.482759 189 
L 452.482759 25.92 
L 308.172414 25.92 
z
" style="fill:#ffffff;"/>
   </g>
   <g id="patch_58">
    <path clip-path="url(#pd898c952b9)" d="M 326.376123 189 
L 330.69224 189 
L 330.69224 186.842857 
L 326.376123 186.842857 
z
" style="fill:#1f77b4;opacity:0.4;"/>
   </g>
   <g id="patch_59">
    <path clip-path="url(#pd898c952b9)" d="M 330.69224 189 
L 335.008357 189 
L 335.008357 189 
L 330.69224 189 
z
" style="fill:#1f77b4;opacity:0.4;"/>
   </g>
   <g id="patch_60">
    <path clip-path="url(#pd898c952b9)" d="M 335.008357 189 
L 339.324474 189 
L 339.324474 189 
L 335.008357 189 
z
" style="fill:#1f77b4;opacity:0.4;"/>
   </g>
   <g id="patch_61">
    <path clip-path="url(#pd898c952b9)" d="M 339.324474 189 
L 343.640591 189 
L 343.640591 189 
L 339.324474 189 
z
" style="fill:#1f77b4;opacity:0.4;"/>
   </g>
   <g id="patch_62">
    <path clip-path="url(#pd898c952b9)" d="M 343.640591 189 
L 347.956708 189 
L 347.956708 189 
L 343.640591 189 
z
" style="fill:#1f77b4;opacity:0.4;"/>
   </g>
   <g id="patch_63">
    <path clip-path="url(#pd898c952b9)" d="M 347.956708 189 
L 352.272825 189 
L 352.272825 186.842857 
L 347.956708 186.842857 
z
" style="fill:#1f77b4;opacity:0.4;"/>
   </g>
   <g id="patch_64">
    <path clip-path="url(#pd898c952b9)" d="M 352.272825 189 
L 356.588942 189 
L 356.588942 186.842857 
L 352.272825 186.842857 
z
" style="fill:#1f77b4;opacity:0.4;"/>
   </g>
   <g id="patch_65">
    <path clip-path="url(#pd898c952b9)" d="M 356.588942 189 
L 360.905059 189 
L 360.905059 186.842857 
L 356.588942 186.842857 
z
" style="fill:#1f77b4;opacity:0.4;"/>
   </g>
   <g id="patch_66">
    <path clip-path="url(#pd898c952b9)" d="M 360.905059 189 
L 365.221176 189 
L 365.221176 184.685714 
L 360.905059 184.685714 
z
" style="fill:#1f77b4;opacity:0.4;"/>
   </g>
   <g id="patch_67">
    <path clip-path="url(#pd898c952b9)" d="M 365.221176 189 
L 369.537294 189 
L 369.537294 178.214286 
L 365.221176 178.214286 
z
" style="fill:#1f77b4;opacity:0.4;"/>
   </g>
   <g id="patch_68">
    <path clip-path="url(#pd898c952b9)" d="M 369.537294 189 
L 373.853411 189 
L 373.853411 173.9 
L 369.537294 173.9 
z
" style="fill:#1f77b4;opacity:0.4;"/>
   </g>
   <g id="patch_69">
    <path clip-path="url(#pd898c952b9)" d="M 373.853411 189 
L 378.169528 189 
L 378.169528 165.271429 
L 373.853411 165.271429 
z
" style="fill:#1f77b4;opacity:0.4;"/>
   </g>
   <g id="patch_70">
    <path clip-path="url(#pd898c952b9)" d="M 378.169528 189 
L 382.485645 189 
L 382.485645 160.957143 
L 378.169528 160.957143 
z
" style="fill:#1f77b4;opacity:0.4;"/>
   </g>
   <g id="patch_71">
    <path clip-path="url(#pd898c952b9)" d="M 382.485645 189 
L 386.801762 189 
L 386.801762 128.6 
L 382.485645 128.6 
z
" style="fill:#1f77b4;opacity:0.4;"/>
   </g>
   <g id="patch_72">
    <path clip-path="url(#pd898c952b9)" d="M 386.801762 189 
L 391.117879 189 
L 391.117879 126.442857 
L 386.801762 126.442857 
z
" style="fill:#1f77b4;opacity:0.4;"/>
   </g>
   <g id="patch_73">
    <path clip-path="url(#pd898c952b9)" d="M 391.117879 189 
L 395.433996 189 
L 395.433996 104.871429 
L 391.117879 104.871429 
z
" style="fill:#1f77b4;opacity:0.4;"/>
   </g>
   <g id="patch_74">
    <path clip-path="url(#pd898c952b9)" d="M 395.433996 189 
L 399.750113 189 
L 399.750113 57.414286 
L 395.433996 57.414286 
z
" style="fill:#1f77b4;opacity:0.4;"/>
   </g>
   <g id="patch_75">
    <path clip-path="url(#pd898c952b9)" d="M 399.750113 189 
L 404.06623 189 
L 404.06623 59.571429 
L 399.750113 59.571429 
z
" style="fill:#1f77b4;opacity:0.4;"/>
   </g>
   <g id="patch_76">
    <path clip-path="url(#pd898c952b9)" d="M 404.06623 189 
L 408.382347 189 
L 408.382347 33.685714 
L 404.06623 33.685714 
z
" style="fill:#1f77b4;opacity:0.4;"/>
   </g>
   <g id="patch_77">
    <path clip-path="url(#pd898c952b9)" d="M 408.382347 189 
L 412.698464 189 
L 412.698464 44.471429 
L 408.382347 44.471429 
z
" style="fill:#1f77b4;opacity:0.4;"/>
   </g>
   <g id="patch_78">
    <path clip-path="url(#pd898c952b9)" d="M 412.698464 189 
L 417.014581 189 
L 417.014581 83.3 
L 412.698464 83.3 
z
" style="fill:#1f77b4;opacity:0.4;"/>
   </g>
   <g id="patch_79">
    <path clip-path="url(#pd898c952b9)" d="M 417.014581 189 
L 421.330698 189 
L 421.330698 132.914286 
L 417.014581 132.914286 
z
" style="fill:#1f77b4;opacity:0.4;"/>
   </g>
   <g id="patch_80">
    <path clip-path="url(#pd898c952b9)" d="M 421.330698 189 
L 425.646815 189 
L 425.646815 152.328571 
L 421.330698 152.328571 
z
" style="fill:#1f77b4;opacity:0.4;"/>
   </g>
   <g id="patch_81">
    <path clip-path="url(#pd898c952b9)" d="M 425.646815 189 
L 429.962933 189 
L 429.962933 173.9 
L 425.646815 173.9 
z
" style="fill:#1f77b4;opacity:0.4;"/>
   </g>
   <g id="patch_82">
    <path clip-path="url(#pd898c952b9)" d="M 429.962933 189 
L 434.27905 189 
L 434.27905 182.528571 
L 429.962933 182.528571 
z
" style="fill:#1f77b4;opacity:0.4;"/>
   </g>
   <g id="matplotlib.axis_3">
    <g id="xtick_4">
     <g id="line2d_13">
      <g>
       <use style="stroke:#000000;stroke-width:0.8;" x="326.376123" xlink:href="#mc5590be651" y="189"/>
      </g>
     </g>
     <g id="text_14">
      <!-- 0 -->
      <g transform="translate(323.194873 203.598437)scale(0.1 -0.1)">
       <use xlink:href="#DejaVuSans-30"/>
      </g>
     </g>
    </g>
    <g id="xtick_5">
     <g id="line2d_14">
      <g>
       <use style="stroke:#000000;stroke-width:0.8;" x="366.381587" xlink:href="#mc5590be651" y="189"/>
      </g>
     </g>
     <g id="text_15">
      <!-- 2 -->
      <g transform="translate(363.200337 203.598437)scale(0.1 -0.1)">
       <use xlink:href="#DejaVuSans-32"/>
      </g>
     </g>
    </g>
    <g id="xtick_6">
     <g id="line2d_15">
      <g>
       <use style="stroke:#000000;stroke-width:0.8;" x="406.387052" xlink:href="#mc5590be651" y="189"/>
      </g>
     </g>
     <g id="text_16">
      <!-- 4 -->
      <defs>
       <path d="M 37.796875 64.3125 
L 12.890625 25.390625 
L 37.796875 25.390625 
z
M 35.203125 72.90625 
L 47.609375 72.90625 
L 47.609375 25.390625 
L 58.015625 25.390625 
L 58.015625 17.1875 
L 47.609375 17.1875 
L 47.609375 0 
L 37.796875 0 
L 37.796875 17.1875 
L 4.890625 17.1875 
L 4.890625 26.703125 
z
" id="DejaVuSans-34"/>
      </defs>
      <g transform="translate(403.205802 203.598437)scale(0.1 -0.1)">
       <use xlink:href="#DejaVuSans-34"/>
      </g>
     </g>
    </g>
    <g id="xtick_7">
     <g id="line2d_16">
      <g>
       <use style="stroke:#000000;stroke-width:0.8;" x="446.392516" xlink:href="#mc5590be651" y="189"/>
      </g>
     </g>
     <g id="text_17">
      <!-- 6 -->
      <defs>
       <path d="M 33.015625 40.375 
Q 26.375 40.375 22.484375 35.828125 
Q 18.609375 31.296875 18.609375 23.390625 
Q 18.609375 15.53125 22.484375 10.953125 
Q 26.375 6.390625 33.015625 6.390625 
Q 39.65625 6.390625 43.53125 10.953125 
Q 47.40625 15.53125 47.40625 23.390625 
Q 47.40625 31.296875 43.53125 35.828125 
Q 39.65625 40.375 33.015625 40.375 
z
M 52.59375 71.296875 
L 52.59375 62.3125 
Q 48.875 64.0625 45.09375 64.984375 
Q 41.3125 65.921875 37.59375 65.921875 
Q 27.828125 65.921875 22.671875 59.328125 
Q 17.53125 52.734375 16.796875 39.40625 
Q 19.671875 43.65625 24.015625 45.921875 
Q 28.375 48.1875 33.59375 48.1875 
Q 44.578125 48.1875 50.953125 41.515625 
Q 57.328125 34.859375 57.328125 23.390625 
Q 57.328125 12.15625 50.6875 5.359375 
Q 44.046875 -1.421875 33.015625 -1.421875 
Q 20.359375 -1.421875 13.671875 8.265625 
Q 6.984375 17.96875 6.984375 36.375 
Q 6.984375 53.65625 15.1875 63.9375 
Q 23.390625 74.21875 37.203125 74.21875 
Q 40.921875 74.21875 44.703125 73.484375 
Q 48.484375 72.75 52.59375 71.296875 
z
" id="DejaVuSans-36"/>
      </defs>
      <g transform="translate(443.211266 203.598437)scale(0.1 -0.1)">
       <use xlink:href="#DejaVuSans-36"/>
      </g>
     </g>
    </g>
    <g id="text_18">
     <!-- X -->
     <g transform="translate(376.902586 217.276563)scale(0.1 -0.1)">
      <use xlink:href="#DejaVuSans-58"/>
     </g>
    </g>
   </g>
   <g id="matplotlib.axis_4">
    <g id="ytick_9">
     <g id="line2d_17">
      <g>
       <use style="stroke:#000000;stroke-width:0.8;" x="308.172414" xlink:href="#mc6f827247c" y="189"/>
      </g>
     </g>
     <g id="text_19">
      <!-- 0.0 -->
      <g transform="translate(285.269289 192.799219)scale(0.1 -0.1)">
       <use xlink:href="#DejaVuSans-30"/>
       <use x="63.623047" xlink:href="#DejaVuSans-2e"/>
       <use x="95.410156" xlink:href="#DejaVuSans-30"/>
      </g>
     </g>
    </g>
    <g id="ytick_10">
     <g id="line2d_18">
      <g>
       <use style="stroke:#000000;stroke-width:0.8;" x="308.172414" xlink:href="#mc6f827247c" y="165.726977"/>
      </g>
     </g>
     <g id="text_20">
      <!-- 0.1 -->
      <g transform="translate(285.269289 169.526195)scale(0.1 -0.1)">
       <use xlink:href="#DejaVuSans-30"/>
       <use x="63.623047" xlink:href="#DejaVuSans-2e"/>
       <use x="95.410156" xlink:href="#DejaVuSans-31"/>
      </g>
     </g>
    </g>
    <g id="ytick_11">
     <g id="line2d_19">
      <g>
       <use style="stroke:#000000;stroke-width:0.8;" x="308.172414" xlink:href="#mc6f827247c" y="142.453953"/>
      </g>
     </g>
     <g id="text_21">
      <!-- 0.2 -->
      <g transform="translate(285.269289 146.253172)scale(0.1 -0.1)">
       <use xlink:href="#DejaVuSans-30"/>
       <use x="63.623047" xlink:href="#DejaVuSans-2e"/>
       <use x="95.410156" xlink:href="#DejaVuSans-32"/>
      </g>
     </g>
    </g>
    <g id="ytick_12">
     <g id="line2d_20">
      <g>
       <use style="stroke:#000000;stroke-width:0.8;" x="308.172414" xlink:href="#mc6f827247c" y="119.18093"/>
      </g>
     </g>
     <g id="text_22">
      <!-- 0.3 -->
      <g transform="translate(285.269289 122.980148)scale(0.1 -0.1)">
       <use xlink:href="#DejaVuSans-30"/>
       <use x="63.623047" xlink:href="#DejaVuSans-2e"/>
       <use x="95.410156" xlink:href="#DejaVuSans-33"/>
      </g>
     </g>
    </g>
    <g id="ytick_13">
     <g id="line2d_21">
      <g>
       <use style="stroke:#000000;stroke-width:0.8;" x="308.172414" xlink:href="#mc6f827247c" y="95.907906"/>
      </g>
     </g>
     <g id="text_23">
      <!-- 0.4 -->
      <g transform="translate(285.269289 99.707125)scale(0.1 -0.1)">
       <use xlink:href="#DejaVuSans-30"/>
       <use x="63.623047" xlink:href="#DejaVuSans-2e"/>
       <use x="95.410156" xlink:href="#DejaVuSans-34"/>
      </g>
     </g>
    </g>
    <g id="ytick_14">
     <g id="line2d_22">
      <g>
       <use style="stroke:#000000;stroke-width:0.8;" x="308.172414" xlink:href="#mc6f827247c" y="72.634883"/>
      </g>
     </g>
     <g id="text_24">
      <!-- 0.5 -->
      <g transform="translate(285.269289 76.434102)scale(0.1 -0.1)">
       <use xlink:href="#DejaVuSans-30"/>
       <use x="63.623047" xlink:href="#DejaVuSans-2e"/>
       <use x="95.410156" xlink:href="#DejaVuSans-35"/>
      </g>
     </g>
    </g>
    <g id="ytick_15">
     <g id="line2d_23">
      <g>
       <use style="stroke:#000000;stroke-width:0.8;" x="308.172414" xlink:href="#mc6f827247c" y="49.361859"/>
      </g>
     </g>
     <g id="text_25">
      <!-- 0.6 -->
      <g transform="translate(285.269289 53.161078)scale(0.1 -0.1)">
       <use xlink:href="#DejaVuSans-30"/>
       <use x="63.623047" xlink:href="#DejaVuSans-2e"/>
       <use x="95.410156" xlink:href="#DejaVuSans-36"/>
      </g>
     </g>
    </g>
    <g id="ytick_16">
     <g id="line2d_24">
      <g>
       <use style="stroke:#000000;stroke-width:0.8;" x="308.172414" xlink:href="#mc6f827247c" y="26.088836"/>
      </g>
     </g>
     <g id="text_26">
      <!-- 0.7 -->
      <defs>
       <path d="M 8.203125 72.90625 
L 55.078125 72.90625 
L 55.078125 68.703125 
L 28.609375 0 
L 18.3125 0 
L 43.21875 64.59375 
L 8.203125 64.59375 
z
" id="DejaVuSans-37"/>
      </defs>
      <g transform="translate(285.269289 29.888055)scale(0.1 -0.1)">
       <use xlink:href="#DejaVuSans-30"/>
       <use x="63.623047" xlink:href="#DejaVuSans-2e"/>
       <use x="95.410156" xlink:href="#DejaVuSans-37"/>
      </g>
     </g>
    </g>
   </g>
   <g id="line2d_25">
    <path clip-path="url(#pd898c952b9)" d="M 314.731975 188.98115 
L 318.863982 188.849272 
L 321.962987 188.497088 
L 325.061992 188.103207 
L 327.127996 188.068995 
L 329.193999 188.268233 
L 333.326006 188.803251 
L 336.425012 188.958711 
L 340.557019 188.897998 
L 343.656024 188.590452 
L 358.118049 186.286637 
L 359.15105 185.976175 
L 360.184052 185.541952 
L 361.217054 184.956456 
L 362.250056 184.212307 
L 364.316059 182.3189 
L 366.382063 180.069621 
L 368.448066 177.553694 
L 370.51407 174.728418 
L 372.580073 171.626592 
L 374.646077 168.157433 
L 375.679078 166.112162 
L 376.71208 163.713802 
L 377.745082 160.872791 
L 378.778084 157.561676 
L 380.844087 149.840245 
L 382.910091 141.804125 
L 384.976094 134.799288 
L 389.108101 122.880367 
L 390.141103 119.100903 
L 391.174105 114.536237 
L 392.207106 109.072738 
L 393.240108 102.713436 
L 395.306112 87.952491 
L 397.372115 72.589371 
L 398.405117 65.639915 
L 399.438119 59.602045 
L 400.47112 54.645632 
L 401.504122 50.805876 
L 402.537124 48.013139 
L 403.570126 46.146622 
L 404.603127 45.091622 
L 405.636129 44.783299 
L 406.669131 45.228489 
L 407.702133 46.505011 
L 408.735134 48.742028 
L 409.768136 52.086271 
L 410.801138 56.659818 
L 411.83414 62.516665 
L 412.867141 69.607039 
L 414.933145 86.683271 
L 418.03215 114.298526 
L 420.098154 130.216261 
L 422.164157 143.189326 
L 424.230161 154.078605 
L 426.296164 163.701699 
L 428.362168 171.957526 
L 429.395169 175.380011 
L 430.428171 178.258295 
L 431.461173 180.597346 
L 432.494175 182.452104 
L 433.527176 183.909522 
L 434.560178 185.063643 
L 435.59318 185.994148 
L 436.626182 186.755487 
L 438.692185 187.875456 
L 440.758189 188.536132 
L 442.824192 188.848198 
L 445.923197 188.97746 
L 445.923197 188.97746 
" style="fill:none;stroke:#1f77b4;stroke-linecap:square;stroke-width:1.5;"/>
   </g>
   <g id="patch_83">
    <path d="M 308.172414 189 
L 308.172414 25.92 
" style="fill:none;stroke:#000000;stroke-linecap:square;stroke-linejoin:miter;stroke-width:0.8;"/>
   </g>
   <g id="patch_84">
    <path d="M 452.482759 189 
L 452.482759 25.92 
" style="fill:none;stroke:#000000;stroke-linecap:square;stroke-linejoin:miter;stroke-width:0.8;"/>
   </g>
   <g id="patch_85">
    <path d="M 308.172414 189 
L 452.482759 189 
" style="fill:none;stroke:#000000;stroke-linecap:square;stroke-linejoin:miter;stroke-width:0.8;"/>
   </g>
   <g id="patch_86">
    <path d="M 308.172414 25.92 
L 452.482759 25.92 
" style="fill:none;stroke:#000000;stroke-linecap:square;stroke-linejoin:miter;stroke-width:0.8;"/>
   </g>
   <g id="text_27">
    <!-- X ** 0.5  -->
    <g transform="translate(354.955086 6.482625)scale(0.12 -0.12)">
     <use xlink:href="#DejaVuSans-58"/>
     <use x="68.505859" xlink:href="#DejaVuSans-20"/>
     <use x="100.292969" xlink:href="#DejaVuSans-2a"/>
     <use x="150.292969" xlink:href="#DejaVuSans-2a"/>
     <use x="200.292969" xlink:href="#DejaVuSans-20"/>
     <use x="232.080078" xlink:href="#DejaVuSans-30"/>
     <use x="295.703125" xlink:href="#DejaVuSans-2e"/>
     <use x="327.490234" xlink:href="#DejaVuSans-35"/>
     <use x="391.113281" xlink:href="#DejaVuSans-20"/>
    </g>
    <!-- skewness = -0.85 -->
    <defs>
     <path d="M 31.78125 34.625 
Q 24.75 34.625 20.71875 30.859375 
Q 16.703125 27.09375 16.703125 20.515625 
Q 16.703125 13.921875 20.71875 10.15625 
Q 24.75 6.390625 31.78125 6.390625 
Q 38.8125 6.390625 42.859375 10.171875 
Q 46.921875 13.96875 46.921875 20.515625 
Q 46.921875 27.09375 42.890625 30.859375 
Q 38.875 34.625 31.78125 34.625 
z
M 21.921875 38.8125 
Q 15.578125 40.375 12.03125 44.71875 
Q 8.5 49.078125 8.5 55.328125 
Q 8.5 64.0625 14.71875 69.140625 
Q 20.953125 74.21875 31.78125 74.21875 
Q 42.671875 74.21875 48.875 69.140625 
Q 55.078125 64.0625 55.078125 55.328125 
Q 55.078125 49.078125 51.53125 44.71875 
Q 48 40.375 41.703125 38.8125 
Q 48.828125 37.15625 52.796875 32.3125 
Q 56.78125 27.484375 56.78125 20.515625 
Q 56.78125 9.90625 50.3125 4.234375 
Q 43.84375 -1.421875 31.78125 -1.421875 
Q 19.734375 -1.421875 13.25 4.234375 
Q 6.78125 9.90625 6.78125 20.515625 
Q 6.78125 27.484375 10.78125 32.3125 
Q 14.796875 37.15625 21.921875 38.8125 
z
M 18.3125 54.390625 
Q 18.3125 48.734375 21.84375 45.5625 
Q 25.390625 42.390625 31.78125 42.390625 
Q 38.140625 42.390625 41.71875 45.5625 
Q 45.3125 48.734375 45.3125 54.390625 
Q 45.3125 60.0625 41.71875 63.234375 
Q 38.140625 66.40625 31.78125 66.40625 
Q 25.390625 66.40625 21.84375 63.234375 
Q 18.3125 60.0625 18.3125 54.390625 
z
" id="DejaVuSans-38"/>
    </defs>
    <g transform="translate(327.020399 19.92)scale(0.12 -0.12)">
     <use xlink:href="#DejaVuSans-73"/>
     <use x="52.099609" xlink:href="#DejaVuSans-6b"/>
     <use x="109.962891" xlink:href="#DejaVuSans-65"/>
     <use x="171.486328" xlink:href="#DejaVuSans-77"/>
     <use x="253.273438" xlink:href="#DejaVuSans-6e"/>
     <use x="316.652344" xlink:href="#DejaVuSans-65"/>
     <use x="378.175781" xlink:href="#DejaVuSans-73"/>
     <use x="430.275391" xlink:href="#DejaVuSans-73"/>
     <use x="482.375" xlink:href="#DejaVuSans-20"/>
     <use x="514.162109" xlink:href="#DejaVuSans-3d"/>
     <use x="597.951172" xlink:href="#DejaVuSans-20"/>
     <use x="629.738281" xlink:href="#DejaVuSans-2d"/>
     <use x="665.822266" xlink:href="#DejaVuSans-30"/>
     <use x="729.445312" xlink:href="#DejaVuSans-2e"/>
     <use x="761.232422" xlink:href="#DejaVuSans-38"/>
     <use x="824.855469" xlink:href="#DejaVuSans-35"/>
    </g>
   </g>
  </g>
  <g id="axes_3">
   <g id="patch_87">
    <path d="M 481.344828 189 
L 625.655172 189 
L 625.655172 25.92 
L 481.344828 25.92 
z
" style="fill:#ffffff;"/>
   </g>
   <g id="patch_88">
    <path clip-path="url(#pbdc29b632c)" d="M 503.260069 189 
L 508.842284 189 
L 508.842284 184.912782 
L 503.260069 184.912782 
z
" style="fill:#1f77b4;opacity:0.4;"/>
   </g>
   <g id="patch_89">
    <path clip-path="url(#pbdc29b632c)" d="M 508.842284 189 
L 514.424498 189 
L 514.424498 184.912782 
L 508.842284 184.912782 
z
" style="fill:#1f77b4;opacity:0.4;"/>
   </g>
   <g id="patch_90">
    <path clip-path="url(#pbdc29b632c)" d="M 514.424498 189 
L 520.006713 189 
L 520.006713 172.651128 
L 514.424498 172.651128 
z
" style="fill:#1f77b4;opacity:0.4;"/>
   </g>
   <g id="patch_91">
    <path clip-path="url(#pbdc29b632c)" d="M 520.006713 189 
L 525.588927 189 
L 525.588927 162.433083 
L 520.006713 162.433083 
z
" style="fill:#1f77b4;opacity:0.4;"/>
   </g>
   <g id="patch_92">
    <path clip-path="url(#pbdc29b632c)" d="M 525.588927 189 
L 531.171142 189 
L 531.171142 139.953383 
L 525.588927 139.953383 
z
" style="fill:#1f77b4;opacity:0.4;"/>
   </g>
   <g id="patch_93">
    <path clip-path="url(#pbdc29b632c)" d="M 531.171142 189 
L 536.753356 189 
L 536.753356 119.517293 
L 531.171142 119.517293 
z
" style="fill:#1f77b4;opacity:0.4;"/>
   </g>
   <g id="patch_94">
    <path clip-path="url(#pbdc29b632c)" d="M 536.753356 189 
L 542.335571 189 
L 542.335571 125.64812 
L 536.753356 125.64812 
z
" style="fill:#1f77b4;opacity:0.4;"/>
   </g>
   <g id="patch_95">
    <path clip-path="url(#pbdc29b632c)" d="M 542.335571 189 
L 547.917785 189 
L 547.917785 82.732331 
L 542.335571 82.732331 
z
" style="fill:#1f77b4;opacity:0.4;"/>
   </g>
   <g id="patch_96">
    <path clip-path="url(#pbdc29b632c)" d="M 547.917785 189 
L 553.5 189 
L 553.5 33.685714 
L 547.917785 33.685714 
z
" style="fill:#1f77b4;opacity:0.4;"/>
   </g>
   <g id="patch_97">
    <path clip-path="url(#pbdc29b632c)" d="M 553.5 189 
L 559.082215 189 
L 559.082215 64.33985 
L 553.5 64.33985 
z
" style="fill:#1f77b4;opacity:0.4;"/>
   </g>
   <g id="patch_98">
    <path clip-path="url(#pbdc29b632c)" d="M 559.082215 189 
L 564.664429 189 
L 564.664429 58.209023 
L 559.082215 58.209023 
z
" style="fill:#1f77b4;opacity:0.4;"/>
   </g>
   <g id="patch_99">
    <path clip-path="url(#pbdc29b632c)" d="M 564.664429 189 
L 570.246644 189 
L 570.246644 84.77594 
L 564.664429 84.77594 
z
" style="fill:#1f77b4;opacity:0.4;"/>
   </g>
   <g id="patch_100">
    <path clip-path="url(#pbdc29b632c)" d="M 570.246644 189 
L 575.828858 189 
L 575.828858 117.473684 
L 570.246644 117.473684 
z
" style="fill:#1f77b4;opacity:0.4;"/>
   </g>
   <g id="patch_101">
    <path clip-path="url(#pbdc29b632c)" d="M 575.828858 189 
L 581.411073 189 
L 581.411073 148.12782 
L 575.828858 148.12782 
z
" style="fill:#1f77b4;opacity:0.4;"/>
   </g>
   <g id="patch_102">
    <path clip-path="url(#pbdc29b632c)" d="M 581.411073 189 
L 586.993287 189 
L 586.993287 156.302256 
L 581.411073 156.302256 
z
" style="fill:#1f77b4;opacity:0.4;"/>
   </g>
   <g id="patch_103">
    <path clip-path="url(#pbdc29b632c)" d="M 586.993287 189 
L 592.575502 189 
L 592.575502 172.651128 
L 586.993287 172.651128 
z
" style="fill:#1f77b4;opacity:0.4;"/>
   </g>
   <g id="patch_104">
    <path clip-path="url(#pbdc29b632c)" d="M 592.575502 189 
L 598.157716 189 
L 598.157716 186.956391 
L 592.575502 186.956391 
z
" style="fill:#1f77b4;opacity:0.4;"/>
   </g>
   <g id="patch_105">
    <path clip-path="url(#pbdc29b632c)" d="M 598.157716 189 
L 603.739931 189 
L 603.739931 184.912782 
L 598.157716 184.912782 
z
" style="fill:#1f77b4;opacity:0.4;"/>
   </g>
   <g id="matplotlib.axis_5">
    <g id="xtick_8">
     <g id="line2d_26">
      <g>
       <use style="stroke:#000000;stroke-width:0.8;" x="503.260069" xlink:href="#mc5590be651" y="189"/>
      </g>
     </g>
     <g id="text_28">
      <!-- 0 -->
      <g transform="translate(500.078819 203.598437)scale(0.1 -0.1)">
       <use xlink:href="#DejaVuSans-30"/>
      </g>
     </g>
    </g>
    <g id="xtick_9">
     <g id="line2d_27">
      <g>
       <use style="stroke:#000000;stroke-width:0.8;" x="572.319217" xlink:href="#mc5590be651" y="189"/>
      </g>
     </g>
     <g id="text_29">
      <!-- 20 -->
      <g transform="translate(565.956717 203.598437)scale(0.1 -0.1)">
       <use xlink:href="#DejaVuSans-32"/>
       <use x="63.623047" xlink:href="#DejaVuSans-30"/>
      </g>
     </g>
    </g>
    <g id="text_30">
     <!-- X -->
     <g transform="translate(550.075 217.276563)scale(0.1 -0.1)">
      <use xlink:href="#DejaVuSans-58"/>
     </g>
    </g>
   </g>
   <g id="matplotlib.axis_6">
    <g id="ytick_17">
     <g id="line2d_28">
      <g>
       <use style="stroke:#000000;stroke-width:0.8;" x="481.344828" xlink:href="#mc6f827247c" y="189"/>
      </g>
     </g>
     <g id="text_31">
      <!-- 0.00 -->
      <g transform="translate(452.079203 192.799219)scale(0.1 -0.1)">
       <use xlink:href="#DejaVuSans-30"/>
       <use x="63.623047" xlink:href="#DejaVuSans-2e"/>
       <use x="95.410156" xlink:href="#DejaVuSans-30"/>
       <use x="159.033203" xlink:href="#DejaVuSans-30"/>
      </g>
     </g>
    </g>
    <g id="ytick_18">
     <g id="line2d_29">
      <g>
       <use style="stroke:#000000;stroke-width:0.8;" x="481.344828" xlink:href="#mc6f827247c" y="155.962048"/>
      </g>
     </g>
     <g id="text_32">
      <!-- 0.02 -->
      <g transform="translate(452.079203 159.761267)scale(0.1 -0.1)">
       <use xlink:href="#DejaVuSans-30"/>
       <use x="63.623047" xlink:href="#DejaVuSans-2e"/>
       <use x="95.410156" xlink:href="#DejaVuSans-30"/>
       <use x="159.033203" xlink:href="#DejaVuSans-32"/>
      </g>
     </g>
    </g>
    <g id="ytick_19">
     <g id="line2d_30">
      <g>
       <use style="stroke:#000000;stroke-width:0.8;" x="481.344828" xlink:href="#mc6f827247c" y="122.924097"/>
      </g>
     </g>
     <g id="text_33">
      <!-- 0.04 -->
      <g transform="translate(452.079203 126.723315)scale(0.1 -0.1)">
       <use xlink:href="#DejaVuSans-30"/>
       <use x="63.623047" xlink:href="#DejaVuSans-2e"/>
       <use x="95.410156" xlink:href="#DejaVuSans-30"/>
       <use x="159.033203" xlink:href="#DejaVuSans-34"/>
      </g>
     </g>
    </g>
    <g id="ytick_20">
     <g id="line2d_31">
      <g>
       <use style="stroke:#000000;stroke-width:0.8;" x="481.344828" xlink:href="#mc6f827247c" y="89.886145"/>
      </g>
     </g>
     <g id="text_34">
      <!-- 0.06 -->
      <g transform="translate(452.079203 93.685364)scale(0.1 -0.1)">
       <use xlink:href="#DejaVuSans-30"/>
       <use x="63.623047" xlink:href="#DejaVuSans-2e"/>
       <use x="95.410156" xlink:href="#DejaVuSans-30"/>
       <use x="159.033203" xlink:href="#DejaVuSans-36"/>
      </g>
     </g>
    </g>
    <g id="ytick_21">
     <g id="line2d_32">
      <g>
       <use style="stroke:#000000;stroke-width:0.8;" x="481.344828" xlink:href="#mc6f827247c" y="56.848193"/>
      </g>
     </g>
     <g id="text_35">
      <!-- 0.08 -->
      <g transform="translate(452.079203 60.647412)scale(0.1 -0.1)">
       <use xlink:href="#DejaVuSans-30"/>
       <use x="63.623047" xlink:href="#DejaVuSans-2e"/>
       <use x="95.410156" xlink:href="#DejaVuSans-30"/>
       <use x="159.033203" xlink:href="#DejaVuSans-38"/>
      </g>
     </g>
    </g>
   </g>
   <g id="line2d_33">
    <path clip-path="url(#pbdc29b632c)" d="M 487.904389 188.981273 
L 493.069397 188.853721 
L 496.168403 188.550792 
L 499.267408 187.951798 
L 502.366413 187.034401 
L 504.432417 186.247494 
L 506.49842 185.276068 
L 508.564424 184.015328 
L 510.630427 182.311155 
L 511.663429 181.242784 
L 512.696431 180.009601 
L 514.762434 177.022812 
L 516.828438 173.362812 
L 518.894441 169.099728 
L 520.960445 164.260616 
L 523.026448 158.764171 
L 525.092452 152.498406 
L 528.191457 141.893083 
L 531.290462 131.275842 
L 533.356466 125.024096 
L 538.521475 110.463886 
L 540.587478 103.021908 
L 542.653482 94.049697 
L 546.785489 74.541297 
L 547.81849 70.280345 
L 548.851492 66.570142 
L 549.884494 63.500478 
L 550.917496 61.111292 
L 551.950497 59.395371 
L 552.983499 58.307945 
L 554.016501 57.780653 
L 555.049503 57.736762 
L 556.082504 58.104876 
L 557.115506 58.829214 
L 558.148508 59.875621 
L 559.18151 61.23334 
L 560.214511 62.913112 
L 561.247513 64.942459 
L 562.280515 67.359021 
L 563.313517 70.202875 
L 564.346518 73.508652 
L 565.37952 77.298231 
L 567.445524 86.317313 
L 569.511527 96.98972 
L 575.709538 131.076102 
L 577.775541 140.249802 
L 579.841545 147.712489 
L 581.907548 153.774917 
L 583.973552 158.952131 
L 587.072557 166.015747 
L 590.171562 172.706903 
L 592.237566 176.743925 
L 594.303569 180.123883 
L 595.336571 181.499606 
L 596.369573 182.652943 
L 597.402574 183.592631 
L 598.435576 184.341197 
L 600.50158 185.402381 
L 603.600585 186.455213 
L 608.765594 187.957129 
L 611.864599 188.576183 
L 614.963604 188.875109 
L 619.095611 188.979696 
L 619.095611 188.979696 
" style="fill:none;stroke:#1f77b4;stroke-linecap:square;stroke-width:1.5;"/>
   </g>
   <g id="patch_106">
    <path d="M 481.344828 189 
L 481.344828 25.92 
" style="fill:none;stroke:#000000;stroke-linecap:square;stroke-linejoin:miter;stroke-width:0.8;"/>
   </g>
   <g id="patch_107">
    <path d="M 625.655172 189 
L 625.655172 25.92 
" style="fill:none;stroke:#000000;stroke-linecap:square;stroke-linejoin:miter;stroke-width:0.8;"/>
   </g>
   <g id="patch_108">
    <path d="M 481.344828 189 
L 625.655172 189 
" style="fill:none;stroke:#000000;stroke-linecap:square;stroke-linejoin:miter;stroke-width:0.8;"/>
   </g>
   <g id="patch_109">
    <path d="M 481.344828 25.92 
L 625.655172 25.92 
" style="fill:none;stroke:#000000;stroke-linecap:square;stroke-linejoin:miter;stroke-width:0.8;"/>
   </g>
   <g id="text_36">
    <!-- X ** 1.0  -->
    <g transform="translate(528.1275 6.482625)scale(0.12 -0.12)">
     <use xlink:href="#DejaVuSans-58"/>
     <use x="68.505859" xlink:href="#DejaVuSans-20"/>
     <use x="100.292969" xlink:href="#DejaVuSans-2a"/>
     <use x="150.292969" xlink:href="#DejaVuSans-2a"/>
     <use x="200.292969" xlink:href="#DejaVuSans-20"/>
     <use x="232.080078" xlink:href="#DejaVuSans-31"/>
     <use x="295.703125" xlink:href="#DejaVuSans-2e"/>
     <use x="327.490234" xlink:href="#DejaVuSans-30"/>
     <use x="391.113281" xlink:href="#DejaVuSans-20"/>
    </g>
    <!-- skewness = -0.07 -->
    <g transform="translate(500.192813 19.92)scale(0.12 -0.12)">
     <use xlink:href="#DejaVuSans-73"/>
     <use x="52.099609" xlink:href="#DejaVuSans-6b"/>
     <use x="109.962891" xlink:href="#DejaVuSans-65"/>
     <use x="171.486328" xlink:href="#DejaVuSans-77"/>
     <use x="253.273438" xlink:href="#DejaVuSans-6e"/>
     <use x="316.652344" xlink:href="#DejaVuSans-65"/>
     <use x="378.175781" xlink:href="#DejaVuSans-73"/>
     <use x="430.275391" xlink:href="#DejaVuSans-73"/>
     <use x="482.375" xlink:href="#DejaVuSans-20"/>
     <use x="514.162109" xlink:href="#DejaVuSans-3d"/>
     <use x="597.951172" xlink:href="#DejaVuSans-20"/>
     <use x="629.738281" xlink:href="#DejaVuSans-2d"/>
     <use x="665.822266" xlink:href="#DejaVuSans-30"/>
     <use x="729.445312" xlink:href="#DejaVuSans-2e"/>
     <use x="761.232422" xlink:href="#DejaVuSans-30"/>
     <use x="824.855469" xlink:href="#DejaVuSans-37"/>
    </g>
   </g>
  </g>
  <g id="axes_4">
   <g id="patch_110">
    <path d="M 654.517241 189 
L 798.827586 189 
L 798.827586 25.92 
L 654.517241 25.92 
z
" style="fill:#ffffff;"/>
   </g>
   <g id="patch_111">
    <path clip-path="url(#p87047f8c61)" d="M 676.612705 189 
L 682.174895 189 
L 682.174895 123.722981 
L 676.612705 123.722981 
z
" style="fill:#1f77b4;opacity:0.4;"/>
   </g>
   <g id="patch_112">
    <path clip-path="url(#p87047f8c61)" d="M 682.174895 189 
L 687.737085 189 
L 687.737085 67.449689 
L 682.174895 67.449689 
z
" style="fill:#1f77b4;opacity:0.4;"/>
   </g>
   <g id="patch_113">
    <path clip-path="url(#p87047f8c61)" d="M 687.737085 189 
L 693.299275 189 
L 693.299275 67.449689 
L 687.737085 67.449689 
z
" style="fill:#1f77b4;opacity:0.4;"/>
   </g>
   <g id="patch_114">
    <path clip-path="url(#p87047f8c61)" d="M 693.299275 189 
L 698.861465 189 
L 698.861465 33.685714 
L 693.299275 33.685714 
z
" style="fill:#1f77b4;opacity:0.4;"/>
   </g>
   <g id="patch_115">
    <path clip-path="url(#p87047f8c61)" d="M 698.861465 189 
L 704.423654 189 
L 704.423654 40.438509 
L 698.861465 40.438509 
z
" style="fill:#1f77b4;opacity:0.4;"/>
   </g>
   <g id="patch_116">
    <path clip-path="url(#p87047f8c61)" d="M 704.423654 189 
L 709.985844 189 
L 709.985844 56.195031 
L 704.423654 56.195031 
z
" style="fill:#1f77b4;opacity:0.4;"/>
   </g>
   <g id="patch_117">
    <path clip-path="url(#p87047f8c61)" d="M 709.985844 189 
L 715.548034 189 
L 715.548034 83.206211 
L 709.985844 83.206211 
z
" style="fill:#1f77b4;opacity:0.4;"/>
   </g>
   <g id="patch_118">
    <path clip-path="url(#p87047f8c61)" d="M 715.548034 189 
L 721.110224 189 
L 721.110224 98.962733 
L 715.548034 98.962733 
z
" style="fill:#1f77b4;opacity:0.4;"/>
   </g>
   <g id="patch_119">
    <path clip-path="url(#p87047f8c61)" d="M 721.110224 189 
L 726.672414 189 
L 726.672414 123.722981 
L 721.110224 123.722981 
z
" style="fill:#1f77b4;opacity:0.4;"/>
   </g>
   <g id="patch_120">
    <path clip-path="url(#p87047f8c61)" d="M 726.672414 189 
L 732.234604 189 
L 732.234604 152.985093 
L 726.672414 152.985093 
z
" style="fill:#1f77b4;opacity:0.4;"/>
   </g>
   <g id="patch_121">
    <path clip-path="url(#p87047f8c61)" d="M 732.234604 189 
L 737.796793 189 
L 737.796793 161.98882 
L 732.234604 161.98882 
z
" style="fill:#1f77b4;opacity:0.4;"/>
   </g>
   <g id="patch_122">
    <path clip-path="url(#p87047f8c61)" d="M 737.796793 189 
L 743.358983 189 
L 743.358983 170.992547 
L 737.796793 170.992547 
z
" style="fill:#1f77b4;opacity:0.4;"/>
   </g>
   <g id="patch_123">
    <path clip-path="url(#p87047f8c61)" d="M 743.358983 189 
L 748.921173 189 
L 748.921173 170.992547 
L 743.358983 170.992547 
z
" style="fill:#1f77b4;opacity:0.4;"/>
   </g>
   <g id="patch_124">
    <path clip-path="url(#p87047f8c61)" d="M 748.921173 189 
L 754.483363 189 
L 754.483363 179.996273 
L 748.921173 179.996273 
z
" style="fill:#1f77b4;opacity:0.4;"/>
   </g>
   <g id="patch_125">
    <path clip-path="url(#p87047f8c61)" d="M 754.483363 189 
L 760.045553 189 
L 760.045553 184.498137 
L 754.483363 184.498137 
z
" style="fill:#1f77b4;opacity:0.4;"/>
   </g>
   <g id="patch_126">
    <path clip-path="url(#p87047f8c61)" d="M 760.045553 189 
L 765.607743 189 
L 765.607743 189 
L 760.045553 189 
z
" style="fill:#1f77b4;opacity:0.4;"/>
   </g>
   <g id="patch_127">
    <path clip-path="url(#p87047f8c61)" d="M 765.607743 189 
L 771.169932 189 
L 771.169932 186.749068 
L 765.607743 186.749068 
z
" style="fill:#1f77b4;opacity:0.4;"/>
   </g>
   <g id="patch_128">
    <path clip-path="url(#p87047f8c61)" d="M 771.169932 189 
L 776.732122 189 
L 776.732122 184.498137 
L 771.169932 184.498137 
z
" style="fill:#1f77b4;opacity:0.4;"/>
   </g>
   <g id="matplotlib.axis_7">
    <g id="xtick_10">
     <g id="line2d_34">
      <g>
       <use style="stroke:#000000;stroke-width:0.8;" x="676.612705" xlink:href="#mc5590be651" y="189"/>
      </g>
     </g>
     <g id="text_37">
      <!-- 0 -->
      <g transform="translate(673.431455 203.598437)scale(0.1 -0.1)">
       <use xlink:href="#DejaVuSans-30"/>
      </g>
     </g>
    </g>
    <g id="xtick_11">
     <g id="line2d_35">
      <g>
       <use style="stroke:#000000;stroke-width:0.8;" x="735.729748" xlink:href="#mc5590be651" y="189"/>
      </g>
     </g>
     <g id="text_38">
      <!-- 500 -->
      <g transform="translate(726.185998 203.598437)scale(0.1 -0.1)">
       <use xlink:href="#DejaVuSans-35"/>
       <use x="63.623047" xlink:href="#DejaVuSans-30"/>
       <use x="127.246094" xlink:href="#DejaVuSans-30"/>
      </g>
     </g>
    </g>
    <g id="xtick_12">
     <g id="line2d_36">
      <g>
       <use style="stroke:#000000;stroke-width:0.8;" x="794.846791" xlink:href="#mc5590be651" y="189"/>
      </g>
     </g>
     <g id="text_39">
      <!-- 1000 -->
      <g transform="translate(782.121791 203.598437)scale(0.1 -0.1)">
       <use xlink:href="#DejaVuSans-31"/>
       <use x="63.623047" xlink:href="#DejaVuSans-30"/>
       <use x="127.246094" xlink:href="#DejaVuSans-30"/>
       <use x="190.869141" xlink:href="#DejaVuSans-30"/>
      </g>
     </g>
    </g>
    <g id="text_40">
     <!-- X -->
     <g transform="translate(723.247414 217.276563)scale(0.1 -0.1)">
      <use xlink:href="#DejaVuSans-58"/>
     </g>
    </g>
   </g>
   <g id="matplotlib.axis_8">
    <g id="ytick_22">
     <g id="line2d_37">
      <g>
       <use style="stroke:#000000;stroke-width:0.8;" x="654.517241" xlink:href="#mc6f827247c" y="189"/>
      </g>
     </g>
     <g id="text_41">
      <!-- 0.0000 -->
      <g transform="translate(612.526616 192.799219)scale(0.1 -0.1)">
       <use xlink:href="#DejaVuSans-30"/>
       <use x="63.623047" xlink:href="#DejaVuSans-2e"/>
       <use x="95.410156" xlink:href="#DejaVuSans-30"/>
       <use x="159.033203" xlink:href="#DejaVuSans-30"/>
       <use x="222.65625" xlink:href="#DejaVuSans-30"/>
       <use x="286.279297" xlink:href="#DejaVuSans-30"/>
      </g>
     </g>
    </g>
    <g id="ytick_23">
     <g id="line2d_38">
      <g>
       <use style="stroke:#000000;stroke-width:0.8;" x="654.517241" xlink:href="#mc6f827247c" y="162.526862"/>
      </g>
     </g>
     <g id="text_42">
      <!-- 0.0005 -->
      <g transform="translate(612.526616 166.32608)scale(0.1 -0.1)">
       <use xlink:href="#DejaVuSans-30"/>
       <use x="63.623047" xlink:href="#DejaVuSans-2e"/>
       <use x="95.410156" xlink:href="#DejaVuSans-30"/>
       <use x="159.033203" xlink:href="#DejaVuSans-30"/>
       <use x="222.65625" xlink:href="#DejaVuSans-30"/>
       <use x="286.279297" xlink:href="#DejaVuSans-35"/>
      </g>
     </g>
    </g>
    <g id="ytick_24">
     <g id="line2d_39">
      <g>
       <use style="stroke:#000000;stroke-width:0.8;" x="654.517241" xlink:href="#mc6f827247c" y="136.053723"/>
      </g>
     </g>
     <g id="text_43">
      <!-- 0.0010 -->
      <g transform="translate(612.526616 139.852942)scale(0.1 -0.1)">
       <use xlink:href="#DejaVuSans-30"/>
       <use x="63.623047" xlink:href="#DejaVuSans-2e"/>
       <use x="95.410156" xlink:href="#DejaVuSans-30"/>
       <use x="159.033203" xlink:href="#DejaVuSans-30"/>
       <use x="222.65625" xlink:href="#DejaVuSans-31"/>
       <use x="286.279297" xlink:href="#DejaVuSans-30"/>
      </g>
     </g>
    </g>
    <g id="ytick_25">
     <g id="line2d_40">
      <g>
       <use style="stroke:#000000;stroke-width:0.8;" x="654.517241" xlink:href="#mc6f827247c" y="109.580585"/>
      </g>
     </g>
     <g id="text_44">
      <!-- 0.0015 -->
      <g transform="translate(612.526616 113.379803)scale(0.1 -0.1)">
       <use xlink:href="#DejaVuSans-30"/>
       <use x="63.623047" xlink:href="#DejaVuSans-2e"/>
       <use x="95.410156" xlink:href="#DejaVuSans-30"/>
       <use x="159.033203" xlink:href="#DejaVuSans-30"/>
       <use x="222.65625" xlink:href="#DejaVuSans-31"/>
       <use x="286.279297" xlink:href="#DejaVuSans-35"/>
      </g>
     </g>
    </g>
    <g id="ytick_26">
     <g id="line2d_41">
      <g>
       <use style="stroke:#000000;stroke-width:0.8;" x="654.517241" xlink:href="#mc6f827247c" y="83.107446"/>
      </g>
     </g>
     <g id="text_45">
      <!-- 0.0020 -->
      <g transform="translate(612.526616 86.906665)scale(0.1 -0.1)">
       <use xlink:href="#DejaVuSans-30"/>
       <use x="63.623047" xlink:href="#DejaVuSans-2e"/>
       <use x="95.410156" xlink:href="#DejaVuSans-30"/>
       <use x="159.033203" xlink:href="#DejaVuSans-30"/>
       <use x="222.65625" xlink:href="#DejaVuSans-32"/>
       <use x="286.279297" xlink:href="#DejaVuSans-30"/>
      </g>
     </g>
    </g>
    <g id="ytick_27">
     <g id="line2d_42">
      <g>
       <use style="stroke:#000000;stroke-width:0.8;" x="654.517241" xlink:href="#mc6f827247c" y="56.634308"/>
      </g>
     </g>
     <g id="text_46">
      <!-- 0.0025 -->
      <g transform="translate(612.526616 60.433526)scale(0.1 -0.1)">
       <use xlink:href="#DejaVuSans-30"/>
       <use x="63.623047" xlink:href="#DejaVuSans-2e"/>
       <use x="95.410156" xlink:href="#DejaVuSans-30"/>
       <use x="159.033203" xlink:href="#DejaVuSans-30"/>
       <use x="222.65625" xlink:href="#DejaVuSans-32"/>
       <use x="286.279297" xlink:href="#DejaVuSans-35"/>
      </g>
     </g>
    </g>
    <g id="ytick_28">
     <g id="line2d_43">
      <g>
       <use style="stroke:#000000;stroke-width:0.8;" x="654.517241" xlink:href="#mc6f827247c" y="30.161169"/>
      </g>
     </g>
     <g id="text_47">
      <!-- 0.0030 -->
      <g transform="translate(612.526616 33.960388)scale(0.1 -0.1)">
       <use xlink:href="#DejaVuSans-30"/>
       <use x="63.623047" xlink:href="#DejaVuSans-2e"/>
       <use x="95.410156" xlink:href="#DejaVuSans-30"/>
       <use x="159.033203" xlink:href="#DejaVuSans-30"/>
       <use x="222.65625" xlink:href="#DejaVuSans-33"/>
       <use x="286.279297" xlink:href="#DejaVuSans-30"/>
      </g>
     </g>
    </g>
   </g>
   <g id="line2d_44">
    <path clip-path="url(#p87047f8c61)" d="M 661.076803 188.910326 
L 663.142806 188.712314 
L 664.175808 188.495118 
L 665.20881 188.14077 
L 666.241811 187.584518 
L 667.274813 186.742885 
L 668.307815 185.514522 
L 669.340817 183.784226 
L 670.373818 181.430694 
L 671.40682 178.337894 
L 672.439822 174.409164 
L 673.472824 169.582246 
L 674.505825 163.842961 
L 675.538827 157.234995 
L 677.604831 141.892579 
L 682.769839 100.945853 
L 684.835843 87.764208 
L 686.901846 77.219453 
L 688.96785 68.548375 
L 692.066855 57.067029 
L 694.132859 50.215111 
L 695.16586 47.300897 
L 696.198862 44.914616 
L 697.231864 43.181474 
L 698.264866 42.187705 
L 699.297867 41.967802 
L 700.330869 42.502242 
L 701.363871 43.72472 
L 702.396873 45.536021 
L 703.429874 47.820814 
L 705.495878 53.36324 
L 708.594883 62.926938 
L 711.693888 73.370994 
L 713.759892 80.99431 
L 715.825895 89.302075 
L 718.924901 103.013607 
L 726.155913 136.725682 
L 728.221916 144.721226 
L 729.254918 148.149242 
L 730.28792 151.179202 
L 731.320922 153.828378 
L 732.353923 156.13326 
L 733.386925 158.141893 
L 735.452929 161.473978 
L 737.518932 164.18219 
L 739.584936 166.514305 
L 743.716943 170.697818 
L 756.112964 183.0672 
L 758.178967 184.734654 
L 760.244971 186.000907 
L 762.310974 186.795311 
L 764.376978 187.167946 
L 766.442981 187.246752 
L 770.574988 187.030066 
L 773.673994 186.93013 
L 775.739997 187.045845 
L 778.839002 187.530798 
L 784.004011 188.519607 
L 787.103016 188.83808 
L 791.235023 188.956654 
L 792.268025 188.945108 
L 792.268025 188.945108 
" style="fill:none;stroke:#1f77b4;stroke-linecap:square;stroke-width:1.5;"/>
   </g>
   <g id="patch_129">
    <path d="M 654.517241 189 
L 654.517241 25.92 
" style="fill:none;stroke:#000000;stroke-linecap:square;stroke-linejoin:miter;stroke-width:0.8;"/>
   </g>
   <g id="patch_130">
    <path d="M 798.827586 189 
L 798.827586 25.92 
" style="fill:none;stroke:#000000;stroke-linecap:square;stroke-linejoin:miter;stroke-width:0.8;"/>
   </g>
   <g id="patch_131">
    <path d="M 654.517241 189 
L 798.827586 189 
" style="fill:none;stroke:#000000;stroke-linecap:square;stroke-linejoin:miter;stroke-width:0.8;"/>
   </g>
   <g id="patch_132">
    <path d="M 654.517241 25.92 
L 798.827586 25.92 
" style="fill:none;stroke:#000000;stroke-linecap:square;stroke-linejoin:miter;stroke-width:0.8;"/>
   </g>
   <g id="text_48">
    <!-- X ** 2.0  -->
    <g transform="translate(701.299914 6.482625)scale(0.12 -0.12)">
     <use xlink:href="#DejaVuSans-58"/>
     <use x="68.505859" xlink:href="#DejaVuSans-20"/>
     <use x="100.292969" xlink:href="#DejaVuSans-2a"/>
     <use x="150.292969" xlink:href="#DejaVuSans-2a"/>
     <use x="200.292969" xlink:href="#DejaVuSans-20"/>
     <use x="232.080078" xlink:href="#DejaVuSans-32"/>
     <use x="295.703125" xlink:href="#DejaVuSans-2e"/>
     <use x="327.490234" xlink:href="#DejaVuSans-30"/>
     <use x="391.113281" xlink:href="#DejaVuSans-20"/>
    </g>
    <!-- skewness = 0.86 -->
    <g transform="translate(675.529914 19.92)scale(0.12 -0.12)">
     <use xlink:href="#DejaVuSans-73"/>
     <use x="52.099609" xlink:href="#DejaVuSans-6b"/>
     <use x="109.962891" xlink:href="#DejaVuSans-65"/>
     <use x="171.486328" xlink:href="#DejaVuSans-77"/>
     <use x="253.273438" xlink:href="#DejaVuSans-6e"/>
     <use x="316.652344" xlink:href="#DejaVuSans-65"/>
     <use x="378.175781" xlink:href="#DejaVuSans-73"/>
     <use x="430.275391" xlink:href="#DejaVuSans-73"/>
     <use x="482.375" xlink:href="#DejaVuSans-20"/>
     <use x="514.162109" xlink:href="#DejaVuSans-3d"/>
     <use x="597.951172" xlink:href="#DejaVuSans-20"/>
     <use x="629.738281" xlink:href="#DejaVuSans-30"/>
     <use x="693.361328" xlink:href="#DejaVuSans-2e"/>
     <use x="725.148438" xlink:href="#DejaVuSans-38"/>
     <use x="788.771484" xlink:href="#DejaVuSans-36"/>
    </g>
   </g>
  </g>
  <g id="axes_5">
   <g id="patch_133">
    <path d="M 827.689655 189 
L 972 189 
L 972 25.92 
L 827.689655 25.92 
z
" style="fill:#ffffff;"/>
   </g>
   <g id="patch_134">
    <path clip-path="url(#pf1234d1bfc)" d="M 846.953882 189 
L 851.553095 189 
L 851.553095 33.685714 
L 846.953882 33.685714 
z
" style="fill:#1f77b4;opacity:0.4;"/>
   </g>
   <g id="patch_135">
    <path clip-path="url(#pf1234d1bfc)" d="M 851.553095 189 
L 856.152307 189 
L 856.152307 68.756682 
L 851.553095 68.756682 
z
" style="fill:#1f77b4;opacity:0.4;"/>
   </g>
   <g id="patch_136">
    <path clip-path="url(#pf1234d1bfc)" d="M 856.152307 189 
L 860.75152 189 
L 860.75152 50.386175 
L 856.152307 50.386175 
z
" style="fill:#1f77b4;opacity:0.4;"/>
   </g>
   <g id="patch_137">
    <path clip-path="url(#pf1234d1bfc)" d="M 860.75152 189 
L 865.350733 189 
L 865.350733 95.477419 
L 860.75152 95.477419 
z
" style="fill:#1f77b4;opacity:0.4;"/>
   </g>
   <g id="patch_138">
    <path clip-path="url(#pf1234d1bfc)" d="M 865.350733 189 
L 869.949945 189 
L 869.949945 100.487558 
L 865.350733 100.487558 
z
" style="fill:#1f77b4;opacity:0.4;"/>
   </g>
   <g id="patch_139">
    <path clip-path="url(#pf1234d1bfc)" d="M 869.949945 189 
L 874.549158 189 
L 874.549158 122.198157 
L 869.949945 122.198157 
z
" style="fill:#1f77b4;opacity:0.4;"/>
   </g>
   <g id="patch_140">
    <path clip-path="url(#pf1234d1bfc)" d="M 874.549158 189 
L 879.148371 189 
L 879.148371 147.248848 
L 874.549158 147.248848 
z
" style="fill:#1f77b4;opacity:0.4;"/>
   </g>
   <g id="patch_141">
    <path clip-path="url(#pf1234d1bfc)" d="M 879.148371 189 
L 883.747583 189 
L 883.747583 147.248848 
L 879.148371 147.248848 
z
" style="fill:#1f77b4;opacity:0.4;"/>
   </g>
   <g id="patch_142">
    <path clip-path="url(#pf1234d1bfc)" d="M 883.747583 189 
L 888.346796 189 
L 888.346796 170.629493 
L 883.747583 170.629493 
z
" style="fill:#1f77b4;opacity:0.4;"/>
   </g>
   <g id="patch_143">
    <path clip-path="url(#pf1234d1bfc)" d="M 888.346796 189 
L 892.946009 189 
L 892.946009 173.969585 
L 888.346796 173.969585 
z
" style="fill:#1f77b4;opacity:0.4;"/>
   </g>
   <g id="patch_144">
    <path clip-path="url(#pf1234d1bfc)" d="M 892.946009 189 
L 897.545221 189 
L 897.545221 175.639631 
L 892.946009 175.639631 
z
" style="fill:#1f77b4;opacity:0.4;"/>
   </g>
   <g id="patch_145">
    <path clip-path="url(#pf1234d1bfc)" d="M 897.545221 189 
L 902.144434 189 
L 902.144434 178.979724 
L 897.545221 178.979724 
z
" style="fill:#1f77b4;opacity:0.4;"/>
   </g>
   <g id="patch_146">
    <path clip-path="url(#pf1234d1bfc)" d="M 902.144434 189 
L 906.743647 189 
L 906.743647 182.319816 
L 902.144434 182.319816 
z
" style="fill:#1f77b4;opacity:0.4;"/>
   </g>
   <g id="patch_147">
    <path clip-path="url(#pf1234d1bfc)" d="M 906.743647 189 
L 911.342859 189 
L 911.342859 180.64977 
L 906.743647 180.64977 
z
" style="fill:#1f77b4;opacity:0.4;"/>
   </g>
   <g id="patch_148">
    <path clip-path="url(#pf1234d1bfc)" d="M 911.342859 189 
L 915.942072 189 
L 915.942072 183.989862 
L 911.342859 183.989862 
z
" style="fill:#1f77b4;opacity:0.4;"/>
   </g>
   <g id="patch_149">
    <path clip-path="url(#pf1234d1bfc)" d="M 915.942072 189 
L 920.541285 189 
L 920.541285 182.319816 
L 915.942072 182.319816 
z
" style="fill:#1f77b4;opacity:0.4;"/>
   </g>
   <g id="patch_150">
    <path clip-path="url(#pf1234d1bfc)" d="M 920.541285 189 
L 925.140497 189 
L 925.140497 189 
L 920.541285 189 
z
" style="fill:#1f77b4;opacity:0.4;"/>
   </g>
   <g id="patch_151">
    <path clip-path="url(#pf1234d1bfc)" d="M 925.140497 189 
L 929.73971 189 
L 929.73971 189 
L 925.140497 189 
z
" style="fill:#1f77b4;opacity:0.4;"/>
   </g>
   <g id="patch_152">
    <path clip-path="url(#pf1234d1bfc)" d="M 929.73971 189 
L 934.338922 189 
L 934.338922 189 
L 929.73971 189 
z
" style="fill:#1f77b4;opacity:0.4;"/>
   </g>
   <g id="patch_153">
    <path clip-path="url(#pf1234d1bfc)" d="M 934.338922 189 
L 938.938135 189 
L 938.938135 187.329954 
L 934.338922 187.329954 
z
" style="fill:#1f77b4;opacity:0.4;"/>
   </g>
   <g id="patch_154">
    <path clip-path="url(#pf1234d1bfc)" d="M 938.938135 189 
L 943.537348 189 
L 943.537348 189 
L 938.938135 189 
z
" style="fill:#1f77b4;opacity:0.4;"/>
   </g>
   <g id="patch_155">
    <path clip-path="url(#pf1234d1bfc)" d="M 943.537348 189 
L 948.13656 189 
L 948.13656 187.329954 
L 943.537348 187.329954 
z
" style="fill:#1f77b4;opacity:0.4;"/>
   </g>
   <g id="patch_156">
    <path clip-path="url(#pf1234d1bfc)" d="M 948.13656 189 
L 952.735773 189 
L 952.735773 187.329954 
L 948.13656 187.329954 
z
" style="fill:#1f77b4;opacity:0.4;"/>
   </g>
   <g id="matplotlib.axis_9">
    <g id="xtick_13">
     <g id="line2d_45">
      <g>
       <use style="stroke:#000000;stroke-width:0.8;" x="846.953882" xlink:href="#mc5590be651" y="189"/>
      </g>
     </g>
     <g id="text_49">
      <!-- 0 -->
      <g transform="translate(843.772632 203.598437)scale(0.1 -0.1)">
       <use xlink:href="#DejaVuSans-30"/>
      </g>
     </g>
    </g>
    <g id="xtick_14">
     <g id="line2d_46">
      <g>
       <use style="stroke:#000000;stroke-width:0.8;" x="889.882599" xlink:href="#mc5590be651" y="189"/>
      </g>
     </g>
     <g id="text_50">
      <!-- 10000 -->
      <g transform="translate(873.976349 203.598437)scale(0.1 -0.1)">
       <use xlink:href="#DejaVuSans-31"/>
       <use x="63.623047" xlink:href="#DejaVuSans-30"/>
       <use x="127.246094" xlink:href="#DejaVuSans-30"/>
       <use x="190.869141" xlink:href="#DejaVuSans-30"/>
       <use x="254.492188" xlink:href="#DejaVuSans-30"/>
      </g>
     </g>
    </g>
    <g id="xtick_15">
     <g id="line2d_47">
      <g>
       <use style="stroke:#000000;stroke-width:0.8;" x="932.811315" xlink:href="#mc5590be651" y="189"/>
      </g>
     </g>
     <g id="text_51">
      <!-- 20000 -->
      <g transform="translate(916.905065 203.598437)scale(0.1 -0.1)">
       <use xlink:href="#DejaVuSans-32"/>
       <use x="63.623047" xlink:href="#DejaVuSans-30"/>
       <use x="127.246094" xlink:href="#DejaVuSans-30"/>
       <use x="190.869141" xlink:href="#DejaVuSans-30"/>
       <use x="254.492188" xlink:href="#DejaVuSans-30"/>
      </g>
     </g>
    </g>
    <g id="text_52">
     <!-- X -->
     <g transform="translate(896.419828 217.276563)scale(0.1 -0.1)">
      <use xlink:href="#DejaVuSans-58"/>
     </g>
    </g>
   </g>
   <g id="matplotlib.axis_10">
    <g id="ytick_29">
     <g id="line2d_48">
      <g>
       <use style="stroke:#000000;stroke-width:0.8;" x="827.689655" xlink:href="#mc6f827247c" y="189"/>
      </g>
     </g>
     <g id="text_53">
      <!-- 0.000000 -->
      <g transform="translate(772.97403 192.799219)scale(0.1 -0.1)">
       <use xlink:href="#DejaVuSans-30"/>
       <use x="63.623047" xlink:href="#DejaVuSans-2e"/>
       <use x="95.410156" xlink:href="#DejaVuSans-30"/>
       <use x="159.033203" xlink:href="#DejaVuSans-30"/>
       <use x="222.65625" xlink:href="#DejaVuSans-30"/>
       <use x="286.279297" xlink:href="#DejaVuSans-30"/>
       <use x="349.902344" xlink:href="#DejaVuSans-30"/>
       <use x="413.525391" xlink:href="#DejaVuSans-30"/>
      </g>
     </g>
    </g>
    <g id="ytick_30">
     <g id="line2d_49">
      <g>
       <use style="stroke:#000000;stroke-width:0.8;" x="827.689655" xlink:href="#mc6f827247c" y="166.634735"/>
      </g>
     </g>
     <g id="text_54">
      <!-- 0.000025 -->
      <g transform="translate(772.97403 170.433953)scale(0.1 -0.1)">
       <use xlink:href="#DejaVuSans-30"/>
       <use x="63.623047" xlink:href="#DejaVuSans-2e"/>
       <use x="95.410156" xlink:href="#DejaVuSans-30"/>
       <use x="159.033203" xlink:href="#DejaVuSans-30"/>
       <use x="222.65625" xlink:href="#DejaVuSans-30"/>
       <use x="286.279297" xlink:href="#DejaVuSans-30"/>
       <use x="349.902344" xlink:href="#DejaVuSans-32"/>
       <use x="413.525391" xlink:href="#DejaVuSans-35"/>
      </g>
     </g>
    </g>
    <g id="ytick_31">
     <g id="line2d_50">
      <g>
       <use style="stroke:#000000;stroke-width:0.8;" x="827.689655" xlink:href="#mc6f827247c" y="144.269469"/>
      </g>
     </g>
     <g id="text_55">
      <!-- 0.000050 -->
      <g transform="translate(772.97403 148.068688)scale(0.1 -0.1)">
       <use xlink:href="#DejaVuSans-30"/>
       <use x="63.623047" xlink:href="#DejaVuSans-2e"/>
       <use x="95.410156" xlink:href="#DejaVuSans-30"/>
       <use x="159.033203" xlink:href="#DejaVuSans-30"/>
       <use x="222.65625" xlink:href="#DejaVuSans-30"/>
       <use x="286.279297" xlink:href="#DejaVuSans-30"/>
       <use x="349.902344" xlink:href="#DejaVuSans-35"/>
       <use x="413.525391" xlink:href="#DejaVuSans-30"/>
      </g>
     </g>
    </g>
    <g id="ytick_32">
     <g id="line2d_51">
      <g>
       <use style="stroke:#000000;stroke-width:0.8;" x="827.689655" xlink:href="#mc6f827247c" y="121.904204"/>
      </g>
     </g>
     <g id="text_56">
      <!-- 0.000075 -->
      <g transform="translate(772.97403 125.703423)scale(0.1 -0.1)">
       <use xlink:href="#DejaVuSans-30"/>
       <use x="63.623047" xlink:href="#DejaVuSans-2e"/>
       <use x="95.410156" xlink:href="#DejaVuSans-30"/>
       <use x="159.033203" xlink:href="#DejaVuSans-30"/>
       <use x="222.65625" xlink:href="#DejaVuSans-30"/>
       <use x="286.279297" xlink:href="#DejaVuSans-30"/>
       <use x="349.902344" xlink:href="#DejaVuSans-37"/>
       <use x="413.525391" xlink:href="#DejaVuSans-35"/>
      </g>
     </g>
    </g>
    <g id="ytick_33">
     <g id="line2d_52">
      <g>
       <use style="stroke:#000000;stroke-width:0.8;" x="827.689655" xlink:href="#mc6f827247c" y="99.538939"/>
      </g>
     </g>
     <g id="text_57">
      <!-- 0.000100 -->
      <g transform="translate(772.97403 103.338157)scale(0.1 -0.1)">
       <use xlink:href="#DejaVuSans-30"/>
       <use x="63.623047" xlink:href="#DejaVuSans-2e"/>
       <use x="95.410156" xlink:href="#DejaVuSans-30"/>
       <use x="159.033203" xlink:href="#DejaVuSans-30"/>
       <use x="222.65625" xlink:href="#DejaVuSans-30"/>
       <use x="286.279297" xlink:href="#DejaVuSans-31"/>
       <use x="349.902344" xlink:href="#DejaVuSans-30"/>
       <use x="413.525391" xlink:href="#DejaVuSans-30"/>
      </g>
     </g>
    </g>
    <g id="ytick_34">
     <g id="line2d_53">
      <g>
       <use style="stroke:#000000;stroke-width:0.8;" x="827.689655" xlink:href="#mc6f827247c" y="77.173673"/>
      </g>
     </g>
     <g id="text_58">
      <!-- 0.000125 -->
      <g transform="translate(772.97403 80.972892)scale(0.1 -0.1)">
       <use xlink:href="#DejaVuSans-30"/>
       <use x="63.623047" xlink:href="#DejaVuSans-2e"/>
       <use x="95.410156" xlink:href="#DejaVuSans-30"/>
       <use x="159.033203" xlink:href="#DejaVuSans-30"/>
       <use x="222.65625" xlink:href="#DejaVuSans-30"/>
       <use x="286.279297" xlink:href="#DejaVuSans-31"/>
       <use x="349.902344" xlink:href="#DejaVuSans-32"/>
       <use x="413.525391" xlink:href="#DejaVuSans-35"/>
      </g>
     </g>
    </g>
    <g id="ytick_35">
     <g id="line2d_54">
      <g>
       <use style="stroke:#000000;stroke-width:0.8;" x="827.689655" xlink:href="#mc6f827247c" y="54.808408"/>
      </g>
     </g>
     <g id="text_59">
      <!-- 0.000150 -->
      <g transform="translate(772.97403 58.607627)scale(0.1 -0.1)">
       <use xlink:href="#DejaVuSans-30"/>
       <use x="63.623047" xlink:href="#DejaVuSans-2e"/>
       <use x="95.410156" xlink:href="#DejaVuSans-30"/>
       <use x="159.033203" xlink:href="#DejaVuSans-30"/>
       <use x="222.65625" xlink:href="#DejaVuSans-30"/>
       <use x="286.279297" xlink:href="#DejaVuSans-31"/>
       <use x="349.902344" xlink:href="#DejaVuSans-35"/>
       <use x="413.525391" xlink:href="#DejaVuSans-30"/>
      </g>
     </g>
    </g>
    <g id="ytick_36">
     <g id="line2d_55">
      <g>
       <use style="stroke:#000000;stroke-width:0.8;" x="827.689655" xlink:href="#mc6f827247c" y="32.443143"/>
      </g>
     </g>
     <g id="text_60">
      <!-- 0.000175 -->
      <g transform="translate(772.97403 36.242361)scale(0.1 -0.1)">
       <use xlink:href="#DejaVuSans-30"/>
       <use x="63.623047" xlink:href="#DejaVuSans-2e"/>
       <use x="95.410156" xlink:href="#DejaVuSans-30"/>
       <use x="159.033203" xlink:href="#DejaVuSans-30"/>
       <use x="222.65625" xlink:href="#DejaVuSans-30"/>
       <use x="286.279297" xlink:href="#DejaVuSans-31"/>
       <use x="349.902344" xlink:href="#DejaVuSans-37"/>
       <use x="413.525391" xlink:href="#DejaVuSans-35"/>
      </g>
     </g>
    </g>
   </g>
   <g id="line2d_56">
    <path clip-path="url(#pf1234d1bfc)" d="M 834.249216 188.753209 
L 835.282218 188.480915 
L 836.31522 187.954834 
L 837.348222 187.001088 
L 838.381223 185.37305 
L 839.414225 182.754744 
L 840.447227 178.787768 
L 841.480229 173.127409 
L 842.51323 165.524413 
L 843.546232 155.915987 
L 844.579234 144.498466 
L 848.711241 93.182343 
L 849.744243 82.800405 
L 850.777244 74.502903 
L 851.810246 68.396572 
L 852.843248 64.362912 
L 853.87625 62.153542 
L 854.909251 61.485935 
L 855.942253 62.107542 
L 856.975255 63.816697 
L 858.008257 66.449287 
L 859.041258 69.851579 
L 861.107262 78.290138 
L 866.272271 101.166085 
L 868.338274 109.194922 
L 872.470281 124.081958 
L 876.602288 138.276859 
L 881.767297 154.939176 
L 883.8333 161.035397 
L 884.866302 163.69278 
L 885.899304 165.99952 
L 886.932306 167.934444 
L 887.965307 169.519048 
L 888.998309 170.807629 
L 891.064313 172.777318 
L 893.130316 174.331488 
L 896.229321 176.359077 
L 898.295325 177.524215 
L 900.361328 178.480672 
L 903.460334 179.558807 
L 906.559339 180.662791 
L 909.658344 182.172406 
L 911.724348 183.174546 
L 913.790351 183.935013 
L 919.988362 185.707557 
L 925.153371 187.900582 
L 927.219374 188.412886 
L 929.285378 188.594026 
L 931.351381 188.53183 
L 935.483388 188.2677 
L 938.582393 188.322096 
L 941.681399 188.389283 
L 944.780404 188.19038 
L 948.912411 187.845 
L 950.978414 187.843747 
L 954.07742 188.112052 
L 960.27543 188.840686 
L 963.374435 188.949031 
L 965.440439 188.883475 
L 965.440439 188.883475 
" style="fill:none;stroke:#1f77b4;stroke-linecap:square;stroke-width:1.5;"/>
   </g>
   <g id="patch_157">
    <path d="M 827.689655 189 
L 827.689655 25.92 
" style="fill:none;stroke:#000000;stroke-linecap:square;stroke-linejoin:miter;stroke-width:0.8;"/>
   </g>
   <g id="patch_158">
    <path d="M 972 189 
L 972 25.92 
" style="fill:none;stroke:#000000;stroke-linecap:square;stroke-linejoin:miter;stroke-width:0.8;"/>
   </g>
   <g id="patch_159">
    <path d="M 827.689655 189 
L 972 189 
" style="fill:none;stroke:#000000;stroke-linecap:square;stroke-linejoin:miter;stroke-width:0.8;"/>
   </g>
   <g id="patch_160">
    <path d="M 827.689655 25.92 
L 972 25.92 
" style="fill:none;stroke:#000000;stroke-linecap:square;stroke-linejoin:miter;stroke-width:0.8;"/>
   </g>
   <g id="text_61">
    <!-- X ** 3.0  -->
    <g transform="translate(874.472328 6.482625)scale(0.12 -0.12)">
     <use xlink:href="#DejaVuSans-58"/>
     <use x="68.505859" xlink:href="#DejaVuSans-20"/>
     <use x="100.292969" xlink:href="#DejaVuSans-2a"/>
     <use x="150.292969" xlink:href="#DejaVuSans-2a"/>
     <use x="200.292969" xlink:href="#DejaVuSans-20"/>
     <use x="232.080078" xlink:href="#DejaVuSans-33"/>
     <use x="295.703125" xlink:href="#DejaVuSans-2e"/>
     <use x="327.490234" xlink:href="#DejaVuSans-30"/>
     <use x="391.113281" xlink:href="#DejaVuSans-20"/>
    </g>
    <!-- skewness = 1.72 -->
    <g transform="translate(848.702328 19.92)scale(0.12 -0.12)">
     <use xlink:href="#DejaVuSans-73"/>
     <use x="52.099609" xlink:href="#DejaVuSans-6b"/>
     <use x="109.962891" xlink:href="#DejaVuSans-65"/>
     <use x="171.486328" xlink:href="#DejaVuSans-77"/>
     <use x="253.273438" xlink:href="#DejaVuSans-6e"/>
     <use x="316.652344" xlink:href="#DejaVuSans-65"/>
     <use x="378.175781" xlink:href="#DejaVuSans-73"/>
     <use x="430.275391" xlink:href="#DejaVuSans-73"/>
     <use x="482.375" xlink:href="#DejaVuSans-20"/>
     <use x="514.162109" xlink:href="#DejaVuSans-3d"/>
     <use x="597.951172" xlink:href="#DejaVuSans-20"/>
     <use x="629.738281" xlink:href="#DejaVuSans-31"/>
     <use x="693.361328" xlink:href="#DejaVuSans-2e"/>
     <use x="725.148438" xlink:href="#DejaVuSans-37"/>
     <use x="788.771484" xlink:href="#DejaVuSans-32"/>
    </g>
   </g>
  </g>
 </g>
 <defs>
  <clipPath id="pcb5742fe5b">
   <rect height="163.08" width="144.310345" x="135" y="25.92"/>
  </clipPath>
  <clipPath id="pd898c952b9">
   <rect height="163.08" width="144.310345" x="308.172414" y="25.92"/>
  </clipPath>
  <clipPath id="pbdc29b632c">
   <rect height="163.08" width="144.310345" x="481.344828" y="25.92"/>
  </clipPath>
  <clipPath id="p87047f8c61">
   <rect height="163.08" width="144.310345" x="654.517241" y="25.92"/>
  </clipPath>
  <clipPath id="pf1234d1bfc">
   <rect height="163.08" width="144.310345" x="827.689655" y="25.92"/>
  </clipPath>
 </defs>
</svg>
