<?xml version="1.0" encoding="utf-8" standalone="no"?>
<!DOCTYPE svg PUBLIC "-//W3C//DTD SVG 1.1//EN"
  "http://www.w3.org/Graphics/SVG/1.1/DTD/svg11.dtd">
<!-- Created with matplotlib (http://matplotlib.org/) -->
<svg height="432pt" version="1.1" viewBox="0 0 864 432" width="864pt" xmlns="http://www.w3.org/2000/svg" xmlns:xlink="http://www.w3.org/1999/xlink">
 <defs>
  <style type="text/css">
*{stroke-linecap:butt;stroke-linejoin:round;}
  </style>
 </defs>
 <g id="figure_1">
  <g id="patch_1">
   <path d="M 0 432 
L 864 432 
L 864 0 
L 0 0 
z
" style="fill:#ffffff;"/>
  </g>
  <g id="patch_2">
   <path d="M 108 378 
L 777.6 378 
L 777.6 51.84 
L 108 51.84 
z
" style="fill:#ffffff;"/>
  </g>
  <g id="pane3d_1">
   <g id="patch_3">
    <path d="M 196.765827 305.930135 
L 388.408851 225.963093 
L 385.218197 73.159201 
L 182.88982 145.007943 
" style="fill:#f2f2f2;opacity:0.5;stroke:#f2f2f2;stroke-linejoin:miter;"/>
   </g>
  </g>
  <g id="pane3d_2">
   <g id="patch_4">
    <path d="M 388.408851 225.963093 
L 698.852531 270.66983 
L 711.841122 113.258198 
L 385.218197 73.159201 
" style="fill:#e6e6e6;opacity:0.5;stroke:#e6e6e6;stroke-linejoin:miter;"/>
   </g>
  </g>
  <g id="pane3d_3">
   <g id="patch_5">
    <path d="M 196.765827 305.930135 
L 523.394526 357.998414 
L 698.852531 270.66983 
L 388.408851 225.963093 
" style="fill:#ececec;opacity:0.5;stroke:#ececec;stroke-linejoin:miter;"/>
   </g>
  </g>
  <g id="axis3d_1">
   <g id="line2d_1">
    <path d="M 196.765827 305.930135 
L 523.394526 357.998414 
" style="fill:none;stroke:#000000;stroke-linecap:square;stroke-width:0.8;"/>
   </g>
   <g id="Line3DCollection_1">
    <path d="M 216.679222 309.104553 
L 407.395195 228.697301 
L 405.153231 75.606595 
" style="fill:none;stroke:#b0b0b0;stroke-width:0.8;"/>
    <path d="M 262.624782 316.428791 
L 451.172148 235.001583 
L 451.137811 81.252051 
" style="fill:none;stroke:#b0b0b0;stroke-width:0.8;"/>
    <path d="M 309.17714 323.849759 
L 495.485111 241.383056 
L 497.714195 86.970163 
" style="fill:none;stroke:#b0b0b0;stroke-width:0.8;"/>
    <path d="M 356.348399 331.369387 
L 540.34399 247.843146 
L 544.893879 92.76234 
" style="fill:none;stroke:#b0b0b0;stroke-width:0.8;"/>
    <path d="M 404.150982 338.989655 
L 585.758935 254.383315 
L 592.688662 98.630033 
" style="fill:none;stroke:#b0b0b0;stroke-width:0.8;"/>
    <path d="M 452.59765 346.712597 
L 631.74035 261.00506 
L 641.110653 104.574727 
" style="fill:none;stroke:#b0b0b0;stroke-width:0.8;"/>
    <path d="M 501.701507 354.540303 
L 678.298899 267.709918 
L 690.172279 110.597948 
" style="fill:none;stroke:#b0b0b0;stroke-width:0.8;"/>
   </g>
   <g id="xtick_1">
    <g id="line2d_2">
     <path d="M 218.322339 308.411803 
L 213.386861 310.492637 
" style="fill:none;stroke:#000000;stroke-linecap:square;stroke-width:0.8;"/>
    </g>
    <g id="text_1">
     <!-- −6 -->
     <defs>
      <path d="M 10.59375 35.5 
L 73.1875 35.5 
L 73.1875 27.203125 
L 10.59375 27.203125 
z
" id="DejaVuSans-2212"/>
      <path d="M 33.015625 40.375 
Q 26.375 40.375 22.484375 35.828125 
Q 18.609375 31.296875 18.609375 23.390625 
Q 18.609375 15.53125 22.484375 10.953125 
Q 26.375 6.390625 33.015625 6.390625 
Q 39.65625 6.390625 43.53125 10.953125 
Q 47.40625 15.53125 47.40625 23.390625 
Q 47.40625 31.296875 43.53125 35.828125 
Q 39.65625 40.375 33.015625 40.375 
z
M 52.59375 71.296875 
L 52.59375 62.3125 
Q 48.875 64.0625 45.09375 64.984375 
Q 41.3125 65.921875 37.59375 65.921875 
Q 27.828125 65.921875 22.671875 59.328125 
Q 17.53125 52.734375 16.796875 39.40625 
Q 19.671875 43.65625 24.015625 45.921875 
Q 28.375 48.1875 33.59375 48.1875 
Q 44.578125 48.1875 50.953125 41.515625 
Q 57.328125 34.859375 57.328125 23.390625 
Q 57.328125 12.15625 50.6875 5.359375 
Q 44.046875 -1.421875 33.015625 -1.421875 
Q 20.359375 -1.421875 13.671875 8.265625 
Q 6.984375 17.96875 6.984375 36.375 
Q 6.984375 53.65625 15.1875 63.9375 
Q 23.390625 74.21875 37.203125 74.21875 
Q 40.921875 74.21875 44.703125 73.484375 
Q 48.484375 72.75 52.59375 71.296875 
z
" id="DejaVuSans-36"/>
     </defs>
     <g transform="translate(200.7236 327.338249)scale(0.1 -0.1)">
      <use xlink:href="#DejaVuSans-2212"/>
      <use x="83.789062" xlink:href="#DejaVuSans-36"/>
     </g>
    </g>
   </g>
   <g id="xtick_2">
    <g id="line2d_3">
     <path d="M 264.249975 315.726925 
L 259.368293 317.835158 
" style="fill:none;stroke:#000000;stroke-linecap:square;stroke-width:0.8;"/>
    </g>
    <g id="text_2">
     <!-- −4 -->
     <defs>
      <path d="M 37.796875 64.3125 
L 12.890625 25.390625 
L 37.796875 25.390625 
z
M 35.203125 72.90625 
L 47.609375 72.90625 
L 47.609375 25.390625 
L 58.015625 25.390625 
L 58.015625 17.1875 
L 47.609375 17.1875 
L 47.609375 0 
L 37.796875 0 
L 37.796875 17.1875 
L 4.890625 17.1875 
L 4.890625 26.703125 
z
" id="DejaVuSans-34"/>
     </defs>
     <g transform="translate(246.665897 334.740804)scale(0.1 -0.1)">
      <use xlink:href="#DejaVuSans-2212"/>
      <use x="83.789062" xlink:href="#DejaVuSans-34"/>
     </g>
    </g>
   </g>
   <g id="xtick_3">
    <g id="line2d_4">
     <path d="M 310.783793 323.138596 
L 305.957763 325.274773 
" style="fill:none;stroke:#000000;stroke-linecap:square;stroke-width:0.8;"/>
    </g>
    <g id="text_3">
     <!-- −2 -->
     <defs>
      <path d="M 19.1875 8.296875 
L 53.609375 8.296875 
L 53.609375 0 
L 7.328125 0 
L 7.328125 8.296875 
Q 12.9375 14.109375 22.625 23.890625 
Q 32.328125 33.6875 34.8125 36.53125 
Q 39.546875 41.84375 41.421875 45.53125 
Q 43.3125 49.21875 43.3125 52.78125 
Q 43.3125 58.59375 39.234375 62.25 
Q 35.15625 65.921875 28.609375 65.921875 
Q 23.96875 65.921875 18.8125 64.3125 
Q 13.671875 62.703125 7.8125 59.421875 
L 7.8125 69.390625 
Q 13.765625 71.78125 18.9375 73 
Q 24.125 74.21875 28.421875 74.21875 
Q 39.75 74.21875 46.484375 68.546875 
Q 53.21875 62.890625 53.21875 53.421875 
Q 53.21875 48.921875 51.53125 44.890625 
Q 49.859375 40.875 45.40625 35.40625 
Q 44.1875 33.984375 37.640625 27.21875 
Q 31.109375 20.453125 19.1875 8.296875 
z
" id="DejaVuSans-32"/>
     </defs>
     <g transform="translate(293.215657 342.241238)scale(0.1 -0.1)">
      <use xlink:href="#DejaVuSans-2212"/>
      <use x="83.789062" xlink:href="#DejaVuSans-32"/>
     </g>
    </g>
   </g>
   <g id="xtick_4">
    <g id="line2d_5">
     <path d="M 357.935873 330.648741 
L 353.167412 332.813421 
" style="fill:none;stroke:#000000;stroke-linecap:square;stroke-width:0.8;"/>
    </g>
    <g id="text_4">
     <!-- 0 -->
     <defs>
      <path d="M 31.78125 66.40625 
Q 24.171875 66.40625 20.328125 58.90625 
Q 16.5 51.421875 16.5 36.375 
Q 16.5 21.390625 20.328125 13.890625 
Q 24.171875 6.390625 31.78125 6.390625 
Q 39.453125 6.390625 43.28125 13.890625 
Q 47.125 21.390625 47.125 36.375 
Q 47.125 51.421875 43.28125 58.90625 
Q 39.453125 66.40625 31.78125 66.40625 
z
M 31.78125 74.21875 
Q 44.046875 74.21875 50.515625 64.515625 
Q 56.984375 54.828125 56.984375 36.375 
Q 56.984375 17.96875 50.515625 8.265625 
Q 44.046875 -1.421875 31.78125 -1.421875 
Q 19.53125 -1.421875 13.0625 8.265625 
Q 6.59375 17.96875 6.59375 36.375 
Q 6.59375 54.828125 13.0625 64.515625 
Q 19.53125 74.21875 31.78125 74.21875 
z
" id="DejaVuSans-30"/>
     </defs>
     <g transform="translate(344.57485 349.841504)scale(0.1 -0.1)">
      <use xlink:href="#DejaVuSans-30"/>
     </g>
    </g>
   </g>
   <g id="xtick_5">
    <g id="line2d_6">
     <path d="M 405.718618 338.259335 
L 401.009706 340.453093 
" style="fill:none;stroke:#000000;stroke-linecap:square;stroke-width:0.8;"/>
    </g>
    <g id="text_5">
     <!-- 2 -->
     <g transform="translate(392.376243 357.54361)scale(0.1 -0.1)">
      <use xlink:href="#DejaVuSans-32"/>
     </g>
    </g>
   </g>
   <g id="xtick_6">
    <g id="line2d_7">
     <path d="M 454.144768 345.972407 
L 449.497448 348.195832 
" style="fill:none;stroke:#000000;stroke-linecap:square;stroke-width:0.8;"/>
    </g>
    <g id="text_6">
     <!-- 4 -->
     <g transform="translate(440.822469 365.349616)scale(0.1 -0.1)">
      <use xlink:href="#DejaVuSans-34"/>
     </g>
    </g>
   </g>
   <g id="xtick_7">
    <g id="line2d_8">
     <path d="M 503.227405 353.790041 
L 498.643787 356.04374 
" style="fill:none;stroke:#000000;stroke-linecap:square;stroke-width:0.8;"/>
    </g>
    <g id="text_7">
     <!-- 6 -->
     <g transform="translate(489.926665 373.261638)scale(0.1 -0.1)">
      <use xlink:href="#DejaVuSans-36"/>
     </g>
    </g>
   </g>
  </g>
  <g id="axis3d_2">
   <g id="line2d_9">
    <path d="M 698.852531 270.66983 
L 523.394526 357.998414 
" style="fill:none;stroke:#000000;stroke-linecap:square;stroke-width:0.8;"/>
   </g>
   <g id="Line3DCollection_2">
    <path d="M 196.743922 140.088219 
L 209.840678 300.474381 
L 535.402615 352.021773 
" style="fill:none;stroke:#b0b0b0;stroke-width:0.8;"/>
    <path d="M 227.879236 129.031771 
L 239.250176 288.202655 
L 562.392527 338.588412 
" style="fill:none;stroke:#b0b0b0;stroke-width:0.8;"/>
    <path d="M 258.296261 118.230395 
L 268.015269 276.199822 
L 588.764163 325.462777 
" style="fill:none;stroke:#b0b0b0;stroke-width:0.8;"/>
    <path d="M 288.01957 107.675363 
L 296.156906 264.457138 
L 614.538528 312.634415 
" style="fill:none;stroke:#b0b0b0;stroke-width:0.8;"/>
    <path d="M 317.072627 97.358345 
L 323.695139 252.966237 
L 639.735685 300.09334 
" style="fill:none;stroke:#b0b0b0;stroke-width:0.8;"/>
    <path d="M 345.477851 87.271378 
L 350.649169 241.719106 
L 664.374808 287.830008 
" style="fill:none;stroke:#b0b0b0;stroke-width:0.8;"/>
    <path d="M 373.25667 77.406854 
L 377.037392 230.708071 
L 688.474233 275.835294 
" style="fill:none;stroke:#b0b0b0;stroke-width:0.8;"/>
   </g>
   <g id="xtick_8">
    <g id="line2d_10">
     <path d="M 532.677949 351.590367 
L 540.858039 352.88555 
" style="fill:none;stroke:#000000;stroke-linecap:square;stroke-width:0.8;"/>
    </g>
    <g id="text_8">
     <!-- −6 -->
     <g transform="translate(542.937504 368.948416)scale(0.1 -0.1)">
      <use xlink:href="#DejaVuSans-2212"/>
      <use x="83.789062" xlink:href="#DejaVuSans-36"/>
     </g>
    </g>
   </g>
   <g id="xtick_9">
    <g id="line2d_11">
     <path d="M 559.689492 338.166943 
L 567.80457 339.432281 
" style="fill:none;stroke:#000000;stroke-linecap:square;stroke-width:0.8;"/>
    </g>
    <g id="text_9">
     <!-- −4 -->
     <g transform="translate(569.746248 355.411244)scale(0.1 -0.1)">
      <use xlink:href="#DejaVuSans-2212"/>
      <use x="83.789062" xlink:href="#DejaVuSans-34"/>
     </g>
    </g>
   </g>
   <g id="xtick_10">
    <g id="line2d_12">
     <path d="M 586.082489 325.050906 
L 594.133369 326.287419 
" style="fill:none;stroke:#000000;stroke-linecap:square;stroke-width:0.8;"/>
    </g>
    <g id="text_10">
     <!-- −2 -->
     <g transform="translate(595.941058 342.184081)scale(0.1 -0.1)">
      <use xlink:href="#DejaVuSans-2212"/>
      <use x="83.789062" xlink:href="#DejaVuSans-32"/>
     </g>
    </g>
   </g>
   <g id="xtick_11">
    <g id="line2d_13">
     <path d="M 611.877945 312.231818 
L 619.865438 313.44048 
" style="fill:none;stroke:#000000;stroke-linecap:square;stroke-width:0.8;"/>
    </g>
    <g id="text_11">
     <!-- 0 -->
     <g transform="translate(625.732628 329.256397)scale(0.1 -0.1)">
      <use xlink:href="#DejaVuSans-30"/>
     </g>
    </g>
   </g>
   <g id="xtick_12">
    <g id="line2d_14">
     <path d="M 637.095927 299.699707 
L 645.020836 300.881448 
" style="fill:none;stroke:#000000;stroke-linecap:square;stroke-width:0.8;"/>
    </g>
    <g id="text_12">
     <!-- 2 -->
     <g transform="translate(650.761187 316.618136)scale(0.1 -0.1)">
      <use xlink:href="#DejaVuSans-32"/>
     </g>
    </g>
   </g>
   <g id="xtick_13">
    <g id="line2d_15">
     <path d="M 661.75561 287.445043 
L 669.618734 288.600752 
" style="fill:none;stroke:#000000;stroke-linecap:square;stroke-width:0.8;"/>
    </g>
    <g id="text_13">
     <!-- 4 -->
     <g transform="translate(675.235614 304.259686)scale(0.1 -0.1)">
      <use xlink:href="#DejaVuSans-34"/>
     </g>
    </g>
   </g>
   <g id="xtick_14">
    <g id="line2d_16">
     <path d="M 685.875332 275.458713 
L 693.677461 276.589242 
" style="fill:none;stroke:#000000;stroke-linecap:square;stroke-width:0.8;"/>
    </g>
    <g id="text_14">
     <!-- 6 -->
     <g transform="translate(699.174111 292.171856)scale(0.1 -0.1)">
      <use xlink:href="#DejaVuSans-36"/>
     </g>
    </g>
   </g>
  </g>
  <g id="axis3d_3">
   <g id="line2d_17">
    <path d="M 698.852531 270.66983 
L 711.841122 113.258198 
" style="fill:none;stroke:#000000;stroke-linecap:square;stroke-width:0.8;"/>
   </g>
   <g id="Line3DCollection_3">
    <path d="M 700.591704 249.592404 
L 387.980815 205.464012 
L 194.910597 284.41475 
" style="fill:none;stroke:#b0b0b0;stroke-width:0.8;"/>
    <path d="M 702.102607 231.281437 
L 387.609163 187.665191 
L 193.298177 265.715259 
" style="fill:none;stroke:#b0b0b0;stroke-width:0.8;"/>
    <path d="M 703.631977 212.746662 
L 387.233161 169.658013 
L 191.665391 246.779587 
" style="fill:none;stroke:#b0b0b0;stroke-width:0.8;"/>
    <path d="M 705.180154 193.983953 
L 386.852731 151.438797 
L 190.011851 227.603232 
" style="fill:none;stroke:#b0b0b0;stroke-width:0.8;"/>
    <path d="M 706.747489 174.989078 
L 386.467794 133.003775 
L 188.337159 208.181576 
" style="fill:none;stroke:#b0b0b0;stroke-width:0.8;"/>
    <path d="M 708.334338 155.757701 
L 386.078271 114.349091 
L 186.640907 188.509881 
" style="fill:none;stroke:#b0b0b0;stroke-width:0.8;"/>
    <path d="M 709.941068 136.285379 
L 385.684079 95.470794 
L 184.922676 168.583287 
" style="fill:none;stroke:#b0b0b0;stroke-width:0.8;"/>
   </g>
   <g id="xtick_15">
    <g id="line2d_18">
     <path d="M 697.982764 249.224124 
L 705.815042 250.329735 
" style="fill:none;stroke:#000000;stroke-linecap:square;stroke-width:0.8;"/>
    </g>
    <g id="text_15">
     <!-- −0.75 -->
     <defs>
      <path d="M 10.6875 12.40625 
L 21 12.40625 
L 21 0 
L 10.6875 0 
z
" id="DejaVuSans-2e"/>
      <path d="M 8.203125 72.90625 
L 55.078125 72.90625 
L 55.078125 68.703125 
L 28.609375 0 
L 18.3125 0 
L 43.21875 64.59375 
L 8.203125 64.59375 
z
" id="DejaVuSans-37"/>
      <path d="M 10.796875 72.90625 
L 49.515625 72.90625 
L 49.515625 64.59375 
L 19.828125 64.59375 
L 19.828125 46.734375 
Q 21.96875 47.46875 24.109375 47.828125 
Q 26.265625 48.1875 28.421875 48.1875 
Q 40.625 48.1875 47.75 41.5 
Q 54.890625 34.8125 54.890625 23.390625 
Q 54.890625 11.625 47.5625 5.09375 
Q 40.234375 -1.421875 26.90625 -1.421875 
Q 22.3125 -1.421875 17.546875 -0.640625 
Q 12.796875 0.140625 7.71875 1.703125 
L 7.71875 11.625 
Q 12.109375 9.234375 16.796875 8.0625 
Q 21.484375 6.890625 26.703125 6.890625 
Q 35.15625 6.890625 40.078125 11.328125 
Q 45.015625 15.765625 45.015625 23.390625 
Q 45.015625 31 40.078125 35.4375 
Q 35.15625 39.890625 26.703125 39.890625 
Q 22.75 39.890625 18.8125 39.015625 
Q 14.890625 38.140625 10.796875 36.28125 
z
" id="DejaVuSans-35"/>
     </defs>
     <g transform="translate(706.949073 255.697906)scale(0.1 -0.1)">
      <use xlink:href="#DejaVuSans-2212"/>
      <use x="83.789062" xlink:href="#DejaVuSans-30"/>
      <use x="147.412109" xlink:href="#DejaVuSans-2e"/>
      <use x="179.199219" xlink:href="#DejaVuSans-37"/>
      <use x="242.822266" xlink:href="#DejaVuSans-35"/>
     </g>
    </g>
   </g>
   <g id="xtick_16">
    <g id="line2d_19">
     <path d="M 699.477296 230.917339 
L 707.358755 232.010398 
" style="fill:none;stroke:#000000;stroke-linecap:square;stroke-width:0.8;"/>
    </g>
    <g id="text_16">
     <!-- −0.50 -->
     <g transform="translate(708.589329 237.403904)scale(0.1 -0.1)">
      <use xlink:href="#DejaVuSans-2212"/>
      <use x="83.789062" xlink:href="#DejaVuSans-30"/>
      <use x="147.412109" xlink:href="#DejaVuSans-2e"/>
      <use x="179.199219" xlink:href="#DejaVuSans-35"/>
      <use x="242.822266" xlink:href="#DejaVuSans-30"/>
     </g>
    </g>
   </g>
   <g id="xtick_17">
    <g id="line2d_20">
     <path d="M 700.990088 212.386878 
L 708.921349 213.466994 
" style="fill:none;stroke:#000000;stroke-linecap:square;stroke-width:0.8;"/>
    </g>
    <g id="text_17">
     <!-- −0.25 -->
     <g transform="translate(710.249605 218.886622)scale(0.1 -0.1)">
      <use xlink:href="#DejaVuSans-2212"/>
      <use x="83.789062" xlink:href="#DejaVuSans-30"/>
      <use x="147.412109" xlink:href="#DejaVuSans-2e"/>
      <use x="179.199219" xlink:href="#DejaVuSans-32"/>
      <use x="242.822266" xlink:href="#DejaVuSans-35"/>
     </g>
    </g>
   </g>
   <g id="xtick_18">
    <g id="line2d_21">
     <path d="M 702.521478 193.628615 
L 710.503174 194.695386 
" style="fill:none;stroke:#000000;stroke-linecap:square;stroke-width:0.8;"/>
    </g>
    <g id="text_18">
     <!-- 0.00 -->
     <g transform="translate(716.120113 200.141947)scale(0.1 -0.1)">
      <use xlink:href="#DejaVuSans-30"/>
      <use x="63.623047" xlink:href="#DejaVuSans-2e"/>
      <use x="95.410156" xlink:href="#DejaVuSans-30"/>
      <use x="159.033203" xlink:href="#DejaVuSans-30"/>
     </g>
    </g>
   </g>
   <g id="xtick_19">
    <g id="line2d_22">
     <path d="M 704.07181 174.638325 
L 712.104585 175.691337 
" style="fill:none;stroke:#000000;stroke-linecap:square;stroke-width:0.8;"/>
    </g>
    <g id="text_19">
     <!-- 0.25 -->
     <g transform="translate(717.821543 181.165666)scale(0.1 -0.1)">
      <use xlink:href="#DejaVuSans-30"/>
      <use x="63.623047" xlink:href="#DejaVuSans-2e"/>
      <use x="95.410156" xlink:href="#DejaVuSans-32"/>
      <use x="159.033203" xlink:href="#DejaVuSans-35"/>
     </g>
    </g>
   </g>
   <g id="xtick_20">
    <g id="line2d_23">
     <path d="M 705.641437 155.411675 
L 713.72595 156.450502 
" style="fill:none;stroke:#000000;stroke-linecap:square;stroke-width:0.8;"/>
    </g>
    <g id="text_20">
     <!-- 0.50 -->
     <g transform="translate(719.544127 161.953459)scale(0.1 -0.1)">
      <use xlink:href="#DejaVuSans-30"/>
      <use x="63.623047" xlink:href="#DejaVuSans-2e"/>
      <use x="95.410156" xlink:href="#DejaVuSans-35"/>
      <use x="159.033203" xlink:href="#DejaVuSans-30"/>
     </g>
    </g>
   </g>
   <g id="xtick_21">
    <g id="line2d_24">
     <path d="M 707.230724 135.944225 
L 715.367643 136.968428 
" style="fill:none;stroke:#000000;stroke-linecap:square;stroke-width:0.8;"/>
    </g>
    <g id="text_21">
     <!-- 0.75 -->
     <g transform="translate(721.28826 142.500899)scale(0.1 -0.1)">
      <use xlink:href="#DejaVuSans-30"/>
      <use x="63.623047" xlink:href="#DejaVuSans-2e"/>
      <use x="95.410156" xlink:href="#DejaVuSans-37"/>
      <use x="159.033203" xlink:href="#DejaVuSans-35"/>
     </g>
    </g>
   </g>
  </g>
  <g id="axes_1">
   <g id="Line3DCollection_4">
    <path clip-path="url(#p9d0e0eadb1)" d="M 341.954703 300.656183 
L 339.767732 299.9554 
L 335.276098 297.857438 
L 328.549137 295.108445 
L 327.343699 294.523369 
L 323.286722 291.754163 
L 320.684249 290.015656 
L 318.686808 288.148914 
L 316.705293 285.948869 
L 315.31383 284.054871 
L 314.675864 282.206709 
L 313.591298 279.299021 
L 313.666388 278.643957 
L 314.936186 275.450939 
L 315.343156 273.118298 
L 316.068675 272.256903 
L 319.323906 269.404307 
L 322.853765 266.610821 
L 326.741313 263.888406 
L 331.336537 261.288951 
L 337.060773 258.874385 
L 343.909153 256.642291 
L 351.453696 254.527338 
L 359.341963 252.47619 
L 367.489019 250.475712 
L 370.056391 249.930377 
L 377.711195 248.793192 
L 387.772787 247.097186 
L 389.913312 246.790432 
L 400.038945 245.734374 
L 406.412088 245.05634 
L 413.261606 244.519441 
L 421.352483 243.975148 
L 428.335528 243.58139 
L 435.165144 243.370619 
L 445.951639 243.018092 
L 448.38841 243.016086 
L 460.309953 243.226653 
L 469.064666 243.254036 
L 472.310015 243.404919 
L 483.107315 244.116044 
L 493.754111 244.901415 
L 504.204401 245.78273 
L 514.261869 246.849559 
L 523.691082 248.211019 
L 532.497454 249.869389 
L 540.923981 251.718718 
L 549.170101 253.670722 
L 557.28432 255.704731 
L 559.515995 256.350608 
L 564.248279 258.293813 
L 571.318103 260.862065 
L 572.612282 261.411932 
L 577.167771 264.030174 
L 580.105215 265.68726 
L 582.497936 267.478176 
L 584.971699 269.604441 
L 586.806451 271.448576 
L 587.895135 273.260391 
L 589.703543 276.13581 
L 589.794743 276.787852 
L 589.334876 279.98877 
L 589.520596 282.351203 
L 589.008506 283.228787 
L 586.435016 286.155201 
L 583.538849 289.051421 
L 580.227722 291.903403 
L 576.123327 294.654119 
L 570.766132 297.233649 
L 564.150019 299.63949 
L 556.725954 301.938152 
L 548.86867 304.18542 
L 540.667598 306.394406 
L 538.055744 306.999559 
L 530.160767 308.265616 
L 519.756845 310.164273 
L 517.527653 310.509024 
L 506.90362 311.699063 
L 500.195479 312.465718 
L 492.95052 313.074238 
L 484.367088 313.69245 
L 476.940399 314.140508 
L 469.659638 314.38063 
L 458.148553 314.782694 
L 455.545312 314.784984 
L 442.812963 314.544759 
L 433.464941 314.513533 
L 430.005961 314.34154 
L 418.526374 313.532292 
L 407.245535 312.641178 
L 396.218694 311.644465 
L 385.670523 310.442541 
L 375.874669 308.915936 
L 366.836652 307.067317 
L 358.2904 305.01983 
L 350.014103 302.87451 
L 341.954703 300.656183 
" style="fill:none;stroke:#8000ff;stroke-width:1.5;"/>
    <path clip-path="url(#p9d0e0eadb1)" d="M 362.415043 297.399699 
L 370.192665 299.737638 
L 378.905062 301.683175 
L 388.192302 303.391502 
L 397.956373 304.903025 
L 408.193898 306.216113 
L 418.994907 307.286532 
L 430.704691 307.95213 
L 437.0907 307.987994 
L 443.159149 308.2819 
L 456.091679 308.393827 
L 461.264896 308.197599 
L 470.057271 308.025821 
L 479.373349 307.475258 
L 485.311864 307.050052 
L 494.386353 306.284006 
L 502.265165 305.263432 
L 507.075003 304.745796 
L 517.922452 302.937299 
L 522.540882 301.883403 
L 527.914906 301.010461 
L 536.607831 298.899229 
L 543.739666 296.56592 
L 549.918607 294.103886 
L 555.309204 291.538935 
L 559.91528 288.872582 
L 563.5812 286.082599 
L 565.714615 283.082264 
L 565.675947 281.45554 
L 566.588069 279.913782 
L 566.650467 276.644848 
L 565.799156 275.34239 
L 564.94347 273.135522 
L 562.704334 270.803993 
L 561.011815 269.321257 
L 558.010862 267.060113 
L 554.125194 265.098098 
L 552.138269 263.90338 
L 545.344711 261.205278 
L 541.426494 260.053547 
L 538.151027 258.719714 
L 530.319405 256.551635 
L 521.706126 254.761091 
L 512.628529 253.198969 
L 503.169153 251.824619 
L 493.324577 250.636602 
L 483.004249 249.672174 
L 471.876419 249.0743 
L 465.826652 249.042124 
L 460.074694 248.778598 
L 447.832705 248.678311 
L 442.933305 248.854157 
L 434.603477 249.008192 
L 425.75525 249.502509 
L 420.101955 249.884927 
L 411.438819 250.575324 
L 403.86839 251.497996 
L 399.243211 251.96724 
L 388.710081 253.613382 
L 384.171195 254.577512 
L 378.914008 255.37882 
L 370.274602 257.327062 
L 363.0432 259.497284 
L 356.654257 261.80688 
L 350.958735 264.23476 
L 345.959638 266.78247 
L 341.813143 269.474711 
L 339.098076 272.400532 
L 338.800731 274.000292 
L 337.572336 275.525313 
L 336.819916 278.787489 
L 337.397609 280.098253 
L 337.791071 282.333684 
L 339.562622 284.7154 
L 340.970046 286.240868 
L 343.559752 288.583553 
L 347.137002 290.632521 
L 348.939225 291.887637 
L 355.418165 294.743112 
L 359.25663 295.970961 
L 362.415043 297.399699 
" style="fill:none;stroke:#8000ff;stroke-width:1.5;"/>
   </g>
   <g id="Line3DCollection_5">
    <path clip-path="url(#p9d0e0eadb1)" d="M 354.818034 299.010581 
L 347.700549 297.327583 
L 346.370441 296.933009 
L 338.909142 294.446811 
L 331.542418 291.945287 
L 328.817719 290.893722 
L 325.158227 289.045329 
L 319.07348 286.046445 
L 318.762762 285.858892 
L 314.365988 282.489578 
L 313.295776 281.559564 
L 310.600212 278.56838 
L 309.972172 277.615049 
L 308.168926 274.122213 
L 308.126836 273.920636 
L 308.427512 270.575416 
L 308.532448 268.544346 
L 309.14678 267.314505 
L 311.35793 264.299152 
L 313.652756 261.31513 
L 314.139389 260.826269 
L 317.433685 258.572562 
L 321.967345 255.95952 
L 327.08695 253.449936 
L 332.831407 251.048643 
L 339.198052 248.754251 
L 346.142939 246.55929 
L 352.373313 244.814318 
L 353.8262 244.486439 
L 362.965208 242.639939 
L 372.167169 240.813816 
L 376.031887 240.13452 
L 382.813087 239.209471 
L 393.840195 237.67024 
L 394.529855 237.590533 
L 406.929539 236.439449 
L 410.359476 236.155227 
L 421.412983 235.417681 
L 424.94397 235.23737 
L 437.921952 234.69414 
L 438.672891 234.677591 
L 451.172207 234.642894 
L 458.798627 234.602981 
L 463.431738 234.711892 
L 474.844202 235.151104 
L 486.211903 235.614535 
L 488.082185 235.717716 
L 496.74247 236.451834 
L 506.854136 237.483598 
L 516.643015 238.670109 
L 526.088801 240.02294 
L 535.194594 241.543371 
L 543.986582 243.22226 
L 551.039339 244.744323 
L 552.376237 245.102478 
L 559.962726 247.370747 
L 567.52875 249.67331 
L 570.371066 250.647387 
L 574.301079 252.368479 
L 580.876301 255.185234 
L 581.222005 255.36241 
L 586.313403 258.565837 
L 587.589244 259.456973 
L 590.986733 262.34366 
L 591.849363 263.270333 
L 594.541419 266.693313 
L 594.636265 266.892205 
L 595.221775 270.214569 
L 595.658718 272.251955 
L 595.370944 273.493129 
L 593.946771 276.560516 
L 592.412958 279.630405 
L 592.047349 280.136632 
L 589.278648 282.482548 
L 585.304939 285.22774 
L 580.660808 287.890118 
L 575.297808 290.461692 
L 569.21239 292.94109 
L 562.446268 295.333715 
L 556.281377 297.250427 
L 554.82186 297.612031 
L 545.558591 299.657124 
L 536.158165 301.694232 
L 532.176117 302.455744 
L 525.12474 303.496031 
L 513.607529 305.235438 
L 512.882891 305.325799 
L 499.78849 306.633924 
L 496.152835 306.95784 
L 484.396924 307.800097 
L 480.631143 308.006382 
L 466.763445 308.628759 
L 465.959691 308.64774 
L 452.573158 308.687541 
L 444.40422 308.73333 
L 439.444176 308.608398 
L 427.243904 308.105126 
L 415.114512 307.575054 
L 413.123117 307.457167 
L 403.936972 306.619818 
L 393.265284 305.447073 
L 383.001127 304.104335 
L 373.17433 302.581024 
L 363.787971 300.878636 
L 354.818034 299.010581 
" style="fill:none;stroke:#642cfe;stroke-width:1.5;"/>
    <path clip-path="url(#p9d0e0eadb1)" d="M 373.389553 290.824457 
L 381.579847 292.994755 
L 390.672099 294.786303 
L 400.453638 296.288279 
L 410.919423 297.498293 
L 422.269354 298.321128 
L 422.696395 298.337537 
L 433.723875 299.105287 
L 446.129749 299.462644 
L 452.373544 299.385188 
L 459.456812 299.400057 
L 472.036154 298.900053 
L 473.913226 298.814271 
L 487.810619 297.827274 
L 489.592066 297.653281 
L 501.364682 296.424934 
L 507.406878 295.480089 
L 512.898708 294.726364 
L 522.804895 292.793352 
L 530.724405 290.6938 
L 531.056222 290.624021 
L 539.124009 288.440633 
L 545.683937 286.045844 
L 551.094505 283.494892 
L 555.361263 280.790033 
L 558.139612 277.881761 
L 558.189815 277.772822 
L 560.753503 274.966949 
L 561.754272 271.832917 
L 561.309631 270.263165 
L 561.18388 268.487794 
L 559.033841 265.346974 
L 558.673004 264.879579 
L 554.722752 261.426655 
L 554.044087 260.984803 
L 549.280854 258.069648 
L 545.692678 256.573243 
L 542.819031 255.215992 
L 535.545335 252.762806 
L 527.703769 250.793856 
L 527.441942 250.711676 
L 519.289119 248.704814 
L 510.376086 247.059833 
L 500.887352 245.688776 
L 490.817901 244.589525 
L 479.970599 243.844692 
L 479.563796 243.82986 
L 469.056626 243.136877 
L 457.274856 242.814961 
L 451.350549 242.884701 
L 444.629075 242.871312 
L 432.675346 243.321941 
L 430.889408 243.399332 
L 417.628675 244.29147 
L 415.922484 244.449063 
L 404.614206 245.564394 
L 398.761631 246.425613 
L 393.436009 247.114699 
L 383.723967 248.890398 
L 375.836156 250.83299 
L 375.506859 250.897804 
L 367.401194 252.934008 
L 360.661718 255.185802 
L 354.958143 257.605926 
L 350.295006 260.196617 
L 347.014169 263.010753 
L 346.943737 263.116747 
L 343.859991 265.861438 
L 342.235516 268.960834 
L 342.360889 270.526791 
L 342.125094 272.308904 
L 343.649905 275.490684 
L 343.919657 275.967378 
L 347.233499 279.515048 
L 347.836923 279.972365 
L 352.135816 283.008778 
L 355.53427 284.580524 
L 358.241594 286.013876 
L 365.320788 288.623554 
L 373.13026 290.735942 
L 373.389553 290.824457 
" style="fill:none;stroke:#642cfe;stroke-width:1.5;"/>
   </g>
   <g id="Line3DCollection_6">
    <path clip-path="url(#p9d0e0eadb1)" d="M 335.910621 288.162599 
L 335.43009 288.008259 
L 328.897008 285.505835 
L 322.047275 282.806212 
L 320.918574 282.284953 
L 316.288961 279.668763 
L 312.807066 277.576091 
L 311.141518 276.304117 
L 307.744863 273.361611 
L 307.008059 272.545541 
L 305.019521 269.528639 
L 304.33949 268.209593 
L 303.875015 265.959129 
L 303.539777 263.136142 
L 303.652305 262.551153 
L 305.097578 259.415432 
L 306.581043 256.516116 
L 306.738607 256.328657 
L 309.982506 253.500708 
L 313.75692 250.769375 
L 318.107369 248.140523 
L 323.127454 245.627065 
L 328.891798 243.238954 
L 335.397213 240.974567 
L 342.563253 238.820966 
L 350.291583 236.762751 
L 358.532414 234.791792 
L 359.103096 234.673927 
L 368.336473 233.060076 
L 378.309426 231.363304 
L 380.233829 231.081262 
L 389.889767 229.909067 
L 397.628487 229.0217 
L 402.335263 228.588226 
L 413.246881 227.691164 
L 416.278589 227.490476 
L 427.511929 226.921347 
L 432.438405 226.716759 
L 440.865289 226.532498 
L 451.481785 226.359445 
L 453.688414 226.366968 
L 465.561089 226.609327 
L 476.60679 226.870185 
L 477.32359 226.901939 
L 488.180538 227.591961 
L 498.742565 228.418357 
L 508.985622 229.393876 
L 518.858672 230.54348 
L 528.321559 231.887823 
L 537.377946 233.42841 
L 546.074714 235.147348 
L 554.468465 237.021959 
L 562.588303 239.041568 
L 563.077926 239.182416 
L 569.846925 241.476975 
L 577.026674 243.975555 
L 578.23388 244.460798 
L 583.323154 246.910071 
L 587.213451 248.886008 
L 589.152644 250.094396 
L 593.225626 252.911402 
L 594.161378 253.698056 
L 596.918684 256.626792 
L 597.946321 257.917565 
L 599.019262 260.134399 
L 600.130562 262.941555 
L 600.180155 263.526972 
L 599.600015 266.686946 
L 598.908522 269.64204 
L 598.801119 269.83422 
L 596.288926 272.75004 
L 593.180377 275.596179 
L 589.419437 278.363751 
L 584.898335 281.036119 
L 579.529027 283.599362 
L 573.307317 286.051843 
L 566.313545 288.404503 
L 558.649121 290.671567 
L 550.364342 292.859777 
L 549.784631 292.991172 
L 540.316209 294.796463 
L 530.014002 296.706988 
L 528.011201 297.02581 
L 517.895927 298.354703 
L 509.748895 299.364825 
L 504.768426 299.859567 
L 493.180159 300.886145 
L 489.94936 301.116311 
L 477.946544 301.770049 
L 472.67209 302.005415 
L 463.636025 302.217563 
L 452.242504 302.416948 
L 449.873551 302.408277 
L 437.134681 302.129087 
L 425.296113 301.828889 
L 424.529099 301.792368 
L 412.93981 300.999896 
L 401.711545 300.053678 
L 390.878893 298.940728 
L 380.507072 297.634713 
L 370.649642 296.115019 
L 361.310282 294.383421 
L 352.44215 292.463772 
L 343.985492 290.385049 
L 335.910621 288.162599 
" style="fill:none;stroke:#4856fb;stroke-width:1.5;"/>
    <path clip-path="url(#p9d0e0eadb1)" d="M 367.438123 280.172055 
L 375.203314 282.499698 
L 383.799618 284.486225 
L 393.031133 286.212864 
L 402.830533 287.705388 
L 413.193707 288.961857 
L 424.178937 289.952238 
L 435.969426 290.589373 
L 444.468027 290.703236 
L 448.686477 290.812333 
L 462.105747 290.716818 
L 466.334501 290.550036 
L 476.700645 290.07999 
L 483.104086 289.628726 
L 492.941645 288.675419 
L 496.898951 288.265741 
L 508.588928 286.59565 
L 511.986604 285.952191 
L 519.026385 284.748733 
L 527.845109 282.672067 
L 535.276207 280.402117 
L 541.650679 277.989693 
L 547.080982 275.452712 
L 551.57169 272.792993 
L 555.020349 269.996629 
L 557.109722 267.01846 
L 557.323899 264.884692 
L 557.62507 263.828824 
L 556.941299 260.484157 
L 556.221149 259.433923 
L 554.234817 256.866469 
L 552.417883 255.284429 
L 548.675005 252.858181 
L 547.075736 251.883858 
L 540.665233 249.006062 
L 538.221524 248.168804 
L 533.640809 246.437087 
L 525.804827 244.260781 
L 517.275804 242.417805 
L 508.225102 240.826591 
L 498.70715 239.459039 
L 488.717808 238.313416 
L 478.193576 237.414015 
L 466.950481 236.837084 
L 458.866521 236.734117 
L 454.85482 236.635499 
L 442.09591 236.721838 
L 438.071009 236.872666 
L 428.191905 237.29823 
L 422.072538 237.707459 
L 412.63405 238.574132 
L 408.826209 238.947485 
L 397.500479 240.47516 
L 394.179635 241.066188 
L 387.289662 242.175251 
L 378.54136 244.100344 
L 371.042622 246.221166 
L 364.487047 248.494286 
L 358.775119 250.906376 
L 353.910536 253.459275 
L 350.000991 256.170343 
L 347.364487 259.088593 
L 346.735918 261.199332 
L 346.228127 262.25002 
L 346.251956 265.605776 
L 346.768372 266.668203 
L 348.267913 269.283225 
L 349.800878 270.907254 
L 353.144749 273.416911 
L 354.594548 274.431268 
L 360.640642 277.449456 
L 363.007427 278.333829 
L 367.438123 280.172055 
" style="fill:none;stroke:#4856fb;stroke-width:1.5;"/>
   </g>
   <g id="Line3DCollection_7">
    <path clip-path="url(#p9d0e0eadb1)" d="M 358.912016 287.801319 
L 356.105162 287.225168 
L 350.05018 285.872641 
L 341.717999 283.73517 
L 333.759156 281.459425 
L 326.776487 279.229001 
L 326.233367 279.022005 
L 319.659833 276.204374 
L 314.652481 273.903547 
L 313.485112 273.246808 
L 308.192033 269.947999 
L 307.377598 269.348039 
L 303.93354 266.249039 
L 303.044053 265.266506 
L 300.820492 262.109767 
L 300.522538 261.484129 
L 299.606883 257.967079 
L 299.524881 257.257955 
L 300.034514 254.673498 
L 301.032737 251.48585 
L 301.157482 251.245648 
L 303.464006 248.531575 
L 306.506986 245.686558 
L 310.065733 242.93558 
L 312.962614 241.113732 
L 314.383513 240.313654 
L 319.576247 237.836632 
L 325.35997 235.461539 
L 331.73216 233.187065 
L 333.898936 232.511599 
L 338.969685 231.052632 
L 346.950318 229.039199 
L 355.427516 227.109951 
L 363.723205 225.410298 
L 364.491347 225.277129 
L 374.942407 223.655107 
L 383.48685 222.412707 
L 385.924694 222.119121 
L 398.186842 220.775516 
L 400.419858 220.56545 
L 411.972341 219.657299 
L 415.643014 219.41622 
L 427.466726 218.788835 
L 429.815928 218.697783 
L 443.064084 218.363638 
L 445.744647 218.320287 
L 455.543228 218.353437 
L 467.696831 218.482445 
L 468.615937 218.503979 
L 479.038443 218.96211 
L 490.037122 219.595112 
L 500.748983 220.359485 
L 507.88984 220.998858 
L 511.038531 221.316537 
L 520.842693 222.497064 
L 530.323398 223.833134 
L 539.483607 225.325948 
L 542.222717 225.838764 
L 548.169489 227.046743 
L 556.451353 228.967684 
L 564.468705 231.029086 
L 571.607242 233.065838 
L 572.172158 233.255689 
L 579.115011 235.85412 
L 584.488698 237.995706 
L 585.777289 238.610285 
L 591.741124 241.719693 
L 592.689032 242.289249 
L 596.870849 245.251283 
L 598.007842 246.197474 
L 601.062328 249.260842 
L 601.530776 249.872248 
L 603.428608 253.335967 
L 603.711983 254.039874 
L 603.941205 256.621245 
L 603.854455 259.839934 
L 603.797937 260.084053 
L 602.246552 262.857917 
L 599.965872 265.796603 
L 597.105339 268.668804 
L 594.638915 270.587757 
L 593.397135 271.43476 
L 588.706907 274.07379 
L 583.330572 276.628236 
L 577.26471 279.096808 
L 575.165967 279.834171 
L 570.204125 281.433538 
L 562.274905 283.655908 
L 553.740307 285.802048 
L 545.289713 287.70647 
L 544.499851 287.856229 
L 533.680313 289.686723 
L 524.770016 291.096864 
L 522.211032 291.431117 
L 509.278267 292.965873 
L 506.911752 293.206575 
L 494.621137 294.249522 
L 490.70277 294.527026 
L 478.047325 295.250473 
L 475.527437 295.355619 
L 461.295893 295.741818 
L 458.413693 295.79196 
L 447.875281 295.753617 
L 434.809027 295.604443 
L 433.821609 295.57955 
L 422.643109 295.050484 
L 410.881439 294.321079 
L 399.470948 293.442777 
L 391.899539 292.710181 
L 388.571738 292.346884 
L 378.265325 291.000895 
L 368.377771 289.485234 
L 358.912016 287.801319 
" style="fill:none;stroke:#2c7ef7;stroke-width:1.5;"/>
    <path clip-path="url(#p9d0e0eadb1)" d="M 376.988761 274.161655 
L 385.422778 276.215158 
L 394.596218 277.965694 
L 404.415635 279.449665 
L 414.876299 280.664859 
L 426.061024 281.569926 
L 436.594837 282.004731 
L 438.137127 282.084679 
L 450.700578 282.385081 
L 460.870304 282.209777 
L 464.479848 282.136937 
L 478.482625 281.415018 
L 479.437409 281.348256 
L 492.909979 280.149467 
L 496.153659 279.743623 
L 505.218838 278.576362 
L 515.379849 276.694227 
L 516.54129 276.426558 
L 524.679417 274.696323 
L 532.438549 272.483555 
L 538.963788 270.103002 
L 544.411758 267.57918 
L 548.78768 264.914175 
L 551.946564 262.088154 
L 553.333496 259.445907 
L 553.597047 259.060267 
L 554.422955 255.9314 
L 553.525413 253.412489 
L 553.16817 252.521095 
L 550.151546 249.073417 
L 549.881103 248.838878 
L 545.119002 245.535044 
L 543.539158 244.740445 
L 539.007348 242.52258 
L 531.802103 240.033928 
L 530.783326 239.748909 
L 524.188567 237.754569 
L 515.7997 235.844124 
L 506.793813 234.226725 
L 497.24847 232.863605 
L 487.158927 231.752786 
L 476.437017 230.928604 
L 466.381744 230.533608 
L 464.910453 230.461047 
L 452.94173 230.188586 
L 443.256409 230.347549 
L 439.817103 230.413628 
L 426.446229 231.069478 
L 425.532441 231.130216 
L 412.596856 232.223318 
L 409.465187 232.59445 
L 400.685685 233.664906 
L 390.73745 235.400473 
L 389.590091 235.648258 
L 381.537892 237.255777 
L 373.733277 239.326389 
L 367.040215 241.572748 
L 361.318007 243.975792 
L 356.570934 246.537611 
L 352.949353 249.281939 
L 351.084104 251.874018 
L 350.749592 252.254477 
L 349.329299 255.361711 
L 349.742722 257.889898 
L 349.929823 258.79035 
L 352.314837 262.301847 
L 352.544298 262.542404 
L 356.769508 265.954005 
L 358.237329 266.780982 
L 362.483363 269.102634 
L 369.475567 271.731512 
L 370.480221 272.03421 
L 376.988761 274.161655 
" style="fill:none;stroke:#2c7ef7;stroke-width:1.5;"/>
   </g>
   <g id="Line3DCollection_8">
    <path clip-path="url(#p9d0e0eadb1)" d="M 347.998451 279.082846 
L 340.505457 277.318403 
L 339.4354 277.040995 
L 331.593625 274.712429 
L 324.100633 272.259913 
L 319.915512 270.701572 
L 317.256478 269.558533 
L 311.045601 266.61868 
L 309.229065 265.624686 
L 305.691269 263.35061 
L 302.785957 261.219854 
L 301.168405 259.769786 
L 298.852885 257.220233 
L 297.810264 255.742956 
L 296.751749 253.520403 
L 296.012962 251.113658 
L 295.927403 250.034638 
L 296.402207 246.764235 
L 296.796285 245.47288 
L 297.812837 243.653261 
L 300.176049 240.702692 
L 303.017543 237.841102 
L 303.469863 237.485693 
L 306.916588 235.152786 
L 311.490845 232.580114 
L 316.675399 230.112529 
L 322.477637 227.750133 
L 328.894918 225.49157 
L 335.914642 223.334059 
L 342.554711 221.541732 
L 343.595878 221.285193 
L 352.310211 219.397417 
L 361.478581 217.586234 
L 367.297944 216.568458 
L 371.562274 215.916886 
L 382.536704 214.384582 
L 386.249173 213.931555 
L 394.748067 213.037268 
L 402.725987 212.292645 
L 408.163233 211.868584 
L 417.743931 211.244276 
L 423.308908 210.951308 
L 431.702157 210.628532 
L 440.823668 210.373103 
L 444.924728 210.31582 
L 457.404021 210.314071 
L 462.353446 210.362006 
L 469.350882 210.538551 
L 480.759085 210.995473 
L 491.899786 211.572072 
L 493.289563 211.66759 
L 502.447762 212.410639 
L 512.62148 213.420546 
L 522.459386 214.587769 
L 531.959006 215.915929 
L 541.123436 217.406273 
L 549.961258 219.057639 
L 557.373558 220.637492 
L 558.440795 220.886789 
L 566.355529 222.989234 
L 574.030968 225.222777 
L 578.391099 226.652326 
L 581.210197 227.706055 
L 587.90811 230.436464 
L 589.914708 231.366304 
L 593.93219 233.506412 
L 597.327464 235.527977 
L 599.301498 236.912869 
L 602.278521 239.365971 
L 603.721614 240.798053 
L 605.402779 242.967565 
L 606.83392 245.337367 
L 607.234949 246.406817 
L 607.724322 249.675 
L 607.711558 250.976689 
L 607.228177 252.821777 
L 605.712006 255.841074 
L 603.664472 258.802214 
L 603.307117 259.172274 
L 600.459362 261.614045 
L 596.491943 264.332561 
L 591.823493 266.965816 
L 586.438971 269.510822 
L 580.334798 271.966231 
L 573.518957 274.332376 
L 566.960592 276.313516 
L 565.922399 276.598241 
L 557.136312 278.702425 
L 547.786625 280.736256 
L 541.792849 281.885664 
L 537.368807 282.623984 
L 525.907993 284.367973 
L 522.005587 284.885658 
L 513.027102 285.910378 
L 504.55911 286.766447 
L 498.765189 287.255138 
L 488.522458 287.976128 
L 482.556604 288.315099 
L 473.539978 288.689028 
L 463.725216 288.985286 
L 459.308256 289.051769 
L 445.86345 289.053798 
L 440.532189 288.998163 
L 433.00088 288.793357 
L 420.744636 288.263974 
L 408.809223 287.59734 
L 407.324411 287.487058 
L 397.566921 286.630621 
L 386.786311 285.470743 
L 376.432576 284.136094 
L 366.515817 282.625071 
L 357.039116 280.93915 
L 347.998451 279.082846 
" style="fill:none;stroke:#10a2f0;stroke-width:1.5;"/>
    <path clip-path="url(#p9d0e0eadb1)" d="M 387.051753 267.914465 
L 396.167016 269.688419 
L 406.006532 271.163764 
L 416.564941 272.33802 
L 427.827733 273.150693 
L 427.946121 273.160218 
L 439.823021 273.770395 
L 452.721491 273.929326 
L 455.64961 273.879242 
L 466.572782 273.660521 
L 474.434421 273.258324 
L 481.846328 272.744072 
L 489.410069 272.076238 
L 499.225172 270.857796 
L 501.835005 270.524371 
L 512.564421 268.732268 
L 521.506733 266.688717 
L 521.589006 266.665419 
L 529.589026 264.531885 
L 536.265591 262.183126 
L 541.731329 259.672597 
L 545.992111 257.002645 
L 548.832773 254.178047 
L 548.866263 254.148453 
L 550.906828 251.191492 
L 551.208055 248.002443 
L 550.951333 247.281217 
L 549.876566 244.598711 
L 548.186334 242.674567 
L 546.090095 240.864713 
L 543.419374 239.021229 
L 538.642455 236.631552 
L 537.338688 235.996961 
L 530.404385 233.38632 
L 522.565188 231.205296 
L 522.476154 231.185163 
L 514.314376 229.229381 
L 505.353684 227.586096 
L 495.780792 226.227489 
L 485.590348 225.151338 
L 474.786001 224.409239 
L 474.67256 224.400554 
L 463.318951 223.844817 
L 451.016352 223.700267 
L 448.223923 223.74581 
L 437.801665 223.944797 
L 430.2859 224.311118 
L 423.183052 224.780275 
L 415.911734 225.390852 
L 406.420791 226.508648 
L 403.889252 226.815395 
L 393.40452 228.470497 
L 384.545941 230.371075 
L 384.463577 230.392825 
L 376.439197 232.392495 
L 369.60781 234.612099 
L 363.875297 237.005956 
L 359.24653 239.576407 
L 355.947545 242.323734 
L 355.909109 242.352673 
L 353.34549 245.260391 
L 352.448719 248.432866 
L 352.569827 249.155668 
L 353.143949 251.861495 
L 354.48846 253.819486 
L 356.275742 255.674391 
L 358.654086 257.577073 
L 363.106796 260.063713 
L 364.33224 260.727926 
L 371.021633 263.477718 
L 378.776796 265.796544 
L 378.865919 265.818041 
L 387.051753 267.914465 
" style="fill:none;stroke:#10a2f0;stroke-width:1.5;"/>
   </g>
   <g id="Line3DCollection_9">
    <path clip-path="url(#p9d0e0eadb1)" d="M 337.515826 270.140799 
L 330.554847 268.259489 
L 329.413891 267.92118 
L 322.008992 265.430663 
L 314.978333 262.80895 
L 313.676059 262.243721 
L 308.78576 259.864401 
L 304.225814 257.382069 
L 303.173733 256.708975 
L 298.429603 253.227156 
L 298.25707 253.072681 
L 294.829054 249.310576 
L 294.717343 249.153238 
L 292.965826 245.524716 
L 292.74797 244.812071 
L 292.541273 242.115965 
L 292.795143 239.492646 
L 292.9767 238.85589 
L 294.665593 235.801045 
L 296.874655 232.841813 
L 297.288483 232.425938 
L 300.103614 230.050445 
L 304.038019 227.379481 
L 308.586162 224.814453 
L 313.762551 222.356477 
L 319.583408 220.006903 
L 326.045972 217.76433 
L 333.128633 215.624662 
L 340.811685 213.58413 
L 347.906913 211.926524 
L 349.180426 211.654004 
L 358.538252 209.876464 
L 368.38615 208.179294 
L 370.507374 207.86227 
L 379.436941 206.662624 
L 388.765246 205.533328 
L 391.296019 205.269151 
L 404.409874 204.060557 
L 404.992547 204.015577 
L 419.213768 203.096205 
L 419.809932 203.064969 
L 433.594375 202.533659 
L 436.310662 202.458196 
L 446.615958 202.315379 
L 456.691685 202.281748 
L 459.145077 202.301522 
L 470.961883 202.588041 
L 482.485547 203.001893 
L 484.111814 203.084558 
L 493.435612 203.664665 
L 503.992535 204.502974 
L 514.210061 205.496468 
L 524.081816 206.650405 
L 533.600427 207.970591 
L 542.769121 209.458316 
L 551.601581 211.110294 
L 560.110273 212.923707 
L 567.093361 214.616276 
L 568.24881 214.92187 
L 575.848981 217.183147 
L 583.190961 219.585828 
L 584.578012 220.106861 
L 589.877645 222.312027 
L 594.931036 224.633351 
L 596.13037 225.266465 
L 601.700499 228.566835 
L 601.912226 228.714253 
L 606.345115 232.330878 
L 606.500716 232.483244 
L 609.297548 236.022285 
L 609.72619 236.723069 
L 610.742463 239.391502 
L 611.28528 242.014314 
L 611.297489 242.654921 
L 610.530807 245.7501 
L 609.197657 248.783338 
L 608.90403 249.212403 
L 606.756963 251.676565 
L 603.529724 254.474606 
L 599.604617 257.18936 
L 594.958139 259.816653 
L 589.565426 262.352066 
L 583.422737 264.794194 
L 576.547633 267.144724 
L 568.956593 269.405206 
L 561.840356 271.255199 
L 560.552535 271.560535 
L 551.000661 273.560396 
L 540.842492 275.483335 
L 538.636669 275.844004 
L 529.298327 277.213033 
L 519.476886 278.50792 
L 516.798884 278.811697 
L 502.858825 280.205662 
L 502.236935 280.257674 
L 487.010001 281.322891 
L 486.369901 281.359153 
L 471.538873 281.976665 
L 468.611516 282.064481 
L 457.495499 282.230751 
L 446.62193 282.269919 
L 443.974493 282.24689 
L 431.234202 281.913397 
L 418.833554 281.432392 
L 417.086956 281.336412 
L 407.09448 280.663778 
L 395.829991 279.694587 
L 384.989377 278.550285 
L 374.588005 277.227012 
L 364.641869 275.720718 
L 355.154197 274.032939 
L 346.115289 272.170721 
L 337.515826 270.140799 
" style="fill:none;stroke:#0fc4e7;stroke-width:1.5;"/>
    <path clip-path="url(#p9d0e0eadb1)" d="M 397.743558 261.380873 
L 407.603255 262.847519 
L 414.195436 263.553187 
L 418.208462 264.003602 
L 429.447612 264.893166 
L 441.515062 265.425791 
L 450.244438 265.494017 
L 454.579003 265.520707 
L 468.672719 265.155742 
L 470.370305 265.06957 
L 484.262706 264.113243 
L 485.895919 263.970164 
L 498.733635 262.482986 
L 502.397821 261.90709 
L 509.737087 260.736641 
L 518.992887 258.7462 
L 526.81533 256.559666 
L 529.342275 255.666342 
L 533.556016 254.229854 
L 539.039625 251.732752 
L 541.624302 250.075943 
L 543.272255 249.07079 
L 546.439963 246.272221 
L 548.205419 243.289987 
L 548.268476 241.145143 
L 548.272352 240.083469 
L 546.571911 236.644918 
L 546.207675 236.231933 
L 542.284633 232.860148 
L 541.708564 232.464557 
L 535.818133 229.358022 
L 533.566932 228.471449 
L 528.997925 226.697139 
L 521.292767 224.454888 
L 512.867067 222.552467 
L 509.432608 221.934494 
L 503.904633 220.904326 
L 494.304034 219.550314 
L 487.931926 218.901427 
L 484.059692 218.488129 
L 473.263211 217.673866 
L 461.717587 217.187591 
L 453.380536 217.12537 
L 449.241515 217.101034 
L 435.77316 217.434021 
L 434.148325 217.512709 
L 420.817861 218.387626 
L 419.245824 218.518788 
L 406.830412 219.886172 
L 403.260849 220.417683 
L 396.086649 221.50139 
L 386.933348 223.355068 
L 379.077037 225.40712 
L 376.499401 226.25029 
L 372.189954 227.612007 
L 366.447111 229.996535 
L 363.64234 231.590973 
L 361.853601 232.563124 
L 358.243335 235.289248 
L 355.956284 238.226172 
L 355.501106 240.359078 
L 355.30179 241.421311 
L 356.377181 244.89145 
L 356.668696 245.311318 
L 360.029973 248.764438 
L 360.544875 249.17253 
L 366.01296 252.399133 
L 368.169484 253.327156 
L 372.573284 255.194112 
L 380.175671 257.572105 
L 388.63496 259.606226 
L 392.120015 260.270275 
L 397.743558 261.380873 
" style="fill:none;stroke:#0fc4e7;stroke-width:1.5;"/>
   </g>
   <g id="Line3DCollection_10">
    <path clip-path="url(#p9d0e0eadb1)" d="M 327.473112 260.97859 
L 322.700954 259.497265 
L 319.903797 258.55716 
L 312.917666 255.917954 
L 308.174043 253.870615 
L 306.511108 253.065852 
L 300.821819 249.947364 
L 299.621275 249.170953 
L 296.027235 246.493792 
L 294.337311 244.987298 
L 292.220325 242.672317 
L 291.127692 241.137747 
L 289.719381 238.359285 
L 289.452137 237.539321 
L 289.141197 234.164678 
L 289.230677 233.276775 
L 289.900663 230.96852 
L 291.505272 227.916205 
L 292.337484 226.79989 
L 293.954057 225.00623 
L 297.241812 222.236497 
L 301.147404 219.573647 
L 305.669389 217.016469 
L 310.83763 214.568276 
L 316.677211 212.231652 
L 323.185249 210.005147 
L 330.331098 207.883371 
L 338.07969 205.860369 
L 346.427216 203.934693 
L 352.032308 202.801806 
L 355.586012 202.135459 
L 365.553992 200.461217 
L 373.285771 199.314936 
L 376.324844 198.90994 
L 388.110922 197.510249 
L 391.048017 197.210436 
L 401.188873 196.299398 
L 406.906495 195.861517 
L 415.710817 195.296856 
L 421.560874 194.992757 
L 432.184902 194.57127 
L 435.328724 194.480622 
L 448.312877 194.28803 
L 451.742296 194.276674 
L 460.685623 194.348184 
L 472.578468 194.609973 
L 476.948526 194.763143 
L 483.994889 195.075114 
L 494.940601 195.744417 
L 505.542839 196.566995 
L 515.804302 197.544153 
L 525.710014 198.684823 
L 535.247691 199.99697 
L 544.420694 201.481926 
L 553.247817 203.134308 
L 561.750144 204.947607 
L 569.931121 206.922966 
L 574.794136 208.2618 
L 577.673387 209.115245 
L 584.97944 211.526962 
L 590.046105 213.414037 
L 591.853936 214.159721 
L 598.17935 217.070385 
L 599.55612 217.800317 
L 603.80208 220.333506 
L 605.884977 221.770193 
L 608.637457 223.993829 
L 610.169289 225.478591 
L 612.401115 228.18894 
L 612.91712 228.994289 
L 614.270342 232.335456 
L 614.458022 233.221753 
L 614.509647 235.540049 
L 613.852526 238.637551 
L 613.361807 239.779582 
L 612.284957 241.624989 
L 609.798617 244.500164 
L 606.617779 247.294027 
L 602.735313 250.004802 
L 598.111003 252.625942 
L 592.710095 255.151606 
L 586.528683 257.580335 
L 579.59397 259.915157 
L 571.939112 262.160005 
L 563.564194 264.31404 
L 557.869078 265.589184 
L 554.233765 266.341963 
L 543.947004 268.242452 
L 535.892836 269.551179 
L 532.709059 270.015046 
L 520.287279 271.624168 
L 517.173979 271.970051 
L 506.381045 273.023712 
L 500.270212 273.531559 
L 490.82984 274.187803 
L 484.540106 274.541861 
L 473.091513 275.033333 
L 469.698582 275.139144 
L 455.670611 275.364086 
L 451.963612 275.377355 
L 442.297588 275.293809 
L 429.4559 274.988168 
L 424.743897 274.809494 
L 417.157163 274.445931 
L 405.409269 273.667526 
L 394.081858 272.713811 
L 383.180824 271.585082 
L 372.731498 270.27322 
L 362.755812 268.771747 
L 353.25714 267.08226 
L 344.220065 265.214318 
L 335.625327 263.178907 
L 327.473112 260.97859 
" style="fill:none;stroke:#2adddd;stroke-width:1.5;"/>
    <path clip-path="url(#p9d0e0eadb1)" d="M 374.13055 246.880532 
L 381.579811 249.316708 
L 389.969205 251.376741 
L 399.132934 253.125875 
L 409.013401 254.583977 
L 419.605276 255.74862 
L 430.954794 256.594783 
L 443.213285 257.050701 
L 444.707873 257.062291 
L 456.327868 257.13328 
L 466.300861 256.850132 
L 470.685176 256.664467 
L 482.533016 255.85526 
L 486.680523 255.458351 
L 495.819951 254.437268 
L 505.641381 252.905909 
L 506.897773 252.707133 
L 516.468209 250.769458 
L 524.463279 248.61637 
L 531.163498 246.290273 
L 536.664551 243.806511 
L 540.972268 241.167385 
L 544.003331 238.362447 
L 545.49275 235.355547 
L 545.504517 234.990368 
L 545.522416 232.160153 
L 544.221196 229.742486 
L 543.416822 228.682522 
L 540.075585 225.824995 
L 538.475093 224.826481 
L 534.395718 222.628887 
L 528.364446 220.267781 
L 527.582643 219.965995 
L 520.012551 217.663126 
L 511.64481 215.732079 
L 502.624647 214.104027 
L 492.99667 212.754897 
L 482.75554 211.682501 
L 471.845286 210.90624 
L 460.10627 210.488987 
L 458.676915 210.478389 
L 447.566017 210.413486 
L 438.023532 210.67246 
L 433.823305 210.842421 
L 422.441919 211.584537 
L 418.442684 211.949348 
L 409.597876 212.890313 
L 400.014155 214.308187 
L 398.783966 214.492822 
L 389.334114 216.299801 
L 381.317131 218.322996 
L 374.473131 220.52712 
L 368.719461 222.901965 
L 364.060988 225.449834 
L 360.590774 228.185839 
L 358.582103 231.151472 
L 358.505133 231.513966 
L 357.978393 234.340658 
L 358.849307 236.779836 
L 359.469669 237.856442 
L 362.344586 240.781002 
L 363.796821 241.810638 
L 367.581552 244.090935 
L 373.374973 246.562914 
L 374.13055 246.880532 
" style="fill:none;stroke:#2adddd;stroke-width:1.5;"/>
   </g>
   <g id="Line3DCollection_11">
    <path clip-path="url(#p9d0e0eadb1)" d="M 343.389598 258.435508 
L 342.312662 258.213212 
L 333.722744 256.17252 
L 325.566092 253.97226 
L 317.874814 251.601594 
L 315.76641 250.849443 
L 310.843736 248.982609 
L 304.320637 246.181805 
L 303.00382 245.519453 
L 298.588773 243.086053 
L 295.305437 240.973563 
L 293.608963 239.715855 
L 290.401758 236.869335 
L 289.593976 235.989218 
L 287.523302 233.089342 
L 286.860942 231.783747 
L 286.13512 229.552046 
L 285.857326 226.927256 
L 285.882189 226.20324 
L 286.811698 223.047997 
L 287.920076 220.896093 
L 288.471675 220.018849 
L 291.092889 217.147999 
L 294.367942 214.389597 
L 298.244668 211.73508 
L 298.784237 211.43091 
" style="fill:none;stroke:#46efd1;stroke-width:1.5;"/>
    <path clip-path="url(#p9d0e0eadb1)" d="M 583.490813 252.365959 
L 582.658124 252.643308 
L 574.939072 254.872436 
L 566.516103 257.013781 
L 557.335389 259.058691 
L 554.398375 259.625623 
L 547.069933 260.958612 
L 535.974101 262.749326 
L 533.331518 263.116273 
L 523.57132 264.359918 
L 515.034501 265.30228 
L 509.924755 265.797942 
L 498.289811 266.75867 
L 494.673373 267.008458 
L 482.697874 267.678236 
L 477.277789 267.909419 
L 467.974379 268.197679 
L 456.973738 268.384314 
L 453.928785 268.408783 
L 440.609693 268.29516 
L 431.48311 268.089577 
L 427.753208 267.978678 
L 415.515016 267.394392 
L 403.713181 266.62612 
L 392.322411 265.687861 
L 391.016137 265.554363 
" style="fill:none;stroke:#46efd1;stroke-width:1.5;"/>
    <path clip-path="url(#p9d0e0eadb1)" d="M 326.66666 200.360656 
L 327.521965 200.109988 
L 335.336357 198.104557 
L 343.733435 196.193469 
L 352.759417 194.38234 
L 355.617522 193.882604 
L 362.71028 192.711654 
L 373.352033 191.147497 
L 375.868165 190.828223 
L 385.119087 189.749291 
L 393.161214 188.934953 
L 397.955212 188.507736 
L 408.826457 187.681834 
L 412.194419 187.467567 
L 423.317578 186.89398 
L 428.340103 186.696317 
L 436.948539 186.450082 
L 447.114667 186.290792 
L 449.927336 186.269917 
L 462.231588 186.366871 
L 470.669964 186.542395 
L 474.121464 186.637132 
L 485.469089 187.136891 
L 496.451015 187.795613 
L 507.098704 188.60255 
L 508.324687 188.717584 
" style="fill:none;stroke:#46efd1;stroke-width:1.5;"/>
    <path clip-path="url(#p9d0e0eadb1)" d="M 553.845519 194.93285 
L 554.899996 195.129525 
L 563.395982 196.942486 
L 571.579986 198.912424 
L 579.427408 201.052815 
L 581.615108 201.735821 
L 586.774317 203.439262 
L 593.752444 206.017141 
L 595.195865 206.630711 
L 600.120544 208.89796 
L 603.898619 210.883036 
L 605.910753 212.072393 
L 609.881172 214.785154 
L 610.937204 215.629847 
L 613.859258 218.433085 
L 614.918653 219.705328 
L 616.338453 221.894801 
L 617.449478 224.494078 
L 617.656534 225.215702 
L 617.74028 228.384254 
L 617.31908 230.567647 
L 617.045487 231.463006 
L 615.313708 234.414757 
L 612.857762 237.282492 
L 609.72368 240.071949 
L 609.26438 240.393464 
" style="fill:none;stroke:#46efd1;stroke-width:1.5;"/>
    <path clip-path="url(#p9d0e0eadb1)" d="M 382.989247 241.030179 
L 391.308587 243.115571 
L 400.454428 244.870533 
L 410.355948 246.3201 
L 421.00749 247.461722 
L 432.467698 248.264889 
L 438.265653 248.47113 
L 444.80306 248.694996 
L 458.083096 248.715339 
L 462.219397 248.598826 
L 472.668709 248.159825 
L 479.219048 247.715957 
L 489.103569 246.777547 
L 492.89391 246.357431 
L 504.245102 244.672197 
L 509.390822 243.6607 
L 513.932628 242.758268 
L 522.100994 240.638514 
L 528.885317 238.334176 
L 534.403713 235.863809 
L 538.662345 233.229835 
L 541.556299 230.418917 
L 542.235542 229.004839 
L 542.96523 227.415703 
L 542.761062 224.203943 
L 542.223234 223.207387 
L 540.310765 220.696738 
L 538.465814 219.127017 
L 534.654931 216.7626 
L 532.964297 215.857151 
L 526.265537 213.145761 
L 522.278865 211.915308 
L 518.724468 210.829629 
L 510.415142 208.870334 
L 501.40457 207.233309 
L 491.749246 205.889223 
L 481.443512 204.835768 
L 470.418705 204.097303 
L 464.858358 203.908032 
L 458.59407 203.70275 
L 445.880037 203.684104 
L 441.917961 203.790915 
L 431.895806 204.193778 
L 425.59669 204.601776 
L 416.053709 205.466567 
L 412.381065 205.854704 
L 401.307631 207.417778 
L 396.239089 208.360688 
L 391.748351 209.204945 
L 383.56973 211.199327 
L 376.649938 213.385502 
L 370.885229 215.750438 
L 366.280783 218.296559 
L 362.951539 221.042106 
L 362.034782 222.434523 
L 361.032093 224.008385 
L 360.670526 227.218925 
L 361.034207 228.223259 
L 362.519686 230.770849 
L 364.113484 232.376412 
L 367.582857 234.813559 
L 369.155782 235.752883 
L 375.576647 238.585899 
L 379.486029 239.881627 
L 382.989247 241.030179 
" style="fill:none;stroke:#46efd1;stroke-width:1.5;"/>
   </g>
   <g id="Line3DCollection_12">
    <path clip-path="url(#p9d0e0eadb1)" d="M 331.016957 248.906808 
L 323.646897 246.921198 
L 315.92845 244.561659 
L 309.469007 242.271137 
L 308.756415 242.002484 
L 302.221439 239.209769 
L 298.187749 237.192249 
L 296.341158 236.179978 
L 291.189267 232.886985 
L 291.008884 232.749153 
L 287.021453 229.232019 
L 286.563734 228.735208 
L 284.005454 225.153508 
L 283.927123 225.011185 
L 282.804238 221.531385 
L 282.691258 220.438976 
L 282.774309 218.232423 
L 283.709721 215.094114 
L 283.871578 214.784109 
L 285.573889 212.109649 
L 288.219575 209.256409 
L 291.169046 206.775574 
" style="fill:none;stroke:#62fbc4;stroke-width:1.5;"/>
    <path clip-path="url(#p9d0e0eadb1)" d="M 577.13398 247.747706 
L 569.485335 249.67068 
L 560.295034 251.709136 
L 551.274984 253.439206 
L 550.211444 253.631432 
L 539.081837 255.414295 
L 530.967824 256.53373 
L 526.875165 257.051864 
L 513.465591 258.524361 
L 512.90113 258.577072 
L 498.420501 259.766819 
L 496.363349 259.907983 
L 481.452292 260.734735 
L 480.857001 260.761564 
L 466.238657 261.209841 
L 461.625994 261.287588 
L 452.27684 261.362222 
L 438.9107 261.250494 
L 437.586328 261.220856 
L 426.132353 260.882535 
L 413.862252 260.297262 
L 403.156494 259.611853 
" style="fill:none;stroke:#62fbc4;stroke-width:1.5;"/>
    <path clip-path="url(#p9d0e0eadb1)" d="M 333.40455 190.132683 
L 341.028453 188.420056 
L 350.067407 186.617743 
L 358.827654 185.09861 
L 359.854943 184.930413 
L 370.528343 183.376014 
L 378.242173 182.405168 
L 382.115228 181.957142 
L 394.731216 180.688471 
L 395.259851 180.643182 
L 408.774407 179.623239 
L 410.687545 179.502512 
L 424.516001 178.796691 
L 425.066919 178.773821 
L 438.573903 178.392028 
L 442.830334 178.325875 
L 451.453752 178.262387 
L 463.783 178.357435 
L 465.005342 178.382655 
L 475.585844 178.67073 
L 486.94863 179.169912 
L 496.896548 179.75584 
" style="fill:none;stroke:#62fbc4;stroke-width:1.5;"/>
    <path clip-path="url(#p9d0e0eadb1)" d="M 565.83869 189.09892 
L 573.234895 190.872519 
L 581.106197 192.997107 
L 587.82666 195.077413 
L 588.575629 195.322573 
L 595.567855 197.885693 
L 600.002198 199.754098 
L 602.06854 200.696902 
L 608.014078 203.788947 
L 608.230276 203.919209 
L 613.183157 207.266394 
L 613.784754 207.742825 
L 617.424356 211.20455 
L 617.547 211.343092 
L 619.779597 214.754203 
L 620.248242 215.834556 
L 620.889749 218.030791 
L 620.989548 221.187182 
L 620.929561 221.501084 
L 620.099409 224.225111 
L 618.359855 227.163112 
L 616.167456 229.744821 
" style="fill:none;stroke:#62fbc4;stroke-width:1.5;"/>
    <path clip-path="url(#p9d0e0eadb1)" d="M 392.653136 234.82253 
L 401.78107 236.583036 
L 411.703731 238.02399 
L 422.415136 239.142723 
L 430.761977 239.700613 
L 433.968745 239.910894 
L 446.369004 240.320771 
L 457.969959 240.292908 
L 459.846661 240.265871 
L 474.659131 239.62565 
L 475.891304 239.542819 
L 489.952052 238.24277 
L 491.620122 238.031811 
L 501.632687 236.610031 
L 511.416454 234.716746 
L 513.731522 234.138394 
L 519.728409 232.62587 
L 526.597183 230.343322 
L 532.133022 227.886491 
L 536.34242 225.257919 
L 538.368964 223.224247 
L 539.128939 222.44565 
L 540.478106 219.44936 
L 540.129005 216.663479 
L 539.984887 216.214169 
L 537.192129 212.678611 
L 536.845518 212.38525 
L 531.521959 209.043203 
L 530.671394 208.647119 
L 524.968144 206.271013 
L 517.44487 203.946935 
L 515.158038 203.395513 
L 509.177994 201.966854 
L 500.17712 200.321073 
L 490.494294 198.982116 
L 480.123536 197.947558 
L 472.084111 197.433262 
L 469.000041 197.239692 
L 457.100999 196.862824 
L 445.980943 196.888424 
L 444.181605 196.913269 
L 429.955889 197.502305 
L 428.769712 197.578616 
L 415.183334 198.779455 
L 413.563063 198.974869 
L 403.79631 200.295922 
L 394.147218 202.066094 
L 391.839119 202.609365 
L 385.834939 204.03578 
L 378.838918 206.203943 
L 373.063138 208.558822 
L 368.513091 211.102961 
L 366.179202 213.089031 
L 365.296567 213.853538 
L 363.446383 216.817212 
L 363.314801 219.603931 
L 363.381588 220.056223 
L 365.587806 223.643199 
L 365.888433 223.943073 
L 370.737666 227.383989 
L 371.540424 227.794819 
L 376.997759 230.273029 
L 384.386158 232.719826 
L 386.665959 233.303717 
L 392.653136 234.82253 
" style="fill:none;stroke:#62fbc4;stroke-width:1.5;"/>
   </g>
   <g id="Line3DCollection_13">
    <path clip-path="url(#p9d0e0eadb1)" d="M 321.664258 239.809511 
L 313.969637 237.476696 
L 306.718737 234.951408 
L 303.791187 233.757506 
L 300.108686 232.192711 
L 294.0965 229.221574 
L 293.456135 228.848165 
L 288.876916 225.963167 
L 287.000729 224.536686 
L 284.547825 222.382852 
L 282.89362 220.594599 
L 281.322228 218.40099 
L 280.509908 216.927756 
L 279.566685 213.878908 
L 279.487021 213.48112 
L 279.653265 210.227847 
L 280.186476 208.468998 
L 280.692712 207.120732 
L 282.663749 204.166732 
L 285.316418 201.349843 
" style="fill:none;stroke:#7effb5;stroke-width:1.5;"/>
    <path clip-path="url(#p9d0e0eadb1)" d="M 572.411717 242.297719 
L 563.272142 244.316216 
L 553.26593 246.245341 
L 548.493735 247.035226 
L 542.208146 248.035428 
L 530.169381 249.69533 
L 528.646633 249.875245 
L 516.821136 251.176177 
L 510.933165 251.722375 
L 501.995768 252.451851 
L 494.533465 252.96053 
L 485.330457 253.467426 
L 479.120951 253.745426 
L 466.20047 254.128928 
L 464.508196 254.167691 
L 450.614001 254.269192 
L 443.065045 254.206655 
L 437.261542 254.132664 
L 424.500969 253.740298 
L 412.279627 253.157979 
" style="fill:none;stroke:#7effb5;stroke-width:1.5;"/>
    <path clip-path="url(#p9d0e0eadb1)" d="M 338.371788 180.602417 
L 347.364209 178.820876 
L 357.084101 177.130554 
L 361.674023 176.441899 
L 367.693101 175.572735 
L 379.126199 174.137301 
L 380.563501 173.982239 
L 391.682874 172.864028 
L 397.189568 172.396121 
L 405.518985 171.772655 
L 412.4496 171.338875 
L 420.972569 170.907411 
L 426.711481 170.671118 
L 438.629605 170.345539 
L 440.189127 170.312656 
L 452.985558 170.226574 
L 459.937831 170.279607 
L 465.284316 170.34237 
L 477.055527 170.675474 
L 488.358675 171.170715 
" style="fill:none;stroke:#7effb5;stroke-width:1.5;"/>
    <path clip-path="url(#p9d0e0eadb1)" d="M 574.947784 182.816917 
L 582.791155 184.911796 
L 590.329823 187.200171 
L 593.44019 188.289626 
L 597.389807 189.724952 
L 604.008384 192.473688 
L 604.734242 192.821337 
L 610.019688 195.524001 
L 612.277016 196.871345 
L 615.337487 198.919675 
L 617.522859 200.633249 
L 619.773459 202.751444 
L 621.055715 204.184154 
L 622.999735 207.175306 
L 623.211933 207.568194 
L 624.141605 210.804457 
L 624.204069 212.571409 
L 624.154093 213.934211 
L 623.170882 216.94562 
L 621.435181 219.850411 
" style="fill:none;stroke:#7effb5;stroke-width:1.5;"/>
    <path clip-path="url(#p9d0e0eadb1)" d="M 403.11289 228.263195 
L 413.056781 229.695459 
L 419.218059 230.325006 
L 423.826631 230.792121 
L 435.433113 231.543075 
L 447.94089 231.914774 
L 453.338191 231.901916 
L 461.621334 231.783544 
L 472.369442 231.309846 
L 476.759155 231.017141 
L 486.989518 230.092397 
L 494.351164 229.168964 
L 499.008951 228.512924 
L 508.962558 226.650655 
L 517.348227 224.578602 
L 520.3289 223.612265 
L 524.299032 222.317483 
L 529.852413 219.87433 
L 532.246165 218.371682 
L 534.015188 217.251799 
L 536.763779 214.448277 
L 537.980381 211.44906 
L 537.820849 210.160882 
L 537.189108 208.189979 
L 535.116882 205.641753 
L 533.883725 204.60346 
L 530.066021 202.187736 
L 526.314536 200.451403 
L 523.662687 199.353532 
L 516.197028 197.004826 
L 507.934804 195.020617 
L 504.092707 194.311752 
L 498.942231 193.366943 
L 489.231746 192.033201 
L 483.256781 191.449246 
L 478.797056 191.016857 
L 467.612885 190.323327 
L 455.598734 189.980778 
L 450.419173 189.992621 
L 442.467958 190.101662 
L 432.133358 190.538511 
L 427.902722 190.808837 
L 418.009393 191.664848 
L 410.848786 192.522639 
L 406.299035 193.133871 
L 396.489733 194.877268 
L 388.110215 196.831649 
L 385.086332 197.748414 
L 381.040176 198.982107 
L 375.25329 201.326779 
L 372.673215 202.779867 
L 370.755356 203.868322 
L 367.58456 206.614011 
L 365.874523 209.584787 
L 365.816407 210.871506 
L 366.116356 212.85284 
L 367.775217 215.437521 
L 368.849335 216.498176 
L 372.330038 218.982956 
L 375.880445 220.783787 
L 378.42421 221.928923 
L 385.745385 224.395787 
L 394.001255 226.498116 
L 397.886483 227.253285 
L 403.11289 228.263195 
" style="fill:none;stroke:#7effb5;stroke-width:1.5;"/>
   </g>
   <g id="Line3DCollection_14">
    <path clip-path="url(#p9d0e0eadb1)" d="M 313.932867 230.929129 
L 311.998255 230.346273 
L 304.68082 227.849644 
L 298.223407 225.232062 
L 297.982246 225.130194 
L 291.882319 222.199489 
L 288.968675 220.509897 
L 286.549355 218.993806 
L 282.9763 216.290876 
L 282.057682 215.487956 
L 279.208316 212.420298 
L 278.620719 211.602463 
L 277.078363 208.810428 
L 276.583976 207.207694 
L 276.226302 205.407103 
L 276.518973 202.189294 
L 276.554345 202.074702 
L 277.682844 199.116249 
L 279.741177 196.189882 
L 280.41235 195.484941 
" style="fill:none;stroke:#9cfba4;stroke-width:1.5;"/>
    <path clip-path="url(#p9d0e0eadb1)" d="M 568.57122 236.373904 
L 566.266869 236.879545 
L 556.317017 238.812178 
L 545.765836 240.547099 
L 545.353195 240.61233 
L 533.407885 242.283376 
L 526.461851 243.098599 
L 520.197129 243.783212 
L 508.951355 244.81945 
L 505.593106 245.091724 
L 492.690998 245.965311 
L 489.232965 246.154502 
L 477.373173 246.681891 
L 470.528496 246.883691 
L 462.809323 247.059314 
L 448.940159 247.129231 
L 448.44461 247.125153 
L 435.614022 246.962673 
L 422.858954 246.551517 
L 419.778131 246.405706 
" style="fill:none;stroke:#9cfba4;stroke-width:1.5;"/>
    <path clip-path="url(#p9d0e0eadb1)" d="M 342.388137 171.435798 
L 344.649753 170.991535 
L 354.321416 169.30115 
L 364.451787 167.793948 
L 364.846235 167.737466 
L 376.19377 166.295183 
L 382.740417 165.594769 
L 388.622299 165.008187 
L 399.125355 164.123124 
L 402.250732 163.891127 
L 414.217465 163.148325 
L 417.415499 162.987769 
L 428.36165 162.540789 
L 434.666259 162.369984 
L 441.769853 162.221438 
L 454.522785 162.162326 
L 454.978429 162.165773 
L 466.779689 162.303168 
L 478.530543 162.651206 
L 481.373953 162.774758 
" style="fill:none;stroke:#9cfba4;stroke-width:1.5;"/>
    <path clip-path="url(#p9d0e0eadb1)" d="M 582.504552 176.273038 
L 584.482316 176.796719 
L 592.079496 179.052904 
L 598.95894 181.441327 
L 599.218334 181.534757 
L 605.916868 184.238223 
L 609.230107 185.810584 
L 612.03231 187.230159 
L 616.347796 189.781609 
L 617.49912 190.544664 
L 621.28291 193.481934 
L 622.130178 194.27093 
L 624.58486 196.983533 
L 625.618447 198.554102 
L 626.590661 200.330388 
L 627.412264 203.536338 
L 627.416728 203.651262 
L 627.315777 206.636475 
L 626.260057 209.624174 
L 625.825952 210.34914 
" style="fill:none;stroke:#9cfba4;stroke-width:1.5;"/>
    <path clip-path="url(#p9d0e0eadb1)" d="M 387.109835 216.039767 
L 395.349237 218.143679 
L 404.463727 219.905056 
L 414.428903 221.328535 
L 425.238301 222.411279 
L 436.903146 223.142884 
L 448.522181 223.455066 
L 449.533053 223.470721 
L 463.40249 223.270235 
L 468.778783 223.035211 
L 478.897206 222.366047 
L 484.01435 221.907265 
L 496.34899 220.377144 
L 497.184147 220.239762 
L 506.497925 218.549273 
L 514.966754 216.497365 
L 521.96724 214.253137 
L 527.538302 211.82382 
L 531.686924 209.212122 
L 534.388393 206.416327 
L 535.405019 203.650986 
L 535.447437 203.411196 
L 534.381658 200.132294 
L 533.347228 198.866039 
L 530.508705 196.488549 
L 528.600768 195.288414 
L 522.335637 192.398661 
L 521.778408 192.202946 
L 514.941508 190.019997 
L 506.688975 188.029786 
L 497.686981 186.375932 
L 487.948644 185.04748 
L 477.467501 184.041843 
L 466.21725 183.364684 
L 455.044815 183.076309 
L 454.073473 183.061857 
L 440.743481 183.247004 
L 435.568687 183.464226 
L 425.805668 184.08377 
L 420.851656 184.509446 
L 408.839632 185.934557 
L 408.020943 186.062919 
L 398.845439 187.64796 
L 390.389555 189.585754 
L 383.276413 191.722803 
L 377.478422 194.057131 
L 373.001549 196.591443 
L 369.88559 199.333238 
L 368.422528 202.074977 
L 368.340595 202.314134 
L 368.867138 205.607276 
L 369.700136 206.890565 
L 372.183335 209.317641 
L 373.928154 210.551616 
L 379.870606 213.547418 
L 380.411357 213.751582 
L 387.109835 216.039767 
" style="fill:none;stroke:#9cfba4;stroke-width:1.5;"/>
   </g>
   <g id="Line3DCollection_15">
    <path clip-path="url(#p9d0e0eadb1)" d="M 306.813398 222.113686 
L 302.62974 220.702006 
L 295.80488 218.036584 
L 293.002322 216.728456 
L 289.653658 215.131486 
L 284.463468 212.138652 
L 284.206433 211.978451 
L 279.541253 208.550646 
L 278.943085 208.01261 
L 275.905539 204.755577 
L 275.492645 204.209937 
L 273.632398 200.65899 
L 273.580296 200.489575 
L 272.951776 197.298899 
L 273.122897 195.544133 
L 273.313849 194.108394 
L 274.660115 191.077566 
L 275.855807 189.420388 
" style="fill:none;stroke:#b9ef92;stroke-width:1.5;"/>
    <path clip-path="url(#p9d0e0eadb1)" d="M 565.056629 230.235355 
L 559.386314 231.334649 
L 548.579223 233.153407 
L 543.228683 233.913249 
L 536.666001 234.826534 
L 524.261163 236.272615 
L 523.593758 236.345059 
L 509.228819 237.688325 
L 506.960065 237.865784 
L 493.151992 238.794375 
L 490.826738 238.925833 
L 475.613549 239.57048 
L 474.884373 239.591832 
L 461.099072 239.903327 
L 453.4765 239.940313 
L 447.219543 239.957322 
L 433.955662 239.745509 
L 426.674397 239.508268 
" style="fill:none;stroke:#b9ef92;stroke-width:1.5;"/>
    <path clip-path="url(#p9d0e0eadb1)" d="M 346.0421 162.397574 
L 351.547277 161.439287 
L 361.931442 159.862401 
L 367.024631 159.206755 
L 373.249406 158.421144 
L 384.923736 157.182632 
L 385.549419 157.12076 
L 398.954955 155.976512 
L 401.062892 155.825768 
L 413.852041 155.038568 
L 415.999785 154.927344 
L 430.017455 154.382693 
L 430.688127 154.364675 
L 443.356096 154.101979 
L 450.354266 154.070808 
L 456.09808 154.056474 
L 468.280444 154.235035 
L 474.977154 154.435198 
" style="fill:none;stroke:#b9ef92;stroke-width:1.5;"/>
    <path clip-path="url(#p9d0e0eadb1)" d="M 589.485853 169.601066 
L 593.835575 170.87581 
L 601.084742 173.301403 
L 604.145131 174.500876 
L 607.832165 175.97336 
L 613.753221 178.757339 
L 614.051981 178.907268 
L 619.676217 182.137635 
L 620.435079 182.648592 
L 624.490476 185.764679 
L 625.08065 186.290597 
L 628.134614 189.740862 
L 628.245122 189.906682 
L 629.98903 193.050505 
L 630.441176 194.796548 
L 630.762429 196.234262 
L 630.495749 199.296525 
L 629.883635 200.986732 
" style="fill:none;stroke:#b9ef92;stroke-width:1.5;"/>
    <path clip-path="url(#p9d0e0eadb1)" d="M 388.479536 207.65158 
L 396.702458 209.756776 
L 405.826128 211.51166 
L 415.812662 212.926266 
L 426.65548 213.997733 
L 438.378877 214.710133 
L 442.60206 214.822669 
L 451.224555 214.955094 
L 465.17103 214.726178 
L 465.190966 214.725432 
L 481.025064 213.686956 
L 481.043792 213.685167 
L 493.515436 212.183316 
L 500.637881 211.021549 
L 504.022486 210.412368 
L 512.57482 208.380632 
L 519.614482 206.151893 
L 525.203345 203.736565 
L 529.348506 201.137382 
L 532.002714 198.349575 
L 532.375383 197.350336 
L 532.743455 195.317031 
L 531.564437 192.045377 
L 531.561082 192.040713 
L 527.12535 188.34514 
L 527.117879 188.340777 
L 520.912293 185.437473 
L 516.162021 183.779827 
L 513.678237 182.992051 
L 505.435506 180.996081 
L 496.418199 179.344655 
L 486.651834 178.021576 
L 476.129826 177.024225 
L 464.813058 176.363375 
L 460.746399 176.259147 
L 452.449045 176.136556 
L 439.026495 176.348511 
L 439.00729 176.349202 
L 423.711605 177.313082 
L 423.693447 177.314746 
L 411.549609 178.715557 
L 404.554952 179.804745 
L 401.214448 180.377827 
L 392.681755 182.298977 
L 385.535582 184.423936 
L 379.726469 186.747771 
L 375.260504 189.273219 
L 372.199766 192.010865 
L 371.670626 192.999507 
L 370.97753 195.023414 
L 371.632811 198.314627 
L 371.635436 198.319349 
L 375.532869 202.089472 
L 375.539769 202.093956 
L 381.417506 205.095642 
L 386.039905 206.825416 
L 388.479536 207.65158 
" style="fill:none;stroke:#b9ef92;stroke-width:1.5;"/>
   </g>
   <g id="Line3DCollection_16">
    <path clip-path="url(#p9d0e0eadb1)" d="M 300.048761 213.323944 
L 293.610449 210.897623 
L 287.78918 208.196694 
L 287.410376 208.017112 
L 281.771858 204.946484 
L 279.979602 203.739844 
L 276.993492 201.57227 
L 274.90476 199.702196 
L 273.178936 197.858953 
L 271.738998 195.962284 
L 270.580095 193.714534 
L 270.053296 192.456417 
L 269.663356 189.156291 
L 269.68342 188.958843 
L 270.09078 185.99257 
L 271.494356 183.217118 
" style="fill:none;stroke:#d4dd80;stroke-width:1.5;"/>
    <path clip-path="url(#p9d0e0eadb1)" d="M 561.726978 223.947948 
L 551.82945 225.650036 
L 540.688163 227.221522 
L 539.943909 227.324394 
L 527.138633 228.879352 
L 522.067468 229.38654 
L 512.91125 230.242331 
L 504.961439 230.859895 
L 497.083699 231.386053 
L 488.93594 231.843522 
L 479.226936 232.246969 
L 473.769562 232.442184 
L 459.377328 232.699252 
L 458.51291 232.703417 
L 445.484719 232.738589 
L 433.227959 232.504576 
" style="fill:none;stroke:#d4dd80;stroke-width:1.5;"/>
    <path clip-path="url(#p9d0e0eadb1)" d="M 349.48372 153.427052 
L 359.000457 151.954474 
L 369.588277 150.603174 
L 370.293033 150.514991 
L 382.348861 149.186172 
L 387.09098 148.754401 
L 395.6243 148.027702 
L 403.000057 147.504723 
L 410.285762 147.060092 
L 417.800862 146.674209 
L 426.732862 146.334434 
L 431.746484 146.17021 
L 444.947885 145.954132 
L 445.740254 145.950633 
L 457.681384 145.921085 
L 468.922441 146.117747 
" style="fill:none;stroke:#d4dd80;stroke-width:1.5;"/>
    <path clip-path="url(#p9d0e0eadb1)" d="M 596.139722 162.83501 
L 602.960215 165.037443 
L 609.335957 167.513403 
L 609.754311 167.678943 
L 616.142772 170.52733 
L 618.264067 171.655957 
L 621.872837 173.696765 
L 624.535166 175.47142 
L 626.852376 177.233404 
L 628.924125 179.05986 
L 630.858816 181.242211 
L 631.828613 182.472246 
L 633.407214 185.728178 
L 633.459063 185.924348 
L 634.136705 188.890213 
L 633.746962 191.697591 
" style="fill:none;stroke:#d4dd80;stroke-width:1.5;"/>
    <path clip-path="url(#p9d0e0eadb1)" d="M 398.060947 201.337219 
L 407.193855 203.085454 
L 417.201838 204.491107 
L 428.078199 205.551293 
L 435.442914 205.989154 
L 439.945766 206.208923 
L 452.922359 206.407738 
L 460.808412 206.279376 
L 467.243267 206.040566 
L 477.573236 205.368745 
L 483.618137 204.796183 
L 490.669667 203.954166 
L 501.388509 202.219253 
L 504.786071 201.48876 
L 510.172356 200.228167 
L 517.251377 198.015023 
L 522.858143 195.61383 
L 526.999868 193.02735 
L 528.649617 191.287648 
L 529.46021 190.227826 
L 530.028011 187.188554 
L 529.365281 185.350643 
L 528.285424 183.855155 
L 525.395543 181.460669 
L 522.986402 180.062055 
L 519.479895 178.432 
L 512.326747 175.954195 
L 509.333245 175.16746 
L 504.174325 173.919109 
L 495.141637 172.270259 
L 485.347082 170.952644 
L 474.783955 169.963611 
L 467.664556 169.556323 
L 463.318708 169.35216 
L 450.81438 169.167612 
L 443.215866 169.286746 
L 437.008984 169.508546 
L 427.019067 170.133617 
L 421.150373 170.667624 
L 414.275148 171.455104 
L 403.738344 173.085811 
L 400.365397 173.775737 
L 394.986924 174.970971 
L 387.80755 177.083718 
L 381.987282 179.396904 
L 377.532331 181.913294 
L 375.637319 183.620461 
L 374.669766 184.666283 
L 373.629858 187.690136 
L 374.005146 189.536728 
L 374.8571 191.049421 
L 377.406996 193.490629 
L 379.639939 194.92757 
L 382.970113 196.61268 
L 389.941106 199.195827 
L 392.909936 200.021528 
L 398.060947 201.337219 
" style="fill:none;stroke:#d4dd80;stroke-width:1.5;"/>
    <path clip-path="url(#p9d0e0eadb1)" d="M 443.829323 188.022729 
L 443.679225 187.888351 
L 449.403599 185.53523 
L 449.966549 185.4994 
L 459.858579 186.856518 
L 460.010704 186.990617 
L 454.303094 189.35065 
L 453.738117 189.386758 
L 443.829323 188.022729 
" style="fill:none;stroke:#d4dd80;stroke-width:1.5;"/>
   </g>
   <g id="Line3DCollection_17">
    <path clip-path="url(#p9d0e0eadb1)" d="M 293.67734 204.564008 
L 291.401593 203.711733 
L 284.990239 200.91926 
L 282.598623 199.638603 
L 279.310654 197.87139 
L 275.483174 195.308346 
L 274.428502 194.5467 
L 270.849917 191.35779 
L 270.433588 190.914915 
L 267.96976 187.680373 
L 267.56205 186.89037 
L 266.443194 184.217256 
L 266.245067 182.314864 
L 266.110146 180.943917 
L 266.854 177.842221 
L 267.354821 176.866304 
" style="fill:none;stroke:#f0c46c;stroke-width:1.5;"/>
    <path clip-path="url(#p9d0e0eadb1)" d="M 558.60706 217.502007 
L 555.099396 218.101142 
L 543.512694 219.814504 
L 538.152821 220.467624 
L 530.722675 221.369891 
L 519.860854 222.448727 
L 516.616668 222.749858 
L 502.948621 223.804255 
L 501.040298 223.930831 
L 487.03197 224.711872 
L 483.591966 224.853826 
L 471.903077 225.269036 
L 463.538403 225.411836 
L 457.489033 225.513079 
L 443.738247 225.471382 
L 439.39484 225.389032 
" style="fill:none;stroke:#f0c46c;stroke-width:1.5;"/>
    <path clip-path="url(#p9d0e0eadb1)" d="M 352.691505 144.530334 
L 356.057432 144.014062 
L 367.080064 142.544061 
L 372.134296 141.98619 
L 379.119919 141.217747 
L 389.26162 140.302318 
L 392.280473 140.047455 
L 404.94336 139.157313 
L 406.70566 139.05069 
L 419.607873 138.393878 
L 422.767839 138.274707 
L 433.490458 137.926496 
L 441.150467 137.806863 
L 446.687674 137.722083 
L 459.270273 137.756996 
L 463.246556 137.825963 
" style="fill:none;stroke:#f0c46c;stroke-width:1.5;"/>
    <path clip-path="url(#p9d0e0eadb1)" d="M 602.42445 155.970083 
L 604.842437 156.743742 
L 611.819071 159.296576 
L 614.516649 160.476619 
L 618.249431 162.11469 
L 622.79699 164.510642 
L 624.076902 165.22729 
L 628.659808 168.251263 
L 629.221993 168.674253 
L 632.790405 171.786218 
L 633.477701 172.552391 
L 635.561137 175.162901 
L 636.462595 177.037871 
L 637.108686 178.397996 
L 637.530723 181.503197 
L 637.396318 182.488336 
" style="fill:none;stroke:#f0c46c;stroke-width:1.5;"/>
    <path clip-path="url(#p9d0e0eadb1)" d="M 408.566939 194.626244 
L 418.596462 196.022862 
L 424.20151 196.562529 
L 429.584282 197.039679 
L 441.631749 197.628324 
L 454.626501 197.828475 
L 456.428655 197.799389 
L 469.302661 197.325683 
L 474.107024 197.015872 
L 486.200291 195.880236 
L 487.811604 195.689467 
L 498.547418 193.963502 
L 507.625434 192.021396 
L 511.2244 190.971278 
L 514.877858 189.842291 
L 520.502631 187.455382 
L 522.635716 186.130854 
L 524.507735 184.863717 
L 526.712703 182.044811 
L 527.301031 179.025545 
L 527.15049 178.608312 
L 524.996407 175.636213 
L 523.654196 174.53027 
L 518.839113 171.751651 
L 518.038355 171.381817 
L 510.860041 168.916403 
L 502.832187 166.828649 
L 498.50702 165.99741 
L 493.857221 165.152345 
L 484.034314 163.840285 
L 478.580747 163.335216 
L 473.356024 162.889544 
L 461.706813 162.34088 
L 449.169381 162.15461 
L 447.430932 162.18167 
L 434.997509 162.622808 
L 430.346059 162.911761 
L 418.589487 163.973947 
L 417.016382 164.152842 
L 406.464377 165.777486 
L 397.433786 167.618838 
L 393.802202 168.620379 
L 390.092425 169.701799 
L 384.260969 172.004177 
L 381.976401 173.291281 
L 379.946349 174.529015 
L 377.343216 177.305198 
L 376.297715 180.313925 
L 376.38457 180.732603 
L 378.098194 183.735646 
L 379.28752 184.862435 
L 383.765917 187.716074 
L 384.528461 188.098358 
L 391.522867 190.66173 
L 399.503159 192.853 
L 403.860881 193.730761 
L 408.566939 194.626244 
" style="fill:none;stroke:#f0c46c;stroke-width:1.5;"/>
    <path clip-path="url(#p9d0e0eadb1)" d="M 442.010709 180.983282 
L 440.561655 179.69306 
L 446.305392 177.354433 
L 451.748375 177.010925 
L 461.660465 178.358836 
L 463.135099 179.64557 
L 457.418028 181.995105 
L 451.949465 182.342102 
L 442.010709 180.983282 
" style="fill:none;stroke:#f0c46c;stroke-width:1.5;"/>
   </g>
   <g id="Line3DCollection_18">
    <path clip-path="url(#p9d0e0eadb1)" d="M 287.301699 195.775998 
L 282.530037 193.782851 
L 277.394472 191.04876 
L 276.832878 190.748657 
L 271.710328 187.525549 
L 270.810675 186.820923 
L 267.505867 183.985355 
L 266.522445 182.943239 
L 264.42241 180.055919 
L 263.973414 179.334403 
L 262.817964 175.943568 
L 262.78521 175.620344 
L 262.505365 172.692035 
L 263.193756 170.461041 
" style="fill:none;stroke:#ffa256;stroke-width:1.5;"/>
    <path clip-path="url(#p9d0e0eadb1)" d="M 555.471808 210.998395 
L 547.143261 212.263677 
L 535.601645 213.660327 
L 534.328971 213.813802 
L 520.572361 215.242243 
L 517.54434 215.500838 
L 505.29564 216.466675 
L 500.767782 216.764907 
L 488.153308 217.436407 
L 484.986315 217.585655 
L 470.023681 218.046267 
L 468.590982 218.070554 
L 455.564994 218.287027 
L 445.586204 218.22078 
" style="fill:none;stroke:#ffa256;stroke-width:1.5;"/>
    <path clip-path="url(#p9d0e0eadb1)" d="M 355.895676 135.618636 
L 363.818396 134.536324 
L 374.683526 133.347625 
L 375.878034 133.217382 
L 388.718555 132.008769 
L 391.529383 131.790662 
L 402.86439 130.977913 
L 407.039195 130.727545 
L 418.635655 130.164838 
L 421.541402 130.039963 
L 435.240308 129.655007 
L 436.550202 129.634727 
L 448.454179 129.454055 
L 457.569406 129.50933 
" style="fill:none;stroke:#ffa256;stroke-width:1.5;"/>
    <path clip-path="url(#p9d0e0eadb1)" d="M 608.732385 149.057815 
L 613.910828 150.876697 
L 619.723563 153.39492 
L 620.363371 153.672979 
L 626.402032 156.680147 
L 627.518768 157.342682 
L 631.736502 160.02768 
L 633.07256 161.022101 
L 636.189124 163.799025 
L 636.898935 164.497991 
L 639.315793 167.810216 
L 639.471113 168.128323 
L 640.870717 171.029383 
L 641.044123 173.262975 
" style="fill:none;stroke:#ffa256;stroke-width:1.5;"/>
    <path clip-path="url(#p9d0e0eadb1)" d="M 393.110494 182.09599 
L 401.153617 184.254573 
L 410.178377 186.039553 
L 420.228903 187.426793 
L 431.297241 188.412931 
L 443.324028 189.015686 
L 450.91327 189.132045 
L 456.629708 189.096016 
L 470.478256 188.607798 
L 471.453764 188.545433 
L 484.431853 187.319317 
L 489.424519 186.671792 
L 495.694056 185.672096 
L 504.721162 183.731588 
L 512.095708 181.579517 
L 517.73924 179.207299 
L 521.660257 176.618165 
L 523.953472 173.826876 
L 524.304482 172.075411 
L 524.058876 170.760413 
L 521.820142 167.587209 
L 521.548005 167.364218 
L 516.309287 164.40165 
L 513.577142 163.263299 
L 509.383961 161.83363 
L 501.292027 159.771454 
L 492.346092 158.079544 
L 482.494058 156.772892 
L 471.727977 155.848396 
L 460.084686 155.28509 
L 452.752154 155.176501 
L 447.230174 155.210119 
L 433.835209 155.666137 
L 432.88963 155.724452 
L 420.262749 156.873868 
L 415.376139 157.483142 
L 409.206187 158.426861 
L 400.227772 160.269453 
L 392.774293 162.32968 
L 386.932209 164.621333 
L 382.708951 167.147638 
L 380.032324 169.901001 
L 379.424679 171.64469 
L 379.475885 172.962069 
L 381.26115 176.170414 
L 381.503363 176.397453 
L 386.390888 179.433728 
L 389.016953 180.610347 
L 393.110494 182.09599 
" style="fill:none;stroke:#ffa256;stroke-width:1.5;"/>
    <path clip-path="url(#p9d0e0eadb1)" d="M 440.180157 173.897623 
L 437.430982 171.463324 
L 443.194194 169.139333 
L 453.536552 168.492197 
L 463.468781 169.830829 
L 466.278006 172.257005 
L 460.551462 174.595877 
L 450.149055 175.251136 
L 440.180157 173.897623 
" style="fill:none;stroke:#ffa256;stroke-width:1.5;"/>
   </g>
   <g id="Line3DCollection_19">
    <path clip-path="url(#p9d0e0eadb1)" d="M 280.925422 186.960214 
L 280.053174 186.598112 
L 274.007443 183.704389 
L 271.866775 182.383515 
L 268.809354 180.518259 
L 265.929343 178.273339 
L 264.480832 177.035971 
L 262.057819 174.478072 
L 261.139122 173.21795 
L 259.706083 170.918786 
L 259.108224 168.947964 
L 258.666292 167.564399 
L 258.885488 164.405595 
L 259.013242 163.999915 
" style="fill:none;stroke:#ff7e41;stroke-width:1.5;"/>
    <path clip-path="url(#p9d0e0eadb1)" d="M 552.323182 204.435562 
L 550.796398 204.66591 
L 538.510282 206.287108 
L 532.852799 206.878058 
L 524.827201 207.725044 
L 515.097367 208.550161 
L 509.706667 208.972262 
L 498.498971 209.705273 
L 492.947336 209.998728 
L 482.771035 210.474921 
L 473.998733 210.725057 
L 467.816672 210.906991 
L 453.627604 211.010837 
L 451.798425 210.99878 
" style="fill:none;stroke:#ff7e41;stroke-width:1.5;"/>
    <path clip-path="url(#p9d0e0eadb1)" d="M 359.094152 126.692584 
L 360.543601 126.49636 
L 372.126293 125.120171 
L 377.414076 124.62063 
L 384.896072 123.906601 
L 393.912793 123.213202 
L 398.892833 122.859317 
L 409.209821 122.246104 
L 414.3048 122.001083 
L 423.626177 121.60406 
L 431.642045 121.395795 
L 437.286659 121.244438 
L 450.226652 121.158092 
L 451.894442 121.168116 
" style="fill:none;stroke:#ff7e41;stroke-width:1.5;"/>
    <path clip-path="url(#p9d0e0eadb1)" d="M 615.060053 142.097319 
L 616.009813 142.427718 
L 622.759911 145.085101 
L 625.270418 146.308235 
L 628.871462 148.046429 
L 632.464193 150.155623 
L 634.322999 151.326298 
L 637.635626 153.76484 
L 639.010287 154.97543 
L 641.296791 157.20018 
L 642.649636 159.123811 
L 643.627936 160.483507 
L 644.655185 163.616823 
L 644.688476 164.022184 
" style="fill:none;stroke:#ff7e41;stroke-width:1.5;"/>
    <path clip-path="url(#p9d0e0eadb1)" d="M 402.81016 175.624447 
L 411.893653 177.381471 
L 421.965004 178.759141 
L 433.016541 179.754245 
L 444.856481 180.362002 
L 445.032087 180.366973 
L 458.762777 180.282546 
L 465.873501 180.034062 
L 474.160549 179.508982 
L 480.823983 178.885 
L 492.811981 177.34259 
L 492.952101 177.317684 
L 501.804406 175.406143 
L 509.134282 173.258591 
L 514.796956 170.901322 
L 518.800626 168.337423 
L 521.14836 165.611914 
L 521.16621 165.571637 
L 520.591825 162.433096 
L 519.446088 160.814812 
L 517.138561 158.933391 
L 514.451487 157.423092 
L 507.889451 154.709101 
L 507.784324 154.677355 
L 499.741957 152.668855 
L 490.733206 150.998836 
L 480.851614 149.697588 
L 470.089498 148.762131 
L 458.613089 148.192628 
L 458.443137 148.187976 
L 445.158647 148.267005 
L 438.271701 148.499756 
L 430.226684 148.992349 
L 423.734296 149.579068 
L 411.979663 151.035664 
L 411.84129 151.059259 
L 403.038065 152.877173 
L 395.633352 154.93629 
L 389.780867 157.217158 
L 385.487791 159.722873 
L 382.776602 162.415443 
L 382.7531 162.45546 
L 382.881406 165.594146 
L 383.803417 167.228459 
L 385.868952 169.142353 
L 388.384984 170.689594 
L 394.713597 173.494626 
L 394.816976 173.527626 
L 402.81016 175.624447 
" style="fill:none;stroke:#ff7e41;stroke-width:1.5;"/>
    <path clip-path="url(#p9d0e0eadb1)" d="M 438.337548 166.765297 
L 434.287122 163.198923 
L 440.069923 160.889712 
L 455.331113 159.943056 
L 465.283563 161.272332 
L 469.439589 164.824535 
L 463.703561 167.152575 
L 448.33677 168.113402 
L 438.337548 166.765297 
" style="fill:none;stroke:#ff7e41;stroke-width:1.5;"/>
   </g>
   <g id="Line3DCollection_20">
    <path clip-path="url(#p9d0e0eadb1)" d="M 274.135436 178.058789 
L 271.075943 176.643244 
L 266.239605 173.674884 
L 265.887881 173.461454 
L 261.274789 170.096865 
L 260.795604 169.660009 
L 257.682857 166.385661 
L 257.327285 165.944708 
L 255.421485 162.469115 
L 255.353446 162.243506 
L 254.365072 159.132981 
L 254.554208 157.57807 
" style="fill:none;stroke:#ff562c;stroke-width:1.5;"/>
    <path clip-path="url(#p9d0e0eadb1)" d="M 548.921761 197.916759 
L 542.862127 198.731974 
L 530.035901 200.062344 
L 529.109443 200.159433 
L 514.412807 201.465922 
L 512.49258 201.606603 
L 498.022437 202.546296 
L 496.063552 202.657506 
L 480.539625 203.31241 
L 479.526999 203.34108 
L 465.511786 203.750613 
L 458.466469 203.783208 
" style="fill:none;stroke:#ff562c;stroke-width:1.5;"/>
    <path clip-path="url(#p9d0e0eadb1)" d="M 362.524937 117.664025 
L 368.231029 116.974845 
L 380.196773 115.854748 
L 381.058865 115.773226 
L 394.666666 114.679142 
L 396.436493 114.561655 
L 409.733353 113.7785 
L 411.52855 113.686 
L 425.717399 113.142067 
L 426.641048 113.118286 
L 439.414798 112.778868 
L 445.826612 112.751875 
" style="fill:none;stroke:#ff562c;stroke-width:1.5;"/>
    <path clip-path="url(#p9d0e0eadb1)" d="M 621.82202 135.140902 
L 625.235549 136.439481 
L 630.932659 139.186474 
L 631.348748 139.385247 
L 637.050107 142.541389 
L 637.679547 142.954325 
L 641.964073 146.072737 
L 642.48308 146.495864 
L 645.721556 149.857715 
L 645.878397 150.077597 
L 648.105654 153.130017 
L 648.548629 154.670614 
" style="fill:none;stroke:#ff562c;stroke-width:1.5;"/>
    <path clip-path="url(#p9d0e0eadb1)" d="M 404.472821 166.962446 
L 413.615221 168.69163 
L 423.707482 170.05965 
L 434.742218 171.063444 
L 435.320947 171.092887 
L 447.376071 171.43102 
L 460.903111 171.439056 
L 461.250855 171.427012 
L 476.875297 170.445944 
L 477.20115 170.415703 
L 488.826513 168.830626 
L 498.442567 167.137375 
L 498.875084 167.044833 
L 506.160181 164.90205 
L 511.842109 162.559879 
L 515.928764 160.021264 
L 516.044309 159.888724 
L 517.284962 157.138175 
L 517.110635 154.071819 
L 517.054789 153.993223 
L 512.712351 150.470506 
L 512.58108 150.397182 
L 505.786141 147.781289 
L 498.574781 145.617843 
L 498.181883 145.520412 
L 489.109876 143.872284 
L 479.19855 142.576537 
L 468.440486 141.630314 
L 467.878216 141.602618 
L 456.183475 141.284777 
L 443.073197 141.277228 
L 442.735948 141.288541 
L 427.544633 142.211945 
L 427.226687 142.240467 
L 415.821189 143.740304 
L 406.296293 145.353156 
L 405.864808 145.441624 
L 398.509234 147.499397 
L 392.646327 149.769313 
L 388.283014 152.254338 
L 388.151013 152.384794 
L 386.550053 155.10826 
L 386.307718 158.181241 
L 386.353071 158.260524 
L 390.262444 161.84088 
L 390.385807 161.915968 
L 396.960841 164.609964 
L 404.08096 166.860602 
L 404.472821 166.962446 
" style="fill:none;stroke:#ff562c;stroke-width:1.5;"/>
    <path clip-path="url(#p9d0e0eadb1)" d="M 436.107771 159.735161 
L 432.457851 158.162245 
L 430.665571 156.589734 
L 430.489718 154.814284 
L 436.293234 152.520405 
L 443.058622 151.681904 
L 449.831584 151.265691 
L 457.500621 151.21659 
L 467.472352 152.536031 
L 471.157677 154.090655 
L 473.011186 155.655017 
L 473.265723 157.433573 
L 467.521238 159.751023 
L 460.720447 160.603699 
L 453.886254 161.028063 
L 446.138531 161.078174 
L 436.107771 159.735161 
" style="fill:none;stroke:#ff562c;stroke-width:1.5;"/>
   </g>
   <g id="Line3DCollection_21">
    <path clip-path="url(#p9d0e0eadb1)" d="M 266.859667 169.062926 
L 262.161523 166.648072 
L 259.576517 164.793774 
L 257.473036 163.320302 
L 254.807865 160.898821 
L 253.665887 159.700604 
L 251.691272 157.256143 
L 250.92417 155.725663 
L 249.910964 153.820105 
L 249.767166 151.210595 
" style="fill:none;stroke:#ff2c16;stroke-width:1.5;"/>
    <path clip-path="url(#p9d0e0eadb1)" d="M 545.221894 191.458458 
L 534.727254 192.723588 
L 526.596322 193.449353 
L 520.105494 194.040999 
L 509.367592 194.82222 
L 504.02577 195.166717 
L 493.071753 195.784264 
L 486.174192 196.055514 
L 477.550665 196.409227 
L 465.671554 196.583303 
" style="fill:none;stroke:#ff2c16;stroke-width:1.5;"/>
    <path clip-path="url(#p9d0e0eadb1)" d="M 366.228697 108.520103 
L 376.035986 107.458928 
L 383.568579 106.852483 
L 389.568233 106.35935 
L 399.44413 105.709913 
L 404.34218 105.424144 
L 414.359763 104.91281 
L 420.648613 104.688593 
L 428.502635 104.396558 
L 439.296989 104.252981 
" style="fill:none;stroke:#ff2c16;stroke-width:1.5;"/>
    <path clip-path="url(#p9d0e0eadb1)" d="M 629.095347 128.196528 
L 634.481308 130.424265 
L 637.664519 132.149651 
L 640.25891 133.529945 
L 643.7852 135.816309 
L 645.370351 136.956036 
L 648.279882 139.298569 
L 649.65454 140.777245 
L 651.435685 142.631389 
L 652.661826 145.194336 
" style="fill:none;stroke:#ff2c16;stroke-width:1.5;"/>
    <path clip-path="url(#p9d0e0eadb1)" d="M 399.215277 155.696862 
L 407.025365 157.921311 
L 415.861071 159.765305 
L 425.972914 161.123022 
L 437.350814 161.990334 
L 449.727611 162.466261 
L 454.251056 162.47049 
L 464.06774 162.15469 
L 471.789133 161.674365 
L 480.941252 160.810677 
L 484.82494 160.284267 
L 494.420935 158.446848 
L 502.286407 156.392402 
L 507.98915 154.066045 
L 511.539807 151.471773 
L 513.38822 148.671046 
L 513.340574 147.652109 
L 511.861177 145.447399 
L 509.720077 143.718337 
L 505.944249 141.672825 
L 503.668163 140.805161 
L 495.77748 138.658811 
L 486.985188 136.89435 
L 477.042571 135.60367 
L 465.939567 134.782913 
L 453.90816 134.333761 
L 449.515949 134.329775 
L 439.976484 134.627705 
L 432.455376 135.081586 
L 423.50458 135.89996 
L 419.686293 136.400167 
L 410.170824 138.154581 
L 402.261868 140.131929 
L 396.389863 142.391264 
L 392.564328 144.936566 
L 390.37059 147.715424 
L 390.287031 148.734496 
L 391.489262 150.954462 
L 393.430103 152.709958 
L 397.004606 154.803377 
L 399.215277 155.696862 
" style="fill:none;stroke:#ff2c16;stroke-width:1.5;"/>
    <path clip-path="url(#p9d0e0eadb1)" d="M 427.00033 150.076195 
L 426.229118 149.401871 
L 426.616787 146.387724 
L 432.441234 144.109359 
L 443.676714 142.556365 
L 446.600155 142.378416 
L 459.711823 142.447883 
L 469.702811 143.757379 
L 476.599411 146.31719 
L 477.403521 146.987172 
L 477.176209 150.005115 
L 471.423369 152.311837 
L 460.118142 153.896919 
L 457.161803 154.079211 
L 443.889773 154.008032 
L 433.827179 152.670178 
L 427.00033 150.076195 
" style="fill:none;stroke:#ff2c16;stroke-width:1.5;"/>
   </g>
   <g id="Line3DCollection_22">
    <path clip-path="url(#p9d0e0eadb1)" d="M 222.953795 152.779912 
L 225.327367 155.337787 
" style="fill:none;stroke:#ff0000;stroke-width:1.5;"/>
    <path clip-path="url(#p9d0e0eadb1)" d="M 258.387847 159.876554 
L 258.288552 159.825769 
L 252.911332 156.760831 
L 251.690313 155.717862 
L 248.737341 153.285891 
L 247.433708 151.919826 
L 245.690545 149.43508 
L 244.908344 148.382385 
L 244.199234 145.114461 
L 244.196509 145.059531 
" style="fill:none;stroke:#ff0000;stroke-width:1.5;"/>
    <path clip-path="url(#p9d0e0eadb1)" d="M 509.628809 194.368616 
L 521.162763 193.62511 
" style="fill:none;stroke:#ff0000;stroke-width:1.5;"/>
    <path clip-path="url(#p9d0e0eadb1)" d="M 540.802591 185.236771 
L 540.579776 185.26345 
L 527.055213 186.730485 
L 522.413519 187.083228 
L 511.539653 187.935811 
L 505.394552 188.329444 
L 494.153026 188.893206 
L 489.369326 189.14399 
L 474.426537 189.497517 
L 474.174348 189.501187 
" style="fill:none;stroke:#ff0000;stroke-width:1.5;"/>
    <path clip-path="url(#p9d0e0eadb1)" d="M 370.612599 99.11529 
L 370.820248 99.093041 
L 383.364389 97.873106 
L 387.634722 97.580802 
L 397.618726 96.875935 
L 403.238308 96.551279 
L 413.485092 96.087157 
L 417.839496 95.881019 
L 431.397636 95.590764 
L 431.62621 95.587753 
" style="fill:none;stroke:#ff0000;stroke-width:1.5;"/>
    <path clip-path="url(#p9d0e0eadb1)" d="M 399.994369 91.631045 
L 389.555598 92.23071 
" style="fill:none;stroke:#ff0000;stroke-width:1.5;"/>
    <path clip-path="url(#p9d0e0eadb1)" d="M 637.604248 121.352767 
L 637.718718 121.399591 
L 644.076399 124.243497 
L 645.668502 125.219376 
L 649.510417 127.511149 
L 651.338816 128.808534 
L 654.074971 131.187169 
L 655.285635 132.202307 
L 657.376328 135.382082 
L 657.402613 135.435901 
" style="fill:none;stroke:#ff0000;stroke-width:1.5;"/>
    <path clip-path="url(#p9d0e0eadb1)" d="M 674.833924 127.990839 
L 671.367122 125.576037 
" style="fill:none;stroke:#ff0000;stroke-width:1.5;"/>
    <path clip-path="url(#p9d0e0eadb1)" d="M 409.633334 148.834572 
L 418.75915 150.557351 
L 428.888881 151.903977 
L 440.014644 152.871253 
L 443.87552 153.03955 
L 453.208537 153.025817 
L 465.581664 152.798243 
L 467.684463 152.668684 
L 478.859405 151.446278 
L 486.919815 150.390499 
L 489.867484 149.804485 
L 497.291522 147.703324 
L 503.017011 145.393629 
L 507.052327 142.878489 
L 507.725977 142.010273 
L 507.543955 139.919162 
L 506.407541 137.160303 
L 505.825968 136.692572 
L 500.458086 134.209221 
L 495.850068 132.420776 
L 493.310394 131.76571 
L 484.231832 130.109801 
L 474.256 128.823628 
L 463.374959 127.904169 
L 459.611784 127.744566 
L 450.524539 127.757586 
L 438.470695 127.973442 
L 436.418152 128.096422 
L 425.4629 129.259979 
L 417.514264 130.269661 
L 414.583397 130.831993 
L 407.11205 132.859497 
L 401.232637 135.108749 
L 396.952613 137.582874 
L 396.181277 138.443007 
L 396.11757 140.527598 
L 396.934752 143.306193 
L 397.466074 143.780502 
L 402.614263 146.314664 
L 407.11048 148.156433 
L 409.633334 148.834572 
" style="fill:none;stroke:#ff0000;stroke-width:1.5;"/>
    <path clip-path="url(#p9d0e0eadb1)" d="M 430.782864 145.848614 
L 427.502837 144.669224 
L 423.370982 143.484259 
L 420.090696 140.626355 
L 421.139506 139.139285 
L 421.459858 137.760802 
L 427.307368 135.498889 
L 432.443794 134.760797 
L 437.612028 133.832074 
L 450.08504 133.080108 
L 456.600169 133.303517 
L 462.658973 133.365265 
L 472.667257 134.663957 
L 475.968132 135.818673 
L 480.131653 136.984597 
L 483.579607 139.820553 
L 482.628211 141.309766 
L 482.396205 142.698629 
L 476.637104 144.99526 
L 471.479834 145.74948 
L 466.279938 146.701883 
L 453.639253 147.475799 
L 447.026704 147.245609 
L 440.879551 147.182025 
L 430.782864 145.848614 
" style="fill:none;stroke:#ff0000;stroke-width:1.5;"/>
   </g>
  </g>
 </g>
 <defs>
  <clipPath id="p9d0e0eadb1">
   <rect height="326.16" width="669.6" x="108" y="51.84"/>
  </clipPath>
 </defs>
</svg>
