<?xml version="1.0" encoding="utf-8" standalone="no"?>
<!DOCTYPE svg PUBLIC "-//W3C//DTD SVG 1.1//EN"
  "http://www.w3.org/Graphics/SVG/1.1/DTD/svg11.dtd">
<!-- Created with matplotlib (http://matplotlib.org/) -->
<svg height="288pt" version="1.1" viewBox="0 0 864 288" width="864pt" xmlns="http://www.w3.org/2000/svg" xmlns:xlink="http://www.w3.org/1999/xlink">
 <defs>
  <style type="text/css">
*{stroke-linecap:butt;stroke-linejoin:round;}
  </style>
 </defs>
 <g id="figure_1">
  <g id="patch_1">
   <path d="M 0 288 
L 864 288 
L 864 0 
L 0 0 
z
"/>
  </g>
  <g id="axes_1">
   <g id="patch_2">
    <path d="M 108 256.32 
L 777.6 256.32 
L 777.6 34.56 
L 108 34.56 
z
"/>
   </g>
   <g id="matplotlib.axis_1">
    <g id="xtick_1">
     <g id="line2d_1"/>
     <g id="text_1">
      <!-- 0 -->
      <defs>
       <path d="M 4.15625 35.296875 
Q 4.15625 48 6.765625 55.734375 
Q 9.375 63.484375 14.515625 67.671875 
Q 19.671875 71.875 27.484375 71.875 
Q 33.25 71.875 37.59375 69.546875 
Q 41.9375 67.234375 44.765625 62.859375 
Q 47.609375 58.5 49.21875 52.21875 
Q 50.828125 45.953125 50.828125 35.296875 
Q 50.828125 22.703125 48.234375 14.96875 
Q 45.65625 7.234375 40.5 3 
Q 35.359375 -1.21875 27.484375 -1.21875 
Q 17.140625 -1.21875 11.234375 6.203125 
Q 4.15625 15.140625 4.15625 35.296875 
z
M 13.1875 35.296875 
Q 13.1875 17.671875 17.3125 11.828125 
Q 21.4375 6 27.484375 6 
Q 33.546875 6 37.671875 11.859375 
Q 41.796875 17.71875 41.796875 35.296875 
Q 41.796875 52.984375 37.671875 58.78125 
Q 33.546875 64.59375 27.390625 64.59375 
Q 21.34375 64.59375 17.71875 59.46875 
Q 13.1875 52.9375 13.1875 35.296875 
z
" id="ArialMT-30"/>
      </defs>
      <g style="fill:#ffffff;" transform="translate(135.655895 270.477813)scale(0.1 -0.1)">
       <use xlink:href="#ArialMT-30"/>
      </g>
     </g>
    </g>
    <g id="xtick_2">
     <g id="line2d_2"/>
     <g id="text_2">
      <!-- 20 -->
      <defs>
       <path d="M 50.34375 8.453125 
L 50.34375 0 
L 3.03125 0 
Q 2.9375 3.171875 4.046875 6.109375 
Q 5.859375 10.9375 9.828125 15.625 
Q 13.8125 20.3125 21.34375 26.46875 
Q 33.015625 36.03125 37.109375 41.625 
Q 41.21875 47.21875 41.21875 52.203125 
Q 41.21875 57.421875 37.46875 61 
Q 33.734375 64.59375 27.734375 64.59375 
Q 21.390625 64.59375 17.578125 60.78125 
Q 13.765625 56.984375 13.71875 50.25 
L 4.6875 51.171875 
Q 5.609375 61.28125 11.65625 66.578125 
Q 17.71875 71.875 27.9375 71.875 
Q 38.234375 71.875 44.234375 66.15625 
Q 50.25 60.453125 50.25 52 
Q 50.25 47.703125 48.484375 43.546875 
Q 46.734375 39.40625 42.65625 34.8125 
Q 38.578125 30.21875 29.109375 22.21875 
Q 21.1875 15.578125 18.9375 13.203125 
Q 16.703125 10.84375 15.234375 8.453125 
z
" id="ArialMT-32"/>
      </defs>
      <g style="fill:#ffffff;" transform="translate(255.850633 270.477813)scale(0.1 -0.1)">
       <use xlink:href="#ArialMT-32"/>
       <use x="55.615234" xlink:href="#ArialMT-30"/>
      </g>
     </g>
    </g>
    <g id="xtick_3">
     <g id="line2d_3"/>
     <g id="text_3">
      <!-- 40 -->
      <defs>
       <path d="M 32.328125 0 
L 32.328125 17.140625 
L 1.265625 17.140625 
L 1.265625 25.203125 
L 33.9375 71.578125 
L 41.109375 71.578125 
L 41.109375 25.203125 
L 50.78125 25.203125 
L 50.78125 17.140625 
L 41.109375 17.140625 
L 41.109375 0 
z
M 32.328125 25.203125 
L 32.328125 57.46875 
L 9.90625 25.203125 
z
" id="ArialMT-34"/>
      </defs>
      <g style="fill:#ffffff;" transform="translate(378.825839 270.477813)scale(0.1 -0.1)">
       <use xlink:href="#ArialMT-34"/>
       <use x="55.615234" xlink:href="#ArialMT-30"/>
      </g>
     </g>
    </g>
    <g id="xtick_4">
     <g id="line2d_4"/>
     <g id="text_4">
      <!-- 60 -->
      <defs>
       <path d="M 49.75 54.046875 
L 41.015625 53.375 
Q 39.84375 58.546875 37.703125 60.890625 
Q 34.125 64.65625 28.90625 64.65625 
Q 24.703125 64.65625 21.53125 62.3125 
Q 17.390625 59.28125 14.984375 53.46875 
Q 12.59375 47.65625 12.5 36.921875 
Q 15.671875 41.75 20.265625 44.09375 
Q 24.859375 46.4375 29.890625 46.4375 
Q 38.671875 46.4375 44.84375 39.96875 
Q 51.03125 33.5 51.03125 23.25 
Q 51.03125 16.5 48.125 10.71875 
Q 45.21875 4.9375 40.140625 1.859375 
Q 35.0625 -1.21875 28.609375 -1.21875 
Q 17.625 -1.21875 10.6875 6.859375 
Q 3.765625 14.9375 3.765625 33.5 
Q 3.765625 54.25 11.421875 63.671875 
Q 18.109375 71.875 29.4375 71.875 
Q 37.890625 71.875 43.28125 67.140625 
Q 48.6875 62.40625 49.75 54.046875 
z
M 13.875 23.1875 
Q 13.875 18.65625 15.796875 14.5 
Q 17.71875 10.359375 21.1875 8.171875 
Q 24.65625 6 28.46875 6 
Q 34.03125 6 38.03125 10.484375 
Q 42.046875 14.984375 42.046875 22.703125 
Q 42.046875 30.125 38.078125 34.390625 
Q 34.125 38.671875 28.125 38.671875 
Q 22.171875 38.671875 18.015625 34.390625 
Q 13.875 30.125 13.875 23.1875 
z
" id="ArialMT-36"/>
      </defs>
      <g style="fill:#ffffff;" transform="translate(501.801046 270.477813)scale(0.1 -0.1)">
       <use xlink:href="#ArialMT-36"/>
       <use x="55.615234" xlink:href="#ArialMT-30"/>
      </g>
     </g>
    </g>
    <g id="xtick_5">
     <g id="line2d_5"/>
     <g id="text_5">
      <!-- 80 -->
      <defs>
       <path d="M 17.671875 38.8125 
Q 12.203125 40.828125 9.5625 44.53125 
Q 6.9375 48.25 6.9375 53.421875 
Q 6.9375 61.234375 12.546875 66.546875 
Q 18.171875 71.875 27.484375 71.875 
Q 36.859375 71.875 42.578125 66.421875 
Q 48.296875 60.984375 48.296875 53.171875 
Q 48.296875 48.1875 45.671875 44.5 
Q 43.0625 40.828125 37.75 38.8125 
Q 44.34375 36.671875 47.78125 31.875 
Q 51.21875 27.09375 51.21875 20.453125 
Q 51.21875 11.28125 44.71875 5.03125 
Q 38.234375 -1.21875 27.640625 -1.21875 
Q 17.046875 -1.21875 10.546875 5.046875 
Q 4.046875 11.328125 4.046875 20.703125 
Q 4.046875 27.6875 7.59375 32.390625 
Q 11.140625 37.109375 17.671875 38.8125 
z
M 15.921875 53.71875 
Q 15.921875 48.640625 19.1875 45.40625 
Q 22.46875 42.1875 27.6875 42.1875 
Q 32.765625 42.1875 36.015625 45.375 
Q 39.265625 48.578125 39.265625 53.21875 
Q 39.265625 58.0625 35.90625 61.359375 
Q 32.5625 64.65625 27.59375 64.65625 
Q 22.5625 64.65625 19.234375 61.421875 
Q 15.921875 58.203125 15.921875 53.71875 
z
M 13.09375 20.65625 
Q 13.09375 16.890625 14.875 13.375 
Q 16.65625 9.859375 20.171875 7.921875 
Q 23.6875 6 27.734375 6 
Q 34.03125 6 38.125 10.046875 
Q 42.234375 14.109375 42.234375 20.359375 
Q 42.234375 26.703125 38.015625 30.859375 
Q 33.796875 35.015625 27.4375 35.015625 
Q 21.234375 35.015625 17.15625 30.90625 
Q 13.09375 26.8125 13.09375 20.65625 
z
" id="ArialMT-38"/>
      </defs>
      <g style="fill:#ffffff;" transform="translate(624.776253 270.477813)scale(0.1 -0.1)">
       <use xlink:href="#ArialMT-38"/>
       <use x="55.615234" xlink:href="#ArialMT-30"/>
      </g>
     </g>
    </g>
    <g id="xtick_6">
     <g id="line2d_6"/>
     <g id="text_6">
      <!-- 100 -->
      <defs>
       <path d="M 37.25 0 
L 28.46875 0 
L 28.46875 56 
Q 25.296875 52.984375 20.140625 49.953125 
Q 14.984375 46.921875 10.890625 45.40625 
L 10.890625 53.90625 
Q 18.265625 57.375 23.78125 62.296875 
Q 29.296875 67.234375 31.59375 71.875 
L 37.25 71.875 
z
" id="ArialMT-31"/>
      </defs>
      <g style="fill:#ffffff;" transform="translate(744.97099 270.477813)scale(0.1 -0.1)">
       <use xlink:href="#ArialMT-31"/>
       <use x="55.615234" xlink:href="#ArialMT-30"/>
       <use x="111.230469" xlink:href="#ArialMT-30"/>
      </g>
     </g>
    </g>
   </g>
   <g id="matplotlib.axis_2">
    <g id="ytick_1">
     <g id="line2d_7"/>
     <g id="text_7">
      <!-- −7.5 -->
      <defs>
       <path d="M 52.828125 31.203125 
L 5.5625 31.203125 
L 5.5625 39.40625 
L 52.828125 39.40625 
z
" id="ArialMT-2212"/>
       <path d="M 4.734375 62.203125 
L 4.734375 70.65625 
L 51.078125 70.65625 
L 51.078125 63.8125 
Q 44.234375 56.546875 37.515625 44.484375 
Q 30.8125 32.421875 27.15625 19.671875 
Q 24.515625 10.6875 23.78125 0 
L 14.75 0 
Q 14.890625 8.453125 18.0625 20.40625 
Q 21.234375 32.375 27.171875 43.484375 
Q 33.109375 54.59375 39.796875 62.203125 
z
" id="ArialMT-37"/>
       <path d="M 9.078125 0 
L 9.078125 10.015625 
L 19.09375 10.015625 
L 19.09375 0 
z
" id="ArialMT-2e"/>
       <path d="M 4.15625 18.75 
L 13.375 19.53125 
Q 14.40625 12.796875 18.140625 9.390625 
Q 21.875 6 27.15625 6 
Q 33.5 6 37.890625 10.78125 
Q 42.28125 15.578125 42.28125 23.484375 
Q 42.28125 31 38.0625 35.34375 
Q 33.84375 39.703125 27 39.703125 
Q 22.75 39.703125 19.328125 37.765625 
Q 15.921875 35.84375 13.96875 32.765625 
L 5.71875 33.84375 
L 12.640625 70.609375 
L 48.25 70.609375 
L 48.25 62.203125 
L 19.671875 62.203125 
L 15.828125 42.96875 
Q 22.265625 47.46875 29.34375 47.46875 
Q 38.71875 47.46875 45.15625 40.96875 
Q 51.609375 34.46875 51.609375 24.265625 
Q 51.609375 14.546875 45.953125 7.46875 
Q 39.0625 -1.21875 27.15625 -1.21875 
Q 17.390625 -1.21875 11.203125 4.25 
Q 5.03125 9.71875 4.15625 18.75 
z
" id="ArialMT-35"/>
      </defs>
      <g style="fill:#ffffff;" transform="translate(81.259375 243.521492)scale(0.1 -0.1)">
       <use xlink:href="#ArialMT-2212"/>
       <use x="58.398438" xlink:href="#ArialMT-37"/>
       <use x="114.013672" xlink:href="#ArialMT-2e"/>
       <use x="141.796875" xlink:href="#ArialMT-35"/>
      </g>
     </g>
    </g>
    <g id="ytick_2">
     <g id="line2d_8"/>
     <g id="text_8">
      <!-- −5.0 -->
      <g style="fill:#ffffff;" transform="translate(81.259375 216.49385)scale(0.1 -0.1)">
       <use xlink:href="#ArialMT-2212"/>
       <use x="58.398438" xlink:href="#ArialMT-35"/>
       <use x="114.013672" xlink:href="#ArialMT-2e"/>
       <use x="141.796875" xlink:href="#ArialMT-30"/>
      </g>
     </g>
    </g>
    <g id="ytick_3">
     <g id="line2d_9"/>
     <g id="text_9">
      <!-- −2.5 -->
      <g style="fill:#ffffff;" transform="translate(81.259375 189.466209)scale(0.1 -0.1)">
       <use xlink:href="#ArialMT-2212"/>
       <use x="58.398438" xlink:href="#ArialMT-32"/>
       <use x="114.013672" xlink:href="#ArialMT-2e"/>
       <use x="141.796875" xlink:href="#ArialMT-35"/>
      </g>
     </g>
    </g>
    <g id="ytick_4">
     <g id="line2d_10"/>
     <g id="text_10">
      <!-- 0.0 -->
      <g style="fill:#ffffff;" transform="translate(87.1 162.438568)scale(0.1 -0.1)">
       <use xlink:href="#ArialMT-30"/>
       <use x="55.615234" xlink:href="#ArialMT-2e"/>
       <use x="83.398438" xlink:href="#ArialMT-30"/>
      </g>
     </g>
    </g>
    <g id="ytick_5">
     <g id="line2d_11"/>
     <g id="text_11">
      <!-- 2.5 -->
      <g style="fill:#ffffff;" transform="translate(87.1 135.410926)scale(0.1 -0.1)">
       <use xlink:href="#ArialMT-32"/>
       <use x="55.615234" xlink:href="#ArialMT-2e"/>
       <use x="83.398438" xlink:href="#ArialMT-35"/>
      </g>
     </g>
    </g>
    <g id="ytick_6">
     <g id="line2d_12"/>
     <g id="text_12">
      <!-- 5.0 -->
      <g style="fill:#ffffff;" transform="translate(87.1 108.383285)scale(0.1 -0.1)">
       <use xlink:href="#ArialMT-35"/>
       <use x="55.615234" xlink:href="#ArialMT-2e"/>
       <use x="83.398438" xlink:href="#ArialMT-30"/>
      </g>
     </g>
    </g>
    <g id="ytick_7">
     <g id="line2d_13"/>
     <g id="text_13">
      <!-- 7.5 -->
      <g style="fill:#ffffff;" transform="translate(87.1 81.355644)scale(0.1 -0.1)">
       <use xlink:href="#ArialMT-37"/>
       <use x="55.615234" xlink:href="#ArialMT-2e"/>
       <use x="83.398438" xlink:href="#ArialMT-35"/>
      </g>
     </g>
    </g>
    <g id="ytick_8">
     <g id="line2d_14"/>
     <g id="text_14">
      <!-- 10.0 -->
      <g style="fill:#ffffff;" transform="translate(81.539062 54.328002)scale(0.1 -0.1)">
       <use xlink:href="#ArialMT-31"/>
       <use x="55.615234" xlink:href="#ArialMT-30"/>
       <use x="111.230469" xlink:href="#ArialMT-2e"/>
       <use x="139.013672" xlink:href="#ArialMT-30"/>
      </g>
     </g>
    </g>
   </g>
   <g id="line2d_15">
    <path clip-path="url(#pbb10d34b87)" d="M 138.436364 111.545683 
L 144.585124 124.891504 
L 150.733884 103.320988 
L 156.882645 146.117466 
L 163.031405 122.116177 
L 169.180165 189.942555 
L 175.328926 200.468073 
L 181.477686 183.107122 
L 187.626446 172.905812 
L 193.775207 194.784793 
L 199.923967 135.334628 
L 206.072727 178.66163 
L 212.221488 200.949793 
L 218.370248 105.311396 
L 224.519008 168.71284 
L 230.667769 219.848832 
L 236.816529 181.450118 
L 242.965289 178.469986 
L 249.11405 176.599371 
L 255.26281 122.072034 
L 261.41157 134.212189 
L 267.560331 106.897911 
L 273.709091 124.788293 
L 279.857851 160.302156 
L 286.006612 174.978142 
L 292.155372 147.357143 
L 298.304132 204.328759 
L 304.452893 179.139226 
L 310.601653 138.957839 
L 316.750413 139.745055 
L 322.899174 166.260121 
L 329.047934 90.010655 
L 335.196694 199.094516 
L 341.345455 108.419115 
L 347.494215 127.206548 
L 353.642975 181.468961 
L 359.791736 149.203635 
L 365.940496 104.288673 
L 372.089256 144.105011 
L 378.238017 144.907967 
L 384.386777 148.066178 
L 390.535537 180.306702 
L 396.684298 211.429721 
L 402.833058 215.237046 
L 408.981818 174.027451 
L 415.130579 202.68827 
L 421.279339 227.430674 
L 427.428099 172.009596 
L 433.57686 186.994222 
L 439.72562 133.274368 
L 445.87438 86.884196 
L 452.02314 140.330156 
L 458.171901 147.817643 
L 464.320661 189.112848 
L 470.469421 121.551149 
L 476.618182 163.306077 
L 482.766942 170.187598 
L 488.915702 194.658403 
L 495.064463 207.234471 
L 501.213223 128.749929 
L 507.361983 183.587947 
L 513.510744 131.253133 
L 519.659504 112.260797 
L 525.808264 162.800343 
L 531.957025 120.292014 
L 538.105785 187.978736 
L 544.254545 168.180894 
L 550.403306 164.00253 
L 556.552066 115.503736 
L 562.700826 208.63023 
L 568.849587 179.86638 
L 574.998347 91.243743 
L 581.147107 170.566499 
L 587.295868 124.036503 
L 593.444628 185.393858 
L 599.593388 155.521875 
L 605.742149 159.14278 
L 611.890909 155.342646 
L 618.039669 125.575934 
L 624.18843 229.650806 
L 630.33719 177.124375 
L 636.48595 127.147134 
L 642.634711 168.824097 
L 648.783471 202.556635 
L 654.932231 134.389673 
L 661.080992 178.987067 
L 667.229752 174.123626 
L 673.378512 148.845526 
L 679.527273 145.827808 
L 685.676033 152.434599 
L 691.824793 184.93926 
L 697.973554 179.592876 
L 704.122314 139.272296 
L 710.271074 158.905737 
L 716.419835 134.351421 
L 722.568595 156.191609 
L 728.717355 99.601233 
L 734.866116 161.869201 
L 741.014876 150.465707 
L 747.163636 153.643265 
" style="fill:none;stroke:#8dd3c7;stroke-dasharray:3.7,1.6;stroke-dashoffset:0;"/>
   </g>
   <g id="line2d_16">
    <path clip-path="url(#pbb10d34b87)" d="M 138.436364 139.712515 
L 144.585124 186.272375 
L 150.733884 183.582223 
L 156.882645 150.096157 
L 163.031405 130.940963 
L 169.180165 200.020819 
L 175.328926 129.155118 
L 181.477686 175.14572 
L 187.626446 154.10808 
L 193.775207 138.640471 
L 199.923967 138.953947 
L 206.072727 133.5512 
L 212.221488 125.962011 
L 218.370248 169.999474 
L 224.519008 129.729337 
L 230.667769 150.944277 
L 236.816529 143.678293 
L 242.965289 224.513986 
L 249.11405 186.391453 
L 255.26281 126.216328 
L 261.41157 136.416496 
L 267.560331 186.46855 
L 273.709091 178.756857 
L 279.857851 146.832069 
L 286.006612 152.604669 
L 292.155372 162.162336 
L 298.304132 162.577361 
L 304.452893 123.490781 
L 310.601653 44.64 
L 316.750413 80.857931 
L 322.899174 122.584552 
L 329.047934 142.501631 
L 335.196694 133.621152 
L 341.345455 162.81499 
L 347.494215 210.881805 
L 353.642975 151.801228 
L 359.791736 112.369881 
L 365.940496 149.606424 
L 372.089256 164.384139 
L 378.238017 192.838792 
L 384.386777 148.090895 
L 390.535537 167.246681 
L 396.684298 139.643269 
L 402.833058 134.328518 
L 408.981818 114.538668 
L 415.130579 142.628631 
L 421.279339 132.200232 
L 427.428099 173.633852 
L 433.57686 148.647255 
L 439.72562 142.360736 
L 445.87438 203.620028 
L 452.02314 190.022097 
L 458.171901 135.896896 
L 464.320661 166.728707 
L 470.469421 182.173304 
L 476.618182 63.466095 
L 482.766942 184.603559 
L 488.915702 167.863451 
L 495.064463 214.048278 
L 501.213223 129.188057 
L 507.361983 93.157984 
L 513.510744 213.084567 
L 519.659504 182.952105 
L 525.808264 144.863001 
L 531.957025 117.407551 
L 538.105785 123.695598 
L 544.254545 174.725502 
L 550.403306 135.333538 
L 556.552066 172.375783 
L 562.700826 108.95266 
L 568.849587 167.482486 
L 574.998347 172.853431 
L 581.147107 143.319019 
L 587.295868 150.052465 
L 593.444628 179.357428 
L 599.593388 128.51395 
L 605.742149 172.304268 
L 611.890909 121.967691 
L 618.039669 166.620174 
L 624.18843 192.594307 
L 630.33719 192.755625 
L 636.48595 142.416431 
L 642.634711 166.240583 
L 648.783471 79.94064 
L 654.932231 157.941128 
L 661.080992 217.750952 
L 667.229752 188.35748 
L 673.378512 111.107551 
L 679.527273 136.746104 
L 685.676033 148.895542 
L 691.824793 204.931998 
L 697.973554 168.944781 
L 704.122314 104.344272 
L 710.271074 182.455129 
L 716.419835 156.434045 
L 722.568595 122.001481 
L 728.717355 119.68955 
L 734.866116 154.773696 
L 741.014876 193.4714 
L 747.163636 117.903974 
" style="fill:none;stroke:#feffb3;stroke-dasharray:3.7,1.6;stroke-dashoffset:0;"/>
   </g>
   <g id="line2d_17">
    <path clip-path="url(#pbb10d34b87)" d="M 138.436364 166.405738 
L 144.585124 149.819717 
L 150.733884 138.867456 
L 156.882645 162.030826 
L 163.031405 178.483366 
L 169.180165 125.369753 
L 175.328926 145.926881 
L 181.477686 187.969285 
L 187.626446 179.022106 
L 193.775207 184.988918 
L 199.923967 123.537642 
L 206.072727 110.123176 
L 212.221488 143.365759 
L 218.370248 203.835166 
L 224.519008 194.768272 
L 230.667769 144.364408 
L 236.816529 162.886976 
L 242.965289 186.190943 
L 249.11405 142.146003 
L 255.26281 165.049426 
L 261.41157 115.954573 
L 267.560331 136.579363 
L 273.709091 69.384017 
L 279.857851 198.63094 
L 286.006612 141.10202 
L 292.155372 135.778979 
L 298.304132 177.306449 
L 304.452893 102.237484 
L 310.601653 184.293399 
L 316.750413 165.676159 
L 322.899174 140.475157 
L 329.047934 157.902309 
L 335.196694 151.190257 
L 341.345455 153.936582 
L 347.494215 123.224511 
L 353.642975 197.520663 
L 359.791736 156.826869 
L 365.940496 191.650188 
L 372.089256 203.068103 
L 378.238017 156.60699 
L 384.386777 183.812326 
L 390.535537 54.051769 
L 396.684298 105.472956 
L 402.833058 172.456863 
L 408.981818 141.734254 
L 415.130579 120.989951 
L 421.279339 163.541628 
L 427.428099 203.588304 
L 433.57686 161.732049 
L 439.72562 88.384488 
L 445.87438 118.122456 
L 452.02314 170.587534 
L 458.171901 218.479346 
L 464.320661 136.723757 
L 470.469421 127.42482 
L 476.618182 159.484878 
L 482.766942 62.998943 
L 488.915702 137.152039 
L 495.064463 161.179029 
L 501.213223 163.568896 
L 507.361983 226.594949 
L 513.510744 136.887548 
L 519.659504 164.015803 
L 525.808264 158.083193 
L 531.957025 157.315568 
L 538.105785 161.488646 
L 544.254545 180.212697 
L 550.403306 141.053738 
L 556.552066 225.427526 
L 562.700826 162.233974 
L 568.849587 153.165288 
L 574.998347 147.311107 
L 581.147107 71.869618 
L 587.295868 149.128983 
L 593.444628 151.055295 
L 599.593388 124.075741 
L 605.742149 91.452998 
L 611.890909 122.668423 
L 618.039669 133.747769 
L 624.18843 116.098299 
L 630.33719 162.757584 
L 636.48595 192.812466 
L 642.634711 128.289723 
L 648.783471 163.978532 
L 654.932231 198.283036 
L 661.080992 161.070633 
L 667.229752 192.78585 
L 673.378512 205.323488 
L 679.527273 128.513832 
L 685.676033 165.842747 
L 691.824793 144.053356 
L 697.973554 199.451303 
L 704.122314 177.315809 
L 710.271074 178.937025 
L 716.419835 177.180055 
L 722.568595 246.24 
L 728.717355 149.955994 
L 734.866116 115.765991 
L 741.014876 175.974376 
L 747.163636 215.614532 
" style="fill:none;stroke:#bfbbd9;stroke-dasharray:3.7,1.6;stroke-dashoffset:0;"/>
   </g>
   <g id="patch_3">
    <path d="M 108 256.32 
L 108 34.56 
" style="fill:none;stroke:#ffffff;stroke-linecap:square;stroke-linejoin:miter;"/>
   </g>
   <g id="patch_4">
    <path d="M 777.6 256.32 
L 777.6 34.56 
" style="fill:none;stroke:#ffffff;stroke-linecap:square;stroke-linejoin:miter;"/>
   </g>
   <g id="patch_5">
    <path d="M 108 256.32 
L 777.6 256.32 
" style="fill:none;stroke:#ffffff;stroke-linecap:square;stroke-linejoin:miter;"/>
   </g>
   <g id="patch_6">
    <path d="M 108 34.56 
L 777.6 34.56 
" style="fill:none;stroke:#ffffff;stroke-linecap:square;stroke-linejoin:miter;"/>
   </g>
   <g id="legend_1">
    <g id="line2d_18">
     <path d="M 724.478125 47.2475 
L 744.478125 47.2475 
" style="fill:none;stroke:#8dd3c7;stroke-dasharray:3.7,1.6;stroke-dashoffset:0;"/>
    </g>
    <g id="line2d_19"/>
    <g id="text_15">
     <!-- x_0 -->
     <defs>
      <path d="M 0.734375 0 
L 19.671875 26.953125 
L 2.15625 51.859375 
L 13.140625 51.859375 
L 21.09375 39.703125 
Q 23.34375 36.234375 24.703125 33.890625 
Q 26.859375 37.109375 28.65625 39.59375 
L 37.40625 51.859375 
L 47.90625 51.859375 
L 29.984375 27.4375 
L 49.265625 0 
L 38.484375 0 
L 27.828125 16.109375 
L 25 20.453125 
L 11.375 0 
z
" id="ArialMT-78"/>
      <path d="M -1.515625 -19.875 
L -1.515625 -13.53125 
L 56.734375 -13.53125 
L 56.734375 -19.875 
z
" id="ArialMT-5f"/>
     </defs>
     <g style="fill:#ffffff;" transform="translate(752.478125 50.7475)scale(0.1 -0.1)">
      <use xlink:href="#ArialMT-78"/>
      <use x="50" xlink:href="#ArialMT-5f"/>
      <use x="105.615234" xlink:href="#ArialMT-30"/>
     </g>
    </g>
    <g id="line2d_20">
     <path d="M 724.478125 61.4225 
L 744.478125 61.4225 
" style="fill:none;stroke:#feffb3;stroke-dasharray:3.7,1.6;stroke-dashoffset:0;"/>
    </g>
    <g id="line2d_21"/>
    <g id="text_16">
     <!-- x_1 -->
     <g style="fill:#ffffff;" transform="translate(752.478125 64.9225)scale(0.1 -0.1)">
      <use xlink:href="#ArialMT-78"/>
      <use x="50" xlink:href="#ArialMT-5f"/>
      <use x="105.615234" xlink:href="#ArialMT-31"/>
     </g>
    </g>
    <g id="line2d_22">
     <path d="M 724.478125 75.5975 
L 744.478125 75.5975 
" style="fill:none;stroke:#bfbbd9;stroke-dasharray:3.7,1.6;stroke-dashoffset:0;"/>
    </g>
    <g id="line2d_23"/>
    <g id="text_17">
     <!-- x_2 -->
     <g style="fill:#ffffff;" transform="translate(752.478125 79.0975)scale(0.1 -0.1)">
      <use xlink:href="#ArialMT-78"/>
      <use x="50" xlink:href="#ArialMT-5f"/>
      <use x="105.615234" xlink:href="#ArialMT-32"/>
     </g>
    </g>
   </g>
  </g>
 </g>
 <defs>
  <clipPath id="pbb10d34b87">
   <rect height="221.76" width="669.6" x="108" y="34.56"/>
  </clipPath>
 </defs>
</svg>
