<?xml version="1.0" encoding="utf-8" standalone="no"?>
<!DOCTYPE svg PUBLIC "-//W3C//DTD SVG 1.1//EN"
  "http://www.w3.org/Graphics/SVG/1.1/DTD/svg11.dtd">
<!-- Created with matplotlib (http://matplotlib.org/) -->
<svg height="288pt" version="1.1" viewBox="0 0 864 288" width="864pt" xmlns="http://www.w3.org/2000/svg" xmlns:xlink="http://www.w3.org/1999/xlink">
 <defs>
  <style type="text/css">
*{stroke-linecap:butt;stroke-linejoin:round;}
  </style>
 </defs>
 <g id="figure_1">
  <g id="patch_1">
   <path d="M 0 288 
L 864 288 
L 864 0 
L 0 0 
z
" style="fill:#ffffff;"/>
  </g>
  <g id="axes_1">
   <g id="patch_2">
    <path d="M 108 252 
L 777.6 252 
L 777.6 34.56 
L 108 34.56 
z
" style="fill:#ffffff;"/>
   </g>
   <g id="matplotlib.axis_1">
    <g id="xtick_1">
     <g id="line2d_1">
      <defs>
       <path d="M 0 0 
L 0 3.5 
" id="m5d4f42aa20" style="stroke:#000000;stroke-width:0.8;"/>
      </defs>
      <g>
       <use style="stroke:#000000;stroke-width:0.8;" x="138.436364" xlink:href="#m5d4f42aa20" y="252"/>
      </g>
     </g>
     <g id="text_1">
      <!-- 2018-01 -->
      <defs>
       <path d="M 19.1875 8.296875 
L 53.609375 8.296875 
L 53.609375 0 
L 7.328125 0 
L 7.328125 8.296875 
Q 12.9375 14.109375 22.625 23.890625 
Q 32.328125 33.6875 34.8125 36.53125 
Q 39.546875 41.84375 41.421875 45.53125 
Q 43.3125 49.21875 43.3125 52.78125 
Q 43.3125 58.59375 39.234375 62.25 
Q 35.15625 65.921875 28.609375 65.921875 
Q 23.96875 65.921875 18.8125 64.3125 
Q 13.671875 62.703125 7.8125 59.421875 
L 7.8125 69.390625 
Q 13.765625 71.78125 18.9375 73 
Q 24.125 74.21875 28.421875 74.21875 
Q 39.75 74.21875 46.484375 68.546875 
Q 53.21875 62.890625 53.21875 53.421875 
Q 53.21875 48.921875 51.53125 44.890625 
Q 49.859375 40.875 45.40625 35.40625 
Q 44.1875 33.984375 37.640625 27.21875 
Q 31.109375 20.453125 19.1875 8.296875 
z
" id="DejaVuSans-32"/>
       <path d="M 31.78125 66.40625 
Q 24.171875 66.40625 20.328125 58.90625 
Q 16.5 51.421875 16.5 36.375 
Q 16.5 21.390625 20.328125 13.890625 
Q 24.171875 6.390625 31.78125 6.390625 
Q 39.453125 6.390625 43.28125 13.890625 
Q 47.125 21.390625 47.125 36.375 
Q 47.125 51.421875 43.28125 58.90625 
Q 39.453125 66.40625 31.78125 66.40625 
z
M 31.78125 74.21875 
Q 44.046875 74.21875 50.515625 64.515625 
Q 56.984375 54.828125 56.984375 36.375 
Q 56.984375 17.96875 50.515625 8.265625 
Q 44.046875 -1.421875 31.78125 -1.421875 
Q 19.53125 -1.421875 13.0625 8.265625 
Q 6.59375 17.96875 6.59375 36.375 
Q 6.59375 54.828125 13.0625 64.515625 
Q 19.53125 74.21875 31.78125 74.21875 
z
" id="DejaVuSans-30"/>
       <path d="M 12.40625 8.296875 
L 28.515625 8.296875 
L 28.515625 63.921875 
L 10.984375 60.40625 
L 10.984375 69.390625 
L 28.421875 72.90625 
L 38.28125 72.90625 
L 38.28125 8.296875 
L 54.390625 8.296875 
L 54.390625 0 
L 12.40625 0 
z
" id="DejaVuSans-31"/>
       <path d="M 31.78125 34.625 
Q 24.75 34.625 20.71875 30.859375 
Q 16.703125 27.09375 16.703125 20.515625 
Q 16.703125 13.921875 20.71875 10.15625 
Q 24.75 6.390625 31.78125 6.390625 
Q 38.8125 6.390625 42.859375 10.171875 
Q 46.921875 13.96875 46.921875 20.515625 
Q 46.921875 27.09375 42.890625 30.859375 
Q 38.875 34.625 31.78125 34.625 
z
M 21.921875 38.8125 
Q 15.578125 40.375 12.03125 44.71875 
Q 8.5 49.078125 8.5 55.328125 
Q 8.5 64.0625 14.71875 69.140625 
Q 20.953125 74.21875 31.78125 74.21875 
Q 42.671875 74.21875 48.875 69.140625 
Q 55.078125 64.0625 55.078125 55.328125 
Q 55.078125 49.078125 51.53125 44.71875 
Q 48 40.375 41.703125 38.8125 
Q 48.828125 37.15625 52.796875 32.3125 
Q 56.78125 27.484375 56.78125 20.515625 
Q 56.78125 9.90625 50.3125 4.234375 
Q 43.84375 -1.421875 31.78125 -1.421875 
Q 19.734375 -1.421875 13.25 4.234375 
Q 6.78125 9.90625 6.78125 20.515625 
Q 6.78125 27.484375 10.78125 32.3125 
Q 14.796875 37.15625 21.921875 38.8125 
z
M 18.3125 54.390625 
Q 18.3125 48.734375 21.84375 45.5625 
Q 25.390625 42.390625 31.78125 42.390625 
Q 38.140625 42.390625 41.71875 45.5625 
Q 45.3125 48.734375 45.3125 54.390625 
Q 45.3125 60.0625 41.71875 63.234375 
Q 38.140625 66.40625 31.78125 66.40625 
Q 25.390625 66.40625 21.84375 63.234375 
Q 18.3125 60.0625 18.3125 54.390625 
z
" id="DejaVuSans-38"/>
       <path d="M 4.890625 31.390625 
L 31.203125 31.390625 
L 31.203125 23.390625 
L 4.890625 23.390625 
z
" id="DejaVuSans-2d"/>
      </defs>
      <g transform="translate(117.544957 266.598437)scale(0.1 -0.1)">
       <use xlink:href="#DejaVuSans-32"/>
       <use x="63.623047" xlink:href="#DejaVuSans-30"/>
       <use x="127.246094" xlink:href="#DejaVuSans-31"/>
       <use x="190.869141" xlink:href="#DejaVuSans-38"/>
       <use x="254.492188" xlink:href="#DejaVuSans-2d"/>
       <use x="290.576172" xlink:href="#DejaVuSans-30"/>
       <use x="354.199219" xlink:href="#DejaVuSans-31"/>
      </g>
     </g>
    </g>
    <g id="xtick_2">
     <g id="line2d_2">
      <g>
       <use style="stroke:#000000;stroke-width:0.8;" x="201.548556" xlink:href="#m5d4f42aa20" y="252"/>
      </g>
     </g>
     <g id="text_2">
      <!-- 2018-02 -->
      <g transform="translate(180.65715 266.598437)scale(0.1 -0.1)">
       <use xlink:href="#DejaVuSans-32"/>
       <use x="63.623047" xlink:href="#DejaVuSans-30"/>
       <use x="127.246094" xlink:href="#DejaVuSans-31"/>
       <use x="190.869141" xlink:href="#DejaVuSans-38"/>
       <use x="254.492188" xlink:href="#DejaVuSans-2d"/>
       <use x="290.576172" xlink:href="#DejaVuSans-30"/>
       <use x="354.199219" xlink:href="#DejaVuSans-32"/>
      </g>
     </g>
    </g>
    <g id="xtick_3">
     <g id="line2d_3">
      <g>
       <use style="stroke:#000000;stroke-width:0.8;" x="258.553116" xlink:href="#m5d4f42aa20" y="252"/>
      </g>
     </g>
     <g id="text_3">
      <!-- 2018-03 -->
      <defs>
       <path d="M 40.578125 39.3125 
Q 47.65625 37.796875 51.625 33 
Q 55.609375 28.21875 55.609375 21.1875 
Q 55.609375 10.40625 48.1875 4.484375 
Q 40.765625 -1.421875 27.09375 -1.421875 
Q 22.515625 -1.421875 17.65625 -0.515625 
Q 12.796875 0.390625 7.625 2.203125 
L 7.625 11.71875 
Q 11.71875 9.328125 16.59375 8.109375 
Q 21.484375 6.890625 26.8125 6.890625 
Q 36.078125 6.890625 40.9375 10.546875 
Q 45.796875 14.203125 45.796875 21.1875 
Q 45.796875 27.640625 41.28125 31.265625 
Q 36.765625 34.90625 28.71875 34.90625 
L 20.21875 34.90625 
L 20.21875 43.015625 
L 29.109375 43.015625 
Q 36.375 43.015625 40.234375 45.921875 
Q 44.09375 48.828125 44.09375 54.296875 
Q 44.09375 59.90625 40.109375 62.90625 
Q 36.140625 65.921875 28.71875 65.921875 
Q 24.65625 65.921875 20.015625 65.03125 
Q 15.375 64.15625 9.8125 62.3125 
L 9.8125 71.09375 
Q 15.4375 72.65625 20.34375 73.4375 
Q 25.25 74.21875 29.59375 74.21875 
Q 40.828125 74.21875 47.359375 69.109375 
Q 53.90625 64.015625 53.90625 55.328125 
Q 53.90625 49.265625 50.4375 45.09375 
Q 46.96875 40.921875 40.578125 39.3125 
z
" id="DejaVuSans-33"/>
      </defs>
      <g transform="translate(237.66171 266.598437)scale(0.1 -0.1)">
       <use xlink:href="#DejaVuSans-32"/>
       <use x="63.623047" xlink:href="#DejaVuSans-30"/>
       <use x="127.246094" xlink:href="#DejaVuSans-31"/>
       <use x="190.869141" xlink:href="#DejaVuSans-38"/>
       <use x="254.492188" xlink:href="#DejaVuSans-2d"/>
       <use x="290.576172" xlink:href="#DejaVuSans-30"/>
       <use x="354.199219" xlink:href="#DejaVuSans-33"/>
      </g>
     </g>
    </g>
    <g id="xtick_4">
     <g id="line2d_4">
      <g>
       <use style="stroke:#000000;stroke-width:0.8;" x="321.665309" xlink:href="#m5d4f42aa20" y="252"/>
      </g>
     </g>
     <g id="text_4">
      <!-- 2018-04 -->
      <defs>
       <path d="M 37.796875 64.3125 
L 12.890625 25.390625 
L 37.796875 25.390625 
z
M 35.203125 72.90625 
L 47.609375 72.90625 
L 47.609375 25.390625 
L 58.015625 25.390625 
L 58.015625 17.1875 
L 47.609375 17.1875 
L 47.609375 0 
L 37.796875 0 
L 37.796875 17.1875 
L 4.890625 17.1875 
L 4.890625 26.703125 
z
" id="DejaVuSans-34"/>
      </defs>
      <g transform="translate(300.773902 266.598437)scale(0.1 -0.1)">
       <use xlink:href="#DejaVuSans-32"/>
       <use x="63.623047" xlink:href="#DejaVuSans-30"/>
       <use x="127.246094" xlink:href="#DejaVuSans-31"/>
       <use x="190.869141" xlink:href="#DejaVuSans-38"/>
       <use x="254.492188" xlink:href="#DejaVuSans-2d"/>
       <use x="290.576172" xlink:href="#DejaVuSans-30"/>
       <use x="354.199219" xlink:href="#DejaVuSans-34"/>
      </g>
     </g>
    </g>
    <g id="xtick_5">
     <g id="line2d_5">
      <g>
       <use style="stroke:#000000;stroke-width:0.8;" x="382.741624" xlink:href="#m5d4f42aa20" y="252"/>
      </g>
     </g>
     <g id="text_5">
      <!-- 2018-05 -->
      <defs>
       <path d="M 10.796875 72.90625 
L 49.515625 72.90625 
L 49.515625 64.59375 
L 19.828125 64.59375 
L 19.828125 46.734375 
Q 21.96875 47.46875 24.109375 47.828125 
Q 26.265625 48.1875 28.421875 48.1875 
Q 40.625 48.1875 47.75 41.5 
Q 54.890625 34.8125 54.890625 23.390625 
Q 54.890625 11.625 47.5625 5.09375 
Q 40.234375 -1.421875 26.90625 -1.421875 
Q 22.3125 -1.421875 17.546875 -0.640625 
Q 12.796875 0.140625 7.71875 1.703125 
L 7.71875 11.625 
Q 12.109375 9.234375 16.796875 8.0625 
Q 21.484375 6.890625 26.703125 6.890625 
Q 35.15625 6.890625 40.078125 11.328125 
Q 45.015625 15.765625 45.015625 23.390625 
Q 45.015625 31 40.078125 35.4375 
Q 35.15625 39.890625 26.703125 39.890625 
Q 22.75 39.890625 18.8125 39.015625 
Q 14.890625 38.140625 10.796875 36.28125 
z
" id="DejaVuSans-35"/>
      </defs>
      <g transform="translate(361.850217 266.598437)scale(0.1 -0.1)">
       <use xlink:href="#DejaVuSans-32"/>
       <use x="63.623047" xlink:href="#DejaVuSans-30"/>
       <use x="127.246094" xlink:href="#DejaVuSans-31"/>
       <use x="190.869141" xlink:href="#DejaVuSans-38"/>
       <use x="254.492188" xlink:href="#DejaVuSans-2d"/>
       <use x="290.576172" xlink:href="#DejaVuSans-30"/>
       <use x="354.199219" xlink:href="#DejaVuSans-35"/>
      </g>
     </g>
    </g>
    <g id="xtick_6">
     <g id="line2d_6">
      <g>
       <use style="stroke:#000000;stroke-width:0.8;" x="445.853816" xlink:href="#m5d4f42aa20" y="252"/>
      </g>
     </g>
     <g id="text_6">
      <!-- 2018-06 -->
      <defs>
       <path d="M 33.015625 40.375 
Q 26.375 40.375 22.484375 35.828125 
Q 18.609375 31.296875 18.609375 23.390625 
Q 18.609375 15.53125 22.484375 10.953125 
Q 26.375 6.390625 33.015625 6.390625 
Q 39.65625 6.390625 43.53125 10.953125 
Q 47.40625 15.53125 47.40625 23.390625 
Q 47.40625 31.296875 43.53125 35.828125 
Q 39.65625 40.375 33.015625 40.375 
z
M 52.59375 71.296875 
L 52.59375 62.3125 
Q 48.875 64.0625 45.09375 64.984375 
Q 41.3125 65.921875 37.59375 65.921875 
Q 27.828125 65.921875 22.671875 59.328125 
Q 17.53125 52.734375 16.796875 39.40625 
Q 19.671875 43.65625 24.015625 45.921875 
Q 28.375 48.1875 33.59375 48.1875 
Q 44.578125 48.1875 50.953125 41.515625 
Q 57.328125 34.859375 57.328125 23.390625 
Q 57.328125 12.15625 50.6875 5.359375 
Q 44.046875 -1.421875 33.015625 -1.421875 
Q 20.359375 -1.421875 13.671875 8.265625 
Q 6.984375 17.96875 6.984375 36.375 
Q 6.984375 53.65625 15.1875 63.9375 
Q 23.390625 74.21875 37.203125 74.21875 
Q 40.921875 74.21875 44.703125 73.484375 
Q 48.484375 72.75 52.59375 71.296875 
z
" id="DejaVuSans-36"/>
      </defs>
      <g transform="translate(424.962409 266.598437)scale(0.1 -0.1)">
       <use xlink:href="#DejaVuSans-32"/>
       <use x="63.623047" xlink:href="#DejaVuSans-30"/>
       <use x="127.246094" xlink:href="#DejaVuSans-31"/>
       <use x="190.869141" xlink:href="#DejaVuSans-38"/>
       <use x="254.492188" xlink:href="#DejaVuSans-2d"/>
       <use x="290.576172" xlink:href="#DejaVuSans-30"/>
       <use x="354.199219" xlink:href="#DejaVuSans-36"/>
      </g>
     </g>
    </g>
    <g id="xtick_7">
     <g id="line2d_7">
      <g>
       <use style="stroke:#000000;stroke-width:0.8;" x="506.930131" xlink:href="#m5d4f42aa20" y="252"/>
      </g>
     </g>
     <g id="text_7">
      <!-- 2018-07 -->
      <defs>
       <path d="M 8.203125 72.90625 
L 55.078125 72.90625 
L 55.078125 68.703125 
L 28.609375 0 
L 18.3125 0 
L 43.21875 64.59375 
L 8.203125 64.59375 
z
" id="DejaVuSans-37"/>
      </defs>
      <g transform="translate(486.038724 266.598437)scale(0.1 -0.1)">
       <use xlink:href="#DejaVuSans-32"/>
       <use x="63.623047" xlink:href="#DejaVuSans-30"/>
       <use x="127.246094" xlink:href="#DejaVuSans-31"/>
       <use x="190.869141" xlink:href="#DejaVuSans-38"/>
       <use x="254.492188" xlink:href="#DejaVuSans-2d"/>
       <use x="290.576172" xlink:href="#DejaVuSans-30"/>
       <use x="354.199219" xlink:href="#DejaVuSans-37"/>
      </g>
     </g>
    </g>
    <g id="xtick_8">
     <g id="line2d_8">
      <g>
       <use style="stroke:#000000;stroke-width:0.8;" x="570.042323" xlink:href="#m5d4f42aa20" y="252"/>
      </g>
     </g>
     <g id="text_8">
      <!-- 2018-08 -->
      <g transform="translate(549.150917 266.598437)scale(0.1 -0.1)">
       <use xlink:href="#DejaVuSans-32"/>
       <use x="63.623047" xlink:href="#DejaVuSans-30"/>
       <use x="127.246094" xlink:href="#DejaVuSans-31"/>
       <use x="190.869141" xlink:href="#DejaVuSans-38"/>
       <use x="254.492188" xlink:href="#DejaVuSans-2d"/>
       <use x="290.576172" xlink:href="#DejaVuSans-30"/>
       <use x="354.199219" xlink:href="#DejaVuSans-38"/>
      </g>
     </g>
    </g>
    <g id="xtick_9">
     <g id="line2d_9">
      <g>
       <use style="stroke:#000000;stroke-width:0.8;" x="633.154515" xlink:href="#m5d4f42aa20" y="252"/>
      </g>
     </g>
     <g id="text_9">
      <!-- 2018-09 -->
      <defs>
       <path d="M 10.984375 1.515625 
L 10.984375 10.5 
Q 14.703125 8.734375 18.5 7.8125 
Q 22.3125 6.890625 25.984375 6.890625 
Q 35.75 6.890625 40.890625 13.453125 
Q 46.046875 20.015625 46.78125 33.40625 
Q 43.953125 29.203125 39.59375 26.953125 
Q 35.25 24.703125 29.984375 24.703125 
Q 19.046875 24.703125 12.671875 31.3125 
Q 6.296875 37.9375 6.296875 49.421875 
Q 6.296875 60.640625 12.9375 67.421875 
Q 19.578125 74.21875 30.609375 74.21875 
Q 43.265625 74.21875 49.921875 64.515625 
Q 56.59375 54.828125 56.59375 36.375 
Q 56.59375 19.140625 48.40625 8.859375 
Q 40.234375 -1.421875 26.421875 -1.421875 
Q 22.703125 -1.421875 18.890625 -0.6875 
Q 15.09375 0.046875 10.984375 1.515625 
z
M 30.609375 32.421875 
Q 37.25 32.421875 41.125 36.953125 
Q 45.015625 41.5 45.015625 49.421875 
Q 45.015625 57.28125 41.125 61.84375 
Q 37.25 66.40625 30.609375 66.40625 
Q 23.96875 66.40625 20.09375 61.84375 
Q 16.21875 57.28125 16.21875 49.421875 
Q 16.21875 41.5 20.09375 36.953125 
Q 23.96875 32.421875 30.609375 32.421875 
z
" id="DejaVuSans-39"/>
      </defs>
      <g transform="translate(612.263109 266.598437)scale(0.1 -0.1)">
       <use xlink:href="#DejaVuSans-32"/>
       <use x="63.623047" xlink:href="#DejaVuSans-30"/>
       <use x="127.246094" xlink:href="#DejaVuSans-31"/>
       <use x="190.869141" xlink:href="#DejaVuSans-38"/>
       <use x="254.492188" xlink:href="#DejaVuSans-2d"/>
       <use x="290.576172" xlink:href="#DejaVuSans-30"/>
       <use x="354.199219" xlink:href="#DejaVuSans-39"/>
      </g>
     </g>
    </g>
    <g id="xtick_10">
     <g id="line2d_10">
      <g>
       <use style="stroke:#000000;stroke-width:0.8;" x="694.23083" xlink:href="#m5d4f42aa20" y="252"/>
      </g>
     </g>
     <g id="text_10">
      <!-- 2018-10 -->
      <g transform="translate(673.339424 266.598437)scale(0.1 -0.1)">
       <use xlink:href="#DejaVuSans-32"/>
       <use x="63.623047" xlink:href="#DejaVuSans-30"/>
       <use x="127.246094" xlink:href="#DejaVuSans-31"/>
       <use x="190.869141" xlink:href="#DejaVuSans-38"/>
       <use x="254.492188" xlink:href="#DejaVuSans-2d"/>
       <use x="290.576172" xlink:href="#DejaVuSans-31"/>
       <use x="354.199219" xlink:href="#DejaVuSans-30"/>
      </g>
     </g>
    </g>
    <g id="xtick_11">
     <g id="line2d_11">
      <g>
       <use style="stroke:#000000;stroke-width:0.8;" x="757.343022" xlink:href="#m5d4f42aa20" y="252"/>
      </g>
     </g>
     <g id="text_11">
      <!-- 2018-11 -->
      <g transform="translate(736.451616 266.598437)scale(0.1 -0.1)">
       <use xlink:href="#DejaVuSans-32"/>
       <use x="63.623047" xlink:href="#DejaVuSans-30"/>
       <use x="127.246094" xlink:href="#DejaVuSans-31"/>
       <use x="190.869141" xlink:href="#DejaVuSans-38"/>
       <use x="254.492188" xlink:href="#DejaVuSans-2d"/>
       <use x="290.576172" xlink:href="#DejaVuSans-31"/>
       <use x="354.199219" xlink:href="#DejaVuSans-31"/>
      </g>
     </g>
    </g>
   </g>
   <g id="matplotlib.axis_2">
    <g id="ytick_1">
     <g id="line2d_12">
      <defs>
       <path d="M 0 0 
L -3.5 0 
" id="m785c7a087e" style="stroke:#000000;stroke-width:0.8;"/>
      </defs>
      <g>
       <use style="stroke:#000000;stroke-width:0.8;" x="108" xlink:href="#m785c7a087e" y="245.378049"/>
      </g>
     </g>
     <g id="text_12">
      <!-- −1 -->
      <defs>
       <path d="M 10.59375 35.5 
L 73.1875 35.5 
L 73.1875 27.203125 
L 10.59375 27.203125 
z
" id="DejaVuSans-2212"/>
      </defs>
      <g transform="translate(86.257812 249.177267)scale(0.1 -0.1)">
       <use xlink:href="#DejaVuSans-2212"/>
       <use x="83.789062" xlink:href="#DejaVuSans-31"/>
      </g>
     </g>
    </g>
    <g id="ytick_2">
     <g id="line2d_13">
      <g>
       <use style="stroke:#000000;stroke-width:0.8;" x="108" xlink:href="#m785c7a087e" y="206.755217"/>
      </g>
     </g>
     <g id="text_13">
      <!-- 0 -->
      <g transform="translate(94.6375 210.554436)scale(0.1 -0.1)">
       <use xlink:href="#DejaVuSans-30"/>
      </g>
     </g>
    </g>
    <g id="ytick_3">
     <g id="line2d_14">
      <g>
       <use style="stroke:#000000;stroke-width:0.8;" x="108" xlink:href="#m785c7a087e" y="168.132386"/>
      </g>
     </g>
     <g id="text_14">
      <!-- 1 -->
      <g transform="translate(94.6375 171.931605)scale(0.1 -0.1)">
       <use xlink:href="#DejaVuSans-31"/>
      </g>
     </g>
    </g>
    <g id="ytick_4">
     <g id="line2d_15">
      <g>
       <use style="stroke:#000000;stroke-width:0.8;" x="108" xlink:href="#m785c7a087e" y="129.509555"/>
      </g>
     </g>
     <g id="text_15">
      <!-- 2 -->
      <g transform="translate(94.6375 133.308774)scale(0.1 -0.1)">
       <use xlink:href="#DejaVuSans-32"/>
      </g>
     </g>
    </g>
    <g id="ytick_5">
     <g id="line2d_16">
      <g>
       <use style="stroke:#000000;stroke-width:0.8;" x="108" xlink:href="#m785c7a087e" y="90.886724"/>
      </g>
     </g>
     <g id="text_16">
      <!-- 3 -->
      <g transform="translate(94.6375 94.685943)scale(0.1 -0.1)">
       <use xlink:href="#DejaVuSans-33"/>
      </g>
     </g>
    </g>
    <g id="ytick_6">
     <g id="line2d_17">
      <g>
       <use style="stroke:#000000;stroke-width:0.8;" x="108" xlink:href="#m785c7a087e" y="52.263893"/>
      </g>
     </g>
     <g id="text_17">
      <!-- 4 -->
      <g transform="translate(94.6375 56.063111)scale(0.1 -0.1)">
       <use xlink:href="#DejaVuSans-34"/>
      </g>
     </g>
    </g>
   </g>
   <g id="line2d_18">
    <path clip-path="url(#pf13bd8f301)" d="M 138.436364 199.173162 
L 140.472241 202.055044 
L 142.508118 177.472467 
L 144.543995 183.103432 
L 146.579872 178.914715 
L 148.615749 171.3227 
L 150.651627 177.933598 
L 152.687504 164.807838 
L 154.723381 160.938046 
L 156.759258 190.847151 
L 158.795135 177.893435 
L 160.831012 191.94959 
L 162.86689 171.186795 
L 164.902767 180.857876 
L 166.938644 198.029173 
L 168.974521 196.786698 
L 171.010398 208.179336 
L 173.046275 241.747052 
L 175.082153 216.258156 
L 177.11803 242.116364 
L 179.153907 225.189476 
L 181.189784 222.218105 
L 183.225661 231.602133 
L 185.261538 226.706581 
L 187.297416 228.206561 
L 189.333293 208.382852 
L 191.36917 208.376687 
L 193.405047 209.604304 
L 195.440924 220.463589 
L 197.476801 214.706854 
L 199.512679 180.863488 
L 201.548556 167.126079 
L 203.584433 162.772809 
L 205.62031 147.288676 
L 207.656187 165.002745 
L 209.692064 148.258355 
L 211.727942 197.804261 
L 213.763819 144.986425 
L 215.799696 163.562738 
L 217.835573 153.472938 
L 219.87145 175.03084 
L 221.907327 180.589072 
L 223.943205 164.199854 
L 225.979082 188.018026 
L 228.014959 191.95802 
L 230.050836 198.570818 
L 232.086713 194.25075 
L 234.12259 203.64198 
L 236.158468 205.651247 
L 238.194345 215.051243 
L 240.230222 232.81936 
L 242.266099 217.010735 
L 244.301976 220.815015 
L 246.337853 214.384194 
L 248.373731 220.830372 
L 250.409608 206.965703 
L 252.445485 221.996955 
L 254.481362 209.247043 
L 256.517239 178.808641 
L 258.553116 201.992025 
L 260.588994 180.517711 
L 262.624871 177.004298 
L 264.660748 166.023784 
L 266.696625 153.747403 
L 268.732502 140.021475 
L 270.768379 138.905562 
L 272.804257 148.971536 
L 274.840134 140.612403 
L 276.876011 135.775753 
L 278.911888 159.886441 
L 280.947765 144.173279 
L 282.983642 152.555544 
L 285.01952 160.411901 
L 287.055397 148.48527 
L 289.091274 187.451838 
L 291.127151 171.098252 
L 293.163028 166.417712 
L 295.198905 205.327555 
L 297.234783 198.166381 
L 299.27066 212.987608 
L 301.306537 228.825062 
L 303.342414 230.774063 
L 305.378291 207.863669 
L 307.414168 208.224794 
L 309.450046 216.374952 
L 311.485923 200.751428 
L 313.5218 201.681259 
L 315.557677 197.000778 
L 317.593554 181.140671 
L 319.629431 184.731853 
L 321.665309 165.680558 
L 323.701186 182.025391 
L 325.737063 155.727639 
L 327.77294 155.356014 
L 329.808817 159.979036 
L 331.844694 144.317406 
L 333.880572 124.725244 
L 335.916449 138.62621 
L 337.952326 128.302093 
L 339.988203 159.509247 
L 342.02408 123.040698 
L 344.059957 143.747659 
L 346.095835 139.258167 
L 348.131712 149.287895 
L 350.167589 157.207952 
L 352.203466 190.922291 
L 354.239343 188.701005 
L 356.27522 183.614928 
L 358.311098 185.085343 
L 360.346975 206.782036 
L 362.382852 209.115691 
L 364.418729 180.782901 
L 366.454606 193.919045 
L 368.490483 192.624736 
L 370.526361 210.997479 
L 372.562238 198.797262 
L 374.598115 198.905298 
L 376.633992 169.50117 
L 378.669869 179.588779 
L 380.705746 176.41103 
L 382.741624 170.226425 
L 384.777501 162.082592 
L 386.813378 155.094518 
L 388.849255 124.619448 
L 390.885132 123.959411 
L 392.921009 139.291851 
L 394.956887 115.082383 
L 396.992764 129.965931 
L 399.028641 121.50593 
L 401.064518 123.643774 
L 403.100395 116.104822 
L 405.136272 146.68074 
L 407.17215 113.759912 
L 409.208027 153.117399 
L 411.243904 142.347603 
L 413.279781 148.853617 
L 415.315658 153.170872 
L 417.351535 177.155278 
L 419.387413 172.070727 
L 421.42329 175.473334 
L 423.459167 189.899321 
L 425.495044 189.954031 
L 427.530921 186.38189 
L 429.566798 198.094273 
L 431.602676 190.158087 
L 433.638553 190.162119 
L 435.67443 170.403204 
L 437.710307 162.669658 
L 439.746184 172.549934 
L 441.782061 156.520995 
L 443.817939 134.769922 
L 445.853816 147.152434 
L 447.889693 133.599009 
L 449.92557 120.88801 
L 451.961447 119.175531 
L 453.997324 92.363238 
L 456.033202 104.472832 
L 458.069079 117.307009 
L 460.104956 114.779435 
L 462.140833 125.473706 
L 464.17671 111.430145 
L 466.212587 133.793662 
L 468.248465 142.133756 
L 470.284342 135.434733 
L 472.320219 131.507158 
L 474.356096 129.923381 
L 476.391973 145.127019 
L 478.42785 157.09154 
L 480.463728 176.172302 
L 482.499605 172.645612 
L 484.535482 175.247589 
L 486.571359 187.194069 
L 488.607236 196.452432 
L 490.643113 193.974502 
L 492.678991 184.53636 
L 494.714868 179.754477 
L 496.750745 169.333607 
L 498.786622 142.255876 
L 500.822499 135.128843 
L 502.858376 148.017911 
L 504.894254 125.900324 
L 506.930131 116.525579 
L 508.966008 118.292282 
L 511.001885 104.461356 
L 513.037762 113.743384 
L 515.073639 89.155096 
L 517.109517 78.931936 
L 519.145394 98.078643 
L 521.181271 95.861452 
L 523.217148 106.075798 
L 525.253025 98.0952 
L 527.288902 108.2391 
L 529.32478 109.298059 
L 531.360657 115.451573 
L 533.396534 137.779414 
L 535.432411 144.124059 
L 537.468288 144.390788 
L 539.504165 157.944584 
L 541.540043 173.416976 
L 543.57592 162.53153 
L 545.611797 175.789192 
L 547.647674 191.464392 
L 549.683551 163.045779 
L 551.719428 178.277576 
L 553.755306 161.926946 
L 555.791183 127.553851 
L 557.82706 162.897221 
L 559.862937 136.592836 
L 561.898814 146.68939 
L 563.934691 140.627054 
L 565.970569 131.230153 
L 568.006446 105.775185 
L 572.0782 88.401927 
L 574.114077 83.710845 
L 576.149954 91.594083 
L 578.185832 75.589588 
L 580.221709 77.232798 
L 582.257586 94.145814 
L 584.293463 87.773683 
L 586.32934 88.440349 
L 588.365217 111.224006 
L 590.401095 102.207321 
L 592.436972 104.352527 
L 594.472849 102.38939 
L 596.508726 121.854304 
L 598.544603 139.946611 
L 600.58048 138.146497 
L 602.616358 132.855559 
L 604.652235 175.865915 
L 606.688112 154.810149 
L 608.723989 142.454562 
L 610.759866 153.817304 
L 612.795743 156.894861 
L 614.831621 138.171287 
L 616.867498 173.986162 
L 618.903375 131.938956 
L 620.939252 148.213536 
L 622.975129 114.128473 
L 625.011006 134.868718 
L 627.046884 134.093518 
L 631.118638 97.746991 
L 633.154515 83.458963 
L 635.190392 78.731146 
L 637.226269 81.922765 
L 639.262147 58.823866 
L 641.298024 51.408246 
L 643.333901 72.93282 
L 645.369778 83.645358 
L 647.405655 86.629471 
L 649.441532 74.021241 
L 651.47741 73.118267 
L 653.513287 106.123579 
L 655.549164 88.288037 
L 657.585041 121.256164 
L 659.620918 114.530697 
L 661.656795 129.679385 
L 663.692673 134.811178 
L 665.72855 119.560531 
L 667.764427 133.481843 
L 669.800304 142.947298 
L 671.836181 158.167904 
L 673.872058 126.039879 
L 675.907936 131.45596 
L 677.943813 146.419411 
L 679.97969 136.485816 
L 682.015567 141.160956 
L 684.051444 108.739149 
L 686.087321 96.637593 
L 688.123199 94.963535 
L 690.159076 82.525179 
L 692.194953 84.787225 
L 694.23083 66.437455 
L 696.266707 58.60742 
L 698.302584 76.962687 
L 700.338462 51.394313 
L 702.374339 64.124007 
L 704.410216 48.657361 
L 706.446093 66.872042 
L 708.48197 67.287944 
L 710.517847 72.665475 
L 712.553725 88.886186 
L 714.589602 99.724139 
L 716.625479 105.024413 
L 718.661356 79.41109 
L 720.697233 104.586585 
L 722.73311 128.288097 
L 724.768988 132.873592 
L 726.804865 123.565401 
L 728.840742 131.045619 
L 730.876619 123.569746 
L 732.912496 129.48443 
L 734.948373 144.81903 
L 736.984251 140.554522 
L 739.020128 127.085791 
L 741.056005 105.907456 
L 743.091882 98.950996 
L 745.127759 74.899546 
L 747.163636 92.172197 
L 747.163636 92.172197 
" style="fill:none;opacity:0.5;stroke:#1f77b4;stroke-linecap:square;stroke-width:1.5;"/>
    <defs>
     <path d="M 0 3 
C 0.795609 3 1.55874 2.683901 2.12132 2.12132 
C 2.683901 1.55874 3 0.795609 3 0 
C 3 -0.795609 2.683901 -1.55874 2.12132 -2.12132 
C 1.55874 -2.683901 0.795609 -3 0 -3 
C -0.795609 -3 -1.55874 -2.683901 -2.12132 -2.12132 
C -2.683901 -1.55874 -3 -0.795609 -3 0 
C -3 0.795609 -2.683901 1.55874 -2.12132 2.12132 
C -1.55874 2.683901 -0.795609 3 0 3 
z
" id="mb56c532b20" style="stroke:#1f77b4;"/>
    </defs>
    <g clip-path="url(#pf13bd8f301)">
     <use style="fill:#1f77b4;opacity:0.5;stroke:#1f77b4;" x="138.436364" xlink:href="#mb56c532b20" y="199.173162"/>
     <use style="fill:#1f77b4;opacity:0.5;stroke:#1f77b4;" x="140.472241" xlink:href="#mb56c532b20" y="202.055044"/>
     <use style="fill:#1f77b4;opacity:0.5;stroke:#1f77b4;" x="142.508118" xlink:href="#mb56c532b20" y="177.472467"/>
     <use style="fill:#1f77b4;opacity:0.5;stroke:#1f77b4;" x="144.543995" xlink:href="#mb56c532b20" y="183.103432"/>
     <use style="fill:#1f77b4;opacity:0.5;stroke:#1f77b4;" x="146.579872" xlink:href="#mb56c532b20" y="178.914715"/>
     <use style="fill:#1f77b4;opacity:0.5;stroke:#1f77b4;" x="148.615749" xlink:href="#mb56c532b20" y="171.3227"/>
     <use style="fill:#1f77b4;opacity:0.5;stroke:#1f77b4;" x="150.651627" xlink:href="#mb56c532b20" y="177.933598"/>
     <use style="fill:#1f77b4;opacity:0.5;stroke:#1f77b4;" x="152.687504" xlink:href="#mb56c532b20" y="164.807838"/>
     <use style="fill:#1f77b4;opacity:0.5;stroke:#1f77b4;" x="154.723381" xlink:href="#mb56c532b20" y="160.938046"/>
     <use style="fill:#1f77b4;opacity:0.5;stroke:#1f77b4;" x="156.759258" xlink:href="#mb56c532b20" y="190.847151"/>
     <use style="fill:#1f77b4;opacity:0.5;stroke:#1f77b4;" x="158.795135" xlink:href="#mb56c532b20" y="177.893435"/>
     <use style="fill:#1f77b4;opacity:0.5;stroke:#1f77b4;" x="160.831012" xlink:href="#mb56c532b20" y="191.94959"/>
     <use style="fill:#1f77b4;opacity:0.5;stroke:#1f77b4;" x="162.86689" xlink:href="#mb56c532b20" y="171.186795"/>
     <use style="fill:#1f77b4;opacity:0.5;stroke:#1f77b4;" x="164.902767" xlink:href="#mb56c532b20" y="180.857876"/>
     <use style="fill:#1f77b4;opacity:0.5;stroke:#1f77b4;" x="166.938644" xlink:href="#mb56c532b20" y="198.029173"/>
     <use style="fill:#1f77b4;opacity:0.5;stroke:#1f77b4;" x="168.974521" xlink:href="#mb56c532b20" y="196.786698"/>
     <use style="fill:#1f77b4;opacity:0.5;stroke:#1f77b4;" x="171.010398" xlink:href="#mb56c532b20" y="208.179336"/>
     <use style="fill:#1f77b4;opacity:0.5;stroke:#1f77b4;" x="173.046275" xlink:href="#mb56c532b20" y="241.747052"/>
     <use style="fill:#1f77b4;opacity:0.5;stroke:#1f77b4;" x="175.082153" xlink:href="#mb56c532b20" y="216.258156"/>
     <use style="fill:#1f77b4;opacity:0.5;stroke:#1f77b4;" x="177.11803" xlink:href="#mb56c532b20" y="242.116364"/>
     <use style="fill:#1f77b4;opacity:0.5;stroke:#1f77b4;" x="179.153907" xlink:href="#mb56c532b20" y="225.189476"/>
     <use style="fill:#1f77b4;opacity:0.5;stroke:#1f77b4;" x="181.189784" xlink:href="#mb56c532b20" y="222.218105"/>
     <use style="fill:#1f77b4;opacity:0.5;stroke:#1f77b4;" x="183.225661" xlink:href="#mb56c532b20" y="231.602133"/>
     <use style="fill:#1f77b4;opacity:0.5;stroke:#1f77b4;" x="185.261538" xlink:href="#mb56c532b20" y="226.706581"/>
     <use style="fill:#1f77b4;opacity:0.5;stroke:#1f77b4;" x="187.297416" xlink:href="#mb56c532b20" y="228.206561"/>
     <use style="fill:#1f77b4;opacity:0.5;stroke:#1f77b4;" x="189.333293" xlink:href="#mb56c532b20" y="208.382852"/>
     <use style="fill:#1f77b4;opacity:0.5;stroke:#1f77b4;" x="191.36917" xlink:href="#mb56c532b20" y="208.376687"/>
     <use style="fill:#1f77b4;opacity:0.5;stroke:#1f77b4;" x="193.405047" xlink:href="#mb56c532b20" y="209.604304"/>
     <use style="fill:#1f77b4;opacity:0.5;stroke:#1f77b4;" x="195.440924" xlink:href="#mb56c532b20" y="220.463589"/>
     <use style="fill:#1f77b4;opacity:0.5;stroke:#1f77b4;" x="197.476801" xlink:href="#mb56c532b20" y="214.706854"/>
     <use style="fill:#1f77b4;opacity:0.5;stroke:#1f77b4;" x="199.512679" xlink:href="#mb56c532b20" y="180.863488"/>
     <use style="fill:#1f77b4;opacity:0.5;stroke:#1f77b4;" x="201.548556" xlink:href="#mb56c532b20" y="167.126079"/>
     <use style="fill:#1f77b4;opacity:0.5;stroke:#1f77b4;" x="203.584433" xlink:href="#mb56c532b20" y="162.772809"/>
     <use style="fill:#1f77b4;opacity:0.5;stroke:#1f77b4;" x="205.62031" xlink:href="#mb56c532b20" y="147.288676"/>
     <use style="fill:#1f77b4;opacity:0.5;stroke:#1f77b4;" x="207.656187" xlink:href="#mb56c532b20" y="165.002745"/>
     <use style="fill:#1f77b4;opacity:0.5;stroke:#1f77b4;" x="209.692064" xlink:href="#mb56c532b20" y="148.258355"/>
     <use style="fill:#1f77b4;opacity:0.5;stroke:#1f77b4;" x="211.727942" xlink:href="#mb56c532b20" y="197.804261"/>
     <use style="fill:#1f77b4;opacity:0.5;stroke:#1f77b4;" x="213.763819" xlink:href="#mb56c532b20" y="144.986425"/>
     <use style="fill:#1f77b4;opacity:0.5;stroke:#1f77b4;" x="215.799696" xlink:href="#mb56c532b20" y="163.562738"/>
     <use style="fill:#1f77b4;opacity:0.5;stroke:#1f77b4;" x="217.835573" xlink:href="#mb56c532b20" y="153.472938"/>
     <use style="fill:#1f77b4;opacity:0.5;stroke:#1f77b4;" x="219.87145" xlink:href="#mb56c532b20" y="175.03084"/>
     <use style="fill:#1f77b4;opacity:0.5;stroke:#1f77b4;" x="221.907327" xlink:href="#mb56c532b20" y="180.589072"/>
     <use style="fill:#1f77b4;opacity:0.5;stroke:#1f77b4;" x="223.943205" xlink:href="#mb56c532b20" y="164.199854"/>
     <use style="fill:#1f77b4;opacity:0.5;stroke:#1f77b4;" x="225.979082" xlink:href="#mb56c532b20" y="188.018026"/>
     <use style="fill:#1f77b4;opacity:0.5;stroke:#1f77b4;" x="228.014959" xlink:href="#mb56c532b20" y="191.95802"/>
     <use style="fill:#1f77b4;opacity:0.5;stroke:#1f77b4;" x="230.050836" xlink:href="#mb56c532b20" y="198.570818"/>
     <use style="fill:#1f77b4;opacity:0.5;stroke:#1f77b4;" x="232.086713" xlink:href="#mb56c532b20" y="194.25075"/>
     <use style="fill:#1f77b4;opacity:0.5;stroke:#1f77b4;" x="234.12259" xlink:href="#mb56c532b20" y="203.64198"/>
     <use style="fill:#1f77b4;opacity:0.5;stroke:#1f77b4;" x="236.158468" xlink:href="#mb56c532b20" y="205.651247"/>
     <use style="fill:#1f77b4;opacity:0.5;stroke:#1f77b4;" x="238.194345" xlink:href="#mb56c532b20" y="215.051243"/>
     <use style="fill:#1f77b4;opacity:0.5;stroke:#1f77b4;" x="240.230222" xlink:href="#mb56c532b20" y="232.81936"/>
     <use style="fill:#1f77b4;opacity:0.5;stroke:#1f77b4;" x="242.266099" xlink:href="#mb56c532b20" y="217.010735"/>
     <use style="fill:#1f77b4;opacity:0.5;stroke:#1f77b4;" x="244.301976" xlink:href="#mb56c532b20" y="220.815015"/>
     <use style="fill:#1f77b4;opacity:0.5;stroke:#1f77b4;" x="246.337853" xlink:href="#mb56c532b20" y="214.384194"/>
     <use style="fill:#1f77b4;opacity:0.5;stroke:#1f77b4;" x="248.373731" xlink:href="#mb56c532b20" y="220.830372"/>
     <use style="fill:#1f77b4;opacity:0.5;stroke:#1f77b4;" x="250.409608" xlink:href="#mb56c532b20" y="206.965703"/>
     <use style="fill:#1f77b4;opacity:0.5;stroke:#1f77b4;" x="252.445485" xlink:href="#mb56c532b20" y="221.996955"/>
     <use style="fill:#1f77b4;opacity:0.5;stroke:#1f77b4;" x="254.481362" xlink:href="#mb56c532b20" y="209.247043"/>
     <use style="fill:#1f77b4;opacity:0.5;stroke:#1f77b4;" x="256.517239" xlink:href="#mb56c532b20" y="178.808641"/>
     <use style="fill:#1f77b4;opacity:0.5;stroke:#1f77b4;" x="258.553116" xlink:href="#mb56c532b20" y="201.992025"/>
     <use style="fill:#1f77b4;opacity:0.5;stroke:#1f77b4;" x="260.588994" xlink:href="#mb56c532b20" y="180.517711"/>
     <use style="fill:#1f77b4;opacity:0.5;stroke:#1f77b4;" x="262.624871" xlink:href="#mb56c532b20" y="177.004298"/>
     <use style="fill:#1f77b4;opacity:0.5;stroke:#1f77b4;" x="264.660748" xlink:href="#mb56c532b20" y="166.023784"/>
     <use style="fill:#1f77b4;opacity:0.5;stroke:#1f77b4;" x="266.696625" xlink:href="#mb56c532b20" y="153.747403"/>
     <use style="fill:#1f77b4;opacity:0.5;stroke:#1f77b4;" x="268.732502" xlink:href="#mb56c532b20" y="140.021475"/>
     <use style="fill:#1f77b4;opacity:0.5;stroke:#1f77b4;" x="270.768379" xlink:href="#mb56c532b20" y="138.905562"/>
     <use style="fill:#1f77b4;opacity:0.5;stroke:#1f77b4;" x="272.804257" xlink:href="#mb56c532b20" y="148.971536"/>
     <use style="fill:#1f77b4;opacity:0.5;stroke:#1f77b4;" x="274.840134" xlink:href="#mb56c532b20" y="140.612403"/>
     <use style="fill:#1f77b4;opacity:0.5;stroke:#1f77b4;" x="276.876011" xlink:href="#mb56c532b20" y="135.775753"/>
     <use style="fill:#1f77b4;opacity:0.5;stroke:#1f77b4;" x="278.911888" xlink:href="#mb56c532b20" y="159.886441"/>
     <use style="fill:#1f77b4;opacity:0.5;stroke:#1f77b4;" x="280.947765" xlink:href="#mb56c532b20" y="144.173279"/>
     <use style="fill:#1f77b4;opacity:0.5;stroke:#1f77b4;" x="282.983642" xlink:href="#mb56c532b20" y="152.555544"/>
     <use style="fill:#1f77b4;opacity:0.5;stroke:#1f77b4;" x="285.01952" xlink:href="#mb56c532b20" y="160.411901"/>
     <use style="fill:#1f77b4;opacity:0.5;stroke:#1f77b4;" x="287.055397" xlink:href="#mb56c532b20" y="148.48527"/>
     <use style="fill:#1f77b4;opacity:0.5;stroke:#1f77b4;" x="289.091274" xlink:href="#mb56c532b20" y="187.451838"/>
     <use style="fill:#1f77b4;opacity:0.5;stroke:#1f77b4;" x="291.127151" xlink:href="#mb56c532b20" y="171.098252"/>
     <use style="fill:#1f77b4;opacity:0.5;stroke:#1f77b4;" x="293.163028" xlink:href="#mb56c532b20" y="166.417712"/>
     <use style="fill:#1f77b4;opacity:0.5;stroke:#1f77b4;" x="295.198905" xlink:href="#mb56c532b20" y="205.327555"/>
     <use style="fill:#1f77b4;opacity:0.5;stroke:#1f77b4;" x="297.234783" xlink:href="#mb56c532b20" y="198.166381"/>
     <use style="fill:#1f77b4;opacity:0.5;stroke:#1f77b4;" x="299.27066" xlink:href="#mb56c532b20" y="212.987608"/>
     <use style="fill:#1f77b4;opacity:0.5;stroke:#1f77b4;" x="301.306537" xlink:href="#mb56c532b20" y="228.825062"/>
     <use style="fill:#1f77b4;opacity:0.5;stroke:#1f77b4;" x="303.342414" xlink:href="#mb56c532b20" y="230.774063"/>
     <use style="fill:#1f77b4;opacity:0.5;stroke:#1f77b4;" x="305.378291" xlink:href="#mb56c532b20" y="207.863669"/>
     <use style="fill:#1f77b4;opacity:0.5;stroke:#1f77b4;" x="307.414168" xlink:href="#mb56c532b20" y="208.224794"/>
     <use style="fill:#1f77b4;opacity:0.5;stroke:#1f77b4;" x="309.450046" xlink:href="#mb56c532b20" y="216.374952"/>
     <use style="fill:#1f77b4;opacity:0.5;stroke:#1f77b4;" x="311.485923" xlink:href="#mb56c532b20" y="200.751428"/>
     <use style="fill:#1f77b4;opacity:0.5;stroke:#1f77b4;" x="313.5218" xlink:href="#mb56c532b20" y="201.681259"/>
     <use style="fill:#1f77b4;opacity:0.5;stroke:#1f77b4;" x="315.557677" xlink:href="#mb56c532b20" y="197.000778"/>
     <use style="fill:#1f77b4;opacity:0.5;stroke:#1f77b4;" x="317.593554" xlink:href="#mb56c532b20" y="181.140671"/>
     <use style="fill:#1f77b4;opacity:0.5;stroke:#1f77b4;" x="319.629431" xlink:href="#mb56c532b20" y="184.731853"/>
     <use style="fill:#1f77b4;opacity:0.5;stroke:#1f77b4;" x="321.665309" xlink:href="#mb56c532b20" y="165.680558"/>
     <use style="fill:#1f77b4;opacity:0.5;stroke:#1f77b4;" x="323.701186" xlink:href="#mb56c532b20" y="182.025391"/>
     <use style="fill:#1f77b4;opacity:0.5;stroke:#1f77b4;" x="325.737063" xlink:href="#mb56c532b20" y="155.727639"/>
     <use style="fill:#1f77b4;opacity:0.5;stroke:#1f77b4;" x="327.77294" xlink:href="#mb56c532b20" y="155.356014"/>
     <use style="fill:#1f77b4;opacity:0.5;stroke:#1f77b4;" x="329.808817" xlink:href="#mb56c532b20" y="159.979036"/>
     <use style="fill:#1f77b4;opacity:0.5;stroke:#1f77b4;" x="331.844694" xlink:href="#mb56c532b20" y="144.317406"/>
     <use style="fill:#1f77b4;opacity:0.5;stroke:#1f77b4;" x="333.880572" xlink:href="#mb56c532b20" y="124.725244"/>
     <use style="fill:#1f77b4;opacity:0.5;stroke:#1f77b4;" x="335.916449" xlink:href="#mb56c532b20" y="138.62621"/>
     <use style="fill:#1f77b4;opacity:0.5;stroke:#1f77b4;" x="337.952326" xlink:href="#mb56c532b20" y="128.302093"/>
     <use style="fill:#1f77b4;opacity:0.5;stroke:#1f77b4;" x="339.988203" xlink:href="#mb56c532b20" y="159.509247"/>
     <use style="fill:#1f77b4;opacity:0.5;stroke:#1f77b4;" x="342.02408" xlink:href="#mb56c532b20" y="123.040698"/>
     <use style="fill:#1f77b4;opacity:0.5;stroke:#1f77b4;" x="344.059957" xlink:href="#mb56c532b20" y="143.747659"/>
     <use style="fill:#1f77b4;opacity:0.5;stroke:#1f77b4;" x="346.095835" xlink:href="#mb56c532b20" y="139.258167"/>
     <use style="fill:#1f77b4;opacity:0.5;stroke:#1f77b4;" x="348.131712" xlink:href="#mb56c532b20" y="149.287895"/>
     <use style="fill:#1f77b4;opacity:0.5;stroke:#1f77b4;" x="350.167589" xlink:href="#mb56c532b20" y="157.207952"/>
     <use style="fill:#1f77b4;opacity:0.5;stroke:#1f77b4;" x="352.203466" xlink:href="#mb56c532b20" y="190.922291"/>
     <use style="fill:#1f77b4;opacity:0.5;stroke:#1f77b4;" x="354.239343" xlink:href="#mb56c532b20" y="188.701005"/>
     <use style="fill:#1f77b4;opacity:0.5;stroke:#1f77b4;" x="356.27522" xlink:href="#mb56c532b20" y="183.614928"/>
     <use style="fill:#1f77b4;opacity:0.5;stroke:#1f77b4;" x="358.311098" xlink:href="#mb56c532b20" y="185.085343"/>
     <use style="fill:#1f77b4;opacity:0.5;stroke:#1f77b4;" x="360.346975" xlink:href="#mb56c532b20" y="206.782036"/>
     <use style="fill:#1f77b4;opacity:0.5;stroke:#1f77b4;" x="362.382852" xlink:href="#mb56c532b20" y="209.115691"/>
     <use style="fill:#1f77b4;opacity:0.5;stroke:#1f77b4;" x="364.418729" xlink:href="#mb56c532b20" y="180.782901"/>
     <use style="fill:#1f77b4;opacity:0.5;stroke:#1f77b4;" x="366.454606" xlink:href="#mb56c532b20" y="193.919045"/>
     <use style="fill:#1f77b4;opacity:0.5;stroke:#1f77b4;" x="368.490483" xlink:href="#mb56c532b20" y="192.624736"/>
     <use style="fill:#1f77b4;opacity:0.5;stroke:#1f77b4;" x="370.526361" xlink:href="#mb56c532b20" y="210.997479"/>
     <use style="fill:#1f77b4;opacity:0.5;stroke:#1f77b4;" x="372.562238" xlink:href="#mb56c532b20" y="198.797262"/>
     <use style="fill:#1f77b4;opacity:0.5;stroke:#1f77b4;" x="374.598115" xlink:href="#mb56c532b20" y="198.905298"/>
     <use style="fill:#1f77b4;opacity:0.5;stroke:#1f77b4;" x="376.633992" xlink:href="#mb56c532b20" y="169.50117"/>
     <use style="fill:#1f77b4;opacity:0.5;stroke:#1f77b4;" x="378.669869" xlink:href="#mb56c532b20" y="179.588779"/>
     <use style="fill:#1f77b4;opacity:0.5;stroke:#1f77b4;" x="380.705746" xlink:href="#mb56c532b20" y="176.41103"/>
     <use style="fill:#1f77b4;opacity:0.5;stroke:#1f77b4;" x="382.741624" xlink:href="#mb56c532b20" y="170.226425"/>
     <use style="fill:#1f77b4;opacity:0.5;stroke:#1f77b4;" x="384.777501" xlink:href="#mb56c532b20" y="162.082592"/>
     <use style="fill:#1f77b4;opacity:0.5;stroke:#1f77b4;" x="386.813378" xlink:href="#mb56c532b20" y="155.094518"/>
     <use style="fill:#1f77b4;opacity:0.5;stroke:#1f77b4;" x="388.849255" xlink:href="#mb56c532b20" y="124.619448"/>
     <use style="fill:#1f77b4;opacity:0.5;stroke:#1f77b4;" x="390.885132" xlink:href="#mb56c532b20" y="123.959411"/>
     <use style="fill:#1f77b4;opacity:0.5;stroke:#1f77b4;" x="392.921009" xlink:href="#mb56c532b20" y="139.291851"/>
     <use style="fill:#1f77b4;opacity:0.5;stroke:#1f77b4;" x="394.956887" xlink:href="#mb56c532b20" y="115.082383"/>
     <use style="fill:#1f77b4;opacity:0.5;stroke:#1f77b4;" x="396.992764" xlink:href="#mb56c532b20" y="129.965931"/>
     <use style="fill:#1f77b4;opacity:0.5;stroke:#1f77b4;" x="399.028641" xlink:href="#mb56c532b20" y="121.50593"/>
     <use style="fill:#1f77b4;opacity:0.5;stroke:#1f77b4;" x="401.064518" xlink:href="#mb56c532b20" y="123.643774"/>
     <use style="fill:#1f77b4;opacity:0.5;stroke:#1f77b4;" x="403.100395" xlink:href="#mb56c532b20" y="116.104822"/>
     <use style="fill:#1f77b4;opacity:0.5;stroke:#1f77b4;" x="405.136272" xlink:href="#mb56c532b20" y="146.68074"/>
     <use style="fill:#1f77b4;opacity:0.5;stroke:#1f77b4;" x="407.17215" xlink:href="#mb56c532b20" y="113.759912"/>
     <use style="fill:#1f77b4;opacity:0.5;stroke:#1f77b4;" x="409.208027" xlink:href="#mb56c532b20" y="153.117399"/>
     <use style="fill:#1f77b4;opacity:0.5;stroke:#1f77b4;" x="411.243904" xlink:href="#mb56c532b20" y="142.347603"/>
     <use style="fill:#1f77b4;opacity:0.5;stroke:#1f77b4;" x="413.279781" xlink:href="#mb56c532b20" y="148.853617"/>
     <use style="fill:#1f77b4;opacity:0.5;stroke:#1f77b4;" x="415.315658" xlink:href="#mb56c532b20" y="153.170872"/>
     <use style="fill:#1f77b4;opacity:0.5;stroke:#1f77b4;" x="417.351535" xlink:href="#mb56c532b20" y="177.155278"/>
     <use style="fill:#1f77b4;opacity:0.5;stroke:#1f77b4;" x="419.387413" xlink:href="#mb56c532b20" y="172.070727"/>
     <use style="fill:#1f77b4;opacity:0.5;stroke:#1f77b4;" x="421.42329" xlink:href="#mb56c532b20" y="175.473334"/>
     <use style="fill:#1f77b4;opacity:0.5;stroke:#1f77b4;" x="423.459167" xlink:href="#mb56c532b20" y="189.899321"/>
     <use style="fill:#1f77b4;opacity:0.5;stroke:#1f77b4;" x="425.495044" xlink:href="#mb56c532b20" y="189.954031"/>
     <use style="fill:#1f77b4;opacity:0.5;stroke:#1f77b4;" x="427.530921" xlink:href="#mb56c532b20" y="186.38189"/>
     <use style="fill:#1f77b4;opacity:0.5;stroke:#1f77b4;" x="429.566798" xlink:href="#mb56c532b20" y="198.094273"/>
     <use style="fill:#1f77b4;opacity:0.5;stroke:#1f77b4;" x="431.602676" xlink:href="#mb56c532b20" y="190.158087"/>
     <use style="fill:#1f77b4;opacity:0.5;stroke:#1f77b4;" x="433.638553" xlink:href="#mb56c532b20" y="190.162119"/>
     <use style="fill:#1f77b4;opacity:0.5;stroke:#1f77b4;" x="435.67443" xlink:href="#mb56c532b20" y="170.403204"/>
     <use style="fill:#1f77b4;opacity:0.5;stroke:#1f77b4;" x="437.710307" xlink:href="#mb56c532b20" y="162.669658"/>
     <use style="fill:#1f77b4;opacity:0.5;stroke:#1f77b4;" x="439.746184" xlink:href="#mb56c532b20" y="172.549934"/>
     <use style="fill:#1f77b4;opacity:0.5;stroke:#1f77b4;" x="441.782061" xlink:href="#mb56c532b20" y="156.520995"/>
     <use style="fill:#1f77b4;opacity:0.5;stroke:#1f77b4;" x="443.817939" xlink:href="#mb56c532b20" y="134.769922"/>
     <use style="fill:#1f77b4;opacity:0.5;stroke:#1f77b4;" x="445.853816" xlink:href="#mb56c532b20" y="147.152434"/>
     <use style="fill:#1f77b4;opacity:0.5;stroke:#1f77b4;" x="447.889693" xlink:href="#mb56c532b20" y="133.599009"/>
     <use style="fill:#1f77b4;opacity:0.5;stroke:#1f77b4;" x="449.92557" xlink:href="#mb56c532b20" y="120.88801"/>
     <use style="fill:#1f77b4;opacity:0.5;stroke:#1f77b4;" x="451.961447" xlink:href="#mb56c532b20" y="119.175531"/>
     <use style="fill:#1f77b4;opacity:0.5;stroke:#1f77b4;" x="453.997324" xlink:href="#mb56c532b20" y="92.363238"/>
     <use style="fill:#1f77b4;opacity:0.5;stroke:#1f77b4;" x="456.033202" xlink:href="#mb56c532b20" y="104.472832"/>
     <use style="fill:#1f77b4;opacity:0.5;stroke:#1f77b4;" x="458.069079" xlink:href="#mb56c532b20" y="117.307009"/>
     <use style="fill:#1f77b4;opacity:0.5;stroke:#1f77b4;" x="460.104956" xlink:href="#mb56c532b20" y="114.779435"/>
     <use style="fill:#1f77b4;opacity:0.5;stroke:#1f77b4;" x="462.140833" xlink:href="#mb56c532b20" y="125.473706"/>
     <use style="fill:#1f77b4;opacity:0.5;stroke:#1f77b4;" x="464.17671" xlink:href="#mb56c532b20" y="111.430145"/>
     <use style="fill:#1f77b4;opacity:0.5;stroke:#1f77b4;" x="466.212587" xlink:href="#mb56c532b20" y="133.793662"/>
     <use style="fill:#1f77b4;opacity:0.5;stroke:#1f77b4;" x="468.248465" xlink:href="#mb56c532b20" y="142.133756"/>
     <use style="fill:#1f77b4;opacity:0.5;stroke:#1f77b4;" x="470.284342" xlink:href="#mb56c532b20" y="135.434733"/>
     <use style="fill:#1f77b4;opacity:0.5;stroke:#1f77b4;" x="472.320219" xlink:href="#mb56c532b20" y="131.507158"/>
     <use style="fill:#1f77b4;opacity:0.5;stroke:#1f77b4;" x="474.356096" xlink:href="#mb56c532b20" y="129.923381"/>
     <use style="fill:#1f77b4;opacity:0.5;stroke:#1f77b4;" x="476.391973" xlink:href="#mb56c532b20" y="145.127019"/>
     <use style="fill:#1f77b4;opacity:0.5;stroke:#1f77b4;" x="478.42785" xlink:href="#mb56c532b20" y="157.09154"/>
     <use style="fill:#1f77b4;opacity:0.5;stroke:#1f77b4;" x="480.463728" xlink:href="#mb56c532b20" y="176.172302"/>
     <use style="fill:#1f77b4;opacity:0.5;stroke:#1f77b4;" x="482.499605" xlink:href="#mb56c532b20" y="172.645612"/>
     <use style="fill:#1f77b4;opacity:0.5;stroke:#1f77b4;" x="484.535482" xlink:href="#mb56c532b20" y="175.247589"/>
     <use style="fill:#1f77b4;opacity:0.5;stroke:#1f77b4;" x="486.571359" xlink:href="#mb56c532b20" y="187.194069"/>
     <use style="fill:#1f77b4;opacity:0.5;stroke:#1f77b4;" x="488.607236" xlink:href="#mb56c532b20" y="196.452432"/>
     <use style="fill:#1f77b4;opacity:0.5;stroke:#1f77b4;" x="490.643113" xlink:href="#mb56c532b20" y="193.974502"/>
     <use style="fill:#1f77b4;opacity:0.5;stroke:#1f77b4;" x="492.678991" xlink:href="#mb56c532b20" y="184.53636"/>
     <use style="fill:#1f77b4;opacity:0.5;stroke:#1f77b4;" x="494.714868" xlink:href="#mb56c532b20" y="179.754477"/>
     <use style="fill:#1f77b4;opacity:0.5;stroke:#1f77b4;" x="496.750745" xlink:href="#mb56c532b20" y="169.333607"/>
     <use style="fill:#1f77b4;opacity:0.5;stroke:#1f77b4;" x="498.786622" xlink:href="#mb56c532b20" y="142.255876"/>
     <use style="fill:#1f77b4;opacity:0.5;stroke:#1f77b4;" x="500.822499" xlink:href="#mb56c532b20" y="135.128843"/>
     <use style="fill:#1f77b4;opacity:0.5;stroke:#1f77b4;" x="502.858376" xlink:href="#mb56c532b20" y="148.017911"/>
     <use style="fill:#1f77b4;opacity:0.5;stroke:#1f77b4;" x="504.894254" xlink:href="#mb56c532b20" y="125.900324"/>
     <use style="fill:#1f77b4;opacity:0.5;stroke:#1f77b4;" x="506.930131" xlink:href="#mb56c532b20" y="116.525579"/>
     <use style="fill:#1f77b4;opacity:0.5;stroke:#1f77b4;" x="508.966008" xlink:href="#mb56c532b20" y="118.292282"/>
     <use style="fill:#1f77b4;opacity:0.5;stroke:#1f77b4;" x="511.001885" xlink:href="#mb56c532b20" y="104.461356"/>
     <use style="fill:#1f77b4;opacity:0.5;stroke:#1f77b4;" x="513.037762" xlink:href="#mb56c532b20" y="113.743384"/>
     <use style="fill:#1f77b4;opacity:0.5;stroke:#1f77b4;" x="515.073639" xlink:href="#mb56c532b20" y="89.155096"/>
     <use style="fill:#1f77b4;opacity:0.5;stroke:#1f77b4;" x="517.109517" xlink:href="#mb56c532b20" y="78.931936"/>
     <use style="fill:#1f77b4;opacity:0.5;stroke:#1f77b4;" x="519.145394" xlink:href="#mb56c532b20" y="98.078643"/>
     <use style="fill:#1f77b4;opacity:0.5;stroke:#1f77b4;" x="521.181271" xlink:href="#mb56c532b20" y="95.861452"/>
     <use style="fill:#1f77b4;opacity:0.5;stroke:#1f77b4;" x="523.217148" xlink:href="#mb56c532b20" y="106.075798"/>
     <use style="fill:#1f77b4;opacity:0.5;stroke:#1f77b4;" x="525.253025" xlink:href="#mb56c532b20" y="98.0952"/>
     <use style="fill:#1f77b4;opacity:0.5;stroke:#1f77b4;" x="527.288902" xlink:href="#mb56c532b20" y="108.2391"/>
     <use style="fill:#1f77b4;opacity:0.5;stroke:#1f77b4;" x="529.32478" xlink:href="#mb56c532b20" y="109.298059"/>
     <use style="fill:#1f77b4;opacity:0.5;stroke:#1f77b4;" x="531.360657" xlink:href="#mb56c532b20" y="115.451573"/>
     <use style="fill:#1f77b4;opacity:0.5;stroke:#1f77b4;" x="533.396534" xlink:href="#mb56c532b20" y="137.779414"/>
     <use style="fill:#1f77b4;opacity:0.5;stroke:#1f77b4;" x="535.432411" xlink:href="#mb56c532b20" y="144.124059"/>
     <use style="fill:#1f77b4;opacity:0.5;stroke:#1f77b4;" x="537.468288" xlink:href="#mb56c532b20" y="144.390788"/>
     <use style="fill:#1f77b4;opacity:0.5;stroke:#1f77b4;" x="539.504165" xlink:href="#mb56c532b20" y="157.944584"/>
     <use style="fill:#1f77b4;opacity:0.5;stroke:#1f77b4;" x="541.540043" xlink:href="#mb56c532b20" y="173.416976"/>
     <use style="fill:#1f77b4;opacity:0.5;stroke:#1f77b4;" x="543.57592" xlink:href="#mb56c532b20" y="162.53153"/>
     <use style="fill:#1f77b4;opacity:0.5;stroke:#1f77b4;" x="545.611797" xlink:href="#mb56c532b20" y="175.789192"/>
     <use style="fill:#1f77b4;opacity:0.5;stroke:#1f77b4;" x="547.647674" xlink:href="#mb56c532b20" y="191.464392"/>
     <use style="fill:#1f77b4;opacity:0.5;stroke:#1f77b4;" x="549.683551" xlink:href="#mb56c532b20" y="163.045779"/>
     <use style="fill:#1f77b4;opacity:0.5;stroke:#1f77b4;" x="551.719428" xlink:href="#mb56c532b20" y="178.277576"/>
     <use style="fill:#1f77b4;opacity:0.5;stroke:#1f77b4;" x="553.755306" xlink:href="#mb56c532b20" y="161.926946"/>
     <use style="fill:#1f77b4;opacity:0.5;stroke:#1f77b4;" x="555.791183" xlink:href="#mb56c532b20" y="127.553851"/>
     <use style="fill:#1f77b4;opacity:0.5;stroke:#1f77b4;" x="557.82706" xlink:href="#mb56c532b20" y="162.897221"/>
     <use style="fill:#1f77b4;opacity:0.5;stroke:#1f77b4;" x="559.862937" xlink:href="#mb56c532b20" y="136.592836"/>
     <use style="fill:#1f77b4;opacity:0.5;stroke:#1f77b4;" x="561.898814" xlink:href="#mb56c532b20" y="146.68939"/>
     <use style="fill:#1f77b4;opacity:0.5;stroke:#1f77b4;" x="563.934691" xlink:href="#mb56c532b20" y="140.627054"/>
     <use style="fill:#1f77b4;opacity:0.5;stroke:#1f77b4;" x="565.970569" xlink:href="#mb56c532b20" y="131.230153"/>
     <use style="fill:#1f77b4;opacity:0.5;stroke:#1f77b4;" x="568.006446" xlink:href="#mb56c532b20" y="105.775185"/>
     <use style="fill:#1f77b4;opacity:0.5;stroke:#1f77b4;" x="570.042323" xlink:href="#mb56c532b20" y="96.838884"/>
     <use style="fill:#1f77b4;opacity:0.5;stroke:#1f77b4;" x="572.0782" xlink:href="#mb56c532b20" y="88.401927"/>
     <use style="fill:#1f77b4;opacity:0.5;stroke:#1f77b4;" x="574.114077" xlink:href="#mb56c532b20" y="83.710845"/>
     <use style="fill:#1f77b4;opacity:0.5;stroke:#1f77b4;" x="576.149954" xlink:href="#mb56c532b20" y="91.594083"/>
     <use style="fill:#1f77b4;opacity:0.5;stroke:#1f77b4;" x="578.185832" xlink:href="#mb56c532b20" y="75.589588"/>
     <use style="fill:#1f77b4;opacity:0.5;stroke:#1f77b4;" x="580.221709" xlink:href="#mb56c532b20" y="77.232798"/>
     <use style="fill:#1f77b4;opacity:0.5;stroke:#1f77b4;" x="582.257586" xlink:href="#mb56c532b20" y="94.145814"/>
     <use style="fill:#1f77b4;opacity:0.5;stroke:#1f77b4;" x="584.293463" xlink:href="#mb56c532b20" y="87.773683"/>
     <use style="fill:#1f77b4;opacity:0.5;stroke:#1f77b4;" x="586.32934" xlink:href="#mb56c532b20" y="88.440349"/>
     <use style="fill:#1f77b4;opacity:0.5;stroke:#1f77b4;" x="588.365217" xlink:href="#mb56c532b20" y="111.224006"/>
     <use style="fill:#1f77b4;opacity:0.5;stroke:#1f77b4;" x="590.401095" xlink:href="#mb56c532b20" y="102.207321"/>
     <use style="fill:#1f77b4;opacity:0.5;stroke:#1f77b4;" x="592.436972" xlink:href="#mb56c532b20" y="104.352527"/>
     <use style="fill:#1f77b4;opacity:0.5;stroke:#1f77b4;" x="594.472849" xlink:href="#mb56c532b20" y="102.38939"/>
     <use style="fill:#1f77b4;opacity:0.5;stroke:#1f77b4;" x="596.508726" xlink:href="#mb56c532b20" y="121.854304"/>
     <use style="fill:#1f77b4;opacity:0.5;stroke:#1f77b4;" x="598.544603" xlink:href="#mb56c532b20" y="139.946611"/>
     <use style="fill:#1f77b4;opacity:0.5;stroke:#1f77b4;" x="600.58048" xlink:href="#mb56c532b20" y="138.146497"/>
     <use style="fill:#1f77b4;opacity:0.5;stroke:#1f77b4;" x="602.616358" xlink:href="#mb56c532b20" y="132.855559"/>
     <use style="fill:#1f77b4;opacity:0.5;stroke:#1f77b4;" x="604.652235" xlink:href="#mb56c532b20" y="175.865915"/>
     <use style="fill:#1f77b4;opacity:0.5;stroke:#1f77b4;" x="606.688112" xlink:href="#mb56c532b20" y="154.810149"/>
     <use style="fill:#1f77b4;opacity:0.5;stroke:#1f77b4;" x="608.723989" xlink:href="#mb56c532b20" y="142.454562"/>
     <use style="fill:#1f77b4;opacity:0.5;stroke:#1f77b4;" x="610.759866" xlink:href="#mb56c532b20" y="153.817304"/>
     <use style="fill:#1f77b4;opacity:0.5;stroke:#1f77b4;" x="612.795743" xlink:href="#mb56c532b20" y="156.894861"/>
     <use style="fill:#1f77b4;opacity:0.5;stroke:#1f77b4;" x="614.831621" xlink:href="#mb56c532b20" y="138.171287"/>
     <use style="fill:#1f77b4;opacity:0.5;stroke:#1f77b4;" x="616.867498" xlink:href="#mb56c532b20" y="173.986162"/>
     <use style="fill:#1f77b4;opacity:0.5;stroke:#1f77b4;" x="618.903375" xlink:href="#mb56c532b20" y="131.938956"/>
     <use style="fill:#1f77b4;opacity:0.5;stroke:#1f77b4;" x="620.939252" xlink:href="#mb56c532b20" y="148.213536"/>
     <use style="fill:#1f77b4;opacity:0.5;stroke:#1f77b4;" x="622.975129" xlink:href="#mb56c532b20" y="114.128473"/>
     <use style="fill:#1f77b4;opacity:0.5;stroke:#1f77b4;" x="625.011006" xlink:href="#mb56c532b20" y="134.868718"/>
     <use style="fill:#1f77b4;opacity:0.5;stroke:#1f77b4;" x="627.046884" xlink:href="#mb56c532b20" y="134.093518"/>
     <use style="fill:#1f77b4;opacity:0.5;stroke:#1f77b4;" x="629.082761" xlink:href="#mb56c532b20" y="116.112075"/>
     <use style="fill:#1f77b4;opacity:0.5;stroke:#1f77b4;" x="631.118638" xlink:href="#mb56c532b20" y="97.746991"/>
     <use style="fill:#1f77b4;opacity:0.5;stroke:#1f77b4;" x="633.154515" xlink:href="#mb56c532b20" y="83.458963"/>
     <use style="fill:#1f77b4;opacity:0.5;stroke:#1f77b4;" x="635.190392" xlink:href="#mb56c532b20" y="78.731146"/>
     <use style="fill:#1f77b4;opacity:0.5;stroke:#1f77b4;" x="637.226269" xlink:href="#mb56c532b20" y="81.922765"/>
     <use style="fill:#1f77b4;opacity:0.5;stroke:#1f77b4;" x="639.262147" xlink:href="#mb56c532b20" y="58.823866"/>
     <use style="fill:#1f77b4;opacity:0.5;stroke:#1f77b4;" x="641.298024" xlink:href="#mb56c532b20" y="51.408246"/>
     <use style="fill:#1f77b4;opacity:0.5;stroke:#1f77b4;" x="643.333901" xlink:href="#mb56c532b20" y="72.93282"/>
     <use style="fill:#1f77b4;opacity:0.5;stroke:#1f77b4;" x="645.369778" xlink:href="#mb56c532b20" y="83.645358"/>
     <use style="fill:#1f77b4;opacity:0.5;stroke:#1f77b4;" x="647.405655" xlink:href="#mb56c532b20" y="86.629471"/>
     <use style="fill:#1f77b4;opacity:0.5;stroke:#1f77b4;" x="649.441532" xlink:href="#mb56c532b20" y="74.021241"/>
     <use style="fill:#1f77b4;opacity:0.5;stroke:#1f77b4;" x="651.47741" xlink:href="#mb56c532b20" y="73.118267"/>
     <use style="fill:#1f77b4;opacity:0.5;stroke:#1f77b4;" x="653.513287" xlink:href="#mb56c532b20" y="106.123579"/>
     <use style="fill:#1f77b4;opacity:0.5;stroke:#1f77b4;" x="655.549164" xlink:href="#mb56c532b20" y="88.288037"/>
     <use style="fill:#1f77b4;opacity:0.5;stroke:#1f77b4;" x="657.585041" xlink:href="#mb56c532b20" y="121.256164"/>
     <use style="fill:#1f77b4;opacity:0.5;stroke:#1f77b4;" x="659.620918" xlink:href="#mb56c532b20" y="114.530697"/>
     <use style="fill:#1f77b4;opacity:0.5;stroke:#1f77b4;" x="661.656795" xlink:href="#mb56c532b20" y="129.679385"/>
     <use style="fill:#1f77b4;opacity:0.5;stroke:#1f77b4;" x="663.692673" xlink:href="#mb56c532b20" y="134.811178"/>
     <use style="fill:#1f77b4;opacity:0.5;stroke:#1f77b4;" x="665.72855" xlink:href="#mb56c532b20" y="119.560531"/>
     <use style="fill:#1f77b4;opacity:0.5;stroke:#1f77b4;" x="667.764427" xlink:href="#mb56c532b20" y="133.481843"/>
     <use style="fill:#1f77b4;opacity:0.5;stroke:#1f77b4;" x="669.800304" xlink:href="#mb56c532b20" y="142.947298"/>
     <use style="fill:#1f77b4;opacity:0.5;stroke:#1f77b4;" x="671.836181" xlink:href="#mb56c532b20" y="158.167904"/>
     <use style="fill:#1f77b4;opacity:0.5;stroke:#1f77b4;" x="673.872058" xlink:href="#mb56c532b20" y="126.039879"/>
     <use style="fill:#1f77b4;opacity:0.5;stroke:#1f77b4;" x="675.907936" xlink:href="#mb56c532b20" y="131.45596"/>
     <use style="fill:#1f77b4;opacity:0.5;stroke:#1f77b4;" x="677.943813" xlink:href="#mb56c532b20" y="146.419411"/>
     <use style="fill:#1f77b4;opacity:0.5;stroke:#1f77b4;" x="679.97969" xlink:href="#mb56c532b20" y="136.485816"/>
     <use style="fill:#1f77b4;opacity:0.5;stroke:#1f77b4;" x="682.015567" xlink:href="#mb56c532b20" y="141.160956"/>
     <use style="fill:#1f77b4;opacity:0.5;stroke:#1f77b4;" x="684.051444" xlink:href="#mb56c532b20" y="108.739149"/>
     <use style="fill:#1f77b4;opacity:0.5;stroke:#1f77b4;" x="686.087321" xlink:href="#mb56c532b20" y="96.637593"/>
     <use style="fill:#1f77b4;opacity:0.5;stroke:#1f77b4;" x="688.123199" xlink:href="#mb56c532b20" y="94.963535"/>
     <use style="fill:#1f77b4;opacity:0.5;stroke:#1f77b4;" x="690.159076" xlink:href="#mb56c532b20" y="82.525179"/>
     <use style="fill:#1f77b4;opacity:0.5;stroke:#1f77b4;" x="692.194953" xlink:href="#mb56c532b20" y="84.787225"/>
     <use style="fill:#1f77b4;opacity:0.5;stroke:#1f77b4;" x="694.23083" xlink:href="#mb56c532b20" y="66.437455"/>
     <use style="fill:#1f77b4;opacity:0.5;stroke:#1f77b4;" x="696.266707" xlink:href="#mb56c532b20" y="58.60742"/>
     <use style="fill:#1f77b4;opacity:0.5;stroke:#1f77b4;" x="698.302584" xlink:href="#mb56c532b20" y="76.962687"/>
     <use style="fill:#1f77b4;opacity:0.5;stroke:#1f77b4;" x="700.338462" xlink:href="#mb56c532b20" y="51.394313"/>
     <use style="fill:#1f77b4;opacity:0.5;stroke:#1f77b4;" x="702.374339" xlink:href="#mb56c532b20" y="64.124007"/>
     <use style="fill:#1f77b4;opacity:0.5;stroke:#1f77b4;" x="704.410216" xlink:href="#mb56c532b20" y="48.657361"/>
     <use style="fill:#1f77b4;opacity:0.5;stroke:#1f77b4;" x="706.446093" xlink:href="#mb56c532b20" y="66.872042"/>
     <use style="fill:#1f77b4;opacity:0.5;stroke:#1f77b4;" x="708.48197" xlink:href="#mb56c532b20" y="67.287944"/>
     <use style="fill:#1f77b4;opacity:0.5;stroke:#1f77b4;" x="710.517847" xlink:href="#mb56c532b20" y="72.665475"/>
     <use style="fill:#1f77b4;opacity:0.5;stroke:#1f77b4;" x="712.553725" xlink:href="#mb56c532b20" y="88.886186"/>
     <use style="fill:#1f77b4;opacity:0.5;stroke:#1f77b4;" x="714.589602" xlink:href="#mb56c532b20" y="99.724139"/>
     <use style="fill:#1f77b4;opacity:0.5;stroke:#1f77b4;" x="716.625479" xlink:href="#mb56c532b20" y="105.024413"/>
     <use style="fill:#1f77b4;opacity:0.5;stroke:#1f77b4;" x="718.661356" xlink:href="#mb56c532b20" y="79.41109"/>
     <use style="fill:#1f77b4;opacity:0.5;stroke:#1f77b4;" x="720.697233" xlink:href="#mb56c532b20" y="104.586585"/>
     <use style="fill:#1f77b4;opacity:0.5;stroke:#1f77b4;" x="722.73311" xlink:href="#mb56c532b20" y="128.288097"/>
     <use style="fill:#1f77b4;opacity:0.5;stroke:#1f77b4;" x="724.768988" xlink:href="#mb56c532b20" y="132.873592"/>
     <use style="fill:#1f77b4;opacity:0.5;stroke:#1f77b4;" x="726.804865" xlink:href="#mb56c532b20" y="123.565401"/>
     <use style="fill:#1f77b4;opacity:0.5;stroke:#1f77b4;" x="728.840742" xlink:href="#mb56c532b20" y="131.045619"/>
     <use style="fill:#1f77b4;opacity:0.5;stroke:#1f77b4;" x="730.876619" xlink:href="#mb56c532b20" y="123.569746"/>
     <use style="fill:#1f77b4;opacity:0.5;stroke:#1f77b4;" x="732.912496" xlink:href="#mb56c532b20" y="129.48443"/>
     <use style="fill:#1f77b4;opacity:0.5;stroke:#1f77b4;" x="734.948373" xlink:href="#mb56c532b20" y="144.81903"/>
     <use style="fill:#1f77b4;opacity:0.5;stroke:#1f77b4;" x="736.984251" xlink:href="#mb56c532b20" y="140.554522"/>
     <use style="fill:#1f77b4;opacity:0.5;stroke:#1f77b4;" x="739.020128" xlink:href="#mb56c532b20" y="127.085791"/>
     <use style="fill:#1f77b4;opacity:0.5;stroke:#1f77b4;" x="741.056005" xlink:href="#mb56c532b20" y="105.907456"/>
     <use style="fill:#1f77b4;opacity:0.5;stroke:#1f77b4;" x="743.091882" xlink:href="#mb56c532b20" y="98.950996"/>
     <use style="fill:#1f77b4;opacity:0.5;stroke:#1f77b4;" x="745.127759" xlink:href="#mb56c532b20" y="74.899546"/>
     <use style="fill:#1f77b4;opacity:0.5;stroke:#1f77b4;" x="747.163636" xlink:href="#mb56c532b20" y="92.172197"/>
    </g>
   </g>
   <g id="line2d_19">
    <path clip-path="url(#pf13bd8f301)" d="M 260.588994 174.934017 
L 262.624871 177.439492 
L 264.660748 160.914569 
L 266.696625 158.189485 
L 268.732502 157.942522 
L 270.768379 146.600223 
L 272.804257 162.568717 
L 274.840134 139.153637 
L 276.876011 148.442511 
L 278.911888 153.723677 
L 280.947765 155.289342 
L 282.983642 169.381428 
L 285.01952 151.461896 
L 287.055397 166.471838 
L 289.091274 174.94494 
L 291.127151 174.023317 
L 293.163028 188.493888 
L 295.198905 198.105103 
L 297.234783 188.893251 
L 299.27066 211.465114 
L 301.306537 210.496073 
L 303.342414 208.762116 
L 305.378291 215.978951 
L 307.414168 212.950344 
L 309.450046 207.406187 
L 311.485923 194.3084 
L 313.5218 202.155353 
L 315.557677 194.43853 
L 317.593554 187.608673 
L 319.629431 191.785178 
L 321.665309 167.765868 
L 323.701186 162.603706 
L 325.737063 151.212197 
L 327.77294 147.479591 
L 329.808817 140.1547 
L 331.844694 134.817642 
L 333.880572 156.604073 
L 335.916449 131.2526 
L 337.952326 129.855691 
L 339.988203 139.019668 
L 342.02408 138.770785 
L 344.059957 155.064498 
L 346.095835 139.296177 
L 350.167589 162.736961 
L 352.203466 164.807157 
L 354.239343 162.698055 
L 356.27522 191.166328 
L 358.311098 187.880895 
L 360.346975 194.38057 
L 362.382852 204.661722 
L 364.418729 206.754215 
L 366.454606 200.908764 
L 368.490483 189.460135 
L 370.526361 197.451401 
L 372.562238 186.220731 
L 374.598115 199.684551 
L 376.633992 188.57124 
L 378.669869 171.988718 
L 380.705746 170.88731 
L 382.741624 160.308717 
L 384.777501 163.844487 
L 386.813378 150.329242 
L 388.849255 142.443074 
L 390.885132 137.080348 
L 392.921009 121.591452 
L 394.956887 118.429384 
L 396.992764 125.767634 
L 399.028641 114.48061 
L 401.064518 139.156146 
L 403.100395 116.596162 
L 405.136272 129.292041 
L 407.17215 127.038633 
L 409.208027 136.703037 
L 411.243904 142.772122 
L 413.279781 162.133761 
L 415.315658 154.115681 
L 417.351535 170.481922 
L 419.387413 167.175716 
L 421.42329 188.684684 
L 423.459167 193.0979 
L 425.495044 184.357753 
L 427.530921 183.855605 
L 429.566798 183.818535 
L 431.602676 191.932227 
L 433.638553 184.688517 
L 435.67443 182.450463 
L 437.710307 170.368832 
L 439.746184 161.114356 
L 441.782061 159.242734 
L 443.817939 153.293805 
L 445.853816 152.330019 
L 447.889693 133.820396 
L 449.92557 125.997429 
L 451.961447 124.064114 
L 453.997324 121.243711 
L 456.033202 104.06694 
L 458.069079 106.633081 
L 460.104956 104.558226 
L 462.140833 120.732911 
L 464.17671 105.812975 
L 466.212587 126.84762 
L 468.248465 107.966942 
L 470.284342 133.04429 
L 472.320219 133.938993 
L 474.356096 147.115602 
L 476.391973 145.077835 
L 478.42785 150.767504 
L 480.463728 154.745738 
L 482.499605 167.823483 
L 484.535482 180.043583 
L 486.571359 167.68761 
L 488.607236 171.11749 
L 490.643113 177.398319 
L 492.678991 184.303487 
L 494.714868 178.896698 
L 496.750745 167.945683 
L 498.786622 152.39009 
L 500.822499 156.328223 
L 502.858376 141.273752 
L 504.894254 129.19111 
L 506.930131 135.500583 
L 508.966008 122.727012 
L 511.001885 104.598344 
L 513.037762 103.40887 
L 515.073639 96.225474 
L 517.109517 95.432547 
L 519.145394 97.319246 
L 521.181271 90.937791 
L 523.217148 101.048931 
L 525.253025 94.139643 
L 527.288902 117.084891 
L 529.32478 104.368441 
L 531.360657 119.46011 
L 533.396534 113.788347 
L 535.432411 118.009137 
L 537.468288 131.493167 
L 539.504165 146.337382 
L 541.540043 151.002487 
L 543.57592 153.790184 
L 545.611797 164.417425 
L 547.647674 165.162407 
L 549.683551 170.527804 
L 551.719428 177.814591 
L 553.755306 163.085741 
L 555.791183 165.338371 
L 557.82706 148.136983 
L 559.862937 126.373522 
L 561.898814 137.672694 
L 563.934691 129.111028 
L 565.970569 118.795034 
L 568.006446 115.535758 
L 570.042323 109.957684 
L 572.0782 91.501071 
L 574.114077 91.69661 
L 576.149954 71.061485 
L 578.185832 71.850759 
L 580.221709 86.426332 
L 582.257586 80.072959 
L 584.293463 88.376966 
L 586.32934 85.324647 
L 588.365217 95.965093 
L 590.401095 99.395955 
L 592.436972 105.363403 
L 594.472849 109.452331 
L 596.508726 111.758554 
L 598.544603 115.130588 
L 600.58048 131.112442 
L 602.616358 149.164658 
L 604.652235 143.475738 
L 606.688112 146.141725 
L 608.723989 168.66791 
L 610.759866 155.058271 
L 612.795743 155.96888 
L 614.831621 147.456592 
L 616.867498 135.692521 
L 618.903375 139.403166 
L 620.939252 130.923478 
L 622.975129 118.209645 
L 625.011006 127.078111 
L 627.046884 102.362835 
L 629.082761 99.225129 
L 631.118638 95.266977 
L 633.154515 83.668225 
L 635.190392 77.985067 
L 637.226269 67.384057 
L 639.262147 57.560615 
L 641.298024 67.218375 
L 643.333901 65.96464 
L 645.369778 65.214665 
L 647.405655 69.246898 
L 649.441532 86.008978 
L 651.47741 84.539865 
L 653.513287 81.992998 
L 655.549164 88.260668 
L 657.585041 107.914769 
L 659.620918 109.560921 
L 661.656795 124.397742 
L 663.692673 123.659671 
L 665.72855 141.222403 
L 669.800304 134.502615 
L 671.836181 131.802879 
L 673.872058 141.038206 
L 675.907936 134.27197 
L 677.943813 123.496642 
L 679.97969 122.132307 
L 682.015567 122.290771 
L 684.051444 112.522358 
L 686.087321 118.900279 
L 688.123199 103.77083 
L 690.159076 84.85762 
L 692.194953 74.135098 
L 694.23083 64.043182 
L 698.302584 60.262093 
L 700.338462 44.443636 
L 702.374339 48.067941 
L 704.410216 54.823378 
L 706.446093 60.946477 
L 708.48197 56.01872 
L 710.517847 67.163673 
L 712.553725 62.837722 
L 714.589602 78.183377 
L 716.625479 75.022272 
L 718.661356 97.289048 
L 720.697233 102.668231 
L 722.73311 98.107823 
L 724.768988 105.384019 
L 726.804865 122.577275 
L 728.840742 123.130061 
L 730.876619 117.385696 
L 732.912496 127.736685 
L 734.948373 114.51851 
L 736.984251 112.200697 
L 739.020128 134.84541 
L 741.056005 115.224038 
L 743.091882 117.97846 
L 745.127759 86.179032 
L 747.163636 87.267701 
L 747.163636 87.267701 
" style="fill:none;stroke:#ff0000;stroke-dasharray:11.1,4.8;stroke-dashoffset:0;stroke-width:3;"/>
   </g>
   <g id="patch_3">
    <path d="M 108 252 
L 108 34.56 
" style="fill:none;stroke:#000000;stroke-linecap:square;stroke-linejoin:miter;stroke-width:0.8;"/>
   </g>
   <g id="patch_4">
    <path d="M 777.6 252 
L 777.6 34.56 
" style="fill:none;stroke:#000000;stroke-linecap:square;stroke-linejoin:miter;stroke-width:0.8;"/>
   </g>
   <g id="patch_5">
    <path d="M 108 252 
L 777.6 252 
" style="fill:none;stroke:#000000;stroke-linecap:square;stroke-linejoin:miter;stroke-width:0.8;"/>
   </g>
   <g id="patch_6">
    <path d="M 108 34.56 
L 777.6 34.56 
" style="fill:none;stroke:#000000;stroke-linecap:square;stroke-linejoin:miter;stroke-width:0.8;"/>
   </g>
   <g id="legend_1">
    <g id="patch_7">
     <path d="M 115 72.4725 
L 180.876563 72.4725 
Q 182.876563 72.4725 182.876563 70.4725 
L 182.876563 41.56 
Q 182.876563 39.56 180.876563 39.56 
L 115 39.56 
Q 113 39.56 113 41.56 
L 113 70.4725 
Q 113 72.4725 115 72.4725 
z
" style="fill:#ffffff;opacity:0.8;stroke:#cccccc;stroke-linejoin:miter;"/>
    </g>
    <g id="line2d_20">
     <path d="M 117 47.658437 
L 137 47.658437 
" style="fill:none;opacity:0.5;stroke:#1f77b4;stroke-linecap:square;stroke-width:1.5;"/>
    </g>
    <g id="line2d_21">
     <g>
      <use style="fill:#1f77b4;opacity:0.5;stroke:#1f77b4;" x="127" xlink:href="#mb56c532b20" y="47.658437"/>
     </g>
    </g>
    <g id="text_18">
     <!-- y_true -->
     <defs>
      <path d="M 32.171875 -5.078125 
Q 28.375 -14.84375 24.75 -17.8125 
Q 21.140625 -20.796875 15.09375 -20.796875 
L 7.90625 -20.796875 
L 7.90625 -13.28125 
L 13.1875 -13.28125 
Q 16.890625 -13.28125 18.9375 -11.515625 
Q 21 -9.765625 23.484375 -3.21875 
L 25.09375 0.875 
L 2.984375 54.6875 
L 12.5 54.6875 
L 29.59375 11.921875 
L 46.6875 54.6875 
L 56.203125 54.6875 
z
" id="DejaVuSans-79"/>
      <path d="M 50.984375 -16.609375 
L 50.984375 -23.578125 
L -0.984375 -23.578125 
L -0.984375 -16.609375 
z
" id="DejaVuSans-5f"/>
      <path d="M 18.3125 70.21875 
L 18.3125 54.6875 
L 36.8125 54.6875 
L 36.8125 47.703125 
L 18.3125 47.703125 
L 18.3125 18.015625 
Q 18.3125 11.328125 20.140625 9.421875 
Q 21.96875 7.515625 27.59375 7.515625 
L 36.8125 7.515625 
L 36.8125 0 
L 27.59375 0 
Q 17.1875 0 13.234375 3.875 
Q 9.28125 7.765625 9.28125 18.015625 
L 9.28125 47.703125 
L 2.6875 47.703125 
L 2.6875 54.6875 
L 9.28125 54.6875 
L 9.28125 70.21875 
z
" id="DejaVuSans-74"/>
      <path d="M 41.109375 46.296875 
Q 39.59375 47.171875 37.8125 47.578125 
Q 36.03125 48 33.890625 48 
Q 26.265625 48 22.1875 43.046875 
Q 18.109375 38.09375 18.109375 28.8125 
L 18.109375 0 
L 9.078125 0 
L 9.078125 54.6875 
L 18.109375 54.6875 
L 18.109375 46.1875 
Q 20.953125 51.171875 25.484375 53.578125 
Q 30.03125 56 36.53125 56 
Q 37.453125 56 38.578125 55.875 
Q 39.703125 55.765625 41.0625 55.515625 
z
" id="DejaVuSans-72"/>
      <path d="M 8.5 21.578125 
L 8.5 54.6875 
L 17.484375 54.6875 
L 17.484375 21.921875 
Q 17.484375 14.15625 20.5 10.265625 
Q 23.53125 6.390625 29.59375 6.390625 
Q 36.859375 6.390625 41.078125 11.03125 
Q 45.3125 15.671875 45.3125 23.6875 
L 45.3125 54.6875 
L 54.296875 54.6875 
L 54.296875 0 
L 45.3125 0 
L 45.3125 8.40625 
Q 42.046875 3.421875 37.71875 1 
Q 33.40625 -1.421875 27.6875 -1.421875 
Q 18.265625 -1.421875 13.375 4.4375 
Q 8.5 10.296875 8.5 21.578125 
z
M 31.109375 56 
z
" id="DejaVuSans-75"/>
      <path d="M 56.203125 29.59375 
L 56.203125 25.203125 
L 14.890625 25.203125 
Q 15.484375 15.921875 20.484375 11.0625 
Q 25.484375 6.203125 34.421875 6.203125 
Q 39.59375 6.203125 44.453125 7.46875 
Q 49.3125 8.734375 54.109375 11.28125 
L 54.109375 2.78125 
Q 49.265625 0.734375 44.1875 -0.34375 
Q 39.109375 -1.421875 33.890625 -1.421875 
Q 20.796875 -1.421875 13.15625 6.1875 
Q 5.515625 13.8125 5.515625 26.8125 
Q 5.515625 40.234375 12.765625 48.109375 
Q 20.015625 56 32.328125 56 
Q 43.359375 56 49.78125 48.890625 
Q 56.203125 41.796875 56.203125 29.59375 
z
M 47.21875 32.234375 
Q 47.125 39.59375 43.09375 43.984375 
Q 39.0625 48.390625 32.421875 48.390625 
Q 24.90625 48.390625 20.390625 44.140625 
Q 15.875 39.890625 15.1875 32.171875 
z
" id="DejaVuSans-65"/>
     </defs>
     <g transform="translate(145 51.158437)scale(0.1 -0.1)">
      <use xlink:href="#DejaVuSans-79"/>
      <use x="59.179688" xlink:href="#DejaVuSans-5f"/>
      <use x="109.179688" xlink:href="#DejaVuSans-74"/>
      <use x="148.388672" xlink:href="#DejaVuSans-72"/>
      <use x="189.501953" xlink:href="#DejaVuSans-75"/>
      <use x="252.880859" xlink:href="#DejaVuSans-65"/>
     </g>
    </g>
    <g id="line2d_22">
     <path d="M 117 62.614688 
L 137 62.614688 
" style="fill:none;stroke:#ff0000;stroke-dasharray:11.1,4.8;stroke-dashoffset:0;stroke-width:3;"/>
    </g>
    <g id="line2d_23"/>
    <g id="text_19">
     <!-- y_pred -->
     <defs>
      <path d="M 18.109375 8.203125 
L 18.109375 -20.796875 
L 9.078125 -20.796875 
L 9.078125 54.6875 
L 18.109375 54.6875 
L 18.109375 46.390625 
Q 20.953125 51.265625 25.265625 53.625 
Q 29.59375 56 35.59375 56 
Q 45.5625 56 51.78125 48.09375 
Q 58.015625 40.1875 58.015625 27.296875 
Q 58.015625 14.40625 51.78125 6.484375 
Q 45.5625 -1.421875 35.59375 -1.421875 
Q 29.59375 -1.421875 25.265625 0.953125 
Q 20.953125 3.328125 18.109375 8.203125 
z
M 48.6875 27.296875 
Q 48.6875 37.203125 44.609375 42.84375 
Q 40.53125 48.484375 33.40625 48.484375 
Q 26.265625 48.484375 22.1875 42.84375 
Q 18.109375 37.203125 18.109375 27.296875 
Q 18.109375 17.390625 22.1875 11.75 
Q 26.265625 6.109375 33.40625 6.109375 
Q 40.53125 6.109375 44.609375 11.75 
Q 48.6875 17.390625 48.6875 27.296875 
z
" id="DejaVuSans-70"/>
      <path d="M 45.40625 46.390625 
L 45.40625 75.984375 
L 54.390625 75.984375 
L 54.390625 0 
L 45.40625 0 
L 45.40625 8.203125 
Q 42.578125 3.328125 38.25 0.953125 
Q 33.9375 -1.421875 27.875 -1.421875 
Q 17.96875 -1.421875 11.734375 6.484375 
Q 5.515625 14.40625 5.515625 27.296875 
Q 5.515625 40.1875 11.734375 48.09375 
Q 17.96875 56 27.875 56 
Q 33.9375 56 38.25 53.625 
Q 42.578125 51.265625 45.40625 46.390625 
z
M 14.796875 27.296875 
Q 14.796875 17.390625 18.875 11.75 
Q 22.953125 6.109375 30.078125 6.109375 
Q 37.203125 6.109375 41.296875 11.75 
Q 45.40625 17.390625 45.40625 27.296875 
Q 45.40625 37.203125 41.296875 42.84375 
Q 37.203125 48.484375 30.078125 48.484375 
Q 22.953125 48.484375 18.875 42.84375 
Q 14.796875 37.203125 14.796875 27.296875 
z
" id="DejaVuSans-64"/>
     </defs>
     <g transform="translate(145 66.114688)scale(0.1 -0.1)">
      <use xlink:href="#DejaVuSans-79"/>
      <use x="59.179688" xlink:href="#DejaVuSans-5f"/>
      <use x="109.179688" xlink:href="#DejaVuSans-70"/>
      <use x="172.65625" xlink:href="#DejaVuSans-72"/>
      <use x="213.738281" xlink:href="#DejaVuSans-65"/>
      <use x="275.261719" xlink:href="#DejaVuSans-64"/>
     </g>
    </g>
   </g>
  </g>
 </g>
 <defs>
  <clipPath id="pf13bd8f301">
   <rect height="217.44" width="669.6" x="108" y="34.56"/>
  </clipPath>
 </defs>
</svg>
