<?xml version="1.0" encoding="utf-8" standalone="no"?>
<!DOCTYPE svg PUBLIC "-//W3C//DTD SVG 1.1//EN"
  "http://www.w3.org/Graphics/SVG/1.1/DTD/svg11.dtd">
<!-- Created with matplotlib (http://matplotlib.org/) -->
<svg height="216pt" version="1.1" viewBox="0 0 1080 216" width="1080pt" xmlns="http://www.w3.org/2000/svg" xmlns:xlink="http://www.w3.org/1999/xlink">
 <defs>
  <style type="text/css">
*{stroke-linecap:butt;stroke-linejoin:round;}
  </style>
 </defs>
 <g id="figure_1">
  <g id="patch_1">
   <path d="M 0 216 
L 1080 216 
L 1080 0 
L 0 0 
z
" style="fill:#ffffff;"/>
  </g>
  <g id="axes_1">
   <g id="patch_2">
    <path d="M 135 189 
L 316.956522 189 
L 316.956522 25.92 
L 135 25.92 
z
" style="fill:#ffffff;"/>
   </g>
   <g id="matplotlib.axis_1">
    <g id="xtick_1">
     <g id="line2d_1">
      <defs>
       <path d="M 0 0 
L 0 3.5 
" id="ma606a35f32" style="stroke:#000000;stroke-width:0.8;"/>
      </defs>
      <g>
       <use style="stroke:#000000;stroke-width:0.8;" x="143.270751" xlink:href="#ma606a35f32" y="189"/>
      </g>
     </g>
     <g id="text_1">
      <!-- 0.0 -->
      <defs>
       <path d="M 30.703125 -8.296875 
C 37.40625 -8.09375 43.5 -5.203125 48.5 -0.296875 
C 54.09375 5.296875 55.703125 13 56.703125 20.796875 
C 57.203125 25 57.40625 29.296875 56.90625 33.5 
C 55.40625 46.203125 50.09375 59.40625 37.90625 62.296875 
C 33.5 63.296875 27.703125 63.59375 23.40625 62.296875 
C 21.796875 61.703125 20.09375 61 18.59375 60.296875 
C 14.40625 58.40625 9.90625 52.296875 8 47.796875 
C 5.40625 41.5 4 34.5 4 27.703125 
C 4 17.59375 7.40625 7.203125 13.796875 0 
C 16.5 -3.09375 19.796875 -5.703125 23.40625 -7.09375 
C 25.796875 -8 28.296875 -8.296875 30.703125 -8.296875 
z
M 30.59375 50 
C 40.5 50.296875 43.703125 39.59375 44.296875 31.59375 
C 44.90625 23.5 43.90625 11.09375 36.203125 6.40625 
C 33.796875 4.90625 31 4.703125 28.296875 5.40625 
C 25.40625 6.203125 23.203125 8.09375 21.59375 10.5 
C 18.296875 15.5 17.203125 22.09375 17.203125 27.796875 
C 17.203125 33.296875 18.09375 39 20.90625 43.796875 
C 22 45.703125 23.5 47.5 25.296875 48.703125 
C 26.90625 49.703125 28.796875 50 30.59375 50 
z
" id="BMJUAOTF-30"/>
       <path d="M 16.296875 -8.59375 
C 16.296875 -5.09375 13.5 -2.203125 10 -2.203125 
C 6.5 -2.203125 3.703125 -5.09375 3.703125 -8.59375 
C 3.703125 -12.09375 6.5 -14.90625 10 -14.90625 
C 13.5 -14.90625 16.296875 -12.09375 16.296875 -8.59375 
z
" id="BMJUAOTF-2e"/>
      </defs>
      <g transform="translate(132.590282 205.285937)scale(0.15 -0.15)">
       <use xlink:href="#BMJUAOTF-30"/>
       <use x="61.199997" xlink:href="#BMJUAOTF-2e"/>
       <use x="81.199982" xlink:href="#BMJUAOTF-30"/>
      </g>
     </g>
    </g>
    <g id="xtick_2">
     <g id="line2d_2">
      <g>
       <use style="stroke:#000000;stroke-width:0.8;" x="225.978261" xlink:href="#ma606a35f32" y="189"/>
      </g>
     </g>
     <g id="text_2">
      <!-- 0.5 -->
      <defs>
       <path d="M 10.296875 61.296875 
C 9.40625 60.40625 8.796875 59.09375 8.703125 56.90625 
C 8.5 53.09375 8.296875 49.203125 8 45.40625 
C 7.796875 41.5 7.59375 37.703125 7.40625 33.796875 
C 7.203125 31.5 6.796875 28.5 8.5 26.703125 
C 12.09375 22.5 16.09375 24.90625 20.40625 25.90625 
C 22.59375 26.59375 24.90625 26.796875 27.203125 26.796875 
C 35.90625 26.796875 41.59375 22.40625 41.59375 15.296875 
C 41.59375 7.90625 36.09375 3.09375 27.90625 3.09375 
C 24.203125 3.09375 20.796875 4.203125 17.796875 5.703125 
C 14.296875 7.59375 11.296875 11.90625 6.796875 9.703125 
C 3.796875 8.203125 3.5 4.796875 4.59375 2 
C 5.5 -0.59375 7.703125 -2.796875 10.09375 -4.203125 
C 18.59375 -9.703125 29.40625 -9.703125 38.796875 -6.09375 
C 46.796875 -3.296875 52.296875 3.5 53.40625 11.90625 
C 53.703125 13.09375 53.703125 14.296875 53.703125 15.59375 
C 53.703125 30.40625 43.09375 37.59375 29.59375 37.59375 
C 27.09375 37.59375 24.59375 37.296875 22.203125 36.703125 
C 19.40625 35.90625 18.296875 35.796875 18.59375 38.90625 
C 18.703125 41.203125 19 43.5 19 45.796875 
C 19 47.40625 18.90625 50.40625 21.09375 50.90625 
C 22.296875 51.296875 25.09375 51 26.5 51 
C 30.203125 51 32.796875 51.40625 36.59375 51.40625 
C 40.09375 51.40625 44 50.796875 47.40625 51.40625 
C 51 51.796875 52 56.40625 51.203125 59.09375 
C 49.90625 63.40625 44.40625 62.703125 40.796875 62.703125 
L 16.09375 62.703125 
C 13.5 62.703125 11.5 62.5 10.296875 61.296875 
z
" id="BMJUAOTF-35"/>
      </defs>
      <g transform="translate(215.560292 205.285937)scale(0.15 -0.15)">
       <use xlink:href="#BMJUAOTF-30"/>
       <use x="61.199997" xlink:href="#BMJUAOTF-2e"/>
       <use x="81.199982" xlink:href="#BMJUAOTF-35"/>
      </g>
     </g>
    </g>
    <g id="xtick_3">
     <g id="line2d_3">
      <g>
       <use style="stroke:#000000;stroke-width:0.8;" x="308.685771" xlink:href="#ma606a35f32" y="189"/>
      </g>
     </g>
     <g id="text_3">
      <!-- 1.0 -->
      <defs>
       <path d="M 20.796875 63.59375 
C 16.59375 62.40625 12.5 60.703125 8.296875 59.296875 
C 4.40625 58.09375 1.59375 55.796875 2.09375 51.59375 
C 2.5 47.5 5.796875 46.703125 9.296875 47.09375 
C 10.40625 47.09375 17.296875 48.203125 17.703125 49.40625 
C 17.703125 31.59375 17.40625 15 18.296875 -2.5 
C 18.296875 -4.703125 18.40625 -7.40625 20.796875 -8.203125 
C 23 -9 26.703125 -9.09375 28.59375 -7.59375 
C 31.40625 -5.59375 30.703125 -1.796875 30.703125 1 
L 30.703125 52.09375 
C 30.703125 55 31.203125 59.703125 30.09375 62.40625 
C 29 64.703125 25.296875 64.703125 23.296875 64.203125 
C 22.5 64.09375 21.703125 63.796875 20.796875 63.59375 
z
" id="BMJUAOTF-31"/>
      </defs>
      <g transform="translate(299.513505 205.285937)scale(0.15 -0.15)">
       <use xlink:href="#BMJUAOTF-31"/>
       <use x="41.099991" xlink:href="#BMJUAOTF-2e"/>
       <use x="61.099976" xlink:href="#BMJUAOTF-30"/>
      </g>
     </g>
    </g>
   </g>
   <g id="matplotlib.axis_2">
    <g id="ytick_1">
     <g id="line2d_4">
      <defs>
       <path d="M 0 0 
L -3.5 0 
" id="m7644a0fadc" style="stroke:#000000;stroke-width:0.8;"/>
      </defs>
      <g>
       <use style="stroke:#000000;stroke-width:0.8;" x="135" xlink:href="#m7644a0fadc" y="181.587273"/>
      </g>
     </g>
     <g id="text_4">
      <!-- 1.0 -->
      <g transform="translate(109.655469 186.230241)scale(0.15 -0.15)">
       <use xlink:href="#BMJUAOTF-31"/>
       <use x="41.099991" xlink:href="#BMJUAOTF-2e"/>
       <use x="61.099976" xlink:href="#BMJUAOTF-30"/>
      </g>
     </g>
    </g>
    <g id="ytick_2">
     <g id="line2d_5">
      <g>
       <use style="stroke:#000000;stroke-width:0.8;" x="135" xlink:href="#m7644a0fadc" y="138.446927"/>
      </g>
     </g>
     <g id="text_5">
      <!-- 1.5 -->
      <g transform="translate(110.180469 143.089895)scale(0.15 -0.15)">
       <use xlink:href="#BMJUAOTF-31"/>
       <use x="41.099991" xlink:href="#BMJUAOTF-2e"/>
       <use x="61.099976" xlink:href="#BMJUAOTF-35"/>
      </g>
     </g>
    </g>
    <g id="ytick_3">
     <g id="line2d_6">
      <g>
       <use style="stroke:#000000;stroke-width:0.8;" x="135" xlink:href="#m7644a0fadc" y="95.306581"/>
      </g>
     </g>
     <g id="text_6">
      <!-- 2.0 -->
      <defs>
       <path d="M 15.796875 40.09375 
C 16.703125 41.40625 17.40625 43.09375 18.203125 44.5 
C 20.796875 48.296875 25.203125 50.40625 29.796875 50.40625 
C 36.09375 50.40625 40.796875 46.5 40.796875 39.796875 
C 40.796875 33.703125 37.40625 29.296875 28 21.5 
C 24.40625 18.40625 20.203125 15.40625 16.703125 12.296875 
C 11.90625 8.296875 4.59375 3.90625 4.59375 -2.90625 
C 4.59375 -4.90625 3.90625 -7.09375 6.296875 -7.703125 
C 7.5 -8.09375 9.203125 -7.796875 10.5 -7.796875 
L 46.40625 -7.796875 
C 48.703125 -7.796875 51.5 -8.40625 53.203125 -6.40625 
C 55 -4.5 54.90625 0.796875 52.796875 2.59375 
C 50.703125 4.40625 46.703125 3.703125 44 3.90625 
C 40.703125 4.203125 37.296875 3.90625 33.90625 3.90625 
C 31 3.90625 29.796875 3.703125 26.90625 3.90625 
C 22.09375 4.296875 29.59375 7.90625 31 9 
C 33.09375 10.703125 35.296875 12.5 37.296875 14.203125 
C 49.40625 24.09375 53.09375 29.90625 53.09375 40.703125 
C 53.09375 52.09375 46.90625 59.296875 36.296875 62.59375 
C 28.5 65.09375 17.796875 62.796875 11.5 57.59375 
C 8.09375 54.796875 4.5 48.90625 4.09375 44.5 
C 3.59375 38.09375 11.90625 33.90625 15.796875 40.09375 
z
" id="BMJUAOTF-32"/>
      </defs>
      <g transform="translate(107.044531 99.949549)scale(0.15 -0.15)">
       <use xlink:href="#BMJUAOTF-32"/>
       <use x="58.499985" xlink:href="#BMJUAOTF-2e"/>
       <use x="78.499969" xlink:href="#BMJUAOTF-30"/>
      </g>
     </g>
    </g>
    <g id="ytick_4">
     <g id="line2d_7">
      <g>
       <use style="stroke:#000000;stroke-width:0.8;" x="135" xlink:href="#m7644a0fadc" y="52.166235"/>
      </g>
     </g>
     <g id="text_7">
      <!-- 2.5 -->
      <g transform="translate(107.569531 56.809203)scale(0.15 -0.15)">
       <use xlink:href="#BMJUAOTF-32"/>
       <use x="58.499985" xlink:href="#BMJUAOTF-2e"/>
       <use x="78.499969" xlink:href="#BMJUAOTF-35"/>
      </g>
     </g>
    </g>
   </g>
   <g id="line2d_8">
    <path clip-path="url(#pb749221019)" d="M 143.270751 181.587273 
L 144.94161 180.711334 
L 146.612469 179.826503 
L 148.283327 178.932688 
L 149.954186 178.0298 
L 151.625045 177.117745 
L 153.295904 176.196431 
L 154.966762 175.265764 
L 156.637621 174.325648 
L 158.30848 173.375988 
L 159.979339 172.416686 
L 161.650198 171.447646 
L 163.321056 170.468768 
L 164.991915 169.479952 
L 166.662774 168.481098 
L 168.333633 167.472102 
L 170.004492 166.452864 
L 171.67535 165.423278 
L 173.346209 164.383239 
L 175.017068 163.332642 
L 176.687927 162.271378 
L 178.358785 161.199341 
L 180.029644 160.11642 
L 181.700503 159.022505 
L 183.371362 157.917485 
L 185.042221 156.801246 
L 186.713079 155.673674 
L 188.383938 154.534656 
L 190.054797 153.384074 
L 191.725656 152.22181 
L 193.396515 151.047748 
L 195.067373 149.861766 
L 196.738232 148.663744 
L 198.409091 147.453559 
L 200.07995 146.231088 
L 201.750808 144.996206 
L 203.421667 143.748788 
L 205.092526 142.488706 
L 206.763385 141.215831 
L 208.434244 139.930033 
L 210.105102 138.631182 
L 211.775961 137.319145 
L 213.44682 135.993787 
L 215.117679 134.654975 
L 216.788538 133.30257 
L 218.459396 131.936436 
L 220.130255 130.556432 
L 221.801114 129.162418 
L 223.471973 127.754252 
L 225.142831 126.33179 
L 226.81369 124.894887 
L 228.484549 123.443396 
L 230.155408 121.977169 
L 231.826267 120.496057 
L 233.497125 118.999908 
L 235.167984 117.48857 
L 236.838843 115.961889 
L 238.509702 114.419708 
L 240.180561 112.861871 
L 241.851419 111.288219 
L 243.522278 109.69859 
L 245.193137 108.092824 
L 246.863996 106.470755 
L 248.534854 104.832218 
L 250.205713 103.177047 
L 251.876572 101.505073 
L 253.547431 99.816124 
L 255.21829 98.110028 
L 256.889148 96.386612 
L 258.560007 94.6457 
L 260.230866 92.887113 
L 261.901725 91.110673 
L 263.572584 89.316198 
L 265.243442 87.503505 
L 266.914301 85.672409 
L 268.58516 83.822724 
L 270.256019 81.95426 
L 271.926877 80.066828 
L 273.597736 78.160234 
L 275.268595 76.234283 
L 276.939454 74.28878 
L 278.610313 72.323526 
L 280.281171 70.33832 
L 281.95203 68.33296 
L 283.622889 66.307242 
L 285.293748 64.260957 
L 286.964607 62.193899 
L 288.635465 60.105855 
L 290.306324 57.996613 
L 291.977183 55.865958 
L 293.648042 53.713671 
L 295.3189 51.539535 
L 296.989759 49.343326 
L 298.660618 47.12482 
L 300.331477 44.883792 
L 302.002336 42.620013 
L 303.673194 40.333251 
L 305.344053 38.023274 
L 307.014912 35.689845 
L 308.685771 33.332727 
" style="fill:none;stroke:#1f77b4;stroke-linecap:square;stroke-width:1.5;"/>
   </g>
   <g id="patch_3">
    <path d="M 135 189 
L 135 25.92 
" style="fill:none;stroke:#000000;stroke-linecap:square;stroke-linejoin:miter;stroke-width:0.8;"/>
   </g>
   <g id="patch_4">
    <path d="M 316.956522 189 
L 316.956522 25.92 
" style="fill:none;stroke:#000000;stroke-linecap:square;stroke-linejoin:miter;stroke-width:0.8;"/>
   </g>
   <g id="patch_5">
    <path d="M 135 189 
L 316.956522 189 
" style="fill:none;stroke:#000000;stroke-linecap:square;stroke-linejoin:miter;stroke-width:0.8;"/>
   </g>
   <g id="patch_6">
    <path d="M 135 25.92 
L 316.956522 25.92 
" style="fill:none;stroke:#000000;stroke-linecap:square;stroke-linejoin:miter;stroke-width:0.8;"/>
   </g>
   <g id="text_8">
    <!-- default axis -->
    <defs>
     <path d="M 35.203125 61.296875 
C 30.296875 60 31.09375 55.59375 31 51.40625 
L 31 33.5 
L 25.5 33.5 
C 11.703125 33.703125 3.703125 24.796875 4.09375 12 
C 4.59375 -2.703125 13.5 -9.296875 27.796875 -9.296875 
C 44.296875 -9.296875 43.203125 -10.703125 43.203125 10.90625 
L 43.203125 41.59375 
C 43.203125 44.40625 43.296875 47.59375 43.203125 54.296875 
C 43.203125 59 40.203125 62.703125 35.203125 61.296875 
z
M 17.796875 5.796875 
C 14.90625 9.796875 14.90625 17.09375 19 20.296875 
C 22.796875 23.203125 26.40625 22.40625 31 21.59375 
L 31 3.09375 
C 31 3.09375 28.296875 2.40625 25.40625 2.59375 
C 21.796875 2.796875 19.203125 3.90625 17.796875 5.796875 
z
" id="BMJUAOTF-64"/>
     <path d="M 38.59375 5.09375 
C 34.203125 3.796875 30.203125 2.5 25.703125 2.796875 
C 20.796875 3.203125 14.90625 5.296875 15.703125 10.703125 
C 23.40625 10.5 27.90625 10.203125 34.296875 10.5 
C 41.59375 10.796875 44.40625 10.90625 46.09375 15.703125 
C 47.09375 18.59375 46.59375 23.59375 45.59375 26 
C 43.703125 30.796875 39.90625 34.203125 35.40625 36.203125 
C 28.703125 39.203125 20.5 39.09375 14.59375 35.703125 
C 9.703125 32.796875 6 28.09375 4.5 20.40625 
C 3.203125 14.09375 3.703125 6.203125 7.09375 0.40625 
C 10.796875 -5.5 18 -7.90625 25.203125 -8.203125 
C 30.5 -8.40625 35.796875 -7.40625 39.59375 -5.703125 
C 42.203125 -4.59375 45.796875 -2.09375 45.796875 1.203125 
C 45.796875 5.703125 41.703125 6 38.59375 5.09375 
z
M 34.296875 24.5 
C 35.59375 23.09375 36.09375 22 36.203125 20.09375 
L 16.59375 20.09375 
C 15.5 20.09375 18.296875 24.40625 18.703125 24.796875 
C 20.09375 26.40625 21.5 27.296875 23.59375 27.796875 
C 25.703125 28.40625 28.203125 28.59375 30.296875 27.703125 
C 31.796875 27 33.09375 25.90625 34.296875 24.5 
z
" id="BMJUAOTF-65"/>
     <path d="M 32.703125 33.703125 
C 30.796875 34.296875 28.09375 34.40625 25.09375 34.59375 
L 25.09375 37.09375 
C 25.09375 39 24.796875 43.09375 26 44.703125 
C 27.59375 46.59375 30.796875 45.5 33.09375 46 
C 35.796875 46.59375 36.296875 48.90625 36.40625 51.296875 
C 36.5 53.703125 34.203125 55.90625 32.40625 56.59375 
C 28.40625 58.203125 22.90625 57.59375 19.09375 55.90625 
C 12.796875 53 13.40625 43.796875 13 34.59375 
C 12.59375 34.59375 10.5 34.5 10.203125 34.5 
C 8.09375 34.40625 6.90625 34.5 5.203125 32.90625 
C 3.90625 31.796875 3.5 27.90625 5 26.296875 
C 6.5 24.796875 10.203125 25.09375 13.296875 25 
C 13.296875 18.09375 13.203125 10.296875 13.203125 3.40625 
L 13.203125 -2.40625 
C 13.203125 -2.796875 13.296875 -3.40625 13.40625 -4.09375 
C 13.59375 -4.703125 13.796875 -5.5 14 -6.09375 
C 14.296875 -6.796875 14.796875 -7.40625 15.296875 -7.796875 
C 15.90625 -8.296875 16.703125 -8.59375 17.59375 -8.796875 
C 19.296875 -9.203125 20.796875 -9 22.296875 -8.203125 
C 22.90625 -7.796875 23.5 -7.203125 23.90625 -6.40625 
C 24 -6.203125 24.09375 -6 24.09375 -5.796875 
C 24.203125 -5.703125 24.296875 -5.5 24.40625 -5.203125 
C 24.703125 -4.59375 24.90625 -4 24.90625 -3.296875 
C 25.09375 -1.59375 25.203125 0 25.203125 1.59375 
L 25.203125 24.703125 
C 27.40625 24.796875 29.703125 24.703125 31.796875 25.203125 
C 33.796875 25.703125 34.796875 26.796875 35.203125 29 
C 35.5 31 34.90625 33.09375 32.703125 33.703125 
z
" id="BMJUAOTF-66"/>
     <path d="M 15.703125 33.5 
C 10.796875 31.09375 6.90625 26.703125 5 19.5 
C 2.09375 8.59375 5.40625 -3.90625 16.796875 -6.90625 
C 21.203125 -8.09375 24.796875 -8.296875 29.09375 -7.796875 
C 34.09375 -7.09375 37.5 -5 40.59375 -1 
C 42.40625 -3.90625 45.296875 -8.296875 49.40625 -7.5 
C 52.796875 -6.90625 53.90625 -3.5 53.203125 -0.40625 
C 51.703125 6.09375 47.40625 11 46.40625 17.796875 
C 45.59375 22.796875 43.90625 26.90625 40.40625 30.40625 
C 33.59375 37 23.796875 37.59375 15.703125 33.5 
z
M 18.203125 21.796875 
C 22 25.5 30.296875 26 33.40625 20.90625 
C 37.703125 14 33.40625 2.59375 25.40625 3.09375 
C 21.90625 3.296875 18.296875 4.703125 17 6.59375 
C 14 10.90625 14.40625 18.203125 18.203125 21.796875 
z
" id="BMJUAOTF-61"/>
     <path d="M 45.09375 15.203125 
C 45.296875 22.09375 45.5 31.59375 44 35.90625 
C 42.5 40.59375 34.203125 40.296875 32.90625 35.59375 
C 31.796875 32.09375 32.40625 21.796875 32.40625 15.5 
C 32.40625 8.203125 31.59375 4.59375 28.59375 3.703125 
C 15.59375 -0.09375 16.796875 13.796875 16.40625 22.90625 
C 16.203125 26 16.40625 30 16 33.09375 
C 15.296875 38.90625 11.40625 40.796875 7.40625 38.703125 
C 3.796875 36.796875 4.40625 31 4.296875 27.5 
C 4 23 4 18.5 4.296875 13.90625 
C 4.59375 6.90625 5.59375 -2.703125 12.09375 -6.59375 
C 18.5 -10.59375 28.59375 -11.09375 36.09375 -7.5 
C 44.703125 -3.5 44.703125 6.5 45.09375 15.203125 
z
" id="BMJUAOTF-75"/>
     <path d="M 17.296875 -0.59375 
C 17.40625 -0.09375 17.40625 0.296875 17.40625 0.90625 
C 17.40625 1.40625 17.296875 1.90625 17.296875 2.40625 
L 17.296875 23.40625 
C 17.296875 27.5 17.40625 31.703125 17.40625 36.203125 
C 17.5 40.796875 17.5 44.5 17.296875 48.796875 
L 17.296875 49.203125 
C 17.296875 50.5 17.203125 53.90625 17.09375 55.203125 
C 17.09375 56.40625 16.703125 57.703125 16.09375 58.90625 
C 15.703125 59.796875 15 60.59375 14.09375 61.09375 
C 13 61.59375 11.90625 61.90625 10.90625 61.90625 
C 9.90625 61.90625 9.09375 61.90625 8.203125 61.59375 
C 7.40625 61.5 6.59375 61.09375 5.90625 60.59375 
C 5.40625 60.203125 5 59.59375 4.796875 59 
C 4.5 58.203125 4.296875 57.59375 4.203125 56.703125 
C 4.09375 56 4 55.296875 4 54.40625 
L 4 -1.59375 
C 4 -2.09375 4.09375 -2.703125 4.296875 -3.40625 
C 4.40625 -4 4.59375 -4.703125 4.90625 -5.40625 
C 5.203125 -6.203125 5.703125 -6.703125 6.296875 -7.09375 
C 6.90625 -7.59375 7.90625 -8 9 -8.09375 
C 10.796875 -8.5 12.5 -8.296875 14.09375 -7.5 
C 14.796875 -7.09375 15.5 -6.5 15.90625 -5.703125 
L 16.203125 -5.09375 
C 16.296875 -5 16.40625 -4.796875 16.5 -4.59375 
L 17.09375 -2.5 
C 17.09375 -1.90625 17.203125 -1.296875 17.296875 -0.59375 
z
" id="BMJUAOTF-6c"/>
     <path d="M 46.703125 35.5 
C 44.703125 40.296875 37.203125 38.90625 33.296875 39 
L 32.296875 39 
C 32.296875 42.90625 32.40625 49.09375 31.5 52.203125 
C 30.5 55.90625 25.90625 58.796875 21.90625 55.59375 
C 18.90625 53.296875 19 46.09375 19.203125 42.796875 
C 19.296875 41.59375 19.296875 40.296875 19.40625 39 
C 15.5 39.09375 10.5 39.09375 8.09375 38.5 
C 4.703125 37.59375 2.5 32.59375 5.5 29.09375 
C 7.40625 26.796875 14.796875 26.703125 18 26.703125 
L 19.5 26.703125 
C 19.5 19.5 19.40625 12 19.296875 6.40625 
C 19.203125 2.90625 18.90625 -3.5 21.09375 -6.90625 
C 22.5 -9 26.296875 -10 30.40625 -8.296875 
C 33.09375 -7.296875 32.90625 -0.296875 32.90625 3.796875 
C 33.09375 9.59375 32.796875 18.796875 32.5 26.796875 
C 35.796875 26.90625 42.203125 27.296875 44.5 28.296875 
C 46.796875 29.203125 47.703125 33 46.703125 35.5 
z
" id="BMJUAOTF-74"/>
     <path id="BMJUAOTF-20"/>
     <path d="M 37.09375 10.5 
C 35.5 12.59375 34.296875 14.09375 33.09375 15.40625 
C 35.09375 17.796875 37.203125 20.40625 40.296875 23.703125 
C 42.90625 26.59375 47.09375 31 46 35.296875 
C 45.09375 38.796875 40.296875 40.203125 36.90625 37.59375 
C 33.59375 35.09375 31 31.296875 28.296875 28.09375 
C 27.296875 26.703125 26.203125 25.59375 25.5 24.59375 
C 24.703125 25.5 23.796875 26.5 22.90625 27.703125 
C 20 31 16.90625 35.203125 13.5 37.703125 
C 10.09375 40.203125 4.796875 39.09375 4.09375 35.09375 
C 3.40625 30.703125 7.703125 26.40625 10.40625 23.40625 
C 14.203125 19.40625 16.09375 17.203125 17.90625 15.203125 
C 16.90625 13.90625 15.703125 12.5 14.296875 10.703125 
C 11.296875 6.703125 4 -0.203125 5.5 -5.796875 
C 6.09375 -8.203125 9.09375 -9.90625 11.703125 -8.90625 
C 15.703125 -7.296875 20.09375 -1.203125 22.703125 2.09375 
C 23.796875 3.296875 24.703125 4.59375 25.59375 5.703125 
C 25.59375 5.59375 25.703125 5.59375 25.703125 5.5 
C 27.296875 3.5 35.09375 -6.203125 39.703125 -8.40625 
C 42.90625 -10 46.203125 -9.703125 47.296875 -6.203125 
C 48.59375 -1.703125 40.09375 6.703125 37.09375 10.5 
z
" id="BMJUAOTF-78"/>
     <path d="M 16.59375 29.296875 
C 16.59375 32.59375 16.40625 37.296875 15.40625 38.90625 
C 13.703125 41.40625 7.703125 41.296875 5.90625 39.09375 
C 3.40625 35.703125 4.203125 28 4.09375 24.296875 
C 4 18 4.203125 7.703125 4.296875 1.5 
C 4.5 -4.5 6.203125 -8 10.296875 -8.203125 
C 16 -8.5 16.40625 -2.40625 16.59375 1.59375 
C 16.90625 9.796875 16.59375 21.90625 16.59375 29.296875 
z
M 12.796875 49.5 
C 18.09375 51.203125 18.90625 56.703125 14.296875 60 
C 9.59375 63.40625 4 60.203125 5.09375 54.5 
C 5.703125 50.703125 8.703125 48.40625 12.796875 49.5 
z
" id="BMJUAOTF-69"/>
     <path d="M 27.90625 9 
C 29.796875 7.703125 29.796875 4.796875 26.90625 2.90625 
C 23 0.40625 15.296875 3.5 10.90625 6.40625 
C 5.59375 9.796875 1.796875 2.09375 5.5 -2.296875 
C 10.90625 -8.5 21.796875 -10 29.5 -8.40625 
C 40.203125 -6.09375 45.90625 7.703125 37 14.796875 
C 32.40625 18.59375 25.203125 18.5 20 21.203125 
C 14.40625 24.203125 17 29.796875 23 29.59375 
C 27.09375 29.59375 30 26.40625 33.90625 25.703125 
C 37.5 25.09375 40.203125 28.09375 39.09375 31.59375 
C 37.40625 36.90625 31.59375 38.703125 27 39.5 
C 20.09375 40.703125 10.796875 38.90625 7.09375 32.5 
C 3.703125 26.40625 4.5 19.796875 9.90625 15.703125 
C 14.90625 12 22.796875 12.203125 27.90625 9 
z
" id="BMJUAOTF-73"/>
    </defs>
    <g transform="translate(179.285136 19.92)scale(0.18 -0.18)">
     <use xlink:href="#BMJUAOTF-64"/>
     <use x="47.299988" xlink:href="#BMJUAOTF-65"/>
     <use x="97.999985" xlink:href="#BMJUAOTF-66"/>
     <use x="138.499969" xlink:href="#BMJUAOTF-61"/>
     <use x="195.999954" xlink:href="#BMJUAOTF-75"/>
     <use x="245.299942" xlink:href="#BMJUAOTF-6c"/>
     <use x="266.799927" xlink:href="#BMJUAOTF-74"/>
     <use x="317.999924" xlink:href="#BMJUAOTF-20"/>
     <use x="342.999908" xlink:href="#BMJUAOTF-61"/>
     <use x="400.499893" xlink:href="#BMJUAOTF-78"/>
     <use x="451.999878" xlink:href="#BMJUAOTF-69"/>
     <use x="473.399872" xlink:href="#BMJUAOTF-73"/>
    </g>
   </g>
  </g>
  <g id="axes_2">
   <g id="patch_7">
    <path d="M 353.347826 189 
L 535.304348 189 
L 535.304348 25.92 
L 353.347826 25.92 
z
" style="fill:#ffffff;"/>
   </g>
   <g id="matplotlib.axis_3">
    <g id="xtick_4">
     <g id="line2d_9">
      <g>
       <use style="stroke:#000000;stroke-width:0.8;" x="361.618577" xlink:href="#ma606a35f32" y="189"/>
      </g>
     </g>
     <g id="text_9">
      <!-- 0.0 -->
      <g transform="translate(350.938108 205.285937)scale(0.15 -0.15)">
       <use xlink:href="#BMJUAOTF-30"/>
       <use x="61.199997" xlink:href="#BMJUAOTF-2e"/>
       <use x="81.199982" xlink:href="#BMJUAOTF-30"/>
      </g>
     </g>
    </g>
    <g id="xtick_5">
     <g id="line2d_10">
      <g>
       <use style="stroke:#000000;stroke-width:0.8;" x="444.326087" xlink:href="#ma606a35f32" y="189"/>
      </g>
     </g>
     <g id="text_10">
      <!-- 0.5 -->
      <g transform="translate(433.908118 205.285937)scale(0.15 -0.15)">
       <use xlink:href="#BMJUAOTF-30"/>
       <use x="61.199997" xlink:href="#BMJUAOTF-2e"/>
       <use x="81.199982" xlink:href="#BMJUAOTF-35"/>
      </g>
     </g>
    </g>
    <g id="xtick_6">
     <g id="line2d_11">
      <g>
       <use style="stroke:#000000;stroke-width:0.8;" x="527.033597" xlink:href="#ma606a35f32" y="189"/>
      </g>
     </g>
     <g id="text_11">
      <!-- 1.0 -->
      <g transform="translate(517.861331 205.285937)scale(0.15 -0.15)">
       <use xlink:href="#BMJUAOTF-31"/>
       <use x="41.099991" xlink:href="#BMJUAOTF-2e"/>
       <use x="61.099976" xlink:href="#BMJUAOTF-30"/>
      </g>
     </g>
    </g>
   </g>
   <g id="matplotlib.axis_4">
    <g id="ytick_5">
     <g id="line2d_12">
      <g>
       <use style="stroke:#000000;stroke-width:0.8;" x="353.347826" xlink:href="#m7644a0fadc" y="181.587273"/>
      </g>
     </g>
     <g id="text_12">
      <!-- 1.0 -->
      <g transform="translate(328.003295 186.230241)scale(0.15 -0.15)">
       <use xlink:href="#BMJUAOTF-31"/>
       <use x="41.099991" xlink:href="#BMJUAOTF-2e"/>
       <use x="61.099976" xlink:href="#BMJUAOTF-30"/>
      </g>
     </g>
    </g>
    <g id="ytick_6">
     <g id="line2d_13">
      <g>
       <use style="stroke:#000000;stroke-width:0.8;" x="353.347826" xlink:href="#m7644a0fadc" y="138.446927"/>
      </g>
     </g>
     <g id="text_13">
      <!-- 1.5 -->
      <g transform="translate(328.528295 143.089895)scale(0.15 -0.15)">
       <use xlink:href="#BMJUAOTF-31"/>
       <use x="41.099991" xlink:href="#BMJUAOTF-2e"/>
       <use x="61.099976" xlink:href="#BMJUAOTF-35"/>
      </g>
     </g>
    </g>
    <g id="ytick_7">
     <g id="line2d_14">
      <g>
       <use style="stroke:#000000;stroke-width:0.8;" x="353.347826" xlink:href="#m7644a0fadc" y="95.306581"/>
      </g>
     </g>
     <g id="text_14">
      <!-- 2.0 -->
      <g transform="translate(325.392357 99.949549)scale(0.15 -0.15)">
       <use xlink:href="#BMJUAOTF-32"/>
       <use x="58.499985" xlink:href="#BMJUAOTF-2e"/>
       <use x="78.499969" xlink:href="#BMJUAOTF-30"/>
      </g>
     </g>
    </g>
    <g id="ytick_8">
     <g id="line2d_15">
      <g>
       <use style="stroke:#000000;stroke-width:0.8;" x="353.347826" xlink:href="#m7644a0fadc" y="52.166235"/>
      </g>
     </g>
     <g id="text_15">
      <!-- 2.5 -->
      <g transform="translate(325.917357 56.809203)scale(0.15 -0.15)">
       <use xlink:href="#BMJUAOTF-32"/>
       <use x="58.499985" xlink:href="#BMJUAOTF-2e"/>
       <use x="78.499969" xlink:href="#BMJUAOTF-35"/>
      </g>
     </g>
    </g>
   </g>
   <g id="line2d_16">
    <path clip-path="url(#p13eaa8fdb0)" d="M 361.618577 181.587273 
L 363.289436 180.711334 
L 364.960295 179.826503 
L 366.631153 178.932688 
L 368.302012 178.0298 
L 369.972871 177.117745 
L 371.64373 176.196431 
L 373.314589 175.265764 
L 374.985447 174.325648 
L 376.656306 173.375988 
L 378.327165 172.416686 
L 379.998024 171.447646 
L 381.668883 170.468768 
L 383.339741 169.479952 
L 385.0106 168.481098 
L 386.681459 167.472102 
L 388.352318 166.452864 
L 390.023176 165.423278 
L 391.694035 164.383239 
L 393.364894 163.332642 
L 395.035753 162.271378 
L 396.706612 161.199341 
L 398.37747 160.11642 
L 400.048329 159.022505 
L 401.719188 157.917485 
L 403.390047 156.801246 
L 405.060905 155.673674 
L 406.731764 154.534656 
L 408.402623 153.384074 
L 410.073482 152.22181 
L 411.744341 151.047748 
L 413.415199 149.861766 
L 415.086058 148.663744 
L 416.756917 147.453559 
L 418.427776 146.231088 
L 420.098635 144.996206 
L 421.769493 143.748788 
L 423.440352 142.488706 
L 425.111211 141.215831 
L 426.78207 139.930033 
L 428.452928 138.631182 
L 430.123787 137.319145 
L 431.794646 135.993787 
L 433.465505 134.654975 
L 435.136364 133.30257 
L 436.807222 131.936436 
L 438.478081 130.556432 
L 440.14894 129.162418 
L 441.819799 127.754252 
L 443.490658 126.33179 
L 445.161516 124.894887 
L 446.832375 123.443396 
L 448.503234 121.977169 
L 450.174093 120.496057 
L 451.844951 118.999908 
L 453.51581 117.48857 
L 455.186669 115.961889 
L 456.857528 114.419708 
L 458.528387 112.861871 
L 460.199245 111.288219 
L 461.870104 109.69859 
L 463.540963 108.092824 
L 465.211822 106.470755 
L 466.882681 104.832218 
L 468.553539 103.177047 
L 470.224398 101.505073 
L 471.895257 99.816124 
L 473.566116 98.110028 
L 475.236974 96.386612 
L 476.907833 94.6457 
L 478.578692 92.887113 
L 480.249551 91.110673 
L 481.92041 89.316198 
L 483.591268 87.503505 
L 485.262127 85.672409 
L 486.932986 83.822724 
L 488.603845 81.95426 
L 490.274704 80.066828 
L 491.945562 78.160234 
L 493.616421 76.234283 
L 495.28728 74.28878 
L 496.958139 72.323526 
L 498.628997 70.33832 
L 500.299856 68.33296 
L 501.970715 66.307242 
L 503.641574 64.260957 
L 505.312433 62.193899 
L 506.983291 60.105855 
L 508.65415 57.996613 
L 510.325009 55.865958 
L 511.995868 53.713671 
L 513.666727 51.539535 
L 515.337585 49.343326 
L 517.008444 47.12482 
L 518.679303 44.883792 
L 520.350162 42.620013 
L 522.02102 40.333251 
L 523.691879 38.023274 
L 525.362738 35.689845 
L 527.033597 33.332727 
" style="fill:none;stroke:#1f77b4;stroke-linecap:square;stroke-width:1.5;"/>
   </g>
   <g id="patch_8">
    <path d="M 353.347826 189 
L 353.347826 25.92 
" style="fill:none;stroke:#000000;stroke-linecap:square;stroke-linejoin:miter;stroke-width:0.8;"/>
   </g>
   <g id="patch_9">
    <path d="M 353.347826 189 
L 535.304348 189 
" style="fill:none;stroke:#000000;stroke-linecap:square;stroke-linejoin:miter;stroke-width:0.8;"/>
   </g>
   <g id="text_16">
    <!-- remove right, top -->
    <defs>
     <path d="M 4.09375 12.203125 
C 4 6.90625 4.203125 -0.796875 4.59375 -4.796875 
C 5 -6.90625 7.09375 -9.703125 9.5 -9.796875 
C 18.40625 -10.40625 18 -1.09375 17.90625 6.09375 
L 17.90625 20.5 
C 17.90625 20.5 23.296875 28.59375 32.203125 27.296875 
C 33.59375 27 36 25.796875 37.40625 25.5 
C 40 24.796875 42.40625 24.09375 44.203125 27.40625 
C 46.703125 32.09375 40.796875 36.40625 36.59375 38 
C 33.296875 39.09375 30.796875 39 27.5 38.796875 
C 26.90625 38.796875 19.796875 37.703125 17.5 33.5 
C 17.40625 37.703125 17.09375 41.59375 11.5 41.703125 
C 8.90625 41.796875 6.296875 41.09375 5.296875 38.703125 
C 4 35.59375 4.09375 30 4.09375 26.796875 
z
" id="BMJUAOTF-72"/>
     <path d="M 58.203125 14.703125 
C 58 19.296875 58.09375 25 56.09375 29.203125 
C 53.203125 35.5 45.796875 38.40625 39.40625 36 
C 37.5 35.203125 35.703125 34.09375 34.296875 32.703125 
C 31.40625 36.09375 27.296875 37.40625 22.5 36.5 
C 18.703125 35.796875 16.90625 33.5 15.40625 30.203125 
C 15.203125 34.203125 15.09375 39.5 10.203125 39.59375 
C 8.09375 39.703125 5.796875 39.203125 4.90625 36.703125 
C 3.796875 33.796875 4.09375 29.90625 4.203125 26.796875 
L 4.203125 12.40625 
C 4.09375 6.90625 4.296875 -2.09375 5.203125 -5 
C 6.5 -9.5 14.40625 -9.296875 15.796875 -5.203125 
C 17.203125 -1.40625 16.796875 5.09375 16.796875 13.703125 
C 16.796875 17.203125 16.5 21.59375 20.203125 23.40625 
C 22 24.296875 25.5 23.796875 26.5 21.90625 
C 27.296875 20.203125 27.203125 16.703125 27.296875 14.796875 
C 27.59375 11.703125 27.296875 8.40625 27.296875 5.296875 
C 27.296875 2.40625 27.296875 0 27.59375 -3.09375 
C 28 -8.296875 32.296875 -9.59375 35.59375 -7.5 
C 38.5 -5.703125 37.59375 -0.59375 37.796875 2.796875 
C 37.90625 7 37.90625 10.59375 37.796875 14.90625 
C 37.703125 16.5 37.796875 18.40625 37.796875 20.09375 
C 38.5 24.40625 42.59375 25.59375 44.90625 23.5 
C 46.5 22.203125 46.703125 18.203125 46.703125 15.703125 
C 46.59375 10.703125 46.703125 8.40625 46.703125 5.40625 
C 46.703125 2.5 46.796875 -0.703125 47 -3.796875 
C 47.296875 -9 52.5 -9.59375 55.796875 -7.5 
C 58.59375 -5.703125 58.09375 -0.703125 58.203125 2.59375 
C 58.40625 6.796875 58.40625 10.40625 58.203125 14.703125 
z
" id="BMJUAOTF-6d"/>
     <path d="M 16.90625 36.59375 
C 11.40625 33.90625 7.09375 29 5 21.09375 
C 1 6.09375 9.90625 -8.40625 25.796875 -9.296875 
C 30.203125 -9.703125 35.09375 -8.90625 39.09375 -7.09375 
C 42.203125 -5.703125 45.09375 -3.203125 46.90625 -0.296875 
C 50.796875 6.09375 52.703125 13.90625 50.5 21.203125 
C 49.40625 25.296875 47 30.09375 44 33.09375 
C 36.5 40.296875 25.796875 41 16.90625 36.59375 
z
M 19.90625 23.203125 
C 24.09375 27.09375 33 27.59375 36.296875 22.203125 
C 40.90625 14.796875 36.296875 2.59375 27.703125 3.09375 
C 24 3.296875 20 4.796875 18.703125 6.796875 
C 15.40625 11.5 16 19.40625 19.90625 23.203125 
z
" id="BMJUAOTF-6f"/>
     <path d="M 48.5 35.203125 
C 47 39.40625 41 40.296875 38.703125 37.59375 
C 36.296875 35.09375 34.796875 31.5 33.203125 28.09375 
C 29.796875 20.703125 28.90625 19.40625 26.09375 13.296875 
C 24.203125 17.09375 21.703125 22 19.796875 25.90625 
C 18.296875 29.203125 16.296875 35.09375 13.90625 37.59375 
C 11.5 40.296875 5.09375 39.40625 4.296875 35.40625 
C 3.40625 31.09375 5.59375 27 6.90625 23.90625 
C 12 12.203125 14 8.59375 17.203125 2.40625 
C 18.796875 -0.796875 21.09375 -6.90625 24.40625 -8.40625 
C 25 -8.796875 25.703125 -9 26.203125 -8.90625 
C 26.90625 -9 27.59375 -8.796875 28.203125 -8.40625 
C 31.40625 -6.90625 33.703125 -0.796875 35.40625 2.40625 
C 39.5 10.40625 42.296875 16.90625 45.703125 23.90625 
C 47.09375 26.90625 49.59375 32 48.5 35.203125 
z
" id="BMJUAOTF-76"/>
     <path d="M 45.5 10.296875 
C 45.5 16.203125 45.59375 21.703125 43.90625 27.203125 
C 41.703125 34.40625 35.203125 34 28.796875 33.90625 
C 23.40625 33.90625 17 33.203125 12.40625 30 
C 6.703125 26 4.5 19.59375 4.09375 12.90625 
C 3.09375 -2.90625 19.90625 -12.5 33.5 -6.796875 
C 33.40625 -10.40625 32.796875 -14.59375 31.5 -16.59375 
C 27.703125 -22.296875 17.40625 -20.703125 14.203125 -16 
C 9.59375 -9.203125 3.40625 -13.703125 5.296875 -20.796875 
C 6.796875 -26.59375 14.59375 -30.296875 20.203125 -31.09375 
C 24.40625 -31.59375 28 -31.296875 32.203125 -30.203125 
C 37.203125 -28.796875 40.296875 -25.296875 42.203125 -20.796875 
C 45.203125 -13.703125 45 -3.5 45 -3.5 
C 45.296875 0.796875 45.5 6 45.5 10.296875 
z
M 26.203125 2 
C 22.90625 2 19.40625 3.203125 17.5 5.796875 
C 14.40625 10 14.90625 17.203125 18.796875 20.703125 
C 21.703125 23.09375 28 23.5 31.796875 22.296875 
C 33.90625 21.5 33.90625 15.796875 33.90625 12.40625 
C 33.90625 8.203125 34.59375 4.296875 30 2.703125 
C 28.796875 2.296875 27.5 2 26.203125 2 
z
" id="BMJUAOTF-67"/>
     <path d="M 43 11.09375 
C 42.703125 20.796875 43.09375 28.796875 33.203125 33.796875 
C 28.40625 36.203125 21.703125 36.203125 16.203125 34.296875 
L 16.203125 36 
C 16.203125 40.5 16.203125 45 16.09375 49.203125 
L 16.09375 49.703125 
C 16 51 16 55.203125 15.796875 56.5 
C 15.796875 57.796875 15.5 58.90625 15 60.09375 
C 14.59375 61.09375 13.90625 61.703125 13.09375 62.203125 
C 12.203125 62.796875 11.296875 63.09375 10.203125 63.09375 
C 9.40625 63.09375 8.59375 63 7.90625 62.90625 
C 7.09375 62.796875 6.5 62.296875 5.796875 61.703125 
C 5.40625 61.40625 5 60.796875 4.796875 60.203125 
C 4.59375 59.5 4.40625 58.796875 4.203125 58 
C 4.09375 57.203125 4 56.5 4 55.703125 
L 4 -1.796875 
C 4 -5.59375 5.90625 -8.59375 9.90625 -8.59375 
C 16.296875 -8.5 16.09375 -2.296875 16.09375 2.5 
L 16.09375 9.796875 
L 16.203125 13.703125 
C 16.90625 19.59375 16.296875 24.09375 25.203125 23.59375 
C 32.09375 23.40625 31.5 12.796875 31.703125 6.90625 
C 31.90625 3.09375 30.5 -7.796875 36.59375 -8.5 
C 42.59375 -9.203125 42.703125 -4.203125 43 3 
C 43.09375 5.40625 43.09375 8.5 43 11.09375 
z
" id="BMJUAOTF-68"/>
     <path d="M 5.796875 -12.703125 
C 8.203125 -13 10.796875 -9.40625 12.203125 -7.59375 
C 13.90625 -5.59375 19.90625 -0.59375 21 1.796875 
C 22.40625 4.796875 18.09375 8.90625 14.703125 8.09375 
C 11.703125 7.296875 7.09375 0 5.5 -2.296875 
C 4 -4.59375 2.40625 -9.09375 3.59375 -11.09375 
C 4.203125 -12.203125 5 -12.59375 5.796875 -12.703125 
z
" id="BMJUAOTF-2c"/>
     <path d="M 32 36.40625 
C 28.90625 37.703125 21.296875 39.90625 14.796875 40.09375 
C 10.09375 40.203125 6 39.203125 4.796875 35.90625 
C 4.5 35.09375 4.296875 34.296875 4.203125 33.5 
C 4.09375 32.59375 4 31.703125 4 30.90625 
L 4 -24.796875 
C 4 -25.40625 4.09375 -26.09375 4.203125 -26.703125 
C 4.40625 -27.5 4.59375 -28.203125 4.90625 -29 
C 5.203125 -29.796875 5.703125 -30.40625 6.203125 -30.90625 
C 6.90625 -31.5 7.703125 -31.796875 8.796875 -31.90625 
C 10.59375 -32.40625 12.203125 -32.203125 13.796875 -31.40625 
C 14.5 -30.796875 15 -30.09375 15.5 -29.296875 
C 16 -28.09375 16.40625 -27.09375 16.59375 -25.796875 
C 16.59375 -25.203125 16.90625 -24.5 16.90625 -23.703125 
L 16.90625 -5.40625 
C 23.296875 -5 29.296875 -4 34.796875 -1.703125 
C 42.09375 1.5 45.203125 8 45.09375 14.796875 
C 45.09375 23.90625 39.703125 33.09375 32 36.40625 
z
M 32.203125 14.796875 
C 31.296875 8.203125 23.203125 7 17 6.59375 
L 17 13.296875 
C 17.09375 17.796875 17 21.59375 17 25.796875 
C 18 25.796875 19 25.796875 19.40625 25.703125 
C 25.90625 24.796875 33.203125 22.296875 32.203125 14.796875 
z
" id="BMJUAOTF-70"/>
    </defs>
    <g transform="translate(374.719524 19.92)scale(0.18 -0.18)">
     <use xlink:href="#BMJUAOTF-72"/>
     <use x="48.799988" xlink:href="#BMJUAOTF-65"/>
     <use x="99.499985" xlink:href="#BMJUAOTF-6d"/>
     <use x="161.899979" xlink:href="#BMJUAOTF-6f"/>
     <use x="217.399963" xlink:href="#BMJUAOTF-76"/>
     <use x="270.199951" xlink:href="#BMJUAOTF-65"/>
     <use x="320.899948" xlink:href="#BMJUAOTF-20"/>
     <use x="345.899933" xlink:href="#BMJUAOTF-72"/>
     <use x="394.699921" xlink:href="#BMJUAOTF-69"/>
     <use x="416.099915" xlink:href="#BMJUAOTF-67"/>
     <use x="465.699905" xlink:href="#BMJUAOTF-68"/>
     <use x="512.799896" xlink:href="#BMJUAOTF-74"/>
     <use x="563.999893" xlink:href="#BMJUAOTF-2c"/>
     <use x="592.499878" xlink:href="#BMJUAOTF-20"/>
     <use x="617.499863" xlink:href="#BMJUAOTF-74"/>
     <use x="668.69986" xlink:href="#BMJUAOTF-6f"/>
     <use x="724.199844" xlink:href="#BMJUAOTF-70"/>
    </g>
   </g>
  </g>
  <g id="axes_3">
   <g id="patch_10">
    <path d="M 571.695652 189 
L 753.652174 189 
L 753.652174 25.92 
L 571.695652 25.92 
z
" style="fill:#ffffff;"/>
   </g>
   <g id="matplotlib.axis_5">
    <g id="xtick_7">
     <g id="line2d_17">
      <g>
       <use style="stroke:#000000;stroke-width:0.8;" x="579.966403" xlink:href="#ma606a35f32" y="189"/>
      </g>
     </g>
     <g id="text_17">
      <!-- 0.0 -->
      <g transform="translate(569.285934 205.285937)scale(0.15 -0.15)">
       <use xlink:href="#BMJUAOTF-30"/>
       <use x="61.199997" xlink:href="#BMJUAOTF-2e"/>
       <use x="81.199982" xlink:href="#BMJUAOTF-30"/>
      </g>
     </g>
    </g>
    <g id="xtick_8">
     <g id="line2d_18">
      <g>
       <use style="stroke:#000000;stroke-width:0.8;" x="662.673913" xlink:href="#ma606a35f32" y="189"/>
      </g>
     </g>
     <g id="text_18">
      <!-- 0.5 -->
      <g transform="translate(652.255944 205.285937)scale(0.15 -0.15)">
       <use xlink:href="#BMJUAOTF-30"/>
       <use x="61.199997" xlink:href="#BMJUAOTF-2e"/>
       <use x="81.199982" xlink:href="#BMJUAOTF-35"/>
      </g>
     </g>
    </g>
    <g id="xtick_9">
     <g id="line2d_19">
      <g>
       <use style="stroke:#000000;stroke-width:0.8;" x="745.381423" xlink:href="#ma606a35f32" y="189"/>
      </g>
     </g>
     <g id="text_19">
      <!-- 1.0 -->
      <g transform="translate(736.209157 205.285937)scale(0.15 -0.15)">
       <use xlink:href="#BMJUAOTF-31"/>
       <use x="41.099991" xlink:href="#BMJUAOTF-2e"/>
       <use x="61.099976" xlink:href="#BMJUAOTF-30"/>
      </g>
     </g>
    </g>
   </g>
   <g id="matplotlib.axis_6">
    <g id="ytick_9">
     <g id="line2d_20">
      <g>
       <use style="stroke:#000000;stroke-width:0.8;" x="571.695652" xlink:href="#m7644a0fadc" y="181.587273"/>
      </g>
     </g>
     <g id="text_20">
      <!-- 1.0 -->
      <g transform="translate(546.351121 186.230241)scale(0.15 -0.15)">
       <use xlink:href="#BMJUAOTF-31"/>
       <use x="41.099991" xlink:href="#BMJUAOTF-2e"/>
       <use x="61.099976" xlink:href="#BMJUAOTF-30"/>
      </g>
     </g>
    </g>
    <g id="ytick_10">
     <g id="line2d_21">
      <g>
       <use style="stroke:#000000;stroke-width:0.8;" x="571.695652" xlink:href="#m7644a0fadc" y="138.446927"/>
      </g>
     </g>
     <g id="text_21">
      <!-- 1.5 -->
      <g transform="translate(546.876121 143.089895)scale(0.15 -0.15)">
       <use xlink:href="#BMJUAOTF-31"/>
       <use x="41.099991" xlink:href="#BMJUAOTF-2e"/>
       <use x="61.099976" xlink:href="#BMJUAOTF-35"/>
      </g>
     </g>
    </g>
    <g id="ytick_11">
     <g id="line2d_22">
      <g>
       <use style="stroke:#000000;stroke-width:0.8;" x="571.695652" xlink:href="#m7644a0fadc" y="95.306581"/>
      </g>
     </g>
     <g id="text_22">
      <!-- 2.0 -->
      <g transform="translate(543.740183 99.949549)scale(0.15 -0.15)">
       <use xlink:href="#BMJUAOTF-32"/>
       <use x="58.499985" xlink:href="#BMJUAOTF-2e"/>
       <use x="78.499969" xlink:href="#BMJUAOTF-30"/>
      </g>
     </g>
    </g>
    <g id="ytick_12">
     <g id="line2d_23">
      <g>
       <use style="stroke:#000000;stroke-width:0.8;" x="571.695652" xlink:href="#m7644a0fadc" y="52.166235"/>
      </g>
     </g>
     <g id="text_23">
      <!-- 2.5 -->
      <g transform="translate(544.265183 56.809203)scale(0.15 -0.15)">
       <use xlink:href="#BMJUAOTF-32"/>
       <use x="58.499985" xlink:href="#BMJUAOTF-2e"/>
       <use x="78.499969" xlink:href="#BMJUAOTF-35"/>
      </g>
     </g>
    </g>
   </g>
   <g id="line2d_24">
    <path clip-path="url(#p8493424f26)" d="M 579.966403 181.587273 
L 581.637262 180.711334 
L 583.308121 179.826503 
L 584.97898 178.932688 
L 586.649838 178.0298 
L 588.320697 177.117745 
L 589.991556 176.196431 
L 591.662415 175.265764 
L 593.333273 174.325648 
L 595.004132 173.375988 
L 596.674991 172.416686 
L 598.34585 171.447646 
L 600.016709 170.468768 
L 601.687567 169.479952 
L 603.358426 168.481098 
L 605.029285 167.472102 
L 606.700144 166.452864 
L 608.371003 165.423278 
L 610.041861 164.383239 
L 611.71272 163.332642 
L 613.383579 162.271378 
L 615.054438 161.199341 
L 616.725296 160.11642 
L 618.396155 159.022505 
L 620.067014 157.917485 
L 621.737873 156.801246 
L 623.408732 155.673674 
L 625.07959 154.534656 
L 626.750449 153.384074 
L 628.421308 152.22181 
L 630.092167 151.047748 
L 631.763026 149.861766 
L 633.433884 148.663744 
L 635.104743 147.453559 
L 636.775602 146.231088 
L 638.446461 144.996206 
L 640.117319 143.748788 
L 641.788178 142.488706 
L 643.459037 141.215831 
L 645.129896 139.930033 
L 646.800755 138.631182 
L 648.471613 137.319145 
L 650.142472 135.993787 
L 651.813331 134.654975 
L 653.48419 133.30257 
L 655.155049 131.936436 
L 656.825907 130.556432 
L 658.496766 129.162418 
L 660.167625 127.754252 
L 661.838484 126.33179 
L 663.509342 124.894887 
L 665.180201 123.443396 
L 666.85106 121.977169 
L 668.521919 120.496057 
L 670.192778 118.999908 
L 671.863636 117.48857 
L 673.534495 115.961889 
L 675.205354 114.419708 
L 676.876213 112.861871 
L 678.547072 111.288219 
L 680.21793 109.69859 
L 681.888789 108.092824 
L 683.559648 106.470755 
L 685.230507 104.832218 
L 686.901365 103.177047 
L 688.572224 101.505073 
L 690.243083 99.816124 
L 691.913942 98.110028 
L 693.584801 96.386612 
L 695.255659 94.6457 
L 696.926518 92.887113 
L 698.597377 91.110673 
L 700.268236 89.316198 
L 701.939095 87.503505 
L 703.609953 85.672409 
L 705.280812 83.822724 
L 706.951671 81.95426 
L 708.62253 80.066828 
L 710.293388 78.160234 
L 711.964247 76.234283 
L 713.635106 74.28878 
L 715.305965 72.323526 
L 716.976824 70.33832 
L 718.647682 68.33296 
L 720.318541 66.307242 
L 721.9894 64.260957 
L 723.660259 62.193899 
L 725.331117 60.105855 
L 727.001976 57.996613 
L 728.672835 55.865958 
L 730.343694 53.713671 
L 732.014553 51.539535 
L 733.685411 49.343326 
L 735.35627 47.12482 
L 737.027129 44.883792 
L 738.697988 42.620013 
L 740.368847 40.333251 
L 742.039705 38.023274 
L 743.710564 35.689845 
L 745.381423 33.332727 
" style="fill:none;stroke:#1f77b4;stroke-linecap:square;stroke-width:1.5;"/>
   </g>
   <g id="patch_11">
    <path d="M 753.652174 189 
L 753.652174 25.92 
" style="fill:none;stroke:#000000;stroke-linecap:square;stroke-linejoin:miter;stroke-width:0.8;"/>
   </g>
   <g id="patch_12">
    <path d="M 571.695652 25.92 
L 753.652174 25.92 
" style="fill:none;stroke:#000000;stroke-linecap:square;stroke-linejoin:miter;stroke-width:0.8;"/>
   </g>
   <g id="text_24">
    <!-- remove left, bottom -->
    <defs>
     <path d="M 4.203125 54.59375 
C 3.90625 47.203125 4.203125 44.703125 4.203125 41.90625 
C 4.296875 31.703125 4.203125 21.5 4.203125 11.203125 
C 4.203125 -10.5 3.203125 -8.90625 19.703125 -8.90625 
C 34 -8.90625 43.296875 -2.40625 43.5 12.40625 
C 43.703125 24.90625 37.703125 34 23 33.90625 
C 21.09375 33.796875 16.5 33.796875 16.5 33.796875 
C 16.5 33.796875 16.40625 36 16.5 38 
L 16.5 51.796875 
C 16.40625 55.796875 17.09375 60.296875 12.296875 61.59375 
C 7.296875 63 4.5 59.40625 4.203125 54.59375 
z
M 22.90625 2.296875 
C 20 2.09375 16.5 2.5 16.5 2.5 
L 16.703125 10.796875 
L 16.703125 22.796875 
C 22.5 23 25.703125 23.59375 29.5 20.40625 
C 33.703125 16.90625 33.5 9.40625 30.5 5.296875 
C 29 3.40625 26.703125 2.5 22.90625 2.296875 
z
" id="BMJUAOTF-62"/>
    </defs>
    <g transform="translate(582.869226 19.92)scale(0.18 -0.18)">
     <use xlink:href="#BMJUAOTF-72"/>
     <use x="48.799988" xlink:href="#BMJUAOTF-65"/>
     <use x="99.499985" xlink:href="#BMJUAOTF-6d"/>
     <use x="161.899979" xlink:href="#BMJUAOTF-6f"/>
     <use x="217.399963" xlink:href="#BMJUAOTF-76"/>
     <use x="270.199951" xlink:href="#BMJUAOTF-65"/>
     <use x="320.899948" xlink:href="#BMJUAOTF-20"/>
     <use x="345.899933" xlink:href="#BMJUAOTF-6c"/>
     <use x="367.399918" xlink:href="#BMJUAOTF-65"/>
     <use x="418.099915" xlink:href="#BMJUAOTF-66"/>
     <use x="458.599899" xlink:href="#BMJUAOTF-74"/>
     <use x="509.799896" xlink:href="#BMJUAOTF-2c"/>
     <use x="538.299881" xlink:href="#BMJUAOTF-20"/>
     <use x="563.299866" xlink:href="#BMJUAOTF-62"/>
     <use x="610.899857" xlink:href="#BMJUAOTF-6f"/>
     <use x="666.399841" xlink:href="#BMJUAOTF-74"/>
     <use x="717.599838" xlink:href="#BMJUAOTF-74"/>
     <use x="768.799835" xlink:href="#BMJUAOTF-6f"/>
     <use x="824.29982" xlink:href="#BMJUAOTF-6d"/>
    </g>
   </g>
  </g>
  <g id="axes_4">
   <g id="line2d_25">
    <path clip-path="url(#pcbf5b8b58e)" d="M 798.314229 181.587273 
L 799.985088 180.711334 
L 801.655947 179.826503 
L 803.326806 178.932688 
L 804.997664 178.0298 
L 806.668523 177.117745 
L 808.339382 176.196431 
L 810.010241 175.265764 
L 811.6811 174.325648 
L 813.351958 173.375988 
L 815.022817 172.416686 
L 816.693676 171.447646 
L 818.364535 170.468768 
L 820.035393 169.479952 
L 821.706252 168.481098 
L 823.377111 167.472102 
L 825.04797 166.452864 
L 826.718829 165.423278 
L 828.389687 164.383239 
L 830.060546 163.332642 
L 831.731405 162.271378 
L 833.402264 161.199341 
L 835.073123 160.11642 
L 836.743981 159.022505 
L 838.41484 157.917485 
L 840.085699 156.801246 
L 841.756558 155.673674 
L 843.427416 154.534656 
L 845.098275 153.384074 
L 846.769134 152.22181 
L 848.439993 151.047748 
L 850.110852 149.861766 
L 851.78171 148.663744 
L 853.452569 147.453559 
L 855.123428 146.231088 
L 856.794287 144.996206 
L 858.465146 143.748788 
L 860.136004 142.488706 
L 861.806863 141.215831 
L 863.477722 139.930033 
L 865.148581 138.631182 
L 866.819439 137.319145 
L 868.490298 135.993787 
L 870.161157 134.654975 
L 871.832016 133.30257 
L 873.502875 131.936436 
L 875.173733 130.556432 
L 876.844592 129.162418 
L 878.515451 127.754252 
L 880.18631 126.33179 
L 881.857169 124.894887 
L 883.528027 123.443396 
L 885.198886 121.977169 
L 886.869745 120.496057 
L 888.540604 118.999908 
L 890.211462 117.48857 
L 891.882321 115.961889 
L 893.55318 114.419708 
L 895.224039 112.861871 
L 896.894898 111.288219 
L 898.565756 109.69859 
L 900.236615 108.092824 
L 901.907474 106.470755 
L 903.578333 104.832218 
L 905.249192 103.177047 
L 906.92005 101.505073 
L 908.590909 99.816124 
L 910.261768 98.110028 
L 911.932627 96.386612 
L 913.603485 94.6457 
L 915.274344 92.887113 
L 916.945203 91.110673 
L 918.616062 89.316198 
L 920.286921 87.503505 
L 921.957779 85.672409 
L 923.628638 83.822724 
L 925.299497 81.95426 
L 926.970356 80.066828 
L 928.641215 78.160234 
L 930.312073 76.234283 
L 931.982932 74.28878 
L 933.653791 72.323526 
L 935.32465 70.33832 
L 936.995508 68.33296 
L 938.666367 66.307242 
L 940.337226 64.260957 
L 942.008085 62.193899 
L 943.678944 60.105855 
L 945.349802 57.996613 
L 947.020661 55.865958 
L 948.69152 53.713671 
L 950.362379 51.539535 
L 952.033238 49.343326 
L 953.704096 47.12482 
L 955.374955 44.883792 
L 957.045814 42.620013 
L 958.716673 40.333251 
L 960.387531 38.023274 
L 962.05839 35.689845 
L 963.729249 33.332727 
" style="fill:none;stroke:#1f77b4;stroke-linecap:square;stroke-width:1.5;"/>
   </g>
   <g id="text_25">
    <!-- axis off -->
    <g transform="translate(850.663614 19.92)scale(0.18 -0.18)">
     <use xlink:href="#BMJUAOTF-61"/>
     <use x="57.499985" xlink:href="#BMJUAOTF-78"/>
     <use x="108.999969" xlink:href="#BMJUAOTF-69"/>
     <use x="130.399963" xlink:href="#BMJUAOTF-73"/>
     <use x="175.799957" xlink:href="#BMJUAOTF-20"/>
     <use x="200.799942" xlink:href="#BMJUAOTF-6f"/>
     <use x="256.299927" xlink:href="#BMJUAOTF-66"/>
     <use x="296.799911" xlink:href="#BMJUAOTF-66"/>
    </g>
   </g>
  </g>
 </g>
 <defs>
  <clipPath id="pb749221019">
   <rect height="163.08" width="181.956522" x="135" y="25.92"/>
  </clipPath>
  <clipPath id="p13eaa8fdb0">
   <rect height="163.08" width="181.956522" x="353.347826" y="25.92"/>
  </clipPath>
  <clipPath id="p8493424f26">
   <rect height="163.08" width="181.956522" x="571.695652" y="25.92"/>
  </clipPath>
  <clipPath id="pcbf5b8b58e">
   <rect height="163.08" width="181.956522" x="790.043478" y="25.92"/>
  </clipPath>
 </defs>
</svg>
