<?xml version="1.0" encoding="utf-8" standalone="no"?>
<!DOCTYPE svg PUBLIC "-//W3C//DTD SVG 1.1//EN"
  "http://www.w3.org/Graphics/SVG/1.1/DTD/svg11.dtd">
<!-- Created with matplotlib (http://matplotlib.org/) -->
<svg height="432pt" version="1.1" viewBox="0 0 432 432" width="432pt" xmlns="http://www.w3.org/2000/svg" xmlns:xlink="http://www.w3.org/1999/xlink">
 <defs>
  <style type="text/css">
*{stroke-linecap:butt;stroke-linejoin:round;}
  </style>
 </defs>
 <g id="figure_1">
  <g id="patch_1">
   <path d="M 0 432 
L 432 432 
L 432 0 
L 0 0 
z
" style="fill:#ffffff;"/>
  </g>
  <g id="axes_1">
   <g id="patch_2">
    <path d="M 33.835 403.04 
L 353.004857 403.04 
L 353.004857 79.830857 
L 33.835 79.830857 
z
" style="fill:#eaeaf2;"/>
   </g>
   <g id="matplotlib.axis_1">
    <g id="xtick_1">
     <g id="line2d_1"/>
     <g id="text_1">
      <!-- −3 -->
      <defs>
       <path d="M 52.828125 31.203125 
L 5.5625 31.203125 
L 5.5625 39.40625 
L 52.828125 39.40625 
z
" id="ArialMT-2212"/>
       <path d="M 4.203125 18.890625 
L 12.984375 20.0625 
Q 14.5 12.59375 18.140625 9.296875 
Q 21.78125 6 27 6 
Q 33.203125 6 37.46875 10.296875 
Q 41.75 14.59375 41.75 20.953125 
Q 41.75 27 37.796875 30.921875 
Q 33.84375 34.859375 27.734375 34.859375 
Q 25.25 34.859375 21.53125 33.890625 
L 22.515625 41.609375 
Q 23.390625 41.5 23.921875 41.5 
Q 29.546875 41.5 34.03125 44.421875 
Q 38.53125 47.359375 38.53125 53.46875 
Q 38.53125 58.296875 35.25 61.46875 
Q 31.984375 64.65625 26.8125 64.65625 
Q 21.6875 64.65625 18.265625 61.421875 
Q 14.84375 58.203125 13.875 51.765625 
L 5.078125 53.328125 
Q 6.6875 62.15625 12.390625 67.015625 
Q 18.109375 71.875 26.609375 71.875 
Q 32.46875 71.875 37.390625 69.359375 
Q 42.328125 66.84375 44.9375 62.5 
Q 47.5625 58.15625 47.5625 53.265625 
Q 47.5625 48.640625 45.0625 44.828125 
Q 42.578125 41.015625 37.703125 38.765625 
Q 44.046875 37.3125 47.5625 32.6875 
Q 51.078125 28.078125 51.078125 21.140625 
Q 51.078125 11.765625 44.234375 5.25 
Q 37.40625 -1.265625 26.953125 -1.265625 
Q 17.53125 -1.265625 11.296875 4.34375 
Q 5.078125 9.96875 4.203125 18.890625 
z
" id="ArialMT-33"/>
      </defs>
      <g style="fill:#262626;" transform="translate(58.197658 417.197813)scale(0.1 -0.1)">
       <use xlink:href="#ArialMT-2212"/>
       <use x="58.398438" xlink:href="#ArialMT-33"/>
      </g>
     </g>
    </g>
    <g id="xtick_2">
     <g id="line2d_2"/>
     <g id="text_2">
      <!-- −2 -->
      <defs>
       <path d="M 50.34375 8.453125 
L 50.34375 0 
L 3.03125 0 
Q 2.9375 3.171875 4.046875 6.109375 
Q 5.859375 10.9375 9.828125 15.625 
Q 13.8125 20.3125 21.34375 26.46875 
Q 33.015625 36.03125 37.109375 41.625 
Q 41.21875 47.21875 41.21875 52.203125 
Q 41.21875 57.421875 37.46875 61 
Q 33.734375 64.59375 27.734375 64.59375 
Q 21.390625 64.59375 17.578125 60.78125 
Q 13.765625 56.984375 13.71875 50.25 
L 4.6875 51.171875 
Q 5.609375 61.28125 11.65625 66.578125 
Q 17.71875 71.875 27.9375 71.875 
Q 38.234375 71.875 44.234375 66.15625 
Q 50.25 60.453125 50.25 52 
Q 50.25 47.703125 48.484375 43.546875 
Q 46.734375 39.40625 42.65625 34.8125 
Q 38.578125 30.21875 29.109375 22.21875 
Q 21.1875 15.578125 18.9375 13.203125 
Q 16.703125 10.84375 15.234375 8.453125 
z
" id="ArialMT-32"/>
      </defs>
      <g style="fill:#262626;" transform="translate(96.650318 417.197813)scale(0.1 -0.1)">
       <use xlink:href="#ArialMT-2212"/>
       <use x="58.398438" xlink:href="#ArialMT-32"/>
      </g>
     </g>
    </g>
    <g id="xtick_3">
     <g id="line2d_3"/>
     <g id="text_3">
      <!-- −1 -->
      <defs>
       <path d="M 37.25 0 
L 28.46875 0 
L 28.46875 56 
Q 25.296875 52.984375 20.140625 49.953125 
Q 14.984375 46.921875 10.890625 45.40625 
L 10.890625 53.90625 
Q 18.265625 57.375 23.78125 62.296875 
Q 29.296875 67.234375 31.59375 71.875 
L 37.25 71.875 
z
" id="ArialMT-31"/>
      </defs>
      <g style="fill:#262626;" transform="translate(135.102978 417.197813)scale(0.1 -0.1)">
       <use xlink:href="#ArialMT-2212"/>
       <use x="58.398438" xlink:href="#ArialMT-31"/>
      </g>
     </g>
    </g>
    <g id="xtick_4">
     <g id="line2d_4"/>
     <g id="text_4">
      <!-- 0 -->
      <defs>
       <path d="M 4.15625 35.296875 
Q 4.15625 48 6.765625 55.734375 
Q 9.375 63.484375 14.515625 67.671875 
Q 19.671875 71.875 27.484375 71.875 
Q 33.25 71.875 37.59375 69.546875 
Q 41.9375 67.234375 44.765625 62.859375 
Q 47.609375 58.5 49.21875 52.21875 
Q 50.828125 45.953125 50.828125 35.296875 
Q 50.828125 22.703125 48.234375 14.96875 
Q 45.65625 7.234375 40.5 3 
Q 35.359375 -1.21875 27.484375 -1.21875 
Q 17.140625 -1.21875 11.234375 6.203125 
Q 4.15625 15.140625 4.15625 35.296875 
z
M 13.1875 35.296875 
Q 13.1875 17.671875 17.3125 11.828125 
Q 21.4375 6 27.484375 6 
Q 33.546875 6 37.671875 11.859375 
Q 41.796875 17.71875 41.796875 35.296875 
Q 41.796875 52.984375 37.671875 58.78125 
Q 33.546875 64.59375 27.390625 64.59375 
Q 21.34375 64.59375 17.71875 59.46875 
Q 13.1875 52.9375 13.1875 35.296875 
z
" id="ArialMT-30"/>
      </defs>
      <g style="fill:#262626;" transform="translate(176.47595 417.197813)scale(0.1 -0.1)">
       <use xlink:href="#ArialMT-30"/>
      </g>
     </g>
    </g>
    <g id="xtick_5">
     <g id="line2d_5"/>
     <g id="text_5">
      <!-- 1 -->
      <g style="fill:#262626;" transform="translate(214.92861 417.197813)scale(0.1 -0.1)">
       <use xlink:href="#ArialMT-31"/>
      </g>
     </g>
    </g>
    <g id="xtick_6">
     <g id="line2d_6"/>
     <g id="text_6">
      <!-- 2 -->
      <g style="fill:#262626;" transform="translate(253.38127 417.197813)scale(0.1 -0.1)">
       <use xlink:href="#ArialMT-32"/>
      </g>
     </g>
    </g>
    <g id="xtick_7">
     <g id="line2d_7"/>
     <g id="text_7">
      <!-- 3 -->
      <g style="fill:#262626;" transform="translate(291.83393 417.197813)scale(0.1 -0.1)">
       <use xlink:href="#ArialMT-33"/>
      </g>
     </g>
    </g>
    <g id="xtick_8">
     <g id="line2d_8"/>
     <g id="text_8">
      <!-- 4 -->
      <defs>
       <path d="M 32.328125 0 
L 32.328125 17.140625 
L 1.265625 17.140625 
L 1.265625 25.203125 
L 33.9375 71.578125 
L 41.109375 71.578125 
L 41.109375 25.203125 
L 50.78125 25.203125 
L 50.78125 17.140625 
L 41.109375 17.140625 
L 41.109375 0 
z
M 32.328125 25.203125 
L 32.328125 57.46875 
L 9.90625 25.203125 
z
" id="ArialMT-34"/>
      </defs>
      <g style="fill:#262626;" transform="translate(330.28659 417.197813)scale(0.1 -0.1)">
       <use xlink:href="#ArialMT-34"/>
      </g>
     </g>
    </g>
   </g>
   <g id="matplotlib.axis_2">
    <g id="ytick_1">
     <g id="line2d_9"/>
     <g id="text_9">
      <!-- −4 -->
      <g style="fill:#262626;" transform="translate(15.433438 358.9369)scale(0.1 -0.1)">
       <use xlink:href="#ArialMT-2212"/>
       <use x="58.398438" xlink:href="#ArialMT-34"/>
      </g>
     </g>
    </g>
    <g id="ytick_2">
     <g id="line2d_10"/>
     <g id="text_10">
      <!-- −2 -->
      <g style="fill:#262626;" transform="translate(15.433438 301.133736)scale(0.1 -0.1)">
       <use xlink:href="#ArialMT-2212"/>
       <use x="58.398438" xlink:href="#ArialMT-32"/>
      </g>
     </g>
    </g>
    <g id="ytick_3">
     <g id="line2d_11"/>
     <g id="text_11">
      <!-- 0 -->
      <g style="fill:#262626;" transform="translate(21.274062 243.330573)scale(0.1 -0.1)">
       <use xlink:href="#ArialMT-30"/>
      </g>
     </g>
    </g>
    <g id="ytick_4">
     <g id="line2d_12"/>
     <g id="text_12">
      <!-- 2 -->
      <g style="fill:#262626;" transform="translate(21.274062 185.527409)scale(0.1 -0.1)">
       <use xlink:href="#ArialMT-32"/>
      </g>
     </g>
    </g>
    <g id="ytick_5">
     <g id="line2d_13"/>
     <g id="text_13">
      <!-- 4 -->
      <g style="fill:#262626;" transform="translate(21.274062 127.724245)scale(0.1 -0.1)">
       <use xlink:href="#ArialMT-34"/>
      </g>
     </g>
    </g>
   </g>
   <g id="PathCollection_1">
    <path clip-path="url(#pa4d7da7f7a)" d="M 37.058938 403.04 
L 40.282876 403.04 
L 43.506814 403.04 
L 46.730752 403.04 
L 49.95469 403.04 
L 53.178628 403.04 
L 56.402566 403.04 
L 59.626504 403.04 
L 62.850442 403.04 
L 66.07438 403.04 
L 69.298317 403.04 
L 72.522255 403.04 
L 75.746193 403.04 
L 78.970131 403.04 
L 82.194069 403.04 
L 85.418007 403.04 
L 88.641945 403.04 
L 91.865883 403.04 
L 95.089821 403.04 
L 98.313759 403.04 
L 101.537697 403.04 
L 104.761635 403.04 
L 107.985573 403.04 
L 111.209511 403.04 
L 114.433449 403.04 
L 117.657387 403.04 
L 120.881325 403.04 
L 124.105263 403.04 
L 127.329201 403.04 
L 130.553139 403.04 
L 133.777076 403.04 
L 137.001014 403.04 
L 140.224952 403.04 
L 143.44889 403.04 
L 146.672828 403.04 
L 149.896766 403.04 
L 153.120704 403.04 
L 156.344642 403.04 
L 159.56858 403.04 
L 162.792518 403.04 
L 166.016456 403.04 
L 169.240394 403.04 
L 172.464332 403.04 
L 175.68827 403.04 
L 178.912208 403.04 
L 182.136146 403.04 
L 185.360084 403.04 
L 188.584022 403.04 
L 191.80796 403.04 
L 195.031898 403.04 
L 198.255835 403.04 
L 201.479773 403.04 
L 204.703711 403.04 
L 207.927649 403.04 
L 211.151587 403.04 
L 214.375525 403.04 
L 217.599463 403.04 
L 220.823401 403.04 
L 224.047339 403.04 
L 227.271277 403.04 
L 230.495215 403.04 
L 233.719153 403.04 
L 236.943091 403.04 
L 240.167029 403.04 
L 243.390967 403.04 
L 246.614905 403.04 
L 249.838843 403.04 
L 253.062781 403.04 
L 256.286719 403.04 
L 259.510657 403.04 
L 262.734595 403.04 
L 265.958532 403.04 
L 269.18247 403.04 
L 272.406408 403.04 
L 275.630346 403.04 
L 278.854284 403.04 
L 282.078222 403.04 
L 285.30216 403.04 
L 288.526098 403.04 
L 291.750036 403.04 
L 294.973974 403.04 
L 298.197912 403.04 
L 301.42185 403.04 
L 304.645788 403.04 
L 307.869726 403.04 
L 311.093664 403.04 
L 314.317602 403.04 
L 317.54154 403.04 
L 320.765478 403.04 
L 323.989416 403.04 
L 327.213354 403.04 
L 330.437291 403.04 
L 333.661229 403.04 
L 336.885167 403.04 
L 340.109105 403.04 
L 343.333043 403.04 
L 346.556981 403.04 
L 349.780919 403.04 
L 353.004857 403.04 
L 353.004857 399.775261 
L 353.004857 396.510522 
L 353.004857 393.245784 
L 353.004857 389.981045 
L 353.004857 386.716306 
L 353.004857 383.451567 
L 353.004857 380.186828 
L 353.004857 376.922089 
L 353.004857 373.657351 
L 353.004857 370.392612 
L 353.004857 367.127873 
L 353.004857 363.863134 
L 353.004857 360.598395 
L 353.004857 357.333657 
L 353.004857 354.068918 
L 353.004857 350.804179 
L 353.004857 347.53944 
L 353.004857 344.274701 
L 353.004857 341.009962 
L 353.004857 337.745224 
L 353.004857 334.480485 
L 353.004857 331.215746 
L 353.004857 327.951007 
L 353.004857 324.686268 
L 353.004857 321.42153 
L 353.004857 318.156791 
L 353.004857 314.892052 
L 353.004857 311.627313 
L 353.004857 308.362574 
L 353.004857 305.097835 
L 353.004857 301.833097 
L 353.004857 298.568358 
L 353.004857 295.303619 
L 353.004857 292.03888 
L 353.004857 288.774141 
L 353.004857 285.509403 
L 353.004857 282.244664 
L 353.004857 278.979925 
L 353.004857 275.715186 
L 353.004857 272.450447 
L 353.004857 269.185709 
L 353.004857 265.92097 
L 353.004857 262.656231 
L 353.004857 259.391492 
L 353.004857 256.126753 
L 353.004857 252.862014 
L 353.004857 249.597276 
L 353.004857 246.332537 
L 353.004857 243.067798 
L 353.004857 239.803059 
L 353.004857 236.53832 
L 353.004857 233.273582 
L 353.004857 230.008843 
L 353.004857 226.744104 
L 353.004857 223.479365 
L 353.004857 220.214626 
L 353.004857 216.949887 
L 353.004857 213.685149 
L 353.004857 210.42041 
L 353.004857 207.155671 
L 353.004857 203.890932 
L 353.004857 200.626193 
L 353.004857 197.361455 
L 353.004857 194.096716 
L 353.004857 190.831977 
L 353.004857 187.567238 
L 353.004857 184.302499 
L 353.004857 181.03776 
L 353.004857 177.773022 
L 353.004857 174.508283 
L 353.004857 171.243544 
L 353.004857 167.978805 
L 353.004857 164.714066 
L 353.004857 161.449328 
L 353.004857 158.184589 
L 353.004857 154.91985 
L 353.004857 151.655111 
L 353.004857 148.390372 
L 353.004857 145.125633 
L 353.004857 141.860895 
L 353.004857 138.596156 
L 353.004857 135.331417 
L 353.004857 132.066678 
L 353.004857 128.801939 
L 353.004857 125.537201 
L 353.004857 122.272462 
L 353.004857 119.007723 
L 353.004857 115.742984 
L 353.004857 112.478245 
L 353.004857 109.213506 
L 353.004857 105.948768 
L 353.004857 102.684029 
L 353.004857 99.41929 
L 353.004857 96.154551 
L 353.004857 92.889812 
L 353.004857 89.625074 
L 353.004857 86.360335 
L 353.004857 83.095596 
L 353.004857 79.830857 
L 349.780919 79.830857 
L 346.556981 79.830857 
L 343.333043 79.830857 
L 340.109105 79.830857 
L 336.885167 79.830857 
L 333.661229 79.830857 
L 330.437291 79.830857 
L 327.213354 79.830857 
L 323.989416 79.830857 
L 320.765478 79.830857 
L 317.54154 79.830857 
L 314.317602 79.830857 
L 311.093664 79.830857 
L 307.869726 79.830857 
L 304.645788 79.830857 
L 301.42185 79.830857 
L 298.197912 79.830857 
L 294.973974 79.830857 
L 291.750036 79.830857 
L 288.526098 79.830857 
L 285.30216 79.830857 
L 282.078222 79.830857 
L 278.854284 79.830857 
L 275.630346 79.830857 
L 272.406408 79.830857 
L 269.18247 79.830857 
L 265.958532 79.830857 
L 262.734595 79.830857 
L 259.510657 79.830857 
L 256.286719 79.830857 
L 253.062781 79.830857 
L 249.838843 79.830857 
L 246.614905 79.830857 
L 243.390967 79.830857 
L 240.167029 79.830857 
L 236.943091 79.830857 
L 233.719153 79.830857 
L 230.495215 79.830857 
L 227.271277 79.830857 
L 224.047339 79.830857 
L 220.823401 79.830857 
L 217.599463 79.830857 
L 214.375525 79.830857 
L 211.151587 79.830857 
L 207.927649 79.830857 
L 204.703711 79.830857 
L 201.479773 79.830857 
L 198.255835 79.830857 
L 195.031898 79.830857 
L 191.80796 79.830857 
L 188.584022 79.830857 
L 185.360084 79.830857 
L 182.136146 79.830857 
L 178.912208 79.830857 
L 175.68827 79.830857 
L 172.464332 79.830857 
L 169.240394 79.830857 
L 166.016456 79.830857 
L 162.792518 79.830857 
L 159.56858 79.830857 
L 156.344642 79.830857 
L 153.120704 79.830857 
L 149.896766 79.830857 
L 146.672828 79.830857 
L 143.44889 79.830857 
L 140.224952 79.830857 
L 137.001014 79.830857 
L 133.777076 79.830857 
L 130.553139 79.830857 
L 127.329201 79.830857 
L 124.105263 79.830857 
L 120.881325 79.830857 
L 117.657387 79.830857 
L 114.433449 79.830857 
L 111.209511 79.830857 
L 107.985573 79.830857 
L 104.761635 79.830857 
L 101.537697 79.830857 
L 98.313759 79.830857 
L 95.089821 79.830857 
L 91.865883 79.830857 
L 88.641945 79.830857 
L 85.418007 79.830857 
L 82.194069 79.830857 
L 78.970131 79.830857 
L 75.746193 79.830857 
L 72.522255 79.830857 
L 69.298317 79.830857 
L 66.07438 79.830857 
L 62.850442 79.830857 
L 59.626504 79.830857 
L 56.402566 79.830857 
L 53.178628 79.830857 
L 49.95469 79.830857 
L 46.730752 79.830857 
L 43.506814 79.830857 
L 40.282876 79.830857 
L 37.058938 79.830857 
L 33.835 79.830857 
L 33.835 83.095596 
L 33.835 86.360335 
L 33.835 89.625074 
L 33.835 92.889812 
L 33.835 96.154551 
L 33.835 99.41929 
L 33.835 102.684029 
L 33.835 105.948768 
L 33.835 109.213506 
L 33.835 112.478245 
L 33.835 115.742984 
L 33.835 119.007723 
L 33.835 122.272462 
L 33.835 125.537201 
L 33.835 128.801939 
L 33.835 132.066678 
L 33.835 135.331417 
L 33.835 138.596156 
L 33.835 141.860895 
L 33.835 145.125633 
L 33.835 148.390372 
L 33.835 151.655111 
L 33.835 154.91985 
L 33.835 158.184589 
L 33.835 161.449328 
L 33.835 164.714066 
L 33.835 167.978805 
L 33.835 171.243544 
L 33.835 174.508283 
L 33.835 177.773022 
L 33.835 181.03776 
L 33.835 184.302499 
L 33.835 187.567238 
L 33.835 190.831977 
L 33.835 194.096716 
L 33.835 197.361455 
L 33.835 200.626193 
L 33.835 203.890932 
L 33.835 207.155671 
L 33.835 210.42041 
L 33.835 213.685149 
L 33.835 216.949887 
L 33.835 220.214626 
L 33.835 223.479365 
L 33.835 226.744104 
L 33.835 230.008843 
L 33.835 233.273582 
L 33.835 236.53832 
L 33.835 239.803059 
L 33.835 243.067798 
L 33.835 246.332537 
L 33.835 249.597276 
L 33.835 252.862014 
L 33.835 256.126753 
L 33.835 259.391492 
L 33.835 262.656231 
L 33.835 265.92097 
L 33.835 269.185709 
L 33.835 272.450447 
L 33.835 275.715186 
L 33.835 278.979925 
L 33.835 282.244664 
L 33.835 285.509403 
L 33.835 288.774141 
L 33.835 292.03888 
L 33.835 295.303619 
L 33.835 298.568358 
L 33.835 301.833097 
L 33.835 305.097835 
L 33.835 308.362574 
L 33.835 311.627313 
L 33.835 314.892052 
L 33.835 318.156791 
L 33.835 321.42153 
L 33.835 324.686268 
L 33.835 327.951007 
L 33.835 331.215746 
L 33.835 334.480485 
L 33.835 337.745224 
L 33.835 341.009962 
L 33.835 344.274701 
L 33.835 347.53944 
L 33.835 350.804179 
L 33.835 354.068918 
L 33.835 357.333657 
L 33.835 360.598395 
L 33.835 363.863134 
L 33.835 367.127873 
L 33.835 370.392612 
L 33.835 373.657351 
L 33.835 376.922089 
L 33.835 380.186828 
L 33.835 383.451567 
L 33.835 386.716306 
L 33.835 389.981045 
L 33.835 393.245784 
L 33.835 396.510522 
L 33.835 399.775261 
L 33.835 403.04 
z
M 103.691297 324.686268 
L 101.537697 323.303544 
L 99.332533 321.42153 
L 98.313759 320.355758 
L 96.50579 318.156791 
L 95.089821 315.576642 
L 94.719797 314.892052 
L 93.732782 311.627313 
L 93.47889 308.362574 
L 93.773463 305.097835 
L 94.456841 301.833097 
L 95.089821 299.566685 
L 95.307223 298.568358 
L 96.027683 295.303619 
L 96.654981 292.03888 
L 97.126975 288.774141 
L 97.421647 285.509403 
L 97.567233 282.244664 
L 97.646502 278.979925 
L 97.781507 275.715186 
L 98.093293 272.450447 
L 98.313759 271.174089 
L 98.62925 269.185709 
L 99.377936 265.92097 
L 100.330274 262.656231 
L 101.504013 259.391492 
L 101.537697 259.313535 
L 102.908495 256.126753 
L 104.761635 252.940774 
L 104.813277 252.862014 
L 107.583539 249.597276 
L 107.985573 249.211882 
L 111.209511 246.652136 
L 111.652122 246.332537 
L 114.433449 244.377347 
L 116.132472 243.067798 
L 117.657387 241.840092 
L 119.78656 239.803059 
L 120.881325 238.733559 
L 122.887506 236.53832 
L 124.105263 235.233753 
L 125.832156 233.273582 
L 127.329201 231.543964 
L 128.546621 230.008843 
L 130.553139 227.136413 
L 130.78879 226.744104 
L 132.315715 223.479365 
L 133.618659 220.214626 
L 133.777076 219.785573 
L 134.758244 216.949887 
L 136.258705 213.685149 
L 137.001014 212.492671 
L 138.470954 210.42041 
L 140.224952 208.612995 
L 141.929467 207.155671 
L 143.44889 206.02339 
L 146.670297 203.890932 
L 146.672828 203.889247 
L 149.896766 201.602608 
L 151.22408 200.626193 
L 153.120704 199.112409 
L 155.221996 197.361455 
L 156.344642 196.369315 
L 158.899819 194.096716 
L 159.56858 193.485143 
L 162.554028 190.831977 
L 162.792518 190.614231 
L 166.016456 187.767854 
L 166.251184 187.567238 
L 169.240394 184.907122 
L 169.958434 184.302499 
L 172.464332 182.061896 
L 173.677537 181.03776 
L 175.68827 179.246399 
L 177.42508 177.773022 
L 178.912208 176.475516 
L 181.225842 174.508283 
L 182.136146 173.730615 
L 185.05203 171.243544 
L 185.360084 170.981797 
L 188.584022 168.211967 
L 188.862508 167.978805 
L 191.80796 165.508706 
L 192.86948 164.714066 
L 195.031898 163.039821 
L 197.52935 161.449328 
L 198.255835 160.944609 
L 201.479773 159.096276 
L 203.59117 158.184589 
L 204.703711 157.629831 
L 207.927649 156.387377 
L 211.151587 155.507224 
L 214.184311 154.91985 
L 214.375525 154.876362 
L 217.599463 154.358192 
L 220.823401 154.086595 
L 224.047339 154.052158 
L 227.271277 154.249791 
L 230.495215 154.657056 
L 232.260963 154.91985 
L 233.719153 155.131645 
L 236.943091 155.492803 
L 240.167029 155.589938 
L 243.390967 155.260379 
L 246.507832 154.91985 
L 246.614905 154.900343 
L 246.701371 154.91985 
L 249.838843 155.406401 
L 253.062781 156.727273 
L 255.765532 158.184589 
L 256.286719 158.447335 
L 259.510657 160.906548 
L 260.013487 161.449328 
L 262.000484 164.714066 
L 262.654742 167.978805 
L 262.160715 171.243544 
L 260.985529 174.508283 
L 259.727144 177.773022 
L 259.510657 178.548781 
L 258.905862 181.03776 
L 258.773452 184.302499 
L 259.197925 187.567238 
L 259.510657 188.870143 
L 259.944081 190.831977 
L 260.745587 194.096716 
L 261.374544 197.361455 
L 261.707379 200.626193 
L 261.684069 203.890932 
L 261.283748 207.155671 
L 260.51307 210.42041 
L 259.510657 213.386665 
L 259.420478 213.685149 
L 258.277296 216.949887 
L 256.977061 220.214626 
L 256.286719 221.829548 
L 255.650356 223.479365 
L 254.272938 226.744104 
L 253.062781 229.21619 
L 252.68687 230.008843 
L 250.928617 233.273582 
L 249.838843 234.990768 
L 248.807481 236.53832 
L 246.614905 239.428078 
L 246.311035 239.803059 
L 243.601192 243.067798 
L 243.390967 243.324175 
L 240.988881 246.332537 
L 240.167029 247.401845 
L 238.585838 249.597276 
L 236.943091 251.84123 
L 236.225123 252.862014 
L 233.719153 256.013821 
L 233.627953 256.126753 
L 230.530489 259.391492 
L 230.495215 259.424684 
L 227.271277 262.321442 
L 226.899373 262.656231 
L 224.047339 265.14438 
L 223.231484 265.92097 
L 220.823401 268.263477 
L 220.002691 269.185709 
L 217.599463 271.914043 
L 217.186074 272.450447 
L 214.569112 275.715186 
L 214.375525 275.94254 
L 211.958465 278.979925 
L 211.151587 279.891211 
L 209.097107 282.244664 
L 207.927649 283.480451 
L 205.992165 285.509403 
L 204.703711 286.797438 
L 202.703466 288.774141 
L 201.479773 289.943524 
L 199.22177 292.03888 
L 198.255835 292.907617 
L 195.390039 295.303619 
L 195.031898 295.600095 
L 191.80796 298.076352 
L 191.091285 298.568358 
L 188.584022 300.411179 
L 186.426191 301.833097 
L 185.360084 302.633746 
L 182.136146 304.894494 
L 181.825924 305.097835 
L 178.912208 307.279191 
L 177.160336 308.362574 
L 175.68827 309.367598 
L 172.464332 311.009143 
L 170.732019 311.627313 
L 169.240394 312.238825 
L 166.016456 313.285424 
L 162.792518 314.396363 
L 161.733116 314.892052 
L 159.56858 316.145384 
L 156.874671 318.156791 
L 156.344642 318.587179 
L 153.120704 321.204378 
L 152.790715 321.42153 
L 149.896766 323.223058 
L 146.672828 324.36321 
L 143.665865 324.686268 
L 143.44889 324.712446 
L 143.207327 324.686268 
L 140.224952 324.374016 
L 137.001014 323.492621 
L 133.777076 322.330675 
L 130.553139 321.421815 
L 127.329201 321.471402 
L 124.105263 322.73066 
L 120.881325 324.584447 
L 120.697289 324.686268 
L 117.657387 326.359201 
L 114.433449 327.243939 
L 111.209511 327.295473 
L 107.985573 326.641924 
L 104.761635 325.32919 
z
" style="fill:#f0f3f8;"/>
   </g>
   <g id="PathCollection_2">
    <path clip-path="url(#pa4d7da7f7a)" d="M 104.761635 325.32919 
L 107.985573 326.641924 
L 111.209511 327.295473 
L 114.433449 327.243939 
L 117.657387 326.359201 
L 120.697289 324.686268 
L 120.881325 324.584447 
L 124.105263 322.73066 
L 127.329201 321.471402 
L 130.553139 321.421815 
L 133.777076 322.330675 
L 137.001014 323.492621 
L 140.224952 324.374016 
L 143.207327 324.686268 
L 143.44889 324.712446 
L 143.665865 324.686268 
L 146.672828 324.36321 
L 149.896766 323.223058 
L 152.790715 321.42153 
L 153.120704 321.204378 
L 156.344642 318.587179 
L 156.874671 318.156791 
L 159.56858 316.145384 
L 161.733116 314.892052 
L 162.792518 314.396363 
L 166.016456 313.285424 
L 169.240394 312.238825 
L 170.732019 311.627313 
L 172.464332 311.009143 
L 175.68827 309.367598 
L 177.160336 308.362574 
L 178.912208 307.279191 
L 181.825924 305.097835 
L 182.136146 304.894494 
L 185.360084 302.633746 
L 186.426191 301.833097 
L 188.584022 300.411179 
L 191.091285 298.568358 
L 191.80796 298.076352 
L 195.031898 295.600095 
L 195.390039 295.303619 
L 198.255835 292.907617 
L 199.22177 292.03888 
L 201.479773 289.943524 
L 202.703466 288.774141 
L 204.703711 286.797438 
L 205.992165 285.509403 
L 207.927649 283.480451 
L 209.097107 282.244664 
L 211.151587 279.891211 
L 211.958465 278.979925 
L 214.375525 275.94254 
L 214.569112 275.715186 
L 217.186074 272.450447 
L 217.599463 271.914043 
L 220.002691 269.185709 
L 220.823401 268.263477 
L 223.231484 265.92097 
L 224.047339 265.14438 
L 226.899373 262.656231 
L 227.271277 262.321442 
L 230.495215 259.424684 
L 230.530489 259.391492 
L 233.627953 256.126753 
L 233.719153 256.013821 
L 236.225123 252.862014 
L 236.943091 251.84123 
L 238.585838 249.597276 
L 240.167029 247.401845 
L 240.988881 246.332537 
L 243.390967 243.324175 
L 243.601192 243.067798 
L 246.311035 239.803059 
L 246.614905 239.428078 
L 248.807481 236.53832 
L 249.838843 234.990768 
L 250.928617 233.273582 
L 252.68687 230.008843 
L 253.062781 229.21619 
L 254.272938 226.744104 
L 255.650356 223.479365 
L 256.286719 221.829548 
L 256.977061 220.214626 
L 258.277296 216.949887 
L 259.420478 213.685149 
L 259.510657 213.386665 
L 260.51307 210.42041 
L 261.283748 207.155671 
L 261.684069 203.890932 
L 261.707379 200.626193 
L 261.374544 197.361455 
L 260.745587 194.096716 
L 259.944081 190.831977 
L 259.510657 188.870143 
L 259.197925 187.567238 
L 258.773452 184.302499 
L 258.905862 181.03776 
L 259.510657 178.548781 
L 259.727144 177.773022 
L 260.985529 174.508283 
L 262.160715 171.243544 
L 262.654742 167.978805 
L 262.000484 164.714066 
L 260.013487 161.449328 
L 259.510657 160.906548 
L 256.286719 158.447335 
L 255.765532 158.184589 
L 253.062781 156.727273 
L 249.838843 155.406401 
L 246.701371 154.91985 
L 246.614905 154.900343 
L 246.507832 154.91985 
L 243.390967 155.260379 
L 240.167029 155.589938 
L 236.943091 155.492803 
L 233.719153 155.131645 
L 232.260963 154.91985 
L 230.495215 154.657056 
L 227.271277 154.249791 
L 224.047339 154.052158 
L 220.823401 154.086595 
L 217.599463 154.358192 
L 214.375525 154.876362 
L 214.184311 154.91985 
L 211.151587 155.507224 
L 207.927649 156.387377 
L 204.703711 157.629831 
L 203.59117 158.184589 
L 201.479773 159.096276 
L 198.255835 160.944609 
L 197.52935 161.449328 
L 195.031898 163.039821 
L 192.86948 164.714066 
L 191.80796 165.508706 
L 188.862508 167.978805 
L 188.584022 168.211967 
L 185.360084 170.981797 
L 185.05203 171.243544 
L 182.136146 173.730615 
L 181.225842 174.508283 
L 178.912208 176.475516 
L 177.42508 177.773022 
L 175.68827 179.246399 
L 173.677537 181.03776 
L 172.464332 182.061896 
L 169.958434 184.302499 
L 169.240394 184.907122 
L 166.251184 187.567238 
L 166.016456 187.767854 
L 162.792518 190.614231 
L 162.554028 190.831977 
L 159.56858 193.485143 
L 158.899819 194.096716 
L 156.344642 196.369315 
L 155.221996 197.361455 
L 153.120704 199.112409 
L 151.22408 200.626193 
L 149.896766 201.602608 
L 146.672828 203.889247 
L 146.670297 203.890932 
L 143.44889 206.02339 
L 141.929467 207.155671 
L 140.224952 208.612995 
L 138.470954 210.42041 
L 137.001014 212.492671 
L 136.258705 213.685149 
L 134.758244 216.949887 
L 133.777076 219.785573 
L 133.618659 220.214626 
L 132.315715 223.479365 
L 130.78879 226.744104 
L 130.553139 227.136413 
L 128.546621 230.008843 
L 127.329201 231.543964 
L 125.832156 233.273582 
L 124.105263 235.233753 
L 122.887506 236.53832 
L 120.881325 238.733559 
L 119.78656 239.803059 
L 117.657387 241.840092 
L 116.132472 243.067798 
L 114.433449 244.377347 
L 111.652122 246.332537 
L 111.209511 246.652136 
L 107.985573 249.211882 
L 107.583539 249.597276 
L 104.813277 252.862014 
L 104.761635 252.940774 
L 102.908495 256.126753 
L 101.537697 259.313535 
L 101.504013 259.391492 
L 100.330274 262.656231 
L 99.377936 265.92097 
L 98.62925 269.185709 
L 98.313759 271.174089 
L 98.093293 272.450447 
L 97.781507 275.715186 
L 97.646502 278.979925 
L 97.567233 282.244664 
L 97.421647 285.509403 
L 97.126975 288.774141 
L 96.654981 292.03888 
L 96.027683 295.303619 
L 95.307223 298.568358 
L 95.089821 299.566685 
L 94.456841 301.833097 
L 93.773463 305.097835 
L 93.47889 308.362574 
L 93.732782 311.627313 
L 94.719797 314.892052 
L 95.089821 315.576642 
L 96.50579 318.156791 
L 98.313759 320.355758 
L 99.332533 321.42153 
L 101.537697 323.303544 
L 103.691297 324.686268 
z
M 108.557633 308.362574 
L 107.985573 307.814379 
L 106.602047 305.097835 
L 105.903613 301.833097 
L 105.755144 298.568358 
L 105.907749 295.303619 
L 106.255323 292.03888 
L 106.76206 288.774141 
L 107.413801 285.509403 
L 107.985573 283.017027 
L 108.173875 282.244664 
L 108.933001 278.979925 
L 109.589929 275.715186 
L 110.105142 272.450447 
L 110.56558 269.185709 
L 111.160825 265.92097 
L 111.209511 265.750908 
L 112.106129 262.656231 
L 113.724007 259.391492 
L 114.433449 258.425268 
L 116.224455 256.126753 
L 117.657387 254.710525 
L 119.385691 252.862014 
L 120.881325 251.405642 
L 122.391223 249.597276 
L 124.105263 247.598908 
L 124.997658 246.332537 
L 127.329201 243.275861 
L 127.471272 243.067798 
L 129.974029 239.803059 
L 130.553139 239.118066 
L 132.634029 236.53832 
L 133.777076 235.145799 
L 135.191465 233.273582 
L 137.001014 230.626916 
L 137.381049 230.008843 
L 139.064053 226.744104 
L 140.224952 224.269921 
L 140.583837 223.479365 
L 142.136253 220.214626 
L 143.44889 218.041193 
L 144.183098 216.949887 
L 146.672828 214.107309 
L 147.098814 213.685149 
L 149.896766 211.297386 
L 151.016032 210.42041 
L 153.120704 208.824521 
L 155.30835 207.155671 
L 156.344642 206.334194 
L 159.267624 203.890932 
L 159.56858 203.627008 
L 162.792518 200.663036 
L 162.83094 200.626193 
L 166.016456 197.589115 
L 166.257114 197.361455 
L 169.240394 194.606252 
L 169.817365 194.096716 
L 172.464332 191.784721 
L 173.628157 190.831977 
L 175.68827 189.107172 
L 177.640118 187.567238 
L 178.912208 186.509456 
L 181.656262 184.302499 
L 182.136146 183.892597 
L 185.360084 181.14087 
L 185.478199 181.03776 
L 188.584022 178.223743 
L 189.082126 177.773022 
L 191.80796 175.293101 
L 192.714802 174.508283 
L 195.031898 172.539699 
L 196.75998 171.243544 
L 198.255835 170.142538 
L 201.479773 168.189196 
L 201.904499 167.978805 
L 204.703711 166.566953 
L 207.927649 165.303883 
L 209.81276 164.714066 
L 211.151587 164.269233 
L 214.375525 163.460715 
L 217.599463 162.952955 
L 220.823401 162.821311 
L 224.047339 163.173548 
L 227.271277 164.123739 
L 228.51468 164.714066 
L 230.495215 165.822099 
L 233.287715 167.978805 
L 233.719153 168.42537 
L 236.160587 171.243544 
L 236.943091 172.58098 
L 238.118837 174.508283 
L 239.523741 177.773022 
L 240.167029 179.50073 
L 240.827844 181.03776 
L 242.388804 184.302499 
L 243.390967 185.997103 
L 244.405507 187.567238 
L 246.614905 190.56025 
L 246.807432 190.831977 
L 249.124527 194.096716 
L 249.838843 195.309697 
L 250.881643 197.361455 
L 251.951109 200.626193 
L 252.365804 203.890932 
L 252.223407 207.155671 
L 251.656033 210.42041 
L 250.778033 213.685149 
L 249.838843 216.415799 
L 249.664385 216.949887 
L 248.399459 220.214626 
L 246.882594 223.479365 
L 246.614905 223.981826 
L 245.04282 226.744104 
L 243.390967 229.177675 
L 242.745011 230.008843 
L 240.167029 233.01119 
L 239.909314 233.273582 
L 236.943091 236.315119 
L 236.719194 236.53832 
L 233.775256 239.803059 
L 233.719153 239.872686 
L 231.44737 243.067798 
L 230.495215 244.498137 
L 229.438115 246.332537 
L 227.359939 249.597276 
L 227.271277 249.717897 
L 225.109728 252.862014 
L 224.047339 254.103035 
L 222.40371 256.126753 
L 220.823401 257.794933 
L 219.407377 259.391492 
L 217.599463 261.314631 
L 216.440539 262.656231 
L 214.375525 265.069766 
L 213.702117 265.92097 
L 211.162161 269.185709 
L 211.151587 269.199507 
L 208.746699 272.450447 
L 207.927649 273.484789 
L 206.141297 275.715186 
L 204.703711 277.375682 
L 203.276778 278.979925 
L 201.479773 280.898577 
L 200.198199 282.244664 
L 198.255835 284.22318 
L 196.969419 285.509403 
L 195.031898 287.374887 
L 193.486608 288.774141 
L 191.80796 290.223324 
L 189.423655 292.03888 
L 188.584022 292.665501 
L 185.360084 294.758669 
L 184.388758 295.303619 
L 182.136146 296.663937 
L 178.912208 298.396497 
L 178.557457 298.568358 
L 175.68827 300.131498 
L 172.464332 301.593608 
L 171.762447 301.833097 
L 169.240394 302.759349 
L 166.016456 303.519634 
L 162.792518 304.015135 
L 159.56858 304.486978 
L 156.743538 305.097835 
L 156.344642 305.205454 
L 153.120704 306.486632 
L 149.896766 308.110887 
L 149.290746 308.362574 
L 146.672828 309.617015 
L 143.44889 310.178918 
L 140.224952 309.743732 
L 137.001014 308.809167 
L 135.409433 308.362574 
L 133.777076 307.984435 
L 130.553139 307.583085 
L 127.329201 307.654354 
L 124.105263 308.138271 
L 123.090467 308.362574 
L 120.881325 308.916457 
L 117.657387 309.722097 
L 114.433449 310.224939 
L 111.209511 309.940875 
z
" style="fill:#d0daea;"/>
   </g>
   <g id="PathCollection_3">
    <path clip-path="url(#pa4d7da7f7a)" d="M 111.209511 309.940875 
L 114.433449 310.224939 
L 117.657387 309.722097 
L 120.881325 308.916457 
L 123.090467 308.362574 
L 124.105263 308.138271 
L 127.329201 307.654354 
L 130.553139 307.583085 
L 133.777076 307.984435 
L 135.409433 308.362574 
L 137.001014 308.809167 
L 140.224952 309.743732 
L 143.44889 310.178918 
L 146.672828 309.617015 
L 149.290746 308.362574 
L 149.896766 308.110887 
L 153.120704 306.486632 
L 156.344642 305.205454 
L 156.743538 305.097835 
L 159.56858 304.486978 
L 162.792518 304.015135 
L 166.016456 303.519634 
L 169.240394 302.759349 
L 171.762447 301.833097 
L 172.464332 301.593608 
L 175.68827 300.131498 
L 178.557457 298.568358 
L 178.912208 298.396497 
L 182.136146 296.663937 
L 184.388758 295.303619 
L 185.360084 294.758669 
L 188.584022 292.665501 
L 189.423655 292.03888 
L 191.80796 290.223324 
L 193.486608 288.774141 
L 195.031898 287.374887 
L 196.969419 285.509403 
L 198.255835 284.22318 
L 200.198199 282.244664 
L 201.479773 280.898577 
L 203.276778 278.979925 
L 204.703711 277.375682 
L 206.141297 275.715186 
L 207.927649 273.484789 
L 208.746699 272.450447 
L 211.151587 269.199507 
L 211.162161 269.185709 
L 213.702117 265.92097 
L 214.375525 265.069766 
L 216.440539 262.656231 
L 217.599463 261.314631 
L 219.407377 259.391492 
L 220.823401 257.794933 
L 222.40371 256.126753 
L 224.047339 254.103035 
L 225.109728 252.862014 
L 227.271277 249.717897 
L 227.359939 249.597276 
L 229.438115 246.332537 
L 230.495215 244.498137 
L 231.44737 243.067798 
L 233.719153 239.872686 
L 233.775256 239.803059 
L 236.719194 236.53832 
L 236.943091 236.315119 
L 239.909314 233.273582 
L 240.167029 233.01119 
L 242.745011 230.008843 
L 243.390967 229.177675 
L 245.04282 226.744104 
L 246.614905 223.981826 
L 246.882594 223.479365 
L 248.399459 220.214626 
L 249.664385 216.949887 
L 249.838843 216.415799 
L 250.778033 213.685149 
L 251.656033 210.42041 
L 252.223407 207.155671 
L 252.365804 203.890932 
L 251.951109 200.626193 
L 250.881643 197.361455 
L 249.838843 195.309697 
L 249.124527 194.096716 
L 246.807432 190.831977 
L 246.614905 190.56025 
L 244.405507 187.567238 
L 243.390967 185.997103 
L 242.388804 184.302499 
L 240.827844 181.03776 
L 240.167029 179.50073 
L 239.523741 177.773022 
L 238.118837 174.508283 
L 236.943091 172.58098 
L 236.160587 171.243544 
L 233.719153 168.42537 
L 233.287715 167.978805 
L 230.495215 165.822099 
L 228.51468 164.714066 
L 227.271277 164.123739 
L 224.047339 163.173548 
L 220.823401 162.821311 
L 217.599463 162.952955 
L 214.375525 163.460715 
L 211.151587 164.269233 
L 209.81276 164.714066 
L 207.927649 165.303883 
L 204.703711 166.566953 
L 201.904499 167.978805 
L 201.479773 168.189196 
L 198.255835 170.142538 
L 196.75998 171.243544 
L 195.031898 172.539699 
L 192.714802 174.508283 
L 191.80796 175.293101 
L 189.082126 177.773022 
L 188.584022 178.223743 
L 185.478199 181.03776 
L 185.360084 181.14087 
L 182.136146 183.892597 
L 181.656262 184.302499 
L 178.912208 186.509456 
L 177.640118 187.567238 
L 175.68827 189.107172 
L 173.628157 190.831977 
L 172.464332 191.784721 
L 169.817365 194.096716 
L 169.240394 194.606252 
L 166.257114 197.361455 
L 166.016456 197.589115 
L 162.83094 200.626193 
L 162.792518 200.663036 
L 159.56858 203.627008 
L 159.267624 203.890932 
L 156.344642 206.334194 
L 155.30835 207.155671 
L 153.120704 208.824521 
L 151.016032 210.42041 
L 149.896766 211.297386 
L 147.098814 213.685149 
L 146.672828 214.107309 
L 144.183098 216.949887 
L 143.44889 218.041193 
L 142.136253 220.214626 
L 140.583837 223.479365 
L 140.224952 224.269921 
L 139.064053 226.744104 
L 137.381049 230.008843 
L 137.001014 230.626916 
L 135.191465 233.273582 
L 133.777076 235.145799 
L 132.634029 236.53832 
L 130.553139 239.118066 
L 129.974029 239.803059 
L 127.471272 243.067798 
L 127.329201 243.275861 
L 124.997658 246.332537 
L 124.105263 247.598908 
L 122.391223 249.597276 
L 120.881325 251.405642 
L 119.385691 252.862014 
L 117.657387 254.710525 
L 116.224455 256.126753 
L 114.433449 258.425268 
L 113.724007 259.391492 
L 112.106129 262.656231 
L 111.209511 265.750908 
L 111.160825 265.92097 
L 110.56558 269.185709 
L 110.105142 272.450447 
L 109.589929 275.715186 
L 108.933001 278.979925 
L 108.173875 282.244664 
L 107.985573 283.017027 
L 107.413801 285.509403 
L 106.76206 288.774141 
L 106.255323 292.03888 
L 105.907749 295.303619 
L 105.755144 298.568358 
L 105.903613 301.833097 
L 106.602047 305.097835 
L 107.985573 307.814379 
L 108.557633 308.362574 
z
M 133.557191 298.568358 
L 130.553139 298.361977 
L 127.329201 298.235366 
L 124.105263 298.144729 
L 120.881325 297.754915 
L 117.657387 296.11873 
L 116.993205 295.303619 
L 116.018155 292.03888 
L 116.154525 288.774141 
L 116.816204 285.509403 
L 117.657387 282.264833 
L 117.662175 282.244664 
L 118.414567 278.979925 
L 119.006058 275.715186 
L 119.522882 272.450447 
L 120.139521 269.185709 
L 120.881325 266.612559 
L 121.07807 265.92097 
L 122.472072 262.656231 
L 124.105263 259.92173 
L 124.393794 259.391492 
L 126.386869 256.126753 
L 127.329201 254.664792 
L 128.28575 252.862014 
L 130.114972 249.597276 
L 130.553139 248.896173 
L 131.999122 246.332537 
L 133.777076 243.71397 
L 134.200499 243.067798 
L 136.665324 239.803059 
L 137.001014 239.383412 
L 139.166008 236.53832 
L 140.224952 235.073669 
L 141.44247 233.273582 
L 143.406309 230.008843 
L 143.44889 229.928496 
L 145.121907 226.744104 
L 146.672828 223.941842 
L 146.947475 223.479365 
L 149.190333 220.214626 
L 149.896766 219.376978 
L 152.195157 216.949887 
L 153.120704 216.111358 
L 155.935262 213.685149 
L 156.344642 213.353579 
L 159.56858 210.636503 
L 159.806555 210.42041 
L 162.792518 207.718955 
L 163.38072 207.155671 
L 166.016456 204.61587 
L 166.757437 203.890932 
L 169.240394 201.47246 
L 170.141581 200.626193 
L 172.464332 198.47472 
L 173.766074 197.361455 
L 175.68827 195.723276 
L 177.788059 194.096716 
L 178.912208 193.202524 
L 182.116899 190.831977 
L 182.136146 190.816876 
L 185.360084 188.331416 
L 186.355192 187.567238 
L 188.584022 185.712152 
L 190.26431 184.302499 
L 191.80796 182.931483 
L 193.993492 181.03776 
L 195.031898 180.119625 
L 197.932574 177.773022 
L 198.255835 177.515028 
L 201.479773 175.325645 
L 202.98396 174.508283 
L 204.703711 173.599746 
L 207.927649 172.302076 
L 211.151587 171.322117 
L 211.542883 171.243544 
L 214.375525 170.686207 
L 217.599463 170.428305 
L 220.823401 170.711201 
L 222.499578 171.243544 
L 224.047339 171.889917 
L 227.260176 174.508283 
L 227.271277 174.521395 
L 229.29613 177.773022 
L 230.495215 180.462359 
L 230.728593 181.03776 
L 231.990089 184.302499 
L 233.384668 187.567238 
L 233.719153 188.24047 
L 235.142925 190.831977 
L 236.943091 193.663509 
L 237.254452 194.096716 
L 239.654394 197.361455 
L 240.167029 198.120035 
L 241.806045 200.626193 
L 243.273347 203.890932 
L 243.390967 204.423738 
L 243.893083 207.155671 
L 243.852006 210.42041 
L 243.390967 213.121581 
L 243.28825 213.685149 
L 242.192924 216.949887 
L 240.664105 220.214626 
L 240.167029 221.047992 
L 238.377762 223.479365 
L 236.943091 225.142746 
L 235.202004 226.744104 
L 233.719153 228.06279 
L 231.350793 230.008843 
L 230.495215 230.793221 
L 228.216657 233.273582 
L 227.271277 234.584126 
L 226.220578 236.53832 
L 224.792596 239.803059 
L 224.047339 241.554948 
L 223.526713 243.067798 
L 222.164341 246.332537 
L 220.823401 248.772465 
L 220.412981 249.597276 
L 218.268931 252.862014 
L 217.599463 253.692562 
L 215.741681 256.126753 
L 214.375525 257.722189 
L 213.01736 259.391492 
L 211.151587 261.627251 
L 210.324784 262.656231 
L 207.927649 265.682375 
L 207.739468 265.92097 
L 205.207042 269.185709 
L 204.703711 269.819432 
L 202.531978 272.450447 
L 201.479773 273.666764 
L 199.620657 275.715186 
L 198.255835 277.177118 
L 196.508836 278.979925 
L 195.031898 280.491005 
L 193.238005 282.244664 
L 191.80796 283.615295 
L 189.62925 285.509403 
L 188.584022 286.379409 
L 185.360084 288.64938 
L 185.140937 288.774141 
L 182.136146 290.468681 
L 178.912208 291.950243 
L 178.675181 292.03888 
L 175.68827 293.23832 
L 172.464332 294.342117 
L 169.240394 295.231344 
L 168.830973 295.303619 
L 166.016456 295.810093 
L 162.792518 296.088032 
L 159.56858 296.219411 
L 156.344642 296.422919 
L 153.120704 296.859639 
L 149.896766 297.520349 
L 146.672828 298.217973 
L 144.432267 298.568358 
L 143.44889 298.742942 
L 140.224952 298.949311 
L 137.001014 298.836352 
L 133.777076 298.583106 
z
" style="fill:#aebfdc;"/>
   </g>
   <g id="PathCollection_4">
    <path clip-path="url(#pa4d7da7f7a)" d="M 133.777076 298.583106 
L 137.001014 298.836352 
L 140.224952 298.949311 
L 143.44889 298.742942 
L 144.432267 298.568358 
L 146.672828 298.217973 
L 149.896766 297.520349 
L 153.120704 296.859639 
L 156.344642 296.422919 
L 159.56858 296.219411 
L 162.792518 296.088032 
L 166.016456 295.810093 
L 168.830973 295.303619 
L 169.240394 295.231344 
L 172.464332 294.342117 
L 175.68827 293.23832 
L 178.675181 292.03888 
L 178.912208 291.950243 
L 182.136146 290.468681 
L 185.140937 288.774141 
L 185.360084 288.64938 
L 188.584022 286.379409 
L 189.62925 285.509403 
L 191.80796 283.615295 
L 193.238005 282.244664 
L 195.031898 280.491005 
L 196.508836 278.979925 
L 198.255835 277.177118 
L 199.620657 275.715186 
L 201.479773 273.666764 
L 202.531978 272.450447 
L 204.703711 269.819432 
L 205.207042 269.185709 
L 207.739468 265.92097 
L 207.927649 265.682375 
L 210.324784 262.656231 
L 211.151587 261.627251 
L 213.01736 259.391492 
L 214.375525 257.722189 
L 215.741681 256.126753 
L 217.599463 253.692562 
L 218.268931 252.862014 
L 220.412981 249.597276 
L 220.823401 248.772465 
L 222.164341 246.332537 
L 223.526713 243.067798 
L 224.047339 241.554948 
L 224.792596 239.803059 
L 226.220578 236.53832 
L 227.271277 234.584126 
L 228.216657 233.273582 
L 230.495215 230.793221 
L 231.350793 230.008843 
L 233.719153 228.06279 
L 235.202004 226.744104 
L 236.943091 225.142746 
L 238.377762 223.479365 
L 240.167029 221.047992 
L 240.664105 220.214626 
L 242.192924 216.949887 
L 243.28825 213.685149 
L 243.390967 213.121581 
L 243.852006 210.42041 
L 243.893083 207.155671 
L 243.390967 204.423738 
L 243.273347 203.890932 
L 241.806045 200.626193 
L 240.167029 198.120035 
L 239.654394 197.361455 
L 237.254452 194.096716 
L 236.943091 193.663509 
L 235.142925 190.831977 
L 233.719153 188.24047 
L 233.384668 187.567238 
L 231.990089 184.302499 
L 230.728593 181.03776 
L 230.495215 180.462359 
L 229.29613 177.773022 
L 227.271277 174.521395 
L 227.260176 174.508283 
L 224.047339 171.889917 
L 222.499578 171.243544 
L 220.823401 170.711201 
L 217.599463 170.428305 
L 214.375525 170.686207 
L 211.542883 171.243544 
L 211.151587 171.322117 
L 207.927649 172.302076 
L 204.703711 173.599746 
L 202.98396 174.508283 
L 201.479773 175.325645 
L 198.255835 177.515028 
L 197.932574 177.773022 
L 195.031898 180.119625 
L 193.993492 181.03776 
L 191.80796 182.931483 
L 190.26431 184.302499 
L 188.584022 185.712152 
L 186.355192 187.567238 
L 185.360084 188.331416 
L 182.136146 190.816876 
L 182.116899 190.831977 
L 178.912208 193.202524 
L 177.788059 194.096716 
L 175.68827 195.723276 
L 173.766074 197.361455 
L 172.464332 198.47472 
L 170.141581 200.626193 
L 169.240394 201.47246 
L 166.757437 203.890932 
L 166.016456 204.61587 
L 163.38072 207.155671 
L 162.792518 207.718955 
L 159.806555 210.42041 
L 159.56858 210.636503 
L 156.344642 213.353579 
L 155.935262 213.685149 
L 153.120704 216.111358 
L 152.195157 216.949887 
L 149.896766 219.376978 
L 149.190333 220.214626 
L 146.947475 223.479365 
L 146.672828 223.941842 
L 145.121907 226.744104 
L 143.44889 229.928496 
L 143.406309 230.008843 
L 141.44247 233.273582 
L 140.224952 235.073669 
L 139.166008 236.53832 
L 137.001014 239.383412 
L 136.665324 239.803059 
L 134.200499 243.067798 
L 133.777076 243.71397 
L 131.999122 246.332537 
L 130.553139 248.896173 
L 130.114972 249.597276 
L 128.28575 252.862014 
L 127.329201 254.664792 
L 126.386869 256.126753 
L 124.393794 259.391492 
L 124.105263 259.92173 
L 122.472072 262.656231 
L 121.07807 265.92097 
L 120.881325 266.612559 
L 120.139521 269.185709 
L 119.522882 272.450447 
L 119.006058 275.715186 
L 118.414567 278.979925 
L 117.662175 282.244664 
L 117.657387 282.264833 
L 116.816204 285.509403 
L 116.154525 288.774141 
L 116.018155 292.03888 
L 116.993205 295.303619 
L 117.657387 296.11873 
L 120.881325 297.754915 
L 124.105263 298.144729 
L 127.329201 298.235366 
L 130.553139 298.361977 
L 133.557191 298.568358 
z
M 130.542976 288.774141 
L 127.660754 285.509403 
L 127.329201 284.582436 
L 126.700266 282.244664 
L 126.472218 278.979925 
L 126.626604 275.715186 
L 127.097162 272.450447 
L 127.329201 271.516583 
L 127.928319 269.185709 
L 129.102288 265.92097 
L 130.500775 262.656231 
L 130.553139 262.543465 
L 131.842259 259.391492 
L 133.102402 256.126753 
L 133.777076 254.478468 
L 134.36688 252.862014 
L 135.795254 249.597276 
L 137.001014 247.415193 
L 137.587158 246.332537 
L 139.764944 243.067798 
L 140.224952 242.457153 
L 142.176499 239.803059 
L 143.44889 238.082915 
L 144.542456 236.53832 
L 146.672828 233.30719 
L 146.694453 233.273582 
L 148.648408 230.008843 
L 149.896766 227.932589 
L 150.652787 226.744104 
L 152.973844 223.479365 
L 153.120704 223.299098 
L 155.816328 220.214626 
L 156.344642 219.693332 
L 159.12266 216.949887 
L 159.56858 216.547993 
L 162.561604 213.685149 
L 162.792518 213.473493 
L 165.919143 210.42041 
L 166.016456 210.32673 
L 169.229462 207.155671 
L 169.240394 207.144937 
L 172.464332 204.057383 
L 172.65317 203.890932 
L 175.68827 201.210544 
L 176.440414 200.626193 
L 178.912208 198.668568 
L 180.800386 197.361455 
L 182.136146 196.391425 
L 185.360084 194.253675 
L 185.612092 194.096716 
L 188.584022 192.041367 
L 190.352898 190.831977 
L 191.80796 189.723401 
L 194.686084 187.567238 
L 195.031898 187.285118 
L 198.255835 184.873851 
L 199.15493 184.302499 
L 201.479773 182.761469 
L 204.703711 181.094893 
L 204.874515 181.03776 
L 207.927649 180.00958 
L 211.151587 179.435572 
L 214.375525 179.428589 
L 217.599463 180.218793 
L 218.991883 181.03776 
L 220.823401 182.471066 
L 222.233704 184.302499 
L 224.047339 187.188512 
L 224.235098 187.567238 
L 225.762085 190.831977 
L 227.210788 194.096716 
L 227.271277 194.254633 
L 228.54005 197.361455 
L 229.827635 200.626193 
L 230.495215 202.549273 
L 231.031396 203.890932 
L 231.946071 207.155671 
L 232.190857 210.42041 
L 231.246236 213.685149 
L 230.495215 214.746634 
L 228.38649 216.949887 
L 227.271277 217.772768 
L 224.582061 220.214626 
L 224.047339 220.684026 
L 222.16068 223.479365 
L 220.823401 225.981643 
L 220.566524 226.744104 
L 219.719401 230.008843 
L 219.178086 233.273582 
L 218.793504 236.53832 
L 218.360811 239.803059 
L 217.675223 243.067798 
L 217.599463 243.284228 
L 216.641964 246.332537 
L 215.081085 249.597276 
L 214.375525 250.684399 
L 213.021591 252.862014 
L 211.151587 255.326796 
L 210.560309 256.126753 
L 207.927649 259.387705 
L 207.924613 259.391492 
L 205.285087 262.656231 
L 204.703711 263.382176 
L 202.607688 265.92097 
L 201.479773 267.282679 
L 199.799457 269.185709 
L 198.255835 270.907545 
L 196.761185 272.450447 
L 195.031898 274.234828 
L 193.478898 275.715186 
L 191.80796 277.343036 
L 189.947756 278.979925 
L 188.584022 280.198463 
L 185.880702 282.244664 
L 185.360084 282.632105 
L 182.136146 284.489085 
L 179.667857 285.509403 
L 178.912208 285.820836 
L 175.68827 286.69224 
L 172.464332 287.246303 
L 169.240394 287.549625 
L 166.016456 287.659126 
L 162.792518 287.681114 
L 159.56858 287.794272 
L 156.344642 288.168585 
L 153.51183 288.774141 
L 153.120704 288.849961 
L 149.896766 289.692648 
L 146.672828 290.51928 
L 143.44889 291.1095 
L 140.224952 291.308547 
L 137.001014 291.040657 
L 133.777076 290.252203 
L 130.553139 288.780596 
z
" style="fill:#8ea6ce;"/>
   </g>
   <g id="PathCollection_5">
    <path clip-path="url(#pa4d7da7f7a)" d="M 130.553139 288.780596 
L 133.777076 290.252203 
L 137.001014 291.040657 
L 140.224952 291.308547 
L 143.44889 291.1095 
L 146.672828 290.51928 
L 149.896766 289.692648 
L 153.120704 288.849961 
L 153.51183 288.774141 
L 156.344642 288.168585 
L 159.56858 287.794272 
L 162.792518 287.681114 
L 166.016456 287.659126 
L 169.240394 287.549625 
L 172.464332 287.246303 
L 175.68827 286.69224 
L 178.912208 285.820836 
L 179.667857 285.509403 
L 182.136146 284.489085 
L 185.360084 282.632105 
L 185.880702 282.244664 
L 188.584022 280.198463 
L 189.947756 278.979925 
L 191.80796 277.343036 
L 193.478898 275.715186 
L 195.031898 274.234828 
L 196.761185 272.450447 
L 198.255835 270.907545 
L 199.799457 269.185709 
L 201.479773 267.282679 
L 202.607688 265.92097 
L 204.703711 263.382176 
L 205.285087 262.656231 
L 207.924613 259.391492 
L 207.927649 259.387705 
L 210.560309 256.126753 
L 211.151587 255.326796 
L 213.021591 252.862014 
L 214.375525 250.684399 
L 215.081085 249.597276 
L 216.641964 246.332537 
L 217.599463 243.284228 
L 217.675223 243.067798 
L 218.360811 239.803059 
L 218.793504 236.53832 
L 219.178086 233.273582 
L 219.719401 230.008843 
L 220.566524 226.744104 
L 220.823401 225.981643 
L 222.16068 223.479365 
L 224.047339 220.684026 
L 224.582061 220.214626 
L 227.271277 217.772768 
L 228.38649 216.949887 
L 230.495215 214.746634 
L 231.246236 213.685149 
L 232.190857 210.42041 
L 231.946071 207.155671 
L 231.031396 203.890932 
L 230.495215 202.549273 
L 229.827635 200.626193 
L 228.54005 197.361455 
L 227.271277 194.254633 
L 227.210788 194.096716 
L 225.762085 190.831977 
L 224.235098 187.567238 
L 224.047339 187.188512 
L 222.233704 184.302499 
L 220.823401 182.471066 
L 218.991883 181.03776 
L 217.599463 180.218793 
L 214.375525 179.428589 
L 211.151587 179.435572 
L 207.927649 180.00958 
L 204.874515 181.03776 
L 204.703711 181.094893 
L 201.479773 182.761469 
L 199.15493 184.302499 
L 198.255835 184.873851 
L 195.031898 187.285118 
L 194.686084 187.567238 
L 191.80796 189.723401 
L 190.352898 190.831977 
L 188.584022 192.041367 
L 185.612092 194.096716 
L 185.360084 194.253675 
L 182.136146 196.391425 
L 180.800386 197.361455 
L 178.912208 198.668568 
L 176.440414 200.626193 
L 175.68827 201.210544 
L 172.65317 203.890932 
L 172.464332 204.057383 
L 169.240394 207.144937 
L 169.229462 207.155671 
L 166.016456 210.32673 
L 165.919143 210.42041 
L 162.792518 213.473493 
L 162.561604 213.685149 
L 159.56858 216.547993 
L 159.12266 216.949887 
L 156.344642 219.693332 
L 155.816328 220.214626 
L 153.120704 223.299098 
L 152.973844 223.479365 
L 150.652787 226.744104 
L 149.896766 227.932589 
L 148.648408 230.008843 
L 146.694453 233.273582 
L 146.672828 233.30719 
L 144.542456 236.53832 
L 143.44889 238.082915 
L 142.176499 239.803059 
L 140.224952 242.457153 
L 139.764944 243.067798 
L 137.587158 246.332537 
L 137.001014 247.415193 
L 135.795254 249.597276 
L 134.36688 252.862014 
L 133.777076 254.478468 
L 133.102402 256.126753 
L 131.842259 259.391492 
L 130.553139 262.543465 
L 130.500775 262.656231 
L 129.102288 265.92097 
L 127.928319 269.185709 
L 127.329201 271.516583 
L 127.097162 272.450447 
L 126.626604 275.715186 
L 126.472218 278.979925 
L 126.700266 282.244664 
L 127.329201 284.582436 
L 127.660754 285.509403 
L 130.542976 288.774141 
z
M 138.876496 282.244664 
L 137.001014 280.960256 
L 135.656606 278.979925 
L 134.960238 275.715186 
L 135.2291 272.450447 
L 135.992823 269.185709 
L 136.877032 265.92097 
L 137.001014 265.446196 
L 137.685588 262.656231 
L 138.327171 259.391492 
L 138.973255 256.126753 
L 139.831628 252.862014 
L 140.224952 251.858864 
L 141.100453 249.597276 
L 142.839244 246.332537 
L 143.44889 245.414213 
L 144.974167 243.067798 
L 146.672828 240.668678 
L 147.256221 239.803059 
L 149.465511 236.53832 
L 149.896766 235.873425 
L 151.568199 233.273582 
L 153.120704 230.869511 
L 153.692422 230.008843 
L 156.00354 226.744104 
L 156.344642 226.307944 
L 158.599635 223.479365 
L 159.56858 222.405667 
L 161.468281 220.214626 
L 162.792518 218.837835 
L 164.491102 216.949887 
L 166.016456 215.384779 
L 167.604256 213.685149 
L 169.240394 212.027519 
L 170.848583 210.42041 
L 172.464332 208.85228 
L 174.357135 207.155671 
L 175.68827 205.968856 
L 178.360747 203.890932 
L 178.912208 203.454392 
L 182.136146 201.265909 
L 183.259793 200.626193 
L 185.360084 199.334727 
L 188.584022 197.580222 
L 189.036472 197.361455 
L 191.80796 195.821749 
L 195.001316 194.096716 
L 195.031898 194.077708 
L 198.255835 192.358617 
L 201.479773 190.877435 
L 201.646984 190.831977 
L 204.703711 189.92914 
L 207.927649 189.71784 
L 211.151587 190.465545 
L 211.825927 190.831977 
L 214.375525 192.897824 
L 215.304977 194.096716 
L 216.705227 197.361455 
L 217.10853 200.626193 
L 216.849509 203.890932 
L 216.251013 207.155671 
L 215.568379 210.42041 
L 214.932342 213.685149 
L 214.375525 216.846711 
L 214.362156 216.949887 
L 213.937121 220.214626 
L 213.544643 223.479365 
L 213.234975 226.744104 
L 213.07446 230.008843 
L 213.07644 233.273582 
L 213.147712 236.53832 
L 213.100062 239.803059 
L 212.718921 243.067798 
L 211.830196 246.332537 
L 211.151587 247.813 
L 210.3602 249.597276 
L 208.34126 252.862014 
L 207.927649 253.416587 
L 205.917433 256.126753 
L 204.703711 257.631767 
L 203.252911 259.391492 
L 201.479773 261.499921 
L 200.449593 262.656231 
L 198.255835 265.121648 
L 197.475997 265.92097 
L 195.031898 268.437553 
L 194.213076 269.185709 
L 191.80796 271.426972 
L 190.534255 272.450447 
L 188.584022 274.093024 
L 186.232696 275.715186 
L 185.360084 276.352099 
L 182.136146 278.07701 
L 179.399332 278.979925 
L 178.912208 279.147897 
L 175.68827 279.592652 
L 172.464332 279.543783 
L 169.240394 279.196648 
L 167.514163 278.979925 
L 166.016456 278.800685 
L 162.792518 278.559385 
L 159.56858 278.586436 
L 156.441878 278.979925 
L 156.344642 278.993376 
L 153.120704 279.845825 
L 149.896766 281.020681 
L 146.716886 282.244664 
L 146.672828 282.259696 
L 143.44889 282.914497 
L 140.224952 282.772603 
z
" style="fill:#6e8dc0;"/>
   </g>
   <g id="PathCollection_6">
    <path clip-path="url(#pa4d7da7f7a)" d="M 140.224952 282.772603 
L 143.44889 282.914497 
L 146.672828 282.259696 
L 146.716886 282.244664 
L 149.896766 281.020681 
L 153.120704 279.845825 
L 156.344642 278.993376 
L 156.441878 278.979925 
L 159.56858 278.586436 
L 162.792518 278.559385 
L 166.016456 278.800685 
L 167.514163 278.979925 
L 169.240394 279.196648 
L 172.464332 279.543783 
L 175.68827 279.592652 
L 178.912208 279.147897 
L 179.399332 278.979925 
L 182.136146 278.07701 
L 185.360084 276.352099 
L 186.232696 275.715186 
L 188.584022 274.093024 
L 190.534255 272.450447 
L 191.80796 271.426972 
L 194.213076 269.185709 
L 195.031898 268.437553 
L 197.475997 265.92097 
L 198.255835 265.121648 
L 200.449593 262.656231 
L 201.479773 261.499921 
L 203.252911 259.391492 
L 204.703711 257.631767 
L 205.917433 256.126753 
L 207.927649 253.416587 
L 208.34126 252.862014 
L 210.3602 249.597276 
L 211.151587 247.813 
L 211.830196 246.332537 
L 212.718921 243.067798 
L 213.100062 239.803059 
L 213.147712 236.53832 
L 213.07644 233.273582 
L 213.07446 230.008843 
L 213.234975 226.744104 
L 213.544643 223.479365 
L 213.937121 220.214626 
L 214.362156 216.949887 
L 214.375525 216.846711 
L 214.932342 213.685149 
L 215.568379 210.42041 
L 216.251013 207.155671 
L 216.849509 203.890932 
L 217.10853 200.626193 
L 216.705227 197.361455 
L 215.304977 194.096716 
L 214.375525 192.897824 
L 211.825927 190.831977 
L 211.151587 190.465545 
L 207.927649 189.71784 
L 204.703711 189.92914 
L 201.646984 190.831977 
L 201.479773 190.877435 
L 198.255835 192.358617 
L 195.031898 194.077708 
L 195.001316 194.096716 
L 191.80796 195.821749 
L 189.036472 197.361455 
L 188.584022 197.580222 
L 185.360084 199.334727 
L 183.259793 200.626193 
L 182.136146 201.265909 
L 178.912208 203.454392 
L 178.360747 203.890932 
L 175.68827 205.968856 
L 174.357135 207.155671 
L 172.464332 208.85228 
L 170.848583 210.42041 
L 169.240394 212.027519 
L 167.604256 213.685149 
L 166.016456 215.384779 
L 164.491102 216.949887 
L 162.792518 218.837835 
L 161.468281 220.214626 
L 159.56858 222.405667 
L 158.599635 223.479365 
L 156.344642 226.307944 
L 156.00354 226.744104 
L 153.692422 230.008843 
L 153.120704 230.869511 
L 151.568199 233.273582 
L 149.896766 235.873425 
L 149.465511 236.53832 
L 147.256221 239.803059 
L 146.672828 240.668678 
L 144.974167 243.067798 
L 143.44889 245.414213 
L 142.839244 246.332537 
L 141.100453 249.597276 
L 140.224952 251.858864 
L 139.831628 252.862014 
L 138.973255 256.126753 
L 138.327171 259.391492 
L 137.685588 262.656231 
L 137.001014 265.446196 
L 136.877032 265.92097 
L 135.992823 269.185709 
L 135.2291 272.450447 
L 134.960238 275.715186 
L 135.656606 278.979925 
L 137.001014 280.960256 
L 138.876496 282.244664 
z
M 174.078145 272.450447 
L 172.464332 272.334291 
L 169.240394 271.946767 
L 166.016456 271.539717 
L 162.792518 271.148109 
L 159.56858 270.74649 
L 156.344642 270.282387 
L 153.120704 269.640875 
L 151.645784 269.185709 
L 149.896766 268.413749 
L 147.383911 265.92097 
L 146.672828 264.617385 
L 145.996037 262.656231 
L 145.346889 259.391492 
L 145.198893 256.126753 
L 145.598854 252.862014 
L 146.591764 249.597276 
L 146.672828 249.43421 
L 148.142328 246.332537 
L 149.896766 243.348383 
L 150.04987 243.067798 
L 152.084907 239.803059 
L 153.120704 238.201957 
L 154.16908 236.53832 
L 156.311596 233.273582 
L 156.344642 233.22488 
L 158.5688 230.008843 
L 159.56858 228.663219 
L 160.97912 226.744104 
L 162.792518 224.462954 
L 163.534936 223.479365 
L 166.016456 220.468166 
L 166.214465 220.214626 
L 169.027836 216.949887 
L 169.240394 216.723058 
L 172.095073 213.685149 
L 172.464332 213.315826 
L 175.576231 210.42041 
L 175.68827 210.319158 
L 178.912208 207.763329 
L 179.85162 207.155671 
L 182.136146 205.6414 
L 185.360084 203.942494 
L 185.489968 203.890932 
L 188.584022 202.527712 
L 191.80796 201.400177 
L 194.719296 200.626193 
L 195.031898 200.52673 
L 198.255835 200.01368 
L 201.479773 200.184219 
L 202.61528 200.626193 
L 204.703711 201.98855 
L 205.988708 203.890932 
L 207.098793 207.155671 
L 207.65698 210.42041 
L 207.927649 213.15849 
L 207.975007 213.685149 
L 208.145311 216.949887 
L 208.170786 220.214626 
L 208.089883 223.479365 
L 207.985873 226.744104 
L 207.95949 230.008843 
L 208.065384 233.273582 
L 208.247533 236.53832 
L 208.327689 239.803059 
L 208.068992 243.067798 
L 207.927649 243.639743 
L 207.273953 246.332537 
L 205.845955 249.597276 
L 204.703711 251.448203 
L 203.811381 252.862014 
L 201.479773 255.924964 
L 201.31733 256.126753 
L 198.466727 259.391492 
L 198.255835 259.627827 
L 195.297066 262.656231 
L 195.031898 262.927971 
L 191.80796 265.839318 
L 191.700117 265.92097 
L 188.584022 268.325221 
L 187.148182 269.185709 
L 185.360084 270.312716 
L 182.136146 271.702843 
L 178.912208 272.424757 
L 178.326475 272.450447 
L 175.68827 272.579508 
z
" style="fill:#5174ad;"/>
   </g>
   <g id="PathCollection_7">
    <path clip-path="url(#pa4d7da7f7a)" d="M 175.68827 272.579508 
L 178.326475 272.450447 
L 178.912208 272.424757 
L 182.136146 271.702843 
L 185.360084 270.312716 
L 187.148182 269.185709 
L 188.584022 268.325221 
L 191.700117 265.92097 
L 191.80796 265.839318 
L 195.031898 262.927971 
L 195.297066 262.656231 
L 198.255835 259.627827 
L 198.466727 259.391492 
L 201.31733 256.126753 
L 201.479773 255.924964 
L 203.811381 252.862014 
L 204.703711 251.448203 
L 205.845955 249.597276 
L 207.273953 246.332537 
L 207.927649 243.639743 
L 208.068992 243.067798 
L 208.327689 239.803059 
L 208.247533 236.53832 
L 208.065384 233.273582 
L 207.95949 230.008843 
L 207.985873 226.744104 
L 208.089883 223.479365 
L 208.170786 220.214626 
L 208.145311 216.949887 
L 207.975007 213.685149 
L 207.927649 213.15849 
L 207.65698 210.42041 
L 207.098793 207.155671 
L 205.988708 203.890932 
L 204.703711 201.98855 
L 202.61528 200.626193 
L 201.479773 200.184219 
L 198.255835 200.01368 
L 195.031898 200.52673 
L 194.719296 200.626193 
L 191.80796 201.400177 
L 188.584022 202.527712 
L 185.489968 203.890932 
L 185.360084 203.942494 
L 182.136146 205.6414 
L 179.85162 207.155671 
L 178.912208 207.763329 
L 175.68827 210.319158 
L 175.576231 210.42041 
L 172.464332 213.315826 
L 172.095073 213.685149 
L 169.240394 216.723058 
L 169.027836 216.949887 
L 166.214465 220.214626 
L 166.016456 220.468166 
L 163.534936 223.479365 
L 162.792518 224.462954 
L 160.97912 226.744104 
L 159.56858 228.663219 
L 158.5688 230.008843 
L 156.344642 233.22488 
L 156.311596 233.273582 
L 154.16908 236.53832 
L 153.120704 238.201957 
L 152.084907 239.803059 
L 150.04987 243.067798 
L 149.896766 243.348383 
L 148.142328 246.332537 
L 146.672828 249.43421 
L 146.591764 249.597276 
L 145.598854 252.862014 
L 145.198893 256.126753 
L 145.346889 259.391492 
L 145.996037 262.656231 
L 146.672828 264.617385 
L 147.383911 265.92097 
L 149.896766 268.413749 
L 151.645784 269.185709 
L 153.120704 269.640875 
L 156.344642 270.282387 
L 159.56858 270.74649 
L 162.792518 271.148109 
L 166.016456 271.539717 
L 169.240394 271.946767 
L 172.464332 272.334291 
L 174.078145 272.450447 
z
M 167.173792 265.92097 
L 166.016456 265.749131 
L 162.792518 265.069205 
L 159.56858 264.004797 
L 156.972533 262.656231 
L 156.344642 262.212035 
L 153.602569 259.391492 
L 153.120704 258.46504 
L 152.138668 256.126753 
L 151.779508 252.862014 
L 152.265721 249.597276 
L 153.120704 247.188713 
L 153.398175 246.332537 
L 154.954935 243.067798 
L 156.344642 240.60797 
L 156.789057 239.803059 
L 158.815479 236.53832 
L 159.56858 235.404542 
L 161.006066 233.273582 
L 162.792518 230.722759 
L 163.287595 230.008843 
L 165.601397 226.744104 
L 166.016456 226.193326 
L 167.958272 223.479365 
L 169.240394 221.834584 
L 170.477275 220.214626 
L 172.464332 217.893379 
L 173.311976 216.949887 
L 175.68827 214.576461 
L 176.709551 213.685149 
L 178.912208 211.887989 
L 181.153828 210.42041 
L 182.136146 209.783324 
L 185.360084 208.238021 
L 188.584022 207.197077 
L 188.878971 207.155671 
L 191.80796 206.69036 
L 195.031898 206.869745 
L 195.897168 207.155671 
L 198.255835 208.235913 
L 200.32759 210.42041 
L 201.479773 212.450353 
L 201.982494 213.685149 
L 202.839626 216.949887 
L 203.279051 220.214626 
L 203.442975 223.479365 
L 203.463286 226.744104 
L 203.468916 230.008843 
L 203.548054 233.273582 
L 203.691235 236.53832 
L 203.757201 239.803059 
L 203.507049 243.067798 
L 202.710463 246.332537 
L 201.479773 249.102395 
L 201.245205 249.597276 
L 199.063521 252.862014 
L 198.255835 253.867089 
L 196.26098 256.126753 
L 195.031898 257.413824 
L 192.889833 259.391492 
L 191.80796 260.366086 
L 188.784797 262.656231 
L 188.584022 262.807929 
L 185.360084 264.685008 
L 182.182441 265.92097 
L 182.136146 265.939367 
L 178.912208 266.60062 
L 175.68827 266.755753 
L 172.464332 266.584058 
L 169.240394 266.231619 
z
" style="fill:#3f5e91;"/>
   </g>
   <g id="PathCollection_8">
    <path clip-path="url(#pa4d7da7f7a)" d="M 169.240394 266.231619 
L 172.464332 266.584058 
L 175.68827 266.755753 
L 178.912208 266.60062 
L 182.136146 265.939367 
L 182.182441 265.92097 
L 185.360084 264.685008 
L 188.584022 262.807929 
L 188.784797 262.656231 
L 191.80796 260.366086 
L 192.889833 259.391492 
L 195.031898 257.413824 
L 196.26098 256.126753 
L 198.255835 253.867089 
L 199.063521 252.862014 
L 201.245205 249.597276 
L 201.479773 249.102395 
L 202.710463 246.332537 
L 203.507049 243.067798 
L 203.757201 239.803059 
L 203.691235 236.53832 
L 203.548054 233.273582 
L 203.468916 230.008843 
L 203.463286 226.744104 
L 203.442975 223.479365 
L 203.279051 220.214626 
L 202.839626 216.949887 
L 201.982494 213.685149 
L 201.479773 212.450353 
L 200.32759 210.42041 
L 198.255835 208.235913 
L 195.897168 207.155671 
L 195.031898 206.869745 
L 191.80796 206.69036 
L 188.878971 207.155671 
L 188.584022 207.197077 
L 185.360084 208.238021 
L 182.136146 209.783324 
L 181.153828 210.42041 
L 178.912208 211.887989 
L 176.709551 213.685149 
L 175.68827 214.576461 
L 173.311976 216.949887 
L 172.464332 217.893379 
L 170.477275 220.214626 
L 169.240394 221.834584 
L 167.958272 223.479365 
L 166.016456 226.193326 
L 165.601397 226.744104 
L 163.287595 230.008843 
L 162.792518 230.722759 
L 161.006066 233.273582 
L 159.56858 235.404542 
L 158.815479 236.53832 
L 156.789057 239.803059 
L 156.344642 240.60797 
L 154.954935 243.067798 
L 153.398175 246.332537 
L 153.120704 247.188713 
L 152.265721 249.597276 
L 151.779508 252.862014 
L 152.138668 256.126753 
L 153.120704 258.46504 
L 153.602569 259.391492 
L 156.344642 262.212035 
L 156.972533 262.656231 
L 159.56858 264.004797 
L 162.792518 265.069205 
L 166.016456 265.749131 
L 167.173792 265.92097 
z
M 163.715362 259.391492 
L 162.792518 258.914647 
L 159.56858 256.160831 
L 159.5402 256.126753 
L 158.113528 252.862014 
L 157.937026 249.597276 
L 158.617932 246.332537 
L 159.56858 243.9186 
L 159.908425 243.067798 
L 161.665688 239.803059 
L 162.792518 237.968149 
L 163.710889 236.53832 
L 165.865646 233.273582 
L 166.016456 233.050981 
L 168.04133 230.008843 
L 169.240394 228.170092 
L 170.144883 226.744104 
L 172.311504 223.479365 
L 172.464332 223.277102 
L 174.856672 220.214626 
L 175.68827 219.287156 
L 178.066542 216.949887 
L 178.912208 216.213008 
L 182.136146 214.000927 
L 182.829895 213.685149 
L 185.360084 212.586332 
L 188.584022 211.929001 
L 191.80796 212.175697 
L 194.879515 213.685149 
L 195.031898 213.798399 
L 197.301048 216.949887 
L 198.255835 219.5579 
L 198.44166 220.214626 
L 198.907852 223.479365 
L 199.058513 226.744104 
L 199.077516 230.008843 
L 199.093682 233.273582 
L 199.136231 236.53832 
L 199.096818 239.803059 
L 198.750574 243.067798 
L 198.255835 244.891697 
L 197.811702 246.332537 
L 196.070925 249.597276 
L 195.031898 251.008303 
L 193.450728 252.862014 
L 191.80796 254.495729 
L 189.867611 256.126753 
L 188.584022 257.120899 
L 185.360084 259.109421 
L 184.723349 259.391492 
L 182.136146 260.454926 
L 178.912208 261.213534 
L 175.68827 261.486603 
L 172.464332 261.396339 
L 169.240394 261.008892 
L 166.016456 260.273304 
z
" style="fill:#314971;"/>
   </g>
   <g id="PathCollection_9">
    <path clip-path="url(#pa4d7da7f7a)" d="M 166.016456 260.273304 
L 169.240394 261.008892 
L 172.464332 261.396339 
L 175.68827 261.486603 
L 178.912208 261.213534 
L 182.136146 260.454926 
L 184.723349 259.391492 
L 185.360084 259.109421 
L 188.584022 257.120899 
L 189.867611 256.126753 
L 191.80796 254.495729 
L 193.450728 252.862014 
L 195.031898 251.008303 
L 196.070925 249.597276 
L 197.811702 246.332537 
L 198.255835 244.891697 
L 198.750574 243.067798 
L 199.096818 239.803059 
L 199.136231 236.53832 
L 199.093682 233.273582 
L 199.077516 230.008843 
L 199.058513 226.744104 
L 198.907852 223.479365 
L 198.44166 220.214626 
L 198.255835 219.5579 
L 197.301048 216.949887 
L 195.031898 213.798399 
L 194.879515 213.685149 
L 191.80796 212.175697 
L 188.584022 211.929001 
L 185.360084 212.586332 
L 182.829895 213.685149 
L 182.136146 214.000927 
L 178.912208 216.213008 
L 178.066542 216.949887 
L 175.68827 219.287156 
L 174.856672 220.214626 
L 172.464332 223.277102 
L 172.311504 223.479365 
L 170.144883 226.744104 
L 169.240394 228.170092 
L 168.04133 230.008843 
L 166.016456 233.050981 
L 165.865646 233.273582 
L 163.710889 236.53832 
L 162.792518 237.968149 
L 161.665688 239.803059 
L 159.908425 243.067798 
L 159.56858 243.9186 
L 158.617932 246.332537 
L 157.937026 249.597276 
L 158.113528 252.862014 
L 159.5402 256.126753 
L 159.56858 256.160831 
L 162.792518 258.914647 
L 163.715362 259.391492 
z
M 165.988966 252.862014 
L 164.535423 249.597276 
L 164.65109 246.332537 
L 165.700937 243.067798 
L 166.016456 242.449835 
L 167.512174 239.803059 
L 169.240394 236.933308 
L 169.493892 236.53832 
L 171.529959 233.273582 
L 172.464332 231.608807 
L 173.373921 230.008843 
L 175.191049 226.744104 
L 175.68827 225.963202 
L 177.441018 223.479365 
L 178.912208 221.746314 
L 180.58981 220.214626 
L 182.136146 219.057674 
L 185.360084 217.638461 
L 188.584022 217.51949 
L 191.80796 219.408341 
L 192.418883 220.214626 
L 193.699808 223.479365 
L 194.159463 226.744104 
L 194.217987 230.008843 
L 194.125158 233.273582 
L 193.97874 236.53832 
L 193.69688 239.803059 
L 193.040272 243.067798 
L 191.80796 246.174004 
L 191.726418 246.332537 
L 189.173775 249.597276 
L 188.584022 250.173569 
L 185.360084 252.700136 
L 185.088153 252.862014 
L 182.136146 254.31105 
L 178.912208 255.342595 
L 175.68827 255.802076 
L 172.464332 255.667895 
L 169.240394 254.820239 
L 166.016456 252.889192 
z
" style="fill:#233451;"/>
   </g>
   <g id="PathCollection_10">
    <path clip-path="url(#pa4d7da7f7a)" d="M 166.016456 252.889192 
L 169.240394 254.820239 
L 172.464332 255.667895 
L 175.68827 255.802076 
L 178.912208 255.342595 
L 182.136146 254.31105 
L 185.088153 252.862014 
L 185.360084 252.700136 
L 188.584022 250.173569 
L 189.173775 249.597276 
L 191.726418 246.332537 
L 191.80796 246.174004 
L 193.040272 243.067798 
L 193.69688 239.803059 
L 193.97874 236.53832 
L 194.125158 233.273582 
L 194.217987 230.008843 
L 194.159463 226.744104 
L 193.699808 223.479365 
L 192.418883 220.214626 
L 191.80796 219.408341 
L 188.584022 217.51949 
L 185.360084 217.638461 
L 182.136146 219.057674 
L 180.58981 220.214626 
L 178.912208 221.746314 
L 177.441018 223.479365 
L 175.68827 225.963202 
L 175.191049 226.744104 
L 173.373921 230.008843 
L 172.464332 231.608807 
L 171.529959 233.273582 
L 169.493892 236.53832 
L 169.240394 236.933308 
L 167.512174 239.803059 
L 166.016456 242.449835 
L 165.700937 243.067798 
L 164.65109 246.332537 
L 164.535423 249.597276 
L 165.988966 252.862014 
z
M 180.066918 239.803059 
L 180.957544 236.53832 
L 181.704086 233.273582 
L 182.136146 231.873435 
L 184.968413 233.273582 
L 183.734447 236.53832 
L 182.666649 239.803059 
L 182.136146 240.704654 
z
" style="fill:#151f2f;"/>
   </g>
   <g id="PathCollection_11">
    <path clip-path="url(#pa4d7da7f7a)" d="M 182.136146 240.704654 
L 182.666649 239.803059 
L 183.734447 236.53832 
L 184.968413 233.273582 
L 182.136146 231.873435 
L 181.704086 233.273582 
L 180.957544 236.53832 
L 180.066918 239.803059 
z
" style="fill:#070a0f;"/>
   </g>
   <g id="patch_3">
    <path d="M 33.835 403.04 
L 33.835 79.830857 
" style="fill:none;"/>
   </g>
   <g id="patch_4">
    <path d="M 33.835 403.04 
L 353.004857 403.04 
" style="fill:none;"/>
   </g>
   <g id="legend_1">
    <g id="line2d_14"/>
    <g id="line2d_15"/>
    <g id="text_14">
     <!-- pearsonr = 0.71; p = 8.8e-152 -->
     <defs>
      <path d="M 6.59375 -19.875 
L 6.59375 51.859375 
L 14.59375 51.859375 
L 14.59375 45.125 
Q 17.4375 49.078125 21 51.046875 
Q 24.5625 53.03125 29.640625 53.03125 
Q 36.28125 53.03125 41.359375 49.609375 
Q 46.4375 46.1875 49.015625 39.953125 
Q 51.609375 33.734375 51.609375 26.3125 
Q 51.609375 18.359375 48.75 11.984375 
Q 45.90625 5.609375 40.453125 2.21875 
Q 35.015625 -1.171875 29 -1.171875 
Q 24.609375 -1.171875 21.109375 0.6875 
Q 17.625 2.546875 15.375 5.375 
L 15.375 -19.875 
z
M 14.546875 25.640625 
Q 14.546875 15.625 18.59375 10.84375 
Q 22.65625 6.0625 28.421875 6.0625 
Q 34.28125 6.0625 38.453125 11.015625 
Q 42.625 15.96875 42.625 26.375 
Q 42.625 36.28125 38.546875 41.203125 
Q 34.46875 46.140625 28.8125 46.140625 
Q 23.1875 46.140625 18.859375 40.890625 
Q 14.546875 35.640625 14.546875 25.640625 
z
" id="ArialMT-70"/>
      <path d="M 42.09375 16.703125 
L 51.171875 15.578125 
Q 49.03125 7.625 43.21875 3.21875 
Q 37.40625 -1.171875 28.375 -1.171875 
Q 17 -1.171875 10.328125 5.828125 
Q 3.65625 12.84375 3.65625 25.484375 
Q 3.65625 38.578125 10.390625 45.796875 
Q 17.140625 53.03125 27.875 53.03125 
Q 38.28125 53.03125 44.875 45.953125 
Q 51.46875 38.875 51.46875 26.03125 
Q 51.46875 25.25 51.421875 23.6875 
L 12.75 23.6875 
Q 13.234375 15.140625 17.578125 10.59375 
Q 21.921875 6.0625 28.421875 6.0625 
Q 33.25 6.0625 36.671875 8.59375 
Q 40.09375 11.140625 42.09375 16.703125 
z
M 13.234375 30.90625 
L 42.1875 30.90625 
Q 41.609375 37.453125 38.875 40.71875 
Q 34.671875 45.796875 27.984375 45.796875 
Q 21.921875 45.796875 17.796875 41.75 
Q 13.671875 37.703125 13.234375 30.90625 
z
" id="ArialMT-65"/>
      <path d="M 40.4375 6.390625 
Q 35.546875 2.25 31.03125 0.53125 
Q 26.515625 -1.171875 21.34375 -1.171875 
Q 12.796875 -1.171875 8.203125 3 
Q 3.609375 7.171875 3.609375 13.671875 
Q 3.609375 17.484375 5.34375 20.625 
Q 7.078125 23.78125 9.890625 25.6875 
Q 12.703125 27.59375 16.21875 28.5625 
Q 18.796875 29.25 24.03125 29.890625 
Q 34.671875 31.15625 39.703125 32.90625 
Q 39.75 34.71875 39.75 35.203125 
Q 39.75 40.578125 37.25 42.78125 
Q 33.890625 45.75 27.25 45.75 
Q 21.046875 45.75 18.09375 43.578125 
Q 15.140625 41.40625 13.71875 35.890625 
L 5.125 37.0625 
Q 6.296875 42.578125 8.984375 45.96875 
Q 11.671875 49.359375 16.75 51.1875 
Q 21.828125 53.03125 28.515625 53.03125 
Q 35.15625 53.03125 39.296875 51.46875 
Q 43.453125 49.90625 45.40625 47.53125 
Q 47.359375 45.171875 48.140625 41.546875 
Q 48.578125 39.3125 48.578125 33.453125 
L 48.578125 21.734375 
Q 48.578125 9.46875 49.140625 6.21875 
Q 49.703125 2.984375 51.375 0 
L 42.1875 0 
Q 40.828125 2.734375 40.4375 6.390625 
z
M 39.703125 26.03125 
Q 34.90625 24.078125 25.34375 22.703125 
Q 19.921875 21.921875 17.671875 20.9375 
Q 15.4375 19.96875 14.203125 18.09375 
Q 12.984375 16.21875 12.984375 13.921875 
Q 12.984375 10.40625 15.640625 8.0625 
Q 18.3125 5.71875 23.4375 5.71875 
Q 28.515625 5.71875 32.46875 7.9375 
Q 36.421875 10.15625 38.28125 14.015625 
Q 39.703125 17 39.703125 22.796875 
z
" id="ArialMT-61"/>
      <path d="M 6.5 0 
L 6.5 51.859375 
L 14.40625 51.859375 
L 14.40625 44 
Q 17.4375 49.515625 20 51.265625 
Q 22.5625 53.03125 25.640625 53.03125 
Q 30.078125 53.03125 34.671875 50.203125 
L 31.640625 42.046875 
Q 28.421875 43.953125 25.203125 43.953125 
Q 22.3125 43.953125 20.015625 42.21875 
Q 17.71875 40.484375 16.75 37.40625 
Q 15.28125 32.71875 15.28125 27.15625 
L 15.28125 0 
z
" id="ArialMT-72"/>
      <path d="M 3.078125 15.484375 
L 11.765625 16.84375 
Q 12.5 11.625 15.84375 8.84375 
Q 19.1875 6.0625 25.203125 6.0625 
Q 31.25 6.0625 34.171875 8.515625 
Q 37.109375 10.984375 37.109375 14.3125 
Q 37.109375 17.28125 34.515625 19 
Q 32.71875 20.171875 25.53125 21.96875 
Q 15.875 24.421875 12.140625 26.203125 
Q 8.40625 27.984375 6.46875 31.125 
Q 4.546875 34.28125 4.546875 38.09375 
Q 4.546875 41.546875 6.125 44.5 
Q 7.71875 47.46875 10.453125 49.421875 
Q 12.5 50.921875 16.03125 51.96875 
Q 19.578125 53.03125 23.640625 53.03125 
Q 29.734375 53.03125 34.34375 51.265625 
Q 38.96875 49.515625 41.15625 46.5 
Q 43.359375 43.5 44.1875 38.484375 
L 35.59375 37.3125 
Q 35.015625 41.3125 32.203125 43.546875 
Q 29.390625 45.796875 24.265625 45.796875 
Q 18.21875 45.796875 15.625 43.796875 
Q 13.03125 41.796875 13.03125 39.109375 
Q 13.03125 37.40625 14.109375 36.03125 
Q 15.1875 34.625 17.484375 33.6875 
Q 18.796875 33.203125 25.25 31.453125 
Q 34.578125 28.953125 38.25 27.359375 
Q 41.9375 25.78125 44.03125 22.75 
Q 46.140625 19.734375 46.140625 15.234375 
Q 46.140625 10.84375 43.578125 6.953125 
Q 41.015625 3.078125 36.171875 0.953125 
Q 31.34375 -1.171875 25.25 -1.171875 
Q 15.140625 -1.171875 9.84375 3.03125 
Q 4.546875 7.234375 3.078125 15.484375 
z
" id="ArialMT-73"/>
      <path d="M 3.328125 25.921875 
Q 3.328125 40.328125 11.328125 47.265625 
Q 18.015625 53.03125 27.640625 53.03125 
Q 38.328125 53.03125 45.109375 46.015625 
Q 51.90625 39.015625 51.90625 26.65625 
Q 51.90625 16.65625 48.90625 10.90625 
Q 45.90625 5.171875 40.15625 2 
Q 34.421875 -1.171875 27.640625 -1.171875 
Q 16.75 -1.171875 10.03125 5.8125 
Q 3.328125 12.796875 3.328125 25.921875 
z
M 12.359375 25.921875 
Q 12.359375 15.96875 16.703125 11.015625 
Q 21.046875 6.0625 27.640625 6.0625 
Q 34.1875 6.0625 38.53125 11.03125 
Q 42.875 16.015625 42.875 26.21875 
Q 42.875 35.84375 38.5 40.796875 
Q 34.125 45.75 27.640625 45.75 
Q 21.046875 45.75 16.703125 40.8125 
Q 12.359375 35.890625 12.359375 25.921875 
z
" id="ArialMT-6f"/>
      <path d="M 6.59375 0 
L 6.59375 51.859375 
L 14.5 51.859375 
L 14.5 44.484375 
Q 20.21875 53.03125 31 53.03125 
Q 35.6875 53.03125 39.625 51.34375 
Q 43.5625 49.65625 45.515625 46.921875 
Q 47.46875 44.1875 48.25 40.4375 
Q 48.734375 37.984375 48.734375 31.890625 
L 48.734375 0 
L 39.9375 0 
L 39.9375 31.546875 
Q 39.9375 36.921875 38.90625 39.578125 
Q 37.890625 42.234375 35.28125 43.8125 
Q 32.671875 45.40625 29.15625 45.40625 
Q 23.53125 45.40625 19.453125 41.84375 
Q 15.375 38.28125 15.375 28.328125 
L 15.375 0 
z
" id="ArialMT-6e"/>
      <path id="ArialMT-20"/>
      <path d="M 52.828125 42.09375 
L 5.5625 42.09375 
L 5.5625 50.296875 
L 52.828125 50.296875 
z
M 52.828125 20.359375 
L 5.5625 20.359375 
L 5.5625 28.5625 
L 52.828125 28.5625 
z
" id="ArialMT-3d"/>
      <path d="M 9.078125 0 
L 9.078125 10.015625 
L 19.09375 10.015625 
L 19.09375 0 
z
" id="ArialMT-2e"/>
      <path d="M 4.734375 62.203125 
L 4.734375 70.65625 
L 51.078125 70.65625 
L 51.078125 63.8125 
Q 44.234375 56.546875 37.515625 44.484375 
Q 30.8125 32.421875 27.15625 19.671875 
Q 24.515625 10.6875 23.78125 0 
L 14.75 0 
Q 14.890625 8.453125 18.0625 20.40625 
Q 21.234375 32.375 27.171875 43.484375 
Q 33.109375 54.59375 39.796875 62.203125 
z
" id="ArialMT-37"/>
      <path d="M 8.890625 41.84375 
L 8.890625 51.859375 
L 18.890625 51.859375 
L 18.890625 41.84375 
z
M 8.890625 0 
L 8.890625 10.015625 
L 18.890625 10.015625 
L 18.890625 0 
Q 18.890625 -5.515625 16.9375 -8.90625 
Q 14.984375 -12.3125 10.75 -14.15625 
L 8.296875 -10.40625 
Q 11.078125 -9.1875 12.390625 -6.8125 
Q 13.71875 -4.4375 13.875 0 
z
" id="ArialMT-3b"/>
      <path d="M 17.671875 38.8125 
Q 12.203125 40.828125 9.5625 44.53125 
Q 6.9375 48.25 6.9375 53.421875 
Q 6.9375 61.234375 12.546875 66.546875 
Q 18.171875 71.875 27.484375 71.875 
Q 36.859375 71.875 42.578125 66.421875 
Q 48.296875 60.984375 48.296875 53.171875 
Q 48.296875 48.1875 45.671875 44.5 
Q 43.0625 40.828125 37.75 38.8125 
Q 44.34375 36.671875 47.78125 31.875 
Q 51.21875 27.09375 51.21875 20.453125 
Q 51.21875 11.28125 44.71875 5.03125 
Q 38.234375 -1.21875 27.640625 -1.21875 
Q 17.046875 -1.21875 10.546875 5.046875 
Q 4.046875 11.328125 4.046875 20.703125 
Q 4.046875 27.6875 7.59375 32.390625 
Q 11.140625 37.109375 17.671875 38.8125 
z
M 15.921875 53.71875 
Q 15.921875 48.640625 19.1875 45.40625 
Q 22.46875 42.1875 27.6875 42.1875 
Q 32.765625 42.1875 36.015625 45.375 
Q 39.265625 48.578125 39.265625 53.21875 
Q 39.265625 58.0625 35.90625 61.359375 
Q 32.5625 64.65625 27.59375 64.65625 
Q 22.5625 64.65625 19.234375 61.421875 
Q 15.921875 58.203125 15.921875 53.71875 
z
M 13.09375 20.65625 
Q 13.09375 16.890625 14.875 13.375 
Q 16.65625 9.859375 20.171875 7.921875 
Q 23.6875 6 27.734375 6 
Q 34.03125 6 38.125 10.046875 
Q 42.234375 14.109375 42.234375 20.359375 
Q 42.234375 26.703125 38.015625 30.859375 
Q 33.796875 35.015625 27.4375 35.015625 
Q 21.234375 35.015625 17.15625 30.90625 
Q 13.09375 26.8125 13.09375 20.65625 
z
" id="ArialMT-38"/>
      <path d="M 3.171875 21.484375 
L 3.171875 30.328125 
L 30.171875 30.328125 
L 30.171875 21.484375 
z
" id="ArialMT-2d"/>
      <path d="M 4.15625 18.75 
L 13.375 19.53125 
Q 14.40625 12.796875 18.140625 9.390625 
Q 21.875 6 27.15625 6 
Q 33.5 6 37.890625 10.78125 
Q 42.28125 15.578125 42.28125 23.484375 
Q 42.28125 31 38.0625 35.34375 
Q 33.84375 39.703125 27 39.703125 
Q 22.75 39.703125 19.328125 37.765625 
Q 15.921875 35.84375 13.96875 32.765625 
L 5.71875 33.84375 
L 12.640625 70.609375 
L 48.25 70.609375 
L 48.25 62.203125 
L 19.671875 62.203125 
L 15.828125 42.96875 
Q 22.265625 47.46875 29.34375 47.46875 
Q 38.71875 47.46875 45.15625 40.96875 
Q 51.609375 34.46875 51.609375 24.265625 
Q 51.609375 14.546875 45.953125 7.46875 
Q 39.0625 -1.21875 27.15625 -1.21875 
Q 17.390625 -1.21875 11.203125 4.25 
Q 5.03125 9.71875 4.15625 18.75 
z
" id="ArialMT-35"/>
     </defs>
     <g style="fill:#262626;" transform="translate(211.695482 96.018357)scale(0.1 -0.1)">
      <use xlink:href="#ArialMT-70"/>
      <use x="55.615234" xlink:href="#ArialMT-65"/>
      <use x="111.230469" xlink:href="#ArialMT-61"/>
      <use x="166.845703" xlink:href="#ArialMT-72"/>
      <use x="200.146484" xlink:href="#ArialMT-73"/>
      <use x="250.146484" xlink:href="#ArialMT-6f"/>
      <use x="305.761719" xlink:href="#ArialMT-6e"/>
      <use x="361.376953" xlink:href="#ArialMT-72"/>
      <use x="394.677734" xlink:href="#ArialMT-20"/>
      <use x="422.460938" xlink:href="#ArialMT-3d"/>
      <use x="480.859375" xlink:href="#ArialMT-20"/>
      <use x="508.642578" xlink:href="#ArialMT-30"/>
      <use x="564.257812" xlink:href="#ArialMT-2e"/>
      <use x="592.041016" xlink:href="#ArialMT-37"/>
      <use x="647.65625" xlink:href="#ArialMT-31"/>
      <use x="703.271484" xlink:href="#ArialMT-3b"/>
      <use x="731.054688" xlink:href="#ArialMT-20"/>
      <use x="758.837891" xlink:href="#ArialMT-70"/>
      <use x="814.453125" xlink:href="#ArialMT-20"/>
      <use x="842.236328" xlink:href="#ArialMT-3d"/>
      <use x="900.634766" xlink:href="#ArialMT-20"/>
      <use x="928.417969" xlink:href="#ArialMT-38"/>
      <use x="984.033203" xlink:href="#ArialMT-2e"/>
      <use x="1011.816406" xlink:href="#ArialMT-38"/>
      <use x="1067.431641" xlink:href="#ArialMT-65"/>
      <use x="1123.046875" xlink:href="#ArialMT-2d"/>
      <use x="1156.347656" xlink:href="#ArialMT-31"/>
      <use x="1211.962891" xlink:href="#ArialMT-35"/>
      <use x="1267.578125" xlink:href="#ArialMT-32"/>
     </g>
    </g>
   </g>
  </g>
  <g id="axes_2">
   <g id="patch_5">
    <path d="M 33.835 68.685714 
L 353.004857 68.685714 
L 353.004857 12.96 
L 33.835 12.96 
z
" style="fill:#eaeaf2;"/>
   </g>
   <g id="matplotlib.axis_3">
    <g id="xtick_9">
     <g id="line2d_16"/>
    </g>
    <g id="xtick_10">
     <g id="line2d_17"/>
    </g>
    <g id="xtick_11">
     <g id="line2d_18"/>
    </g>
    <g id="xtick_12">
     <g id="line2d_19"/>
    </g>
    <g id="xtick_13">
     <g id="line2d_20"/>
    </g>
    <g id="xtick_14">
     <g id="line2d_21"/>
    </g>
    <g id="xtick_15">
     <g id="line2d_22"/>
    </g>
    <g id="xtick_16">
     <g id="line2d_23"/>
    </g>
   </g>
   <g id="matplotlib.axis_4">
    <g id="ytick_6"/>
    <g id="ytick_7"/>
   </g>
   <g id="PolyCollection_1">
    <path clip-path="url(#p08bc3e0719)" d="M 33.835 68.678403 
L 33.835 68.685714 
L 36.348148 68.685714 
L 38.861297 68.685714 
L 41.374445 68.685714 
L 43.887594 68.685714 
L 46.400742 68.685714 
L 48.913891 68.685714 
L 51.427039 68.685714 
L 53.940188 68.685714 
L 56.453336 68.685714 
L 58.966485 68.685714 
L 61.479633 68.685714 
L 63.992782 68.685714 
L 66.50593 68.685714 
L 69.019079 68.685714 
L 71.532227 68.685714 
L 74.045376 68.685714 
L 76.558524 68.685714 
L 79.071673 68.685714 
L 81.584821 68.685714 
L 84.09797 68.685714 
L 86.611118 68.685714 
L 89.124267 68.685714 
L 91.637415 68.685714 
L 94.150564 68.685714 
L 96.663712 68.685714 
L 99.176861 68.685714 
L 101.690009 68.685714 
L 104.203157 68.685714 
L 106.716306 68.685714 
L 109.229454 68.685714 
L 111.742603 68.685714 
L 114.255751 68.685714 
L 116.7689 68.685714 
L 119.282048 68.685714 
L 121.795197 68.685714 
L 124.308345 68.685714 
L 126.821494 68.685714 
L 129.334642 68.685714 
L 131.847791 68.685714 
L 134.360939 68.685714 
L 136.874088 68.685714 
L 139.387236 68.685714 
L 141.900385 68.685714 
L 144.413533 68.685714 
L 146.926682 68.685714 
L 149.43983 68.685714 
L 151.952979 68.685714 
L 154.466127 68.685714 
L 156.979276 68.685714 
L 159.492424 68.685714 
L 162.005573 68.685714 
L 164.518721 68.685714 
L 167.03187 68.685714 
L 169.545018 68.685714 
L 172.058166 68.685714 
L 174.571315 68.685714 
L 177.084463 68.685714 
L 179.597612 68.685714 
L 182.11076 68.685714 
L 184.623909 68.685714 
L 187.137057 68.685714 
L 189.650206 68.685714 
L 192.163354 68.685714 
L 194.676503 68.685714 
L 197.189651 68.685714 
L 199.7028 68.685714 
L 202.215948 68.685714 
L 204.729097 68.685714 
L 207.242245 68.685714 
L 209.755394 68.685714 
L 212.268542 68.685714 
L 214.781691 68.685714 
L 217.294839 68.685714 
L 219.807988 68.685714 
L 222.321136 68.685714 
L 224.834285 68.685714 
L 227.347433 68.685714 
L 229.860582 68.685714 
L 232.37373 68.685714 
L 234.886879 68.685714 
L 237.400027 68.685714 
L 239.913175 68.685714 
L 242.426324 68.685714 
L 244.939472 68.685714 
L 247.452621 68.685714 
L 249.965769 68.685714 
L 252.478918 68.685714 
L 254.992066 68.685714 
L 257.505215 68.685714 
L 260.018363 68.685714 
L 262.531512 68.685714 
L 265.04466 68.685714 
L 267.557809 68.685714 
L 270.070957 68.685714 
L 272.584106 68.685714 
L 275.097254 68.685714 
L 277.610403 68.685714 
L 280.123551 68.685714 
L 282.6367 68.685714 
L 285.149848 68.685714 
L 287.662997 68.685714 
L 290.176145 68.685714 
L 292.689294 68.685714 
L 295.202442 68.685714 
L 297.715591 68.685714 
L 300.228739 68.685714 
L 302.741888 68.685714 
L 305.255036 68.685714 
L 307.768184 68.685714 
L 310.281333 68.685714 
L 312.794481 68.685714 
L 315.30763 68.685714 
L 317.820778 68.685714 
L 320.333927 68.685714 
L 322.847075 68.685714 
L 325.360224 68.685714 
L 327.873372 68.685714 
L 330.386521 68.685714 
L 332.899669 68.685714 
L 335.412818 68.685714 
L 337.925966 68.685714 
L 340.439115 68.685714 
L 342.952263 68.685714 
L 345.465412 68.685714 
L 347.97856 68.685714 
L 350.491709 68.685714 
L 353.004857 68.685714 
L 353.004857 68.680559 
L 353.004857 68.680559 
L 350.491709 68.679612 
L 347.97856 68.675677 
L 345.465412 68.668166 
L 342.952263 68.656129 
L 340.439115 68.638699 
L 337.925966 68.615623 
L 335.412818 68.587781 
L 332.899669 68.557494 
L 330.386521 68.528404 
L 327.873372 68.504829 
L 325.360224 68.490687 
L 322.847075 68.488309 
L 320.333927 68.497553 
L 317.820778 68.515519 
L 315.30763 68.536907 
L 312.794481 68.554819 
L 310.281333 68.561696 
L 307.768184 68.550182 
L 305.255036 68.513943 
L 302.741888 68.448587 
L 300.228739 68.352766 
L 297.715591 68.229222 
L 295.202442 68.085209 
L 292.689294 67.931545 
L 290.176145 67.7799 
L 287.662997 67.638601 
L 285.149848 67.508104 
L 282.6367 67.377828 
L 280.123551 67.225841 
L 277.610403 67.021981 
L 275.097254 66.733651 
L 272.584106 66.332389 
L 270.070957 65.799034 
L 267.557809 65.12595 
L 265.04466 64.316068 
L 262.531512 63.379847 
L 260.018363 62.33189 
L 257.505215 61.188746 
L 254.992066 59.96837 
L 252.478918 58.690557 
L 249.965769 57.376983 
L 247.452621 56.049736 
L 244.939472 54.72823 
L 242.426324 53.425647 
L 239.913175 52.146555 
L 237.400027 50.886839 
L 234.886879 49.635644 
L 232.37373 48.377723 
L 229.860582 47.094355 
L 227.347433 45.762277 
L 224.834285 44.352049 
L 222.321136 42.828533 
L 219.807988 41.155582 
L 217.294839 39.304662 
L 214.781691 37.264537 
L 212.268542 35.047955 
L 209.755394 32.69251 
L 207.242245 30.25558 
L 204.729097 27.805917 
L 202.215948 25.415403 
L 199.7028 23.153619 
L 197.189651 21.085826 
L 194.676503 19.273156 
L 192.163354 17.772916 
L 189.650206 16.63711 
L 187.137057 15.908323 
L 184.623909 15.613605 
L 182.11076 15.758366 
L 179.597612 16.322989 
L 177.084463 17.264267 
L 174.571315 18.521789 
L 172.058166 20.026978 
L 169.545018 21.711093 
L 167.03187 23.509228 
L 164.518721 25.36025 
L 162.005573 27.20578 
L 159.492424 28.992612 
L 156.979276 30.680766 
L 154.466127 32.254866 
L 151.952979 33.732448 
L 149.43983 35.162377 
L 146.926682 36.61072 
L 144.413533 38.138064 
L 141.900385 39.777391 
L 139.387236 41.521954 
L 136.874088 43.327856 
L 134.360939 45.12908 
L 131.847791 46.857652 
L 129.334642 48.460877 
L 126.821494 49.910829 
L 124.308345 51.205801 
L 121.795197 52.366376 
L 119.282048 53.429159 
L 116.7689 54.439684 
L 114.255751 55.444609 
L 111.742603 56.483084 
L 109.229454 57.578213 
L 106.716306 58.730741 
L 104.203157 59.91739 
L 101.690009 61.095228 
L 99.176861 62.211429 
L 96.663712 63.215769 
L 94.150564 64.072129 
L 91.637415 64.765623 
L 89.124267 65.30356 
L 86.611118 65.710594 
L 84.09797 66.020296 
L 81.584821 66.266251 
L 79.071673 66.475473 
L 76.558524 66.665701 
L 74.045376 66.846414 
L 71.532227 67.022015 
L 69.019079 67.195079 
L 66.50593 67.368042 
L 63.992782 67.542919 
L 61.479633 67.719853 
L 58.966485 67.895885 
L 56.453336 68.065008 
L 53.940188 68.219657 
L 51.427039 68.352945 
L 48.913891 68.460591 
L 46.400742 68.541802 
L 43.887594 68.598944 
L 41.374445 68.636405 
L 38.861297 68.659238 
L 36.348148 68.672056 
L 33.835 68.678403 
z
" style="fill:#4c72b0;fill-opacity:0.25;"/>
   </g>
   <g id="line2d_24">
    <path clip-path="url(#p08bc3e0719)" d="M 33.835 68.678403 
L 46.400742 68.541802 
L 53.940188 68.219657 
L 69.019079 67.195079 
L 81.584821 66.266251 
L 86.611118 65.710594 
L 89.124267 65.30356 
L 91.637415 64.765623 
L 94.150564 64.072129 
L 96.663712 63.215769 
L 101.690009 61.095228 
L 111.742603 56.483084 
L 124.308345 51.205801 
L 126.821494 49.910829 
L 129.334642 48.460877 
L 134.360939 45.12908 
L 141.900385 39.777391 
L 146.926682 36.61072 
L 154.466127 32.254866 
L 159.492424 28.992612 
L 172.058166 20.026978 
L 174.571315 18.521789 
L 177.084463 17.264267 
L 179.597612 16.322989 
L 182.11076 15.758366 
L 184.623909 15.613605 
L 187.137057 15.908323 
L 189.650206 16.63711 
L 192.163354 17.772916 
L 194.676503 19.273156 
L 197.189651 21.085826 
L 199.7028 23.153619 
L 204.729097 27.805917 
L 212.268542 35.047955 
L 214.781691 37.264537 
L 217.294839 39.304662 
L 219.807988 41.155582 
L 222.321136 42.828533 
L 227.347433 45.762277 
L 234.886879 49.635644 
L 244.939472 54.72823 
L 254.992066 59.96837 
L 260.018363 62.33189 
L 265.04466 64.316068 
L 267.557809 65.12595 
L 270.070957 65.799034 
L 272.584106 66.332389 
L 275.097254 66.733651 
L 280.123551 67.225841 
L 300.228739 68.352766 
L 307.768184 68.550182 
L 320.333927 68.497553 
L 332.899669 68.557494 
L 350.491709 68.679612 
L 353.004857 68.680559 
L 353.004857 68.680559 
" style="fill:none;stroke:#4c72b0;stroke-linecap:round;stroke-width:1.75;"/>
   </g>
   <g id="patch_6">
    <path d="M 33.835 68.685714 
L 353.004857 68.685714 
" style="fill:none;"/>
   </g>
  </g>
  <g id="axes_3">
   <g id="patch_7">
    <path d="M 364.010714 403.04 
L 419.04 403.04 
L 419.04 79.830857 
L 364.010714 79.830857 
z
" style="fill:#eaeaf2;"/>
   </g>
   <g id="matplotlib.axis_5">
    <g id="xtick_17"/>
    <g id="xtick_18"/>
   </g>
   <g id="matplotlib.axis_6">
    <g id="ytick_8">
     <g id="line2d_25"/>
    </g>
    <g id="ytick_9">
     <g id="line2d_26"/>
    </g>
    <g id="ytick_10">
     <g id="line2d_27"/>
    </g>
    <g id="ytick_11">
     <g id="line2d_28"/>
    </g>
    <g id="ytick_12">
     <g id="line2d_29"/>
    </g>
   </g>
   <g id="PolyCollection_2">
    <path clip-path="url(#pd24bb1c5ca)" d="M 364.014642 403.04 
L 364.010714 403.04 
L 364.010714 400.495046 
L 364.010714 397.950092 
L 364.010714 395.405138 
L 364.010714 392.860184 
L 364.010714 390.315231 
L 364.010714 387.770277 
L 364.010714 385.225323 
L 364.010714 382.680369 
L 364.010714 380.135415 
L 364.010714 377.590461 
L 364.010714 375.045507 
L 364.010714 372.500553 
L 364.010714 369.9556 
L 364.010714 367.410646 
L 364.010714 364.865692 
L 364.010714 362.320738 
L 364.010714 359.775784 
L 364.010714 357.23083 
L 364.010714 354.685876 
L 364.010714 352.140922 
L 364.010714 349.595969 
L 364.010714 347.051015 
L 364.010714 344.506061 
L 364.010714 341.961107 
L 364.010714 339.416153 
L 364.010714 336.871199 
L 364.010714 334.326245 
L 364.010714 331.781291 
L 364.010714 329.236337 
L 364.010714 326.691384 
L 364.010714 324.14643 
L 364.010714 321.601476 
L 364.010714 319.056522 
L 364.010714 316.511568 
L 364.010714 313.966614 
L 364.010714 311.42166 
L 364.010714 308.876706 
L 364.010714 306.331753 
L 364.010714 303.786799 
L 364.010714 301.241845 
L 364.010714 298.696891 
L 364.010714 296.151937 
L 364.010714 293.606983 
L 364.010714 291.062029 
L 364.010714 288.517075 
L 364.010714 285.972121 
L 364.010714 283.427168 
L 364.010714 280.882214 
L 364.010714 278.33726 
L 364.010714 275.792306 
L 364.010714 273.247352 
L 364.010714 270.702398 
L 364.010714 268.157444 
L 364.010714 265.61249 
L 364.010714 263.067537 
L 364.010714 260.522583 
L 364.010714 257.977629 
L 364.010714 255.432675 
L 364.010714 252.887721 
L 364.010714 250.342767 
L 364.010714 247.797813 
L 364.010714 245.252859 
L 364.010714 242.707906 
L 364.010714 240.162952 
L 364.010714 237.617998 
L 364.010714 235.073044 
L 364.010714 232.52809 
L 364.010714 229.983136 
L 364.010714 227.438182 
L 364.010714 224.893228 
L 364.010714 222.348274 
L 364.010714 219.803321 
L 364.010714 217.258367 
L 364.010714 214.713413 
L 364.010714 212.168459 
L 364.010714 209.623505 
L 364.010714 207.078551 
L 364.010714 204.533597 
L 364.010714 201.988643 
L 364.010714 199.44369 
L 364.010714 196.898736 
L 364.010714 194.353782 
L 364.010714 191.808828 
L 364.010714 189.263874 
L 364.010714 186.71892 
L 364.010714 184.173966 
L 364.010714 181.629012 
L 364.010714 179.084058 
L 364.010714 176.539105 
L 364.010714 173.994151 
L 364.010714 171.449197 
L 364.010714 168.904243 
L 364.010714 166.359289 
L 364.010714 163.814335 
L 364.010714 161.269381 
L 364.010714 158.724427 
L 364.010714 156.179474 
L 364.010714 153.63452 
L 364.010714 151.089566 
L 364.010714 148.544612 
L 364.010714 145.999658 
L 364.010714 143.454704 
L 364.010714 140.90975 
L 364.010714 138.364796 
L 364.010714 135.819843 
L 364.010714 133.274889 
L 364.010714 130.729935 
L 364.010714 128.184981 
L 364.010714 125.640027 
L 364.010714 123.095073 
L 364.010714 120.550119 
L 364.010714 118.005165 
L 364.010714 115.460211 
L 364.010714 112.915258 
L 364.010714 110.370304 
L 364.010714 107.82535 
L 364.010714 105.280396 
L 364.010714 102.735442 
L 364.010714 100.190488 
L 364.010714 97.645534 
L 364.010714 95.10058 
L 364.010714 92.555627 
L 364.010714 90.010673 
L 364.010714 87.465719 
L 364.010714 84.920765 
L 364.010714 82.375811 
L 364.010714 79.830857 
L 364.01487 79.830857 
L 364.01487 79.830857 
L 364.017242 82.375811 
L 364.022457 84.920765 
L 364.031797 87.465719 
L 364.047056 90.010673 
L 364.070361 92.555627 
L 364.10384 95.10058 
L 364.149156 97.645534 
L 364.207004 100.190488 
L 364.27674 102.735442 
L 364.356312 105.280396 
L 364.442629 107.82535 
L 364.532359 110.370304 
L 364.623016 112.915258 
L 364.714088 115.460211 
L 364.807909 118.005165 
L 364.910027 120.550119 
L 365.028888 123.095073 
L 365.17472 125.640027 
L 365.357695 128.184981 
L 365.585644 130.729935 
L 365.86195 133.274889 
L 366.18452 135.819843 
L 366.546716 138.364796 
L 366.940677 140.90975 
L 367.362455 143.454704 
L 367.817329 145.999658 
L 368.322979 148.544612 
L 368.908409 151.089566 
L 369.607891 153.63452 
L 370.451096 156.179474 
L 371.452461 158.724427 
L 372.60361 161.269381 
L 373.872052 163.814335 
L 375.207428 166.359289 
L 376.554047 168.904243 
L 377.866186 171.449197 
L 379.121463 173.994151 
L 380.327934 176.539105 
L 381.522337 179.084058 
L 382.759605 181.629012 
L 384.096679 184.173966 
L 385.575673 186.71892 
L 387.211956 189.263874 
L 388.991176 191.808828 
L 390.876065 194.353782 
L 392.820069 196.898736 
L 394.781962 199.44369 
L 396.735117 201.988643 
L 398.667437 204.533597 
L 400.572428 207.078551 
L 402.43634 209.623505 
L 404.228702 212.168459 
L 405.902332 214.713413 
L 407.404552 217.258367 
L 408.695771 219.803321 
L 409.767512 222.348274 
L 410.651377 224.893228 
L 411.4137 227.438182 
L 412.136276 229.983136 
L 412.889073 232.52809 
L 413.704053 235.073044 
L 414.558958 237.617998 
L 415.376567 240.162952 
L 416.039977 242.707906 
L 416.419558 245.252859 
L 416.403913 247.797813 
L 415.926184 250.342767 
L 414.97865 252.887721 
L 413.612197 255.432675 
L 411.921878 257.977629 
L 410.023862 260.522583 
L 408.031138 263.067537 
L 406.034665 265.61249 
L 404.09366 268.157444 
L 402.234946 270.702398 
L 400.458421 273.247352 
L 398.744947 275.792306 
L 397.064084 278.33726 
L 395.380972 280.882214 
L 393.662921 283.427168 
L 391.88618 285.972121 
L 390.042231 288.517075 
L 388.141817 291.062029 
L 386.214741 293.606983 
L 384.304578 296.151937 
L 382.459373 298.696891 
L 380.721033 301.241845 
L 379.116758 303.786799 
L 377.655048 306.331753 
L 376.327106 308.876706 
L 375.112616 311.42166 
L 373.987617 313.966614 
L 372.931895 316.511568 
L 371.933935 319.056522 
L 370.99247 321.601476 
L 370.114789 324.14643 
L 369.312725 326.691384 
L 368.597745 329.236337 
L 367.97657 331.781291 
L 367.448501 334.326245 
L 367.005079 336.871199 
L 366.631989 339.416153 
L 366.312462 341.961107 
L 366.031017 344.506061 
L 365.77636 347.051015 
L 365.542656 349.595969 
L 365.328985 352.140922 
L 365.137422 354.685876 
L 364.970587 357.23083 
L 364.82956 359.775784 
L 364.712801 362.320738 
L 364.61627 364.865692 
L 364.534489 367.410646 
L 364.462015 369.9556 
L 364.39473 372.500553 
L 364.330542 375.045507 
L 364.269367 377.590461 
L 364.212523 380.135415 
L 364.161871 382.680369 
L 364.118996 385.225323 
L 364.084699 387.770277 
L 364.058835 390.315231 
L 364.04048 392.860184 
L 364.028251 395.405138 
L 364.020666 397.950092 
L 364.016433 400.495046 
L 364.014642 403.04 
z
" style="fill:#4c72b0;fill-opacity:0.25;"/>
   </g>
   <g id="line2d_30">
    <path clip-path="url(#pd24bb1c5ca)" d="M 364.014642 403.04 
L 364.118996 385.225323 
L 364.462015 369.9556 
L 364.82956 359.775784 
L 365.328985 352.140922 
L 366.031017 344.506061 
L 366.631989 339.416153 
L 367.448501 334.326245 
L 368.597745 329.236337 
L 370.114789 324.14643 
L 371.933935 319.056522 
L 373.987617 313.966614 
L 376.327106 308.876706 
L 377.655048 306.331753 
L 379.116758 303.786799 
L 380.721033 301.241845 
L 384.304578 296.151937 
L 391.88618 285.972121 
L 395.380972 280.882214 
L 402.234946 270.702398 
L 406.034665 265.61249 
L 411.921878 257.977629 
L 413.612197 255.432675 
L 414.97865 252.887721 
L 415.926184 250.342767 
L 416.403913 247.797813 
L 416.419558 245.252859 
L 416.039977 242.707906 
L 415.376567 240.162952 
L 412.136276 229.983136 
L 410.651377 224.893228 
L 409.767512 222.348274 
L 408.695771 219.803321 
L 407.404552 217.258367 
L 405.902332 214.713413 
L 402.43634 209.623505 
L 396.735117 201.988643 
L 388.991176 191.808828 
L 387.211956 189.263874 
L 385.575673 186.71892 
L 384.096679 184.173966 
L 381.522337 179.084058 
L 377.866186 171.449197 
L 372.60361 161.269381 
L 371.452461 158.724427 
L 370.451096 156.179474 
L 369.607891 153.63452 
L 368.322979 148.544612 
L 367.362455 143.454704 
L 366.18452 135.819843 
L 365.585644 130.729935 
L 365.17472 125.640027 
L 364.807909 118.005165 
L 364.149156 97.645534 
L 364.022457 84.920765 
L 364.01487 79.830857 
L 364.01487 79.830857 
" style="fill:none;stroke:#4c72b0;stroke-linecap:round;stroke-width:1.75;"/>
   </g>
   <g id="patch_8">
    <path d="M 364.010714 403.04 
L 364.010714 79.830857 
" style="fill:none;"/>
   </g>
  </g>
 </g>
 <defs>
  <clipPath id="pa4d7da7f7a">
   <rect height="323.209143" width="319.169857" x="33.835" y="79.830857"/>
  </clipPath>
  <clipPath id="p08bc3e0719">
   <rect height="55.725714" width="319.169857" x="33.835" y="12.96"/>
  </clipPath>
  <clipPath id="pd24bb1c5ca">
   <rect height="323.209143" width="55.029286" x="364.010714" y="79.830857"/>
  </clipPath>
 </defs>
</svg>
