<?xml version="1.0" encoding="utf-8" standalone="no"?>
<!DOCTYPE svg PUBLIC "-//W3C//DTD SVG 1.1//EN"
  "http://www.w3.org/Graphics/SVG/1.1/DTD/svg11.dtd">
<!-- Created with matplotlib (http://matplotlib.org/) -->
<svg height="288pt" version="1.1" viewBox="0 0 864 288" width="864pt" xmlns="http://www.w3.org/2000/svg" xmlns:xlink="http://www.w3.org/1999/xlink">
 <defs>
  <style type="text/css">
*{stroke-linecap:butt;stroke-linejoin:round;}
  </style>
 </defs>
 <g id="figure_1">
  <g id="patch_1">
   <path d="M 0 288 
L 864 288 
L 864 0 
L 0 0 
z
" style="fill:#ffffff;"/>
  </g>
  <g id="axes_1">
   <g id="patch_2">
    <path d="M 108 252 
L 777.6 252 
L 777.6 34.56 
L 108 34.56 
z
" style="fill:#ffffff;"/>
   </g>
   <g id="matplotlib.axis_1">
    <g id="xtick_1">
     <g id="line2d_1">
      <defs>
       <path d="M 0 0 
L 0 3.5 
" id="mf5e335ed06" style="stroke:#000000;stroke-width:0.8;"/>
      </defs>
      <g>
       <use style="stroke:#000000;stroke-width:0.8;" x="108" xlink:href="#mf5e335ed06" y="252"/>
      </g>
     </g>
    </g>
    <g id="xtick_2">
     <g id="line2d_2">
      <g>
       <use style="stroke:#000000;stroke-width:0.8;" x="145.2" xlink:href="#mf5e335ed06" y="252"/>
      </g>
     </g>
     <g id="text_1">
      <!-- Mar -->
      <defs>
       <path d="M 64.90625 -1.40625 
C 65 0.703125 64.796875 2.90625 64.796875 4.796875 
C 64.796875 13.796875 64.703125 23.796875 64.703125 32.796875 
C 64.703125 40.203125 64.5 47.59375 64.5 55 
C 64.5 55.796875 64.40625 56.59375 64.296875 57.5 
C 64.203125 58.203125 64 59 63.796875 59.703125 
C 63.5 60.40625 63.09375 60.90625 62.59375 61.40625 
C 61.90625 62 61.203125 62.40625 60.296875 62.5 
C 59.5 62.59375 58.703125 62.703125 57.703125 62.703125 
C 53.40625 62.59375 49.203125 55.703125 47.296875 52.59375 
C 42.90625 45.296875 40.59375 41.796875 37.796875 37.5 
C 37.296875 36.5 35.59375 34 34.90625 33.203125 
C 32.5 36.5 29.90625 41.296875 26.40625 46.90625 
C 24.796875 49.5 21.90625 54.40625 19.796875 56.796875 
C 18.09375 58.59375 16.296875 62 13.59375 62.5 
C 12.796875 62.59375 11.90625 62.703125 11 62.703125 
C 9.90625 62.703125 8.796875 62.40625 7.796875 61.796875 
C 6.796875 61.203125 6.203125 60.40625 5.703125 59.40625 
C 5.203125 58.203125 4.796875 56.90625 4.796875 55.5 
C 4.40625 49.90625 4.203125 44.203125 4.203125 38.40625 
L 4.203125 25 
L 4.09375 9.59375 
L 4 1.796875 
C 4 0 4.09375 -1.796875 4.203125 -3.59375 
C 4.40625 -5.296875 5.296875 -7.59375 7 -8.703125 
C 12.5 -11.59375 17 -7.703125 17 -3.203125 
C 17.40625 -3.09375 17.5 38.90625 17.59375 39.40625 
C 21.90625 31.40625 26 26 29.203125 22 
C 30.40625 20.5 32.59375 18 34.796875 18.203125 
C 38.59375 18.5 40.90625 21.203125 51.296875 38.5 
C 51.5 34.09375 51.40625 33.796875 51.40625 33.40625 
C 51.5 28.703125 51.5 29.09375 51.5 24.796875 
L 51.59375 9.5 
L 51.59375 1.703125 
C 51.703125 -1.796875 51.203125 -6.5 54.90625 -8.796875 
C 56.40625 -9.5 58.09375 -9.796875 60 -9.203125 
C 61.09375 -9.09375 61.90625 -8.703125 62.59375 -8.09375 
C 63.09375 -7.703125 63.59375 -7 63.90625 -6.296875 
C 64.5 -4.796875 64.796875 -3 64.90625 -1.40625 
z
" id="BMJUAOTF-4d"/>
       <path d="M 15.703125 33.5 
C 10.796875 31.09375 6.90625 26.703125 5 19.5 
C 2.09375 8.59375 5.40625 -3.90625 16.796875 -6.90625 
C 21.203125 -8.09375 24.796875 -8.296875 29.09375 -7.796875 
C 34.09375 -7.09375 37.5 -5 40.59375 -1 
C 42.40625 -3.90625 45.296875 -8.296875 49.40625 -7.5 
C 52.796875 -6.90625 53.90625 -3.5 53.203125 -0.40625 
C 51.703125 6.09375 47.40625 11 46.40625 17.796875 
C 45.59375 22.796875 43.90625 26.90625 40.40625 30.40625 
C 33.59375 37 23.796875 37.59375 15.703125 33.5 
z
M 18.203125 21.796875 
C 22 25.5 30.296875 26 33.40625 20.90625 
C 37.703125 14 33.40625 2.59375 25.40625 3.09375 
C 21.90625 3.296875 18.296875 4.703125 17 6.59375 
C 14 10.90625 14.40625 18.203125 18.203125 21.796875 
z
" id="BMJUAOTF-61"/>
       <path d="M 4.09375 12.203125 
C 4 6.90625 4.203125 -0.796875 4.59375 -4.796875 
C 5 -6.90625 7.09375 -9.703125 9.5 -9.796875 
C 18.40625 -10.40625 18 -1.09375 17.90625 6.09375 
L 17.90625 20.5 
C 17.90625 20.5 23.296875 28.59375 32.203125 27.296875 
C 33.59375 27 36 25.796875 37.40625 25.5 
C 40 24.796875 42.40625 24.09375 44.203125 27.40625 
C 46.703125 32.09375 40.796875 36.40625 36.59375 38 
C 33.296875 39.09375 30.796875 39 27.5 38.796875 
C 26.90625 38.796875 19.796875 37.703125 17.5 33.5 
C 17.40625 37.703125 17.09375 41.59375 11.5 41.703125 
C 8.90625 41.796875 6.296875 41.09375 5.296875 38.703125 
C 4 35.59375 4.09375 30 4.09375 26.796875 
z
" id="BMJUAOTF-72"/>
      </defs>
      <g transform="translate(132.052734 268.285937)scale(0.15 -0.15)">
       <use xlink:href="#BMJUAOTF-4d"/>
       <use x="68.999985" xlink:href="#BMJUAOTF-61"/>
       <use x="126.499969" xlink:href="#BMJUAOTF-72"/>
      </g>
      <!-- 2018 -->
      <defs>
       <path d="M 15.796875 40.09375 
C 16.703125 41.40625 17.40625 43.09375 18.203125 44.5 
C 20.796875 48.296875 25.203125 50.40625 29.796875 50.40625 
C 36.09375 50.40625 40.796875 46.5 40.796875 39.796875 
C 40.796875 33.703125 37.40625 29.296875 28 21.5 
C 24.40625 18.40625 20.203125 15.40625 16.703125 12.296875 
C 11.90625 8.296875 4.59375 3.90625 4.59375 -2.90625 
C 4.59375 -4.90625 3.90625 -7.09375 6.296875 -7.703125 
C 7.5 -8.09375 9.203125 -7.796875 10.5 -7.796875 
L 46.40625 -7.796875 
C 48.703125 -7.796875 51.5 -8.40625 53.203125 -6.40625 
C 55 -4.5 54.90625 0.796875 52.796875 2.59375 
C 50.703125 4.40625 46.703125 3.703125 44 3.90625 
C 40.703125 4.203125 37.296875 3.90625 33.90625 3.90625 
C 31 3.90625 29.796875 3.703125 26.90625 3.90625 
C 22.09375 4.296875 29.59375 7.90625 31 9 
C 33.09375 10.703125 35.296875 12.5 37.296875 14.203125 
C 49.40625 24.09375 53.09375 29.90625 53.09375 40.703125 
C 53.09375 52.09375 46.90625 59.296875 36.296875 62.59375 
C 28.5 65.09375 17.796875 62.796875 11.5 57.59375 
C 8.09375 54.796875 4.5 48.90625 4.09375 44.5 
C 3.59375 38.09375 11.90625 33.90625 15.796875 40.09375 
z
" id="BMJUAOTF-32"/>
       <path d="M 30.703125 -8.296875 
C 37.40625 -8.09375 43.5 -5.203125 48.5 -0.296875 
C 54.09375 5.296875 55.703125 13 56.703125 20.796875 
C 57.203125 25 57.40625 29.296875 56.90625 33.5 
C 55.40625 46.203125 50.09375 59.40625 37.90625 62.296875 
C 33.5 63.296875 27.703125 63.59375 23.40625 62.296875 
C 21.796875 61.703125 20.09375 61 18.59375 60.296875 
C 14.40625 58.40625 9.90625 52.296875 8 47.796875 
C 5.40625 41.5 4 34.5 4 27.703125 
C 4 17.59375 7.40625 7.203125 13.796875 0 
C 16.5 -3.09375 19.796875 -5.703125 23.40625 -7.09375 
C 25.796875 -8 28.296875 -8.296875 30.703125 -8.296875 
z
M 30.59375 50 
C 40.5 50.296875 43.703125 39.59375 44.296875 31.59375 
C 44.90625 23.5 43.90625 11.09375 36.203125 6.40625 
C 33.796875 4.90625 31 4.703125 28.296875 5.40625 
C 25.40625 6.203125 23.203125 8.09375 21.59375 10.5 
C 18.296875 15.5 17.203125 22.09375 17.203125 27.796875 
C 17.203125 33.296875 18.09375 39 20.90625 43.796875 
C 22 45.703125 23.5 47.5 25.296875 48.703125 
C 26.90625 49.703125 28.796875 50 30.59375 50 
z
" id="BMJUAOTF-30"/>
       <path d="M 20.796875 63.59375 
C 16.59375 62.40625 12.5 60.703125 8.296875 59.296875 
C 4.40625 58.09375 1.59375 55.796875 2.09375 51.59375 
C 2.5 47.5 5.796875 46.703125 9.296875 47.09375 
C 10.40625 47.09375 17.296875 48.203125 17.703125 49.40625 
C 17.703125 31.59375 17.40625 15 18.296875 -2.5 
C 18.296875 -4.703125 18.40625 -7.40625 20.796875 -8.203125 
C 23 -9 26.703125 -9.09375 28.59375 -7.59375 
C 31.40625 -5.59375 30.703125 -1.796875 30.703125 1 
L 30.703125 52.09375 
C 30.703125 55 31.203125 59.703125 30.09375 62.40625 
C 29 64.703125 25.296875 64.703125 23.296875 64.203125 
C 22.5 64.09375 21.703125 63.796875 20.796875 63.59375 
z
" id="BMJUAOTF-31"/>
       <path d="M 29.296875 -8.5 
C 36.59375 -8.5 44.796875 -6.59375 49.90625 -0.796875 
C 55.09375 5.09375 55.09375 14.296875 51.40625 21.09375 
C 49.59375 24.59375 46.40625 26.09375 43.203125 28.09375 
C 44.203125 27.90625 47.90625 30.40625 48.59375 31 
C 50.296875 32.59375 51.703125 34.40625 52.40625 36.5 
C 54.40625 44 52.90625 51.703125 47.59375 57.5 
C 44.90625 60.40625 41.296875 62.5 37.203125 63.203125 
C 33.90625 63.703125 30.5 63.40625 27.09375 63.40625 
C 22 63.296875 14 60.796875 10.59375 56.59375 
C 6.5 51.703125 5.09375 44.5 6.796875 38.5 
C 7.5 36.296875 8.40625 33.796875 10 32.09375 
C 10.703125 31.5 14.59375 28.203125 15.703125 28.203125 
C 9.40625 25.5 4.703125 20.40625 4.09375 13.203125 
C 3.796875 8.59375 4.796875 3.90625 7.296875 0.09375 
C 11.90625 -7.203125 21.40625 -8.5 29.296875 -8.5 
z
M 29.5 20.703125 
C 33.796875 20.90625 37.296875 20.203125 40.203125 16.703125 
C 42.203125 14.5 42.296875 10.40625 41.09375 7.59375 
C 39.59375 3.59375 36.5 3.40625 32.796875 2.59375 
C 30.296875 2.09375 27.59375 2.09375 25.09375 2.5 
C 20.5 3 15.703125 6.09375 16.203125 11.40625 
C 17 18.40625 23.59375 20.40625 29.5 20.703125 
z
M 29.59375 52.40625 
C 36.59375 52.90625 44 47.09375 40.59375 39.296875 
C 38.40625 34.5 34.59375 33.5 29.703125 33.5 
C 26.5 33.40625 23.09375 33.5 20.796875 36.09375 
C 18.90625 38 18.40625 40.203125 18.296875 42.703125 
C 18 49.90625 23.40625 52 29.59375 52.40625 
z
" id="BMJUAOTF-38"/>
      </defs>
      <g transform="translate(128.783203 284.29)scale(0.15 -0.15)">
       <use xlink:href="#BMJUAOTF-32"/>
       <use x="58.499985" xlink:href="#BMJUAOTF-30"/>
       <use x="119.699982" xlink:href="#BMJUAOTF-31"/>
       <use x="160.799973" xlink:href="#BMJUAOTF-38"/>
      </g>
     </g>
    </g>
    <g id="xtick_3">
     <g id="line2d_3">
      <g>
       <use style="stroke:#000000;stroke-width:0.8;" x="294" xlink:href="#mf5e335ed06" y="252"/>
      </g>
     </g>
     <g id="text_2">
      <!-- Apr -->
      <defs>
       <path d="M 65.703125 -1.796875 
C 65.59375 -1.203125 65.40625 -0.5 65.203125 0 
C 65 0.59375 64.90625 0.796875 64.90625 0.90625 
L 44.09375 52.09375 
L 43.5 53.703125 
C 43.203125 54.5 42.796875 55.09375 42.5 56 
C 42.203125 56.796875 41.90625 57.5 41.40625 58.296875 
C 40.90625 59.09375 40.40625 59.796875 39.90625 60.40625 
C 39.40625 61 38.796875 61.40625 38.203125 61.703125 
C 36.296875 62.40625 33.59375 62.40625 31.703125 61.703125 
C 31.09375 61.40625 30.5 61 30 60.40625 
C 29.5 59.796875 28.90625 59.09375 28.5 58.296875 
C 28 57.5 27.703125 56.796875 27.40625 56 
C 27.09375 55.09375 26.703125 54.5 26.40625 53.703125 
L 25.796875 52.09375 
L 5 0.90625 
C 5 0.796875 4.90625 0.59375 4.703125 0 
C 4.5 -0.5 4.296875 -1.203125 4.203125 -1.796875 
C 4.09375 -2.59375 4 -3.296875 4 -4.203125 
C 4 -5 4.203125 -5.703125 4.703125 -6.40625 
C 5.09375 -7 5.796875 -7.703125 6.703125 -8.09375 
C 8.40625 -9.09375 10.09375 -9.40625 12 -9.09375 
C 12.796875 -8.90625 13.703125 -8.5 14.5 -7.796875 
C 14.703125 -7.59375 14.90625 -7.5 15 -7.296875 
C 15.09375 -7.203125 15.296875 -6.90625 15.5 -6.796875 
C 16.09375 -6.203125 16.5 -5.5 16.796875 -4.90625 
C 17.203125 -4.296875 17.5 -3.703125 17.90625 -3 
C 18.203125 -2.5 18.40625 -2 18.59375 -1.5 
C 18.796875 -1 18.90625 -0.40625 19.09375 0.09375 
L 21.203125 5 
C 30.296875 4.90625 39.59375 5 48.703125 5 
L 50.796875 0.09375 
C 50.90625 -0.40625 51.09375 -1 51.296875 -1.5 
C 51.40625 -2 51.703125 -2.5 52 -3 
C 52.40625 -3.703125 52.703125 -4.296875 53 -4.90625 
C 53.40625 -5.5 53.796875 -6.203125 54.40625 -6.796875 
C 54.59375 -6.90625 54.796875 -7.203125 54.90625 -7.296875 
C 55 -7.5 55.203125 -7.59375 55.40625 -7.796875 
C 56.203125 -8.5 57.09375 -8.90625 57.90625 -9.09375 
C 59.796875 -9.40625 61.5 -9.09375 63.203125 -8.09375 
C 64.09375 -7.703125 64.796875 -7 65.203125 -6.40625 
C 65.703125 -5.703125 65.90625 -5 65.90625 -4.203125 
C 65.90625 -3.296875 65.796875 -2.59375 65.703125 -1.796875 
z
M 43.796875 18.296875 
L 26.09375 18.296875 
L 27.90625 22.703125 
C 29.59375 26.5 31.40625 30.703125 33.40625 35 
C 33.90625 36.203125 34.5 37.5 34.90625 38.703125 
C 35.40625 37.5 36 36.203125 36.5 35 
C 38.5 30.703125 40.296875 26.5 42 22.703125 
z
" id="BMJUAOTF-41"/>
       <path d="M 32 36.40625 
C 28.90625 37.703125 21.296875 39.90625 14.796875 40.09375 
C 10.09375 40.203125 6 39.203125 4.796875 35.90625 
C 4.5 35.09375 4.296875 34.296875 4.203125 33.5 
C 4.09375 32.59375 4 31.703125 4 30.90625 
L 4 -24.796875 
C 4 -25.40625 4.09375 -26.09375 4.203125 -26.703125 
C 4.40625 -27.5 4.59375 -28.203125 4.90625 -29 
C 5.203125 -29.796875 5.703125 -30.40625 6.203125 -30.90625 
C 6.90625 -31.5 7.703125 -31.796875 8.796875 -31.90625 
C 10.59375 -32.40625 12.203125 -32.203125 13.796875 -31.40625 
C 14.5 -30.796875 15 -30.09375 15.5 -29.296875 
C 16 -28.09375 16.40625 -27.09375 16.59375 -25.796875 
C 16.59375 -25.203125 16.90625 -24.5 16.90625 -23.703125 
L 16.90625 -5.40625 
C 23.296875 -5 29.296875 -4 34.796875 -1.703125 
C 42.09375 1.5 45.203125 8 45.09375 14.796875 
C 45.09375 23.90625 39.703125 33.09375 32 36.40625 
z
M 32.203125 14.796875 
C 31.296875 8.203125 23.203125 7 17 6.59375 
L 17 13.296875 
C 17.09375 17.796875 17 21.59375 17 25.796875 
C 18 25.796875 19 25.796875 19.40625 25.703125 
C 25.90625 24.796875 33.203125 22.296875 32.203125 14.796875 
z
" id="BMJUAOTF-70"/>
      </defs>
      <g transform="translate(281.407031 268.360937)scale(0.15 -0.15)">
       <use xlink:href="#BMJUAOTF-41"/>
       <use x="69.899994" xlink:href="#BMJUAOTF-70"/>
       <use x="119.099991" xlink:href="#BMJUAOTF-72"/>
      </g>
     </g>
    </g>
    <g id="xtick_4">
     <g id="line2d_4">
      <g>
       <use style="stroke:#000000;stroke-width:0.8;" x="480" xlink:href="#mf5e335ed06" y="252"/>
      </g>
     </g>
     <g id="text_3">
      <!-- May -->
      <defs>
       <path d="M 49.90625 36 
C 49.40625 36.90625 48.59375 37.703125 47.59375 38.09375 
C 46.703125 38.5 45.90625 38.796875 45.203125 39 
C 44.40625 39.09375 43.5 39.09375 42.59375 38.796875 
C 42 38.703125 41.5 38.296875 40.90625 37.796875 
C 40.296875 37.203125 39.90625 36.703125 39.296875 35.90625 
C 39.09375 35.40625 38.703125 35 38.5 34.5 
C 37.203125 32.5 36.296875 30 35.203125 27.703125 
C 34.296875 25.796875 33.40625 23.796875 32.40625 21.703125 
L 27.203125 10.703125 
C 24.59375 16.296875 21.796875 22.40625 19.296875 27.703125 
C 18.09375 30.703125 16.90625 33.796875 14.703125 36.203125 
C 12.5 38.796875 7.203125 39.796875 5 35.703125 
C 3 32.59375 4.703125 29.203125 6.203125 26.5 
C 10.5 18.59375 14.703125 8.40625 18.203125 0 
C 18.703125 -1.203125 19.40625 -2.796875 20.09375 -4.296875 
L 12.796875 -20.09375 
C 12.59375 -20.09375 12.5 -20.40625 12.296875 -20.90625 
C 12.09375 -21.296875 12 -22 11.703125 -22.703125 
C 11.59375 -23.40625 11.5 -24.09375 11.40625 -24.90625 
C 11.40625 -25.703125 11.5 -26.5 11.796875 -27.203125 
C 12.203125 -28 12.796875 -28.703125 13.703125 -29.203125 
C 15.09375 -30.40625 16.703125 -30.90625 18.40625 -30.796875 
C 20.40625 -30.703125 22.40625 -28.796875 23.296875 -27.203125 
C 23.59375 -26.5 23.90625 -26 24.296875 -25.296875 
C 26.09375 -22 27.59375 -18.703125 29.296875 -15.203125 
L 34.09375 -4.90625 
C 34.703125 -3.90625 35.09375 -2.796875 35.59375 -1.796875 
C 37.40625 2.09375 39.40625 6.09375 41.5 10.40625 
C 43.59375 14.796875 45.296875 18.5 47.09375 22.59375 
L 47.296875 23.09375 
C 47.90625 24.296875 49.40625 27.703125 49.90625 29 
C 50.5 30.296875 50.703125 31.59375 50.703125 33 
C 50.796875 34.09375 50.5 35.09375 49.90625 36 
z
" id="BMJUAOTF-79"/>
      </defs>
      <g transform="translate(466.402734 268.285937)scale(0.15 -0.15)">
       <use xlink:href="#BMJUAOTF-4d"/>
       <use x="68.999985" xlink:href="#BMJUAOTF-61"/>
       <use x="126.499969" xlink:href="#BMJUAOTF-79"/>
      </g>
     </g>
    </g>
    <g id="xtick_5">
     <g id="line2d_5">
      <g>
       <use style="stroke:#000000;stroke-width:0.8;" x="628.8" xlink:href="#mf5e335ed06" y="252"/>
      </g>
     </g>
     <g id="text_4">
      <!-- Jun -->
      <defs>
       <path d="M 57.90625 59.703125 
C 57.203125 60.59375 56.40625 61.09375 55.296875 61.40625 
C 54 61.90625 52.59375 62.203125 51 62.296875 
C 49.59375 62.296875 48.09375 62.40625 46.703125 62.40625 
L 46.09375 62.40625 
C 41.296875 62.5 36.203125 62.5 31 62.5 
C 29.703125 62.40625 28.59375 62.40625 27.796875 62.40625 
L 18.203125 62.40625 
C 17.203125 62.40625 16.203125 62.40625 15.296875 62.296875 
C 14.296875 62.203125 13.296875 62 12.40625 61.796875 
C 11.59375 61.59375 10.90625 61.203125 10.5 60.90625 
C 9.703125 60.296875 9.203125 59.59375 9.09375 58.90625 
C 8.90625 58.203125 8.90625 57.40625 8.90625 56.703125 
C 8.90625 55.703125 9.203125 53.90625 9.90625 53.203125 
C 10.59375 52.296875 11.59375 51.703125 12.796875 51.296875 
C 13.90625 51 14.90625 50.703125 16 50.59375 
L 16 50.5 
L 17.40625 50.5 
C 19.09375 50.40625 29.09375 50.40625 30.703125 50.203125 
L 31 50.203125 
C 31 50 31 49.796875 30.90625 49.59375 
L 30.90625 49.203125 
C 30.90625 42.203125 31.09375 35.40625 31 28.40625 
C 30.796875 20.5 33.5 -0.59375 17.203125 3.296875 
C 12.09375 4.5 9.5 12.203125 4.296875 9.203125 
C -1.59375 5.90625 1.796875 -1.203125 5.203125 -4.296875 
C 11.703125 -10.40625 24.703125 -11.09375 33.09375 -7.796875 
C 42.203125 -4.203125 44.40625 4.796875 45.09375 12.90625 
C 45.90625 24.796875 44.796875 37 44.90625 48.90625 
L 44.90625 50.59375 
L 50.59375 50.59375 
C 51.5 50.59375 52.296875 50.703125 53.203125 50.796875 
C 54.09375 50.90625 54.90625 51 55.703125 51.203125 
C 56.5 51.40625 57 51.796875 57.40625 52.203125 
C 58.203125 52.90625 58.59375 53.5 58.796875 54.203125 
C 58.90625 54.796875 59 56.296875 58.90625 57.09375 
C 58.90625 58.09375 58.5 58.90625 57.90625 59.703125 
z
" id="BMJUAOTF-4a"/>
       <path d="M 45.09375 15.203125 
C 45.296875 22.09375 45.5 31.59375 44 35.90625 
C 42.5 40.59375 34.203125 40.296875 32.90625 35.59375 
C 31.796875 32.09375 32.40625 21.796875 32.40625 15.5 
C 32.40625 8.203125 31.59375 4.59375 28.59375 3.703125 
C 15.59375 -0.09375 16.796875 13.796875 16.40625 22.90625 
C 16.203125 26 16.40625 30 16 33.09375 
C 15.296875 38.90625 11.40625 40.796875 7.40625 38.703125 
C 3.796875 36.796875 4.40625 31 4.296875 27.5 
C 4 23 4 18.5 4.296875 13.90625 
C 4.59375 6.90625 5.59375 -2.703125 12.09375 -6.59375 
C 18.5 -10.59375 28.59375 -11.09375 36.09375 -7.5 
C 44.703125 -3.5 44.703125 6.5 45.09375 15.203125 
z
" id="BMJUAOTF-75"/>
       <path d="M 4.09375 12.703125 
C 4.09375 8.296875 4.09375 4.796875 4.5 0.40625 
C 4.703125 -2.5 5 -6.59375 7.90625 -8.296875 
C 11.296875 -10.09375 14.09375 -8.703125 15.09375 -5.5 
C 16.296875 -2.40625 16 3 16 7.40625 
C 15.90625 11.703125 16.203125 13.90625 16.09375 17.296875 
C 16 21.796875 19.703125 24.90625 24 25.40625 
C 29.59375 25.90625 33.09375 22.40625 33.09375 16.203125 
C 33 13.5 33.203125 10.203125 33.203125 7.703125 
C 33.296875 4.59375 33.296875 -0.40625 33.90625 -3.40625 
C 34.59375 -7.09375 35.796875 -9.59375 41.40625 -8.40625 
C 45.296875 -7.59375 44.59375 -1 44.796875 2.40625 
C 45.09375 6.59375 45.09375 10.90625 44.796875 15.09375 
C 44.5 20.90625 44.59375 26.796875 40.90625 31.5 
C 37.59375 35.5 32.203125 37.796875 27.09375 37.796875 
C 24.90625 37.703125 18.796875 36.5 16.203125 31.796875 
C 16 35.40625 16.09375 39 11.203125 39.796875 
C 8.796875 40.40625 6 39.203125 4.90625 36.703125 
C 3.703125 33.90625 4.09375 30.203125 4.09375 27.09375 
z
" id="BMJUAOTF-6e"/>
      </defs>
      <g transform="translate(616.740234 268.285937)scale(0.15 -0.15)">
       <use xlink:href="#BMJUAOTF-4a"/>
       <use x="62.399994" xlink:href="#BMJUAOTF-75"/>
       <use x="111.699982" xlink:href="#BMJUAOTF-6e"/>
      </g>
     </g>
    </g>
    <g id="xtick_6">
     <g id="line2d_6">
      <g>
       <use style="stroke:#000000;stroke-width:0.8;" x="777.6" xlink:href="#mf5e335ed06" y="252"/>
      </g>
     </g>
     <g id="text_5">
      <!-- Jul -->
      <defs>
       <path d="M 17.296875 -0.59375 
C 17.40625 -0.09375 17.40625 0.296875 17.40625 0.90625 
C 17.40625 1.40625 17.296875 1.90625 17.296875 2.40625 
L 17.296875 23.40625 
C 17.296875 27.5 17.40625 31.703125 17.40625 36.203125 
C 17.5 40.796875 17.5 44.5 17.296875 48.796875 
L 17.296875 49.203125 
C 17.296875 50.5 17.203125 53.90625 17.09375 55.203125 
C 17.09375 56.40625 16.703125 57.703125 16.09375 58.90625 
C 15.703125 59.796875 15 60.59375 14.09375 61.09375 
C 13 61.59375 11.90625 61.90625 10.90625 61.90625 
C 9.90625 61.90625 9.09375 61.90625 8.203125 61.59375 
C 7.40625 61.5 6.59375 61.09375 5.90625 60.59375 
C 5.40625 60.203125 5 59.59375 4.796875 59 
C 4.5 58.203125 4.296875 57.59375 4.203125 56.703125 
C 4.09375 56 4 55.296875 4 54.40625 
L 4 -1.59375 
C 4 -2.09375 4.09375 -2.703125 4.296875 -3.40625 
C 4.40625 -4 4.59375 -4.703125 4.90625 -5.40625 
C 5.203125 -6.203125 5.703125 -6.703125 6.296875 -7.09375 
C 6.90625 -7.59375 7.90625 -8 9 -8.09375 
C 10.796875 -8.5 12.5 -8.296875 14.09375 -7.5 
C 14.796875 -7.09375 15.5 -6.5 15.90625 -5.703125 
L 16.203125 -5.09375 
C 16.296875 -5 16.40625 -4.796875 16.5 -4.59375 
L 17.09375 -2.5 
C 17.09375 -1.90625 17.203125 -1.296875 17.296875 -0.59375 
z
" id="BMJUAOTF-6c"/>
      </defs>
      <g transform="translate(767.609766 268.285937)scale(0.15 -0.15)">
       <use xlink:href="#BMJUAOTF-4a"/>
       <use x="62.399994" xlink:href="#BMJUAOTF-75"/>
       <use x="111.699982" xlink:href="#BMJUAOTF-6c"/>
      </g>
     </g>
    </g>
    <g id="xtick_7">
     <g id="line2d_7">
      <defs>
       <path d="M 0 0 
L 0 2 
" id="mfeb8f56cda" style="stroke:#000000;stroke-width:0.6;"/>
      </defs>
      <g>
       <use style="stroke:#000000;stroke-width:0.6;" x="108" xlink:href="#mfeb8f56cda" y="252"/>
      </g>
     </g>
    </g>
    <g id="xtick_8">
     <g id="line2d_8">
      <g>
       <use style="stroke:#000000;stroke-width:0.6;" x="182.4" xlink:href="#mfeb8f56cda" y="252"/>
      </g>
     </g>
    </g>
    <g id="xtick_9">
     <g id="line2d_9">
      <g>
       <use style="stroke:#000000;stroke-width:0.6;" x="219.6" xlink:href="#mfeb8f56cda" y="252"/>
      </g>
     </g>
    </g>
    <g id="xtick_10">
     <g id="line2d_10">
      <g>
       <use style="stroke:#000000;stroke-width:0.6;" x="256.8" xlink:href="#mfeb8f56cda" y="252"/>
      </g>
     </g>
    </g>
    <g id="xtick_11">
     <g id="line2d_11">
      <g>
       <use style="stroke:#000000;stroke-width:0.6;" x="331.2" xlink:href="#mfeb8f56cda" y="252"/>
      </g>
     </g>
    </g>
    <g id="xtick_12">
     <g id="line2d_12">
      <g>
       <use style="stroke:#000000;stroke-width:0.6;" x="368.4" xlink:href="#mfeb8f56cda" y="252"/>
      </g>
     </g>
    </g>
    <g id="xtick_13">
     <g id="line2d_13">
      <g>
       <use style="stroke:#000000;stroke-width:0.6;" x="405.6" xlink:href="#mfeb8f56cda" y="252"/>
      </g>
     </g>
    </g>
    <g id="xtick_14">
     <g id="line2d_14">
      <g>
       <use style="stroke:#000000;stroke-width:0.6;" x="442.8" xlink:href="#mfeb8f56cda" y="252"/>
      </g>
     </g>
    </g>
    <g id="xtick_15">
     <g id="line2d_15">
      <g>
       <use style="stroke:#000000;stroke-width:0.6;" x="517.2" xlink:href="#mfeb8f56cda" y="252"/>
      </g>
     </g>
    </g>
    <g id="xtick_16">
     <g id="line2d_16">
      <g>
       <use style="stroke:#000000;stroke-width:0.6;" x="554.4" xlink:href="#mfeb8f56cda" y="252"/>
      </g>
     </g>
    </g>
    <g id="xtick_17">
     <g id="line2d_17">
      <g>
       <use style="stroke:#000000;stroke-width:0.6;" x="591.6" xlink:href="#mfeb8f56cda" y="252"/>
      </g>
     </g>
    </g>
    <g id="xtick_18">
     <g id="line2d_18">
      <g>
       <use style="stroke:#000000;stroke-width:0.6;" x="666" xlink:href="#mfeb8f56cda" y="252"/>
      </g>
     </g>
    </g>
    <g id="xtick_19">
     <g id="line2d_19">
      <g>
       <use style="stroke:#000000;stroke-width:0.6;" x="703.2" xlink:href="#mfeb8f56cda" y="252"/>
      </g>
     </g>
    </g>
    <g id="xtick_20">
     <g id="line2d_20">
      <g>
       <use style="stroke:#000000;stroke-width:0.6;" x="740.4" xlink:href="#mfeb8f56cda" y="252"/>
      </g>
     </g>
    </g>
   </g>
   <g id="matplotlib.axis_2">
    <g id="ytick_1">
     <g id="line2d_21">
      <defs>
       <path d="M 0 0 
L -3.5 0 
" id="m9812443d76" style="stroke:#000000;stroke-width:0.8;"/>
      </defs>
      <g>
       <use style="stroke:#000000;stroke-width:0.8;" x="108" xlink:href="#m9812443d76" y="252"/>
      </g>
     </g>
     <g id="text_6">
      <!-- 0 -->
      <g transform="translate(91.819531 256.642969)scale(0.15 -0.15)">
       <use xlink:href="#BMJUAOTF-30"/>
      </g>
     </g>
    </g>
    <g id="ytick_2">
     <g id="line2d_22">
      <g>
       <use style="stroke:#000000;stroke-width:0.8;" x="108" xlink:href="#m9812443d76" y="218.547692"/>
      </g>
     </g>
     <g id="text_7">
      <!-- 10000 -->
      <g transform="translate(58.114063 223.190661)scale(0.15 -0.15)">
       <use xlink:href="#BMJUAOTF-31"/>
       <use x="41.099991" xlink:href="#BMJUAOTF-30"/>
       <use x="102.299988" xlink:href="#BMJUAOTF-30"/>
       <use x="163.499985" xlink:href="#BMJUAOTF-30"/>
       <use x="224.699982" xlink:href="#BMJUAOTF-30"/>
      </g>
     </g>
    </g>
    <g id="ytick_3">
     <g id="line2d_23">
      <g>
       <use style="stroke:#000000;stroke-width:0.8;" x="108" xlink:href="#m9812443d76" y="185.095385"/>
      </g>
     </g>
     <g id="text_8">
      <!-- 20000 -->
      <g transform="translate(55.503125 189.738353)scale(0.15 -0.15)">
       <use xlink:href="#BMJUAOTF-32"/>
       <use x="58.499985" xlink:href="#BMJUAOTF-30"/>
       <use x="119.699982" xlink:href="#BMJUAOTF-30"/>
       <use x="180.899979" xlink:href="#BMJUAOTF-30"/>
       <use x="242.099976" xlink:href="#BMJUAOTF-30"/>
      </g>
     </g>
    </g>
    <g id="ytick_4">
     <g id="line2d_24">
      <g>
       <use style="stroke:#000000;stroke-width:0.8;" x="108" xlink:href="#m9812443d76" y="151.643077"/>
      </g>
     </g>
     <g id="text_9">
      <!-- 30000 -->
      <defs>
       <path d="M 5.703125 52.5 
C 8.703125 49.90625 14.796875 50.5 18.40625 50.5 
L 25.09375 50.5 
C 26.703125 50.5 31.296875 51.203125 30.5 49 
C 30 47 26.703125 43.59375 24.703125 41.59375 
C 21.59375 38.09375 12.09375 31.203125 16.59375 26 
C 20.703125 21.40625 28.296875 23.203125 33.40625 20.203125 
C 38.796875 17.09375 39.796875 9.796875 33.796875 6.203125 
C 28.59375 3.09375 23 4 18.09375 7 
C 14.90625 8.796875 11.5 11.296875 7.5 9.90625 
C 2.09375 8 3.90625 1.40625 7.09375 -1.703125 
C 11.703125 -6.40625 20.09375 -8.40625 26.296875 -8.40625 
C 40.59375 -8.40625 51 1.296875 51 14.09375 
C 51 26.90625 41.40625 32.09375 30.90625 33.5 
C 33.796875 36.5 38 40.296875 40.90625 43.296875 
C 44.09375 46.5 48.5 51 48.203125 56.296875 
C 48 60.90625 43.703125 62.296875 39.703125 62.5 
C 34.796875 62.703125 28.90625 62.90625 24.203125 62.90625 
C 21.203125 62.90625 19 63 16 62.90625 
C 12.09375 62.703125 8.90625 62.796875 5.90625 60.09375 
C 4.796875 59.09375 4.5 57.59375 4.40625 56.09375 
C 4.40625 54.40625 4.796875 53.296875 5.703125 52.5 
z
" id="BMJUAOTF-33"/>
      </defs>
      <g transform="translate(56.028125 156.286046)scale(0.15 -0.15)">
       <use xlink:href="#BMJUAOTF-33"/>
       <use x="54.999985" xlink:href="#BMJUAOTF-30"/>
       <use x="116.199982" xlink:href="#BMJUAOTF-30"/>
       <use x="177.399979" xlink:href="#BMJUAOTF-30"/>
       <use x="238.599976" xlink:href="#BMJUAOTF-30"/>
      </g>
     </g>
    </g>
    <g id="ytick_5">
     <g id="line2d_25">
      <g>
       <use style="stroke:#000000;stroke-width:0.8;" x="108" xlink:href="#m9812443d76" y="118.190769"/>
      </g>
     </g>
     <g id="text_10">
      <!-- 40000 -->
      <defs>
       <path d="M 46 61.203125 
C 44.40625 63.5 41.203125 63.296875 38 61.796875 
C 34.703125 60.203125 32.703125 56.90625 30.796875 54.09375 
C 28.296875 50.5 25.203125 47.296875 22.59375 43.703125 
C 17.796875 36.796875 13.203125 29.59375 8.09375 22.796875 
C 5.40625 19.296875 1.5 14 6.203125 10.40625 
C 9.203125 8.09375 14 8.5 17.796875 8.5 
L 35.40625 8.5 
C 36 8.5 35.703125 -0.90625 35.796875 -1.796875 
C 36 -4 36.40625 -7.203125 38.796875 -8 
C 40.296875 -8.40625 43.703125 -8.296875 44.90625 -7.5 
C 47.796875 -5.59375 47.5 -0.703125 47.5 2.203125 
L 47.5 9 
C 47.703125 8.59375 51.59375 8.90625 52 8.90625 
C 55.703125 9.09375 58.796875 10.40625 58.796875 14.59375 
C 58.59375 18.09375 54.703125 19.40625 51.796875 19.40625 
L 47.5 19.40625 
L 47.5 27.90625 
C 47.5 33.296875 47.40625 38.703125 47.40625 44.09375 
C 47.296875 48.796875 47.5 53.796875 46.90625 58.40625 
C 46.796875 59.5 46.40625 60.59375 46 61.203125 
z
M 36.09375 19.796875 
L 19.5 19.796875 
L 36.09375 43.203125 
z
" id="BMJUAOTF-34"/>
      </defs>
      <g transform="translate(54.858594 122.833738)scale(0.15 -0.15)">
       <use xlink:href="#BMJUAOTF-34"/>
       <use x="62.799988" xlink:href="#BMJUAOTF-30"/>
       <use x="123.999985" xlink:href="#BMJUAOTF-30"/>
       <use x="185.199982" xlink:href="#BMJUAOTF-30"/>
       <use x="246.399979" xlink:href="#BMJUAOTF-30"/>
      </g>
     </g>
    </g>
    <g id="ytick_6">
     <g id="line2d_26">
      <g>
       <use style="stroke:#000000;stroke-width:0.8;" x="108" xlink:href="#m9812443d76" y="84.738462"/>
      </g>
     </g>
     <g id="text_11">
      <!-- 50000 -->
      <defs>
       <path d="M 10.296875 61.296875 
C 9.40625 60.40625 8.796875 59.09375 8.703125 56.90625 
C 8.5 53.09375 8.296875 49.203125 8 45.40625 
C 7.796875 41.5 7.59375 37.703125 7.40625 33.796875 
C 7.203125 31.5 6.796875 28.5 8.5 26.703125 
C 12.09375 22.5 16.09375 24.90625 20.40625 25.90625 
C 22.59375 26.59375 24.90625 26.796875 27.203125 26.796875 
C 35.90625 26.796875 41.59375 22.40625 41.59375 15.296875 
C 41.59375 7.90625 36.09375 3.09375 27.90625 3.09375 
C 24.203125 3.09375 20.796875 4.203125 17.796875 5.703125 
C 14.296875 7.59375 11.296875 11.90625 6.796875 9.703125 
C 3.796875 8.203125 3.5 4.796875 4.59375 2 
C 5.5 -0.59375 7.703125 -2.796875 10.09375 -4.203125 
C 18.59375 -9.703125 29.40625 -9.703125 38.796875 -6.09375 
C 46.796875 -3.296875 52.296875 3.5 53.40625 11.90625 
C 53.703125 13.09375 53.703125 14.296875 53.703125 15.59375 
C 53.703125 30.40625 43.09375 37.59375 29.59375 37.59375 
C 27.09375 37.59375 24.59375 37.296875 22.203125 36.703125 
C 19.40625 35.90625 18.296875 35.796875 18.59375 38.90625 
C 18.703125 41.203125 19 43.5 19 45.796875 
C 19 47.40625 18.90625 50.40625 21.09375 50.90625 
C 22.296875 51.296875 25.09375 51 26.5 51 
C 30.203125 51 32.796875 51.40625 36.59375 51.40625 
C 40.09375 51.40625 44 50.796875 47.40625 51.40625 
C 51 51.796875 52 56.40625 51.203125 59.09375 
C 49.90625 63.40625 44.40625 62.703125 40.796875 62.703125 
L 16.09375 62.703125 
C 13.5 62.703125 11.5 62.5 10.296875 61.296875 
z
" id="BMJUAOTF-35"/>
      </defs>
      <g transform="translate(55.622656 89.38143)scale(0.15 -0.15)">
       <use xlink:href="#BMJUAOTF-35"/>
       <use x="57.699997" xlink:href="#BMJUAOTF-30"/>
       <use x="118.899994" xlink:href="#BMJUAOTF-30"/>
       <use x="180.099991" xlink:href="#BMJUAOTF-30"/>
       <use x="241.299988" xlink:href="#BMJUAOTF-30"/>
      </g>
     </g>
    </g>
    <g id="ytick_7">
     <g id="line2d_27">
      <g>
       <use style="stroke:#000000;stroke-width:0.8;" x="108" xlink:href="#m9812443d76" y="51.286154"/>
      </g>
     </g>
     <g id="text_12">
      <!-- 60000 -->
      <defs>
       <path d="M 46.703125 47.203125 
C 49 45.796875 52.40625 47 53 48.09375 
C 56.09375 53 51.09375 57.40625 48.40625 59.09375 
C 38.5 65.203125 25.5 64.5 16.5 57.296875 
C 6.90625 49.703125 4 36.90625 4 25.203125 
C 4 11.09375 7.296875 3.796875 12.5 -1.5 
C 17.09375 -6 23.40625 -8.796875 31.90625 -8.796875 
C 46.59375 -8.796875 57.796875 1 57.796875 15 
C 57.796875 29.09375 46.90625 37 33.40625 37 
C 25.296875 37 20.40625 33.59375 16.796875 30 
C 17.09375 37.796875 19.59375 45.90625 27.296875 49.5 
C 32.09375 51.703125 38 51.296875 42.703125 49.5 
C 44.09375 49 45.5 48 46.703125 47.203125 
z
M 31.203125 25 
C 38.703125 25.40625 44.703125 23.203125 45.5 15.40625 
C 46.203125 8.203125 40.796875 2.703125 33.703125 1.90625 
C 27.296875 1.203125 19.5 4.296875 18.296875 11 
C 17.703125 13.796875 17.703125 16.796875 19.59375 19.09375 
C 22.5 22.59375 26.703125 24.703125 31.203125 25 
z
" id="BMJUAOTF-36"/>
      </defs>
      <g transform="translate(55.008594 55.929123)scale(0.15 -0.15)">
       <use xlink:href="#BMJUAOTF-36"/>
       <use x="61.799988" xlink:href="#BMJUAOTF-30"/>
       <use x="122.999985" xlink:href="#BMJUAOTF-30"/>
       <use x="184.199982" xlink:href="#BMJUAOTF-30"/>
       <use x="245.399979" xlink:href="#BMJUAOTF-30"/>
      </g>
     </g>
    </g>
   </g>
   <g id="line2d_28">
    <path clip-path="url(#p641839aa20)" d="M 145.2 211.857231 
L 182.4 52.958769 
L 219.6 191.785846 
L 256.8 134.916923 
L 294 181.750154 
L 331.2 131.571692 
L 368.4 171.714462 
L 405.6 175.059692 
L 442.8 171.714462 
L 480 154.988308 
L 517.2 121.536 
L 554.4 121.536 
L 591.6 158.333538 
L 628.8 131.571692 
L 666 91.428923 
L 703.2 178.404923 
L 740.4 235.273846 
" style="fill:none;stroke:#ff0000;stroke-dasharray:7.4,3.2;stroke-dashoffset:0;stroke-width:2;"/>
    <defs>
     <path d="M 0 7.5 
C 1.989023 7.5 3.896849 6.709753 5.303301 5.303301 
C 6.709753 3.896849 7.5 1.989023 7.5 0 
C 7.5 -1.989023 6.709753 -3.896849 5.303301 -5.303301 
C 3.896849 -6.709753 1.989023 -7.5 0 -7.5 
C -1.989023 -7.5 -3.896849 -6.709753 -5.303301 -5.303301 
C -6.709753 -3.896849 -7.5 -1.989023 -7.5 0 
C -7.5 1.989023 -6.709753 3.896849 -5.303301 5.303301 
C -3.896849 6.709753 -1.989023 7.5 0 7.5 
z
" id="me54a03a1a1" style="stroke:#ff0000;"/>
    </defs>
    <g clip-path="url(#p641839aa20)">
     <use style="fill:#ff0000;stroke:#ff0000;" x="145.2" xlink:href="#me54a03a1a1" y="211.857231"/>
     <use style="fill:#ff0000;stroke:#ff0000;" x="182.4" xlink:href="#me54a03a1a1" y="52.958769"/>
     <use style="fill:#ff0000;stroke:#ff0000;" x="219.6" xlink:href="#me54a03a1a1" y="191.785846"/>
     <use style="fill:#ff0000;stroke:#ff0000;" x="256.8" xlink:href="#me54a03a1a1" y="134.916923"/>
     <use style="fill:#ff0000;stroke:#ff0000;" x="294" xlink:href="#me54a03a1a1" y="181.750154"/>
     <use style="fill:#ff0000;stroke:#ff0000;" x="331.2" xlink:href="#me54a03a1a1" y="131.571692"/>
     <use style="fill:#ff0000;stroke:#ff0000;" x="368.4" xlink:href="#me54a03a1a1" y="171.714462"/>
     <use style="fill:#ff0000;stroke:#ff0000;" x="405.6" xlink:href="#me54a03a1a1" y="175.059692"/>
     <use style="fill:#ff0000;stroke:#ff0000;" x="442.8" xlink:href="#me54a03a1a1" y="171.714462"/>
     <use style="fill:#ff0000;stroke:#ff0000;" x="480" xlink:href="#me54a03a1a1" y="154.988308"/>
     <use style="fill:#ff0000;stroke:#ff0000;" x="517.2" xlink:href="#me54a03a1a1" y="121.536"/>
     <use style="fill:#ff0000;stroke:#ff0000;" x="554.4" xlink:href="#me54a03a1a1" y="121.536"/>
     <use style="fill:#ff0000;stroke:#ff0000;" x="591.6" xlink:href="#me54a03a1a1" y="158.333538"/>
     <use style="fill:#ff0000;stroke:#ff0000;" x="628.8" xlink:href="#me54a03a1a1" y="131.571692"/>
     <use style="fill:#ff0000;stroke:#ff0000;" x="666" xlink:href="#me54a03a1a1" y="91.428923"/>
     <use style="fill:#ff0000;stroke:#ff0000;" x="703.2" xlink:href="#me54a03a1a1" y="178.404923"/>
     <use style="fill:#ff0000;stroke:#ff0000;" x="740.4" xlink:href="#me54a03a1a1" y="235.273846"/>
    </g>
   </g>
   <g id="patch_3">
    <path d="M 108 252 
L 108 34.56 
" style="fill:none;stroke:#000000;stroke-linecap:square;stroke-linejoin:miter;stroke-width:0.8;"/>
   </g>
   <g id="patch_4">
    <path d="M 108 252 
L 777.6 252 
" style="fill:none;stroke:#000000;stroke-linecap:square;stroke-linejoin:miter;stroke-width:0.8;"/>
   </g>
   <g id="text_13">
    <!-- 1) 주별 사용금액 변화 -->
    <defs>
     <path d="M 6.796875 -14 
C 7.90625 -15.703125 10.796875 -16.40625 12.796875 -15.59375 
C 16.5 -14.296875 19.5 -9.09375 21.5 -6 
C 23.203125 -2.796875 24.703125 0.40625 25.703125 3.90625 
C 26.796875 7.203125 27.59375 10.59375 28 14.296875 
C 28.5 17.796875 28.59375 21.796875 28.59375 25.703125 
C 28.59375 28.796875 28.40625 32.40625 27.703125 36.40625 
C 27.09375 40.59375 26.09375 44.5 24.90625 48.59375 
C 23.59375 52.703125 22.203125 56.703125 20.203125 60.5 
C 18.703125 63.59375 16.90625 67.296875 13.90625 69.40625 
C 12.296875 70.296875 9.796875 70.90625 7.796875 70.59375 
C 3 70 6.59375 65.90625 7.796875 63.203125 
C 9.59375 58.296875 11.296875 53.59375 12.40625 48.796875 
C 14.09375 41.296875 15 33.5 15 25.796875 
C 15 22 14.796875 18.296875 14.40625 14.703125 
C 13.90625 11.40625 13.40625 8.09375 12.40625 4.703125 
C 11.59375 1.5 10.59375 -1.90625 9.296875 -5 
C 8.5 -7.296875 6.296875 -10.203125 6.59375 -12.703125 
C 6.59375 -13.203125 6.703125 -13.5 6.796875 -14 
z
" id="BMJUAOTF-29"/>
     <path id="BMJUAOTF-20"/>
     <path d="M 62.296875 37.59375 
C 59.796875 39 57.296875 40.59375 54.796875 42 
C 53.5 42.796875 52.203125 43.40625 50.90625 44.09375 
C 50.09375 44.59375 49.40625 45.09375 48.59375 45.5 
C 47.703125 45.90625 46.796875 46.40625 46 46.90625 
L 46 55 
C 46 55 52.203125 55.203125 56.296875 54.90625 
C 60.5 54.703125 71.296875 54.5 69.703125 61.90625 
C 68.296875 68.296875 60.796875 67.09375 56.40625 67.09375 
L 21.796875 67.09375 
C 19.703125 67.09375 19.203125 67 17.09375 67.09375 
L 14.796875 67.09375 
C 12.296875 67.09375 9.5 65.90625 8.5 63.5 
C 7.796875 61.90625 8 59.703125 8.796875 58.203125 
C 9.203125 57.296875 9.796875 56.5 10.59375 56.09375 
C 12 55.296875 13.90625 55.5 15.40625 55.296875 
C 17.40625 55.09375 18.703125 55.203125 20.796875 55.203125 
L 31.40625 55.203125 
L 31.40625 47.09375 
C 28.796875 46.09375 25.40625 44.09375 23.203125 42.796875 
C 20.796875 41.5 19.40625 40.796875 17.09375 39.5 
L 10.203125 35.59375 
C 8.40625 34.40625 7 33 6.5 30.796875 
C 6.296875 30 6.203125 29 6.296875 28.203125 
C 6.796875 25.296875 9.5 24.203125 11.90625 24 
C 14.90625 23.796875 17.703125 25.796875 20.296875 27.09375 
C 23.796875 28.90625 26.40625 30.203125 29.90625 32.203125 
C 32 33.40625 38.09375 36.40625 38.09375 36.40625 
C 38.09375 36.40625 43.203125 33.5 45 32.296875 
C 48 30.40625 51 28.796875 54.59375 27 
C 58.40625 25.09375 63.40625 23.59375 67.59375 24.59375 
C 70.90625 25.296875 71.59375 30.296875 69.40625 32.40625 
C 67.296875 34.40625 64.796875 36.296875 62.296875 37.59375 
z
M 10.796875 6.09375 
C 18.203125 6 22.203125 6.203125 29.59375 6.296875 
L 32.09375 6.296875 
C 32.09375 3.5 32.09375 0.5 32.203125 -1.90625 
C 32.203125 -3.40625 32 -5.203125 32.296875 -6.703125 
C 32.59375 -8.5 33.40625 -10.90625 35.09375 -11.90625 
C 37.203125 -13.09375 40.203125 -13 42.203125 -11.703125 
C 44.40625 -10.296875 45.296875 -7.703125 45.59375 -5.203125 
C 46.09375 -2 45.796875 2.5 45.703125 6.203125 
L 49.5 6.203125 
C 52.09375 6.203125 54.703125 6.09375 57.296875 6.203125 
L 61.203125 6.203125 
C 65.5 6.296875 75.90625 5.796875 75.90625 12.40625 
C 75.90625 18.296875 69.40625 18.5 65.203125 18.296875 
L 10.703125 18.296875 
C 10.5 18.296875 5.59375 18.40625 3.5 16.296875 
C 1.703125 14.40625 1.703125 11.5 3.09375 9.296875 
C 4.796875 6.703125 7.703125 6.203125 10.796875 6.09375 
z
" id="BMJUAOTF-c8fc"/>
     <path d="M 71.5 -3.59375 
L 20.5 -3.59375 
L 20.5 0.09375 
L 68 0.09375 
C 69.703125 0.09375 71.5 0 73.203125 1 
C 75.296875 2.296875 76.09375 4.203125 76.09375 6 
L 76.09375 13 
C 76.09375 17.703125 72.296875 19.59375 65.59375 19.59375 
L 20.40625 19.59375 
C 19.703125 19.59375 19.203125 19.59375 18.5 19.703125 
L 16.796875 19.703125 
C 15.703125 19.703125 14.703125 19.59375 13.703125 19.5 
C 12.203125 19.203125 9.203125 18.90625 8.5 16.796875 
C 8 15.203125 8.296875 13.90625 9.09375 12.5 
C 9.796875 11.40625 10.796875 11.40625 12 11.09375 
C 13 10.90625 14.09375 10.90625 15.40625 10.90625 
L 17.796875 10.90625 
C 18.59375 11 19.296875 10.90625 20 10.90625 
L 64.59375 10.90625 
L 64.59375 7.40625 
L 21 7.40625 
C 20.59375 7.40625 20.203125 7.5 19.59375 7.5 
L 16.5 7.5 
C 13.59375 7.5 11.09375 7.203125 9.296875 5.296875 
C 8.09375 3.90625 8.09375 1.5 8.203125 0 
L 8.59375 -6.59375 
C 8.796875 -9.59375 10 -12.09375 13.59375 -12.203125 
C 16.5 -12.296875 19.5 -12.296875 22.203125 -12.296875 
L 68.703125 -12.296875 
C 70 -12.296875 71.796875 -12.296875 73.40625 -11.59375 
C 75.90625 -10.703125 76.703125 -9 76 -6.59375 
C 75.40625 -4.5 73.59375 -3.703125 71.5 -3.59375 
z
M 47.90625 33.203125 
L 47.90625 59.09375 
C 47.90625 59.09375 48.09375 65.5 45.296875 67.5 
C 43.796875 68.59375 40.796875 68.40625 39.296875 67.40625 
C 37.203125 66.09375 36.703125 62.59375 36.703125 60.40625 
L 36.703125 54.90625 
L 19 54.90625 
C 19.09375 57.09375 19.203125 58.203125 19 60.203125 
C 18.796875 62.203125 18.40625 64.09375 17.296875 65.90625 
C 15.203125 69.40625 9.703125 68.40625 7.796875 65 
C 6.09375 62 6.59375 59.5 6.5 56.09375 
C 6.203125 50.5 6.5 40.5 6.5 35 
C 6.5 31.59375 8.59375 27.796875 12.90625 27.703125 
C 20.09375 27.40625 26.40625 27.5 33.59375 27.5 
C 37 27.5 39.203125 27.203125 42.5 27.703125 
C 45 28 47.90625 30.5 47.90625 33.203125 
z
M 64.40625 31 
C 64.5 29.59375 64.703125 27.90625 65.5 26.40625 
C 65.90625 25.59375 66.5 25 67.203125 24.5 
C 68.203125 23.796875 69.296875 23.40625 70.5 23.40625 
C 71.5 23.40625 73.09375 23.703125 74 24.203125 
C 76.59375 25.796875 76.296875 31.703125 76.296875 31.796875 
L 76.296875 60.40625 
C 76.296875 62.09375 76.5 63.90625 76 65.5 
C 75.796875 66.09375 75.40625 66.703125 75 67.203125 
C 73.90625 68.40625 72.296875 69.09375 70.703125 68.90625 
C 69.40625 68.796875 67.796875 68.59375 66.703125 67.796875 
C 64 65.796875 65.296875 61.703125 64.703125 59.09375 
C 64.59375 58.59375 59.703125 58.796875 59.296875 58.796875 
C 55.09375 58.59375 52.796875 53.796875 54.90625 50.296875 
C 56.203125 48 60.203125 47.59375 62.09375 47.59375 
L 64.40625 47.59375 
C 64.40625 46.296875 64.5 42.40625 64.5 42.40625 
C 64.5 42.40625 58.703125 42.40625 57.59375 42.09375 
C 56 41.5 54.703125 40.296875 54.40625 38.796875 
C 54.09375 37.796875 54.203125 34.796875 54.90625 33.703125 
C 56.203125 31.40625 60.203125 31 62.09375 31 
z
M 36.703125 38.40625 
L 24.703125 38.40625 
C 23.296875 38.40625 21.796875 38.296875 20.296875 38.40625 
C 18.796875 38.5 19 39 18.90625 40.40625 
C 18.90625 42.59375 18.5 43.5 18.796875 45.703125 
L 36.703125 45.703125 
C 36.5 43.296875 36.40625 40.5 36.703125 38.40625 
z
" id="BMJUAOTF-bcc4"/>
     <path d="M 46.59375 4.09375 
L 46.296875 4.703125 
L 46 5.5 
C 45.703125 6.203125 45.296875 6.90625 45 7.59375 
C 44.703125 8.09375 44.40625 8.703125 44.09375 9.296875 
C 43.296875 10.59375 42.59375 11.90625 41.90625 13.203125 
C 40.203125 16 38.90625 18.90625 37.40625 21.796875 
C 36 24.296875 34.40625 26.796875 34.296875 29.703125 
C 34.09375 33 34.09375 36.5 34 39.90625 
C 34 45.5 33.90625 53.90625 33.40625 59.5 
C 33.203125 61.40625 32.796875 63.09375 32.203125 64.40625 
C 31.796875 65.5 31.40625 66.5 30.796875 67 
C 30.40625 67.40625 29.796875 67.703125 29.296875 67.90625 
C 28.203125 68.296875 26.796875 68.40625 25.703125 68.09375 
L 25.5 68 
C 24.09375 67.703125 22.703125 67.203125 22 66.203125 
C 21.5 65.40625 21 64.40625 20.703125 63.59375 
C 20.296875 62.40625 20 60.796875 20 59.40625 
C 19.90625 58.09375 19.90625 56.90625 19.90625 55.59375 
L 19.90625 37.203125 
C 19.90625 34.796875 19.90625 32.796875 19.703125 30.703125 
C 19.59375 29.296875 19.09375 28.296875 18.203125 26.796875 
L 17.796875 26.203125 
C 17.09375 25.09375 16.40625 24 15.703125 23 
C 14.703125 21.703125 13.90625 20.296875 13.09375 18.796875 
C 12.40625 17.59375 11.703125 16.296875 10.796875 14.90625 
C 10.40625 14.296875 10 13.703125 9.5 13 
L 9.296875 12.703125 
C 9.09375 12.59375 9 12.40625 8.90625 12.203125 
C 8.703125 12 8.59375 11.703125 8.40625 11.5 
C 7.703125 10.703125 7 9.703125 6.296875 8.59375 
C 6.09375 8.296875 5.796875 8 5.59375 7.59375 
C 5.203125 7.09375 4.796875 6.5 4.40625 5.90625 
L 4.203125 5.5 
C 3.09375 3.703125 1.703125 1.5 1.59375 -0.90625 
C 1.59375 -2.5 2.203125 -4 3.296875 -5.09375 
C 4.40625 -6.203125 5.90625 -6.90625 7.40625 -6.90625 
C 8.09375 -6.90625 8.703125 -6.796875 9.40625 -6.5 
C 12.296875 -5.5 14.40625 -3 16.40625 -0.796875 
C 16.59375 -0.5 16.90625 -0.09375 17.203125 0.203125 
C 18.40625 1.5 19.5 2.90625 20.59375 4.296875 
C 21.703125 5.703125 22.203125 7.203125 23.40625 8.5 
C 23.59375 8.796875 23.90625 9.09375 24.203125 9.5 
C 24.40625 9.796875 25.796875 11.40625 26.09375 11.59375 
C 26.40625 11.5 27.90625 10 31.203125 4.90625 
C 31.40625 4.40625 31.703125 4.09375 31.796875 3.796875 
C 33.09375 2.09375 34.90625 -0.40625 36.90625 -2.5 
C 38.90625 -4.703125 40.5 -6.59375 42.90625 -6.59375 
L 43 -6.59375 
C 44.796875 -6.5 46.40625 -5.296875 47.40625 -3.296875 
C 48.296875 -1.40625 48 0.40625 47.59375 1.796875 
C 47.40625 2.703125 47 3.40625 46.59375 4.09375 
z
M 73.09375 37.796875 
C 72.59375 37.703125 72.203125 37.796875 71.703125 37.90625 
C 71.59375 37.90625 69.59375 37.90625 69.59375 38 
C 69.40625 38.703125 69.40625 39.5 69.40625 40.203125 
L 69.40625 45.796875 
C 69.40625 46.5 69.296875 47.203125 69.40625 48 
C 69.40625 49.5 69.296875 50.796875 69.296875 52.296875 
C 69.203125 54.703125 69.203125 57.203125 68.90625 59.40625 
C 68.90625 59.796875 68.90625 60.203125 68.796875 60.59375 
C 68.59375 62.796875 68.5 64.90625 66.703125 66.796875 
C 65.796875 67.703125 64.5 68.296875 63 68.296875 
C 61.5 68.296875 59.40625 67.796875 58.5 66.90625 
C 56.296875 64.703125 56.40625 59.703125 56.40625 59.5 
L 56.40625 0.09375 
C 56.40625 -4.09375 57.09375 -11.90625 63.59375 -12.09375 
C 63.703125 -12.09375 63.796875 -12.203125 63.796875 -12.203125 
C 65.09375 -12.203125 66.203125 -11.703125 67 -10.796875 
C 69.40625 -8.40625 69.40625 -3.296875 69.40625 0.203125 
L 69.40625 1.59375 
C 69.5 4.90625 69.5 8.40625 69.40625 11.796875 
C 69.40625 15.203125 69.296875 21.09375 69.40625 24.40625 
C 69.40625 24.796875 69.5 24.796875 69.5 24.796875 
C 69.5 24.796875 69.59375 24.90625 69.796875 24.90625 
C 71.90625 25 75.5 24.703125 77.59375 25 
C 78.59375 25.203125 79.5 25.703125 80.296875 26.296875 
C 81.203125 27 81.5 28.40625 81.703125 29.40625 
C 82 30.40625 82 31.296875 82 32.296875 
C 82 33.203125 81.796875 34.09375 81.296875 34.90625 
C 80.59375 36.40625 79 37 77.5 37.296875 
C 76.703125 37.40625 75.90625 37.5 75.203125 37.59375 
C 74.5 37.59375 73.90625 37.796875 73.296875 37.796875 
z
" id="BMJUAOTF-c0ac"/>
     <path d="M 67.5 29.203125 
L 58.40625 29.203125 
C 58.296875 31.203125 58.296875 32.59375 58.203125 34.09375 
C 58.09375 35.59375 57.5 36.796875 56.296875 37.703125 
C 66.5 39.796875 71.203125 44.203125 71.203125 52.203125 
C 71.203125 64.296875 57.90625 68.09375 37.5 68.09375 
C 15.203125 68 4.40625 63.09375 4.40625 52.203125 
C 4.40625 43.90625 9.09375 39.40625 19.703125 37.5 
C 19.203125 36.90625 18.796875 36.09375 18.59375 35.203125 
C 18 33.296875 17.796875 32 17.90625 29.203125 
L 12.796875 29.203125 
C 9.796875 29.09375 8.296875 29.40625 5.5 28.40625 
C 3.40625 27.796875 2 25.703125 2 23.796875 
C 2 22.40625 2.796875 21 4.203125 19.90625 
C 6.5 18.203125 10.203125 18.296875 13.203125 18.5 
L 66.5 18.5 
C 66.703125 18.5 71.796875 18.40625 73.90625 20.296875 
C 74.796875 21.09375 75.296875 22.796875 75.296875 24 
C 75.296875 25.296875 74.796875 26.40625 73.796875 27.203125 
C 72 28.703125 69.796875 29 67.5 29.203125 
z
M 57.5 52.203125 
C 57.5 47.40625 46.90625 46.296875 37.296875 46.296875 
C 24.796875 46.203125 18.703125 48.5 18.703125 52.203125 
C 18.703125 56.40625 24.40625 58.59375 37.5 58.59375 
C 49.40625 58.59375 57.5 56.40625 57.5 52.203125 
z
M 37.5 36.296875 
C 40.5 36.296875 43.40625 36.40625 46 36.5 
C 45.796875 36.09375 45.59375 35.59375 45.5 35.09375 
C 45 33.59375 44.796875 31.703125 44.796875 29.203125 
L 31.59375 29.203125 
C 31.5 31.5 31.5 33.09375 31.296875 35.09375 
C 31.203125 35.59375 31.203125 36 31 36.40625 
C 33.09375 36.296875 35.203125 36.296875 37.5 36.296875 
z
M 5.203125 1.59375 
C 5.203125 -10.796875 19.90625 -11.40625 37.90625 -11.40625 
C 56 -11.40625 70.703125 -10.796875 70.703125 1.59375 
C 70.703125 14.203125 56 14.59375 37.90625 14.59375 
C 19.90625 14.59375 5.203125 12.90625 5.203125 1.59375 
z
M 57.5 1.59375 
C 57.5 -3.40625 47.09375 -2.5 37.90625 -2.5 
C 28.796875 -2.5 19 -2.203125 19 1.59375 
C 19 5.90625 28.796875 5.703125 37.90625 5.703125 
C 47.09375 5.703125 57.5 5.90625 57.5 1.59375 
z
" id="BMJUAOTF-c6a9"/>
     <path d="M 9.796875 -10.40625 
C 11.296875 -11.40625 13.5 -11.203125 15.203125 -11.296875 
L 65.296875 -11.5 
C 66.703125 -11.5 68.40625 -11.40625 69.796875 -10.90625 
C 71.40625 -10.40625 71.703125 -9.203125 72.09375 -7.703125 
C 73.40625 -2.90625 73.203125 4.5 73 9.09375 
C 72.796875 11.703125 72.09375 13.703125 69.5 14.796875 
C 67.09375 15.90625 64.296875 16 61.796875 16.09375 
L 16.703125 16.09375 
C 14.796875 16.09375 12.90625 15.703125 11.09375 15 
C 9.09375 14.203125 8.296875 13 7.90625 10.90625 
C 7.296875 7.59375 7.40625 5 7.40625 1.59375 
C 7.40625 -0.703125 7.703125 -3.09375 7.796875 -5.5 
C 7.796875 -7 8.203125 -9.203125 9.5 -10.203125 
C 9.59375 -10.296875 9.703125 -10.40625 9.796875 -10.40625 
z
M 14.5 51.796875 
C 16.203125 51.703125 17.90625 51.703125 19.09375 51.796875 
C 20.203125 51.90625 21.296875 52 22.09375 52 
L 47.5 52 
C 50 52 54.5 52.703125 56.40625 50.40625 
C 57.5 49 57 46.5 57.203125 44.703125 
C 57.40625 42.703125 57.40625 39.90625 58.796875 38.40625 
C 60.5 36.5 64.203125 37 66.296875 37.796875 
C 68.90625 38.90625 69.203125 41.203125 69.5 43.796875 
C 70.09375 49.703125 70.5 52.296875 69.59375 58.203125 
C 69.203125 60.90625 69.296875 63.09375 66.40625 64 
C 63.296875 64.90625 60.09375 65.203125 56.90625 65.203125 
C 54.796875 65.203125 52.703125 65.296875 50.59375 65.40625 
C 48.59375 65.5 29.40625 65.59375 27.296875 65.59375 
C 26.09375 65.59375 25 65.59375 23.90625 65.5 
C 22.796875 65.5 21.703125 65.5 20.59375 65.40625 
C 17.203125 65.40625 13.703125 65.40625 10.59375 63.703125 
C 8.703125 62.703125 7.203125 60.90625 6.703125 58.90625 
C 5.296875 53.796875 10.09375 52.203125 14.5 51.796875 
z
M 65.40625 33.796875 
C 56.40625 34 46.5 33.796875 38.09375 33.796875 
C 30.40625 33.796875 23.296875 34 16.40625 33.796875 
C 14.203125 33.703125 12 34 10.09375 33.796875 
C 9.703125 33.703125 9.296875 33.796875 8.90625 33.796875 
C 6.90625 33.59375 5 32.40625 3.296875 30.796875 
C 2.5 30 2 28.796875 2 27.40625 
C 2 26.09375 2.40625 24.796875 3.203125 23.90625 
C 5.09375 21.90625 9.703125 22 9.90625 22 
C 65.59375 22 66.203125 22 66.796875 21.90625 
C 69.5 21.796875 72.796875 21.703125 74.90625 23.5 
C 76.203125 24.703125 76.90625 26.203125 76.90625 27.703125 
C 76.90625 34.59375 69.796875 33.796875 65.40625 33.796875 
z
M 19.296875 1 
C 19.296875 1.40625 19.40625 1.703125 19.296875 1.90625 
C 19.296875 2.703125 19.296875 3.59375 19.5 4.5 
C 19.796875 5.703125 20.296875 5.5 21.40625 5.5 
C 24.296875 5.59375 27.09375 5.703125 30 5.5 
L 55.796875 5.5 
C 57.09375 5.59375 59.09375 5.796875 60 4.703125 
C 60.796875 3.703125 60.59375 2.09375 60.5 1 
C 60.40625 -0.203125 60.296875 -0.90625 59 -1 
C 56.5 -1.296875 51.796875 -0.90625 51.796875 -0.90625 
L 22.5 -0.90625 
C 22.5 -0.90625 20.203125 -1.203125 19.703125 -0.703125 
C 19.296875 -0.40625 19.296875 0.40625 19.296875 1 
z
" id="BMJUAOTF-ae08"/>
     <path d="M 33.90625 64.09375 
C 30.09375 66.09375 28.5 66.40625 24.203125 66.796875 
C 19.5 67.296875 14.5 65.59375 10.59375 62.09375 
C 6.09375 58 4.09375 50.796875 4.09375 44.203125 
C 4.09375 37.59375 5.59375 30.296875 10.703125 26.40625 
C 16 22.40625 19.296875 22.5 25.203125 22.5 
C 35.796875 22.203125 42 29.203125 42.59375 41.796875 
C 43.40625 51.40625 41.796875 59.796875 33.90625 64.09375 
z
M 76.703125 60.59375 
C 76.796875 61.09375 76.703125 64 75.90625 65.59375 
C 75.296875 66.90625 74.203125 67.90625 72.296875 68.203125 
C 70.09375 68.5 68.59375 67.90625 67.59375 66.59375 
C 66.703125 65.59375 66.09375 64.59375 65.796875 63.59375 
C 65.40625 62.203125 65.40625 60.703125 65.5 59.296875 
L 65.5 58.09375 
L 65.5 48.703125 
C 63.203125 48.796875 60.5 48.90625 59.90625 49 
L 59.90625 57.796875 
C 59.90625 58.203125 59.90625 58.59375 60 59 
C 60 60.40625 60 62 59.59375 63.296875 
C 59.296875 64.40625 59.203125 65.40625 58.296875 66.40625 
C 57.203125 67.59375 55.796875 68.203125 53.59375 67.90625 
C 51.703125 67.703125 50.09375 66.796875 49.5 65.5 
C 48.703125 63.90625 48.59375 60.90625 48.703125 60.296875 
L 48.703125 27.296875 
C 48.703125 27.203125 49.09375 23.59375 51.703125 22 
C 52.59375 21.5 53.5 21.203125 54.5 21.203125 
C 55.703125 21.203125 56.203125 21.59375 57.09375 22.296875 
C 57.796875 22.703125 58.40625 23.40625 58.796875 24.203125 
C 59.59375 25.703125 59.796875 27.296875 59.90625 28.703125 
L 59.90625 37.796875 
L 60.203125 37.796875 
C 61.703125 37.90625 63.59375 37.90625 65.40625 38 
L 65.40625 36.59375 
C 65.296875 32.5 64.59375 27.703125 66.59375 24 
C 67 23.203125 67.59375 22.5 68.296875 22 
C 69.203125 21.296875 70.40625 21 71.59375 21 
C 72.5 21 73.09375 21.203125 73.90625 21.703125 
C 76.59375 23.296875 76.703125 26.90625 76.703125 27.09375 
z
M 65.90625 14.40625 
L 14.90625 14.40625 
C 14.796875 14.40625 12.40625 14.40625 10.796875 12.5 
C 9.59375 11 9.203125 9 9.5 6.5 
C 9.90625 3.703125 13.90625 2.796875 14 2.796875 
L 14.09375 2.703125 
L 50.203125 2.703125 
C 50.296875 2.703125 50.703125 2.90625 55 2.90625 
C 59.90625 2.90625 61.296875 2.703125 61.703125 2.59375 
C 61.90625 1.59375 61.90625 -4 62 -5.203125 
C 62.203125 -8.203125 62.5 -11.5 66 -12.59375 
C 66.703125 -12.796875 68.90625 -12.90625 69.59375 -12.90625 
C 72.59375 -12.90625 74.703125 -11 75 -8.203125 
C 75.09375 -6.796875 75.09375 -5.296875 75 -3.796875 
L 75 9.59375 
C 75 12.59375 71.296875 14.40625 65.90625 14.40625 
z
M 31.203125 41.09375 
C 29.90625 34.796875 26.703125 32.09375 22.09375 32.703125 
C 15.296875 33.296875 15.40625 40.203125 16 45.59375 
C 17.09375 53.40625 22.5 56.203125 27.40625 54.203125 
C 31.296875 52.59375 32 47 31.203125 41.09375 
z
" id="BMJUAOTF-c561"/>
     <path d="M 48.40625 30 
L 48.40625 57.90625 
C 48.40625 57.90625 48.5 65.296875 45.703125 67.296875 
C 44.203125 68.40625 41.203125 68.203125 39.703125 67.203125 
C 37.703125 65.90625 37.09375 62.5 37.09375 60.203125 
C 37.09375 57.703125 37.296875 55.59375 37.09375 52.703125 
C 34.203125 52.796875 32.296875 52.703125 32.296875 52.703125 
L 19.40625 52.703125 
C 19.5 57 20 62.09375 17.796875 65.703125 
C 15.59375 69.203125 10.09375 68.203125 8.203125 64.796875 
C 6.5 61.796875 7.09375 56.90625 6.90625 53.5 
C 6.59375 47.90625 7 38.90625 7 33.40625 
C 7 30 8 24.90625 12.296875 24.703125 
C 19.5 24.5 26.796875 24.296875 34.09375 24.296875 
C 37.40625 24.296875 39.40625 23.796875 42.796875 24.296875 
C 45.203125 24.59375 48.40625 27.296875 48.40625 30 
z
M 74.5 0.40625 
L 40.40625 0.40625 
C 40.296875 0.40625 36.40625 0.203125 32.09375 0.203125 
C 27.203125 0.203125 25.796875 0.5 25.40625 0.59375 
C 25.296875 1.296875 25.5 9.09375 25.40625 10.203125 
C 25.203125 13.203125 25 17.59375 21.40625 18.703125 
C 20.703125 18.90625 19.59375 19 18.90625 19 
C 15.90625 19 13.09375 17.09375 12.796875 14.296875 
C 12.703125 12.796875 12.703125 8.90625 12.796875 7.40625 
L 12.796875 -6.5 
C 12.796875 -9.5 16.09375 -11.296875 21.5 -11.296875 
L 73.59375 -11.296875 
C 73.703125 -11.296875 76.09375 -11.203125 77.703125 -9.296875 
C 78.90625 -7.90625 79.296875 -5.90625 79 -3.40625 
C 78.59375 -0.59375 74.59375 0.296875 74.5 0.40625 
z
M 75.796875 65.5 
C 75.203125 66.703125 73.59375 67.703125 71.59375 68 
C 69.203125 68.296875 67 67.59375 65.796875 66.296875 
C 64.90625 65.296875 64.796875 64.203125 64.40625 63.09375 
C 64.09375 62 64 59.40625 64.09375 58.203125 
C 61.59375 58.09375 56.90625 58 56.09375 57.796875 
C 53.296875 57.203125 52.296875 56.09375 51.90625 54.59375 
C 51.59375 53.09375 51.40625 49.90625 52.296875 48.59375 
C 53.90625 46 60 46.59375 64.09375 46.59375 
L 64.09375 40.09375 
C 62.90625 40 57.203125 39.796875 56.09375 39.59375 
C 53.296875 39 52.296875 37.90625 51.90625 36.296875 
C 51.59375 34.90625 51.40625 32.40625 52.296875 31 
C 54 28.296875 59.703125 28.5 63.796875 28.296875 
L 64.09375 28.296875 
L 64.09375 23.40625 
C 64.203125 22 64.40625 20.296875 65.296875 18.703125 
C 65.703125 17.796875 66.40625 17.09375 67.09375 16.703125 
C 68.09375 15.90625 69.296875 15.5 70.59375 15.5 
C 71.59375 15.5 72.59375 15.796875 73.5 16.40625 
C 76.296875 18 76.703125 21.796875 76.703125 22 
L 76.703125 56.5 
C 76.796875 57.09375 76.703125 63.703125 75.796875 65.5 
z
M 37.09375 34.796875 
L 25.203125 34.796875 
C 23.703125 34.796875 22.203125 34.703125 20.703125 34.796875 
C 19.296875 34.90625 19.40625 35.40625 19.40625 36.796875 
C 19.296875 39 18.90625 41.296875 19.203125 43.5 
C 21.703125 44 27 43.5 27 43.5 
L 37.09375 43.5 
L 37.09375 41.796875 
C 37.296875 39.90625 37.296875 38.796875 37.09375 36.90625 
C 37 35.796875 37.09375 34.796875 37.09375 34.796875 
z
" id="BMJUAOTF-bcc0"/>
     <path d="M 11 8.203125 
C 8.703125 8.203125 6 7.90625 3.59375 5.90625 
C 2.296875 4.703125 1.59375 2.703125 1.90625 0.59375 
C 2.203125 -1.296875 3.203125 -2.796875 4.5 -3.5 
C 6.296875 -4.296875 9.703125 -4.59375 9.796875 -4.59375 
L 49.296875 -4.59375 
C 51.40625 -4.59375 54 -4.40625 55.203125 -2.296875 
C 56.5 0.09375 56.59375 5 53.59375 6.796875 
C 52.296875 7.59375 50.5 8 48.296875 8 
L 35 8 
L 35 8.09375 
C 35 9.59375 35 16.5 34.796875 19.59375 
C 37.703125 20.40625 40.5 21.703125 43 23.5 
C 48 27.296875 51 32.40625 51 38.59375 
C 51 43.40625 49.5 47.09375 47.203125 50 
L 47.5 50 
C 50.796875 50 53.5 52.40625 53.5 55.296875 
C 53.5 58.296875 50.796875 60.703125 47.5 60.703125 
L 33.703125 60.703125 
L 33.703125 64.796875 
C 33.703125 67.40625 31.09375 69.296875 27.796875 69.296875 
C 24.59375 69.296875 22 67.40625 22 64.796875 
L 22 60.703125 
L 8.796875 60.703125 
C 5.59375 60.703125 2.90625 58.296875 2.90625 55.296875 
C 2.90625 52.40625 5.59375 50 8.796875 50 
L 9.90625 50 
C 7.59375 47.09375 6.203125 43.40625 6.203125 38.59375 
C 6.203125 29.796875 12 23.703125 19.5 20.59375 
C 20.59375 20.09375 21.703125 19.796875 22.90625 19.5 
C 22.703125 16.203125 22.5 9.59375 22.40625 8 
C 20.703125 8 11.5 8.40625 11 8.203125 
z
M 77.296875 35.09375 
C 76.90625 35.09375 76.40625 35.203125 76 35.203125 
C 75.796875 35.296875 73.796875 35.296875 73.796875 35.40625 
C 73.59375 36.09375 73.59375 36.90625 73.59375 37.59375 
L 73.59375 48.40625 
C 73.59375 49.796875 73.5 51.203125 73.5 52.703125 
C 73.40625 55.09375 73.40625 57.59375 73.203125 59.703125 
C 73.09375 60.203125 73.09375 60.59375 73 61 
C 72.90625 63.203125 72.703125 65.296875 71 67.203125 
C 70.09375 68.09375 68.703125 68.703125 67.203125 68.703125 
C 65.796875 68.703125 63.703125 68.203125 62.703125 67.296875 
C 60.5 65.09375 60.703125 60.09375 60.703125 59.90625 
L 60.703125 0.5 
C 60.703125 -3.703125 61.296875 -11.5 67.796875 -11.796875 
L 68 -11.796875 
C 69.296875 -11.796875 70.40625 -11.296875 71.296875 -10.5 
C 73.703125 -8 73.59375 -2.90625 73.59375 0.59375 
L 73.59375 2 
C 73.703125 5.296875 73.703125 8.796875 73.59375 12.203125 
C 73.59375 15.59375 73.5 18.5 73.59375 21.796875 
C 73.703125 22.09375 73.703125 22.203125 73.703125 22.203125 
C 73.703125 22.203125 73.796875 22.203125 74 22.296875 
C 76.09375 22.40625 79.703125 22.09375 81.796875 22.40625 
C 82.796875 22.59375 83.796875 23.09375 84.59375 23.703125 
C 85.40625 24.40625 85.703125 25.796875 86 26.796875 
C 86.203125 27.703125 86.203125 28.703125 86.203125 29.59375 
C 86.203125 30.59375 86 31.5 85.59375 32.296875 
C 84.796875 33.796875 83.203125 34.40625 81.703125 34.703125 
C 80.90625 34.796875 80.203125 34.90625 79.40625 35 
C 78.796875 35 78.203125 35.203125 77.5 35.09375 
z
M 30.5 30.59375 
C 25 29.5 18.703125 31.40625 18.703125 38.59375 
C 18.703125 44.90625 23.703125 47 28.703125 46.796875 
C 33.59375 46.703125 38.5 44.5 38.5 38.59375 
C 38.5 33.5 34.796875 31.40625 30.5 30.59375 
z
" id="BMJUAOTF-d654"/>
    </defs>
    <g transform="translate(362.590625 28.56)scale(0.2 -0.2)">
     <use xlink:href="#BMJUAOTF-31"/>
     <use x="41.099991" xlink:href="#BMJUAOTF-29"/>
     <use x="75.699982" xlink:href="#BMJUAOTF-20"/>
     <use x="100.699966" xlink:href="#BMJUAOTF-c8fc"/>
     <use x="178.59996" xlink:href="#BMJUAOTF-bcc4"/>
     <use x="261.599945" xlink:href="#BMJUAOTF-20"/>
     <use x="286.59993" xlink:href="#BMJUAOTF-c0ac"/>
     <use x="369.599915" xlink:href="#BMJUAOTF-c6a9"/>
     <use x="446.899902" xlink:href="#BMJUAOTF-ae08"/>
     <use x="525.799896" xlink:href="#BMJUAOTF-c561"/>
     <use x="608.799881" xlink:href="#BMJUAOTF-20"/>
     <use x="633.799866" xlink:href="#BMJUAOTF-bcc0"/>
     <use x="716.79985" xlink:href="#BMJUAOTF-d654"/>
    </g>
   </g>
  </g>
 </g>
 <defs>
  <clipPath id="p641839aa20">
   <rect height="217.44" width="669.6" x="108" y="34.56"/>
  </clipPath>
 </defs>
</svg>
