<?xml version="1.0" encoding="utf-8" standalone="no"?>
<!DOCTYPE svg PUBLIC "-//W3C//DTD SVG 1.1//EN"
  "http://www.w3.org/Graphics/SVG/1.1/DTD/svg11.dtd">
<!-- Created with matplotlib (http://matplotlib.org/) -->
<svg height="432pt" version="1.1" viewBox="0 0 864 432" width="864pt" xmlns="http://www.w3.org/2000/svg" xmlns:xlink="http://www.w3.org/1999/xlink">
 <defs>
  <style type="text/css">
*{stroke-linecap:butt;stroke-linejoin:round;}
  </style>
 </defs>
 <g id="figure_1">
  <g id="patch_1">
   <path d="M 0 432 
L 864 432 
L 864 0 
L 0 0 
z
" style="fill:#ffffff;"/>
  </g>
  <g id="axes_1">
   <g id="patch_2">
    <path d="M 108 378 
L 777.6 378 
L 777.6 51.84 
L 108 51.84 
z
" style="fill:#ffffff;"/>
   </g>
   <g id="matplotlib.axis_1">
    <g id="xtick_1">
     <g id="line2d_1">
      <defs>
       <path d="M 0 0 
L 0 3.5 
" id="md78c9b6aff" style="stroke:#000000;stroke-width:0.8;"/>
      </defs>
      <g>
       <use style="stroke:#000000;stroke-width:0.8;" x="138.436364" xlink:href="#md78c9b6aff" y="378"/>
      </g>
     </g>
     <g id="text_1">
      <!-- −4 -->
      <defs>
       <path d="M 10.59375 35.5 
L 73.1875 35.5 
L 73.1875 27.203125 
L 10.59375 27.203125 
z
" id="DejaVuSans-2212"/>
       <path d="M 37.796875 64.3125 
L 12.890625 25.390625 
L 37.796875 25.390625 
z
M 35.203125 72.90625 
L 47.609375 72.90625 
L 47.609375 25.390625 
L 58.015625 25.390625 
L 58.015625 17.1875 
L 47.609375 17.1875 
L 47.609375 0 
L 37.796875 0 
L 37.796875 17.1875 
L 4.890625 17.1875 
L 4.890625 26.703125 
z
" id="DejaVuSans-34"/>
      </defs>
      <g transform="translate(131.06527 392.598437)scale(0.1 -0.1)">
       <use xlink:href="#DejaVuSans-2212"/>
       <use x="83.789062" xlink:href="#DejaVuSans-34"/>
      </g>
     </g>
    </g>
    <g id="xtick_2">
     <g id="line2d_2">
      <g>
       <use style="stroke:#000000;stroke-width:0.8;" x="214.527273" xlink:href="#md78c9b6aff" y="378"/>
      </g>
     </g>
     <g id="text_2">
      <!-- −3 -->
      <defs>
       <path d="M 40.578125 39.3125 
Q 47.65625 37.796875 51.625 33 
Q 55.609375 28.21875 55.609375 21.1875 
Q 55.609375 10.40625 48.1875 4.484375 
Q 40.765625 -1.421875 27.09375 -1.421875 
Q 22.515625 -1.421875 17.65625 -0.515625 
Q 12.796875 0.390625 7.625 2.203125 
L 7.625 11.71875 
Q 11.71875 9.328125 16.59375 8.109375 
Q 21.484375 6.890625 26.8125 6.890625 
Q 36.078125 6.890625 40.9375 10.546875 
Q 45.796875 14.203125 45.796875 21.1875 
Q 45.796875 27.640625 41.28125 31.265625 
Q 36.765625 34.90625 28.71875 34.90625 
L 20.21875 34.90625 
L 20.21875 43.015625 
L 29.109375 43.015625 
Q 36.375 43.015625 40.234375 45.921875 
Q 44.09375 48.828125 44.09375 54.296875 
Q 44.09375 59.90625 40.109375 62.90625 
Q 36.140625 65.921875 28.71875 65.921875 
Q 24.65625 65.921875 20.015625 65.03125 
Q 15.375 64.15625 9.8125 62.3125 
L 9.8125 71.09375 
Q 15.4375 72.65625 20.34375 73.4375 
Q 25.25 74.21875 29.59375 74.21875 
Q 40.828125 74.21875 47.359375 69.109375 
Q 53.90625 64.015625 53.90625 55.328125 
Q 53.90625 49.265625 50.4375 45.09375 
Q 46.96875 40.921875 40.578125 39.3125 
z
" id="DejaVuSans-33"/>
      </defs>
      <g transform="translate(207.156179 392.598437)scale(0.1 -0.1)">
       <use xlink:href="#DejaVuSans-2212"/>
       <use x="83.789062" xlink:href="#DejaVuSans-33"/>
      </g>
     </g>
    </g>
    <g id="xtick_3">
     <g id="line2d_3">
      <g>
       <use style="stroke:#000000;stroke-width:0.8;" x="290.618182" xlink:href="#md78c9b6aff" y="378"/>
      </g>
     </g>
     <g id="text_3">
      <!-- −2 -->
      <defs>
       <path d="M 19.1875 8.296875 
L 53.609375 8.296875 
L 53.609375 0 
L 7.328125 0 
L 7.328125 8.296875 
Q 12.9375 14.109375 22.625 23.890625 
Q 32.328125 33.6875 34.8125 36.53125 
Q 39.546875 41.84375 41.421875 45.53125 
Q 43.3125 49.21875 43.3125 52.78125 
Q 43.3125 58.59375 39.234375 62.25 
Q 35.15625 65.921875 28.609375 65.921875 
Q 23.96875 65.921875 18.8125 64.3125 
Q 13.671875 62.703125 7.8125 59.421875 
L 7.8125 69.390625 
Q 13.765625 71.78125 18.9375 73 
Q 24.125 74.21875 28.421875 74.21875 
Q 39.75 74.21875 46.484375 68.546875 
Q 53.21875 62.890625 53.21875 53.421875 
Q 53.21875 48.921875 51.53125 44.890625 
Q 49.859375 40.875 45.40625 35.40625 
Q 44.1875 33.984375 37.640625 27.21875 
Q 31.109375 20.453125 19.1875 8.296875 
z
" id="DejaVuSans-32"/>
      </defs>
      <g transform="translate(283.247088 392.598437)scale(0.1 -0.1)">
       <use xlink:href="#DejaVuSans-2212"/>
       <use x="83.789062" xlink:href="#DejaVuSans-32"/>
      </g>
     </g>
    </g>
    <g id="xtick_4">
     <g id="line2d_4">
      <g>
       <use style="stroke:#000000;stroke-width:0.8;" x="366.709091" xlink:href="#md78c9b6aff" y="378"/>
      </g>
     </g>
     <g id="text_4">
      <!-- −1 -->
      <defs>
       <path d="M 12.40625 8.296875 
L 28.515625 8.296875 
L 28.515625 63.921875 
L 10.984375 60.40625 
L 10.984375 69.390625 
L 28.421875 72.90625 
L 38.28125 72.90625 
L 38.28125 8.296875 
L 54.390625 8.296875 
L 54.390625 0 
L 12.40625 0 
z
" id="DejaVuSans-31"/>
      </defs>
      <g transform="translate(359.337997 392.598437)scale(0.1 -0.1)">
       <use xlink:href="#DejaVuSans-2212"/>
       <use x="83.789062" xlink:href="#DejaVuSans-31"/>
      </g>
     </g>
    </g>
    <g id="xtick_5">
     <g id="line2d_5">
      <g>
       <use style="stroke:#000000;stroke-width:0.8;" x="442.8" xlink:href="#md78c9b6aff" y="378"/>
      </g>
     </g>
     <g id="text_5">
      <!-- 0 -->
      <defs>
       <path d="M 31.78125 66.40625 
Q 24.171875 66.40625 20.328125 58.90625 
Q 16.5 51.421875 16.5 36.375 
Q 16.5 21.390625 20.328125 13.890625 
Q 24.171875 6.390625 31.78125 6.390625 
Q 39.453125 6.390625 43.28125 13.890625 
Q 47.125 21.390625 47.125 36.375 
Q 47.125 51.421875 43.28125 58.90625 
Q 39.453125 66.40625 31.78125 66.40625 
z
M 31.78125 74.21875 
Q 44.046875 74.21875 50.515625 64.515625 
Q 56.984375 54.828125 56.984375 36.375 
Q 56.984375 17.96875 50.515625 8.265625 
Q 44.046875 -1.421875 31.78125 -1.421875 
Q 19.53125 -1.421875 13.0625 8.265625 
Q 6.59375 17.96875 6.59375 36.375 
Q 6.59375 54.828125 13.0625 64.515625 
Q 19.53125 74.21875 31.78125 74.21875 
z
" id="DejaVuSans-30"/>
      </defs>
      <g transform="translate(439.61875 392.598437)scale(0.1 -0.1)">
       <use xlink:href="#DejaVuSans-30"/>
      </g>
     </g>
    </g>
    <g id="xtick_6">
     <g id="line2d_6">
      <g>
       <use style="stroke:#000000;stroke-width:0.8;" x="518.890909" xlink:href="#md78c9b6aff" y="378"/>
      </g>
     </g>
     <g id="text_6">
      <!-- 1 -->
      <g transform="translate(515.709659 392.598437)scale(0.1 -0.1)">
       <use xlink:href="#DejaVuSans-31"/>
      </g>
     </g>
    </g>
    <g id="xtick_7">
     <g id="line2d_7">
      <g>
       <use style="stroke:#000000;stroke-width:0.8;" x="594.981818" xlink:href="#md78c9b6aff" y="378"/>
      </g>
     </g>
     <g id="text_7">
      <!-- 2 -->
      <g transform="translate(591.800568 392.598437)scale(0.1 -0.1)">
       <use xlink:href="#DejaVuSans-32"/>
      </g>
     </g>
    </g>
    <g id="xtick_8">
     <g id="line2d_8">
      <g>
       <use style="stroke:#000000;stroke-width:0.8;" x="671.072727" xlink:href="#md78c9b6aff" y="378"/>
      </g>
     </g>
     <g id="text_8">
      <!-- 3 -->
      <g transform="translate(667.891477 392.598437)scale(0.1 -0.1)">
       <use xlink:href="#DejaVuSans-33"/>
      </g>
     </g>
    </g>
    <g id="xtick_9">
     <g id="line2d_9">
      <g>
       <use style="stroke:#000000;stroke-width:0.8;" x="747.163636" xlink:href="#md78c9b6aff" y="378"/>
      </g>
     </g>
     <g id="text_9">
      <!-- 4 -->
      <g transform="translate(743.982386 392.598437)scale(0.1 -0.1)">
       <use xlink:href="#DejaVuSans-34"/>
      </g>
     </g>
    </g>
   </g>
   <g id="matplotlib.axis_2">
    <g id="ytick_1">
     <g id="line2d_10">
      <defs>
       <path d="M 0 0 
L -3.5 0 
" id="m1290a26817" style="stroke:#000000;stroke-width:0.8;"/>
      </defs>
      <g>
       <use style="stroke:#000000;stroke-width:0.8;" x="108" xlink:href="#m1290a26817" y="363.274128"/>
      </g>
     </g>
     <g id="text_10">
      <!-- 0.00 -->
      <defs>
       <path d="M 10.6875 12.40625 
L 21 12.40625 
L 21 0 
L 10.6875 0 
z
" id="DejaVuSans-2e"/>
      </defs>
      <g transform="translate(78.734375 367.073347)scale(0.1 -0.1)">
       <use xlink:href="#DejaVuSans-30"/>
       <use x="63.623047" xlink:href="#DejaVuSans-2e"/>
       <use x="95.410156" xlink:href="#DejaVuSans-30"/>
       <use x="159.033203" xlink:href="#DejaVuSans-30"/>
      </g>
     </g>
    </g>
    <g id="ytick_2">
     <g id="line2d_11">
      <g>
       <use style="stroke:#000000;stroke-width:0.8;" x="108" xlink:href="#m1290a26817" y="326.069388"/>
      </g>
     </g>
     <g id="text_11">
      <!-- 0.05 -->
      <defs>
       <path d="M 10.796875 72.90625 
L 49.515625 72.90625 
L 49.515625 64.59375 
L 19.828125 64.59375 
L 19.828125 46.734375 
Q 21.96875 47.46875 24.109375 47.828125 
Q 26.265625 48.1875 28.421875 48.1875 
Q 40.625 48.1875 47.75 41.5 
Q 54.890625 34.8125 54.890625 23.390625 
Q 54.890625 11.625 47.5625 5.09375 
Q 40.234375 -1.421875 26.90625 -1.421875 
Q 22.3125 -1.421875 17.546875 -0.640625 
Q 12.796875 0.140625 7.71875 1.703125 
L 7.71875 11.625 
Q 12.109375 9.234375 16.796875 8.0625 
Q 21.484375 6.890625 26.703125 6.890625 
Q 35.15625 6.890625 40.078125 11.328125 
Q 45.015625 15.765625 45.015625 23.390625 
Q 45.015625 31 40.078125 35.4375 
Q 35.15625 39.890625 26.703125 39.890625 
Q 22.75 39.890625 18.8125 39.015625 
Q 14.890625 38.140625 10.796875 36.28125 
z
" id="DejaVuSans-35"/>
      </defs>
      <g transform="translate(78.734375 329.868607)scale(0.1 -0.1)">
       <use xlink:href="#DejaVuSans-30"/>
       <use x="63.623047" xlink:href="#DejaVuSans-2e"/>
       <use x="95.410156" xlink:href="#DejaVuSans-30"/>
       <use x="159.033203" xlink:href="#DejaVuSans-35"/>
      </g>
     </g>
    </g>
    <g id="ytick_3">
     <g id="line2d_12">
      <g>
       <use style="stroke:#000000;stroke-width:0.8;" x="108" xlink:href="#m1290a26817" y="288.864648"/>
      </g>
     </g>
     <g id="text_12">
      <!-- 0.10 -->
      <g transform="translate(78.734375 292.663866)scale(0.1 -0.1)">
       <use xlink:href="#DejaVuSans-30"/>
       <use x="63.623047" xlink:href="#DejaVuSans-2e"/>
       <use x="95.410156" xlink:href="#DejaVuSans-31"/>
       <use x="159.033203" xlink:href="#DejaVuSans-30"/>
      </g>
     </g>
    </g>
    <g id="ytick_4">
     <g id="line2d_13">
      <g>
       <use style="stroke:#000000;stroke-width:0.8;" x="108" xlink:href="#m1290a26817" y="251.659908"/>
      </g>
     </g>
     <g id="text_13">
      <!-- 0.15 -->
      <g transform="translate(78.734375 255.459126)scale(0.1 -0.1)">
       <use xlink:href="#DejaVuSans-30"/>
       <use x="63.623047" xlink:href="#DejaVuSans-2e"/>
       <use x="95.410156" xlink:href="#DejaVuSans-31"/>
       <use x="159.033203" xlink:href="#DejaVuSans-35"/>
      </g>
     </g>
    </g>
    <g id="ytick_5">
     <g id="line2d_14">
      <g>
       <use style="stroke:#000000;stroke-width:0.8;" x="108" xlink:href="#m1290a26817" y="214.455168"/>
      </g>
     </g>
     <g id="text_14">
      <!-- 0.20 -->
      <g transform="translate(78.734375 218.254386)scale(0.1 -0.1)">
       <use xlink:href="#DejaVuSans-30"/>
       <use x="63.623047" xlink:href="#DejaVuSans-2e"/>
       <use x="95.410156" xlink:href="#DejaVuSans-32"/>
       <use x="159.033203" xlink:href="#DejaVuSans-30"/>
      </g>
     </g>
    </g>
    <g id="ytick_6">
     <g id="line2d_15">
      <g>
       <use style="stroke:#000000;stroke-width:0.8;" x="108" xlink:href="#m1290a26817" y="177.250427"/>
      </g>
     </g>
     <g id="text_15">
      <!-- 0.25 -->
      <g transform="translate(78.734375 181.049646)scale(0.1 -0.1)">
       <use xlink:href="#DejaVuSans-30"/>
       <use x="63.623047" xlink:href="#DejaVuSans-2e"/>
       <use x="95.410156" xlink:href="#DejaVuSans-32"/>
       <use x="159.033203" xlink:href="#DejaVuSans-35"/>
      </g>
     </g>
    </g>
    <g id="ytick_7">
     <g id="line2d_16">
      <g>
       <use style="stroke:#000000;stroke-width:0.8;" x="108" xlink:href="#m1290a26817" y="140.045687"/>
      </g>
     </g>
     <g id="text_16">
      <!-- 0.30 -->
      <g transform="translate(78.734375 143.844906)scale(0.1 -0.1)">
       <use xlink:href="#DejaVuSans-30"/>
       <use x="63.623047" xlink:href="#DejaVuSans-2e"/>
       <use x="95.410156" xlink:href="#DejaVuSans-33"/>
       <use x="159.033203" xlink:href="#DejaVuSans-30"/>
      </g>
     </g>
    </g>
    <g id="ytick_8">
     <g id="line2d_17">
      <g>
       <use style="stroke:#000000;stroke-width:0.8;" x="108" xlink:href="#m1290a26817" y="102.840947"/>
      </g>
     </g>
     <g id="text_17">
      <!-- 0.35 -->
      <g transform="translate(78.734375 106.640166)scale(0.1 -0.1)">
       <use xlink:href="#DejaVuSans-30"/>
       <use x="63.623047" xlink:href="#DejaVuSans-2e"/>
       <use x="95.410156" xlink:href="#DejaVuSans-33"/>
       <use x="159.033203" xlink:href="#DejaVuSans-35"/>
      </g>
     </g>
    </g>
    <g id="ytick_9">
     <g id="line2d_18">
      <g>
       <use style="stroke:#000000;stroke-width:0.8;" x="108" xlink:href="#m1290a26817" y="65.636207"/>
      </g>
     </g>
     <g id="text_18">
      <!-- 0.40 -->
      <g transform="translate(78.734375 69.435426)scale(0.1 -0.1)">
       <use xlink:href="#DejaVuSans-30"/>
       <use x="63.623047" xlink:href="#DejaVuSans-2e"/>
       <use x="95.410156" xlink:href="#DejaVuSans-34"/>
       <use x="159.033203" xlink:href="#DejaVuSans-30"/>
      </g>
     </g>
    </g>
   </g>
   <g id="line2d_19">
    <path clip-path="url(#p74898a80c1)" d="M 138.436364 349.341614 
L 144.585124 348.796635 
L 150.733884 348.219792 
L 156.882645 347.608618 
L 163.031405 346.960406 
L 169.180165 346.27219 
L 175.328926 345.540706 
L 181.477686 344.762365 
L 187.626446 343.93321 
L 193.775207 343.048877 
L 199.923967 342.104539 
L 206.072727 341.094855 
L 212.221488 340.013904 
L 218.370248 338.855113 
L 224.519008 337.611176 
L 230.667769 336.273958 
L 236.816529 334.83439 
L 242.965289 333.28235 
L 249.11405 331.606525 
L 255.26281 329.79426 
L 261.41157 327.83138 
L 267.560331 325.702005 
L 273.709091 323.388325 
L 279.857851 320.870372 
L 286.006612 318.12576 
L 292.155372 315.129415 
L 298.304132 311.853292 
L 304.452893 308.266104 
L 310.601653 304.333068 
L 316.750413 300.015725 
L 322.899174 295.271854 
L 329.047934 290.055594 
L 335.196694 284.317847 
L 341.345455 278.007144 
L 347.494215 271.07118 
L 353.642975 263.459293 
L 359.791736 255.126277 
L 365.940496 246.037947 
L 372.089256 236.178939 
L 378.238017 225.56317 
L 384.386777 214.247125 
L 390.535537 202.345627 
L 396.684298 190.048725 
L 402.833058 177.636893 
L 408.981818 165.489888 
L 415.130579 154.083029 
L 421.279339 143.964386 
L 427.428099 135.708828 
L 433.57686 129.850938 
L 439.72562 126.807425 
L 445.87438 126.807425 
L 452.02314 129.850938 
L 458.171901 135.708828 
L 464.320661 143.964386 
L 470.469421 154.083029 
L 476.618182 165.489888 
L 482.766942 177.636893 
L 488.915702 190.048725 
L 495.064463 202.345627 
L 501.213223 214.247125 
L 507.361983 225.56317 
L 513.510744 236.178939 
L 519.659504 246.037947 
L 525.808264 255.126277 
L 531.957025 263.459293 
L 538.105785 271.07118 
L 544.254545 278.007144 
L 550.403306 284.317847 
L 556.552066 290.055594 
L 562.700826 295.271854 
L 568.849587 300.015725 
L 574.998347 304.333068 
L 581.147107 308.266104 
L 587.295868 311.853292 
L 593.444628 315.129415 
L 599.593388 318.12576 
L 605.742149 320.870372 
L 611.890909 323.388325 
L 618.039669 325.702005 
L 624.18843 327.83138 
L 630.33719 329.79426 
L 636.48595 331.606525 
L 642.634711 333.28235 
L 648.783471 334.83439 
L 654.932231 336.273958 
L 661.080992 337.611176 
L 667.229752 338.855113 
L 673.378512 340.013904 
L 679.527273 341.094855 
L 685.676033 342.104539 
L 691.824793 343.048877 
L 697.973554 343.93321 
L 704.122314 344.762365 
L 710.271074 345.540706 
L 716.419835 346.27219 
L 722.568595 346.960406 
L 728.717355 347.608618 
L 734.866116 348.219792 
L 741.014876 348.796635 
L 747.163636 349.341614 
" style="fill:none;stroke:#1f77b4;stroke-dasharray:1.5,2.475;stroke-dashoffset:0;stroke-width:1.5;"/>
   </g>
   <g id="line2d_20">
    <path clip-path="url(#p74898a80c1)" d="M 138.436364 353.530526 
L 144.585124 352.986832 
L 150.733884 352.403362 
L 156.882645 351.776561 
L 163.031405 351.102502 
L 169.180165 350.376846 
L 175.328926 349.594795 
L 181.477686 348.751033 
L 187.626446 347.839671 
L 193.775207 346.854178 
L 199.923967 345.787302 
L 206.072727 344.630986 
L 212.221488 343.376279 
L 218.370248 342.01322 
L 224.519008 340.530733 
L 230.667769 338.916488 
L 236.816529 337.156768 
L 242.965289 335.236312 
L 249.11405 333.13815 
L 255.26281 330.843433 
L 261.41157 328.331248 
L 267.560331 325.578437 
L 273.709091 322.55942 
L 279.857851 319.246037 
L 286.006612 315.607421 
L 292.155372 311.609926 
L 298.304132 307.217143 
L 304.452893 302.390043 
L 310.601653 297.087296 
L 316.750413 291.265847 
L 322.899174 284.881824 
L 329.047934 277.89189 
L 335.196694 270.25516 
L 341.345455 261.935817 
L 347.494215 252.90658 
L 353.642975 243.153113 
L 359.791736 232.679483 
L 365.940496 221.514595 
L 372.089256 209.719442 
L 378.238017 197.394708 
L 384.386777 184.687982 
L 390.535537 171.799478 
L 396.684298 158.984781 
L 402.833058 146.552972 
L 408.981818 134.85851 
L 415.130579 124.285758 
L 421.279339 115.226074 
L 427.428099 108.04883 
L 433.57686 103.069417 
L 439.72562 100.518662 
L 445.87438 100.518662 
L 452.02314 103.069417 
L 458.171901 108.04883 
L 464.320661 115.226074 
L 470.469421 124.285758 
L 476.618182 134.85851 
L 482.766942 146.552972 
L 488.915702 158.984781 
L 495.064463 171.799478 
L 501.213223 184.687982 
L 507.361983 197.394708 
L 513.510744 209.719442 
L 519.659504 221.514595 
L 525.808264 232.679483 
L 531.957025 243.153113 
L 538.105785 252.90658 
L 544.254545 261.935817 
L 550.403306 270.25516 
L 556.552066 277.89189 
L 562.700826 284.881824 
L 568.849587 291.265847 
L 574.998347 297.087296 
L 581.147107 302.390043 
L 587.295868 307.217143 
L 593.444628 311.609926 
L 599.593388 315.607421 
L 605.742149 319.246037 
L 611.890909 322.55942 
L 618.039669 325.578437 
L 624.18843 328.331248 
L 630.33719 330.843433 
L 636.48595 333.13815 
L 642.634711 335.236312 
L 648.783471 337.156768 
L 654.932231 338.916488 
L 661.080992 340.530733 
L 667.229752 342.01322 
L 673.378512 343.376279 
L 679.527273 344.630986 
L 685.676033 345.787302 
L 691.824793 346.854178 
L 697.973554 347.839671 
L 704.122314 348.751033 
L 710.271074 349.594795 
L 716.419835 350.376846 
L 722.568595 351.102502 
L 728.717355 351.776561 
L 734.866116 352.403362 
L 741.014876 352.986832 
L 747.163636 353.530526 
" style="fill:none;stroke:#ff7f0e;stroke-dasharray:1.5,2.475;stroke-dashoffset:0;stroke-width:1.5;"/>
   </g>
   <g id="line2d_21">
    <path clip-path="url(#p74898a80c1)" d="M 138.436364 359.461589 
L 144.585124 359.090677 
L 150.733884 358.679184 
L 156.882645 358.222271 
L 163.031405 357.714493 
L 169.180165 357.149721 
L 175.328926 356.521055 
L 181.477686 355.820731 
L 187.626446 355.040015 
L 193.775207 354.169087 
L 199.923967 353.196913 
L 206.072727 352.11111 
L 212.221488 350.897793 
L 218.370248 349.541424 
L 224.519008 348.024642 
L 230.667769 346.328094 
L 236.816529 344.430272 
L 242.965289 342.307345 
L 249.11405 339.933017 
L 255.26281 337.278408 
L 261.41157 334.311976 
L 267.560331 330.999511 
L 273.709091 327.304201 
L 279.857851 323.186826 
L 286.006612 318.606102 
L 292.155372 313.519212 
L 298.304132 307.882581 
L 304.452893 301.65294 
L 310.601653 294.788724 
L 316.750413 287.251861 
L 322.899174 279.009981 
L 329.047934 270.039074 
L 335.196694 260.326581 
L 341.345455 249.874883 
L 347.494215 238.705077 
L 353.642975 226.860892 
L 359.791736 214.412488 
L 365.940496 201.459841 
L 372.089256 188.135321 
L 378.238017 174.605024 
L 384.386777 161.068406 
L 390.535537 147.755799 
L 396.684298 134.923488 
L 402.833058 122.846212 
L 408.981818 111.80718 
L 415.130579 102.085989 
L 421.279339 93.945141 
L 427.428099 87.61613 
L 433.57686 83.286236 
L 439.72562 81.087253 
L 445.87438 81.087253 
L 452.02314 83.286236 
L 458.171901 87.61613 
L 464.320661 93.945141 
L 470.469421 102.085989 
L 476.618182 111.80718 
L 482.766942 122.846212 
L 488.915702 134.923488 
L 495.064463 147.755799 
L 501.213223 161.068406 
L 507.361983 174.605024 
L 513.510744 188.135321 
L 519.659504 201.459841 
L 525.808264 214.412488 
L 531.957025 226.860892 
L 538.105785 238.705077 
L 544.254545 249.874883 
L 550.403306 260.326581 
L 556.552066 270.039074 
L 562.700826 279.009981 
L 568.849587 287.251861 
L 574.998347 294.788724 
L 581.147107 301.65294 
L 587.295868 307.882581 
L 593.444628 313.519212 
L 599.593388 318.606102 
L 605.742149 323.186826 
L 611.890909 327.304201 
L 618.039669 330.999511 
L 624.18843 334.311976 
L 630.33719 337.278408 
L 636.48595 339.933017 
L 642.634711 342.307345 
L 648.783471 344.430272 
L 654.932231 346.328094 
L 661.080992 348.024642 
L 667.229752 349.541424 
L 673.378512 350.897793 
L 679.527273 352.11111 
L 685.676033 353.196913 
L 691.824793 354.169087 
L 697.973554 355.040015 
L 704.122314 355.820731 
L 710.271074 356.521055 
L 716.419835 357.149721 
L 722.568595 357.714493 
L 728.717355 358.222271 
L 734.866116 358.679184 
L 741.014876 359.090677 
L 747.163636 359.461589 
" style="fill:none;stroke:#2ca02c;stroke-dasharray:1.5,2.475;stroke-dashoffset:0;stroke-width:1.5;"/>
   </g>
   <g id="line2d_22">
    <path clip-path="url(#p74898a80c1)" d="M 138.436364 361.762846 
L 144.585124 361.540835 
L 150.733884 361.285021 
L 156.882645 360.990183 
L 163.031405 360.65031 
L 169.180165 360.258483 
L 175.328926 359.806757 
L 181.477686 359.286016 
L 187.626446 358.685826 
L 193.775207 357.994266 
L 199.923967 357.197753 
L 206.072727 356.280851 
L 212.221488 355.226076 
L 218.370248 354.013695 
L 224.519008 352.621532 
L 230.667769 351.024775 
L 236.816529 349.195819 
L 242.965289 347.104131 
L 249.11405 344.716176 
L 255.26281 341.995413 
L 261.41157 338.902391 
L 267.560331 335.394972 
L 273.709091 331.428712 
L 279.857851 326.957436 
L 286.006612 321.934043 
L 292.155372 316.311575 
L 298.304132 310.044584 
L 304.452893 303.090817 
L 310.601653 295.413229 
L 316.750413 286.982331 
L 322.899174 277.778829 
L 329.047934 267.796504 
L 335.196694 257.045242 
L 341.345455 245.554088 
L 347.494215 233.37414 
L 353.642975 220.581115 
L 359.791736 207.277309 
L 365.940496 193.592748 
L 372.089256 179.685251 
L 378.238017 165.739195 
L 384.386777 151.962818 
L 390.535537 138.583946 
L 396.684298 125.844169 
L 402.833058 113.991593 
L 408.981818 103.272419 
L 415.130579 93.921753 
L 421.279339 86.15413 
L 427.428099 80.15434 
L 433.57686 76.069136 
L 439.72562 74.000427 
L 445.87438 74.000427 
L 452.02314 76.069136 
L 458.171901 80.15434 
L 464.320661 86.15413 
L 470.469421 93.921753 
L 476.618182 103.272419 
L 482.766942 113.991593 
L 488.915702 125.844169 
L 495.064463 138.583946 
L 501.213223 151.962818 
L 507.361983 165.739195 
L 513.510744 179.685251 
L 519.659504 193.592748 
L 525.808264 207.277309 
L 531.957025 220.581115 
L 538.105785 233.37414 
L 544.254545 245.554088 
L 550.403306 257.045242 
L 556.552066 267.796504 
L 562.700826 277.778829 
L 568.849587 286.982331 
L 574.998347 295.413229 
L 581.147107 303.090817 
L 587.295868 310.044584 
L 593.444628 316.311575 
L 599.593388 321.934043 
L 605.742149 326.957436 
L 611.890909 331.428712 
L 618.039669 335.394972 
L 624.18843 338.902391 
L 630.33719 341.995413 
L 636.48595 344.716176 
L 642.634711 347.104131 
L 648.783471 349.195819 
L 654.932231 351.024775 
L 661.080992 352.621532 
L 667.229752 354.013695 
L 673.378512 355.226076 
L 679.527273 356.280851 
L 685.676033 357.197753 
L 691.824793 357.994266 
L 697.973554 358.685826 
L 704.122314 359.286016 
L 710.271074 359.806757 
L 716.419835 360.258483 
L 722.568595 360.65031 
L 728.717355 360.990183 
L 734.866116 361.285021 
L 741.014876 361.540835 
L 747.163636 361.762846 
" style="fill:none;stroke:#d62728;stroke-dasharray:1.5,2.475;stroke-dashoffset:0;stroke-width:1.5;"/>
   </g>
   <g id="line2d_23">
    <path clip-path="url(#p74898a80c1)" d="M 138.436364 363.174545 
L 144.585124 363.136995 
L 150.733884 363.086513 
L 156.882645 363.019119 
L 163.031405 362.929772 
L 169.180165 362.812147 
L 175.328926 362.658378 
L 181.477686 362.458769 
L 187.626446 362.20148 
L 193.775207 361.872186 
L 199.923967 361.453729 
L 206.072727 360.925752 
L 212.221488 360.264364 
L 218.370248 359.44181 
L 224.519008 358.426218 
L 230.667769 357.1814 
L 236.816529 355.666785 
L 242.965289 353.837467 
L 249.11405 351.644447 
L 255.26281 349.035069 
L 261.41157 345.95369 
L 267.560331 342.342619 
L 273.709091 338.14333 
L 279.857851 333.29796 
L 286.006612 327.751097 
L 292.155372 321.451819 
L 298.304132 314.355973 
L 304.452893 306.428611 
L 310.601653 297.646539 
L 316.750413 288.000863 
L 322.899174 277.49944 
L 329.047934 266.169123 
L 335.196694 254.05765 
L 341.345455 241.235084 
L 347.494215 227.794652 
L 353.642975 213.8529 
L 359.791736 199.549062 
L 365.940496 185.043586 
L 372.089256 170.515795 
L 378.238017 156.160691 
L 384.386777 142.184958 
L 390.535537 128.802259 
L 396.684298 116.227972 
L 402.833058 104.673522 
L 408.981818 94.340535 
L 415.130579 85.415011 
L 421.279339 78.061776 
L 427.428099 72.419427 
L 433.57686 68.595983 
L 439.72562 66.665455 
L 445.87438 66.665455 
L 452.02314 68.595983 
L 458.171901 72.419427 
L 464.320661 78.061776 
L 470.469421 85.415011 
L 476.618182 94.340535 
L 482.766942 104.673522 
L 488.915702 116.227972 
L 495.064463 128.802259 
L 501.213223 142.184958 
L 507.361983 156.160691 
L 513.510744 170.515795 
L 519.659504 185.043586 
L 525.808264 199.549062 
L 531.957025 213.8529 
L 538.105785 227.794652 
L 544.254545 241.235084 
L 550.403306 254.05765 
L 556.552066 266.169123 
L 562.700826 277.49944 
L 568.849587 288.000863 
L 574.998347 297.646539 
L 581.147107 306.428611 
L 587.295868 314.355973 
L 593.444628 321.451819 
L 599.593388 327.751097 
L 605.742149 333.29796 
L 611.890909 338.14333 
L 618.039669 342.342619 
L 624.18843 345.95369 
L 630.33719 349.035069 
L 636.48595 351.644447 
L 642.634711 353.837467 
L 648.783471 355.666785 
L 654.932231 357.1814 
L 661.080992 358.426218 
L 667.229752 359.44181 
L 673.378512 360.264364 
L 679.527273 360.925752 
L 685.676033 361.453729 
L 691.824793 361.872186 
L 697.973554 362.20148 
L 704.122314 362.458769 
L 710.271074 362.658378 
L 716.419835 362.812147 
L 722.568595 362.929772 
L 728.717355 363.019119 
L 734.866116 363.086513 
L 741.014876 363.136995 
L 747.163636 363.174545 
" style="fill:none;opacity:0.9;stroke:#9467bd;stroke-dasharray:18.5,8;stroke-dashoffset:0;stroke-width:5;"/>
   </g>
   <g id="patch_3">
    <path d="M 108 378 
L 108 51.84 
" style="fill:none;stroke:#000000;stroke-linecap:square;stroke-linejoin:miter;stroke-width:0.8;"/>
   </g>
   <g id="patch_4">
    <path d="M 777.6 378 
L 777.6 51.84 
" style="fill:none;stroke:#000000;stroke-linecap:square;stroke-linejoin:miter;stroke-width:0.8;"/>
   </g>
   <g id="patch_5">
    <path d="M 108 378 
L 777.6 378 
" style="fill:none;stroke:#000000;stroke-linecap:square;stroke-linejoin:miter;stroke-width:0.8;"/>
   </g>
   <g id="patch_6">
    <path d="M 108 51.84 
L 777.6 51.84 
" style="fill:none;stroke:#000000;stroke-linecap:square;stroke-linejoin:miter;stroke-width:0.8;"/>
   </g>
   <g id="legend_1">
    <g id="patch_7">
     <path d="M 644.771875 133.230625 
L 770.6 133.230625 
Q 772.6 133.230625 772.6 131.230625 
L 772.6 58.84 
Q 772.6 56.84 770.6 56.84 
L 644.771875 56.84 
Q 642.771875 56.84 642.771875 58.84 
L 642.771875 131.230625 
Q 642.771875 133.230625 644.771875 133.230625 
z
" style="fill:#ffffff;opacity:0.8;stroke:#cccccc;stroke-linejoin:miter;"/>
    </g>
    <g id="line2d_24">
     <path d="M 646.771875 64.938437 
L 666.771875 64.938437 
" style="fill:none;stroke:#1f77b4;stroke-dasharray:1.5,2.475;stroke-dashoffset:0;stroke-width:1.5;"/>
    </g>
    <g id="line2d_25"/>
    <g id="text_19">
     <!-- student-t (dof=1) -->
     <defs>
      <path d="M 44.28125 53.078125 
L 44.28125 44.578125 
Q 40.484375 46.53125 36.375 47.5 
Q 32.28125 48.484375 27.875 48.484375 
Q 21.1875 48.484375 17.84375 46.4375 
Q 14.5 44.390625 14.5 40.28125 
Q 14.5 37.15625 16.890625 35.375 
Q 19.28125 33.59375 26.515625 31.984375 
L 29.59375 31.296875 
Q 39.15625 29.25 43.1875 25.515625 
Q 47.21875 21.78125 47.21875 15.09375 
Q 47.21875 7.46875 41.1875 3.015625 
Q 35.15625 -1.421875 24.609375 -1.421875 
Q 20.21875 -1.421875 15.453125 -0.5625 
Q 10.6875 0.296875 5.421875 2 
L 5.421875 11.28125 
Q 10.40625 8.6875 15.234375 7.390625 
Q 20.0625 6.109375 24.8125 6.109375 
Q 31.15625 6.109375 34.5625 8.28125 
Q 37.984375 10.453125 37.984375 14.40625 
Q 37.984375 18.0625 35.515625 20.015625 
Q 33.0625 21.96875 24.703125 23.78125 
L 21.578125 24.515625 
Q 13.234375 26.265625 9.515625 29.90625 
Q 5.8125 33.546875 5.8125 39.890625 
Q 5.8125 47.609375 11.28125 51.796875 
Q 16.75 56 26.8125 56 
Q 31.78125 56 36.171875 55.265625 
Q 40.578125 54.546875 44.28125 53.078125 
z
" id="DejaVuSans-73"/>
      <path d="M 18.3125 70.21875 
L 18.3125 54.6875 
L 36.8125 54.6875 
L 36.8125 47.703125 
L 18.3125 47.703125 
L 18.3125 18.015625 
Q 18.3125 11.328125 20.140625 9.421875 
Q 21.96875 7.515625 27.59375 7.515625 
L 36.8125 7.515625 
L 36.8125 0 
L 27.59375 0 
Q 17.1875 0 13.234375 3.875 
Q 9.28125 7.765625 9.28125 18.015625 
L 9.28125 47.703125 
L 2.6875 47.703125 
L 2.6875 54.6875 
L 9.28125 54.6875 
L 9.28125 70.21875 
z
" id="DejaVuSans-74"/>
      <path d="M 8.5 21.578125 
L 8.5 54.6875 
L 17.484375 54.6875 
L 17.484375 21.921875 
Q 17.484375 14.15625 20.5 10.265625 
Q 23.53125 6.390625 29.59375 6.390625 
Q 36.859375 6.390625 41.078125 11.03125 
Q 45.3125 15.671875 45.3125 23.6875 
L 45.3125 54.6875 
L 54.296875 54.6875 
L 54.296875 0 
L 45.3125 0 
L 45.3125 8.40625 
Q 42.046875 3.421875 37.71875 1 
Q 33.40625 -1.421875 27.6875 -1.421875 
Q 18.265625 -1.421875 13.375 4.4375 
Q 8.5 10.296875 8.5 21.578125 
z
M 31.109375 56 
z
" id="DejaVuSans-75"/>
      <path d="M 45.40625 46.390625 
L 45.40625 75.984375 
L 54.390625 75.984375 
L 54.390625 0 
L 45.40625 0 
L 45.40625 8.203125 
Q 42.578125 3.328125 38.25 0.953125 
Q 33.9375 -1.421875 27.875 -1.421875 
Q 17.96875 -1.421875 11.734375 6.484375 
Q 5.515625 14.40625 5.515625 27.296875 
Q 5.515625 40.1875 11.734375 48.09375 
Q 17.96875 56 27.875 56 
Q 33.9375 56 38.25 53.625 
Q 42.578125 51.265625 45.40625 46.390625 
z
M 14.796875 27.296875 
Q 14.796875 17.390625 18.875 11.75 
Q 22.953125 6.109375 30.078125 6.109375 
Q 37.203125 6.109375 41.296875 11.75 
Q 45.40625 17.390625 45.40625 27.296875 
Q 45.40625 37.203125 41.296875 42.84375 
Q 37.203125 48.484375 30.078125 48.484375 
Q 22.953125 48.484375 18.875 42.84375 
Q 14.796875 37.203125 14.796875 27.296875 
z
" id="DejaVuSans-64"/>
      <path d="M 56.203125 29.59375 
L 56.203125 25.203125 
L 14.890625 25.203125 
Q 15.484375 15.921875 20.484375 11.0625 
Q 25.484375 6.203125 34.421875 6.203125 
Q 39.59375 6.203125 44.453125 7.46875 
Q 49.3125 8.734375 54.109375 11.28125 
L 54.109375 2.78125 
Q 49.265625 0.734375 44.1875 -0.34375 
Q 39.109375 -1.421875 33.890625 -1.421875 
Q 20.796875 -1.421875 13.15625 6.1875 
Q 5.515625 13.8125 5.515625 26.8125 
Q 5.515625 40.234375 12.765625 48.109375 
Q 20.015625 56 32.328125 56 
Q 43.359375 56 49.78125 48.890625 
Q 56.203125 41.796875 56.203125 29.59375 
z
M 47.21875 32.234375 
Q 47.125 39.59375 43.09375 43.984375 
Q 39.0625 48.390625 32.421875 48.390625 
Q 24.90625 48.390625 20.390625 44.140625 
Q 15.875 39.890625 15.1875 32.171875 
z
" id="DejaVuSans-65"/>
      <path d="M 54.890625 33.015625 
L 54.890625 0 
L 45.90625 0 
L 45.90625 32.71875 
Q 45.90625 40.484375 42.875 44.328125 
Q 39.84375 48.1875 33.796875 48.1875 
Q 26.515625 48.1875 22.3125 43.546875 
Q 18.109375 38.921875 18.109375 30.90625 
L 18.109375 0 
L 9.078125 0 
L 9.078125 54.6875 
L 18.109375 54.6875 
L 18.109375 46.1875 
Q 21.34375 51.125 25.703125 53.5625 
Q 30.078125 56 35.796875 56 
Q 45.21875 56 50.046875 50.171875 
Q 54.890625 44.34375 54.890625 33.015625 
z
" id="DejaVuSans-6e"/>
      <path d="M 4.890625 31.390625 
L 31.203125 31.390625 
L 31.203125 23.390625 
L 4.890625 23.390625 
z
" id="DejaVuSans-2d"/>
      <path id="DejaVuSans-20"/>
      <path d="M 31 75.875 
Q 24.46875 64.65625 21.28125 53.65625 
Q 18.109375 42.671875 18.109375 31.390625 
Q 18.109375 20.125 21.3125 9.0625 
Q 24.515625 -2 31 -13.1875 
L 23.1875 -13.1875 
Q 15.875 -1.703125 12.234375 9.375 
Q 8.59375 20.453125 8.59375 31.390625 
Q 8.59375 42.28125 12.203125 53.3125 
Q 15.828125 64.359375 23.1875 75.875 
z
" id="DejaVuSans-28"/>
      <path d="M 30.609375 48.390625 
Q 23.390625 48.390625 19.1875 42.75 
Q 14.984375 37.109375 14.984375 27.296875 
Q 14.984375 17.484375 19.15625 11.84375 
Q 23.34375 6.203125 30.609375 6.203125 
Q 37.796875 6.203125 41.984375 11.859375 
Q 46.1875 17.53125 46.1875 27.296875 
Q 46.1875 37.015625 41.984375 42.703125 
Q 37.796875 48.390625 30.609375 48.390625 
z
M 30.609375 56 
Q 42.328125 56 49.015625 48.375 
Q 55.71875 40.765625 55.71875 27.296875 
Q 55.71875 13.875 49.015625 6.21875 
Q 42.328125 -1.421875 30.609375 -1.421875 
Q 18.84375 -1.421875 12.171875 6.21875 
Q 5.515625 13.875 5.515625 27.296875 
Q 5.515625 40.765625 12.171875 48.375 
Q 18.84375 56 30.609375 56 
z
" id="DejaVuSans-6f"/>
      <path d="M 37.109375 75.984375 
L 37.109375 68.5 
L 28.515625 68.5 
Q 23.6875 68.5 21.796875 66.546875 
Q 19.921875 64.59375 19.921875 59.515625 
L 19.921875 54.6875 
L 34.71875 54.6875 
L 34.71875 47.703125 
L 19.921875 47.703125 
L 19.921875 0 
L 10.890625 0 
L 10.890625 47.703125 
L 2.296875 47.703125 
L 2.296875 54.6875 
L 10.890625 54.6875 
L 10.890625 58.5 
Q 10.890625 67.625 15.140625 71.796875 
Q 19.390625 75.984375 28.609375 75.984375 
z
" id="DejaVuSans-66"/>
      <path d="M 10.59375 45.40625 
L 73.1875 45.40625 
L 73.1875 37.203125 
L 10.59375 37.203125 
z
M 10.59375 25.484375 
L 73.1875 25.484375 
L 73.1875 17.1875 
L 10.59375 17.1875 
z
" id="DejaVuSans-3d"/>
      <path d="M 8.015625 75.875 
L 15.828125 75.875 
Q 23.140625 64.359375 26.78125 53.3125 
Q 30.421875 42.28125 30.421875 31.390625 
Q 30.421875 20.453125 26.78125 9.375 
Q 23.140625 -1.703125 15.828125 -13.1875 
L 8.015625 -13.1875 
Q 14.5 -2 17.703125 9.0625 
Q 20.90625 20.125 20.90625 31.390625 
Q 20.90625 42.671875 17.703125 53.65625 
Q 14.5 64.65625 8.015625 75.875 
z
" id="DejaVuSans-29"/>
     </defs>
     <g transform="translate(674.771875 68.438437)scale(0.1 -0.1)">
      <use xlink:href="#DejaVuSans-73"/>
      <use x="52.099609" xlink:href="#DejaVuSans-74"/>
      <use x="91.308594" xlink:href="#DejaVuSans-75"/>
      <use x="154.6875" xlink:href="#DejaVuSans-64"/>
      <use x="218.164062" xlink:href="#DejaVuSans-65"/>
      <use x="279.6875" xlink:href="#DejaVuSans-6e"/>
      <use x="343.066406" xlink:href="#DejaVuSans-74"/>
      <use x="382.275391" xlink:href="#DejaVuSans-2d"/>
      <use x="418.359375" xlink:href="#DejaVuSans-74"/>
      <use x="457.568359" xlink:href="#DejaVuSans-20"/>
      <use x="489.355469" xlink:href="#DejaVuSans-28"/>
      <use x="528.369141" xlink:href="#DejaVuSans-64"/>
      <use x="591.845703" xlink:href="#DejaVuSans-6f"/>
      <use x="653.027344" xlink:href="#DejaVuSans-66"/>
      <use x="688.232422" xlink:href="#DejaVuSans-3d"/>
      <use x="772.021484" xlink:href="#DejaVuSans-31"/>
      <use x="835.644531" xlink:href="#DejaVuSans-29"/>
     </g>
    </g>
    <g id="line2d_26">
     <path d="M 646.771875 79.616562 
L 666.771875 79.616562 
" style="fill:none;stroke:#ff7f0e;stroke-dasharray:1.5,2.475;stroke-dashoffset:0;stroke-width:1.5;"/>
    </g>
    <g id="line2d_27"/>
    <g id="text_20">
     <!-- student-t (dof=2) -->
     <g transform="translate(674.771875 83.116562)scale(0.1 -0.1)">
      <use xlink:href="#DejaVuSans-73"/>
      <use x="52.099609" xlink:href="#DejaVuSans-74"/>
      <use x="91.308594" xlink:href="#DejaVuSans-75"/>
      <use x="154.6875" xlink:href="#DejaVuSans-64"/>
      <use x="218.164062" xlink:href="#DejaVuSans-65"/>
      <use x="279.6875" xlink:href="#DejaVuSans-6e"/>
      <use x="343.066406" xlink:href="#DejaVuSans-74"/>
      <use x="382.275391" xlink:href="#DejaVuSans-2d"/>
      <use x="418.359375" xlink:href="#DejaVuSans-74"/>
      <use x="457.568359" xlink:href="#DejaVuSans-20"/>
      <use x="489.355469" xlink:href="#DejaVuSans-28"/>
      <use x="528.369141" xlink:href="#DejaVuSans-64"/>
      <use x="591.845703" xlink:href="#DejaVuSans-6f"/>
      <use x="653.027344" xlink:href="#DejaVuSans-66"/>
      <use x="688.232422" xlink:href="#DejaVuSans-3d"/>
      <use x="772.021484" xlink:href="#DejaVuSans-32"/>
      <use x="835.644531" xlink:href="#DejaVuSans-29"/>
     </g>
    </g>
    <g id="line2d_28">
     <path d="M 646.771875 94.294687 
L 666.771875 94.294687 
" style="fill:none;stroke:#2ca02c;stroke-dasharray:1.5,2.475;stroke-dashoffset:0;stroke-width:1.5;"/>
    </g>
    <g id="line2d_29"/>
    <g id="text_21">
     <!-- student-t (dof=5) -->
     <g transform="translate(674.771875 97.794687)scale(0.1 -0.1)">
      <use xlink:href="#DejaVuSans-73"/>
      <use x="52.099609" xlink:href="#DejaVuSans-74"/>
      <use x="91.308594" xlink:href="#DejaVuSans-75"/>
      <use x="154.6875" xlink:href="#DejaVuSans-64"/>
      <use x="218.164062" xlink:href="#DejaVuSans-65"/>
      <use x="279.6875" xlink:href="#DejaVuSans-6e"/>
      <use x="343.066406" xlink:href="#DejaVuSans-74"/>
      <use x="382.275391" xlink:href="#DejaVuSans-2d"/>
      <use x="418.359375" xlink:href="#DejaVuSans-74"/>
      <use x="457.568359" xlink:href="#DejaVuSans-20"/>
      <use x="489.355469" xlink:href="#DejaVuSans-28"/>
      <use x="528.369141" xlink:href="#DejaVuSans-64"/>
      <use x="591.845703" xlink:href="#DejaVuSans-6f"/>
      <use x="653.027344" xlink:href="#DejaVuSans-66"/>
      <use x="688.232422" xlink:href="#DejaVuSans-3d"/>
      <use x="772.021484" xlink:href="#DejaVuSans-35"/>
      <use x="835.644531" xlink:href="#DejaVuSans-29"/>
     </g>
    </g>
    <g id="line2d_30">
     <path d="M 646.771875 108.972812 
L 666.771875 108.972812 
" style="fill:none;stroke:#d62728;stroke-dasharray:1.5,2.475;stroke-dashoffset:0;stroke-width:1.5;"/>
    </g>
    <g id="line2d_31"/>
    <g id="text_22">
     <!-- student-t (dof=10) -->
     <g transform="translate(674.771875 112.472812)scale(0.1 -0.1)">
      <use xlink:href="#DejaVuSans-73"/>
      <use x="52.099609" xlink:href="#DejaVuSans-74"/>
      <use x="91.308594" xlink:href="#DejaVuSans-75"/>
      <use x="154.6875" xlink:href="#DejaVuSans-64"/>
      <use x="218.164062" xlink:href="#DejaVuSans-65"/>
      <use x="279.6875" xlink:href="#DejaVuSans-6e"/>
      <use x="343.066406" xlink:href="#DejaVuSans-74"/>
      <use x="382.275391" xlink:href="#DejaVuSans-2d"/>
      <use x="418.359375" xlink:href="#DejaVuSans-74"/>
      <use x="457.568359" xlink:href="#DejaVuSans-20"/>
      <use x="489.355469" xlink:href="#DejaVuSans-28"/>
      <use x="528.369141" xlink:href="#DejaVuSans-64"/>
      <use x="591.845703" xlink:href="#DejaVuSans-6f"/>
      <use x="653.027344" xlink:href="#DejaVuSans-66"/>
      <use x="688.232422" xlink:href="#DejaVuSans-3d"/>
      <use x="772.021484" xlink:href="#DejaVuSans-31"/>
      <use x="835.644531" xlink:href="#DejaVuSans-30"/>
      <use x="899.267578" xlink:href="#DejaVuSans-29"/>
     </g>
    </g>
    <g id="line2d_32">
     <path d="M 646.771875 123.650937 
L 666.771875 123.650937 
" style="fill:none;opacity:0.9;stroke:#9467bd;stroke-dasharray:18.5,8;stroke-dashoffset:0;stroke-width:5;"/>
    </g>
    <g id="line2d_33"/>
    <g id="text_23">
     <!-- Normal -->
     <defs>
      <path d="M 9.8125 72.90625 
L 23.09375 72.90625 
L 55.421875 11.921875 
L 55.421875 72.90625 
L 64.984375 72.90625 
L 64.984375 0 
L 51.703125 0 
L 19.390625 60.984375 
L 19.390625 0 
L 9.8125 0 
z
" id="DejaVuSans-4e"/>
      <path d="M 41.109375 46.296875 
Q 39.59375 47.171875 37.8125 47.578125 
Q 36.03125 48 33.890625 48 
Q 26.265625 48 22.1875 43.046875 
Q 18.109375 38.09375 18.109375 28.8125 
L 18.109375 0 
L 9.078125 0 
L 9.078125 54.6875 
L 18.109375 54.6875 
L 18.109375 46.1875 
Q 20.953125 51.171875 25.484375 53.578125 
Q 30.03125 56 36.53125 56 
Q 37.453125 56 38.578125 55.875 
Q 39.703125 55.765625 41.0625 55.515625 
z
" id="DejaVuSans-72"/>
      <path d="M 52 44.1875 
Q 55.375 50.25 60.0625 53.125 
Q 64.75 56 71.09375 56 
Q 79.640625 56 84.28125 50.015625 
Q 88.921875 44.046875 88.921875 33.015625 
L 88.921875 0 
L 79.890625 0 
L 79.890625 32.71875 
Q 79.890625 40.578125 77.09375 44.375 
Q 74.3125 48.1875 68.609375 48.1875 
Q 61.625 48.1875 57.5625 43.546875 
Q 53.515625 38.921875 53.515625 30.90625 
L 53.515625 0 
L 44.484375 0 
L 44.484375 32.71875 
Q 44.484375 40.625 41.703125 44.40625 
Q 38.921875 48.1875 33.109375 48.1875 
Q 26.21875 48.1875 22.15625 43.53125 
Q 18.109375 38.875 18.109375 30.90625 
L 18.109375 0 
L 9.078125 0 
L 9.078125 54.6875 
L 18.109375 54.6875 
L 18.109375 46.1875 
Q 21.1875 51.21875 25.484375 53.609375 
Q 29.78125 56 35.6875 56 
Q 41.65625 56 45.828125 52.96875 
Q 50 49.953125 52 44.1875 
z
" id="DejaVuSans-6d"/>
      <path d="M 34.28125 27.484375 
Q 23.390625 27.484375 19.1875 25 
Q 14.984375 22.515625 14.984375 16.5 
Q 14.984375 11.71875 18.140625 8.90625 
Q 21.296875 6.109375 26.703125 6.109375 
Q 34.1875 6.109375 38.703125 11.40625 
Q 43.21875 16.703125 43.21875 25.484375 
L 43.21875 27.484375 
z
M 52.203125 31.203125 
L 52.203125 0 
L 43.21875 0 
L 43.21875 8.296875 
Q 40.140625 3.328125 35.546875 0.953125 
Q 30.953125 -1.421875 24.3125 -1.421875 
Q 15.921875 -1.421875 10.953125 3.296875 
Q 6 8.015625 6 15.921875 
Q 6 25.140625 12.171875 29.828125 
Q 18.359375 34.515625 30.609375 34.515625 
L 43.21875 34.515625 
L 43.21875 35.40625 
Q 43.21875 41.609375 39.140625 45 
Q 35.0625 48.390625 27.6875 48.390625 
Q 23 48.390625 18.546875 47.265625 
Q 14.109375 46.140625 10.015625 43.890625 
L 10.015625 52.203125 
Q 14.9375 54.109375 19.578125 55.046875 
Q 24.21875 56 28.609375 56 
Q 40.484375 56 46.34375 49.84375 
Q 52.203125 43.703125 52.203125 31.203125 
z
" id="DejaVuSans-61"/>
      <path d="M 9.421875 75.984375 
L 18.40625 75.984375 
L 18.40625 0 
L 9.421875 0 
z
" id="DejaVuSans-6c"/>
     </defs>
     <g transform="translate(674.771875 127.150937)scale(0.1 -0.1)">
      <use xlink:href="#DejaVuSans-4e"/>
      <use x="74.804688" xlink:href="#DejaVuSans-6f"/>
      <use x="135.986328" xlink:href="#DejaVuSans-72"/>
      <use x="177.083984" xlink:href="#DejaVuSans-6d"/>
      <use x="274.496094" xlink:href="#DejaVuSans-61"/>
      <use x="335.775391" xlink:href="#DejaVuSans-6c"/>
     </g>
    </g>
   </g>
  </g>
 </g>
 <defs>
  <clipPath id="p74898a80c1">
   <rect height="326.16" width="669.6" x="108" y="51.84"/>
  </clipPath>
 </defs>
</svg>
