<?xml version="1.0" encoding="utf-8" standalone="no"?>
<!DOCTYPE svg PUBLIC "-//W3C//DTD SVG 1.1//EN"
  "http://www.w3.org/Graphics/SVG/1.1/DTD/svg11.dtd">
<!-- Created with matplotlib (http://matplotlib.org/) -->
<svg height="432pt" version="1.1" viewBox="0 0 864 432" width="864pt" xmlns="http://www.w3.org/2000/svg" xmlns:xlink="http://www.w3.org/1999/xlink">
 <defs>
  <style type="text/css">
*{stroke-linecap:butt;stroke-linejoin:round;}
  </style>
 </defs>
 <g id="figure_1">
  <g id="patch_1">
   <path d="M 0 432 
L 864 432 
L 864 0 
L 0 0 
z
" style="fill:#ffffff;"/>
  </g>
  <g id="axes_1">
   <g id="patch_2">
    <path d="M 108 378 
L 777.6 378 
L 777.6 51.84 
L 108 51.84 
z
" style="fill:#ffffff;"/>
   </g>
   <g id="matplotlib.axis_1">
    <g id="xtick_1">
     <g id="line2d_1">
      <defs>
       <path d="M 0 0 
L 0 3.5 
" id="madc862cc93" style="stroke:#000000;stroke-width:0.8;"/>
      </defs>
      <g>
       <use style="stroke:#000000;stroke-width:0.8;" x="174.387224" xlink:href="#madc862cc93" y="378"/>
      </g>
     </g>
     <g id="text_1">
      <!-- 2018-03 -->
      <defs>
       <path d="M 19.1875 8.296875 
L 53.609375 8.296875 
L 53.609375 0 
L 7.328125 0 
L 7.328125 8.296875 
Q 12.9375 14.109375 22.625 23.890625 
Q 32.328125 33.6875 34.8125 36.53125 
Q 39.546875 41.84375 41.421875 45.53125 
Q 43.3125 49.21875 43.3125 52.78125 
Q 43.3125 58.59375 39.234375 62.25 
Q 35.15625 65.921875 28.609375 65.921875 
Q 23.96875 65.921875 18.8125 64.3125 
Q 13.671875 62.703125 7.8125 59.421875 
L 7.8125 69.390625 
Q 13.765625 71.78125 18.9375 73 
Q 24.125 74.21875 28.421875 74.21875 
Q 39.75 74.21875 46.484375 68.546875 
Q 53.21875 62.890625 53.21875 53.421875 
Q 53.21875 48.921875 51.53125 44.890625 
Q 49.859375 40.875 45.40625 35.40625 
Q 44.1875 33.984375 37.640625 27.21875 
Q 31.109375 20.453125 19.1875 8.296875 
z
" id="DejaVuSans-32"/>
       <path d="M 31.78125 66.40625 
Q 24.171875 66.40625 20.328125 58.90625 
Q 16.5 51.421875 16.5 36.375 
Q 16.5 21.390625 20.328125 13.890625 
Q 24.171875 6.390625 31.78125 6.390625 
Q 39.453125 6.390625 43.28125 13.890625 
Q 47.125 21.390625 47.125 36.375 
Q 47.125 51.421875 43.28125 58.90625 
Q 39.453125 66.40625 31.78125 66.40625 
z
M 31.78125 74.21875 
Q 44.046875 74.21875 50.515625 64.515625 
Q 56.984375 54.828125 56.984375 36.375 
Q 56.984375 17.96875 50.515625 8.265625 
Q 44.046875 -1.421875 31.78125 -1.421875 
Q 19.53125 -1.421875 13.0625 8.265625 
Q 6.59375 17.96875 6.59375 36.375 
Q 6.59375 54.828125 13.0625 64.515625 
Q 19.53125 74.21875 31.78125 74.21875 
z
" id="DejaVuSans-30"/>
       <path d="M 12.40625 8.296875 
L 28.515625 8.296875 
L 28.515625 63.921875 
L 10.984375 60.40625 
L 10.984375 69.390625 
L 28.421875 72.90625 
L 38.28125 72.90625 
L 38.28125 8.296875 
L 54.390625 8.296875 
L 54.390625 0 
L 12.40625 0 
z
" id="DejaVuSans-31"/>
       <path d="M 31.78125 34.625 
Q 24.75 34.625 20.71875 30.859375 
Q 16.703125 27.09375 16.703125 20.515625 
Q 16.703125 13.921875 20.71875 10.15625 
Q 24.75 6.390625 31.78125 6.390625 
Q 38.8125 6.390625 42.859375 10.171875 
Q 46.921875 13.96875 46.921875 20.515625 
Q 46.921875 27.09375 42.890625 30.859375 
Q 38.875 34.625 31.78125 34.625 
z
M 21.921875 38.8125 
Q 15.578125 40.375 12.03125 44.71875 
Q 8.5 49.078125 8.5 55.328125 
Q 8.5 64.0625 14.71875 69.140625 
Q 20.953125 74.21875 31.78125 74.21875 
Q 42.671875 74.21875 48.875 69.140625 
Q 55.078125 64.0625 55.078125 55.328125 
Q 55.078125 49.078125 51.53125 44.71875 
Q 48 40.375 41.703125 38.8125 
Q 48.828125 37.15625 52.796875 32.3125 
Q 56.78125 27.484375 56.78125 20.515625 
Q 56.78125 9.90625 50.3125 4.234375 
Q 43.84375 -1.421875 31.78125 -1.421875 
Q 19.734375 -1.421875 13.25 4.234375 
Q 6.78125 9.90625 6.78125 20.515625 
Q 6.78125 27.484375 10.78125 32.3125 
Q 14.796875 37.15625 21.921875 38.8125 
z
M 18.3125 54.390625 
Q 18.3125 48.734375 21.84375 45.5625 
Q 25.390625 42.390625 31.78125 42.390625 
Q 38.140625 42.390625 41.71875 45.5625 
Q 45.3125 48.734375 45.3125 54.390625 
Q 45.3125 60.0625 41.71875 63.234375 
Q 38.140625 66.40625 31.78125 66.40625 
Q 25.390625 66.40625 21.84375 63.234375 
Q 18.3125 60.0625 18.3125 54.390625 
z
" id="DejaVuSans-38"/>
       <path d="M 4.890625 31.390625 
L 31.203125 31.390625 
L 31.203125 23.390625 
L 4.890625 23.390625 
z
" id="DejaVuSans-2d"/>
       <path d="M 40.578125 39.3125 
Q 47.65625 37.796875 51.625 33 
Q 55.609375 28.21875 55.609375 21.1875 
Q 55.609375 10.40625 48.1875 4.484375 
Q 40.765625 -1.421875 27.09375 -1.421875 
Q 22.515625 -1.421875 17.65625 -0.515625 
Q 12.796875 0.390625 7.625 2.203125 
L 7.625 11.71875 
Q 11.71875 9.328125 16.59375 8.109375 
Q 21.484375 6.890625 26.8125 6.890625 
Q 36.078125 6.890625 40.9375 10.546875 
Q 45.796875 14.203125 45.796875 21.1875 
Q 45.796875 27.640625 41.28125 31.265625 
Q 36.765625 34.90625 28.71875 34.90625 
L 20.21875 34.90625 
L 20.21875 43.015625 
L 29.109375 43.015625 
Q 36.375 43.015625 40.234375 45.921875 
Q 44.09375 48.828125 44.09375 54.296875 
Q 44.09375 59.90625 40.109375 62.90625 
Q 36.140625 65.921875 28.71875 65.921875 
Q 24.65625 65.921875 20.015625 65.03125 
Q 15.375 64.15625 9.8125 62.3125 
L 9.8125 71.09375 
Q 15.4375 72.65625 20.34375 73.4375 
Q 25.25 74.21875 29.59375 74.21875 
Q 40.828125 74.21875 47.359375 69.109375 
Q 53.90625 64.015625 53.90625 55.328125 
Q 53.90625 49.265625 50.4375 45.09375 
Q 46.96875 40.921875 40.578125 39.3125 
z
" id="DejaVuSans-33"/>
      </defs>
      <g transform="translate(153.495817 392.598437)scale(0.1 -0.1)">
       <use xlink:href="#DejaVuSans-32"/>
       <use x="63.623047" xlink:href="#DejaVuSans-30"/>
       <use x="127.246094" xlink:href="#DejaVuSans-31"/>
       <use x="190.869141" xlink:href="#DejaVuSans-38"/>
       <use x="254.492188" xlink:href="#DejaVuSans-2d"/>
       <use x="290.576172" xlink:href="#DejaVuSans-30"/>
       <use x="354.199219" xlink:href="#DejaVuSans-33"/>
      </g>
     </g>
    </g>
    <g id="xtick_2">
     <g id="line2d_2">
      <g>
       <use style="stroke:#000000;stroke-width:0.8;" x="248.72629" xlink:href="#madc862cc93" y="378"/>
      </g>
     </g>
     <g id="text_2">
      <!-- 2018-07 -->
      <defs>
       <path d="M 8.203125 72.90625 
L 55.078125 72.90625 
L 55.078125 68.703125 
L 28.609375 0 
L 18.3125 0 
L 43.21875 64.59375 
L 8.203125 64.59375 
z
" id="DejaVuSans-37"/>
      </defs>
      <g transform="translate(227.834884 392.598437)scale(0.1 -0.1)">
       <use xlink:href="#DejaVuSans-32"/>
       <use x="63.623047" xlink:href="#DejaVuSans-30"/>
       <use x="127.246094" xlink:href="#DejaVuSans-31"/>
       <use x="190.869141" xlink:href="#DejaVuSans-38"/>
       <use x="254.492188" xlink:href="#DejaVuSans-2d"/>
       <use x="290.576172" xlink:href="#DejaVuSans-30"/>
       <use x="354.199219" xlink:href="#DejaVuSans-37"/>
      </g>
     </g>
    </g>
    <g id="xtick_3">
     <g id="line2d_3">
      <g>
       <use style="stroke:#000000;stroke-width:0.8;" x="323.674693" xlink:href="#madc862cc93" y="378"/>
      </g>
     </g>
     <g id="text_3">
      <!-- 2018-11 -->
      <g transform="translate(302.783287 392.598437)scale(0.1 -0.1)">
       <use xlink:href="#DejaVuSans-32"/>
       <use x="63.623047" xlink:href="#DejaVuSans-30"/>
       <use x="127.246094" xlink:href="#DejaVuSans-31"/>
       <use x="190.869141" xlink:href="#DejaVuSans-38"/>
       <use x="254.492188" xlink:href="#DejaVuSans-2d"/>
       <use x="290.576172" xlink:href="#DejaVuSans-31"/>
       <use x="354.199219" xlink:href="#DejaVuSans-31"/>
      </g>
     </g>
    </g>
    <g id="xtick_4">
     <g id="line2d_4">
      <g>
       <use style="stroke:#000000;stroke-width:0.8;" x="396.795086" xlink:href="#madc862cc93" y="378"/>
      </g>
     </g>
     <g id="text_4">
      <!-- 2019-03 -->
      <defs>
       <path d="M 10.984375 1.515625 
L 10.984375 10.5 
Q 14.703125 8.734375 18.5 7.8125 
Q 22.3125 6.890625 25.984375 6.890625 
Q 35.75 6.890625 40.890625 13.453125 
Q 46.046875 20.015625 46.78125 33.40625 
Q 43.953125 29.203125 39.59375 26.953125 
Q 35.25 24.703125 29.984375 24.703125 
Q 19.046875 24.703125 12.671875 31.3125 
Q 6.296875 37.9375 6.296875 49.421875 
Q 6.296875 60.640625 12.9375 67.421875 
Q 19.578125 74.21875 30.609375 74.21875 
Q 43.265625 74.21875 49.921875 64.515625 
Q 56.59375 54.828125 56.59375 36.375 
Q 56.59375 19.140625 48.40625 8.859375 
Q 40.234375 -1.421875 26.421875 -1.421875 
Q 22.703125 -1.421875 18.890625 -0.6875 
Q 15.09375 0.046875 10.984375 1.515625 
z
M 30.609375 32.421875 
Q 37.25 32.421875 41.125 36.953125 
Q 45.015625 41.5 45.015625 49.421875 
Q 45.015625 57.28125 41.125 61.84375 
Q 37.25 66.40625 30.609375 66.40625 
Q 23.96875 66.40625 20.09375 61.84375 
Q 16.21875 57.28125 16.21875 49.421875 
Q 16.21875 41.5 20.09375 36.953125 
Q 23.96875 32.421875 30.609375 32.421875 
z
" id="DejaVuSans-39"/>
      </defs>
      <g transform="translate(375.90368 392.598437)scale(0.1 -0.1)">
       <use xlink:href="#DejaVuSans-32"/>
       <use x="63.623047" xlink:href="#DejaVuSans-30"/>
       <use x="127.246094" xlink:href="#DejaVuSans-31"/>
       <use x="190.869141" xlink:href="#DejaVuSans-39"/>
       <use x="254.492188" xlink:href="#DejaVuSans-2d"/>
       <use x="290.576172" xlink:href="#DejaVuSans-30"/>
       <use x="354.199219" xlink:href="#DejaVuSans-33"/>
      </g>
     </g>
    </g>
    <g id="xtick_5">
     <g id="line2d_5">
      <g>
       <use style="stroke:#000000;stroke-width:0.8;" x="471.134152" xlink:href="#madc862cc93" y="378"/>
      </g>
     </g>
     <g id="text_5">
      <!-- 2019-07 -->
      <g transform="translate(450.242746 392.598437)scale(0.1 -0.1)">
       <use xlink:href="#DejaVuSans-32"/>
       <use x="63.623047" xlink:href="#DejaVuSans-30"/>
       <use x="127.246094" xlink:href="#DejaVuSans-31"/>
       <use x="190.869141" xlink:href="#DejaVuSans-39"/>
       <use x="254.492188" xlink:href="#DejaVuSans-2d"/>
       <use x="290.576172" xlink:href="#DejaVuSans-30"/>
       <use x="354.199219" xlink:href="#DejaVuSans-37"/>
      </g>
     </g>
    </g>
    <g id="xtick_6">
     <g id="line2d_6">
      <g>
       <use style="stroke:#000000;stroke-width:0.8;" x="546.082555" xlink:href="#madc862cc93" y="378"/>
      </g>
     </g>
     <g id="text_6">
      <!-- 2019-11 -->
      <g transform="translate(525.191149 392.598437)scale(0.1 -0.1)">
       <use xlink:href="#DejaVuSans-32"/>
       <use x="63.623047" xlink:href="#DejaVuSans-30"/>
       <use x="127.246094" xlink:href="#DejaVuSans-31"/>
       <use x="190.869141" xlink:href="#DejaVuSans-39"/>
       <use x="254.492188" xlink:href="#DejaVuSans-2d"/>
       <use x="290.576172" xlink:href="#DejaVuSans-31"/>
       <use x="354.199219" xlink:href="#DejaVuSans-31"/>
      </g>
     </g>
    </g>
    <g id="xtick_7">
     <g id="line2d_7">
      <g>
       <use style="stroke:#000000;stroke-width:0.8;" x="619.812285" xlink:href="#madc862cc93" y="378"/>
      </g>
     </g>
     <g id="text_7">
      <!-- 2020-03 -->
      <g transform="translate(598.920879 392.598437)scale(0.1 -0.1)">
       <use xlink:href="#DejaVuSans-32"/>
       <use x="63.623047" xlink:href="#DejaVuSans-30"/>
       <use x="127.246094" xlink:href="#DejaVuSans-32"/>
       <use x="190.869141" xlink:href="#DejaVuSans-30"/>
       <use x="254.492188" xlink:href="#DejaVuSans-2d"/>
       <use x="290.576172" xlink:href="#DejaVuSans-30"/>
       <use x="354.199219" xlink:href="#DejaVuSans-33"/>
      </g>
     </g>
    </g>
    <g id="xtick_8">
     <g id="line2d_8">
      <g>
       <use style="stroke:#000000;stroke-width:0.8;" x="694.151351" xlink:href="#madc862cc93" y="378"/>
      </g>
     </g>
     <g id="text_8">
      <!-- 2020-07 -->
      <g transform="translate(673.259945 392.598437)scale(0.1 -0.1)">
       <use xlink:href="#DejaVuSans-32"/>
       <use x="63.623047" xlink:href="#DejaVuSans-30"/>
       <use x="127.246094" xlink:href="#DejaVuSans-32"/>
       <use x="190.869141" xlink:href="#DejaVuSans-30"/>
       <use x="254.492188" xlink:href="#DejaVuSans-2d"/>
       <use x="290.576172" xlink:href="#DejaVuSans-30"/>
       <use x="354.199219" xlink:href="#DejaVuSans-37"/>
      </g>
     </g>
    </g>
    <g id="xtick_9">
     <g id="line2d_9">
      <g>
       <use style="stroke:#000000;stroke-width:0.8;" x="769.099754" xlink:href="#madc862cc93" y="378"/>
      </g>
     </g>
     <g id="text_9">
      <!-- 2020-11 -->
      <g transform="translate(748.208348 392.598437)scale(0.1 -0.1)">
       <use xlink:href="#DejaVuSans-32"/>
       <use x="63.623047" xlink:href="#DejaVuSans-30"/>
       <use x="127.246094" xlink:href="#DejaVuSans-32"/>
       <use x="190.869141" xlink:href="#DejaVuSans-30"/>
       <use x="254.492188" xlink:href="#DejaVuSans-2d"/>
       <use x="290.576172" xlink:href="#DejaVuSans-31"/>
       <use x="354.199219" xlink:href="#DejaVuSans-31"/>
      </g>
     </g>
    </g>
   </g>
   <g id="matplotlib.axis_2">
    <g id="ytick_1">
     <g id="line2d_10">
      <defs>
       <path d="M 0 0 
L -3.5 0 
" id="mad559e339f" style="stroke:#000000;stroke-width:0.8;"/>
      </defs>
      <g>
       <use style="stroke:#000000;stroke-width:0.8;" x="108" xlink:href="#mad559e339f" y="354.787801"/>
      </g>
     </g>
     <g id="text_10">
      <!-- −10 -->
      <defs>
       <path d="M 10.59375 35.5 
L 73.1875 35.5 
L 73.1875 27.203125 
L 10.59375 27.203125 
z
" id="DejaVuSans-2212"/>
      </defs>
      <g transform="translate(79.895313 358.58702)scale(0.1 -0.1)">
       <use xlink:href="#DejaVuSans-2212"/>
       <use x="83.789062" xlink:href="#DejaVuSans-31"/>
       <use x="147.412109" xlink:href="#DejaVuSans-30"/>
      </g>
     </g>
    </g>
    <g id="ytick_2">
     <g id="line2d_11">
      <g>
       <use style="stroke:#000000;stroke-width:0.8;" x="108" xlink:href="#mad559e339f" y="312.186619"/>
      </g>
     </g>
     <g id="text_11">
      <!-- −5 -->
      <defs>
       <path d="M 10.796875 72.90625 
L 49.515625 72.90625 
L 49.515625 64.59375 
L 19.828125 64.59375 
L 19.828125 46.734375 
Q 21.96875 47.46875 24.109375 47.828125 
Q 26.265625 48.1875 28.421875 48.1875 
Q 40.625 48.1875 47.75 41.5 
Q 54.890625 34.8125 54.890625 23.390625 
Q 54.890625 11.625 47.5625 5.09375 
Q 40.234375 -1.421875 26.90625 -1.421875 
Q 22.3125 -1.421875 17.546875 -0.640625 
Q 12.796875 0.140625 7.71875 1.703125 
L 7.71875 11.625 
Q 12.109375 9.234375 16.796875 8.0625 
Q 21.484375 6.890625 26.703125 6.890625 
Q 35.15625 6.890625 40.078125 11.328125 
Q 45.015625 15.765625 45.015625 23.390625 
Q 45.015625 31 40.078125 35.4375 
Q 35.15625 39.890625 26.703125 39.890625 
Q 22.75 39.890625 18.8125 39.015625 
Q 14.890625 38.140625 10.796875 36.28125 
z
" id="DejaVuSans-35"/>
      </defs>
      <g transform="translate(86.257812 315.985838)scale(0.1 -0.1)">
       <use xlink:href="#DejaVuSans-2212"/>
       <use x="83.789062" xlink:href="#DejaVuSans-35"/>
      </g>
     </g>
    </g>
    <g id="ytick_3">
     <g id="line2d_12">
      <g>
       <use style="stroke:#000000;stroke-width:0.8;" x="108" xlink:href="#mad559e339f" y="269.585436"/>
      </g>
     </g>
     <g id="text_12">
      <!-- 0 -->
      <g transform="translate(94.6375 273.384655)scale(0.1 -0.1)">
       <use xlink:href="#DejaVuSans-30"/>
      </g>
     </g>
    </g>
    <g id="ytick_4">
     <g id="line2d_13">
      <g>
       <use style="stroke:#000000;stroke-width:0.8;" x="108" xlink:href="#mad559e339f" y="226.984254"/>
      </g>
     </g>
     <g id="text_13">
      <!-- 5 -->
      <g transform="translate(94.6375 230.783473)scale(0.1 -0.1)">
       <use xlink:href="#DejaVuSans-35"/>
      </g>
     </g>
    </g>
    <g id="ytick_5">
     <g id="line2d_14">
      <g>
       <use style="stroke:#000000;stroke-width:0.8;" x="108" xlink:href="#mad559e339f" y="184.383072"/>
      </g>
     </g>
     <g id="text_14">
      <!-- 10 -->
      <g transform="translate(88.275 188.182291)scale(0.1 -0.1)">
       <use xlink:href="#DejaVuSans-31"/>
       <use x="63.623047" xlink:href="#DejaVuSans-30"/>
      </g>
     </g>
    </g>
    <g id="ytick_6">
     <g id="line2d_15">
      <g>
       <use style="stroke:#000000;stroke-width:0.8;" x="108" xlink:href="#mad559e339f" y="141.781889"/>
      </g>
     </g>
     <g id="text_15">
      <!-- 15 -->
      <g transform="translate(88.275 145.581108)scale(0.1 -0.1)">
       <use xlink:href="#DejaVuSans-31"/>
       <use x="63.623047" xlink:href="#DejaVuSans-35"/>
      </g>
     </g>
    </g>
    <g id="ytick_7">
     <g id="line2d_16">
      <g>
       <use style="stroke:#000000;stroke-width:0.8;" x="108" xlink:href="#mad559e339f" y="99.180707"/>
      </g>
     </g>
     <g id="text_16">
      <!-- 20 -->
      <g transform="translate(88.275 102.979926)scale(0.1 -0.1)">
       <use xlink:href="#DejaVuSans-32"/>
       <use x="63.623047" xlink:href="#DejaVuSans-30"/>
      </g>
     </g>
    </g>
    <g id="ytick_8">
     <g id="line2d_17">
      <g>
       <use style="stroke:#000000;stroke-width:0.8;" x="108" xlink:href="#mad559e339f" y="56.579525"/>
      </g>
     </g>
     <g id="text_17">
      <!-- 25 -->
      <g transform="translate(88.275 60.378743)scale(0.1 -0.1)">
       <use xlink:href="#DejaVuSans-32"/>
       <use x="63.623047" xlink:href="#DejaVuSans-35"/>
      </g>
     </g>
    </g>
   </g>
   <g id="line2d_18">
    <path clip-path="url(#p664ac1340b)" d="M 138.436364 265.33908 
L 139.0457 272.563546 
L 140.264373 257.359234 
L 140.87371 256.591248 
L 141.483047 235.922921 
L 142.092383 235.708074 
L 142.70172 213.941398 
L 143.311057 208.579872 
L 143.920393 216.149053 
L 144.52973 217.834458 
L 145.139066 218.034263 
L 145.748403 204.629158 
L 146.35774 200.560594 
L 146.967076 191.950765 
L 147.576413 186.208545 
L 148.185749 181.786836 
L 148.795086 182.861297 
L 149.404423 170.584628 
L 150.013759 171.298149 
L 150.623096 173.686689 
L 151.232432 166.644593 
L 151.841769 163.841726 
L 152.451106 164.280253 
L 153.669779 177.362091 
L 154.279115 177.465189 
L 154.888452 173.269118 
L 155.497789 185.239141 
L 156.107125 180.547877 
L 156.716462 195.788421 
L 157.325799 194.880011 
L 157.935135 189.367088 
L 158.544472 184.977542 
L 159.153808 198.299734 
L 159.763145 181.281296 
L 160.372482 172.432381 
L 161.591155 200.332831 
L 162.200491 201.07601 
L 162.809828 198.091225 
L 163.419165 206.766928 
L 164.028501 207.931475 
L 164.637838 214.70477 
L 165.247174 209.580043 
L 165.856511 207.938701 
L 166.465848 211.712309 
L 167.075184 207.21671 
L 167.684521 203.858433 
L 168.903194 189.722324 
L 169.512531 191.293208 
L 170.121867 199.047489 
L 170.731204 203.063748 
L 171.340541 196.726773 
L 171.949877 186.63108 
L 172.559214 186.800192 
L 173.16855 185.512232 
L 173.777887 193.345219 
L 174.387224 198.853033 
L 174.99656 201.458766 
L 176.215233 181.362823 
L 176.82457 183.100829 
L 177.433907 187.512193 
L 178.043243 188.212289 
L 178.65258 178.840635 
L 179.261916 186.414518 
L 179.871253 181.651819 
L 180.48059 166.721804 
L 181.089926 163.736066 
L 181.699263 180.174403 
L 182.3086 173.519613 
L 182.917936 192.176476 
L 183.527273 186.385549 
L 184.136609 193.774839 
L 184.745946 187.93009 
L 185.355283 198.420392 
L 185.964619 188.081941 
L 186.573956 190.813704 
L 187.183292 205.084084 
L 187.792629 210.774841 
L 188.401966 206.100217 
L 189.011302 196.642297 
L 189.620639 207.980536 
L 190.229975 215.154936 
L 190.839312 205.949092 
L 191.448649 203.119258 
L 192.057985 193.37392 
L 192.667322 197.508819 
L 193.276658 197.951448 
L 193.885995 195.224877 
L 194.495332 191.240209 
L 195.104668 199.595544 
L 195.714005 176.866172 
L 196.323342 165.331161 
L 196.932678 180.571164 
L 197.542015 199.701939 
L 198.151351 188.553981 
L 198.760688 173.983663 
L 199.370025 180.257024 
L 199.979361 182.447158 
L 200.588698 171.403349 
L 201.198034 167.436175 
L 201.807371 150.211457 
L 202.416708 152.134707 
L 203.026044 143.625474 
L 203.635381 127.461005 
L 204.244717 128.674929 
L 204.854054 140.48025 
L 205.463391 139.516561 
L 206.072727 134.456027 
L 206.682064 148.557629 
L 207.2914 144.905623 
L 207.900737 126.443092 
L 208.510074 135.899657 
L 209.11941 138.406157 
L 209.728747 121.059478 
L 210.338084 123.498469 
L 210.94742 134.764181 
L 211.556757 136.486553 
L 212.166093 141.973493 
L 212.77543 148.502707 
L 213.384767 140.456675 
L 213.994103 145.79812 
L 214.60344 143.257761 
L 215.212776 136.145229 
L 215.822113 149.63977 
L 216.43145 144.664567 
L 217.040786 144.469304 
L 217.650123 142.818145 
L 218.259459 137.244206 
L 219.478133 108.27467 
L 220.696806 93.143795 
L 221.306143 90.681799 
L 221.915479 90.981139 
L 222.524816 101.072894 
L 223.134152 104.275753 
L 223.743489 98.348104 
L 224.352826 101.810032 
L 224.962162 112.888377 
L 225.571499 119.734448 
L 226.180835 120.443917 
L 226.790172 109.21597 
L 227.399509 105.671749 
L 228.008845 118.560996 
L 228.618182 122.035443 
L 229.227518 111.86646 
L 229.836855 116.144668 
L 231.055528 91.558487 
L 231.664865 95.785344 
L 232.274201 92.430784 
L 232.883538 112.101573 
L 233.492875 117.102267 
L 234.102211 119.545974 
L 234.711548 114.795041 
L 235.320885 102.64095 
L 235.930221 96.907031 
L 236.539558 101.583163 
L 237.758231 100.683873 
L 238.367568 107.121997 
L 238.976904 112.367482 
L 239.586241 98.172447 
L 240.195577 91.042724 
L 240.804914 90.881395 
L 241.414251 78.360591 
L 242.023587 74.753515 
L 243.24226 95.287143 
L 243.851597 107.505126 
L 244.460934 116.882884 
L 245.07027 115.927131 
L 245.679607 125.146565 
L 246.288943 118.370886 
L 246.89828 116.708025 
L 247.507617 115.878904 
L 248.116953 114.246611 
L 248.72629 108.144258 
L 249.335627 106.918409 
L 249.944963 99.018422 
L 250.5543 101.10744 
L 251.163636 94.108003 
L 251.772973 80.960605 
L 252.38231 80.646672 
L 252.991646 78.478754 
L 253.600983 80.519262 
L 254.210319 86.048572 
L 254.819656 85.27048 
L 255.428993 73.976004 
L 256.038329 74.874988 
L 256.647666 77.321911 
L 257.257002 66.665455 
L 257.866339 84.761375 
L 259.085012 101.709439 
L 259.694349 116.256377 
L 260.913022 98.046205 
L 261.522359 102.802332 
L 262.131695 109.812638 
L 262.741032 98.673466 
L 263.350369 103.219414 
L 263.959705 111.217921 
L 264.569042 100.773416 
L 265.178378 97.430787 
L 266.397052 80.636918 
L 267.006388 85.03445 
L 267.615725 104.535969 
L 268.225061 109.041834 
L 268.834398 118.637248 
L 269.443735 113.948452 
L 270.053071 133.380191 
L 270.662408 132.326692 
L 271.271744 128.05762 
L 271.881081 136.104687 
L 272.490418 128.211221 
L 273.099754 127.526172 
L 273.709091 128.690486 
L 274.318428 144.584725 
L 274.927764 140.756377 
L 275.537101 135.909239 
L 276.146437 129.001347 
L 277.974447 155.258083 
L 279.19312 144.417321 
L 279.802457 143.706906 
L 280.411794 165.419323 
L 281.02113 162.412566 
L 281.630467 155.8283 
L 282.239803 156.328535 
L 282.84914 159.095301 
L 283.458477 157.375377 
L 284.067813 158.252631 
L 284.67715 156.591242 
L 285.286486 155.517549 
L 285.895823 169.668376 
L 286.50516 168.122088 
L 287.723833 152.79891 
L 288.33317 161.22992 
L 288.942506 152.389429 
L 289.551843 158.466189 
L 290.161179 140.360314 
L 290.770516 138.831686 
L 291.379853 148.399986 
L 292.598526 130.77595 
L 293.207862 132.714742 
L 293.817199 142.753947 
L 294.426536 160.436812 
L 295.035872 169.843023 
L 295.645209 167.279897 
L 296.254545 157.434784 
L 296.863882 166.265096 
L 297.473219 169.087539 
L 298.082555 186.682444 
L 298.691892 190.652888 
L 299.301229 190.085916 
L 299.910565 186.608626 
L 300.519902 186.233309 
L 301.129238 192.293555 
L 301.738575 199.532253 
L 302.347912 203.250534 
L 302.957248 204.847901 
L 303.566585 200.443846 
L 304.175921 191.721191 
L 304.785258 192.008343 
L 305.394595 195.567683 
L 306.003931 192.478254 
L 306.613268 196.212934 
L 307.222604 193.082484 
L 307.831941 191.216793 
L 308.441278 201.654155 
L 309.050614 202.812732 
L 309.659951 202.179849 
L 310.269287 207.622195 
L 310.878624 198.690321 
L 311.487961 197.702403 
L 312.097297 208.680934 
L 313.315971 220.095902 
L 313.925307 210.931758 
L 314.534644 229.207628 
L 315.14398 236.809598 
L 315.753317 240.547706 
L 316.362654 248.429487 
L 316.97199 260.288802 
L 317.581327 257.80997 
L 318.190663 237.405339 
L 318.8 232.840869 
L 319.409337 225.541516 
L 320.018673 250.316371 
L 320.62801 259.145079 
L 321.237346 271.968772 
L 323.065356 262.872816 
L 323.674693 267.312359 
L 324.284029 252.232714 
L 325.502703 262.757156 
L 326.112039 250.01864 
L 326.721376 240.310902 
L 327.940049 233.717014 
L 328.549386 234.569072 
L 329.158722 231.503896 
L 329.768059 227.46534 
L 330.377396 227.863565 
L 330.986732 233.820658 
L 331.596069 230.831076 
L 332.205405 232.461134 
L 332.814742 222.850233 
L 333.424079 221.736419 
L 334.033415 214.388783 
L 334.642752 209.309152 
L 335.252088 211.618716 
L 335.861425 208.982814 
L 336.470762 204.857854 
L 337.080098 205.915614 
L 337.689435 209.766695 
L 338.298771 212.870377 
L 338.908108 214.243441 
L 339.517445 216.481795 
L 340.126781 230.990098 
L 340.736118 231.246062 
L 341.345455 228.927049 
L 341.954791 236.721676 
L 342.564128 227.715163 
L 343.173464 222.081838 
L 343.782801 211.850223 
L 344.392138 213.016015 
L 345.610811 191.639062 
L 346.220147 177.874112 
L 346.829484 169.018988 
L 347.438821 157.28455 
L 348.048157 160.913538 
L 348.657494 163.640679 
L 349.26683 167.467085 
L 350.485504 154.575936 
L 351.09484 154.294565 
L 351.704177 155.666975 
L 352.313514 160.07733 
L 352.92285 169.139822 
L 353.532187 152.859634 
L 354.141523 157.42633 
L 354.75086 164.984897 
L 355.360197 174.292873 
L 356.57887 160.080261 
L 357.797543 186.349286 
L 358.40688 182.575812 
L 359.016216 184.587218 
L 359.625553 204.068528 
L 360.234889 203.066194 
L 360.844226 218.550863 
L 361.453563 228.696762 
L 362.062899 227.632526 
L 362.672236 219.351143 
L 363.281572 230.059062 
L 363.890909 229.533551 
L 364.500246 227.408595 
L 365.109582 226.703501 
L 365.718919 224.719461 
L 366.328256 228.189953 
L 366.937592 213.620697 
L 367.546929 213.614696 
L 368.156265 216.035619 
L 369.374939 236.947818 
L 369.984275 234.191962 
L 370.593612 240.59584 
L 371.202948 254.1277 
L 371.812285 235.664533 
L 372.421622 231.890839 
L 373.030958 228.921868 
L 374.249631 216.305381 
L 375.468305 198.27419 
L 376.077641 196.252099 
L 376.686978 185.127162 
L 377.905651 170.444011 
L 378.514988 196.21858 
L 379.124324 191.43143 
L 379.733661 189.440096 
L 380.342998 192.613264 
L 381.561671 200.482403 
L 382.171007 201.400892 
L 382.780344 201.856713 
L 383.389681 206.930712 
L 383.999017 217.015575 
L 384.608354 223.028799 
L 385.21769 221.602638 
L 385.827027 224.131585 
L 386.436364 233.776021 
L 387.0457 241.134354 
L 387.655037 245.216242 
L 388.264373 257.820101 
L 388.87371 246.682284 
L 389.483047 243.890054 
L 390.092383 233.601125 
L 391.311057 252.425387 
L 391.920393 250.835293 
L 392.52973 240.958091 
L 393.139066 239.334595 
L 393.748403 238.710128 
L 394.967076 255.654739 
L 395.576413 270.674522 
L 396.185749 257.148545 
L 396.795086 266.71343 
L 397.404423 252.932536 
L 398.013759 268.882265 
L 398.623096 270.563459 
L 399.232432 261.660411 
L 400.451106 253.705264 
L 401.060442 244.175452 
L 401.669779 237.391567 
L 402.279115 236.765143 
L 402.888452 231.929199 
L 403.497789 219.666366 
L 404.107125 235.517346 
L 404.716462 226.892384 
L 405.325799 227.441964 
L 405.935135 244.655007 
L 406.544472 246.647575 
L 407.153808 235.268009 
L 407.763145 247.261943 
L 408.372482 245.885891 
L 408.981818 242.254977 
L 409.591155 234.062666 
L 410.200491 234.102952 
L 410.809828 238.684034 
L 411.419165 224.079569 
L 412.028501 225.697393 
L 412.637838 218.892625 
L 413.247174 214.590336 
L 413.856511 216.103609 
L 414.465848 213.88245 
L 415.075184 214.487597 
L 416.293857 236.341405 
L 416.903194 237.460859 
L 418.121867 241.878871 
L 418.731204 233.810467 
L 419.340541 237.574939 
L 419.949877 238.669413 
L 421.777887 266.365996 
L 422.387224 257.937763 
L 422.99656 268.596041 
L 423.605897 259.37824 
L 424.215233 263.338922 
L 424.82457 252.637106 
L 425.433907 272.802225 
L 426.043243 285.170461 
L 426.65258 282.922271 
L 427.261916 261.219129 
L 427.871253 270.874007 
L 428.48059 263.759774 
L 429.089926 270.493409 
L 429.699263 265.064567 
L 430.3086 252.674892 
L 430.917936 252.447085 
L 431.527273 255.365613 
L 432.136609 264.936146 
L 432.745946 265.034236 
L 433.355283 264.508092 
L 433.964619 256.319685 
L 434.573956 245.024738 
L 435.183292 238.890583 
L 435.792629 230.661207 
L 436.401966 241.93779 
L 437.620639 249.317248 
L 438.229975 239.586545 
L 438.839312 239.447569 
L 439.448649 251.152123 
L 440.057985 267.442527 
L 440.667322 269.87318 
L 441.276658 268.78994 
L 441.885995 257.733291 
L 442.495332 258.211508 
L 443.104668 260.397413 
L 443.714005 264.105542 
L 444.323342 275.208071 
L 444.932678 271.443909 
L 445.542015 265.476437 
L 446.151351 243.040085 
L 446.760688 247.047297 
L 447.370025 244.689287 
L 447.979361 241.793803 
L 448.588698 241.559041 
L 449.198034 242.687528 
L 449.807371 253.072708 
L 450.416708 266.610336 
L 451.026044 268.922428 
L 451.635381 261.292478 
L 452.244717 244.148985 
L 452.854054 244.959625 
L 453.463391 240.952773 
L 454.072727 229.30285 
L 454.682064 224.015345 
L 455.2914 233.481152 
L 455.900737 229.124616 
L 456.510074 240.922155 
L 457.11941 233.955685 
L 457.728747 220.469064 
L 458.338084 214.19095 
L 458.94742 200.930167 
L 459.556757 192.679782 
L 460.166093 195.30191 
L 460.77543 201.635509 
L 461.384767 215.681587 
L 461.994103 220.997316 
L 462.60344 213.932872 
L 463.212776 211.141846 
L 463.822113 200.782749 
L 464.43145 208.157023 
L 465.040786 208.882588 
L 465.650123 209.827905 
L 466.259459 215.066383 
L 466.868796 224.018015 
L 467.478133 226.42307 
L 468.087469 236.206244 
L 468.696806 240.428596 
L 469.306143 253.933017 
L 469.915479 258.719022 
L 470.524816 258.885631 
L 471.134152 283.384732 
L 471.743489 280.839234 
L 472.352826 299.117152 
L 472.962162 293.216738 
L 473.571499 295.713204 
L 474.180835 298.775783 
L 475.399509 288.032257 
L 476.008845 289.062782 
L 476.618182 292.64759 
L 477.227518 298.918913 
L 477.836855 297.112591 
L 478.446192 297.280331 
L 479.055528 304.822497 
L 479.664865 313.923437 
L 480.274201 328.238798 
L 480.883538 321.728412 
L 481.492875 317.71321 
L 482.102211 323.951774 
L 482.711548 321.679157 
L 483.320885 327.576133 
L 483.930221 329.778974 
L 484.539558 335.326977 
L 485.148894 339.667751 
L 485.758231 339.552329 
L 486.367568 341.776983 
L 486.976904 347.485709 
L 487.586241 350.481195 
L 488.195577 351.71567 
L 488.804914 344.106685 
L 489.414251 339.073437 
L 490.023587 343.927584 
L 490.632924 331.227815 
L 491.24226 344.736101 
L 491.851597 343.143034 
L 492.460934 358.116741 
L 493.07027 358.620476 
L 493.679607 343.304075 
L 494.288943 360.579637 
L 495.507617 350.000873 
L 496.116953 354.654381 
L 496.72629 345.240558 
L 497.335627 331.173232 
L 497.944963 342.185811 
L 498.5543 336.185411 
L 499.163636 322.922061 
L 499.772973 320.816502 
L 500.38231 315.63918 
L 501.600983 320.904403 
L 502.210319 327.600166 
L 502.819656 326.376959 
L 503.428993 326.266937 
L 504.038329 302.219109 
L 504.647666 312.654612 
L 505.257002 310.71229 
L 505.866339 316.515993 
L 506.475676 319.691238 
L 507.085012 313.731331 
L 507.694349 317.008591 
L 508.303686 316.264525 
L 508.913022 330.481092 
L 509.522359 330.85854 
L 510.131695 337.885106 
L 510.741032 333.501235 
L 511.350369 339.269954 
L 512.569042 311.12501 
L 513.787715 327.114558 
L 514.397052 328.565821 
L 515.006388 326.75616 
L 515.615725 316.046668 
L 516.225061 332.032037 
L 516.834398 340.287589 
L 517.443735 329.272542 
L 518.053071 340.589099 
L 518.662408 331.242787 
L 519.271744 315.056689 
L 519.881081 316.614005 
L 520.490418 320.233234 
L 521.099754 317.826515 
L 521.709091 313.995887 
L 522.318428 291.029788 
L 522.927764 299.807995 
L 523.537101 297.946397 
L 524.146437 301.988905 
L 524.755774 302.851775 
L 525.365111 321.61798 
L 525.974447 321.529417 
L 526.583784 322.288107 
L 527.19312 323.542549 
L 527.802457 334.949133 
L 528.411794 336.131246 
L 529.02113 341.504031 
L 529.630467 344.489319 
L 530.239803 333.060973 
L 530.84914 328.061158 
L 531.458477 320.648346 
L 532.067813 316.883972 
L 532.67715 304.743273 
L 533.895823 317.770149 
L 534.50516 326.657111 
L 535.114496 323.78834 
L 535.723833 314.905839 
L 536.33317 316.809808 
L 536.942506 315.567706 
L 537.551843 318.362243 
L 538.161179 315.766947 
L 538.770516 300.227285 
L 539.379853 298.789159 
L 539.989189 312.927039 
L 540.598526 318.519611 
L 541.207862 309.314467 
L 541.817199 319.80987 
L 543.035872 308.135394 
L 543.645209 305.231695 
L 544.254545 308.321367 
L 544.863882 298.390874 
L 545.473219 315.362436 
L 546.082555 328.02561 
L 546.691892 334.32523 
L 547.301229 329.15335 
L 547.910565 333.277975 
L 548.519902 334.496759 
L 549.129238 323.453799 
L 550.347912 332.439852 
L 550.957248 344.379501 
L 551.566585 344.368253 
L 552.175921 346.257974 
L 552.785258 328.510906 
L 554.003931 348.527525 
L 554.613268 337.030875 
L 555.222604 332.697898 
L 555.831941 348.08082 
L 556.441278 346.282645 
L 557.050614 350.61008 
L 557.659951 353.989032 
L 558.269287 350.793251 
L 558.878624 354.33085 
L 559.487961 336.050183 
L 560.097297 346.056398 
L 560.706634 338.541546 
L 561.315971 346.811041 
L 563.14398 363.174545 
L 564.97199 321.895614 
L 565.581327 314.651935 
L 566.190663 310.732314 
L 566.8 309.614052 
L 568.62801 276.233453 
L 569.237346 274.367044 
L 569.846683 269.214745 
L 570.45602 283.743689 
L 571.065356 286.771773 
L 571.674693 308.088852 
L 572.284029 302.521702 
L 572.893366 304.149725 
L 573.502703 297.115286 
L 574.112039 285.930317 
L 574.721376 282.546951 
L 575.330713 276.393689 
L 575.940049 285.620282 
L 576.549386 277.563349 
L 577.158722 274.153195 
L 577.768059 280.06316 
L 578.377396 294.843241 
L 578.986732 289.720387 
L 579.596069 282.948095 
L 580.205405 284.593659 
L 580.814742 284.226051 
L 581.424079 281.791892 
L 582.033415 280.563711 
L 582.642752 281.912269 
L 583.252088 275.949023 
L 583.861425 282.126944 
L 584.470762 282.179897 
L 585.080098 295.663545 
L 585.689435 283.623708 
L 586.298771 279.877211 
L 586.908108 293.24407 
L 587.517445 300.534145 
L 588.126781 303.237399 
L 589.345455 288.978229 
L 589.954791 273.876975 
L 590.564128 265.715114 
L 591.173464 259.926059 
L 591.782801 258.010949 
L 592.392138 252.146323 
L 593.001474 250.46426 
L 594.220147 230.6235 
L 594.829484 240.496846 
L 595.438821 236.088682 
L 596.048157 242.208671 
L 596.657494 237.471277 
L 597.876167 222.864146 
L 598.485504 212.538214 
L 599.09484 206.325682 
L 599.704177 195.750672 
L 600.313514 197.032163 
L 600.92285 197.614197 
L 601.532187 204.812296 
L 602.141523 202.135379 
L 602.75086 193.206541 
L 603.360197 195.004124 
L 604.57887 197.465037 
L 605.188206 212.075907 
L 605.797543 220.869756 
L 606.40688 233.154397 
L 607.016216 228.621338 
L 607.625553 227.421736 
L 608.234889 246.251918 
L 608.844226 245.687245 
L 609.453563 243.546398 
L 610.672236 236.74699 
L 611.281572 237.770649 
L 611.890909 246.911041 
L 612.500246 242.359758 
L 613.109582 249.972279 
L 613.718919 255.712177 
L 614.328256 255.713613 
L 614.937592 269.921249 
L 615.546929 253.416187 
L 616.156265 245.966114 
L 616.765602 243.012145 
L 617.374939 254.288326 
L 617.984275 236.9252 
L 618.593612 238.885143 
L 619.202948 231.377557 
L 619.812285 249.097181 
L 620.421622 231.658279 
L 621.640295 238.422049 
L 622.249631 238.959076 
L 622.858968 240.733011 
L 623.468305 235.0276 
L 624.077641 234.258946 
L 624.686978 251.532392 
L 625.296314 262.47512 
L 625.905651 256.537204 
L 626.514988 256.509856 
L 627.124324 246.50197 
L 628.342998 269.15069 
L 628.952334 258.00999 
L 629.561671 267.87729 
L 630.171007 263.801658 
L 630.780344 272.28142 
L 632.608354 243.457178 
L 633.21769 244.074814 
L 633.827027 255.548306 
L 634.436364 259.611925 
L 635.0457 269.077858 
L 635.655037 267.796996 
L 636.264373 277.962254 
L 636.87371 275.102101 
L 637.483047 279.614947 
L 638.092383 271.699818 
L 639.311057 291.592412 
L 639.920393 306.555201 
L 640.52973 299.458317 
L 641.139066 301.78273 
L 641.748403 288.708432 
L 642.35774 299.12897 
L 643.576413 290.91083 
L 644.185749 279.035792 
L 644.795086 291.862045 
L 645.404423 281.09953 
L 646.013759 279.163198 
L 646.623096 292.85603 
L 647.232432 303.243055 
L 647.841769 306.259622 
L 648.451106 300.964085 
L 649.060442 304.008587 
L 649.669779 317.404222 
L 650.279115 313.58389 
L 650.888452 314.440861 
L 651.497789 325.622099 
L 652.107125 325.969025 
L 652.716462 327.22921 
L 653.325799 324.179236 
L 653.935135 311.842078 
L 654.544472 292.258052 
L 655.153808 288.480101 
L 655.763145 304.69401 
L 656.372482 307.272323 
L 656.981818 301.949287 
L 657.591155 306.521835 
L 658.200491 319.24371 
L 658.809828 316.965934 
L 659.419165 309.669916 
L 660.028501 319.967472 
L 660.637838 328.373809 
L 661.247174 323.228046 
L 661.856511 323.09304 
L 662.465848 326.043473 
L 663.075184 325.509373 
L 663.684521 336.43529 
L 664.293857 331.490765 
L 664.903194 335.878151 
L 665.512531 349.42174 
L 666.121867 342.564166 
L 666.731204 352.974456 
L 667.340541 344.522645 
L 667.949877 325.507221 
L 668.559214 310.209754 
L 669.16855 318.423197 
L 669.777887 332.780204 
L 670.387224 336.876841 
L 670.99656 327.64255 
L 671.605897 326.806506 
L 672.215233 332.923318 
L 672.82457 329.527589 
L 674.043243 320.05294 
L 674.65258 327.929634 
L 675.261916 324.786343 
L 675.871253 331.622979 
L 676.48059 343.041446 
L 677.089926 338.03806 
L 677.699263 340.440144 
L 678.3086 332.21677 
L 678.917936 337.919751 
L 679.527273 335.916494 
L 680.136609 325.611259 
L 680.745946 325.475775 
L 681.355283 320.651329 
L 681.964619 320.91959 
L 682.573956 314.879944 
L 683.183292 317.538697 
L 683.792629 319.321488 
L 684.401966 319.508917 
L 685.620639 339.661719 
L 686.229975 327.5856 
L 687.448649 333.993017 
L 688.057985 316.665385 
L 688.667322 316.542725 
L 689.276658 329.473546 
L 689.885995 331.191613 
L 691.104668 313.04728 
L 691.714005 309.123136 
L 692.323342 326.317739 
L 692.932678 321.674427 
L 693.542015 299.394 
L 694.151351 311.370531 
L 694.760688 313.448973 
L 695.979361 322.059935 
L 696.588698 327.625805 
L 697.198034 309.609838 
L 697.807371 296.913618 
L 698.416708 299.122559 
L 699.026044 295.132545 
L 699.635381 292.723422 
L 700.244717 301.122075 
L 700.854054 302.426867 
L 701.463391 291.910848 
L 702.072727 295.160422 
L 702.682064 288.620816 
L 703.2914 283.566906 
L 703.900737 272.990336 
L 704.510074 280.144867 
L 705.11941 277.050678 
L 705.728747 266.161237 
L 706.338084 268.074096 
L 706.94742 268.196489 
L 707.556757 286.494338 
L 708.166093 278.66468 
L 708.77543 275.873949 
L 709.384767 277.501753 
L 709.994103 275.118836 
L 710.60344 270.14792 
L 711.212776 284.247921 
L 711.822113 284.943793 
L 712.43145 290.382583 
L 713.650123 307.752038 
L 714.259459 295.798631 
L 714.868796 293.019098 
L 716.087469 285.775078 
L 716.696806 281.648126 
L 717.306143 288.839019 
L 717.915479 294.473306 
L 718.524816 307.630144 
L 719.134152 304.166266 
L 719.743489 303.355694 
L 720.352826 305.847921 
L 720.962162 312.262712 
L 721.571499 301.055869 
L 722.180835 306.11805 
L 722.790172 306.657244 
L 723.399509 309.495881 
L 724.008845 321.681409 
L 724.618182 323.150262 
L 725.227518 313.217337 
L 725.836855 307.492066 
L 726.446192 296.728869 
L 727.055528 300.571106 
L 727.664865 295.947732 
L 728.274201 300.269243 
L 728.883538 307.092966 
L 729.492875 290.238432 
L 730.102211 277.607278 
L 730.711548 281.116532 
L 732.539558 312.253651 
L 733.148894 302.275771 
L 733.758231 307.524652 
L 734.367568 304.446478 
L 734.976904 292.583315 
L 735.586241 301.339628 
L 736.195577 280.77732 
L 736.804914 272.351002 
L 737.414251 272.408348 
L 738.023587 282.735313 
L 738.632924 284.173742 
L 739.24226 282.070391 
L 739.851597 286.108695 
L 740.460934 291.001097 
L 741.07027 280.302233 
L 741.679607 275.976189 
L 742.288943 266.907591 
L 742.89828 264.576797 
L 743.507617 261.459993 
L 744.72629 264.176199 
L 745.335627 256.681557 
L 745.944963 254.887846 
L 746.5543 257.140185 
L 747.163636 272.869996 
L 747.163636 272.869996 
" style="fill:none;stroke:#1f77b4;stroke-linecap:square;stroke-width:1.5;"/>
   </g>
   <g id="line2d_19">
    <path clip-path="url(#p664ac1340b)" d="M 260.303686 122.411167 
L 260.913022 119.0284 
L 261.522359 102.615558 
L 262.131695 106.470886 
L 262.741032 99.787383 
L 263.350369 104.154299 
L 263.959705 104.031936 
L 264.569042 118.14942 
L 265.178378 107.971933 
L 265.787715 93.27039 
L 266.397052 86.638206 
L 267.006388 87.432643 
L 267.615725 112.132871 
L 268.834398 126.518547 
L 269.443735 122.776095 
L 270.053071 133.859279 
L 270.662408 142.76073 
L 271.271744 138.626646 
L 272.490418 125.906559 
L 273.099754 129.666156 
L 273.709091 129.966166 
L 274.318428 138.032521 
L 274.927764 139.065074 
L 275.537101 135.672077 
L 276.146437 162.312111 
L 276.755774 139.021233 
L 277.365111 145.276601 
L 277.974447 148.075147 
L 278.583784 141.490794 
L 279.19312 142.377104 
L 279.802457 142.674768 
L 280.411794 165.229291 
L 281.02113 156.559651 
L 282.239803 159.313902 
L 282.84914 160.123551 
L 283.458477 158.499993 
L 284.067813 157.575392 
L 284.67715 154.028462 
L 285.286486 156.081593 
L 285.895823 167.294885 
L 286.50516 167.627567 
L 287.114496 160.0843 
L 287.723833 156.018175 
L 288.33317 158.659669 
L 288.942506 154.042965 
L 289.551843 152.486917 
L 290.161179 147.232158 
L 290.770516 144.672844 
L 291.379853 150.214621 
L 291.989189 140.721821 
L 292.598526 144.425961 
L 293.207862 143.445817 
L 293.817199 146.974829 
L 294.426536 159.125194 
L 295.035872 166.010216 
L 295.645209 165.971615 
L 296.254545 164.152583 
L 296.863882 165.963679 
L 297.473219 168.72601 
L 298.082555 182.289595 
L 298.691892 190.135067 
L 299.910565 176.144931 
L 300.519902 188.260387 
L 302.347912 201.708548 
L 302.957248 201.194561 
L 303.566585 201.307574 
L 304.175921 208.254213 
L 304.785258 191.272529 
L 305.394595 195.567683 
L 306.003931 194.373857 
L 306.613268 195.143769 
L 307.222604 194.956456 
L 307.831941 195.008846 
L 308.441278 203.720237 
L 309.050614 202.749444 
L 309.659951 199.937316 
L 310.269287 202.943732 
L 310.878624 210.861403 
L 311.487961 210.968863 
L 312.097297 210.193583 
L 312.706634 215.042935 
L 313.315971 222.137245 
L 313.925307 217.932829 
L 314.534644 224.796805 
L 315.14398 228.766058 
L 315.753317 230.307713 
L 316.362654 250.42842 
L 316.97199 254.056565 
L 317.581327 256.01739 
L 318.190663 245.167582 
L 318.8 236.812793 
L 319.409337 234.601194 
L 320.018673 254.103962 
L 321.237346 266.528783 
L 321.846683 260.570568 
L 322.45602 264.377596 
L 323.065356 263.657375 
L 323.674693 265.245524 
L 324.284029 255.991659 
L 324.893366 254.494209 
L 325.502703 254.132568 
L 326.721376 241.394813 
L 327.330713 236.987531 
L 328.549386 234.409025 
L 329.158722 223.707594 
L 329.768059 228.640274 
L 330.986732 230.816366 
L 331.596069 224.401762 
L 332.205405 229.504018 
L 332.814742 223.330412 
L 333.424079 223.280647 
L 334.033415 218.483677 
L 334.642752 212.201738 
L 335.252088 213.413156 
L 335.861425 209.713549 
L 336.470762 209.400914 
L 337.080098 211.496623 
L 337.689435 218.387495 
L 338.298771 212.745211 
L 338.908108 216.487094 
L 339.517445 217.25658 
L 340.126781 223.505453 
L 340.736118 222.493927 
L 341.345455 229.789656 
L 341.954791 232.907507 
L 342.564128 223.305419 
L 343.782801 216.647429 
L 344.392138 219.016863 
L 345.001474 198.514805 
L 345.610811 192.252797 
L 346.220147 175.14671 
L 347.438821 160.517736 
L 348.048157 160.25345 
L 348.657494 171.481161 
L 349.26683 179.661464 
L 349.876167 176.682157 
L 350.485504 185.95779 
L 351.09484 156.771136 
L 351.704177 155.99383 
L 352.313514 160.680374 
L 352.92285 162.788301 
L 353.532187 157.689764 
L 354.141523 159.274254 
L 354.75086 164.846662 
L 355.360197 173.563087 
L 355.969533 166.505934 
L 356.57887 166.405728 
L 357.188206 175.082713 
L 357.797543 190.936805 
L 358.40688 184.778113 
L 359.016216 194.242435 
L 359.625553 212.016073 
L 360.234889 204.063706 
L 360.844226 209.84498 
L 361.453563 219.849919 
L 362.062899 225.633418 
L 362.672236 222.320865 
L 363.281572 229.794015 
L 363.890909 220.314243 
L 364.500246 224.517561 
L 365.109582 229.73069 
L 365.718919 226.608592 
L 366.328256 224.554712 
L 366.937592 218.713906 
L 367.546929 238.020877 
L 368.156265 224.845601 
L 368.765602 228.994911 
L 369.374939 236.268318 
L 369.984275 233.313882 
L 371.202948 243.924139 
L 372.421622 219.873372 
L 373.030958 232.062575 
L 373.640295 221.365225 
L 374.249631 214.86126 
L 374.858968 214.234086 
L 375.468305 202.388615 
L 376.077641 207.856336 
L 376.686978 194.111082 
L 377.296314 183.87007 
L 377.905651 179.916723 
L 378.514988 188.945838 
L 379.124324 190.324623 
L 379.733661 189.450491 
L 380.342998 200.796638 
L 380.952334 199.847136 
L 381.561671 200.27363 
L 382.171007 202.939174 
L 382.780344 209.14521 
L 383.389681 219.346919 
L 383.999017 209.00135 
L 384.608354 213.535903 
L 385.21769 222.819977 
L 385.827027 225.248971 
L 386.436364 224.549437 
L 387.655037 241.728106 
L 388.264373 253.598441 
L 388.87371 246.796537 
L 389.483047 246.106742 
L 390.092383 238.065554 
L 391.311057 248.126416 
L 391.920393 247.956963 
L 392.52973 242.28944 
L 393.139066 243.270797 
L 393.748403 245.275094 
L 394.35774 244.987449 
L 395.576413 265.197143 
L 396.185749 259.814515 
L 396.795086 262.698038 
L 397.404423 261.298976 
L 398.013759 267.342629 
L 398.623096 269.625334 
L 399.232432 256.751157 
L 399.841769 257.683936 
L 400.451106 265.354451 
L 401.060442 242.756033 
L 401.669779 254.958982 
L 402.279115 238.837845 
L 402.888452 256.587285 
L 403.497789 227.538552 
L 404.107125 233.069752 
L 404.716462 235.622252 
L 405.325799 226.510831 
L 405.935135 235.257292 
L 406.544472 246.959792 
L 407.153808 236.200362 
L 407.763145 246.711522 
L 408.372482 246.161102 
L 408.981818 240.016993 
L 409.591155 235.227621 
L 410.200491 234.090866 
L 410.809828 239.041128 
L 411.419165 227.357556 
L 412.028501 225.016916 
L 413.247174 215.941323 
L 413.856511 223.235661 
L 414.465848 222.038199 
L 415.075184 219.796802 
L 415.684521 231.06564 
L 416.293857 236.436375 
L 416.903194 233.810565 
L 417.512531 238.804294 
L 418.121867 235.375742 
L 418.731204 228.389447 
L 419.340541 235.484316 
L 419.949877 239.576588 
L 420.559214 253.176765 
L 421.16855 257.483241 
L 421.777887 275.691307 
L 422.387224 256.971088 
L 422.99656 260.395204 
L 423.605897 258.412013 
L 424.215233 256.014064 
L 424.82457 246.455373 
L 425.433907 273.007968 
L 426.043243 279.521992 
L 426.65258 260.1153 
L 427.261916 255.457459 
L 427.871253 264.114551 
L 428.48059 267.53375 
L 429.089926 273.998535 
L 429.699263 267.879784 
L 430.3086 268.436905 
L 430.917936 260.026257 
L 431.527273 288.120775 
L 432.136609 280.124788 
L 432.745946 261.546271 
L 433.355283 271.40546 
L 433.964619 253.996868 
L 434.573956 243.249987 
L 435.183292 241.705863 
L 435.792629 239.320377 
L 436.401966 243.839324 
L 437.011302 244.253638 
L 437.620639 248.131609 
L 438.229975 240.266742 
L 438.839312 239.461467 
L 439.448649 251.132721 
L 440.057985 267.594959 
L 440.667322 256.571471 
L 441.276658 266.009196 
L 441.885995 254.536316 
L 442.495332 256.646544 
L 443.104668 261.56544 
L 443.714005 259.496762 
L 444.323342 310.554572 
L 444.932678 302.239306 
L 445.542015 263.633523 
L 446.151351 245.210599 
L 446.760688 251.842043 
L 447.370025 245.48522 
L 447.979361 248.725168 
L 448.588698 244.009774 
L 449.198034 274.179636 
L 449.807371 248.950624 
L 450.416708 262.690817 
L 451.026044 266.499114 
L 452.244717 235.81672 
L 452.854054 246.511847 
L 453.463391 239.4386 
L 454.072727 255.606608 
L 454.682064 222.904498 
L 455.2914 228.360714 
L 455.900737 223.355603 
L 456.510074 235.401271 
L 457.11941 234.069153 
L 457.728747 213.481744 
L 458.338084 214.497707 
L 459.556757 194.029246 
L 460.166093 196.56863 
L 460.77543 226.493748 
L 461.384767 217.69604 
L 461.994103 236.975285 
L 462.60344 215.040747 
L 463.212776 222.065681 
L 463.822113 213.302383 
L 464.43145 225.887206 
L 465.040786 216.838709 
L 465.650123 218.69869 
L 466.259459 225.552841 
L 466.868796 230.811837 
L 467.478133 224.188011 
L 468.087469 241.994069 
L 469.306143 252.971889 
L 469.915479 261.677688 
L 470.524816 251.344524 
L 471.134152 278.642285 
L 471.743489 270.520392 
L 472.352826 296.972496 
L 472.962162 295.236509 
L 473.571499 283.195789 
L 474.180835 295.861883 
L 474.790172 288.698483 
L 475.399509 287.554822 
L 476.008845 290.034082 
L 476.618182 295.848807 
L 477.227518 296.195923 
L 477.836855 296.863497 
L 478.446192 299.913928 
L 479.055528 299.493539 
L 479.664865 309.034517 
L 480.274201 313.080455 
L 480.883538 323.123367 
L 481.492875 295.394829 
L 482.102211 313.662863 
L 482.711548 325.402729 
L 483.320885 327.594357 
L 483.930221 328.695778 
L 484.539558 326.066391 
L 485.148894 331.321402 
L 485.758231 316.305828 
L 486.367568 335.494905 
L 486.976904 346.531031 
L 487.586241 335.905531 
L 488.195577 336.707654 
L 488.804914 315.739989 
L 489.414251 326.23338 
L 490.023587 305.541951 
L 490.632924 336.755452 
L 491.24226 349.293473 
L 491.851597 347.651352 
L 492.460934 353.930478 
L 493.07027 339.797129 
L 494.288943 352.828256 
L 494.89828 354.403684 
L 495.507617 348.588918 
L 496.116953 351.364884 
L 496.72629 344.775207 
L 497.335627 332.27449 
L 497.944963 338.281998 
L 498.5543 333.532741 
L 499.163636 322.922061 
L 499.772973 319.991594 
L 500.38231 316.427686 
L 500.991646 318.247857 
L 501.600983 323.19924 
L 502.210319 323.613067 
L 503.428993 325.875009 
L 504.038329 325.875009 
L 504.647666 326.019334 
L 505.257002 326.008332 
L 505.866339 326.130652 
L 506.475676 327.701043 
L 507.085012 328.261617 
L 508.303686 328.272619 
L 508.913022 327.602937 
L 509.522359 328.272619 
L 510.131695 315.67645 
L 510.741032 328.272619 
L 511.350369 327.589725 
L 511.959705 327.589725 
L 512.569042 328.259405 
L 515.006388 328.272619 
L 515.615725 327.602937 
L 516.225061 328.272619 
L 516.834398 315.67645 
L 517.443735 308.176049 
L 518.053071 313.46518 
L 518.662408 304.48481 
L 519.271744 321.641822 
L 519.881081 304.48481 
L 520.490418 304.8303 
L 521.099754 303.756522 
L 521.709091 308.317365 
L 522.318428 309.045653 
L 522.927764 321.641822 
L 526.583784 321.641822 
L 527.19312 321.987312 
L 527.802457 327.602937 
L 528.411794 328.272619 
L 529.02113 328.405942 
L 529.630467 328.272619 
L 530.239803 325.333061 
L 530.84914 328.7138 
L 531.458477 326.059137 
L 532.67715 325.994718 
L 533.286486 324.931942 
L 533.895823 325.66023 
L 534.50516 327.723048 
L 535.114496 326.019334 
L 535.723833 325.349652 
L 536.33317 326.019334 
L 536.942506 325.349652 
L 537.551843 328.04412 
L 538.161179 325.66023 
L 539.379853 325.66023 
L 539.989189 328.04412 
L 540.598526 345.946551 
L 541.207862 330.669554 
L 541.817199 348.37606 
L 542.426536 326.942862 
L 543.035872 315.016373 
L 543.645209 309.164108 
L 544.254545 313.733741 
L 544.863882 309.164108 
L 545.473219 313.005453 
L 546.082555 311.093602 
L 546.691892 327.589725 
L 547.301229 311.093602 
L 547.910565 311.093602 
L 548.519902 311.226925 
L 549.129238 309.498596 
L 549.738575 309.164108 
L 550.347912 309.164108 
L 551.566585 311.547998 
L 552.175921 325.66023 
L 552.785258 324.931942 
L 553.394595 313.005453 
L 554.003931 311.547998 
L 554.613268 309.164108 
L 555.831941 313.733741 
L 556.441278 328.04412 
L 557.050614 330.669554 
L 557.659951 345.630748 
L 558.269287 328.04412 
L 558.878624 325.66023 
L 559.487961 326.942862 
L 560.097297 325.66023 
L 560.706634 328.04412 
L 561.315971 326.942862 
L 561.925307 310.44674 
L 562.534644 310.44674 
L 563.14398 324.685553 
L 563.753317 316.117631 
L 564.362654 314.068229 
L 564.97199 311.226925 
L 565.581327 310.423921 
L 566.190663 311.226925 
L 566.8 311.226925 
L 567.409337 308.43582 
L 568.018673 325.994718 
L 568.62801 327.723048 
L 569.237346 327.589725 
L 570.45602 327.589725 
L 571.065356 325.994718 
L 571.674693 327.589725 
L 572.284029 311.093602 
L 572.893366 311.093602 
L 573.502703 311.226925 
L 574.112039 327.589725 
L 579.596069 327.589725 
L 580.205405 326.019334 
L 580.814742 326.019334 
L 581.424079 324.027105 
L 582.033415 324.027105 
L 582.642752 326.152657 
L 583.252088 323.164514 
L 583.861425 328.04412 
L 584.470762 325.548404 
L 585.080098 325.548404 
L 585.689435 342.172056 
L 586.298771 329.434899 
L 586.908108 296.034769 
L 587.517445 291.210532 
L 588.126781 306.353222 
L 588.736118 344.46542 
L 589.345455 344.162518 
L 589.954791 326.942862 
L 590.564128 326.942862 
L 591.173464 315.016373 
L 591.782801 334.468216 
L 592.392138 331.257306 
L 593.001474 324.908512 
L 593.610811 324.119523 
L 594.220147 322.720149 
L 594.829484 324.467051 
L 595.438821 324.119523 
L 596.048157 325.626224 
L 596.657494 325.880788 
L 597.26683 324.645709 
L 597.876167 324.908512 
L 598.485504 322.720149 
L 599.09484 322.720149 
L 599.704177 324.908512 
L 600.313514 325.626224 
L 601.532187 324.119523 
L 602.141523 324.908512 
L 602.75086 324.908512 
L 603.360197 325.880788 
L 603.969533 322.720149 
L 604.57887 325.626224 
L 605.188206 325.880788 
L 605.797543 310.452198 
L 606.40688 310.44674 
L 607.016216 326.126976 
L 607.625553 324.645709 
L 608.234889 324.119523 
L 608.844226 324.119523 
L 609.453563 323.027973 
L 610.062899 323.027973 
L 610.672236 321.866007 
L 611.281572 321.866007 
L 611.890909 335.092879 
L 612.500246 330.045407 
L 613.109582 335.092879 
L 613.718919 335.092879 
L 614.328256 324.613061 
L 614.937592 335.092879 
L 615.546929 330.045407 
L 616.156265 328.612636 
L 616.765602 328.178559 
L 617.374939 325.598124 
L 617.984275 325.235688 
L 620.421622 325.235688 
L 621.030958 325.859545 
L 622.249631 325.859545 
L 622.858968 334.524943 
L 624.077641 338.883791 
L 624.686978 332.882579 
L 625.296314 338.883791 
L 625.905651 340.671108 
L 626.514988 336.784839 
L 627.124324 336.784839 
L 627.733661 334.398995 
L 628.342998 336.196289 
L 628.952334 335.625416 
L 629.561671 322.965415 
L 630.171007 324.714863 
L 630.780344 309.313077 
L 631.389681 325.043322 
L 631.999017 325.782291 
L 632.608354 325.782291 
L 633.21769 328.082497 
L 633.827027 326.091371 
L 634.436364 325.605122 
L 635.0457 323.063332 
L 635.655037 338.084551 
L 636.264373 334.735156 
L 636.87371 344.955897 
L 637.483047 333.045332 
L 638.092383 335.323706 
L 638.70172 340.827034 
L 639.920393 345.749235 
L 640.52973 346.048783 
L 641.139066 345.749235 
L 641.748403 343.10814 
L 642.35774 343.407689 
L 642.967076 337.683484 
L 643.576413 339.561762 
L 644.185749 308.480534 
L 644.795086 323.327521 
L 645.404423 326.428032 
L 646.013759 338.545901 
L 646.623096 339.561762 
L 647.232432 338.84545 
L 647.841769 339.262213 
L 649.060442 339.262213 
L 649.669779 338.624762 
L 650.279115 337.271087 
L 650.888452 334.146187 
L 651.497789 298.051112 
L 652.107125 314.414921 
L 653.325799 243.806157 
L 653.935135 252.712833 
L 654.544472 253.00339 
L 655.153808 221.534743 
L 655.763145 271.873569 
L 656.372482 228.896062 
L 656.981818 284.600937 
L 657.591155 325.618972 
L 658.200491 307.928094 
L 658.809828 302.767482 
L 659.419165 301.955162 
L 660.028501 316.543371 
L 660.637838 302.767482 
L 661.247174 316.737019 
L 661.856511 316.737019 
L 662.465848 272.372628 
L 663.075184 316.466246 
L 663.684521 283.717887 
L 664.293857 267.035122 
L 664.903194 316.737019 
L 665.512531 302.767482 
L 666.121867 302.767482 
L 666.731204 304.48481 
L 667.340541 310.457742 
L 667.949877 308.904337 
L 668.559214 311.559 
L 669.16855 311.559 
L 669.777887 308.176049 
L 670.387224 308.176049 
L 670.99656 309.249827 
L 671.605897 308.176049 
L 672.215233 311.559 
L 672.82457 325.679993 
L 673.433907 323.309883 
L 674.043243 310.457742 
L 675.871253 310.44674 
L 676.48059 308.904337 
L 677.089926 308.904337 
L 677.699263 311.559 
L 678.3086 308.904337 
L 678.917936 309.249827 
L 679.527273 308.176049 
L 681.355283 308.176049 
L 681.964619 311.115607 
L 682.573956 311.24893 
L 683.183292 311.115607 
L 685.620639 311.104605 
L 686.229975 308.43582 
L 686.839312 311.559 
L 687.448649 308.904337 
L 688.057985 311.24893 
L 688.667322 311.093602 
L 689.885995 308.165047 
L 690.495332 311.226925 
L 691.104668 310.423921 
L 691.714005 308.43582 
L 692.323342 309.164108 
L 692.932678 309.249827 
L 693.542015 308.176049 
L 694.151351 311.24893 
L 695.370025 311.093602 
L 695.979361 311.093602 
L 696.588698 311.226925 
L 697.198034 311.093602 
L 697.807371 311.093602 
L 698.416708 308.43582 
L 699.026044 308.43582 
L 699.635381 309.164108 
L 700.244717 309.164108 
L 700.854054 311.547998 
L 701.463391 309.164108 
L 702.682064 309.164108 
L 703.2914 310.423921 
L 703.900737 311.093602 
L 704.510074 309.498596 
L 705.728747 311.226925 
L 706.338084 309.164108 
L 706.94742 309.164108 
L 707.556757 310.423921 
L 708.166093 310.423921 
L 708.77543 309.164108 
L 709.384767 311.547998 
L 709.994103 310.44674 
L 710.60344 308.43582 
L 711.212776 309.164108 
L 712.43145 311.547998 
L 713.040786 316.117631 
L 713.650123 313.733741 
L 714.259459 325.66023 
L 714.868796 325.994718 
L 715.478133 328.04412 
L 716.087469 347.537521 
L 716.696806 330.669554 
L 717.306143 346.208842 
L 717.915479 349.272123 
L 718.524816 330.669554 
L 719.134152 326.942862 
L 719.743489 346.218654 
L 720.352826 342.659913 
L 720.962162 341.524883 
L 721.571499 329.434899 
L 722.180835 296.034769 
L 722.790172 319.736223 
L 723.399509 306.466609 
L 724.008845 296.034769 
L 725.227518 296.034769 
L 725.836855 329.434899 
L 726.446192 320.57745 
L 727.055528 291.210532 
L 727.664865 317.336208 
L 728.274201 324.119523 
L 728.883538 318.193472 
L 729.492875 344.810029 
L 730.102211 346.357773 
L 730.711548 349.518412 
L 731.320885 330.669554 
L 731.930221 326.942862 
L 732.539558 346.598232 
L 733.148894 346.352045 
L 733.758231 348.283333 
L 734.367568 346.357773 
L 734.976904 333.445669 
L 735.586241 333.182866 
L 736.195577 334.222029 
L 736.804914 308.729412 
L 737.414251 324.151757 
L 738.023587 327.065183 
L 738.632924 327.065183 
L 739.24226 316.117631 
L 739.851597 330.791875 
L 740.460934 327.065183 
L 741.07027 327.065183 
L 741.679607 328.166441 
L 742.288943 325.782551 
L 742.89828 324.931942 
L 743.507617 328.04412 
L 744.116953 326.942862 
L 744.72629 349.51831 
L 745.335627 330.669554 
L 745.944963 346.192738 
L 746.5543 330.842248 
L 747.163636 310.44674 
L 747.163636 310.44674 
" style="fill:none;stroke:#ff7f0e;stroke-dasharray:5.55,2.4;stroke-dashoffset:0;stroke-width:1.5;"/>
   </g>
   <g id="line2d_20">
    <path clip-path="url(#p664ac1340b)" d="M 260.303686 164.365806 
L 260.913022 169.859848 
L 261.522359 170.760533 
L 262.131695 175.551895 
L 262.741032 176.579143 
L 263.350369 174.967873 
L 263.959705 178.487408 
L 264.569042 168.553301 
L 265.178378 166.626085 
L 265.787715 168.59327 
L 266.397052 167.299848 
L 267.006388 163.633481 
L 267.615725 163.560245 
L 268.225061 158.073742 
L 268.834398 154.752443 
L 269.443735 152.558791 
L 270.053071 144.235029 
L 270.662408 140.187758 
L 271.271744 137.553781 
L 271.881081 139.755297 
L 272.490418 142.99031 
L 273.099754 143.444631 
L 273.709091 139.448473 
L 274.318428 139.549192 
L 274.927764 143.816139 
L 275.537101 138.760395 
L 276.146437 147.573224 
L 277.974447 165.06602 
L 278.583784 162.098812 
L 279.19312 155.854926 
L 279.802457 154.235121 
L 280.411794 153.805042 
L 281.02113 148.796269 
L 281.630467 146.393055 
L 282.239803 147.380523 
L 282.84914 144.397045 
L 283.458477 146.572056 
L 284.067813 143.107608 
L 284.67715 137.728691 
L 285.286486 141.99802 
L 285.895823 153.349646 
L 287.114496 162.673528 
L 287.723833 156.801335 
L 288.33317 168.420821 
L 288.942506 170.433 
L 289.551843 169.194597 
L 290.161179 171.471025 
L 290.770516 166.304941 
L 291.379853 162.966192 
L 291.989189 162.886001 
L 292.598526 173.206557 
L 293.207862 168.516062 
L 293.817199 168.662726 
L 294.426536 166.854389 
L 295.035872 170.570515 
L 295.645209 175.241723 
L 296.254545 177.417109 
L 296.863882 173.129315 
L 297.473219 170.13691 
L 298.082555 169.815833 
L 298.691892 181.613735 
L 299.301229 182.930044 
L 300.519902 178.022344 
L 301.129238 179.176098 
L 301.738575 177.091958 
L 302.347912 173.439901 
L 302.957248 170.659988 
L 303.566585 174.613627 
L 304.175921 183.038097 
L 304.785258 189.121643 
L 306.003931 182.319054 
L 306.613268 186.881008 
L 307.222604 183.490545 
L 307.831941 185.473271 
L 308.441278 177.227583 
L 309.050614 177.910428 
L 309.659951 182.063541 
L 310.878624 170.877648 
L 311.487961 173.832245 
L 312.706634 183.284345 
L 313.315971 187.873191 
L 314.534644 180.470036 
L 315.14398 186.01908 
L 315.753317 186.78193 
L 316.362654 194.320041 
L 316.97199 197.744577 
L 317.581327 193.51738 
L 318.190663 187.101523 
L 319.409337 200.661958 
L 320.018673 204.889099 
L 320.62801 205.61253 
L 321.237346 205.42632 
L 321.846683 202.718497 
L 322.45602 196.536458 
L 323.065356 196.607815 
L 323.674693 193.66835 
L 324.284029 194.21235 
L 324.893366 197.981032 
L 325.502703 192.597413 
L 326.112039 190.938366 
L 326.721376 195.631217 
L 327.330713 195.282695 
L 327.940049 195.264544 
L 328.549386 205.799383 
L 329.158722 201.85921 
L 329.768059 200.198406 
L 330.377396 206.139219 
L 330.986732 213.449918 
L 331.596069 213.756375 
L 332.205405 209.266843 
L 332.814742 222.423251 
L 333.424079 225.224098 
L 334.033415 227.489975 
L 334.642752 232.018135 
L 335.252088 239.969564 
L 335.861425 239.136245 
L 336.470762 226.973535 
L 337.080098 222.472049 
L 337.689435 222.270273 
L 338.298771 235.828254 
L 338.908108 243.014971 
L 339.517445 248.397916 
L 340.736118 241.296904 
L 341.345455 240.813723 
L 341.954791 241.095261 
L 342.564128 231.947631 
L 343.782801 238.7281 
L 344.392138 232.59713 
L 345.610811 227.700485 
L 346.220147 226.715118 
L 346.829484 232.443488 
L 347.438821 232.771635 
L 348.048157 229.000843 
L 348.657494 224.066686 
L 349.26683 227.788868 
L 349.876167 225.914736 
L 350.485504 230.816206 
L 351.09484 221.506276 
L 351.704177 222.519793 
L 352.313514 218.308033 
L 352.92285 211.739364 
L 353.532187 211.598883 
L 354.141523 210.49332 
L 354.75086 212.093648 
L 355.969533 222.104713 
L 356.57887 221.248194 
L 357.188206 217.165063 
L 357.797543 218.810998 
L 358.40688 227.289783 
L 359.016216 230.875105 
L 359.625553 230.09321 
L 360.234889 234.660377 
L 361.453563 225.512128 
L 362.062899 219.995886 
L 362.672236 222.138831 
L 363.281572 214.32559 
L 363.890909 208.560219 
L 364.500246 201.501606 
L 365.109582 196.483276 
L 365.718919 192.676152 
L 366.328256 196.508144 
L 366.937592 196.770338 
L 367.546929 201.057661 
L 368.156265 196.425109 
L 368.765602 192.725341 
L 369.374939 194.616458 
L 369.984275 195.496307 
L 370.593612 198.016476 
L 371.202948 203.578252 
L 371.812285 191.950441 
L 372.421622 195.17523 
L 373.640295 202.594186 
L 374.249631 198.86792 
L 374.858968 193.27086 
L 376.077641 211.096524 
L 376.686978 208.472478 
L 377.296314 208.403946 
L 377.905651 219.814047 
L 378.514988 219.545694 
L 379.124324 222.072504 
L 379.733661 229.682681 
L 380.342998 228.420543 
L 380.952334 229.812271 
L 381.561671 239.376439 
L 382.171007 240.194767 
L 382.780344 237.516243 
L 383.389681 238.259751 
L 383.999017 236.181029 
L 384.608354 237.469151 
L 385.21769 228.44861 
L 385.827027 231.691767 
L 386.436364 231.545334 
L 387.0457 233.450233 
L 387.655037 236.609071 
L 388.264373 234.422674 
L 388.87371 237.441365 
L 389.483047 247.913312 
L 390.092383 240.342403 
L 390.70172 239.060364 
L 391.311057 238.297804 
L 391.920393 240.249451 
L 392.52973 236.185366 
L 393.748403 226.166223 
L 394.35774 223.584906 
L 394.967076 216.104994 
L 395.576413 211.336921 
L 396.185749 210.493596 
L 396.795086 222.969444 
L 397.404423 217.554001 
L 398.013759 215.620646 
L 398.623096 219.617765 
L 399.841769 229.350836 
L 400.451106 229.124364 
L 401.060442 231.928227 
L 401.669779 235.742174 
L 402.279115 242.262277 
L 402.888452 246.049352 
L 403.497789 242.214247 
L 404.107125 241.900091 
L 405.325799 247.700688 
L 405.935135 246.904628 
L 406.544472 250.897751 
L 407.153808 241.253171 
L 407.763145 239.656927 
L 408.372482 231.144408 
L 408.981818 238.189232 
L 409.591155 241.579441 
L 410.200491 242.681285 
L 410.809828 235.214149 
L 411.419165 234.451129 
L 412.028501 231.522484 
L 412.637838 235.973083 
L 413.247174 242.811093 
L 413.856511 251.354209 
L 414.465848 240.743808 
L 415.075184 247.440719 
L 415.684521 243.301271 
L 416.293857 256.428627 
L 416.903194 258.283932 
L 417.512531 252.616445 
L 418.121867 251.85321 
L 418.731204 255.048652 
L 419.340541 248.813966 
L 419.949877 248.286032 
L 420.559214 251.453249 
L 421.16855 249.619532 
L 421.777887 246.578575 
L 422.387224 256.523998 
L 422.99656 251.925133 
L 423.605897 251.603625 
L 424.215233 263.110907 
L 424.82457 265.079097 
L 425.433907 258.883713 
L 426.043243 264.923848 
L 426.65258 262.610175 
L 427.261916 262.884135 
L 427.871253 254.027568 
L 429.089926 258.62505 
L 429.699263 252.083956 
L 430.3086 256.183414 
L 430.917936 251.970331 
L 431.527273 250.013913 
L 432.136609 253.684633 
L 432.745946 247.430326 
L 433.355283 246.393422 
L 434.573956 258.91332 
L 435.183292 258.324475 
L 435.792629 256.406397 
L 436.401966 260.201241 
L 437.011302 257.058381 
L 437.620639 256.362744 
L 438.229975 257.838078 
L 438.839312 263.012569 
L 439.448649 271.793437 
L 440.057985 271.816133 
L 440.667322 266.350725 
L 441.276658 271.716006 
L 441.885995 270.366245 
L 442.495332 274.749253 
L 443.104668 270.844655 
L 443.714005 280.425069 
L 444.323342 287.516959 
L 444.932678 287.574566 
L 445.542015 278.336756 
L 446.151351 281.663381 
L 446.760688 280.368257 
L 447.370025 286.62939 
L 447.979361 283.423192 
L 448.588698 276.478055 
L 449.198034 277.536142 
L 449.807371 276.687144 
L 450.416708 281.313221 
L 451.026044 279.723839 
L 451.635381 281.595467 
L 452.244717 280.046473 
L 452.854054 274.087244 
L 454.072727 264.349892 
L 454.682064 268.860556 
L 455.2914 271.289205 
L 455.900737 275.498106 
L 456.510074 273.756611 
L 457.11941 271.201608 
L 458.338084 282.591501 
L 458.94742 286.470495 
L 459.556757 287.490285 
L 460.166093 280.043538 
L 460.77543 278.539423 
L 461.384767 279.264817 
L 461.994103 281.922693 
L 462.60344 287.25275 
L 463.822113 282.011043 
L 464.43145 265.83249 
L 465.040786 269.036078 
L 465.650123 263.912013 
L 466.259459 261.946837 
L 466.868796 264.486366 
L 467.478133 264.126325 
L 468.087469 265.368628 
L 468.696806 272.356604 
L 469.306143 271.374911 
L 469.915479 268.40962 
L 470.524816 259.931452 
L 471.134152 261.200744 
L 471.743489 258.902467 
L 472.352826 247.959552 
L 472.962162 245.550061 
L 473.571499 249.523039 
L 474.180835 247.493053 
L 474.790172 256.36664 
L 476.008845 242.712503 
L 476.618182 240.821092 
L 477.227518 237.91468 
L 477.836855 232.485003 
L 478.446192 232.882607 
L 479.055528 238.693135 
L 479.664865 246.558806 
L 480.274201 250.396212 
L 480.883538 248.557105 
L 481.492875 252.290161 
L 482.102211 247.776519 
L 482.711548 254.374907 
L 483.320885 254.811155 
L 483.930221 256.837629 
L 484.539558 255.312341 
L 485.148894 261.933043 
L 485.758231 261.878239 
L 486.367568 270.115819 
L 487.586241 281.24948 
L 488.195577 278.771388 
L 488.804914 277.811619 
L 489.414251 287.808297 
L 490.023587 287.433464 
L 490.632924 297.782096 
L 491.24226 294.534001 
L 491.851597 296.643171 
L 492.460934 300.320862 
L 493.07027 300.797154 
L 493.679607 294.959984 
L 494.288943 293.812997 
L 494.89828 294.26883 
L 495.507617 294.329958 
L 496.116953 291.283513 
L 496.72629 288.908096 
L 497.944963 299.604684 
L 498.5543 306.8032 
L 499.163636 300.720081 
L 499.772973 298.735944 
L 500.38231 308.841673 
L 500.991646 310.100825 
L 501.600983 315.581656 
L 502.210319 316.778937 
L 502.819656 319.817655 
L 503.428993 322.230224 
L 504.038329 322.979381 
L 504.647666 325.21067 
L 505.257002 330.614133 
L 505.866339 332.572582 
L 506.475676 333.106928 
L 507.085012 324.901313 
L 507.694349 324.083961 
L 508.303686 327.510375 
L 508.913022 321.600007 
L 509.522359 329.878331 
L 510.131695 332.158905 
L 510.741032 341.449146 
L 511.350369 343.299035 
L 511.959705 333.823975 
L 512.569042 343.451573 
L 513.178378 338.748029 
L 513.787715 336.286666 
L 514.397052 336.515105 
L 515.615725 321.660438 
L 516.225061 330.53521 
L 516.834398 328.171015 
L 517.443735 326.596227 
L 518.662408 318.598294 
L 519.271744 315.834512 
L 519.881081 316.659566 
L 520.490418 319.22091 
L 521.099754 316.482946 
L 521.709091 318.254306 
L 522.318428 307.848228 
L 522.927764 314.12844 
L 523.537101 310.699178 
L 524.146437 311.613802 
L 524.755774 312.057321 
L 525.365111 307.991843 
L 525.974447 311.849804 
L 526.583784 310.69553 
L 527.19312 318.257376 
L 527.802457 321.663944 
L 528.411794 327.105104 
L 529.02113 324.36507 
L 529.630467 328.859179 
L 530.239803 324.327117 
L 530.84914 316.44384 
L 531.458477 319.915947 
L 532.067813 328.687388 
L 532.67715 330.300847 
L 533.286486 330.475387 
L 533.895823 324.051927 
L 535.114496 334.572515 
L 535.723833 327.850706 
L 536.33317 332.872802 
L 536.942506 328.651125 
L 537.551843 322.283164 
L 538.161179 326.310943 
L 538.770516 327.933973 
L 539.379853 328.408453 
L 539.989189 328.301653 
L 540.598526 317.600403 
L 541.207862 325.12242 
L 541.817199 323.604372 
L 543.035872 326.83671 
L 543.645209 338.44818 
L 544.254545 338.873932 
L 544.863882 341.549119 
L 545.473219 341.626325 
L 546.082555 347.993097 
L 546.691892 348.347203 
L 547.301229 355.572196 
L 547.910565 359.192639 
L 548.519902 354.582325 
L 549.129238 347.876481 
L 549.738575 342.612607 
L 550.957248 334.801813 
L 551.566585 334.630021 
L 552.175921 338.220101 
L 552.785258 340.308351 
L 553.394595 343.048491 
L 554.003931 339.937588 
L 554.613268 338.316133 
L 555.222604 341.050864 
L 555.831941 341.959974 
L 556.441278 337.687716 
L 557.050614 329.670837 
L 557.659951 325.879002 
L 558.269287 333.296422 
L 558.878624 339.055942 
L 559.487961 334.216104 
L 560.097297 335.741559 
L 560.706634 330.961199 
L 561.315971 328.630315 
L 561.925307 329.596902 
L 562.534644 331.729955 
L 563.14398 326.613487 
L 564.362654 341.137884 
L 565.581327 340.568235 
L 566.190663 343.274403 
L 566.8 344.608871 
L 567.409337 338.460579 
L 568.018673 336.134276 
L 568.62801 339.615732 
L 569.237346 343.793363 
L 570.45602 348.297207 
L 571.065356 341.228543 
L 571.674693 345.943446 
L 572.284029 355.792279 
L 572.893366 347.081795 
L 573.502703 340.181371 
L 574.112039 346.786325 
L 575.330713 348.637217 
L 575.940049 349.73145 
L 576.549386 346.319395 
L 577.158722 353.383181 
L 577.768059 344.391021 
L 578.377396 349.680175 
L 578.986732 347.011496 
L 580.205405 345.307826 
L 580.814742 347.261092 
L 581.424079 349.996034 
L 582.642752 334.90023 
L 583.252088 325.233988 
L 583.861425 324.936041 
L 584.470762 322.419911 
L 585.080098 321.111251 
L 585.689435 313.555261 
L 586.298771 313.214236 
L 586.908108 308.22826 
L 587.517445 307.971013 
L 588.126781 306.720542 
L 588.736118 317.584501 
L 589.345455 320.094287 
L 589.954791 332.002548 
L 590.564128 331.331698 
L 591.173464 331.410364 
L 591.782801 328.350061 
L 592.392138 321.677759 
L 593.001474 323.751866 
L 593.610811 318.201469 
L 594.220147 325.848512 
L 594.829484 320.541022 
L 595.438821 319.877026 
L 596.048157 322.179347 
L 596.657494 326.781595 
L 597.26683 323.589943 
L 597.876167 318.999127 
L 598.485504 319.769724 
L 599.09484 319.192672 
L 599.704177 314.433105 
L 600.313514 313.064857 
L 600.92285 319.097177 
L 601.532187 318.86705 
L 602.141523 324.547778 
L 602.75086 325.059052 
L 603.360197 330.26899 
L 603.969533 323.373286 
L 604.57887 319.463944 
L 605.188206 327.592299 
L 605.797543 329.187866 
L 606.40688 335.656324 
L 607.016216 334.678358 
L 607.625553 331.626758 
L 608.234889 323.742003 
L 608.844226 322.641864 
L 609.453563 319.901092 
L 610.672236 313.058233 
L 611.281572 312.270565 
L 611.890909 309.543233 
L 612.500246 302.77132 
L 613.109582 310.532798 
L 613.718919 303.975964 
L 614.328256 311.925966 
L 614.937592 311.680043 
L 615.546929 304.696756 
L 617.984275 291.658288 
L 618.593612 291.714843 
L 619.202948 288.506263 
L 619.812285 293.968258 
L 620.421622 286.636002 
L 621.030958 281.091693 
L 621.640295 279.668495 
L 622.249631 280.88504 
L 622.858968 282.510728 
L 623.468305 291.565787 
L 624.077641 297.010824 
L 624.686978 299.483629 
L 625.296314 294.997897 
L 625.905651 287.898337 
L 626.514988 298.439899 
L 627.124324 296.626893 
L 627.733661 295.601754 
L 628.342998 291.351873 
L 628.952334 285.296305 
L 629.561671 283.905835 
L 630.171007 287.144727 
L 630.780344 286.202039 
L 631.389681 293.082703 
L 631.999017 298.437818 
L 632.608354 301.651836 
L 633.21769 307.98189 
L 633.827027 297.848879 
L 634.436364 290.320211 
L 635.0457 288.138098 
L 635.655037 295.819721 
L 636.264373 286.721771 
L 636.87371 290.391803 
L 637.483047 282.797142 
L 638.092383 293.727359 
L 638.70172 288.983497 
L 639.920393 294.154648 
L 640.52973 291.257749 
L 641.139066 289.593168 
L 641.748403 286.927181 
L 642.35774 287.491432 
L 642.967076 295.341366 
L 643.576413 301.338388 
L 644.185749 293.945862 
L 644.795086 296.555109 
L 645.404423 292.433529 
L 646.013759 300.514139 
L 646.623096 302.94375 
L 647.232432 299.217675 
L 647.841769 307.956348 
L 648.451106 305.783143 
L 649.060442 311.067607 
L 650.279115 301.700097 
L 650.888452 292.688485 
L 651.497789 292.209655 
L 652.107125 295.462148 
L 652.716462 296.42629 
L 653.325799 299.128862 
L 653.935135 297.000377 
L 654.544472 298.07914 
L 655.153808 297.535487 
L 655.763145 303.846826 
L 656.372482 299.783039 
L 656.981818 305.809069 
L 657.591155 307.47561 
L 658.200491 315.3037 
L 658.809828 310.893469 
L 659.419165 309.482123 
L 660.028501 302.03111 
L 660.637838 302.448473 
L 661.247174 301.212184 
L 661.856511 300.557753 
L 662.465848 295.872905 
L 663.075184 299.517341 
L 663.684521 293.972902 
L 664.293857 293.372113 
L 665.512531 306.203339 
L 666.121867 310.994454 
L 666.731204 309.333613 
L 667.340541 315.774019 
L 667.949877 324.253774 
L 668.559214 322.326526 
L 669.16855 326.57673 
L 669.777887 333.792126 
L 670.387224 335.145367 
L 670.99656 332.634595 
L 671.605897 331.353879 
L 672.82457 319.328076 
L 673.433907 316.118119 
L 674.043243 325.872092 
L 674.65258 324.354922 
L 675.261916 324.296777 
L 675.871253 330.166186 
L 676.48059 331.46105 
L 677.089926 329.40966 
L 677.699263 328.520281 
L 678.3086 336.025203 
L 678.917936 337.164736 
L 679.527273 335.724713 
L 680.136609 334.922018 
L 680.745946 340.122267 
L 681.355283 333.569572 
L 681.964619 342.524101 
L 682.573956 339.453141 
L 683.183292 343.26992 
L 683.792629 351.203039 
L 684.401966 346.44675 
L 685.011302 350.534954 
L 685.620639 346.875515 
L 686.229975 338.212985 
L 686.839312 327.599948 
L 687.448649 330.163535 
L 688.667322 340.922816 
L 689.885995 330.844416 
L 690.495332 335.350657 
L 692.323342 329.283116 
L 692.932678 332.27563 
L 693.542015 332.031546 
L 694.151351 335.7987 
L 694.760688 343.728987 
L 695.370025 341.220869 
L 695.979361 343.772108 
L 696.588698 338.097708 
L 697.198034 343.005524 
L 697.807371 342.111645 
L 698.416708 334.609348 
L 699.026044 331.01367 
L 699.635381 332.255397 
L 700.244717 337.997973 
L 700.854054 337.368629 
L 701.463391 335.397299 
L 702.072727 336.958005 
L 702.682064 335.00897 
L 703.2914 341.680987 
L 703.900737 345.270615 
L 704.510074 338.02823 
L 705.11941 337.175104 
L 705.728747 341.9932 
L 706.338084 331.603886 
L 706.94742 334.400966 
L 707.556757 341.33651 
L 708.166093 343.874177 
L 708.77543 340.914914 
L 709.384767 337.170612 
L 709.994103 335.992264 
L 710.60344 345.448863 
L 711.212776 341.06153 
L 711.822113 326.861367 
L 712.43145 333.930896 
L 713.040786 333.573193 
L 713.650123 335.982611 
L 714.259459 336.822041 
L 714.868796 337.023947 
L 715.478133 323.118586 
L 716.087469 315.308368 
L 716.696806 320.082382 
L 717.306143 318.126833 
L 717.915479 317.121338 
L 718.524816 319.963464 
L 719.134152 322.010813 
L 719.743489 316.100212 
L 720.352826 314.844098 
L 721.571499 308.127843 
L 722.180835 301.510255 
L 722.790172 306.870272 
L 723.399509 306.579278 
L 724.008845 298.350981 
L 724.618182 301.152984 
L 725.227518 300.732633 
L 725.836855 311.615855 
L 726.446192 310.835874 
L 727.055528 310.930526 
L 727.664865 313.541343 
L 728.274201 311.454684 
L 728.883538 304.648732 
L 729.492875 308.357971 
L 730.102211 313.13318 
L 731.320885 324.66468 
L 731.930221 325.588629 
L 732.539558 319.063276 
L 733.148894 318.381668 
L 733.758231 316.975978 
L 734.367568 312.259347 
L 734.976904 311.178758 
L 735.586241 317.061994 
L 736.195577 318.334839 
L 736.804914 328.921692 
L 737.414251 326.721185 
L 738.023587 325.832081 
L 738.632924 326.37948 
L 739.24226 329.634071 
L 739.851597 322.327017 
L 740.460934 324.637714 
L 741.07027 321.225848 
L 741.679607 326.834495 
L 742.288943 329.425702 
L 742.89828 331.292308 
L 743.507617 326.374131 
L 744.116953 324.809309 
L 744.72629 318.780631 
L 745.335627 319.618618 
L 745.944963 318.823876 
L 746.5543 325.388858 
L 747.163636 327.922127 
L 747.163636 327.922127 
" style="fill:none;stroke:#2ca02c;stroke-dasharray:1.5,2.475;stroke-dashoffset:0;stroke-width:1.5;"/>
   </g>
   <g id="patch_3">
    <path d="M 108 378 
L 108 51.84 
" style="fill:none;stroke:#000000;stroke-linecap:square;stroke-linejoin:miter;stroke-width:0.8;"/>
   </g>
   <g id="patch_4">
    <path d="M 777.6 378 
L 777.6 51.84 
" style="fill:none;stroke:#000000;stroke-linecap:square;stroke-linejoin:miter;stroke-width:0.8;"/>
   </g>
   <g id="patch_5">
    <path d="M 108 378 
L 777.6 378 
" style="fill:none;stroke:#000000;stroke-linecap:square;stroke-linejoin:miter;stroke-width:0.8;"/>
   </g>
   <g id="patch_6">
    <path d="M 108 51.84 
L 777.6 51.84 
" style="fill:none;stroke:#000000;stroke-linecap:square;stroke-linejoin:miter;stroke-width:0.8;"/>
   </g>
   <g id="legend_1">
    <g id="patch_7">
     <path d="M 667.607813 104.1525 
L 770.6 104.1525 
Q 772.6 104.1525 772.6 102.1525 
L 772.6 58.84 
Q 772.6 56.84 770.6 56.84 
L 667.607813 56.84 
Q 665.607813 56.84 665.607813 58.84 
L 665.607813 102.1525 
Q 665.607813 104.1525 667.607813 104.1525 
z
" style="fill:#ffffff;opacity:0.8;stroke:#cccccc;stroke-linejoin:miter;"/>
    </g>
    <g id="line2d_21">
     <path d="M 669.607813 64.938437 
L 689.607813 64.938437 
" style="fill:none;stroke:#1f77b4;stroke-linecap:square;stroke-width:1.5;"/>
    </g>
    <g id="line2d_22"/>
    <g id="text_18">
     <!-- y_true -->
     <defs>
      <path d="M 32.171875 -5.078125 
Q 28.375 -14.84375 24.75 -17.8125 
Q 21.140625 -20.796875 15.09375 -20.796875 
L 7.90625 -20.796875 
L 7.90625 -13.28125 
L 13.1875 -13.28125 
Q 16.890625 -13.28125 18.9375 -11.515625 
Q 21 -9.765625 23.484375 -3.21875 
L 25.09375 0.875 
L 2.984375 54.6875 
L 12.5 54.6875 
L 29.59375 11.921875 
L 46.6875 54.6875 
L 56.203125 54.6875 
z
" id="DejaVuSans-79"/>
      <path d="M 50.984375 -16.609375 
L 50.984375 -23.578125 
L -0.984375 -23.578125 
L -0.984375 -16.609375 
z
" id="DejaVuSans-5f"/>
      <path d="M 18.3125 70.21875 
L 18.3125 54.6875 
L 36.8125 54.6875 
L 36.8125 47.703125 
L 18.3125 47.703125 
L 18.3125 18.015625 
Q 18.3125 11.328125 20.140625 9.421875 
Q 21.96875 7.515625 27.59375 7.515625 
L 36.8125 7.515625 
L 36.8125 0 
L 27.59375 0 
Q 17.1875 0 13.234375 3.875 
Q 9.28125 7.765625 9.28125 18.015625 
L 9.28125 47.703125 
L 2.6875 47.703125 
L 2.6875 54.6875 
L 9.28125 54.6875 
L 9.28125 70.21875 
z
" id="DejaVuSans-74"/>
      <path d="M 41.109375 46.296875 
Q 39.59375 47.171875 37.8125 47.578125 
Q 36.03125 48 33.890625 48 
Q 26.265625 48 22.1875 43.046875 
Q 18.109375 38.09375 18.109375 28.8125 
L 18.109375 0 
L 9.078125 0 
L 9.078125 54.6875 
L 18.109375 54.6875 
L 18.109375 46.1875 
Q 20.953125 51.171875 25.484375 53.578125 
Q 30.03125 56 36.53125 56 
Q 37.453125 56 38.578125 55.875 
Q 39.703125 55.765625 41.0625 55.515625 
z
" id="DejaVuSans-72"/>
      <path d="M 8.5 21.578125 
L 8.5 54.6875 
L 17.484375 54.6875 
L 17.484375 21.921875 
Q 17.484375 14.15625 20.5 10.265625 
Q 23.53125 6.390625 29.59375 6.390625 
Q 36.859375 6.390625 41.078125 11.03125 
Q 45.3125 15.671875 45.3125 23.6875 
L 45.3125 54.6875 
L 54.296875 54.6875 
L 54.296875 0 
L 45.3125 0 
L 45.3125 8.40625 
Q 42.046875 3.421875 37.71875 1 
Q 33.40625 -1.421875 27.6875 -1.421875 
Q 18.265625 -1.421875 13.375 4.4375 
Q 8.5 10.296875 8.5 21.578125 
z
M 31.109375 56 
z
" id="DejaVuSans-75"/>
      <path d="M 56.203125 29.59375 
L 56.203125 25.203125 
L 14.890625 25.203125 
Q 15.484375 15.921875 20.484375 11.0625 
Q 25.484375 6.203125 34.421875 6.203125 
Q 39.59375 6.203125 44.453125 7.46875 
Q 49.3125 8.734375 54.109375 11.28125 
L 54.109375 2.78125 
Q 49.265625 0.734375 44.1875 -0.34375 
Q 39.109375 -1.421875 33.890625 -1.421875 
Q 20.796875 -1.421875 13.15625 6.1875 
Q 5.515625 13.8125 5.515625 26.8125 
Q 5.515625 40.234375 12.765625 48.109375 
Q 20.015625 56 32.328125 56 
Q 43.359375 56 49.78125 48.890625 
Q 56.203125 41.796875 56.203125 29.59375 
z
M 47.21875 32.234375 
Q 47.125 39.59375 43.09375 43.984375 
Q 39.0625 48.390625 32.421875 48.390625 
Q 24.90625 48.390625 20.390625 44.140625 
Q 15.875 39.890625 15.1875 32.171875 
z
" id="DejaVuSans-65"/>
     </defs>
     <g transform="translate(697.607813 68.438437)scale(0.1 -0.1)">
      <use xlink:href="#DejaVuSans-79"/>
      <use x="59.179688" xlink:href="#DejaVuSans-5f"/>
      <use x="109.179688" xlink:href="#DejaVuSans-74"/>
      <use x="148.388672" xlink:href="#DejaVuSans-72"/>
      <use x="189.501953" xlink:href="#DejaVuSans-75"/>
      <use x="252.880859" xlink:href="#DejaVuSans-65"/>
     </g>
    </g>
    <g id="line2d_23">
     <path d="M 669.607813 79.894687 
L 689.607813 79.894687 
" style="fill:none;stroke:#ff7f0e;stroke-dasharray:5.55,2.4;stroke-dashoffset:0;stroke-width:1.5;"/>
    </g>
    <g id="line2d_24"/>
    <g id="text_19">
     <!-- random forest -->
     <defs>
      <path d="M 34.28125 27.484375 
Q 23.390625 27.484375 19.1875 25 
Q 14.984375 22.515625 14.984375 16.5 
Q 14.984375 11.71875 18.140625 8.90625 
Q 21.296875 6.109375 26.703125 6.109375 
Q 34.1875 6.109375 38.703125 11.40625 
Q 43.21875 16.703125 43.21875 25.484375 
L 43.21875 27.484375 
z
M 52.203125 31.203125 
L 52.203125 0 
L 43.21875 0 
L 43.21875 8.296875 
Q 40.140625 3.328125 35.546875 0.953125 
Q 30.953125 -1.421875 24.3125 -1.421875 
Q 15.921875 -1.421875 10.953125 3.296875 
Q 6 8.015625 6 15.921875 
Q 6 25.140625 12.171875 29.828125 
Q 18.359375 34.515625 30.609375 34.515625 
L 43.21875 34.515625 
L 43.21875 35.40625 
Q 43.21875 41.609375 39.140625 45 
Q 35.0625 48.390625 27.6875 48.390625 
Q 23 48.390625 18.546875 47.265625 
Q 14.109375 46.140625 10.015625 43.890625 
L 10.015625 52.203125 
Q 14.9375 54.109375 19.578125 55.046875 
Q 24.21875 56 28.609375 56 
Q 40.484375 56 46.34375 49.84375 
Q 52.203125 43.703125 52.203125 31.203125 
z
" id="DejaVuSans-61"/>
      <path d="M 54.890625 33.015625 
L 54.890625 0 
L 45.90625 0 
L 45.90625 32.71875 
Q 45.90625 40.484375 42.875 44.328125 
Q 39.84375 48.1875 33.796875 48.1875 
Q 26.515625 48.1875 22.3125 43.546875 
Q 18.109375 38.921875 18.109375 30.90625 
L 18.109375 0 
L 9.078125 0 
L 9.078125 54.6875 
L 18.109375 54.6875 
L 18.109375 46.1875 
Q 21.34375 51.125 25.703125 53.5625 
Q 30.078125 56 35.796875 56 
Q 45.21875 56 50.046875 50.171875 
Q 54.890625 44.34375 54.890625 33.015625 
z
" id="DejaVuSans-6e"/>
      <path d="M 45.40625 46.390625 
L 45.40625 75.984375 
L 54.390625 75.984375 
L 54.390625 0 
L 45.40625 0 
L 45.40625 8.203125 
Q 42.578125 3.328125 38.25 0.953125 
Q 33.9375 -1.421875 27.875 -1.421875 
Q 17.96875 -1.421875 11.734375 6.484375 
Q 5.515625 14.40625 5.515625 27.296875 
Q 5.515625 40.1875 11.734375 48.09375 
Q 17.96875 56 27.875 56 
Q 33.9375 56 38.25 53.625 
Q 42.578125 51.265625 45.40625 46.390625 
z
M 14.796875 27.296875 
Q 14.796875 17.390625 18.875 11.75 
Q 22.953125 6.109375 30.078125 6.109375 
Q 37.203125 6.109375 41.296875 11.75 
Q 45.40625 17.390625 45.40625 27.296875 
Q 45.40625 37.203125 41.296875 42.84375 
Q 37.203125 48.484375 30.078125 48.484375 
Q 22.953125 48.484375 18.875 42.84375 
Q 14.796875 37.203125 14.796875 27.296875 
z
" id="DejaVuSans-64"/>
      <path d="M 30.609375 48.390625 
Q 23.390625 48.390625 19.1875 42.75 
Q 14.984375 37.109375 14.984375 27.296875 
Q 14.984375 17.484375 19.15625 11.84375 
Q 23.34375 6.203125 30.609375 6.203125 
Q 37.796875 6.203125 41.984375 11.859375 
Q 46.1875 17.53125 46.1875 27.296875 
Q 46.1875 37.015625 41.984375 42.703125 
Q 37.796875 48.390625 30.609375 48.390625 
z
M 30.609375 56 
Q 42.328125 56 49.015625 48.375 
Q 55.71875 40.765625 55.71875 27.296875 
Q 55.71875 13.875 49.015625 6.21875 
Q 42.328125 -1.421875 30.609375 -1.421875 
Q 18.84375 -1.421875 12.171875 6.21875 
Q 5.515625 13.875 5.515625 27.296875 
Q 5.515625 40.765625 12.171875 48.375 
Q 18.84375 56 30.609375 56 
z
" id="DejaVuSans-6f"/>
      <path d="M 52 44.1875 
Q 55.375 50.25 60.0625 53.125 
Q 64.75 56 71.09375 56 
Q 79.640625 56 84.28125 50.015625 
Q 88.921875 44.046875 88.921875 33.015625 
L 88.921875 0 
L 79.890625 0 
L 79.890625 32.71875 
Q 79.890625 40.578125 77.09375 44.375 
Q 74.3125 48.1875 68.609375 48.1875 
Q 61.625 48.1875 57.5625 43.546875 
Q 53.515625 38.921875 53.515625 30.90625 
L 53.515625 0 
L 44.484375 0 
L 44.484375 32.71875 
Q 44.484375 40.625 41.703125 44.40625 
Q 38.921875 48.1875 33.109375 48.1875 
Q 26.21875 48.1875 22.15625 43.53125 
Q 18.109375 38.875 18.109375 30.90625 
L 18.109375 0 
L 9.078125 0 
L 9.078125 54.6875 
L 18.109375 54.6875 
L 18.109375 46.1875 
Q 21.1875 51.21875 25.484375 53.609375 
Q 29.78125 56 35.6875 56 
Q 41.65625 56 45.828125 52.96875 
Q 50 49.953125 52 44.1875 
z
" id="DejaVuSans-6d"/>
      <path id="DejaVuSans-20"/>
      <path d="M 37.109375 75.984375 
L 37.109375 68.5 
L 28.515625 68.5 
Q 23.6875 68.5 21.796875 66.546875 
Q 19.921875 64.59375 19.921875 59.515625 
L 19.921875 54.6875 
L 34.71875 54.6875 
L 34.71875 47.703125 
L 19.921875 47.703125 
L 19.921875 0 
L 10.890625 0 
L 10.890625 47.703125 
L 2.296875 47.703125 
L 2.296875 54.6875 
L 10.890625 54.6875 
L 10.890625 58.5 
Q 10.890625 67.625 15.140625 71.796875 
Q 19.390625 75.984375 28.609375 75.984375 
z
" id="DejaVuSans-66"/>
      <path d="M 44.28125 53.078125 
L 44.28125 44.578125 
Q 40.484375 46.53125 36.375 47.5 
Q 32.28125 48.484375 27.875 48.484375 
Q 21.1875 48.484375 17.84375 46.4375 
Q 14.5 44.390625 14.5 40.28125 
Q 14.5 37.15625 16.890625 35.375 
Q 19.28125 33.59375 26.515625 31.984375 
L 29.59375 31.296875 
Q 39.15625 29.25 43.1875 25.515625 
Q 47.21875 21.78125 47.21875 15.09375 
Q 47.21875 7.46875 41.1875 3.015625 
Q 35.15625 -1.421875 24.609375 -1.421875 
Q 20.21875 -1.421875 15.453125 -0.5625 
Q 10.6875 0.296875 5.421875 2 
L 5.421875 11.28125 
Q 10.40625 8.6875 15.234375 7.390625 
Q 20.0625 6.109375 24.8125 6.109375 
Q 31.15625 6.109375 34.5625 8.28125 
Q 37.984375 10.453125 37.984375 14.40625 
Q 37.984375 18.0625 35.515625 20.015625 
Q 33.0625 21.96875 24.703125 23.78125 
L 21.578125 24.515625 
Q 13.234375 26.265625 9.515625 29.90625 
Q 5.8125 33.546875 5.8125 39.890625 
Q 5.8125 47.609375 11.28125 51.796875 
Q 16.75 56 26.8125 56 
Q 31.78125 56 36.171875 55.265625 
Q 40.578125 54.546875 44.28125 53.078125 
z
" id="DejaVuSans-73"/>
     </defs>
     <g transform="translate(697.607813 83.394687)scale(0.1 -0.1)">
      <use xlink:href="#DejaVuSans-72"/>
      <use x="41.113281" xlink:href="#DejaVuSans-61"/>
      <use x="102.392578" xlink:href="#DejaVuSans-6e"/>
      <use x="165.771484" xlink:href="#DejaVuSans-64"/>
      <use x="229.248047" xlink:href="#DejaVuSans-6f"/>
      <use x="290.429688" xlink:href="#DejaVuSans-6d"/>
      <use x="387.841797" xlink:href="#DejaVuSans-20"/>
      <use x="419.628906" xlink:href="#DejaVuSans-66"/>
      <use x="454.833984" xlink:href="#DejaVuSans-6f"/>
      <use x="516.015625" xlink:href="#DejaVuSans-72"/>
      <use x="557.097656" xlink:href="#DejaVuSans-65"/>
      <use x="618.621094" xlink:href="#DejaVuSans-73"/>
      <use x="670.720703" xlink:href="#DejaVuSans-74"/>
     </g>
    </g>
    <g id="line2d_25">
     <path d="M 669.607813 94.572812 
L 689.607813 94.572812 
" style="fill:none;stroke:#2ca02c;stroke-dasharray:1.5,2.475;stroke-dashoffset:0;stroke-width:1.5;"/>
    </g>
    <g id="line2d_26"/>
    <g id="text_20">
     <!-- lin reg -->
     <defs>
      <path d="M 9.421875 75.984375 
L 18.40625 75.984375 
L 18.40625 0 
L 9.421875 0 
z
" id="DejaVuSans-6c"/>
      <path d="M 9.421875 54.6875 
L 18.40625 54.6875 
L 18.40625 0 
L 9.421875 0 
z
M 9.421875 75.984375 
L 18.40625 75.984375 
L 18.40625 64.59375 
L 9.421875 64.59375 
z
" id="DejaVuSans-69"/>
      <path d="M 45.40625 27.984375 
Q 45.40625 37.75 41.375 43.109375 
Q 37.359375 48.484375 30.078125 48.484375 
Q 22.859375 48.484375 18.828125 43.109375 
Q 14.796875 37.75 14.796875 27.984375 
Q 14.796875 18.265625 18.828125 12.890625 
Q 22.859375 7.515625 30.078125 7.515625 
Q 37.359375 7.515625 41.375 12.890625 
Q 45.40625 18.265625 45.40625 27.984375 
z
M 54.390625 6.78125 
Q 54.390625 -7.171875 48.1875 -13.984375 
Q 42 -20.796875 29.203125 -20.796875 
Q 24.46875 -20.796875 20.265625 -20.09375 
Q 16.0625 -19.390625 12.109375 -17.921875 
L 12.109375 -9.1875 
Q 16.0625 -11.328125 19.921875 -12.34375 
Q 23.78125 -13.375 27.78125 -13.375 
Q 36.625 -13.375 41.015625 -8.765625 
Q 45.40625 -4.15625 45.40625 5.171875 
L 45.40625 9.625 
Q 42.625 4.78125 38.28125 2.390625 
Q 33.9375 0 27.875 0 
Q 17.828125 0 11.671875 7.65625 
Q 5.515625 15.328125 5.515625 27.984375 
Q 5.515625 40.671875 11.671875 48.328125 
Q 17.828125 56 27.875 56 
Q 33.9375 56 38.28125 53.609375 
Q 42.625 51.21875 45.40625 46.390625 
L 45.40625 54.6875 
L 54.390625 54.6875 
z
" id="DejaVuSans-67"/>
     </defs>
     <g transform="translate(697.607813 98.072812)scale(0.1 -0.1)">
      <use xlink:href="#DejaVuSans-6c"/>
      <use x="27.783203" xlink:href="#DejaVuSans-69"/>
      <use x="55.566406" xlink:href="#DejaVuSans-6e"/>
      <use x="118.945312" xlink:href="#DejaVuSans-20"/>
      <use x="150.732422" xlink:href="#DejaVuSans-72"/>
      <use x="191.814453" xlink:href="#DejaVuSans-65"/>
      <use x="253.337891" xlink:href="#DejaVuSans-67"/>
     </g>
    </g>
   </g>
  </g>
 </g>
 <defs>
  <clipPath id="p664ac1340b">
   <rect height="326.16" width="669.6" x="108" y="51.84"/>
  </clipPath>
 </defs>
</svg>
