<?xml version="1.0" encoding="UTF-8" standalone="no"?>
<!DOCTYPE svg PUBLIC "-//W3C//DTD SVG 1.1//EN"
 "http://www.w3.org/Graphics/SVG/1.1/DTD/svg11.dtd">
<!-- Generated by graphviz version 2.40.1 (20161225.0304)
 -->
<!-- Title: G Pages: 1 -->
<svg width="167pt" height="264pt"
 viewBox="0.00 0.00 166.68 264.00" xmlns="http://www.w3.org/2000/svg" xmlns:xlink="http://www.w3.org/1999/xlink">
<g id="graph0" class="graph" transform="scale(1 1) rotate(0) translate(4 260)">
<title>G</title>
<polygon fill="#ffffff" stroke="transparent" points="-4,4 -4,-260 162.6797,-260 162.6797,4 -4,4"/>
<!-- 121223838072 -->
<g id="node1" class="node">
<title>121223838072</title>
<polygon fill="none" stroke="#000000" points="0,-219.5 0,-255.5 158.6797,-255.5 158.6797,-219.5 0,-219.5"/>
<text text-anchor="middle" x="79.3398" y="-233.3" font-family="Times,serif" font-size="14.00" fill="#000000">name1_input: InputLayer</text>
</g>
<!-- 121222171952 -->
<g id="node2" class="node">
<title>121222171952</title>
<polygon fill="none" stroke="#000000" points="14.3726,-146.5 14.3726,-182.5 144.3071,-182.5 144.3071,-146.5 14.3726,-146.5"/>
<text text-anchor="middle" x="79.3398" y="-160.3" font-family="Times,serif" font-size="14.00" fill="#000000">name1: SimpleRNN</text>
</g>
<!-- 121223838072&#45;&gt;121222171952 -->
<g id="edge1" class="edge">
<title>121223838072&#45;&gt;121222171952</title>
<path fill="none" stroke="#000000" d="M79.3398,-219.4551C79.3398,-211.3828 79.3398,-201.6764 79.3398,-192.6817"/>
<polygon fill="#000000" stroke="#000000" points="82.8399,-192.5903 79.3398,-182.5904 75.8399,-192.5904 82.8399,-192.5903"/>
</g>
<!-- 121223837288 -->
<g id="node3" class="node">
<title>121223837288</title>
<polygon fill="none" stroke="#000000" points="31.4932,-73.5 31.4932,-109.5 127.1865,-109.5 127.1865,-73.5 31.4932,-73.5"/>
<text text-anchor="middle" x="79.3398" y="-87.3" font-family="Times,serif" font-size="14.00" fill="#000000">name2: Dense</text>
</g>
<!-- 121222171952&#45;&gt;121223837288 -->
<g id="edge2" class="edge">
<title>121222171952&#45;&gt;121223837288</title>
<path fill="none" stroke="#000000" d="M79.3398,-146.4551C79.3398,-138.3828 79.3398,-128.6764 79.3398,-119.6817"/>
<polygon fill="#000000" stroke="#000000" points="82.8399,-119.5903 79.3398,-109.5904 75.8399,-119.5904 82.8399,-119.5903"/>
</g>
<!-- 121223837624 -->
<g id="node4" class="node">
<title>121223837624</title>
<polygon fill="none" stroke="#000000" points="20.2139,-.5 20.2139,-36.5 138.4658,-36.5 138.4658,-.5 20.2139,-.5"/>
<text text-anchor="middle" x="79.3398" y="-14.3" font-family="Times,serif" font-size="14.00" fill="#000000">dense_131: Dense</text>
</g>
<!-- 121223837288&#45;&gt;121223837624 -->
<g id="edge3" class="edge">
<title>121223837288&#45;&gt;121223837624</title>
<path fill="none" stroke="#000000" d="M79.3398,-73.4551C79.3398,-65.3828 79.3398,-55.6764 79.3398,-46.6817"/>
<polygon fill="#000000" stroke="#000000" points="82.8399,-46.5903 79.3398,-36.5904 75.8399,-46.5904 82.8399,-46.5903"/>
</g>
</g>
</svg>
