<?xml version="1.0" encoding="utf-8" standalone="no"?>
<!DOCTYPE svg PUBLIC "-//W3C//DTD SVG 1.1//EN"
  "http://www.w3.org/Graphics/SVG/1.1/DTD/svg11.dtd">
<!-- Created with matplotlib (http://matplotlib.org/) -->
<svg height="432pt" version="1.1" viewBox="0 0 1440 432" width="1440pt" xmlns="http://www.w3.org/2000/svg" xmlns:xlink="http://www.w3.org/1999/xlink">
 <defs>
  <style type="text/css">
*{stroke-linecap:butt;stroke-linejoin:round;}
  </style>
 </defs>
 <g id="figure_1">
  <g id="patch_1">
   <path d="M 0 432 
L 1440 432 
L 1440 0 
L 0 0 
z
" style="fill:#ffffff;"/>
  </g>
  <g id="axes_1">
   <g id="LineCollection_1">
    <path clip-path="url(#p0a70d134e6)" d="M 274.136521 270.686685 
L 274.136521 270.686685 
" style="fill:none;stroke:#dfdfdf;stroke-width:3;"/>
    <path clip-path="url(#p0a70d134e6)" d="M 274.136521 270.686685 
L 215.452345 278.382893 
" style="fill:none;stroke:#bababa;stroke-width:3;"/>
    <path clip-path="url(#p0a70d134e6)" d="M 274.136521 270.686685 
L 283.81205 374.524398 
" style="fill:none;stroke:#9b9b9b;stroke-width:3;"/>
    <path clip-path="url(#p0a70d134e6)" d="M 274.136521 270.686685 
L 336.19881 234.387078 
" style="fill:none;stroke:#9b9b9b;stroke-width:3;"/>
    <path clip-path="url(#p0a70d134e6)" d="M 274.136521 270.686685 
L 342.056071 296.215872 
" style="fill:none;stroke:#9b9b9b;stroke-width:3;"/>
    <path clip-path="url(#p0a70d134e6)" d="M 274.136521 270.686685 
L 251.017519 188.10702 
" style="fill:none;stroke:#bababa;stroke-width:3;"/>
    <path clip-path="url(#p0a70d134e6)" d="M 274.136521 270.686685 
L 321.606263 349.977001 
" style="fill:none;stroke:#9b9b9b;stroke-width:3;"/>
    <path clip-path="url(#p0a70d134e6)" d="M 274.136521 270.686685 
L 302.54191 192.371951 
" style="fill:none;stroke:#aaaaaa;stroke-width:3;"/>
    <path clip-path="url(#p0a70d134e6)" d="M 274.136521 270.686685 
L 243.190958 349.057874 
" style="fill:none;stroke:#aaaaaa;stroke-width:3;"/>
    <path clip-path="url(#p0a70d134e6)" d="M 274.136521 270.686685 
L 186.132587 184.296477 
" style="fill:none;stroke:#000000;stroke-width:3;"/>
    <path clip-path="url(#p0a70d134e6)" d="M 215.452345 278.382893 
L 243.190958 349.057874 
" style="fill:none;stroke:#c3c3c3;stroke-width:3;"/>
    <path clip-path="url(#p0a70d134e6)" d="M 215.452345 278.382893 
L 186.132587 184.296477 
" style="fill:none;stroke:#a4a4a4;stroke-width:3;"/>
    <path clip-path="url(#p0a70d134e6)" d="M 283.81205 374.524398 
L 243.190958 349.057874 
" style="fill:none;stroke:#d3d3d3;stroke-width:3;"/>
    <path clip-path="url(#p0a70d134e6)" d="M 283.81205 374.524398 
L 321.606263 349.977001 
" style="fill:none;stroke:#d3d3d3;stroke-width:3;"/>
    <path clip-path="url(#p0a70d134e6)" d="M 336.19881 234.387078 
L 342.056071 296.215872 
" style="fill:none;stroke:#d3d3d3;stroke-width:3;"/>
    <path clip-path="url(#p0a70d134e6)" d="M 336.19881 234.387078 
L 302.54191 192.371951 
" style="fill:none;stroke:#d3d3d3;stroke-width:3;"/>
    <path clip-path="url(#p0a70d134e6)" d="M 342.056071 296.215872 
L 321.606263 349.977001 
" style="fill:none;stroke:#d3d3d3;stroke-width:3;"/>
    <path clip-path="url(#p0a70d134e6)" d="M 251.017519 188.10702 
L 302.54191 192.371951 
" style="fill:none;stroke:#c3c3c3;stroke-width:3;"/>
    <path clip-path="url(#p0a70d134e6)" d="M 251.017519 188.10702 
L 186.132587 184.296477 
" style="fill:none;stroke:#a4a4a4;stroke-width:3;"/>
    <path clip-path="url(#p0a70d134e6)" d="M 120.518391 113.91137 
L 96.933424 43.975602 
" style="fill:none;stroke:#b7b7b7;stroke-width:3;"/>
    <path clip-path="url(#p0a70d134e6)" d="M 120.518391 113.91137 
L 149.251221 82.986395 
" style="fill:none;stroke:#d3d3d3;stroke-width:3;"/>
    <path clip-path="url(#p0a70d134e6)" d="M 120.518391 113.91137 
L 70.514604 101.26556 
" style="fill:none;stroke:#b7b7b7;stroke-width:3;"/>
    <path clip-path="url(#p0a70d134e6)" d="M 120.518391 113.91137 
L 110.89182 166.231742 
" style="fill:none;stroke:#d3d3d3;stroke-width:3;"/>
    <path clip-path="url(#p0a70d134e6)" d="M 120.518391 113.91137 
L 186.132587 184.296477 
" style="fill:none;stroke:#636363;stroke-width:3;"/>
    <path clip-path="url(#p0a70d134e6)" d="M 186.132587 184.296477 
L 110.89182 166.231742 
" style="fill:none;stroke:#7f7f7f;stroke-width:3;"/>
    <path clip-path="url(#p0a70d134e6)" d="M 186.132587 184.296477 
L 149.251221 82.986395 
" style="fill:none;stroke:#7f7f7f;stroke-width:3;"/>
    <path clip-path="url(#p0a70d134e6)" d="M 96.933424 43.975602 
L 70.514604 101.26556 
" style="fill:none;stroke:#d3d3d3;stroke-width:3;"/>
    <path clip-path="url(#p0a70d134e6)" d="M 96.933424 43.975602 
L 149.251221 82.986395 
" style="fill:none;stroke:#b7b7b7;stroke-width:3;"/>
    <path clip-path="url(#p0a70d134e6)" d="M 70.514604 101.26556 
L 110.89182 166.231742 
" style="fill:none;stroke:#b7b7b7;stroke-width:3;"/>
   </g>
   <g id="PathCollection_1">
    <defs>
     <path d="M 0 10 
C 2.652031 10 5.195799 8.946337 7.071068 7.071068 
C 8.946337 5.195799 10 2.652031 10 0 
C 10 -2.652031 8.946337 -5.195799 7.071068 -7.071068 
C 5.195799 -8.946337 2.652031 -10 0 -10 
C -2.652031 -10 -5.195799 -8.946337 -7.071068 -7.071068 
C -8.946337 -5.195799 -10 -2.652031 -10 0 
C -10 2.652031 -8.946337 5.195799 -7.071068 7.071068 
C -5.195799 8.946337 -2.652031 10 0 10 
z
" id="mbe659d55fe" style="stroke:#ffc0cb;"/>
    </defs>
    <g clip-path="url(#p0a70d134e6)">
     <use style="fill:#ffc0cb;stroke:#ffc0cb;" x="274.136521" xlink:href="#mbe659d55fe" y="270.686685"/>
     <use style="fill:#ffc0cb;stroke:#ffc0cb;" x="215.452345" xlink:href="#mbe659d55fe" y="278.382893"/>
     <use style="fill:#ffc0cb;stroke:#ffc0cb;" x="283.81205" xlink:href="#mbe659d55fe" y="374.524398"/>
     <use style="fill:#ffc0cb;stroke:#ffc0cb;" x="336.19881" xlink:href="#mbe659d55fe" y="234.387078"/>
     <use style="fill:#ffc0cb;stroke:#ffc0cb;" x="342.056071" xlink:href="#mbe659d55fe" y="296.215872"/>
     <use style="fill:#ffc0cb;stroke:#ffc0cb;" x="251.017519" xlink:href="#mbe659d55fe" y="188.10702"/>
     <use style="fill:#ffc0cb;stroke:#ffc0cb;" x="120.518391" xlink:href="#mbe659d55fe" y="113.91137"/>
     <use style="fill:#ffc0cb;stroke:#ffc0cb;" x="321.606263" xlink:href="#mbe659d55fe" y="349.977001"/>
     <use style="fill:#ffc0cb;stroke:#ffc0cb;" x="302.54191" xlink:href="#mbe659d55fe" y="192.371951"/>
     <use style="fill:#ffc0cb;stroke:#ffc0cb;" x="243.190958" xlink:href="#mbe659d55fe" y="349.057874"/>
     <use style="fill:#ffc0cb;stroke:#ffc0cb;" x="186.132587" xlink:href="#mbe659d55fe" y="184.296477"/>
     <use style="fill:#ffc0cb;stroke:#ffc0cb;" x="96.933424" xlink:href="#mbe659d55fe" y="43.975602"/>
     <use style="fill:#ffc0cb;stroke:#ffc0cb;" x="149.251221" xlink:href="#mbe659d55fe" y="82.986395"/>
     <use style="fill:#ffc0cb;stroke:#ffc0cb;" x="70.514604" xlink:href="#mbe659d55fe" y="101.26556"/>
     <use style="fill:#ffc0cb;stroke:#ffc0cb;" x="110.89182" xlink:href="#mbe659d55fe" y="166.231742"/>
    </g>
   </g>
   <g id="text_1">
    <g clip-path="url(#p0a70d134e6)">
     <!-- A -->
     <defs>
      <path d="M 65.703125 -1.796875 
C 65.59375 -1.203125 65.40625 -0.5 65.203125 0 
C 65 0.59375 64.90625 0.796875 64.90625 0.90625 
L 44.09375 52.09375 
L 43.5 53.703125 
C 43.203125 54.5 42.796875 55.09375 42.5 56 
C 42.203125 56.796875 41.90625 57.5 41.40625 58.296875 
C 40.90625 59.09375 40.40625 59.796875 39.90625 60.40625 
C 39.40625 61 38.796875 61.40625 38.203125 61.703125 
C 36.296875 62.40625 33.59375 62.40625 31.703125 61.703125 
C 31.09375 61.40625 30.5 61 30 60.40625 
C 29.5 59.796875 28.90625 59.09375 28.5 58.296875 
C 28 57.5 27.703125 56.796875 27.40625 56 
C 27.09375 55.09375 26.703125 54.5 26.40625 53.703125 
L 25.796875 52.09375 
L 5 0.90625 
C 5 0.796875 4.90625 0.59375 4.703125 0 
C 4.5 -0.5 4.296875 -1.203125 4.203125 -1.796875 
C 4.09375 -2.59375 4 -3.296875 4 -4.203125 
C 4 -5 4.203125 -5.703125 4.703125 -6.40625 
C 5.09375 -7 5.796875 -7.703125 6.703125 -8.09375 
C 8.40625 -9.09375 10.09375 -9.40625 12 -9.09375 
C 12.796875 -8.90625 13.703125 -8.5 14.5 -7.796875 
C 14.703125 -7.59375 14.90625 -7.5 15 -7.296875 
C 15.09375 -7.203125 15.296875 -6.90625 15.5 -6.796875 
C 16.09375 -6.203125 16.5 -5.5 16.796875 -4.90625 
C 17.203125 -4.296875 17.5 -3.703125 17.90625 -3 
C 18.203125 -2.5 18.40625 -2 18.59375 -1.5 
C 18.796875 -1 18.90625 -0.40625 19.09375 0.09375 
L 21.203125 5 
C 30.296875 4.90625 39.59375 5 48.703125 5 
L 50.796875 0.09375 
C 50.90625 -0.40625 51.09375 -1 51.296875 -1.5 
C 51.40625 -2 51.703125 -2.5 52 -3 
C 52.40625 -3.703125 52.703125 -4.296875 53 -4.90625 
C 53.40625 -5.5 53.796875 -6.203125 54.40625 -6.796875 
C 54.59375 -6.90625 54.796875 -7.203125 54.90625 -7.296875 
C 55 -7.5 55.203125 -7.59375 55.40625 -7.796875 
C 56.203125 -8.5 57.09375 -8.90625 57.90625 -9.09375 
C 59.796875 -9.40625 61.5 -9.09375 63.203125 -8.09375 
C 64.09375 -7.703125 64.796875 -7 65.203125 -6.40625 
C 65.703125 -5.703125 65.90625 -5 65.90625 -4.203125 
C 65.90625 -3.296875 65.796875 -2.59375 65.703125 -1.796875 
z
M 43.796875 18.296875 
L 26.09375 18.296875 
L 27.90625 22.703125 
C 29.59375 26.5 31.40625 30.703125 33.40625 35 
C 33.90625 36.203125 34.5 37.5 34.90625 38.703125 
C 35.40625 37.5 36 36.203125 36.5 35 
C 38.5 30.703125 40.296875 26.5 42 22.703125 
z
" id="BMJUAOTF-41"/>
     </defs>
     <g transform="translate(268.893552 272.899185)scale(0.15 -0.15)">
      <use xlink:href="#BMJUAOTF-41"/>
     </g>
    </g>
   </g>
   <g id="text_2">
    <g clip-path="url(#p0a70d134e6)">
     <!-- B -->
     <defs>
      <path d="M 43.40625 28.296875 
C 53.59375 34.5 53.703125 48.59375 45.203125 56.296875 
C 44.5 57.09375 43.5 57.796875 42.5 58.296875 
C 41.5 58.796875 40.40625 59.296875 39.296875 59.703125 
C 35.09375 61.296875 30.09375 61.796875 25.703125 61.90625 
C 22.90625 62 20.203125 61.90625 17.5 61.90625 
C 10.703125 62 4 61.703125 4 54.203125 
L 4 -2.59375 
C 4 -3.09375 4.09375 -3.703125 4.40625 -4.40625 
C 4.796875 -6.5 5.59375 -8.296875 7.90625 -9 
C 13.09375 -10.09375 18.796875 -9.90625 24 -9.796875 
C 28.09375 -9.796875 33.90625 -9.203125 37.796875 -8.296875 
C 52.203125 -5.296875 55.203125 6.703125 51.59375 17.59375 
C 50 22.5 47.296875 25.796875 43.40625 28.296875 
z
M 25.90625 1.796875 
C 22.59375 1.703125 19.59375 2.203125 18.09375 3.59375 
C 16.703125 5 17.09375 7.59375 17.09375 9.40625 
C 17.09375 12.59375 17.5 16.203125 17.296875 19.59375 
C 17.203125 23.296875 19.703125 22.90625 23.5 23 
C 27.40625 23 31.59375 22.5 34.703125 20.09375 
C 39.296875 16.796875 40.203125 8.59375 36.59375 4.40625 
C 35 2.5 30 2 25.90625 1.796875 
z
M 27.90625 49.796875 
C 34.09375 49.59375 38.203125 47.59375 37.703125 41.59375 
C 37.296875 36.796875 34.703125 34.5 29.90625 33.703125 
C 25.59375 33 17.40625 31.90625 17.5 37.296875 
C 17.5 39.703125 17.59375 42.203125 17.59375 44.703125 
C 17.40625 50.90625 19.59375 50 27.90625 49.796875 
z
" id="BMJUAOTF-42"/>
     </defs>
     <g transform="translate(211.274611 280.595393)scale(0.15 -0.15)">
      <use xlink:href="#BMJUAOTF-42"/>
     </g>
    </g>
   </g>
   <g id="text_3">
    <g clip-path="url(#p0a70d134e6)">
     <!-- C -->
     <defs>
      <path d="M 57.09375 8.203125 
C 55.703125 11.09375 52.296875 12 49.90625 11.203125 
C 46.796875 10.296875 44.09375 7.09375 41.90625 6 
C 35.09375 2.203125 26.5 4.09375 22.09375 10.40625 
C 16.5 18.40625 17.796875 32 22 41 
C 26 49.59375 37.59375 52.09375 44.09375 44.40625 
C 46 42 48.09375 39.296875 51.796875 40.296875 
C 60.703125 42.5 54.09375 53.5 49.90625 57.203125 
C 43.296875 63.296875 29.796875 64.5 21.59375 59.796875 
C 10.796875 53.796875 5.09375 41.296875 4.40625 31.5 
C 3.5 20.59375 4.09375 5.59375 13.40625 -2.09375 
C 21.203125 -8.59375 32.296875 -10.796875 41.09375 -8.90625 
C 49 -7 60.703125 0.59375 57.09375 8.203125 
z
" id="BMJUAOTF-43"/>
     </defs>
     <g transform="translate(279.177285 376.736898)scale(0.15 -0.15)">
      <use xlink:href="#BMJUAOTF-43"/>
     </g>
    </g>
   </g>
   <g id="text_4">
    <g clip-path="url(#p0a70d134e6)">
     <!-- D -->
     <defs>
      <path d="M 56.59375 31.59375 
C 55.5 45.796875 45.203125 62.09375 27.59375 62.5 
L 10.90625 62.90625 
C 9.90625 62.40625 9 62.796875 8.203125 62.59375 
C 7.5 62.40625 6.703125 62.09375 5.90625 61.40625 
C 5.40625 61 5.09375 60.5 4.796875 59.703125 
C 4.5 59.09375 4.296875 58.296875 4.203125 57.40625 
C 4 56.59375 4 55.796875 4 54.90625 
L 4 -2.203125 
C 4 -2.703125 4.09375 -3.296875 4.203125 -4 
C 4.40625 -4.796875 4.59375 -5.5 5 -6.203125 
C 5.296875 -6.90625 5.703125 -7.59375 6.296875 -8 
C 7 -8.59375 7.90625 -8.90625 9 -9.09375 
C 11.90625 -9.796875 15.203125 -9.703125 18.203125 -9.5 
C 27.296875 -9.09375 37 -7.59375 44.203125 -2.296875 
C 51.09375 2.703125 54.5 10.40625 55.796875 18 
C 56.5 22.40625 56.90625 27.203125 56.59375 31.59375 
z
M 38 12.59375 
C 33 5 25.703125 4.203125 17.5 4 
L 17.5 24.40625 
C 17.5 28.59375 17.5 33.203125 17.59375 38 
C 17.59375 42 17.59375 45.5 17.5 49.296875 
C 25.296875 49.203125 34.09375 48.09375 37.703125 42.203125 
C 42.59375 34.203125 43.09375 20.703125 38 12.59375 
z
" id="BMJUAOTF-44"/>
     </defs>
     <g transform="translate(331.639044 236.599578)scale(0.15 -0.15)">
      <use xlink:href="#BMJUAOTF-44"/>
     </g>
    </g>
   </g>
   <g id="text_5">
    <g clip-path="url(#p0a70d134e6)">
     <!-- E -->
     <defs>
      <path d="M 17.703125 50.5 
L 37.703125 50.59375 
L 42.203125 50.59375 
C 43.203125 50.59375 44.09375 50.59375 45.09375 50.796875 
C 45.90625 50.90625 46.796875 51 47.59375 51.203125 
C 48.40625 51.5 49 51.90625 49.5 52.203125 
C 50.203125 52.90625 50.59375 53.5 50.703125 54.296875 
C 50.90625 54.90625 50.90625 55.703125 50.90625 56.5 
C 50.90625 57.5 50.59375 58.40625 50 59.296875 
C 49.296875 60.09375 48.296875 60.703125 47.203125 61 
C 45.796875 61.5 44.296875 61.90625 42.796875 61.90625 
C 41.296875 62 39.703125 62 38.203125 62.09375 
L 37.796875 62.09375 
C 32.703125 62.203125 28.09375 62.203125 22.796875 62.09375 
C 17.296875 62 17 62 12.203125 62 
L 12.203125 61.90625 
C 11.796875 62 11.5 62 11 62 
C 9.796875 62 8.90625 61.703125 7.90625 61.09375 
C 6.90625 60.59375 6.296875 59.703125 5.796875 58.703125 
C 5.203125 57.5 4.796875 56.203125 4.703125 54.796875 
C 4.703125 53.5 4.59375 52.203125 4.5 50.796875 
L 4.5 50.296875 
C 4.40625 45.90625 4.296875 42.59375 4.296875 37.796875 
L 4.296875 24.5 
L 4.09375 10.09375 
L 4.09375 2.296875 
C 4.09375 1.796875 4 1.203125 4 0.703125 
L 4 -0.90625 
C 4.09375 -1.59375 4.203125 -2.296875 4.296875 -2.90625 
C 4.296875 -3.59375 4.5 -4.296875 4.703125 -5 
C 4.796875 -5.203125 5 -5.40625 5.09375 -5.59375 
C 5.09375 -5.703125 5.203125 -6 5.40625 -6.203125 
C 5.796875 -7.09375 6.40625 -7.703125 7.09375 -8.09375 
C 8.203125 -8.796875 9.5 -9 10.90625 -8.90625 
C 15.09375 -8.90625 15.59375 -8.90625 20.796875 -9 
C 26.40625 -9.09375 31.796875 -9.09375 37 -9 
L 37.59375 -9 
C 39.09375 -8.90625 40.703125 -8.90625 42.203125 -8.796875 
C 43.90625 -8.796875 45.40625 -8.5 46.796875 -7.90625 
C 48 -7.59375 48.90625 -6.90625 49.59375 -6.09375 
C 50.296875 -5.203125 50.59375 -4.296875 50.59375 -3.203125 
C 50.703125 -2.40625 50.59375 -1.59375 50.5 -1 
C 50.296875 -0.203125 49.90625 0.40625 49.203125 1.09375 
C 48.703125 1.5 48 1.90625 47.203125 2.203125 
C 46.40625 2.40625 45.5 2.5 44.5 2.703125 
C 43.703125 2.796875 42.703125 2.796875 41.703125 2.796875 
L 37 2.796875 
L 17.09375 3 
L 17.296875 22.59375 
L 35.796875 22.703125 
L 40.5 22.703125 
C 41.5 22.703125 42.40625 22.796875 43.296875 23 
C 44.296875 23.09375 45.203125 23.296875 45.90625 23.5 
C 46.703125 23.703125 47.40625 24 47.796875 24.5 
C 48.59375 25.09375 49 25.796875 49.09375 26.5 
C 49.296875 27.203125 49.296875 28.09375 49.296875 28.796875 
C 49.296875 29.796875 49 30.796875 48.296875 31.703125 
C 47.59375 32.5 46.703125 33.09375 45.5 33.5 
C 44.09375 33.90625 42.59375 34.296875 41 34.40625 
C 39.5 34.40625 38 34.5 36.40625 34.5 
L 35.90625 34.5 
C 30.703125 34.59375 26.90625 34.59375 21.5 34.5 
L 17.5 34.5 
L 17.703125 50.203125 
z
" id="BMJUAOTF-45"/>
     </defs>
     <g transform="translate(337.938102 298.428372)scale(0.15 -0.15)">
      <use xlink:href="#BMJUAOTF-45"/>
     </g>
    </g>
   </g>
   <g id="text_6">
    <g clip-path="url(#p0a70d134e6)">
     <!-- F -->
     <defs>
      <path d="M 50.703125 59.203125 
C 50.09375 60 49.203125 60.59375 48.09375 60.90625 
C 46.703125 61.40625 45.203125 61.796875 43.703125 61.796875 
C 42.09375 61.90625 40.59375 61.90625 39.09375 62 
L 38.59375 62 
C 33.40625 62.09375 28.203125 62.09375 22.796875 62 
C 17.5 61.90625 17.09375 61.90625 12.40625 61.90625 
L 12.40625 61.796875 
C 11.90625 61.90625 11.5 61.90625 11.09375 61.90625 
C 10 61.90625 8.90625 61.59375 7.90625 61 
C 7 60.5 6.296875 59.59375 5.90625 58.59375 
C 5.296875 57.40625 5 56.09375 4.90625 54.703125 
C 4.703125 53.40625 4.703125 52.09375 4.59375 50.703125 
L 4.59375 50.203125 
C 4.40625 45.796875 4.296875 42.5 4.40625 37.703125 
C 4.40625 33.09375 4.40625 28.59375 4.296875 24.40625 
L 4.203125 10 
L 4.09375 2.203125 
L 4.09375 0.59375 
C 4 0 4 -0.40625 4.09375 -1 
C 4.203125 -1.703125 4.296875 -2.40625 4.296875 -3 
C 4.40625 -3.703125 4.5 -4.40625 4.90625 -5.09375 
L 5.203125 -5.703125 
C 5.203125 -5.796875 5.296875 -6.09375 5.40625 -6.296875 
C 5.796875 -7.203125 6.5 -7.796875 7.09375 -8.203125 
C 8.703125 -9 10.40625 -9.203125 12.203125 -8.796875 
C 13.296875 -8.59375 14.203125 -8.203125 14.90625 -7.703125 
C 15.40625 -7.296875 15.796875 -6.59375 16.203125 -5.796875 
C 16.5 -5.203125 16.703125 -4.40625 16.90625 -3.703125 
C 17 -3 17.09375 -2.40625 17.09375 -1.796875 
L 17.09375 -1 
L 17.40625 22.203125 
L 35.796875 22.296875 
L 40.40625 22.296875 
C 41.40625 22.296875 42.296875 22.40625 43.203125 22.5 
C 44.09375 22.59375 45 22.90625 45.703125 23.09375 
C 46.59375 23.296875 47.09375 23.59375 47.59375 24 
C 48.296875 24.703125 48.796875 25.40625 48.90625 26 
C 49.09375 26.796875 49.09375 27.5 49.09375 28.296875 
C 49.09375 29.296875 48.703125 30.203125 48 31 
C 47.40625 31.90625 46.5 32.5 45.40625 32.90625 
C 44 33.40625 42.5 33.59375 41 33.703125 
C 39.40625 33.703125 37.90625 33.796875 36.40625 33.796875 
L 35.796875 33.796875 
C 30.703125 33.90625 27 33.90625 21.703125 33.90625 
C 19.90625 33.796875 18.59375 33.796875 17.59375 33.796875 
L 17.703125 50.09375 
L 17.703125 50.40625 
L 38.59375 50.5 
L 43.09375 50.5 
C 44 50.5 45 50.5 45.796875 50.703125 
C 46.796875 50.796875 47.703125 50.90625 48.5 51.09375 
C 49.203125 51.40625 49.90625 51.796875 50.296875 52.09375 
C 51.09375 52.796875 51.5 53.40625 51.59375 54.203125 
C 51.703125 54.796875 51.796875 55.59375 51.796875 56.40625 
C 51.703125 57.40625 51.40625 58.296875 50.703125 59.203125 
z
" id="BMJUAOTF-46"/>
     </defs>
     <g transform="translate(246.93705 190.31952)scale(0.15 -0.15)">
      <use xlink:href="#BMJUAOTF-46"/>
     </g>
    </g>
   </g>
   <g id="text_7">
    <g clip-path="url(#p0a70d134e6)">
     <!-- G -->
     <defs>
      <path d="M 56.90625 15.203125 
L 56.90625 19.296875 
C 56.90625 20 56.796875 20.90625 56.703125 21.703125 
C 56.59375 22.5 56.40625 23.296875 56.203125 23.90625 
C 56 24.59375 55.5 25.09375 55.09375 25.59375 
C 54 26.5 51.796875 27 50.296875 26.90625 
L 41.203125 26.90625 
C 40.296875 26.90625 39.296875 26.90625 38.5 26.796875 
C 37.5 26.703125 36.703125 26.40625 35.90625 26.203125 
C 35.09375 26 34.40625 25.703125 34 25.40625 
C 33.40625 24.703125 32.90625 24 32.703125 23.40625 
C 32.59375 22.59375 32.5 21.90625 32.5 21.09375 
C 32.5 20.09375 32.796875 19.203125 33.5 18.40625 
C 34.09375 17.5 35 16.90625 36.203125 16.5 
C 37.5 16 39 15.703125 40.5 15.703125 
C 41.09375 15.703125 42.59375 15.59375 44.296875 15.59375 
L 44.296875 15.5 
C 44.296875 9.90625 42.703125 5.203125 35.5 3.40625 
C 30.40625 2.09375 24 4.703125 21.59375 8.90625 
C 20 11.90625 18.90625 15 18.203125 18.09375 
C 16.703125 25.796875 17.203125 35.40625 21.59375 42 
C 25.40625 48 33.40625 51.296875 39.90625 47.296875 
C 42.703125 45.59375 43.796875 42.90625 44.703125 39.796875 
C 46.40625 34.203125 55.09375 31.90625 56.296875 39.796875 
C 57.09375 44.296875 55.59375 49.796875 53.5 53.203125 
C 47.296875 62.59375 31.296875 64.203125 21 60 
C 9.703125 55.59375 5 41.09375 4.203125 30.90625 
C 3 13.90625 7.40625 -9.203125 31.40625 -10 
C 36.40625 -10.203125 43.703125 -9.203125 47.796875 -6.59375 
C 56 -1.40625 56.796875 7.296875 56.90625 15.203125 
z
" id="BMJUAOTF-47"/>
     </defs>
     <g transform="translate(115.950422 116.12387)scale(0.15 -0.15)">
      <use xlink:href="#BMJUAOTF-47"/>
     </g>
    </g>
   </g>
   <g id="text_8">
    <g clip-path="url(#p0a70d134e6)">
     <!-- H -->
     <defs>
      <path d="M 56.796875 57.296875 
C 56.5 58.09375 56.40625 58.796875 56.09375 59.59375 
C 55.90625 60.296875 55.59375 60.796875 55 61.203125 
C 54.40625 61.90625 53.5 62.296875 52.703125 62.40625 
C 52 62.5 51.09375 62.59375 50.09375 62.59375 
C 49 62.59375 47.90625 62.296875 47 61.796875 
C 46 61.09375 45.203125 60.40625 44.90625 59.40625 
C 44.203125 58.09375 43.90625 56.796875 43.796875 55.5 
C 43.703125 54.09375 43.59375 52.59375 43.59375 51.296875 
C 43.40625 45.296875 43.296875 40 43.296875 34.09375 
L 43.203125 34.09375 
C 35.703125 34.09375 28.90625 34.296875 22 34.296875 
C 20.09375 34.203125 18.796875 34.203125 17.703125 34.203125 
L 17.90625 50.703125 
L 17.90625 54.796875 
C 17.90625 55.59375 17.90625 56.40625 17.796875 57.296875 
C 17.703125 58.09375 17.5 58.796875 17.203125 59.59375 
C 17 60.296875 16.59375 60.796875 16.09375 61.203125 
C 15.40625 61.90625 14.703125 62.296875 13.796875 62.40625 
C 13 62.5 12.203125 62.59375 11.203125 62.59375 
C 10.09375 62.59375 9 62.296875 8 61.796875 
C 7.09375 61.09375 6.40625 60.40625 6 59.40625 
C 5.296875 58.09375 5 56.796875 4.90625 55.5 
C 4.796875 54.09375 4.796875 52.59375 4.703125 51.296875 
L 4.703125 50.90625 
C 4.5 46.296875 4.40625 43 4.5 38.203125 
C 4.5 33.40625 4.5 28.796875 4.40625 24.59375 
L 4.203125 9.90625 
L 4.09375 2 
L 4.09375 0.5 
C 4 -0.09375 4 -0.59375 4.09375 -1.203125 
C 4.203125 -1.90625 4.40625 -2.59375 4.40625 -3.203125 
C 4.5 -4 4.59375 -4.703125 4.90625 -5.40625 
L 5.203125 -6 
C 5.203125 -6.203125 5.296875 -6.40625 5.40625 -6.59375 
C 6 -7.5 6.5 -8.09375 7.296875 -8.59375 
C 8.796875 -9.296875 10.5 -9.5 12.40625 -9.09375 
C 13.5 -8.90625 14.40625 -8.59375 15 -8 
C 15.703125 -7.5 16.09375 -6.90625 16.40625 -6.203125 
C 16.703125 -5.40625 17 -4.703125 17.09375 -4 
C 17.296875 -3.203125 17.40625 -2.59375 17.40625 -2.203125 
L 17.40625 -1.203125 
L 17.59375 22.40625 
L 37.90625 22.5 
L 43.296875 22.5 
L 43.203125 9.90625 
L 43.09375 2 
C 43.09375 1.40625 43.09375 0.90625 42.90625 0.5 
C 42.90625 -0.09375 42.90625 -0.59375 43.09375 -1.203125 
C 43.203125 -1.90625 43.296875 -2.59375 43.296875 -3.203125 
C 43.40625 -4 43.5 -4.703125 43.796875 -5.40625 
C 43.90625 -5.59375 44 -5.796875 44 -6 
C 44.09375 -6.203125 44.203125 -6.40625 44.40625 -6.59375 
C 44.796875 -7.5 45.40625 -8.09375 46.203125 -8.59375 
C 47.703125 -9.296875 49.40625 -9.5 51.296875 -9.09375 
C 52.40625 -8.90625 53.296875 -8.59375 53.90625 -8 
C 54.59375 -7.5 55 -6.90625 55.296875 -6.203125 
C 55.59375 -5.40625 55.90625 -4.703125 56 -4 
C 56.203125 -3.203125 56.296875 -2.59375 56.296875 -2.203125 
L 56.296875 -1.203125 
L 56.90625 50.703125 
L 56.90625 54.796875 
C 56.90625 55.59375 56.90625 56.40625 56.796875 57.296875 
z
" id="BMJUAOTF-48"/>
     </defs>
     <g transform="translate(317.038294 352.189501)scale(0.15 -0.15)">
      <use xlink:href="#BMJUAOTF-48"/>
     </g>
    </g>
   </g>
   <g id="text_9">
    <g clip-path="url(#p0a70d134e6)">
     <!-- I -->
     <defs>
      <path d="M 7.09375 0.5 
C 7 -0.09375 7 -0.59375 7.09375 -1.203125 
C 7.203125 -1.90625 7.296875 -2.59375 7.40625 -3.203125 
C 7.40625 -4 7.59375 -4.703125 7.796875 -5.40625 
C 7.90625 -5.59375 8.09375 -5.796875 8.203125 -6 
C 8.203125 -6.203125 8.296875 -6.40625 8.5 -6.59375 
C 8.90625 -7.5 9.5 -8.09375 10.203125 -8.59375 
C 11.703125 -9.296875 13.5 -9.5 15.296875 -9.09375 
C 16.40625 -8.90625 17.296875 -8.59375 17.90625 -8 
C 18.59375 -7.5 19 -6.90625 19.40625 -6.203125 
C 19.703125 -5.40625 19.90625 -4.703125 20.09375 -4 
C 20.203125 -3.203125 20.296875 -2.59375 20.296875 -2.203125 
L 20.296875 -1.203125 
L 20.90625 50.703125 
L 20.90625 52.40625 
C 20.90625 53.203125 21 53.90625 21 54.796875 
C 21 55.59375 20.90625 56.40625 20.796875 57.296875 
C 20.703125 58.09375 20.40625 58.796875 20.203125 59.59375 
C 19.90625 60.296875 19.59375 60.796875 19.09375 61.203125 
C 18.40625 61.90625 17.59375 62.296875 16.796875 62.40625 
C 16 62.5 15.09375 62.59375 14.09375 62.59375 
C 13.09375 62.59375 12 62.296875 11 61.796875 
C 10 61.09375 9.40625 60.40625 8.90625 59.40625 
C 8.296875 58.09375 7.90625 56.796875 7.796875 55.5 
C 7.796875 54.09375 7.703125 52.59375 7.59375 51.296875 
L 7.59375 50.90625 
C 7.40625 46.296875 7.40625 43 7.40625 38.203125 
C 7.40625 33.40625 7.40625 28.796875 7.296875 24.59375 
L 7.203125 9.90625 
L 7.09375 2 
z
" id="BMJUAOTF-49"/>
     </defs>
     <g transform="translate(300.44191 194.584451)scale(0.15 -0.15)">
      <use xlink:href="#BMJUAOTF-49"/>
     </g>
    </g>
   </g>
   <g id="text_10">
    <g clip-path="url(#p0a70d134e6)">
     <!-- J -->
     <defs>
      <path d="M 57.90625 59.703125 
C 57.203125 60.59375 56.40625 61.09375 55.296875 61.40625 
C 54 61.90625 52.59375 62.203125 51 62.296875 
C 49.59375 62.296875 48.09375 62.40625 46.703125 62.40625 
L 46.09375 62.40625 
C 41.296875 62.5 36.203125 62.5 31 62.5 
C 29.703125 62.40625 28.59375 62.40625 27.796875 62.40625 
L 18.203125 62.40625 
C 17.203125 62.40625 16.203125 62.40625 15.296875 62.296875 
C 14.296875 62.203125 13.296875 62 12.40625 61.796875 
C 11.59375 61.59375 10.90625 61.203125 10.5 60.90625 
C 9.703125 60.296875 9.203125 59.59375 9.09375 58.90625 
C 8.90625 58.203125 8.90625 57.40625 8.90625 56.703125 
C 8.90625 55.703125 9.203125 53.90625 9.90625 53.203125 
C 10.59375 52.296875 11.59375 51.703125 12.796875 51.296875 
C 13.90625 51 14.90625 50.703125 16 50.59375 
L 16 50.5 
L 17.40625 50.5 
C 19.09375 50.40625 29.09375 50.40625 30.703125 50.203125 
L 31 50.203125 
C 31 50 31 49.796875 30.90625 49.59375 
L 30.90625 49.203125 
C 30.90625 42.203125 31.09375 35.40625 31 28.40625 
C 30.796875 20.5 33.5 -0.59375 17.203125 3.296875 
C 12.09375 4.5 9.5 12.203125 4.296875 9.203125 
C -1.59375 5.90625 1.796875 -1.203125 5.203125 -4.296875 
C 11.703125 -10.40625 24.703125 -11.09375 33.09375 -7.796875 
C 42.203125 -4.203125 44.40625 4.796875 45.09375 12.90625 
C 45.90625 24.796875 44.796875 37 44.90625 48.90625 
L 44.90625 50.59375 
L 50.59375 50.59375 
C 51.5 50.59375 52.296875 50.703125 53.203125 50.796875 
C 54.09375 50.90625 54.90625 51 55.703125 51.203125 
C 56.5 51.40625 57 51.796875 57.40625 52.203125 
C 58.203125 52.90625 58.59375 53.5 58.796875 54.203125 
C 58.90625 54.796875 59 56.296875 58.90625 57.09375 
C 58.90625 58.09375 58.5 58.90625 57.90625 59.703125 
z
" id="BMJUAOTF-4a"/>
     </defs>
     <g transform="translate(238.510489 351.270374)scale(0.15 -0.15)">
      <use xlink:href="#BMJUAOTF-4a"/>
     </g>
    </g>
   </g>
   <g id="text_11">
    <g clip-path="url(#p0a70d134e6)">
     <!-- K -->
     <defs>
      <path d="M 52.40625 -1.40625 
C 52 0 51.296875 1.203125 50.296875 2.296875 
C 49.5 3.40625 48.5 4.5 47.5 5.59375 
L 47.203125 5.90625 
C 44 9.59375 40.703125 13.296875 37.09375 17 
C 34.796875 19.40625 29.90625 24.40625 25.796875 28.5 
L 44.5 47.59375 
L 45.796875 48.90625 
C 46.296875 49.5 47 50 47.5 50.703125 
C 48.203125 51.296875 48.703125 52 49.296875 52.796875 
C 49.796875 53.40625 50.203125 54.203125 50.59375 54.796875 
C 50.90625 55.5 51 56.09375 51 56.796875 
C 50.90625 57.59375 50.59375 58.40625 50 58.90625 
C 49.59375 59.5 48.90625 60 48.203125 60.59375 
C 47.296875 61.203125 46.296875 61.703125 45.09375 61.796875 
C 43.90625 61.90625 42.796875 61.703125 41.796875 61.09375 
C 40.296875 60.59375 39 59.703125 38.09375 58.703125 
C 37 57.796875 35.90625 56.703125 34.796875 55.703125 
L 34.5 55.40625 
C 30.90625 52 27.40625 48.40625 23.796875 44.703125 
C 21.796875 42.5 19.703125 40.5 17.59375 38.59375 
L 17.5 50.796875 
L 17.5 54.90625 
C 17.5 55.796875 17.40625 56.59375 17.296875 57.40625 
C 17.203125 58.296875 17 59.09375 16.59375 59.703125 
C 16.40625 60.5 16 61 15.59375 61.40625 
C 14.796875 62.09375 14 62.40625 13.203125 62.5 
C 12.40625 62.59375 11.5 62.796875 10.59375 62.796875 
C 9.40625 62.59375 8.40625 62.40625 7.40625 61.796875 
C 6.40625 61.203125 5.703125 60.40625 5.296875 59.40625 
C 4.703125 58.09375 4.40625 56.796875 4.40625 55.40625 
C 4.296875 54.09375 4.296875 52.59375 4.09375 51.203125 
L 4.09375 50.796875 
C 4 46.203125 4 42.90625 4.09375 38.09375 
C 4.296875 33.203125 4.40625 28.59375 4.40625 24.296875 
L 4.5 9.59375 
L 4.59375 1.703125 
C 4.59375 1.09375 4.59375 0.59375 4.5 0 
C 4.5 -0.5 4.5 -1.09375 4.59375 -1.59375 
C 4.703125 -2.40625 4.796875 -3 4.90625 -3.796875 
C 4.90625 -4.40625 5.09375 -5.09375 5.5 -5.796875 
C 5.59375 -6.09375 5.703125 -6.296875 5.703125 -6.5 
C 5.796875 -6.59375 5.90625 -6.796875 6 -7 
C 6.5 -7.90625 7.09375 -8.59375 7.796875 -9 
C 9.5 -9.796875 11.09375 -10 13.09375 -9.40625 
C 14.09375 -9.296875 15 -8.90625 15.703125 -8.296875 
C 16.203125 -7.796875 16.796875 -7.296875 17 -6.5 
C 17.296875 -5.703125 17.5 -5 17.703125 -4.203125 
C 17.796875 -3.59375 18 -2.90625 18 -2.40625 
L 18 -1.5 
L 17.703125 18.59375 
L 36.90625 -1.5 
L 38.09375 -2.796875 
C 38.59375 -3.296875 39.203125 -4 39.796875 -4.703125 
C 40.296875 -5.296875 41 -5.796875 41.796875 -6.5 
C 42.40625 -7 43.203125 -7.5 43.90625 -7.90625 
C 44.59375 -8.296875 45.203125 -8.59375 46 -8.59375 
C 47 -8.703125 47.796875 -8.59375 48.59375 -8.203125 
C 49.40625 -7.90625 50 -7.40625 50.796875 -6.796875 
C 51.703125 -6.203125 52.203125 -5.40625 52.5 -4.40625 
C 53 -3.296875 52.90625 -2.40625 52.40625 -1.40625 
z
" id="BMJUAOTF-4b"/>
     </defs>
     <g transform="translate(181.864619 186.508977)scale(0.15 -0.15)">
      <use xlink:href="#BMJUAOTF-4b"/>
     </g>
    </g>
   </g>
   <g id="text_12">
    <g clip-path="url(#p0a70d134e6)">
     <!-- L -->
     <defs>
      <path d="M 50.203125 -1 
C 50 -0.296875 49.59375 0.296875 48.796875 1 
C 48.40625 1.40625 47.796875 1.796875 47 2 
C 46.203125 2.203125 45.40625 2.40625 44.40625 2.5 
C 43.5 2.59375 42.5 2.703125 41.703125 2.703125 
L 37 2.703125 
L 17.203125 2.90625 
L 17.59375 50 
L 17.59375 51.796875 
C 17.59375 52.5 17.59375 53.296875 17.796875 54.09375 
C 17.796875 54.90625 17.59375 55.703125 17.5 56.59375 
C 17.40625 57.40625 17.203125 58.203125 17 58.796875 
C 16.703125 59.5 16.296875 60.09375 15.90625 60.5 
C 15.09375 61.09375 14.40625 61.59375 13.59375 61.703125 
C 12.796875 61.796875 11.90625 61.90625 11 61.90625 
C 9.90625 61.90625 8.796875 61.59375 7.90625 61 
C 6.90625 60.40625 6.203125 59.59375 5.796875 58.59375 
C 5.09375 57.40625 4.796875 56.09375 4.703125 54.703125 
C 4.703125 53.40625 4.59375 52 4.5 50.703125 
L 4.5 50.203125 
C 4.40625 45.703125 4.296875 42.40625 4.296875 37.59375 
L 4.296875 24.203125 
L 4.09375 9.703125 
C 4.09375 5.40625 3.796875 1 4.296875 -3.5 
C 4.296875 -4.09375 4.5 -4.796875 4.703125 -5.40625 
C 6.796875 -11.09375 16 -9.5 21.203125 -9.703125 
C 26.703125 -9.796875 31.90625 -9.796875 37.09375 -9.703125 
L 37.5 -9.703125 
C 39.09375 -9.5 40.703125 -9.5 42.203125 -9.40625 
C 43.703125 -9.40625 45.203125 -9.09375 46.703125 -8.59375 
C 47.796875 -8.203125 48.59375 -7.703125 49.296875 -6.796875 
C 49.90625 -6 50.40625 -5 50.40625 -4 
C 50.40625 -3.203125 50.40625 -1.703125 50.203125 -1 
z
" id="BMJUAOTF-4c"/>
     </defs>
     <g transform="translate(92.852956 46.188102)scale(0.15 -0.15)">
      <use xlink:href="#BMJUAOTF-4c"/>
     </g>
    </g>
   </g>
   <g id="text_13">
    <g clip-path="url(#p0a70d134e6)">
     <!-- M -->
     <defs>
      <path d="M 64.90625 -1.40625 
C 65 0.703125 64.796875 2.90625 64.796875 4.796875 
C 64.796875 13.796875 64.703125 23.796875 64.703125 32.796875 
C 64.703125 40.203125 64.5 47.59375 64.5 55 
C 64.5 55.796875 64.40625 56.59375 64.296875 57.5 
C 64.203125 58.203125 64 59 63.796875 59.703125 
C 63.5 60.40625 63.09375 60.90625 62.59375 61.40625 
C 61.90625 62 61.203125 62.40625 60.296875 62.5 
C 59.5 62.59375 58.703125 62.703125 57.703125 62.703125 
C 53.40625 62.59375 49.203125 55.703125 47.296875 52.59375 
C 42.90625 45.296875 40.59375 41.796875 37.796875 37.5 
C 37.296875 36.5 35.59375 34 34.90625 33.203125 
C 32.5 36.5 29.90625 41.296875 26.40625 46.90625 
C 24.796875 49.5 21.90625 54.40625 19.796875 56.796875 
C 18.09375 58.59375 16.296875 62 13.59375 62.5 
C 12.796875 62.59375 11.90625 62.703125 11 62.703125 
C 9.90625 62.703125 8.796875 62.40625 7.796875 61.796875 
C 6.796875 61.203125 6.203125 60.40625 5.703125 59.40625 
C 5.203125 58.203125 4.796875 56.90625 4.796875 55.5 
C 4.40625 49.90625 4.203125 44.203125 4.203125 38.40625 
L 4.203125 25 
L 4.09375 9.59375 
L 4 1.796875 
C 4 0 4.09375 -1.796875 4.203125 -3.59375 
C 4.40625 -5.296875 5.296875 -7.59375 7 -8.703125 
C 12.5 -11.59375 17 -7.703125 17 -3.203125 
C 17.40625 -3.09375 17.5 38.90625 17.59375 39.40625 
C 21.90625 31.40625 26 26 29.203125 22 
C 30.40625 20.5 32.59375 18 34.796875 18.203125 
C 38.59375 18.5 40.90625 21.203125 51.296875 38.5 
C 51.5 34.09375 51.40625 33.796875 51.40625 33.40625 
C 51.5 28.703125 51.5 29.09375 51.5 24.796875 
L 51.59375 9.5 
L 51.59375 1.703125 
C 51.703125 -1.796875 51.203125 -6.5 54.90625 -8.796875 
C 56.40625 -9.5 58.09375 -9.796875 60 -9.203125 
C 61.09375 -9.09375 61.90625 -8.703125 62.59375 -8.09375 
C 63.09375 -7.703125 63.59375 -7 63.90625 -6.296875 
C 64.5 -4.796875 64.796875 -3 64.90625 -1.40625 
z
" id="BMJUAOTF-4d"/>
     </defs>
     <g transform="translate(144.076221 85.198895)scale(0.15 -0.15)">
      <use xlink:href="#BMJUAOTF-4d"/>
     </g>
    </g>
   </g>
   <g id="text_14">
    <g clip-path="url(#p0a70d134e6)">
     <!-- N -->
     <defs>
      <path d="M 58.40625 -1 
C 58.5 0.90625 58.296875 2.59375 58.296875 4.5 
C 58.203125 21.09375 58.09375 38.90625 58.09375 55.5 
C 58.09375 56.40625 58 57.09375 57.796875 58 
C 57.703125 58.796875 57.5 59.5 57.203125 60.296875 
C 57 60.90625 56.5 61.5 56.09375 61.90625 
C 53.203125 64.40625 47.40625 63.296875 46.09375 59.90625 
C 45.5 58.59375 45.09375 57.296875 45.09375 56 
C 44.796875 50.40625 44.796875 43.59375 44.796875 38 
C 44.90625 33.203125 45 28.703125 45 24.5 
L 45 17.90625 
L 21.90625 54.296875 
L 20.796875 55.90625 
C 20.296875 56.59375 19.90625 57.203125 19.5 58 
C 19 58.59375 18.5 59.40625 17.796875 60.09375 
C 17.296875 60.703125 16.59375 61.296875 16 61.796875 
C 15.296875 62.203125 14.703125 62.59375 14 62.796875 
C 12.296875 63.203125 9.59375 62.90625 8.09375 62 
C 7.09375 61.40625 6.296875 60.59375 6 59.59375 
C 5.296875 58.40625 5 57.09375 4.90625 55.703125 
C 4.59375 50.203125 4.40625 43.296875 4.5 37.59375 
C 4.5 32.90625 4.5 28.40625 4.40625 24.203125 
L 4.296875 9.703125 
L 4.09375 1.90625 
L 4.09375 0.203125 
C 3.703125 -4.5 5.703125 -10.40625 12.296875 -9.203125 
C 13.40625 -9 14.296875 -8.59375 14.90625 -8.09375 
C 16.59375 -6.59375 17.296875 -4.40625 17.296875 -2.296875 
L 17.296875 -1.40625 
L 17.59375 36.796875 
C 20.296875 32.90625 22.796875 28.09375 25.09375 24.5 
L 33.5 11.796875 
C 37.40625 5.90625 41 -0.296875 45.5 -5.796875 
C 47.59375 -8.59375 52.796875 -10.296875 56 -7.703125 
C 58.09375 -6.09375 58.296875 -3.203125 58.40625 -1 
z
" id="BMJUAOTF-4e"/>
     </defs>
     <g transform="translate(65.827104 103.47806)scale(0.15 -0.15)">
      <use xlink:href="#BMJUAOTF-4e"/>
     </g>
    </g>
   </g>
   <g id="text_15">
    <g clip-path="url(#p0a70d134e6)">
     <!-- O -->
     <defs>
      <path d="M 21.703125 59.796875 
C 10.5 55.59375 4.90625 41.796875 4.203125 32 
C 3.40625 21.40625 5.59375 7.59375 13.796875 -0.40625 
C 20.59375 -7 30.40625 -9.203125 39 -7.203125 
C 45.203125 -5.796875 50.796875 -2.09375 54.09375 3.59375 
C 55.5 6.09375 56.59375 8.59375 57.40625 11.59375 
C 60.203125 20.796875 59.796875 33.296875 55.90625 43.5 
C 50.796875 57 39.59375 66.59375 21.703125 59.796875 
z
M 45.09375 17 
C 44.703125 15.203125 44.09375 13.5 43.296875 12 
C 41.40625 8 38.59375 5.5 34.90625 4.703125 
C 30.40625 3.703125 25.40625 5.203125 22 9.203125 
C 17.59375 14.5 16.703125 23.40625 17.203125 30.296875 
C 17.59375 36.703125 19.703125 44.796875 25.59375 47.59375 
C 35.59375 52.296875 41.296875 47.296875 44.203125 38.703125 
C 46.5 31.796875 46.703125 23.203125 45.09375 17 
z
" id="BMJUAOTF-4f"/>
     </defs>
     <g transform="translate(106.144555 168.444242)scale(0.15 -0.15)">
      <use xlink:href="#BMJUAOTF-4f"/>
     </g>
    </g>
   </g>
  </g>
  <g id="axes_2">
   <g id="LineCollection_2">
    <path clip-path="url(#p448a4ccb0e)" d="M 624.499021 270.686685 
L 624.499021 270.686685 
" style="fill:none;stroke:#d6d6d6;stroke-width:3;"/>
    <path clip-path="url(#p448a4ccb0e)" d="M 624.499021 270.686685 
L 565.814845 278.382893 
" style="fill:none;stroke:#424242;stroke-width:3;"/>
    <path clip-path="url(#p448a4ccb0e)" d="M 624.499021 270.686685 
L 634.17455 374.524398 
" style="fill:none;stroke:#909090;stroke-width:3;"/>
    <path clip-path="url(#p448a4ccb0e)" d="M 624.499021 270.686685 
L 686.56131 234.387078 
" style="fill:none;stroke:#909090;stroke-width:3;"/>
    <path clip-path="url(#p448a4ccb0e)" d="M 624.499021 270.686685 
L 692.418571 296.215872 
" style="fill:none;stroke:#808080;stroke-width:3;"/>
    <path clip-path="url(#p448a4ccb0e)" d="M 624.499021 270.686685 
L 601.380019 188.10702 
" style="fill:none;stroke:#424242;stroke-width:3;"/>
    <path clip-path="url(#p448a4ccb0e)" d="M 624.499021 270.686685 
L 671.968763 349.977001 
" style="fill:none;stroke:#808080;stroke-width:3;"/>
    <path clip-path="url(#p448a4ccb0e)" d="M 624.499021 270.686685 
L 652.90441 192.371951 
" style="fill:none;stroke:#ababab;stroke-width:3;"/>
    <path clip-path="url(#p448a4ccb0e)" d="M 624.499021 270.686685 
L 593.553458 349.057874 
" style="fill:none;stroke:#ababab;stroke-width:3;"/>
    <path clip-path="url(#p448a4ccb0e)" d="M 565.814845 278.382893 
L 593.553458 349.057874 
" style="fill:none;stroke:#8c8c8c;stroke-width:3;"/>
    <path clip-path="url(#p448a4ccb0e)" d="M 565.814845 278.382893 
L 536.495087 184.296477 
" style="fill:none;stroke:#000000;stroke-width:3;"/>
    <path clip-path="url(#p448a4ccb0e)" d="M 634.17455 374.524398 
L 593.553458 349.057874 
" style="fill:none;stroke:#b7b7b7;stroke-width:3;"/>
    <path clip-path="url(#p448a4ccb0e)" d="M 634.17455 374.524398 
L 671.968763 349.977001 
" style="fill:none;stroke:#c7c7c7;stroke-width:3;"/>
    <path clip-path="url(#p448a4ccb0e)" d="M 686.56131 234.387078 
L 692.418571 296.215872 
" style="fill:none;stroke:#c7c7c7;stroke-width:3;"/>
    <path clip-path="url(#p448a4ccb0e)" d="M 686.56131 234.387078 
L 652.90441 192.371951 
" style="fill:none;stroke:#b7b7b7;stroke-width:3;"/>
    <path clip-path="url(#p448a4ccb0e)" d="M 692.418571 296.215872 
L 671.968763 349.977001 
" style="fill:none;stroke:#c7c7c7;stroke-width:3;"/>
    <path clip-path="url(#p448a4ccb0e)" d="M 601.380019 188.10702 
L 652.90441 192.371951 
" style="fill:none;stroke:#8c8c8c;stroke-width:3;"/>
    <path clip-path="url(#p448a4ccb0e)" d="M 601.380019 188.10702 
L 536.495087 184.296477 
" style="fill:none;stroke:#000000;stroke-width:3;"/>
    <path clip-path="url(#p448a4ccb0e)" d="M 470.880891 113.91137 
L 447.295924 43.975602 
" style="fill:none;stroke:#a4a4a4;stroke-width:3;"/>
    <path clip-path="url(#p448a4ccb0e)" d="M 470.880891 113.91137 
L 499.613721 82.986395 
" style="fill:none;stroke:#c7c7c7;stroke-width:3;"/>
    <path clip-path="url(#p448a4ccb0e)" d="M 470.880891 113.91137 
L 420.877104 101.26556 
" style="fill:none;stroke:#a4a4a4;stroke-width:3;"/>
    <path clip-path="url(#p448a4ccb0e)" d="M 470.880891 113.91137 
L 461.25432 166.231742 
" style="fill:none;stroke:#c7c7c7;stroke-width:3;"/>
    <path clip-path="url(#p448a4ccb0e)" d="M 470.880891 113.91137 
L 536.495087 184.296477 
" style="fill:none;stroke:#3a3a3a;stroke-width:3;"/>
    <path clip-path="url(#p448a4ccb0e)" d="M 536.495087 184.296477 
L 461.25432 166.231742 
" style="fill:none;stroke:#5d5d5d;stroke-width:3;"/>
    <path clip-path="url(#p448a4ccb0e)" d="M 536.495087 184.296477 
L 499.613721 82.986395 
" style="fill:none;stroke:#5d5d5d;stroke-width:3;"/>
    <path clip-path="url(#p448a4ccb0e)" d="M 447.295924 43.975602 
L 420.877104 101.26556 
" style="fill:none;stroke:#c7c7c7;stroke-width:3;"/>
    <path clip-path="url(#p448a4ccb0e)" d="M 447.295924 43.975602 
L 499.613721 82.986395 
" style="fill:none;stroke:#a4a4a4;stroke-width:3;"/>
    <path clip-path="url(#p448a4ccb0e)" d="M 420.877104 101.26556 
L 461.25432 166.231742 
" style="fill:none;stroke:#a4a4a4;stroke-width:3;"/>
   </g>
   <g id="PathCollection_2">
    <g clip-path="url(#p448a4ccb0e)">
     <use style="fill:#ffc0cb;stroke:#ffc0cb;" x="624.499021" xlink:href="#mbe659d55fe" y="270.686685"/>
     <use style="fill:#ffc0cb;stroke:#ffc0cb;" x="565.814845" xlink:href="#mbe659d55fe" y="278.382893"/>
     <use style="fill:#ffc0cb;stroke:#ffc0cb;" x="634.17455" xlink:href="#mbe659d55fe" y="374.524398"/>
     <use style="fill:#ffc0cb;stroke:#ffc0cb;" x="686.56131" xlink:href="#mbe659d55fe" y="234.387078"/>
     <use style="fill:#ffc0cb;stroke:#ffc0cb;" x="692.418571" xlink:href="#mbe659d55fe" y="296.215872"/>
     <use style="fill:#ffc0cb;stroke:#ffc0cb;" x="601.380019" xlink:href="#mbe659d55fe" y="188.10702"/>
     <use style="fill:#ffc0cb;stroke:#ffc0cb;" x="470.880891" xlink:href="#mbe659d55fe" y="113.91137"/>
     <use style="fill:#ffc0cb;stroke:#ffc0cb;" x="671.968763" xlink:href="#mbe659d55fe" y="349.977001"/>
     <use style="fill:#ffc0cb;stroke:#ffc0cb;" x="652.90441" xlink:href="#mbe659d55fe" y="192.371951"/>
     <use style="fill:#ffc0cb;stroke:#ffc0cb;" x="593.553458" xlink:href="#mbe659d55fe" y="349.057874"/>
     <use style="fill:#ffc0cb;stroke:#ffc0cb;" x="536.495087" xlink:href="#mbe659d55fe" y="184.296477"/>
     <use style="fill:#ffc0cb;stroke:#ffc0cb;" x="447.295924" xlink:href="#mbe659d55fe" y="43.975602"/>
     <use style="fill:#ffc0cb;stroke:#ffc0cb;" x="499.613721" xlink:href="#mbe659d55fe" y="82.986395"/>
     <use style="fill:#ffc0cb;stroke:#ffc0cb;" x="420.877104" xlink:href="#mbe659d55fe" y="101.26556"/>
     <use style="fill:#ffc0cb;stroke:#ffc0cb;" x="461.25432" xlink:href="#mbe659d55fe" y="166.231742"/>
    </g>
   </g>
   <g id="text_16">
    <g clip-path="url(#p448a4ccb0e)">
     <!-- A -->
     <g transform="translate(619.256052 272.899185)scale(0.15 -0.15)">
      <use xlink:href="#BMJUAOTF-41"/>
     </g>
    </g>
   </g>
   <g id="text_17">
    <g clip-path="url(#p448a4ccb0e)">
     <!-- B -->
     <g transform="translate(561.637111 280.595393)scale(0.15 -0.15)">
      <use xlink:href="#BMJUAOTF-42"/>
     </g>
    </g>
   </g>
   <g id="text_18">
    <g clip-path="url(#p448a4ccb0e)">
     <!-- C -->
     <g transform="translate(629.539785 376.736898)scale(0.15 -0.15)">
      <use xlink:href="#BMJUAOTF-43"/>
     </g>
    </g>
   </g>
   <g id="text_19">
    <g clip-path="url(#p448a4ccb0e)">
     <!-- D -->
     <g transform="translate(682.001544 236.599578)scale(0.15 -0.15)">
      <use xlink:href="#BMJUAOTF-44"/>
     </g>
    </g>
   </g>
   <g id="text_20">
    <g clip-path="url(#p448a4ccb0e)">
     <!-- E -->
     <g transform="translate(688.300602 298.428372)scale(0.15 -0.15)">
      <use xlink:href="#BMJUAOTF-45"/>
     </g>
    </g>
   </g>
   <g id="text_21">
    <g clip-path="url(#p448a4ccb0e)">
     <!-- F -->
     <g transform="translate(597.29955 190.31952)scale(0.15 -0.15)">
      <use xlink:href="#BMJUAOTF-46"/>
     </g>
    </g>
   </g>
   <g id="text_22">
    <g clip-path="url(#p448a4ccb0e)">
     <!-- G -->
     <g transform="translate(466.312922 116.12387)scale(0.15 -0.15)">
      <use xlink:href="#BMJUAOTF-47"/>
     </g>
    </g>
   </g>
   <g id="text_23">
    <g clip-path="url(#p448a4ccb0e)">
     <!-- H -->
     <g transform="translate(667.400794 352.189501)scale(0.15 -0.15)">
      <use xlink:href="#BMJUAOTF-48"/>
     </g>
    </g>
   </g>
   <g id="text_24">
    <g clip-path="url(#p448a4ccb0e)">
     <!-- I -->
     <g transform="translate(650.80441 194.584451)scale(0.15 -0.15)">
      <use xlink:href="#BMJUAOTF-49"/>
     </g>
    </g>
   </g>
   <g id="text_25">
    <g clip-path="url(#p448a4ccb0e)">
     <!-- J -->
     <g transform="translate(588.872989 351.270374)scale(0.15 -0.15)">
      <use xlink:href="#BMJUAOTF-4a"/>
     </g>
    </g>
   </g>
   <g id="text_26">
    <g clip-path="url(#p448a4ccb0e)">
     <!-- K -->
     <g transform="translate(532.227119 186.508977)scale(0.15 -0.15)">
      <use xlink:href="#BMJUAOTF-4b"/>
     </g>
    </g>
   </g>
   <g id="text_27">
    <g clip-path="url(#p448a4ccb0e)">
     <!-- L -->
     <g transform="translate(443.215456 46.188102)scale(0.15 -0.15)">
      <use xlink:href="#BMJUAOTF-4c"/>
     </g>
    </g>
   </g>
   <g id="text_28">
    <g clip-path="url(#p448a4ccb0e)">
     <!-- M -->
     <g transform="translate(494.438721 85.198895)scale(0.15 -0.15)">
      <use xlink:href="#BMJUAOTF-4d"/>
     </g>
    </g>
   </g>
   <g id="text_29">
    <g clip-path="url(#p448a4ccb0e)">
     <!-- N -->
     <g transform="translate(416.189604 103.47806)scale(0.15 -0.15)">
      <use xlink:href="#BMJUAOTF-4e"/>
     </g>
    </g>
   </g>
   <g id="text_30">
    <g clip-path="url(#p448a4ccb0e)">
     <!-- O -->
     <g transform="translate(456.507055 168.444242)scale(0.15 -0.15)">
      <use xlink:href="#BMJUAOTF-4f"/>
     </g>
    </g>
   </g>
  </g>
  <g id="axes_3">
   <g id="LineCollection_3">
    <path clip-path="url(#p02ac88dd84)" d="M 974.861521 270.686685 
L 974.861521 270.686685 
" style="fill:none;stroke:#e9e9e9;stroke-width:3;"/>
    <path clip-path="url(#p02ac88dd84)" d="M 974.861521 270.686685 
L 916.177345 278.382893 
" style="fill:none;stroke:#b3b3b3;stroke-width:3;"/>
    <path clip-path="url(#p02ac88dd84)" d="M 974.861521 270.686685 
L 984.53705 374.524398 
" style="fill:none;stroke:#b9b9b9;stroke-width:3;"/>
    <path clip-path="url(#p02ac88dd84)" d="M 974.861521 270.686685 
L 1036.92381 234.387078 
" style="fill:none;stroke:#c6c6c6;stroke-width:3;"/>
    <path clip-path="url(#p02ac88dd84)" d="M 974.861521 270.686685 
L 1042.781071 296.215872 
" style="fill:none;stroke:#b9b9b9;stroke-width:3;"/>
    <path clip-path="url(#p02ac88dd84)" d="M 974.861521 270.686685 
L 951.742519 188.10702 
" style="fill:none;stroke:#242424;stroke-width:3;"/>
    <path clip-path="url(#p02ac88dd84)" d="M 974.861521 270.686685 
L 1022.331263 349.977001 
" style="fill:none;stroke:#b9b9b9;stroke-width:3;"/>
    <path clip-path="url(#p02ac88dd84)" d="M 974.861521 270.686685 
L 1003.26691 192.371951 
" style="fill:none;stroke:#d1d1d1;stroke-width:3;"/>
    <path clip-path="url(#p02ac88dd84)" d="M 974.861521 270.686685 
L 943.915958 349.057874 
" style="fill:none;stroke:#b7b7b7;stroke-width:3;"/>
    <path clip-path="url(#p02ac88dd84)" d="M 916.177345 278.382893 
L 943.915958 349.057874 
" style="fill:none;stroke:#e2e2e2;stroke-width:3;"/>
    <path clip-path="url(#p02ac88dd84)" d="M 984.53705 374.524398 
L 943.915958 349.057874 
" style="fill:none;stroke:#e0e0e0;stroke-width:3;"/>
    <path clip-path="url(#p02ac88dd84)" d="M 984.53705 374.524398 
L 1022.331263 349.977001 
" style="fill:none;stroke:#e0e0e0;stroke-width:3;"/>
    <path clip-path="url(#p02ac88dd84)" d="M 1036.92381 234.387078 
L 1042.781071 296.215872 
" style="fill:none;stroke:#e0e0e0;stroke-width:3;"/>
    <path clip-path="url(#p02ac88dd84)" d="M 1036.92381 234.387078 
L 1003.26691 192.371951 
" style="fill:none;stroke:#d3d3d3;stroke-width:3;"/>
    <path clip-path="url(#p02ac88dd84)" d="M 1042.781071 296.215872 
L 1022.331263 349.977001 
" style="fill:none;stroke:#e0e0e0;stroke-width:3;"/>
    <path clip-path="url(#p02ac88dd84)" d="M 951.742519 188.10702 
L 1003.26691 192.371951 
" style="fill:none;stroke:#bbbbbb;stroke-width:3;"/>
    <path clip-path="url(#p02ac88dd84)" d="M 951.742519 188.10702 
L 886.857587 184.296477 
" style="fill:none;stroke:#000000;stroke-width:3;"/>
    <path clip-path="url(#p02ac88dd84)" d="M 821.243391 113.91137 
L 797.658424 43.975602 
" style="fill:none;stroke:#cdcdcd;stroke-width:3;"/>
    <path clip-path="url(#p02ac88dd84)" d="M 821.243391 113.91137 
L 849.976221 82.986395 
" style="fill:none;stroke:#e0e0e0;stroke-width:3;"/>
    <path clip-path="url(#p02ac88dd84)" d="M 821.243391 113.91137 
L 771.239604 101.26556 
" style="fill:none;stroke:#cdcdcd;stroke-width:3;"/>
    <path clip-path="url(#p02ac88dd84)" d="M 821.243391 113.91137 
L 811.61682 166.231742 
" style="fill:none;stroke:#e0e0e0;stroke-width:3;"/>
    <path clip-path="url(#p02ac88dd84)" d="M 821.243391 113.91137 
L 886.857587 184.296477 
" style="fill:none;stroke:#929292;stroke-width:3;"/>
    <path clip-path="url(#p02ac88dd84)" d="M 886.857587 184.296477 
L 811.61682 166.231742 
" style="fill:none;stroke:#a6a6a6;stroke-width:3;"/>
    <path clip-path="url(#p02ac88dd84)" d="M 886.857587 184.296477 
L 849.976221 82.986395 
" style="fill:none;stroke:#a6a6a6;stroke-width:3;"/>
    <path clip-path="url(#p02ac88dd84)" d="M 797.658424 43.975602 
L 771.239604 101.26556 
" style="fill:none;stroke:#e0e0e0;stroke-width:3;"/>
    <path clip-path="url(#p02ac88dd84)" d="M 797.658424 43.975602 
L 849.976221 82.986395 
" style="fill:none;stroke:#cdcdcd;stroke-width:3;"/>
    <path clip-path="url(#p02ac88dd84)" d="M 771.239604 101.26556 
L 811.61682 166.231742 
" style="fill:none;stroke:#cdcdcd;stroke-width:3;"/>
   </g>
   <g id="PathCollection_3">
    <g clip-path="url(#p02ac88dd84)">
     <use style="fill:#ffc0cb;stroke:#ffc0cb;" x="974.861521" xlink:href="#mbe659d55fe" y="270.686685"/>
     <use style="fill:#ffc0cb;stroke:#ffc0cb;" x="916.177345" xlink:href="#mbe659d55fe" y="278.382893"/>
     <use style="fill:#ffc0cb;stroke:#ffc0cb;" x="984.53705" xlink:href="#mbe659d55fe" y="374.524398"/>
     <use style="fill:#ffc0cb;stroke:#ffc0cb;" x="1036.92381" xlink:href="#mbe659d55fe" y="234.387078"/>
     <use style="fill:#ffc0cb;stroke:#ffc0cb;" x="1042.781071" xlink:href="#mbe659d55fe" y="296.215872"/>
     <use style="fill:#ffc0cb;stroke:#ffc0cb;" x="951.742519" xlink:href="#mbe659d55fe" y="188.10702"/>
     <use style="fill:#ffc0cb;stroke:#ffc0cb;" x="821.243391" xlink:href="#mbe659d55fe" y="113.91137"/>
     <use style="fill:#ffc0cb;stroke:#ffc0cb;" x="1022.331263" xlink:href="#mbe659d55fe" y="349.977001"/>
     <use style="fill:#ffc0cb;stroke:#ffc0cb;" x="1003.26691" xlink:href="#mbe659d55fe" y="192.371951"/>
     <use style="fill:#ffc0cb;stroke:#ffc0cb;" x="943.915958" xlink:href="#mbe659d55fe" y="349.057874"/>
     <use style="fill:#ffc0cb;stroke:#ffc0cb;" x="886.857587" xlink:href="#mbe659d55fe" y="184.296477"/>
     <use style="fill:#ffc0cb;stroke:#ffc0cb;" x="797.658424" xlink:href="#mbe659d55fe" y="43.975602"/>
     <use style="fill:#ffc0cb;stroke:#ffc0cb;" x="849.976221" xlink:href="#mbe659d55fe" y="82.986395"/>
     <use style="fill:#ffc0cb;stroke:#ffc0cb;" x="771.239604" xlink:href="#mbe659d55fe" y="101.26556"/>
     <use style="fill:#ffc0cb;stroke:#ffc0cb;" x="811.61682" xlink:href="#mbe659d55fe" y="166.231742"/>
    </g>
   </g>
   <g id="text_31">
    <g clip-path="url(#p02ac88dd84)">
     <!-- A -->
     <g transform="translate(969.618552 272.899185)scale(0.15 -0.15)">
      <use xlink:href="#BMJUAOTF-41"/>
     </g>
    </g>
   </g>
   <g id="text_32">
    <g clip-path="url(#p02ac88dd84)">
     <!-- B -->
     <g transform="translate(911.999611 280.595393)scale(0.15 -0.15)">
      <use xlink:href="#BMJUAOTF-42"/>
     </g>
    </g>
   </g>
   <g id="text_33">
    <g clip-path="url(#p02ac88dd84)">
     <!-- C -->
     <g transform="translate(979.902285 376.736898)scale(0.15 -0.15)">
      <use xlink:href="#BMJUAOTF-43"/>
     </g>
    </g>
   </g>
   <g id="text_34">
    <g clip-path="url(#p02ac88dd84)">
     <!-- D -->
     <g transform="translate(1032.364044 236.599578)scale(0.15 -0.15)">
      <use xlink:href="#BMJUAOTF-44"/>
     </g>
    </g>
   </g>
   <g id="text_35">
    <g clip-path="url(#p02ac88dd84)">
     <!-- E -->
     <g transform="translate(1038.663102 298.428372)scale(0.15 -0.15)">
      <use xlink:href="#BMJUAOTF-45"/>
     </g>
    </g>
   </g>
   <g id="text_36">
    <g clip-path="url(#p02ac88dd84)">
     <!-- F -->
     <g transform="translate(947.66205 190.31952)scale(0.15 -0.15)">
      <use xlink:href="#BMJUAOTF-46"/>
     </g>
    </g>
   </g>
   <g id="text_37">
    <g clip-path="url(#p02ac88dd84)">
     <!-- G -->
     <g transform="translate(816.675422 116.12387)scale(0.15 -0.15)">
      <use xlink:href="#BMJUAOTF-47"/>
     </g>
    </g>
   </g>
   <g id="text_38">
    <g clip-path="url(#p02ac88dd84)">
     <!-- H -->
     <g transform="translate(1017.763294 352.189501)scale(0.15 -0.15)">
      <use xlink:href="#BMJUAOTF-48"/>
     </g>
    </g>
   </g>
   <g id="text_39">
    <g clip-path="url(#p02ac88dd84)">
     <!-- I -->
     <g transform="translate(1001.16691 194.584451)scale(0.15 -0.15)">
      <use xlink:href="#BMJUAOTF-49"/>
     </g>
    </g>
   </g>
   <g id="text_40">
    <g clip-path="url(#p02ac88dd84)">
     <!-- J -->
     <g transform="translate(939.235489 351.270374)scale(0.15 -0.15)">
      <use xlink:href="#BMJUAOTF-4a"/>
     </g>
    </g>
   </g>
   <g id="text_41">
    <g clip-path="url(#p02ac88dd84)">
     <!-- K -->
     <g transform="translate(882.589619 186.508977)scale(0.15 -0.15)">
      <use xlink:href="#BMJUAOTF-4b"/>
     </g>
    </g>
   </g>
   <g id="text_42">
    <g clip-path="url(#p02ac88dd84)">
     <!-- L -->
     <g transform="translate(793.577956 46.188102)scale(0.15 -0.15)">
      <use xlink:href="#BMJUAOTF-4c"/>
     </g>
    </g>
   </g>
   <g id="text_43">
    <g clip-path="url(#p02ac88dd84)">
     <!-- M -->
     <g transform="translate(844.801221 85.198895)scale(0.15 -0.15)">
      <use xlink:href="#BMJUAOTF-4d"/>
     </g>
    </g>
   </g>
   <g id="text_44">
    <g clip-path="url(#p02ac88dd84)">
     <!-- N -->
     <g transform="translate(766.552104 103.47806)scale(0.15 -0.15)">
      <use xlink:href="#BMJUAOTF-4e"/>
     </g>
    </g>
   </g>
   <g id="text_45">
    <g clip-path="url(#p02ac88dd84)">
     <!-- O -->
     <g transform="translate(806.869555 168.444242)scale(0.15 -0.15)">
      <use xlink:href="#BMJUAOTF-4f"/>
     </g>
    </g>
   </g>
  </g>
  <g id="axes_4">
   <g id="LineCollection_4">
    <path clip-path="url(#p242a5cfd10)" d="M 1325.224021 270.686685 
L 1325.224021 270.686685 
" style="fill:none;stroke:#8d8d8d;stroke-width:3;"/>
    <path clip-path="url(#p242a5cfd10)" d="M 1325.224021 270.686685 
L 1266.539845 278.382893 
" style="fill:none;stroke:#000000;stroke-width:3;"/>
    <path clip-path="url(#p242a5cfd10)" d="M 1325.224021 270.686685 
L 1334.89955 374.524398 
" style="fill:none;stroke:#202020;stroke-width:3;"/>
    <path clip-path="url(#p242a5cfd10)" d="M 1325.224021 270.686685 
L 1387.28631 234.387078 
" style="fill:none;stroke:#202020;stroke-width:3;"/>
    <path clip-path="url(#p242a5cfd10)" d="M 1325.224021 270.686685 
L 1393.143571 296.215872 
" style="fill:none;stroke:#202020;stroke-width:3;"/>
    <path clip-path="url(#p242a5cfd10)" d="M 1325.224021 270.686685 
L 1302.105019 188.10702 
" style="fill:none;stroke:#000000;stroke-width:3;"/>
    <path clip-path="url(#p242a5cfd10)" d="M 1325.224021 270.686685 
L 1372.693763 349.977001 
" style="fill:none;stroke:#202020;stroke-width:3;"/>
    <path clip-path="url(#p242a5cfd10)" d="M 1325.224021 270.686685 
L 1353.62941 192.371951 
" style="fill:none;stroke:#151515;stroke-width:3;"/>
    <path clip-path="url(#p242a5cfd10)" d="M 1325.224021 270.686685 
L 1294.278458 349.057874 
" style="fill:none;stroke:#151515;stroke-width:3;"/>
    <path clip-path="url(#p242a5cfd10)" d="M 1266.539845 278.382893 
L 1294.278458 349.057874 
" style="fill:none;stroke:#6c6c6c;stroke-width:3;"/>
    <path clip-path="url(#p242a5cfd10)" d="M 1334.89955 374.524398 
L 1294.278458 349.057874 
" style="fill:none;stroke:#626262;stroke-width:3;"/>
    <path clip-path="url(#p242a5cfd10)" d="M 1334.89955 374.524398 
L 1372.693763 349.977001 
" style="fill:none;stroke:#626262;stroke-width:3;"/>
    <path clip-path="url(#p242a5cfd10)" d="M 1387.28631 234.387078 
L 1393.143571 296.215872 
" style="fill:none;stroke:#626262;stroke-width:3;"/>
    <path clip-path="url(#p242a5cfd10)" d="M 1387.28631 234.387078 
L 1353.62941 192.371951 
" style="fill:none;stroke:#626262;stroke-width:3;"/>
    <path clip-path="url(#p242a5cfd10)" d="M 1393.143571 296.215872 
L 1372.693763 349.977001 
" style="fill:none;stroke:#626262;stroke-width:3;"/>
    <path clip-path="url(#p242a5cfd10)" d="M 1302.105019 188.10702 
L 1353.62941 192.371951 
" style="fill:none;stroke:#6c6c6c;stroke-width:3;"/>
    <path clip-path="url(#p242a5cfd10)" d="M 1171.605891 113.91137 
L 1148.020924 43.975602 
" style="fill:none;stroke:#626262;stroke-width:3;"/>
    <path clip-path="url(#p242a5cfd10)" d="M 1171.605891 113.91137 
L 1200.338721 82.986395 
" style="fill:none;stroke:#626262;stroke-width:3;"/>
    <path clip-path="url(#p242a5cfd10)" d="M 1171.605891 113.91137 
L 1121.602104 101.26556 
" style="fill:none;stroke:#626262;stroke-width:3;"/>
    <path clip-path="url(#p242a5cfd10)" d="M 1171.605891 113.91137 
L 1161.97932 166.231742 
" style="fill:none;stroke:#626262;stroke-width:3;"/>
    <path clip-path="url(#p242a5cfd10)" d="M 1171.605891 113.91137 
L 1237.220087 184.296477 
" style="fill:none;stroke:#626262;stroke-width:3;"/>
    <path clip-path="url(#p242a5cfd10)" d="M 1237.220087 184.296477 
L 1161.97932 166.231742 
" style="fill:none;stroke:#626262;stroke-width:3;"/>
    <path clip-path="url(#p242a5cfd10)" d="M 1237.220087 184.296477 
L 1200.338721 82.986395 
" style="fill:none;stroke:#626262;stroke-width:3;"/>
    <path clip-path="url(#p242a5cfd10)" d="M 1148.020924 43.975602 
L 1121.602104 101.26556 
" style="fill:none;stroke:#626262;stroke-width:3;"/>
    <path clip-path="url(#p242a5cfd10)" d="M 1148.020924 43.975602 
L 1200.338721 82.986395 
" style="fill:none;stroke:#626262;stroke-width:3;"/>
    <path clip-path="url(#p242a5cfd10)" d="M 1121.602104 101.26556 
L 1161.97932 166.231742 
" style="fill:none;stroke:#626262;stroke-width:3;"/>
   </g>
   <g id="PathCollection_4">
    <g clip-path="url(#p242a5cfd10)">
     <use style="fill:#ffc0cb;stroke:#ffc0cb;" x="1325.224021" xlink:href="#mbe659d55fe" y="270.686685"/>
     <use style="fill:#ffc0cb;stroke:#ffc0cb;" x="1266.539845" xlink:href="#mbe659d55fe" y="278.382893"/>
     <use style="fill:#ffc0cb;stroke:#ffc0cb;" x="1334.89955" xlink:href="#mbe659d55fe" y="374.524398"/>
     <use style="fill:#ffc0cb;stroke:#ffc0cb;" x="1387.28631" xlink:href="#mbe659d55fe" y="234.387078"/>
     <use style="fill:#ffc0cb;stroke:#ffc0cb;" x="1393.143571" xlink:href="#mbe659d55fe" y="296.215872"/>
     <use style="fill:#ffc0cb;stroke:#ffc0cb;" x="1302.105019" xlink:href="#mbe659d55fe" y="188.10702"/>
     <use style="fill:#ffc0cb;stroke:#ffc0cb;" x="1171.605891" xlink:href="#mbe659d55fe" y="113.91137"/>
     <use style="fill:#ffc0cb;stroke:#ffc0cb;" x="1372.693763" xlink:href="#mbe659d55fe" y="349.977001"/>
     <use style="fill:#ffc0cb;stroke:#ffc0cb;" x="1353.62941" xlink:href="#mbe659d55fe" y="192.371951"/>
     <use style="fill:#ffc0cb;stroke:#ffc0cb;" x="1294.278458" xlink:href="#mbe659d55fe" y="349.057874"/>
     <use style="fill:#ffc0cb;stroke:#ffc0cb;" x="1237.220087" xlink:href="#mbe659d55fe" y="184.296477"/>
     <use style="fill:#ffc0cb;stroke:#ffc0cb;" x="1148.020924" xlink:href="#mbe659d55fe" y="43.975602"/>
     <use style="fill:#ffc0cb;stroke:#ffc0cb;" x="1200.338721" xlink:href="#mbe659d55fe" y="82.986395"/>
     <use style="fill:#ffc0cb;stroke:#ffc0cb;" x="1121.602104" xlink:href="#mbe659d55fe" y="101.26556"/>
     <use style="fill:#ffc0cb;stroke:#ffc0cb;" x="1161.97932" xlink:href="#mbe659d55fe" y="166.231742"/>
    </g>
   </g>
   <g id="text_46">
    <g clip-path="url(#p242a5cfd10)">
     <!-- A -->
     <g transform="translate(1319.981052 272.899185)scale(0.15 -0.15)">
      <use xlink:href="#BMJUAOTF-41"/>
     </g>
    </g>
   </g>
   <g id="text_47">
    <g clip-path="url(#p242a5cfd10)">
     <!-- B -->
     <g transform="translate(1262.362111 280.595393)scale(0.15 -0.15)">
      <use xlink:href="#BMJUAOTF-42"/>
     </g>
    </g>
   </g>
   <g id="text_48">
    <g clip-path="url(#p242a5cfd10)">
     <!-- C -->
     <g transform="translate(1330.264785 376.736898)scale(0.15 -0.15)">
      <use xlink:href="#BMJUAOTF-43"/>
     </g>
    </g>
   </g>
   <g id="text_49">
    <g clip-path="url(#p242a5cfd10)">
     <!-- D -->
     <g transform="translate(1382.726544 236.599578)scale(0.15 -0.15)">
      <use xlink:href="#BMJUAOTF-44"/>
     </g>
    </g>
   </g>
   <g id="text_50">
    <g clip-path="url(#p242a5cfd10)">
     <!-- E -->
     <g transform="translate(1389.025602 298.428372)scale(0.15 -0.15)">
      <use xlink:href="#BMJUAOTF-45"/>
     </g>
    </g>
   </g>
   <g id="text_51">
    <g clip-path="url(#p242a5cfd10)">
     <!-- F -->
     <g transform="translate(1298.02455 190.31952)scale(0.15 -0.15)">
      <use xlink:href="#BMJUAOTF-46"/>
     </g>
    </g>
   </g>
   <g id="text_52">
    <g clip-path="url(#p242a5cfd10)">
     <!-- G -->
     <g transform="translate(1167.037922 116.12387)scale(0.15 -0.15)">
      <use xlink:href="#BMJUAOTF-47"/>
     </g>
    </g>
   </g>
   <g id="text_53">
    <g clip-path="url(#p242a5cfd10)">
     <!-- H -->
     <g transform="translate(1368.125794 352.189501)scale(0.15 -0.15)">
      <use xlink:href="#BMJUAOTF-48"/>
     </g>
    </g>
   </g>
   <g id="text_54">
    <g clip-path="url(#p242a5cfd10)">
     <!-- I -->
     <g transform="translate(1351.52941 194.584451)scale(0.15 -0.15)">
      <use xlink:href="#BMJUAOTF-49"/>
     </g>
    </g>
   </g>
   <g id="text_55">
    <g clip-path="url(#p242a5cfd10)">
     <!-- J -->
     <g transform="translate(1289.597989 351.270374)scale(0.15 -0.15)">
      <use xlink:href="#BMJUAOTF-4a"/>
     </g>
    </g>
   </g>
   <g id="text_56">
    <g clip-path="url(#p242a5cfd10)">
     <!-- K -->
     <g transform="translate(1232.952119 186.508977)scale(0.15 -0.15)">
      <use xlink:href="#BMJUAOTF-4b"/>
     </g>
    </g>
   </g>
   <g id="text_57">
    <g clip-path="url(#p242a5cfd10)">
     <!-- L -->
     <g transform="translate(1143.940456 46.188102)scale(0.15 -0.15)">
      <use xlink:href="#BMJUAOTF-4c"/>
     </g>
    </g>
   </g>
   <g id="text_58">
    <g clip-path="url(#p242a5cfd10)">
     <!-- M -->
     <g transform="translate(1195.163721 85.198895)scale(0.15 -0.15)">
      <use xlink:href="#BMJUAOTF-4d"/>
     </g>
    </g>
   </g>
   <g id="text_59">
    <g clip-path="url(#p242a5cfd10)">
     <!-- N -->
     <g transform="translate(1116.914604 103.47806)scale(0.15 -0.15)">
      <use xlink:href="#BMJUAOTF-4e"/>
     </g>
    </g>
   </g>
   <g id="text_60">
    <g clip-path="url(#p242a5cfd10)">
     <!-- O -->
     <g transform="translate(1157.232055 168.444242)scale(0.15 -0.15)">
      <use xlink:href="#BMJUAOTF-4f"/>
     </g>
    </g>
   </g>
  </g>
 </g>
 <defs>
  <clipPath id="p0a70d134e6">
   <rect height="389.9" width="328.470675" x="42.05" y="14.3"/>
  </clipPath>
  <clipPath id="p448a4ccb0e">
   <rect height="389.9" width="328.470675" x="392.4125" y="14.3"/>
  </clipPath>
  <clipPath id="p02ac88dd84">
   <rect height="389.9" width="328.470675" x="742.775" y="14.3"/>
  </clipPath>
  <clipPath id="p242a5cfd10">
   <rect height="389.9" width="328.470675" x="1093.1375" y="14.3"/>
  </clipPath>
 </defs>
</svg>
