<?xml version="1.0" encoding="utf-8" standalone="no"?>
<!DOCTYPE svg PUBLIC "-//W3C//DTD SVG 1.1//EN"
  "http://www.w3.org/Graphics/SVG/1.1/DTD/svg11.dtd">
<!-- Created with matplotlib (http://matplotlib.org/) -->
<svg height="432pt" version="1.1" viewBox="0 0 720 432" width="720pt" xmlns="http://www.w3.org/2000/svg" xmlns:xlink="http://www.w3.org/1999/xlink">
 <defs>
  <style type="text/css">
*{stroke-linecap:butt;stroke-linejoin:round;}
  </style>
 </defs>
 <g id="figure_1">
  <g id="patch_1">
   <path d="M 0 432 
L 720 432 
L 720 0 
L 0 0 
z
" style="fill:#ffffff;"/>
  </g>
  <g id="axes_1">
   <g id="LineCollection_1">
    <path clip-path="url(#p39ebf3fb64)" d="M 98.224059 92.68 
L 165.949294 92.68 
" style="fill:none;stroke:#dc143c;stroke-opacity:0.8;stroke-width:10;"/>
    <path clip-path="url(#p39ebf3fb64)" d="M 98.224059 92.68 
L 64.361441 131.62 
" style="fill:none;stroke:#dc143c;stroke-opacity:0.8;stroke-width:10;"/>
    <path clip-path="url(#p39ebf3fb64)" d="M 165.949294 92.68 
L 199.811912 131.62 
" style="fill:none;stroke:#dc143c;stroke-opacity:0.8;stroke-width:10;"/>
    <path clip-path="url(#p39ebf3fb64)" d="M 199.811912 131.62 
L 199.811912 287.38 
" style="fill:none;stroke:#dc143c;stroke-opacity:0.8;stroke-width:10;"/>
    <path clip-path="url(#p39ebf3fb64)" d="M 199.811912 287.38 
L 165.949294 326.32 
" style="fill:none;stroke:#dc143c;stroke-opacity:0.8;stroke-width:10;"/>
    <path clip-path="url(#p39ebf3fb64)" d="M 165.949294 326.32 
L 98.224059 326.32 
" style="fill:none;stroke:#dc143c;stroke-opacity:0.8;stroke-width:10;"/>
    <path clip-path="url(#p39ebf3fb64)" d="M 98.224059 326.32 
L 64.361441 287.38 
" style="fill:none;stroke:#dc143c;stroke-opacity:0.8;stroke-width:10;"/>
    <path clip-path="url(#p39ebf3fb64)" d="M 64.361441 287.38 
L 64.361441 131.62 
" style="fill:none;stroke:#dc143c;stroke-opacity:0.8;stroke-width:10;"/>
    <path clip-path="url(#p39ebf3fb64)" d="M 149.017985 248.44 
L 213.356959 349.684 
" style="fill:none;stroke:#dc143c;stroke-opacity:0.8;stroke-width:10;"/>
    <path clip-path="url(#p39ebf3fb64)" d="M 606.163324 92.68 
L 572.300706 209.5 
" style="fill:none;stroke:#dc143c;stroke-opacity:0.8;stroke-width:10;"/>
    <path clip-path="url(#p39ebf3fb64)" d="M 606.163324 92.68 
L 640.025941 209.5 
" style="fill:none;stroke:#dc143c;stroke-opacity:0.8;stroke-width:10;"/>
    <path clip-path="url(#p39ebf3fb64)" d="M 572.300706 209.5 
L 640.025941 209.5 
" style="fill:none;stroke:#dc143c;stroke-opacity:0.8;stroke-width:10;"/>
    <path clip-path="url(#p39ebf3fb64)" d="M 572.300706 209.5 
L 538.438088 326.32 
" style="fill:none;stroke:#dc143c;stroke-opacity:0.8;stroke-width:10;"/>
    <path clip-path="url(#p39ebf3fb64)" d="M 640.025941 209.5 
L 673.888559 326.32 
" style="fill:none;stroke:#dc143c;stroke-opacity:0.8;stroke-width:10;"/>
    <path clip-path="url(#p39ebf3fb64)" d="M 335.262382 209.5 
L 335.262382 248.44 
" style="fill:none;stroke:#dc143c;stroke-opacity:0.8;stroke-width:10;"/>
    <path clip-path="url(#p39ebf3fb64)" d="M 335.262382 248.44 
L 335.262382 326.32 
" style="fill:none;stroke:#dc143c;stroke-opacity:0.8;stroke-width:10;"/>
    <path clip-path="url(#p39ebf3fb64)" d="M 335.262382 248.44 
L 369.125 209.5 
" style="fill:none;stroke:#dc143c;stroke-opacity:0.8;stroke-width:10;"/>
    <path clip-path="url(#p39ebf3fb64)" d="M 369.125 209.5 
L 402.987618 248.44 
" style="fill:none;stroke:#dc143c;stroke-opacity:0.8;stroke-width:10;"/>
    <path clip-path="url(#p39ebf3fb64)" d="M 402.987618 248.44 
L 402.987618 326.32 
" style="fill:none;stroke:#dc143c;stroke-opacity:0.8;stroke-width:10;"/>
   </g>
   <g id="PathCollection_1">
    <defs>
     <path d="M 0 10 
C 2.652031 10 5.195799 8.946337 7.071068 7.071068 
C 8.946337 5.195799 10 2.652031 10 0 
C 10 -2.652031 8.946337 -5.195799 7.071068 -7.071068 
C 5.195799 -8.946337 2.652031 -10 0 -10 
C -2.652031 -10 -5.195799 -8.946337 -7.071068 -7.071068 
C -8.946337 -5.195799 -10 -2.652031 -10 0 
C -10 2.652031 -8.946337 5.195799 -7.071068 7.071068 
C -5.195799 8.946337 -2.652031 10 0 10 
z
" id="m6dd60842ad" style="stroke:#ff0000;"/>
    </defs>
    <g clip-path="url(#p39ebf3fb64)">
     <use style="fill:#ff0000;stroke:#ff0000;" x="98.224059" xlink:href="#m6dd60842ad" y="92.68"/>
     <use style="fill:#ff0000;stroke:#ff0000;" x="165.949294" xlink:href="#m6dd60842ad" y="92.68"/>
     <use style="fill:#ff0000;stroke:#ff0000;" x="199.811912" xlink:href="#m6dd60842ad" y="131.62"/>
     <use style="fill:#ff0000;stroke:#ff0000;" x="199.811912" xlink:href="#m6dd60842ad" y="287.38"/>
     <use style="fill:#ff0000;stroke:#ff0000;" x="165.949294" xlink:href="#m6dd60842ad" y="326.32"/>
     <use style="fill:#ff0000;stroke:#ff0000;" x="98.224059" xlink:href="#m6dd60842ad" y="326.32"/>
     <use style="fill:#ff0000;stroke:#ff0000;" x="64.361441" xlink:href="#m6dd60842ad" y="287.38"/>
     <use style="fill:#ff0000;stroke:#ff0000;" x="64.361441" xlink:href="#m6dd60842ad" y="131.62"/>
     <use style="fill:#ff0000;stroke:#ff0000;" x="149.017985" xlink:href="#m6dd60842ad" y="248.44"/>
     <use style="fill:#ff0000;stroke:#ff0000;" x="213.356959" xlink:href="#m6dd60842ad" y="349.684"/>
     <use style="fill:#ff0000;stroke:#ff0000;" x="606.163324" xlink:href="#m6dd60842ad" y="92.68"/>
     <use style="fill:#ff0000;stroke:#ff0000;" x="572.300706" xlink:href="#m6dd60842ad" y="209.5"/>
     <use style="fill:#ff0000;stroke:#ff0000;" x="640.025941" xlink:href="#m6dd60842ad" y="209.5"/>
     <use style="fill:#ff0000;stroke:#ff0000;" x="538.438088" xlink:href="#m6dd60842ad" y="326.32"/>
     <use style="fill:#ff0000;stroke:#ff0000;" x="673.888559" xlink:href="#m6dd60842ad" y="326.32"/>
     <use style="fill:#ff0000;stroke:#ff0000;" x="335.262382" xlink:href="#m6dd60842ad" y="209.5"/>
     <use style="fill:#ff0000;stroke:#ff0000;" x="335.262382" xlink:href="#m6dd60842ad" y="248.44"/>
     <use style="fill:#ff0000;stroke:#ff0000;" x="335.262382" xlink:href="#m6dd60842ad" y="326.32"/>
     <use style="fill:#ff0000;stroke:#ff0000;" x="369.125" xlink:href="#m6dd60842ad" y="209.5"/>
     <use style="fill:#ff0000;stroke:#ff0000;" x="402.987618" xlink:href="#m6dd60842ad" y="248.44"/>
     <use style="fill:#ff0000;stroke:#ff0000;" x="402.987618" xlink:href="#m6dd60842ad" y="326.32"/>
    </g>
   </g>
  </g>
 </g>
 <defs>
  <clipPath id="p39ebf3fb64">
   <rect height="389.4" width="673.15" x="32.55" y="14.8"/>
  </clipPath>
 </defs>
</svg>
