<?xml version="1.0" encoding="utf-8" standalone="no"?>
<!DOCTYPE svg PUBLIC "-//W3C//DTD SVG 1.1//EN"
  "http://www.w3.org/Graphics/SVG/1.1/DTD/svg11.dtd">
<!-- Created with matplotlib (http://matplotlib.org/) -->
<svg height="432pt" version="1.1" viewBox="0 0 864 432" width="864pt" xmlns="http://www.w3.org/2000/svg" xmlns:xlink="http://www.w3.org/1999/xlink">
 <defs>
  <style type="text/css">
*{stroke-linecap:butt;stroke-linejoin:round;}
  </style>
 </defs>
 <g id="figure_1">
  <g id="patch_1">
   <path d="M 0 432 
L 864 432 
L 864 0 
L 0 0 
z
" style="fill:#ffffff;"/>
  </g>
  <g id="axes_1">
   <g id="patch_2">
    <path d="M 108 378 
L 777.6 378 
L 777.6 51.84 
L 108 51.84 
z
" style="fill:#ffffff;"/>
   </g>
   <g id="PathCollection_1">
    <defs>
     <path d="M 0 111.803399 
C 29.650608 111.803399 58.090796 100.023087 79.056942 79.056942 
C 100.023087 58.090796 111.803399 29.650608 111.803399 0 
C 111.803399 -29.650608 100.023087 -58.090796 79.056942 -79.056942 
C 58.090796 -100.023087 29.650608 -111.803399 0 -111.803399 
C -29.650608 -111.803399 -58.090796 -100.023087 -79.056942 -79.056942 
C -100.023087 -58.090796 -111.803399 -29.650608 -111.803399 0 
C -111.803399 29.650608 -100.023087 58.090796 -79.056942 79.056942 
C -58.090796 100.023087 -29.650608 111.803399 0 111.803399 
z
" id="maec30436d8" style="stroke:#8000ff;"/>
    </defs>
    <g clip-path="url(#pc4fc28e3b5)">
     <use style="fill:#8000ff;stroke:#8000ff;" x="242.484557" xlink:href="#maec30436d8" y="214.92"/>
    </g>
   </g>
   <g id="PathCollection_2">
    <defs>
     <path d="M 0 111.803399 
C 29.650608 111.803399 58.090796 100.023087 79.056942 79.056942 
C 100.023087 58.090796 111.803399 29.650608 111.803399 0 
C 111.803399 -29.650608 100.023087 -58.090796 79.056942 -79.056942 
C 58.090796 -100.023087 29.650608 -111.803399 0 -111.803399 
C -29.650608 -111.803399 -58.090796 -100.023087 -79.056942 -79.056942 
C -100.023087 -58.090796 -111.803399 -29.650608 -111.803399 0 
C -111.803399 29.650608 -100.023087 58.090796 -79.056942 79.056942 
C -58.090796 100.023087 -29.650608 111.803399 0 111.803399 
z
" id="mee78d551cc" style="stroke:#2c7ef7;"/>
    </defs>
    <g clip-path="url(#pc4fc28e3b5)">
     <use style="fill:#2c7ef7;stroke:#2c7ef7;" x="310.074759" xlink:href="#mee78d551cc" y="214.92"/>
    </g>
   </g>
   <g id="matplotlib.axis_1"/>
   <g id="matplotlib.axis_2"/>
   <g id="PathCollection_3">
    <defs>
     <path d="M 0 111.803399 
C 29.650608 111.803399 58.090796 100.023087 79.056942 79.056942 
C 100.023087 58.090796 111.803399 29.650608 111.803399 0 
C 111.803399 -29.650608 100.023087 -58.090796 79.056942 -79.056942 
C 58.090796 -100.023087 29.650608 -111.803399 0 -111.803399 
C -29.650608 -111.803399 -58.090796 -100.023087 -79.056942 -79.056942 
C -100.023087 -58.090796 -111.803399 -29.650608 -111.803399 0 
C -111.803399 29.650608 -100.023087 58.090796 -79.056942 79.056942 
C -58.090796 100.023087 -29.650608 111.803399 0 111.803399 
z
" id="m341de44e2d" style="stroke:#2adddd;"/>
    </defs>
    <g clip-path="url(#pc4fc28e3b5)">
     <use style="fill:#2adddd;stroke:#2adddd;" x="377.664961" xlink:href="#m341de44e2d" y="214.92"/>
    </g>
   </g>
   <g id="patch_3">
    <path d="M 108 378 
L 108 51.84 
" style="fill:none;stroke:#000000;stroke-linecap:square;stroke-linejoin:miter;stroke-width:0.8;"/>
   </g>
   <g id="patch_4">
    <path d="M 777.6 378 
L 777.6 51.84 
" style="fill:none;stroke:#000000;stroke-linecap:square;stroke-linejoin:miter;stroke-width:0.8;"/>
   </g>
   <g id="patch_5">
    <path d="M 108 378 
L 777.6 378 
" style="fill:none;stroke:#000000;stroke-linecap:square;stroke-linejoin:miter;stroke-width:0.8;"/>
   </g>
   <g id="patch_6">
    <path d="M 108 51.84 
L 777.6 51.84 
" style="fill:none;stroke:#000000;stroke-linecap:square;stroke-linejoin:miter;stroke-width:0.8;"/>
   </g>
   <g id="PathCollection_4">
    <defs>
     <path d="M 0 111.803399 
C 29.650608 111.803399 58.090796 100.023087 79.056942 79.056942 
C 100.023087 58.090796 111.803399 29.650608 111.803399 0 
C 111.803399 -29.650608 100.023087 -58.090796 79.056942 -79.056942 
C 58.090796 -100.023087 29.650608 -111.803399 0 -111.803399 
C -29.650608 -111.803399 -58.090796 -100.023087 -79.056942 -79.056942 
C -100.023087 -58.090796 -111.803399 -29.650608 -111.803399 0 
C -111.803399 29.650608 -100.023087 58.090796 -79.056942 79.056942 
C -58.090796 100.023087 -29.650608 111.803399 0 111.803399 
z
" id="mfabc5703c5" style="stroke:#80ffb4;"/>
    </defs>
    <g clip-path="url(#pc4fc28e3b5)">
     <use style="fill:#80ffb4;stroke:#80ffb4;" x="445.255162" xlink:href="#mfabc5703c5" y="214.92"/>
    </g>
   </g>
   <g id="PathCollection_5">
    <defs>
     <path d="M 0 111.803399 
C 29.650608 111.803399 58.090796 100.023087 79.056942 79.056942 
C 100.023087 58.090796 111.803399 29.650608 111.803399 0 
C 111.803399 -29.650608 100.023087 -58.090796 79.056942 -79.056942 
C 58.090796 -100.023087 29.650608 -111.803399 0 -111.803399 
C -29.650608 -111.803399 -58.090796 -100.023087 -79.056942 -79.056942 
C -100.023087 -58.090796 -111.803399 -29.650608 -111.803399 0 
C -111.803399 29.650608 -100.023087 58.090796 -79.056942 79.056942 
C -58.090796 100.023087 -29.650608 111.803399 0 111.803399 
z
" id="ma502bc8729" style="stroke:#d4dd80;"/>
    </defs>
    <g clip-path="url(#pc4fc28e3b5)">
     <use style="fill:#d4dd80;stroke:#d4dd80;" x="512.845364" xlink:href="#ma502bc8729" y="214.92"/>
    </g>
   </g>
   <g id="PathCollection_6">
    <defs>
     <path d="M 0 111.803399 
C 29.650608 111.803399 58.090796 100.023087 79.056942 79.056942 
C 100.023087 58.090796 111.803399 29.650608 111.803399 0 
C 111.803399 -29.650608 100.023087 -58.090796 79.056942 -79.056942 
C 58.090796 -100.023087 29.650608 -111.803399 0 -111.803399 
C -29.650608 -111.803399 -58.090796 -100.023087 -79.056942 -79.056942 
C -100.023087 -58.090796 -111.803399 -29.650608 -111.803399 0 
C -111.803399 29.650608 -100.023087 58.090796 -79.056942 79.056942 
C -58.090796 100.023087 -29.650608 111.803399 0 111.803399 
z
" id="m8d119724b8" style="stroke:#ff7e41;"/>
    </defs>
    <g clip-path="url(#pc4fc28e3b5)">
     <use style="fill:#ff7e41;stroke:#ff7e41;" x="580.435565" xlink:href="#m8d119724b8" y="214.92"/>
    </g>
   </g>
   <g id="PathCollection_7">
    <defs>
     <path d="M 0 111.803399 
C 29.650608 111.803399 58.090796 100.023087 79.056942 79.056942 
C 100.023087 58.090796 111.803399 29.650608 111.803399 0 
C 111.803399 -29.650608 100.023087 -58.090796 79.056942 -79.056942 
C 58.090796 -100.023087 29.650608 -111.803399 0 -111.803399 
C -29.650608 -111.803399 -58.090796 -100.023087 -79.056942 -79.056942 
C -100.023087 -58.090796 -111.803399 -29.650608 -111.803399 0 
C -111.803399 29.650608 -100.023087 58.090796 -79.056942 79.056942 
C -58.090796 100.023087 -29.650608 111.803399 0 111.803399 
z
" id="m54aab3b3a3" style="stroke:#ff0000;"/>
    </defs>
    <g clip-path="url(#pc4fc28e3b5)">
     <use style="fill:#ff0000;stroke:#ff0000;" x="648.025767" xlink:href="#m54aab3b3a3" y="214.92"/>
    </g>
   </g>
  </g>
 </g>
 <defs>
  <clipPath id="pc4fc28e3b5">
   <rect height="326.16" width="669.6" x="108" y="51.84"/>
  </clipPath>
 </defs>
</svg>
