<?xml version="1.0" encoding="utf-8" standalone="no"?>
<!DOCTYPE svg PUBLIC "-//W3C//DTD SVG 1.1//EN"
  "http://www.w3.org/Graphics/SVG/1.1/DTD/svg11.dtd">
<!-- Created with matplotlib (http://matplotlib.org/) -->
<svg height="288pt" version="1.1" viewBox="0 0 864 288" width="864pt" xmlns="http://www.w3.org/2000/svg" xmlns:xlink="http://www.w3.org/1999/xlink">
 <defs>
  <style type="text/css">
*{stroke-linecap:butt;stroke-linejoin:round;}
  </style>
 </defs>
 <g id="figure_1">
  <g id="patch_1">
   <path d="M 0 288 
L 864 288 
L 864 0 
L 0 0 
z
" style="fill:#ffffff;"/>
  </g>
  <g id="axes_1">
   <g id="patch_2">
    <path d="M 108 252 
L 777.6 252 
L 777.6 34.56 
L 108 34.56 
z
" style="fill:#ffffff;"/>
   </g>
   <g id="matplotlib.axis_1">
    <g id="xtick_1">
     <g id="line2d_1">
      <defs>
       <path d="M 0 0 
L 0 3.5 
" id="m608af3abda" style="stroke:#000000;stroke-width:0.8;"/>
      </defs>
      <g>
       <use style="stroke:#000000;stroke-width:0.8;" x="138.436364" xlink:href="#m608af3abda" y="252"/>
      </g>
     </g>
     <g id="text_1">
      <!-- x_00 -->
      <defs>
       <path d="M 54.5 48.5 
L 39.40625 48.5 
L 28.40625 26.296875 
L 17.40625 48.5 
L 2.40625 48.5 
L 19.296875 16.40625 
L 2.40625 -15.09375 
L 17.40625 -15.09375 
L 28.40625 6.5 
L 39.40625 -15.09375 
L 54.40625 -15.09375 
C 48.703125 -4.59375 42.5 6.203125 36.796875 16.703125 
z
" id="BMDoHyeon-OTF-78"/>
       <path d="M 4 -4.703125 
L 4 -17.09375 
L 48.09375 -17.09375 
L 48.09375 -4.703125 
z
" id="BMDoHyeon-OTF-5f"/>
       <path d="M 27.796875 70.5 
C 15 70.5 4.59375 60.09375 4.59375 47.203125 
L 4.59375 8.203125 
C 4.59375 -4.703125 15 -15.09375 27.796875 -15.09375 
L 40.5 -15.09375 
C 53.296875 -15.09375 63.796875 -4.703125 63.796875 8.203125 
L 63.796875 47.203125 
C 63.796875 60.09375 53.296875 70.5 40.5 70.5 
z
M 49.296875 10.796875 
C 49.296875 4.90625 44.59375 0.09375 38.796875 0.09375 
L 29.5 0.09375 
C 23.703125 0.09375 19 4.90625 19 10.796875 
L 19 44.59375 
C 19 50.5 23.703125 55.296875 29.5 55.296875 
L 38.796875 55.296875 
C 44.59375 55.296875 49.296875 50.5 49.296875 44.59375 
z
" id="BMDoHyeon-OTF-30"/>
      </defs>
      <g transform="translate(123.36836 303.731133)rotate(-45)scale(0.2 -0.2)">
       <use xlink:href="#BMDoHyeon-OTF-78"/>
       <use x="56.799988" xlink:href="#BMDoHyeon-OTF-5f"/>
       <use x="108.899979" xlink:href="#BMDoHyeon-OTF-30"/>
       <use x="177.59996" xlink:href="#BMDoHyeon-OTF-30"/>
      </g>
     </g>
    </g>
    <g id="xtick_2">
     <g id="line2d_2">
      <g>
       <use style="stroke:#000000;stroke-width:0.8;" x="169.180165" xlink:href="#m608af3abda" y="252"/>
      </g>
     </g>
     <g id="text_2">
      <!-- x_50 -->
      <defs>
       <path d="M 33 41.40625 
C 28.5 41.40625 23.40625 40.703125 20.90625 39 
L 20.90625 54.59375 
L 57.90625 54.59375 
L 57.90625 69.5 
L 5.09375 69.5 
L 5.09375 22.90625 
L 19.703125 22.90625 
C 22 25.40625 25.90625 26.796875 31.296875 26.796875 
C 40.203125 26.796875 47.09375 23.203125 47.09375 12.203125 
C 47.09375 2.59375 41.09375 -2.703125 31.703125 -2.703125 
C 21.59375 -2.703125 17.40625 2.796875 17.40625 10.703125 
L 3.09375 10.703125 
C 3.09375 -8 14.703125 -16.796875 32.296875 -16.796875 
C 52.09375 -16.796875 62 -5.90625 62 12.296875 
C 62 30.796875 50.90625 41.40625 33 41.40625 
z
" id="BMDoHyeon-OTF-35"/>
      </defs>
      <g transform="translate(154.324294 303.306869)rotate(-45)scale(0.2 -0.2)">
       <use xlink:href="#BMDoHyeon-OTF-78"/>
       <use x="56.799988" xlink:href="#BMDoHyeon-OTF-5f"/>
       <use x="108.899979" xlink:href="#BMDoHyeon-OTF-35"/>
       <use x="174.599976" xlink:href="#BMDoHyeon-OTF-30"/>
      </g>
     </g>
    </g>
    <g id="xtick_3">
     <g id="line2d_3">
      <g>
       <use style="stroke:#000000;stroke-width:0.8;" x="199.923967" xlink:href="#m608af3abda" y="252"/>
      </g>
     </g>
     <g id="text_3">
      <!-- x_10 -->
      <defs>
       <path d="M 18 54.5 
L 18 -15.09375 
L 32.5 -15.09375 
L 32.5 70 
L 15.703125 70 
L 5.90625 54.5 
z
" id="BMDoHyeon-OTF-31"/>
      </defs>
      <g transform="translate(186.715433 300.012193)rotate(-45)scale(0.2 -0.2)">
       <use xlink:href="#BMDoHyeon-OTF-78"/>
       <use x="56.799988" xlink:href="#BMDoHyeon-OTF-5f"/>
       <use x="108.899979" xlink:href="#BMDoHyeon-OTF-31"/>
       <use x="151.299973" xlink:href="#BMDoHyeon-OTF-30"/>
      </g>
     </g>
    </g>
    <g id="xtick_4">
     <g id="line2d_4">
      <g>
       <use style="stroke:#000000;stroke-width:0.8;" x="230.667769" xlink:href="#m608af3abda" y="252"/>
      </g>
     </g>
     <g id="text_4">
      <!-- x_15 -->
      <g transform="translate(217.671367 299.587929)rotate(-45)scale(0.2 -0.2)">
       <use xlink:href="#BMDoHyeon-OTF-78"/>
       <use x="56.799988" xlink:href="#BMDoHyeon-OTF-5f"/>
       <use x="108.899979" xlink:href="#BMDoHyeon-OTF-31"/>
       <use x="151.299973" xlink:href="#BMDoHyeon-OTF-35"/>
      </g>
     </g>
    </g>
    <g id="xtick_5">
     <g id="line2d_5">
      <g>
       <use style="stroke:#000000;stroke-width:0.8;" x="261.41157" xlink:href="#m608af3abda" y="252"/>
      </g>
     </g>
     <g id="text_5">
      <!-- x_20 -->
      <defs>
       <path d="M 3.59375 -15.09375 
L 56.796875 -15.09375 
L 56.796875 -2.40625 
L 18 -2.40625 
C 28.59375 5.296875 39.203125 14.59375 48.796875 23.59375 
C 56.90625 31.296875 58.296875 37.09375 58.296875 47.296875 
L 58.296875 49.203125 
C 58.296875 61.40625 48.296875 71.40625 36 71.40625 
L 25.09375 71.40625 
C 12.796875 71.40625 2.796875 61.40625 2.796875 49.203125 
L 2.796875 43.59375 
L 16.5 43.59375 
L 16.5 46.59375 
C 16.5 52.296875 21.09375 56.90625 26.703125 56.90625 
L 33.703125 56.90625 
C 39.203125 56.90625 43.796875 52.296875 43.796875 46.59375 
C 43.796875 39.203125 41.59375 36.703125 36.203125 31.59375 
C 26.296875 22.40625 15.296875 12.5 3.59375 3.796875 
z
" id="BMDoHyeon-OTF-32"/>
      </defs>
      <g transform="translate(246.902623 302.61302)rotate(-45)scale(0.2 -0.2)">
       <use xlink:href="#BMDoHyeon-OTF-78"/>
       <use x="56.799988" xlink:href="#BMDoHyeon-OTF-5f"/>
       <use x="108.899979" xlink:href="#BMDoHyeon-OTF-32"/>
       <use x="169.699966" xlink:href="#BMDoHyeon-OTF-30"/>
      </g>
     </g>
    </g>
    <g id="xtick_6">
     <g id="line2d_6">
      <g>
       <use style="stroke:#000000;stroke-width:0.8;" x="292.155372" xlink:href="#m608af3abda" y="252"/>
      </g>
     </g>
     <g id="text_6">
      <!-- x_25 -->
      <g transform="translate(277.858557 302.188756)rotate(-45)scale(0.2 -0.2)">
       <use xlink:href="#BMDoHyeon-OTF-78"/>
       <use x="56.799988" xlink:href="#BMDoHyeon-OTF-5f"/>
       <use x="108.899979" xlink:href="#BMDoHyeon-OTF-32"/>
       <use x="169.699966" xlink:href="#BMDoHyeon-OTF-35"/>
      </g>
     </g>
    </g>
    <g id="xtick_7">
     <g id="line2d_7">
      <g>
       <use style="stroke:#000000;stroke-width:0.8;" x="322.899174" xlink:href="#m608af3abda" y="252"/>
      </g>
     </g>
     <g id="text_7">
      <!-- x_30 -->
      <defs>
       <path d="M 59 55.40625 
C 57.703125 59.296875 55.09375 62.796875 51.90625 65.5 
C 49 68 45 69.796875 41.40625 70.59375 
C 39.40625 71 37.296875 71.203125 35.203125 71.296875 
C 35.09375 71.296875 34.203125 71.40625 27.90625 71.40625 
C 15.09375 71.40625 2 63.703125 2 49.296875 
L 2 46.703125 
L 15.5 46.703125 
C 15.5 58.90625 35.703125 59 41.09375 54.296875 
C 46 50.09375 45.203125 43.203125 41.09375 39.90625 
C 39.59375 38.703125 37.59375 38 35.296875 37.59375 
C 33.09375 37.09375 30.40625 36.90625 27.296875 36.90625 
L 22.90625 36.90625 
L 22.90625 24 
L 27.296875 24 
C 30.40625 24 33.09375 23.796875 35.296875 23.296875 
C 40.296875 22.40625 43.40625 19.703125 44.5 15.40625 
C 45.796875 10.40625 44.796875 4.59375 41.09375 1.796875 
C 38.203125 -0.40625 34.40625 -0.90625 30.90625 -1.09375 
C 25.796875 -1.40625 18.296875 -0.296875 16.203125 5.296875 
C 15.703125 6.5 15.5 7.90625 15.5 9.203125 
L 2 9.203125 
L 2 6.703125 
C 2 -5.59375 11.796875 -15.59375 23.90625 -15.59375 
C 32.09375 -15.59375 39.296875 -16.40625 47.09375 -12.90625 
C 52.296875 -10.5 56.40625 -6 58.5 -0.703125 
C 61.59375 6.796875 61.59375 14.40625 58.5 22 
C 57.40625 24.90625 55.703125 27.40625 53.5 29.59375 
L 52.703125 30.40625 
L 53.5 31.296875 
C 60.59375 37.703125 61.90625 46.59375 59 55.40625 
z
" id="BMDoHyeon-OTF-33"/>
      </defs>
      <g transform="translate(308.241071 302.911331)rotate(-45)scale(0.2 -0.2)">
       <use xlink:href="#BMDoHyeon-OTF-78"/>
       <use x="56.799988" xlink:href="#BMDoHyeon-OTF-5f"/>
       <use x="108.899979" xlink:href="#BMDoHyeon-OTF-33"/>
       <use x="171.799973" xlink:href="#BMDoHyeon-OTF-30"/>
      </g>
     </g>
    </g>
    <g id="xtick_8">
     <g id="line2d_8">
      <g>
       <use style="stroke:#000000;stroke-width:0.8;" x="353.642975" xlink:href="#m608af3abda" y="252"/>
      </g>
     </g>
     <g id="text_8">
      <!-- x_35 -->
      <g transform="translate(339.197005 302.487067)rotate(-45)scale(0.2 -0.2)">
       <use xlink:href="#BMDoHyeon-OTF-78"/>
       <use x="56.799988" xlink:href="#BMDoHyeon-OTF-5f"/>
       <use x="108.899979" xlink:href="#BMDoHyeon-OTF-33"/>
       <use x="171.799973" xlink:href="#BMDoHyeon-OTF-35"/>
      </g>
     </g>
    </g>
    <g id="xtick_9">
     <g id="line2d_9">
      <g>
       <use style="stroke:#000000;stroke-width:0.8;" x="384.386777" xlink:href="#m608af3abda" y="252"/>
      </g>
     </g>
     <g id="text_9">
      <!-- x_40 -->
      <defs>
       <path d="M 55 70 
L 29.59375 70 
L 2 14.90625 
L 2 1.703125 
L 40.40625 1.703125 
L 40.40625 -15.09375 
L 55 -15.09375 
L 55 1.90625 
L 68 1.90625 
L 68 14.90625 
L 55 14.90625 
z
M 18 14.90625 
L 40.40625 58.40625 
L 40.40625 14.90625 
z
" id="BMDoHyeon-OTF-34"/>
      </defs>
      <g transform="translate(369.22707 303.914539)rotate(-45)scale(0.2 -0.2)">
       <use xlink:href="#BMDoHyeon-OTF-78"/>
       <use x="56.799988" xlink:href="#BMDoHyeon-OTF-5f"/>
       <use x="108.899979" xlink:href="#BMDoHyeon-OTF-34"/>
       <use x="178.899963" xlink:href="#BMDoHyeon-OTF-30"/>
      </g>
     </g>
    </g>
    <g id="xtick_10">
     <g id="line2d_10">
      <g>
       <use style="stroke:#000000;stroke-width:0.8;" x="415.130579" xlink:href="#m608af3abda" y="252"/>
      </g>
     </g>
     <g id="text_10">
      <!-- x_45 -->
      <g transform="translate(400.183004 303.490275)rotate(-45)scale(0.2 -0.2)">
       <use xlink:href="#BMDoHyeon-OTF-78"/>
       <use x="56.799988" xlink:href="#BMDoHyeon-OTF-5f"/>
       <use x="108.899979" xlink:href="#BMDoHyeon-OTF-34"/>
       <use x="178.899963" xlink:href="#BMDoHyeon-OTF-35"/>
      </g>
     </g>
    </g>
    <g id="xtick_11">
     <g id="line2d_11">
      <g>
       <use style="stroke:#000000;stroke-width:0.8;" x="445.87438" xlink:href="#m608af3abda" y="252"/>
      </g>
     </g>
     <g id="text_11">
      <!-- x_50 -->
      <g transform="translate(431.018509 303.306869)rotate(-45)scale(0.2 -0.2)">
       <use xlink:href="#BMDoHyeon-OTF-78"/>
       <use x="56.799988" xlink:href="#BMDoHyeon-OTF-5f"/>
       <use x="108.899979" xlink:href="#BMDoHyeon-OTF-35"/>
       <use x="174.599976" xlink:href="#BMDoHyeon-OTF-30"/>
      </g>
     </g>
    </g>
    <g id="xtick_12">
     <g id="line2d_12">
      <g>
       <use style="stroke:#000000;stroke-width:0.8;" x="476.618182" xlink:href="#m608af3abda" y="252"/>
      </g>
     </g>
     <g id="text_12">
      <!-- x_55 -->
      <g transform="translate(461.974442 302.882605)rotate(-45)scale(0.2 -0.2)">
       <use xlink:href="#BMDoHyeon-OTF-78"/>
       <use x="56.799988" xlink:href="#BMDoHyeon-OTF-5f"/>
       <use x="108.899979" xlink:href="#BMDoHyeon-OTF-35"/>
       <use x="174.599976" xlink:href="#BMDoHyeon-OTF-35"/>
      </g>
     </g>
    </g>
    <g id="xtick_13">
     <g id="line2d_13">
      <g>
       <use style="stroke:#000000;stroke-width:0.8;" x="507.361983" xlink:href="#m608af3abda" y="252"/>
      </g>
     </g>
     <g id="text_13">
      <!-- x_60 -->
      <defs>
       <path d="M 40 -15.59375 
C 53.703125 -15.59375 64.703125 -4.5 64.703125 9.09375 
L 64.703125 13.203125 
C 64.703125 26.90625 53.703125 38 40 38 
L 30.296875 38 
C 27 38 23.796875 37.296875 20.90625 36.09375 
L 20.90625 45.296875 
C 20.90625 51.203125 24.59375 56.09375 30.40625 56.09375 
L 40.90625 56.09375 
C 45.796875 56.09375 47.90625 52.703125 48.796875 48.296875 
L 64.5 48.296875 
C 63.296875 61 54 70.90625 41 70.90625 
L 30.296875 70.90625 
C 16.703125 70.90625 5.59375 59.796875 5.59375 46.09375 
L 5.59375 14.203125 
L 5.59375 13.203125 
L 5.59375 9.09375 
C 5.59375 -4.5 16.703125 -15.59375 30.296875 -15.59375 
z
M 20.90625 12.5 
C 20.90625 18.40625 24.59375 23.203125 30.40625 23.203125 
L 39.90625 23.203125 
C 45.703125 23.203125 49.40625 18.296875 49.40625 12.40625 
L 49.40625 10 
C 49.40625 4.09375 45.703125 -0.796875 39.90625 -0.796875 
L 30.40625 -0.796875 
C 24.796875 -0.796875 21.09375 3.796875 20.90625 9.5 
z
" id="BMDoHyeon-OTF-36"/>
      </defs>
      <g transform="translate(492.244261 303.83057)rotate(-45)scale(0.2 -0.2)">
       <use xlink:href="#BMDoHyeon-OTF-78"/>
       <use x="56.799988" xlink:href="#BMDoHyeon-OTF-5f"/>
       <use x="108.899979" xlink:href="#BMDoHyeon-OTF-36"/>
       <use x="178.299973" xlink:href="#BMDoHyeon-OTF-30"/>
      </g>
     </g>
    </g>
    <g id="xtick_14">
     <g id="line2d_14">
      <g>
       <use style="stroke:#000000;stroke-width:0.8;" x="538.105785" xlink:href="#m608af3abda" y="252"/>
      </g>
     </g>
     <g id="text_14">
      <!-- x_65 -->
      <g transform="translate(523.200195 303.406306)rotate(-45)scale(0.2 -0.2)">
       <use xlink:href="#BMDoHyeon-OTF-78"/>
       <use x="56.799988" xlink:href="#BMDoHyeon-OTF-5f"/>
       <use x="108.899979" xlink:href="#BMDoHyeon-OTF-36"/>
       <use x="178.299973" xlink:href="#BMDoHyeon-OTF-35"/>
      </g>
     </g>
    </g>
    <g id="xtick_15">
     <g id="line2d_15">
      <g>
       <use style="stroke:#000000;stroke-width:0.8;" x="568.849587" xlink:href="#m608af3abda" y="252"/>
      </g>
     </g>
     <g id="text_15">
      <!-- x_70 -->
      <defs>
       <path d="M 4.40625 40.90625 
L 20.203125 40.90625 
L 20.203125 53.59375 
L 42.5 53.59375 
L 30.5 -15.09375 
L 46.5 -15.09375 
L 61.5 69 
L 4.40625 69 
z
" id="BMDoHyeon-OTF-37"/>
      </defs>
      <g transform="translate(553.979352 303.335595)rotate(-45)scale(0.2 -0.2)">
       <use xlink:href="#BMDoHyeon-OTF-78"/>
       <use x="56.799988" xlink:href="#BMDoHyeon-OTF-5f"/>
       <use x="108.899979" xlink:href="#BMDoHyeon-OTF-37"/>
       <use x="174.799973" xlink:href="#BMDoHyeon-OTF-30"/>
      </g>
     </g>
    </g>
    <g id="xtick_16">
     <g id="line2d_16">
      <g>
       <use style="stroke:#000000;stroke-width:0.8;" x="599.593388" xlink:href="#m608af3abda" y="252"/>
      </g>
     </g>
     <g id="text_16">
      <!-- x_75 -->
      <g transform="translate(584.935286 302.911331)rotate(-45)scale(0.2 -0.2)">
       <use xlink:href="#BMDoHyeon-OTF-78"/>
       <use x="56.799988" xlink:href="#BMDoHyeon-OTF-5f"/>
       <use x="108.899979" xlink:href="#BMDoHyeon-OTF-37"/>
       <use x="174.799973" xlink:href="#BMDoHyeon-OTF-35"/>
      </g>
     </g>
    </g>
    <g id="xtick_17">
     <g id="line2d_17">
      <g>
       <use style="stroke:#000000;stroke-width:0.8;" x="630.33719" xlink:href="#m608af3abda" y="252"/>
      </g>
     </g>
     <g id="text_17">
      <!-- x_80 -->
      <defs>
       <path d="M 30 71 
C 16.40625 71 7.296875 60.90625 7.296875 47.203125 
L 7.296875 43.5 
C 7.296875 37.703125 9.296875 32.59375 12.59375 28.703125 
C 7.703125 25 4.59375 19.203125 4.59375 12.203125 
L 4.59375 6.703125 
C 4.59375 -6.203125 15 -15.59375 27.796875 -15.59375 
L 40.5 -15.59375 
C 53.296875 -15.59375 63.796875 -6.203125 63.796875 6.703125 
L 63.796875 12.203125 
C 63.796875 19.09375 60.703125 24.796875 55.90625 28.5 
C 59.296875 32.5 61.40625 37.59375 61.40625 43.5 
L 61.40625 47.203125 
C 61.40625 60.90625 52.40625 71 38.703125 71 
z
M 49.296875 8.5 
C 49.296875 2.59375 44.59375 -1.203125 38.796875 -1.203125 
L 29.5 -1.203125 
C 23.703125 -1.203125 19 2.59375 19 8.5 
L 19 10 
C 19 15.90625 23.703125 20.203125 29.5 20.203125 
L 31 20.203125 
L 32 20.203125 
L 36.703125 20.203125 
L 37.703125 20.203125 
L 38.796875 20.203125 
C 44.59375 20.203125 49.296875 15.90625 49.296875 10 
z
M 46.5 44.296875 
C 46.5 38.40625 43.796875 33.5 38 33.5 
L 30.703125 33.5 
C 24.90625 33.5 22.203125 38.40625 22.203125 44.296875 
L 22.203125 46.203125 
C 22.203125 52.09375 24.90625 57 30.703125 57 
L 38 57 
C 43.796875 57 46.5 52.09375 46.5 46.203125 
z
" id="BMDoHyeon-OTF-38"/>
      </defs>
      <g transform="translate(615.375253 303.519001)rotate(-45)scale(0.2 -0.2)">
       <use xlink:href="#BMDoHyeon-OTF-78"/>
       <use x="56.799988" xlink:href="#BMDoHyeon-OTF-5f"/>
       <use x="108.899979" xlink:href="#BMDoHyeon-OTF-38"/>
       <use x="176.099976" xlink:href="#BMDoHyeon-OTF-30"/>
      </g>
     </g>
    </g>
    <g id="xtick_18">
     <g id="line2d_18">
      <g>
       <use style="stroke:#000000;stroke-width:0.8;" x="661.080992" xlink:href="#m608af3abda" y="252"/>
      </g>
     </g>
     <g id="text_18">
      <!-- x_85 -->
      <g transform="translate(646.331186 303.094737)rotate(-45)scale(0.2 -0.2)">
       <use xlink:href="#BMDoHyeon-OTF-78"/>
       <use x="56.799988" xlink:href="#BMDoHyeon-OTF-5f"/>
       <use x="108.899979" xlink:href="#BMDoHyeon-OTF-38"/>
       <use x="176.099976" xlink:href="#BMDoHyeon-OTF-35"/>
      </g>
     </g>
    </g>
    <g id="xtick_19">
     <g id="line2d_19">
      <g>
       <use style="stroke:#000000;stroke-width:0.8;" x="691.824793" xlink:href="#m608af3abda" y="252"/>
      </g>
     </g>
     <g id="text_19">
      <!-- x_90 -->
      <defs>
       <path d="M 24.5 71 
C 10.90625 71 3.796875 60.90625 3.796875 47.203125 
L 3.796875 36.09375 
C 3.796875 22.5 10.90625 12.40625 24.5 12.40625 
L 39.203125 12.40625 
C 40 12.40625 40.703125 12.40625 41.5 12.5 
L 36.203125 -15.09375 
L 50.296875 -15.09375 
L 57.90625 24.90625 
C 59.203125 28.203125 59.90625 32 59.90625 36.09375 
L 59.90625 47.203125 
C 59.90625 60.90625 52.90625 71 39.203125 71 
z
M 44.59375 37 
C 44.59375 31.09375 42.90625 27.203125 37.09375 27.203125 
L 26.59375 27.203125 
C 20.796875 27.203125 19.09375 31.09375 19.09375 37 
L 19.09375 46.40625 
C 19.09375 52.296875 20.796875 56.203125 26.59375 56.203125 
L 37.09375 56.203125 
C 42.90625 56.203125 44.59375 52.296875 44.59375 46.40625 
z
" id="BMDoHyeon-OTF-39"/>
      </defs>
      <g transform="translate(677.09598 303.052752)rotate(-45)scale(0.2 -0.2)">
       <use xlink:href="#BMDoHyeon-OTF-78"/>
       <use x="56.799988" xlink:href="#BMDoHyeon-OTF-5f"/>
       <use x="108.899979" xlink:href="#BMDoHyeon-OTF-39"/>
       <use x="172.799973" xlink:href="#BMDoHyeon-OTF-30"/>
      </g>
     </g>
    </g>
    <g id="xtick_20">
     <g id="line2d_20">
      <g>
       <use style="stroke:#000000;stroke-width:0.8;" x="722.568595" xlink:href="#m608af3abda" y="252"/>
      </g>
     </g>
     <g id="text_20">
      <!-- x_95 -->
      <g transform="translate(708.051914 302.628488)rotate(-45)scale(0.2 -0.2)">
       <use xlink:href="#BMDoHyeon-OTF-78"/>
       <use x="56.799988" xlink:href="#BMDoHyeon-OTF-5f"/>
       <use x="108.899979" xlink:href="#BMDoHyeon-OTF-39"/>
       <use x="172.799973" xlink:href="#BMDoHyeon-OTF-35"/>
      </g>
     </g>
    </g>
   </g>
   <g id="matplotlib.axis_2">
    <g id="ytick_1">
     <g id="line2d_21">
      <defs>
       <path d="M 0 0 
L -3.5 0 
" id="m3469fa8d5e" style="stroke:#000000;stroke-width:0.8;"/>
      </defs>
      <g>
       <use style="stroke:#000000;stroke-width:0.8;" x="108" xlink:href="#m3469fa8d5e" y="221.126376"/>
      </g>
     </g>
     <g id="text_21">
      <!-- y_-2 -->
      <defs>
       <path d="M 49.90625 36 
C 49.40625 36.90625 48.59375 37.703125 47.59375 38.09375 
C 46.703125 38.5 45.90625 38.796875 45.203125 39 
C 44.40625 39.09375 43.5 39.09375 42.59375 38.796875 
C 42 38.703125 41.5 38.296875 40.90625 37.796875 
C 40.296875 37.203125 39.90625 36.703125 39.296875 35.90625 
C 39.09375 35.40625 38.703125 35 38.5 34.5 
C 37.203125 32.5 36.296875 30 35.203125 27.703125 
C 34.296875 25.796875 33.40625 23.796875 32.40625 21.703125 
L 27.203125 10.703125 
C 24.59375 16.296875 21.796875 22.40625 19.296875 27.703125 
C 18.09375 30.703125 16.90625 33.796875 14.703125 36.203125 
C 12.5 38.796875 7.203125 39.796875 5 35.703125 
C 3 32.59375 4.703125 29.203125 6.203125 26.5 
C 10.5 18.59375 14.703125 8.40625 18.203125 0 
C 18.703125 -1.203125 19.40625 -2.796875 20.09375 -4.296875 
L 12.796875 -20.09375 
C 12.59375 -20.09375 12.5 -20.40625 12.296875 -20.90625 
C 12.09375 -21.296875 12 -22 11.703125 -22.703125 
C 11.59375 -23.40625 11.5 -24.09375 11.40625 -24.90625 
C 11.40625 -25.703125 11.5 -26.5 11.796875 -27.203125 
C 12.203125 -28 12.796875 -28.703125 13.703125 -29.203125 
C 15.09375 -30.40625 16.703125 -30.90625 18.40625 -30.796875 
C 20.40625 -30.703125 22.40625 -28.796875 23.296875 -27.203125 
C 23.59375 -26.5 23.90625 -26 24.296875 -25.296875 
C 26.09375 -22 27.59375 -18.703125 29.296875 -15.203125 
L 34.09375 -4.90625 
C 34.703125 -3.90625 35.09375 -2.796875 35.59375 -1.796875 
C 37.40625 2.09375 39.40625 6.09375 41.5 10.40625 
C 43.59375 14.796875 45.296875 18.5 47.09375 22.59375 
L 47.296875 23.09375 
C 47.90625 24.296875 49.40625 27.703125 49.90625 29 
C 50.5 30.296875 50.703125 31.59375 50.703125 33 
C 50.796875 34.09375 50.5 35.09375 49.90625 36 
z
" id="BMJUAOTF-79"/>
       <path d="M 18.09375 -8.203125 
C 15.09375 -8.296875 12.09375 -8 9.296875 -8.90625 
C 7.203125 -9.59375 5.796875 -11.703125 5.796875 -13.5 
C 5.796875 -15 6.59375 -16.09375 8.09375 -17.203125 
C 10.296875 -19 14 -18.796875 17 -18.703125 
L 40.203125 -18.59375 
C 40.40625 -18.59375 45.59375 -18.796875 47.703125 -16.796875 
C 48.5 -16.09375 49 -14.40625 49 -13.09375 
C 49 -11.90625 48.5 -10.703125 47.59375 -10 
C 45.703125 -8.5 43.296875 -7.796875 41 -8.203125 
z
" id="BMJUAOTF-5f"/>
       <path d="M 16.5 38.09375 
C 13.40625 38 10.40625 38.40625 7.59375 37.203125 
C 5.40625 36.40625 4 33.796875 4 31.59375 
C 4 29.703125 4.796875 28.40625 6.296875 27 
C 8.59375 24.796875 12.296875 25 15.40625 25.203125 
L 35 25.296875 
C 35.203125 25.296875 40.40625 25 42.59375 27.5 
C 43.40625 28.40625 43.90625 30.5 43.90625 32.09375 
C 43.90625 33.5 43.40625 35 42.5 35.90625 
C 40.5 37.703125 38.09375 38.59375 35.796875 38.09375 
z
" id="BMJUAOTF-2d"/>
       <path d="M 15.796875 40.09375 
C 16.703125 41.40625 17.40625 43.09375 18.203125 44.5 
C 20.796875 48.296875 25.203125 50.40625 29.796875 50.40625 
C 36.09375 50.40625 40.796875 46.5 40.796875 39.796875 
C 40.796875 33.703125 37.40625 29.296875 28 21.5 
C 24.40625 18.40625 20.203125 15.40625 16.703125 12.296875 
C 11.90625 8.296875 4.59375 3.90625 4.59375 -2.90625 
C 4.59375 -4.90625 3.90625 -7.09375 6.296875 -7.703125 
C 7.5 -8.09375 9.203125 -7.796875 10.5 -7.796875 
L 46.40625 -7.796875 
C 48.703125 -7.796875 51.5 -8.40625 53.203125 -6.40625 
C 55 -4.5 54.90625 0.796875 52.796875 2.59375 
C 50.703125 4.40625 46.703125 3.703125 44 3.90625 
C 40.703125 4.203125 37.296875 3.90625 33.90625 3.90625 
C 31 3.90625 29.796875 3.703125 26.90625 3.90625 
C 22.09375 4.296875 29.59375 7.90625 31 9 
C 33.09375 10.703125 35.296875 12.5 37.296875 14.203125 
C 49.40625 24.09375 53.09375 29.90625 53.09375 40.703125 
C 53.09375 52.09375 46.90625 59.296875 36.296875 62.59375 
C 28.5 65.09375 17.796875 62.796875 11.5 57.59375 
C 8.09375 54.796875 4.5 48.90625 4.09375 44.5 
C 3.59375 38.09375 11.90625 33.90625 15.796875 40.09375 
z
" id="BMJUAOTF-32"/>
      </defs>
      <g transform="translate(68.944531 225.895907)scale(0.15 -0.15)">
       <use xlink:href="#BMJUAOTF-79"/>
       <use x="54.799988" xlink:href="#BMJUAOTF-5f"/>
       <use x="107.799973" xlink:href="#BMJUAOTF-2d"/>
       <use x="155.199966" xlink:href="#BMJUAOTF-32"/>
      </g>
     </g>
    </g>
    <g id="ytick_2">
     <g id="line2d_22">
      <g>
       <use style="stroke:#000000;stroke-width:0.8;" x="108" xlink:href="#m3469fa8d5e" y="142.177104"/>
      </g>
     </g>
     <g id="text_22">
      <!-- y_0 -->
      <defs>
       <path d="M 30.703125 -8.296875 
C 37.40625 -8.09375 43.5 -5.203125 48.5 -0.296875 
C 54.09375 5.296875 55.703125 13 56.703125 20.796875 
C 57.203125 25 57.40625 29.296875 56.90625 33.5 
C 55.40625 46.203125 50.09375 59.40625 37.90625 62.296875 
C 33.5 63.296875 27.703125 63.59375 23.40625 62.296875 
C 21.796875 61.703125 20.09375 61 18.59375 60.296875 
C 14.40625 58.40625 9.90625 52.296875 8 47.796875 
C 5.40625 41.5 4 34.5 4 27.703125 
C 4 17.59375 7.40625 7.203125 13.796875 0 
C 16.5 -3.09375 19.796875 -5.703125 23.40625 -7.09375 
C 25.796875 -8 28.296875 -8.296875 30.703125 -8.296875 
z
M 30.59375 50 
C 40.5 50.296875 43.703125 39.59375 44.296875 31.59375 
C 44.90625 23.5 43.90625 11.09375 36.203125 6.40625 
C 33.796875 4.90625 31 4.703125 28.296875 5.40625 
C 25.40625 6.203125 23.203125 8.09375 21.59375 10.5 
C 18.296875 15.5 17.203125 22.09375 17.203125 27.796875 
C 17.203125 33.296875 18.09375 39 20.90625 43.796875 
C 22 45.703125 23.5 47.5 25.296875 48.703125 
C 26.90625 49.703125 28.796875 50 30.59375 50 
z
" id="BMJUAOTF-30"/>
      </defs>
      <g transform="translate(75.65 146.834135)scale(0.15 -0.15)">
       <use xlink:href="#BMJUAOTF-79"/>
       <use x="54.799988" xlink:href="#BMJUAOTF-5f"/>
       <use x="107.799973" xlink:href="#BMJUAOTF-30"/>
      </g>
     </g>
    </g>
    <g id="ytick_3">
     <g id="line2d_23">
      <g>
       <use style="stroke:#000000;stroke-width:0.8;" x="108" xlink:href="#m3469fa8d5e" y="63.227831"/>
      </g>
     </g>
     <g id="text_23">
      <!-- y_2 -->
      <g transform="translate(76.055469 67.997362)scale(0.15 -0.15)">
       <use xlink:href="#BMJUAOTF-79"/>
       <use x="54.799988" xlink:href="#BMJUAOTF-5f"/>
       <use x="107.799973" xlink:href="#BMJUAOTF-32"/>
      </g>
     </g>
    </g>
   </g>
   <g id="line2d_24">
    <path clip-path="url(#p02c05efd25)" d="M 138.436364 163.699549 
L 144.585124 44.443636 
L 150.733884 149.035699 
L 156.882645 110.684173 
L 163.031405 211.856631 
L 169.180165 149.374578 
L 175.328926 141.904324 
L 181.477686 176.065037 
L 187.626446 129.271154 
L 193.775207 168.196773 
L 199.923967 189.531834 
L 206.072727 210.380816 
L 212.221488 196.48632 
L 218.370248 114.762355 
L 224.519008 117.734462 
L 230.667769 116.717775 
L 236.816529 86.015406 
L 242.965289 142.553752 
L 249.11405 150.162391 
L 255.26281 222.808396 
L 261.41157 177.687839 
L 267.560331 141.23824 
L 273.709091 146.301463 
L 279.857851 131.530199 
L 286.006612 217.154635 
L 292.155372 101.396751 
L 298.304132 183.455899 
L 304.452893 137.605133 
L 310.601653 129.143387 
L 316.750413 105.942103 
L 322.899174 182.386006 
L 329.047934 175.98031 
L 335.196694 112.021094 
L 341.345455 89.531986 
L 347.494215 130.284428 
L 353.642975 104.705508 
L 359.791736 162.770711 
L 365.940496 161.74038 
L 372.089256 164.088577 
L 378.238017 103.123521 
L 384.386777 215.212699 
L 390.535537 102.024027 
L 396.684298 154.142328 
L 402.833058 126.384813 
L 408.981818 171.892762 
L 415.130579 86.147432 
L 421.279339 80.233664 
L 427.428099 142.787158 
L 433.57686 128.794254 
L 439.72562 155.949021 
L 445.87438 97.291513 
L 452.02314 206.848211 
L 458.171901 64.924301 
L 464.320661 235.400018 
L 470.469421 177.296216 
L 476.618182 184.323969 
L 482.766942 117.916696 
L 488.915702 118.683174 
L 495.064463 164.605384 
L 501.213223 138.112166 
L 507.361983 127.270649 
L 513.510744 111.685459 
L 519.659504 93.107819 
L 525.808264 187.334478 
L 531.957025 217.599227 
L 538.105785 105.247741 
L 544.254545 152.459191 
L 550.403306 115.742302 
L 556.552066 194.997892 
L 562.700826 158.41591 
L 568.849587 242.116364 
L 574.998347 177.619665 
L 581.147107 181.815119 
L 587.295868 179.44605 
L 593.444628 153.735255 
L 599.593388 153.38439 
L 605.742149 195.268788 
L 611.890909 226.318713 
L 618.039669 95.122231 
L 624.18843 163.37686 
L 630.33719 149.402341 
L 636.48595 143.224378 
L 642.634711 213.338972 
L 648.783471 89.54281 
L 654.932231 152.555038 
L 661.080992 99.641433 
L 667.229752 112.520222 
L 673.378512 141.075125 
L 679.527273 67.085317 
L 685.676033 118.440485 
L 691.824793 144.627575 
L 697.973554 214.822654 
L 704.122314 125.32681 
L 710.271074 104.092163 
L 716.419835 136.16102 
L 722.568595 117.942519 
L 728.717355 212.412929 
L 734.866116 173.068778 
L 741.014876 132.619411 
L 747.163636 137.754407 
" style="fill:none;stroke:#1f77b4;stroke-linecap:square;"/>
    <defs>
     <path d="M 0 -3 
L -0.673542 -0.927051 
L -2.85317 -0.927051 
L -1.089814 0.354102 
L -1.763356 2.427051 
L -0 1.145898 
L 1.763356 2.427051 
L 1.089814 0.354102 
L 2.85317 -0.927051 
L 0.673542 -0.927051 
z
" id="m6cc9ca1fce" style="stroke:#1f77b4;stroke-linejoin:bevel;"/>
    </defs>
    <g clip-path="url(#p02c05efd25)">
     <use style="fill:#1f77b4;stroke:#1f77b4;stroke-linejoin:bevel;" x="138.436364" xlink:href="#m6cc9ca1fce" y="163.699549"/>
     <use style="fill:#1f77b4;stroke:#1f77b4;stroke-linejoin:bevel;" x="144.585124" xlink:href="#m6cc9ca1fce" y="44.443636"/>
     <use style="fill:#1f77b4;stroke:#1f77b4;stroke-linejoin:bevel;" x="150.733884" xlink:href="#m6cc9ca1fce" y="149.035699"/>
     <use style="fill:#1f77b4;stroke:#1f77b4;stroke-linejoin:bevel;" x="156.882645" xlink:href="#m6cc9ca1fce" y="110.684173"/>
     <use style="fill:#1f77b4;stroke:#1f77b4;stroke-linejoin:bevel;" x="163.031405" xlink:href="#m6cc9ca1fce" y="211.856631"/>
     <use style="fill:#1f77b4;stroke:#1f77b4;stroke-linejoin:bevel;" x="169.180165" xlink:href="#m6cc9ca1fce" y="149.374578"/>
     <use style="fill:#1f77b4;stroke:#1f77b4;stroke-linejoin:bevel;" x="175.328926" xlink:href="#m6cc9ca1fce" y="141.904324"/>
     <use style="fill:#1f77b4;stroke:#1f77b4;stroke-linejoin:bevel;" x="181.477686" xlink:href="#m6cc9ca1fce" y="176.065037"/>
     <use style="fill:#1f77b4;stroke:#1f77b4;stroke-linejoin:bevel;" x="187.626446" xlink:href="#m6cc9ca1fce" y="129.271154"/>
     <use style="fill:#1f77b4;stroke:#1f77b4;stroke-linejoin:bevel;" x="193.775207" xlink:href="#m6cc9ca1fce" y="168.196773"/>
     <use style="fill:#1f77b4;stroke:#1f77b4;stroke-linejoin:bevel;" x="199.923967" xlink:href="#m6cc9ca1fce" y="189.531834"/>
     <use style="fill:#1f77b4;stroke:#1f77b4;stroke-linejoin:bevel;" x="206.072727" xlink:href="#m6cc9ca1fce" y="210.380816"/>
     <use style="fill:#1f77b4;stroke:#1f77b4;stroke-linejoin:bevel;" x="212.221488" xlink:href="#m6cc9ca1fce" y="196.48632"/>
     <use style="fill:#1f77b4;stroke:#1f77b4;stroke-linejoin:bevel;" x="218.370248" xlink:href="#m6cc9ca1fce" y="114.762355"/>
     <use style="fill:#1f77b4;stroke:#1f77b4;stroke-linejoin:bevel;" x="224.519008" xlink:href="#m6cc9ca1fce" y="117.734462"/>
     <use style="fill:#1f77b4;stroke:#1f77b4;stroke-linejoin:bevel;" x="230.667769" xlink:href="#m6cc9ca1fce" y="116.717775"/>
     <use style="fill:#1f77b4;stroke:#1f77b4;stroke-linejoin:bevel;" x="236.816529" xlink:href="#m6cc9ca1fce" y="86.015406"/>
     <use style="fill:#1f77b4;stroke:#1f77b4;stroke-linejoin:bevel;" x="242.965289" xlink:href="#m6cc9ca1fce" y="142.553752"/>
     <use style="fill:#1f77b4;stroke:#1f77b4;stroke-linejoin:bevel;" x="249.11405" xlink:href="#m6cc9ca1fce" y="150.162391"/>
     <use style="fill:#1f77b4;stroke:#1f77b4;stroke-linejoin:bevel;" x="255.26281" xlink:href="#m6cc9ca1fce" y="222.808396"/>
     <use style="fill:#1f77b4;stroke:#1f77b4;stroke-linejoin:bevel;" x="261.41157" xlink:href="#m6cc9ca1fce" y="177.687839"/>
     <use style="fill:#1f77b4;stroke:#1f77b4;stroke-linejoin:bevel;" x="267.560331" xlink:href="#m6cc9ca1fce" y="141.23824"/>
     <use style="fill:#1f77b4;stroke:#1f77b4;stroke-linejoin:bevel;" x="273.709091" xlink:href="#m6cc9ca1fce" y="146.301463"/>
     <use style="fill:#1f77b4;stroke:#1f77b4;stroke-linejoin:bevel;" x="279.857851" xlink:href="#m6cc9ca1fce" y="131.530199"/>
     <use style="fill:#1f77b4;stroke:#1f77b4;stroke-linejoin:bevel;" x="286.006612" xlink:href="#m6cc9ca1fce" y="217.154635"/>
     <use style="fill:#1f77b4;stroke:#1f77b4;stroke-linejoin:bevel;" x="292.155372" xlink:href="#m6cc9ca1fce" y="101.396751"/>
     <use style="fill:#1f77b4;stroke:#1f77b4;stroke-linejoin:bevel;" x="298.304132" xlink:href="#m6cc9ca1fce" y="183.455899"/>
     <use style="fill:#1f77b4;stroke:#1f77b4;stroke-linejoin:bevel;" x="304.452893" xlink:href="#m6cc9ca1fce" y="137.605133"/>
     <use style="fill:#1f77b4;stroke:#1f77b4;stroke-linejoin:bevel;" x="310.601653" xlink:href="#m6cc9ca1fce" y="129.143387"/>
     <use style="fill:#1f77b4;stroke:#1f77b4;stroke-linejoin:bevel;" x="316.750413" xlink:href="#m6cc9ca1fce" y="105.942103"/>
     <use style="fill:#1f77b4;stroke:#1f77b4;stroke-linejoin:bevel;" x="322.899174" xlink:href="#m6cc9ca1fce" y="182.386006"/>
     <use style="fill:#1f77b4;stroke:#1f77b4;stroke-linejoin:bevel;" x="329.047934" xlink:href="#m6cc9ca1fce" y="175.98031"/>
     <use style="fill:#1f77b4;stroke:#1f77b4;stroke-linejoin:bevel;" x="335.196694" xlink:href="#m6cc9ca1fce" y="112.021094"/>
     <use style="fill:#1f77b4;stroke:#1f77b4;stroke-linejoin:bevel;" x="341.345455" xlink:href="#m6cc9ca1fce" y="89.531986"/>
     <use style="fill:#1f77b4;stroke:#1f77b4;stroke-linejoin:bevel;" x="347.494215" xlink:href="#m6cc9ca1fce" y="130.284428"/>
     <use style="fill:#1f77b4;stroke:#1f77b4;stroke-linejoin:bevel;" x="353.642975" xlink:href="#m6cc9ca1fce" y="104.705508"/>
     <use style="fill:#1f77b4;stroke:#1f77b4;stroke-linejoin:bevel;" x="359.791736" xlink:href="#m6cc9ca1fce" y="162.770711"/>
     <use style="fill:#1f77b4;stroke:#1f77b4;stroke-linejoin:bevel;" x="365.940496" xlink:href="#m6cc9ca1fce" y="161.74038"/>
     <use style="fill:#1f77b4;stroke:#1f77b4;stroke-linejoin:bevel;" x="372.089256" xlink:href="#m6cc9ca1fce" y="164.088577"/>
     <use style="fill:#1f77b4;stroke:#1f77b4;stroke-linejoin:bevel;" x="378.238017" xlink:href="#m6cc9ca1fce" y="103.123521"/>
     <use style="fill:#1f77b4;stroke:#1f77b4;stroke-linejoin:bevel;" x="384.386777" xlink:href="#m6cc9ca1fce" y="215.212699"/>
     <use style="fill:#1f77b4;stroke:#1f77b4;stroke-linejoin:bevel;" x="390.535537" xlink:href="#m6cc9ca1fce" y="102.024027"/>
     <use style="fill:#1f77b4;stroke:#1f77b4;stroke-linejoin:bevel;" x="396.684298" xlink:href="#m6cc9ca1fce" y="154.142328"/>
     <use style="fill:#1f77b4;stroke:#1f77b4;stroke-linejoin:bevel;" x="402.833058" xlink:href="#m6cc9ca1fce" y="126.384813"/>
     <use style="fill:#1f77b4;stroke:#1f77b4;stroke-linejoin:bevel;" x="408.981818" xlink:href="#m6cc9ca1fce" y="171.892762"/>
     <use style="fill:#1f77b4;stroke:#1f77b4;stroke-linejoin:bevel;" x="415.130579" xlink:href="#m6cc9ca1fce" y="86.147432"/>
     <use style="fill:#1f77b4;stroke:#1f77b4;stroke-linejoin:bevel;" x="421.279339" xlink:href="#m6cc9ca1fce" y="80.233664"/>
     <use style="fill:#1f77b4;stroke:#1f77b4;stroke-linejoin:bevel;" x="427.428099" xlink:href="#m6cc9ca1fce" y="142.787158"/>
     <use style="fill:#1f77b4;stroke:#1f77b4;stroke-linejoin:bevel;" x="433.57686" xlink:href="#m6cc9ca1fce" y="128.794254"/>
     <use style="fill:#1f77b4;stroke:#1f77b4;stroke-linejoin:bevel;" x="439.72562" xlink:href="#m6cc9ca1fce" y="155.949021"/>
     <use style="fill:#1f77b4;stroke:#1f77b4;stroke-linejoin:bevel;" x="445.87438" xlink:href="#m6cc9ca1fce" y="97.291513"/>
     <use style="fill:#1f77b4;stroke:#1f77b4;stroke-linejoin:bevel;" x="452.02314" xlink:href="#m6cc9ca1fce" y="206.848211"/>
     <use style="fill:#1f77b4;stroke:#1f77b4;stroke-linejoin:bevel;" x="458.171901" xlink:href="#m6cc9ca1fce" y="64.924301"/>
     <use style="fill:#1f77b4;stroke:#1f77b4;stroke-linejoin:bevel;" x="464.320661" xlink:href="#m6cc9ca1fce" y="235.400018"/>
     <use style="fill:#1f77b4;stroke:#1f77b4;stroke-linejoin:bevel;" x="470.469421" xlink:href="#m6cc9ca1fce" y="177.296216"/>
     <use style="fill:#1f77b4;stroke:#1f77b4;stroke-linejoin:bevel;" x="476.618182" xlink:href="#m6cc9ca1fce" y="184.323969"/>
     <use style="fill:#1f77b4;stroke:#1f77b4;stroke-linejoin:bevel;" x="482.766942" xlink:href="#m6cc9ca1fce" y="117.916696"/>
     <use style="fill:#1f77b4;stroke:#1f77b4;stroke-linejoin:bevel;" x="488.915702" xlink:href="#m6cc9ca1fce" y="118.683174"/>
     <use style="fill:#1f77b4;stroke:#1f77b4;stroke-linejoin:bevel;" x="495.064463" xlink:href="#m6cc9ca1fce" y="164.605384"/>
     <use style="fill:#1f77b4;stroke:#1f77b4;stroke-linejoin:bevel;" x="501.213223" xlink:href="#m6cc9ca1fce" y="138.112166"/>
     <use style="fill:#1f77b4;stroke:#1f77b4;stroke-linejoin:bevel;" x="507.361983" xlink:href="#m6cc9ca1fce" y="127.270649"/>
     <use style="fill:#1f77b4;stroke:#1f77b4;stroke-linejoin:bevel;" x="513.510744" xlink:href="#m6cc9ca1fce" y="111.685459"/>
     <use style="fill:#1f77b4;stroke:#1f77b4;stroke-linejoin:bevel;" x="519.659504" xlink:href="#m6cc9ca1fce" y="93.107819"/>
     <use style="fill:#1f77b4;stroke:#1f77b4;stroke-linejoin:bevel;" x="525.808264" xlink:href="#m6cc9ca1fce" y="187.334478"/>
     <use style="fill:#1f77b4;stroke:#1f77b4;stroke-linejoin:bevel;" x="531.957025" xlink:href="#m6cc9ca1fce" y="217.599227"/>
     <use style="fill:#1f77b4;stroke:#1f77b4;stroke-linejoin:bevel;" x="538.105785" xlink:href="#m6cc9ca1fce" y="105.247741"/>
     <use style="fill:#1f77b4;stroke:#1f77b4;stroke-linejoin:bevel;" x="544.254545" xlink:href="#m6cc9ca1fce" y="152.459191"/>
     <use style="fill:#1f77b4;stroke:#1f77b4;stroke-linejoin:bevel;" x="550.403306" xlink:href="#m6cc9ca1fce" y="115.742302"/>
     <use style="fill:#1f77b4;stroke:#1f77b4;stroke-linejoin:bevel;" x="556.552066" xlink:href="#m6cc9ca1fce" y="194.997892"/>
     <use style="fill:#1f77b4;stroke:#1f77b4;stroke-linejoin:bevel;" x="562.700826" xlink:href="#m6cc9ca1fce" y="158.41591"/>
     <use style="fill:#1f77b4;stroke:#1f77b4;stroke-linejoin:bevel;" x="568.849587" xlink:href="#m6cc9ca1fce" y="242.116364"/>
     <use style="fill:#1f77b4;stroke:#1f77b4;stroke-linejoin:bevel;" x="574.998347" xlink:href="#m6cc9ca1fce" y="177.619665"/>
     <use style="fill:#1f77b4;stroke:#1f77b4;stroke-linejoin:bevel;" x="581.147107" xlink:href="#m6cc9ca1fce" y="181.815119"/>
     <use style="fill:#1f77b4;stroke:#1f77b4;stroke-linejoin:bevel;" x="587.295868" xlink:href="#m6cc9ca1fce" y="179.44605"/>
     <use style="fill:#1f77b4;stroke:#1f77b4;stroke-linejoin:bevel;" x="593.444628" xlink:href="#m6cc9ca1fce" y="153.735255"/>
     <use style="fill:#1f77b4;stroke:#1f77b4;stroke-linejoin:bevel;" x="599.593388" xlink:href="#m6cc9ca1fce" y="153.38439"/>
     <use style="fill:#1f77b4;stroke:#1f77b4;stroke-linejoin:bevel;" x="605.742149" xlink:href="#m6cc9ca1fce" y="195.268788"/>
     <use style="fill:#1f77b4;stroke:#1f77b4;stroke-linejoin:bevel;" x="611.890909" xlink:href="#m6cc9ca1fce" y="226.318713"/>
     <use style="fill:#1f77b4;stroke:#1f77b4;stroke-linejoin:bevel;" x="618.039669" xlink:href="#m6cc9ca1fce" y="95.122231"/>
     <use style="fill:#1f77b4;stroke:#1f77b4;stroke-linejoin:bevel;" x="624.18843" xlink:href="#m6cc9ca1fce" y="163.37686"/>
     <use style="fill:#1f77b4;stroke:#1f77b4;stroke-linejoin:bevel;" x="630.33719" xlink:href="#m6cc9ca1fce" y="149.402341"/>
     <use style="fill:#1f77b4;stroke:#1f77b4;stroke-linejoin:bevel;" x="636.48595" xlink:href="#m6cc9ca1fce" y="143.224378"/>
     <use style="fill:#1f77b4;stroke:#1f77b4;stroke-linejoin:bevel;" x="642.634711" xlink:href="#m6cc9ca1fce" y="213.338972"/>
     <use style="fill:#1f77b4;stroke:#1f77b4;stroke-linejoin:bevel;" x="648.783471" xlink:href="#m6cc9ca1fce" y="89.54281"/>
     <use style="fill:#1f77b4;stroke:#1f77b4;stroke-linejoin:bevel;" x="654.932231" xlink:href="#m6cc9ca1fce" y="152.555038"/>
     <use style="fill:#1f77b4;stroke:#1f77b4;stroke-linejoin:bevel;" x="661.080992" xlink:href="#m6cc9ca1fce" y="99.641433"/>
     <use style="fill:#1f77b4;stroke:#1f77b4;stroke-linejoin:bevel;" x="667.229752" xlink:href="#m6cc9ca1fce" y="112.520222"/>
     <use style="fill:#1f77b4;stroke:#1f77b4;stroke-linejoin:bevel;" x="673.378512" xlink:href="#m6cc9ca1fce" y="141.075125"/>
     <use style="fill:#1f77b4;stroke:#1f77b4;stroke-linejoin:bevel;" x="679.527273" xlink:href="#m6cc9ca1fce" y="67.085317"/>
     <use style="fill:#1f77b4;stroke:#1f77b4;stroke-linejoin:bevel;" x="685.676033" xlink:href="#m6cc9ca1fce" y="118.440485"/>
     <use style="fill:#1f77b4;stroke:#1f77b4;stroke-linejoin:bevel;" x="691.824793" xlink:href="#m6cc9ca1fce" y="144.627575"/>
     <use style="fill:#1f77b4;stroke:#1f77b4;stroke-linejoin:bevel;" x="697.973554" xlink:href="#m6cc9ca1fce" y="214.822654"/>
     <use style="fill:#1f77b4;stroke:#1f77b4;stroke-linejoin:bevel;" x="704.122314" xlink:href="#m6cc9ca1fce" y="125.32681"/>
     <use style="fill:#1f77b4;stroke:#1f77b4;stroke-linejoin:bevel;" x="710.271074" xlink:href="#m6cc9ca1fce" y="104.092163"/>
     <use style="fill:#1f77b4;stroke:#1f77b4;stroke-linejoin:bevel;" x="716.419835" xlink:href="#m6cc9ca1fce" y="136.16102"/>
     <use style="fill:#1f77b4;stroke:#1f77b4;stroke-linejoin:bevel;" x="722.568595" xlink:href="#m6cc9ca1fce" y="117.942519"/>
     <use style="fill:#1f77b4;stroke:#1f77b4;stroke-linejoin:bevel;" x="728.717355" xlink:href="#m6cc9ca1fce" y="212.412929"/>
     <use style="fill:#1f77b4;stroke:#1f77b4;stroke-linejoin:bevel;" x="734.866116" xlink:href="#m6cc9ca1fce" y="173.068778"/>
     <use style="fill:#1f77b4;stroke:#1f77b4;stroke-linejoin:bevel;" x="741.014876" xlink:href="#m6cc9ca1fce" y="132.619411"/>
     <use style="fill:#1f77b4;stroke:#1f77b4;stroke-linejoin:bevel;" x="747.163636" xlink:href="#m6cc9ca1fce" y="137.754407"/>
    </g>
   </g>
   <g id="patch_3">
    <path d="M 108 252 
L 108 34.56 
" style="fill:none;stroke:#000000;stroke-linecap:square;stroke-linejoin:miter;stroke-width:0.8;"/>
   </g>
   <g id="patch_4">
    <path d="M 777.6 252 
L 777.6 34.56 
" style="fill:none;stroke:#000000;stroke-linecap:square;stroke-linejoin:miter;stroke-width:0.8;"/>
   </g>
   <g id="patch_5">
    <path d="M 108 252 
L 777.6 252 
" style="fill:none;stroke:#000000;stroke-linecap:square;stroke-linejoin:miter;stroke-width:0.8;"/>
   </g>
   <g id="patch_6">
    <path d="M 108 34.56 
L 777.6 34.56 
" style="fill:none;stroke:#000000;stroke-linecap:square;stroke-linejoin:miter;stroke-width:0.8;"/>
   </g>
  </g>
 </g>
 <defs>
  <clipPath id="p02c05efd25">
   <rect height="217.44" width="669.6" x="108" y="34.56"/>
  </clipPath>
 </defs>
</svg>
