<?xml version="1.0" encoding="utf-8" standalone="no"?>
<!DOCTYPE svg PUBLIC "-//W3C//DTD SVG 1.1//EN"
  "http://www.w3.org/Graphics/SVG/1.1/DTD/svg11.dtd">
<!-- Created with matplotlib (http://matplotlib.org/) -->
<svg height="1296pt" version="1.1" viewBox="0 0 864 1296" width="864pt" xmlns="http://www.w3.org/2000/svg" xmlns:xlink="http://www.w3.org/1999/xlink">
 <defs>
  <style type="text/css">
*{stroke-linecap:butt;stroke-linejoin:round;}
  </style>
 </defs>
 <g id="figure_1">
  <g id="patch_1">
   <path d="M 0 1296 
L 864 1296 
L 864 0 
L 0 0 
z
" style="fill:#ffffff;"/>
  </g>
  <g id="axes_1">
   <g id="LineCollection_1">
    <path clip-path="url(#pbe28d9a32b)" d="M 273.078606 162.034223 
L 266.861767 58.69237 
" style="fill:none;stroke:#000000;"/>
    <path clip-path="url(#pbe28d9a32b)" d="M 273.078606 162.034223 
L 186.632593 174.607754 
" style="fill:none;stroke:#000000;"/>
    <path clip-path="url(#pbe28d9a32b)" d="M 273.078606 162.034223 
L 270.619886 282.688182 
" style="fill:none;stroke:#000000;"/>
    <path clip-path="url(#pbe28d9a32b)" d="M 273.078606 162.034223 
L 317.280523 254.993251 
" style="fill:none;stroke:#000000;"/>
    <path clip-path="url(#pbe28d9a32b)" d="M 64.273754 105.349493 
L 110.113139 198.986312 
" style="fill:none;stroke:#000000;"/>
    <path clip-path="url(#pbe28d9a32b)" d="M 64.273754 105.349493 
L 132.701583 113.97208 
" style="fill:none;stroke:#000000;"/>
    <path clip-path="url(#pbe28d9a32b)" d="M 266.861767 58.69237 
L 229.849268 192.448076 
" style="fill:none;stroke:#000000;"/>
    <path clip-path="url(#pbe28d9a32b)" d="M 400.876246 213.015695 
L 317.280523 254.993251 
" style="fill:none;stroke:#000000;"/>
    <path clip-path="url(#pbe28d9a32b)" d="M 189.286851 287.510723 
L 232.222374 314.432388 
" style="fill:none;stroke:#000000;"/>
    <path clip-path="url(#pbe28d9a32b)" d="M 189.286851 287.510723 
L 229.849268 192.448076 
" style="fill:none;stroke:#000000;"/>
    <path clip-path="url(#pbe28d9a32b)" d="M 189.286851 287.510723 
L 210.318291 384.50763 
" style="fill:none;stroke:#000000;"/>
    <path clip-path="url(#pbe28d9a32b)" d="M 189.286851 287.510723 
L 186.632593 174.607754 
" style="fill:none;stroke:#000000;"/>
    <path clip-path="url(#pbe28d9a32b)" d="M 189.286851 287.510723 
L 152.704936 333.180251 
" style="fill:none;stroke:#000000;"/>
    <path clip-path="url(#pbe28d9a32b)" d="M 232.222374 314.432388 
L 229.849268 192.448076 
" style="fill:none;stroke:#000000;"/>
    <path clip-path="url(#pbe28d9a32b)" d="M 232.222374 314.432388 
L 210.318291 384.50763 
" style="fill:none;stroke:#000000;"/>
    <path clip-path="url(#pbe28d9a32b)" d="M 232.222374 314.432388 
L 152.704936 333.180251 
" style="fill:none;stroke:#000000;"/>
    <path clip-path="url(#pbe28d9a32b)" d="M 232.222374 314.432388 
L 317.280523 254.993251 
" style="fill:none;stroke:#000000;"/>
    <path clip-path="url(#pbe28d9a32b)" d="M 110.113139 198.986312 
L 186.632593 174.607754 
" style="fill:none;stroke:#000000;"/>
    <path clip-path="url(#pbe28d9a32b)" d="M 110.113139 198.986312 
L 132.701583 113.97208 
" style="fill:none;stroke:#000000;"/>
    <path clip-path="url(#pbe28d9a32b)" d="M 110.113139 198.986312 
L 152.704936 333.180251 
" style="fill:none;stroke:#000000;"/>
    <path clip-path="url(#pbe28d9a32b)" d="M 391.435193 339.135675 
L 317.280523 254.993251 
" style="fill:none;stroke:#000000;"/>
    <path clip-path="url(#pbe28d9a32b)" d="M 229.849268 192.448076 
L 186.632593 174.607754 
" style="fill:none;stroke:#000000;"/>
    <path clip-path="url(#pbe28d9a32b)" d="M 229.849268 192.448076 
L 132.701583 113.97208 
" style="fill:none;stroke:#000000;"/>
    <path clip-path="url(#pbe28d9a32b)" d="M 229.849268 192.448076 
L 270.619886 282.688182 
" style="fill:none;stroke:#000000;"/>
    <path clip-path="url(#pbe28d9a32b)" d="M 229.849268 192.448076 
L 317.280523 254.993251 
" style="fill:none;stroke:#000000;"/>
    <path clip-path="url(#pbe28d9a32b)" d="M 210.318291 384.50763 
L 270.619886 282.688182 
" style="fill:none;stroke:#000000;"/>
    <path clip-path="url(#pbe28d9a32b)" d="M 210.318291 384.50763 
L 152.704936 333.180251 
" style="fill:none;stroke:#000000;"/>
    <path clip-path="url(#pbe28d9a32b)" d="M 270.619886 282.688182 
L 317.280523 254.993251 
" style="fill:none;stroke:#000000;"/>
   </g>
   <g id="PathCollection_1">
    <defs>
     <path d="M 0 8.660254 
C 2.296726 8.660254 4.499694 7.747755 6.123724 6.123724 
C 7.747755 4.499694 8.660254 2.296726 8.660254 0 
C 8.660254 -2.296726 7.747755 -4.499694 6.123724 -6.123724 
C 4.499694 -7.747755 2.296726 -8.660254 0 -8.660254 
C -2.296726 -8.660254 -4.499694 -7.747755 -6.123724 -6.123724 
C -7.747755 -4.499694 -8.660254 -2.296726 -8.660254 0 
C -8.660254 2.296726 -7.747755 4.499694 -6.123724 6.123724 
C -4.499694 7.747755 -2.296726 8.660254 0 8.660254 
z
" id="m3e9433fb99" style="stroke:#ff0000;"/>
    </defs>
    <g clip-path="url(#pbe28d9a32b)">
     <use style="fill:#ff0000;stroke:#ff0000;" x="273.078606" xlink:href="#m3e9433fb99" y="162.034223"/>
     <use style="fill:#ff0000;stroke:#ff0000;" x="64.273754" xlink:href="#m3e9433fb99" y="105.349493"/>
     <use style="fill:#ff0000;stroke:#ff0000;" x="266.861767" xlink:href="#m3e9433fb99" y="58.69237"/>
     <use style="fill:#ff0000;stroke:#ff0000;" x="400.876246" xlink:href="#m3e9433fb99" y="213.015695"/>
     <use style="fill:#ff0000;stroke:#ff0000;" x="189.286851" xlink:href="#m3e9433fb99" y="287.510723"/>
     <use style="fill:#ff0000;stroke:#ff0000;" x="232.222374" xlink:href="#m3e9433fb99" y="314.432388"/>
     <use style="fill:#ff0000;stroke:#ff0000;" x="110.113139" xlink:href="#m3e9433fb99" y="198.986312"/>
     <use style="fill:#ff0000;stroke:#ff0000;" x="391.435193" xlink:href="#m3e9433fb99" y="339.135675"/>
     <use style="fill:#ff0000;stroke:#ff0000;" x="229.849268" xlink:href="#m3e9433fb99" y="192.448076"/>
     <use style="fill:#ff0000;stroke:#ff0000;" x="210.318291" xlink:href="#m3e9433fb99" y="384.50763"/>
     <use style="fill:#ff0000;stroke:#ff0000;" x="186.632593" xlink:href="#m3e9433fb99" y="174.607754"/>
     <use style="fill:#ff0000;stroke:#ff0000;" x="132.701583" xlink:href="#m3e9433fb99" y="113.97208"/>
     <use style="fill:#ff0000;stroke:#ff0000;" x="270.619886" xlink:href="#m3e9433fb99" y="282.688182"/>
     <use style="fill:#ff0000;stroke:#ff0000;" x="152.704936" xlink:href="#m3e9433fb99" y="333.180251"/>
     <use style="fill:#ff0000;stroke:#ff0000;" x="317.280523" xlink:href="#m3e9433fb99" y="254.993251"/>
    </g>
   </g>
   <g id="text_1">
    <g clip-path="url(#pbe28d9a32b)">
     <!-- 0 -->
     <defs>
      <path d="M 31.78125 66.40625 
Q 24.171875 66.40625 20.328125 58.90625 
Q 16.5 51.421875 16.5 36.375 
Q 16.5 21.390625 20.328125 13.890625 
Q 24.171875 6.390625 31.78125 6.390625 
Q 39.453125 6.390625 43.28125 13.890625 
Q 47.125 21.390625 47.125 36.375 
Q 47.125 51.421875 43.28125 58.90625 
Q 39.453125 66.40625 31.78125 66.40625 
z
M 31.78125 74.21875 
Q 44.046875 74.21875 50.515625 64.515625 
Q 56.984375 54.828125 56.984375 36.375 
Q 56.984375 17.96875 50.515625 8.265625 
Q 44.046875 -1.421875 31.78125 -1.421875 
Q 19.53125 -1.421875 13.0625 8.265625 
Q 6.59375 17.96875 6.59375 36.375 
Q 6.59375 54.828125 13.0625 64.515625 
Q 19.53125 74.21875 31.78125 74.21875 
z
" id="DejaVuSans-30"/>
     </defs>
     <g transform="translate(269.261106 165.345473)scale(0.12 -0.12)">
      <use xlink:href="#DejaVuSans-30"/>
     </g>
    </g>
   </g>
   <g id="text_2">
    <g clip-path="url(#pbe28d9a32b)">
     <!-- 1 -->
     <defs>
      <path d="M 12.40625 8.296875 
L 28.515625 8.296875 
L 28.515625 63.921875 
L 10.984375 60.40625 
L 10.984375 69.390625 
L 28.421875 72.90625 
L 38.28125 72.90625 
L 38.28125 8.296875 
L 54.390625 8.296875 
L 54.390625 0 
L 12.40625 0 
z
" id="DejaVuSans-31"/>
     </defs>
     <g transform="translate(60.456254 108.660743)scale(0.12 -0.12)">
      <use xlink:href="#DejaVuSans-31"/>
     </g>
    </g>
   </g>
   <g id="text_3">
    <g clip-path="url(#pbe28d9a32b)">
     <!-- 2 -->
     <defs>
      <path d="M 19.1875 8.296875 
L 53.609375 8.296875 
L 53.609375 0 
L 7.328125 0 
L 7.328125 8.296875 
Q 12.9375 14.109375 22.625 23.890625 
Q 32.328125 33.6875 34.8125 36.53125 
Q 39.546875 41.84375 41.421875 45.53125 
Q 43.3125 49.21875 43.3125 52.78125 
Q 43.3125 58.59375 39.234375 62.25 
Q 35.15625 65.921875 28.609375 65.921875 
Q 23.96875 65.921875 18.8125 64.3125 
Q 13.671875 62.703125 7.8125 59.421875 
L 7.8125 69.390625 
Q 13.765625 71.78125 18.9375 73 
Q 24.125 74.21875 28.421875 74.21875 
Q 39.75 74.21875 46.484375 68.546875 
Q 53.21875 62.890625 53.21875 53.421875 
Q 53.21875 48.921875 51.53125 44.890625 
Q 49.859375 40.875 45.40625 35.40625 
Q 44.1875 33.984375 37.640625 27.21875 
Q 31.109375 20.453125 19.1875 8.296875 
z
" id="DejaVuSans-32"/>
     </defs>
     <g transform="translate(263.044267 62.00362)scale(0.12 -0.12)">
      <use xlink:href="#DejaVuSans-32"/>
     </g>
    </g>
   </g>
   <g id="text_4">
    <g clip-path="url(#pbe28d9a32b)">
     <!-- 3 -->
     <defs>
      <path d="M 40.578125 39.3125 
Q 47.65625 37.796875 51.625 33 
Q 55.609375 28.21875 55.609375 21.1875 
Q 55.609375 10.40625 48.1875 4.484375 
Q 40.765625 -1.421875 27.09375 -1.421875 
Q 22.515625 -1.421875 17.65625 -0.515625 
Q 12.796875 0.390625 7.625 2.203125 
L 7.625 11.71875 
Q 11.71875 9.328125 16.59375 8.109375 
Q 21.484375 6.890625 26.8125 6.890625 
Q 36.078125 6.890625 40.9375 10.546875 
Q 45.796875 14.203125 45.796875 21.1875 
Q 45.796875 27.640625 41.28125 31.265625 
Q 36.765625 34.90625 28.71875 34.90625 
L 20.21875 34.90625 
L 20.21875 43.015625 
L 29.109375 43.015625 
Q 36.375 43.015625 40.234375 45.921875 
Q 44.09375 48.828125 44.09375 54.296875 
Q 44.09375 59.90625 40.109375 62.90625 
Q 36.140625 65.921875 28.71875 65.921875 
Q 24.65625 65.921875 20.015625 65.03125 
Q 15.375 64.15625 9.8125 62.3125 
L 9.8125 71.09375 
Q 15.4375 72.65625 20.34375 73.4375 
Q 25.25 74.21875 29.59375 74.21875 
Q 40.828125 74.21875 47.359375 69.109375 
Q 53.90625 64.015625 53.90625 55.328125 
Q 53.90625 49.265625 50.4375 45.09375 
Q 46.96875 40.921875 40.578125 39.3125 
z
" id="DejaVuSans-33"/>
     </defs>
     <g transform="translate(397.058746 216.326945)scale(0.12 -0.12)">
      <use xlink:href="#DejaVuSans-33"/>
     </g>
    </g>
   </g>
   <g id="text_5">
    <g clip-path="url(#pbe28d9a32b)">
     <!-- 4 -->
     <defs>
      <path d="M 37.796875 64.3125 
L 12.890625 25.390625 
L 37.796875 25.390625 
z
M 35.203125 72.90625 
L 47.609375 72.90625 
L 47.609375 25.390625 
L 58.015625 25.390625 
L 58.015625 17.1875 
L 47.609375 17.1875 
L 47.609375 0 
L 37.796875 0 
L 37.796875 17.1875 
L 4.890625 17.1875 
L 4.890625 26.703125 
z
" id="DejaVuSans-34"/>
     </defs>
     <g transform="translate(185.469351 290.821973)scale(0.12 -0.12)">
      <use xlink:href="#DejaVuSans-34"/>
     </g>
    </g>
   </g>
   <g id="text_6">
    <g clip-path="url(#pbe28d9a32b)">
     <!-- 5 -->
     <defs>
      <path d="M 10.796875 72.90625 
L 49.515625 72.90625 
L 49.515625 64.59375 
L 19.828125 64.59375 
L 19.828125 46.734375 
Q 21.96875 47.46875 24.109375 47.828125 
Q 26.265625 48.1875 28.421875 48.1875 
Q 40.625 48.1875 47.75 41.5 
Q 54.890625 34.8125 54.890625 23.390625 
Q 54.890625 11.625 47.5625 5.09375 
Q 40.234375 -1.421875 26.90625 -1.421875 
Q 22.3125 -1.421875 17.546875 -0.640625 
Q 12.796875 0.140625 7.71875 1.703125 
L 7.71875 11.625 
Q 12.109375 9.234375 16.796875 8.0625 
Q 21.484375 6.890625 26.703125 6.890625 
Q 35.15625 6.890625 40.078125 11.328125 
Q 45.015625 15.765625 45.015625 23.390625 
Q 45.015625 31 40.078125 35.4375 
Q 35.15625 39.890625 26.703125 39.890625 
Q 22.75 39.890625 18.8125 39.015625 
Q 14.890625 38.140625 10.796875 36.28125 
z
" id="DejaVuSans-35"/>
     </defs>
     <g transform="translate(228.404874 317.743638)scale(0.12 -0.12)">
      <use xlink:href="#DejaVuSans-35"/>
     </g>
    </g>
   </g>
   <g id="text_7">
    <g clip-path="url(#pbe28d9a32b)">
     <!-- 6 -->
     <defs>
      <path d="M 33.015625 40.375 
Q 26.375 40.375 22.484375 35.828125 
Q 18.609375 31.296875 18.609375 23.390625 
Q 18.609375 15.53125 22.484375 10.953125 
Q 26.375 6.390625 33.015625 6.390625 
Q 39.65625 6.390625 43.53125 10.953125 
Q 47.40625 15.53125 47.40625 23.390625 
Q 47.40625 31.296875 43.53125 35.828125 
Q 39.65625 40.375 33.015625 40.375 
z
M 52.59375 71.296875 
L 52.59375 62.3125 
Q 48.875 64.0625 45.09375 64.984375 
Q 41.3125 65.921875 37.59375 65.921875 
Q 27.828125 65.921875 22.671875 59.328125 
Q 17.53125 52.734375 16.796875 39.40625 
Q 19.671875 43.65625 24.015625 45.921875 
Q 28.375 48.1875 33.59375 48.1875 
Q 44.578125 48.1875 50.953125 41.515625 
Q 57.328125 34.859375 57.328125 23.390625 
Q 57.328125 12.15625 50.6875 5.359375 
Q 44.046875 -1.421875 33.015625 -1.421875 
Q 20.359375 -1.421875 13.671875 8.265625 
Q 6.984375 17.96875 6.984375 36.375 
Q 6.984375 53.65625 15.1875 63.9375 
Q 23.390625 74.21875 37.203125 74.21875 
Q 40.921875 74.21875 44.703125 73.484375 
Q 48.484375 72.75 52.59375 71.296875 
z
" id="DejaVuSans-36"/>
     </defs>
     <g transform="translate(106.295639 202.297562)scale(0.12 -0.12)">
      <use xlink:href="#DejaVuSans-36"/>
     </g>
    </g>
   </g>
   <g id="text_8">
    <g clip-path="url(#pbe28d9a32b)">
     <!-- 7 -->
     <defs>
      <path d="M 8.203125 72.90625 
L 55.078125 72.90625 
L 55.078125 68.703125 
L 28.609375 0 
L 18.3125 0 
L 43.21875 64.59375 
L 8.203125 64.59375 
z
" id="DejaVuSans-37"/>
     </defs>
     <g transform="translate(387.617693 342.446925)scale(0.12 -0.12)">
      <use xlink:href="#DejaVuSans-37"/>
     </g>
    </g>
   </g>
   <g id="text_9">
    <g clip-path="url(#pbe28d9a32b)">
     <!-- 8 -->
     <defs>
      <path d="M 31.78125 34.625 
Q 24.75 34.625 20.71875 30.859375 
Q 16.703125 27.09375 16.703125 20.515625 
Q 16.703125 13.921875 20.71875 10.15625 
Q 24.75 6.390625 31.78125 6.390625 
Q 38.8125 6.390625 42.859375 10.171875 
Q 46.921875 13.96875 46.921875 20.515625 
Q 46.921875 27.09375 42.890625 30.859375 
Q 38.875 34.625 31.78125 34.625 
z
M 21.921875 38.8125 
Q 15.578125 40.375 12.03125 44.71875 
Q 8.5 49.078125 8.5 55.328125 
Q 8.5 64.0625 14.71875 69.140625 
Q 20.953125 74.21875 31.78125 74.21875 
Q 42.671875 74.21875 48.875 69.140625 
Q 55.078125 64.0625 55.078125 55.328125 
Q 55.078125 49.078125 51.53125 44.71875 
Q 48 40.375 41.703125 38.8125 
Q 48.828125 37.15625 52.796875 32.3125 
Q 56.78125 27.484375 56.78125 20.515625 
Q 56.78125 9.90625 50.3125 4.234375 
Q 43.84375 -1.421875 31.78125 -1.421875 
Q 19.734375 -1.421875 13.25 4.234375 
Q 6.78125 9.90625 6.78125 20.515625 
Q 6.78125 27.484375 10.78125 32.3125 
Q 14.796875 37.15625 21.921875 38.8125 
z
M 18.3125 54.390625 
Q 18.3125 48.734375 21.84375 45.5625 
Q 25.390625 42.390625 31.78125 42.390625 
Q 38.140625 42.390625 41.71875 45.5625 
Q 45.3125 48.734375 45.3125 54.390625 
Q 45.3125 60.0625 41.71875 63.234375 
Q 38.140625 66.40625 31.78125 66.40625 
Q 25.390625 66.40625 21.84375 63.234375 
Q 18.3125 60.0625 18.3125 54.390625 
z
" id="DejaVuSans-38"/>
     </defs>
     <g transform="translate(226.031768 195.759326)scale(0.12 -0.12)">
      <use xlink:href="#DejaVuSans-38"/>
     </g>
    </g>
   </g>
   <g id="text_10">
    <g clip-path="url(#pbe28d9a32b)">
     <!-- 9 -->
     <defs>
      <path d="M 10.984375 1.515625 
L 10.984375 10.5 
Q 14.703125 8.734375 18.5 7.8125 
Q 22.3125 6.890625 25.984375 6.890625 
Q 35.75 6.890625 40.890625 13.453125 
Q 46.046875 20.015625 46.78125 33.40625 
Q 43.953125 29.203125 39.59375 26.953125 
Q 35.25 24.703125 29.984375 24.703125 
Q 19.046875 24.703125 12.671875 31.3125 
Q 6.296875 37.9375 6.296875 49.421875 
Q 6.296875 60.640625 12.9375 67.421875 
Q 19.578125 74.21875 30.609375 74.21875 
Q 43.265625 74.21875 49.921875 64.515625 
Q 56.59375 54.828125 56.59375 36.375 
Q 56.59375 19.140625 48.40625 8.859375 
Q 40.234375 -1.421875 26.421875 -1.421875 
Q 22.703125 -1.421875 18.890625 -0.6875 
Q 15.09375 0.046875 10.984375 1.515625 
z
M 30.609375 32.421875 
Q 37.25 32.421875 41.125 36.953125 
Q 45.015625 41.5 45.015625 49.421875 
Q 45.015625 57.28125 41.125 61.84375 
Q 37.25 66.40625 30.609375 66.40625 
Q 23.96875 66.40625 20.09375 61.84375 
Q 16.21875 57.28125 16.21875 49.421875 
Q 16.21875 41.5 20.09375 36.953125 
Q 23.96875 32.421875 30.609375 32.421875 
z
" id="DejaVuSans-39"/>
     </defs>
     <g transform="translate(206.500791 387.81888)scale(0.12 -0.12)">
      <use xlink:href="#DejaVuSans-39"/>
     </g>
    </g>
   </g>
   <g id="text_11">
    <g clip-path="url(#pbe28d9a32b)">
     <!-- 10 -->
     <g transform="translate(178.997593 177.919004)scale(0.12 -0.12)">
      <use xlink:href="#DejaVuSans-31"/>
      <use x="63.623047" xlink:href="#DejaVuSans-30"/>
     </g>
    </g>
   </g>
   <g id="text_12">
    <g clip-path="url(#pbe28d9a32b)">
     <!-- 11 -->
     <g transform="translate(125.066583 117.28333)scale(0.12 -0.12)">
      <use xlink:href="#DejaVuSans-31"/>
      <use x="63.623047" xlink:href="#DejaVuSans-31"/>
     </g>
    </g>
   </g>
   <g id="text_13">
    <g clip-path="url(#pbe28d9a32b)">
     <!-- 12 -->
     <g transform="translate(262.984886 285.999432)scale(0.12 -0.12)">
      <use xlink:href="#DejaVuSans-31"/>
      <use x="63.623047" xlink:href="#DejaVuSans-32"/>
     </g>
    </g>
   </g>
   <g id="text_14">
    <g clip-path="url(#pbe28d9a32b)">
     <!-- 13 -->
     <g transform="translate(145.069936 336.491501)scale(0.12 -0.12)">
      <use xlink:href="#DejaVuSans-31"/>
      <use x="63.623047" xlink:href="#DejaVuSans-33"/>
     </g>
    </g>
   </g>
   <g id="text_15">
    <g clip-path="url(#pbe28d9a32b)">
     <!-- 14 -->
     <g transform="translate(309.645523 258.304501)scale(0.12 -0.12)">
      <use xlink:href="#DejaVuSans-31"/>
      <use x="63.623047" xlink:href="#DejaVuSans-34"/>
     </g>
    </g>
   </g>
   <g id="text_16">
    <!-- spring layout -->
    <defs>
     <path d="M 44.28125 53.078125 
L 44.28125 44.578125 
Q 40.484375 46.53125 36.375 47.5 
Q 32.28125 48.484375 27.875 48.484375 
Q 21.1875 48.484375 17.84375 46.4375 
Q 14.5 44.390625 14.5 40.28125 
Q 14.5 37.15625 16.890625 35.375 
Q 19.28125 33.59375 26.515625 31.984375 
L 29.59375 31.296875 
Q 39.15625 29.25 43.1875 25.515625 
Q 47.21875 21.78125 47.21875 15.09375 
Q 47.21875 7.46875 41.1875 3.015625 
Q 35.15625 -1.421875 24.609375 -1.421875 
Q 20.21875 -1.421875 15.453125 -0.5625 
Q 10.6875 0.296875 5.421875 2 
L 5.421875 11.28125 
Q 10.40625 8.6875 15.234375 7.390625 
Q 20.0625 6.109375 24.8125 6.109375 
Q 31.15625 6.109375 34.5625 8.28125 
Q 37.984375 10.453125 37.984375 14.40625 
Q 37.984375 18.0625 35.515625 20.015625 
Q 33.0625 21.96875 24.703125 23.78125 
L 21.578125 24.515625 
Q 13.234375 26.265625 9.515625 29.90625 
Q 5.8125 33.546875 5.8125 39.890625 
Q 5.8125 47.609375 11.28125 51.796875 
Q 16.75 56 26.8125 56 
Q 31.78125 56 36.171875 55.265625 
Q 40.578125 54.546875 44.28125 53.078125 
z
" id="DejaVuSans-73"/>
     <path d="M 18.109375 8.203125 
L 18.109375 -20.796875 
L 9.078125 -20.796875 
L 9.078125 54.6875 
L 18.109375 54.6875 
L 18.109375 46.390625 
Q 20.953125 51.265625 25.265625 53.625 
Q 29.59375 56 35.59375 56 
Q 45.5625 56 51.78125 48.09375 
Q 58.015625 40.1875 58.015625 27.296875 
Q 58.015625 14.40625 51.78125 6.484375 
Q 45.5625 -1.421875 35.59375 -1.421875 
Q 29.59375 -1.421875 25.265625 0.953125 
Q 20.953125 3.328125 18.109375 8.203125 
z
M 48.6875 27.296875 
Q 48.6875 37.203125 44.609375 42.84375 
Q 40.53125 48.484375 33.40625 48.484375 
Q 26.265625 48.484375 22.1875 42.84375 
Q 18.109375 37.203125 18.109375 27.296875 
Q 18.109375 17.390625 22.1875 11.75 
Q 26.265625 6.109375 33.40625 6.109375 
Q 40.53125 6.109375 44.609375 11.75 
Q 48.6875 17.390625 48.6875 27.296875 
z
" id="DejaVuSans-70"/>
     <path d="M 41.109375 46.296875 
Q 39.59375 47.171875 37.8125 47.578125 
Q 36.03125 48 33.890625 48 
Q 26.265625 48 22.1875 43.046875 
Q 18.109375 38.09375 18.109375 28.8125 
L 18.109375 0 
L 9.078125 0 
L 9.078125 54.6875 
L 18.109375 54.6875 
L 18.109375 46.1875 
Q 20.953125 51.171875 25.484375 53.578125 
Q 30.03125 56 36.53125 56 
Q 37.453125 56 38.578125 55.875 
Q 39.703125 55.765625 41.0625 55.515625 
z
" id="DejaVuSans-72"/>
     <path d="M 9.421875 54.6875 
L 18.40625 54.6875 
L 18.40625 0 
L 9.421875 0 
z
M 9.421875 75.984375 
L 18.40625 75.984375 
L 18.40625 64.59375 
L 9.421875 64.59375 
z
" id="DejaVuSans-69"/>
     <path d="M 54.890625 33.015625 
L 54.890625 0 
L 45.90625 0 
L 45.90625 32.71875 
Q 45.90625 40.484375 42.875 44.328125 
Q 39.84375 48.1875 33.796875 48.1875 
Q 26.515625 48.1875 22.3125 43.546875 
Q 18.109375 38.921875 18.109375 30.90625 
L 18.109375 0 
L 9.078125 0 
L 9.078125 54.6875 
L 18.109375 54.6875 
L 18.109375 46.1875 
Q 21.34375 51.125 25.703125 53.5625 
Q 30.078125 56 35.796875 56 
Q 45.21875 56 50.046875 50.171875 
Q 54.890625 44.34375 54.890625 33.015625 
z
" id="DejaVuSans-6e"/>
     <path d="M 45.40625 27.984375 
Q 45.40625 37.75 41.375 43.109375 
Q 37.359375 48.484375 30.078125 48.484375 
Q 22.859375 48.484375 18.828125 43.109375 
Q 14.796875 37.75 14.796875 27.984375 
Q 14.796875 18.265625 18.828125 12.890625 
Q 22.859375 7.515625 30.078125 7.515625 
Q 37.359375 7.515625 41.375 12.890625 
Q 45.40625 18.265625 45.40625 27.984375 
z
M 54.390625 6.78125 
Q 54.390625 -7.171875 48.1875 -13.984375 
Q 42 -20.796875 29.203125 -20.796875 
Q 24.46875 -20.796875 20.265625 -20.09375 
Q 16.0625 -19.390625 12.109375 -17.921875 
L 12.109375 -9.1875 
Q 16.0625 -11.328125 19.921875 -12.34375 
Q 23.78125 -13.375 27.78125 -13.375 
Q 36.625 -13.375 41.015625 -8.765625 
Q 45.40625 -4.15625 45.40625 5.171875 
L 45.40625 9.625 
Q 42.625 4.78125 38.28125 2.390625 
Q 33.9375 0 27.875 0 
Q 17.828125 0 11.671875 7.65625 
Q 5.515625 15.328125 5.515625 27.984375 
Q 5.515625 40.671875 11.671875 48.328125 
Q 17.828125 56 27.875 56 
Q 33.9375 56 38.28125 53.609375 
Q 42.625 51.21875 45.40625 46.390625 
L 45.40625 54.6875 
L 54.390625 54.6875 
z
" id="DejaVuSans-67"/>
     <path id="DejaVuSans-20"/>
     <path d="M 9.421875 75.984375 
L 18.40625 75.984375 
L 18.40625 0 
L 9.421875 0 
z
" id="DejaVuSans-6c"/>
     <path d="M 34.28125 27.484375 
Q 23.390625 27.484375 19.1875 25 
Q 14.984375 22.515625 14.984375 16.5 
Q 14.984375 11.71875 18.140625 8.90625 
Q 21.296875 6.109375 26.703125 6.109375 
Q 34.1875 6.109375 38.703125 11.40625 
Q 43.21875 16.703125 43.21875 25.484375 
L 43.21875 27.484375 
z
M 52.203125 31.203125 
L 52.203125 0 
L 43.21875 0 
L 43.21875 8.296875 
Q 40.140625 3.328125 35.546875 0.953125 
Q 30.953125 -1.421875 24.3125 -1.421875 
Q 15.921875 -1.421875 10.953125 3.296875 
Q 6 8.015625 6 15.921875 
Q 6 25.140625 12.171875 29.828125 
Q 18.359375 34.515625 30.609375 34.515625 
L 43.21875 34.515625 
L 43.21875 35.40625 
Q 43.21875 41.609375 39.140625 45 
Q 35.0625 48.390625 27.6875 48.390625 
Q 23 48.390625 18.546875 47.265625 
Q 14.109375 46.140625 10.015625 43.890625 
L 10.015625 52.203125 
Q 14.9375 54.109375 19.578125 55.046875 
Q 24.21875 56 28.609375 56 
Q 40.484375 56 46.34375 49.84375 
Q 52.203125 43.703125 52.203125 31.203125 
z
" id="DejaVuSans-61"/>
     <path d="M 32.171875 -5.078125 
Q 28.375 -14.84375 24.75 -17.8125 
Q 21.140625 -20.796875 15.09375 -20.796875 
L 7.90625 -20.796875 
L 7.90625 -13.28125 
L 13.1875 -13.28125 
Q 16.890625 -13.28125 18.9375 -11.515625 
Q 21 -9.765625 23.484375 -3.21875 
L 25.09375 0.875 
L 2.984375 54.6875 
L 12.5 54.6875 
L 29.59375 11.921875 
L 46.6875 54.6875 
L 56.203125 54.6875 
z
" id="DejaVuSans-79"/>
     <path d="M 30.609375 48.390625 
Q 23.390625 48.390625 19.1875 42.75 
Q 14.984375 37.109375 14.984375 27.296875 
Q 14.984375 17.484375 19.15625 11.84375 
Q 23.34375 6.203125 30.609375 6.203125 
Q 37.796875 6.203125 41.984375 11.859375 
Q 46.1875 17.53125 46.1875 27.296875 
Q 46.1875 37.015625 41.984375 42.703125 
Q 37.796875 48.390625 30.609375 48.390625 
z
M 30.609375 56 
Q 42.328125 56 49.015625 48.375 
Q 55.71875 40.765625 55.71875 27.296875 
Q 55.71875 13.875 49.015625 6.21875 
Q 42.328125 -1.421875 30.609375 -1.421875 
Q 18.84375 -1.421875 12.171875 6.21875 
Q 5.515625 13.875 5.515625 27.296875 
Q 5.515625 40.765625 12.171875 48.375 
Q 18.84375 56 30.609375 56 
z
" id="DejaVuSans-6f"/>
     <path d="M 8.5 21.578125 
L 8.5 54.6875 
L 17.484375 54.6875 
L 17.484375 21.921875 
Q 17.484375 14.15625 20.5 10.265625 
Q 23.53125 6.390625 29.59375 6.390625 
Q 36.859375 6.390625 41.078125 11.03125 
Q 45.3125 15.671875 45.3125 23.6875 
L 45.3125 54.6875 
L 54.296875 54.6875 
L 54.296875 0 
L 45.3125 0 
L 45.3125 8.40625 
Q 42.046875 3.421875 37.71875 1 
Q 33.40625 -1.421875 27.6875 -1.421875 
Q 18.265625 -1.421875 13.375 4.4375 
Q 8.5 10.296875 8.5 21.578125 
z
M 31.109375 56 
z
" id="DejaVuSans-75"/>
     <path d="M 18.3125 70.21875 
L 18.3125 54.6875 
L 36.8125 54.6875 
L 36.8125 47.703125 
L 18.3125 47.703125 
L 18.3125 18.015625 
Q 18.3125 11.328125 20.140625 9.421875 
Q 21.96875 7.515625 27.59375 7.515625 
L 36.8125 7.515625 
L 36.8125 0 
L 27.59375 0 
Q 17.1875 0 13.234375 3.875 
Q 9.28125 7.765625 9.28125 18.015625 
L 9.28125 47.703125 
L 2.6875 47.703125 
L 2.6875 54.6875 
L 9.28125 54.6875 
L 9.28125 70.21875 
z
" id="DejaVuSans-74"/>
    </defs>
    <g transform="translate(167.0625 25.8)scale(0.2 -0.2)">
     <use xlink:href="#DejaVuSans-73"/>
     <use x="52.099609" xlink:href="#DejaVuSans-70"/>
     <use x="115.576172" xlink:href="#DejaVuSans-72"/>
     <use x="156.689453" xlink:href="#DejaVuSans-69"/>
     <use x="184.472656" xlink:href="#DejaVuSans-6e"/>
     <use x="247.851562" xlink:href="#DejaVuSans-67"/>
     <use x="311.328125" xlink:href="#DejaVuSans-20"/>
     <use x="343.115234" xlink:href="#DejaVuSans-6c"/>
     <use x="370.898438" xlink:href="#DejaVuSans-61"/>
     <use x="432.177734" xlink:href="#DejaVuSans-79"/>
     <use x="491.357422" xlink:href="#DejaVuSans-6f"/>
     <use x="552.539062" xlink:href="#DejaVuSans-75"/>
     <use x="615.917969" xlink:href="#DejaVuSans-74"/>
    </g>
   </g>
  </g>
  <g id="axes_2">
   <g id="LineCollection_2">
    <path clip-path="url(#p0431708660)" d="M 660.137927 221.6 
L 673.696254 221.6 
" style="fill:none;stroke:#000000;"/>
    <path clip-path="url(#p0431708660)" d="M 660.137927 221.6 
L 712.447198 221.6 
" style="fill:none;stroke:#000000;"/>
    <path clip-path="url(#p0431708660)" d="M 660.137927 221.6 
L 659.664381 221.6 
" style="fill:none;stroke:#000000;"/>
    <path clip-path="url(#p0431708660)" d="M 660.137927 221.6 
L 605.826762 221.6 
" style="fill:none;stroke:#000000;"/>
    <path clip-path="url(#p0431708660)" d="M 825.374541 221.6 
L 775.756303 221.6 
" style="fill:none;stroke:#000000;"/>
    <path clip-path="url(#p0431708660)" d="M 825.374541 221.6 
L 785.47971 221.6 
" style="fill:none;stroke:#000000;"/>
    <path clip-path="url(#p0431708660)" d="M 673.696254 221.6 
L 690.083166 221.6 
" style="fill:none;stroke:#000000;"/>
    <path clip-path="url(#p0431708660)" d="M 492.975459 54.095177 
L 605.826762 221.6 
" style="fill:none;stroke:#000000;"/>
    <path clip-path="url(#p0431708660)" d="M 703.048428 221.6 
L 683.271676 221.6 
" style="fill:none;stroke:#000000;"/>
    <path clip-path="url(#p0431708660)" d="M 703.048428 221.6 
L 690.083166 221.6 
" style="fill:none;stroke:#000000;"/>
    <path clip-path="url(#p0431708660)" d="M 703.048428 221.6 
L 693.980849 221.6 
" style="fill:none;stroke:#000000;"/>
    <path clip-path="url(#p0431708660)" d="M 703.048428 221.6 
L 712.447198 221.6 
" style="fill:none;stroke:#000000;"/>
    <path clip-path="url(#p0431708660)" d="M 703.048428 221.6 
L 720.418249 221.6 
" style="fill:none;stroke:#000000;"/>
    <path clip-path="url(#p0431708660)" d="M 683.271676 221.6 
L 690.083166 221.6 
" style="fill:none;stroke:#000000;"/>
    <path clip-path="url(#p0431708660)" d="M 683.271676 221.6 
L 693.980849 221.6 
" style="fill:none;stroke:#000000;"/>
    <path clip-path="url(#p0431708660)" d="M 683.271676 221.6 
L 720.418249 221.6 
" style="fill:none;stroke:#000000;"/>
    <path clip-path="url(#p0431708660)" d="M 683.271676 221.6 
L 605.826762 221.6 
" style="fill:none;stroke:#000000;"/>
    <path clip-path="url(#p0431708660)" d="M 775.756303 221.6 
L 712.447198 221.6 
" style="fill:none;stroke:#000000;"/>
    <path clip-path="url(#p0431708660)" d="M 775.756303 221.6 
L 785.47971 221.6 
" style="fill:none;stroke:#000000;"/>
    <path clip-path="url(#p0431708660)" d="M 775.756303 221.6 
L 720.418249 221.6 
" style="fill:none;stroke:#000000;"/>
    <path clip-path="url(#p0431708660)" d="M 492.975459 389.104823 
L 605.826762 221.6 
" style="fill:none;stroke:#000000;"/>
    <path clip-path="url(#p0431708660)" d="M 690.083166 221.6 
L 712.447198 221.6 
" style="fill:none;stroke:#000000;"/>
    <path clip-path="url(#p0431708660)" d="M 690.083166 221.6 
L 785.47971 221.6 
" style="fill:none;stroke:#000000;"/>
    <path clip-path="url(#p0431708660)" d="M 690.083166 221.6 
L 659.664381 221.6 
" style="fill:none;stroke:#000000;"/>
    <path clip-path="url(#p0431708660)" d="M 690.083166 221.6 
L 605.826762 221.6 
" style="fill:none;stroke:#000000;"/>
    <path clip-path="url(#p0431708660)" d="M 693.980849 221.6 
L 659.664381 221.6 
" style="fill:none;stroke:#000000;"/>
    <path clip-path="url(#p0431708660)" d="M 693.980849 221.6 
L 720.418249 221.6 
" style="fill:none;stroke:#000000;"/>
    <path clip-path="url(#p0431708660)" d="M 659.664381 221.6 
L 605.826762 221.6 
" style="fill:none;stroke:#000000;"/>
   </g>
   <g id="PathCollection_2">
    <g clip-path="url(#p0431708660)">
     <use style="fill:#ff0000;stroke:#ff0000;" x="660.137927" xlink:href="#m3e9433fb99" y="221.6"/>
     <use style="fill:#ff0000;stroke:#ff0000;" x="825.374541" xlink:href="#m3e9433fb99" y="221.6"/>
     <use style="fill:#ff0000;stroke:#ff0000;" x="673.696254" xlink:href="#m3e9433fb99" y="221.6"/>
     <use style="fill:#ff0000;stroke:#ff0000;" x="492.975459" xlink:href="#m3e9433fb99" y="54.095177"/>
     <use style="fill:#ff0000;stroke:#ff0000;" x="703.048428" xlink:href="#m3e9433fb99" y="221.6"/>
     <use style="fill:#ff0000;stroke:#ff0000;" x="683.271676" xlink:href="#m3e9433fb99" y="221.6"/>
     <use style="fill:#ff0000;stroke:#ff0000;" x="775.756303" xlink:href="#m3e9433fb99" y="221.6"/>
     <use style="fill:#ff0000;stroke:#ff0000;" x="492.975459" xlink:href="#m3e9433fb99" y="389.104823"/>
     <use style="fill:#ff0000;stroke:#ff0000;" x="690.083166" xlink:href="#m3e9433fb99" y="221.6"/>
     <use style="fill:#ff0000;stroke:#ff0000;" x="693.980849" xlink:href="#m3e9433fb99" y="221.6"/>
     <use style="fill:#ff0000;stroke:#ff0000;" x="712.447198" xlink:href="#m3e9433fb99" y="221.6"/>
     <use style="fill:#ff0000;stroke:#ff0000;" x="785.47971" xlink:href="#m3e9433fb99" y="221.6"/>
     <use style="fill:#ff0000;stroke:#ff0000;" x="659.664381" xlink:href="#m3e9433fb99" y="221.6"/>
     <use style="fill:#ff0000;stroke:#ff0000;" x="720.418249" xlink:href="#m3e9433fb99" y="221.6"/>
     <use style="fill:#ff0000;stroke:#ff0000;" x="605.826762" xlink:href="#m3e9433fb99" y="221.6"/>
    </g>
   </g>
   <g id="text_17">
    <g clip-path="url(#p0431708660)">
     <!-- 0 -->
     <g transform="translate(656.320427 224.91125)scale(0.12 -0.12)">
      <use xlink:href="#DejaVuSans-30"/>
     </g>
    </g>
   </g>
   <g id="text_18">
    <g clip-path="url(#p0431708660)">
     <!-- 1 -->
     <g transform="translate(821.557041 224.91125)scale(0.12 -0.12)">
      <use xlink:href="#DejaVuSans-31"/>
     </g>
    </g>
   </g>
   <g id="text_19">
    <g clip-path="url(#p0431708660)">
     <!-- 2 -->
     <g transform="translate(669.878754 224.91125)scale(0.12 -0.12)">
      <use xlink:href="#DejaVuSans-32"/>
     </g>
    </g>
   </g>
   <g id="text_20">
    <g clip-path="url(#p0431708660)">
     <!-- 3 -->
     <g transform="translate(489.157959 57.406427)scale(0.12 -0.12)">
      <use xlink:href="#DejaVuSans-33"/>
     </g>
    </g>
   </g>
   <g id="text_21">
    <g clip-path="url(#p0431708660)">
     <!-- 4 -->
     <g transform="translate(699.230928 224.91125)scale(0.12 -0.12)">
      <use xlink:href="#DejaVuSans-34"/>
     </g>
    </g>
   </g>
   <g id="text_22">
    <g clip-path="url(#p0431708660)">
     <!-- 5 -->
     <g transform="translate(679.454176 224.91125)scale(0.12 -0.12)">
      <use xlink:href="#DejaVuSans-35"/>
     </g>
    </g>
   </g>
   <g id="text_23">
    <g clip-path="url(#p0431708660)">
     <!-- 6 -->
     <g transform="translate(771.938803 224.91125)scale(0.12 -0.12)">
      <use xlink:href="#DejaVuSans-36"/>
     </g>
    </g>
   </g>
   <g id="text_24">
    <g clip-path="url(#p0431708660)">
     <!-- 7 -->
     <g transform="translate(489.157959 392.416073)scale(0.12 -0.12)">
      <use xlink:href="#DejaVuSans-37"/>
     </g>
    </g>
   </g>
   <g id="text_25">
    <g clip-path="url(#p0431708660)">
     <!-- 8 -->
     <g transform="translate(686.265666 224.91125)scale(0.12 -0.12)">
      <use xlink:href="#DejaVuSans-38"/>
     </g>
    </g>
   </g>
   <g id="text_26">
    <g clip-path="url(#p0431708660)">
     <!-- 9 -->
     <g transform="translate(690.163349 224.91125)scale(0.12 -0.12)">
      <use xlink:href="#DejaVuSans-39"/>
     </g>
    </g>
   </g>
   <g id="text_27">
    <g clip-path="url(#p0431708660)">
     <!-- 10 -->
     <g transform="translate(704.812198 224.91125)scale(0.12 -0.12)">
      <use xlink:href="#DejaVuSans-31"/>
      <use x="63.623047" xlink:href="#DejaVuSans-30"/>
     </g>
    </g>
   </g>
   <g id="text_28">
    <g clip-path="url(#p0431708660)">
     <!-- 11 -->
     <g transform="translate(777.84471 224.91125)scale(0.12 -0.12)">
      <use xlink:href="#DejaVuSans-31"/>
      <use x="63.623047" xlink:href="#DejaVuSans-31"/>
     </g>
    </g>
   </g>
   <g id="text_29">
    <g clip-path="url(#p0431708660)">
     <!-- 12 -->
     <g transform="translate(652.029381 224.91125)scale(0.12 -0.12)">
      <use xlink:href="#DejaVuSans-31"/>
      <use x="63.623047" xlink:href="#DejaVuSans-32"/>
     </g>
    </g>
   </g>
   <g id="text_30">
    <g clip-path="url(#p0431708660)">
     <!-- 13 -->
     <g transform="translate(712.783249 224.91125)scale(0.12 -0.12)">
      <use xlink:href="#DejaVuSans-31"/>
      <use x="63.623047" xlink:href="#DejaVuSans-33"/>
     </g>
    </g>
   </g>
   <g id="text_31">
    <g clip-path="url(#p0431708660)">
     <!-- 14 -->
     <g transform="translate(598.191762 224.91125)scale(0.12 -0.12)">
      <use xlink:href="#DejaVuSans-31"/>
      <use x="63.623047" xlink:href="#DejaVuSans-34"/>
     </g>
    </g>
   </g>
   <g id="text_32">
    <!-- spectral layout -->
    <defs>
     <path d="M 56.203125 29.59375 
L 56.203125 25.203125 
L 14.890625 25.203125 
Q 15.484375 15.921875 20.484375 11.0625 
Q 25.484375 6.203125 34.421875 6.203125 
Q 39.59375 6.203125 44.453125 7.46875 
Q 49.3125 8.734375 54.109375 11.28125 
L 54.109375 2.78125 
Q 49.265625 0.734375 44.1875 -0.34375 
Q 39.109375 -1.421875 33.890625 -1.421875 
Q 20.796875 -1.421875 13.15625 6.1875 
Q 5.515625 13.8125 5.515625 26.8125 
Q 5.515625 40.234375 12.765625 48.109375 
Q 20.015625 56 32.328125 56 
Q 43.359375 56 49.78125 48.890625 
Q 56.203125 41.796875 56.203125 29.59375 
z
M 47.21875 32.234375 
Q 47.125 39.59375 43.09375 43.984375 
Q 39.0625 48.390625 32.421875 48.390625 
Q 24.90625 48.390625 20.390625 44.140625 
Q 15.875 39.890625 15.1875 32.171875 
z
" id="DejaVuSans-65"/>
     <path d="M 48.78125 52.59375 
L 48.78125 44.1875 
Q 44.96875 46.296875 41.140625 47.34375 
Q 37.3125 48.390625 33.40625 48.390625 
Q 24.65625 48.390625 19.8125 42.84375 
Q 14.984375 37.3125 14.984375 27.296875 
Q 14.984375 17.28125 19.8125 11.734375 
Q 24.65625 6.203125 33.40625 6.203125 
Q 37.3125 6.203125 41.140625 7.25 
Q 44.96875 8.296875 48.78125 10.40625 
L 48.78125 2.09375 
Q 45.015625 0.34375 40.984375 -0.53125 
Q 36.96875 -1.421875 32.421875 -1.421875 
Q 20.0625 -1.421875 12.78125 6.34375 
Q 5.515625 14.109375 5.515625 27.296875 
Q 5.515625 40.671875 12.859375 48.328125 
Q 20.21875 56 33.015625 56 
Q 37.15625 56 41.109375 55.140625 
Q 45.0625 54.296875 48.78125 52.59375 
z
" id="DejaVuSans-63"/>
    </defs>
    <g transform="translate(584.648438 25.8)scale(0.2 -0.2)">
     <use xlink:href="#DejaVuSans-73"/>
     <use x="52.099609" xlink:href="#DejaVuSans-70"/>
     <use x="115.576172" xlink:href="#DejaVuSans-65"/>
     <use x="177.099609" xlink:href="#DejaVuSans-63"/>
     <use x="232.080078" xlink:href="#DejaVuSans-74"/>
     <use x="271.289062" xlink:href="#DejaVuSans-72"/>
     <use x="312.402344" xlink:href="#DejaVuSans-61"/>
     <use x="373.681641" xlink:href="#DejaVuSans-6c"/>
     <use x="401.464844" xlink:href="#DejaVuSans-20"/>
     <use x="433.251953" xlink:href="#DejaVuSans-6c"/>
     <use x="461.035156" xlink:href="#DejaVuSans-61"/>
     <use x="522.314453" xlink:href="#DejaVuSans-79"/>
     <use x="581.494141" xlink:href="#DejaVuSans-6f"/>
     <use x="642.675781" xlink:href="#DejaVuSans-75"/>
     <use x="706.054688" xlink:href="#DejaVuSans-74"/>
    </g>
   </g>
  </g>
  <g id="axes_3">
   <g id="LineCollection_3">
    <path clip-path="url(#p6d944950fa)" d="M 400.936138 649.999999 
L 344.615215 524.854122 
" style="fill:none;stroke:#000000;"/>
    <path clip-path="url(#p6d944950fa)" d="M 400.936138 649.999999 
L 145.604654 795.839022 
" style="fill:none;stroke:#000000;"/>
    <path clip-path="url(#p6d944950fa)" d="M 400.936138 649.999999 
L 283.316349 810.158279 
" style="fill:none;stroke:#000000;"/>
    <path clip-path="url(#p6d944950fa)" d="M 400.936138 649.999999 
L 386.219786 718.494584 
" style="fill:none;stroke:#000000;"/>
    <path clip-path="url(#p6d944950fa)" d="M 386.219766 581.505391 
L 93.003434 551.01675 
" style="fill:none;stroke:#000000;"/>
    <path clip-path="url(#p6d944950fa)" d="M 386.219766 581.505391 
L 212.922223 817.477874 
" style="fill:none;stroke:#000000;"/>
    <path clip-path="url(#p6d944950fa)" d="M 344.615215 524.854122 
L 64.213872 685.012424 
" style="fill:none;stroke:#000000;"/>
    <path clip-path="url(#p6d944950fa)" d="M 283.316324 489.841711 
L 386.219786 718.494584 
" style="fill:none;stroke:#000000;"/>
    <path clip-path="url(#p6d944950fa)" d="M 212.922194 482.522126 
L 145.604624 504.160988 
" style="fill:none;stroke:#000000;"/>
    <path clip-path="url(#p6d944950fa)" d="M 212.922194 482.522126 
L 64.213872 685.012424 
" style="fill:none;stroke:#000000;"/>
    <path clip-path="url(#p6d944950fa)" d="M 212.922194 482.522126 
L 93.003454 748.98328 
" style="fill:none;stroke:#000000;"/>
    <path clip-path="url(#p6d944950fa)" d="M 212.922194 482.522126 
L 145.604654 795.839022 
" style="fill:none;stroke:#000000;"/>
    <path clip-path="url(#p6d944950fa)" d="M 212.922194 482.522126 
L 344.615246 775.145858 
" style="fill:none;stroke:#000000;"/>
    <path clip-path="url(#p6d944950fa)" d="M 145.604624 504.160988 
L 64.213872 685.012424 
" style="fill:none;stroke:#000000;"/>
    <path clip-path="url(#p6d944950fa)" d="M 145.604624 504.160988 
L 93.003454 748.98328 
" style="fill:none;stroke:#000000;"/>
    <path clip-path="url(#p6d944950fa)" d="M 145.604624 504.160988 
L 344.615246 775.145858 
" style="fill:none;stroke:#000000;"/>
    <path clip-path="url(#p6d944950fa)" d="M 145.604624 504.160988 
L 386.219786 718.494584 
" style="fill:none;stroke:#000000;"/>
    <path clip-path="url(#p6d944950fa)" d="M 93.003434 551.01675 
L 145.604654 795.839022 
" style="fill:none;stroke:#000000;"/>
    <path clip-path="url(#p6d944950fa)" d="M 93.003434 551.01675 
L 212.922223 817.477874 
" style="fill:none;stroke:#000000;"/>
    <path clip-path="url(#p6d944950fa)" d="M 93.003434 551.01675 
L 344.615246 775.145858 
" style="fill:none;stroke:#000000;"/>
    <path clip-path="url(#p6d944950fa)" d="M 64.213862 614.987601 
L 386.219786 718.494584 
" style="fill:none;stroke:#000000;"/>
    <path clip-path="url(#p6d944950fa)" d="M 64.213872 685.012424 
L 145.604654 795.839022 
" style="fill:none;stroke:#000000;"/>
    <path clip-path="url(#p6d944950fa)" d="M 64.213872 685.012424 
L 212.922223 817.477874 
" style="fill:none;stroke:#000000;"/>
    <path clip-path="url(#p6d944950fa)" d="M 64.213872 685.012424 
L 283.316349 810.158279 
" style="fill:none;stroke:#000000;"/>
    <path clip-path="url(#p6d944950fa)" d="M 64.213872 685.012424 
L 386.219786 718.494584 
" style="fill:none;stroke:#000000;"/>
    <path clip-path="url(#p6d944950fa)" d="M 93.003454 748.98328 
L 283.316349 810.158279 
" style="fill:none;stroke:#000000;"/>
    <path clip-path="url(#p6d944950fa)" d="M 93.003454 748.98328 
L 344.615246 775.145858 
" style="fill:none;stroke:#000000;"/>
    <path clip-path="url(#p6d944950fa)" d="M 283.316349 810.158279 
L 386.219786 718.494584 
" style="fill:none;stroke:#000000;"/>
   </g>
   <g id="PathCollection_3">
    <g clip-path="url(#p6d944950fa)">
     <use style="fill:#ff0000;stroke:#ff0000;" x="400.936138" xlink:href="#m3e9433fb99" y="649.999999"/>
     <use style="fill:#ff0000;stroke:#ff0000;" x="386.219766" xlink:href="#m3e9433fb99" y="581.505391"/>
     <use style="fill:#ff0000;stroke:#ff0000;" x="344.615215" xlink:href="#m3e9433fb99" y="524.854122"/>
     <use style="fill:#ff0000;stroke:#ff0000;" x="283.316324" xlink:href="#m3e9433fb99" y="489.841711"/>
     <use style="fill:#ff0000;stroke:#ff0000;" x="212.922194" xlink:href="#m3e9433fb99" y="482.522126"/>
     <use style="fill:#ff0000;stroke:#ff0000;" x="145.604624" xlink:href="#m3e9433fb99" y="504.160988"/>
     <use style="fill:#ff0000;stroke:#ff0000;" x="93.003434" xlink:href="#m3e9433fb99" y="551.01675"/>
     <use style="fill:#ff0000;stroke:#ff0000;" x="64.213862" xlink:href="#m3e9433fb99" y="614.987601"/>
     <use style="fill:#ff0000;stroke:#ff0000;" x="64.213872" xlink:href="#m3e9433fb99" y="685.012424"/>
     <use style="fill:#ff0000;stroke:#ff0000;" x="93.003454" xlink:href="#m3e9433fb99" y="748.98328"/>
     <use style="fill:#ff0000;stroke:#ff0000;" x="145.604654" xlink:href="#m3e9433fb99" y="795.839022"/>
     <use style="fill:#ff0000;stroke:#ff0000;" x="212.922223" xlink:href="#m3e9433fb99" y="817.477874"/>
     <use style="fill:#ff0000;stroke:#ff0000;" x="283.316349" xlink:href="#m3e9433fb99" y="810.158279"/>
     <use style="fill:#ff0000;stroke:#ff0000;" x="344.615246" xlink:href="#m3e9433fb99" y="775.145858"/>
     <use style="fill:#ff0000;stroke:#ff0000;" x="386.219786" xlink:href="#m3e9433fb99" y="718.494584"/>
    </g>
   </g>
   <g id="text_33">
    <g clip-path="url(#p6d944950fa)">
     <!-- 0 -->
     <g transform="translate(397.118638 653.311249)scale(0.12 -0.12)">
      <use xlink:href="#DejaVuSans-30"/>
     </g>
    </g>
   </g>
   <g id="text_34">
    <g clip-path="url(#p6d944950fa)">
     <!-- 1 -->
     <g transform="translate(382.402266 584.816641)scale(0.12 -0.12)">
      <use xlink:href="#DejaVuSans-31"/>
     </g>
    </g>
   </g>
   <g id="text_35">
    <g clip-path="url(#p6d944950fa)">
     <!-- 2 -->
     <g transform="translate(340.797715 528.165372)scale(0.12 -0.12)">
      <use xlink:href="#DejaVuSans-32"/>
     </g>
    </g>
   </g>
   <g id="text_36">
    <g clip-path="url(#p6d944950fa)">
     <!-- 3 -->
     <g transform="translate(279.498824 493.152961)scale(0.12 -0.12)">
      <use xlink:href="#DejaVuSans-33"/>
     </g>
    </g>
   </g>
   <g id="text_37">
    <g clip-path="url(#p6d944950fa)">
     <!-- 4 -->
     <g transform="translate(209.104694 485.833376)scale(0.12 -0.12)">
      <use xlink:href="#DejaVuSans-34"/>
     </g>
    </g>
   </g>
   <g id="text_38">
    <g clip-path="url(#p6d944950fa)">
     <!-- 5 -->
     <g transform="translate(141.787124 507.472238)scale(0.12 -0.12)">
      <use xlink:href="#DejaVuSans-35"/>
     </g>
    </g>
   </g>
   <g id="text_39">
    <g clip-path="url(#p6d944950fa)">
     <!-- 6 -->
     <g transform="translate(89.185934 554.328)scale(0.12 -0.12)">
      <use xlink:href="#DejaVuSans-36"/>
     </g>
    </g>
   </g>
   <g id="text_40">
    <g clip-path="url(#p6d944950fa)">
     <!-- 7 -->
     <g transform="translate(60.396362 618.298851)scale(0.12 -0.12)">
      <use xlink:href="#DejaVuSans-37"/>
     </g>
    </g>
   </g>
   <g id="text_41">
    <g clip-path="url(#p6d944950fa)">
     <!-- 8 -->
     <g transform="translate(60.396372 688.323674)scale(0.12 -0.12)">
      <use xlink:href="#DejaVuSans-38"/>
     </g>
    </g>
   </g>
   <g id="text_42">
    <g clip-path="url(#p6d944950fa)">
     <!-- 9 -->
     <g transform="translate(89.185954 752.29453)scale(0.12 -0.12)">
      <use xlink:href="#DejaVuSans-39"/>
     </g>
    </g>
   </g>
   <g id="text_43">
    <g clip-path="url(#p6d944950fa)">
     <!-- 10 -->
     <g transform="translate(137.969654 799.150272)scale(0.12 -0.12)">
      <use xlink:href="#DejaVuSans-31"/>
      <use x="63.623047" xlink:href="#DejaVuSans-30"/>
     </g>
    </g>
   </g>
   <g id="text_44">
    <g clip-path="url(#p6d944950fa)">
     <!-- 11 -->
     <g transform="translate(205.287223 820.789124)scale(0.12 -0.12)">
      <use xlink:href="#DejaVuSans-31"/>
      <use x="63.623047" xlink:href="#DejaVuSans-31"/>
     </g>
    </g>
   </g>
   <g id="text_45">
    <g clip-path="url(#p6d944950fa)">
     <!-- 12 -->
     <g transform="translate(275.681349 813.469529)scale(0.12 -0.12)">
      <use xlink:href="#DejaVuSans-31"/>
      <use x="63.623047" xlink:href="#DejaVuSans-32"/>
     </g>
    </g>
   </g>
   <g id="text_46">
    <g clip-path="url(#p6d944950fa)">
     <!-- 13 -->
     <g transform="translate(336.980246 778.457108)scale(0.12 -0.12)">
      <use xlink:href="#DejaVuSans-31"/>
      <use x="63.623047" xlink:href="#DejaVuSans-33"/>
     </g>
    </g>
   </g>
   <g id="text_47">
    <g clip-path="url(#p6d944950fa)">
     <!-- 14 -->
     <g transform="translate(378.584786 721.805834)scale(0.12 -0.12)">
      <use xlink:href="#DejaVuSans-31"/>
      <use x="63.623047" xlink:href="#DejaVuSans-34"/>
     </g>
    </g>
   </g>
   <g id="text_48">
    <!-- shell layout -->
    <defs>
     <path d="M 54.890625 33.015625 
L 54.890625 0 
L 45.90625 0 
L 45.90625 32.71875 
Q 45.90625 40.484375 42.875 44.328125 
Q 39.84375 48.1875 33.796875 48.1875 
Q 26.515625 48.1875 22.3125 43.546875 
Q 18.109375 38.921875 18.109375 30.90625 
L 18.109375 0 
L 9.078125 0 
L 9.078125 75.984375 
L 18.109375 75.984375 
L 18.109375 46.1875 
Q 21.34375 51.125 25.703125 53.5625 
Q 30.078125 56 35.796875 56 
Q 45.21875 56 50.046875 50.171875 
Q 54.890625 44.34375 54.890625 33.015625 
z
" id="DejaVuSans-68"/>
    </defs>
    <g transform="translate(174.939063 454.2)scale(0.2 -0.2)">
     <use xlink:href="#DejaVuSans-73"/>
     <use x="52.099609" xlink:href="#DejaVuSans-68"/>
     <use x="115.478516" xlink:href="#DejaVuSans-65"/>
     <use x="177.001953" xlink:href="#DejaVuSans-6c"/>
     <use x="204.785156" xlink:href="#DejaVuSans-6c"/>
     <use x="232.568359" xlink:href="#DejaVuSans-20"/>
     <use x="264.355469" xlink:href="#DejaVuSans-6c"/>
     <use x="292.138672" xlink:href="#DejaVuSans-61"/>
     <use x="353.417969" xlink:href="#DejaVuSans-79"/>
     <use x="412.597656" xlink:href="#DejaVuSans-6f"/>
     <use x="473.779297" xlink:href="#DejaVuSans-75"/>
     <use x="537.158203" xlink:href="#DejaVuSans-74"/>
    </g>
   </g>
  </g>
  <g id="axes_4">
   <g id="LineCollection_4">
    <path clip-path="url(#pfb2319f541)" d="M 827.536138 650 
L 771.21521 524.854118 
" style="fill:none;stroke:#000000;"/>
    <path clip-path="url(#pfb2319f541)" d="M 827.536138 650 
L 572.204646 795.839019 
" style="fill:none;stroke:#000000;"/>
    <path clip-path="url(#pfb2319f541)" d="M 827.536138 650 
L 709.916338 810.158278 
" style="fill:none;stroke:#000000;"/>
    <path clip-path="url(#pfb2319f541)" d="M 827.536138 650 
L 812.819774 718.494582 
" style="fill:none;stroke:#000000;"/>
    <path clip-path="url(#pfb2319f541)" d="M 812.819754 581.505393 
L 519.603436 551.016748 
" style="fill:none;stroke:#000000;"/>
    <path clip-path="url(#pfb2319f541)" d="M 812.819754 581.505393 
L 639.522215 817.477874 
" style="fill:none;stroke:#000000;"/>
    <path clip-path="url(#pfb2319f541)" d="M 771.21521 524.854118 
L 490.813872 685.012425 
" style="fill:none;stroke:#000000;"/>
    <path clip-path="url(#pfb2319f541)" d="M 709.916313 489.841712 
L 812.819774 718.494582 
" style="fill:none;stroke:#000000;"/>
    <path clip-path="url(#pfb2319f541)" d="M 639.522186 482.522126 
L 572.204621 504.160991 
" style="fill:none;stroke:#000000;"/>
    <path clip-path="url(#pfb2319f541)" d="M 639.522186 482.522126 
L 490.813872 685.012425 
" style="fill:none;stroke:#000000;"/>
    <path clip-path="url(#pfb2319f541)" d="M 639.522186 482.522126 
L 519.603457 748.983282 
" style="fill:none;stroke:#000000;"/>
    <path clip-path="url(#pfb2319f541)" d="M 639.522186 482.522126 
L 572.204646 795.839019 
" style="fill:none;stroke:#000000;"/>
    <path clip-path="url(#pfb2319f541)" d="M 639.522186 482.522126 
L 771.215241 775.145862 
" style="fill:none;stroke:#000000;"/>
    <path clip-path="url(#pfb2319f541)" d="M 572.204621 504.160991 
L 490.813872 685.012425 
" style="fill:none;stroke:#000000;"/>
    <path clip-path="url(#pfb2319f541)" d="M 572.204621 504.160991 
L 519.603457 748.983282 
" style="fill:none;stroke:#000000;"/>
    <path clip-path="url(#pfb2319f541)" d="M 572.204621 504.160991 
L 771.215241 775.145862 
" style="fill:none;stroke:#000000;"/>
    <path clip-path="url(#pfb2319f541)" d="M 572.204621 504.160991 
L 812.819774 718.494582 
" style="fill:none;stroke:#000000;"/>
    <path clip-path="url(#pfb2319f541)" d="M 519.603436 551.016748 
L 572.204646 795.839019 
" style="fill:none;stroke:#000000;"/>
    <path clip-path="url(#pfb2319f541)" d="M 519.603436 551.016748 
L 639.522215 817.477874 
" style="fill:none;stroke:#000000;"/>
    <path clip-path="url(#pfb2319f541)" d="M 519.603436 551.016748 
L 771.215241 775.145862 
" style="fill:none;stroke:#000000;"/>
    <path clip-path="url(#pfb2319f541)" d="M 490.813862 614.987605 
L 812.819774 718.494582 
" style="fill:none;stroke:#000000;"/>
    <path clip-path="url(#pfb2319f541)" d="M 490.813872 685.012425 
L 572.204646 795.839019 
" style="fill:none;stroke:#000000;"/>
    <path clip-path="url(#pfb2319f541)" d="M 490.813872 685.012425 
L 639.522215 817.477874 
" style="fill:none;stroke:#000000;"/>
    <path clip-path="url(#pfb2319f541)" d="M 490.813872 685.012425 
L 709.916338 810.158278 
" style="fill:none;stroke:#000000;"/>
    <path clip-path="url(#pfb2319f541)" d="M 490.813872 685.012425 
L 812.819774 718.494582 
" style="fill:none;stroke:#000000;"/>
    <path clip-path="url(#pfb2319f541)" d="M 519.603457 748.983282 
L 709.916338 810.158278 
" style="fill:none;stroke:#000000;"/>
    <path clip-path="url(#pfb2319f541)" d="M 519.603457 748.983282 
L 771.215241 775.145862 
" style="fill:none;stroke:#000000;"/>
    <path clip-path="url(#pfb2319f541)" d="M 709.916338 810.158278 
L 812.819774 718.494582 
" style="fill:none;stroke:#000000;"/>
   </g>
   <g id="PathCollection_4">
    <g clip-path="url(#pfb2319f541)">
     <use style="fill:#ff0000;stroke:#ff0000;" x="827.536138" xlink:href="#m3e9433fb99" y="650"/>
     <use style="fill:#ff0000;stroke:#ff0000;" x="812.819754" xlink:href="#m3e9433fb99" y="581.505393"/>
     <use style="fill:#ff0000;stroke:#ff0000;" x="771.21521" xlink:href="#m3e9433fb99" y="524.854118"/>
     <use style="fill:#ff0000;stroke:#ff0000;" x="709.916313" xlink:href="#m3e9433fb99" y="489.841712"/>
     <use style="fill:#ff0000;stroke:#ff0000;" x="639.522186" xlink:href="#m3e9433fb99" y="482.522126"/>
     <use style="fill:#ff0000;stroke:#ff0000;" x="572.204621" xlink:href="#m3e9433fb99" y="504.160991"/>
     <use style="fill:#ff0000;stroke:#ff0000;" x="519.603436" xlink:href="#m3e9433fb99" y="551.016748"/>
     <use style="fill:#ff0000;stroke:#ff0000;" x="490.813862" xlink:href="#m3e9433fb99" y="614.987605"/>
     <use style="fill:#ff0000;stroke:#ff0000;" x="490.813872" xlink:href="#m3e9433fb99" y="685.012425"/>
     <use style="fill:#ff0000;stroke:#ff0000;" x="519.603457" xlink:href="#m3e9433fb99" y="748.983282"/>
     <use style="fill:#ff0000;stroke:#ff0000;" x="572.204646" xlink:href="#m3e9433fb99" y="795.839019"/>
     <use style="fill:#ff0000;stroke:#ff0000;" x="639.522215" xlink:href="#m3e9433fb99" y="817.477874"/>
     <use style="fill:#ff0000;stroke:#ff0000;" x="709.916338" xlink:href="#m3e9433fb99" y="810.158278"/>
     <use style="fill:#ff0000;stroke:#ff0000;" x="771.215241" xlink:href="#m3e9433fb99" y="775.145862"/>
     <use style="fill:#ff0000;stroke:#ff0000;" x="812.819774" xlink:href="#m3e9433fb99" y="718.494582"/>
    </g>
   </g>
   <g id="text_49">
    <g clip-path="url(#pfb2319f541)">
     <!-- 0 -->
     <g transform="translate(823.718638 653.31125)scale(0.12 -0.12)">
      <use xlink:href="#DejaVuSans-30"/>
     </g>
    </g>
   </g>
   <g id="text_50">
    <g clip-path="url(#pfb2319f541)">
     <!-- 1 -->
     <g transform="translate(809.002254 584.816643)scale(0.12 -0.12)">
      <use xlink:href="#DejaVuSans-31"/>
     </g>
    </g>
   </g>
   <g id="text_51">
    <g clip-path="url(#pfb2319f541)">
     <!-- 2 -->
     <g transform="translate(767.39771 528.165368)scale(0.12 -0.12)">
      <use xlink:href="#DejaVuSans-32"/>
     </g>
    </g>
   </g>
   <g id="text_52">
    <g clip-path="url(#pfb2319f541)">
     <!-- 3 -->
     <g transform="translate(706.098813 493.152962)scale(0.12 -0.12)">
      <use xlink:href="#DejaVuSans-33"/>
     </g>
    </g>
   </g>
   <g id="text_53">
    <g clip-path="url(#pfb2319f541)">
     <!-- 4 -->
     <g transform="translate(635.704686 485.833376)scale(0.12 -0.12)">
      <use xlink:href="#DejaVuSans-34"/>
     </g>
    </g>
   </g>
   <g id="text_54">
    <g clip-path="url(#pfb2319f541)">
     <!-- 5 -->
     <g transform="translate(568.387121 507.472241)scale(0.12 -0.12)">
      <use xlink:href="#DejaVuSans-35"/>
     </g>
    </g>
   </g>
   <g id="text_55">
    <g clip-path="url(#pfb2319f541)">
     <!-- 6 -->
     <g transform="translate(515.785936 554.327998)scale(0.12 -0.12)">
      <use xlink:href="#DejaVuSans-36"/>
     </g>
    </g>
   </g>
   <g id="text_56">
    <g clip-path="url(#pfb2319f541)">
     <!-- 7 -->
     <g transform="translate(486.996362 618.298855)scale(0.12 -0.12)">
      <use xlink:href="#DejaVuSans-37"/>
     </g>
    </g>
   </g>
   <g id="text_57">
    <g clip-path="url(#pfb2319f541)">
     <!-- 8 -->
     <g transform="translate(486.996372 688.323675)scale(0.12 -0.12)">
      <use xlink:href="#DejaVuSans-38"/>
     </g>
    </g>
   </g>
   <g id="text_58">
    <g clip-path="url(#pfb2319f541)">
     <!-- 9 -->
     <g transform="translate(515.785957 752.294532)scale(0.12 -0.12)">
      <use xlink:href="#DejaVuSans-39"/>
     </g>
    </g>
   </g>
   <g id="text_59">
    <g clip-path="url(#pfb2319f541)">
     <!-- 10 -->
     <g transform="translate(564.569646 799.150269)scale(0.12 -0.12)">
      <use xlink:href="#DejaVuSans-31"/>
      <use x="63.623047" xlink:href="#DejaVuSans-30"/>
     </g>
    </g>
   </g>
   <g id="text_60">
    <g clip-path="url(#pfb2319f541)">
     <!-- 11 -->
     <g transform="translate(631.887215 820.789124)scale(0.12 -0.12)">
      <use xlink:href="#DejaVuSans-31"/>
      <use x="63.623047" xlink:href="#DejaVuSans-31"/>
     </g>
    </g>
   </g>
   <g id="text_61">
    <g clip-path="url(#pfb2319f541)">
     <!-- 12 -->
     <g transform="translate(702.281338 813.469528)scale(0.12 -0.12)">
      <use xlink:href="#DejaVuSans-31"/>
      <use x="63.623047" xlink:href="#DejaVuSans-32"/>
     </g>
    </g>
   </g>
   <g id="text_62">
    <g clip-path="url(#pfb2319f541)">
     <!-- 13 -->
     <g transform="translate(763.580241 778.457112)scale(0.12 -0.12)">
      <use xlink:href="#DejaVuSans-31"/>
      <use x="63.623047" xlink:href="#DejaVuSans-33"/>
     </g>
    </g>
   </g>
   <g id="text_63">
    <g clip-path="url(#pfb2319f541)">
     <!-- 14 -->
     <g transform="translate(805.184774 721.805832)scale(0.12 -0.12)">
      <use xlink:href="#DejaVuSans-31"/>
      <use x="63.623047" xlink:href="#DejaVuSans-34"/>
     </g>
    </g>
   </g>
   <g id="text_64">
    <!-- circular layout -->
    <g transform="translate(587.557812 454.2)scale(0.2 -0.2)">
     <use xlink:href="#DejaVuSans-63"/>
     <use x="54.980469" xlink:href="#DejaVuSans-69"/>
     <use x="82.763672" xlink:href="#DejaVuSans-72"/>
     <use x="123.845703" xlink:href="#DejaVuSans-63"/>
     <use x="178.826172" xlink:href="#DejaVuSans-75"/>
     <use x="242.205078" xlink:href="#DejaVuSans-6c"/>
     <use x="269.988281" xlink:href="#DejaVuSans-61"/>
     <use x="331.267578" xlink:href="#DejaVuSans-72"/>
     <use x="372.380859" xlink:href="#DejaVuSans-20"/>
     <use x="404.167969" xlink:href="#DejaVuSans-6c"/>
     <use x="431.951172" xlink:href="#DejaVuSans-61"/>
     <use x="493.230469" xlink:href="#DejaVuSans-79"/>
     <use x="552.410156" xlink:href="#DejaVuSans-6f"/>
     <use x="613.591797" xlink:href="#DejaVuSans-75"/>
     <use x="676.970703" xlink:href="#DejaVuSans-74"/>
    </g>
   </g>
  </g>
  <g id="axes_5">
   <g id="LineCollection_5">
    <path clip-path="url(#p47cb345d72)" d="M 303.30241 1026.760202 
L 398.947693 1046.890121 
" style="fill:none;stroke:#000000;"/>
    <path clip-path="url(#p47cb345d72)" d="M 303.30241 1026.760202 
L 280.805939 1127.525682 
" style="fill:none;stroke:#000000;"/>
    <path clip-path="url(#p47cb345d72)" d="M 303.30241 1026.760202 
L 169.63697 1025.74996 
" style="fill:none;stroke:#000000;"/>
    <path clip-path="url(#p47cb345d72)" d="M 303.30241 1026.760202 
L 221.465693 986.401601 
" style="fill:none;stroke:#000000;"/>
    <path clip-path="url(#p47cb345d72)" d="M 324.959201 1245.902221 
L 228.896121 1207.714594 
" style="fill:none;stroke:#000000;"/>
    <path clip-path="url(#p47cb345d72)" d="M 324.959201 1245.902221 
L 331.750089 1165.513034 
" style="fill:none;stroke:#000000;"/>
    <path clip-path="url(#p47cb345d72)" d="M 398.947693 1046.890121 
L 266.367018 1072.189698 
" style="fill:none;stroke:#000000;"/>
    <path clip-path="url(#p47cb345d72)" d="M 283.250078 910.897779 
L 221.465693 986.401601 
" style="fill:none;stroke:#000000;"/>
    <path clip-path="url(#p47cb345d72)" d="M 172.151525 1123.201749 
L 147.231373 1066.533238 
" style="fill:none;stroke:#000000;"/>
    <path clip-path="url(#p47cb345d72)" d="M 172.151525 1123.201749 
L 266.367018 1072.189698 
" style="fill:none;stroke:#000000;"/>
    <path clip-path="url(#p47cb345d72)" d="M 172.151525 1123.201749 
L 66.202307 1090.637316 
" style="fill:none;stroke:#000000;"/>
    <path clip-path="url(#p47cb345d72)" d="M 172.151525 1123.201749 
L 280.805939 1127.525682 
" style="fill:none;stroke:#000000;"/>
    <path clip-path="url(#p47cb345d72)" d="M 172.151525 1123.201749 
L 110.49541 1161.909975 
" style="fill:none;stroke:#000000;"/>
    <path clip-path="url(#p47cb345d72)" d="M 147.231373 1066.533238 
L 266.367018 1072.189698 
" style="fill:none;stroke:#000000;"/>
    <path clip-path="url(#p47cb345d72)" d="M 147.231373 1066.533238 
L 66.202307 1090.637316 
" style="fill:none;stroke:#000000;"/>
    <path clip-path="url(#p47cb345d72)" d="M 147.231373 1066.533238 
L 110.49541 1161.909975 
" style="fill:none;stroke:#000000;"/>
    <path clip-path="url(#p47cb345d72)" d="M 147.231373 1066.533238 
L 221.465693 986.401601 
" style="fill:none;stroke:#000000;"/>
    <path clip-path="url(#p47cb345d72)" d="M 228.896121 1207.714594 
L 280.805939 1127.525682 
" style="fill:none;stroke:#000000;"/>
    <path clip-path="url(#p47cb345d72)" d="M 228.896121 1207.714594 
L 331.750089 1165.513034 
" style="fill:none;stroke:#000000;"/>
    <path clip-path="url(#p47cb345d72)" d="M 228.896121 1207.714594 
L 110.49541 1161.909975 
" style="fill:none;stroke:#000000;"/>
    <path clip-path="url(#p47cb345d72)" d="M 135.148314 919.509178 
L 221.465693 986.401601 
" style="fill:none;stroke:#000000;"/>
    <path clip-path="url(#p47cb345d72)" d="M 266.367018 1072.189698 
L 280.805939 1127.525682 
" style="fill:none;stroke:#000000;"/>
    <path clip-path="url(#p47cb345d72)" d="M 266.367018 1072.189698 
L 331.750089 1165.513034 
" style="fill:none;stroke:#000000;"/>
    <path clip-path="url(#p47cb345d72)" d="M 266.367018 1072.189698 
L 169.63697 1025.74996 
" style="fill:none;stroke:#000000;"/>
    <path clip-path="url(#p47cb345d72)" d="M 266.367018 1072.189698 
L 221.465693 986.401601 
" style="fill:none;stroke:#000000;"/>
    <path clip-path="url(#p47cb345d72)" d="M 66.202307 1090.637316 
L 169.63697 1025.74996 
" style="fill:none;stroke:#000000;"/>
    <path clip-path="url(#p47cb345d72)" d="M 66.202307 1090.637316 
L 110.49541 1161.909975 
" style="fill:none;stroke:#000000;"/>
    <path clip-path="url(#p47cb345d72)" d="M 169.63697 1025.74996 
L 221.465693 986.401601 
" style="fill:none;stroke:#000000;"/>
   </g>
   <g id="PathCollection_5">
    <g clip-path="url(#p47cb345d72)">
     <use style="fill:#ff0000;stroke:#ff0000;" x="303.30241" xlink:href="#m3e9433fb99" y="1026.760202"/>
     <use style="fill:#ff0000;stroke:#ff0000;" x="324.959201" xlink:href="#m3e9433fb99" y="1245.902221"/>
     <use style="fill:#ff0000;stroke:#ff0000;" x="398.947693" xlink:href="#m3e9433fb99" y="1046.890121"/>
     <use style="fill:#ff0000;stroke:#ff0000;" x="283.250078" xlink:href="#m3e9433fb99" y="910.897779"/>
     <use style="fill:#ff0000;stroke:#ff0000;" x="172.151525" xlink:href="#m3e9433fb99" y="1123.201749"/>
     <use style="fill:#ff0000;stroke:#ff0000;" x="147.231373" xlink:href="#m3e9433fb99" y="1066.533238"/>
     <use style="fill:#ff0000;stroke:#ff0000;" x="228.896121" xlink:href="#m3e9433fb99" y="1207.714594"/>
     <use style="fill:#ff0000;stroke:#ff0000;" x="135.148314" xlink:href="#m3e9433fb99" y="919.509178"/>
     <use style="fill:#ff0000;stroke:#ff0000;" x="266.367018" xlink:href="#m3e9433fb99" y="1072.189698"/>
     <use style="fill:#ff0000;stroke:#ff0000;" x="66.202307" xlink:href="#m3e9433fb99" y="1090.637316"/>
     <use style="fill:#ff0000;stroke:#ff0000;" x="280.805939" xlink:href="#m3e9433fb99" y="1127.525682"/>
     <use style="fill:#ff0000;stroke:#ff0000;" x="331.750089" xlink:href="#m3e9433fb99" y="1165.513034"/>
     <use style="fill:#ff0000;stroke:#ff0000;" x="169.63697" xlink:href="#m3e9433fb99" y="1025.74996"/>
     <use style="fill:#ff0000;stroke:#ff0000;" x="110.49541" xlink:href="#m3e9433fb99" y="1161.909975"/>
     <use style="fill:#ff0000;stroke:#ff0000;" x="221.465693" xlink:href="#m3e9433fb99" y="986.401601"/>
    </g>
   </g>
   <g id="text_65">
    <g clip-path="url(#p47cb345d72)">
     <!-- 0 -->
     <g transform="translate(299.48491 1030.071452)scale(0.12 -0.12)">
      <use xlink:href="#DejaVuSans-30"/>
     </g>
    </g>
   </g>
   <g id="text_66">
    <g clip-path="url(#p47cb345d72)">
     <!-- 1 -->
     <g transform="translate(321.141701 1249.213471)scale(0.12 -0.12)">
      <use xlink:href="#DejaVuSans-31"/>
     </g>
    </g>
   </g>
   <g id="text_67">
    <g clip-path="url(#p47cb345d72)">
     <!-- 2 -->
     <g transform="translate(395.130193 1050.201371)scale(0.12 -0.12)">
      <use xlink:href="#DejaVuSans-32"/>
     </g>
    </g>
   </g>
   <g id="text_68">
    <g clip-path="url(#p47cb345d72)">
     <!-- 3 -->
     <g transform="translate(279.432578 914.209029)scale(0.12 -0.12)">
      <use xlink:href="#DejaVuSans-33"/>
     </g>
    </g>
   </g>
   <g id="text_69">
    <g clip-path="url(#p47cb345d72)">
     <!-- 4 -->
     <g transform="translate(168.334025 1126.512999)scale(0.12 -0.12)">
      <use xlink:href="#DejaVuSans-34"/>
     </g>
    </g>
   </g>
   <g id="text_70">
    <g clip-path="url(#p47cb345d72)">
     <!-- 5 -->
     <g transform="translate(143.413873 1069.844488)scale(0.12 -0.12)">
      <use xlink:href="#DejaVuSans-35"/>
     </g>
    </g>
   </g>
   <g id="text_71">
    <g clip-path="url(#p47cb345d72)">
     <!-- 6 -->
     <g transform="translate(225.078621 1211.025844)scale(0.12 -0.12)">
      <use xlink:href="#DejaVuSans-36"/>
     </g>
    </g>
   </g>
   <g id="text_72">
    <g clip-path="url(#p47cb345d72)">
     <!-- 7 -->
     <g transform="translate(131.330814 922.820428)scale(0.12 -0.12)">
      <use xlink:href="#DejaVuSans-37"/>
     </g>
    </g>
   </g>
   <g id="text_73">
    <g clip-path="url(#p47cb345d72)">
     <!-- 8 -->
     <g transform="translate(262.549518 1075.500948)scale(0.12 -0.12)">
      <use xlink:href="#DejaVuSans-38"/>
     </g>
    </g>
   </g>
   <g id="text_74">
    <g clip-path="url(#p47cb345d72)">
     <!-- 9 -->
     <g transform="translate(62.384807 1093.948566)scale(0.12 -0.12)">
      <use xlink:href="#DejaVuSans-39"/>
     </g>
    </g>
   </g>
   <g id="text_75">
    <g clip-path="url(#p47cb345d72)">
     <!-- 10 -->
     <g transform="translate(273.170939 1130.836932)scale(0.12 -0.12)">
      <use xlink:href="#DejaVuSans-31"/>
      <use x="63.623047" xlink:href="#DejaVuSans-30"/>
     </g>
    </g>
   </g>
   <g id="text_76">
    <g clip-path="url(#p47cb345d72)">
     <!-- 11 -->
     <g transform="translate(324.115089 1168.824284)scale(0.12 -0.12)">
      <use xlink:href="#DejaVuSans-31"/>
      <use x="63.623047" xlink:href="#DejaVuSans-31"/>
     </g>
    </g>
   </g>
   <g id="text_77">
    <g clip-path="url(#p47cb345d72)">
     <!-- 12 -->
     <g transform="translate(162.00197 1029.06121)scale(0.12 -0.12)">
      <use xlink:href="#DejaVuSans-31"/>
      <use x="63.623047" xlink:href="#DejaVuSans-32"/>
     </g>
    </g>
   </g>
   <g id="text_78">
    <g clip-path="url(#p47cb345d72)">
     <!-- 13 -->
     <g transform="translate(102.86041 1165.221225)scale(0.12 -0.12)">
      <use xlink:href="#DejaVuSans-31"/>
      <use x="63.623047" xlink:href="#DejaVuSans-33"/>
     </g>
    </g>
   </g>
   <g id="text_79">
    <g clip-path="url(#p47cb345d72)">
     <!-- 14 -->
     <g transform="translate(213.830693 989.712851)scale(0.12 -0.12)">
      <use xlink:href="#DejaVuSans-31"/>
      <use x="63.623047" xlink:href="#DejaVuSans-34"/>
     </g>
    </g>
   </g>
   <g id="text_80">
    <!-- kamada_kawai layout -->
    <defs>
     <path d="M 9.078125 75.984375 
L 18.109375 75.984375 
L 18.109375 31.109375 
L 44.921875 54.6875 
L 56.390625 54.6875 
L 27.390625 29.109375 
L 57.625 0 
L 45.90625 0 
L 18.109375 26.703125 
L 18.109375 0 
L 9.078125 0 
z
" id="DejaVuSans-6b"/>
     <path d="M 52 44.1875 
Q 55.375 50.25 60.0625 53.125 
Q 64.75 56 71.09375 56 
Q 79.640625 56 84.28125 50.015625 
Q 88.921875 44.046875 88.921875 33.015625 
L 88.921875 0 
L 79.890625 0 
L 79.890625 32.71875 
Q 79.890625 40.578125 77.09375 44.375 
Q 74.3125 48.1875 68.609375 48.1875 
Q 61.625 48.1875 57.5625 43.546875 
Q 53.515625 38.921875 53.515625 30.90625 
L 53.515625 0 
L 44.484375 0 
L 44.484375 32.71875 
Q 44.484375 40.625 41.703125 44.40625 
Q 38.921875 48.1875 33.109375 48.1875 
Q 26.21875 48.1875 22.15625 43.53125 
Q 18.109375 38.875 18.109375 30.90625 
L 18.109375 0 
L 9.078125 0 
L 9.078125 54.6875 
L 18.109375 54.6875 
L 18.109375 46.1875 
Q 21.1875 51.21875 25.484375 53.609375 
Q 29.78125 56 35.6875 56 
Q 41.65625 56 45.828125 52.96875 
Q 50 49.953125 52 44.1875 
z
" id="DejaVuSans-6d"/>
     <path d="M 45.40625 46.390625 
L 45.40625 75.984375 
L 54.390625 75.984375 
L 54.390625 0 
L 45.40625 0 
L 45.40625 8.203125 
Q 42.578125 3.328125 38.25 0.953125 
Q 33.9375 -1.421875 27.875 -1.421875 
Q 17.96875 -1.421875 11.734375 6.484375 
Q 5.515625 14.40625 5.515625 27.296875 
Q 5.515625 40.1875 11.734375 48.09375 
Q 17.96875 56 27.875 56 
Q 33.9375 56 38.25 53.625 
Q 42.578125 51.265625 45.40625 46.390625 
z
M 14.796875 27.296875 
Q 14.796875 17.390625 18.875 11.75 
Q 22.953125 6.109375 30.078125 6.109375 
Q 37.203125 6.109375 41.296875 11.75 
Q 45.40625 17.390625 45.40625 27.296875 
Q 45.40625 37.203125 41.296875 42.84375 
Q 37.203125 48.484375 30.078125 48.484375 
Q 22.953125 48.484375 18.875 42.84375 
Q 14.796875 37.203125 14.796875 27.296875 
z
" id="DejaVuSans-64"/>
     <path d="M 50.984375 -16.609375 
L 50.984375 -23.578125 
L -0.984375 -23.578125 
L -0.984375 -16.609375 
z
" id="DejaVuSans-5f"/>
     <path d="M 4.203125 54.6875 
L 13.1875 54.6875 
L 24.421875 12.015625 
L 35.59375 54.6875 
L 46.1875 54.6875 
L 57.421875 12.015625 
L 68.609375 54.6875 
L 77.59375 54.6875 
L 63.28125 0 
L 52.6875 0 
L 40.921875 44.828125 
L 29.109375 0 
L 18.5 0 
z
" id="DejaVuSans-77"/>
    </defs>
    <g transform="translate(123.93125 882.6)scale(0.2 -0.2)">
     <use xlink:href="#DejaVuSans-6b"/>
     <use x="57.894531" xlink:href="#DejaVuSans-61"/>
     <use x="119.173828" xlink:href="#DejaVuSans-6d"/>
     <use x="216.585938" xlink:href="#DejaVuSans-61"/>
     <use x="277.865234" xlink:href="#DejaVuSans-64"/>
     <use x="341.341797" xlink:href="#DejaVuSans-61"/>
     <use x="402.621094" xlink:href="#DejaVuSans-5f"/>
     <use x="452.621094" xlink:href="#DejaVuSans-6b"/>
     <use x="510.515625" xlink:href="#DejaVuSans-61"/>
     <use x="571.794922" xlink:href="#DejaVuSans-77"/>
     <use x="653.582031" xlink:href="#DejaVuSans-61"/>
     <use x="714.861328" xlink:href="#DejaVuSans-69"/>
     <use x="742.644531" xlink:href="#DejaVuSans-20"/>
     <use x="774.431641" xlink:href="#DejaVuSans-6c"/>
     <use x="802.214844" xlink:href="#DejaVuSans-61"/>
     <use x="863.494141" xlink:href="#DejaVuSans-79"/>
     <use x="922.673828" xlink:href="#DejaVuSans-6f"/>
     <use x="983.855469" xlink:href="#DejaVuSans-75"/>
     <use x="1047.234375" xlink:href="#DejaVuSans-74"/>
    </g>
   </g>
  </g>
  <g id="axes_6">
   <g id="LineCollection_6">
    <path clip-path="url(#pc2b99536cb)" d="M 649.6695 1069.248477 
L 581.80194 1166.52377 
" style="fill:none;stroke:#000000;"/>
    <path clip-path="url(#pc2b99536cb)" d="M 649.6695 1069.248477 
L 498.622141 1023.563719 
" style="fill:none;stroke:#000000;"/>
    <path clip-path="url(#pc2b99536cb)" d="M 649.6695 1069.248477 
L 707.025812 996.199395 
" style="fill:none;stroke:#000000;"/>
    <path clip-path="url(#pc2b99536cb)" d="M 649.6695 1069.248477 
L 573.445734 1081.263375 
" style="fill:none;stroke:#000000;"/>
    <path clip-path="url(#pc2b99536cb)" d="M 819.727859 1241.057317 
L 774.741115 938.198972 
" style="fill:none;stroke:#000000;"/>
    <path clip-path="url(#pc2b99536cb)" d="M 819.727859 1241.057317 
L 771.952444 1167.841122 
" style="fill:none;stroke:#000000;"/>
    <path clip-path="url(#pc2b99536cb)" d="M 581.80194 1166.52377 
L 775.038926 1043.719305 
" style="fill:none;stroke:#000000;"/>
    <path clip-path="url(#pc2b99536cb)" d="M 522.598507 956.634962 
L 573.445734 1081.263375 
" style="fill:none;stroke:#000000;"/>
    <path clip-path="url(#pc2b99536cb)" d="M 519.136547 915.742683 
L 720.575095 943.852377 
" style="fill:none;stroke:#000000;"/>
    <path clip-path="url(#pc2b99536cb)" d="M 519.136547 915.742683 
L 775.038926 1043.719305 
" style="fill:none;stroke:#000000;"/>
    <path clip-path="url(#pc2b99536cb)" d="M 519.136547 915.742683 
L 602.020159 1105.814765 
" style="fill:none;stroke:#000000;"/>
    <path clip-path="url(#pc2b99536cb)" d="M 519.136547 915.742683 
L 498.622141 1023.563719 
" style="fill:none;stroke:#000000;"/>
    <path clip-path="url(#pc2b99536cb)" d="M 519.136547 915.742683 
L 564.032931 1150.071988 
" style="fill:none;stroke:#000000;"/>
    <path clip-path="url(#pc2b99536cb)" d="M 720.575095 943.852377 
L 775.038926 1043.719305 
" style="fill:none;stroke:#000000;"/>
    <path clip-path="url(#pc2b99536cb)" d="M 720.575095 943.852377 
L 602.020159 1105.814765 
" style="fill:none;stroke:#000000;"/>
    <path clip-path="url(#pc2b99536cb)" d="M 720.575095 943.852377 
L 564.032931 1150.071988 
" style="fill:none;stroke:#000000;"/>
    <path clip-path="url(#pc2b99536cb)" d="M 720.575095 943.852377 
L 573.445734 1081.263375 
" style="fill:none;stroke:#000000;"/>
    <path clip-path="url(#pc2b99536cb)" d="M 774.741115 938.198972 
L 498.622141 1023.563719 
" style="fill:none;stroke:#000000;"/>
    <path clip-path="url(#pc2b99536cb)" d="M 774.741115 938.198972 
L 771.952444 1167.841122 
" style="fill:none;stroke:#000000;"/>
    <path clip-path="url(#pc2b99536cb)" d="M 774.741115 938.198972 
L 564.032931 1150.071988 
" style="fill:none;stroke:#000000;"/>
    <path clip-path="url(#pc2b99536cb)" d="M 716.332538 926.620823 
L 573.445734 1081.263375 
" style="fill:none;stroke:#000000;"/>
    <path clip-path="url(#pc2b99536cb)" d="M 775.038926 1043.719305 
L 498.622141 1023.563719 
" style="fill:none;stroke:#000000;"/>
    <path clip-path="url(#pc2b99536cb)" d="M 775.038926 1043.719305 
L 771.952444 1167.841122 
" style="fill:none;stroke:#000000;"/>
    <path clip-path="url(#pc2b99536cb)" d="M 775.038926 1043.719305 
L 707.025812 996.199395 
" style="fill:none;stroke:#000000;"/>
    <path clip-path="url(#pc2b99536cb)" d="M 775.038926 1043.719305 
L 573.445734 1081.263375 
" style="fill:none;stroke:#000000;"/>
    <path clip-path="url(#pc2b99536cb)" d="M 602.020159 1105.814765 
L 707.025812 996.199395 
" style="fill:none;stroke:#000000;"/>
    <path clip-path="url(#pc2b99536cb)" d="M 602.020159 1105.814765 
L 564.032931 1150.071988 
" style="fill:none;stroke:#000000;"/>
    <path clip-path="url(#pc2b99536cb)" d="M 707.025812 996.199395 
L 573.445734 1081.263375 
" style="fill:none;stroke:#000000;"/>
   </g>
   <g id="PathCollection_6">
    <g clip-path="url(#pc2b99536cb)">
     <use style="fill:#ff0000;stroke:#ff0000;" x="649.6695" xlink:href="#m3e9433fb99" y="1069.248477"/>
     <use style="fill:#ff0000;stroke:#ff0000;" x="819.727859" xlink:href="#m3e9433fb99" y="1241.057317"/>
     <use style="fill:#ff0000;stroke:#ff0000;" x="581.80194" xlink:href="#m3e9433fb99" y="1166.52377"/>
     <use style="fill:#ff0000;stroke:#ff0000;" x="522.598507" xlink:href="#m3e9433fb99" y="956.634962"/>
     <use style="fill:#ff0000;stroke:#ff0000;" x="519.136547" xlink:href="#m3e9433fb99" y="915.742683"/>
     <use style="fill:#ff0000;stroke:#ff0000;" x="720.575095" xlink:href="#m3e9433fb99" y="943.852377"/>
     <use style="fill:#ff0000;stroke:#ff0000;" x="774.741115" xlink:href="#m3e9433fb99" y="938.198972"/>
     <use style="fill:#ff0000;stroke:#ff0000;" x="716.332538" xlink:href="#m3e9433fb99" y="926.620823"/>
     <use style="fill:#ff0000;stroke:#ff0000;" x="775.038926" xlink:href="#m3e9433fb99" y="1043.719305"/>
     <use style="fill:#ff0000;stroke:#ff0000;" x="602.020159" xlink:href="#m3e9433fb99" y="1105.814765"/>
     <use style="fill:#ff0000;stroke:#ff0000;" x="498.622141" xlink:href="#m3e9433fb99" y="1023.563719"/>
     <use style="fill:#ff0000;stroke:#ff0000;" x="771.952444" xlink:href="#m3e9433fb99" y="1167.841122"/>
     <use style="fill:#ff0000;stroke:#ff0000;" x="707.025812" xlink:href="#m3e9433fb99" y="996.199395"/>
     <use style="fill:#ff0000;stroke:#ff0000;" x="564.032931" xlink:href="#m3e9433fb99" y="1150.071988"/>
     <use style="fill:#ff0000;stroke:#ff0000;" x="573.445734" xlink:href="#m3e9433fb99" y="1081.263375"/>
    </g>
   </g>
   <g id="text_81">
    <g clip-path="url(#pc2b99536cb)">
     <!-- 0 -->
     <g transform="translate(645.852 1072.559727)scale(0.12 -0.12)">
      <use xlink:href="#DejaVuSans-30"/>
     </g>
    </g>
   </g>
   <g id="text_82">
    <g clip-path="url(#pc2b99536cb)">
     <!-- 1 -->
     <g transform="translate(815.910359 1244.368567)scale(0.12 -0.12)">
      <use xlink:href="#DejaVuSans-31"/>
     </g>
    </g>
   </g>
   <g id="text_83">
    <g clip-path="url(#pc2b99536cb)">
     <!-- 2 -->
     <g transform="translate(577.98444 1169.83502)scale(0.12 -0.12)">
      <use xlink:href="#DejaVuSans-32"/>
     </g>
    </g>
   </g>
   <g id="text_84">
    <g clip-path="url(#pc2b99536cb)">
     <!-- 3 -->
     <g transform="translate(518.781007 959.946212)scale(0.12 -0.12)">
      <use xlink:href="#DejaVuSans-33"/>
     </g>
    </g>
   </g>
   <g id="text_85">
    <g clip-path="url(#pc2b99536cb)">
     <!-- 4 -->
     <g transform="translate(515.319047 919.053933)scale(0.12 -0.12)">
      <use xlink:href="#DejaVuSans-34"/>
     </g>
    </g>
   </g>
   <g id="text_86">
    <g clip-path="url(#pc2b99536cb)">
     <!-- 5 -->
     <g transform="translate(716.757595 947.163627)scale(0.12 -0.12)">
      <use xlink:href="#DejaVuSans-35"/>
     </g>
    </g>
   </g>
   <g id="text_87">
    <g clip-path="url(#pc2b99536cb)">
     <!-- 6 -->
     <g transform="translate(770.923615 941.510222)scale(0.12 -0.12)">
      <use xlink:href="#DejaVuSans-36"/>
     </g>
    </g>
   </g>
   <g id="text_88">
    <g clip-path="url(#pc2b99536cb)">
     <!-- 7 -->
     <g transform="translate(712.515038 929.932073)scale(0.12 -0.12)">
      <use xlink:href="#DejaVuSans-37"/>
     </g>
    </g>
   </g>
   <g id="text_89">
    <g clip-path="url(#pc2b99536cb)">
     <!-- 8 -->
     <g transform="translate(771.221426 1047.030555)scale(0.12 -0.12)">
      <use xlink:href="#DejaVuSans-38"/>
     </g>
    </g>
   </g>
   <g id="text_90">
    <g clip-path="url(#pc2b99536cb)">
     <!-- 9 -->
     <g transform="translate(598.202659 1109.126015)scale(0.12 -0.12)">
      <use xlink:href="#DejaVuSans-39"/>
     </g>
    </g>
   </g>
   <g id="text_91">
    <g clip-path="url(#pc2b99536cb)">
     <!-- 10 -->
     <g transform="translate(490.987141 1026.874969)scale(0.12 -0.12)">
      <use xlink:href="#DejaVuSans-31"/>
      <use x="63.623047" xlink:href="#DejaVuSans-30"/>
     </g>
    </g>
   </g>
   <g id="text_92">
    <g clip-path="url(#pc2b99536cb)">
     <!-- 11 -->
     <g transform="translate(764.317444 1171.152372)scale(0.12 -0.12)">
      <use xlink:href="#DejaVuSans-31"/>
      <use x="63.623047" xlink:href="#DejaVuSans-31"/>
     </g>
    </g>
   </g>
   <g id="text_93">
    <g clip-path="url(#pc2b99536cb)">
     <!-- 12 -->
     <g transform="translate(699.390812 999.510645)scale(0.12 -0.12)">
      <use xlink:href="#DejaVuSans-31"/>
      <use x="63.623047" xlink:href="#DejaVuSans-32"/>
     </g>
    </g>
   </g>
   <g id="text_94">
    <g clip-path="url(#pc2b99536cb)">
     <!-- 13 -->
     <g transform="translate(556.397931 1153.383238)scale(0.12 -0.12)">
      <use xlink:href="#DejaVuSans-31"/>
      <use x="63.623047" xlink:href="#DejaVuSans-33"/>
     </g>
    </g>
   </g>
   <g id="text_95">
    <g clip-path="url(#pc2b99536cb)">
     <!-- 14 -->
     <g transform="translate(565.810734 1084.574625)scale(0.12 -0.12)">
      <use xlink:href="#DejaVuSans-31"/>
      <use x="63.623047" xlink:href="#DejaVuSans-34"/>
     </g>
    </g>
   </g>
   <g id="text_96">
    <!-- random layout -->
    <g transform="translate(586.010937 882.6)scale(0.2 -0.2)">
     <use xlink:href="#DejaVuSans-72"/>
     <use x="41.113281" xlink:href="#DejaVuSans-61"/>
     <use x="102.392578" xlink:href="#DejaVuSans-6e"/>
     <use x="165.771484" xlink:href="#DejaVuSans-64"/>
     <use x="229.248047" xlink:href="#DejaVuSans-6f"/>
     <use x="290.429688" xlink:href="#DejaVuSans-6d"/>
     <use x="387.841797" xlink:href="#DejaVuSans-20"/>
     <use x="419.628906" xlink:href="#DejaVuSans-6c"/>
     <use x="447.412109" xlink:href="#DejaVuSans-61"/>
     <use x="508.691406" xlink:href="#DejaVuSans-79"/>
     <use x="567.871094" xlink:href="#DejaVuSans-6f"/>
     <use x="629.052734" xlink:href="#DejaVuSans-75"/>
     <use x="692.431641" xlink:href="#DejaVuSans-74"/>
    </g>
   </g>
  </g>
 </g>
 <defs>
  <clipPath id="pbe28d9a32b">
   <rect height="379.6" width="381.05" x="42.05" y="31.8"/>
  </clipPath>
  <clipPath id="p0431708660">
   <rect height="379.6" width="381.05" x="468.65" y="31.8"/>
  </clipPath>
  <clipPath id="p6d944950fa">
   <rect height="379.6" width="381.05" x="42.05" y="460.2"/>
  </clipPath>
  <clipPath id="pfb2319f541">
   <rect height="379.6" width="381.05" x="468.65" y="460.2"/>
  </clipPath>
  <clipPath id="p47cb345d72">
   <rect height="379.6" width="381.05" x="42.05" y="888.6"/>
  </clipPath>
  <clipPath id="pc2b99536cb">
   <rect height="379.6" width="381.05" x="468.65" y="888.6"/>
  </clipPath>
 </defs>
</svg>
