<?xml version="1.0" encoding="utf-8" standalone="no"?>
<!DOCTYPE svg PUBLIC "-//W3C//DTD SVG 1.1//EN"
  "http://www.w3.org/Graphics/SVG/1.1/DTD/svg11.dtd">
<!-- Created with matplotlib (http://matplotlib.org/) -->
<svg height="432pt" version="1.1" viewBox="0 0 720 432" width="720pt" xmlns="http://www.w3.org/2000/svg" xmlns:xlink="http://www.w3.org/1999/xlink">
 <defs>
  <style type="text/css">
*{stroke-linecap:butt;stroke-linejoin:round;}
  </style>
 </defs>
 <g id="figure_1">
  <g id="patch_1">
   <path d="M 0 432 
L 720 432 
L 720 0 
L 0 0 
z
" style="fill:#ffffff;"/>
  </g>
  <g id="axes_1">
   <g id="patch_2">
    <path d="M 90 378 
L 648 378 
L 648 51.84 
L 90 51.84 
z
" style="fill:#ffffff;"/>
   </g>
   <g id="patch_3">
    <path clip-path="url(#p19458e6998)" d="M 115.363636 378 
L 199.909091 378 
L 199.909091 310.55502 
L 115.363636 310.55502 
z
" style="fill:#ff69b4;"/>
   </g>
   <g id="patch_4">
    <path clip-path="url(#p19458e6998)" d="M 221.045455 378 
L 305.590909 378 
L 305.590909 243.110041 
L 221.045455 243.110041 
z
" style="fill:#ff69b4;"/>
   </g>
   <g id="patch_5">
    <path clip-path="url(#p19458e6998)" d="M 326.727273 378 
L 411.272727 378 
L 411.272727 100.726195 
L 326.727273 100.726195 
z
" style="fill:#ff69b4;"/>
   </g>
   <g id="patch_6">
    <path clip-path="url(#p19458e6998)" d="M 432.409091 378 
L 516.954545 378 
L 516.954545 205.640608 
L 432.409091 205.640608 
z
" style="fill:#ff69b4;"/>
   </g>
   <g id="patch_7">
    <path clip-path="url(#p19458e6998)" d="M 538.090909 378 
L 622.636364 378 
L 622.636364 280.579474 
L 538.090909 280.579474 
z
" style="fill:#ff69b4;"/>
   </g>
   <g id="matplotlib.axis_1">
    <g id="xtick_1">
     <g id="line2d_1">
      <defs>
       <path d="M 0 0 
L 0 3.5 
" id="mb6828419f1" style="stroke:#000000;stroke-width:0.8;"/>
      </defs>
      <g>
       <use style="stroke:#000000;stroke-width:0.8;" x="157.636364" xlink:href="#mb6828419f1" y="378"/>
      </g>
     </g>
     <g id="text_1">
      <!-- -2.5 ~ -1.6 -->
      <defs>
       <path d="M 4.890625 31.390625 
L 31.203125 31.390625 
L 31.203125 23.390625 
L 4.890625 23.390625 
z
" id="DejaVuSans-2d"/>
       <path d="M 19.1875 8.296875 
L 53.609375 8.296875 
L 53.609375 0 
L 7.328125 0 
L 7.328125 8.296875 
Q 12.9375 14.109375 22.625 23.890625 
Q 32.328125 33.6875 34.8125 36.53125 
Q 39.546875 41.84375 41.421875 45.53125 
Q 43.3125 49.21875 43.3125 52.78125 
Q 43.3125 58.59375 39.234375 62.25 
Q 35.15625 65.921875 28.609375 65.921875 
Q 23.96875 65.921875 18.8125 64.3125 
Q 13.671875 62.703125 7.8125 59.421875 
L 7.8125 69.390625 
Q 13.765625 71.78125 18.9375 73 
Q 24.125 74.21875 28.421875 74.21875 
Q 39.75 74.21875 46.484375 68.546875 
Q 53.21875 62.890625 53.21875 53.421875 
Q 53.21875 48.921875 51.53125 44.890625 
Q 49.859375 40.875 45.40625 35.40625 
Q 44.1875 33.984375 37.640625 27.21875 
Q 31.109375 20.453125 19.1875 8.296875 
z
" id="DejaVuSans-32"/>
       <path d="M 10.6875 12.40625 
L 21 12.40625 
L 21 0 
L 10.6875 0 
z
" id="DejaVuSans-2e"/>
       <path d="M 10.796875 72.90625 
L 49.515625 72.90625 
L 49.515625 64.59375 
L 19.828125 64.59375 
L 19.828125 46.734375 
Q 21.96875 47.46875 24.109375 47.828125 
Q 26.265625 48.1875 28.421875 48.1875 
Q 40.625 48.1875 47.75 41.5 
Q 54.890625 34.8125 54.890625 23.390625 
Q 54.890625 11.625 47.5625 5.09375 
Q 40.234375 -1.421875 26.90625 -1.421875 
Q 22.3125 -1.421875 17.546875 -0.640625 
Q 12.796875 0.140625 7.71875 1.703125 
L 7.71875 11.625 
Q 12.109375 9.234375 16.796875 8.0625 
Q 21.484375 6.890625 26.703125 6.890625 
Q 35.15625 6.890625 40.078125 11.328125 
Q 45.015625 15.765625 45.015625 23.390625 
Q 45.015625 31 40.078125 35.4375 
Q 35.15625 39.890625 26.703125 39.890625 
Q 22.75 39.890625 18.8125 39.015625 
Q 14.890625 38.140625 10.796875 36.28125 
z
" id="DejaVuSans-35"/>
       <path id="DejaVuSans-20"/>
       <path d="M 73.1875 39.890625 
L 73.1875 31.203125 
Q 68.0625 27.34375 63.6875 25.6875 
Q 59.328125 24.03125 54.59375 24.03125 
Q 49.21875 24.03125 42.09375 26.90625 
Q 41.546875 27.09375 41.3125 27.203125 
Q 40.96875 27.34375 40.234375 27.59375 
Q 32.671875 30.609375 28.078125 30.609375 
Q 23.78125 30.609375 19.578125 28.734375 
Q 15.375 26.859375 10.59375 22.796875 
L 10.59375 31.5 
Q 15.71875 35.359375 20.09375 37.03125 
Q 24.46875 38.71875 29.203125 38.71875 
Q 34.578125 38.71875 41.75 35.796875 
Q 42.234375 35.59375 42.484375 35.5 
Q 42.875 35.359375 43.5625 35.109375 
Q 51.125 32.078125 55.71875 32.078125 
Q 59.90625 32.078125 64.03125 33.9375 
Q 68.171875 35.796875 73.1875 39.890625 
z
" id="DejaVuSans-7e"/>
       <path d="M 12.40625 8.296875 
L 28.515625 8.296875 
L 28.515625 63.921875 
L 10.984375 60.40625 
L 10.984375 69.390625 
L 28.421875 72.90625 
L 38.28125 72.90625 
L 38.28125 8.296875 
L 54.390625 8.296875 
L 54.390625 0 
L 12.40625 0 
z
" id="DejaVuSans-31"/>
       <path d="M 33.015625 40.375 
Q 26.375 40.375 22.484375 35.828125 
Q 18.609375 31.296875 18.609375 23.390625 
Q 18.609375 15.53125 22.484375 10.953125 
Q 26.375 6.390625 33.015625 6.390625 
Q 39.65625 6.390625 43.53125 10.953125 
Q 47.40625 15.53125 47.40625 23.390625 
Q 47.40625 31.296875 43.53125 35.828125 
Q 39.65625 40.375 33.015625 40.375 
z
M 52.59375 71.296875 
L 52.59375 62.3125 
Q 48.875 64.0625 45.09375 64.984375 
Q 41.3125 65.921875 37.59375 65.921875 
Q 27.828125 65.921875 22.671875 59.328125 
Q 17.53125 52.734375 16.796875 39.40625 
Q 19.671875 43.65625 24.015625 45.921875 
Q 28.375 48.1875 33.59375 48.1875 
Q 44.578125 48.1875 50.953125 41.515625 
Q 57.328125 34.859375 57.328125 23.390625 
Q 57.328125 12.15625 50.6875 5.359375 
Q 44.046875 -1.421875 33.015625 -1.421875 
Q 20.359375 -1.421875 13.671875 8.265625 
Q 6.984375 17.96875 6.984375 36.375 
Q 6.984375 53.65625 15.1875 63.9375 
Q 23.390625 74.21875 37.203125 74.21875 
Q 40.921875 74.21875 44.703125 73.484375 
Q 48.484375 72.75 52.59375 71.296875 
z
" id="DejaVuSans-36"/>
      </defs>
      <g transform="translate(130.757457 392.598437)scale(0.1 -0.1)">
       <use xlink:href="#DejaVuSans-2d"/>
       <use x="36.083984" xlink:href="#DejaVuSans-32"/>
       <use x="99.707031" xlink:href="#DejaVuSans-2e"/>
       <use x="131.494141" xlink:href="#DejaVuSans-35"/>
       <use x="195.117188" xlink:href="#DejaVuSans-20"/>
       <use x="226.904297" xlink:href="#DejaVuSans-7e"/>
       <use x="310.693359" xlink:href="#DejaVuSans-20"/>
       <use x="342.480469" xlink:href="#DejaVuSans-2d"/>
       <use x="378.564453" xlink:href="#DejaVuSans-31"/>
       <use x="442.1875" xlink:href="#DejaVuSans-2e"/>
       <use x="473.974609" xlink:href="#DejaVuSans-36"/>
      </g>
     </g>
    </g>
    <g id="xtick_2">
     <g id="line2d_2">
      <g>
       <use style="stroke:#000000;stroke-width:0.8;" x="263.318182" xlink:href="#mb6828419f1" y="378"/>
      </g>
     </g>
     <g id="text_2">
      <!-- -1.6 ~ -0.6 -->
      <defs>
       <path d="M 31.78125 66.40625 
Q 24.171875 66.40625 20.328125 58.90625 
Q 16.5 51.421875 16.5 36.375 
Q 16.5 21.390625 20.328125 13.890625 
Q 24.171875 6.390625 31.78125 6.390625 
Q 39.453125 6.390625 43.28125 13.890625 
Q 47.125 21.390625 47.125 36.375 
Q 47.125 51.421875 43.28125 58.90625 
Q 39.453125 66.40625 31.78125 66.40625 
z
M 31.78125 74.21875 
Q 44.046875 74.21875 50.515625 64.515625 
Q 56.984375 54.828125 56.984375 36.375 
Q 56.984375 17.96875 50.515625 8.265625 
Q 44.046875 -1.421875 31.78125 -1.421875 
Q 19.53125 -1.421875 13.0625 8.265625 
Q 6.59375 17.96875 6.59375 36.375 
Q 6.59375 54.828125 13.0625 64.515625 
Q 19.53125 74.21875 31.78125 74.21875 
z
" id="DejaVuSans-30"/>
      </defs>
      <g transform="translate(236.439276 392.598437)scale(0.1 -0.1)">
       <use xlink:href="#DejaVuSans-2d"/>
       <use x="36.083984" xlink:href="#DejaVuSans-31"/>
       <use x="99.707031" xlink:href="#DejaVuSans-2e"/>
       <use x="131.494141" xlink:href="#DejaVuSans-36"/>
       <use x="195.117188" xlink:href="#DejaVuSans-20"/>
       <use x="226.904297" xlink:href="#DejaVuSans-7e"/>
       <use x="310.693359" xlink:href="#DejaVuSans-20"/>
       <use x="342.480469" xlink:href="#DejaVuSans-2d"/>
       <use x="378.564453" xlink:href="#DejaVuSans-30"/>
       <use x="442.1875" xlink:href="#DejaVuSans-2e"/>
       <use x="473.974609" xlink:href="#DejaVuSans-36"/>
      </g>
     </g>
    </g>
    <g id="xtick_3">
     <g id="line2d_3">
      <g>
       <use style="stroke:#000000;stroke-width:0.8;" x="369" xlink:href="#mb6828419f1" y="378"/>
      </g>
     </g>
     <g id="text_3">
      <!-- -0.6 ~ 0.3 -->
      <defs>
       <path d="M 40.578125 39.3125 
Q 47.65625 37.796875 51.625 33 
Q 55.609375 28.21875 55.609375 21.1875 
Q 55.609375 10.40625 48.1875 4.484375 
Q 40.765625 -1.421875 27.09375 -1.421875 
Q 22.515625 -1.421875 17.65625 -0.515625 
Q 12.796875 0.390625 7.625 2.203125 
L 7.625 11.71875 
Q 11.71875 9.328125 16.59375 8.109375 
Q 21.484375 6.890625 26.8125 6.890625 
Q 36.078125 6.890625 40.9375 10.546875 
Q 45.796875 14.203125 45.796875 21.1875 
Q 45.796875 27.640625 41.28125 31.265625 
Q 36.765625 34.90625 28.71875 34.90625 
L 20.21875 34.90625 
L 20.21875 43.015625 
L 29.109375 43.015625 
Q 36.375 43.015625 40.234375 45.921875 
Q 44.09375 48.828125 44.09375 54.296875 
Q 44.09375 59.90625 40.109375 62.90625 
Q 36.140625 65.921875 28.71875 65.921875 
Q 24.65625 65.921875 20.015625 65.03125 
Q 15.375 64.15625 9.8125 62.3125 
L 9.8125 71.09375 
Q 15.4375 72.65625 20.34375 73.4375 
Q 25.25 74.21875 29.59375 74.21875 
Q 40.828125 74.21875 47.359375 69.109375 
Q 53.90625 64.015625 53.90625 55.328125 
Q 53.90625 49.265625 50.4375 45.09375 
Q 46.96875 40.921875 40.578125 39.3125 
z
" id="DejaVuSans-33"/>
      </defs>
      <g transform="translate(343.925 392.598437)scale(0.1 -0.1)">
       <use xlink:href="#DejaVuSans-2d"/>
       <use x="36.083984" xlink:href="#DejaVuSans-30"/>
       <use x="99.707031" xlink:href="#DejaVuSans-2e"/>
       <use x="131.494141" xlink:href="#DejaVuSans-36"/>
       <use x="195.117188" xlink:href="#DejaVuSans-20"/>
       <use x="226.904297" xlink:href="#DejaVuSans-7e"/>
       <use x="310.693359" xlink:href="#DejaVuSans-20"/>
       <use x="342.480469" xlink:href="#DejaVuSans-30"/>
       <use x="406.103516" xlink:href="#DejaVuSans-2e"/>
       <use x="437.890625" xlink:href="#DejaVuSans-33"/>
      </g>
     </g>
    </g>
    <g id="xtick_4">
     <g id="line2d_4">
      <g>
       <use style="stroke:#000000;stroke-width:0.8;" x="474.681818" xlink:href="#mb6828419f1" y="378"/>
      </g>
     </g>
     <g id="text_4">
      <!-- 0.3 ~ 1.2 -->
      <g transform="translate(451.410724 392.598437)scale(0.1 -0.1)">
       <use xlink:href="#DejaVuSans-30"/>
       <use x="63.623047" xlink:href="#DejaVuSans-2e"/>
       <use x="95.410156" xlink:href="#DejaVuSans-33"/>
       <use x="159.033203" xlink:href="#DejaVuSans-20"/>
       <use x="190.820312" xlink:href="#DejaVuSans-7e"/>
       <use x="274.609375" xlink:href="#DejaVuSans-20"/>
       <use x="306.396484" xlink:href="#DejaVuSans-31"/>
       <use x="370.019531" xlink:href="#DejaVuSans-2e"/>
       <use x="401.806641" xlink:href="#DejaVuSans-32"/>
      </g>
     </g>
    </g>
    <g id="xtick_5">
     <g id="line2d_5">
      <g>
       <use style="stroke:#000000;stroke-width:0.8;" x="580.363636" xlink:href="#mb6828419f1" y="378"/>
      </g>
     </g>
     <g id="text_5">
      <!-- 1.2 ~ 2.2 -->
      <g transform="translate(557.092543 392.598437)scale(0.1 -0.1)">
       <use xlink:href="#DejaVuSans-31"/>
       <use x="63.623047" xlink:href="#DejaVuSans-2e"/>
       <use x="95.410156" xlink:href="#DejaVuSans-32"/>
       <use x="159.033203" xlink:href="#DejaVuSans-20"/>
       <use x="190.820312" xlink:href="#DejaVuSans-7e"/>
       <use x="274.609375" xlink:href="#DejaVuSans-20"/>
       <use x="306.396484" xlink:href="#DejaVuSans-32"/>
       <use x="370.019531" xlink:href="#DejaVuSans-2e"/>
       <use x="401.806641" xlink:href="#DejaVuSans-32"/>
      </g>
     </g>
    </g>
   </g>
   <g id="matplotlib.axis_2"/>
   <g id="patch_8">
    <path d="M 90 378 
L 90 51.84 
" style="fill:none;stroke:#000000;stroke-linecap:square;stroke-linejoin:miter;stroke-width:0.8;"/>
   </g>
   <g id="patch_9">
    <path d="M 648 378 
L 648 51.84 
" style="fill:none;stroke:#000000;stroke-linecap:square;stroke-linejoin:miter;stroke-width:0.8;"/>
   </g>
   <g id="patch_10">
    <path d="M 90 378 
L 648 378 
" style="fill:none;stroke:#000000;stroke-linecap:square;stroke-linejoin:miter;stroke-width:0.8;"/>
   </g>
   <g id="patch_11">
    <path d="M 90 51.84 
L 648 51.84 
" style="fill:none;stroke:#000000;stroke-linecap:square;stroke-linejoin:miter;stroke-width:0.8;"/>
   </g>
   <g id="text_6">
    <!-- 09.6% -->
    <defs>
     <path d="M 30.703125 -8.296875 
C 37.40625 -8.09375 43.5 -5.203125 48.5 -0.296875 
C 54.09375 5.296875 55.703125 13 56.703125 20.796875 
C 57.203125 25 57.40625 29.296875 56.90625 33.5 
C 55.40625 46.203125 50.09375 59.40625 37.90625 62.296875 
C 33.5 63.296875 27.703125 63.59375 23.40625 62.296875 
C 21.796875 61.703125 20.09375 61 18.59375 60.296875 
C 14.40625 58.40625 9.90625 52.296875 8 47.796875 
C 5.40625 41.5 4 34.5 4 27.703125 
C 4 17.59375 7.40625 7.203125 13.796875 0 
C 16.5 -3.09375 19.796875 -5.703125 23.40625 -7.09375 
C 25.796875 -8 28.296875 -8.296875 30.703125 -8.296875 
z
M 30.59375 50 
C 40.5 50.296875 43.703125 39.59375 44.296875 31.59375 
C 44.90625 23.5 43.90625 11.09375 36.203125 6.40625 
C 33.796875 4.90625 31 4.703125 28.296875 5.40625 
C 25.40625 6.203125 23.203125 8.09375 21.59375 10.5 
C 18.296875 15.5 17.203125 22.09375 17.203125 27.796875 
C 17.203125 33.296875 18.09375 39 20.90625 43.796875 
C 22 45.703125 23.5 47.5 25.296875 48.703125 
C 26.90625 49.703125 28.796875 50 30.59375 50 
z
" id="BMJUAOTF-30"/>
     <path d="M 27 -8.796875 
C 45 -8.796875 54.90625 6.59375 54.90625 29.09375 
C 54.90625 42.90625 52.59375 50.703125 47.703125 55.90625 
C 42.90625 60.796875 37.5 63.296875 29 63.296875 
C 14.09375 63.296875 4 52.90625 4 39 
C 4 25.59375 13.40625 17 27.703125 17 
C 32.203125 17 37.5 18.296875 41.40625 20.59375 
C 42.703125 11.703125 36.09375 2.296875 27.296875 2.296875 
C 23.5 2.296875 19.796875 2.90625 16.796875 5.40625 
C 14.40625 7.59375 12.40625 10.203125 8.90625 8.09375 
C 3.5 4.90625 6.90625 -0.40625 10.40625 -3.59375 
C 15.09375 -7.703125 20.90625 -8.796875 27 -8.796875 
z
M 29.296875 51.203125 
C 32.203125 50.90625 35 50.09375 36.796875 48.59375 
C 41.203125 44.59375 42.90625 37.703125 38.59375 32.703125 
C 34.296875 27.703125 25 26.09375 19.796875 30.796875 
C 14 35.90625 15.296875 47.40625 22.59375 50.296875 
C 24.40625 50.90625 26.90625 51.296875 29.296875 51.203125 
z
" id="BMJUAOTF-39"/>
     <path d="M 16.296875 -8.59375 
C 16.296875 -5.09375 13.5 -2.203125 10 -2.203125 
C 6.5 -2.203125 3.703125 -5.09375 3.703125 -8.59375 
C 3.703125 -12.09375 6.5 -14.90625 10 -14.90625 
C 13.5 -14.90625 16.296875 -12.09375 16.296875 -8.59375 
z
" id="BMJUAOTF-2e"/>
     <path d="M 46.703125 47.203125 
C 49 45.796875 52.40625 47 53 48.09375 
C 56.09375 53 51.09375 57.40625 48.40625 59.09375 
C 38.5 65.203125 25.5 64.5 16.5 57.296875 
C 6.90625 49.703125 4 36.90625 4 25.203125 
C 4 11.09375 7.296875 3.796875 12.5 -1.5 
C 17.09375 -6 23.40625 -8.796875 31.90625 -8.796875 
C 46.59375 -8.796875 57.796875 1 57.796875 15 
C 57.796875 29.09375 46.90625 37 33.40625 37 
C 25.296875 37 20.40625 33.59375 16.796875 30 
C 17.09375 37.796875 19.59375 45.90625 27.296875 49.5 
C 32.09375 51.703125 38 51.296875 42.703125 49.5 
C 44.09375 49 45.5 48 46.703125 47.203125 
z
M 31.203125 25 
C 38.703125 25.40625 44.703125 23.203125 45.5 15.40625 
C 46.203125 8.203125 40.796875 2.703125 33.703125 1.90625 
C 27.296875 1.203125 19.5 4.296875 18.296875 11 
C 17.703125 13.796875 17.703125 16.796875 19.59375 19.09375 
C 22.5 22.59375 26.703125 24.703125 31.203125 25 
z
" id="BMJUAOTF-36"/>
     <path d="M 62.703125 -10.90625 
C 66.296875 -10 69.5 -8.5 70.796875 -4.59375 
C 72.5 0.09375 72.703125 4.09375 72.09375 9.09375 
C 71.796875 12 70.296875 16.40625 68.09375 18.296875 
C 65.90625 20.203125 63.09375 21 60.203125 21.09375 
C 57.09375 21.5 53.796875 21.40625 50.796875 20.296875 
C 47 19.09375 43.796875 15.09375 42.90625 11.203125 
C 42.09375 6.796875 41.59375 2.5 42.796875 -1.703125 
C 43.796875 -5 46.796875 -9.203125 50 -10.5 
C 54.296875 -12.296875 58.296875 -12 62.703125 -10.90625 
z
M 61.59375 59 
C 61.40625 61.5 59 63 56.703125 62.5 
C 52.296875 61.59375 49.703125 56.796875 47.59375 53.09375 
C 45.59375 49.5 43.40625 45.703125 41.5 42 
C 36.5 32.90625 31.296875 23.703125 26.296875 14.59375 
C 24.296875 11.203125 22.203125 7.59375 20.296875 4 
C 18.796875 1.296875 17 -1.40625 17 -4.5 
C 17.09375 -6.296875 18.5 -8 20.296875 -8.296875 
C 26.09375 -9.203125 29.203125 -2.40625 31.59375 1.703125 
C 33.796875 5.703125 35.90625 9.59375 38 13.5 
C 43 22.59375 48 31.59375 53.09375 40.59375 
C 55 44.09375 56.90625 47.5 58.703125 51 
C 60.09375 53.296875 61.90625 56 61.59375 58.796875 
z
M 25.90625 32.796875 
C 29.40625 33.796875 32.296875 35.796875 33.703125 39.40625 
C 35.09375 44.203125 35.59375 49.59375 35 54.703125 
C 34.703125 57.5 33.40625 60.296875 31.203125 62.203125 
C 29 64.09375 26.296875 64.90625 23.40625 65.09375 
C 20.296875 65.203125 17.09375 65.09375 14 64.09375 
C 10.09375 62.796875 6.90625 58.796875 6 54.90625 
C 5.203125 50.59375 4.796875 46.40625 5.90625 42 
C 6.90625 38.796875 9.40625 34.59375 12.59375 33.40625 
C 16.90625 31.59375 21.59375 31.796875 25.90625 32.796875 
z
M 58.90625 -3.40625 
C 57.703125 -3.703125 56.09375 -3.5 55.09375 -3.296875 
C 50.59375 -2.40625 51.296875 4.5 51.703125 7.59375 
C 51.796875 9.59375 52.59375 11.296875 54.5 12.203125 
C 56.296875 13.09375 58.796875 13 60.703125 12 
C 62.90625 10.796875 63.5 7.296875 63.5 5.296875 
C 63.59375 2.90625 63.40625 -0.40625 61.40625 -2.296875 
C 60.796875 -3 60 -3.296875 58.90625 -3.40625 
z
M 22.203125 40.296875 
C 20.90625 40.09375 19.296875 40.296875 18.296875 40.40625 
C 13.796875 41.296875 14.5 48.40625 14.703125 51.40625 
C 15.09375 53.40625 15.703125 55 17.796875 56 
C 19.59375 57 21.90625 56.796875 23.90625 55.703125 
C 26.203125 54.703125 26.40625 51.5 26.40625 49.40625 
C 26.40625 46.90625 26.59375 43.5 24.59375 41.5 
C 24 40.90625 23.296875 40.40625 22.203125 40.296875 
z
" id="BMJUAOTF-25"/>
    </defs>
    <g style="fill:#ff0000;" transform="translate(130.800525 300.048269)scale(0.2 -0.2)">
     <use xlink:href="#BMJUAOTF-30"/>
     <use x="61.199997" xlink:href="#BMJUAOTF-39"/>
     <use x="120.099991" xlink:href="#BMJUAOTF-2e"/>
     <use x="140.099976" xlink:href="#BMJUAOTF-36"/>
     <use x="201.899963" xlink:href="#BMJUAOTF-25"/>
    </g>
   </g>
   <g id="text_7">
    <!-- 19.3% -->
    <defs>
     <path d="M 20.796875 63.59375 
C 16.59375 62.40625 12.5 60.703125 8.296875 59.296875 
C 4.40625 58.09375 1.59375 55.796875 2.09375 51.59375 
C 2.5 47.5 5.796875 46.703125 9.296875 47.09375 
C 10.40625 47.09375 17.296875 48.203125 17.703125 49.40625 
C 17.703125 31.59375 17.40625 15 18.296875 -2.5 
C 18.296875 -4.703125 18.40625 -7.40625 20.796875 -8.203125 
C 23 -9 26.703125 -9.09375 28.59375 -7.59375 
C 31.40625 -5.59375 30.703125 -1.796875 30.703125 1 
L 30.703125 52.09375 
C 30.703125 55 31.203125 59.703125 30.09375 62.40625 
C 29 64.703125 25.296875 64.703125 23.296875 64.203125 
C 22.5 64.09375 21.703125 63.796875 20.796875 63.59375 
z
" id="BMJUAOTF-31"/>
     <path d="M 5.703125 52.5 
C 8.703125 49.90625 14.796875 50.5 18.40625 50.5 
L 25.09375 50.5 
C 26.703125 50.5 31.296875 51.203125 30.5 49 
C 30 47 26.703125 43.59375 24.703125 41.59375 
C 21.59375 38.09375 12.09375 31.203125 16.59375 26 
C 20.703125 21.40625 28.296875 23.203125 33.40625 20.203125 
C 38.796875 17.09375 39.796875 9.796875 33.796875 6.203125 
C 28.59375 3.09375 23 4 18.09375 7 
C 14.90625 8.796875 11.5 11.296875 7.5 9.90625 
C 2.09375 8 3.90625 1.40625 7.09375 -1.703125 
C 11.703125 -6.40625 20.09375 -8.40625 26.296875 -8.40625 
C 40.59375 -8.40625 51 1.296875 51 14.09375 
C 51 26.90625 41.40625 32.09375 30.90625 33.5 
C 33.796875 36.5 38 40.296875 40.90625 43.296875 
C 44.09375 46.5 48.5 51 48.203125 56.296875 
C 48 60.90625 43.703125 62.296875 39.703125 62.5 
C 34.796875 62.703125 28.90625 62.90625 24.203125 62.90625 
C 21.203125 62.90625 19 63 16 62.90625 
C 12.09375 62.703125 8.90625 62.796875 5.90625 60.09375 
C 4.796875 59.09375 4.5 57.59375 4.40625 56.09375 
C 4.40625 54.40625 4.796875 53.296875 5.703125 52.5 
z
" id="BMJUAOTF-33"/>
    </defs>
    <g style="fill:#ff0000;" transform="translate(236.482343 232.603289)scale(0.2 -0.2)">
     <use xlink:href="#BMJUAOTF-31"/>
     <use x="41.099991" xlink:href="#BMJUAOTF-39"/>
     <use x="99.999985" xlink:href="#BMJUAOTF-2e"/>
     <use x="119.999969" xlink:href="#BMJUAOTF-33"/>
     <use x="174.999954" xlink:href="#BMJUAOTF-25"/>
    </g>
   </g>
   <g id="text_8">
    <!-- 39.6% -->
    <g style="fill:#ff0000;" transform="translate(342.164161 90.219444)scale(0.2 -0.2)">
     <use xlink:href="#BMJUAOTF-33"/>
     <use x="54.999985" xlink:href="#BMJUAOTF-39"/>
     <use x="113.899979" xlink:href="#BMJUAOTF-2e"/>
     <use x="133.899963" xlink:href="#BMJUAOTF-36"/>
     <use x="195.699951" xlink:href="#BMJUAOTF-25"/>
    </g>
   </g>
   <g id="text_9">
    <!-- 24.6% -->
    <defs>
     <path d="M 15.796875 40.09375 
C 16.703125 41.40625 17.40625 43.09375 18.203125 44.5 
C 20.796875 48.296875 25.203125 50.40625 29.796875 50.40625 
C 36.09375 50.40625 40.796875 46.5 40.796875 39.796875 
C 40.796875 33.703125 37.40625 29.296875 28 21.5 
C 24.40625 18.40625 20.203125 15.40625 16.703125 12.296875 
C 11.90625 8.296875 4.59375 3.90625 4.59375 -2.90625 
C 4.59375 -4.90625 3.90625 -7.09375 6.296875 -7.703125 
C 7.5 -8.09375 9.203125 -7.796875 10.5 -7.796875 
L 46.40625 -7.796875 
C 48.703125 -7.796875 51.5 -8.40625 53.203125 -6.40625 
C 55 -4.5 54.90625 0.796875 52.796875 2.59375 
C 50.703125 4.40625 46.703125 3.703125 44 3.90625 
C 40.703125 4.203125 37.296875 3.90625 33.90625 3.90625 
C 31 3.90625 29.796875 3.703125 26.90625 3.90625 
C 22.09375 4.296875 29.59375 7.90625 31 9 
C 33.09375 10.703125 35.296875 12.5 37.296875 14.203125 
C 49.40625 24.09375 53.09375 29.90625 53.09375 40.703125 
C 53.09375 52.09375 46.90625 59.296875 36.296875 62.59375 
C 28.5 65.09375 17.796875 62.796875 11.5 57.59375 
C 8.09375 54.796875 4.5 48.90625 4.09375 44.5 
C 3.59375 38.09375 11.90625 33.90625 15.796875 40.09375 
z
" id="BMJUAOTF-32"/>
     <path d="M 46 61.203125 
C 44.40625 63.5 41.203125 63.296875 38 61.796875 
C 34.703125 60.203125 32.703125 56.90625 30.796875 54.09375 
C 28.296875 50.5 25.203125 47.296875 22.59375 43.703125 
C 17.796875 36.796875 13.203125 29.59375 8.09375 22.796875 
C 5.40625 19.296875 1.5 14 6.203125 10.40625 
C 9.203125 8.09375 14 8.5 17.796875 8.5 
L 35.40625 8.5 
C 36 8.5 35.703125 -0.90625 35.796875 -1.796875 
C 36 -4 36.40625 -7.203125 38.796875 -8 
C 40.296875 -8.40625 43.703125 -8.296875 44.90625 -7.5 
C 47.796875 -5.59375 47.5 -0.703125 47.5 2.203125 
L 47.5 9 
C 47.703125 8.59375 51.59375 8.90625 52 8.90625 
C 55.703125 9.09375 58.796875 10.40625 58.796875 14.59375 
C 58.59375 18.09375 54.703125 19.40625 51.796875 19.40625 
L 47.5 19.40625 
L 47.5 27.90625 
C 47.5 33.296875 47.40625 38.703125 47.40625 44.09375 
C 47.296875 48.796875 47.5 53.796875 46.90625 58.40625 
C 46.796875 59.5 46.40625 60.59375 46 61.203125 
z
M 36.09375 19.796875 
L 19.5 19.796875 
L 36.09375 43.203125 
z
" id="BMJUAOTF-34"/>
    </defs>
    <g style="fill:#ff0000;" transform="translate(447.845979 195.133856)scale(0.2 -0.2)">
     <use xlink:href="#BMJUAOTF-32"/>
     <use x="58.499985" xlink:href="#BMJUAOTF-34"/>
     <use x="121.299973" xlink:href="#BMJUAOTF-2e"/>
     <use x="141.299957" xlink:href="#BMJUAOTF-36"/>
     <use x="203.099945" xlink:href="#BMJUAOTF-25"/>
    </g>
   </g>
   <g id="text_10">
    <!-- 13.9% -->
    <g style="fill:#ff0000;" transform="translate(553.527797 270.072723)scale(0.2 -0.2)">
     <use xlink:href="#BMJUAOTF-31"/>
     <use x="41.099991" xlink:href="#BMJUAOTF-33"/>
     <use x="96.099976" xlink:href="#BMJUAOTF-2e"/>
     <use x="116.09996" xlink:href="#BMJUAOTF-39"/>
     <use x="174.999954" xlink:href="#BMJUAOTF-25"/>
    </g>
   </g>
  </g>
 </g>
 <defs>
  <clipPath id="p19458e6998">
   <rect height="326.16" width="558" x="90" y="51.84"/>
  </clipPath>
 </defs>
</svg>
