<?xml version="1.0" encoding="utf-8" standalone="no"?>
<!DOCTYPE svg PUBLIC "-//W3C//DTD SVG 1.1//EN"
  "http://www.w3.org/Graphics/SVG/1.1/DTD/svg11.dtd">
<!-- Created with matplotlib (http://matplotlib.org/) -->
<svg height="432pt" version="1.1" viewBox="0 0 432 432" width="432pt" xmlns="http://www.w3.org/2000/svg" xmlns:xlink="http://www.w3.org/1999/xlink">
 <defs>
  <style type="text/css">
*{stroke-linecap:butt;stroke-linejoin:round;}
  </style>
 </defs>
 <g id="figure_1">
  <g id="patch_1">
   <path d="M 0 432 
L 432 432 
L 432 0 
L 0 0 
z
" style="fill:#ffffff;"/>
  </g>
  <g id="axes_1">
   <g id="patch_2">
    <path d="M 312.266188 351.56555 
C 343.022516 333.808372 367.072631 306.384469 380.663383 273.573487 
C 394.254135 240.762505 396.63976 204.364877 387.447969 170.060649 
C 378.256178 135.756422 357.99135 105.427965 329.815921 83.808199 
C 301.640492 62.188433 267.100529 50.463695 231.586179 50.463695 
L 231.586179 211.823695 
L 312.266188 351.56555 
z
" style="fill:#808080;"/>
   </g>
   <g id="patch_3">
    <path d="M 72.081843 312.266188 
C 82.676644 330.61692 96.783119 346.70227 113.593961 359.601681 
C 130.404802 372.501091 149.593082 381.963702 170.060665 387.447973 
C 190.528249 392.932244 211.877092 394.33152 232.885413 391.565721 
C 253.893734 388.799922 274.152973 381.922835 292.503706 371.328034 
L 211.823697 231.586179 
L 72.081843 312.266188 
z
" style="fill:#ff0000;"/>
   </g>
   <g id="patch_4">
    <path d="M 216 54.64 
C 187.677512 54.64 159.847992 62.096898 135.319998 76.258142 
C 110.792004 90.419387 90.419382 110.79201 76.258138 135.320004 
C 62.096895 159.847999 54.639999 187.677519 54.64 216.000008 
C 54.640001 244.322496 62.0969 272.152015 76.258146 296.680009 
L 216 216 
L 216 54.64 
z
" style="fill:#0000ff;"/>
   </g>
   <g id="patch_5">
    <path clip-path="url(#pb904ff7ab0)" d="M 216 296.68 
C 237.396586 296.68 257.919704 288.179046 273.049375 273.049375 
C 288.179046 257.919704 296.68 237.396586 296.68 216 
C 296.68 194.603414 288.179046 174.080296 273.049375 158.950625 
C 257.919704 143.820954 237.396586 135.32 216 135.32 
C 194.603414 135.32 174.080296 143.820954 158.950625 158.950625 
C 143.820954 174.080296 135.32 194.603414 135.32 216 
C 135.32 237.396586 143.820954 257.919704 158.950625 273.049375 
C 174.080296 288.179046 194.603414 296.68 216 296.68 
z
" style="fill:#ffffff;stroke:#ffffff;stroke-linejoin:miter;"/>
   </g>
   <g id="matplotlib.axis_1"/>
   <g id="matplotlib.axis_2"/>
   <g id="text_1">
    <!-- A -->
    <defs>
     <path d="M 47.40625 -15.09375 
L 62.40625 -15.09375 
L 41.40625 70 
L 25.09375 70 
L 3.296875 -15.09375 
L 18.40625 -15.09375 
L 21.5 -2.09375 
L 44.40625 -2.09375 
z
M 32.796875 45.296875 
L 33.59375 45.296875 
L 41.5 10.5 
L 24.5 10.5 
z
" id="BMDoHyeon-OTF-41"/>
    </defs>
    <g style="fill:#008000;" transform="translate(403.034148 174.185126)scale(0.5 -0.5)">
     <use xlink:href="#BMDoHyeon-OTF-41"/>
    </g>
   </g>
   <g id="text_2">
    <!-- 41.7% -->
    <defs>
     <path d="M 55 70 
L 29.59375 70 
L 2 14.90625 
L 2 1.703125 
L 40.40625 1.703125 
L 40.40625 -15.09375 
L 55 -15.09375 
L 55 1.90625 
L 68 1.90625 
L 68 14.90625 
L 55 14.90625 
z
M 18 14.90625 
L 40.40625 58.40625 
L 40.40625 14.90625 
z
" id="BMDoHyeon-OTF-34"/>
     <path d="M 18 54.5 
L 18 -15.09375 
L 32.5 -15.09375 
L 32.5 70 
L 15.703125 70 
L 5.90625 54.5 
z
" id="BMDoHyeon-OTF-31"/>
     <path d="M 20.703125 -18 
L 20.703125 -3.59375 
L 5.90625 -3.59375 
L 5.90625 -18 
z
" id="BMDoHyeon-OTF-2e"/>
     <path d="M 4.40625 40.90625 
L 20.203125 40.90625 
L 20.203125 53.59375 
L 42.5 53.59375 
L 30.5 -15.09375 
L 46.5 -15.09375 
L 61.5 69 
L 4.40625 69 
z
" id="BMDoHyeon-OTF-37"/>
     <path d="M 51.90625 72.796875 
L 21.296875 -18 
L 35.703125 -18 
L 66.09375 72.796875 
z
M 21.703125 69 
L 13.59375 69 
C 7.203125 69 2 62.5 2 56.09375 
L 2 45.203125 
C 2 38.203125 7.203125 32.5 13.59375 32.5 
L 21.703125 32.5 
C 28.09375 32.5 33.296875 38.203125 33.296875 45.203125 
L 33.296875 56.59375 
C 33.296875 63.296875 27.796875 69 21.703125 69 
z
M 22.90625 47.796875 
C 22.90625 45.703125 21.296875 43.90625 19.40625 43.90625 
L 15.90625 43.90625 
C 14 43.90625 12.40625 45.703125 12.40625 47.796875 
L 12.40625 53.59375 
C 12.40625 55.796875 14 57.59375 15.90625 57.59375 
L 19.40625 57.59375 
C 21.296875 57.59375 22.90625 55.796875 22.90625 53.59375 
z
M 73.296875 22.296875 
L 65.203125 22.296875 
C 58.796875 22.296875 53.59375 15.796875 53.59375 9.40625 
L 53.59375 -1.5 
C 53.59375 -8.5 58.796875 -14.203125 65.203125 -14.203125 
L 73.296875 -14.203125 
C 79.703125 -14.203125 84.90625 -8.5 84.90625 -1.5 
L 84.90625 9.90625 
C 84.90625 16.59375 79.40625 22.296875 73.296875 22.296875 
z
M 74.5 1.09375 
C 74.5 -1 72.90625 -2.796875 71 -2.796875 
L 67.5 -2.796875 
C 65.59375 -2.796875 64 -1 64 1.09375 
L 64 6.90625 
C 64 9.09375 65.59375 10.90625 67.5 10.90625 
L 71 10.90625 
C 72.90625 10.90625 74.5 9.09375 74.5 6.90625 
z
" id="BMDoHyeon-OTF-25"/>
    </defs>
    <g style="fill:#ffffff;" transform="translate(311.667557 185.909876)scale(0.2 -0.2)">
     <use xlink:href="#BMDoHyeon-OTF-34"/>
     <use x="69.999985" xlink:href="#BMDoHyeon-OTF-31"/>
     <use x="112.399979" xlink:href="#BMDoHyeon-OTF-2e"/>
     <use x="137.399963" xlink:href="#BMDoHyeon-OTF-37"/>
     <use x="203.299957" xlink:href="#BMDoHyeon-OTF-25"/>
    </g>
   </g>
   <g id="text_3">
    <!-- B -->
    <defs>
     <path d="M 63.203125 49.203125 
C 63.203125 61.59375 55 70 42.90625 70 
L 5.296875 70 
L 5.296875 -15.09375 
L 44 -15.09375 
C 55.90625 -15.09375 64.296875 -6.796875 64.296875 7.40625 
L 64.296875 12.703125 
C 64.296875 18.296875 62.203125 23.90625 57.296875 27.5 
L 57.203125 27.5 
C 60.90625 31.296875 63.203125 36.90625 63.203125 42.296875 
z
M 20 54.5 
L 40.203125 54.5 
C 44.703125 54.5 48.5 50.203125 48.5 45.203125 
L 48.5 43.90625 
C 48.5 38.796875 44.703125 34.59375 40.203125 34.59375 
L 20 34.59375 
z
M 49.59375 10 
C 49.59375 4.796875 45.796875 0.59375 41.203125 0.59375 
L 20 0.59375 
L 20 20.203125 
L 41.203125 20.203125 
C 45.796875 20.203125 49.59375 16 49.59375 10.90625 
z
" id="BMDoHyeon-OTF-42"/>
    </defs>
    <g style="fill:#008000;" transform="translate(132.634362 411.334934)scale(0.5 -0.5)">
     <use xlink:href="#BMDoHyeon-OTF-42"/>
    </g>
   </g>
   <g id="text_4">
    <!-- 25.0% -->
    <defs>
     <path d="M 3.59375 -15.09375 
L 56.796875 -15.09375 
L 56.796875 -2.40625 
L 18 -2.40625 
C 28.59375 5.296875 39.203125 14.59375 48.796875 23.59375 
C 56.90625 31.296875 58.296875 37.09375 58.296875 47.296875 
L 58.296875 49.203125 
C 58.296875 61.40625 48.296875 71.40625 36 71.40625 
L 25.09375 71.40625 
C 12.796875 71.40625 2.796875 61.40625 2.796875 49.203125 
L 2.796875 43.59375 
L 16.5 43.59375 
L 16.5 46.59375 
C 16.5 52.296875 21.09375 56.90625 26.703125 56.90625 
L 33.703125 56.90625 
C 39.203125 56.90625 43.796875 52.296875 43.796875 46.59375 
C 43.796875 39.203125 41.59375 36.703125 36.203125 31.59375 
C 26.296875 22.40625 15.296875 12.5 3.59375 3.796875 
z
" id="BMDoHyeon-OTF-32"/>
     <path d="M 33 41.40625 
C 28.5 41.40625 23.40625 40.703125 20.90625 39 
L 20.90625 54.59375 
L 57.90625 54.59375 
L 57.90625 69.5 
L 5.09375 69.5 
L 5.09375 22.90625 
L 19.703125 22.90625 
C 22 25.40625 25.90625 26.796875 31.296875 26.796875 
C 40.203125 26.796875 47.09375 23.203125 47.09375 12.203125 
C 47.09375 2.59375 41.09375 -2.703125 31.703125 -2.703125 
C 21.59375 -2.703125 17.40625 2.796875 17.40625 10.703125 
L 3.09375 10.703125 
C 3.09375 -8 14.703125 -16.796875 32.296875 -16.796875 
C 52.09375 -16.796875 62 -5.90625 62 12.296875 
C 62 30.796875 50.90625 41.40625 33 41.40625 
z
" id="BMDoHyeon-OTF-35"/>
     <path d="M 27.796875 70.5 
C 15 70.5 4.59375 60.09375 4.59375 47.203125 
L 4.59375 8.203125 
C 4.59375 -4.703125 15 -15.09375 27.796875 -15.09375 
L 40.5 -15.09375 
C 53.296875 -15.09375 63.796875 -4.703125 63.796875 8.203125 
L 63.796875 47.203125 
C 63.796875 60.09375 53.296875 70.5 40.5 70.5 
z
M 49.296875 10.796875 
C 49.296875 4.90625 44.59375 0.09375 38.796875 0.09375 
L 29.5 0.09375 
C 23.703125 0.09375 19 4.90625 19 10.796875 
L 19 44.59375 
C 19 50.5 23.703125 55.296875 29.5 55.296875 
L 38.796875 55.296875 
C 44.59375 55.296875 49.296875 50.5 49.296875 44.59375 
z
" id="BMDoHyeon-OTF-30"/>
    </defs>
    <g style="fill:#ffffff;" transform="translate(151.878637 344.009748)scale(0.2 -0.2)">
     <use xlink:href="#BMDoHyeon-OTF-32"/>
     <use x="60.799988" xlink:href="#BMDoHyeon-OTF-35"/>
     <use x="126.499985" xlink:href="#BMDoHyeon-OTF-2e"/>
     <use x="151.499969" xlink:href="#BMDoHyeon-OTF-30"/>
     <use x="220.199951" xlink:href="#BMDoHyeon-OTF-25"/>
    </g>
   </g>
   <g id="text_5">
    <!-- C -->
    <defs>
     <path d="M 40.90625 -0.296875 
L 30.40625 -0.296875 
C 24.59375 -0.296875 20.90625 4.59375 20.90625 10.5 
L 20.90625 44.40625 
C 20.90625 50.296875 24.59375 55.203125 30.40625 55.203125 
L 40.90625 55.203125 
C 45.796875 55.203125 47.90625 51.796875 48.796875 47.40625 
L 64.5 47.40625 
C 63.296875 60.09375 54 70 41 70 
L 30.296875 70 
C 16.703125 70 5.59375 58.90625 5.59375 45.203125 
L 5.59375 9.59375 
C 5.59375 -4 16.703125 -15.09375 30.296875 -15.09375 
L 41 -15.09375 
C 53.90625 -15.09375 63.296875 -5.296875 64.5 7.203125 
L 48.703125 7.203125 
C 47.703125 2.90625 45.703125 -0.296875 40.90625 -0.296875 
z
" id="BMDoHyeon-OTF-43"/>
    </defs>
    <g style="fill:#008000;" transform="translate(27.885515 135.552786)scale(0.5 -0.5)">
     <use xlink:href="#BMDoHyeon-OTF-43"/>
    </g>
   </g>
   <g id="text_6">
    <!-- 33.3% -->
    <defs>
     <path d="M 59 55.40625 
C 57.703125 59.296875 55.09375 62.796875 51.90625 65.5 
C 49 68 45 69.796875 41.40625 70.59375 
C 39.40625 71 37.296875 71.203125 35.203125 71.296875 
C 35.09375 71.296875 34.203125 71.40625 27.90625 71.40625 
C 15.09375 71.40625 2 63.703125 2 49.296875 
L 2 46.703125 
L 15.5 46.703125 
C 15.5 58.90625 35.703125 59 41.09375 54.296875 
C 46 50.09375 45.203125 43.203125 41.09375 39.90625 
C 39.59375 38.703125 37.59375 38 35.296875 37.59375 
C 33.09375 37.09375 30.40625 36.90625 27.296875 36.90625 
L 22.90625 36.90625 
L 22.90625 24 
L 27.296875 24 
C 30.40625 24 33.09375 23.796875 35.296875 23.296875 
C 40.296875 22.40625 43.40625 19.703125 44.5 15.40625 
C 45.796875 10.40625 44.796875 4.59375 41.09375 1.796875 
C 38.203125 -0.40625 34.40625 -0.90625 30.90625 -1.09375 
C 25.796875 -1.40625 18.296875 -0.296875 16.203125 5.296875 
C 15.703125 6.5 15.5 7.90625 15.5 9.203125 
L 2 9.203125 
L 2 6.703125 
C 2 -5.59375 11.796875 -15.59375 23.90625 -15.59375 
C 32.09375 -15.59375 39.296875 -16.40625 47.09375 -12.90625 
C 52.296875 -10.5 56.40625 -6 58.5 -0.703125 
C 61.59375 6.796875 61.59375 14.40625 58.5 22 
C 57.40625 24.90625 55.703125 27.40625 53.5 29.59375 
L 52.703125 30.40625 
L 53.5 31.296875 
C 60.59375 37.703125 61.90625 46.59375 59 55.40625 
z
" id="BMDoHyeon-OTF-33"/>
    </defs>
    <g style="fill:#ffffff;" transform="translate(88.118197 162.844316)scale(0.2 -0.2)">
     <use xlink:href="#BMDoHyeon-OTF-33"/>
     <use x="62.899994" xlink:href="#BMDoHyeon-OTF-33"/>
     <use x="125.799988" xlink:href="#BMDoHyeon-OTF-2e"/>
     <use x="150.799973" xlink:href="#BMDoHyeon-OTF-33"/>
     <use x="213.699966" xlink:href="#BMDoHyeon-OTF-25"/>
    </g>
   </g>
  </g>
 </g>
 <defs>
  <clipPath id="pb904ff7ab0">
   <rect height="403.4" width="403.4" x="14.3" y="14.3"/>
  </clipPath>
 </defs>
</svg>
