<?xml version="1.0" encoding="UTF-8" standalone="no"?>
<!DOCTYPE svg PUBLIC "-//W3C//DTD SVG 1.1//EN"
 "http://www.w3.org/Graphics/SVG/1.1/DTD/svg11.dtd">
<!-- Generated by graphviz version 2.40.1 (20161225.0304)
 -->
<!-- Title: %3 Pages: 1 -->
<svg width="636pt" height="87pt"
 viewBox="0.00 0.00 636.09 87.49" xmlns="http://www.w3.org/2000/svg" xmlns:xlink="http://www.w3.org/1999/xlink">
<g id="graph0" class="graph" transform="scale(1 1) rotate(0) translate(4 83.4937)">
<title>%3</title>
<polygon fill="#ffffff" stroke="transparent" points="-4,4 -4,-83.4937 632.0888,-83.4937 632.0888,4 -4,4"/>
<!-- Source -->
<g id="node1" class="node">
<title>Source</title>
<ellipse fill="none" stroke="#ff0000" cx="39.7468" cy="-39.7468" rx="35.9702" ry="35.9702"/>
<ellipse fill="none" stroke="#ff0000" cx="39.7468" cy="-39.7468" rx="39.9952" ry="39.9952"/>
<text text-anchor="middle" x="39.7468" y="-36.0468" font-family="Times,serif" font-size="14.00" fill="#000000">Source</text>
</g>
<!-- Act01 -->
<g id="node2" class="node">
<title>Act01</title>
<polygon fill="none" stroke="#000000" points="169.4937,-57.7468 115.4937,-57.7468 115.4937,-21.7468 169.4937,-21.7468 169.4937,-57.7468"/>
<text text-anchor="middle" x="142.4937" y="-36.0468" font-family="Times,serif" font-size="14.00" fill="#000000">Act01</text>
</g>
<!-- Source&#45;&gt;Act01 -->
<g id="edge1" class="edge">
<title>Source&#45;&gt;Act01</title>
<path fill="none" stroke="#000000" d="M79.7656,-39.7468C88.1648,-39.7468 96.9903,-39.7468 105.2819,-39.7468"/>
<polygon fill="#000000" stroke="#000000" points="105.4268,-43.2469 115.4268,-39.7468 105.4267,-36.2469 105.4268,-43.2469"/>
</g>
<!-- Act02 -->
<g id="node3" class="node">
<title>Act02</title>
<polygon fill="none" stroke="#000000" points="259.4937,-57.7468 205.4937,-57.7468 205.4937,-21.7468 259.4937,-21.7468 259.4937,-57.7468"/>
<text text-anchor="middle" x="232.4937" y="-36.0468" font-family="Times,serif" font-size="14.00" fill="#000000">Act02</text>
</g>
<!-- Act01&#45;&gt;Act02 -->
<g id="edge2" class="edge">
<title>Act01&#45;&gt;Act02</title>
<path fill="none" stroke="#000000" d="M169.4966,-39.7468C177.5213,-39.7468 186.4602,-39.7468 195.0245,-39.7468"/>
<polygon fill="#000000" stroke="#000000" points="195.1987,-43.2469 205.1987,-39.7468 195.1986,-36.2469 195.1987,-43.2469"/>
</g>
<!-- Act03 -->
<g id="node4" class="node">
<title>Act03</title>
<polygon fill="none" stroke="#000000" points="349.4937,-57.7468 295.4937,-57.7468 295.4937,-21.7468 349.4937,-21.7468 349.4937,-57.7468"/>
<text text-anchor="middle" x="322.4937" y="-36.0468" font-family="Times,serif" font-size="14.00" fill="#000000">Act03</text>
</g>
<!-- Act02&#45;&gt;Act03 -->
<g id="edge3" class="edge">
<title>Act02&#45;&gt;Act03</title>
<path fill="none" stroke="#000000" d="M259.4966,-39.7468C267.5213,-39.7468 276.4602,-39.7468 285.0245,-39.7468"/>
<polygon fill="#000000" stroke="#000000" points="285.1987,-43.2469 295.1987,-39.7468 285.1986,-36.2469 285.1987,-43.2469"/>
</g>
<!-- Act04 -->
<g id="node5" class="node">
<title>Act04</title>
<polygon fill="none" stroke="#000000" points="439.4937,-57.7468 385.4937,-57.7468 385.4937,-21.7468 439.4937,-21.7468 439.4937,-57.7468"/>
<text text-anchor="middle" x="412.4937" y="-36.0468" font-family="Times,serif" font-size="14.00" fill="#000000">Act04</text>
</g>
<!-- Act03&#45;&gt;Act04 -->
<g id="edge4" class="edge">
<title>Act03&#45;&gt;Act04</title>
<path fill="none" stroke="#000000" d="M349.4966,-39.7468C357.5213,-39.7468 366.4602,-39.7468 375.0245,-39.7468"/>
<polygon fill="#000000" stroke="#000000" points="375.1987,-43.2469 385.1987,-39.7468 375.1986,-36.2469 375.1987,-43.2469"/>
</g>
<!-- Act05 -->
<g id="node6" class="node">
<title>Act05</title>
<polygon fill="none" stroke="#000000" points="529.4937,-57.7468 475.4937,-57.7468 475.4937,-21.7468 529.4937,-21.7468 529.4937,-57.7468"/>
<text text-anchor="middle" x="502.4937" y="-36.0468" font-family="Times,serif" font-size="14.00" fill="#000000">Act05</text>
</g>
<!-- Act04&#45;&gt;Act05 -->
<g id="edge5" class="edge">
<title>Act04&#45;&gt;Act05</title>
<path fill="none" stroke="#000000" d="M439.4966,-39.7468C447.5213,-39.7468 456.4602,-39.7468 465.0245,-39.7468"/>
<polygon fill="#000000" stroke="#000000" points="465.1987,-43.2469 475.1987,-39.7468 465.1986,-36.2469 465.1987,-43.2469"/>
</g>
<!-- Sink -->
<g id="node7" class="node">
<title>Sink</title>
<ellipse fill="none" stroke="#0000ff" cx="596.7912" cy="-39.7468" rx="27.1222" ry="27.1222"/>
<ellipse fill="none" stroke="#0000ff" cx="596.7912" cy="-39.7468" rx="31.0965" ry="31.0965"/>
<text text-anchor="middle" x="596.7912" y="-36.0468" font-family="Times,serif" font-size="14.00" fill="#000000">Sink</text>
</g>
<!-- Act05&#45;&gt;Sink -->
<g id="edge6" class="edge">
<title>Act05&#45;&gt;Sink</title>
<path fill="none" stroke="#000000" d="M529.5156,-39.7468C537.5736,-39.7468 546.5973,-39.7468 555.3541,-39.7468"/>
<polygon fill="#000000" stroke="#000000" points="555.4376,-43.2469 565.4376,-39.7468 555.4375,-36.2469 555.4376,-43.2469"/>
</g>
</g>
</svg>
