<?xml version="1.0" encoding="utf-8" standalone="no"?>
<!DOCTYPE svg PUBLIC "-//W3C//DTD SVG 1.1//EN"
  "http://www.w3.org/Graphics/SVG/1.1/DTD/svg11.dtd">
<!-- Created with matplotlib (http://matplotlib.org/) -->
<svg height="288pt" version="1.1" viewBox="0 0 576 288" width="576pt" xmlns="http://www.w3.org/2000/svg" xmlns:xlink="http://www.w3.org/1999/xlink">
 <defs>
  <style type="text/css">
*{stroke-linecap:butt;stroke-linejoin:round;}
  </style>
 </defs>
 <g id="figure_1">
  <g id="patch_1">
   <path d="M 0 288 
L 576 288 
L 576 0 
L 0 0 
z
" style="fill:#ffffff;"/>
  </g>
  <g id="axes_1">
   <g id="patch_2">
    <path d="M 72 252 
L 274.909091 252 
L 274.909091 34.56 
L 72 34.56 
z
" style="fill:#ffffff;"/>
   </g>
   <g id="PolyCollection_1">
    <defs>
     <path d="M 265.68595 -45.883636 
L 265.68595 -148.304739 
L 263.841322 -148.304739 
L 263.841322 -147.808636 
L 261.996694 -147.808636 
L 261.996694 -147.307339 
L 261.996694 -147.307339 
L 261.996694 -147.841148 
L 261.996694 -147.841148 
L 261.996694 -148.380606 
L 261.996694 -148.380606 
L 261.996694 -148.925803 
L 261.996694 -148.925803 
L 261.996694 -149.47683 
L 260.152066 -149.47683 
L 260.152066 -148.971026 
L 260.152066 -148.971026 
L 260.152066 -149.528256 
L 260.152066 -149.528256 
L 260.152066 -150.091542 
L 260.152066 -150.091542 
L 260.152066 -150.660984 
L 258.307438 -150.660984 
L 258.307438 -150.150569 
L 256.46281 -150.150569 
L 256.46281 -149.634515 
L 256.46281 -149.634515 
L 256.46281 -150.210909 
L 254.618182 -150.210909 
L 254.618182 -149.689426 
L 254.618182 -149.689426 
L 254.618182 -150.272605 
L 254.618182 -150.272605 
L 254.618182 -150.862373 
L 254.618182 -150.862373 
L 254.618182 -151.458843 
L 254.618182 -151.458843 
L 254.618182 -152.06213 
L 254.618182 -152.06213 
L 254.618182 -152.672351 
L 254.618182 -152.672351 
L 254.618182 -153.289627 
L 254.618182 -153.289627 
L 254.618182 -153.91408 
L 252.773554 -153.91408 
L 252.773554 -153.389856 
L 252.773554 -153.389856 
L 252.773554 -154.022246 
L 250.928926 -154.022246 
L 250.928926 -153.492458 
L 249.084298 -153.492458 
L 249.084298 -152.956364 
L 247.239669 -152.956364 
L 247.239669 -152.413849 
L 245.395041 -152.413849 
L 245.395041 -151.864797 
L 243.550413 -151.864797 
L 243.550413 -151.309091 
L 243.550413 -151.309091 
L 243.550413 -151.951929 
L 241.705785 -151.951929 
L 241.705785 -151.389939 
L 241.705785 -151.389939 
L 241.705785 -152.041212 
L 241.705785 -152.041212 
L 241.705785 -152.700576 
L 241.705785 -152.700576 
L 241.705785 -153.368182 
L 239.861157 -153.368182 
L 239.861157 -152.800961 
L 238.016529 -152.800961 
L 238.016529 -152.226559 
L 238.016529 -152.226559 
L 238.016529 -152.903903 
L 236.171901 -152.903903 
L 236.171901 -152.322797 
L 236.171901 -152.322797 
L 236.171901 -153.009501 
L 236.171901 -153.009501 
L 236.171901 -153.705124 
L 234.327273 -153.705124 
L 234.327273 -153.117861 
L 234.327273 -153.117861 
L 234.327273 -153.823349 
L 232.482645 -153.823349 
L 232.482645 -153.229091 
L 232.482645 -153.229091 
L 232.482645 -153.944727 
L 230.638017 -153.944727 
L 230.638017 -153.343307 
L 228.793388 -153.343307 
L 228.793388 -152.733759 
L 228.793388 -152.733759 
L 228.793388 -153.460631 
L 228.793388 -153.460631 
L 228.793388 -154.19746 
L 228.793388 -154.19746 
L 228.793388 -154.944451 
L 228.793388 -154.944451 
L 228.793388 -155.701818 
L 228.793388 -155.701818 
L 228.793388 -156.469777 
L 226.94876 -156.469777 
L 226.94876 -155.856492 
L 225.104132 -155.856492 
L 225.104132 -155.234507 
L 225.104132 -155.234507 
L 225.104132 -156.015584 
L 223.259504 -156.015584 
L 223.259504 -155.385795 
L 223.259504 -155.385795 
L 223.259504 -156.179289 
L 221.414876 -156.179289 
L 221.414876 -155.5415 
L 221.414876 -155.5415 
L 221.414876 -156.347807 
L 221.414876 -156.347807 
L 221.414876 -157.166061 
L 219.570248 -157.166061 
L 219.570248 -156.521357 
L 219.570248 -156.521357 
L 219.570248 -157.353219 
L 217.72562 -157.353219 
L 217.72562 -156.700165 
L 217.72562 -156.700165 
L 217.72562 -157.546093 
L 215.880992 -157.546093 
L 215.880992 -156.884476 
L 214.036364 -156.884476 
L 214.036364 -156.2126 
L 212.191736 -156.2126 
L 212.191736 -155.530227 
L 210.347107 -155.530227 
L 210.347107 -154.837108 
L 210.347107 -154.837108 
L 210.347107 -155.701818 
L 210.347107 -155.701818 
L 210.347107 -156.580364 
L 210.347107 -156.580364 
L 210.347107 -157.473079 
L 208.502479 -157.473079 
L 208.502479 -156.773215 
L 208.502479 -156.773215 
L 208.502479 -157.682146 
L 206.657851 -157.682146 
L 206.657851 -156.972442 
L 204.813223 -156.972442 
L 204.813223 -156.250909 
L 204.813223 -156.250909 
L 204.813223 -157.178365 
L 202.968595 -157.178365 
L 202.968595 -156.446348 
L 201.123967 -156.446348 
L 201.123967 -155.701818 
L 201.123967 -155.701818 
L 201.123967 -156.648527 
L 199.279339 -156.648527 
L 199.279339 -155.892806 
L 199.279339 -155.892806 
L 199.279339 -156.857799 
L 199.279339 -156.857799 
L 199.279339 -157.839871 
L 199.279339 -157.839871 
L 199.279339 -158.839481 
L 197.434711 -158.839481 
L 197.434711 -158.076265 
L 197.434711 -158.076265 
L 197.434711 -159.096198 
L 197.434711 -159.096198 
L 197.434711 -160.134846 
L 195.590083 -160.134846 
L 195.590083 -159.362424 
L 193.745455 -159.362424 
L 193.745455 -158.575565 
L 193.745455 -158.575565 
L 193.745455 -159.638696 
L 191.900826 -159.638696 
L 191.900826 -158.839481 
L 191.900826 -158.839481 
L 191.900826 -159.925594 
L 191.900826 -159.925594 
L 191.900826 -161.032798 
L 191.900826 -161.032798 
L 191.900826 -162.161711 
L 191.900826 -162.161711 
L 191.900826 -163.312979 
L 190.056198 -163.312979 
L 190.056198 -162.510545 
L 190.056198 -162.510545 
L 190.056198 -163.688595 
L 188.21157 -163.688595 
L 188.21157 -162.873618 
L 188.21157 -162.873618 
L 188.21157 -164.0797 
L 186.366942 -164.0797 
L 186.366942 -163.251818 
L 184.522314 -163.251818 
L 184.522314 -162.406507 
L 182.677686 -162.406507 
L 182.677686 -161.543211 
L 180.833058 -161.543211 
L 180.833058 -160.661349 
L 180.833058 -160.661349 
L 180.833058 -161.908933 
L 178.98843 -161.908933 
L 178.98843 -161.011708 
L 177.143802 -161.011708 
L 177.143802 -160.094545 
L 177.143802 -160.094545 
L 177.143802 -161.377814 
L 175.299174 -161.377814 
L 175.299174 -160.443967 
L 173.454545 -160.443967 
L 173.454545 -159.488652 
L 173.454545 -159.488652 
L 173.454545 -160.809641 
L 171.609917 -160.809641 
L 171.609917 -159.83615 
L 171.609917 -159.83615 
L 171.609917 -161.192727 
L 171.609917 -161.192727 
L 171.609917 -162.581993 
L 171.609917 -162.581993 
L 171.609917 -164.005144 
L 169.765289 -164.005144 
L 169.765289 -163.02303 
L 169.765289 -163.02303 
L 169.765289 -164.487273 
L 167.920661 -164.487273 
L 167.920661 -163.486398 
L 167.920661 -163.486398 
L 167.920661 -164.994126 
L 166.076033 -164.994126 
L 166.076033 -163.973837 
L 166.076033 -163.973837 
L 166.076033 -165.527656 
L 166.076033 -165.527656 
L 166.076033 -167.122909 
L 164.231405 -167.122909 
L 164.231405 -166.090025 
L 164.231405 -166.090025 
L 164.231405 -167.736687 
L 162.386777 -167.736687 
L 162.386777 -166.683636 
L 162.386777 -166.683636 
L 162.386777 -168.385045 
L 160.542149 -168.385045 
L 160.542149 -167.311169 
L 158.697521 -167.311169 
L 158.697521 -166.206166 
L 156.852893 -166.206166 
L 156.852893 -165.068663 
L 155.008264 -165.068663 
L 155.008264 -163.897205 
L 155.008264 -163.897205 
L 155.008264 -165.685289 
L 153.163636 -165.685289 
L 153.163636 -164.487273 
L 151.319008 -164.487273 
L 151.319008 -163.251818 
L 149.47438 -163.251818 
L 149.47438 -161.977143 
L 147.629752 -161.977143 
L 147.629752 -160.661349 
L 147.629752 -160.661349 
L 147.629752 -162.542951 
L 147.629752 -162.542951 
L 147.629752 -164.487273 
L 145.785124 -164.487273 
L 145.785124 -163.147119 
L 145.785124 -163.147119 
L 145.785124 -165.168903 
L 143.940496 -165.168903 
L 143.940496 -163.793684 
L 143.940496 -163.793684 
L 143.940496 -165.899221 
L 143.940496 -165.899221 
L 143.940496 -168.081322 
L 143.940496 -168.081322 
L 143.940496 -170.344242 
L 142.095868 -170.344242 
L 142.095868 -168.962882 
L 142.095868 -168.962882 
L 142.095868 -171.32979 
L 142.095868 -171.32979 
L 142.095868 -173.789519 
L 140.25124 -173.789519 
L 140.25124 -172.394182 
L 138.406612 -172.394182 
L 138.406612 -170.941892 
L 136.561983 -170.941892 
L 136.561983 -169.429091 
L 136.561983 -169.429091 
L 136.561983 -172.057718 
L 134.717355 -172.057718 
L 134.717355 -170.503399 
L 134.717355 -170.503399 
L 134.717355 -173.272727 
L 132.872727 -173.272727 
L 132.872727 -171.675372 
L 132.872727 -171.675372 
L 132.872727 -174.600761 
L 132.872727 -174.600761 
L 132.872727 -177.665455 
L 131.028099 -177.665455 
L 131.028099 -176.058359 
L 129.183471 -176.058359 
L 129.183471 -174.370909 
L 127.338843 -174.370909 
L 127.338843 -172.596923 
L 127.338843 -172.596923 
L 127.338843 -175.931483 
L 125.494215 -175.931483 
L 125.494215 -174.103784 
L 123.649587 -174.103784 
L 123.649587 -172.174545 
L 123.649587 -172.174545 
L 123.649587 -175.782857 
L 121.804959 -175.782857 
L 121.804959 -173.789519 
L 119.960331 -173.789519 
L 119.960331 -171.675372 
L 119.960331 -171.675372 
L 119.960331 -175.606364 
L 118.115702 -175.606364 
L 118.115702 -173.414428 
L 118.115702 -173.414428 
L 118.115702 -177.665455 
L 116.271074 -177.665455 
L 116.271074 -175.393354 
L 114.426446 -175.393354 
L 114.426446 -172.958961 
L 112.581818 -172.958961 
L 112.581818 -170.344242 
L 110.73719 -170.344242 
L 110.73719 -167.528392 
L 108.892562 -167.528392 
L 108.892562 -164.487273 
L 107.047934 -164.487273 
L 107.047934 -161.192727 
L 107.047934 -161.192727 
L 107.047934 -166.206166 
L 105.203306 -166.206166 
L 105.203306 -162.690248 
L 105.203306 -162.690248 
L 105.203306 -168.252468 
L 103.358678 -168.252468 
L 103.358678 -164.487273 
L 103.358678 -164.487273 
L 103.358678 -170.729569 
L 103.358678 -170.729569 
L 103.358678 -177.665455 
L 101.51405 -177.665455 
L 101.51405 -173.789519 
L 101.51405 -173.789519 
L 101.51405 -181.783636 
L 101.51405 -181.783636 
L 101.51405 -190.843636 
L 99.669421 -190.843636 
L 99.669421 -187.078442 
L 97.824793 -187.078442 
L 97.824793 -182.733986 
L 95.980165 -182.733986 
L 95.980165 -177.665455 
L 94.135537 -177.665455 
L 94.135537 -171.675372 
L 94.135537 -171.675372 
L 94.135537 -184.254545 
L 92.290909 -184.254545 
L 92.290909 -177.665455 
L 92.290909 -177.665455 
L 92.290909 -194.138182 
L 90.446281 -194.138182 
L 90.446281 -187.078442 
L 90.446281 -187.078442 
L 90.446281 -210.610909 
L 88.601653 -210.610909 
L 88.601653 -204.021818 
L 86.757025 -204.021818 
L 86.757025 -194.138182 
L 84.912397 -194.138182 
L 84.912397 -177.665455 
L 84.912397 -177.665455 
L 84.912397 -243.556364 
L 83.067769 -243.556364 
L 83.067769 -243.556364 
L 81.22314 -243.556364 
L 81.22314 -243.556364 
L 81.22314 -45.883636 
L 81.22314 -45.883636 
L 81.22314 -45.883636 
L 83.067769 -45.883636 
L 83.067769 -45.883636 
L 84.912397 -45.883636 
L 84.912397 -45.883636 
L 84.912397 -45.883636 
L 84.912397 -45.883636 
L 86.757025 -45.883636 
L 86.757025 -45.883636 
L 88.601653 -45.883636 
L 88.601653 -45.883636 
L 90.446281 -45.883636 
L 90.446281 -45.883636 
L 90.446281 -45.883636 
L 90.446281 -45.883636 
L 92.290909 -45.883636 
L 92.290909 -45.883636 
L 92.290909 -45.883636 
L 92.290909 -45.883636 
L 94.135537 -45.883636 
L 94.135537 -45.883636 
L 94.135537 -45.883636 
L 94.135537 -45.883636 
L 95.980165 -45.883636 
L 95.980165 -45.883636 
L 97.824793 -45.883636 
L 97.824793 -45.883636 
L 99.669421 -45.883636 
L 99.669421 -45.883636 
L 101.51405 -45.883636 
L 101.51405 -45.883636 
L 101.51405 -45.883636 
L 101.51405 -45.883636 
L 101.51405 -45.883636 
L 101.51405 -45.883636 
L 103.358678 -45.883636 
L 103.358678 -45.883636 
L 103.358678 -45.883636 
L 103.358678 -45.883636 
L 103.358678 -45.883636 
L 103.358678 -45.883636 
L 105.203306 -45.883636 
L 105.203306 -45.883636 
L 105.203306 -45.883636 
L 105.203306 -45.883636 
L 107.047934 -45.883636 
L 107.047934 -45.883636 
L 107.047934 -45.883636 
L 107.047934 -45.883636 
L 108.892562 -45.883636 
L 108.892562 -45.883636 
L 110.73719 -45.883636 
L 110.73719 -45.883636 
L 112.581818 -45.883636 
L 112.581818 -45.883636 
L 114.426446 -45.883636 
L 114.426446 -45.883636 
L 116.271074 -45.883636 
L 116.271074 -45.883636 
L 118.115702 -45.883636 
L 118.115702 -45.883636 
L 118.115702 -45.883636 
L 118.115702 -45.883636 
L 119.960331 -45.883636 
L 119.960331 -45.883636 
L 119.960331 -45.883636 
L 119.960331 -45.883636 
L 121.804959 -45.883636 
L 121.804959 -45.883636 
L 123.649587 -45.883636 
L 123.649587 -45.883636 
L 123.649587 -45.883636 
L 123.649587 -45.883636 
L 125.494215 -45.883636 
L 125.494215 -45.883636 
L 127.338843 -45.883636 
L 127.338843 -45.883636 
L 127.338843 -45.883636 
L 127.338843 -45.883636 
L 129.183471 -45.883636 
L 129.183471 -45.883636 
L 131.028099 -45.883636 
L 131.028099 -45.883636 
L 132.872727 -45.883636 
L 132.872727 -45.883636 
L 132.872727 -45.883636 
L 132.872727 -45.883636 
L 132.872727 -45.883636 
L 132.872727 -45.883636 
L 134.717355 -45.883636 
L 134.717355 -45.883636 
L 134.717355 -45.883636 
L 134.717355 -45.883636 
L 136.561983 -45.883636 
L 136.561983 -45.883636 
L 136.561983 -45.883636 
L 136.561983 -45.883636 
L 138.406612 -45.883636 
L 138.406612 -45.883636 
L 140.25124 -45.883636 
L 140.25124 -45.883636 
L 142.095868 -45.883636 
L 142.095868 -45.883636 
L 142.095868 -45.883636 
L 142.095868 -45.883636 
L 142.095868 -45.883636 
L 142.095868 -45.883636 
L 143.940496 -45.883636 
L 143.940496 -45.883636 
L 143.940496 -45.883636 
L 143.940496 -45.883636 
L 143.940496 -45.883636 
L 143.940496 -45.883636 
L 143.940496 -45.883636 
L 143.940496 -45.883636 
L 145.785124 -45.883636 
L 145.785124 -45.883636 
L 145.785124 -45.883636 
L 145.785124 -45.883636 
L 147.629752 -45.883636 
L 147.629752 -45.883636 
L 147.629752 -45.883636 
L 147.629752 -45.883636 
L 147.629752 -45.883636 
L 147.629752 -45.883636 
L 149.47438 -45.883636 
L 149.47438 -45.883636 
L 151.319008 -45.883636 
L 151.319008 -45.883636 
L 153.163636 -45.883636 
L 153.163636 -45.883636 
L 155.008264 -45.883636 
L 155.008264 -45.883636 
L 155.008264 -45.883636 
L 155.008264 -45.883636 
L 156.852893 -45.883636 
L 156.852893 -45.883636 
L 158.697521 -45.883636 
L 158.697521 -45.883636 
L 160.542149 -45.883636 
L 160.542149 -45.883636 
L 162.386777 -45.883636 
L 162.386777 -45.883636 
L 162.386777 -45.883636 
L 162.386777 -45.883636 
L 164.231405 -45.883636 
L 164.231405 -45.883636 
L 164.231405 -45.883636 
L 164.231405 -45.883636 
L 166.076033 -45.883636 
L 166.076033 -45.883636 
L 166.076033 -45.883636 
L 166.076033 -45.883636 
L 166.076033 -45.883636 
L 166.076033 -45.883636 
L 167.920661 -45.883636 
L 167.920661 -45.883636 
L 167.920661 -45.883636 
L 167.920661 -45.883636 
L 169.765289 -45.883636 
L 169.765289 -45.883636 
L 169.765289 -45.883636 
L 169.765289 -45.883636 
L 171.609917 -45.883636 
L 171.609917 -45.883636 
L 171.609917 -45.883636 
L 171.609917 -45.883636 
L 171.609917 -45.883636 
L 171.609917 -45.883636 
L 171.609917 -45.883636 
L 171.609917 -45.883636 
L 173.454545 -45.883636 
L 173.454545 -45.883636 
L 173.454545 -45.883636 
L 173.454545 -45.883636 
L 175.299174 -45.883636 
L 175.299174 -45.883636 
L 177.143802 -45.883636 
L 177.143802 -45.883636 
L 177.143802 -45.883636 
L 177.143802 -45.883636 
L 178.98843 -45.883636 
L 178.98843 -45.883636 
L 180.833058 -45.883636 
L 180.833058 -45.883636 
L 180.833058 -45.883636 
L 180.833058 -45.883636 
L 182.677686 -45.883636 
L 182.677686 -45.883636 
L 184.522314 -45.883636 
L 184.522314 -45.883636 
L 186.366942 -45.883636 
L 186.366942 -45.883636 
L 188.21157 -45.883636 
L 188.21157 -45.883636 
L 188.21157 -45.883636 
L 188.21157 -45.883636 
L 190.056198 -45.883636 
L 190.056198 -45.883636 
L 190.056198 -45.883636 
L 190.056198 -45.883636 
L 191.900826 -45.883636 
L 191.900826 -45.883636 
L 191.900826 -45.883636 
L 191.900826 -45.883636 
L 191.900826 -45.883636 
L 191.900826 -45.883636 
L 191.900826 -45.883636 
L 191.900826 -45.883636 
L 191.900826 -45.883636 
L 191.900826 -45.883636 
L 193.745455 -45.883636 
L 193.745455 -45.883636 
L 193.745455 -45.883636 
L 193.745455 -45.883636 
L 195.590083 -45.883636 
L 195.590083 -45.883636 
L 197.434711 -45.883636 
L 197.434711 -45.883636 
L 197.434711 -45.883636 
L 197.434711 -45.883636 
L 197.434711 -45.883636 
L 197.434711 -45.883636 
L 199.279339 -45.883636 
L 199.279339 -45.883636 
L 199.279339 -45.883636 
L 199.279339 -45.883636 
L 199.279339 -45.883636 
L 199.279339 -45.883636 
L 199.279339 -45.883636 
L 199.279339 -45.883636 
L 201.123967 -45.883636 
L 201.123967 -45.883636 
L 201.123967 -45.883636 
L 201.123967 -45.883636 
L 202.968595 -45.883636 
L 202.968595 -45.883636 
L 204.813223 -45.883636 
L 204.813223 -45.883636 
L 204.813223 -45.883636 
L 204.813223 -45.883636 
L 206.657851 -45.883636 
L 206.657851 -45.883636 
L 208.502479 -45.883636 
L 208.502479 -45.883636 
L 208.502479 -45.883636 
L 208.502479 -45.883636 
L 210.347107 -45.883636 
L 210.347107 -45.883636 
L 210.347107 -45.883636 
L 210.347107 -45.883636 
L 210.347107 -45.883636 
L 210.347107 -45.883636 
L 210.347107 -45.883636 
L 210.347107 -45.883636 
L 212.191736 -45.883636 
L 212.191736 -45.883636 
L 214.036364 -45.883636 
L 214.036364 -45.883636 
L 215.880992 -45.883636 
L 215.880992 -45.883636 
L 217.72562 -45.883636 
L 217.72562 -45.883636 
L 217.72562 -45.883636 
L 217.72562 -45.883636 
L 219.570248 -45.883636 
L 219.570248 -45.883636 
L 219.570248 -45.883636 
L 219.570248 -45.883636 
L 221.414876 -45.883636 
L 221.414876 -45.883636 
L 221.414876 -45.883636 
L 221.414876 -45.883636 
L 221.414876 -45.883636 
L 221.414876 -45.883636 
L 223.259504 -45.883636 
L 223.259504 -45.883636 
L 223.259504 -45.883636 
L 223.259504 -45.883636 
L 225.104132 -45.883636 
L 225.104132 -45.883636 
L 225.104132 -45.883636 
L 225.104132 -45.883636 
L 226.94876 -45.883636 
L 226.94876 -45.883636 
L 228.793388 -45.883636 
L 228.793388 -45.883636 
L 228.793388 -45.883636 
L 228.793388 -45.883636 
L 228.793388 -45.883636 
L 228.793388 -45.883636 
L 228.793388 -45.883636 
L 228.793388 -45.883636 
L 228.793388 -45.883636 
L 228.793388 -45.883636 
L 228.793388 -45.883636 
L 228.793388 -45.883636 
L 230.638017 -45.883636 
L 230.638017 -45.883636 
L 232.482645 -45.883636 
L 232.482645 -45.883636 
L 232.482645 -45.883636 
L 232.482645 -45.883636 
L 234.327273 -45.883636 
L 234.327273 -45.883636 
L 234.327273 -45.883636 
L 234.327273 -45.883636 
L 236.171901 -45.883636 
L 236.171901 -45.883636 
L 236.171901 -45.883636 
L 236.171901 -45.883636 
L 236.171901 -45.883636 
L 236.171901 -45.883636 
L 238.016529 -45.883636 
L 238.016529 -45.883636 
L 238.016529 -45.883636 
L 238.016529 -45.883636 
L 239.861157 -45.883636 
L 239.861157 -45.883636 
L 241.705785 -45.883636 
L 241.705785 -45.883636 
L 241.705785 -45.883636 
L 241.705785 -45.883636 
L 241.705785 -45.883636 
L 241.705785 -45.883636 
L 241.705785 -45.883636 
L 241.705785 -45.883636 
L 243.550413 -45.883636 
L 243.550413 -45.883636 
L 243.550413 -45.883636 
L 243.550413 -45.883636 
L 245.395041 -45.883636 
L 245.395041 -45.883636 
L 247.239669 -45.883636 
L 247.239669 -45.883636 
L 249.084298 -45.883636 
L 249.084298 -45.883636 
L 250.928926 -45.883636 
L 250.928926 -45.883636 
L 252.773554 -45.883636 
L 252.773554 -45.883636 
L 252.773554 -45.883636 
L 252.773554 -45.883636 
L 254.618182 -45.883636 
L 254.618182 -45.883636 
L 254.618182 -45.883636 
L 254.618182 -45.883636 
L 254.618182 -45.883636 
L 254.618182 -45.883636 
L 254.618182 -45.883636 
L 254.618182 -45.883636 
L 254.618182 -45.883636 
L 254.618182 -45.883636 
L 254.618182 -45.883636 
L 254.618182 -45.883636 
L 254.618182 -45.883636 
L 254.618182 -45.883636 
L 254.618182 -45.883636 
L 254.618182 -45.883636 
L 256.46281 -45.883636 
L 256.46281 -45.883636 
L 256.46281 -45.883636 
L 256.46281 -45.883636 
L 258.307438 -45.883636 
L 258.307438 -45.883636 
L 260.152066 -45.883636 
L 260.152066 -45.883636 
L 260.152066 -45.883636 
L 260.152066 -45.883636 
L 260.152066 -45.883636 
L 260.152066 -45.883636 
L 260.152066 -45.883636 
L 260.152066 -45.883636 
L 261.996694 -45.883636 
L 261.996694 -45.883636 
L 261.996694 -45.883636 
L 261.996694 -45.883636 
L 261.996694 -45.883636 
L 261.996694 -45.883636 
L 261.996694 -45.883636 
L 261.996694 -45.883636 
L 261.996694 -45.883636 
L 261.996694 -45.883636 
L 263.841322 -45.883636 
L 263.841322 -45.883636 
L 265.68595 -45.883636 
z
" id="m6257a1e6bd" style="stroke:#0000ff;stroke-opacity:0.2;"/>
    </defs>
    <g clip-path="url(#p970284f780)">
     <use style="fill:#0000ff;fill-opacity:0.2;stroke:#0000ff;stroke-opacity:0.2;" x="0" xlink:href="#m6257a1e6bd" y="288"/>
    </g>
   </g>
   <g id="matplotlib.axis_1">
    <g id="xtick_1">
     <g id="line2d_1">
      <defs>
       <path d="M 0 0 
L 0 3.5 
" id="mc49525c364" style="stroke:#000000;stroke-width:0.8;"/>
      </defs>
      <g>
       <use style="stroke:#000000;stroke-width:0.8;" x="81.22314" xlink:href="#mc49525c364" y="252"/>
      </g>
     </g>
     <g id="text_1">
      <!-- 0.0 -->
      <defs>
       <path d="M 31.78125 66.40625 
Q 24.171875 66.40625 20.328125 58.90625 
Q 16.5 51.421875 16.5 36.375 
Q 16.5 21.390625 20.328125 13.890625 
Q 24.171875 6.390625 31.78125 6.390625 
Q 39.453125 6.390625 43.28125 13.890625 
Q 47.125 21.390625 47.125 36.375 
Q 47.125 51.421875 43.28125 58.90625 
Q 39.453125 66.40625 31.78125 66.40625 
z
M 31.78125 74.21875 
Q 44.046875 74.21875 50.515625 64.515625 
Q 56.984375 54.828125 56.984375 36.375 
Q 56.984375 17.96875 50.515625 8.265625 
Q 44.046875 -1.421875 31.78125 -1.421875 
Q 19.53125 -1.421875 13.0625 8.265625 
Q 6.59375 17.96875 6.59375 36.375 
Q 6.59375 54.828125 13.0625 64.515625 
Q 19.53125 74.21875 31.78125 74.21875 
z
" id="DejaVuSans-30"/>
       <path d="M 10.6875 12.40625 
L 21 12.40625 
L 21 0 
L 10.6875 0 
z
" id="DejaVuSans-2e"/>
      </defs>
      <g transform="translate(73.271578 266.598437)scale(0.1 -0.1)">
       <use xlink:href="#DejaVuSans-30"/>
       <use x="63.623047" xlink:href="#DejaVuSans-2e"/>
       <use x="95.410156" xlink:href="#DejaVuSans-30"/>
      </g>
     </g>
    </g>
    <g id="xtick_2">
     <g id="line2d_2">
      <g>
       <use style="stroke:#000000;stroke-width:0.8;" x="118.115702" xlink:href="#mc49525c364" y="252"/>
      </g>
     </g>
     <g id="text_2">
      <!-- 0.2 -->
      <defs>
       <path d="M 19.1875 8.296875 
L 53.609375 8.296875 
L 53.609375 0 
L 7.328125 0 
L 7.328125 8.296875 
Q 12.9375 14.109375 22.625 23.890625 
Q 32.328125 33.6875 34.8125 36.53125 
Q 39.546875 41.84375 41.421875 45.53125 
Q 43.3125 49.21875 43.3125 52.78125 
Q 43.3125 58.59375 39.234375 62.25 
Q 35.15625 65.921875 28.609375 65.921875 
Q 23.96875 65.921875 18.8125 64.3125 
Q 13.671875 62.703125 7.8125 59.421875 
L 7.8125 69.390625 
Q 13.765625 71.78125 18.9375 73 
Q 24.125 74.21875 28.421875 74.21875 
Q 39.75 74.21875 46.484375 68.546875 
Q 53.21875 62.890625 53.21875 53.421875 
Q 53.21875 48.921875 51.53125 44.890625 
Q 49.859375 40.875 45.40625 35.40625 
Q 44.1875 33.984375 37.640625 27.21875 
Q 31.109375 20.453125 19.1875 8.296875 
z
" id="DejaVuSans-32"/>
      </defs>
      <g transform="translate(110.16414 266.598437)scale(0.1 -0.1)">
       <use xlink:href="#DejaVuSans-30"/>
       <use x="63.623047" xlink:href="#DejaVuSans-2e"/>
       <use x="95.410156" xlink:href="#DejaVuSans-32"/>
      </g>
     </g>
    </g>
    <g id="xtick_3">
     <g id="line2d_3">
      <g>
       <use style="stroke:#000000;stroke-width:0.8;" x="155.008264" xlink:href="#mc49525c364" y="252"/>
      </g>
     </g>
     <g id="text_3">
      <!-- 0.4 -->
      <defs>
       <path d="M 37.796875 64.3125 
L 12.890625 25.390625 
L 37.796875 25.390625 
z
M 35.203125 72.90625 
L 47.609375 72.90625 
L 47.609375 25.390625 
L 58.015625 25.390625 
L 58.015625 17.1875 
L 47.609375 17.1875 
L 47.609375 0 
L 37.796875 0 
L 37.796875 17.1875 
L 4.890625 17.1875 
L 4.890625 26.703125 
z
" id="DejaVuSans-34"/>
      </defs>
      <g transform="translate(147.056702 266.598437)scale(0.1 -0.1)">
       <use xlink:href="#DejaVuSans-30"/>
       <use x="63.623047" xlink:href="#DejaVuSans-2e"/>
       <use x="95.410156" xlink:href="#DejaVuSans-34"/>
      </g>
     </g>
    </g>
    <g id="xtick_4">
     <g id="line2d_4">
      <g>
       <use style="stroke:#000000;stroke-width:0.8;" x="191.900826" xlink:href="#mc49525c364" y="252"/>
      </g>
     </g>
     <g id="text_4">
      <!-- 0.6 -->
      <defs>
       <path d="M 33.015625 40.375 
Q 26.375 40.375 22.484375 35.828125 
Q 18.609375 31.296875 18.609375 23.390625 
Q 18.609375 15.53125 22.484375 10.953125 
Q 26.375 6.390625 33.015625 6.390625 
Q 39.65625 6.390625 43.53125 10.953125 
Q 47.40625 15.53125 47.40625 23.390625 
Q 47.40625 31.296875 43.53125 35.828125 
Q 39.65625 40.375 33.015625 40.375 
z
M 52.59375 71.296875 
L 52.59375 62.3125 
Q 48.875 64.0625 45.09375 64.984375 
Q 41.3125 65.921875 37.59375 65.921875 
Q 27.828125 65.921875 22.671875 59.328125 
Q 17.53125 52.734375 16.796875 39.40625 
Q 19.671875 43.65625 24.015625 45.921875 
Q 28.375 48.1875 33.59375 48.1875 
Q 44.578125 48.1875 50.953125 41.515625 
Q 57.328125 34.859375 57.328125 23.390625 
Q 57.328125 12.15625 50.6875 5.359375 
Q 44.046875 -1.421875 33.015625 -1.421875 
Q 20.359375 -1.421875 13.671875 8.265625 
Q 6.984375 17.96875 6.984375 36.375 
Q 6.984375 53.65625 15.1875 63.9375 
Q 23.390625 74.21875 37.203125 74.21875 
Q 40.921875 74.21875 44.703125 73.484375 
Q 48.484375 72.75 52.59375 71.296875 
z
" id="DejaVuSans-36"/>
      </defs>
      <g transform="translate(183.949264 266.598437)scale(0.1 -0.1)">
       <use xlink:href="#DejaVuSans-30"/>
       <use x="63.623047" xlink:href="#DejaVuSans-2e"/>
       <use x="95.410156" xlink:href="#DejaVuSans-36"/>
      </g>
     </g>
    </g>
    <g id="xtick_5">
     <g id="line2d_5">
      <g>
       <use style="stroke:#000000;stroke-width:0.8;" x="228.793388" xlink:href="#mc49525c364" y="252"/>
      </g>
     </g>
     <g id="text_5">
      <!-- 0.8 -->
      <defs>
       <path d="M 31.78125 34.625 
Q 24.75 34.625 20.71875 30.859375 
Q 16.703125 27.09375 16.703125 20.515625 
Q 16.703125 13.921875 20.71875 10.15625 
Q 24.75 6.390625 31.78125 6.390625 
Q 38.8125 6.390625 42.859375 10.171875 
Q 46.921875 13.96875 46.921875 20.515625 
Q 46.921875 27.09375 42.890625 30.859375 
Q 38.875 34.625 31.78125 34.625 
z
M 21.921875 38.8125 
Q 15.578125 40.375 12.03125 44.71875 
Q 8.5 49.078125 8.5 55.328125 
Q 8.5 64.0625 14.71875 69.140625 
Q 20.953125 74.21875 31.78125 74.21875 
Q 42.671875 74.21875 48.875 69.140625 
Q 55.078125 64.0625 55.078125 55.328125 
Q 55.078125 49.078125 51.53125 44.71875 
Q 48 40.375 41.703125 38.8125 
Q 48.828125 37.15625 52.796875 32.3125 
Q 56.78125 27.484375 56.78125 20.515625 
Q 56.78125 9.90625 50.3125 4.234375 
Q 43.84375 -1.421875 31.78125 -1.421875 
Q 19.734375 -1.421875 13.25 4.234375 
Q 6.78125 9.90625 6.78125 20.515625 
Q 6.78125 27.484375 10.78125 32.3125 
Q 14.796875 37.15625 21.921875 38.8125 
z
M 18.3125 54.390625 
Q 18.3125 48.734375 21.84375 45.5625 
Q 25.390625 42.390625 31.78125 42.390625 
Q 38.140625 42.390625 41.71875 45.5625 
Q 45.3125 48.734375 45.3125 54.390625 
Q 45.3125 60.0625 41.71875 63.234375 
Q 38.140625 66.40625 31.78125 66.40625 
Q 25.390625 66.40625 21.84375 63.234375 
Q 18.3125 60.0625 18.3125 54.390625 
z
" id="DejaVuSans-38"/>
      </defs>
      <g transform="translate(220.841826 266.598437)scale(0.1 -0.1)">
       <use xlink:href="#DejaVuSans-30"/>
       <use x="63.623047" xlink:href="#DejaVuSans-2e"/>
       <use x="95.410156" xlink:href="#DejaVuSans-38"/>
      </g>
     </g>
    </g>
    <g id="xtick_6">
     <g id="line2d_6">
      <g>
       <use style="stroke:#000000;stroke-width:0.8;" x="265.68595" xlink:href="#mc49525c364" y="252"/>
      </g>
     </g>
     <g id="text_6">
      <!-- 1.0 -->
      <defs>
       <path d="M 12.40625 8.296875 
L 28.515625 8.296875 
L 28.515625 63.921875 
L 10.984375 60.40625 
L 10.984375 69.390625 
L 28.421875 72.90625 
L 38.28125 72.90625 
L 38.28125 8.296875 
L 54.390625 8.296875 
L 54.390625 0 
L 12.40625 0 
z
" id="DejaVuSans-31"/>
      </defs>
      <g transform="translate(257.734388 266.598437)scale(0.1 -0.1)">
       <use xlink:href="#DejaVuSans-31"/>
       <use x="63.623047" xlink:href="#DejaVuSans-2e"/>
       <use x="95.410156" xlink:href="#DejaVuSans-30"/>
      </g>
     </g>
    </g>
   </g>
   <g id="matplotlib.axis_2">
    <g id="ytick_1">
     <g id="line2d_7">
      <defs>
       <path d="M 0 0 
L -3.5 0 
" id="m6f145c9ed9" style="stroke:#000000;stroke-width:0.8;"/>
      </defs>
      <g>
       <use style="stroke:#000000;stroke-width:0.8;" x="72" xlink:href="#m6f145c9ed9" y="242.116364"/>
      </g>
     </g>
     <g id="text_7">
      <!-- 0.0 -->
      <g transform="translate(49.096875 245.915582)scale(0.1 -0.1)">
       <use xlink:href="#DejaVuSans-30"/>
       <use x="63.623047" xlink:href="#DejaVuSans-2e"/>
       <use x="95.410156" xlink:href="#DejaVuSans-30"/>
      </g>
     </g>
    </g>
    <g id="ytick_2">
     <g id="line2d_8">
      <g>
       <use style="stroke:#000000;stroke-width:0.8;" x="72" xlink:href="#m6f145c9ed9" y="202.581818"/>
      </g>
     </g>
     <g id="text_8">
      <!-- 0.2 -->
      <g transform="translate(49.096875 206.381037)scale(0.1 -0.1)">
       <use xlink:href="#DejaVuSans-30"/>
       <use x="63.623047" xlink:href="#DejaVuSans-2e"/>
       <use x="95.410156" xlink:href="#DejaVuSans-32"/>
      </g>
     </g>
    </g>
    <g id="ytick_3">
     <g id="line2d_9">
      <g>
       <use style="stroke:#000000;stroke-width:0.8;" x="72" xlink:href="#m6f145c9ed9" y="163.047273"/>
      </g>
     </g>
     <g id="text_9">
      <!-- 0.4 -->
      <g transform="translate(49.096875 166.846491)scale(0.1 -0.1)">
       <use xlink:href="#DejaVuSans-30"/>
       <use x="63.623047" xlink:href="#DejaVuSans-2e"/>
       <use x="95.410156" xlink:href="#DejaVuSans-34"/>
      </g>
     </g>
    </g>
    <g id="ytick_4">
     <g id="line2d_10">
      <g>
       <use style="stroke:#000000;stroke-width:0.8;" x="72" xlink:href="#m6f145c9ed9" y="123.512727"/>
      </g>
     </g>
     <g id="text_10">
      <!-- 0.6 -->
      <g transform="translate(49.096875 127.311946)scale(0.1 -0.1)">
       <use xlink:href="#DejaVuSans-30"/>
       <use x="63.623047" xlink:href="#DejaVuSans-2e"/>
       <use x="95.410156" xlink:href="#DejaVuSans-36"/>
      </g>
     </g>
    </g>
    <g id="ytick_5">
     <g id="line2d_11">
      <g>
       <use style="stroke:#000000;stroke-width:0.8;" x="72" xlink:href="#m6f145c9ed9" y="83.978182"/>
      </g>
     </g>
     <g id="text_11">
      <!-- 0.8 -->
      <g transform="translate(49.096875 87.777401)scale(0.1 -0.1)">
       <use xlink:href="#DejaVuSans-30"/>
       <use x="63.623047" xlink:href="#DejaVuSans-2e"/>
       <use x="95.410156" xlink:href="#DejaVuSans-38"/>
      </g>
     </g>
    </g>
    <g id="ytick_6">
     <g id="line2d_12">
      <g>
       <use style="stroke:#000000;stroke-width:0.8;" x="72" xlink:href="#m6f145c9ed9" y="44.443636"/>
      </g>
     </g>
     <g id="text_12">
      <!-- 1.0 -->
      <g transform="translate(49.096875 48.242855)scale(0.1 -0.1)">
       <use xlink:href="#DejaVuSans-31"/>
       <use x="63.623047" xlink:href="#DejaVuSans-2e"/>
       <use x="95.410156" xlink:href="#DejaVuSans-30"/>
      </g>
     </g>
    </g>
   </g>
   <g id="patch_3">
    <path d="M 72 252 
L 72 34.56 
" style="fill:none;stroke:#000000;stroke-linecap:square;stroke-linejoin:miter;stroke-width:0.8;"/>
   </g>
   <g id="patch_4">
    <path d="M 274.909091 252 
L 274.909091 34.56 
" style="fill:none;stroke:#000000;stroke-linecap:square;stroke-linejoin:miter;stroke-width:0.8;"/>
   </g>
   <g id="patch_5">
    <path d="M 72 252 
L 274.909091 252 
" style="fill:none;stroke:#000000;stroke-linecap:square;stroke-linejoin:miter;stroke-width:0.8;"/>
   </g>
   <g id="patch_6">
    <path d="M 72 34.56 
L 274.909091 34.56 
" style="fill:none;stroke:#000000;stroke-linecap:square;stroke-linejoin:miter;stroke-width:0.8;"/>
   </g>
   <g id="text_13">
    <!-- Recall-Precision Curve -->
    <defs>
     <path d="M 44.390625 34.1875 
Q 47.5625 33.109375 50.5625 29.59375 
Q 53.5625 26.078125 56.59375 19.921875 
L 66.609375 0 
L 56 0 
L 46.6875 18.703125 
Q 43.0625 26.03125 39.671875 28.421875 
Q 36.28125 30.8125 30.421875 30.8125 
L 19.671875 30.8125 
L 19.671875 0 
L 9.8125 0 
L 9.8125 72.90625 
L 32.078125 72.90625 
Q 44.578125 72.90625 50.734375 67.671875 
Q 56.890625 62.453125 56.890625 51.90625 
Q 56.890625 45.015625 53.6875 40.46875 
Q 50.484375 35.9375 44.390625 34.1875 
z
M 19.671875 64.796875 
L 19.671875 38.921875 
L 32.078125 38.921875 
Q 39.203125 38.921875 42.84375 42.21875 
Q 46.484375 45.515625 46.484375 51.90625 
Q 46.484375 58.296875 42.84375 61.546875 
Q 39.203125 64.796875 32.078125 64.796875 
z
" id="DejaVuSans-52"/>
     <path d="M 56.203125 29.59375 
L 56.203125 25.203125 
L 14.890625 25.203125 
Q 15.484375 15.921875 20.484375 11.0625 
Q 25.484375 6.203125 34.421875 6.203125 
Q 39.59375 6.203125 44.453125 7.46875 
Q 49.3125 8.734375 54.109375 11.28125 
L 54.109375 2.78125 
Q 49.265625 0.734375 44.1875 -0.34375 
Q 39.109375 -1.421875 33.890625 -1.421875 
Q 20.796875 -1.421875 13.15625 6.1875 
Q 5.515625 13.8125 5.515625 26.8125 
Q 5.515625 40.234375 12.765625 48.109375 
Q 20.015625 56 32.328125 56 
Q 43.359375 56 49.78125 48.890625 
Q 56.203125 41.796875 56.203125 29.59375 
z
M 47.21875 32.234375 
Q 47.125 39.59375 43.09375 43.984375 
Q 39.0625 48.390625 32.421875 48.390625 
Q 24.90625 48.390625 20.390625 44.140625 
Q 15.875 39.890625 15.1875 32.171875 
z
" id="DejaVuSans-65"/>
     <path d="M 48.78125 52.59375 
L 48.78125 44.1875 
Q 44.96875 46.296875 41.140625 47.34375 
Q 37.3125 48.390625 33.40625 48.390625 
Q 24.65625 48.390625 19.8125 42.84375 
Q 14.984375 37.3125 14.984375 27.296875 
Q 14.984375 17.28125 19.8125 11.734375 
Q 24.65625 6.203125 33.40625 6.203125 
Q 37.3125 6.203125 41.140625 7.25 
Q 44.96875 8.296875 48.78125 10.40625 
L 48.78125 2.09375 
Q 45.015625 0.34375 40.984375 -0.53125 
Q 36.96875 -1.421875 32.421875 -1.421875 
Q 20.0625 -1.421875 12.78125 6.34375 
Q 5.515625 14.109375 5.515625 27.296875 
Q 5.515625 40.671875 12.859375 48.328125 
Q 20.21875 56 33.015625 56 
Q 37.15625 56 41.109375 55.140625 
Q 45.0625 54.296875 48.78125 52.59375 
z
" id="DejaVuSans-63"/>
     <path d="M 34.28125 27.484375 
Q 23.390625 27.484375 19.1875 25 
Q 14.984375 22.515625 14.984375 16.5 
Q 14.984375 11.71875 18.140625 8.90625 
Q 21.296875 6.109375 26.703125 6.109375 
Q 34.1875 6.109375 38.703125 11.40625 
Q 43.21875 16.703125 43.21875 25.484375 
L 43.21875 27.484375 
z
M 52.203125 31.203125 
L 52.203125 0 
L 43.21875 0 
L 43.21875 8.296875 
Q 40.140625 3.328125 35.546875 0.953125 
Q 30.953125 -1.421875 24.3125 -1.421875 
Q 15.921875 -1.421875 10.953125 3.296875 
Q 6 8.015625 6 15.921875 
Q 6 25.140625 12.171875 29.828125 
Q 18.359375 34.515625 30.609375 34.515625 
L 43.21875 34.515625 
L 43.21875 35.40625 
Q 43.21875 41.609375 39.140625 45 
Q 35.0625 48.390625 27.6875 48.390625 
Q 23 48.390625 18.546875 47.265625 
Q 14.109375 46.140625 10.015625 43.890625 
L 10.015625 52.203125 
Q 14.9375 54.109375 19.578125 55.046875 
Q 24.21875 56 28.609375 56 
Q 40.484375 56 46.34375 49.84375 
Q 52.203125 43.703125 52.203125 31.203125 
z
" id="DejaVuSans-61"/>
     <path d="M 9.421875 75.984375 
L 18.40625 75.984375 
L 18.40625 0 
L 9.421875 0 
z
" id="DejaVuSans-6c"/>
     <path d="M 4.890625 31.390625 
L 31.203125 31.390625 
L 31.203125 23.390625 
L 4.890625 23.390625 
z
" id="DejaVuSans-2d"/>
     <path d="M 19.671875 64.796875 
L 19.671875 37.40625 
L 32.078125 37.40625 
Q 38.96875 37.40625 42.71875 40.96875 
Q 46.484375 44.53125 46.484375 51.125 
Q 46.484375 57.671875 42.71875 61.234375 
Q 38.96875 64.796875 32.078125 64.796875 
z
M 9.8125 72.90625 
L 32.078125 72.90625 
Q 44.34375 72.90625 50.609375 67.359375 
Q 56.890625 61.8125 56.890625 51.125 
Q 56.890625 40.328125 50.609375 34.8125 
Q 44.34375 29.296875 32.078125 29.296875 
L 19.671875 29.296875 
L 19.671875 0 
L 9.8125 0 
z
" id="DejaVuSans-50"/>
     <path d="M 41.109375 46.296875 
Q 39.59375 47.171875 37.8125 47.578125 
Q 36.03125 48 33.890625 48 
Q 26.265625 48 22.1875 43.046875 
Q 18.109375 38.09375 18.109375 28.8125 
L 18.109375 0 
L 9.078125 0 
L 9.078125 54.6875 
L 18.109375 54.6875 
L 18.109375 46.1875 
Q 20.953125 51.171875 25.484375 53.578125 
Q 30.03125 56 36.53125 56 
Q 37.453125 56 38.578125 55.875 
Q 39.703125 55.765625 41.0625 55.515625 
z
" id="DejaVuSans-72"/>
     <path d="M 9.421875 54.6875 
L 18.40625 54.6875 
L 18.40625 0 
L 9.421875 0 
z
M 9.421875 75.984375 
L 18.40625 75.984375 
L 18.40625 64.59375 
L 9.421875 64.59375 
z
" id="DejaVuSans-69"/>
     <path d="M 44.28125 53.078125 
L 44.28125 44.578125 
Q 40.484375 46.53125 36.375 47.5 
Q 32.28125 48.484375 27.875 48.484375 
Q 21.1875 48.484375 17.84375 46.4375 
Q 14.5 44.390625 14.5 40.28125 
Q 14.5 37.15625 16.890625 35.375 
Q 19.28125 33.59375 26.515625 31.984375 
L 29.59375 31.296875 
Q 39.15625 29.25 43.1875 25.515625 
Q 47.21875 21.78125 47.21875 15.09375 
Q 47.21875 7.46875 41.1875 3.015625 
Q 35.15625 -1.421875 24.609375 -1.421875 
Q 20.21875 -1.421875 15.453125 -0.5625 
Q 10.6875 0.296875 5.421875 2 
L 5.421875 11.28125 
Q 10.40625 8.6875 15.234375 7.390625 
Q 20.0625 6.109375 24.8125 6.109375 
Q 31.15625 6.109375 34.5625 8.28125 
Q 37.984375 10.453125 37.984375 14.40625 
Q 37.984375 18.0625 35.515625 20.015625 
Q 33.0625 21.96875 24.703125 23.78125 
L 21.578125 24.515625 
Q 13.234375 26.265625 9.515625 29.90625 
Q 5.8125 33.546875 5.8125 39.890625 
Q 5.8125 47.609375 11.28125 51.796875 
Q 16.75 56 26.8125 56 
Q 31.78125 56 36.171875 55.265625 
Q 40.578125 54.546875 44.28125 53.078125 
z
" id="DejaVuSans-73"/>
     <path d="M 30.609375 48.390625 
Q 23.390625 48.390625 19.1875 42.75 
Q 14.984375 37.109375 14.984375 27.296875 
Q 14.984375 17.484375 19.15625 11.84375 
Q 23.34375 6.203125 30.609375 6.203125 
Q 37.796875 6.203125 41.984375 11.859375 
Q 46.1875 17.53125 46.1875 27.296875 
Q 46.1875 37.015625 41.984375 42.703125 
Q 37.796875 48.390625 30.609375 48.390625 
z
M 30.609375 56 
Q 42.328125 56 49.015625 48.375 
Q 55.71875 40.765625 55.71875 27.296875 
Q 55.71875 13.875 49.015625 6.21875 
Q 42.328125 -1.421875 30.609375 -1.421875 
Q 18.84375 -1.421875 12.171875 6.21875 
Q 5.515625 13.875 5.515625 27.296875 
Q 5.515625 40.765625 12.171875 48.375 
Q 18.84375 56 30.609375 56 
z
" id="DejaVuSans-6f"/>
     <path d="M 54.890625 33.015625 
L 54.890625 0 
L 45.90625 0 
L 45.90625 32.71875 
Q 45.90625 40.484375 42.875 44.328125 
Q 39.84375 48.1875 33.796875 48.1875 
Q 26.515625 48.1875 22.3125 43.546875 
Q 18.109375 38.921875 18.109375 30.90625 
L 18.109375 0 
L 9.078125 0 
L 9.078125 54.6875 
L 18.109375 54.6875 
L 18.109375 46.1875 
Q 21.34375 51.125 25.703125 53.5625 
Q 30.078125 56 35.796875 56 
Q 45.21875 56 50.046875 50.171875 
Q 54.890625 44.34375 54.890625 33.015625 
z
" id="DejaVuSans-6e"/>
     <path id="DejaVuSans-20"/>
     <path d="M 64.40625 67.28125 
L 64.40625 56.890625 
Q 59.421875 61.53125 53.78125 63.8125 
Q 48.140625 66.109375 41.796875 66.109375 
Q 29.296875 66.109375 22.65625 58.46875 
Q 16.015625 50.828125 16.015625 36.375 
Q 16.015625 21.96875 22.65625 14.328125 
Q 29.296875 6.6875 41.796875 6.6875 
Q 48.140625 6.6875 53.78125 8.984375 
Q 59.421875 11.28125 64.40625 15.921875 
L 64.40625 5.609375 
Q 59.234375 2.09375 53.4375 0.328125 
Q 47.65625 -1.421875 41.21875 -1.421875 
Q 24.65625 -1.421875 15.125 8.703125 
Q 5.609375 18.84375 5.609375 36.375 
Q 5.609375 53.953125 15.125 64.078125 
Q 24.65625 74.21875 41.21875 74.21875 
Q 47.75 74.21875 53.53125 72.484375 
Q 59.328125 70.75 64.40625 67.28125 
z
" id="DejaVuSans-43"/>
     <path d="M 8.5 21.578125 
L 8.5 54.6875 
L 17.484375 54.6875 
L 17.484375 21.921875 
Q 17.484375 14.15625 20.5 10.265625 
Q 23.53125 6.390625 29.59375 6.390625 
Q 36.859375 6.390625 41.078125 11.03125 
Q 45.3125 15.671875 45.3125 23.6875 
L 45.3125 54.6875 
L 54.296875 54.6875 
L 54.296875 0 
L 45.3125 0 
L 45.3125 8.40625 
Q 42.046875 3.421875 37.71875 1 
Q 33.40625 -1.421875 27.6875 -1.421875 
Q 18.265625 -1.421875 13.375 4.4375 
Q 8.5 10.296875 8.5 21.578125 
z
M 31.109375 56 
z
" id="DejaVuSans-75"/>
     <path d="M 2.984375 54.6875 
L 12.5 54.6875 
L 29.59375 8.796875 
L 46.6875 54.6875 
L 56.203125 54.6875 
L 35.6875 0 
L 23.484375 0 
z
" id="DejaVuSans-76"/>
    </defs>
    <g transform="translate(106.508608 28.56)scale(0.12 -0.12)">
     <use xlink:href="#DejaVuSans-52"/>
     <use x="69.419922" xlink:href="#DejaVuSans-65"/>
     <use x="130.943359" xlink:href="#DejaVuSans-63"/>
     <use x="185.923828" xlink:href="#DejaVuSans-61"/>
     <use x="247.203125" xlink:href="#DejaVuSans-6c"/>
     <use x="274.986328" xlink:href="#DejaVuSans-6c"/>
     <use x="302.769531" xlink:href="#DejaVuSans-2d"/>
     <use x="338.853516" xlink:href="#DejaVuSans-50"/>
     <use x="399.140625" xlink:href="#DejaVuSans-72"/>
     <use x="440.222656" xlink:href="#DejaVuSans-65"/>
     <use x="501.746094" xlink:href="#DejaVuSans-63"/>
     <use x="556.726562" xlink:href="#DejaVuSans-69"/>
     <use x="584.509766" xlink:href="#DejaVuSans-73"/>
     <use x="636.609375" xlink:href="#DejaVuSans-69"/>
     <use x="664.392578" xlink:href="#DejaVuSans-6f"/>
     <use x="725.574219" xlink:href="#DejaVuSans-6e"/>
     <use x="788.953125" xlink:href="#DejaVuSans-20"/>
     <use x="820.740234" xlink:href="#DejaVuSans-43"/>
     <use x="890.564453" xlink:href="#DejaVuSans-75"/>
     <use x="953.943359" xlink:href="#DejaVuSans-72"/>
     <use x="995.056641" xlink:href="#DejaVuSans-76"/>
     <use x="1054.236328" xlink:href="#DejaVuSans-65"/>
    </g>
   </g>
  </g>
  <g id="axes_2">
   <g id="patch_7">
    <path d="M 315.490909 252 
L 518.4 252 
L 518.4 34.56 
L 315.490909 34.56 
z
" style="fill:#ffffff;"/>
   </g>
   <g id="matplotlib.axis_3">
    <g id="xtick_7">
     <g id="line2d_13">
      <g>
       <use style="stroke:#000000;stroke-width:0.8;" x="324.71405" xlink:href="#mc49525c364" y="252"/>
      </g>
     </g>
     <g id="text_14">
      <!-- 0.0 -->
      <g transform="translate(316.762487 266.598437)scale(0.1 -0.1)">
       <use xlink:href="#DejaVuSans-30"/>
       <use x="63.623047" xlink:href="#DejaVuSans-2e"/>
       <use x="95.410156" xlink:href="#DejaVuSans-30"/>
      </g>
     </g>
    </g>
    <g id="xtick_8">
     <g id="line2d_14">
      <g>
       <use style="stroke:#000000;stroke-width:0.8;" x="361.606612" xlink:href="#mc49525c364" y="252"/>
      </g>
     </g>
     <g id="text_15">
      <!-- 0.2 -->
      <g transform="translate(353.655049 266.598437)scale(0.1 -0.1)">
       <use xlink:href="#DejaVuSans-30"/>
       <use x="63.623047" xlink:href="#DejaVuSans-2e"/>
       <use x="95.410156" xlink:href="#DejaVuSans-32"/>
      </g>
     </g>
    </g>
    <g id="xtick_9">
     <g id="line2d_15">
      <g>
       <use style="stroke:#000000;stroke-width:0.8;" x="398.499174" xlink:href="#mc49525c364" y="252"/>
      </g>
     </g>
     <g id="text_16">
      <!-- 0.4 -->
      <g transform="translate(390.547611 266.598437)scale(0.1 -0.1)">
       <use xlink:href="#DejaVuSans-30"/>
       <use x="63.623047" xlink:href="#DejaVuSans-2e"/>
       <use x="95.410156" xlink:href="#DejaVuSans-34"/>
      </g>
     </g>
    </g>
    <g id="xtick_10">
     <g id="line2d_16">
      <g>
       <use style="stroke:#000000;stroke-width:0.8;" x="435.391736" xlink:href="#mc49525c364" y="252"/>
      </g>
     </g>
     <g id="text_17">
      <!-- 0.6 -->
      <g transform="translate(427.440173 266.598437)scale(0.1 -0.1)">
       <use xlink:href="#DejaVuSans-30"/>
       <use x="63.623047" xlink:href="#DejaVuSans-2e"/>
       <use x="95.410156" xlink:href="#DejaVuSans-36"/>
      </g>
     </g>
    </g>
    <g id="xtick_11">
     <g id="line2d_17">
      <g>
       <use style="stroke:#000000;stroke-width:0.8;" x="472.284298" xlink:href="#mc49525c364" y="252"/>
      </g>
     </g>
     <g id="text_18">
      <!-- 0.8 -->
      <g transform="translate(464.332735 266.598437)scale(0.1 -0.1)">
       <use xlink:href="#DejaVuSans-30"/>
       <use x="63.623047" xlink:href="#DejaVuSans-2e"/>
       <use x="95.410156" xlink:href="#DejaVuSans-38"/>
      </g>
     </g>
    </g>
    <g id="xtick_12">
     <g id="line2d_18">
      <g>
       <use style="stroke:#000000;stroke-width:0.8;" x="509.17686" xlink:href="#mc49525c364" y="252"/>
      </g>
     </g>
     <g id="text_19">
      <!-- 1.0 -->
      <g transform="translate(501.225297 266.598437)scale(0.1 -0.1)">
       <use xlink:href="#DejaVuSans-31"/>
       <use x="63.623047" xlink:href="#DejaVuSans-2e"/>
       <use x="95.410156" xlink:href="#DejaVuSans-30"/>
      </g>
     </g>
    </g>
   </g>
   <g id="matplotlib.axis_4">
    <g id="ytick_7">
     <g id="line2d_19">
      <g>
       <use style="stroke:#000000;stroke-width:0.8;" x="315.490909" xlink:href="#m6f145c9ed9" y="242.116364"/>
      </g>
     </g>
    </g>
    <g id="ytick_8">
     <g id="line2d_20">
      <g>
       <use style="stroke:#000000;stroke-width:0.8;" x="315.490909" xlink:href="#m6f145c9ed9" y="202.581818"/>
      </g>
     </g>
    </g>
    <g id="ytick_9">
     <g id="line2d_21">
      <g>
       <use style="stroke:#000000;stroke-width:0.8;" x="315.490909" xlink:href="#m6f145c9ed9" y="163.047273"/>
      </g>
     </g>
    </g>
    <g id="ytick_10">
     <g id="line2d_22">
      <g>
       <use style="stroke:#000000;stroke-width:0.8;" x="315.490909" xlink:href="#m6f145c9ed9" y="123.512727"/>
      </g>
     </g>
    </g>
    <g id="ytick_11">
     <g id="line2d_23">
      <g>
       <use style="stroke:#000000;stroke-width:0.8;" x="315.490909" xlink:href="#m6f145c9ed9" y="83.978182"/>
      </g>
     </g>
    </g>
    <g id="ytick_12">
     <g id="line2d_24">
      <g>
       <use style="stroke:#000000;stroke-width:0.8;" x="315.490909" xlink:href="#m6f145c9ed9" y="44.443636"/>
      </g>
     </g>
    </g>
   </g>
   <g id="line2d_25">
    <path clip-path="url(#p16dd539abf)" d="M 324.71405 240.139636 
L 324.71405 238.162909 
L 326.558678 238.162909 
L 326.558678 232.232727 
L 328.403306 232.232727 
L 328.403306 230.256 
L 330.247934 230.256 
L 330.247934 228.279273 
L 332.092562 228.279273 
L 332.092562 220.372364 
L 335.781818 220.372364 
L 335.781818 218.395636 
L 339.471074 218.395636 
L 339.471074 216.418909 
L 341.315702 216.418909 
L 341.315702 214.442182 
L 343.160331 214.442182 
L 343.160331 202.581818 
L 345.004959 202.581818 
L 345.004959 200.605091 
L 346.849587 200.605091 
L 346.849587 196.651636 
L 348.694215 196.651636 
L 348.694215 192.698182 
L 350.538843 192.698182 
L 350.538843 186.768 
L 354.228099 186.768 
L 354.228099 184.791273 
L 356.072727 184.791273 
L 356.072727 182.814545 
L 357.917355 182.814545 
L 357.917355 176.884364 
L 361.606612 176.884364 
L 361.606612 174.907636 
L 367.140496 174.907636 
L 367.140496 172.930909 
L 368.985124 172.930909 
L 368.985124 170.954182 
L 372.67438 170.954182 
L 372.67438 163.047273 
L 374.519008 163.047273 
L 374.519008 155.140364 
L 376.363636 155.140364 
L 376.363636 153.163636 
L 378.208264 153.163636 
L 378.208264 151.186909 
L 381.897521 151.186909 
L 381.897521 149.210182 
L 383.742149 149.210182 
L 383.742149 147.233455 
L 385.586777 147.233455 
L 385.586777 145.256727 
L 391.120661 145.256727 
L 391.120661 143.28 
L 392.965289 143.28 
L 392.965289 139.326545 
L 394.809917 139.326545 
L 394.809917 135.373091 
L 396.654545 135.373091 
L 396.654545 127.466182 
L 398.499174 127.466182 
L 398.499174 125.489455 
L 400.343802 125.489455 
L 400.343802 123.512727 
L 407.722314 123.512727 
L 407.722314 121.536 
L 409.566942 121.536 
L 409.566942 117.582545 
L 413.256198 117.582545 
L 413.256198 115.605818 
L 418.790083 115.605818 
L 418.790083 113.629091 
L 420.634711 113.629091 
L 420.634711 109.675636 
L 422.479339 109.675636 
L 422.479339 105.722182 
L 424.323967 105.722182 
L 424.323967 103.745455 
L 429.857851 103.745455 
L 429.857851 95.838545 
L 431.702479 95.838545 
L 431.702479 93.861818 
L 433.547107 93.861818 
L 433.547107 91.885091 
L 437.236364 91.885091 
L 437.236364 89.908364 
L 439.080992 89.908364 
L 439.080992 87.931636 
L 440.92562 87.931636 
L 440.92562 83.978182 
L 450.14876 83.978182 
L 450.14876 80.024727 
L 451.993388 80.024727 
L 451.993388 78.048 
L 453.838017 78.048 
L 453.838017 76.071273 
L 457.527273 76.071273 
L 457.527273 74.094545 
L 459.371901 74.094545 
L 459.371901 70.141091 
L 464.905785 70.141091 
L 464.905785 68.164364 
L 466.750413 68.164364 
L 466.750413 58.280727 
L 468.595041 58.280727 
L 468.595041 56.304 
L 481.507438 56.304 
L 481.507438 54.327273 
L 483.352066 54.327273 
L 483.352066 50.373818 
L 488.88595 50.373818 
L 488.88595 48.397091 
L 496.264463 48.397091 
L 496.264463 44.443636 
L 509.17686 44.443636 
" style="fill:none;stroke:#1f77b4;stroke-linecap:square;stroke-width:1.5;"/>
   </g>
   <g id="line2d_26">
    <path clip-path="url(#p16dd539abf)" d="M 324.71405 242.116364 
L 509.17686 44.443636 
" style="fill:none;stroke:#ff7f0e;stroke-dasharray:5.55,2.4;stroke-dashoffset:0;stroke-width:1.5;"/>
   </g>
   <g id="patch_8">
    <path d="M 315.490909 252 
L 315.490909 34.56 
" style="fill:none;stroke:#000000;stroke-linecap:square;stroke-linejoin:miter;stroke-width:0.8;"/>
   </g>
   <g id="patch_9">
    <path d="M 518.4 252 
L 518.4 34.56 
" style="fill:none;stroke:#000000;stroke-linecap:square;stroke-linejoin:miter;stroke-width:0.8;"/>
   </g>
   <g id="patch_10">
    <path d="M 315.490909 252 
L 518.4 252 
" style="fill:none;stroke:#000000;stroke-linecap:square;stroke-linejoin:miter;stroke-width:0.8;"/>
   </g>
   <g id="patch_11">
    <path d="M 315.490909 34.56 
L 518.4 34.56 
" style="fill:none;stroke:#000000;stroke-linecap:square;stroke-linejoin:miter;stroke-width:0.8;"/>
   </g>
   <g id="text_20">
    <!-- ROC curve -->
    <defs>
     <path d="M 39.40625 66.21875 
Q 28.65625 66.21875 22.328125 58.203125 
Q 16.015625 50.203125 16.015625 36.375 
Q 16.015625 22.609375 22.328125 14.59375 
Q 28.65625 6.59375 39.40625 6.59375 
Q 50.140625 6.59375 56.421875 14.59375 
Q 62.703125 22.609375 62.703125 36.375 
Q 62.703125 50.203125 56.421875 58.203125 
Q 50.140625 66.21875 39.40625 66.21875 
z
M 39.40625 74.21875 
Q 54.734375 74.21875 63.90625 63.9375 
Q 73.09375 53.65625 73.09375 36.375 
Q 73.09375 19.140625 63.90625 8.859375 
Q 54.734375 -1.421875 39.40625 -1.421875 
Q 24.03125 -1.421875 14.8125 8.828125 
Q 5.609375 19.09375 5.609375 36.375 
Q 5.609375 53.65625 14.8125 63.9375 
Q 24.03125 74.21875 39.40625 74.21875 
z
" id="DejaVuSans-4f"/>
    </defs>
    <g transform="translate(385.145455 28.56)scale(0.12 -0.12)">
     <use xlink:href="#DejaVuSans-52"/>
     <use x="69.482422" xlink:href="#DejaVuSans-4f"/>
     <use x="148.193359" xlink:href="#DejaVuSans-43"/>
     <use x="218.017578" xlink:href="#DejaVuSans-20"/>
     <use x="249.804688" xlink:href="#DejaVuSans-63"/>
     <use x="304.785156" xlink:href="#DejaVuSans-75"/>
     <use x="368.164062" xlink:href="#DejaVuSans-72"/>
     <use x="409.277344" xlink:href="#DejaVuSans-76"/>
     <use x="468.457031" xlink:href="#DejaVuSans-65"/>
    </g>
   </g>
  </g>
 </g>
 <defs>
  <clipPath id="p970284f780">
   <rect height="217.44" width="202.909091" x="72" y="34.56"/>
  </clipPath>
  <clipPath id="p16dd539abf">
   <rect height="217.44" width="202.909091" x="315.490909" y="34.56"/>
  </clipPath>
 </defs>
</svg>
