<?xml version="1.0" encoding="utf-8" standalone="no"?>
<!DOCTYPE svg PUBLIC "-//W3C//DTD SVG 1.1//EN"
  "http://www.w3.org/Graphics/SVG/1.1/DTD/svg11.dtd">
<!-- Created with matplotlib (http://matplotlib.org/) -->
<svg height="360pt" version="1.1" viewBox="0 0 1080 360" width="1080pt" xmlns="http://www.w3.org/2000/svg" xmlns:xlink="http://www.w3.org/1999/xlink">
 <defs>
  <style type="text/css">
*{stroke-linecap:butt;stroke-linejoin:round;}
  </style>
 </defs>
 <g id="figure_1">
  <g id="patch_1">
   <path d="M 0 360 
L 1080 360 
L 1080 0 
L 0 0 
z
" style="fill:#ffffff;"/>
  </g>
  <g id="axes_1">
   <g id="LineCollection_1">
    <path clip-path="url(#p6c28d3ce71)" d="M 554.675749 128.574916 
L 680.598937 139.324183 
" style="fill:none;stroke:#000000;"/>
    <path clip-path="url(#p6c28d3ce71)" d="M 554.675749 128.574916 
L 676.645077 174.566386 
" style="fill:none;stroke:#000000;"/>
    <path clip-path="url(#p6c28d3ce71)" d="M 554.675749 128.574916 
L 688.070436 122.995441 
" style="fill:none;stroke:#000000;"/>
    <path clip-path="url(#p6c28d3ce71)" d="M 554.675749 128.574916 
L 428.762457 86.605973 
" style="fill:none;stroke:#000000;"/>
    <path clip-path="url(#p6c28d3ce71)" d="M 554.675749 128.574916 
L 329.456531 109.133865 
" style="fill:none;stroke:#000000;"/>
    <path clip-path="url(#p6c28d3ce71)" d="M 554.675749 128.574916 
L 349.779073 91.239559 
" style="fill:none;stroke:#000000;"/>
    <path clip-path="url(#p6c28d3ce71)" d="M 554.675749 128.574916 
L 625.714511 132.299925 
" style="fill:none;stroke:#000000;"/>
    <path clip-path="url(#p6c28d3ce71)" d="M 554.675749 128.574916 
L 682.775656 189.067159 
" style="fill:none;stroke:#000000;"/>
    <path clip-path="url(#p6c28d3ce71)" d="M 554.675749 128.574916 
L 405.294099 108.778047 
" style="fill:none;stroke:#000000;"/>
    <path clip-path="url(#p6c28d3ce71)" d="M 554.675749 128.574916 
L 518.837436 66.78595 
" style="fill:none;stroke:#000000;"/>
    <path clip-path="url(#p6c28d3ce71)" d="M 554.675749 128.574916 
L 652.424647 81.352579 
" style="fill:none;stroke:#000000;"/>
    <path clip-path="url(#p6c28d3ce71)" d="M 554.675749 128.574916 
L 706.845004 158.747026 
" style="fill:none;stroke:#000000;"/>
    <path clip-path="url(#p6c28d3ce71)" d="M 554.675749 128.574916 
L 705.144192 97.661411 
" style="fill:none;stroke:#000000;"/>
    <path clip-path="url(#p6c28d3ce71)" d="M 554.675749 128.574916 
L 610.462909 170.942781 
" style="fill:none;stroke:#000000;"/>
    <path clip-path="url(#p6c28d3ce71)" d="M 554.675749 128.574916 
L 602.666498 97.533458 
" style="fill:none;stroke:#000000;"/>
    <path clip-path="url(#p6c28d3ce71)" d="M 554.675749 128.574916 
L 567.280841 210.707827 
" style="fill:none;stroke:#000000;"/>
    <path clip-path="url(#p6c28d3ce71)" d="M 680.598937 139.324183 
L 676.645077 174.566386 
" style="fill:none;stroke:#000000;"/>
    <path clip-path="url(#p6c28d3ce71)" d="M 680.598937 139.324183 
L 688.070436 122.995441 
" style="fill:none;stroke:#000000;"/>
    <path clip-path="url(#p6c28d3ce71)" d="M 680.598937 139.324183 
L 625.714511 132.299925 
" style="fill:none;stroke:#000000;"/>
    <path clip-path="url(#p6c28d3ce71)" d="M 680.598937 139.324183 
L 706.845004 158.747026 
" style="fill:none;stroke:#000000;"/>
    <path clip-path="url(#p6c28d3ce71)" d="M 680.598937 139.324183 
L 705.144192 97.661411 
" style="fill:none;stroke:#000000;"/>
    <path clip-path="url(#p6c28d3ce71)" d="M 680.598937 139.324183 
L 610.462909 170.942781 
" style="fill:none;stroke:#000000;"/>
    <path clip-path="url(#p6c28d3ce71)" d="M 680.598937 139.324183 
L 602.666498 97.533458 
" style="fill:none;stroke:#000000;"/>
    <path clip-path="url(#p6c28d3ce71)" d="M 680.598937 139.324183 
L 769.374883 189.629071 
" style="fill:none;stroke:#000000;"/>
    <path clip-path="url(#p6c28d3ce71)" d="M 676.645077 174.566386 
L 688.070436 122.995441 
" style="fill:none;stroke:#000000;"/>
    <path clip-path="url(#p6c28d3ce71)" d="M 676.645077 174.566386 
L 625.714511 132.299925 
" style="fill:none;stroke:#000000;"/>
    <path clip-path="url(#p6c28d3ce71)" d="M 676.645077 174.566386 
L 682.775656 189.067159 
" style="fill:none;stroke:#000000;"/>
    <path clip-path="url(#p6c28d3ce71)" d="M 676.645077 174.566386 
L 844.283988 190.641832 
" style="fill:none;stroke:#000000;"/>
    <path clip-path="url(#p6c28d3ce71)" d="M 676.645077 174.566386 
L 706.845004 158.747026 
" style="fill:none;stroke:#000000;"/>
    <path clip-path="url(#p6c28d3ce71)" d="M 676.645077 174.566386 
L 586.107293 230.86341 
" style="fill:none;stroke:#000000;"/>
    <path clip-path="url(#p6c28d3ce71)" d="M 676.645077 174.566386 
L 642.206408 212.114111 
" style="fill:none;stroke:#000000;"/>
    <path clip-path="url(#p6c28d3ce71)" d="M 676.645077 174.566386 
L 754.170409 234.206135 
" style="fill:none;stroke:#000000;"/>
    <path clip-path="url(#p6c28d3ce71)" d="M 688.070436 122.995441 
L 625.714511 132.299925 
" style="fill:none;stroke:#000000;"/>
    <path clip-path="url(#p6c28d3ce71)" d="M 688.070436 122.995441 
L 652.424647 81.352579 
" style="fill:none;stroke:#000000;"/>
    <path clip-path="url(#p6c28d3ce71)" d="M 688.070436 122.995441 
L 706.845004 158.747026 
" style="fill:none;stroke:#000000;"/>
    <path clip-path="url(#p6c28d3ce71)" d="M 428.762457 86.605973 
L 349.779073 91.239559 
" style="fill:none;stroke:#000000;"/>
    <path clip-path="url(#p6c28d3ce71)" d="M 428.762457 86.605973 
L 405.294099 108.778047 
" style="fill:none;stroke:#000000;"/>
    <path clip-path="url(#p6c28d3ce71)" d="M 329.456531 109.133865 
L 349.779073 91.239559 
" style="fill:none;stroke:#000000;"/>
    <path clip-path="url(#p6c28d3ce71)" d="M 329.456531 109.133865 
L 405.294099 108.778047 
" style="fill:none;stroke:#000000;"/>
    <path clip-path="url(#p6c28d3ce71)" d="M 329.456531 109.133865 
L 207.632231 86.018317 
" style="fill:none;stroke:#000000;"/>
    <path clip-path="url(#p6c28d3ce71)" d="M 349.779073 91.239559 
L 207.632231 86.018317 
" style="fill:none;stroke:#000000;"/>
    <path clip-path="url(#p6c28d3ce71)" d="M 682.775656 189.067159 
L 769.374883 189.629071 
" style="fill:none;stroke:#000000;"/>
    <path clip-path="url(#p6c28d3ce71)" d="M 682.775656 189.067159 
L 754.170409 234.206135 
" style="fill:none;stroke:#000000;"/>
    <path clip-path="url(#p6c28d3ce71)" d="M 682.775656 189.067159 
L 737.010215 227.349446 
" style="fill:none;stroke:#000000;"/>
    <path clip-path="url(#p6c28d3ce71)" d="M 844.283988 190.641832 
L 737.010215 227.349446 
" style="fill:none;stroke:#000000;"/>
    <path clip-path="url(#p6c28d3ce71)" d="M 706.845004 158.747026 
L 737.010215 227.349446 
" style="fill:none;stroke:#000000;"/>
    <path clip-path="url(#p6c28d3ce71)" d="M 899.367769 227.143621 
L 754.170409 234.206135 
" style="fill:none;stroke:#000000;"/>
    <path clip-path="url(#p6c28d3ce71)" d="M 899.367769 227.143621 
L 737.010215 227.349446 
" style="fill:none;stroke:#000000;"/>
    <path clip-path="url(#p6c28d3ce71)" d="M 877.620705 261.042328 
L 754.170409 234.206135 
" style="fill:none;stroke:#000000;"/>
    <path clip-path="url(#p6c28d3ce71)" d="M 877.620705 261.042328 
L 737.010215 227.349446 
" style="fill:none;stroke:#000000;"/>
    <path clip-path="url(#p6c28d3ce71)" d="M 698.632491 273.908332 
L 754.170409 234.206135 
" style="fill:none;stroke:#000000;"/>
    <path clip-path="url(#p6c28d3ce71)" d="M 698.632491 273.908332 
L 737.010215 227.349446 
" style="fill:none;stroke:#000000;"/>
    <path clip-path="url(#p6c28d3ce71)" d="M 610.462909 170.942781 
L 737.010215 227.349446 
" style="fill:none;stroke:#000000;"/>
    <path clip-path="url(#p6c28d3ce71)" d="M 894.755826 244.557927 
L 754.170409 234.206135 
" style="fill:none;stroke:#000000;"/>
    <path clip-path="url(#p6c28d3ce71)" d="M 894.755826 244.557927 
L 737.010215 227.349446 
" style="fill:none;stroke:#000000;"/>
    <path clip-path="url(#p6c28d3ce71)" d="M 822.579286 265.598397 
L 754.170409 234.206135 
" style="fill:none;stroke:#000000;"/>
    <path clip-path="url(#p6c28d3ce71)" d="M 822.579286 265.598397 
L 737.010215 227.349446 
" style="fill:none;stroke:#000000;"/>
    <path clip-path="url(#p6c28d3ce71)" d="M 634.91918 259.879905 
L 489.891048 260.460924 
" style="fill:none;stroke:#000000;"/>
    <path clip-path="url(#p6c28d3ce71)" d="M 634.91918 259.879905 
L 586.107293 230.86341 
" style="fill:none;stroke:#000000;"/>
    <path clip-path="url(#p6c28d3ce71)" d="M 634.91918 259.879905 
L 746.385931 272.017846 
" style="fill:none;stroke:#000000;"/>
    <path clip-path="url(#p6c28d3ce71)" d="M 634.91918 259.879905 
L 754.170409 234.206135 
" style="fill:none;stroke:#000000;"/>
    <path clip-path="url(#p6c28d3ce71)" d="M 634.91918 259.879905 
L 737.010215 227.349446 
" style="fill:none;stroke:#000000;"/>
    <path clip-path="url(#p6c28d3ce71)" d="M 445.163198 241.403243 
L 489.891048 260.460924 
" style="fill:none;stroke:#000000;"/>
    <path clip-path="url(#p6c28d3ce71)" d="M 445.163198 241.403243 
L 586.107293 230.86341 
" style="fill:none;stroke:#000000;"/>
    <path clip-path="url(#p6c28d3ce71)" d="M 445.163198 241.403243 
L 567.280841 210.707827 
" style="fill:none;stroke:#000000;"/>
    <path clip-path="url(#p6c28d3ce71)" d="M 489.891048 260.460924 
L 567.280841 210.707827 
" style="fill:none;stroke:#000000;"/>
    <path clip-path="url(#p6c28d3ce71)" d="M 797.61414 291.41405 
L 746.385931 272.017846 
" style="fill:none;stroke:#000000;"/>
    <path clip-path="url(#p6c28d3ce71)" d="M 797.61414 291.41405 
L 737.010215 227.349446 
" style="fill:none;stroke:#000000;"/>
    <path clip-path="url(#p6c28d3ce71)" d="M 586.107293 230.86341 
L 737.010215 227.349446 
" style="fill:none;stroke:#000000;"/>
    <path clip-path="url(#p6c28d3ce71)" d="M 642.206408 212.114111 
L 567.280841 210.707827 
" style="fill:none;stroke:#000000;"/>
    <path clip-path="url(#p6c28d3ce71)" d="M 642.206408 212.114111 
L 737.010215 227.349446 
" style="fill:none;stroke:#000000;"/>
    <path clip-path="url(#p6c28d3ce71)" d="M 746.385931 272.017846 
L 754.170409 234.206135 
" style="fill:none;stroke:#000000;"/>
    <path clip-path="url(#p6c28d3ce71)" d="M 746.385931 272.017846 
L 737.010215 227.349446 
" style="fill:none;stroke:#000000;"/>
    <path clip-path="url(#p6c28d3ce71)" d="M 769.374883 189.629071 
L 754.170409 234.206135 
" style="fill:none;stroke:#000000;"/>
    <path clip-path="url(#p6c28d3ce71)" d="M 769.374883 189.629071 
L 737.010215 227.349446 
" style="fill:none;stroke:#000000;"/>
    <path clip-path="url(#p6c28d3ce71)" d="M 567.280841 210.707827 
L 754.170409 234.206135 
" style="fill:none;stroke:#000000;"/>
    <path clip-path="url(#p6c28d3ce71)" d="M 567.280841 210.707827 
L 737.010215 227.349446 
" style="fill:none;stroke:#000000;"/>
    <path clip-path="url(#p6c28d3ce71)" d="M 754.170409 234.206135 
L 737.010215 227.349446 
" style="fill:none;stroke:#000000;"/>
   </g>
   <g id="PathCollection_1">
    <defs>
     <path d="M 0 8.660254 
C 2.296726 8.660254 4.499694 7.747755 6.123724 6.123724 
C 7.747755 4.499694 8.660254 2.296726 8.660254 0 
C 8.660254 -2.296726 7.747755 -4.499694 6.123724 -6.123724 
C 4.499694 -7.747755 2.296726 -8.660254 0 -8.660254 
C -2.296726 -8.660254 -4.499694 -7.747755 -6.123724 -6.123724 
C -7.747755 -4.499694 -8.660254 -2.296726 -8.660254 0 
C -8.660254 2.296726 -7.747755 4.499694 -6.123724 6.123724 
C -4.499694 7.747755 -2.296726 8.660254 0 8.660254 
z
" id="C0_0_4a98b0c68a"/>
    </defs>
    <g clip-path="url(#p6c28d3ce71)">
     <use style="fill:#ff0000;stroke:#ff0000;" x="554.675749" xlink:href="#C0_0_4a98b0c68a" y="128.574916"/>
    </g>
    <g clip-path="url(#p6c28d3ce71)">
     <use style="fill:#ff0000;stroke:#ff0000;" x="680.598937" xlink:href="#C0_0_4a98b0c68a" y="139.324183"/>
    </g>
    <g clip-path="url(#p6c28d3ce71)">
     <use style="fill:#ff0000;stroke:#ff0000;" x="676.645077" xlink:href="#C0_0_4a98b0c68a" y="174.566386"/>
    </g>
    <g clip-path="url(#p6c28d3ce71)">
     <use style="fill:#ff0000;stroke:#ff0000;" x="688.070436" xlink:href="#C0_0_4a98b0c68a" y="122.995441"/>
    </g>
    <g clip-path="url(#p6c28d3ce71)">
     <use style="fill:#ff0000;stroke:#ff0000;" x="428.762457" xlink:href="#C0_0_4a98b0c68a" y="86.605973"/>
    </g>
    <g clip-path="url(#p6c28d3ce71)">
     <use style="fill:#ff0000;stroke:#ff0000;" x="329.456531" xlink:href="#C0_0_4a98b0c68a" y="109.133865"/>
    </g>
    <g clip-path="url(#p6c28d3ce71)">
     <use style="fill:#ff0000;stroke:#ff0000;" x="349.779073" xlink:href="#C0_0_4a98b0c68a" y="91.239559"/>
    </g>
    <g clip-path="url(#p6c28d3ce71)">
     <use style="fill:#ff0000;stroke:#ff0000;" x="625.714511" xlink:href="#C0_0_4a98b0c68a" y="132.299925"/>
    </g>
    <g clip-path="url(#p6c28d3ce71)">
     <use style="fill:#8000ff;stroke:#8000ff;" x="682.775656" xlink:href="#C0_0_4a98b0c68a" y="189.067159"/>
    </g>
    <g clip-path="url(#p6c28d3ce71)">
     <use style="fill:#8000ff;stroke:#8000ff;" x="844.283988" xlink:href="#C0_0_4a98b0c68a" y="190.641832"/>
    </g>
    <g clip-path="url(#p6c28d3ce71)">
     <use style="fill:#ff0000;stroke:#ff0000;" x="405.294099" xlink:href="#C0_0_4a98b0c68a" y="108.778047"/>
    </g>
    <g clip-path="url(#p6c28d3ce71)">
     <use style="fill:#ff0000;stroke:#ff0000;" x="518.837436" xlink:href="#C0_0_4a98b0c68a" y="66.78595"/>
    </g>
    <g clip-path="url(#p6c28d3ce71)">
     <use style="fill:#ff0000;stroke:#ff0000;" x="652.424647" xlink:href="#C0_0_4a98b0c68a" y="81.352579"/>
    </g>
    <g clip-path="url(#p6c28d3ce71)">
     <use style="fill:#ff0000;stroke:#ff0000;" x="706.845004" xlink:href="#C0_0_4a98b0c68a" y="158.747026"/>
    </g>
    <g clip-path="url(#p6c28d3ce71)">
     <use style="fill:#8000ff;stroke:#8000ff;" x="899.367769" xlink:href="#C0_0_4a98b0c68a" y="227.143621"/>
    </g>
    <g clip-path="url(#p6c28d3ce71)">
     <use style="fill:#8000ff;stroke:#8000ff;" x="877.620705" xlink:href="#C0_0_4a98b0c68a" y="261.042328"/>
    </g>
    <g clip-path="url(#p6c28d3ce71)">
     <use style="fill:#ff0000;stroke:#ff0000;" x="207.632231" xlink:href="#C0_0_4a98b0c68a" y="86.018317"/>
    </g>
    <g clip-path="url(#p6c28d3ce71)">
     <use style="fill:#ff0000;stroke:#ff0000;" x="705.144192" xlink:href="#C0_0_4a98b0c68a" y="97.661411"/>
    </g>
    <g clip-path="url(#p6c28d3ce71)">
     <use style="fill:#8000ff;stroke:#8000ff;" x="698.632491" xlink:href="#C0_0_4a98b0c68a" y="273.908332"/>
    </g>
    <g clip-path="url(#p6c28d3ce71)">
     <use style="fill:#ff0000;stroke:#ff0000;" x="610.462909" xlink:href="#C0_0_4a98b0c68a" y="170.942781"/>
    </g>
    <g clip-path="url(#p6c28d3ce71)">
     <use style="fill:#8000ff;stroke:#8000ff;" x="894.755826" xlink:href="#C0_0_4a98b0c68a" y="244.557927"/>
    </g>
    <g clip-path="url(#p6c28d3ce71)">
     <use style="fill:#ff0000;stroke:#ff0000;" x="602.666498" xlink:href="#C0_0_4a98b0c68a" y="97.533458"/>
    </g>
    <g clip-path="url(#p6c28d3ce71)">
     <use style="fill:#8000ff;stroke:#8000ff;" x="822.579286" xlink:href="#C0_0_4a98b0c68a" y="265.598397"/>
    </g>
    <g clip-path="url(#p6c28d3ce71)">
     <use style="fill:#8000ff;stroke:#8000ff;" x="634.91918" xlink:href="#C0_0_4a98b0c68a" y="259.879905"/>
    </g>
    <g clip-path="url(#p6c28d3ce71)">
     <use style="fill:#8000ff;stroke:#8000ff;" x="445.163198" xlink:href="#C0_0_4a98b0c68a" y="241.403243"/>
    </g>
    <g clip-path="url(#p6c28d3ce71)">
     <use style="fill:#8000ff;stroke:#8000ff;" x="489.891048" xlink:href="#C0_0_4a98b0c68a" y="260.460924"/>
    </g>
    <g clip-path="url(#p6c28d3ce71)">
     <use style="fill:#8000ff;stroke:#8000ff;" x="797.61414" xlink:href="#C0_0_4a98b0c68a" y="291.41405"/>
    </g>
    <g clip-path="url(#p6c28d3ce71)">
     <use style="fill:#8000ff;stroke:#8000ff;" x="586.107293" xlink:href="#C0_0_4a98b0c68a" y="230.86341"/>
    </g>
    <g clip-path="url(#p6c28d3ce71)">
     <use style="fill:#8000ff;stroke:#8000ff;" x="642.206408" xlink:href="#C0_0_4a98b0c68a" y="212.114111"/>
    </g>
    <g clip-path="url(#p6c28d3ce71)">
     <use style="fill:#8000ff;stroke:#8000ff;" x="746.385931" xlink:href="#C0_0_4a98b0c68a" y="272.017846"/>
    </g>
    <g clip-path="url(#p6c28d3ce71)">
     <use style="fill:#8000ff;stroke:#8000ff;" x="769.374883" xlink:href="#C0_0_4a98b0c68a" y="189.629071"/>
    </g>
    <g clip-path="url(#p6c28d3ce71)">
     <use style="fill:#8000ff;stroke:#8000ff;" x="567.280841" xlink:href="#C0_0_4a98b0c68a" y="210.707827"/>
    </g>
    <g clip-path="url(#p6c28d3ce71)">
     <use style="fill:#8000ff;stroke:#8000ff;" x="754.170409" xlink:href="#C0_0_4a98b0c68a" y="234.206135"/>
    </g>
    <g clip-path="url(#p6c28d3ce71)">
     <use style="fill:#8000ff;stroke:#8000ff;" x="737.010215" xlink:href="#C0_0_4a98b0c68a" y="227.349446"/>
    </g>
   </g>
   <g id="text_1">
    <g clip-path="url(#p6c28d3ce71)">
     <!-- 0 -->
     <defs>
      <path d="M 31.78125 66.40625 
Q 24.171875 66.40625 20.328125 58.90625 
Q 16.5 51.421875 16.5 36.375 
Q 16.5 21.390625 20.328125 13.890625 
Q 24.171875 6.390625 31.78125 6.390625 
Q 39.453125 6.390625 43.28125 13.890625 
Q 47.125 21.390625 47.125 36.375 
Q 47.125 51.421875 43.28125 58.90625 
Q 39.453125 66.40625 31.78125 66.40625 
z
M 31.78125 74.21875 
Q 44.046875 74.21875 50.515625 64.515625 
Q 56.984375 54.828125 56.984375 36.375 
Q 56.984375 17.96875 50.515625 8.265625 
Q 44.046875 -1.421875 31.78125 -1.421875 
Q 19.53125 -1.421875 13.0625 8.265625 
Q 6.59375 17.96875 6.59375 36.375 
Q 6.59375 54.828125 13.0625 64.515625 
Q 19.53125 74.21875 31.78125 74.21875 
z
" id="DejaVuSans-30"/>
     </defs>
     <g transform="translate(550.858249 131.886166)scale(0.12 -0.12)">
      <use xlink:href="#DejaVuSans-30"/>
     </g>
    </g>
   </g>
   <g id="text_2">
    <g clip-path="url(#p6c28d3ce71)">
     <!-- 1 -->
     <defs>
      <path d="M 12.40625 8.296875 
L 28.515625 8.296875 
L 28.515625 63.921875 
L 10.984375 60.40625 
L 10.984375 69.390625 
L 28.421875 72.90625 
L 38.28125 72.90625 
L 38.28125 8.296875 
L 54.390625 8.296875 
L 54.390625 0 
L 12.40625 0 
z
" id="DejaVuSans-31"/>
     </defs>
     <g transform="translate(676.781437 142.635433)scale(0.12 -0.12)">
      <use xlink:href="#DejaVuSans-31"/>
     </g>
    </g>
   </g>
   <g id="text_3">
    <g clip-path="url(#p6c28d3ce71)">
     <!-- 2 -->
     <defs>
      <path d="M 19.1875 8.296875 
L 53.609375 8.296875 
L 53.609375 0 
L 7.328125 0 
L 7.328125 8.296875 
Q 12.9375 14.109375 22.625 23.890625 
Q 32.328125 33.6875 34.8125 36.53125 
Q 39.546875 41.84375 41.421875 45.53125 
Q 43.3125 49.21875 43.3125 52.78125 
Q 43.3125 58.59375 39.234375 62.25 
Q 35.15625 65.921875 28.609375 65.921875 
Q 23.96875 65.921875 18.8125 64.3125 
Q 13.671875 62.703125 7.8125 59.421875 
L 7.8125 69.390625 
Q 13.765625 71.78125 18.9375 73 
Q 24.125 74.21875 28.421875 74.21875 
Q 39.75 74.21875 46.484375 68.546875 
Q 53.21875 62.890625 53.21875 53.421875 
Q 53.21875 48.921875 51.53125 44.890625 
Q 49.859375 40.875 45.40625 35.40625 
Q 44.1875 33.984375 37.640625 27.21875 
Q 31.109375 20.453125 19.1875 8.296875 
z
" id="DejaVuSans-32"/>
     </defs>
     <g transform="translate(672.827577 177.877636)scale(0.12 -0.12)">
      <use xlink:href="#DejaVuSans-32"/>
     </g>
    </g>
   </g>
   <g id="text_4">
    <g clip-path="url(#p6c28d3ce71)">
     <!-- 3 -->
     <defs>
      <path d="M 40.578125 39.3125 
Q 47.65625 37.796875 51.625 33 
Q 55.609375 28.21875 55.609375 21.1875 
Q 55.609375 10.40625 48.1875 4.484375 
Q 40.765625 -1.421875 27.09375 -1.421875 
Q 22.515625 -1.421875 17.65625 -0.515625 
Q 12.796875 0.390625 7.625 2.203125 
L 7.625 11.71875 
Q 11.71875 9.328125 16.59375 8.109375 
Q 21.484375 6.890625 26.8125 6.890625 
Q 36.078125 6.890625 40.9375 10.546875 
Q 45.796875 14.203125 45.796875 21.1875 
Q 45.796875 27.640625 41.28125 31.265625 
Q 36.765625 34.90625 28.71875 34.90625 
L 20.21875 34.90625 
L 20.21875 43.015625 
L 29.109375 43.015625 
Q 36.375 43.015625 40.234375 45.921875 
Q 44.09375 48.828125 44.09375 54.296875 
Q 44.09375 59.90625 40.109375 62.90625 
Q 36.140625 65.921875 28.71875 65.921875 
Q 24.65625 65.921875 20.015625 65.03125 
Q 15.375 64.15625 9.8125 62.3125 
L 9.8125 71.09375 
Q 15.4375 72.65625 20.34375 73.4375 
Q 25.25 74.21875 29.59375 74.21875 
Q 40.828125 74.21875 47.359375 69.109375 
Q 53.90625 64.015625 53.90625 55.328125 
Q 53.90625 49.265625 50.4375 45.09375 
Q 46.96875 40.921875 40.578125 39.3125 
z
" id="DejaVuSans-33"/>
     </defs>
     <g transform="translate(684.252936 126.306691)scale(0.12 -0.12)">
      <use xlink:href="#DejaVuSans-33"/>
     </g>
    </g>
   </g>
   <g id="text_5">
    <g clip-path="url(#p6c28d3ce71)">
     <!-- 4 -->
     <defs>
      <path d="M 37.796875 64.3125 
L 12.890625 25.390625 
L 37.796875 25.390625 
z
M 35.203125 72.90625 
L 47.609375 72.90625 
L 47.609375 25.390625 
L 58.015625 25.390625 
L 58.015625 17.1875 
L 47.609375 17.1875 
L 47.609375 0 
L 37.796875 0 
L 37.796875 17.1875 
L 4.890625 17.1875 
L 4.890625 26.703125 
z
" id="DejaVuSans-34"/>
     </defs>
     <g transform="translate(424.944957 89.917223)scale(0.12 -0.12)">
      <use xlink:href="#DejaVuSans-34"/>
     </g>
    </g>
   </g>
   <g id="text_6">
    <g clip-path="url(#p6c28d3ce71)">
     <!-- 5 -->
     <defs>
      <path d="M 10.796875 72.90625 
L 49.515625 72.90625 
L 49.515625 64.59375 
L 19.828125 64.59375 
L 19.828125 46.734375 
Q 21.96875 47.46875 24.109375 47.828125 
Q 26.265625 48.1875 28.421875 48.1875 
Q 40.625 48.1875 47.75 41.5 
Q 54.890625 34.8125 54.890625 23.390625 
Q 54.890625 11.625 47.5625 5.09375 
Q 40.234375 -1.421875 26.90625 -1.421875 
Q 22.3125 -1.421875 17.546875 -0.640625 
Q 12.796875 0.140625 7.71875 1.703125 
L 7.71875 11.625 
Q 12.109375 9.234375 16.796875 8.0625 
Q 21.484375 6.890625 26.703125 6.890625 
Q 35.15625 6.890625 40.078125 11.328125 
Q 45.015625 15.765625 45.015625 23.390625 
Q 45.015625 31 40.078125 35.4375 
Q 35.15625 39.890625 26.703125 39.890625 
Q 22.75 39.890625 18.8125 39.015625 
Q 14.890625 38.140625 10.796875 36.28125 
z
" id="DejaVuSans-35"/>
     </defs>
     <g transform="translate(325.639031 112.445115)scale(0.12 -0.12)">
      <use xlink:href="#DejaVuSans-35"/>
     </g>
    </g>
   </g>
   <g id="text_7">
    <g clip-path="url(#p6c28d3ce71)">
     <!-- 6 -->
     <defs>
      <path d="M 33.015625 40.375 
Q 26.375 40.375 22.484375 35.828125 
Q 18.609375 31.296875 18.609375 23.390625 
Q 18.609375 15.53125 22.484375 10.953125 
Q 26.375 6.390625 33.015625 6.390625 
Q 39.65625 6.390625 43.53125 10.953125 
Q 47.40625 15.53125 47.40625 23.390625 
Q 47.40625 31.296875 43.53125 35.828125 
Q 39.65625 40.375 33.015625 40.375 
z
M 52.59375 71.296875 
L 52.59375 62.3125 
Q 48.875 64.0625 45.09375 64.984375 
Q 41.3125 65.921875 37.59375 65.921875 
Q 27.828125 65.921875 22.671875 59.328125 
Q 17.53125 52.734375 16.796875 39.40625 
Q 19.671875 43.65625 24.015625 45.921875 
Q 28.375 48.1875 33.59375 48.1875 
Q 44.578125 48.1875 50.953125 41.515625 
Q 57.328125 34.859375 57.328125 23.390625 
Q 57.328125 12.15625 50.6875 5.359375 
Q 44.046875 -1.421875 33.015625 -1.421875 
Q 20.359375 -1.421875 13.671875 8.265625 
Q 6.984375 17.96875 6.984375 36.375 
Q 6.984375 53.65625 15.1875 63.9375 
Q 23.390625 74.21875 37.203125 74.21875 
Q 40.921875 74.21875 44.703125 73.484375 
Q 48.484375 72.75 52.59375 71.296875 
z
" id="DejaVuSans-36"/>
     </defs>
     <g transform="translate(345.961573 94.550809)scale(0.12 -0.12)">
      <use xlink:href="#DejaVuSans-36"/>
     </g>
    </g>
   </g>
   <g id="text_8">
    <g clip-path="url(#p6c28d3ce71)">
     <!-- 7 -->
     <defs>
      <path d="M 8.203125 72.90625 
L 55.078125 72.90625 
L 55.078125 68.703125 
L 28.609375 0 
L 18.3125 0 
L 43.21875 64.59375 
L 8.203125 64.59375 
z
" id="DejaVuSans-37"/>
     </defs>
     <g transform="translate(621.897011 135.611175)scale(0.12 -0.12)">
      <use xlink:href="#DejaVuSans-37"/>
     </g>
    </g>
   </g>
   <g id="text_9">
    <g clip-path="url(#p6c28d3ce71)">
     <!-- 8 -->
     <defs>
      <path d="M 31.78125 34.625 
Q 24.75 34.625 20.71875 30.859375 
Q 16.703125 27.09375 16.703125 20.515625 
Q 16.703125 13.921875 20.71875 10.15625 
Q 24.75 6.390625 31.78125 6.390625 
Q 38.8125 6.390625 42.859375 10.171875 
Q 46.921875 13.96875 46.921875 20.515625 
Q 46.921875 27.09375 42.890625 30.859375 
Q 38.875 34.625 31.78125 34.625 
z
M 21.921875 38.8125 
Q 15.578125 40.375 12.03125 44.71875 
Q 8.5 49.078125 8.5 55.328125 
Q 8.5 64.0625 14.71875 69.140625 
Q 20.953125 74.21875 31.78125 74.21875 
Q 42.671875 74.21875 48.875 69.140625 
Q 55.078125 64.0625 55.078125 55.328125 
Q 55.078125 49.078125 51.53125 44.71875 
Q 48 40.375 41.703125 38.8125 
Q 48.828125 37.15625 52.796875 32.3125 
Q 56.78125 27.484375 56.78125 20.515625 
Q 56.78125 9.90625 50.3125 4.234375 
Q 43.84375 -1.421875 31.78125 -1.421875 
Q 19.734375 -1.421875 13.25 4.234375 
Q 6.78125 9.90625 6.78125 20.515625 
Q 6.78125 27.484375 10.78125 32.3125 
Q 14.796875 37.15625 21.921875 38.8125 
z
M 18.3125 54.390625 
Q 18.3125 48.734375 21.84375 45.5625 
Q 25.390625 42.390625 31.78125 42.390625 
Q 38.140625 42.390625 41.71875 45.5625 
Q 45.3125 48.734375 45.3125 54.390625 
Q 45.3125 60.0625 41.71875 63.234375 
Q 38.140625 66.40625 31.78125 66.40625 
Q 25.390625 66.40625 21.84375 63.234375 
Q 18.3125 60.0625 18.3125 54.390625 
z
" id="DejaVuSans-38"/>
     </defs>
     <g transform="translate(678.958156 192.378409)scale(0.12 -0.12)">
      <use xlink:href="#DejaVuSans-38"/>
     </g>
    </g>
   </g>
   <g id="text_10">
    <g clip-path="url(#p6c28d3ce71)">
     <!-- 9 -->
     <defs>
      <path d="M 10.984375 1.515625 
L 10.984375 10.5 
Q 14.703125 8.734375 18.5 7.8125 
Q 22.3125 6.890625 25.984375 6.890625 
Q 35.75 6.890625 40.890625 13.453125 
Q 46.046875 20.015625 46.78125 33.40625 
Q 43.953125 29.203125 39.59375 26.953125 
Q 35.25 24.703125 29.984375 24.703125 
Q 19.046875 24.703125 12.671875 31.3125 
Q 6.296875 37.9375 6.296875 49.421875 
Q 6.296875 60.640625 12.9375 67.421875 
Q 19.578125 74.21875 30.609375 74.21875 
Q 43.265625 74.21875 49.921875 64.515625 
Q 56.59375 54.828125 56.59375 36.375 
Q 56.59375 19.140625 48.40625 8.859375 
Q 40.234375 -1.421875 26.421875 -1.421875 
Q 22.703125 -1.421875 18.890625 -0.6875 
Q 15.09375 0.046875 10.984375 1.515625 
z
M 30.609375 32.421875 
Q 37.25 32.421875 41.125 36.953125 
Q 45.015625 41.5 45.015625 49.421875 
Q 45.015625 57.28125 41.125 61.84375 
Q 37.25 66.40625 30.609375 66.40625 
Q 23.96875 66.40625 20.09375 61.84375 
Q 16.21875 57.28125 16.21875 49.421875 
Q 16.21875 41.5 20.09375 36.953125 
Q 23.96875 32.421875 30.609375 32.421875 
z
" id="DejaVuSans-39"/>
     </defs>
     <g transform="translate(840.466488 193.953082)scale(0.12 -0.12)">
      <use xlink:href="#DejaVuSans-39"/>
     </g>
    </g>
   </g>
   <g id="text_11">
    <g clip-path="url(#p6c28d3ce71)">
     <!-- 10 -->
     <g transform="translate(397.659099 112.089297)scale(0.12 -0.12)">
      <use xlink:href="#DejaVuSans-31"/>
      <use x="63.623047" xlink:href="#DejaVuSans-30"/>
     </g>
    </g>
   </g>
   <g id="text_12">
    <g clip-path="url(#p6c28d3ce71)">
     <!-- 11 -->
     <g transform="translate(511.202436 70.0972)scale(0.12 -0.12)">
      <use xlink:href="#DejaVuSans-31"/>
      <use x="63.623047" xlink:href="#DejaVuSans-31"/>
     </g>
    </g>
   </g>
   <g id="text_13">
    <g clip-path="url(#p6c28d3ce71)">
     <!-- 12 -->
     <g transform="translate(644.789647 84.663829)scale(0.12 -0.12)">
      <use xlink:href="#DejaVuSans-31"/>
      <use x="63.623047" xlink:href="#DejaVuSans-32"/>
     </g>
    </g>
   </g>
   <g id="text_14">
    <g clip-path="url(#p6c28d3ce71)">
     <!-- 13 -->
     <g transform="translate(699.210004 162.058276)scale(0.12 -0.12)">
      <use xlink:href="#DejaVuSans-31"/>
      <use x="63.623047" xlink:href="#DejaVuSans-33"/>
     </g>
    </g>
   </g>
   <g id="text_15">
    <g clip-path="url(#p6c28d3ce71)">
     <!-- 14 -->
     <g transform="translate(891.732769 230.454871)scale(0.12 -0.12)">
      <use xlink:href="#DejaVuSans-31"/>
      <use x="63.623047" xlink:href="#DejaVuSans-34"/>
     </g>
    </g>
   </g>
   <g id="text_16">
    <g clip-path="url(#p6c28d3ce71)">
     <!-- 15 -->
     <g transform="translate(869.985705 264.353578)scale(0.12 -0.12)">
      <use xlink:href="#DejaVuSans-31"/>
      <use x="63.623047" xlink:href="#DejaVuSans-35"/>
     </g>
    </g>
   </g>
   <g id="text_17">
    <g clip-path="url(#p6c28d3ce71)">
     <!-- 16 -->
     <g transform="translate(199.997231 89.329567)scale(0.12 -0.12)">
      <use xlink:href="#DejaVuSans-31"/>
      <use x="63.623047" xlink:href="#DejaVuSans-36"/>
     </g>
    </g>
   </g>
   <g id="text_18">
    <g clip-path="url(#p6c28d3ce71)">
     <!-- 17 -->
     <g transform="translate(697.509192 100.972661)scale(0.12 -0.12)">
      <use xlink:href="#DejaVuSans-31"/>
      <use x="63.623047" xlink:href="#DejaVuSans-37"/>
     </g>
    </g>
   </g>
   <g id="text_19">
    <g clip-path="url(#p6c28d3ce71)">
     <!-- 18 -->
     <g transform="translate(690.997491 277.219582)scale(0.12 -0.12)">
      <use xlink:href="#DejaVuSans-31"/>
      <use x="63.623047" xlink:href="#DejaVuSans-38"/>
     </g>
    </g>
   </g>
   <g id="text_20">
    <g clip-path="url(#p6c28d3ce71)">
     <!-- 19 -->
     <g transform="translate(602.827909 174.254031)scale(0.12 -0.12)">
      <use xlink:href="#DejaVuSans-31"/>
      <use x="63.623047" xlink:href="#DejaVuSans-39"/>
     </g>
    </g>
   </g>
   <g id="text_21">
    <g clip-path="url(#p6c28d3ce71)">
     <!-- 20 -->
     <g transform="translate(887.120826 247.869177)scale(0.12 -0.12)">
      <use xlink:href="#DejaVuSans-32"/>
      <use x="63.623047" xlink:href="#DejaVuSans-30"/>
     </g>
    </g>
   </g>
   <g id="text_22">
    <g clip-path="url(#p6c28d3ce71)">
     <!-- 21 -->
     <g transform="translate(595.031498 100.844708)scale(0.12 -0.12)">
      <use xlink:href="#DejaVuSans-32"/>
      <use x="63.623047" xlink:href="#DejaVuSans-31"/>
     </g>
    </g>
   </g>
   <g id="text_23">
    <g clip-path="url(#p6c28d3ce71)">
     <!-- 22 -->
     <g transform="translate(814.944286 268.909647)scale(0.12 -0.12)">
      <use xlink:href="#DejaVuSans-32"/>
      <use x="63.623047" xlink:href="#DejaVuSans-32"/>
     </g>
    </g>
   </g>
   <g id="text_24">
    <g clip-path="url(#p6c28d3ce71)">
     <!-- 23 -->
     <g transform="translate(627.28418 263.191155)scale(0.12 -0.12)">
      <use xlink:href="#DejaVuSans-32"/>
      <use x="63.623047" xlink:href="#DejaVuSans-33"/>
     </g>
    </g>
   </g>
   <g id="text_25">
    <g clip-path="url(#p6c28d3ce71)">
     <!-- 24 -->
     <g transform="translate(437.528198 244.714493)scale(0.12 -0.12)">
      <use xlink:href="#DejaVuSans-32"/>
      <use x="63.623047" xlink:href="#DejaVuSans-34"/>
     </g>
    </g>
   </g>
   <g id="text_26">
    <g clip-path="url(#p6c28d3ce71)">
     <!-- 25 -->
     <g transform="translate(482.256048 263.772174)scale(0.12 -0.12)">
      <use xlink:href="#DejaVuSans-32"/>
      <use x="63.623047" xlink:href="#DejaVuSans-35"/>
     </g>
    </g>
   </g>
   <g id="text_27">
    <g clip-path="url(#p6c28d3ce71)">
     <!-- 26 -->
     <g transform="translate(789.97914 294.7253)scale(0.12 -0.12)">
      <use xlink:href="#DejaVuSans-32"/>
      <use x="63.623047" xlink:href="#DejaVuSans-36"/>
     </g>
    </g>
   </g>
   <g id="text_28">
    <g clip-path="url(#p6c28d3ce71)">
     <!-- 27 -->
     <g transform="translate(578.472293 234.17466)scale(0.12 -0.12)">
      <use xlink:href="#DejaVuSans-32"/>
      <use x="63.623047" xlink:href="#DejaVuSans-37"/>
     </g>
    </g>
   </g>
   <g id="text_29">
    <g clip-path="url(#p6c28d3ce71)">
     <!-- 28 -->
     <g transform="translate(634.571408 215.425361)scale(0.12 -0.12)">
      <use xlink:href="#DejaVuSans-32"/>
      <use x="63.623047" xlink:href="#DejaVuSans-38"/>
     </g>
    </g>
   </g>
   <g id="text_30">
    <g clip-path="url(#p6c28d3ce71)">
     <!-- 29 -->
     <g transform="translate(738.750931 275.329096)scale(0.12 -0.12)">
      <use xlink:href="#DejaVuSans-32"/>
      <use x="63.623047" xlink:href="#DejaVuSans-39"/>
     </g>
    </g>
   </g>
   <g id="text_31">
    <g clip-path="url(#p6c28d3ce71)">
     <!-- 30 -->
     <g transform="translate(761.739883 192.940321)scale(0.12 -0.12)">
      <use xlink:href="#DejaVuSans-33"/>
      <use x="63.623047" xlink:href="#DejaVuSans-30"/>
     </g>
    </g>
   </g>
   <g id="text_32">
    <g clip-path="url(#p6c28d3ce71)">
     <!-- 31 -->
     <g transform="translate(559.645841 214.019077)scale(0.12 -0.12)">
      <use xlink:href="#DejaVuSans-33"/>
      <use x="63.623047" xlink:href="#DejaVuSans-31"/>
     </g>
    </g>
   </g>
   <g id="text_33">
    <g clip-path="url(#p6c28d3ce71)">
     <!-- 32 -->
     <g transform="translate(746.535409 237.517385)scale(0.12 -0.12)">
      <use xlink:href="#DejaVuSans-33"/>
      <use x="63.623047" xlink:href="#DejaVuSans-32"/>
     </g>
    </g>
   </g>
   <g id="text_34">
    <g clip-path="url(#p6c28d3ce71)">
     <!-- 33 -->
     <g transform="translate(729.375215 230.660696)scale(0.12 -0.12)">
      <use xlink:href="#DejaVuSans-33"/>
      <use x="63.623047" xlink:href="#DejaVuSans-33"/>
     </g>
    </g>
   </g>
  </g>
 </g>
 <defs>
  <clipPath id="p6c28d3ce71">
   <rect height="271.8" width="837" x="135" y="43.2"/>
  </clipPath>
 </defs>
</svg>
