<?xml version="1.0" encoding="UTF-8" standalone="no"?>
<!DOCTYPE svg PUBLIC "-//W3C//DTD SVG 1.1//EN"
 "http://www.w3.org/Graphics/SVG/1.1/DTD/svg11.dtd">
<!-- Generated by graphviz version 2.40.1 (20161225.0304)
 -->
<!-- Title: %3 Pages: 1 -->
<svg width="686pt" height="150pt"
 viewBox="0.00 0.00 685.86 149.85" xmlns="http://www.w3.org/2000/svg" xmlns:xlink="http://www.w3.org/1999/xlink">
<g id="graph0" class="graph" transform="scale(1 1) rotate(0) translate(4 145.8488)">
<title>%3</title>
<polygon fill="#ffffff" stroke="transparent" points="-4,4 -4,-145.8488 681.8592,-145.8488 681.8592,4 -4,4"/>
<!-- a -->
<g id="node1" class="node">
<title>a</title>
<polygon fill="#d3d3d3" stroke="#000000" points="164.3741,-93 110.3741,-93 110.3741,-57 164.3741,-57 164.3741,-93"/>
<text text-anchor="middle" x="137.3741" y="-70.8" font-family="Times,serif" font-size="14.00" fill="#000000">a</text>
</g>
<!-- P1 -->
<g id="node8" class="node">
<title>P1</title>
<ellipse fill="none" stroke="#000000" cx="219.821" cy="-104" rx="19.3939" ry="19.3939"/>
<text text-anchor="middle" x="219.821" y="-99.8" font-family="Times,serif" font-size="14.00" fill="#000000">P1</text>
</g>
<!-- a&#45;&gt;P1 -->
<g id="edge1" class="edge">
<title>a&#45;&gt;P1</title>
<path fill="none" stroke="#000000" d="M164.8277,-84.6566C173.4469,-87.6883 182.9735,-91.0392 191.642,-94.0883"/>
<polygon fill="#000000" stroke="#000000" points="190.7235,-97.4753 201.3183,-97.4918 193.0462,-90.8719 190.7235,-97.4753"/>
</g>
<!-- P5 -->
<g id="node12" class="node">
<title>P5</title>
<ellipse fill="none" stroke="#000000" cx="219.821" cy="-47" rx="19.3939" ry="19.3939"/>
<text text-anchor="middle" x="219.821" y="-42.8" font-family="Times,serif" font-size="14.00" fill="#000000">P5</text>
</g>
<!-- a&#45;&gt;P5 -->
<g id="edge2" class="edge">
<title>a&#45;&gt;P5</title>
<path fill="none" stroke="#000000" d="M164.8277,-65.6764C173.4469,-62.7492 182.9735,-59.5139 191.642,-56.5699"/>
<polygon fill="#000000" stroke="#000000" points="192.975,-59.8136 201.3183,-53.2837 190.7239,-53.1855 192.975,-59.8136"/>
</g>
<!-- b -->
<g id="node2" class="node">
<title>b</title>
<polygon fill="#d3d3d3" stroke="#000000" points="329.2678,-65 275.2678,-65 275.2678,-29 329.2678,-29 329.2678,-65"/>
<text text-anchor="middle" x="302.2678" y="-42.8" font-family="Times,serif" font-size="14.00" fill="#000000">b</text>
</g>
<!-- P2 -->
<g id="node9" class="node">
<title>P2</title>
<ellipse fill="none" stroke="#000000" cx="384.7147" cy="-47" rx="19.3939" ry="19.3939"/>
<text text-anchor="middle" x="384.7147" y="-42.8" font-family="Times,serif" font-size="14.00" fill="#000000">P2</text>
</g>
<!-- b&#45;&gt;P2 -->
<g id="edge3" class="edge">
<title>b&#45;&gt;P2</title>
<path fill="none" stroke="#000000" d="M329.7215,-47C337.8898,-47 346.873,-47 355.1686,-47"/>
<polygon fill="#000000" stroke="#000000" points="355.1956,-50.5001 365.1955,-47 355.1955,-43.5001 355.1956,-50.5001"/>
</g>
<!-- e -->
<g id="node3" class="node">
<title>e</title>
<polygon fill="#d3d3d3" stroke="#000000" points="329.2678,-122 275.2678,-122 275.2678,-86 329.2678,-86 329.2678,-122"/>
<text text-anchor="middle" x="302.2678" y="-99.8" font-family="Times,serif" font-size="14.00" fill="#000000">e</text>
</g>
<!-- P3 -->
<g id="node10" class="node">
<title>P3</title>
<ellipse fill="none" stroke="#000000" cx="384.7147" cy="-104" rx="19.3939" ry="19.3939"/>
<text text-anchor="middle" x="384.7147" y="-99.8" font-family="Times,serif" font-size="14.00" fill="#000000">P3</text>
</g>
<!-- e&#45;&gt;P3 -->
<g id="edge4" class="edge">
<title>e&#45;&gt;P3</title>
<path fill="none" stroke="#000000" d="M329.7215,-104C337.8898,-104 346.873,-104 355.1686,-104"/>
<polygon fill="#000000" stroke="#000000" points="355.1956,-107.5001 365.1955,-104 355.1955,-100.5001 355.1956,-107.5001"/>
</g>
<!-- f -->
<g id="node4" class="node">
<title>f</title>
<polygon fill="#d3d3d3" stroke="#000000" points="494.1616,-122 440.1616,-122 440.1616,-86 494.1616,-86 494.1616,-122"/>
<text text-anchor="middle" x="467.1616" y="-99.8" font-family="Times,serif" font-size="14.00" fill="#000000">f</text>
</g>
<!-- sink -->
<g id="node13" class="node">
<title>sink</title>
<ellipse fill="none" stroke="#0000ff" cx="559.0104" cy="-113" rx="24.7193" ry="24.7193"/>
<ellipse fill="none" stroke="#0000ff" cx="559.0104" cy="-113" rx="28.6984" ry="28.6984"/>
<text text-anchor="middle" x="559.0104" y="-108.8" font-family="Times,serif" font-size="14.00" fill="#000000">sink</text>
</g>
<!-- f&#45;&gt;sink -->
<g id="edge5" class="edge">
<title>f&#45;&gt;sink</title>
<path fill="none" stroke="#000000" d="M494.2225,-106.6516C502.3617,-107.4492 511.4576,-108.3404 520.201,-109.1972"/>
<polygon fill="#000000" stroke="#000000" points="519.9308,-112.6874 530.2245,-110.1793 520.6135,-105.7207 519.9308,-112.6874"/>
</g>
<!-- c -->
<g id="node5" class="node">
<title>c</title>
<polygon fill="#d3d3d3" stroke="#000000" points="494.1616,-65 440.1616,-65 440.1616,-29 494.1616,-29 494.1616,-65"/>
<text text-anchor="middle" x="467.1616" y="-42.8" font-family="Times,serif" font-size="14.00" fill="#000000">c</text>
</g>
<!-- P4 -->
<g id="node11" class="node">
<title>P4</title>
<ellipse fill="none" stroke="#000000" cx="559.0104" cy="-47" rx="19.3939" ry="19.3939"/>
<text text-anchor="middle" x="559.0104" y="-42.8" font-family="Times,serif" font-size="14.00" fill="#000000">P4</text>
</g>
<!-- c&#45;&gt;P4 -->
<g id="edge6" class="edge">
<title>c&#45;&gt;P4</title>
<path fill="none" stroke="#000000" d="M494.2225,-47C505.21,-47 517.9413,-47 529.1947,-47"/>
<polygon fill="#000000" stroke="#000000" points="529.4262,-50.5001 539.4262,-47 529.4262,-43.5001 529.4262,-50.5001"/>
</g>
<!-- d -->
<g id="node6" class="node">
<title>d</title>
<polygon fill="#d3d3d3" stroke="#000000" points="677.8592,-41 623.8592,-41 623.8592,-5 677.8592,-5 677.8592,-41"/>
<text text-anchor="middle" x="650.8592" y="-18.8" font-family="Times,serif" font-size="14.00" fill="#000000">d</text>
</g>
<!-- d&#45;&gt;P5 -->
<g id="edge7" class="edge">
<title>d&#45;&gt;P5</title>
<path fill="none" stroke="#000000" d="M623.6049,-17.4323C587.8524,-10.6254 523.0868,0 467.1616,0 384.7147,0 384.7147,0 384.7147,0 335.2662,0 322.2534,-4.5884 275.2678,-20 265.301,-23.2692 254.8422,-27.9904 245.7278,-32.5735"/>
<polygon fill="#000000" stroke="#000000" points="244.0415,-29.5056 236.7932,-37.233 247.2783,-35.7123 244.0415,-29.5056"/>
</g>
<!-- source -->
<g id="node7" class="node">
<title>source</title>
<ellipse fill="none" stroke="#ff0000" cx="37.1871" cy="-75" rx="33.3548" ry="33.3548"/>
<ellipse fill="none" stroke="#ff0000" cx="37.1871" cy="-75" rx="37.3751" ry="37.3751"/>
<text text-anchor="middle" x="37.1871" y="-70.8" font-family="Times,serif" font-size="14.00" fill="#000000">source</text>
</g>
<!-- source&#45;&gt;a -->
<g id="edge8" class="edge">
<title>source&#45;&gt;a</title>
<path fill="none" stroke="#000000" d="M74.493,-75C82.8642,-75 91.746,-75 100.1152,-75"/>
<polygon fill="#000000" stroke="#000000" points="100.3652,-78.5001 110.3652,-75 100.3651,-71.5001 100.3652,-78.5001"/>
</g>
<!-- P1&#45;&gt;e -->
<g id="edge9" class="edge">
<title>P1&#45;&gt;e</title>
<path fill="none" stroke="#000000" d="M239.3597,-104C247.0263,-104 256.0917,-104 264.9182,-104"/>
<polygon fill="#000000" stroke="#000000" points="265.0718,-107.5001 275.0717,-104 265.0717,-100.5001 265.0718,-107.5001"/>
</g>
<!-- P2&#45;&gt;f -->
<g id="edge10" class="edge">
<title>P2&#45;&gt;f</title>
<path fill="none" stroke="#000000" d="M401.0036,-58.2614C409.9648,-64.4567 421.444,-72.393 432.3166,-79.9098"/>
<polygon fill="#000000" stroke="#000000" points="430.6304,-82.999 440.8464,-85.8069 434.6112,-77.2411 430.6304,-82.999"/>
</g>
<!-- P2&#45;&gt;c -->
<g id="edge11" class="edge">
<title>P2&#45;&gt;c</title>
<path fill="none" stroke="#000000" d="M404.2535,-47C411.92,-47 420.9855,-47 429.8119,-47"/>
<polygon fill="#000000" stroke="#000000" points="429.9655,-50.5001 439.9655,-47 429.9654,-43.5001 429.9655,-50.5001"/>
</g>
<!-- P3&#45;&gt;f -->
<g id="edge12" class="edge">
<title>P3&#45;&gt;f</title>
<path fill="none" stroke="#000000" d="M404.2535,-104C411.92,-104 420.9855,-104 429.8119,-104"/>
<polygon fill="#000000" stroke="#000000" points="429.9655,-107.5001 439.9655,-104 429.9654,-100.5001 429.9655,-107.5001"/>
</g>
<!-- P4&#45;&gt;d -->
<g id="edge13" class="edge">
<title>P4&#45;&gt;d</title>
<path fill="none" stroke="#000000" d="M578.0415,-42.0272C588.3863,-39.3241 601.5421,-35.8865 613.8176,-32.6789"/>
<polygon fill="#000000" stroke="#000000" points="615.0506,-35.9743 623.8409,-30.0599 613.2809,-29.2017 615.0506,-35.9743"/>
</g>
<!-- P5&#45;&gt;b -->
<g id="edge14" class="edge">
<title>P5&#45;&gt;b</title>
<path fill="none" stroke="#000000" d="M239.3597,-47C247.0263,-47 256.0917,-47 264.9182,-47"/>
<polygon fill="#000000" stroke="#000000" points="265.0718,-50.5001 275.0717,-47 265.0717,-43.5001 265.0718,-50.5001"/>
</g>
</g>
</svg>
