<?xml version="1.0" encoding="utf-8" standalone="no"?>
<!DOCTYPE svg PUBLIC "-//W3C//DTD SVG 1.1//EN"
  "http://www.w3.org/Graphics/SVG/1.1/DTD/svg11.dtd">
<!-- Created with matplotlib (http://matplotlib.org/) -->
<svg height="576pt" version="1.1" viewBox="0 0 1152 576" width="1152pt" xmlns="http://www.w3.org/2000/svg" xmlns:xlink="http://www.w3.org/1999/xlink">
 <defs>
  <style type="text/css">
*{stroke-linecap:butt;stroke-linejoin:round;}
  </style>
 </defs>
 <g id="figure_1">
  <g id="patch_1">
   <path d="M 0 576 
L 1152 576 
L 1152 0 
L 0 0 
z
" style="fill:#ffffff;"/>
  </g>
  <g id="axes_1">
   <g id="LineCollection_1">
    <path clip-path="url(#p872ed70c17)" d="M 928.581818 286.56 
L 252.218182 246.824581 
" style="fill:none;stroke:#0f0f0f;stroke-dasharray:18.5,8;stroke-dashoffset:0;stroke-width:5;"/>
    <path clip-path="url(#p872ed70c17)" d="M 899.021473 208.82576 
L 415.705286 121.047926 
" style="fill:none;stroke:#9e9e9e;stroke-dasharray:18.5,8;stroke-dashoffset:0;stroke-width:5;"/>
    <path clip-path="url(#p872ed70c17)" d="M 815.45171 144.532468 
L 550.923999 96.49007 
" style="fill:none;stroke:#636363;stroke-dasharray:18.5,8;stroke-dashoffset:0;stroke-width:5;"/>
    <path clip-path="url(#p872ed70c17)" d="M 815.45171 144.532468 
L 252.218202 326.295453 
" style="fill:none;stroke:#717171;stroke-dasharray:18.5,8;stroke-dashoffset:0;stroke-width:5;"/>
    <path clip-path="url(#p872ed70c17)" d="M 815.45171 144.532468 
L 550.924057 476.62993 
" style="fill:none;stroke:#ffffff;stroke-dasharray:18.5,8;stroke-dashoffset:0;stroke-width:5;"/>
    <path clip-path="url(#p872ed70c17)" d="M 692.322508 104.797037 
L 252.218182 246.824581 
" style="fill:none;stroke:#d6d6d6;stroke-dasharray:18.5,8;stroke-dashoffset:0;stroke-width:5;"/>
    <path clip-path="url(#p872ed70c17)" d="M 692.322508 104.797037 
L 310.046952 398.895707 
" style="fill:none;stroke:#8f8f8f;stroke-dasharray:18.5,8;stroke-dashoffset:0;stroke-width:5;"/>
    <path clip-path="url(#p872ed70c17)" d="M 550.923999 96.49007 
L 415.705286 121.047926 
" style="fill:none;stroke:#cbcbcb;stroke-dasharray:18.5,8;stroke-dashoffset:0;stroke-width:5;"/>
    <path clip-path="url(#p872ed70c17)" d="M 550.923999 96.49007 
L 252.218202 326.295453 
" style="fill:none;stroke:#7f7f7f;stroke-dasharray:18.5,8;stroke-dashoffset:0;stroke-width:5;"/>
    <path clip-path="url(#p872ed70c17)" d="M 550.923999 96.49007 
L 415.705337 452.072085 
" style="fill:none;stroke:#cbcbcb;stroke-dasharray:18.5,8;stroke-dashoffset:0;stroke-width:5;"/>
    <path clip-path="url(#p872ed70c17)" d="M 415.705286 121.047926 
L 815.451771 428.587509 
" style="fill:none;stroke:#0f0f0f;stroke-dasharray:18.5,8;stroke-dashoffset:0;stroke-width:5;"/>
    <path clip-path="url(#p872ed70c17)" d="M 310.046911 174.224327 
L 692.322559 468.322951 
" style="fill:none;stroke:#d6d6d6;stroke-dasharray:18.5,8;stroke-dashoffset:0;stroke-width:5;"/>
    <path clip-path="url(#p872ed70c17)" d="M 252.218182 246.824581 
L 550.924057 476.62993 
" style="fill:none;stroke:#7f7f7f;stroke-dasharray:18.5,8;stroke-dashoffset:0;stroke-width:5;"/>
    <path clip-path="url(#p872ed70c17)" d="M 252.218182 246.824581 
L 692.322559 468.322951 
" style="fill:none;stroke:#717171;stroke-dasharray:18.5,8;stroke-dashoffset:0;stroke-width:5;"/>
    <path clip-path="url(#p872ed70c17)" d="M 252.218202 326.295453 
L 815.451771 428.587509 
" style="fill:none;stroke:#555555;stroke-dasharray:18.5,8;stroke-dashoffset:0;stroke-width:5;"/>
    <path clip-path="url(#p872ed70c17)" d="M 310.046952 398.895707 
L 899.021513 364.294211 
" style="fill:none;stroke:#000000;stroke-dasharray:18.5,8;stroke-dashoffset:0;stroke-width:5;"/>
    <path clip-path="url(#p872ed70c17)" d="M 415.705337 452.072085 
L 692.322559 468.322951 
" style="fill:none;stroke:#000000;stroke-dasharray:18.5,8;stroke-dashoffset:0;stroke-width:5;"/>
    <path clip-path="url(#p872ed70c17)" d="M 550.924057 476.62993 
L 815.451771 428.587509 
" style="fill:none;stroke:#636363;stroke-dasharray:18.5,8;stroke-dashoffset:0;stroke-width:5;"/>
   </g>
   <g id="PathCollection_1">
    <defs>
     <path d="M 0 -27.386128 
L -23.717082 -13.693064 
L -23.717082 13.693064 
L -0 27.386128 
L 23.717082 13.693064 
L 23.717082 -13.693064 
z
" id="C0_0_dd89fccaf5"/>
    </defs>
    <g clip-path="url(#p872ed70c17)">
     <use style="fill:#cddff1;fill-opacity:0.9;stroke:#cddff1;stroke-opacity:0.9;" x="928.581818" xlink:href="#C0_0_dd89fccaf5" y="286.56"/>
    </g>
    <g clip-path="url(#p872ed70c17)">
     <use style="fill:#4493c7;fill-opacity:0.9;stroke:#4493c7;stroke-opacity:0.9;" x="899.021473" xlink:href="#C0_0_dd89fccaf5" y="208.82576"/>
    </g>
    <g clip-path="url(#p872ed70c17)">
     <use style="fill:#ddeaf7;fill-opacity:0.9;stroke:#ddeaf7;stroke-opacity:0.9;" x="815.45171" xlink:href="#C0_0_dd89fccaf5" y="144.532468"/>
    </g>
    <g clip-path="url(#p872ed70c17)">
     <use style="fill:#f7fbff;fill-opacity:0.9;stroke:#f7fbff;stroke-opacity:0.9;" x="692.322508" xlink:href="#C0_0_dd89fccaf5" y="104.797037"/>
    </g>
    <g clip-path="url(#p872ed70c17)">
     <use style="fill:#b2d2e8;fill-opacity:0.9;stroke:#b2d2e8;stroke-opacity:0.9;" x="550.923999" xlink:href="#C0_0_dd89fccaf5" y="96.49007"/>
    </g>
    <g clip-path="url(#p872ed70c17)">
     <use style="fill:#084184;fill-opacity:0.9;stroke:#084184;stroke-opacity:0.9;" x="415.705286" xlink:href="#C0_0_dd89fccaf5" y="121.047926"/>
    </g>
    <g clip-path="url(#p872ed70c17)">
     <use style="fill:#e8f1fa;fill-opacity:0.9;stroke:#e8f1fa;stroke-opacity:0.9;" x="310.046911" xlink:href="#C0_0_dd89fccaf5" y="174.224327"/>
    </g>
    <g clip-path="url(#p872ed70c17)">
     <use style="fill:#084488;fill-opacity:0.9;stroke:#084488;stroke-opacity:0.9;" x="252.218182" xlink:href="#C0_0_dd89fccaf5" y="246.824581"/>
    </g>
    <g clip-path="url(#p872ed70c17)">
     <use style="fill:#dfecf7;fill-opacity:0.9;stroke:#dfecf7;stroke-opacity:0.9;" x="252.218202" xlink:href="#C0_0_dd89fccaf5" y="326.295453"/>
    </g>
    <g clip-path="url(#p872ed70c17)">
     <use style="fill:#08306b;fill-opacity:0.9;stroke:#08306b;stroke-opacity:0.9;" x="310.046952" xlink:href="#C0_0_dd89fccaf5" y="398.895707"/>
    </g>
    <g clip-path="url(#p872ed70c17)">
     <use style="fill:#d3e3f3;fill-opacity:0.9;stroke:#d3e3f3;stroke-opacity:0.9;" x="415.705337" xlink:href="#C0_0_dd89fccaf5" y="452.072085"/>
    </g>
    <g clip-path="url(#p872ed70c17)">
     <use style="fill:#09529d;fill-opacity:0.9;stroke:#09529d;stroke-opacity:0.9;" x="550.924057" xlink:href="#C0_0_dd89fccaf5" y="476.62993"/>
    </g>
    <g clip-path="url(#p872ed70c17)">
     <use style="fill:#08326e;fill-opacity:0.9;stroke:#08326e;stroke-opacity:0.9;" x="692.322559" xlink:href="#C0_0_dd89fccaf5" y="468.322951"/>
    </g>
    <g clip-path="url(#p872ed70c17)">
     <use style="fill:#4896c8;fill-opacity:0.9;stroke:#4896c8;stroke-opacity:0.9;" x="815.451771" xlink:href="#C0_0_dd89fccaf5" y="428.587509"/>
    </g>
    <g clip-path="url(#p872ed70c17)">
     <use style="fill:#e3eef9;fill-opacity:0.9;stroke:#e3eef9;stroke-opacity:0.9;" x="899.021513" xlink:href="#C0_0_dd89fccaf5" y="364.294211"/>
    </g>
   </g>
   <g id="text_1">
    <g clip-path="url(#p872ed70c17)">
     <!-- node0 -->
     <defs>
      <path d="M 63.375 33.296875 
L 63.375 0 
L 45.796875 0 
L 45.796875 5.421875 
L 45.796875 25.484375 
Q 45.796875 32.5625 45.484375 35.25 
Q 45.171875 37.9375 44.390625 39.203125 
Q 43.359375 40.921875 41.59375 41.875 
Q 39.84375 42.828125 37.59375 42.828125 
Q 32.125 42.828125 29 38.59375 
Q 25.875 34.375 25.875 26.90625 
L 25.875 0 
L 8.40625 0 
L 8.40625 54.6875 
L 25.875 54.6875 
L 25.875 46.6875 
Q 29.828125 51.46875 34.265625 53.734375 
Q 38.71875 56 44.09375 56 
Q 53.5625 56 58.46875 50.1875 
Q 63.375 44.390625 63.375 33.296875 
z
" id="DejaVuSans-Bold-6e"/>
      <path d="M 34.421875 43.5 
Q 28.609375 43.5 25.5625 39.328125 
Q 22.515625 35.15625 22.515625 27.296875 
Q 22.515625 19.4375 25.5625 15.25 
Q 28.609375 11.078125 34.421875 11.078125 
Q 40.140625 11.078125 43.15625 15.25 
Q 46.1875 19.4375 46.1875 27.296875 
Q 46.1875 35.15625 43.15625 39.328125 
Q 40.140625 43.5 34.421875 43.5 
z
M 34.421875 56 
Q 48.53125 56 56.46875 48.375 
Q 64.40625 40.765625 64.40625 27.296875 
Q 64.40625 13.8125 56.46875 6.1875 
Q 48.53125 -1.421875 34.421875 -1.421875 
Q 20.265625 -1.421875 12.28125 6.1875 
Q 4.296875 13.8125 4.296875 27.296875 
Q 4.296875 40.765625 12.28125 48.375 
Q 20.265625 56 34.421875 56 
z
" id="DejaVuSans-Bold-6f"/>
      <path d="M 45.609375 46.6875 
L 45.609375 75.984375 
L 63.1875 75.984375 
L 63.1875 0 
L 45.609375 0 
L 45.609375 7.90625 
Q 42 3.078125 37.640625 0.828125 
Q 33.296875 -1.421875 27.59375 -1.421875 
Q 17.484375 -1.421875 10.984375 6.609375 
Q 4.5 14.65625 4.5 27.296875 
Q 4.5 39.9375 10.984375 47.96875 
Q 17.484375 56 27.59375 56 
Q 33.25 56 37.625 53.734375 
Q 42 51.46875 45.609375 46.6875 
z
M 34.078125 11.28125 
Q 39.703125 11.28125 42.65625 15.375 
Q 45.609375 19.484375 45.609375 27.296875 
Q 45.609375 35.109375 42.65625 39.203125 
Q 39.703125 43.3125 34.078125 43.3125 
Q 28.515625 43.3125 25.5625 39.203125 
Q 22.609375 35.109375 22.609375 27.296875 
Q 22.609375 19.484375 25.5625 15.375 
Q 28.515625 11.28125 34.078125 11.28125 
z
" id="DejaVuSans-Bold-64"/>
      <path d="M 62.984375 27.484375 
L 62.984375 22.515625 
L 22.125 22.515625 
Q 22.75 16.359375 26.5625 13.28125 
Q 30.375 10.203125 37.203125 10.203125 
Q 42.71875 10.203125 48.5 11.84375 
Q 54.296875 13.484375 60.40625 16.796875 
L 60.40625 3.328125 
Q 54.203125 0.984375 48 -0.21875 
Q 41.796875 -1.421875 35.59375 -1.421875 
Q 20.75 -1.421875 12.515625 6.125 
Q 4.296875 13.671875 4.296875 27.296875 
Q 4.296875 40.671875 12.375 48.328125 
Q 20.453125 56 34.625 56 
Q 47.515625 56 55.25 48.234375 
Q 62.984375 40.484375 62.984375 27.484375 
z
M 45.015625 33.296875 
Q 45.015625 38.28125 42.109375 41.328125 
Q 39.203125 44.390625 34.515625 44.390625 
Q 29.4375 44.390625 26.265625 41.53125 
Q 23.09375 38.671875 22.3125 33.296875 
z
" id="DejaVuSans-Bold-65"/>
      <path d="M 46 36.53125 
Q 46 50.203125 43.4375 55.78125 
Q 40.875 61.375 34.8125 61.375 
Q 28.765625 61.375 26.171875 55.78125 
Q 23.578125 50.203125 23.578125 36.53125 
Q 23.578125 22.703125 26.171875 17.03125 
Q 28.765625 11.375 34.8125 11.375 
Q 40.828125 11.375 43.40625 17.03125 
Q 46 22.703125 46 36.53125 
z
M 64.796875 36.375 
Q 64.796875 18.265625 56.984375 8.421875 
Q 49.171875 -1.421875 34.8125 -1.421875 
Q 20.40625 -1.421875 12.59375 8.421875 
Q 4.78125 18.265625 4.78125 36.375 
Q 4.78125 54.546875 12.59375 64.375 
Q 20.40625 74.21875 34.8125 74.21875 
Q 49.171875 74.21875 56.984375 64.375 
Q 64.796875 54.546875 64.796875 36.375 
z
" id="DejaVuSans-Bold-30"/>
     </defs>
     <g transform="translate(911.138068 289.319375)scale(0.1 -0.1)">
      <use xlink:href="#DejaVuSans-Bold-6e"/>
      <use x="71.191406" xlink:href="#DejaVuSans-Bold-6f"/>
      <use x="139.892578" xlink:href="#DejaVuSans-Bold-64"/>
      <use x="211.474609" xlink:href="#DejaVuSans-Bold-65"/>
      <use x="279.296875" xlink:href="#DejaVuSans-Bold-30"/>
     </g>
    </g>
   </g>
   <g id="text_2">
    <g clip-path="url(#p872ed70c17)">
     <!-- node1 -->
     <defs>
      <path d="M 11.71875 12.984375 
L 28.328125 12.984375 
L 28.328125 60.109375 
L 11.28125 56.59375 
L 11.28125 69.390625 
L 28.21875 72.90625 
L 46.09375 72.90625 
L 46.09375 12.984375 
L 62.703125 12.984375 
L 62.703125 0 
L 11.71875 0 
z
" id="DejaVuSans-Bold-31"/>
     </defs>
     <g transform="translate(881.577723 211.585135)scale(0.1 -0.1)">
      <use xlink:href="#DejaVuSans-Bold-6e"/>
      <use x="71.191406" xlink:href="#DejaVuSans-Bold-6f"/>
      <use x="139.892578" xlink:href="#DejaVuSans-Bold-64"/>
      <use x="211.474609" xlink:href="#DejaVuSans-Bold-65"/>
      <use x="279.296875" xlink:href="#DejaVuSans-Bold-31"/>
     </g>
    </g>
   </g>
   <g id="text_3">
    <g clip-path="url(#p872ed70c17)">
     <!-- node2 -->
     <defs>
      <path d="M 28.8125 13.8125 
L 60.890625 13.8125 
L 60.890625 0 
L 7.90625 0 
L 7.90625 13.8125 
L 34.515625 37.3125 
Q 38.09375 40.53125 39.796875 43.609375 
Q 41.5 46.6875 41.5 50 
Q 41.5 55.125 38.0625 58.25 
Q 34.625 61.375 28.90625 61.375 
Q 24.515625 61.375 19.28125 59.5 
Q 14.0625 57.625 8.109375 53.90625 
L 8.109375 69.921875 
Q 14.453125 72.015625 20.65625 73.109375 
Q 26.859375 74.21875 32.8125 74.21875 
Q 45.90625 74.21875 53.15625 68.453125 
Q 60.40625 62.703125 60.40625 52.390625 
Q 60.40625 46.4375 57.328125 41.28125 
Q 54.25 36.140625 44.390625 27.484375 
z
" id="DejaVuSans-Bold-32"/>
     </defs>
     <g transform="translate(798.00796 147.291843)scale(0.1 -0.1)">
      <use xlink:href="#DejaVuSans-Bold-6e"/>
      <use x="71.191406" xlink:href="#DejaVuSans-Bold-6f"/>
      <use x="139.892578" xlink:href="#DejaVuSans-Bold-64"/>
      <use x="211.474609" xlink:href="#DejaVuSans-Bold-65"/>
      <use x="279.296875" xlink:href="#DejaVuSans-Bold-32"/>
     </g>
    </g>
   </g>
   <g id="text_4">
    <g clip-path="url(#p872ed70c17)">
     <!-- node3 -->
     <defs>
      <path d="M 46.578125 39.3125 
Q 53.953125 37.40625 57.78125 32.6875 
Q 61.625 27.984375 61.625 20.703125 
Q 61.625 9.859375 53.3125 4.21875 
Q 45.015625 -1.421875 29.109375 -1.421875 
Q 23.484375 -1.421875 17.84375 -0.515625 
Q 12.203125 0.390625 6.6875 2.203125 
L 6.6875 16.703125 
Q 11.96875 14.0625 17.15625 12.71875 
Q 22.359375 11.375 27.390625 11.375 
Q 34.859375 11.375 38.84375 13.953125 
Q 42.828125 16.546875 42.828125 21.390625 
Q 42.828125 26.375 38.75 28.9375 
Q 34.671875 31.5 26.703125 31.5 
L 19.1875 31.5 
L 19.1875 43.609375 
L 27.09375 43.609375 
Q 34.1875 43.609375 37.640625 45.828125 
Q 41.109375 48.046875 41.109375 52.59375 
Q 41.109375 56.78125 37.734375 59.078125 
Q 34.375 61.375 28.21875 61.375 
Q 23.6875 61.375 19.046875 60.34375 
Q 14.40625 59.328125 9.8125 57.328125 
L 9.8125 71.09375 
Q 15.375 72.65625 20.84375 73.4375 
Q 26.3125 74.21875 31.59375 74.21875 
Q 45.796875 74.21875 52.84375 69.546875 
Q 59.90625 64.890625 59.90625 55.515625 
Q 59.90625 49.125 56.53125 45.046875 
Q 53.171875 40.96875 46.578125 39.3125 
z
" id="DejaVuSans-Bold-33"/>
     </defs>
     <g transform="translate(674.878758 107.556412)scale(0.1 -0.1)">
      <use xlink:href="#DejaVuSans-Bold-6e"/>
      <use x="71.191406" xlink:href="#DejaVuSans-Bold-6f"/>
      <use x="139.892578" xlink:href="#DejaVuSans-Bold-64"/>
      <use x="211.474609" xlink:href="#DejaVuSans-Bold-65"/>
      <use x="279.296875" xlink:href="#DejaVuSans-Bold-33"/>
     </g>
    </g>
   </g>
   <g id="text_5">
    <g clip-path="url(#p872ed70c17)">
     <!-- node4 -->
     <defs>
      <path d="M 36.8125 57.421875 
L 16.21875 26.90625 
L 36.8125 26.90625 
z
M 33.6875 72.90625 
L 54.59375 72.90625 
L 54.59375 26.90625 
L 64.984375 26.90625 
L 64.984375 13.28125 
L 54.59375 13.28125 
L 54.59375 0 
L 36.8125 0 
L 36.8125 13.28125 
L 4.5 13.28125 
L 4.5 29.390625 
z
" id="DejaVuSans-Bold-34"/>
     </defs>
     <g transform="translate(533.480249 99.249445)scale(0.1 -0.1)">
      <use xlink:href="#DejaVuSans-Bold-6e"/>
      <use x="71.191406" xlink:href="#DejaVuSans-Bold-6f"/>
      <use x="139.892578" xlink:href="#DejaVuSans-Bold-64"/>
      <use x="211.474609" xlink:href="#DejaVuSans-Bold-65"/>
      <use x="279.296875" xlink:href="#DejaVuSans-Bold-34"/>
     </g>
    </g>
   </g>
   <g id="text_6">
    <g clip-path="url(#p872ed70c17)">
     <!-- node5 -->
     <defs>
      <path d="M 10.59375 72.90625 
L 57.328125 72.90625 
L 57.328125 59.078125 
L 25.59375 59.078125 
L 25.59375 47.796875 
Q 27.734375 48.390625 29.90625 48.703125 
Q 32.078125 49.03125 34.421875 49.03125 
Q 47.75 49.03125 55.171875 42.359375 
Q 62.59375 35.6875 62.59375 23.78125 
Q 62.59375 11.96875 54.515625 5.265625 
Q 46.4375 -1.421875 32.078125 -1.421875 
Q 25.875 -1.421875 19.796875 -0.21875 
Q 13.71875 0.984375 7.71875 3.421875 
L 7.71875 18.21875 
Q 13.671875 14.796875 19.015625 13.078125 
Q 24.359375 11.375 29.109375 11.375 
Q 35.9375 11.375 39.859375 14.71875 
Q 43.796875 18.0625 43.796875 23.78125 
Q 43.796875 29.546875 39.859375 32.859375 
Q 35.9375 36.1875 29.109375 36.1875 
Q 25.046875 36.1875 20.453125 35.125 
Q 15.875 34.078125 10.59375 31.890625 
z
" id="DejaVuSans-Bold-35"/>
     </defs>
     <g transform="translate(398.261536 123.807301)scale(0.1 -0.1)">
      <use xlink:href="#DejaVuSans-Bold-6e"/>
      <use x="71.191406" xlink:href="#DejaVuSans-Bold-6f"/>
      <use x="139.892578" xlink:href="#DejaVuSans-Bold-64"/>
      <use x="211.474609" xlink:href="#DejaVuSans-Bold-65"/>
      <use x="279.296875" xlink:href="#DejaVuSans-Bold-35"/>
     </g>
    </g>
   </g>
   <g id="text_7">
    <g clip-path="url(#p872ed70c17)">
     <!-- node6 -->
     <defs>
      <path d="M 36.1875 35.984375 
Q 31.25 35.984375 28.78125 32.78125 
Q 26.3125 29.59375 26.3125 23.1875 
Q 26.3125 16.796875 28.78125 13.59375 
Q 31.25 10.40625 36.1875 10.40625 
Q 41.15625 10.40625 43.625 13.59375 
Q 46.09375 16.796875 46.09375 23.1875 
Q 46.09375 29.59375 43.625 32.78125 
Q 41.15625 35.984375 36.1875 35.984375 
z
M 59.421875 71 
L 59.421875 57.515625 
Q 54.78125 59.71875 50.671875 60.765625 
Q 46.578125 61.8125 42.671875 61.8125 
Q 34.28125 61.8125 29.59375 57.140625 
Q 24.90625 52.484375 24.125 43.3125 
Q 27.34375 45.703125 31.09375 46.890625 
Q 34.859375 48.09375 39.3125 48.09375 
Q 50.484375 48.09375 57.34375 41.546875 
Q 64.203125 35.015625 64.203125 24.421875 
Q 64.203125 12.703125 56.53125 5.640625 
Q 48.875 -1.421875 35.984375 -1.421875 
Q 21.78125 -1.421875 13.984375 8.171875 
Q 6.203125 17.78125 6.203125 35.40625 
Q 6.203125 53.46875 15.3125 63.796875 
Q 24.421875 74.125 40.28125 74.125 
Q 45.3125 74.125 50.046875 73.34375 
Q 54.78125 72.5625 59.421875 71 
z
" id="DejaVuSans-Bold-36"/>
     </defs>
     <g transform="translate(292.603161 176.983702)scale(0.1 -0.1)">
      <use xlink:href="#DejaVuSans-Bold-6e"/>
      <use x="71.191406" xlink:href="#DejaVuSans-Bold-6f"/>
      <use x="139.892578" xlink:href="#DejaVuSans-Bold-64"/>
      <use x="211.474609" xlink:href="#DejaVuSans-Bold-65"/>
      <use x="279.296875" xlink:href="#DejaVuSans-Bold-36"/>
     </g>
    </g>
   </g>
   <g id="text_8">
    <g clip-path="url(#p872ed70c17)">
     <!-- node7 -->
     <defs>
      <path d="M 6.6875 72.90625 
L 61.625 72.90625 
L 61.625 62.3125 
L 33.203125 0 
L 14.890625 0 
L 41.796875 59.078125 
L 6.6875 59.078125 
z
" id="DejaVuSans-Bold-37"/>
     </defs>
     <g transform="translate(234.774432 249.583956)scale(0.1 -0.1)">
      <use xlink:href="#DejaVuSans-Bold-6e"/>
      <use x="71.191406" xlink:href="#DejaVuSans-Bold-6f"/>
      <use x="139.892578" xlink:href="#DejaVuSans-Bold-64"/>
      <use x="211.474609" xlink:href="#DejaVuSans-Bold-65"/>
      <use x="279.296875" xlink:href="#DejaVuSans-Bold-37"/>
     </g>
    </g>
   </g>
   <g id="text_9">
    <g clip-path="url(#p872ed70c17)">
     <!-- node8 -->
     <defs>
      <path d="M 34.8125 32.625 
Q 29.546875 32.625 26.703125 29.734375 
Q 23.875 26.859375 23.875 21.484375 
Q 23.875 16.109375 26.703125 13.25 
Q 29.546875 10.40625 34.8125 10.40625 
Q 40.046875 10.40625 42.828125 13.25 
Q 45.609375 16.109375 45.609375 21.484375 
Q 45.609375 26.90625 42.828125 29.765625 
Q 40.046875 32.625 34.8125 32.625 
z
M 21.09375 38.8125 
Q 14.453125 40.828125 11.078125 44.96875 
Q 7.71875 49.125 7.71875 55.328125 
Q 7.71875 64.546875 14.59375 69.375 
Q 21.484375 74.21875 34.8125 74.21875 
Q 48.046875 74.21875 54.921875 69.40625 
Q 61.8125 64.59375 61.8125 55.328125 
Q 61.8125 49.125 58.421875 44.96875 
Q 55.03125 40.828125 48.390625 38.8125 
Q 55.8125 36.765625 59.59375 32.15625 
Q 63.375 27.546875 63.375 20.515625 
Q 63.375 9.671875 56.171875 4.125 
Q 48.96875 -1.421875 34.8125 -1.421875 
Q 20.609375 -1.421875 13.359375 4.125 
Q 6.109375 9.671875 6.109375 20.515625 
Q 6.109375 27.546875 9.890625 32.15625 
Q 13.671875 36.765625 21.09375 38.8125 
z
M 25.484375 53.421875 
Q 25.484375 49.078125 27.90625 46.734375 
Q 30.328125 44.390625 34.8125 44.390625 
Q 39.203125 44.390625 41.59375 46.734375 
Q 44 49.078125 44 53.421875 
Q 44 57.765625 41.59375 60.078125 
Q 39.203125 62.40625 34.8125 62.40625 
Q 30.328125 62.40625 27.90625 60.0625 
Q 25.484375 57.71875 25.484375 53.421875 
z
" id="DejaVuSans-Bold-38"/>
     </defs>
     <g transform="translate(234.774452 329.054828)scale(0.1 -0.1)">
      <use xlink:href="#DejaVuSans-Bold-6e"/>
      <use x="71.191406" xlink:href="#DejaVuSans-Bold-6f"/>
      <use x="139.892578" xlink:href="#DejaVuSans-Bold-64"/>
      <use x="211.474609" xlink:href="#DejaVuSans-Bold-65"/>
      <use x="279.296875" xlink:href="#DejaVuSans-Bold-38"/>
     </g>
    </g>
   </g>
   <g id="text_10">
    <g clip-path="url(#p872ed70c17)">
     <!-- node9 -->
     <defs>
      <path d="M 10.015625 1.609375 
L 10.015625 15.09375 
Q 14.5 12.984375 18.59375 11.9375 
Q 22.703125 10.890625 26.703125 10.890625 
Q 35.109375 10.890625 39.796875 15.546875 
Q 44.484375 20.21875 45.3125 29.390625 
Q 42 26.953125 38.234375 25.734375 
Q 34.46875 24.515625 30.078125 24.515625 
Q 18.890625 24.515625 12.03125 31.03125 
Q 5.171875 37.546875 5.171875 48.1875 
Q 5.171875 59.96875 12.8125 67.046875 
Q 20.453125 74.125 33.296875 74.125 
Q 47.5625 74.125 55.375 64.5 
Q 63.1875 54.890625 63.1875 37.3125 
Q 63.1875 19.234375 54.046875 8.90625 
Q 44.921875 -1.421875 29 -1.421875 
Q 23.875 -1.421875 19.1875 -0.65625 
Q 14.5 0.09375 10.015625 1.609375 
z
M 33.203125 36.71875 
Q 38.140625 36.71875 40.625 39.90625 
Q 43.109375 43.109375 43.109375 49.515625 
Q 43.109375 55.859375 40.625 59.078125 
Q 38.140625 62.3125 33.203125 62.3125 
Q 28.265625 62.3125 25.78125 59.078125 
Q 23.296875 55.859375 23.296875 49.515625 
Q 23.296875 43.109375 25.78125 39.90625 
Q 28.265625 36.71875 33.203125 36.71875 
z
" id="DejaVuSans-Bold-39"/>
     </defs>
     <g transform="translate(292.603202 401.655082)scale(0.1 -0.1)">
      <use xlink:href="#DejaVuSans-Bold-6e"/>
      <use x="71.191406" xlink:href="#DejaVuSans-Bold-6f"/>
      <use x="139.892578" xlink:href="#DejaVuSans-Bold-64"/>
      <use x="211.474609" xlink:href="#DejaVuSans-Bold-65"/>
      <use x="279.296875" xlink:href="#DejaVuSans-Bold-39"/>
     </g>
    </g>
   </g>
   <g id="text_11">
    <g clip-path="url(#p872ed70c17)">
     <!-- node10 -->
     <g transform="translate(394.782681 454.83146)scale(0.1 -0.1)">
      <use xlink:href="#DejaVuSans-Bold-6e"/>
      <use x="71.191406" xlink:href="#DejaVuSans-Bold-6f"/>
      <use x="139.892578" xlink:href="#DejaVuSans-Bold-64"/>
      <use x="211.474609" xlink:href="#DejaVuSans-Bold-65"/>
      <use x="279.296875" xlink:href="#DejaVuSans-Bold-31"/>
      <use x="348.876953" xlink:href="#DejaVuSans-Bold-30"/>
     </g>
    </g>
   </g>
   <g id="text_12">
    <g clip-path="url(#p872ed70c17)">
     <!-- node11 -->
     <g transform="translate(530.001401 479.389305)scale(0.1 -0.1)">
      <use xlink:href="#DejaVuSans-Bold-6e"/>
      <use x="71.191406" xlink:href="#DejaVuSans-Bold-6f"/>
      <use x="139.892578" xlink:href="#DejaVuSans-Bold-64"/>
      <use x="211.474609" xlink:href="#DejaVuSans-Bold-65"/>
      <use x="279.296875" xlink:href="#DejaVuSans-Bold-31"/>
      <use x="348.876953" xlink:href="#DejaVuSans-Bold-31"/>
     </g>
    </g>
   </g>
   <g id="text_13">
    <g clip-path="url(#p872ed70c17)">
     <!-- node12 -->
     <g transform="translate(671.399903 471.082326)scale(0.1 -0.1)">
      <use xlink:href="#DejaVuSans-Bold-6e"/>
      <use x="71.191406" xlink:href="#DejaVuSans-Bold-6f"/>
      <use x="139.892578" xlink:href="#DejaVuSans-Bold-64"/>
      <use x="211.474609" xlink:href="#DejaVuSans-Bold-65"/>
      <use x="279.296875" xlink:href="#DejaVuSans-Bold-31"/>
      <use x="348.876953" xlink:href="#DejaVuSans-Bold-32"/>
     </g>
    </g>
   </g>
   <g id="text_14">
    <g clip-path="url(#p872ed70c17)">
     <!-- node13 -->
     <g transform="translate(794.529115 431.346884)scale(0.1 -0.1)">
      <use xlink:href="#DejaVuSans-Bold-6e"/>
      <use x="71.191406" xlink:href="#DejaVuSans-Bold-6f"/>
      <use x="139.892578" xlink:href="#DejaVuSans-Bold-64"/>
      <use x="211.474609" xlink:href="#DejaVuSans-Bold-65"/>
      <use x="279.296875" xlink:href="#DejaVuSans-Bold-31"/>
      <use x="348.876953" xlink:href="#DejaVuSans-Bold-33"/>
     </g>
    </g>
   </g>
   <g id="text_15">
    <g clip-path="url(#p872ed70c17)">
     <!-- node14 -->
     <g transform="translate(878.098857 367.053586)scale(0.1 -0.1)">
      <use xlink:href="#DejaVuSans-Bold-6e"/>
      <use x="71.191406" xlink:href="#DejaVuSans-Bold-6f"/>
      <use x="139.892578" xlink:href="#DejaVuSans-Bold-64"/>
      <use x="211.474609" xlink:href="#DejaVuSans-Bold-65"/>
      <use x="279.296875" xlink:href="#DejaVuSans-Bold-31"/>
      <use x="348.876953" xlink:href="#DejaVuSans-Bold-34"/>
     </g>
    </g>
   </g>
  </g>
 </g>
 <defs>
  <clipPath id="p872ed70c17">
   <rect height="434.88" width="892.8" x="144" y="69.12"/>
  </clipPath>
 </defs>
</svg>
