<?xml version="1.0" encoding="utf-8" standalone="no"?>
<!DOCTYPE svg PUBLIC "-//W3C//DTD SVG 1.1//EN"
  "http://www.w3.org/Graphics/SVG/1.1/DTD/svg11.dtd">
<!-- Created with matplotlib (http://matplotlib.org/) -->
<svg height="216pt" version="1.1" viewBox="0 0 1080 216" width="1080pt" xmlns="http://www.w3.org/2000/svg" xmlns:xlink="http://www.w3.org/1999/xlink">
 <defs>
  <style type="text/css">
*{stroke-linecap:butt;stroke-linejoin:round;}
  </style>
 </defs>
 <g id="figure_1">
  <g id="patch_1">
   <path d="M 0 216 
L 1080 216 
L 1080 0 
L 0 0 
z
" style="fill:#ffffff;"/>
  </g>
  <g id="axes_1">
   <g id="patch_2">
    <path d="M 135 189 
L 287.181818 189 
L 287.181818 25.92 
L 135 25.92 
z
" style="fill:#ffffff;"/>
   </g>
   <g id="matplotlib.axis_1">
    <g id="xtick_1">
     <g id="line2d_1">
      <defs>
       <path d="M 0 0 
L 0 3.5 
" id="m88a4cd04c8" style="stroke:#000000;stroke-width:0.8;"/>
      </defs>
      <g>
       <use style="stroke:#000000;stroke-width:0.8;" x="141.917355" xlink:href="#m88a4cd04c8" y="189"/>
      </g>
     </g>
     <g id="text_1">
      <!-- 0 -->
      <defs>
       <path d="M 31.78125 66.40625 
Q 24.171875 66.40625 20.328125 58.90625 
Q 16.5 51.421875 16.5 36.375 
Q 16.5 21.390625 20.328125 13.890625 
Q 24.171875 6.390625 31.78125 6.390625 
Q 39.453125 6.390625 43.28125 13.890625 
Q 47.125 21.390625 47.125 36.375 
Q 47.125 51.421875 43.28125 58.90625 
Q 39.453125 66.40625 31.78125 66.40625 
z
M 31.78125 74.21875 
Q 44.046875 74.21875 50.515625 64.515625 
Q 56.984375 54.828125 56.984375 36.375 
Q 56.984375 17.96875 50.515625 8.265625 
Q 44.046875 -1.421875 31.78125 -1.421875 
Q 19.53125 -1.421875 13.0625 8.265625 
Q 6.59375 17.96875 6.59375 36.375 
Q 6.59375 54.828125 13.0625 64.515625 
Q 19.53125 74.21875 31.78125 74.21875 
z
" id="DejaVuSans-30"/>
      </defs>
      <g transform="translate(138.736105 203.598437)scale(0.1 -0.1)">
       <use xlink:href="#DejaVuSans-30"/>
      </g>
     </g>
    </g>
    <g id="xtick_2">
     <g id="line2d_2">
      <g>
       <use style="stroke:#000000;stroke-width:0.8;" x="189.689147" xlink:href="#m88a4cd04c8" y="189"/>
      </g>
     </g>
     <g id="text_2">
      <!-- 500 -->
      <defs>
       <path d="M 10.796875 72.90625 
L 49.515625 72.90625 
L 49.515625 64.59375 
L 19.828125 64.59375 
L 19.828125 46.734375 
Q 21.96875 47.46875 24.109375 47.828125 
Q 26.265625 48.1875 28.421875 48.1875 
Q 40.625 48.1875 47.75 41.5 
Q 54.890625 34.8125 54.890625 23.390625 
Q 54.890625 11.625 47.5625 5.09375 
Q 40.234375 -1.421875 26.90625 -1.421875 
Q 22.3125 -1.421875 17.546875 -0.640625 
Q 12.796875 0.140625 7.71875 1.703125 
L 7.71875 11.625 
Q 12.109375 9.234375 16.796875 8.0625 
Q 21.484375 6.890625 26.703125 6.890625 
Q 35.15625 6.890625 40.078125 11.328125 
Q 45.015625 15.765625 45.015625 23.390625 
Q 45.015625 31 40.078125 35.4375 
Q 35.15625 39.890625 26.703125 39.890625 
Q 22.75 39.890625 18.8125 39.015625 
Q 14.890625 38.140625 10.796875 36.28125 
z
" id="DejaVuSans-35"/>
      </defs>
      <g transform="translate(180.145397 203.598437)scale(0.1 -0.1)">
       <use xlink:href="#DejaVuSans-35"/>
       <use x="63.623047" xlink:href="#DejaVuSans-30"/>
       <use x="127.246094" xlink:href="#DejaVuSans-30"/>
      </g>
     </g>
    </g>
    <g id="xtick_3">
     <g id="line2d_3">
      <g>
       <use style="stroke:#000000;stroke-width:0.8;" x="237.460938" xlink:href="#m88a4cd04c8" y="189"/>
      </g>
     </g>
     <g id="text_3">
      <!-- 1000 -->
      <defs>
       <path d="M 12.40625 8.296875 
L 28.515625 8.296875 
L 28.515625 63.921875 
L 10.984375 60.40625 
L 10.984375 69.390625 
L 28.421875 72.90625 
L 38.28125 72.90625 
L 38.28125 8.296875 
L 54.390625 8.296875 
L 54.390625 0 
L 12.40625 0 
z
" id="DejaVuSans-31"/>
      </defs>
      <g transform="translate(224.735938 203.598437)scale(0.1 -0.1)">
       <use xlink:href="#DejaVuSans-31"/>
       <use x="63.623047" xlink:href="#DejaVuSans-30"/>
       <use x="127.246094" xlink:href="#DejaVuSans-30"/>
       <use x="190.869141" xlink:href="#DejaVuSans-30"/>
      </g>
     </g>
    </g>
    <g id="xtick_4">
     <g id="line2d_4">
      <g>
       <use style="stroke:#000000;stroke-width:0.8;" x="285.232729" xlink:href="#m88a4cd04c8" y="189"/>
      </g>
     </g>
     <g id="text_4">
      <!-- 1500 -->
      <g transform="translate(272.507729 203.598437)scale(0.1 -0.1)">
       <use xlink:href="#DejaVuSans-31"/>
       <use x="63.623047" xlink:href="#DejaVuSans-35"/>
       <use x="127.246094" xlink:href="#DejaVuSans-30"/>
       <use x="190.869141" xlink:href="#DejaVuSans-30"/>
      </g>
     </g>
    </g>
   </g>
   <g id="matplotlib.axis_2">
    <g id="ytick_1">
     <g id="line2d_5">
      <defs>
       <path d="M 0 0 
L -3.5 0 
" id="m143bf34f9c" style="stroke:#000000;stroke-width:0.8;"/>
      </defs>
      <g>
       <use style="stroke:#000000;stroke-width:0.8;" x="135" xlink:href="#m143bf34f9c" y="187.258431"/>
      </g>
     </g>
     <g id="text_5">
      <!-- 0 -->
      <g transform="translate(121.6375 191.05765)scale(0.1 -0.1)">
       <use xlink:href="#DejaVuSans-30"/>
      </g>
     </g>
    </g>
    <g id="ytick_2">
     <g id="line2d_6">
      <g>
       <use style="stroke:#000000;stroke-width:0.8;" x="135" xlink:href="#m143bf34f9c" y="147.037448"/>
      </g>
     </g>
     <g id="text_6">
      <!-- 1000 -->
      <g transform="translate(102.55 150.836667)scale(0.1 -0.1)">
       <use xlink:href="#DejaVuSans-31"/>
       <use x="63.623047" xlink:href="#DejaVuSans-30"/>
       <use x="127.246094" xlink:href="#DejaVuSans-30"/>
       <use x="190.869141" xlink:href="#DejaVuSans-30"/>
      </g>
     </g>
    </g>
    <g id="ytick_3">
     <g id="line2d_7">
      <g>
       <use style="stroke:#000000;stroke-width:0.8;" x="135" xlink:href="#m143bf34f9c" y="106.816464"/>
      </g>
     </g>
     <g id="text_7">
      <!-- 2000 -->
      <defs>
       <path d="M 19.1875 8.296875 
L 53.609375 8.296875 
L 53.609375 0 
L 7.328125 0 
L 7.328125 8.296875 
Q 12.9375 14.109375 22.625 23.890625 
Q 32.328125 33.6875 34.8125 36.53125 
Q 39.546875 41.84375 41.421875 45.53125 
Q 43.3125 49.21875 43.3125 52.78125 
Q 43.3125 58.59375 39.234375 62.25 
Q 35.15625 65.921875 28.609375 65.921875 
Q 23.96875 65.921875 18.8125 64.3125 
Q 13.671875 62.703125 7.8125 59.421875 
L 7.8125 69.390625 
Q 13.765625 71.78125 18.9375 73 
Q 24.125 74.21875 28.421875 74.21875 
Q 39.75 74.21875 46.484375 68.546875 
Q 53.21875 62.890625 53.21875 53.421875 
Q 53.21875 48.921875 51.53125 44.890625 
Q 49.859375 40.875 45.40625 35.40625 
Q 44.1875 33.984375 37.640625 27.21875 
Q 31.109375 20.453125 19.1875 8.296875 
z
" id="DejaVuSans-32"/>
      </defs>
      <g transform="translate(102.55 110.615683)scale(0.1 -0.1)">
       <use xlink:href="#DejaVuSans-32"/>
       <use x="63.623047" xlink:href="#DejaVuSans-30"/>
       <use x="127.246094" xlink:href="#DejaVuSans-30"/>
       <use x="190.869141" xlink:href="#DejaVuSans-30"/>
      </g>
     </g>
    </g>
    <g id="ytick_4">
     <g id="line2d_8">
      <g>
       <use style="stroke:#000000;stroke-width:0.8;" x="135" xlink:href="#m143bf34f9c" y="66.595481"/>
      </g>
     </g>
     <g id="text_8">
      <!-- 3000 -->
      <defs>
       <path d="M 40.578125 39.3125 
Q 47.65625 37.796875 51.625 33 
Q 55.609375 28.21875 55.609375 21.1875 
Q 55.609375 10.40625 48.1875 4.484375 
Q 40.765625 -1.421875 27.09375 -1.421875 
Q 22.515625 -1.421875 17.65625 -0.515625 
Q 12.796875 0.390625 7.625 2.203125 
L 7.625 11.71875 
Q 11.71875 9.328125 16.59375 8.109375 
Q 21.484375 6.890625 26.8125 6.890625 
Q 36.078125 6.890625 40.9375 10.546875 
Q 45.796875 14.203125 45.796875 21.1875 
Q 45.796875 27.640625 41.28125 31.265625 
Q 36.765625 34.90625 28.71875 34.90625 
L 20.21875 34.90625 
L 20.21875 43.015625 
L 29.109375 43.015625 
Q 36.375 43.015625 40.234375 45.921875 
Q 44.09375 48.828125 44.09375 54.296875 
Q 44.09375 59.90625 40.109375 62.90625 
Q 36.140625 65.921875 28.71875 65.921875 
Q 24.65625 65.921875 20.015625 65.03125 
Q 15.375 64.15625 9.8125 62.3125 
L 9.8125 71.09375 
Q 15.4375 72.65625 20.34375 73.4375 
Q 25.25 74.21875 29.59375 74.21875 
Q 40.828125 74.21875 47.359375 69.109375 
Q 53.90625 64.015625 53.90625 55.328125 
Q 53.90625 49.265625 50.4375 45.09375 
Q 46.96875 40.921875 40.578125 39.3125 
z
" id="DejaVuSans-33"/>
      </defs>
      <g transform="translate(102.55 70.394699)scale(0.1 -0.1)">
       <use xlink:href="#DejaVuSans-33"/>
       <use x="63.623047" xlink:href="#DejaVuSans-30"/>
       <use x="127.246094" xlink:href="#DejaVuSans-30"/>
       <use x="190.869141" xlink:href="#DejaVuSans-30"/>
      </g>
     </g>
    </g>
    <g id="ytick_5">
     <g id="line2d_9">
      <g>
       <use style="stroke:#000000;stroke-width:0.8;" x="135" xlink:href="#m143bf34f9c" y="26.374497"/>
      </g>
     </g>
     <g id="text_9">
      <!-- 4000 -->
      <defs>
       <path d="M 37.796875 64.3125 
L 12.890625 25.390625 
L 37.796875 25.390625 
z
M 35.203125 72.90625 
L 47.609375 72.90625 
L 47.609375 25.390625 
L 58.015625 25.390625 
L 58.015625 17.1875 
L 47.609375 17.1875 
L 47.609375 0 
L 37.796875 0 
L 37.796875 17.1875 
L 4.890625 17.1875 
L 4.890625 26.703125 
z
" id="DejaVuSans-34"/>
      </defs>
      <g transform="translate(102.55 30.173716)scale(0.1 -0.1)">
       <use xlink:href="#DejaVuSans-34"/>
       <use x="63.623047" xlink:href="#DejaVuSans-30"/>
       <use x="127.246094" xlink:href="#DejaVuSans-30"/>
       <use x="190.869141" xlink:href="#DejaVuSans-30"/>
      </g>
     </g>
    </g>
   </g>
   <g id="line2d_10">
    <path clip-path="url(#p08c032c00b)" d="M 141.917355 181.587273 
L 143.828227 181.506831 
L 144.114858 181.46661 
L 146.121273 181.386168 
L 146.407904 181.345947 
L 148.509863 181.265505 
L 148.796493 181.225284 
L 150.707365 181.144842 
L 150.993996 181.104621 
L 152.71378 181.024179 
L 153.000411 180.983958 
L 154.338021 180.903516 
L 154.624652 180.863295 
L 156.43998 180.782853 
L 156.726611 180.742632 
L 158.255308 180.66219 
L 158.541939 180.621969 
L 159.975092 180.541527 
L 160.261723 180.501306 
L 161.026072 180.420864 
L 161.312703 180.380643 
L 161.981508 180.300201 
L 162.268138 180.25998 
L 163.892379 180.179538 
L 164.17901 180.139317 
L 165.038902 180.058875 
L 165.325533 180.018654 
L 166.472056 179.938212 
L 166.758687 179.897991 
L 167.809666 179.817549 
L 168.096297 179.777328 
L 169.147276 179.696886 
L 169.624994 179.576224 
L 171.249235 179.495782 
L 171.535866 179.455561 
L 172.300215 179.375119 
L 172.586845 179.334898 
L 173.25565 179.254456 
L 173.542281 179.214235 
L 175.166522 179.133793 
L 175.453153 179.093572 
L 176.599676 179.01313 
L 176.886307 178.972909 
L 177.937286 178.892467 
L 178.223917 178.852246 
L 179.179353 178.771804 
L 179.561527 178.691362 
L 180.039245 178.61092 
L 180.325876 178.570699 
L 181.185768 178.490257 
L 181.663486 178.369594 
L 182.905552 178.289152 
L 183.192183 178.248931 
L 184.147619 178.168489 
L 184.529793 178.088047 
L 185.580773 178.007605 
L 185.962947 177.927163 
L 186.727296 177.846721 
L 187.10947 177.766279 
L 187.778275 177.685837 
L 188.351536 177.524953 
L 189.211429 177.444511 
L 189.498059 177.40429 
L 190.644582 177.323848 
L 191.026757 177.243407 
L 191.982193 177.162965 
L 192.459911 177.042302 
L 193.033172 176.96186 
L 193.51089 176.841197 
L 194.370782 176.760755 
L 194.752956 176.680313 
L 195.230674 176.599871 
L 195.612849 176.519429 
L 196.281654 176.438987 
L 196.568285 176.398766 
L 197.141546 176.318324 
L 197.428177 176.278103 
L 197.714808 176.197661 
L 198.001438 176.15744 
L 198.479156 176.076998 
L 198.956874 175.956335 
L 199.625679 175.916114 
L 199.816766 175.835672 
L 201.058833 175.75523 
L 201.24992 175.674788 
L 201.918725 175.594346 
L 202.491987 175.433462 
L 203.160792 175.35302 
L 203.542966 175.272578 
L 204.593945 175.192136 
L 204.880576 175.071473 
L 205.836012 174.991031 
L 206.122643 174.95081 
L 206.695904 174.910589 
L 206.886991 174.830147 
L 207.364709 174.749706 
L 207.555797 174.669264 
L 208.033514 174.588822 
L 208.415689 174.50838 
L 208.797863 174.427938 
L 209.084494 174.307275 
L 209.657755 174.226833 
L 210.03993 174.146391 
L 210.708735 174.065949 
L 211.090909 173.985507 
L 211.568627 173.945286 
L 211.759714 173.864844 
L 212.524063 173.784402 
L 212.71515 173.70396 
L 213.288411 173.623518 
L 213.766129 173.502855 
L 214.434934 173.422413 
L 214.912652 173.30175 
L 215.963632 173.221308 
L 216.345806 173.140866 
L 216.536893 173.060424 
L 217.492329 172.738656 
L 217.683416 172.738656 
L 217.874503 172.577772 
L 218.447765 172.416888 
L 218.829939 172.336447 
L 219.976462 171.934237 
L 220.358637 171.853795 
L 220.740811 171.65269 
L 221.027442 171.612469 
L 221.982877 171.532027 
L 223.033857 171.170038 
L 223.224944 171.129817 
L 223.416031 171.049375 
L 223.989293 170.968933 
L 224.658098 170.767828 
L 225.135816 170.687386 
L 225.900164 170.44606 
L 226.186795 170.365618 
L 227.237775 170.003629 
L 228.002123 169.923187 
L 228.19321 169.882967 
L 228.384298 169.641641 
L 228.670928 169.60142 
L 228.957559 169.400315 
L 230.868431 168.676337 
L 231.155061 168.595895 
L 232.397128 168.153464 
L 232.779302 168.073022 
L 236.314415 166.665288 
L 236.98322 166.584846 
L 237.843112 166.182636 
L 238.225287 165.820647 
L 239.085179 165.5391 
L 239.276266 165.498879 
L 239.562897 165.378216 
L 239.753984 165.337995 
L 240.422789 164.855344 
L 240.99605 164.774902 
L 241.282681 164.654239 
L 241.473768 164.453134 
L 241.760399 164.29225 
L 242.142573 164.211808 
L 242.620291 163.970482 
L 242.811378 163.849819 
L 243.098009 163.769377 
L 243.38464 163.648714 
L 243.671271 163.367167 
L 244.626707 162.643189 
L 244.72225 162.643189 
L 244.913337 162.361643 
L 245.104424 162.321422 
L 245.677686 161.919212 
L 245.964317 161.83877 
L 246.346491 161.758328 
L 246.633122 161.718107 
L 246.919753 161.517002 
L 247.493014 160.913687 
L 247.684101 160.551698 
L 247.970732 160.189709 
L 248.257363 160.069047 
L 248.44845 159.827721 
L 248.639537 159.7875 
L 249.117255 159.505953 
L 249.78606 159.304848 
L 250.072691 159.264627 
L 251.12367 157.655788 
L 253.51226 155.765401 
L 254.563239 155.32297 
L 254.754326 154.800098 
L 254.84987 154.759877 
L 255.040957 154.397888 
L 255.518675 153.955457 
L 255.709762 153.915236 
L 256.474111 152.789048 
L 256.760742 152.42706 
L 256.951829 152.306397 
L 257.238459 151.703082 
L 257.429547 151.703082 
L 257.907265 151.260651 
L 258.958244 150.255127 
L 259.627049 149.410486 
L 259.818136 148.807171 
L 260.104767 148.686508 
L 260.582485 147.882088 
L 261.060203 147.640763 
L 261.442377 146.997227 
L 261.824551 146.152586 
L 262.302269 145.428608 
L 262.5889 144.583968 
L 262.779987 144.463305 
L 263.066618 143.779548 
L 263.162162 143.739327 
L 263.448792 143.256675 
L 263.639879 143.05557 
L 263.830967 142.21093 
L 264.213141 141.607615 
L 264.404228 140.883637 
L 264.595315 140.803195 
L 264.786402 140.642311 
L 265.26412 138.309494 
L 265.455208 138.14861 
L 266.506187 135.333142 
L 266.792818 135.2527 
L 266.983905 135.051595 
L 267.270536 134.85049 
L 267.461623 134.528722 
L 267.65271 134.287396 
L 267.843797 133.925407 
L 267.939341 133.925407 
L 268.894776 130.828391 
L 268.99032 130.78817 
L 269.276951 129.94353 
L 269.372494 129.94353 
L 269.563582 129.420657 
L 269.659125 129.340215 
L 270.041299 128.254249 
L 270.232387 127.248724 
L 270.423474 127.168282 
L 270.614561 126.042094 
L 270.996735 125.03657 
L 271.187822 123.709277 
L 271.283366 123.669056 
L 271.474453 122.100438 
L 271.569997 121.939554 
L 272.047715 118.721875 
L 272.143258 118.641433 
L 272.907607 114.82044 
L 273.098694 113.734473 
L 273.194238 113.61381 
L 273.385325 111.240772 
L 273.480868 111.12011 
L 273.767499 110.31569 
L 274.05413 109.672154 
L 274.245217 107.258895 
L 274.340761 107.258895 
L 274.818479 105.770719 
L 275.009566 103.437902 
L 275.105109 103.317239 
L 275.296197 102.392156 
L 275.39174 102.311714 
L 275.678371 101.668178 
L 275.773914 101.668178 
L 275.965002 97.847185 
L 276.060545 97.847185 
L 276.251632 96.962323 
L 276.347176 96.922102 
L 276.633807 94.508843 
L 276.72935 94.066412 
L 276.920437 92.940225 
L 277.015981 92.73912 
L 277.111525 90.728071 
L 277.302612 84.694923 
L 277.493699 78.661776 
L 277.684786 74.840782 
L 278.162504 69.85338 
L 278.353591 66.95747 
L 278.544678 63.015813 
L 278.735765 62.613603 
L 278.831309 61.809184 
L 279.022396 55.011837 
L 279.500114 50.869076 
L 279.786745 44.031509 
L 279.882288 43.790183 
L 279.977832 42.382449 
L 280.264463 33.332727 
L 280.264463 33.332727 
" style="fill:none;stroke:#1f77b4;stroke-linecap:square;stroke-width:1.5;"/>
   </g>
   <g id="patch_3">
    <path d="M 135 189 
L 135 25.92 
" style="fill:none;stroke:#000000;stroke-linecap:square;stroke-linejoin:miter;stroke-width:0.8;"/>
   </g>
   <g id="patch_4">
    <path d="M 287.181818 189 
L 287.181818 25.92 
" style="fill:none;stroke:#000000;stroke-linecap:square;stroke-linejoin:miter;stroke-width:0.8;"/>
   </g>
   <g id="patch_5">
    <path d="M 135 189 
L 287.181818 189 
" style="fill:none;stroke:#000000;stroke-linecap:square;stroke-linejoin:miter;stroke-width:0.8;"/>
   </g>
   <g id="patch_6">
    <path d="M 135 25.92 
L 287.181818 25.92 
" style="fill:none;stroke:#000000;stroke-linecap:square;stroke-linejoin:miter;stroke-width:0.8;"/>
   </g>
   <g id="text_10">
    <!-- sorted plot -->
    <defs>
     <path d="M 44.28125 53.078125 
L 44.28125 44.578125 
Q 40.484375 46.53125 36.375 47.5 
Q 32.28125 48.484375 27.875 48.484375 
Q 21.1875 48.484375 17.84375 46.4375 
Q 14.5 44.390625 14.5 40.28125 
Q 14.5 37.15625 16.890625 35.375 
Q 19.28125 33.59375 26.515625 31.984375 
L 29.59375 31.296875 
Q 39.15625 29.25 43.1875 25.515625 
Q 47.21875 21.78125 47.21875 15.09375 
Q 47.21875 7.46875 41.1875 3.015625 
Q 35.15625 -1.421875 24.609375 -1.421875 
Q 20.21875 -1.421875 15.453125 -0.5625 
Q 10.6875 0.296875 5.421875 2 
L 5.421875 11.28125 
Q 10.40625 8.6875 15.234375 7.390625 
Q 20.0625 6.109375 24.8125 6.109375 
Q 31.15625 6.109375 34.5625 8.28125 
Q 37.984375 10.453125 37.984375 14.40625 
Q 37.984375 18.0625 35.515625 20.015625 
Q 33.0625 21.96875 24.703125 23.78125 
L 21.578125 24.515625 
Q 13.234375 26.265625 9.515625 29.90625 
Q 5.8125 33.546875 5.8125 39.890625 
Q 5.8125 47.609375 11.28125 51.796875 
Q 16.75 56 26.8125 56 
Q 31.78125 56 36.171875 55.265625 
Q 40.578125 54.546875 44.28125 53.078125 
z
" id="DejaVuSans-73"/>
     <path d="M 30.609375 48.390625 
Q 23.390625 48.390625 19.1875 42.75 
Q 14.984375 37.109375 14.984375 27.296875 
Q 14.984375 17.484375 19.15625 11.84375 
Q 23.34375 6.203125 30.609375 6.203125 
Q 37.796875 6.203125 41.984375 11.859375 
Q 46.1875 17.53125 46.1875 27.296875 
Q 46.1875 37.015625 41.984375 42.703125 
Q 37.796875 48.390625 30.609375 48.390625 
z
M 30.609375 56 
Q 42.328125 56 49.015625 48.375 
Q 55.71875 40.765625 55.71875 27.296875 
Q 55.71875 13.875 49.015625 6.21875 
Q 42.328125 -1.421875 30.609375 -1.421875 
Q 18.84375 -1.421875 12.171875 6.21875 
Q 5.515625 13.875 5.515625 27.296875 
Q 5.515625 40.765625 12.171875 48.375 
Q 18.84375 56 30.609375 56 
z
" id="DejaVuSans-6f"/>
     <path d="M 41.109375 46.296875 
Q 39.59375 47.171875 37.8125 47.578125 
Q 36.03125 48 33.890625 48 
Q 26.265625 48 22.1875 43.046875 
Q 18.109375 38.09375 18.109375 28.8125 
L 18.109375 0 
L 9.078125 0 
L 9.078125 54.6875 
L 18.109375 54.6875 
L 18.109375 46.1875 
Q 20.953125 51.171875 25.484375 53.578125 
Q 30.03125 56 36.53125 56 
Q 37.453125 56 38.578125 55.875 
Q 39.703125 55.765625 41.0625 55.515625 
z
" id="DejaVuSans-72"/>
     <path d="M 18.3125 70.21875 
L 18.3125 54.6875 
L 36.8125 54.6875 
L 36.8125 47.703125 
L 18.3125 47.703125 
L 18.3125 18.015625 
Q 18.3125 11.328125 20.140625 9.421875 
Q 21.96875 7.515625 27.59375 7.515625 
L 36.8125 7.515625 
L 36.8125 0 
L 27.59375 0 
Q 17.1875 0 13.234375 3.875 
Q 9.28125 7.765625 9.28125 18.015625 
L 9.28125 47.703125 
L 2.6875 47.703125 
L 2.6875 54.6875 
L 9.28125 54.6875 
L 9.28125 70.21875 
z
" id="DejaVuSans-74"/>
     <path d="M 56.203125 29.59375 
L 56.203125 25.203125 
L 14.890625 25.203125 
Q 15.484375 15.921875 20.484375 11.0625 
Q 25.484375 6.203125 34.421875 6.203125 
Q 39.59375 6.203125 44.453125 7.46875 
Q 49.3125 8.734375 54.109375 11.28125 
L 54.109375 2.78125 
Q 49.265625 0.734375 44.1875 -0.34375 
Q 39.109375 -1.421875 33.890625 -1.421875 
Q 20.796875 -1.421875 13.15625 6.1875 
Q 5.515625 13.8125 5.515625 26.8125 
Q 5.515625 40.234375 12.765625 48.109375 
Q 20.015625 56 32.328125 56 
Q 43.359375 56 49.78125 48.890625 
Q 56.203125 41.796875 56.203125 29.59375 
z
M 47.21875 32.234375 
Q 47.125 39.59375 43.09375 43.984375 
Q 39.0625 48.390625 32.421875 48.390625 
Q 24.90625 48.390625 20.390625 44.140625 
Q 15.875 39.890625 15.1875 32.171875 
z
" id="DejaVuSans-65"/>
     <path d="M 45.40625 46.390625 
L 45.40625 75.984375 
L 54.390625 75.984375 
L 54.390625 0 
L 45.40625 0 
L 45.40625 8.203125 
Q 42.578125 3.328125 38.25 0.953125 
Q 33.9375 -1.421875 27.875 -1.421875 
Q 17.96875 -1.421875 11.734375 6.484375 
Q 5.515625 14.40625 5.515625 27.296875 
Q 5.515625 40.1875 11.734375 48.09375 
Q 17.96875 56 27.875 56 
Q 33.9375 56 38.25 53.625 
Q 42.578125 51.265625 45.40625 46.390625 
z
M 14.796875 27.296875 
Q 14.796875 17.390625 18.875 11.75 
Q 22.953125 6.109375 30.078125 6.109375 
Q 37.203125 6.109375 41.296875 11.75 
Q 45.40625 17.390625 45.40625 27.296875 
Q 45.40625 37.203125 41.296875 42.84375 
Q 37.203125 48.484375 30.078125 48.484375 
Q 22.953125 48.484375 18.875 42.84375 
Q 14.796875 37.203125 14.796875 27.296875 
z
" id="DejaVuSans-64"/>
     <path id="DejaVuSans-20"/>
     <path d="M 18.109375 8.203125 
L 18.109375 -20.796875 
L 9.078125 -20.796875 
L 9.078125 54.6875 
L 18.109375 54.6875 
L 18.109375 46.390625 
Q 20.953125 51.265625 25.265625 53.625 
Q 29.59375 56 35.59375 56 
Q 45.5625 56 51.78125 48.09375 
Q 58.015625 40.1875 58.015625 27.296875 
Q 58.015625 14.40625 51.78125 6.484375 
Q 45.5625 -1.421875 35.59375 -1.421875 
Q 29.59375 -1.421875 25.265625 0.953125 
Q 20.953125 3.328125 18.109375 8.203125 
z
M 48.6875 27.296875 
Q 48.6875 37.203125 44.609375 42.84375 
Q 40.53125 48.484375 33.40625 48.484375 
Q 26.265625 48.484375 22.1875 42.84375 
Q 18.109375 37.203125 18.109375 27.296875 
Q 18.109375 17.390625 22.1875 11.75 
Q 26.265625 6.109375 33.40625 6.109375 
Q 40.53125 6.109375 44.609375 11.75 
Q 48.6875 17.390625 48.6875 27.296875 
z
" id="DejaVuSans-70"/>
     <path d="M 9.421875 75.984375 
L 18.40625 75.984375 
L 18.40625 0 
L 9.421875 0 
z
" id="DejaVuSans-6c"/>
    </defs>
    <g transform="translate(178.568097 19.92)scale(0.12 -0.12)">
     <use xlink:href="#DejaVuSans-73"/>
     <use x="52.099609" xlink:href="#DejaVuSans-6f"/>
     <use x="113.28125" xlink:href="#DejaVuSans-72"/>
     <use x="154.394531" xlink:href="#DejaVuSans-74"/>
     <use x="193.603516" xlink:href="#DejaVuSans-65"/>
     <use x="255.126953" xlink:href="#DejaVuSans-64"/>
     <use x="318.603516" xlink:href="#DejaVuSans-20"/>
     <use x="350.390625" xlink:href="#DejaVuSans-70"/>
     <use x="413.867188" xlink:href="#DejaVuSans-6c"/>
     <use x="441.650391" xlink:href="#DejaVuSans-6f"/>
     <use x="502.832031" xlink:href="#DejaVuSans-74"/>
    </g>
   </g>
  </g>
  <g id="axes_2">
   <g id="patch_7">
    <path d="M 363.272727 189 
L 972 189 
L 972 25.92 
L 363.272727 25.92 
z
" style="fill:#ffffff;"/>
   </g>
   <g id="matplotlib.axis_3">
    <g id="xtick_5">
     <g id="line2d_11">
      <g>
       <use style="stroke:#000000;stroke-width:0.8;" x="369.773465" xlink:href="#m88a4cd04c8" y="189"/>
      </g>
     </g>
     <g id="text_11">
      <!-- 0 -->
      <g transform="translate(366.592215 203.598437)scale(0.1 -0.1)">
       <use xlink:href="#DejaVuSans-30"/>
      </g>
     </g>
    </g>
    <g id="xtick_6">
     <g id="line2d_12">
      <g>
       <use style="stroke:#000000;stroke-width:0.8;" x="444.83972" xlink:href="#m88a4cd04c8" y="189"/>
      </g>
     </g>
     <g id="text_12">
      <!-- 500 -->
      <g transform="translate(435.29597 203.598437)scale(0.1 -0.1)">
       <use xlink:href="#DejaVuSans-35"/>
       <use x="63.623047" xlink:href="#DejaVuSans-30"/>
       <use x="127.246094" xlink:href="#DejaVuSans-30"/>
      </g>
     </g>
    </g>
    <g id="xtick_7">
     <g id="line2d_13">
      <g>
       <use style="stroke:#000000;stroke-width:0.8;" x="519.905974" xlink:href="#m88a4cd04c8" y="189"/>
      </g>
     </g>
     <g id="text_13">
      <!-- 1000 -->
      <g transform="translate(507.180974 203.598437)scale(0.1 -0.1)">
       <use xlink:href="#DejaVuSans-31"/>
       <use x="63.623047" xlink:href="#DejaVuSans-30"/>
       <use x="127.246094" xlink:href="#DejaVuSans-30"/>
       <use x="190.869141" xlink:href="#DejaVuSans-30"/>
      </g>
     </g>
    </g>
    <g id="xtick_8">
     <g id="line2d_14">
      <g>
       <use style="stroke:#000000;stroke-width:0.8;" x="594.972229" xlink:href="#m88a4cd04c8" y="189"/>
      </g>
     </g>
     <g id="text_14">
      <!-- 1500 -->
      <g transform="translate(582.247229 203.598437)scale(0.1 -0.1)">
       <use xlink:href="#DejaVuSans-31"/>
       <use x="63.623047" xlink:href="#DejaVuSans-35"/>
       <use x="127.246094" xlink:href="#DejaVuSans-30"/>
       <use x="190.869141" xlink:href="#DejaVuSans-30"/>
      </g>
     </g>
    </g>
    <g id="xtick_9">
     <g id="line2d_15">
      <g>
       <use style="stroke:#000000;stroke-width:0.8;" x="670.038484" xlink:href="#m88a4cd04c8" y="189"/>
      </g>
     </g>
     <g id="text_15">
      <!-- 2000 -->
      <g transform="translate(657.313484 203.598437)scale(0.1 -0.1)">
       <use xlink:href="#DejaVuSans-32"/>
       <use x="63.623047" xlink:href="#DejaVuSans-30"/>
       <use x="127.246094" xlink:href="#DejaVuSans-30"/>
       <use x="190.869141" xlink:href="#DejaVuSans-30"/>
      </g>
     </g>
    </g>
    <g id="xtick_10">
     <g id="line2d_16">
      <g>
       <use style="stroke:#000000;stroke-width:0.8;" x="745.104739" xlink:href="#m88a4cd04c8" y="189"/>
      </g>
     </g>
     <g id="text_16">
      <!-- 2500 -->
      <g transform="translate(732.379739 203.598437)scale(0.1 -0.1)">
       <use xlink:href="#DejaVuSans-32"/>
       <use x="63.623047" xlink:href="#DejaVuSans-35"/>
       <use x="127.246094" xlink:href="#DejaVuSans-30"/>
       <use x="190.869141" xlink:href="#DejaVuSans-30"/>
      </g>
     </g>
    </g>
    <g id="xtick_11">
     <g id="line2d_17">
      <g>
       <use style="stroke:#000000;stroke-width:0.8;" x="820.170993" xlink:href="#m88a4cd04c8" y="189"/>
      </g>
     </g>
     <g id="text_17">
      <!-- 3000 -->
      <g transform="translate(807.445993 203.598437)scale(0.1 -0.1)">
       <use xlink:href="#DejaVuSans-33"/>
       <use x="63.623047" xlink:href="#DejaVuSans-30"/>
       <use x="127.246094" xlink:href="#DejaVuSans-30"/>
       <use x="190.869141" xlink:href="#DejaVuSans-30"/>
      </g>
     </g>
    </g>
    <g id="xtick_12">
     <g id="line2d_18">
      <g>
       <use style="stroke:#000000;stroke-width:0.8;" x="895.237248" xlink:href="#m88a4cd04c8" y="189"/>
      </g>
     </g>
     <g id="text_18">
      <!-- 3500 -->
      <g transform="translate(882.512248 203.598437)scale(0.1 -0.1)">
       <use xlink:href="#DejaVuSans-33"/>
       <use x="63.623047" xlink:href="#DejaVuSans-35"/>
       <use x="127.246094" xlink:href="#DejaVuSans-30"/>
       <use x="190.869141" xlink:href="#DejaVuSans-30"/>
      </g>
     </g>
    </g>
    <g id="xtick_13">
     <g id="line2d_19">
      <g>
       <use style="stroke:#000000;stroke-width:0.8;" x="970.303503" xlink:href="#m88a4cd04c8" y="189"/>
      </g>
     </g>
     <g id="text_19">
      <!-- 4000 -->
      <g transform="translate(957.578503 203.598437)scale(0.1 -0.1)">
       <use xlink:href="#DejaVuSans-34"/>
       <use x="63.623047" xlink:href="#DejaVuSans-30"/>
       <use x="127.246094" xlink:href="#DejaVuSans-30"/>
       <use x="190.869141" xlink:href="#DejaVuSans-30"/>
      </g>
     </g>
    </g>
   </g>
   <g id="matplotlib.axis_4">
    <g id="ytick_6">
     <g id="line2d_20">
      <g>
       <use style="stroke:#000000;stroke-width:0.8;" x="363.272727" xlink:href="#m143bf34f9c" y="107.46"/>
      </g>
     </g>
     <g id="text_20">
      <!-- 1 -->
      <g transform="translate(349.910227 111.259219)scale(0.1 -0.1)">
       <use xlink:href="#DejaVuSans-31"/>
      </g>
     </g>
    </g>
   </g>
   <g id="line2d_21">
    <path clip-path="url(#p37a2c92897)" d="M 400.550629 119.691 
L 400.550629 95.229 
L 416.685537 95.229 
L 419.317193 101.3445 
L 421.948849 95.229 
L 464.356946 95.229 
L 464.356946 119.691 
L 421.948849 119.691 
L 419.317193 113.5755 
L 416.685537 119.691 
L 400.550629 119.691 
" style="fill:none;stroke:#000000;stroke-linecap:square;"/>
   </g>
   <g id="line2d_22">
    <path clip-path="url(#p37a2c92897)" d="M 400.550629 107.46 
L 390.942149 107.46 
" style="fill:none;stroke:#000000;stroke-linecap:square;"/>
   </g>
   <g id="line2d_23">
    <path clip-path="url(#p37a2c92897)" d="M 464.356946 107.46 
L 590.017856 107.46 
" style="fill:none;stroke:#000000;stroke-linecap:square;"/>
   </g>
   <g id="line2d_24">
    <path clip-path="url(#p37a2c92897)" d="M 390.942149 113.5755 
L 390.942149 101.3445 
" style="fill:none;stroke:#000000;stroke-linecap:square;"/>
   </g>
   <g id="line2d_25">
    <path clip-path="url(#p37a2c92897)" d="M 590.017856 113.5755 
L 590.017856 101.3445 
" style="fill:none;stroke:#000000;stroke-linecap:square;"/>
   </g>
   <g id="line2d_26">
    <defs>
     <path d="M 0 3 
C 0.795609 3 1.55874 2.683901 2.12132 2.12132 
C 2.683901 1.55874 3 0.795609 3 0 
C 3 -0.795609 2.683901 -1.55874 2.12132 -2.12132 
C 1.55874 -2.683901 0.795609 -3 0 -3 
C -0.795609 -3 -1.55874 -2.683901 -2.12132 -2.12132 
C -2.683901 -1.55874 -3 -0.795609 -3 0 
C -3 0.795609 -2.683901 1.55874 -2.12132 2.12132 
C -1.55874 2.683901 -0.795609 3 0 3 
z
" id="m0d838df209" style="stroke:#000000;"/>
    </defs>
    <g clip-path="url(#p37a2c92897)">
     <use style="fill:none;stroke:#000000;" x="593.771169" xlink:href="#m0d838df209" y="107.46"/>
     <use style="fill:none;stroke:#000000;" x="593.771169" xlink:href="#m0d838df209" y="107.46"/>
     <use style="fill:none;stroke:#000000;" x="593.771169" xlink:href="#m0d838df209" y="107.46"/>
     <use style="fill:none;stroke:#000000;" x="594.071434" xlink:href="#m0d838df209" y="107.46"/>
     <use style="fill:none;stroke:#000000;" x="596.923952" xlink:href="#m0d838df209" y="107.46"/>
     <use style="fill:none;stroke:#000000;" x="598.275144" xlink:href="#m0d838df209" y="107.46"/>
     <use style="fill:none;stroke:#000000;" x="599.175939" xlink:href="#m0d838df209" y="107.46"/>
     <use style="fill:none;stroke:#000000;" x="599.626337" xlink:href="#m0d838df209" y="107.46"/>
     <use style="fill:none;stroke:#000000;" x="600.076734" xlink:href="#m0d838df209" y="107.46"/>
     <use style="fill:none;stroke:#000000;" x="602.028457" xlink:href="#m0d838df209" y="107.46"/>
     <use style="fill:none;stroke:#000000;" x="605.481505" xlink:href="#m0d838df209" y="107.46"/>
     <use style="fill:none;stroke:#000000;" x="606.98283" xlink:href="#m0d838df209" y="107.46"/>
     <use style="fill:none;stroke:#000000;" x="607.132962" xlink:href="#m0d838df209" y="107.46"/>
     <use style="fill:none;stroke:#000000;" x="611.336673" xlink:href="#m0d838df209" y="107.46"/>
     <use style="fill:none;stroke:#000000;" x="612.98813" xlink:href="#m0d838df209" y="107.46"/>
     <use style="fill:none;stroke:#000000;" x="613.58866" xlink:href="#m0d838df209" y="107.46"/>
     <use style="fill:none;stroke:#000000;" x="616.441178" xlink:href="#m0d838df209" y="107.46"/>
     <use style="fill:none;stroke:#000000;" x="617.642238" xlink:href="#m0d838df209" y="107.46"/>
     <use style="fill:none;stroke:#000000;" x="618.993431" xlink:href="#m0d838df209" y="107.46"/>
     <use style="fill:none;stroke:#000000;" x="624.848598" xlink:href="#m0d838df209" y="107.46"/>
     <use style="fill:none;stroke:#000000;" x="625.599261" xlink:href="#m0d838df209" y="107.46"/>
     <use style="fill:none;stroke:#000000;" x="625.899526" xlink:href="#m0d838df209" y="107.46"/>
     <use style="fill:none;stroke:#000000;" x="627.550984" xlink:href="#m0d838df209" y="107.46"/>
     <use style="fill:none;stroke:#000000;" x="628.902176" xlink:href="#m0d838df209" y="107.46"/>
     <use style="fill:none;stroke:#000000;" x="631.304296" xlink:href="#m0d838df209" y="107.46"/>
     <use style="fill:none;stroke:#000000;" x="633.256019" xlink:href="#m0d838df209" y="107.46"/>
     <use style="fill:none;stroke:#000000;" x="634.757344" xlink:href="#m0d838df209" y="107.46"/>
     <use style="fill:none;stroke:#000000;" x="635.057609" xlink:href="#m0d838df209" y="107.46"/>
     <use style="fill:none;stroke:#000000;" x="635.508007" xlink:href="#m0d838df209" y="107.46"/>
     <use style="fill:none;stroke:#000000;" x="640.162114" xlink:href="#m0d838df209" y="107.46"/>
     <use style="fill:none;stroke:#000000;" x="643.915427" xlink:href="#m0d838df209" y="107.46"/>
     <use style="fill:none;stroke:#000000;" x="644.215692" xlink:href="#m0d838df209" y="107.46"/>
     <use style="fill:none;stroke:#000000;" x="644.66609" xlink:href="#m0d838df209" y="107.46"/>
     <use style="fill:none;stroke:#000000;" x="651.572185" xlink:href="#m0d838df209" y="107.46"/>
     <use style="fill:none;stroke:#000000;" x="653.523908" xlink:href="#m0d838df209" y="107.46"/>
     <use style="fill:none;stroke:#000000;" x="653.974305" xlink:href="#m0d838df209" y="107.46"/>
     <use style="fill:none;stroke:#000000;" x="655.625763" xlink:href="#m0d838df209" y="107.46"/>
     <use style="fill:none;stroke:#000000;" x="656.67669" xlink:href="#m0d838df209" y="107.46"/>
     <use style="fill:none;stroke:#000000;" x="656.976955" xlink:href="#m0d838df209" y="107.46"/>
     <use style="fill:none;stroke:#000000;" x="657.577486" xlink:href="#m0d838df209" y="107.46"/>
     <use style="fill:none;stroke:#000000;" x="658.928678" xlink:href="#m0d838df209" y="107.46"/>
     <use style="fill:none;stroke:#000000;" x="659.379076" xlink:href="#m0d838df209" y="107.46"/>
     <use style="fill:none;stroke:#000000;" x="664.483581" xlink:href="#m0d838df209" y="107.46"/>
     <use style="fill:none;stroke:#000000;" x="668.387026" xlink:href="#m0d838df209" y="107.46"/>
     <use style="fill:none;stroke:#000000;" x="668.387026" xlink:href="#m0d838df209" y="107.46"/>
     <use style="fill:none;stroke:#000000;" x="669.287821" xlink:href="#m0d838df209" y="107.46"/>
     <use style="fill:none;stroke:#000000;" x="670.639014" xlink:href="#m0d838df209" y="107.46"/>
     <use style="fill:none;stroke:#000000;" x="671.089411" xlink:href="#m0d838df209" y="107.46"/>
     <use style="fill:none;stroke:#000000;" x="672.290471" xlink:href="#m0d838df209" y="107.46"/>
     <use style="fill:none;stroke:#000000;" x="673.941929" xlink:href="#m0d838df209" y="107.46"/>
     <use style="fill:none;stroke:#000000;" x="680.247494" xlink:href="#m0d838df209" y="107.46"/>
     <use style="fill:none;stroke:#000000;" x="682.649615" xlink:href="#m0d838df209" y="107.46"/>
     <use style="fill:none;stroke:#000000;" x="683.100012" xlink:href="#m0d838df209" y="107.46"/>
     <use style="fill:none;stroke:#000000;" x="685.95253" xlink:href="#m0d838df209" y="107.46"/>
     <use style="fill:none;stroke:#000000;" x="686.55306" xlink:href="#m0d838df209" y="107.46"/>
     <use style="fill:none;stroke:#000000;" x="686.853325" xlink:href="#m0d838df209" y="107.46"/>
     <use style="fill:none;stroke:#000000;" x="687.75412" xlink:href="#m0d838df209" y="107.46"/>
     <use style="fill:none;stroke:#000000;" x="688.204517" xlink:href="#m0d838df209" y="107.46"/>
     <use style="fill:none;stroke:#000000;" x="689.255445" xlink:href="#m0d838df209" y="107.46"/>
     <use style="fill:none;stroke:#000000;" x="689.255445" xlink:href="#m0d838df209" y="107.46"/>
     <use style="fill:none;stroke:#000000;" x="703.067636" xlink:href="#m0d838df209" y="107.46"/>
     <use style="fill:none;stroke:#000000;" x="703.518033" xlink:href="#m0d838df209" y="107.46"/>
     <use style="fill:none;stroke:#000000;" x="703.518033" xlink:href="#m0d838df209" y="107.46"/>
     <use style="fill:none;stroke:#000000;" x="706.670816" xlink:href="#m0d838df209" y="107.46"/>
     <use style="fill:none;stroke:#000000;" x="706.820949" xlink:href="#m0d838df209" y="107.46"/>
     <use style="fill:none;stroke:#000000;" x="706.971081" xlink:href="#m0d838df209" y="107.46"/>
     <use style="fill:none;stroke:#000000;" x="710.874526" xlink:href="#m0d838df209" y="107.46"/>
     <use style="fill:none;stroke:#000000;" x="715.979032" xlink:href="#m0d838df209" y="107.46"/>
     <use style="fill:none;stroke:#000000;" x="715.979032" xlink:href="#m0d838df209" y="107.46"/>
     <use style="fill:none;stroke:#000000;" x="717.630489" xlink:href="#m0d838df209" y="107.46"/>
     <use style="fill:none;stroke:#000000;" x="721.684067" xlink:href="#m0d838df209" y="107.46"/>
     <use style="fill:none;stroke:#000000;" x="721.8342" xlink:href="#m0d838df209" y="107.46"/>
     <use style="fill:none;stroke:#000000;" x="722.584862" xlink:href="#m0d838df209" y="107.46"/>
     <use style="fill:none;stroke:#000000;" x="730.091488" xlink:href="#m0d838df209" y="107.46"/>
     <use style="fill:none;stroke:#000000;" x="752.160966" xlink:href="#m0d838df209" y="107.46"/>
     <use style="fill:none;stroke:#000000;" x="752.611364" xlink:href="#m0d838df209" y="107.46"/>
     <use style="fill:none;stroke:#000000;" x="760.268122" xlink:href="#m0d838df209" y="107.46"/>
     <use style="fill:none;stroke:#000000;" x="775.13124" xlink:href="#m0d838df209" y="107.46"/>
     <use style="fill:none;stroke:#000000;" x="788.493034" xlink:href="#m0d838df209" y="107.46"/>
     <use style="fill:none;stroke:#000000;" x="789.393829" xlink:href="#m0d838df209" y="107.46"/>
     <use style="fill:none;stroke:#000000;" x="792.546611" xlink:href="#m0d838df209" y="107.46"/>
     <use style="fill:none;stroke:#000000;" x="795.399129" xlink:href="#m0d838df209" y="107.46"/>
     <use style="fill:none;stroke:#000000;" x="795.999659" xlink:href="#m0d838df209" y="107.46"/>
     <use style="fill:none;stroke:#000000;" x="798.551912" xlink:href="#m0d838df209" y="107.46"/>
     <use style="fill:none;stroke:#000000;" x="808.01026" xlink:href="#m0d838df209" y="107.46"/>
     <use style="fill:none;stroke:#000000;" x="812.664368" xlink:href="#m0d838df209" y="107.46"/>
     <use style="fill:none;stroke:#000000;" x="818.819801" xlink:href="#m0d838df209" y="107.46"/>
     <use style="fill:none;stroke:#000000;" x="828.578414" xlink:href="#m0d838df209" y="107.46"/>
     <use style="fill:none;stroke:#000000;" x="833.532787" xlink:href="#m0d838df209" y="107.46"/>
     <use style="fill:none;stroke:#000000;" x="834.283449" xlink:href="#m0d838df209" y="107.46"/>
     <use style="fill:none;stroke:#000000;" x="835.034112" xlink:href="#m0d838df209" y="107.46"/>
     <use style="fill:none;stroke:#000000;" x="838.036762" xlink:href="#m0d838df209" y="107.46"/>
     <use style="fill:none;stroke:#000000;" x="858.304651" xlink:href="#m0d838df209" y="107.46"/>
     <use style="fill:none;stroke:#000000;" x="863.409156" xlink:href="#m0d838df209" y="107.46"/>
     <use style="fill:none;stroke:#000000;" x="866.561939" xlink:href="#m0d838df209" y="107.46"/>
     <use style="fill:none;stroke:#000000;" x="867.012336" xlink:href="#m0d838df209" y="107.46"/>
     <use style="fill:none;stroke:#000000;" x="876.470684" xlink:href="#m0d838df209" y="107.46"/>
     <use style="fill:none;stroke:#000000;" x="878.272274" xlink:href="#m0d838df209" y="107.46"/>
     <use style="fill:none;stroke:#000000;" x="878.872804" xlink:href="#m0d838df209" y="107.46"/>
     <use style="fill:none;stroke:#000000;" x="890.883405" xlink:href="#m0d838df209" y="107.46"/>
     <use style="fill:none;stroke:#000000;" x="894.636718" xlink:href="#m0d838df209" y="107.46"/>
     <use style="fill:none;stroke:#000000;" x="904.395331" xlink:href="#m0d838df209" y="107.46"/>
     <use style="fill:none;stroke:#000000;" x="905.296126" xlink:href="#m0d838df209" y="107.46"/>
     <use style="fill:none;stroke:#000000;" x="910.550764" xlink:href="#m0d838df209" y="107.46"/>
     <use style="fill:none;stroke:#000000;" x="924.66322" xlink:href="#m0d838df209" y="107.46"/>
     <use style="fill:none;stroke:#000000;" x="926.014412" xlink:href="#m0d838df209" y="107.46"/>
     <use style="fill:none;stroke:#000000;" x="944.330579" xlink:href="#m0d838df209" y="107.46"/>
    </g>
   </g>
   <g id="line2d_27">
    <path clip-path="url(#p37a2c92897)" d="M 419.317193 113.5755 
L 419.317193 101.3445 
" style="fill:none;stroke:#ff7f0e;stroke-linecap:square;"/>
   </g>
   <g id="patch_8">
    <path d="M 363.272727 189 
L 363.272727 25.92 
" style="fill:none;stroke:#000000;stroke-linecap:square;stroke-linejoin:miter;stroke-width:0.8;"/>
   </g>
   <g id="patch_9">
    <path d="M 972 189 
L 972 25.92 
" style="fill:none;stroke:#000000;stroke-linecap:square;stroke-linejoin:miter;stroke-width:0.8;"/>
   </g>
   <g id="patch_10">
    <path d="M 363.272727 189 
L 972 189 
" style="fill:none;stroke:#000000;stroke-linecap:square;stroke-linejoin:miter;stroke-width:0.8;"/>
   </g>
   <g id="patch_11">
    <path d="M 363.272727 25.92 
L 972 25.92 
" style="fill:none;stroke:#000000;stroke-linecap:square;stroke-linejoin:miter;stroke-width:0.8;"/>
   </g>
   <g id="text_21">
    <!-- box-plot -->
    <defs>
     <path d="M 48.6875 27.296875 
Q 48.6875 37.203125 44.609375 42.84375 
Q 40.53125 48.484375 33.40625 48.484375 
Q 26.265625 48.484375 22.1875 42.84375 
Q 18.109375 37.203125 18.109375 27.296875 
Q 18.109375 17.390625 22.1875 11.75 
Q 26.265625 6.109375 33.40625 6.109375 
Q 40.53125 6.109375 44.609375 11.75 
Q 48.6875 17.390625 48.6875 27.296875 
z
M 18.109375 46.390625 
Q 20.953125 51.265625 25.265625 53.625 
Q 29.59375 56 35.59375 56 
Q 45.5625 56 51.78125 48.09375 
Q 58.015625 40.1875 58.015625 27.296875 
Q 58.015625 14.40625 51.78125 6.484375 
Q 45.5625 -1.421875 35.59375 -1.421875 
Q 29.59375 -1.421875 25.265625 0.953125 
Q 20.953125 3.328125 18.109375 8.203125 
L 18.109375 0 
L 9.078125 0 
L 9.078125 75.984375 
L 18.109375 75.984375 
z
" id="DejaVuSans-62"/>
     <path d="M 54.890625 54.6875 
L 35.109375 28.078125 
L 55.90625 0 
L 45.3125 0 
L 29.390625 21.484375 
L 13.484375 0 
L 2.875 0 
L 24.125 28.609375 
L 4.6875 54.6875 
L 15.28125 54.6875 
L 29.78125 35.203125 
L 44.28125 54.6875 
z
" id="DejaVuSans-78"/>
     <path d="M 4.890625 31.390625 
L 31.203125 31.390625 
L 31.203125 23.390625 
L 4.890625 23.390625 
z
" id="DejaVuSans-2d"/>
    </defs>
    <g transform="translate(642.943551 19.92)scale(0.12 -0.12)">
     <use xlink:href="#DejaVuSans-62"/>
     <use x="63.476562" xlink:href="#DejaVuSans-6f"/>
     <use x="124.611328" xlink:href="#DejaVuSans-78"/>
     <use x="183.791016" xlink:href="#DejaVuSans-2d"/>
     <use x="219.875" xlink:href="#DejaVuSans-70"/>
     <use x="283.351562" xlink:href="#DejaVuSans-6c"/>
     <use x="311.134766" xlink:href="#DejaVuSans-6f"/>
     <use x="372.316406" xlink:href="#DejaVuSans-74"/>
    </g>
   </g>
  </g>
 </g>
 <defs>
  <clipPath id="p08c032c00b">
   <rect height="163.08" width="152.181818" x="135" y="25.92"/>
  </clipPath>
  <clipPath id="p37a2c92897">
   <rect height="163.08" width="608.727273" x="363.272727" y="25.92"/>
  </clipPath>
 </defs>
</svg>
