<?xml version="1.0" encoding="utf-8" standalone="no"?>
<!DOCTYPE svg PUBLIC "-//W3C//DTD SVG 1.1//EN"
  "http://www.w3.org/Graphics/SVG/1.1/DTD/svg11.dtd">
<!-- Created with matplotlib (http://matplotlib.org/) -->
<svg height="216pt" version="1.1" viewBox="0 0 1080 216" width="1080pt" xmlns="http://www.w3.org/2000/svg" xmlns:xlink="http://www.w3.org/1999/xlink">
 <defs>
  <style type="text/css">
*{stroke-linecap:butt;stroke-linejoin:round;}
  </style>
 </defs>
 <g id="figure_1">
  <g id="patch_1">
   <path d="M 0 216 
L 1080 216 
L 1080 0 
L 0 0 
z
" style="fill:#ffffff;"/>
  </g>
  <g id="axes_1">
   <g id="patch_2">
    <path d="M 135 189 
L 287.181818 189 
L 287.181818 25.92 
L 135 25.92 
z
" style="fill:#ffffff;"/>
   </g>
   <g id="matplotlib.axis_1">
    <g id="xtick_1">
     <g id="line2d_1">
      <defs>
       <path d="M 0 0 
L 0 3.5 
" id="m7ce474449e" style="stroke:#000000;stroke-width:0.8;"/>
      </defs>
      <g>
       <use style="stroke:#000000;stroke-width:0.8;" x="141.917355" xlink:href="#m7ce474449e" y="189"/>
      </g>
     </g>
     <g id="text_1">
      <!-- 0 -->
      <defs>
       <path d="M 31.78125 66.40625 
Q 24.171875 66.40625 20.328125 58.90625 
Q 16.5 51.421875 16.5 36.375 
Q 16.5 21.390625 20.328125 13.890625 
Q 24.171875 6.390625 31.78125 6.390625 
Q 39.453125 6.390625 43.28125 13.890625 
Q 47.125 21.390625 47.125 36.375 
Q 47.125 51.421875 43.28125 58.90625 
Q 39.453125 66.40625 31.78125 66.40625 
z
M 31.78125 74.21875 
Q 44.046875 74.21875 50.515625 64.515625 
Q 56.984375 54.828125 56.984375 36.375 
Q 56.984375 17.96875 50.515625 8.265625 
Q 44.046875 -1.421875 31.78125 -1.421875 
Q 19.53125 -1.421875 13.0625 8.265625 
Q 6.59375 17.96875 6.59375 36.375 
Q 6.59375 54.828125 13.0625 64.515625 
Q 19.53125 74.21875 31.78125 74.21875 
z
" id="DejaVuSans-30"/>
      </defs>
      <g transform="translate(138.736105 203.598437)scale(0.1 -0.1)">
       <use xlink:href="#DejaVuSans-30"/>
      </g>
     </g>
    </g>
    <g id="xtick_2">
     <g id="line2d_2">
      <g>
       <use style="stroke:#000000;stroke-width:0.8;" x="185.422735" xlink:href="#m7ce474449e" y="189"/>
      </g>
     </g>
     <g id="text_2">
      <!-- 500 -->
      <defs>
       <path d="M 10.796875 72.90625 
L 49.515625 72.90625 
L 49.515625 64.59375 
L 19.828125 64.59375 
L 19.828125 46.734375 
Q 21.96875 47.46875 24.109375 47.828125 
Q 26.265625 48.1875 28.421875 48.1875 
Q 40.625 48.1875 47.75 41.5 
Q 54.890625 34.8125 54.890625 23.390625 
Q 54.890625 11.625 47.5625 5.09375 
Q 40.234375 -1.421875 26.90625 -1.421875 
Q 22.3125 -1.421875 17.546875 -0.640625 
Q 12.796875 0.140625 7.71875 1.703125 
L 7.71875 11.625 
Q 12.109375 9.234375 16.796875 8.0625 
Q 21.484375 6.890625 26.703125 6.890625 
Q 35.15625 6.890625 40.078125 11.328125 
Q 45.015625 15.765625 45.015625 23.390625 
Q 45.015625 31 40.078125 35.4375 
Q 35.15625 39.890625 26.703125 39.890625 
Q 22.75 39.890625 18.8125 39.015625 
Q 14.890625 38.140625 10.796875 36.28125 
z
" id="DejaVuSans-35"/>
      </defs>
      <g transform="translate(175.878985 203.598437)scale(0.1 -0.1)">
       <use xlink:href="#DejaVuSans-35"/>
       <use x="63.623047" xlink:href="#DejaVuSans-30"/>
       <use x="127.246094" xlink:href="#DejaVuSans-30"/>
      </g>
     </g>
    </g>
    <g id="xtick_3">
     <g id="line2d_3">
      <g>
       <use style="stroke:#000000;stroke-width:0.8;" x="228.928115" xlink:href="#m7ce474449e" y="189"/>
      </g>
     </g>
     <g id="text_3">
      <!-- 1000 -->
      <defs>
       <path d="M 12.40625 8.296875 
L 28.515625 8.296875 
L 28.515625 63.921875 
L 10.984375 60.40625 
L 10.984375 69.390625 
L 28.421875 72.90625 
L 38.28125 72.90625 
L 38.28125 8.296875 
L 54.390625 8.296875 
L 54.390625 0 
L 12.40625 0 
z
" id="DejaVuSans-31"/>
      </defs>
      <g transform="translate(216.203115 203.598437)scale(0.1 -0.1)">
       <use xlink:href="#DejaVuSans-31"/>
       <use x="63.623047" xlink:href="#DejaVuSans-30"/>
       <use x="127.246094" xlink:href="#DejaVuSans-30"/>
       <use x="190.869141" xlink:href="#DejaVuSans-30"/>
      </g>
     </g>
    </g>
    <g id="xtick_4">
     <g id="line2d_4">
      <g>
       <use style="stroke:#000000;stroke-width:0.8;" x="272.433494" xlink:href="#m7ce474449e" y="189"/>
      </g>
     </g>
     <g id="text_4">
      <!-- 1500 -->
      <g transform="translate(259.708494 203.598437)scale(0.1 -0.1)">
       <use xlink:href="#DejaVuSans-31"/>
       <use x="63.623047" xlink:href="#DejaVuSans-35"/>
       <use x="127.246094" xlink:href="#DejaVuSans-30"/>
       <use x="190.869141" xlink:href="#DejaVuSans-30"/>
      </g>
     </g>
    </g>
   </g>
   <g id="matplotlib.axis_2">
    <g id="ytick_1">
     <g id="line2d_5">
      <defs>
       <path d="M 0 0 
L -3.5 0 
" id="mac1b889eaf" style="stroke:#000000;stroke-width:0.8;"/>
      </defs>
      <g>
       <use style="stroke:#000000;stroke-width:0.8;" x="135" xlink:href="#mac1b889eaf" y="187.570862"/>
      </g>
     </g>
     <g id="text_5">
      <!-- 0 -->
      <g transform="translate(121.6375 191.370081)scale(0.1 -0.1)">
       <use xlink:href="#DejaVuSans-30"/>
      </g>
     </g>
    </g>
    <g id="ytick_2">
     <g id="line2d_6">
      <g>
       <use style="stroke:#000000;stroke-width:0.8;" x="135" xlink:href="#mac1b889eaf" y="162.845287"/>
      </g>
     </g>
     <g id="text_6">
      <!-- 500 -->
      <g transform="translate(108.9125 166.644506)scale(0.1 -0.1)">
       <use xlink:href="#DejaVuSans-35"/>
       <use x="63.623047" xlink:href="#DejaVuSans-30"/>
       <use x="127.246094" xlink:href="#DejaVuSans-30"/>
      </g>
     </g>
    </g>
    <g id="ytick_3">
     <g id="line2d_7">
      <g>
       <use style="stroke:#000000;stroke-width:0.8;" x="135" xlink:href="#mac1b889eaf" y="138.119713"/>
      </g>
     </g>
     <g id="text_7">
      <!-- 1000 -->
      <g transform="translate(102.55 141.918931)scale(0.1 -0.1)">
       <use xlink:href="#DejaVuSans-31"/>
       <use x="63.623047" xlink:href="#DejaVuSans-30"/>
       <use x="127.246094" xlink:href="#DejaVuSans-30"/>
       <use x="190.869141" xlink:href="#DejaVuSans-30"/>
      </g>
     </g>
    </g>
    <g id="ytick_4">
     <g id="line2d_8">
      <g>
       <use style="stroke:#000000;stroke-width:0.8;" x="135" xlink:href="#mac1b889eaf" y="113.394138"/>
      </g>
     </g>
     <g id="text_8">
      <!-- 1500 -->
      <g transform="translate(102.55 117.193357)scale(0.1 -0.1)">
       <use xlink:href="#DejaVuSans-31"/>
       <use x="63.623047" xlink:href="#DejaVuSans-35"/>
       <use x="127.246094" xlink:href="#DejaVuSans-30"/>
       <use x="190.869141" xlink:href="#DejaVuSans-30"/>
      </g>
     </g>
    </g>
    <g id="ytick_5">
     <g id="line2d_9">
      <g>
       <use style="stroke:#000000;stroke-width:0.8;" x="135" xlink:href="#mac1b889eaf" y="88.668563"/>
      </g>
     </g>
     <g id="text_9">
      <!-- 2000 -->
      <defs>
       <path d="M 19.1875 8.296875 
L 53.609375 8.296875 
L 53.609375 0 
L 7.328125 0 
L 7.328125 8.296875 
Q 12.9375 14.109375 22.625 23.890625 
Q 32.328125 33.6875 34.8125 36.53125 
Q 39.546875 41.84375 41.421875 45.53125 
Q 43.3125 49.21875 43.3125 52.78125 
Q 43.3125 58.59375 39.234375 62.25 
Q 35.15625 65.921875 28.609375 65.921875 
Q 23.96875 65.921875 18.8125 64.3125 
Q 13.671875 62.703125 7.8125 59.421875 
L 7.8125 69.390625 
Q 13.765625 71.78125 18.9375 73 
Q 24.125 74.21875 28.421875 74.21875 
Q 39.75 74.21875 46.484375 68.546875 
Q 53.21875 62.890625 53.21875 53.421875 
Q 53.21875 48.921875 51.53125 44.890625 
Q 49.859375 40.875 45.40625 35.40625 
Q 44.1875 33.984375 37.640625 27.21875 
Q 31.109375 20.453125 19.1875 8.296875 
z
" id="DejaVuSans-32"/>
      </defs>
      <g transform="translate(102.55 92.467782)scale(0.1 -0.1)">
       <use xlink:href="#DejaVuSans-32"/>
       <use x="63.623047" xlink:href="#DejaVuSans-30"/>
       <use x="127.246094" xlink:href="#DejaVuSans-30"/>
       <use x="190.869141" xlink:href="#DejaVuSans-30"/>
      </g>
     </g>
    </g>
    <g id="ytick_6">
     <g id="line2d_10">
      <g>
       <use style="stroke:#000000;stroke-width:0.8;" x="135" xlink:href="#mac1b889eaf" y="63.942989"/>
      </g>
     </g>
     <g id="text_10">
      <!-- 2500 -->
      <g transform="translate(102.55 67.742207)scale(0.1 -0.1)">
       <use xlink:href="#DejaVuSans-32"/>
       <use x="63.623047" xlink:href="#DejaVuSans-35"/>
       <use x="127.246094" xlink:href="#DejaVuSans-30"/>
       <use x="190.869141" xlink:href="#DejaVuSans-30"/>
      </g>
     </g>
    </g>
    <g id="ytick_7">
     <g id="line2d_11">
      <g>
       <use style="stroke:#000000;stroke-width:0.8;" x="135" xlink:href="#mac1b889eaf" y="39.217414"/>
      </g>
     </g>
     <g id="text_11">
      <!-- 3000 -->
      <defs>
       <path d="M 40.578125 39.3125 
Q 47.65625 37.796875 51.625 33 
Q 55.609375 28.21875 55.609375 21.1875 
Q 55.609375 10.40625 48.1875 4.484375 
Q 40.765625 -1.421875 27.09375 -1.421875 
Q 22.515625 -1.421875 17.65625 -0.515625 
Q 12.796875 0.390625 7.625 2.203125 
L 7.625 11.71875 
Q 11.71875 9.328125 16.59375 8.109375 
Q 21.484375 6.890625 26.8125 6.890625 
Q 36.078125 6.890625 40.9375 10.546875 
Q 45.796875 14.203125 45.796875 21.1875 
Q 45.796875 27.640625 41.28125 31.265625 
Q 36.765625 34.90625 28.71875 34.90625 
L 20.21875 34.90625 
L 20.21875 43.015625 
L 29.109375 43.015625 
Q 36.375 43.015625 40.234375 45.921875 
Q 44.09375 48.828125 44.09375 54.296875 
Q 44.09375 59.90625 40.109375 62.90625 
Q 36.140625 65.921875 28.71875 65.921875 
Q 24.65625 65.921875 20.015625 65.03125 
Q 15.375 64.15625 9.8125 62.3125 
L 9.8125 71.09375 
Q 15.4375 72.65625 20.34375 73.4375 
Q 25.25 74.21875 29.59375 74.21875 
Q 40.828125 74.21875 47.359375 69.109375 
Q 53.90625 64.015625 53.90625 55.328125 
Q 53.90625 49.265625 50.4375 45.09375 
Q 46.96875 40.921875 40.578125 39.3125 
z
" id="DejaVuSans-33"/>
      </defs>
      <g transform="translate(102.55 43.016633)scale(0.1 -0.1)">
       <use xlink:href="#DejaVuSans-33"/>
       <use x="63.623047" xlink:href="#DejaVuSans-30"/>
       <use x="127.246094" xlink:href="#DejaVuSans-30"/>
       <use x="190.869141" xlink:href="#DejaVuSans-30"/>
      </g>
     </g>
    </g>
   </g>
   <g id="line2d_12">
    <path clip-path="url(#pf8876e4eb0)" d="M 141.917355 181.587273 
L 144.179635 181.48837 
L 144.440667 181.438919 
L 146.354904 181.340017 
L 146.615936 181.290566 
L 148.269141 181.191664 
L 148.530173 181.142212 
L 149.922345 181.04331 
L 150.183378 180.993859 
L 152.184625 180.894957 
L 152.445657 180.845505 
L 154.272883 180.746603 
L 154.533915 180.697152 
L 156.274131 180.59825 
L 156.535163 180.548799 
L 158.014346 180.449896 
L 158.275378 180.400445 
L 160.102604 180.301543 
L 160.363636 180.252092 
L 162.364884 180.153189 
L 162.625916 180.103738 
L 163.931077 180.004836 
L 164.19211 179.955385 
L 166.193357 179.856483 
L 166.45439 179.807031 
L 167.585529 179.708129 
L 167.846562 179.658678 
L 169.151723 179.559776 
L 169.412755 179.510324 
L 170.891938 179.411422 
L 171.152971 179.361971 
L 172.545143 179.263069 
L 172.893186 179.164166 
L 173.502261 179.065264 
L 173.763293 179.015813 
L 174.981444 178.916911 
L 175.242476 178.86746 
L 176.460627 178.768557 
L 176.80867 178.669655 
L 177.93981 178.570753 
L 178.200842 178.521301 
L 179.15796 178.422399 
L 179.418993 178.372948 
L 180.376111 178.274046 
L 180.811165 178.125692 
L 182.290348 178.02679 
L 182.55138 177.977339 
L 183.247466 177.878437 
L 183.508498 177.828985 
L 184.117574 177.730083 
L 184.378606 177.680632 
L 185.857789 177.58173 
L 186.118821 177.532278 
L 187.16295 177.433376 
L 187.423983 177.383925 
L 188.381101 177.285023 
L 188.642133 177.235572 
L 189.512241 177.136669 
L 189.860284 177.037767 
L 190.295338 176.938865 
L 190.55637 176.889414 
L 191.339467 176.790511 
L 191.774521 176.642158 
L 192.90566 176.543256 
L 193.166693 176.493804 
L 194.0368 176.394902 
L 194.384843 176.296 
L 195.341962 176.197097 
L 195.690005 176.098195 
L 196.386091 175.999293 
L 196.734134 175.900391 
L 197.343209 175.801488 
L 197.865274 175.603684 
L 198.64837 175.504781 
L 198.909403 175.45533 
L 199.953532 175.356428 
L 200.301575 175.257526 
L 201.171683 175.158623 
L 201.606736 175.01027 
L 202.128801 174.911368 
L 202.563855 174.763014 
L 203.346952 174.664112 
L 203.694995 174.56521 
L 204.130048 174.466307 
L 204.478091 174.367405 
L 205.087167 174.268503 
L 205.348199 174.219051 
L 205.870264 174.120149 
L 206.131296 174.070698 
L 206.392328 173.971796 
L 206.65336 173.922345 
L 207.088414 173.823442 
L 207.523468 173.675089 
L 208.132543 173.625638 
L 208.306565 173.526735 
L 209.437705 173.427833 
L 209.611726 173.328931 
L 210.220801 173.230029 
L 210.742866 173.032224 
L 211.351941 172.933322 
L 211.699984 172.834419 
L 212.657103 172.735517 
L 212.918135 172.587164 
L 213.788243 172.488261 
L 214.049275 172.43881 
L 214.571339 172.389359 
L 214.745361 172.290457 
L 215.180415 172.191554 
L 215.354436 172.092652 
L 215.78949 171.99375 
L 216.137533 171.894847 
L 216.485576 171.795945 
L 216.746608 171.647592 
L 217.268673 171.548689 
L 217.616716 171.449787 
L 218.225791 171.350885 
L 218.573834 171.251983 
L 219.008888 171.202531 
L 219.18291 171.103629 
L 219.878996 171.004727 
L 220.053017 170.905824 
L 220.575082 170.806922 
L 221.010136 170.658569 
L 221.619211 170.559666 
L 222.054265 170.411313 
L 223.011383 170.312411 
L 223.359426 170.213508 
L 223.533448 170.114606 
L 224.403555 169.718997 
L 224.577577 169.718997 
L 224.751598 169.521192 
L 225.273663 169.323388 
L 225.621706 169.224485 
L 226.665835 168.729974 
L 227.013878 168.631072 
L 227.361921 168.383816 
L 227.622953 168.334365 
L 228.493061 168.235462 
L 229.450179 167.790402 
L 229.624201 167.740951 
L 229.798222 167.642049 
L 230.320287 167.543146 
L 230.929362 167.295891 
L 231.364416 167.196988 
L 232.060502 166.900281 
L 232.321534 166.801379 
L 233.278653 166.356319 
L 233.974739 166.257416 
L 234.14876 166.207965 
L 234.322782 165.911258 
L 234.583814 165.861807 
L 234.844846 165.614552 
L 236.585062 164.724431 
L 236.846094 164.625529 
L 237.977234 164.081566 
L 238.325277 163.982664 
L 241.544675 162.251873 
L 242.15375 162.152971 
L 242.936847 161.65846 
L 243.28489 161.213399 
L 244.067987 160.867241 
L 244.242008 160.81779 
L 244.503041 160.669437 
L 244.677062 160.619985 
L 245.286138 160.026572 
L 245.808202 159.927669 
L 246.069234 159.779316 
L 246.243256 159.53206 
L 246.504288 159.334256 
L 246.852331 159.235353 
L 247.287385 158.938646 
L 247.461407 158.790293 
L 247.722439 158.691391 
L 247.983471 158.543037 
L 248.244503 158.196879 
L 249.114611 157.306758 
L 249.201622 157.306758 
L 249.375643 156.9606 
L 249.549665 156.911149 
L 250.071729 156.416638 
L 250.332762 156.317735 
L 250.680805 156.218833 
L 250.941837 156.169382 
L 251.202869 155.922126 
L 251.724934 155.180359 
L 251.898955 154.735299 
L 252.159988 154.290238 
L 252.42102 154.141885 
L 252.595041 153.845178 
L 252.769063 153.795727 
L 253.204117 153.449569 
L 253.813192 153.202313 
L 254.074224 153.152862 
L 255.031343 151.174816 
L 257.206612 148.850612 
L 258.16373 148.306649 
L 258.337751 147.663784 
L 258.424762 147.614333 
L 258.598784 147.169273 
L 259.033838 146.62531 
L 259.207859 146.575859 
L 259.903945 145.191227 
L 260.164977 144.746167 
L 260.338999 144.597813 
L 260.600031 143.856046 
L 260.774053 143.856046 
L 261.209107 143.312083 
L 262.166225 142.075804 
L 262.7753 141.03733 
L 262.949322 140.295563 
L 263.210354 140.14721 
L 263.645408 139.158187 
L 264.080462 138.86148 
L 264.428505 138.070261 
L 264.776548 137.031787 
L 265.211601 136.141667 
L 265.472634 135.103192 
L 265.646655 134.954839 
L 265.907688 134.114169 
L 265.994698 134.064718 
L 266.255731 133.471305 
L 266.429752 133.224049 
L 266.603774 132.185575 
L 266.951817 131.443807 
L 267.125838 130.553687 
L 267.29986 130.454784 
L 267.473881 130.25698 
L 267.908935 127.388813 
L 268.082956 127.191009 
L 269.040075 123.729428 
L 269.301107 123.630526 
L 269.475129 123.38327 
L 269.736161 123.136014 
L 269.910182 122.740405 
L 270.084204 122.443698 
L 270.258225 121.998638 
L 270.345236 121.998638 
L 271.389365 117.745839 
L 271.998441 116.015049 
L 272.172462 115.322733 
L 272.259473 115.026026 
L 272.433494 113.789747 
L 272.607516 113.690845 
L 272.868548 112.009506 
L 273.04257 111.712799 
L 273.912677 105.481954 
L 274.086699 103.306103 
L 274.17371 103.207201 
L 274.869796 98.509342 
L 275.043817 97.174161 
L 275.130828 97.025808 
L 275.30485 94.10819 
L 275.39186 93.959836 
L 275.652893 92.970813 
L 275.913925 92.179595 
L 276.174957 89.212526 
L 276.610011 87.382833 
L 276.784032 84.514667 
L 276.871043 84.366313 
L 277.045065 83.228937 
L 277.132075 83.130035 
L 277.393108 82.338816 
L 277.480119 82.338816 
L 277.65414 77.640957 
L 277.741151 77.640957 
L 277.915172 76.553032 
L 278.002183 76.503581 
L 278.437237 71.657368 
L 278.524248 71.607917 
L 278.611258 71.360661 
L 278.698269 68.888104 
L 278.872291 61.470431 
L 279.046312 54.052759 
L 279.220334 49.3549 
L 279.655387 43.222957 
L 279.829409 39.662474 
L 280.003431 34.816262 
L 280.177452 34.32175 
L 280.264463 33.332727 
L 280.264463 33.332727 
" style="fill:none;stroke:#1f77b4;stroke-linecap:square;stroke-width:1.5;"/>
   </g>
   <g id="patch_3">
    <path d="M 135 189 
L 135 25.92 
" style="fill:none;stroke:#000000;stroke-linecap:square;stroke-linejoin:miter;stroke-width:0.8;"/>
   </g>
   <g id="patch_4">
    <path d="M 287.181818 189 
L 287.181818 25.92 
" style="fill:none;stroke:#000000;stroke-linecap:square;stroke-linejoin:miter;stroke-width:0.8;"/>
   </g>
   <g id="patch_5">
    <path d="M 135 189 
L 287.181818 189 
" style="fill:none;stroke:#000000;stroke-linecap:square;stroke-linejoin:miter;stroke-width:0.8;"/>
   </g>
   <g id="patch_6">
    <path d="M 135 25.92 
L 287.181818 25.92 
" style="fill:none;stroke:#000000;stroke-linecap:square;stroke-linejoin:miter;stroke-width:0.8;"/>
   </g>
   <g id="text_12">
    <!-- sorted plot -->
    <defs>
     <path d="M 44.28125 53.078125 
L 44.28125 44.578125 
Q 40.484375 46.53125 36.375 47.5 
Q 32.28125 48.484375 27.875 48.484375 
Q 21.1875 48.484375 17.84375 46.4375 
Q 14.5 44.390625 14.5 40.28125 
Q 14.5 37.15625 16.890625 35.375 
Q 19.28125 33.59375 26.515625 31.984375 
L 29.59375 31.296875 
Q 39.15625 29.25 43.1875 25.515625 
Q 47.21875 21.78125 47.21875 15.09375 
Q 47.21875 7.46875 41.1875 3.015625 
Q 35.15625 -1.421875 24.609375 -1.421875 
Q 20.21875 -1.421875 15.453125 -0.5625 
Q 10.6875 0.296875 5.421875 2 
L 5.421875 11.28125 
Q 10.40625 8.6875 15.234375 7.390625 
Q 20.0625 6.109375 24.8125 6.109375 
Q 31.15625 6.109375 34.5625 8.28125 
Q 37.984375 10.453125 37.984375 14.40625 
Q 37.984375 18.0625 35.515625 20.015625 
Q 33.0625 21.96875 24.703125 23.78125 
L 21.578125 24.515625 
Q 13.234375 26.265625 9.515625 29.90625 
Q 5.8125 33.546875 5.8125 39.890625 
Q 5.8125 47.609375 11.28125 51.796875 
Q 16.75 56 26.8125 56 
Q 31.78125 56 36.171875 55.265625 
Q 40.578125 54.546875 44.28125 53.078125 
z
" id="DejaVuSans-73"/>
     <path d="M 30.609375 48.390625 
Q 23.390625 48.390625 19.1875 42.75 
Q 14.984375 37.109375 14.984375 27.296875 
Q 14.984375 17.484375 19.15625 11.84375 
Q 23.34375 6.203125 30.609375 6.203125 
Q 37.796875 6.203125 41.984375 11.859375 
Q 46.1875 17.53125 46.1875 27.296875 
Q 46.1875 37.015625 41.984375 42.703125 
Q 37.796875 48.390625 30.609375 48.390625 
z
M 30.609375 56 
Q 42.328125 56 49.015625 48.375 
Q 55.71875 40.765625 55.71875 27.296875 
Q 55.71875 13.875 49.015625 6.21875 
Q 42.328125 -1.421875 30.609375 -1.421875 
Q 18.84375 -1.421875 12.171875 6.21875 
Q 5.515625 13.875 5.515625 27.296875 
Q 5.515625 40.765625 12.171875 48.375 
Q 18.84375 56 30.609375 56 
z
" id="DejaVuSans-6f"/>
     <path d="M 41.109375 46.296875 
Q 39.59375 47.171875 37.8125 47.578125 
Q 36.03125 48 33.890625 48 
Q 26.265625 48 22.1875 43.046875 
Q 18.109375 38.09375 18.109375 28.8125 
L 18.109375 0 
L 9.078125 0 
L 9.078125 54.6875 
L 18.109375 54.6875 
L 18.109375 46.1875 
Q 20.953125 51.171875 25.484375 53.578125 
Q 30.03125 56 36.53125 56 
Q 37.453125 56 38.578125 55.875 
Q 39.703125 55.765625 41.0625 55.515625 
z
" id="DejaVuSans-72"/>
     <path d="M 18.3125 70.21875 
L 18.3125 54.6875 
L 36.8125 54.6875 
L 36.8125 47.703125 
L 18.3125 47.703125 
L 18.3125 18.015625 
Q 18.3125 11.328125 20.140625 9.421875 
Q 21.96875 7.515625 27.59375 7.515625 
L 36.8125 7.515625 
L 36.8125 0 
L 27.59375 0 
Q 17.1875 0 13.234375 3.875 
Q 9.28125 7.765625 9.28125 18.015625 
L 9.28125 47.703125 
L 2.6875 47.703125 
L 2.6875 54.6875 
L 9.28125 54.6875 
L 9.28125 70.21875 
z
" id="DejaVuSans-74"/>
     <path d="M 56.203125 29.59375 
L 56.203125 25.203125 
L 14.890625 25.203125 
Q 15.484375 15.921875 20.484375 11.0625 
Q 25.484375 6.203125 34.421875 6.203125 
Q 39.59375 6.203125 44.453125 7.46875 
Q 49.3125 8.734375 54.109375 11.28125 
L 54.109375 2.78125 
Q 49.265625 0.734375 44.1875 -0.34375 
Q 39.109375 -1.421875 33.890625 -1.421875 
Q 20.796875 -1.421875 13.15625 6.1875 
Q 5.515625 13.8125 5.515625 26.8125 
Q 5.515625 40.234375 12.765625 48.109375 
Q 20.015625 56 32.328125 56 
Q 43.359375 56 49.78125 48.890625 
Q 56.203125 41.796875 56.203125 29.59375 
z
M 47.21875 32.234375 
Q 47.125 39.59375 43.09375 43.984375 
Q 39.0625 48.390625 32.421875 48.390625 
Q 24.90625 48.390625 20.390625 44.140625 
Q 15.875 39.890625 15.1875 32.171875 
z
" id="DejaVuSans-65"/>
     <path d="M 45.40625 46.390625 
L 45.40625 75.984375 
L 54.390625 75.984375 
L 54.390625 0 
L 45.40625 0 
L 45.40625 8.203125 
Q 42.578125 3.328125 38.25 0.953125 
Q 33.9375 -1.421875 27.875 -1.421875 
Q 17.96875 -1.421875 11.734375 6.484375 
Q 5.515625 14.40625 5.515625 27.296875 
Q 5.515625 40.1875 11.734375 48.09375 
Q 17.96875 56 27.875 56 
Q 33.9375 56 38.25 53.625 
Q 42.578125 51.265625 45.40625 46.390625 
z
M 14.796875 27.296875 
Q 14.796875 17.390625 18.875 11.75 
Q 22.953125 6.109375 30.078125 6.109375 
Q 37.203125 6.109375 41.296875 11.75 
Q 45.40625 17.390625 45.40625 27.296875 
Q 45.40625 37.203125 41.296875 42.84375 
Q 37.203125 48.484375 30.078125 48.484375 
Q 22.953125 48.484375 18.875 42.84375 
Q 14.796875 37.203125 14.796875 27.296875 
z
" id="DejaVuSans-64"/>
     <path id="DejaVuSans-20"/>
     <path d="M 18.109375 8.203125 
L 18.109375 -20.796875 
L 9.078125 -20.796875 
L 9.078125 54.6875 
L 18.109375 54.6875 
L 18.109375 46.390625 
Q 20.953125 51.265625 25.265625 53.625 
Q 29.59375 56 35.59375 56 
Q 45.5625 56 51.78125 48.09375 
Q 58.015625 40.1875 58.015625 27.296875 
Q 58.015625 14.40625 51.78125 6.484375 
Q 45.5625 -1.421875 35.59375 -1.421875 
Q 29.59375 -1.421875 25.265625 0.953125 
Q 20.953125 3.328125 18.109375 8.203125 
z
M 48.6875 27.296875 
Q 48.6875 37.203125 44.609375 42.84375 
Q 40.53125 48.484375 33.40625 48.484375 
Q 26.265625 48.484375 22.1875 42.84375 
Q 18.109375 37.203125 18.109375 27.296875 
Q 18.109375 17.390625 22.1875 11.75 
Q 26.265625 6.109375 33.40625 6.109375 
Q 40.53125 6.109375 44.609375 11.75 
Q 48.6875 17.390625 48.6875 27.296875 
z
" id="DejaVuSans-70"/>
     <path d="M 9.421875 75.984375 
L 18.40625 75.984375 
L 18.40625 0 
L 9.421875 0 
z
" id="DejaVuSans-6c"/>
    </defs>
    <g transform="translate(178.568097 19.92)scale(0.12 -0.12)">
     <use xlink:href="#DejaVuSans-73"/>
     <use x="52.099609" xlink:href="#DejaVuSans-6f"/>
     <use x="113.28125" xlink:href="#DejaVuSans-72"/>
     <use x="154.394531" xlink:href="#DejaVuSans-74"/>
     <use x="193.603516" xlink:href="#DejaVuSans-65"/>
     <use x="255.126953" xlink:href="#DejaVuSans-64"/>
     <use x="318.603516" xlink:href="#DejaVuSans-20"/>
     <use x="350.390625" xlink:href="#DejaVuSans-70"/>
     <use x="413.867188" xlink:href="#DejaVuSans-6c"/>
     <use x="441.650391" xlink:href="#DejaVuSans-6f"/>
     <use x="502.832031" xlink:href="#DejaVuSans-74"/>
    </g>
   </g>
  </g>
  <g id="axes_2">
   <g id="patch_7">
    <path d="M 363.272727 189 
L 972 189 
L 972 25.92 
L 363.272727 25.92 
z
" style="fill:#ffffff;"/>
   </g>
   <g id="matplotlib.axis_3">
    <g id="xtick_5">
     <g id="line2d_13">
      <g>
       <use style="stroke:#000000;stroke-width:0.8;" x="368.607259" xlink:href="#m7ce474449e" y="189"/>
      </g>
     </g>
     <g id="text_13">
      <!-- 0 -->
      <g transform="translate(365.426009 203.598437)scale(0.1 -0.1)">
       <use xlink:href="#DejaVuSans-30"/>
      </g>
     </g>
    </g>
    <g id="xtick_6">
     <g id="line2d_14">
      <g>
       <use style="stroke:#000000;stroke-width:0.8;" x="460.900192" xlink:href="#m7ce474449e" y="189"/>
      </g>
     </g>
     <g id="text_14">
      <!-- 500 -->
      <g transform="translate(451.356442 203.598437)scale(0.1 -0.1)">
       <use xlink:href="#DejaVuSans-35"/>
       <use x="63.623047" xlink:href="#DejaVuSans-30"/>
       <use x="127.246094" xlink:href="#DejaVuSans-30"/>
      </g>
     </g>
    </g>
    <g id="xtick_7">
     <g id="line2d_15">
      <g>
       <use style="stroke:#000000;stroke-width:0.8;" x="553.193126" xlink:href="#m7ce474449e" y="189"/>
      </g>
     </g>
     <g id="text_15">
      <!-- 1000 -->
      <g transform="translate(540.468126 203.598437)scale(0.1 -0.1)">
       <use xlink:href="#DejaVuSans-31"/>
       <use x="63.623047" xlink:href="#DejaVuSans-30"/>
       <use x="127.246094" xlink:href="#DejaVuSans-30"/>
       <use x="190.869141" xlink:href="#DejaVuSans-30"/>
      </g>
     </g>
    </g>
    <g id="xtick_8">
     <g id="line2d_16">
      <g>
       <use style="stroke:#000000;stroke-width:0.8;" x="645.48606" xlink:href="#m7ce474449e" y="189"/>
      </g>
     </g>
     <g id="text_16">
      <!-- 1500 -->
      <g transform="translate(632.76106 203.598437)scale(0.1 -0.1)">
       <use xlink:href="#DejaVuSans-31"/>
       <use x="63.623047" xlink:href="#DejaVuSans-35"/>
       <use x="127.246094" xlink:href="#DejaVuSans-30"/>
       <use x="190.869141" xlink:href="#DejaVuSans-30"/>
      </g>
     </g>
    </g>
    <g id="xtick_9">
     <g id="line2d_17">
      <g>
       <use style="stroke:#000000;stroke-width:0.8;" x="737.778993" xlink:href="#m7ce474449e" y="189"/>
      </g>
     </g>
     <g id="text_17">
      <!-- 2000 -->
      <g transform="translate(725.053993 203.598437)scale(0.1 -0.1)">
       <use xlink:href="#DejaVuSans-32"/>
       <use x="63.623047" xlink:href="#DejaVuSans-30"/>
       <use x="127.246094" xlink:href="#DejaVuSans-30"/>
       <use x="190.869141" xlink:href="#DejaVuSans-30"/>
      </g>
     </g>
    </g>
    <g id="xtick_10">
     <g id="line2d_18">
      <g>
       <use style="stroke:#000000;stroke-width:0.8;" x="830.071927" xlink:href="#m7ce474449e" y="189"/>
      </g>
     </g>
     <g id="text_18">
      <!-- 2500 -->
      <g transform="translate(817.346927 203.598437)scale(0.1 -0.1)">
       <use xlink:href="#DejaVuSans-32"/>
       <use x="63.623047" xlink:href="#DejaVuSans-35"/>
       <use x="127.246094" xlink:href="#DejaVuSans-30"/>
       <use x="190.869141" xlink:href="#DejaVuSans-30"/>
      </g>
     </g>
    </g>
    <g id="xtick_11">
     <g id="line2d_19">
      <g>
       <use style="stroke:#000000;stroke-width:0.8;" x="922.36486" xlink:href="#m7ce474449e" y="189"/>
      </g>
     </g>
     <g id="text_19">
      <!-- 3000 -->
      <g transform="translate(909.63986 203.598437)scale(0.1 -0.1)">
       <use xlink:href="#DejaVuSans-33"/>
       <use x="63.623047" xlink:href="#DejaVuSans-30"/>
       <use x="127.246094" xlink:href="#DejaVuSans-30"/>
       <use x="190.869141" xlink:href="#DejaVuSans-30"/>
      </g>
     </g>
    </g>
   </g>
   <g id="matplotlib.axis_4">
    <g id="ytick_8">
     <g id="line2d_20">
      <g>
       <use style="stroke:#000000;stroke-width:0.8;" x="363.272727" xlink:href="#mac1b889eaf" y="107.46"/>
      </g>
     </g>
     <g id="text_20">
      <!-- 1 -->
      <g transform="translate(349.910227 111.259219)scale(0.1 -0.1)">
       <use xlink:href="#DejaVuSans-31"/>
      </g>
     </g>
    </g>
   </g>
   <g id="line2d_21">
    <path clip-path="url(#pba3c88ed5a)" d="M 401.555836 119.691 
L 401.555836 95.229 
L 420.295583 95.229 
L 423.06009 101.3445 
L 425.824596 95.229 
L 471.790759 95.229 
L 471.790759 119.691 
L 425.824596 119.691 
L 423.06009 113.5755 
L 420.295583 119.691 
L 401.555836 119.691 
" style="fill:none;stroke:#000000;stroke-linecap:square;"/>
   </g>
   <g id="line2d_22">
    <path clip-path="url(#pba3c88ed5a)" d="M 401.555836 107.46 
L 390.942149 107.46 
" style="fill:none;stroke:#000000;stroke-linecap:square;"/>
   </g>
   <g id="line2d_23">
    <path clip-path="url(#pba3c88ed5a)" d="M 471.790759 107.46 
L 611.706846 107.46 
" style="fill:none;stroke:#000000;stroke-linecap:square;"/>
   </g>
   <g id="line2d_24">
    <path clip-path="url(#pba3c88ed5a)" d="M 390.942149 113.5755 
L 390.942149 101.3445 
" style="fill:none;stroke:#000000;stroke-linecap:square;"/>
   </g>
   <g id="line2d_25">
    <path clip-path="url(#pba3c88ed5a)" d="M 611.706846 113.5755 
L 611.706846 101.3445 
" style="fill:none;stroke:#000000;stroke-linecap:square;"/>
   </g>
   <g id="line2d_26">
    <defs>
     <path d="M 0 3 
C 0.795609 3 1.55874 2.683901 2.12132 2.12132 
C 2.683901 1.55874 3 0.795609 3 0 
C 3 -0.795609 2.683901 -1.55874 2.12132 -2.12132 
C 1.55874 -2.683901 0.795609 -3 0 -3 
C -0.795609 -3 -1.55874 -2.683901 -2.12132 -2.12132 
C -2.683901 -1.55874 -3 -0.795609 -3 0 
C -3 0.795609 -2.683901 1.55874 -2.12132 2.12132 
C -1.55874 2.683901 -0.795609 3 0 3 
z
" id="m20f7d0fff5" style="stroke:#000000;"/>
    </defs>
    <g clip-path="url(#pba3c88ed5a)">
     <use style="fill:none;stroke:#000000;" x="613.183533" xlink:href="#m20f7d0fff5" y="107.46"/>
     <use style="fill:none;stroke:#000000;" x="613.368119" xlink:href="#m20f7d0fff5" y="107.46"/>
     <use style="fill:none;stroke:#000000;" x="613.368119" xlink:href="#m20f7d0fff5" y="107.46"/>
     <use style="fill:none;stroke:#000000;" x="614.844806" xlink:href="#m20f7d0fff5" y="107.46"/>
     <use style="fill:none;stroke:#000000;" x="616.87525" xlink:href="#m20f7d0fff5" y="107.46"/>
     <use style="fill:none;stroke:#000000;" x="617.429008" xlink:href="#m20f7d0fff5" y="107.46"/>
     <use style="fill:none;stroke:#000000;" x="619.090281" xlink:href="#m20f7d0fff5" y="107.46"/>
     <use style="fill:none;stroke:#000000;" x="620.197796" xlink:href="#m20f7d0fff5" y="107.46"/>
     <use style="fill:none;stroke:#000000;" x="620.566968" xlink:href="#m20f7d0fff5" y="107.46"/>
     <use style="fill:none;stroke:#000000;" x="622.966584" xlink:href="#m20f7d0fff5" y="107.46"/>
     <use style="fill:none;stroke:#000000;" x="626.104544" xlink:href="#m20f7d0fff5" y="107.46"/>
     <use style="fill:none;stroke:#000000;" x="626.658301" xlink:href="#m20f7d0fff5" y="107.46"/>
     <use style="fill:none;stroke:#000000;" x="627.58123" xlink:href="#m20f7d0fff5" y="107.46"/>
     <use style="fill:none;stroke:#000000;" x="627.765816" xlink:href="#m20f7d0fff5" y="107.46"/>
     <use style="fill:none;stroke:#000000;" x="629.242503" xlink:href="#m20f7d0fff5" y="107.46"/>
     <use style="fill:none;stroke:#000000;" x="630.165433" xlink:href="#m20f7d0fff5" y="107.46"/>
     <use style="fill:none;stroke:#000000;" x="631.64212" xlink:href="#m20f7d0fff5" y="107.46"/>
     <use style="fill:none;stroke:#000000;" x="631.64212" xlink:href="#m20f7d0fff5" y="107.46"/>
     <use style="fill:none;stroke:#000000;" x="633.487978" xlink:href="#m20f7d0fff5" y="107.46"/>
     <use style="fill:none;stroke:#000000;" x="634.041736" xlink:href="#m20f7d0fff5" y="107.46"/>
     <use style="fill:none;stroke:#000000;" x="634.410908" xlink:href="#m20f7d0fff5" y="107.46"/>
     <use style="fill:none;stroke:#000000;" x="635.703009" xlink:href="#m20f7d0fff5" y="107.46"/>
     <use style="fill:none;stroke:#000000;" x="638.102625" xlink:href="#m20f7d0fff5" y="107.46"/>
     <use style="fill:none;stroke:#000000;" x="638.287211" xlink:href="#m20f7d0fff5" y="107.46"/>
     <use style="fill:none;stroke:#000000;" x="639.394726" xlink:href="#m20f7d0fff5" y="107.46"/>
     <use style="fill:none;stroke:#000000;" x="644.009373" xlink:href="#m20f7d0fff5" y="107.46"/>
     <use style="fill:none;stroke:#000000;" x="644.009373" xlink:href="#m20f7d0fff5" y="107.46"/>
     <use style="fill:none;stroke:#000000;" x="644.009373" xlink:href="#m20f7d0fff5" y="107.46"/>
     <use style="fill:none;stroke:#000000;" x="644.378544" xlink:href="#m20f7d0fff5" y="107.46"/>
     <use style="fill:none;stroke:#000000;" x="647.885676" xlink:href="#m20f7d0fff5" y="107.46"/>
     <use style="fill:none;stroke:#000000;" x="649.546949" xlink:href="#m20f7d0fff5" y="107.46"/>
     <use style="fill:none;stroke:#000000;" x="650.654464" xlink:href="#m20f7d0fff5" y="107.46"/>
     <use style="fill:none;stroke:#000000;" x="651.208221" xlink:href="#m20f7d0fff5" y="107.46"/>
     <use style="fill:none;stroke:#000000;" x="651.761979" xlink:href="#m20f7d0fff5" y="107.46"/>
     <use style="fill:none;stroke:#000000;" x="654.161595" xlink:href="#m20f7d0fff5" y="107.46"/>
     <use style="fill:none;stroke:#000000;" x="658.40707" xlink:href="#m20f7d0fff5" y="107.46"/>
     <use style="fill:none;stroke:#000000;" x="660.252929" xlink:href="#m20f7d0fff5" y="107.46"/>
     <use style="fill:none;stroke:#000000;" x="660.437515" xlink:href="#m20f7d0fff5" y="107.46"/>
     <use style="fill:none;stroke:#000000;" x="665.605919" xlink:href="#m20f7d0fff5" y="107.46"/>
     <use style="fill:none;stroke:#000000;" x="667.636364" xlink:href="#m20f7d0fff5" y="107.46"/>
     <use style="fill:none;stroke:#000000;" x="668.374707" xlink:href="#m20f7d0fff5" y="107.46"/>
     <use style="fill:none;stroke:#000000;" x="671.881839" xlink:href="#m20f7d0fff5" y="107.46"/>
     <use style="fill:none;stroke:#000000;" x="673.358526" xlink:href="#m20f7d0fff5" y="107.46"/>
     <use style="fill:none;stroke:#000000;" x="675.019798" xlink:href="#m20f7d0fff5" y="107.46"/>
     <use style="fill:none;stroke:#000000;" x="682.218647" xlink:href="#m20f7d0fff5" y="107.46"/>
     <use style="fill:none;stroke:#000000;" x="683.141576" xlink:href="#m20f7d0fff5" y="107.46"/>
     <use style="fill:none;stroke:#000000;" x="683.510748" xlink:href="#m20f7d0fff5" y="107.46"/>
     <use style="fill:none;stroke:#000000;" x="685.541193" xlink:href="#m20f7d0fff5" y="107.46"/>
     <use style="fill:none;stroke:#000000;" x="687.202466" xlink:href="#m20f7d0fff5" y="107.46"/>
     <use style="fill:none;stroke:#000000;" x="690.155839" xlink:href="#m20f7d0fff5" y="107.46"/>
     <use style="fill:none;stroke:#000000;" x="692.555456" xlink:href="#m20f7d0fff5" y="107.46"/>
     <use style="fill:none;stroke:#000000;" x="694.401314" xlink:href="#m20f7d0fff5" y="107.46"/>
     <use style="fill:none;stroke:#000000;" x="694.770486" xlink:href="#m20f7d0fff5" y="107.46"/>
     <use style="fill:none;stroke:#000000;" x="695.324244" xlink:href="#m20f7d0fff5" y="107.46"/>
     <use style="fill:none;stroke:#000000;" x="701.046406" xlink:href="#m20f7d0fff5" y="107.46"/>
     <use style="fill:none;stroke:#000000;" x="705.661052" xlink:href="#m20f7d0fff5" y="107.46"/>
     <use style="fill:none;stroke:#000000;" x="706.030224" xlink:href="#m20f7d0fff5" y="107.46"/>
     <use style="fill:none;stroke:#000000;" x="706.583982" xlink:href="#m20f7d0fff5" y="107.46"/>
     <use style="fill:none;stroke:#000000;" x="715.074931" xlink:href="#m20f7d0fff5" y="107.46"/>
     <use style="fill:none;stroke:#000000;" x="717.474548" xlink:href="#m20f7d0fff5" y="107.46"/>
     <use style="fill:none;stroke:#000000;" x="718.028305" xlink:href="#m20f7d0fff5" y="107.46"/>
     <use style="fill:none;stroke:#000000;" x="720.05875" xlink:href="#m20f7d0fff5" y="107.46"/>
     <use style="fill:none;stroke:#000000;" x="721.350851" xlink:href="#m20f7d0fff5" y="107.46"/>
     <use style="fill:none;stroke:#000000;" x="721.720023" xlink:href="#m20f7d0fff5" y="107.46"/>
     <use style="fill:none;stroke:#000000;" x="722.458366" xlink:href="#m20f7d0fff5" y="107.46"/>
     <use style="fill:none;stroke:#000000;" x="724.119639" xlink:href="#m20f7d0fff5" y="107.46"/>
     <use style="fill:none;stroke:#000000;" x="724.673397" xlink:href="#m20f7d0fff5" y="107.46"/>
     <use style="fill:none;stroke:#000000;" x="730.949316" xlink:href="#m20f7d0fff5" y="107.46"/>
     <use style="fill:none;stroke:#000000;" x="735.748549" xlink:href="#m20f7d0fff5" y="107.46"/>
     <use style="fill:none;stroke:#000000;" x="735.748549" xlink:href="#m20f7d0fff5" y="107.46"/>
     <use style="fill:none;stroke:#000000;" x="736.856064" xlink:href="#m20f7d0fff5" y="107.46"/>
     <use style="fill:none;stroke:#000000;" x="738.517337" xlink:href="#m20f7d0fff5" y="107.46"/>
     <use style="fill:none;stroke:#000000;" x="739.071094" xlink:href="#m20f7d0fff5" y="107.46"/>
     <use style="fill:none;stroke:#000000;" x="740.547781" xlink:href="#m20f7d0fff5" y="107.46"/>
     <use style="fill:none;stroke:#000000;" x="742.578226" xlink:href="#m20f7d0fff5" y="107.46"/>
     <use style="fill:none;stroke:#000000;" x="750.330832" xlink:href="#m20f7d0fff5" y="107.46"/>
     <use style="fill:none;stroke:#000000;" x="753.284206" xlink:href="#m20f7d0fff5" y="107.46"/>
     <use style="fill:none;stroke:#000000;" x="753.837964" xlink:href="#m20f7d0fff5" y="107.46"/>
     <use style="fill:none;stroke:#000000;" x="757.345095" xlink:href="#m20f7d0fff5" y="107.46"/>
     <use style="fill:none;stroke:#000000;" x="758.083439" xlink:href="#m20f7d0fff5" y="107.46"/>
     <use style="fill:none;stroke:#000000;" x="758.45261" xlink:href="#m20f7d0fff5" y="107.46"/>
     <use style="fill:none;stroke:#000000;" x="759.560125" xlink:href="#m20f7d0fff5" y="107.46"/>
     <use style="fill:none;stroke:#000000;" x="760.113883" xlink:href="#m20f7d0fff5" y="107.46"/>
     <use style="fill:none;stroke:#000000;" x="761.405984" xlink:href="#m20f7d0fff5" y="107.46"/>
     <use style="fill:none;stroke:#000000;" x="761.405984" xlink:href="#m20f7d0fff5" y="107.46"/>
     <use style="fill:none;stroke:#000000;" x="778.387884" xlink:href="#m20f7d0fff5" y="107.46"/>
     <use style="fill:none;stroke:#000000;" x="778.941642" xlink:href="#m20f7d0fff5" y="107.46"/>
     <use style="fill:none;stroke:#000000;" x="778.941642" xlink:href="#m20f7d0fff5" y="107.46"/>
     <use style="fill:none;stroke:#000000;" x="782.817945" xlink:href="#m20f7d0fff5" y="107.46"/>
     <use style="fill:none;stroke:#000000;" x="783.002531" xlink:href="#m20f7d0fff5" y="107.46"/>
     <use style="fill:none;stroke:#000000;" x="783.187116" xlink:href="#m20f7d0fff5" y="107.46"/>
     <use style="fill:none;stroke:#000000;" x="787.986349" xlink:href="#m20f7d0fff5" y="107.46"/>
     <use style="fill:none;stroke:#000000;" x="794.262269" xlink:href="#m20f7d0fff5" y="107.46"/>
     <use style="fill:none;stroke:#000000;" x="794.262269" xlink:href="#m20f7d0fff5" y="107.46"/>
     <use style="fill:none;stroke:#000000;" x="796.292713" xlink:href="#m20f7d0fff5" y="107.46"/>
     <use style="fill:none;stroke:#000000;" x="801.276531" xlink:href="#m20f7d0fff5" y="107.46"/>
     <use style="fill:none;stroke:#000000;" x="801.461117" xlink:href="#m20f7d0fff5" y="107.46"/>
     <use style="fill:none;stroke:#000000;" x="802.384047" xlink:href="#m20f7d0fff5" y="107.46"/>
     <use style="fill:none;stroke:#000000;" x="811.61334" xlink:href="#m20f7d0fff5" y="107.46"/>
     <use style="fill:none;stroke:#000000;" x="838.747462" xlink:href="#m20f7d0fff5" y="107.46"/>
     <use style="fill:none;stroke:#000000;" x="839.30122" xlink:href="#m20f7d0fff5" y="107.46"/>
     <use style="fill:none;stroke:#000000;" x="848.715099" xlink:href="#m20f7d0fff5" y="107.46"/>
     <use style="fill:none;stroke:#000000;" x="866.9891" xlink:href="#m20f7d0fff5" y="107.46"/>
     <use style="fill:none;stroke:#000000;" x="883.417242" xlink:href="#m20f7d0fff5" y="107.46"/>
     <use style="fill:none;stroke:#000000;" x="884.524758" xlink:href="#m20f7d0fff5" y="107.46"/>
     <use style="fill:none;stroke:#000000;" x="888.401061" xlink:href="#m20f7d0fff5" y="107.46"/>
     <use style="fill:none;stroke:#000000;" x="891.908192" xlink:href="#m20f7d0fff5" y="107.46"/>
     <use style="fill:none;stroke:#000000;" x="892.646536" xlink:href="#m20f7d0fff5" y="107.46"/>
     <use style="fill:none;stroke:#000000;" x="895.784495" xlink:href="#m20f7d0fff5" y="107.46"/>
     <use style="fill:none;stroke:#000000;" x="907.413405" xlink:href="#m20f7d0fff5" y="107.46"/>
     <use style="fill:none;stroke:#000000;" x="913.135567" xlink:href="#m20f7d0fff5" y="107.46"/>
     <use style="fill:none;stroke:#000000;" x="920.703588" xlink:href="#m20f7d0fff5" y="107.46"/>
     <use style="fill:none;stroke:#000000;" x="932.701669" xlink:href="#m20f7d0fff5" y="107.46"/>
     <use style="fill:none;stroke:#000000;" x="938.793002" xlink:href="#m20f7d0fff5" y="107.46"/>
     <use style="fill:none;stroke:#000000;" x="939.715932" xlink:href="#m20f7d0fff5" y="107.46"/>
     <use style="fill:none;stroke:#000000;" x="940.638861" xlink:href="#m20f7d0fff5" y="107.46"/>
     <use style="fill:none;stroke:#000000;" x="944.330579" xlink:href="#m20f7d0fff5" y="107.46"/>
    </g>
   </g>
   <g id="line2d_27">
    <path clip-path="url(#pba3c88ed5a)" d="M 423.06009 113.5755 
L 423.06009 101.3445 
" style="fill:none;stroke:#ff7f0e;stroke-linecap:square;"/>
   </g>
   <g id="patch_8">
    <path d="M 363.272727 189 
L 363.272727 25.92 
" style="fill:none;stroke:#000000;stroke-linecap:square;stroke-linejoin:miter;stroke-width:0.8;"/>
   </g>
   <g id="patch_9">
    <path d="M 972 189 
L 972 25.92 
" style="fill:none;stroke:#000000;stroke-linecap:square;stroke-linejoin:miter;stroke-width:0.8;"/>
   </g>
   <g id="patch_10">
    <path d="M 363.272727 189 
L 972 189 
" style="fill:none;stroke:#000000;stroke-linecap:square;stroke-linejoin:miter;stroke-width:0.8;"/>
   </g>
   <g id="patch_11">
    <path d="M 363.272727 25.92 
L 972 25.92 
" style="fill:none;stroke:#000000;stroke-linecap:square;stroke-linejoin:miter;stroke-width:0.8;"/>
   </g>
   <g id="text_21">
    <!-- box-plot -->
    <defs>
     <path d="M 48.6875 27.296875 
Q 48.6875 37.203125 44.609375 42.84375 
Q 40.53125 48.484375 33.40625 48.484375 
Q 26.265625 48.484375 22.1875 42.84375 
Q 18.109375 37.203125 18.109375 27.296875 
Q 18.109375 17.390625 22.1875 11.75 
Q 26.265625 6.109375 33.40625 6.109375 
Q 40.53125 6.109375 44.609375 11.75 
Q 48.6875 17.390625 48.6875 27.296875 
z
M 18.109375 46.390625 
Q 20.953125 51.265625 25.265625 53.625 
Q 29.59375 56 35.59375 56 
Q 45.5625 56 51.78125 48.09375 
Q 58.015625 40.1875 58.015625 27.296875 
Q 58.015625 14.40625 51.78125 6.484375 
Q 45.5625 -1.421875 35.59375 -1.421875 
Q 29.59375 -1.421875 25.265625 0.953125 
Q 20.953125 3.328125 18.109375 8.203125 
L 18.109375 0 
L 9.078125 0 
L 9.078125 75.984375 
L 18.109375 75.984375 
z
" id="DejaVuSans-62"/>
     <path d="M 54.890625 54.6875 
L 35.109375 28.078125 
L 55.90625 0 
L 45.3125 0 
L 29.390625 21.484375 
L 13.484375 0 
L 2.875 0 
L 24.125 28.609375 
L 4.6875 54.6875 
L 15.28125 54.6875 
L 29.78125 35.203125 
L 44.28125 54.6875 
z
" id="DejaVuSans-78"/>
     <path d="M 4.890625 31.390625 
L 31.203125 31.390625 
L 31.203125 23.390625 
L 4.890625 23.390625 
z
" id="DejaVuSans-2d"/>
    </defs>
    <g transform="translate(642.943551 19.92)scale(0.12 -0.12)">
     <use xlink:href="#DejaVuSans-62"/>
     <use x="63.476562" xlink:href="#DejaVuSans-6f"/>
     <use x="124.611328" xlink:href="#DejaVuSans-78"/>
     <use x="183.791016" xlink:href="#DejaVuSans-2d"/>
     <use x="219.875" xlink:href="#DejaVuSans-70"/>
     <use x="283.351562" xlink:href="#DejaVuSans-6c"/>
     <use x="311.134766" xlink:href="#DejaVuSans-6f"/>
     <use x="372.316406" xlink:href="#DejaVuSans-74"/>
    </g>
   </g>
  </g>
 </g>
 <defs>
  <clipPath id="pf8876e4eb0">
   <rect height="163.08" width="152.181818" x="135" y="25.92"/>
  </clipPath>
  <clipPath id="pba3c88ed5a">
   <rect height="163.08" width="608.727273" x="363.272727" y="25.92"/>
  </clipPath>
 </defs>
</svg>
