<?xml version="1.0" encoding="utf-8" standalone="no"?>
<!DOCTYPE svg PUBLIC "-//W3C//DTD SVG 1.1//EN"
  "http://www.w3.org/Graphics/SVG/1.1/DTD/svg11.dtd">
<!-- Created with matplotlib (http://matplotlib.org/) -->
<svg height="216pt" version="1.1" viewBox="0 0 1080 216" width="1080pt" xmlns="http://www.w3.org/2000/svg" xmlns:xlink="http://www.w3.org/1999/xlink">
 <defs>
  <style type="text/css">
*{stroke-linecap:butt;stroke-linejoin:round;}
  </style>
 </defs>
 <g id="figure_1">
  <g id="patch_1">
   <path d="M 0 216 
L 1080 216 
L 1080 0 
L 0 0 
z
" style="fill:#ffffff;"/>
  </g>
  <g id="axes_1">
   <g id="patch_2">
    <path d="M 135 189 
L 287.181818 189 
L 287.181818 25.92 
L 135 25.92 
z
" style="fill:#ffffff;"/>
   </g>
   <g id="matplotlib.axis_1">
    <g id="xtick_1">
     <g id="line2d_1">
      <defs>
       <path d="M 0 0 
L 0 3.5 
" id="m6357611210" style="stroke:#000000;stroke-width:0.8;"/>
      </defs>
      <g>
       <use style="stroke:#000000;stroke-width:0.8;" x="141.917355" xlink:href="#m6357611210" y="189"/>
      </g>
     </g>
     <g id="text_1">
      <!-- 0 -->
      <defs>
       <path d="M 31.78125 66.40625 
Q 24.171875 66.40625 20.328125 58.90625 
Q 16.5 51.421875 16.5 36.375 
Q 16.5 21.390625 20.328125 13.890625 
Q 24.171875 6.390625 31.78125 6.390625 
Q 39.453125 6.390625 43.28125 13.890625 
Q 47.125 21.390625 47.125 36.375 
Q 47.125 51.421875 43.28125 58.90625 
Q 39.453125 66.40625 31.78125 66.40625 
z
M 31.78125 74.21875 
Q 44.046875 74.21875 50.515625 64.515625 
Q 56.984375 54.828125 56.984375 36.375 
Q 56.984375 17.96875 50.515625 8.265625 
Q 44.046875 -1.421875 31.78125 -1.421875 
Q 19.53125 -1.421875 13.0625 8.265625 
Q 6.59375 17.96875 6.59375 36.375 
Q 6.59375 54.828125 13.0625 64.515625 
Q 19.53125 74.21875 31.78125 74.21875 
z
" id="DejaVuSans-30"/>
      </defs>
      <g transform="translate(138.736105 203.598437)scale(0.1 -0.1)">
       <use xlink:href="#DejaVuSans-30"/>
      </g>
     </g>
    </g>
    <g id="xtick_2">
     <g id="line2d_2">
      <g>
       <use style="stroke:#000000;stroke-width:0.8;" x="184.749277" xlink:href="#m6357611210" y="189"/>
      </g>
     </g>
     <g id="text_2">
      <!-- 500 -->
      <defs>
       <path d="M 10.796875 72.90625 
L 49.515625 72.90625 
L 49.515625 64.59375 
L 19.828125 64.59375 
L 19.828125 46.734375 
Q 21.96875 47.46875 24.109375 47.828125 
Q 26.265625 48.1875 28.421875 48.1875 
Q 40.625 48.1875 47.75 41.5 
Q 54.890625 34.8125 54.890625 23.390625 
Q 54.890625 11.625 47.5625 5.09375 
Q 40.234375 -1.421875 26.90625 -1.421875 
Q 22.3125 -1.421875 17.546875 -0.640625 
Q 12.796875 0.140625 7.71875 1.703125 
L 7.71875 11.625 
Q 12.109375 9.234375 16.796875 8.0625 
Q 21.484375 6.890625 26.703125 6.890625 
Q 35.15625 6.890625 40.078125 11.328125 
Q 45.015625 15.765625 45.015625 23.390625 
Q 45.015625 31 40.078125 35.4375 
Q 35.15625 39.890625 26.703125 39.890625 
Q 22.75 39.890625 18.8125 39.015625 
Q 14.890625 38.140625 10.796875 36.28125 
z
" id="DejaVuSans-35"/>
      </defs>
      <g transform="translate(175.205527 203.598437)scale(0.1 -0.1)">
       <use xlink:href="#DejaVuSans-35"/>
       <use x="63.623047" xlink:href="#DejaVuSans-30"/>
       <use x="127.246094" xlink:href="#DejaVuSans-30"/>
      </g>
     </g>
    </g>
    <g id="xtick_3">
     <g id="line2d_3">
      <g>
       <use style="stroke:#000000;stroke-width:0.8;" x="227.581199" xlink:href="#m6357611210" y="189"/>
      </g>
     </g>
     <g id="text_3">
      <!-- 1000 -->
      <defs>
       <path d="M 12.40625 8.296875 
L 28.515625 8.296875 
L 28.515625 63.921875 
L 10.984375 60.40625 
L 10.984375 69.390625 
L 28.421875 72.90625 
L 38.28125 72.90625 
L 38.28125 8.296875 
L 54.390625 8.296875 
L 54.390625 0 
L 12.40625 0 
z
" id="DejaVuSans-31"/>
      </defs>
      <g transform="translate(214.856199 203.598437)scale(0.1 -0.1)">
       <use xlink:href="#DejaVuSans-31"/>
       <use x="63.623047" xlink:href="#DejaVuSans-30"/>
       <use x="127.246094" xlink:href="#DejaVuSans-30"/>
       <use x="190.869141" xlink:href="#DejaVuSans-30"/>
      </g>
     </g>
    </g>
    <g id="xtick_4">
     <g id="line2d_4">
      <g>
       <use style="stroke:#000000;stroke-width:0.8;" x="270.413121" xlink:href="#m6357611210" y="189"/>
      </g>
     </g>
     <g id="text_4">
      <!-- 1500 -->
      <g transform="translate(257.688121 203.598437)scale(0.1 -0.1)">
       <use xlink:href="#DejaVuSans-31"/>
       <use x="63.623047" xlink:href="#DejaVuSans-35"/>
       <use x="127.246094" xlink:href="#DejaVuSans-30"/>
       <use x="190.869141" xlink:href="#DejaVuSans-30"/>
      </g>
     </g>
    </g>
   </g>
   <g id="matplotlib.axis_2">
    <g id="ytick_1">
     <g id="line2d_5">
      <defs>
       <path d="M 0 0 
L -3.5 0 
" id="me2c5a86609" style="stroke:#000000;stroke-width:0.8;"/>
      </defs>
      <g>
       <use style="stroke:#000000;stroke-width:0.8;" x="135" xlink:href="#me2c5a86609" y="185.099863"/>
      </g>
     </g>
     <g id="text_5">
      <!-- 0 -->
      <g transform="translate(121.6375 188.899082)scale(0.1 -0.1)">
       <use xlink:href="#DejaVuSans-30"/>
      </g>
     </g>
    </g>
    <g id="ytick_2">
     <g id="line2d_6">
      <g>
       <use style="stroke:#000000;stroke-width:0.8;" x="135" xlink:href="#me2c5a86609" y="156.070189"/>
      </g>
     </g>
     <g id="text_6">
      <!-- 1000 -->
      <g transform="translate(102.55 159.869408)scale(0.1 -0.1)">
       <use xlink:href="#DejaVuSans-31"/>
       <use x="63.623047" xlink:href="#DejaVuSans-30"/>
       <use x="127.246094" xlink:href="#DejaVuSans-30"/>
       <use x="190.869141" xlink:href="#DejaVuSans-30"/>
      </g>
     </g>
    </g>
    <g id="ytick_3">
     <g id="line2d_7">
      <g>
       <use style="stroke:#000000;stroke-width:0.8;" x="135" xlink:href="#me2c5a86609" y="127.040515"/>
      </g>
     </g>
     <g id="text_7">
      <!-- 2000 -->
      <defs>
       <path d="M 19.1875 8.296875 
L 53.609375 8.296875 
L 53.609375 0 
L 7.328125 0 
L 7.328125 8.296875 
Q 12.9375 14.109375 22.625 23.890625 
Q 32.328125 33.6875 34.8125 36.53125 
Q 39.546875 41.84375 41.421875 45.53125 
Q 43.3125 49.21875 43.3125 52.78125 
Q 43.3125 58.59375 39.234375 62.25 
Q 35.15625 65.921875 28.609375 65.921875 
Q 23.96875 65.921875 18.8125 64.3125 
Q 13.671875 62.703125 7.8125 59.421875 
L 7.8125 69.390625 
Q 13.765625 71.78125 18.9375 73 
Q 24.125 74.21875 28.421875 74.21875 
Q 39.75 74.21875 46.484375 68.546875 
Q 53.21875 62.890625 53.21875 53.421875 
Q 53.21875 48.921875 51.53125 44.890625 
Q 49.859375 40.875 45.40625 35.40625 
Q 44.1875 33.984375 37.640625 27.21875 
Q 31.109375 20.453125 19.1875 8.296875 
z
" id="DejaVuSans-32"/>
      </defs>
      <g transform="translate(102.55 130.839734)scale(0.1 -0.1)">
       <use xlink:href="#DejaVuSans-32"/>
       <use x="63.623047" xlink:href="#DejaVuSans-30"/>
       <use x="127.246094" xlink:href="#DejaVuSans-30"/>
       <use x="190.869141" xlink:href="#DejaVuSans-30"/>
      </g>
     </g>
    </g>
    <g id="ytick_4">
     <g id="line2d_8">
      <g>
       <use style="stroke:#000000;stroke-width:0.8;" x="135" xlink:href="#me2c5a86609" y="98.010841"/>
      </g>
     </g>
     <g id="text_8">
      <!-- 3000 -->
      <defs>
       <path d="M 40.578125 39.3125 
Q 47.65625 37.796875 51.625 33 
Q 55.609375 28.21875 55.609375 21.1875 
Q 55.609375 10.40625 48.1875 4.484375 
Q 40.765625 -1.421875 27.09375 -1.421875 
Q 22.515625 -1.421875 17.65625 -0.515625 
Q 12.796875 0.390625 7.625 2.203125 
L 7.625 11.71875 
Q 11.71875 9.328125 16.59375 8.109375 
Q 21.484375 6.890625 26.8125 6.890625 
Q 36.078125 6.890625 40.9375 10.546875 
Q 45.796875 14.203125 45.796875 21.1875 
Q 45.796875 27.640625 41.28125 31.265625 
Q 36.765625 34.90625 28.71875 34.90625 
L 20.21875 34.90625 
L 20.21875 43.015625 
L 29.109375 43.015625 
Q 36.375 43.015625 40.234375 45.921875 
Q 44.09375 48.828125 44.09375 54.296875 
Q 44.09375 59.90625 40.109375 62.90625 
Q 36.140625 65.921875 28.71875 65.921875 
Q 24.65625 65.921875 20.015625 65.03125 
Q 15.375 64.15625 9.8125 62.3125 
L 9.8125 71.09375 
Q 15.4375 72.65625 20.34375 73.4375 
Q 25.25 74.21875 29.59375 74.21875 
Q 40.828125 74.21875 47.359375 69.109375 
Q 53.90625 64.015625 53.90625 55.328125 
Q 53.90625 49.265625 50.4375 45.09375 
Q 46.96875 40.921875 40.578125 39.3125 
z
" id="DejaVuSans-33"/>
      </defs>
      <g transform="translate(102.55 101.81006)scale(0.1 -0.1)">
       <use xlink:href="#DejaVuSans-33"/>
       <use x="63.623047" xlink:href="#DejaVuSans-30"/>
       <use x="127.246094" xlink:href="#DejaVuSans-30"/>
       <use x="190.869141" xlink:href="#DejaVuSans-30"/>
      </g>
     </g>
    </g>
    <g id="ytick_5">
     <g id="line2d_9">
      <g>
       <use style="stroke:#000000;stroke-width:0.8;" x="135" xlink:href="#me2c5a86609" y="68.981167"/>
      </g>
     </g>
     <g id="text_9">
      <!-- 4000 -->
      <defs>
       <path d="M 37.796875 64.3125 
L 12.890625 25.390625 
L 37.796875 25.390625 
z
M 35.203125 72.90625 
L 47.609375 72.90625 
L 47.609375 25.390625 
L 58.015625 25.390625 
L 58.015625 17.1875 
L 47.609375 17.1875 
L 47.609375 0 
L 37.796875 0 
L 37.796875 17.1875 
L 4.890625 17.1875 
L 4.890625 26.703125 
z
" id="DejaVuSans-34"/>
      </defs>
      <g transform="translate(102.55 72.780386)scale(0.1 -0.1)">
       <use xlink:href="#DejaVuSans-34"/>
       <use x="63.623047" xlink:href="#DejaVuSans-30"/>
       <use x="127.246094" xlink:href="#DejaVuSans-30"/>
       <use x="190.869141" xlink:href="#DejaVuSans-30"/>
      </g>
     </g>
    </g>
    <g id="ytick_6">
     <g id="line2d_10">
      <g>
       <use style="stroke:#000000;stroke-width:0.8;" x="135" xlink:href="#me2c5a86609" y="39.951493"/>
      </g>
     </g>
     <g id="text_10">
      <!-- 5000 -->
      <g transform="translate(102.55 43.750712)scale(0.1 -0.1)">
       <use xlink:href="#DejaVuSans-35"/>
       <use x="63.623047" xlink:href="#DejaVuSans-30"/>
       <use x="127.246094" xlink:href="#DejaVuSans-30"/>
       <use x="190.869141" xlink:href="#DejaVuSans-30"/>
      </g>
     </g>
    </g>
   </g>
   <g id="line2d_11">
    <path clip-path="url(#p9553fc10dc)" d="M 141.917355 181.587273 
L 145.086918 181.500184 
L 145.515237 181.471154 
L 147.228514 181.384065 
L 147.656833 181.355035 
L 149.798429 181.267946 
L 150.226748 181.238917 
L 152.796664 181.151828 
L 153.224983 181.122798 
L 155.280915 181.035709 
L 155.709234 181.006679 
L 157.765166 180.91959 
L 158.193486 180.890561 
L 160.420746 180.803472 
L 160.849065 180.774442 
L 163.247652 180.687353 
L 163.761635 180.629293 
L 166.160223 180.542204 
L 166.674206 180.484145 
L 168.730138 180.397056 
L 169.158458 180.368026 
L 171.043062 180.280937 
L 171.471381 180.251908 
L 172.499348 180.164819 
L 173.098994 180.07773 
L 175.069263 179.990641 
L 175.497582 179.961611 
L 176.696876 179.874522 
L 177.125195 179.845492 
L 178.410153 179.758403 
L 178.924136 179.700344 
L 179.952102 179.613255 
L 180.466085 179.555196 
L 182.093698 179.468107 
L 182.693345 179.381017 
L 183.806975 179.293928 
L 184.235294 179.264899 
L 185.862907 179.17781 
L 186.291226 179.14878 
L 187.661848 179.061691 
L 188.175831 179.003632 
L 189.203797 178.916543 
L 189.803444 178.829454 
L 190.660082 178.742365 
L 191.174065 178.684305 
L 192.716015 178.597216 
L 193.315662 178.510127 
L 194.514955 178.423038 
L 195.028938 178.364979 
L 195.799913 178.27789 
L 196.39956 178.190801 
L 196.913543 178.103712 
L 197.427526 178.045652 
L 198.712484 177.958563 
L 199.226467 177.900504 
L 200.254433 177.813415 
L 200.939744 177.697296 
L 201.539391 177.610207 
L 202.139037 177.523118 
L 202.995676 177.436029 
L 203.595323 177.34894 
L 204.537625 177.261851 
L 205.137272 177.174762 
L 205.736919 177.087673 
L 205.99391 177.029614 
L 206.593557 176.942525 
L 207.021877 176.913495 
L 208.135506 176.826406 
L 208.906481 176.681258 
L 209.591792 176.594169 
L 210.191439 176.50708 
L 211.390733 176.419991 
L 212.247371 176.245813 
L 213.446665 176.187753 
L 213.703656 176.129694 
L 214.046312 176.071635 
L 214.303303 176.013575 
L 214.988614 175.897457 
L 215.331269 175.839397 
L 215.588261 175.752308 
L 216.273572 175.665219 
L 216.787555 175.60716 
L 217.472865 175.520071 
L 218.158176 175.403952 
L 219.100478 175.316863 
L 219.871453 175.171715 
L 220.4711 175.084626 
L 221.070747 174.997537 
L 222.184377 174.910448 
L 222.527032 174.794329 
L 224.154645 174.358884 
L 224.411637 174.300825 
L 224.582964 174.213736 
L 225.011284 174.155676 
L 225.353939 174.039557 
L 225.696594 173.981498 
L 226.124914 173.80732 
L 227.238544 173.720231 
L 228.523501 173.400905 
L 229.037484 173.313816 
L 229.894123 173.139638 
L 230.408106 173.052549 
L 230.665097 172.96546 
L 231.17908 172.878371 
L 231.350408 172.791281 
L 231.6074 172.704192 
L 232.207047 172.617103 
L 232.72103 172.559044 
L 232.892357 172.384866 
L 233.149349 172.355836 
L 233.40634 172.210688 
L 236.233247 171.368827 
L 236.74723 171.281738 
L 240.259448 170.20764 
L 240.944759 170.120551 
L 241.20175 169.946373 
L 241.373078 169.888314 
L 241.801397 169.598017 
L 246.598572 167.856237 
L 247.969194 167.043406 
L 249.682471 166.404753 
L 249.853798 166.201545 
L 249.939462 166.201545 
L 250.539109 165.533863 
L 251.138756 165.214537 
L 251.395748 165.098418 
L 252.509377 164.721032 
L 252.766369 164.256557 
L 253.623007 163.530815 
L 253.879999 163.327608 
L 254.136991 163.15343 
L 254.479646 162.950222 
L 255.593276 162.311569 
L 256.36425 162.050302 
L 256.535578 161.672916 
L 256.621242 161.643887 
L 256.79257 161.38262 
L 257.220889 161.063293 
L 257.392217 161.034263 
L 258.163191 160.105314 
L 258.420183 159.931136 
L 258.59151 159.698898 
L 258.762838 159.437631 
L 259.01983 159.350542 
L 259.362485 159.118305 
L 260.390451 158.305474 
L 260.561779 158.073237 
L 260.81877 157.870029 
L 260.904434 157.78294 
L 261.075762 157.347495 
L 261.504081 157.086228 
L 262.703375 155.779892 
L 262.874703 155.431536 
L 263.303022 154.909002 
L 263.560013 154.299379 
L 263.731341 154.21229 
L 263.988333 153.718786 
L 264.073996 153.689756 
L 264.416652 153.225281 
L 264.502316 153.196251 
L 264.673643 152.586628 
L 265.101962 151.831857 
L 265.27329 151.628649 
L 265.530282 151.454471 
L 265.958601 149.77075 
L 266.129929 149.654631 
L 267.072231 147.622554 
L 267.757542 147.274198 
L 267.928869 147.041961 
L 268.442852 146.374278 
L 268.699844 145.706596 
L 268.956835 145.096972 
L 269.128163 144.516379 
L 270.241793 142.513331 
L 270.413121 141.78759 
L 270.584448 141.72953 
L 270.84144 140.742521 
L 271.012768 140.568343 
L 271.869406 136.910604 
L 272.040734 135.633299 
L 272.126398 135.575239 
L 272.811708 132.81742 
L 272.983036 132.033619 
L 273.0687 131.94653 
L 273.240028 130.233779 
L 273.325691 130.14669 
L 273.582683 129.566097 
L 273.839675 129.101622 
L 274.096666 127.359842 
L 274.524985 126.285744 
L 274.696313 124.602023 
L 274.781977 124.514934 
L 274.953305 123.847251 
L 275.124632 123.615014 
L 275.381624 123.324717 
L 275.552951 120.566898 
L 275.638615 120.566898 
L 275.809943 119.928245 
L 275.895607 119.899215 
L 276.323926 117.054307 
L 276.495254 116.880129 
L 276.580918 115.428646 
L 276.752245 111.074194 
L 276.923573 106.719743 
L 277.094901 103.961924 
L 277.52322 100.362245 
L 277.694548 98.272108 
L 277.865875 95.4272 
L 278.037203 95.136903 
L 278.122867 94.55631 
L 278.294194 89.650295 
L 278.722514 86.660239 
L 278.979505 81.725194 
L 279.065169 81.551016 
L 279.150833 80.534977 
L 279.407824 74.003301 
L 279.579152 60.475473 
L 279.664816 59.691671 
L 279.921807 50.05382 
L 280.264463 33.332727 
L 280.264463 33.332727 
" style="fill:none;stroke:#1f77b4;stroke-linecap:square;stroke-width:1.5;"/>
   </g>
   <g id="patch_3">
    <path d="M 135 189 
L 135 25.92 
" style="fill:none;stroke:#000000;stroke-linecap:square;stroke-linejoin:miter;stroke-width:0.8;"/>
   </g>
   <g id="patch_4">
    <path d="M 287.181818 189 
L 287.181818 25.92 
" style="fill:none;stroke:#000000;stroke-linecap:square;stroke-linejoin:miter;stroke-width:0.8;"/>
   </g>
   <g id="patch_5">
    <path d="M 135 189 
L 287.181818 189 
" style="fill:none;stroke:#000000;stroke-linecap:square;stroke-linejoin:miter;stroke-width:0.8;"/>
   </g>
   <g id="patch_6">
    <path d="M 135 25.92 
L 287.181818 25.92 
" style="fill:none;stroke:#000000;stroke-linecap:square;stroke-linejoin:miter;stroke-width:0.8;"/>
   </g>
   <g id="text_11">
    <!-- sorted plot -->
    <defs>
     <path d="M 44.28125 53.078125 
L 44.28125 44.578125 
Q 40.484375 46.53125 36.375 47.5 
Q 32.28125 48.484375 27.875 48.484375 
Q 21.1875 48.484375 17.84375 46.4375 
Q 14.5 44.390625 14.5 40.28125 
Q 14.5 37.15625 16.890625 35.375 
Q 19.28125 33.59375 26.515625 31.984375 
L 29.59375 31.296875 
Q 39.15625 29.25 43.1875 25.515625 
Q 47.21875 21.78125 47.21875 15.09375 
Q 47.21875 7.46875 41.1875 3.015625 
Q 35.15625 -1.421875 24.609375 -1.421875 
Q 20.21875 -1.421875 15.453125 -0.5625 
Q 10.6875 0.296875 5.421875 2 
L 5.421875 11.28125 
Q 10.40625 8.6875 15.234375 7.390625 
Q 20.0625 6.109375 24.8125 6.109375 
Q 31.15625 6.109375 34.5625 8.28125 
Q 37.984375 10.453125 37.984375 14.40625 
Q 37.984375 18.0625 35.515625 20.015625 
Q 33.0625 21.96875 24.703125 23.78125 
L 21.578125 24.515625 
Q 13.234375 26.265625 9.515625 29.90625 
Q 5.8125 33.546875 5.8125 39.890625 
Q 5.8125 47.609375 11.28125 51.796875 
Q 16.75 56 26.8125 56 
Q 31.78125 56 36.171875 55.265625 
Q 40.578125 54.546875 44.28125 53.078125 
z
" id="DejaVuSans-73"/>
     <path d="M 30.609375 48.390625 
Q 23.390625 48.390625 19.1875 42.75 
Q 14.984375 37.109375 14.984375 27.296875 
Q 14.984375 17.484375 19.15625 11.84375 
Q 23.34375 6.203125 30.609375 6.203125 
Q 37.796875 6.203125 41.984375 11.859375 
Q 46.1875 17.53125 46.1875 27.296875 
Q 46.1875 37.015625 41.984375 42.703125 
Q 37.796875 48.390625 30.609375 48.390625 
z
M 30.609375 56 
Q 42.328125 56 49.015625 48.375 
Q 55.71875 40.765625 55.71875 27.296875 
Q 55.71875 13.875 49.015625 6.21875 
Q 42.328125 -1.421875 30.609375 -1.421875 
Q 18.84375 -1.421875 12.171875 6.21875 
Q 5.515625 13.875 5.515625 27.296875 
Q 5.515625 40.765625 12.171875 48.375 
Q 18.84375 56 30.609375 56 
z
" id="DejaVuSans-6f"/>
     <path d="M 41.109375 46.296875 
Q 39.59375 47.171875 37.8125 47.578125 
Q 36.03125 48 33.890625 48 
Q 26.265625 48 22.1875 43.046875 
Q 18.109375 38.09375 18.109375 28.8125 
L 18.109375 0 
L 9.078125 0 
L 9.078125 54.6875 
L 18.109375 54.6875 
L 18.109375 46.1875 
Q 20.953125 51.171875 25.484375 53.578125 
Q 30.03125 56 36.53125 56 
Q 37.453125 56 38.578125 55.875 
Q 39.703125 55.765625 41.0625 55.515625 
z
" id="DejaVuSans-72"/>
     <path d="M 18.3125 70.21875 
L 18.3125 54.6875 
L 36.8125 54.6875 
L 36.8125 47.703125 
L 18.3125 47.703125 
L 18.3125 18.015625 
Q 18.3125 11.328125 20.140625 9.421875 
Q 21.96875 7.515625 27.59375 7.515625 
L 36.8125 7.515625 
L 36.8125 0 
L 27.59375 0 
Q 17.1875 0 13.234375 3.875 
Q 9.28125 7.765625 9.28125 18.015625 
L 9.28125 47.703125 
L 2.6875 47.703125 
L 2.6875 54.6875 
L 9.28125 54.6875 
L 9.28125 70.21875 
z
" id="DejaVuSans-74"/>
     <path d="M 56.203125 29.59375 
L 56.203125 25.203125 
L 14.890625 25.203125 
Q 15.484375 15.921875 20.484375 11.0625 
Q 25.484375 6.203125 34.421875 6.203125 
Q 39.59375 6.203125 44.453125 7.46875 
Q 49.3125 8.734375 54.109375 11.28125 
L 54.109375 2.78125 
Q 49.265625 0.734375 44.1875 -0.34375 
Q 39.109375 -1.421875 33.890625 -1.421875 
Q 20.796875 -1.421875 13.15625 6.1875 
Q 5.515625 13.8125 5.515625 26.8125 
Q 5.515625 40.234375 12.765625 48.109375 
Q 20.015625 56 32.328125 56 
Q 43.359375 56 49.78125 48.890625 
Q 56.203125 41.796875 56.203125 29.59375 
z
M 47.21875 32.234375 
Q 47.125 39.59375 43.09375 43.984375 
Q 39.0625 48.390625 32.421875 48.390625 
Q 24.90625 48.390625 20.390625 44.140625 
Q 15.875 39.890625 15.1875 32.171875 
z
" id="DejaVuSans-65"/>
     <path d="M 45.40625 46.390625 
L 45.40625 75.984375 
L 54.390625 75.984375 
L 54.390625 0 
L 45.40625 0 
L 45.40625 8.203125 
Q 42.578125 3.328125 38.25 0.953125 
Q 33.9375 -1.421875 27.875 -1.421875 
Q 17.96875 -1.421875 11.734375 6.484375 
Q 5.515625 14.40625 5.515625 27.296875 
Q 5.515625 40.1875 11.734375 48.09375 
Q 17.96875 56 27.875 56 
Q 33.9375 56 38.25 53.625 
Q 42.578125 51.265625 45.40625 46.390625 
z
M 14.796875 27.296875 
Q 14.796875 17.390625 18.875 11.75 
Q 22.953125 6.109375 30.078125 6.109375 
Q 37.203125 6.109375 41.296875 11.75 
Q 45.40625 17.390625 45.40625 27.296875 
Q 45.40625 37.203125 41.296875 42.84375 
Q 37.203125 48.484375 30.078125 48.484375 
Q 22.953125 48.484375 18.875 42.84375 
Q 14.796875 37.203125 14.796875 27.296875 
z
" id="DejaVuSans-64"/>
     <path id="DejaVuSans-20"/>
     <path d="M 18.109375 8.203125 
L 18.109375 -20.796875 
L 9.078125 -20.796875 
L 9.078125 54.6875 
L 18.109375 54.6875 
L 18.109375 46.390625 
Q 20.953125 51.265625 25.265625 53.625 
Q 29.59375 56 35.59375 56 
Q 45.5625 56 51.78125 48.09375 
Q 58.015625 40.1875 58.015625 27.296875 
Q 58.015625 14.40625 51.78125 6.484375 
Q 45.5625 -1.421875 35.59375 -1.421875 
Q 29.59375 -1.421875 25.265625 0.953125 
Q 20.953125 3.328125 18.109375 8.203125 
z
M 48.6875 27.296875 
Q 48.6875 37.203125 44.609375 42.84375 
Q 40.53125 48.484375 33.40625 48.484375 
Q 26.265625 48.484375 22.1875 42.84375 
Q 18.109375 37.203125 18.109375 27.296875 
Q 18.109375 17.390625 22.1875 11.75 
Q 26.265625 6.109375 33.40625 6.109375 
Q 40.53125 6.109375 44.609375 11.75 
Q 48.6875 17.390625 48.6875 27.296875 
z
" id="DejaVuSans-70"/>
     <path d="M 9.421875 75.984375 
L 18.40625 75.984375 
L 18.40625 0 
L 9.421875 0 
z
" id="DejaVuSans-6c"/>
    </defs>
    <g transform="translate(178.568097 19.92)scale(0.12 -0.12)">
     <use xlink:href="#DejaVuSans-73"/>
     <use x="52.099609" xlink:href="#DejaVuSans-6f"/>
     <use x="113.28125" xlink:href="#DejaVuSans-72"/>
     <use x="154.394531" xlink:href="#DejaVuSans-74"/>
     <use x="193.603516" xlink:href="#DejaVuSans-65"/>
     <use x="255.126953" xlink:href="#DejaVuSans-64"/>
     <use x="318.603516" xlink:href="#DejaVuSans-20"/>
     <use x="350.390625" xlink:href="#DejaVuSans-70"/>
     <use x="413.867188" xlink:href="#DejaVuSans-6c"/>
     <use x="441.650391" xlink:href="#DejaVuSans-6f"/>
     <use x="502.832031" xlink:href="#DejaVuSans-74"/>
    </g>
   </g>
  </g>
  <g id="axes_2">
   <g id="patch_7">
    <path d="M 363.272727 189 
L 972 189 
L 972 25.92 
L 363.272727 25.92 
z
" style="fill:#ffffff;"/>
   </g>
   <g id="matplotlib.axis_3">
    <g id="xtick_5">
     <g id="line2d_12">
      <g>
       <use style="stroke:#000000;stroke-width:0.8;" x="377.830733" xlink:href="#m6357611210" y="189"/>
      </g>
     </g>
     <g id="text_12">
      <!-- 0 -->
      <g transform="translate(374.649483 203.598437)scale(0.1 -0.1)">
       <use xlink:href="#DejaVuSans-30"/>
      </g>
     </g>
    </g>
    <g id="xtick_6">
     <g id="line2d_13">
      <g>
       <use style="stroke:#000000;stroke-width:0.8;" x="486.189541" xlink:href="#m6357611210" y="189"/>
      </g>
     </g>
     <g id="text_13">
      <!-- 1000 -->
      <g transform="translate(473.464541 203.598437)scale(0.1 -0.1)">
       <use xlink:href="#DejaVuSans-31"/>
       <use x="63.623047" xlink:href="#DejaVuSans-30"/>
       <use x="127.246094" xlink:href="#DejaVuSans-30"/>
       <use x="190.869141" xlink:href="#DejaVuSans-30"/>
      </g>
     </g>
    </g>
    <g id="xtick_7">
     <g id="line2d_14">
      <g>
       <use style="stroke:#000000;stroke-width:0.8;" x="594.548348" xlink:href="#m6357611210" y="189"/>
      </g>
     </g>
     <g id="text_14">
      <!-- 2000 -->
      <g transform="translate(581.823348 203.598437)scale(0.1 -0.1)">
       <use xlink:href="#DejaVuSans-32"/>
       <use x="63.623047" xlink:href="#DejaVuSans-30"/>
       <use x="127.246094" xlink:href="#DejaVuSans-30"/>
       <use x="190.869141" xlink:href="#DejaVuSans-30"/>
      </g>
     </g>
    </g>
    <g id="xtick_8">
     <g id="line2d_15">
      <g>
       <use style="stroke:#000000;stroke-width:0.8;" x="702.907155" xlink:href="#m6357611210" y="189"/>
      </g>
     </g>
     <g id="text_15">
      <!-- 3000 -->
      <g transform="translate(690.182155 203.598437)scale(0.1 -0.1)">
       <use xlink:href="#DejaVuSans-33"/>
       <use x="63.623047" xlink:href="#DejaVuSans-30"/>
       <use x="127.246094" xlink:href="#DejaVuSans-30"/>
       <use x="190.869141" xlink:href="#DejaVuSans-30"/>
      </g>
     </g>
    </g>
    <g id="xtick_9">
     <g id="line2d_16">
      <g>
       <use style="stroke:#000000;stroke-width:0.8;" x="811.265963" xlink:href="#m6357611210" y="189"/>
      </g>
     </g>
     <g id="text_16">
      <!-- 4000 -->
      <g transform="translate(798.540963 203.598437)scale(0.1 -0.1)">
       <use xlink:href="#DejaVuSans-34"/>
       <use x="63.623047" xlink:href="#DejaVuSans-30"/>
       <use x="127.246094" xlink:href="#DejaVuSans-30"/>
       <use x="190.869141" xlink:href="#DejaVuSans-30"/>
      </g>
     </g>
    </g>
    <g id="xtick_10">
     <g id="line2d_17">
      <g>
       <use style="stroke:#000000;stroke-width:0.8;" x="919.62477" xlink:href="#m6357611210" y="189"/>
      </g>
     </g>
     <g id="text_17">
      <!-- 5000 -->
      <g transform="translate(906.89977 203.598437)scale(0.1 -0.1)">
       <use xlink:href="#DejaVuSans-35"/>
       <use x="63.623047" xlink:href="#DejaVuSans-30"/>
       <use x="127.246094" xlink:href="#DejaVuSans-30"/>
       <use x="190.869141" xlink:href="#DejaVuSans-30"/>
      </g>
     </g>
    </g>
   </g>
   <g id="matplotlib.axis_4">
    <g id="ytick_7">
     <g id="line2d_18">
      <g>
       <use style="stroke:#000000;stroke-width:0.8;" x="363.272727" xlink:href="#me2c5a86609" y="107.46"/>
      </g>
     </g>
     <g id="text_18">
      <!-- 1 -->
      <g transform="translate(349.910227 111.259219)scale(0.1 -0.1)">
       <use xlink:href="#DejaVuSans-31"/>
      </g>
     </g>
    </g>
   </g>
   <g id="line2d_19">
    <path clip-path="url(#p43a6879163)" d="M 397.335318 119.691 
L 397.335318 95.229 
L 408.429925 95.229 
L 410.121658 101.3445 
L 411.81339 95.229 
L 440.651752 95.229 
L 440.651752 119.691 
L 411.81339 119.691 
L 410.121658 113.5755 
L 408.429925 119.691 
L 397.335318 119.691 
" style="fill:none;stroke:#000000;stroke-linecap:square;"/>
   </g>
   <g id="line2d_20">
    <path clip-path="url(#p43a6879163)" d="M 397.335318 107.46 
L 390.942149 107.46 
" style="fill:none;stroke:#000000;stroke-linecap:square;"/>
   </g>
   <g id="line2d_21">
    <path clip-path="url(#p43a6879163)" d="M 440.651752 107.46 
L 527.14917 107.46 
" style="fill:none;stroke:#000000;stroke-linecap:square;"/>
   </g>
   <g id="line2d_22">
    <path clip-path="url(#p43a6879163)" d="M 390.942149 113.5755 
L 390.942149 101.3445 
" style="fill:none;stroke:#000000;stroke-linecap:square;"/>
   </g>
   <g id="line2d_23">
    <path clip-path="url(#p43a6879163)" d="M 527.14917 113.5755 
L 527.14917 101.3445 
" style="fill:none;stroke:#000000;stroke-linecap:square;"/>
   </g>
   <g id="line2d_24">
    <defs>
     <path d="M 0 3 
C 0.795609 3 1.55874 2.683901 2.12132 2.12132 
C 2.683901 1.55874 3 0.795609 3 0 
C 3 -0.795609 2.683901 -1.55874 2.12132 -2.12132 
C 1.55874 -2.683901 0.795609 -3 0 -3 
C -0.795609 -3 -1.55874 -2.683901 -2.12132 -2.12132 
C -2.683901 -1.55874 -3 -0.795609 -3 0 
C -3 0.795609 -2.683901 1.55874 -2.12132 2.12132 
C -1.55874 2.683901 -0.795609 3 0 3 
z
" id="md8e7a129ab" style="stroke:#000000;"/>
    </defs>
    <g clip-path="url(#p43a6879163)">
     <use style="fill:none;stroke:#000000;" x="528.991269" xlink:href="#md8e7a129ab" y="107.46"/>
     <use style="fill:none;stroke:#000000;" x="529.316346" xlink:href="#md8e7a129ab" y="107.46"/>
     <use style="fill:none;stroke:#000000;" x="529.85814" xlink:href="#md8e7a129ab" y="107.46"/>
     <use style="fill:none;stroke:#000000;" x="529.966499" xlink:href="#md8e7a129ab" y="107.46"/>
     <use style="fill:none;stroke:#000000;" x="530.833369" xlink:href="#md8e7a129ab" y="107.46"/>
     <use style="fill:none;stroke:#000000;" x="531.375163" xlink:href="#md8e7a129ab" y="107.46"/>
     <use style="fill:none;stroke:#000000;" x="532.242034" xlink:href="#md8e7a129ab" y="107.46"/>
     <use style="fill:none;stroke:#000000;" x="532.242034" xlink:href="#md8e7a129ab" y="107.46"/>
     <use style="fill:none;stroke:#000000;" x="533.325622" xlink:href="#md8e7a129ab" y="107.46"/>
     <use style="fill:none;stroke:#000000;" x="533.650698" xlink:href="#md8e7a129ab" y="107.46"/>
     <use style="fill:none;stroke:#000000;" x="533.867416" xlink:href="#md8e7a129ab" y="107.46"/>
     <use style="fill:none;stroke:#000000;" x="534.625927" xlink:href="#md8e7a129ab" y="107.46"/>
     <use style="fill:none;stroke:#000000;" x="536.034592" xlink:href="#md8e7a129ab" y="107.46"/>
     <use style="fill:none;stroke:#000000;" x="536.142951" xlink:href="#md8e7a129ab" y="107.46"/>
     <use style="fill:none;stroke:#000000;" x="536.793104" xlink:href="#md8e7a129ab" y="107.46"/>
     <use style="fill:none;stroke:#000000;" x="539.502074" xlink:href="#md8e7a129ab" y="107.46"/>
     <use style="fill:none;stroke:#000000;" x="539.502074" xlink:href="#md8e7a129ab" y="107.46"/>
     <use style="fill:none;stroke:#000000;" x="539.502074" xlink:href="#md8e7a129ab" y="107.46"/>
     <use style="fill:none;stroke:#000000;" x="539.718791" xlink:href="#md8e7a129ab" y="107.46"/>
     <use style="fill:none;stroke:#000000;" x="541.777609" xlink:href="#md8e7a129ab" y="107.46"/>
     <use style="fill:none;stroke:#000000;" x="542.752838" xlink:href="#md8e7a129ab" y="107.46"/>
     <use style="fill:none;stroke:#000000;" x="543.402991" xlink:href="#md8e7a129ab" y="107.46"/>
     <use style="fill:none;stroke:#000000;" x="543.728067" xlink:href="#md8e7a129ab" y="107.46"/>
     <use style="fill:none;stroke:#000000;" x="544.053144" xlink:href="#md8e7a129ab" y="107.46"/>
     <use style="fill:none;stroke:#000000;" x="545.461808" xlink:href="#md8e7a129ab" y="107.46"/>
     <use style="fill:none;stroke:#000000;" x="547.954061" xlink:href="#md8e7a129ab" y="107.46"/>
     <use style="fill:none;stroke:#000000;" x="549.037649" xlink:href="#md8e7a129ab" y="107.46"/>
     <use style="fill:none;stroke:#000000;" x="549.146008" xlink:href="#md8e7a129ab" y="107.46"/>
     <use style="fill:none;stroke:#000000;" x="552.180054" xlink:href="#md8e7a129ab" y="107.46"/>
     <use style="fill:none;stroke:#000000;" x="553.372001" xlink:href="#md8e7a129ab" y="107.46"/>
     <use style="fill:none;stroke:#000000;" x="553.805436" xlink:href="#md8e7a129ab" y="107.46"/>
     <use style="fill:none;stroke:#000000;" x="555.864254" xlink:href="#md8e7a129ab" y="107.46"/>
     <use style="fill:none;stroke:#000000;" x="556.731124" xlink:href="#md8e7a129ab" y="107.46"/>
     <use style="fill:none;stroke:#000000;" x="557.706353" xlink:href="#md8e7a129ab" y="107.46"/>
     <use style="fill:none;stroke:#000000;" x="561.932347" xlink:href="#md8e7a129ab" y="107.46"/>
     <use style="fill:none;stroke:#000000;" x="562.474141" xlink:href="#md8e7a129ab" y="107.46"/>
     <use style="fill:none;stroke:#000000;" x="562.690859" xlink:href="#md8e7a129ab" y="107.46"/>
     <use style="fill:none;stroke:#000000;" x="563.882805" xlink:href="#md8e7a129ab" y="107.46"/>
     <use style="fill:none;stroke:#000000;" x="564.858035" xlink:href="#md8e7a129ab" y="107.46"/>
     <use style="fill:none;stroke:#000000;" x="566.591776" xlink:href="#md8e7a129ab" y="107.46"/>
     <use style="fill:none;stroke:#000000;" x="568.00044" xlink:href="#md8e7a129ab" y="107.46"/>
     <use style="fill:none;stroke:#000000;" x="569.084028" xlink:href="#md8e7a129ab" y="107.46"/>
     <use style="fill:none;stroke:#000000;" x="569.300746" xlink:href="#md8e7a129ab" y="107.46"/>
     <use style="fill:none;stroke:#000000;" x="569.625822" xlink:href="#md8e7a129ab" y="107.46"/>
     <use style="fill:none;stroke:#000000;" x="572.984945" xlink:href="#md8e7a129ab" y="107.46"/>
     <use style="fill:none;stroke:#000000;" x="575.693915" xlink:href="#md8e7a129ab" y="107.46"/>
     <use style="fill:none;stroke:#000000;" x="575.910633" xlink:href="#md8e7a129ab" y="107.46"/>
     <use style="fill:none;stroke:#000000;" x="576.23571" xlink:href="#md8e7a129ab" y="107.46"/>
     <use style="fill:none;stroke:#000000;" x="581.220215" xlink:href="#md8e7a129ab" y="107.46"/>
     <use style="fill:none;stroke:#000000;" x="582.628879" xlink:href="#md8e7a129ab" y="107.46"/>
     <use style="fill:none;stroke:#000000;" x="582.953956" xlink:href="#md8e7a129ab" y="107.46"/>
     <use style="fill:none;stroke:#000000;" x="584.145902" xlink:href="#md8e7a129ab" y="107.46"/>
     <use style="fill:none;stroke:#000000;" x="584.904414" xlink:href="#md8e7a129ab" y="107.46"/>
     <use style="fill:none;stroke:#000000;" x="585.121132" xlink:href="#md8e7a129ab" y="107.46"/>
     <use style="fill:none;stroke:#000000;" x="585.554567" xlink:href="#md8e7a129ab" y="107.46"/>
     <use style="fill:none;stroke:#000000;" x="586.529796" xlink:href="#md8e7a129ab" y="107.46"/>
     <use style="fill:none;stroke:#000000;" x="586.854873" xlink:href="#md8e7a129ab" y="107.46"/>
     <use style="fill:none;stroke:#000000;" x="590.539072" xlink:href="#md8e7a129ab" y="107.46"/>
     <use style="fill:none;stroke:#000000;" x="593.356401" xlink:href="#md8e7a129ab" y="107.46"/>
     <use style="fill:none;stroke:#000000;" x="593.356401" xlink:href="#md8e7a129ab" y="107.46"/>
     <use style="fill:none;stroke:#000000;" x="594.006554" xlink:href="#md8e7a129ab" y="107.46"/>
     <use style="fill:none;stroke:#000000;" x="594.981783" xlink:href="#md8e7a129ab" y="107.46"/>
     <use style="fill:none;stroke:#000000;" x="595.30686" xlink:href="#md8e7a129ab" y="107.46"/>
     <use style="fill:none;stroke:#000000;" x="596.17373" xlink:href="#md8e7a129ab" y="107.46"/>
     <use style="fill:none;stroke:#000000;" x="597.365677" xlink:href="#md8e7a129ab" y="107.46"/>
     <use style="fill:none;stroke:#000000;" x="601.916747" xlink:href="#md8e7a129ab" y="107.46"/>
     <use style="fill:none;stroke:#000000;" x="603.650488" xlink:href="#md8e7a129ab" y="107.46"/>
     <use style="fill:none;stroke:#000000;" x="603.975564" xlink:href="#md8e7a129ab" y="107.46"/>
     <use style="fill:none;stroke:#000000;" x="606.034382" xlink:href="#md8e7a129ab" y="107.46"/>
     <use style="fill:none;stroke:#000000;" x="606.467817" xlink:href="#md8e7a129ab" y="107.46"/>
     <use style="fill:none;stroke:#000000;" x="606.684534" xlink:href="#md8e7a129ab" y="107.46"/>
     <use style="fill:none;stroke:#000000;" x="607.334687" xlink:href="#md8e7a129ab" y="107.46"/>
     <use style="fill:none;stroke:#000000;" x="607.659764" xlink:href="#md8e7a129ab" y="107.46"/>
     <use style="fill:none;stroke:#000000;" x="608.418275" xlink:href="#md8e7a129ab" y="107.46"/>
     <use style="fill:none;stroke:#000000;" x="608.418275" xlink:href="#md8e7a129ab" y="107.46"/>
     <use style="fill:none;stroke:#000000;" x="618.387286" xlink:href="#md8e7a129ab" y="107.46"/>
     <use style="fill:none;stroke:#000000;" x="618.712362" xlink:href="#md8e7a129ab" y="107.46"/>
     <use style="fill:none;stroke:#000000;" x="618.712362" xlink:href="#md8e7a129ab" y="107.46"/>
     <use style="fill:none;stroke:#000000;" x="620.987897" xlink:href="#md8e7a129ab" y="107.46"/>
     <use style="fill:none;stroke:#000000;" x="621.096256" xlink:href="#md8e7a129ab" y="107.46"/>
     <use style="fill:none;stroke:#000000;" x="621.204615" xlink:href="#md8e7a129ab" y="107.46"/>
     <use style="fill:none;stroke:#000000;" x="624.021944" xlink:href="#md8e7a129ab" y="107.46"/>
     <use style="fill:none;stroke:#000000;" x="627.706143" xlink:href="#md8e7a129ab" y="107.46"/>
     <use style="fill:none;stroke:#000000;" x="627.706143" xlink:href="#md8e7a129ab" y="107.46"/>
     <use style="fill:none;stroke:#000000;" x="628.89809" xlink:href="#md8e7a129ab" y="107.46"/>
     <use style="fill:none;stroke:#000000;" x="631.823778" xlink:href="#md8e7a129ab" y="107.46"/>
     <use style="fill:none;stroke:#000000;" x="631.932137" xlink:href="#md8e7a129ab" y="107.46"/>
     <use style="fill:none;stroke:#000000;" x="632.473931" xlink:href="#md8e7a129ab" y="107.46"/>
     <use style="fill:none;stroke:#000000;" x="637.891871" xlink:href="#md8e7a129ab" y="107.46"/>
     <use style="fill:none;stroke:#000000;" x="653.820616" xlink:href="#md8e7a129ab" y="107.46"/>
     <use style="fill:none;stroke:#000000;" x="654.145692" xlink:href="#md8e7a129ab" y="107.46"/>
     <use style="fill:none;stroke:#000000;" x="659.671991" xlink:href="#md8e7a129ab" y="107.46"/>
     <use style="fill:none;stroke:#000000;" x="670.399513" xlink:href="#md8e7a129ab" y="107.46"/>
     <use style="fill:none;stroke:#000000;" x="680.043447" xlink:href="#md8e7a129ab" y="107.46"/>
     <use style="fill:none;stroke:#000000;" x="680.6936" xlink:href="#md8e7a129ab" y="107.46"/>
     <use style="fill:none;stroke:#000000;" x="682.969135" xlink:href="#md8e7a129ab" y="107.46"/>
     <use style="fill:none;stroke:#000000;" x="685.027952" xlink:href="#md8e7a129ab" y="107.46"/>
     <use style="fill:none;stroke:#000000;" x="685.461387" xlink:href="#md8e7a129ab" y="107.46"/>
     <use style="fill:none;stroke:#000000;" x="687.303487" xlink:href="#md8e7a129ab" y="107.46"/>
     <use style="fill:none;stroke:#000000;" x="694.130092" xlink:href="#md8e7a129ab" y="107.46"/>
     <use style="fill:none;stroke:#000000;" x="697.489215" xlink:href="#md8e7a129ab" y="107.46"/>
     <use style="fill:none;stroke:#000000;" x="701.931926" xlink:href="#md8e7a129ab" y="107.46"/>
     <use style="fill:none;stroke:#000000;" x="708.975249" xlink:href="#md8e7a129ab" y="107.46"/>
     <use style="fill:none;stroke:#000000;" x="712.551089" xlink:href="#md8e7a129ab" y="107.46"/>
     <use style="fill:none;stroke:#000000;" x="713.092883" xlink:href="#md8e7a129ab" y="107.46"/>
     <use style="fill:none;stroke:#000000;" x="713.634677" xlink:href="#md8e7a129ab" y="107.46"/>
     <use style="fill:none;stroke:#000000;" x="715.801854" xlink:href="#md8e7a129ab" y="107.46"/>
     <use style="fill:none;stroke:#000000;" x="730.430293" xlink:href="#md8e7a129ab" y="107.46"/>
     <use style="fill:none;stroke:#000000;" x="734.114492" xlink:href="#md8e7a129ab" y="107.46"/>
     <use style="fill:none;stroke:#000000;" x="736.390027" xlink:href="#md8e7a129ab" y="107.46"/>
     <use style="fill:none;stroke:#000000;" x="736.715103" xlink:href="#md8e7a129ab" y="107.46"/>
     <use style="fill:none;stroke:#000000;" x="743.541708" xlink:href="#md8e7a129ab" y="107.46"/>
     <use style="fill:none;stroke:#000000;" x="744.842014" xlink:href="#md8e7a129ab" y="107.46"/>
     <use style="fill:none;stroke:#000000;" x="745.275449" xlink:href="#md8e7a129ab" y="107.46"/>
     <use style="fill:none;stroke:#000000;" x="753.944154" xlink:href="#md8e7a129ab" y="107.46"/>
     <use style="fill:none;stroke:#000000;" x="756.653124" xlink:href="#md8e7a129ab" y="107.46"/>
     <use style="fill:none;stroke:#000000;" x="763.696446" xlink:href="#md8e7a129ab" y="107.46"/>
     <use style="fill:none;stroke:#000000;" x="764.346599" xlink:href="#md8e7a129ab" y="107.46"/>
     <use style="fill:none;stroke:#000000;" x="768.139158" xlink:href="#md8e7a129ab" y="107.46"/>
     <use style="fill:none;stroke:#000000;" x="778.324885" xlink:href="#md8e7a129ab" y="107.46"/>
     <use style="fill:none;stroke:#000000;" x="779.300115" xlink:href="#md8e7a129ab" y="107.46"/>
     <use style="fill:none;stroke:#000000;" x="792.519889" xlink:href="#md8e7a129ab" y="107.46"/>
     <use style="fill:none;stroke:#000000;" x="834.454748" xlink:href="#md8e7a129ab" y="107.46"/>
     <use style="fill:none;stroke:#000000;" x="843.015094" xlink:href="#md8e7a129ab" y="107.46"/>
     <use style="fill:none;stroke:#000000;" x="845.940781" xlink:href="#md8e7a129ab" y="107.46"/>
     <use style="fill:none;stroke:#000000;" x="863.711626" xlink:href="#md8e7a129ab" y="107.46"/>
     <use style="fill:none;stroke:#000000;" x="864.036702" xlink:href="#md8e7a129ab" y="107.46"/>
     <use style="fill:none;stroke:#000000;" x="881.915905" xlink:href="#md8e7a129ab" y="107.46"/>
     <use style="fill:none;stroke:#000000;" x="893.943733" xlink:href="#md8e7a129ab" y="107.46"/>
     <use style="fill:none;stroke:#000000;" x="899.470032" xlink:href="#md8e7a129ab" y="107.46"/>
     <use style="fill:none;stroke:#000000;" x="929.485422" xlink:href="#md8e7a129ab" y="107.46"/>
     <use style="fill:none;stroke:#000000;" x="944.330579" xlink:href="#md8e7a129ab" y="107.46"/>
    </g>
   </g>
   <g id="line2d_25">
    <path clip-path="url(#p43a6879163)" d="M 410.121658 113.5755 
L 410.121658 101.3445 
" style="fill:none;stroke:#ff7f0e;stroke-linecap:square;"/>
   </g>
   <g id="patch_8">
    <path d="M 363.272727 189 
L 363.272727 25.92 
" style="fill:none;stroke:#000000;stroke-linecap:square;stroke-linejoin:miter;stroke-width:0.8;"/>
   </g>
   <g id="patch_9">
    <path d="M 972 189 
L 972 25.92 
" style="fill:none;stroke:#000000;stroke-linecap:square;stroke-linejoin:miter;stroke-width:0.8;"/>
   </g>
   <g id="patch_10">
    <path d="M 363.272727 189 
L 972 189 
" style="fill:none;stroke:#000000;stroke-linecap:square;stroke-linejoin:miter;stroke-width:0.8;"/>
   </g>
   <g id="patch_11">
    <path d="M 363.272727 25.92 
L 972 25.92 
" style="fill:none;stroke:#000000;stroke-linecap:square;stroke-linejoin:miter;stroke-width:0.8;"/>
   </g>
   <g id="text_19">
    <!-- box-plot -->
    <defs>
     <path d="M 48.6875 27.296875 
Q 48.6875 37.203125 44.609375 42.84375 
Q 40.53125 48.484375 33.40625 48.484375 
Q 26.265625 48.484375 22.1875 42.84375 
Q 18.109375 37.203125 18.109375 27.296875 
Q 18.109375 17.390625 22.1875 11.75 
Q 26.265625 6.109375 33.40625 6.109375 
Q 40.53125 6.109375 44.609375 11.75 
Q 48.6875 17.390625 48.6875 27.296875 
z
M 18.109375 46.390625 
Q 20.953125 51.265625 25.265625 53.625 
Q 29.59375 56 35.59375 56 
Q 45.5625 56 51.78125 48.09375 
Q 58.015625 40.1875 58.015625 27.296875 
Q 58.015625 14.40625 51.78125 6.484375 
Q 45.5625 -1.421875 35.59375 -1.421875 
Q 29.59375 -1.421875 25.265625 0.953125 
Q 20.953125 3.328125 18.109375 8.203125 
L 18.109375 0 
L 9.078125 0 
L 9.078125 75.984375 
L 18.109375 75.984375 
z
" id="DejaVuSans-62"/>
     <path d="M 54.890625 54.6875 
L 35.109375 28.078125 
L 55.90625 0 
L 45.3125 0 
L 29.390625 21.484375 
L 13.484375 0 
L 2.875 0 
L 24.125 28.609375 
L 4.6875 54.6875 
L 15.28125 54.6875 
L 29.78125 35.203125 
L 44.28125 54.6875 
z
" id="DejaVuSans-78"/>
     <path d="M 4.890625 31.390625 
L 31.203125 31.390625 
L 31.203125 23.390625 
L 4.890625 23.390625 
z
" id="DejaVuSans-2d"/>
    </defs>
    <g transform="translate(642.943551 19.92)scale(0.12 -0.12)">
     <use xlink:href="#DejaVuSans-62"/>
     <use x="63.476562" xlink:href="#DejaVuSans-6f"/>
     <use x="124.611328" xlink:href="#DejaVuSans-78"/>
     <use x="183.791016" xlink:href="#DejaVuSans-2d"/>
     <use x="219.875" xlink:href="#DejaVuSans-70"/>
     <use x="283.351562" xlink:href="#DejaVuSans-6c"/>
     <use x="311.134766" xlink:href="#DejaVuSans-6f"/>
     <use x="372.316406" xlink:href="#DejaVuSans-74"/>
    </g>
   </g>
  </g>
 </g>
 <defs>
  <clipPath id="p9553fc10dc">
   <rect height="163.08" width="152.181818" x="135" y="25.92"/>
  </clipPath>
  <clipPath id="p43a6879163">
   <rect height="163.08" width="608.727273" x="363.272727" y="25.92"/>
  </clipPath>
 </defs>
</svg>
