<?xml version="1.0" encoding="utf-8" standalone="no"?>
<!DOCTYPE svg PUBLIC "-//W3C//DTD SVG 1.1//EN"
  "http://www.w3.org/Graphics/SVG/1.1/DTD/svg11.dtd">
<!-- Created with matplotlib (http://matplotlib.org/) -->
<svg height="216pt" version="1.1" viewBox="0 0 1080 216" width="1080pt" xmlns="http://www.w3.org/2000/svg" xmlns:xlink="http://www.w3.org/1999/xlink">
 <defs>
  <style type="text/css">
*{stroke-linecap:butt;stroke-linejoin:round;}
  </style>
 </defs>
 <g id="figure_1">
  <g id="patch_1">
   <path d="M 0 216 
L 1080 216 
L 1080 0 
L 0 0 
z
" style="fill:#ffffff;"/>
  </g>
  <g id="axes_1">
   <g id="patch_2">
    <path d="M 135 189 
L 287.181818 189 
L 287.181818 25.92 
L 135 25.92 
z
" style="fill:#ffffff;"/>
   </g>
   <g id="matplotlib.axis_1">
    <g id="xtick_1">
     <g id="line2d_1">
      <defs>
       <path d="M 0 0 
L 0 3.5 
" id="m2d5284a79a" style="stroke:#000000;stroke-width:0.8;"/>
      </defs>
      <g>
       <use style="stroke:#000000;stroke-width:0.8;" x="141.917355" xlink:href="#m2d5284a79a" y="189"/>
      </g>
     </g>
     <g id="text_1">
      <!-- 0 -->
      <defs>
       <path d="M 31.78125 66.40625 
Q 24.171875 66.40625 20.328125 58.90625 
Q 16.5 51.421875 16.5 36.375 
Q 16.5 21.390625 20.328125 13.890625 
Q 24.171875 6.390625 31.78125 6.390625 
Q 39.453125 6.390625 43.28125 13.890625 
Q 47.125 21.390625 47.125 36.375 
Q 47.125 51.421875 43.28125 58.90625 
Q 39.453125 66.40625 31.78125 66.40625 
z
M 31.78125 74.21875 
Q 44.046875 74.21875 50.515625 64.515625 
Q 56.984375 54.828125 56.984375 36.375 
Q 56.984375 17.96875 50.515625 8.265625 
Q 44.046875 -1.421875 31.78125 -1.421875 
Q 19.53125 -1.421875 13.0625 8.265625 
Q 6.59375 17.96875 6.59375 36.375 
Q 6.59375 54.828125 13.0625 64.515625 
Q 19.53125 74.21875 31.78125 74.21875 
z
" id="DejaVuSans-30"/>
      </defs>
      <g transform="translate(138.736105 203.598437)scale(0.1 -0.1)">
       <use xlink:href="#DejaVuSans-30"/>
      </g>
     </g>
    </g>
    <g id="xtick_2">
     <g id="line2d_2">
      <g>
       <use style="stroke:#000000;stroke-width:0.8;" x="177.445632" xlink:href="#m2d5284a79a" y="189"/>
      </g>
     </g>
     <g id="text_2">
      <!-- 500 -->
      <defs>
       <path d="M 10.796875 72.90625 
L 49.515625 72.90625 
L 49.515625 64.59375 
L 19.828125 64.59375 
L 19.828125 46.734375 
Q 21.96875 47.46875 24.109375 47.828125 
Q 26.265625 48.1875 28.421875 48.1875 
Q 40.625 48.1875 47.75 41.5 
Q 54.890625 34.8125 54.890625 23.390625 
Q 54.890625 11.625 47.5625 5.09375 
Q 40.234375 -1.421875 26.90625 -1.421875 
Q 22.3125 -1.421875 17.546875 -0.640625 
Q 12.796875 0.140625 7.71875 1.703125 
L 7.71875 11.625 
Q 12.109375 9.234375 16.796875 8.0625 
Q 21.484375 6.890625 26.703125 6.890625 
Q 35.15625 6.890625 40.078125 11.328125 
Q 45.015625 15.765625 45.015625 23.390625 
Q 45.015625 31 40.078125 35.4375 
Q 35.15625 39.890625 26.703125 39.890625 
Q 22.75 39.890625 18.8125 39.015625 
Q 14.890625 38.140625 10.796875 36.28125 
z
" id="DejaVuSans-35"/>
      </defs>
      <g transform="translate(167.901882 203.598437)scale(0.1 -0.1)">
       <use xlink:href="#DejaVuSans-35"/>
       <use x="63.623047" xlink:href="#DejaVuSans-30"/>
       <use x="127.246094" xlink:href="#DejaVuSans-30"/>
      </g>
     </g>
    </g>
    <g id="xtick_3">
     <g id="line2d_3">
      <g>
       <use style="stroke:#000000;stroke-width:0.8;" x="212.973908" xlink:href="#m2d5284a79a" y="189"/>
      </g>
     </g>
     <g id="text_3">
      <!-- 1000 -->
      <defs>
       <path d="M 12.40625 8.296875 
L 28.515625 8.296875 
L 28.515625 63.921875 
L 10.984375 60.40625 
L 10.984375 69.390625 
L 28.421875 72.90625 
L 38.28125 72.90625 
L 38.28125 8.296875 
L 54.390625 8.296875 
L 54.390625 0 
L 12.40625 0 
z
" id="DejaVuSans-31"/>
      </defs>
      <g transform="translate(200.248908 203.598437)scale(0.1 -0.1)">
       <use xlink:href="#DejaVuSans-31"/>
       <use x="63.623047" xlink:href="#DejaVuSans-30"/>
       <use x="127.246094" xlink:href="#DejaVuSans-30"/>
       <use x="190.869141" xlink:href="#DejaVuSans-30"/>
      </g>
     </g>
    </g>
    <g id="xtick_4">
     <g id="line2d_4">
      <g>
       <use style="stroke:#000000;stroke-width:0.8;" x="248.502184" xlink:href="#m2d5284a79a" y="189"/>
      </g>
     </g>
     <g id="text_4">
      <!-- 1500 -->
      <g transform="translate(235.777184 203.598437)scale(0.1 -0.1)">
       <use xlink:href="#DejaVuSans-31"/>
       <use x="63.623047" xlink:href="#DejaVuSans-35"/>
       <use x="127.246094" xlink:href="#DejaVuSans-30"/>
       <use x="190.869141" xlink:href="#DejaVuSans-30"/>
      </g>
     </g>
    </g>
    <g id="xtick_5">
     <g id="line2d_5">
      <g>
       <use style="stroke:#000000;stroke-width:0.8;" x="284.03046" xlink:href="#m2d5284a79a" y="189"/>
      </g>
     </g>
     <g id="text_5">
      <!-- 2000 -->
      <defs>
       <path d="M 19.1875 8.296875 
L 53.609375 8.296875 
L 53.609375 0 
L 7.328125 0 
L 7.328125 8.296875 
Q 12.9375 14.109375 22.625 23.890625 
Q 32.328125 33.6875 34.8125 36.53125 
Q 39.546875 41.84375 41.421875 45.53125 
Q 43.3125 49.21875 43.3125 52.78125 
Q 43.3125 58.59375 39.234375 62.25 
Q 35.15625 65.921875 28.609375 65.921875 
Q 23.96875 65.921875 18.8125 64.3125 
Q 13.671875 62.703125 7.8125 59.421875 
L 7.8125 69.390625 
Q 13.765625 71.78125 18.9375 73 
Q 24.125 74.21875 28.421875 74.21875 
Q 39.75 74.21875 46.484375 68.546875 
Q 53.21875 62.890625 53.21875 53.421875 
Q 53.21875 48.921875 51.53125 44.890625 
Q 49.859375 40.875 45.40625 35.40625 
Q 44.1875 33.984375 37.640625 27.21875 
Q 31.109375 20.453125 19.1875 8.296875 
z
" id="DejaVuSans-32"/>
      </defs>
      <g transform="translate(271.30546 203.598437)scale(0.1 -0.1)">
       <use xlink:href="#DejaVuSans-32"/>
       <use x="63.623047" xlink:href="#DejaVuSans-30"/>
       <use x="127.246094" xlink:href="#DejaVuSans-30"/>
       <use x="190.869141" xlink:href="#DejaVuSans-30"/>
      </g>
     </g>
    </g>
   </g>
   <g id="matplotlib.axis_2">
    <g id="ytick_1">
     <g id="line2d_6">
      <defs>
       <path d="M 0 0 
L -3.5 0 
" id="m90cf3f6605" style="stroke:#000000;stroke-width:0.8;"/>
      </defs>
      <g>
       <use style="stroke:#000000;stroke-width:0.8;" x="135" xlink:href="#m90cf3f6605" y="184.213546"/>
      </g>
     </g>
     <g id="text_6">
      <!-- 0 -->
      <g transform="translate(121.6375 188.012764)scale(0.1 -0.1)">
       <use xlink:href="#DejaVuSans-30"/>
      </g>
     </g>
    </g>
    <g id="ytick_2">
     <g id="line2d_7">
      <g>
       <use style="stroke:#000000;stroke-width:0.8;" x="135" xlink:href="#m90cf3f6605" y="155.353404"/>
      </g>
     </g>
     <g id="text_7">
      <!-- 1000 -->
      <g transform="translate(102.55 159.152623)scale(0.1 -0.1)">
       <use xlink:href="#DejaVuSans-31"/>
       <use x="63.623047" xlink:href="#DejaVuSans-30"/>
       <use x="127.246094" xlink:href="#DejaVuSans-30"/>
       <use x="190.869141" xlink:href="#DejaVuSans-30"/>
      </g>
     </g>
    </g>
    <g id="ytick_3">
     <g id="line2d_8">
      <g>
       <use style="stroke:#000000;stroke-width:0.8;" x="135" xlink:href="#m90cf3f6605" y="126.493263"/>
      </g>
     </g>
     <g id="text_8">
      <!-- 2000 -->
      <g transform="translate(102.55 130.292482)scale(0.1 -0.1)">
       <use xlink:href="#DejaVuSans-32"/>
       <use x="63.623047" xlink:href="#DejaVuSans-30"/>
       <use x="127.246094" xlink:href="#DejaVuSans-30"/>
       <use x="190.869141" xlink:href="#DejaVuSans-30"/>
      </g>
     </g>
    </g>
    <g id="ytick_4">
     <g id="line2d_9">
      <g>
       <use style="stroke:#000000;stroke-width:0.8;" x="135" xlink:href="#m90cf3f6605" y="97.633122"/>
      </g>
     </g>
     <g id="text_9">
      <!-- 3000 -->
      <defs>
       <path d="M 40.578125 39.3125 
Q 47.65625 37.796875 51.625 33 
Q 55.609375 28.21875 55.609375 21.1875 
Q 55.609375 10.40625 48.1875 4.484375 
Q 40.765625 -1.421875 27.09375 -1.421875 
Q 22.515625 -1.421875 17.65625 -0.515625 
Q 12.796875 0.390625 7.625 2.203125 
L 7.625 11.71875 
Q 11.71875 9.328125 16.59375 8.109375 
Q 21.484375 6.890625 26.8125 6.890625 
Q 36.078125 6.890625 40.9375 10.546875 
Q 45.796875 14.203125 45.796875 21.1875 
Q 45.796875 27.640625 41.28125 31.265625 
Q 36.765625 34.90625 28.71875 34.90625 
L 20.21875 34.90625 
L 20.21875 43.015625 
L 29.109375 43.015625 
Q 36.375 43.015625 40.234375 45.921875 
Q 44.09375 48.828125 44.09375 54.296875 
Q 44.09375 59.90625 40.109375 62.90625 
Q 36.140625 65.921875 28.71875 65.921875 
Q 24.65625 65.921875 20.015625 65.03125 
Q 15.375 64.15625 9.8125 62.3125 
L 9.8125 71.09375 
Q 15.4375 72.65625 20.34375 73.4375 
Q 25.25 74.21875 29.59375 74.21875 
Q 40.828125 74.21875 47.359375 69.109375 
Q 53.90625 64.015625 53.90625 55.328125 
Q 53.90625 49.265625 50.4375 45.09375 
Q 46.96875 40.921875 40.578125 39.3125 
z
" id="DejaVuSans-33"/>
      </defs>
      <g transform="translate(102.55 101.432341)scale(0.1 -0.1)">
       <use xlink:href="#DejaVuSans-33"/>
       <use x="63.623047" xlink:href="#DejaVuSans-30"/>
       <use x="127.246094" xlink:href="#DejaVuSans-30"/>
       <use x="190.869141" xlink:href="#DejaVuSans-30"/>
      </g>
     </g>
    </g>
    <g id="ytick_5">
     <g id="line2d_10">
      <g>
       <use style="stroke:#000000;stroke-width:0.8;" x="135" xlink:href="#m90cf3f6605" y="68.772981"/>
      </g>
     </g>
     <g id="text_10">
      <!-- 4000 -->
      <defs>
       <path d="M 37.796875 64.3125 
L 12.890625 25.390625 
L 37.796875 25.390625 
z
M 35.203125 72.90625 
L 47.609375 72.90625 
L 47.609375 25.390625 
L 58.015625 25.390625 
L 58.015625 17.1875 
L 47.609375 17.1875 
L 47.609375 0 
L 37.796875 0 
L 37.796875 17.1875 
L 4.890625 17.1875 
L 4.890625 26.703125 
z
" id="DejaVuSans-34"/>
      </defs>
      <g transform="translate(102.55 72.572199)scale(0.1 -0.1)">
       <use xlink:href="#DejaVuSans-34"/>
       <use x="63.623047" xlink:href="#DejaVuSans-30"/>
       <use x="127.246094" xlink:href="#DejaVuSans-30"/>
       <use x="190.869141" xlink:href="#DejaVuSans-30"/>
      </g>
     </g>
    </g>
    <g id="ytick_6">
     <g id="line2d_11">
      <g>
       <use style="stroke:#000000;stroke-width:0.8;" x="135" xlink:href="#m90cf3f6605" y="39.912839"/>
      </g>
     </g>
     <g id="text_11">
      <!-- 5000 -->
      <g transform="translate(102.55 43.712058)scale(0.1 -0.1)">
       <use xlink:href="#DejaVuSans-35"/>
       <use x="63.623047" xlink:href="#DejaVuSans-30"/>
       <use x="127.246094" xlink:href="#DejaVuSans-30"/>
       <use x="190.869141" xlink:href="#DejaVuSans-30"/>
      </g>
     </g>
    </g>
   </g>
   <g id="line2d_12">
    <path clip-path="url(#p3cfc36825c)" d="M 141.917355 181.587273 
L 145.185957 181.500692 
L 145.54124 181.471832 
L 149.094067 181.385252 
L 149.44935 181.356392 
L 152.789008 181.269811 
L 153.144291 181.240951 
L 155.84444 181.154371 
L 156.199722 181.12551 
L 158.899871 181.03893 
L 159.255154 181.01007 
L 161.457907 180.923489 
L 161.81319 180.894629 
L 164.300169 180.808049 
L 164.655452 180.779189 
L 166.716092 180.692608 
L 167.071375 180.663748 
L 169.132015 180.577168 
L 169.487298 180.548308 
L 171.263711 180.461727 
L 171.618994 180.432867 
L 173.182238 180.346287 
L 173.537521 180.317427 
L 175.598161 180.230846 
L 175.953444 180.201986 
L 177.800914 180.115406 
L 178.227254 180.057685 
L 180.35895 179.971105 
L 180.714233 179.942245 
L 182.988043 179.855664 
L 183.414382 179.797944 
L 185.332909 179.711364 
L 185.759248 179.653643 
L 187.464605 179.567063 
L 187.890945 179.509343 
L 189.667359 179.422762 
L 190.022641 179.393902 
L 190.87532 179.307322 
L 191.372716 179.220741 
L 193.007017 179.134161 
L 193.362299 179.105301 
L 194.357091 179.01872 
L 194.712374 178.98986 
L 195.778222 178.90328 
L 196.204561 178.845559 
L 197.05724 178.758979 
L 197.483579 178.701259 
L 198.833654 178.614678 
L 199.33105 178.528098 
L 200.254785 178.441517 
L 200.610068 178.412657 
L 201.960142 178.326077 
L 202.315425 178.297217 
L 203.45233 178.210636 
L 203.878669 178.152916 
L 204.731348 178.066335 
L 205.228744 177.979755 
L 205.939309 177.893175 
L 206.365648 177.835454 
L 207.644666 177.748874 
L 208.142062 177.662294 
L 209.136854 177.575713 
L 209.563193 177.517993 
L 210.202702 177.431412 
L 210.700098 177.344832 
L 211.126437 177.258252 
L 211.552777 177.200531 
L 212.618625 177.113951 
L 213.044964 177.056231 
L 213.897643 176.96965 
L 214.466095 176.85421 
L 214.963491 176.767629 
L 215.460887 176.681049 
L 216.171453 176.594468 
L 216.668848 176.507888 
L 217.450471 176.421307 
L 217.947866 176.334727 
L 218.445262 176.248147 
L 218.658432 176.190426 
L 219.155828 176.103846 
L 219.511111 176.074986 
L 220.434846 175.988405 
L 221.074355 175.844105 
L 221.642807 175.757524 
L 222.140203 175.670944 
L 223.134995 175.584363 
L 223.84556 175.411203 
L 224.840352 175.353482 
L 225.053522 175.295762 
L 225.337748 175.238042 
L 225.550917 175.180321 
L 226.11937 175.064881 
L 226.403596 175.007161 
L 226.616766 174.92058 
L 227.185218 174.834 
L 227.611558 174.776279 
L 228.18001 174.689699 
L 228.748462 174.574258 
L 229.530084 174.487678 
L 230.169593 174.343377 
L 230.666989 174.256797 
L 231.164385 174.170216 
L 232.08812 174.083636 
L 232.372347 173.968195 
L 233.722421 173.535293 
L 233.935591 173.477573 
L 234.14876 173.390993 
L 234.432987 173.333272 
L 234.717213 173.217832 
L 235.001439 173.160111 
L 235.356722 172.986951 
L 236.280457 172.90037 
L 237.346305 172.582909 
L 237.772645 172.496328 
L 238.48321 172.323167 
L 238.909549 172.236587 
L 239.122719 172.150007 
L 239.549058 172.063426 
L 239.762228 171.976846 
L 240.472793 171.803685 
L 240.828076 171.745965 
L 240.970189 171.572804 
L 241.183359 171.543944 
L 241.467585 171.370783 
L 241.751811 171.284202 
L 242.036038 171.111041 
L 242.320264 171.024461 
L 243.741395 170.562699 
L 244.167734 170.476118 
L 247.081053 169.408293 
L 247.649505 169.321713 
L 247.933731 169.148552 
L 248.715354 168.629069 
L 249.212749 168.542489 
L 249.710145 168.282748 
L 249.923315 168.138447 
L 250.491767 168.051866 
L 251.06022 167.705545 
L 251.344446 167.647825 
L 251.841842 167.359223 
L 252.126068 167.272643 
L 252.410294 167.012901 
L 252.481351 167.012901 
L 252.69452 166.78202 
L 252.90769 166.63772 
L 253.12086 166.551139 
L 253.262973 166.349118 
L 253.476143 166.262538 
L 254.897274 165.627615 
L 255.110443 165.425594 
L 255.607839 164.76181 
L 256.105235 164.444349 
L 256.318405 164.328908 
L 257.24214 163.953726 
L 257.526366 163.405384 
L 257.810592 163.001342 
L 258.307988 162.68388 
L 258.663271 162.308698 
L 259.08961 162.048957 
L 259.51595 161.702635 
L 260.439685 161.298593 
L 260.723911 160.63481 
L 260.866024 160.54823 
L 261.292363 160.288489 
L 262.287155 158.960922 
L 262.429268 158.701181 
L 262.642438 158.6146 
L 262.926664 158.383719 
L 263.779343 157.575635 
L 263.921456 157.344754 
L 264.134625 157.142733 
L 264.205682 157.056153 
L 264.418852 156.59439 
L 264.703078 156.363509 
L 265.69787 155.064803 
L 265.839983 154.718481 
L 266.195265 154.198999 
L 266.408435 153.592936 
L 266.550548 153.506355 
L 266.763718 153.015733 
L 266.834774 152.986873 
L 267.119001 152.525111 
L 267.190057 152.49625 
L 267.403227 151.774747 
L 267.829566 150.937803 
L 268.042736 150.764642 
L 268.469075 149.033033 
L 268.540132 148.975313 
L 269.321754 146.955103 
L 269.890206 146.608782 
L 270.103376 146.29132 
L 270.458659 145.714117 
L 270.742885 144.877173 
L 270.813941 144.819453 
L 271.098168 143.722767 
L 271.169224 143.693907 
L 271.524507 142.799243 
L 271.737677 142.452921 
L 272.092959 141.154215 
L 272.235072 141.096495 
L 272.448242 140.11525 
L 272.590355 139.942089 
L 273.300921 136.305711 
L 273.443034 135.035865 
L 273.51409 134.978145 
L 274.082543 132.236431 
L 274.224656 131.457207 
L 274.295712 131.370627 
L 274.437826 129.667879 
L 274.508882 129.581298 
L 274.722052 129.004095 
L 274.935221 128.542333 
L 275.148391 126.810725 
L 275.503674 125.742899 
L 275.716843 123.982431 
L 275.858957 123.318648 
L 276.00107 123.087766 
L 276.214239 122.799165 
L 276.356352 120.057452 
L 276.427409 120.057452 
L 276.569522 119.422529 
L 276.640579 119.393668 
L 276.995861 116.565375 
L 277.137975 116.392214 
L 277.209031 114.949207 
L 277.351144 110.620185 
L 277.493257 106.291164 
L 277.63537 103.549451 
L 278.06171 99.076129 
L 278.416992 94.775968 
L 278.488049 94.198765 
L 278.630162 89.321401 
L 278.985445 86.348807 
L 279.198615 81.442583 
L 279.269671 81.269422 
L 279.340728 80.259317 
L 279.553897 73.765785 
L 279.69601 60.316959 
L 279.767067 59.537736 
L 280.051293 46.752693 
L 280.12235 45.280826 
L 280.264463 33.332727 
L 280.264463 33.332727 
" style="fill:none;stroke:#1f77b4;stroke-linecap:square;stroke-width:1.5;"/>
   </g>
   <g id="patch_3">
    <path d="M 135 189 
L 135 25.92 
" style="fill:none;stroke:#000000;stroke-linecap:square;stroke-linejoin:miter;stroke-width:0.8;"/>
   </g>
   <g id="patch_4">
    <path d="M 287.181818 189 
L 287.181818 25.92 
" style="fill:none;stroke:#000000;stroke-linecap:square;stroke-linejoin:miter;stroke-width:0.8;"/>
   </g>
   <g id="patch_5">
    <path d="M 135 189 
L 287.181818 189 
" style="fill:none;stroke:#000000;stroke-linecap:square;stroke-linejoin:miter;stroke-width:0.8;"/>
   </g>
   <g id="patch_6">
    <path d="M 135 25.92 
L 287.181818 25.92 
" style="fill:none;stroke:#000000;stroke-linecap:square;stroke-linejoin:miter;stroke-width:0.8;"/>
   </g>
   <g id="text_12">
    <!-- sorted plot -->
    <defs>
     <path d="M 44.28125 53.078125 
L 44.28125 44.578125 
Q 40.484375 46.53125 36.375 47.5 
Q 32.28125 48.484375 27.875 48.484375 
Q 21.1875 48.484375 17.84375 46.4375 
Q 14.5 44.390625 14.5 40.28125 
Q 14.5 37.15625 16.890625 35.375 
Q 19.28125 33.59375 26.515625 31.984375 
L 29.59375 31.296875 
Q 39.15625 29.25 43.1875 25.515625 
Q 47.21875 21.78125 47.21875 15.09375 
Q 47.21875 7.46875 41.1875 3.015625 
Q 35.15625 -1.421875 24.609375 -1.421875 
Q 20.21875 -1.421875 15.453125 -0.5625 
Q 10.6875 0.296875 5.421875 2 
L 5.421875 11.28125 
Q 10.40625 8.6875 15.234375 7.390625 
Q 20.0625 6.109375 24.8125 6.109375 
Q 31.15625 6.109375 34.5625 8.28125 
Q 37.984375 10.453125 37.984375 14.40625 
Q 37.984375 18.0625 35.515625 20.015625 
Q 33.0625 21.96875 24.703125 23.78125 
L 21.578125 24.515625 
Q 13.234375 26.265625 9.515625 29.90625 
Q 5.8125 33.546875 5.8125 39.890625 
Q 5.8125 47.609375 11.28125 51.796875 
Q 16.75 56 26.8125 56 
Q 31.78125 56 36.171875 55.265625 
Q 40.578125 54.546875 44.28125 53.078125 
z
" id="DejaVuSans-73"/>
     <path d="M 30.609375 48.390625 
Q 23.390625 48.390625 19.1875 42.75 
Q 14.984375 37.109375 14.984375 27.296875 
Q 14.984375 17.484375 19.15625 11.84375 
Q 23.34375 6.203125 30.609375 6.203125 
Q 37.796875 6.203125 41.984375 11.859375 
Q 46.1875 17.53125 46.1875 27.296875 
Q 46.1875 37.015625 41.984375 42.703125 
Q 37.796875 48.390625 30.609375 48.390625 
z
M 30.609375 56 
Q 42.328125 56 49.015625 48.375 
Q 55.71875 40.765625 55.71875 27.296875 
Q 55.71875 13.875 49.015625 6.21875 
Q 42.328125 -1.421875 30.609375 -1.421875 
Q 18.84375 -1.421875 12.171875 6.21875 
Q 5.515625 13.875 5.515625 27.296875 
Q 5.515625 40.765625 12.171875 48.375 
Q 18.84375 56 30.609375 56 
z
" id="DejaVuSans-6f"/>
     <path d="M 41.109375 46.296875 
Q 39.59375 47.171875 37.8125 47.578125 
Q 36.03125 48 33.890625 48 
Q 26.265625 48 22.1875 43.046875 
Q 18.109375 38.09375 18.109375 28.8125 
L 18.109375 0 
L 9.078125 0 
L 9.078125 54.6875 
L 18.109375 54.6875 
L 18.109375 46.1875 
Q 20.953125 51.171875 25.484375 53.578125 
Q 30.03125 56 36.53125 56 
Q 37.453125 56 38.578125 55.875 
Q 39.703125 55.765625 41.0625 55.515625 
z
" id="DejaVuSans-72"/>
     <path d="M 18.3125 70.21875 
L 18.3125 54.6875 
L 36.8125 54.6875 
L 36.8125 47.703125 
L 18.3125 47.703125 
L 18.3125 18.015625 
Q 18.3125 11.328125 20.140625 9.421875 
Q 21.96875 7.515625 27.59375 7.515625 
L 36.8125 7.515625 
L 36.8125 0 
L 27.59375 0 
Q 17.1875 0 13.234375 3.875 
Q 9.28125 7.765625 9.28125 18.015625 
L 9.28125 47.703125 
L 2.6875 47.703125 
L 2.6875 54.6875 
L 9.28125 54.6875 
L 9.28125 70.21875 
z
" id="DejaVuSans-74"/>
     <path d="M 56.203125 29.59375 
L 56.203125 25.203125 
L 14.890625 25.203125 
Q 15.484375 15.921875 20.484375 11.0625 
Q 25.484375 6.203125 34.421875 6.203125 
Q 39.59375 6.203125 44.453125 7.46875 
Q 49.3125 8.734375 54.109375 11.28125 
L 54.109375 2.78125 
Q 49.265625 0.734375 44.1875 -0.34375 
Q 39.109375 -1.421875 33.890625 -1.421875 
Q 20.796875 -1.421875 13.15625 6.1875 
Q 5.515625 13.8125 5.515625 26.8125 
Q 5.515625 40.234375 12.765625 48.109375 
Q 20.015625 56 32.328125 56 
Q 43.359375 56 49.78125 48.890625 
Q 56.203125 41.796875 56.203125 29.59375 
z
M 47.21875 32.234375 
Q 47.125 39.59375 43.09375 43.984375 
Q 39.0625 48.390625 32.421875 48.390625 
Q 24.90625 48.390625 20.390625 44.140625 
Q 15.875 39.890625 15.1875 32.171875 
z
" id="DejaVuSans-65"/>
     <path d="M 45.40625 46.390625 
L 45.40625 75.984375 
L 54.390625 75.984375 
L 54.390625 0 
L 45.40625 0 
L 45.40625 8.203125 
Q 42.578125 3.328125 38.25 0.953125 
Q 33.9375 -1.421875 27.875 -1.421875 
Q 17.96875 -1.421875 11.734375 6.484375 
Q 5.515625 14.40625 5.515625 27.296875 
Q 5.515625 40.1875 11.734375 48.09375 
Q 17.96875 56 27.875 56 
Q 33.9375 56 38.25 53.625 
Q 42.578125 51.265625 45.40625 46.390625 
z
M 14.796875 27.296875 
Q 14.796875 17.390625 18.875 11.75 
Q 22.953125 6.109375 30.078125 6.109375 
Q 37.203125 6.109375 41.296875 11.75 
Q 45.40625 17.390625 45.40625 27.296875 
Q 45.40625 37.203125 41.296875 42.84375 
Q 37.203125 48.484375 30.078125 48.484375 
Q 22.953125 48.484375 18.875 42.84375 
Q 14.796875 37.203125 14.796875 27.296875 
z
" id="DejaVuSans-64"/>
     <path id="DejaVuSans-20"/>
     <path d="M 18.109375 8.203125 
L 18.109375 -20.796875 
L 9.078125 -20.796875 
L 9.078125 54.6875 
L 18.109375 54.6875 
L 18.109375 46.390625 
Q 20.953125 51.265625 25.265625 53.625 
Q 29.59375 56 35.59375 56 
Q 45.5625 56 51.78125 48.09375 
Q 58.015625 40.1875 58.015625 27.296875 
Q 58.015625 14.40625 51.78125 6.484375 
Q 45.5625 -1.421875 35.59375 -1.421875 
Q 29.59375 -1.421875 25.265625 0.953125 
Q 20.953125 3.328125 18.109375 8.203125 
z
M 48.6875 27.296875 
Q 48.6875 37.203125 44.609375 42.84375 
Q 40.53125 48.484375 33.40625 48.484375 
Q 26.265625 48.484375 22.1875 42.84375 
Q 18.109375 37.203125 18.109375 27.296875 
Q 18.109375 17.390625 22.1875 11.75 
Q 26.265625 6.109375 33.40625 6.109375 
Q 40.53125 6.109375 44.609375 11.75 
Q 48.6875 17.390625 48.6875 27.296875 
z
" id="DejaVuSans-70"/>
     <path d="M 9.421875 75.984375 
L 18.40625 75.984375 
L 18.40625 0 
L 9.421875 0 
z
" id="DejaVuSans-6c"/>
    </defs>
    <g transform="translate(178.568097 19.92)scale(0.12 -0.12)">
     <use xlink:href="#DejaVuSans-73"/>
     <use x="52.099609" xlink:href="#DejaVuSans-6f"/>
     <use x="113.28125" xlink:href="#DejaVuSans-72"/>
     <use x="154.394531" xlink:href="#DejaVuSans-74"/>
     <use x="193.603516" xlink:href="#DejaVuSans-65"/>
     <use x="255.126953" xlink:href="#DejaVuSans-64"/>
     <use x="318.603516" xlink:href="#DejaVuSans-20"/>
     <use x="350.390625" xlink:href="#DejaVuSans-70"/>
     <use x="413.867188" xlink:href="#DejaVuSans-6c"/>
     <use x="441.650391" xlink:href="#DejaVuSans-6f"/>
     <use x="502.832031" xlink:href="#DejaVuSans-74"/>
    </g>
   </g>
  </g>
  <g id="axes_2">
   <g id="patch_7">
    <path d="M 363.272727 189 
L 972 189 
L 972 25.92 
L 363.272727 25.92 
z
" style="fill:#ffffff;"/>
   </g>
   <g id="matplotlib.axis_3">
    <g id="xtick_6">
     <g id="line2d_13">
      <g>
       <use style="stroke:#000000;stroke-width:0.8;" x="381.139083" xlink:href="#m2d5284a79a" y="189"/>
      </g>
     </g>
     <g id="text_13">
      <!-- 0 -->
      <g transform="translate(377.957833 203.598437)scale(0.1 -0.1)">
       <use xlink:href="#DejaVuSans-30"/>
      </g>
     </g>
    </g>
    <g id="xtick_7">
     <g id="line2d_14">
      <g>
       <use style="stroke:#000000;stroke-width:0.8;" x="488.865077" xlink:href="#m2d5284a79a" y="189"/>
      </g>
     </g>
     <g id="text_14">
      <!-- 1000 -->
      <g transform="translate(476.140077 203.598437)scale(0.1 -0.1)">
       <use xlink:href="#DejaVuSans-31"/>
       <use x="63.623047" xlink:href="#DejaVuSans-30"/>
       <use x="127.246094" xlink:href="#DejaVuSans-30"/>
       <use x="190.869141" xlink:href="#DejaVuSans-30"/>
      </g>
     </g>
    </g>
    <g id="xtick_8">
     <g id="line2d_15">
      <g>
       <use style="stroke:#000000;stroke-width:0.8;" x="596.591071" xlink:href="#m2d5284a79a" y="189"/>
      </g>
     </g>
     <g id="text_15">
      <!-- 2000 -->
      <g transform="translate(583.866071 203.598437)scale(0.1 -0.1)">
       <use xlink:href="#DejaVuSans-32"/>
       <use x="63.623047" xlink:href="#DejaVuSans-30"/>
       <use x="127.246094" xlink:href="#DejaVuSans-30"/>
       <use x="190.869141" xlink:href="#DejaVuSans-30"/>
      </g>
     </g>
    </g>
    <g id="xtick_9">
     <g id="line2d_16">
      <g>
       <use style="stroke:#000000;stroke-width:0.8;" x="704.317064" xlink:href="#m2d5284a79a" y="189"/>
      </g>
     </g>
     <g id="text_16">
      <!-- 3000 -->
      <g transform="translate(691.592064 203.598437)scale(0.1 -0.1)">
       <use xlink:href="#DejaVuSans-33"/>
       <use x="63.623047" xlink:href="#DejaVuSans-30"/>
       <use x="127.246094" xlink:href="#DejaVuSans-30"/>
       <use x="190.869141" xlink:href="#DejaVuSans-30"/>
      </g>
     </g>
    </g>
    <g id="xtick_10">
     <g id="line2d_17">
      <g>
       <use style="stroke:#000000;stroke-width:0.8;" x="812.043058" xlink:href="#m2d5284a79a" y="189"/>
      </g>
     </g>
     <g id="text_17">
      <!-- 4000 -->
      <g transform="translate(799.318058 203.598437)scale(0.1 -0.1)">
       <use xlink:href="#DejaVuSans-34"/>
       <use x="63.623047" xlink:href="#DejaVuSans-30"/>
       <use x="127.246094" xlink:href="#DejaVuSans-30"/>
       <use x="190.869141" xlink:href="#DejaVuSans-30"/>
      </g>
     </g>
    </g>
    <g id="xtick_11">
     <g id="line2d_18">
      <g>
       <use style="stroke:#000000;stroke-width:0.8;" x="919.769052" xlink:href="#m2d5284a79a" y="189"/>
      </g>
     </g>
     <g id="text_18">
      <!-- 5000 -->
      <g transform="translate(907.044052 203.598437)scale(0.1 -0.1)">
       <use xlink:href="#DejaVuSans-35"/>
       <use x="63.623047" xlink:href="#DejaVuSans-30"/>
       <use x="127.246094" xlink:href="#DejaVuSans-30"/>
       <use x="190.869141" xlink:href="#DejaVuSans-30"/>
      </g>
     </g>
    </g>
   </g>
   <g id="matplotlib.axis_4">
    <g id="ytick_7">
     <g id="line2d_19">
      <g>
       <use style="stroke:#000000;stroke-width:0.8;" x="363.272727" xlink:href="#m90cf3f6605" y="107.46"/>
      </g>
     </g>
     <g id="text_19">
      <!-- 1 -->
      <g transform="translate(349.910227 111.259219)scale(0.1 -0.1)">
       <use xlink:href="#DejaVuSans-31"/>
      </g>
     </g>
    </g>
   </g>
   <g id="line2d_20">
    <path clip-path="url(#pc04d628b21)" d="M 396.220722 119.691 
L 396.220722 95.229 
L 405.732065 95.229 
L 407.101048 101.3445 
L 408.47003 95.229 
L 434.705834 95.229 
L 434.705834 119.691 
L 408.47003 119.691 
L 407.101048 113.5755 
L 405.732065 119.691 
L 396.220722 119.691 
" style="fill:none;stroke:#000000;stroke-linecap:square;"/>
   </g>
   <g id="line2d_21">
    <path clip-path="url(#pc04d628b21)" d="M 396.220722 107.46 
L 390.942149 107.46 
" style="fill:none;stroke:#000000;stroke-linecap:square;"/>
   </g>
   <g id="line2d_22">
    <path clip-path="url(#pc04d628b21)" d="M 434.705834 107.46 
L 511.164358 107.46 
" style="fill:none;stroke:#000000;stroke-linecap:square;"/>
   </g>
   <g id="line2d_23">
    <path clip-path="url(#pc04d628b21)" d="M 390.942149 113.5755 
L 390.942149 101.3445 
" style="fill:none;stroke:#000000;stroke-linecap:square;"/>
   </g>
   <g id="line2d_24">
    <path clip-path="url(#pc04d628b21)" d="M 511.164358 113.5755 
L 511.164358 101.3445 
" style="fill:none;stroke:#000000;stroke-linecap:square;"/>
   </g>
   <g id="line2d_25">
    <defs>
     <path d="M 0 3 
C 0.795609 3 1.55874 2.683901 2.12132 2.12132 
C 2.683901 1.55874 3 0.795609 3 0 
C 3 -0.795609 2.683901 -1.55874 2.12132 -2.12132 
C 1.55874 -2.683901 0.795609 -3 0 -3 
C -0.795609 -3 -1.55874 -2.683901 -2.12132 -2.12132 
C -2.683901 -1.55874 -3 -0.795609 -3 0 
C -3 0.795609 -2.683901 1.55874 -2.12132 2.12132 
C -1.55874 2.683901 -0.795609 3 0 3 
z
" id="mbaff161353" style="stroke:#000000;"/>
    </defs>
    <g clip-path="url(#pc04d628b21)">
     <use style="fill:none;stroke:#000000;" x="512.133892" xlink:href="#mbaff161353" y="107.46"/>
     <use style="fill:none;stroke:#000000;" x="512.241618" xlink:href="#mbaff161353" y="107.46"/>
     <use style="fill:none;stroke:#000000;" x="512.45707" xlink:href="#mbaff161353" y="107.46"/>
     <use style="fill:none;stroke:#000000;" x="512.672522" xlink:href="#mbaff161353" y="107.46"/>
     <use style="fill:none;stroke:#000000;" x="513.426604" xlink:href="#mbaff161353" y="107.46"/>
     <use style="fill:none;stroke:#000000;" x="513.857508" xlink:href="#mbaff161353" y="107.46"/>
     <use style="fill:none;stroke:#000000;" x="515.365672" xlink:href="#mbaff161353" y="107.46"/>
     <use style="fill:none;stroke:#000000;" x="515.581123" xlink:href="#mbaff161353" y="107.46"/>
     <use style="fill:none;stroke:#000000;" x="515.796575" xlink:href="#mbaff161353" y="107.46"/>
     <use style="fill:none;stroke:#000000;" x="517.304739" xlink:href="#mbaff161353" y="107.46"/>
     <use style="fill:none;stroke:#000000;" x="518.381999" xlink:href="#mbaff161353" y="107.46"/>
     <use style="fill:none;stroke:#000000;" x="518.489725" xlink:href="#mbaff161353" y="107.46"/>
     <use style="fill:none;stroke:#000000;" x="518.597451" xlink:href="#mbaff161353" y="107.46"/>
     <use style="fill:none;stroke:#000000;" x="519.997889" xlink:href="#mbaff161353" y="107.46"/>
     <use style="fill:none;stroke:#000000;" x="520.213341" xlink:href="#mbaff161353" y="107.46"/>
     <use style="fill:none;stroke:#000000;" x="520.321067" xlink:href="#mbaff161353" y="107.46"/>
     <use style="fill:none;stroke:#000000;" x="520.428793" xlink:href="#mbaff161353" y="107.46"/>
     <use style="fill:none;stroke:#000000;" x="520.428793" xlink:href="#mbaff161353" y="107.46"/>
     <use style="fill:none;stroke:#000000;" x="520.967423" xlink:href="#mbaff161353" y="107.46"/>
     <use style="fill:none;stroke:#000000;" x="520.967423" xlink:href="#mbaff161353" y="107.46"/>
     <use style="fill:none;stroke:#000000;" x="521.075149" xlink:href="#mbaff161353" y="107.46"/>
     <use style="fill:none;stroke:#000000;" x="521.075149" xlink:href="#mbaff161353" y="107.46"/>
     <use style="fill:none;stroke:#000000;" x="521.506053" xlink:href="#mbaff161353" y="107.46"/>
     <use style="fill:none;stroke:#000000;" x="522.260135" xlink:href="#mbaff161353" y="107.46"/>
     <use style="fill:none;stroke:#000000;" x="522.367861" xlink:href="#mbaff161353" y="107.46"/>
     <use style="fill:none;stroke:#000000;" x="522.691039" xlink:href="#mbaff161353" y="107.46"/>
     <use style="fill:none;stroke:#000000;" x="523.014217" xlink:href="#mbaff161353" y="107.46"/>
     <use style="fill:none;stroke:#000000;" x="523.876025" xlink:href="#mbaff161353" y="107.46"/>
     <use style="fill:none;stroke:#000000;" x="523.983751" xlink:href="#mbaff161353" y="107.46"/>
     <use style="fill:none;stroke:#000000;" x="523.983751" xlink:href="#mbaff161353" y="107.46"/>
     <use style="fill:none;stroke:#000000;" x="524.845559" xlink:href="#mbaff161353" y="107.46"/>
     <use style="fill:none;stroke:#000000;" x="526.030545" xlink:href="#mbaff161353" y="107.46"/>
     <use style="fill:none;stroke:#000000;" x="526.353723" xlink:href="#mbaff161353" y="107.46"/>
     <use style="fill:none;stroke:#000000;" x="527.323257" xlink:href="#mbaff161353" y="107.46"/>
     <use style="fill:none;stroke:#000000;" x="527.969613" xlink:href="#mbaff161353" y="107.46"/>
     <use style="fill:none;stroke:#000000;" x="528.185065" xlink:href="#mbaff161353" y="107.46"/>
     <use style="fill:none;stroke:#000000;" x="529.585503" xlink:href="#mbaff161353" y="107.46"/>
     <use style="fill:none;stroke:#000000;" x="531.416845" xlink:href="#mbaff161353" y="107.46"/>
     <use style="fill:none;stroke:#000000;" x="531.740023" xlink:href="#mbaff161353" y="107.46"/>
     <use style="fill:none;stroke:#000000;" x="532.278653" xlink:href="#mbaff161353" y="107.46"/>
     <use style="fill:none;stroke:#000000;" x="532.386379" xlink:href="#mbaff161353" y="107.46"/>
     <use style="fill:none;stroke:#000000;" x="533.248186" xlink:href="#mbaff161353" y="107.46"/>
     <use style="fill:none;stroke:#000000;" x="533.786816" xlink:href="#mbaff161353" y="107.46"/>
     <use style="fill:none;stroke:#000000;" x="534.648624" xlink:href="#mbaff161353" y="107.46"/>
     <use style="fill:none;stroke:#000000;" x="534.648624" xlink:href="#mbaff161353" y="107.46"/>
     <use style="fill:none;stroke:#000000;" x="535.725884" xlink:href="#mbaff161353" y="107.46"/>
     <use style="fill:none;stroke:#000000;" x="536.049062" xlink:href="#mbaff161353" y="107.46"/>
     <use style="fill:none;stroke:#000000;" x="536.264514" xlink:href="#mbaff161353" y="107.46"/>
     <use style="fill:none;stroke:#000000;" x="537.018596" xlink:href="#mbaff161353" y="107.46"/>
     <use style="fill:none;stroke:#000000;" x="538.419034" xlink:href="#mbaff161353" y="107.46"/>
     <use style="fill:none;stroke:#000000;" x="538.52676" xlink:href="#mbaff161353" y="107.46"/>
     <use style="fill:none;stroke:#000000;" x="539.173116" xlink:href="#mbaff161353" y="107.46"/>
     <use style="fill:none;stroke:#000000;" x="541.866266" xlink:href="#mbaff161353" y="107.46"/>
     <use style="fill:none;stroke:#000000;" x="541.866266" xlink:href="#mbaff161353" y="107.46"/>
     <use style="fill:none;stroke:#000000;" x="541.866266" xlink:href="#mbaff161353" y="107.46"/>
     <use style="fill:none;stroke:#000000;" x="542.081718" xlink:href="#mbaff161353" y="107.46"/>
     <use style="fill:none;stroke:#000000;" x="544.128512" xlink:href="#mbaff161353" y="107.46"/>
     <use style="fill:none;stroke:#000000;" x="545.098046" xlink:href="#mbaff161353" y="107.46"/>
     <use style="fill:none;stroke:#000000;" x="545.744402" xlink:href="#mbaff161353" y="107.46"/>
     <use style="fill:none;stroke:#000000;" x="546.06758" xlink:href="#mbaff161353" y="107.46"/>
     <use style="fill:none;stroke:#000000;" x="546.390758" xlink:href="#mbaff161353" y="107.46"/>
     <use style="fill:none;stroke:#000000;" x="547.791196" xlink:href="#mbaff161353" y="107.46"/>
     <use style="fill:none;stroke:#000000;" x="550.268893" xlink:href="#mbaff161353" y="107.46"/>
     <use style="fill:none;stroke:#000000;" x="551.346153" xlink:href="#mbaff161353" y="107.46"/>
     <use style="fill:none;stroke:#000000;" x="551.453879" xlink:href="#mbaff161353" y="107.46"/>
     <use style="fill:none;stroke:#000000;" x="554.470207" xlink:href="#mbaff161353" y="107.46"/>
     <use style="fill:none;stroke:#000000;" x="555.655193" xlink:href="#mbaff161353" y="107.46"/>
     <use style="fill:none;stroke:#000000;" x="556.086097" xlink:href="#mbaff161353" y="107.46"/>
     <use style="fill:none;stroke:#000000;" x="558.132891" xlink:href="#mbaff161353" y="107.46"/>
     <use style="fill:none;stroke:#000000;" x="558.994699" xlink:href="#mbaff161353" y="107.46"/>
     <use style="fill:none;stroke:#000000;" x="559.964233" xlink:href="#mbaff161353" y="107.46"/>
     <use style="fill:none;stroke:#000000;" x="564.165547" xlink:href="#mbaff161353" y="107.46"/>
     <use style="fill:none;stroke:#000000;" x="564.704177" xlink:href="#mbaff161353" y="107.46"/>
     <use style="fill:none;stroke:#000000;" x="564.919629" xlink:href="#mbaff161353" y="107.46"/>
     <use style="fill:none;stroke:#000000;" x="566.104615" xlink:href="#mbaff161353" y="107.46"/>
     <use style="fill:none;stroke:#000000;" x="567.074148" xlink:href="#mbaff161353" y="107.46"/>
     <use style="fill:none;stroke:#000000;" x="568.797764" xlink:href="#mbaff161353" y="107.46"/>
     <use style="fill:none;stroke:#000000;" x="570.198202" xlink:href="#mbaff161353" y="107.46"/>
     <use style="fill:none;stroke:#000000;" x="571.275462" xlink:href="#mbaff161353" y="107.46"/>
     <use style="fill:none;stroke:#000000;" x="571.490914" xlink:href="#mbaff161353" y="107.46"/>
     <use style="fill:none;stroke:#000000;" x="571.814092" xlink:href="#mbaff161353" y="107.46"/>
     <use style="fill:none;stroke:#000000;" x="575.153598" xlink:href="#mbaff161353" y="107.46"/>
     <use style="fill:none;stroke:#000000;" x="577.846748" xlink:href="#mbaff161353" y="107.46"/>
     <use style="fill:none;stroke:#000000;" x="578.0622" xlink:href="#mbaff161353" y="107.46"/>
     <use style="fill:none;stroke:#000000;" x="578.385378" xlink:href="#mbaff161353" y="107.46"/>
     <use style="fill:none;stroke:#000000;" x="583.340774" xlink:href="#mbaff161353" y="107.46"/>
     <use style="fill:none;stroke:#000000;" x="584.741211" xlink:href="#mbaff161353" y="107.46"/>
     <use style="fill:none;stroke:#000000;" x="585.064389" xlink:href="#mbaff161353" y="107.46"/>
     <use style="fill:none;stroke:#000000;" x="586.249375" xlink:href="#mbaff161353" y="107.46"/>
     <use style="fill:none;stroke:#000000;" x="587.003457" xlink:href="#mbaff161353" y="107.46"/>
     <use style="fill:none;stroke:#000000;" x="587.218909" xlink:href="#mbaff161353" y="107.46"/>
     <use style="fill:none;stroke:#000000;" x="587.649813" xlink:href="#mbaff161353" y="107.46"/>
     <use style="fill:none;stroke:#000000;" x="588.619347" xlink:href="#mbaff161353" y="107.46"/>
     <use style="fill:none;stroke:#000000;" x="588.942525" xlink:href="#mbaff161353" y="107.46"/>
     <use style="fill:none;stroke:#000000;" x="592.605209" xlink:href="#mbaff161353" y="107.46"/>
     <use style="fill:none;stroke:#000000;" x="595.406085" xlink:href="#mbaff161353" y="107.46"/>
     <use style="fill:none;stroke:#000000;" x="595.406085" xlink:href="#mbaff161353" y="107.46"/>
     <use style="fill:none;stroke:#000000;" x="596.052441" xlink:href="#mbaff161353" y="107.46"/>
     <use style="fill:none;stroke:#000000;" x="597.021975" xlink:href="#mbaff161353" y="107.46"/>
     <use style="fill:none;stroke:#000000;" x="597.345153" xlink:href="#mbaff161353" y="107.46"/>
     <use style="fill:none;stroke:#000000;" x="598.206961" xlink:href="#mbaff161353" y="107.46"/>
     <use style="fill:none;stroke:#000000;" x="599.391947" xlink:href="#mbaff161353" y="107.46"/>
     <use style="fill:none;stroke:#000000;" x="603.916438" xlink:href="#mbaff161353" y="107.46"/>
     <use style="fill:none;stroke:#000000;" x="605.640054" xlink:href="#mbaff161353" y="107.46"/>
     <use style="fill:none;stroke:#000000;" x="605.963232" xlink:href="#mbaff161353" y="107.46"/>
     <use style="fill:none;stroke:#000000;" x="608.010026" xlink:href="#mbaff161353" y="107.46"/>
     <use style="fill:none;stroke:#000000;" x="608.44093" xlink:href="#mbaff161353" y="107.46"/>
     <use style="fill:none;stroke:#000000;" x="608.656382" xlink:href="#mbaff161353" y="107.46"/>
     <use style="fill:none;stroke:#000000;" x="609.302738" xlink:href="#mbaff161353" y="107.46"/>
     <use style="fill:none;stroke:#000000;" x="609.625916" xlink:href="#mbaff161353" y="107.46"/>
     <use style="fill:none;stroke:#000000;" x="610.379998" xlink:href="#mbaff161353" y="107.46"/>
     <use style="fill:none;stroke:#000000;" x="610.379998" xlink:href="#mbaff161353" y="107.46"/>
     <use style="fill:none;stroke:#000000;" x="620.290789" xlink:href="#mbaff161353" y="107.46"/>
     <use style="fill:none;stroke:#000000;" x="620.613967" xlink:href="#mbaff161353" y="107.46"/>
     <use style="fill:none;stroke:#000000;" x="620.613967" xlink:href="#mbaff161353" y="107.46"/>
     <use style="fill:none;stroke:#000000;" x="622.876213" xlink:href="#mbaff161353" y="107.46"/>
     <use style="fill:none;stroke:#000000;" x="622.983939" xlink:href="#mbaff161353" y="107.46"/>
     <use style="fill:none;stroke:#000000;" x="623.091665" xlink:href="#mbaff161353" y="107.46"/>
     <use style="fill:none;stroke:#000000;" x="625.892541" xlink:href="#mbaff161353" y="107.46"/>
     <use style="fill:none;stroke:#000000;" x="629.555225" xlink:href="#mbaff161353" y="107.46"/>
     <use style="fill:none;stroke:#000000;" x="629.555225" xlink:href="#mbaff161353" y="107.46"/>
     <use style="fill:none;stroke:#000000;" x="630.740211" xlink:href="#mbaff161353" y="107.46"/>
     <use style="fill:none;stroke:#000000;" x="633.648813" xlink:href="#mbaff161353" y="107.46"/>
     <use style="fill:none;stroke:#000000;" x="633.756539" xlink:href="#mbaff161353" y="107.46"/>
     <use style="fill:none;stroke:#000000;" x="634.295169" xlink:href="#mbaff161353" y="107.46"/>
     <use style="fill:none;stroke:#000000;" x="639.681468" xlink:href="#mbaff161353" y="107.46"/>
     <use style="fill:none;stroke:#000000;" x="655.517189" xlink:href="#mbaff161353" y="107.46"/>
     <use style="fill:none;stroke:#000000;" x="655.840367" xlink:href="#mbaff161353" y="107.46"/>
     <use style="fill:none;stroke:#000000;" x="661.334393" xlink:href="#mbaff161353" y="107.46"/>
     <use style="fill:none;stroke:#000000;" x="671.999266" xlink:href="#mbaff161353" y="107.46"/>
     <use style="fill:none;stroke:#000000;" x="681.58688" xlink:href="#mbaff161353" y="107.46"/>
     <use style="fill:none;stroke:#000000;" x="682.233236" xlink:href="#mbaff161353" y="107.46"/>
     <use style="fill:none;stroke:#000000;" x="684.495482" xlink:href="#mbaff161353" y="107.46"/>
     <use style="fill:none;stroke:#000000;" x="686.542276" xlink:href="#mbaff161353" y="107.46"/>
     <use style="fill:none;stroke:#000000;" x="686.97318" xlink:href="#mbaff161353" y="107.46"/>
     <use style="fill:none;stroke:#000000;" x="688.804521" xlink:href="#mbaff161353" y="107.46"/>
     <use style="fill:none;stroke:#000000;" x="695.591259" xlink:href="#mbaff161353" y="107.46"/>
     <use style="fill:none;stroke:#000000;" x="698.930765" xlink:href="#mbaff161353" y="107.46"/>
     <use style="fill:none;stroke:#000000;" x="703.347531" xlink:href="#mbaff161353" y="107.46"/>
     <use style="fill:none;stroke:#000000;" x="710.34972" xlink:href="#mbaff161353" y="107.46"/>
     <use style="fill:none;stroke:#000000;" x="713.904678" xlink:href="#mbaff161353" y="107.46"/>
     <use style="fill:none;stroke:#000000;" x="714.443308" xlink:href="#mbaff161353" y="107.46"/>
     <use style="fill:none;stroke:#000000;" x="714.981938" xlink:href="#mbaff161353" y="107.46"/>
     <use style="fill:none;stroke:#000000;" x="717.136458" xlink:href="#mbaff161353" y="107.46"/>
     <use style="fill:none;stroke:#000000;" x="731.679467" xlink:href="#mbaff161353" y="107.46"/>
     <use style="fill:none;stroke:#000000;" x="735.342151" xlink:href="#mbaff161353" y="107.46"/>
     <use style="fill:none;stroke:#000000;" x="737.604397" xlink:href="#mbaff161353" y="107.46"/>
     <use style="fill:none;stroke:#000000;" x="737.927575" xlink:href="#mbaff161353" y="107.46"/>
     <use style="fill:none;stroke:#000000;" x="744.714312" xlink:href="#mbaff161353" y="107.46"/>
     <use style="fill:none;stroke:#000000;" x="746.007024" xlink:href="#mbaff161353" y="107.46"/>
     <use style="fill:none;stroke:#000000;" x="746.437928" xlink:href="#mbaff161353" y="107.46"/>
     <use style="fill:none;stroke:#000000;" x="755.056008" xlink:href="#mbaff161353" y="107.46"/>
     <use style="fill:none;stroke:#000000;" x="757.749157" xlink:href="#mbaff161353" y="107.46"/>
     <use style="fill:none;stroke:#000000;" x="764.751347" xlink:href="#mbaff161353" y="107.46"/>
     <use style="fill:none;stroke:#000000;" x="765.397703" xlink:href="#mbaff161353" y="107.46"/>
     <use style="fill:none;stroke:#000000;" x="769.168113" xlink:href="#mbaff161353" y="107.46"/>
     <use style="fill:none;stroke:#000000;" x="779.294356" xlink:href="#mbaff161353" y="107.46"/>
     <use style="fill:none;stroke:#000000;" x="780.26389" xlink:href="#mbaff161353" y="107.46"/>
     <use style="fill:none;stroke:#000000;" x="793.406461" xlink:href="#mbaff161353" y="107.46"/>
     <use style="fill:none;stroke:#000000;" x="835.096421" xlink:href="#mbaff161353" y="107.46"/>
     <use style="fill:none;stroke:#000000;" x="843.606774" xlink:href="#mbaff161353" y="107.46"/>
     <use style="fill:none;stroke:#000000;" x="846.515376" xlink:href="#mbaff161353" y="107.46"/>
     <use style="fill:none;stroke:#000000;" x="864.182439" xlink:href="#mbaff161353" y="107.46"/>
     <use style="fill:none;stroke:#000000;" x="864.505617" xlink:href="#mbaff161353" y="107.46"/>
     <use style="fill:none;stroke:#000000;" x="882.280406" xlink:href="#mbaff161353" y="107.46"/>
     <use style="fill:none;stroke:#000000;" x="894.237991" xlink:href="#mbaff161353" y="107.46"/>
     <use style="fill:none;stroke:#000000;" x="899.732017" xlink:href="#mbaff161353" y="107.46"/>
     <use style="fill:none;stroke:#000000;" x="929.572117" xlink:href="#mbaff161353" y="107.46"/>
     <use style="fill:none;stroke:#000000;" x="944.330579" xlink:href="#mbaff161353" y="107.46"/>
    </g>
   </g>
   <g id="line2d_26">
    <path clip-path="url(#pc04d628b21)" d="M 407.101048 113.5755 
L 407.101048 101.3445 
" style="fill:none;stroke:#ff7f0e;stroke-linecap:square;"/>
   </g>
   <g id="patch_8">
    <path d="M 363.272727 189 
L 363.272727 25.92 
" style="fill:none;stroke:#000000;stroke-linecap:square;stroke-linejoin:miter;stroke-width:0.8;"/>
   </g>
   <g id="patch_9">
    <path d="M 972 189 
L 972 25.92 
" style="fill:none;stroke:#000000;stroke-linecap:square;stroke-linejoin:miter;stroke-width:0.8;"/>
   </g>
   <g id="patch_10">
    <path d="M 363.272727 189 
L 972 189 
" style="fill:none;stroke:#000000;stroke-linecap:square;stroke-linejoin:miter;stroke-width:0.8;"/>
   </g>
   <g id="patch_11">
    <path d="M 363.272727 25.92 
L 972 25.92 
" style="fill:none;stroke:#000000;stroke-linecap:square;stroke-linejoin:miter;stroke-width:0.8;"/>
   </g>
   <g id="text_20">
    <!-- box-plot -->
    <defs>
     <path d="M 48.6875 27.296875 
Q 48.6875 37.203125 44.609375 42.84375 
Q 40.53125 48.484375 33.40625 48.484375 
Q 26.265625 48.484375 22.1875 42.84375 
Q 18.109375 37.203125 18.109375 27.296875 
Q 18.109375 17.390625 22.1875 11.75 
Q 26.265625 6.109375 33.40625 6.109375 
Q 40.53125 6.109375 44.609375 11.75 
Q 48.6875 17.390625 48.6875 27.296875 
z
M 18.109375 46.390625 
Q 20.953125 51.265625 25.265625 53.625 
Q 29.59375 56 35.59375 56 
Q 45.5625 56 51.78125 48.09375 
Q 58.015625 40.1875 58.015625 27.296875 
Q 58.015625 14.40625 51.78125 6.484375 
Q 45.5625 -1.421875 35.59375 -1.421875 
Q 29.59375 -1.421875 25.265625 0.953125 
Q 20.953125 3.328125 18.109375 8.203125 
L 18.109375 0 
L 9.078125 0 
L 9.078125 75.984375 
L 18.109375 75.984375 
z
" id="DejaVuSans-62"/>
     <path d="M 54.890625 54.6875 
L 35.109375 28.078125 
L 55.90625 0 
L 45.3125 0 
L 29.390625 21.484375 
L 13.484375 0 
L 2.875 0 
L 24.125 28.609375 
L 4.6875 54.6875 
L 15.28125 54.6875 
L 29.78125 35.203125 
L 44.28125 54.6875 
z
" id="DejaVuSans-78"/>
     <path d="M 4.890625 31.390625 
L 31.203125 31.390625 
L 31.203125 23.390625 
L 4.890625 23.390625 
z
" id="DejaVuSans-2d"/>
    </defs>
    <g transform="translate(642.943551 19.92)scale(0.12 -0.12)">
     <use xlink:href="#DejaVuSans-62"/>
     <use x="63.476562" xlink:href="#DejaVuSans-6f"/>
     <use x="124.611328" xlink:href="#DejaVuSans-78"/>
     <use x="183.791016" xlink:href="#DejaVuSans-2d"/>
     <use x="219.875" xlink:href="#DejaVuSans-70"/>
     <use x="283.351562" xlink:href="#DejaVuSans-6c"/>
     <use x="311.134766" xlink:href="#DejaVuSans-6f"/>
     <use x="372.316406" xlink:href="#DejaVuSans-74"/>
    </g>
   </g>
  </g>
 </g>
 <defs>
  <clipPath id="p3cfc36825c">
   <rect height="163.08" width="152.181818" x="135" y="25.92"/>
  </clipPath>
  <clipPath id="pc04d628b21">
   <rect height="163.08" width="608.727273" x="363.272727" y="25.92"/>
  </clipPath>
 </defs>
</svg>
