<?xml version="1.0" encoding="utf-8" standalone="no"?>
<!DOCTYPE svg PUBLIC "-//W3C//DTD SVG 1.1//EN"
  "http://www.w3.org/Graphics/SVG/1.1/DTD/svg11.dtd">
<!-- Created with matplotlib (http://matplotlib.org/) -->
<svg height="216pt" version="1.1" viewBox="0 0 1080 216" width="1080pt" xmlns="http://www.w3.org/2000/svg" xmlns:xlink="http://www.w3.org/1999/xlink">
 <defs>
  <style type="text/css">
*{stroke-linecap:butt;stroke-linejoin:round;}
  </style>
 </defs>
 <g id="figure_1">
  <g id="patch_1">
   <path d="M 0 216 
L 1080 216 
L 1080 0 
L 0 0 
z
" style="fill:#ffffff;"/>
  </g>
  <g id="axes_1">
   <g id="patch_2">
    <path d="M 135 189 
L 287.181818 189 
L 287.181818 25.92 
L 135 25.92 
z
" style="fill:#ffffff;"/>
   </g>
   <g id="matplotlib.axis_1">
    <g id="xtick_1">
     <g id="line2d_1">
      <defs>
       <path d="M 0 0 
L 0 3.5 
" id="mc46b605112" style="stroke:#000000;stroke-width:0.8;"/>
      </defs>
      <g>
       <use style="stroke:#000000;stroke-width:0.8;" x="141.917355" xlink:href="#mc46b605112" y="189"/>
      </g>
     </g>
     <g id="text_1">
      <!-- 0 -->
      <defs>
       <path d="M 31.78125 66.40625 
Q 24.171875 66.40625 20.328125 58.90625 
Q 16.5 51.421875 16.5 36.375 
Q 16.5 21.390625 20.328125 13.890625 
Q 24.171875 6.390625 31.78125 6.390625 
Q 39.453125 6.390625 43.28125 13.890625 
Q 47.125 21.390625 47.125 36.375 
Q 47.125 51.421875 43.28125 58.90625 
Q 39.453125 66.40625 31.78125 66.40625 
z
M 31.78125 74.21875 
Q 44.046875 74.21875 50.515625 64.515625 
Q 56.984375 54.828125 56.984375 36.375 
Q 56.984375 17.96875 50.515625 8.265625 
Q 44.046875 -1.421875 31.78125 -1.421875 
Q 19.53125 -1.421875 13.0625 8.265625 
Q 6.59375 17.96875 6.59375 36.375 
Q 6.59375 54.828125 13.0625 64.515625 
Q 19.53125 74.21875 31.78125 74.21875 
z
" id="DejaVuSans-30"/>
      </defs>
      <g transform="translate(138.736105 203.598437)scale(0.1 -0.1)">
       <use xlink:href="#DejaVuSans-30"/>
      </g>
     </g>
    </g>
    <g id="xtick_2">
     <g id="line2d_2">
      <g>
       <use style="stroke:#000000;stroke-width:0.8;" x="196.064951" xlink:href="#mc46b605112" y="189"/>
      </g>
     </g>
     <g id="text_2">
      <!-- 1000 -->
      <defs>
       <path d="M 12.40625 8.296875 
L 28.515625 8.296875 
L 28.515625 63.921875 
L 10.984375 60.40625 
L 10.984375 69.390625 
L 28.421875 72.90625 
L 38.28125 72.90625 
L 38.28125 8.296875 
L 54.390625 8.296875 
L 54.390625 0 
L 12.40625 0 
z
" id="DejaVuSans-31"/>
      </defs>
      <g transform="translate(183.339951 203.598437)scale(0.1 -0.1)">
       <use xlink:href="#DejaVuSans-31"/>
       <use x="63.623047" xlink:href="#DejaVuSans-30"/>
       <use x="127.246094" xlink:href="#DejaVuSans-30"/>
       <use x="190.869141" xlink:href="#DejaVuSans-30"/>
      </g>
     </g>
    </g>
    <g id="xtick_3">
     <g id="line2d_3">
      <g>
       <use style="stroke:#000000;stroke-width:0.8;" x="250.212547" xlink:href="#mc46b605112" y="189"/>
      </g>
     </g>
     <g id="text_3">
      <!-- 2000 -->
      <defs>
       <path d="M 19.1875 8.296875 
L 53.609375 8.296875 
L 53.609375 0 
L 7.328125 0 
L 7.328125 8.296875 
Q 12.9375 14.109375 22.625 23.890625 
Q 32.328125 33.6875 34.8125 36.53125 
Q 39.546875 41.84375 41.421875 45.53125 
Q 43.3125 49.21875 43.3125 52.78125 
Q 43.3125 58.59375 39.234375 62.25 
Q 35.15625 65.921875 28.609375 65.921875 
Q 23.96875 65.921875 18.8125 64.3125 
Q 13.671875 62.703125 7.8125 59.421875 
L 7.8125 69.390625 
Q 13.765625 71.78125 18.9375 73 
Q 24.125 74.21875 28.421875 74.21875 
Q 39.75 74.21875 46.484375 68.546875 
Q 53.21875 62.890625 53.21875 53.421875 
Q 53.21875 48.921875 51.53125 44.890625 
Q 49.859375 40.875 45.40625 35.40625 
Q 44.1875 33.984375 37.640625 27.21875 
Q 31.109375 20.453125 19.1875 8.296875 
z
" id="DejaVuSans-32"/>
      </defs>
      <g transform="translate(237.487547 203.598437)scale(0.1 -0.1)">
       <use xlink:href="#DejaVuSans-32"/>
       <use x="63.623047" xlink:href="#DejaVuSans-30"/>
       <use x="127.246094" xlink:href="#DejaVuSans-30"/>
       <use x="190.869141" xlink:href="#DejaVuSans-30"/>
      </g>
     </g>
    </g>
   </g>
   <g id="matplotlib.axis_2">
    <g id="ytick_1">
     <g id="line2d_4">
      <defs>
       <path d="M 0 0 
L -3.5 0 
" id="m7b80c4ca90" style="stroke:#000000;stroke-width:0.8;"/>
      </defs>
      <g>
       <use style="stroke:#000000;stroke-width:0.8;" x="135" xlink:href="#m7b80c4ca90" y="182.729709"/>
      </g>
     </g>
     <g id="text_4">
      <!-- 0 -->
      <g transform="translate(121.6375 186.528928)scale(0.1 -0.1)">
       <use xlink:href="#DejaVuSans-30"/>
      </g>
     </g>
    </g>
    <g id="ytick_2">
     <g id="line2d_5">
      <g>
       <use style="stroke:#000000;stroke-width:0.8;" x="135" xlink:href="#m7b80c4ca90" y="145.272775"/>
      </g>
     </g>
     <g id="text_5">
      <!-- 2000 -->
      <g transform="translate(102.55 149.071994)scale(0.1 -0.1)">
       <use xlink:href="#DejaVuSans-32"/>
       <use x="63.623047" xlink:href="#DejaVuSans-30"/>
       <use x="127.246094" xlink:href="#DejaVuSans-30"/>
       <use x="190.869141" xlink:href="#DejaVuSans-30"/>
      </g>
     </g>
    </g>
    <g id="ytick_3">
     <g id="line2d_6">
      <g>
       <use style="stroke:#000000;stroke-width:0.8;" x="135" xlink:href="#m7b80c4ca90" y="107.815841"/>
      </g>
     </g>
     <g id="text_6">
      <!-- 4000 -->
      <defs>
       <path d="M 37.796875 64.3125 
L 12.890625 25.390625 
L 37.796875 25.390625 
z
M 35.203125 72.90625 
L 47.609375 72.90625 
L 47.609375 25.390625 
L 58.015625 25.390625 
L 58.015625 17.1875 
L 47.609375 17.1875 
L 47.609375 0 
L 37.796875 0 
L 37.796875 17.1875 
L 4.890625 17.1875 
L 4.890625 26.703125 
z
" id="DejaVuSans-34"/>
      </defs>
      <g transform="translate(102.55 111.61506)scale(0.1 -0.1)">
       <use xlink:href="#DejaVuSans-34"/>
       <use x="63.623047" xlink:href="#DejaVuSans-30"/>
       <use x="127.246094" xlink:href="#DejaVuSans-30"/>
       <use x="190.869141" xlink:href="#DejaVuSans-30"/>
      </g>
     </g>
    </g>
    <g id="ytick_4">
     <g id="line2d_7">
      <g>
       <use style="stroke:#000000;stroke-width:0.8;" x="135" xlink:href="#m7b80c4ca90" y="70.358907"/>
      </g>
     </g>
     <g id="text_7">
      <!-- 6000 -->
      <defs>
       <path d="M 33.015625 40.375 
Q 26.375 40.375 22.484375 35.828125 
Q 18.609375 31.296875 18.609375 23.390625 
Q 18.609375 15.53125 22.484375 10.953125 
Q 26.375 6.390625 33.015625 6.390625 
Q 39.65625 6.390625 43.53125 10.953125 
Q 47.40625 15.53125 47.40625 23.390625 
Q 47.40625 31.296875 43.53125 35.828125 
Q 39.65625 40.375 33.015625 40.375 
z
M 52.59375 71.296875 
L 52.59375 62.3125 
Q 48.875 64.0625 45.09375 64.984375 
Q 41.3125 65.921875 37.59375 65.921875 
Q 27.828125 65.921875 22.671875 59.328125 
Q 17.53125 52.734375 16.796875 39.40625 
Q 19.671875 43.65625 24.015625 45.921875 
Q 28.375 48.1875 33.59375 48.1875 
Q 44.578125 48.1875 50.953125 41.515625 
Q 57.328125 34.859375 57.328125 23.390625 
Q 57.328125 12.15625 50.6875 5.359375 
Q 44.046875 -1.421875 33.015625 -1.421875 
Q 20.359375 -1.421875 13.671875 8.265625 
Q 6.984375 17.96875 6.984375 36.375 
Q 6.984375 53.65625 15.1875 63.9375 
Q 23.390625 74.21875 37.203125 74.21875 
Q 40.921875 74.21875 44.703125 73.484375 
Q 48.484375 72.75 52.59375 71.296875 
z
" id="DejaVuSans-36"/>
      </defs>
      <g transform="translate(102.55 74.158125)scale(0.1 -0.1)">
       <use xlink:href="#DejaVuSans-36"/>
       <use x="63.623047" xlink:href="#DejaVuSans-30"/>
       <use x="127.246094" xlink:href="#DejaVuSans-30"/>
       <use x="190.869141" xlink:href="#DejaVuSans-30"/>
      </g>
     </g>
    </g>
    <g id="ytick_5">
     <g id="line2d_8">
      <g>
       <use style="stroke:#000000;stroke-width:0.8;" x="135" xlink:href="#m7b80c4ca90" y="32.901973"/>
      </g>
     </g>
     <g id="text_8">
      <!-- 8000 -->
      <defs>
       <path d="M 31.78125 34.625 
Q 24.75 34.625 20.71875 30.859375 
Q 16.703125 27.09375 16.703125 20.515625 
Q 16.703125 13.921875 20.71875 10.15625 
Q 24.75 6.390625 31.78125 6.390625 
Q 38.8125 6.390625 42.859375 10.171875 
Q 46.921875 13.96875 46.921875 20.515625 
Q 46.921875 27.09375 42.890625 30.859375 
Q 38.875 34.625 31.78125 34.625 
z
M 21.921875 38.8125 
Q 15.578125 40.375 12.03125 44.71875 
Q 8.5 49.078125 8.5 55.328125 
Q 8.5 64.0625 14.71875 69.140625 
Q 20.953125 74.21875 31.78125 74.21875 
Q 42.671875 74.21875 48.875 69.140625 
Q 55.078125 64.0625 55.078125 55.328125 
Q 55.078125 49.078125 51.53125 44.71875 
Q 48 40.375 41.703125 38.8125 
Q 48.828125 37.15625 52.796875 32.3125 
Q 56.78125 27.484375 56.78125 20.515625 
Q 56.78125 9.90625 50.3125 4.234375 
Q 43.84375 -1.421875 31.78125 -1.421875 
Q 19.734375 -1.421875 13.25 4.234375 
Q 6.78125 9.90625 6.78125 20.515625 
Q 6.78125 27.484375 10.78125 32.3125 
Q 14.796875 37.15625 21.921875 38.8125 
z
M 18.3125 54.390625 
Q 18.3125 48.734375 21.84375 45.5625 
Q 25.390625 42.390625 31.78125 42.390625 
Q 38.140625 42.390625 41.71875 45.5625 
Q 45.3125 48.734375 45.3125 54.390625 
Q 45.3125 60.0625 41.71875 63.234375 
Q 38.140625 66.40625 31.78125 66.40625 
Q 25.390625 66.40625 21.84375 63.234375 
Q 18.3125 60.0625 18.3125 54.390625 
z
" id="DejaVuSans-38"/>
      </defs>
      <g transform="translate(102.55 36.701191)scale(0.1 -0.1)">
       <use xlink:href="#DejaVuSans-38"/>
       <use x="63.623047" xlink:href="#DejaVuSans-30"/>
       <use x="127.246094" xlink:href="#DejaVuSans-30"/>
       <use x="190.869141" xlink:href="#DejaVuSans-30"/>
      </g>
     </g>
    </g>
   </g>
   <g id="line2d_9">
    <path clip-path="url(#p7cf08b4e38)" d="M 141.917355 181.587273 
L 150.36438 181.49363 
L 150.743413 181.474902 
L 158.269929 181.38126 
L 158.648962 181.362531 
L 163.847132 181.268889 
L 164.226165 181.25016 
L 169.74922 181.156518 
L 170.128253 181.13779 
L 174.135175 181.044147 
L 174.514208 181.025419 
L 177.979654 180.931776 
L 178.358687 180.913048 
L 182.473905 180.819406 
L 182.852938 180.800677 
L 185.939351 180.707035 
L 186.318384 180.688306 
L 189.079911 180.594664 
L 189.458945 180.575936 
L 192.112177 180.482293 
L 192.49121 180.463565 
L 194.927852 180.369922 
L 195.306885 180.351194 
L 197.147903 180.257552 
L 197.526936 180.238823 
L 199.855283 180.145181 
L 200.288464 180.107724 
L 202.61681 180.014081 
L 202.995844 179.995353 
L 205.486633 179.901711 
L 205.973961 179.845525 
L 208.139865 179.751883 
L 208.518898 179.733154 
L 210.197474 179.639512 
L 210.630655 179.602055 
L 211.821902 179.508413 
L 212.255082 179.470956 
L 213.771215 179.377314 
L 214.204396 179.339857 
L 215.612233 179.246214 
L 216.045414 179.208757 
L 217.290809 179.115115 
L 217.778137 179.05893 
L 219.077679 178.965287 
L 219.456713 178.946559 
L 220.972845 178.852917 
L 221.460174 178.796731 
L 222.272388 178.703089 
L 222.759716 178.646903 
L 223.896816 178.553261 
L 224.329996 178.515804 
L 225.412948 178.422162 
L 225.846129 178.384705 
L 226.4959 178.309791 
L 226.766638 178.253606 
L 227.308114 178.178692 
L 228.445214 178.085049 
L 228.932542 178.028864 
L 229.636461 177.935222 
L 230.232084 177.841579 
L 231.044298 177.747937 
L 231.585774 177.673023 
L 232.289693 177.579381 
L 232.831169 177.504467 
L 233.859973 177.410825 
L 234.509744 177.298454 
L 235.213663 177.204811 
L 235.700991 177.148626 
L 236.40491 177.054984 
L 236.838091 177.017527 
L 237.704452 176.923884 
L 238.408371 176.792785 
L 238.787404 176.699143 
L 239.32888 176.624229 
L 240.141094 176.530587 
L 240.411832 176.474401 
L 240.899161 176.418216 
L 241.494784 176.324573 
L 242.090408 176.230931 
L 242.902622 176.156017 
L 243.281655 176.024918 
L 244.635345 175.669077 
L 245.068525 175.575435 
L 245.826592 175.425607 
L 246.259773 175.350693 
L 246.584658 175.238322 
L 247.180282 175.14468 
L 247.938348 174.994852 
L 248.371529 174.90121 
L 248.696414 174.788839 
L 249.075448 174.695197 
L 251.782827 173.871144 
L 252.270156 173.777502 
L 252.757484 173.571489 
L 253.028222 173.496575 
L 253.244812 173.421661 
L 254.490207 173.103277 
L 254.815093 173.009635 
L 255.573159 172.616337 
L 256.114635 172.522695 
L 256.656111 172.279225 
L 258.442982 171.567543 
L 258.659572 171.36153 
L 259.363491 171.024417 
L 259.634229 170.893318 
L 260.446443 170.537477 
L 260.879623 170.087994 
L 262.070871 169.582325 
L 262.341609 169.132842 
L 262.558199 168.945557 
L 264.128479 167.990406 
L 264.34507 167.896763 
L 264.507512 167.859306 
L 264.724103 167.428552 
L 264.940693 167.334909 
L 265.211431 167.147625 
L 265.91535 166.342301 
L 266.077793 166.173744 
L 266.240235 166.09883 
L 266.565121 165.817903 
L 266.673416 165.724261 
L 267.377335 165.106222 
L 267.539778 164.806566 
L 267.810516 164.600553 
L 268.027106 164.357083 
L 268.189549 164.282169 
L 268.514435 163.813957 
L 268.676877 163.53303 
L 268.731025 163.53303 
L 269.326648 162.484236 
L 269.489091 162.31568 
L 269.813977 161.678912 
L 270.19301 161.09833 
L 270.301305 161.023416 
L 270.626191 159.899708 
L 270.788634 159.656238 
L 271.059372 158.869642 
L 271.167667 158.832185 
L 271.330109 158.53253 
L 271.709143 158.326517 
L 271.979881 157.91449 
L 272.142323 157.745934 
L 272.358914 157.202809 
L 272.413061 157.165352 
L 272.683799 156.434941 
L 273.008685 155.798174 
L 273.11698 155.629617 
L 273.387718 154.786836 
L 273.496013 154.749379 
L 273.712604 154.056426 
L 273.766751 154.000241 
L 275.499474 146.658682 
L 275.553622 146.602496 
L 275.770212 145.366417 
L 275.986803 144.785835 
L 276.149246 143.643398 
L 276.311688 143.175187 
L 276.528279 142.875531 
L 276.690721 141.096327 
L 277.015607 139.541864 
L 277.232197 138.717812 
L 277.502935 132.162848 
L 277.665378 129.990346 
L 277.936116 127.480731 
L 278.585887 119.296391 
L 278.640035 119.221477 
L 278.856625 115.925267 
L 279.019068 113.340739 
L 279.073216 111.055866 
L 279.235658 101.822731 
L 279.993725 56.63094 
L 280.210315 34.287879 
L 280.264463 33.332727 
L 280.264463 33.332727 
" style="fill:none;stroke:#1f77b4;stroke-linecap:square;stroke-width:1.5;"/>
   </g>
   <g id="patch_3">
    <path d="M 135 189 
L 135 25.92 
" style="fill:none;stroke:#000000;stroke-linecap:square;stroke-linejoin:miter;stroke-width:0.8;"/>
   </g>
   <g id="patch_4">
    <path d="M 287.181818 189 
L 287.181818 25.92 
" style="fill:none;stroke:#000000;stroke-linecap:square;stroke-linejoin:miter;stroke-width:0.8;"/>
   </g>
   <g id="patch_5">
    <path d="M 135 189 
L 287.181818 189 
" style="fill:none;stroke:#000000;stroke-linecap:square;stroke-linejoin:miter;stroke-width:0.8;"/>
   </g>
   <g id="patch_6">
    <path d="M 135 25.92 
L 287.181818 25.92 
" style="fill:none;stroke:#000000;stroke-linecap:square;stroke-linejoin:miter;stroke-width:0.8;"/>
   </g>
   <g id="text_9">
    <!-- sorted plot -->
    <defs>
     <path d="M 44.28125 53.078125 
L 44.28125 44.578125 
Q 40.484375 46.53125 36.375 47.5 
Q 32.28125 48.484375 27.875 48.484375 
Q 21.1875 48.484375 17.84375 46.4375 
Q 14.5 44.390625 14.5 40.28125 
Q 14.5 37.15625 16.890625 35.375 
Q 19.28125 33.59375 26.515625 31.984375 
L 29.59375 31.296875 
Q 39.15625 29.25 43.1875 25.515625 
Q 47.21875 21.78125 47.21875 15.09375 
Q 47.21875 7.46875 41.1875 3.015625 
Q 35.15625 -1.421875 24.609375 -1.421875 
Q 20.21875 -1.421875 15.453125 -0.5625 
Q 10.6875 0.296875 5.421875 2 
L 5.421875 11.28125 
Q 10.40625 8.6875 15.234375 7.390625 
Q 20.0625 6.109375 24.8125 6.109375 
Q 31.15625 6.109375 34.5625 8.28125 
Q 37.984375 10.453125 37.984375 14.40625 
Q 37.984375 18.0625 35.515625 20.015625 
Q 33.0625 21.96875 24.703125 23.78125 
L 21.578125 24.515625 
Q 13.234375 26.265625 9.515625 29.90625 
Q 5.8125 33.546875 5.8125 39.890625 
Q 5.8125 47.609375 11.28125 51.796875 
Q 16.75 56 26.8125 56 
Q 31.78125 56 36.171875 55.265625 
Q 40.578125 54.546875 44.28125 53.078125 
z
" id="DejaVuSans-73"/>
     <path d="M 30.609375 48.390625 
Q 23.390625 48.390625 19.1875 42.75 
Q 14.984375 37.109375 14.984375 27.296875 
Q 14.984375 17.484375 19.15625 11.84375 
Q 23.34375 6.203125 30.609375 6.203125 
Q 37.796875 6.203125 41.984375 11.859375 
Q 46.1875 17.53125 46.1875 27.296875 
Q 46.1875 37.015625 41.984375 42.703125 
Q 37.796875 48.390625 30.609375 48.390625 
z
M 30.609375 56 
Q 42.328125 56 49.015625 48.375 
Q 55.71875 40.765625 55.71875 27.296875 
Q 55.71875 13.875 49.015625 6.21875 
Q 42.328125 -1.421875 30.609375 -1.421875 
Q 18.84375 -1.421875 12.171875 6.21875 
Q 5.515625 13.875 5.515625 27.296875 
Q 5.515625 40.765625 12.171875 48.375 
Q 18.84375 56 30.609375 56 
z
" id="DejaVuSans-6f"/>
     <path d="M 41.109375 46.296875 
Q 39.59375 47.171875 37.8125 47.578125 
Q 36.03125 48 33.890625 48 
Q 26.265625 48 22.1875 43.046875 
Q 18.109375 38.09375 18.109375 28.8125 
L 18.109375 0 
L 9.078125 0 
L 9.078125 54.6875 
L 18.109375 54.6875 
L 18.109375 46.1875 
Q 20.953125 51.171875 25.484375 53.578125 
Q 30.03125 56 36.53125 56 
Q 37.453125 56 38.578125 55.875 
Q 39.703125 55.765625 41.0625 55.515625 
z
" id="DejaVuSans-72"/>
     <path d="M 18.3125 70.21875 
L 18.3125 54.6875 
L 36.8125 54.6875 
L 36.8125 47.703125 
L 18.3125 47.703125 
L 18.3125 18.015625 
Q 18.3125 11.328125 20.140625 9.421875 
Q 21.96875 7.515625 27.59375 7.515625 
L 36.8125 7.515625 
L 36.8125 0 
L 27.59375 0 
Q 17.1875 0 13.234375 3.875 
Q 9.28125 7.765625 9.28125 18.015625 
L 9.28125 47.703125 
L 2.6875 47.703125 
L 2.6875 54.6875 
L 9.28125 54.6875 
L 9.28125 70.21875 
z
" id="DejaVuSans-74"/>
     <path d="M 56.203125 29.59375 
L 56.203125 25.203125 
L 14.890625 25.203125 
Q 15.484375 15.921875 20.484375 11.0625 
Q 25.484375 6.203125 34.421875 6.203125 
Q 39.59375 6.203125 44.453125 7.46875 
Q 49.3125 8.734375 54.109375 11.28125 
L 54.109375 2.78125 
Q 49.265625 0.734375 44.1875 -0.34375 
Q 39.109375 -1.421875 33.890625 -1.421875 
Q 20.796875 -1.421875 13.15625 6.1875 
Q 5.515625 13.8125 5.515625 26.8125 
Q 5.515625 40.234375 12.765625 48.109375 
Q 20.015625 56 32.328125 56 
Q 43.359375 56 49.78125 48.890625 
Q 56.203125 41.796875 56.203125 29.59375 
z
M 47.21875 32.234375 
Q 47.125 39.59375 43.09375 43.984375 
Q 39.0625 48.390625 32.421875 48.390625 
Q 24.90625 48.390625 20.390625 44.140625 
Q 15.875 39.890625 15.1875 32.171875 
z
" id="DejaVuSans-65"/>
     <path d="M 45.40625 46.390625 
L 45.40625 75.984375 
L 54.390625 75.984375 
L 54.390625 0 
L 45.40625 0 
L 45.40625 8.203125 
Q 42.578125 3.328125 38.25 0.953125 
Q 33.9375 -1.421875 27.875 -1.421875 
Q 17.96875 -1.421875 11.734375 6.484375 
Q 5.515625 14.40625 5.515625 27.296875 
Q 5.515625 40.1875 11.734375 48.09375 
Q 17.96875 56 27.875 56 
Q 33.9375 56 38.25 53.625 
Q 42.578125 51.265625 45.40625 46.390625 
z
M 14.796875 27.296875 
Q 14.796875 17.390625 18.875 11.75 
Q 22.953125 6.109375 30.078125 6.109375 
Q 37.203125 6.109375 41.296875 11.75 
Q 45.40625 17.390625 45.40625 27.296875 
Q 45.40625 37.203125 41.296875 42.84375 
Q 37.203125 48.484375 30.078125 48.484375 
Q 22.953125 48.484375 18.875 42.84375 
Q 14.796875 37.203125 14.796875 27.296875 
z
" id="DejaVuSans-64"/>
     <path id="DejaVuSans-20"/>
     <path d="M 18.109375 8.203125 
L 18.109375 -20.796875 
L 9.078125 -20.796875 
L 9.078125 54.6875 
L 18.109375 54.6875 
L 18.109375 46.390625 
Q 20.953125 51.265625 25.265625 53.625 
Q 29.59375 56 35.59375 56 
Q 45.5625 56 51.78125 48.09375 
Q 58.015625 40.1875 58.015625 27.296875 
Q 58.015625 14.40625 51.78125 6.484375 
Q 45.5625 -1.421875 35.59375 -1.421875 
Q 29.59375 -1.421875 25.265625 0.953125 
Q 20.953125 3.328125 18.109375 8.203125 
z
M 48.6875 27.296875 
Q 48.6875 37.203125 44.609375 42.84375 
Q 40.53125 48.484375 33.40625 48.484375 
Q 26.265625 48.484375 22.1875 42.84375 
Q 18.109375 37.203125 18.109375 27.296875 
Q 18.109375 17.390625 22.1875 11.75 
Q 26.265625 6.109375 33.40625 6.109375 
Q 40.53125 6.109375 44.609375 11.75 
Q 48.6875 17.390625 48.6875 27.296875 
z
" id="DejaVuSans-70"/>
     <path d="M 9.421875 75.984375 
L 18.40625 75.984375 
L 18.40625 0 
L 9.421875 0 
z
" id="DejaVuSans-6c"/>
    </defs>
    <g transform="translate(178.568097 19.92)scale(0.12 -0.12)">
     <use xlink:href="#DejaVuSans-73"/>
     <use x="52.099609" xlink:href="#DejaVuSans-6f"/>
     <use x="113.28125" xlink:href="#DejaVuSans-72"/>
     <use x="154.394531" xlink:href="#DejaVuSans-74"/>
     <use x="193.603516" xlink:href="#DejaVuSans-65"/>
     <use x="255.126953" xlink:href="#DejaVuSans-64"/>
     <use x="318.603516" xlink:href="#DejaVuSans-20"/>
     <use x="350.390625" xlink:href="#DejaVuSans-70"/>
     <use x="413.867188" xlink:href="#DejaVuSans-6c"/>
     <use x="441.650391" xlink:href="#DejaVuSans-6f"/>
     <use x="502.832031" xlink:href="#DejaVuSans-74"/>
    </g>
   </g>
  </g>
  <g id="axes_2">
   <g id="patch_7">
    <path d="M 363.272727 189 
L 972 189 
L 972 25.92 
L 363.272727 25.92 
z
" style="fill:#ffffff;"/>
   </g>
   <g id="matplotlib.axis_3">
    <g id="xtick_4">
     <g id="line2d_10">
      <g>
       <use style="stroke:#000000;stroke-width:0.8;" x="386.677786" xlink:href="#mc46b605112" y="189"/>
      </g>
     </g>
     <g id="text_10">
      <!-- 0 -->
      <g transform="translate(383.496536 203.598437)scale(0.1 -0.1)">
       <use xlink:href="#DejaVuSans-30"/>
      </g>
     </g>
    </g>
    <g id="xtick_5">
     <g id="line2d_11">
      <g>
       <use style="stroke:#000000;stroke-width:0.8;" x="456.58537" xlink:href="#mc46b605112" y="189"/>
      </g>
     </g>
     <g id="text_11">
      <!-- 1000 -->
      <g transform="translate(443.86037 203.598437)scale(0.1 -0.1)">
       <use xlink:href="#DejaVuSans-31"/>
       <use x="63.623047" xlink:href="#DejaVuSans-30"/>
       <use x="127.246094" xlink:href="#DejaVuSans-30"/>
       <use x="190.869141" xlink:href="#DejaVuSans-30"/>
      </g>
     </g>
    </g>
    <g id="xtick_6">
     <g id="line2d_12">
      <g>
       <use style="stroke:#000000;stroke-width:0.8;" x="526.492953" xlink:href="#mc46b605112" y="189"/>
      </g>
     </g>
     <g id="text_12">
      <!-- 2000 -->
      <g transform="translate(513.767953 203.598437)scale(0.1 -0.1)">
       <use xlink:href="#DejaVuSans-32"/>
       <use x="63.623047" xlink:href="#DejaVuSans-30"/>
       <use x="127.246094" xlink:href="#DejaVuSans-30"/>
       <use x="190.869141" xlink:href="#DejaVuSans-30"/>
      </g>
     </g>
    </g>
    <g id="xtick_7">
     <g id="line2d_13">
      <g>
       <use style="stroke:#000000;stroke-width:0.8;" x="596.400536" xlink:href="#mc46b605112" y="189"/>
      </g>
     </g>
     <g id="text_13">
      <!-- 3000 -->
      <defs>
       <path d="M 40.578125 39.3125 
Q 47.65625 37.796875 51.625 33 
Q 55.609375 28.21875 55.609375 21.1875 
Q 55.609375 10.40625 48.1875 4.484375 
Q 40.765625 -1.421875 27.09375 -1.421875 
Q 22.515625 -1.421875 17.65625 -0.515625 
Q 12.796875 0.390625 7.625 2.203125 
L 7.625 11.71875 
Q 11.71875 9.328125 16.59375 8.109375 
Q 21.484375 6.890625 26.8125 6.890625 
Q 36.078125 6.890625 40.9375 10.546875 
Q 45.796875 14.203125 45.796875 21.1875 
Q 45.796875 27.640625 41.28125 31.265625 
Q 36.765625 34.90625 28.71875 34.90625 
L 20.21875 34.90625 
L 20.21875 43.015625 
L 29.109375 43.015625 
Q 36.375 43.015625 40.234375 45.921875 
Q 44.09375 48.828125 44.09375 54.296875 
Q 44.09375 59.90625 40.109375 62.90625 
Q 36.140625 65.921875 28.71875 65.921875 
Q 24.65625 65.921875 20.015625 65.03125 
Q 15.375 64.15625 9.8125 62.3125 
L 9.8125 71.09375 
Q 15.4375 72.65625 20.34375 73.4375 
Q 25.25 74.21875 29.59375 74.21875 
Q 40.828125 74.21875 47.359375 69.109375 
Q 53.90625 64.015625 53.90625 55.328125 
Q 53.90625 49.265625 50.4375 45.09375 
Q 46.96875 40.921875 40.578125 39.3125 
z
" id="DejaVuSans-33"/>
      </defs>
      <g transform="translate(583.675536 203.598437)scale(0.1 -0.1)">
       <use xlink:href="#DejaVuSans-33"/>
       <use x="63.623047" xlink:href="#DejaVuSans-30"/>
       <use x="127.246094" xlink:href="#DejaVuSans-30"/>
       <use x="190.869141" xlink:href="#DejaVuSans-30"/>
      </g>
     </g>
    </g>
    <g id="xtick_8">
     <g id="line2d_14">
      <g>
       <use style="stroke:#000000;stroke-width:0.8;" x="666.30812" xlink:href="#mc46b605112" y="189"/>
      </g>
     </g>
     <g id="text_14">
      <!-- 4000 -->
      <g transform="translate(653.58312 203.598437)scale(0.1 -0.1)">
       <use xlink:href="#DejaVuSans-34"/>
       <use x="63.623047" xlink:href="#DejaVuSans-30"/>
       <use x="127.246094" xlink:href="#DejaVuSans-30"/>
       <use x="190.869141" xlink:href="#DejaVuSans-30"/>
      </g>
     </g>
    </g>
    <g id="xtick_9">
     <g id="line2d_15">
      <g>
       <use style="stroke:#000000;stroke-width:0.8;" x="736.215703" xlink:href="#mc46b605112" y="189"/>
      </g>
     </g>
     <g id="text_15">
      <!-- 5000 -->
      <defs>
       <path d="M 10.796875 72.90625 
L 49.515625 72.90625 
L 49.515625 64.59375 
L 19.828125 64.59375 
L 19.828125 46.734375 
Q 21.96875 47.46875 24.109375 47.828125 
Q 26.265625 48.1875 28.421875 48.1875 
Q 40.625 48.1875 47.75 41.5 
Q 54.890625 34.8125 54.890625 23.390625 
Q 54.890625 11.625 47.5625 5.09375 
Q 40.234375 -1.421875 26.90625 -1.421875 
Q 22.3125 -1.421875 17.546875 -0.640625 
Q 12.796875 0.140625 7.71875 1.703125 
L 7.71875 11.625 
Q 12.109375 9.234375 16.796875 8.0625 
Q 21.484375 6.890625 26.703125 6.890625 
Q 35.15625 6.890625 40.078125 11.328125 
Q 45.015625 15.765625 45.015625 23.390625 
Q 45.015625 31 40.078125 35.4375 
Q 35.15625 39.890625 26.703125 39.890625 
Q 22.75 39.890625 18.8125 39.015625 
Q 14.890625 38.140625 10.796875 36.28125 
z
" id="DejaVuSans-35"/>
      </defs>
      <g transform="translate(723.490703 203.598437)scale(0.1 -0.1)">
       <use xlink:href="#DejaVuSans-35"/>
       <use x="63.623047" xlink:href="#DejaVuSans-30"/>
       <use x="127.246094" xlink:href="#DejaVuSans-30"/>
       <use x="190.869141" xlink:href="#DejaVuSans-30"/>
      </g>
     </g>
    </g>
    <g id="xtick_10">
     <g id="line2d_16">
      <g>
       <use style="stroke:#000000;stroke-width:0.8;" x="806.123286" xlink:href="#mc46b605112" y="189"/>
      </g>
     </g>
     <g id="text_16">
      <!-- 6000 -->
      <g transform="translate(793.398286 203.598437)scale(0.1 -0.1)">
       <use xlink:href="#DejaVuSans-36"/>
       <use x="63.623047" xlink:href="#DejaVuSans-30"/>
       <use x="127.246094" xlink:href="#DejaVuSans-30"/>
       <use x="190.869141" xlink:href="#DejaVuSans-30"/>
      </g>
     </g>
    </g>
    <g id="xtick_11">
     <g id="line2d_17">
      <g>
       <use style="stroke:#000000;stroke-width:0.8;" x="876.03087" xlink:href="#mc46b605112" y="189"/>
      </g>
     </g>
     <g id="text_17">
      <!-- 7000 -->
      <defs>
       <path d="M 8.203125 72.90625 
L 55.078125 72.90625 
L 55.078125 68.703125 
L 28.609375 0 
L 18.3125 0 
L 43.21875 64.59375 
L 8.203125 64.59375 
z
" id="DejaVuSans-37"/>
      </defs>
      <g transform="translate(863.30587 203.598437)scale(0.1 -0.1)">
       <use xlink:href="#DejaVuSans-37"/>
       <use x="63.623047" xlink:href="#DejaVuSans-30"/>
       <use x="127.246094" xlink:href="#DejaVuSans-30"/>
       <use x="190.869141" xlink:href="#DejaVuSans-30"/>
      </g>
     </g>
    </g>
    <g id="xtick_12">
     <g id="line2d_18">
      <g>
       <use style="stroke:#000000;stroke-width:0.8;" x="945.938453" xlink:href="#mc46b605112" y="189"/>
      </g>
     </g>
     <g id="text_18">
      <!-- 8000 -->
      <g transform="translate(933.213453 203.598437)scale(0.1 -0.1)">
       <use xlink:href="#DejaVuSans-38"/>
       <use x="63.623047" xlink:href="#DejaVuSans-30"/>
       <use x="127.246094" xlink:href="#DejaVuSans-30"/>
       <use x="190.869141" xlink:href="#DejaVuSans-30"/>
      </g>
     </g>
    </g>
   </g>
   <g id="matplotlib.axis_4">
    <g id="ytick_6">
     <g id="line2d_19">
      <g>
       <use style="stroke:#000000;stroke-width:0.8;" x="363.272727" xlink:href="#m7b80c4ca90" y="107.46"/>
      </g>
     </g>
     <g id="text_19">
      <!-- 1 -->
      <g transform="translate(349.910227 111.259219)scale(0.1 -0.1)">
       <use xlink:href="#DejaVuSans-31"/>
      </g>
     </g>
    </g>
   </g>
   <g id="line2d_20">
    <path clip-path="url(#p85dc57234d)" d="M 393.249099 119.691 
L 393.249099 95.229 
L 397.779668 95.229 
L 398.42226 101.3445 
L 399.064852 95.229 
L 413.941744 95.229 
L 413.941744 119.691 
L 399.064852 119.691 
L 398.42226 113.5755 
L 397.779668 119.691 
L 393.249099 119.691 
" style="fill:none;stroke:#000000;stroke-linecap:square;"/>
   </g>
   <g id="line2d_21">
    <path clip-path="url(#p85dc57234d)" d="M 393.249099 107.46 
L 390.942149 107.46 
" style="fill:none;stroke:#000000;stroke-linecap:square;"/>
   </g>
   <g id="line2d_22">
    <path clip-path="url(#p85dc57234d)" d="M 413.941744 107.46 
L 455.327033 107.46 
" style="fill:none;stroke:#000000;stroke-linecap:square;"/>
   </g>
   <g id="line2d_23">
    <path clip-path="url(#p85dc57234d)" d="M 390.942149 113.5755 
L 390.942149 101.3445 
" style="fill:none;stroke:#000000;stroke-linecap:square;"/>
   </g>
   <g id="line2d_24">
    <path clip-path="url(#p85dc57234d)" d="M 455.327033 113.5755 
L 455.327033 101.3445 
" style="fill:none;stroke:#000000;stroke-linecap:square;"/>
   </g>
   <g id="line2d_25">
    <defs>
     <path d="M 0 3 
C 0.795609 3 1.55874 2.683901 2.12132 2.12132 
C 2.683901 1.55874 3 0.795609 3 0 
C 3 -0.795609 2.683901 -1.55874 2.12132 -2.12132 
C 1.55874 -2.683901 0.795609 -3 0 -3 
C -0.795609 -3 -1.55874 -2.683901 -2.12132 -2.12132 
C -2.683901 -1.55874 -3 -0.795609 -3 0 
C -3 0.795609 -2.683901 1.55874 -2.12132 2.12132 
C -1.55874 2.683901 -0.795609 3 0 3 
z
" id="m776d03c499" style="stroke:#000000;"/>
    </defs>
    <g clip-path="url(#p85dc57234d)">
     <use style="fill:none;stroke:#000000;" x="455.536756" xlink:href="#m776d03c499" y="107.46"/>
     <use style="fill:none;stroke:#000000;" x="455.746479" xlink:href="#m776d03c499" y="107.46"/>
     <use style="fill:none;stroke:#000000;" x="455.886294" xlink:href="#m776d03c499" y="107.46"/>
     <use style="fill:none;stroke:#000000;" x="456.375647" xlink:href="#m776d03c499" y="107.46"/>
     <use style="fill:none;stroke:#000000;" x="456.655277" xlink:href="#m776d03c499" y="107.46"/>
     <use style="fill:none;stroke:#000000;" x="457.14463" xlink:href="#m776d03c499" y="107.46"/>
     <use style="fill:none;stroke:#000000;" x="457.284445" xlink:href="#m776d03c499" y="107.46"/>
     <use style="fill:none;stroke:#000000;" x="458.123336" xlink:href="#m776d03c499" y="107.46"/>
     <use style="fill:none;stroke:#000000;" x="458.123336" xlink:href="#m776d03c499" y="107.46"/>
     <use style="fill:none;stroke:#000000;" x="458.333059" xlink:href="#m776d03c499" y="107.46"/>
     <use style="fill:none;stroke:#000000;" x="458.333059" xlink:href="#m776d03c499" y="107.46"/>
     <use style="fill:none;stroke:#000000;" x="458.752505" xlink:href="#m776d03c499" y="107.46"/>
     <use style="fill:none;stroke:#000000;" x="459.241858" xlink:href="#m776d03c499" y="107.46"/>
     <use style="fill:none;stroke:#000000;" x="459.381673" xlink:href="#m776d03c499" y="107.46"/>
     <use style="fill:none;stroke:#000000;" x="460.080749" xlink:href="#m776d03c499" y="107.46"/>
     <use style="fill:none;stroke:#000000;" x="460.640009" xlink:href="#m776d03c499" y="107.46"/>
     <use style="fill:none;stroke:#000000;" x="460.849732" xlink:href="#m776d03c499" y="107.46"/>
     <use style="fill:none;stroke:#000000;" x="460.91964" xlink:href="#m776d03c499" y="107.46"/>
     <use style="fill:none;stroke:#000000;" x="461.059455" xlink:href="#m776d03c499" y="107.46"/>
     <use style="fill:none;stroke:#000000;" x="461.618716" xlink:href="#m776d03c499" y="107.46"/>
     <use style="fill:none;stroke:#000000;" x="461.688623" xlink:href="#m776d03c499" y="107.46"/>
     <use style="fill:none;stroke:#000000;" x="462.247884" xlink:href="#m776d03c499" y="107.46"/>
     <use style="fill:none;stroke:#000000;" x="462.317791" xlink:href="#m776d03c499" y="107.46"/>
     <use style="fill:none;stroke:#000000;" x="462.737237" xlink:href="#m776d03c499" y="107.46"/>
     <use style="fill:none;stroke:#000000;" x="462.877052" xlink:href="#m776d03c499" y="107.46"/>
     <use style="fill:none;stroke:#000000;" x="463.156682" xlink:href="#m776d03c499" y="107.46"/>
     <use style="fill:none;stroke:#000000;" x="463.436313" xlink:href="#m776d03c499" y="107.46"/>
     <use style="fill:none;stroke:#000000;" x="463.50622" xlink:href="#m776d03c499" y="107.46"/>
     <use style="fill:none;stroke:#000000;" x="464.624742" xlink:href="#m776d03c499" y="107.46"/>
     <use style="fill:none;stroke:#000000;" x="464.97428" xlink:href="#m776d03c499" y="107.46"/>
     <use style="fill:none;stroke:#000000;" x="465.25391" xlink:href="#m776d03c499" y="107.46"/>
     <use style="fill:none;stroke:#000000;" x="465.673355" xlink:href="#m776d03c499" y="107.46"/>
     <use style="fill:none;stroke:#000000;" x="465.952986" xlink:href="#m776d03c499" y="107.46"/>
     <use style="fill:none;stroke:#000000;" x="466.022893" xlink:href="#m776d03c499" y="107.46"/>
     <use style="fill:none;stroke:#000000;" x="466.791877" xlink:href="#m776d03c499" y="107.46"/>
     <use style="fill:none;stroke:#000000;" x="467.28123" xlink:href="#m776d03c499" y="107.46"/>
     <use style="fill:none;stroke:#000000;" x="467.28123" xlink:href="#m776d03c499" y="107.46"/>
     <use style="fill:none;stroke:#000000;" x="467.421045" xlink:href="#m776d03c499" y="107.46"/>
     <use style="fill:none;stroke:#000000;" x="467.490953" xlink:href="#m776d03c499" y="107.46"/>
     <use style="fill:none;stroke:#000000;" x="467.700675" xlink:href="#m776d03c499" y="107.46"/>
     <use style="fill:none;stroke:#000000;" x="468.609474" xlink:href="#m776d03c499" y="107.46"/>
     <use style="fill:none;stroke:#000000;" x="470.007626" xlink:href="#m776d03c499" y="107.46"/>
     <use style="fill:none;stroke:#000000;" x="471.056239" xlink:href="#m776d03c499" y="107.46"/>
     <use style="fill:none;stroke:#000000;" x="471.685408" xlink:href="#m776d03c499" y="107.46"/>
     <use style="fill:none;stroke:#000000;" x="471.755315" xlink:href="#m776d03c499" y="107.46"/>
     <use style="fill:none;stroke:#000000;" x="471.89513" xlink:href="#m776d03c499" y="107.46"/>
     <use style="fill:none;stroke:#000000;" x="472.034945" xlink:href="#m776d03c499" y="107.46"/>
     <use style="fill:none;stroke:#000000;" x="472.524299" xlink:href="#m776d03c499" y="107.46"/>
     <use style="fill:none;stroke:#000000;" x="472.803929" xlink:href="#m776d03c499" y="107.46"/>
     <use style="fill:none;stroke:#000000;" x="473.782635" xlink:href="#m776d03c499" y="107.46"/>
     <use style="fill:none;stroke:#000000;" x="473.92245" xlink:href="#m776d03c499" y="107.46"/>
     <use style="fill:none;stroke:#000000;" x="474.062265" xlink:href="#m776d03c499" y="107.46"/>
     <use style="fill:none;stroke:#000000;" x="475.040972" xlink:href="#m776d03c499" y="107.46"/>
     <use style="fill:none;stroke:#000000;" x="475.740047" xlink:href="#m776d03c499" y="107.46"/>
     <use style="fill:none;stroke:#000000;" x="475.809955" xlink:href="#m776d03c499" y="107.46"/>
     <use style="fill:none;stroke:#000000;" x="475.879863" xlink:href="#m776d03c499" y="107.46"/>
     <use style="fill:none;stroke:#000000;" x="476.788661" xlink:href="#m776d03c499" y="107.46"/>
     <use style="fill:none;stroke:#000000;" x="476.928476" xlink:href="#m776d03c499" y="107.46"/>
     <use style="fill:none;stroke:#000000;" x="476.998384" xlink:href="#m776d03c499" y="107.46"/>
     <use style="fill:none;stroke:#000000;" x="477.068291" xlink:href="#m776d03c499" y="107.46"/>
     <use style="fill:none;stroke:#000000;" x="477.068291" xlink:href="#m776d03c499" y="107.46"/>
     <use style="fill:none;stroke:#000000;" x="477.417829" xlink:href="#m776d03c499" y="107.46"/>
     <use style="fill:none;stroke:#000000;" x="477.417829" xlink:href="#m776d03c499" y="107.46"/>
     <use style="fill:none;stroke:#000000;" x="477.487737" xlink:href="#m776d03c499" y="107.46"/>
     <use style="fill:none;stroke:#000000;" x="477.487737" xlink:href="#m776d03c499" y="107.46"/>
     <use style="fill:none;stroke:#000000;" x="477.767367" xlink:href="#m776d03c499" y="107.46"/>
     <use style="fill:none;stroke:#000000;" x="478.25672" xlink:href="#m776d03c499" y="107.46"/>
     <use style="fill:none;stroke:#000000;" x="478.326628" xlink:href="#m776d03c499" y="107.46"/>
     <use style="fill:none;stroke:#000000;" x="478.536351" xlink:href="#m776d03c499" y="107.46"/>
     <use style="fill:none;stroke:#000000;" x="478.746073" xlink:href="#m776d03c499" y="107.46"/>
     <use style="fill:none;stroke:#000000;" x="479.305334" xlink:href="#m776d03c499" y="107.46"/>
     <use style="fill:none;stroke:#000000;" x="479.375242" xlink:href="#m776d03c499" y="107.46"/>
     <use style="fill:none;stroke:#000000;" x="479.375242" xlink:href="#m776d03c499" y="107.46"/>
     <use style="fill:none;stroke:#000000;" x="479.934502" xlink:href="#m776d03c499" y="107.46"/>
     <use style="fill:none;stroke:#000000;" x="480.703486" xlink:href="#m776d03c499" y="107.46"/>
     <use style="fill:none;stroke:#000000;" x="480.913209" xlink:href="#m776d03c499" y="107.46"/>
     <use style="fill:none;stroke:#000000;" x="481.542377" xlink:href="#m776d03c499" y="107.46"/>
     <use style="fill:none;stroke:#000000;" x="481.961822" xlink:href="#m776d03c499" y="107.46"/>
     <use style="fill:none;stroke:#000000;" x="482.101637" xlink:href="#m776d03c499" y="107.46"/>
     <use style="fill:none;stroke:#000000;" x="483.010436" xlink:href="#m776d03c499" y="107.46"/>
     <use style="fill:none;stroke:#000000;" x="484.198865" xlink:href="#m776d03c499" y="107.46"/>
     <use style="fill:none;stroke:#000000;" x="484.408588" xlink:href="#m776d03c499" y="107.46"/>
     <use style="fill:none;stroke:#000000;" x="484.758126" xlink:href="#m776d03c499" y="107.46"/>
     <use style="fill:none;stroke:#000000;" x="484.828033" xlink:href="#m776d03c499" y="107.46"/>
     <use style="fill:none;stroke:#000000;" x="485.387294" xlink:href="#m776d03c499" y="107.46"/>
     <use style="fill:none;stroke:#000000;" x="485.736832" xlink:href="#m776d03c499" y="107.46"/>
     <use style="fill:none;stroke:#000000;" x="486.296092" xlink:href="#m776d03c499" y="107.46"/>
     <use style="fill:none;stroke:#000000;" x="486.296092" xlink:href="#m776d03c499" y="107.46"/>
     <use style="fill:none;stroke:#000000;" x="486.995168" xlink:href="#m776d03c499" y="107.46"/>
     <use style="fill:none;stroke:#000000;" x="487.204891" xlink:href="#m776d03c499" y="107.46"/>
     <use style="fill:none;stroke:#000000;" x="487.344706" xlink:href="#m776d03c499" y="107.46"/>
     <use style="fill:none;stroke:#000000;" x="487.834059" xlink:href="#m776d03c499" y="107.46"/>
     <use style="fill:none;stroke:#000000;" x="488.742858" xlink:href="#m776d03c499" y="107.46"/>
     <use style="fill:none;stroke:#000000;" x="488.812765" xlink:href="#m776d03c499" y="107.46"/>
     <use style="fill:none;stroke:#000000;" x="489.232211" xlink:href="#m776d03c499" y="107.46"/>
     <use style="fill:none;stroke:#000000;" x="490.979901" xlink:href="#m776d03c499" y="107.46"/>
     <use style="fill:none;stroke:#000000;" x="490.979901" xlink:href="#m776d03c499" y="107.46"/>
     <use style="fill:none;stroke:#000000;" x="490.979901" xlink:href="#m776d03c499" y="107.46"/>
     <use style="fill:none;stroke:#000000;" x="491.119716" xlink:href="#m776d03c499" y="107.46"/>
     <use style="fill:none;stroke:#000000;" x="492.44796" xlink:href="#m776d03c499" y="107.46"/>
     <use style="fill:none;stroke:#000000;" x="493.077128" xlink:href="#m776d03c499" y="107.46"/>
     <use style="fill:none;stroke:#000000;" x="493.496574" xlink:href="#m776d03c499" y="107.46"/>
     <use style="fill:none;stroke:#000000;" x="493.706296" xlink:href="#m776d03c499" y="107.46"/>
     <use style="fill:none;stroke:#000000;" x="493.916019" xlink:href="#m776d03c499" y="107.46"/>
     <use style="fill:none;stroke:#000000;" x="494.824818" xlink:href="#m776d03c499" y="107.46"/>
     <use style="fill:none;stroke:#000000;" x="496.432692" xlink:href="#m776d03c499" y="107.46"/>
     <use style="fill:none;stroke:#000000;" x="497.131768" xlink:href="#m776d03c499" y="107.46"/>
     <use style="fill:none;stroke:#000000;" x="497.201675" xlink:href="#m776d03c499" y="107.46"/>
     <use style="fill:none;stroke:#000000;" x="499.159088" xlink:href="#m776d03c499" y="107.46"/>
     <use style="fill:none;stroke:#000000;" x="499.928071" xlink:href="#m776d03c499" y="107.46"/>
     <use style="fill:none;stroke:#000000;" x="500.207702" xlink:href="#m776d03c499" y="107.46"/>
     <use style="fill:none;stroke:#000000;" x="501.535946" xlink:href="#m776d03c499" y="107.46"/>
     <use style="fill:none;stroke:#000000;" x="502.095206" xlink:href="#m776d03c499" y="107.46"/>
     <use style="fill:none;stroke:#000000;" x="502.724375" xlink:href="#m776d03c499" y="107.46"/>
     <use style="fill:none;stroke:#000000;" x="505.45077" xlink:href="#m776d03c499" y="107.46"/>
     <use style="fill:none;stroke:#000000;" x="505.800308" xlink:href="#m776d03c499" y="107.46"/>
     <use style="fill:none;stroke:#000000;" x="505.940123" xlink:href="#m776d03c499" y="107.46"/>
     <use style="fill:none;stroke:#000000;" x="506.709107" xlink:href="#m776d03c499" y="107.46"/>
     <use style="fill:none;stroke:#000000;" x="507.338275" xlink:href="#m776d03c499" y="107.46"/>
     <use style="fill:none;stroke:#000000;" x="508.456796" xlink:href="#m776d03c499" y="107.46"/>
     <use style="fill:none;stroke:#000000;" x="509.365595" xlink:href="#m776d03c499" y="107.46"/>
     <use style="fill:none;stroke:#000000;" x="510.064671" xlink:href="#m776d03c499" y="107.46"/>
     <use style="fill:none;stroke:#000000;" x="510.204486" xlink:href="#m776d03c499" y="107.46"/>
     <use style="fill:none;stroke:#000000;" x="510.414209" xlink:href="#m776d03c499" y="107.46"/>
     <use style="fill:none;stroke:#000000;" x="512.581344" xlink:href="#m776d03c499" y="107.46"/>
     <use style="fill:none;stroke:#000000;" x="514.329033" xlink:href="#m776d03c499" y="107.46"/>
     <use style="fill:none;stroke:#000000;" x="514.468849" xlink:href="#m776d03c499" y="107.46"/>
     <use style="fill:none;stroke:#000000;" x="514.678571" xlink:href="#m776d03c499" y="107.46"/>
     <use style="fill:none;stroke:#000000;" x="517.89432" xlink:href="#m776d03c499" y="107.46"/>
     <use style="fill:none;stroke:#000000;" x="518.803119" xlink:href="#m776d03c499" y="107.46"/>
     <use style="fill:none;stroke:#000000;" x="519.012841" xlink:href="#m776d03c499" y="107.46"/>
     <use style="fill:none;stroke:#000000;" x="519.781825" xlink:href="#m776d03c499" y="107.46"/>
     <use style="fill:none;stroke:#000000;" x="520.271178" xlink:href="#m776d03c499" y="107.46"/>
     <use style="fill:none;stroke:#000000;" x="520.410993" xlink:href="#m776d03c499" y="107.46"/>
     <use style="fill:none;stroke:#000000;" x="520.690623" xlink:href="#m776d03c499" y="107.46"/>
     <use style="fill:none;stroke:#000000;" x="521.319792" xlink:href="#m776d03c499" y="107.46"/>
     <use style="fill:none;stroke:#000000;" x="521.529514" xlink:href="#m776d03c499" y="107.46"/>
     <use style="fill:none;stroke:#000000;" x="523.906372" xlink:href="#m776d03c499" y="107.46"/>
     <use style="fill:none;stroke:#000000;" x="525.723969" xlink:href="#m776d03c499" y="107.46"/>
     <use style="fill:none;stroke:#000000;" x="525.723969" xlink:href="#m776d03c499" y="107.46"/>
     <use style="fill:none;stroke:#000000;" x="526.143415" xlink:href="#m776d03c499" y="107.46"/>
     <use style="fill:none;stroke:#000000;" x="526.772583" xlink:href="#m776d03c499" y="107.46"/>
     <use style="fill:none;stroke:#000000;" x="526.982306" xlink:href="#m776d03c499" y="107.46"/>
     <use style="fill:none;stroke:#000000;" x="527.541567" xlink:href="#m776d03c499" y="107.46"/>
     <use style="fill:none;stroke:#000000;" x="528.31055" xlink:href="#m776d03c499" y="107.46"/>
     <use style="fill:none;stroke:#000000;" x="531.246669" xlink:href="#m776d03c499" y="107.46"/>
     <use style="fill:none;stroke:#000000;" x="532.36519" xlink:href="#m776d03c499" y="107.46"/>
     <use style="fill:none;stroke:#000000;" x="532.574913" xlink:href="#m776d03c499" y="107.46"/>
     <use style="fill:none;stroke:#000000;" x="533.903157" xlink:href="#m776d03c499" y="107.46"/>
     <use style="fill:none;stroke:#000000;" x="534.182787" xlink:href="#m776d03c499" y="107.46"/>
     <use style="fill:none;stroke:#000000;" x="534.322602" xlink:href="#m776d03c499" y="107.46"/>
     <use style="fill:none;stroke:#000000;" x="534.742048" xlink:href="#m776d03c499" y="107.46"/>
     <use style="fill:none;stroke:#000000;" x="534.95177" xlink:href="#m776d03c499" y="107.46"/>
     <use style="fill:none;stroke:#000000;" x="535.441124" xlink:href="#m776d03c499" y="107.46"/>
     <use style="fill:none;stroke:#000000;" x="535.441124" xlink:href="#m776d03c499" y="107.46"/>
     <use style="fill:none;stroke:#000000;" x="541.872621" xlink:href="#m776d03c499" y="107.46"/>
     <use style="fill:none;stroke:#000000;" x="542.082344" xlink:href="#m776d03c499" y="107.46"/>
     <use style="fill:none;stroke:#000000;" x="542.082344" xlink:href="#m776d03c499" y="107.46"/>
     <use style="fill:none;stroke:#000000;" x="543.550403" xlink:href="#m776d03c499" y="107.46"/>
     <use style="fill:none;stroke:#000000;" x="543.620311" xlink:href="#m776d03c499" y="107.46"/>
     <use style="fill:none;stroke:#000000;" x="543.690218" xlink:href="#m776d03c499" y="107.46"/>
     <use style="fill:none;stroke:#000000;" x="545.507816" xlink:href="#m776d03c499" y="107.46"/>
     <use style="fill:none;stroke:#000000;" x="547.884673" xlink:href="#m776d03c499" y="107.46"/>
     <use style="fill:none;stroke:#000000;" x="547.884673" xlink:href="#m776d03c499" y="107.46"/>
     <use style="fill:none;stroke:#000000;" x="548.653657" xlink:href="#m776d03c499" y="107.46"/>
     <use style="fill:none;stroke:#000000;" x="550.541162" xlink:href="#m776d03c499" y="107.46"/>
     <use style="fill:none;stroke:#000000;" x="550.611069" xlink:href="#m776d03c499" y="107.46"/>
     <use style="fill:none;stroke:#000000;" x="550.960607" xlink:href="#m776d03c499" y="107.46"/>
     <use style="fill:none;stroke:#000000;" x="554.455986" xlink:href="#m776d03c499" y="107.46"/>
     <use style="fill:none;stroke:#000000;" x="564.732401" xlink:href="#m776d03c499" y="107.46"/>
     <use style="fill:none;stroke:#000000;" x="564.942124" xlink:href="#m776d03c499" y="107.46"/>
     <use style="fill:none;stroke:#000000;" x="568.50741" xlink:href="#m776d03c499" y="107.46"/>
     <use style="fill:none;stroke:#000000;" x="575.428261" xlink:href="#m776d03c499" y="107.46"/>
     <use style="fill:none;stroke:#000000;" x="581.650036" xlink:href="#m776d03c499" y="107.46"/>
     <use style="fill:none;stroke:#000000;" x="582.069482" xlink:href="#m776d03c499" y="107.46"/>
     <use style="fill:none;stroke:#000000;" x="583.537541" xlink:href="#m776d03c499" y="107.46"/>
     <use style="fill:none;stroke:#000000;" x="584.865785" xlink:href="#m776d03c499" y="107.46"/>
     <use style="fill:none;stroke:#000000;" x="585.145415" xlink:href="#m776d03c499" y="107.46"/>
     <use style="fill:none;stroke:#000000;" x="586.333844" xlink:href="#m776d03c499" y="107.46"/>
     <use style="fill:none;stroke:#000000;" x="590.738022" xlink:href="#m776d03c499" y="107.46"/>
     <use style="fill:none;stroke:#000000;" x="592.905157" xlink:href="#m776d03c499" y="107.46"/>
     <use style="fill:none;stroke:#000000;" x="595.771368" xlink:href="#m776d03c499" y="107.46"/>
     <use style="fill:none;stroke:#000000;" x="600.315361" xlink:href="#m776d03c499" y="107.46"/>
     <use style="fill:none;stroke:#000000;" x="602.622311" xlink:href="#m776d03c499" y="107.46"/>
     <use style="fill:none;stroke:#000000;" x="602.971849" xlink:href="#m776d03c499" y="107.46"/>
     <use style="fill:none;stroke:#000000;" x="603.321387" xlink:href="#m776d03c499" y="107.46"/>
     <use style="fill:none;stroke:#000000;" x="604.719539" xlink:href="#m776d03c499" y="107.46"/>
     <use style="fill:none;stroke:#000000;" x="614.157062" xlink:href="#m776d03c499" y="107.46"/>
     <use style="fill:none;stroke:#000000;" x="616.53392" xlink:href="#m776d03c499" y="107.46"/>
     <use style="fill:none;stroke:#000000;" x="618.001979" xlink:href="#m776d03c499" y="107.46"/>
     <use style="fill:none;stroke:#000000;" x="618.211702" xlink:href="#m776d03c499" y="107.46"/>
     <use style="fill:none;stroke:#000000;" x="622.61588" xlink:href="#m776d03c499" y="107.46"/>
     <use style="fill:none;stroke:#000000;" x="623.454771" xlink:href="#m776d03c499" y="107.46"/>
     <use style="fill:none;stroke:#000000;" x="623.734401" xlink:href="#m776d03c499" y="107.46"/>
     <use style="fill:none;stroke:#000000;" x="629.327008" xlink:href="#m776d03c499" y="107.46"/>
     <use style="fill:none;stroke:#000000;" x="631.074698" xlink:href="#m776d03c499" y="107.46"/>
     <use style="fill:none;stroke:#000000;" x="635.61869" xlink:href="#m776d03c499" y="107.46"/>
     <use style="fill:none;stroke:#000000;" x="636.038136" xlink:href="#m776d03c499" y="107.46"/>
     <use style="fill:none;stroke:#000000;" x="638.484901" xlink:href="#m776d03c499" y="107.46"/>
     <use style="fill:none;stroke:#000000;" x="645.056214" xlink:href="#m776d03c499" y="107.46"/>
     <use style="fill:none;stroke:#000000;" x="645.685382" xlink:href="#m776d03c499" y="107.46"/>
     <use style="fill:none;stroke:#000000;" x="654.214108" xlink:href="#m776d03c499" y="107.46"/>
     <use style="fill:none;stroke:#000000;" x="681.268342" xlink:href="#m776d03c499" y="107.46"/>
     <use style="fill:none;stroke:#000000;" x="686.791041" xlink:href="#m776d03c499" y="107.46"/>
     <use style="fill:none;stroke:#000000;" x="688.678546" xlink:href="#m776d03c499" y="107.46"/>
     <use style="fill:none;stroke:#000000;" x="700.14339" xlink:href="#m776d03c499" y="107.46"/>
     <use style="fill:none;stroke:#000000;" x="700.353113" xlink:href="#m776d03c499" y="107.46"/>
     <use style="fill:none;stroke:#000000;" x="711.887864" xlink:href="#m776d03c499" y="107.46"/>
     <use style="fill:none;stroke:#000000;" x="719.647606" xlink:href="#m776d03c499" y="107.46"/>
     <use style="fill:none;stroke:#000000;" x="723.212892" xlink:href="#m776d03c499" y="107.46"/>
     <use style="fill:none;stroke:#000000;" x="742.577293" xlink:href="#m776d03c499" y="107.46"/>
     <use style="fill:none;stroke:#000000;" x="752.154632" xlink:href="#m776d03c499" y="107.46"/>
     <use style="fill:none;stroke:#000000;" x="791.862139" xlink:href="#m776d03c499" y="107.46"/>
     <use style="fill:none;stroke:#000000;" x="812.484876" xlink:href="#m776d03c499" y="107.46"/>
     <use style="fill:none;stroke:#000000;" x="812.834414" xlink:href="#m776d03c499" y="107.46"/>
     <use style="fill:none;stroke:#000000;" x="821.223324" xlink:href="#m776d03c499" y="107.46"/>
     <use style="fill:none;stroke:#000000;" x="825.907132" xlink:href="#m776d03c499" y="107.46"/>
     <use style="fill:none;stroke:#000000;" x="855.128502" xlink:href="#m776d03c499" y="107.46"/>
     <use style="fill:none;stroke:#000000;" x="857.365545" xlink:href="#m776d03c499" y="107.46"/>
     <use style="fill:none;stroke:#000000;" x="891.130908" xlink:href="#m776d03c499" y="107.46"/>
     <use style="fill:none;stroke:#000000;" x="924.057379" xlink:href="#m776d03c499" y="107.46"/>
     <use style="fill:none;stroke:#000000;" x="929.649986" xlink:href="#m776d03c499" y="107.46"/>
     <use style="fill:none;stroke:#000000;" x="940.765292" xlink:href="#m776d03c499" y="107.46"/>
     <use style="fill:none;stroke:#000000;" x="944.330579" xlink:href="#m776d03c499" y="107.46"/>
    </g>
   </g>
   <g id="line2d_26">
    <path clip-path="url(#p85dc57234d)" d="M 398.42226 113.5755 
L 398.42226 101.3445 
" style="fill:none;stroke:#ff7f0e;stroke-linecap:square;"/>
   </g>
   <g id="patch_8">
    <path d="M 363.272727 189 
L 363.272727 25.92 
" style="fill:none;stroke:#000000;stroke-linecap:square;stroke-linejoin:miter;stroke-width:0.8;"/>
   </g>
   <g id="patch_9">
    <path d="M 972 189 
L 972 25.92 
" style="fill:none;stroke:#000000;stroke-linecap:square;stroke-linejoin:miter;stroke-width:0.8;"/>
   </g>
   <g id="patch_10">
    <path d="M 363.272727 189 
L 972 189 
" style="fill:none;stroke:#000000;stroke-linecap:square;stroke-linejoin:miter;stroke-width:0.8;"/>
   </g>
   <g id="patch_11">
    <path d="M 363.272727 25.92 
L 972 25.92 
" style="fill:none;stroke:#000000;stroke-linecap:square;stroke-linejoin:miter;stroke-width:0.8;"/>
   </g>
   <g id="text_20">
    <!-- box-plot -->
    <defs>
     <path d="M 48.6875 27.296875 
Q 48.6875 37.203125 44.609375 42.84375 
Q 40.53125 48.484375 33.40625 48.484375 
Q 26.265625 48.484375 22.1875 42.84375 
Q 18.109375 37.203125 18.109375 27.296875 
Q 18.109375 17.390625 22.1875 11.75 
Q 26.265625 6.109375 33.40625 6.109375 
Q 40.53125 6.109375 44.609375 11.75 
Q 48.6875 17.390625 48.6875 27.296875 
z
M 18.109375 46.390625 
Q 20.953125 51.265625 25.265625 53.625 
Q 29.59375 56 35.59375 56 
Q 45.5625 56 51.78125 48.09375 
Q 58.015625 40.1875 58.015625 27.296875 
Q 58.015625 14.40625 51.78125 6.484375 
Q 45.5625 -1.421875 35.59375 -1.421875 
Q 29.59375 -1.421875 25.265625 0.953125 
Q 20.953125 3.328125 18.109375 8.203125 
L 18.109375 0 
L 9.078125 0 
L 9.078125 75.984375 
L 18.109375 75.984375 
z
" id="DejaVuSans-62"/>
     <path d="M 54.890625 54.6875 
L 35.109375 28.078125 
L 55.90625 0 
L 45.3125 0 
L 29.390625 21.484375 
L 13.484375 0 
L 2.875 0 
L 24.125 28.609375 
L 4.6875 54.6875 
L 15.28125 54.6875 
L 29.78125 35.203125 
L 44.28125 54.6875 
z
" id="DejaVuSans-78"/>
     <path d="M 4.890625 31.390625 
L 31.203125 31.390625 
L 31.203125 23.390625 
L 4.890625 23.390625 
z
" id="DejaVuSans-2d"/>
    </defs>
    <g transform="translate(642.943551 19.92)scale(0.12 -0.12)">
     <use xlink:href="#DejaVuSans-62"/>
     <use x="63.476562" xlink:href="#DejaVuSans-6f"/>
     <use x="124.611328" xlink:href="#DejaVuSans-78"/>
     <use x="183.791016" xlink:href="#DejaVuSans-2d"/>
     <use x="219.875" xlink:href="#DejaVuSans-70"/>
     <use x="283.351562" xlink:href="#DejaVuSans-6c"/>
     <use x="311.134766" xlink:href="#DejaVuSans-6f"/>
     <use x="372.316406" xlink:href="#DejaVuSans-74"/>
    </g>
   </g>
  </g>
 </g>
 <defs>
  <clipPath id="p7cf08b4e38">
   <rect height="163.08" width="152.181818" x="135" y="25.92"/>
  </clipPath>
  <clipPath id="p85dc57234d">
   <rect height="163.08" width="608.727273" x="363.272727" y="25.92"/>
  </clipPath>
 </defs>
</svg>
