<?xml version="1.0" encoding="utf-8" standalone="no"?>
<!DOCTYPE svg PUBLIC "-//W3C//DTD SVG 1.1//EN"
  "http://www.w3.org/Graphics/SVG/1.1/DTD/svg11.dtd">
<!-- Created with matplotlib (http://matplotlib.org/) -->
<svg height="216pt" version="1.1" viewBox="0 0 1080 216" width="1080pt" xmlns="http://www.w3.org/2000/svg" xmlns:xlink="http://www.w3.org/1999/xlink">
 <defs>
  <style type="text/css">
*{stroke-linecap:butt;stroke-linejoin:round;}
  </style>
 </defs>
 <g id="figure_1">
  <g id="patch_1">
   <path d="M 0 216 
L 1080 216 
L 1080 0 
L 0 0 
z
" style="fill:#ffffff;"/>
  </g>
  <g id="axes_1">
   <g id="patch_2">
    <path d="M 135 189 
L 287.181818 189 
L 287.181818 25.92 
L 135 25.92 
z
" style="fill:#ffffff;"/>
   </g>
   <g id="matplotlib.axis_1">
    <g id="xtick_1">
     <g id="line2d_1">
      <defs>
       <path d="M 0 0 
L 0 3.5 
" id="me1ecb345f5" style="stroke:#000000;stroke-width:0.8;"/>
      </defs>
      <g>
       <use style="stroke:#000000;stroke-width:0.8;" x="141.917355" xlink:href="#me1ecb345f5" y="189"/>
      </g>
     </g>
     <g id="text_1">
      <!-- 0 -->
      <defs>
       <path d="M 31.78125 66.40625 
Q 24.171875 66.40625 20.328125 58.90625 
Q 16.5 51.421875 16.5 36.375 
Q 16.5 21.390625 20.328125 13.890625 
Q 24.171875 6.390625 31.78125 6.390625 
Q 39.453125 6.390625 43.28125 13.890625 
Q 47.125 21.390625 47.125 36.375 
Q 47.125 51.421875 43.28125 58.90625 
Q 39.453125 66.40625 31.78125 66.40625 
z
M 31.78125 74.21875 
Q 44.046875 74.21875 50.515625 64.515625 
Q 56.984375 54.828125 56.984375 36.375 
Q 56.984375 17.96875 50.515625 8.265625 
Q 44.046875 -1.421875 31.78125 -1.421875 
Q 19.53125 -1.421875 13.0625 8.265625 
Q 6.59375 17.96875 6.59375 36.375 
Q 6.59375 54.828125 13.0625 64.515625 
Q 19.53125 74.21875 31.78125 74.21875 
z
" id="DejaVuSans-30"/>
      </defs>
      <g transform="translate(138.736105 203.598437)scale(0.1 -0.1)">
       <use xlink:href="#DejaVuSans-30"/>
      </g>
     </g>
    </g>
    <g id="xtick_2">
     <g id="line2d_2">
      <g>
       <use style="stroke:#000000;stroke-width:0.8;" x="175.759603" xlink:href="#me1ecb345f5" y="189"/>
      </g>
     </g>
     <g id="text_2">
      <!-- 250 -->
      <defs>
       <path d="M 19.1875 8.296875 
L 53.609375 8.296875 
L 53.609375 0 
L 7.328125 0 
L 7.328125 8.296875 
Q 12.9375 14.109375 22.625 23.890625 
Q 32.328125 33.6875 34.8125 36.53125 
Q 39.546875 41.84375 41.421875 45.53125 
Q 43.3125 49.21875 43.3125 52.78125 
Q 43.3125 58.59375 39.234375 62.25 
Q 35.15625 65.921875 28.609375 65.921875 
Q 23.96875 65.921875 18.8125 64.3125 
Q 13.671875 62.703125 7.8125 59.421875 
L 7.8125 69.390625 
Q 13.765625 71.78125 18.9375 73 
Q 24.125 74.21875 28.421875 74.21875 
Q 39.75 74.21875 46.484375 68.546875 
Q 53.21875 62.890625 53.21875 53.421875 
Q 53.21875 48.921875 51.53125 44.890625 
Q 49.859375 40.875 45.40625 35.40625 
Q 44.1875 33.984375 37.640625 27.21875 
Q 31.109375 20.453125 19.1875 8.296875 
z
" id="DejaVuSans-32"/>
       <path d="M 10.796875 72.90625 
L 49.515625 72.90625 
L 49.515625 64.59375 
L 19.828125 64.59375 
L 19.828125 46.734375 
Q 21.96875 47.46875 24.109375 47.828125 
Q 26.265625 48.1875 28.421875 48.1875 
Q 40.625 48.1875 47.75 41.5 
Q 54.890625 34.8125 54.890625 23.390625 
Q 54.890625 11.625 47.5625 5.09375 
Q 40.234375 -1.421875 26.90625 -1.421875 
Q 22.3125 -1.421875 17.546875 -0.640625 
Q 12.796875 0.140625 7.71875 1.703125 
L 7.71875 11.625 
Q 12.109375 9.234375 16.796875 8.0625 
Q 21.484375 6.890625 26.703125 6.890625 
Q 35.15625 6.890625 40.078125 11.328125 
Q 45.015625 15.765625 45.015625 23.390625 
Q 45.015625 31 40.078125 35.4375 
Q 35.15625 39.890625 26.703125 39.890625 
Q 22.75 39.890625 18.8125 39.015625 
Q 14.890625 38.140625 10.796875 36.28125 
z
" id="DejaVuSans-35"/>
      </defs>
      <g transform="translate(166.215853 203.598437)scale(0.1 -0.1)">
       <use xlink:href="#DejaVuSans-32"/>
       <use x="63.623047" xlink:href="#DejaVuSans-35"/>
       <use x="127.246094" xlink:href="#DejaVuSans-30"/>
      </g>
     </g>
    </g>
    <g id="xtick_3">
     <g id="line2d_3">
      <g>
       <use style="stroke:#000000;stroke-width:0.8;" x="209.60185" xlink:href="#me1ecb345f5" y="189"/>
      </g>
     </g>
     <g id="text_3">
      <!-- 500 -->
      <g transform="translate(200.0581 203.598437)scale(0.1 -0.1)">
       <use xlink:href="#DejaVuSans-35"/>
       <use x="63.623047" xlink:href="#DejaVuSans-30"/>
       <use x="127.246094" xlink:href="#DejaVuSans-30"/>
      </g>
     </g>
    </g>
    <g id="xtick_4">
     <g id="line2d_4">
      <g>
       <use style="stroke:#000000;stroke-width:0.8;" x="243.444098" xlink:href="#me1ecb345f5" y="189"/>
      </g>
     </g>
     <g id="text_4">
      <!-- 750 -->
      <defs>
       <path d="M 8.203125 72.90625 
L 55.078125 72.90625 
L 55.078125 68.703125 
L 28.609375 0 
L 18.3125 0 
L 43.21875 64.59375 
L 8.203125 64.59375 
z
" id="DejaVuSans-37"/>
      </defs>
      <g transform="translate(233.900348 203.598437)scale(0.1 -0.1)">
       <use xlink:href="#DejaVuSans-37"/>
       <use x="63.623047" xlink:href="#DejaVuSans-35"/>
       <use x="127.246094" xlink:href="#DejaVuSans-30"/>
      </g>
     </g>
    </g>
    <g id="xtick_5">
     <g id="line2d_5">
      <g>
       <use style="stroke:#000000;stroke-width:0.8;" x="277.286345" xlink:href="#me1ecb345f5" y="189"/>
      </g>
     </g>
     <g id="text_5">
      <!-- 1000 -->
      <defs>
       <path d="M 12.40625 8.296875 
L 28.515625 8.296875 
L 28.515625 63.921875 
L 10.984375 60.40625 
L 10.984375 69.390625 
L 28.421875 72.90625 
L 38.28125 72.90625 
L 38.28125 8.296875 
L 54.390625 8.296875 
L 54.390625 0 
L 12.40625 0 
z
" id="DejaVuSans-31"/>
      </defs>
      <g transform="translate(264.561345 203.598437)scale(0.1 -0.1)">
       <use xlink:href="#DejaVuSans-31"/>
       <use x="63.623047" xlink:href="#DejaVuSans-30"/>
       <use x="127.246094" xlink:href="#DejaVuSans-30"/>
       <use x="190.869141" xlink:href="#DejaVuSans-30"/>
      </g>
     </g>
    </g>
   </g>
   <g id="matplotlib.axis_2">
    <g id="ytick_1">
     <g id="line2d_6">
      <defs>
       <path d="M 0 0 
L -3.5 0 
" id="m2eeae957f8" style="stroke:#000000;stroke-width:0.8;"/>
      </defs>
      <g>
       <use style="stroke:#000000;stroke-width:0.8;" x="135" xlink:href="#m2eeae957f8" y="166.852034"/>
      </g>
     </g>
     <g id="text_6">
      <!-- 200 -->
      <g transform="translate(108.9125 170.651253)scale(0.1 -0.1)">
       <use xlink:href="#DejaVuSans-32"/>
       <use x="63.623047" xlink:href="#DejaVuSans-30"/>
       <use x="127.246094" xlink:href="#DejaVuSans-30"/>
      </g>
     </g>
    </g>
    <g id="ytick_2">
     <g id="line2d_7">
      <g>
       <use style="stroke:#000000;stroke-width:0.8;" x="135" xlink:href="#m2eeae957f8" y="136.780118"/>
      </g>
     </g>
     <g id="text_7">
      <!-- 300 -->
      <defs>
       <path d="M 40.578125 39.3125 
Q 47.65625 37.796875 51.625 33 
Q 55.609375 28.21875 55.609375 21.1875 
Q 55.609375 10.40625 48.1875 4.484375 
Q 40.765625 -1.421875 27.09375 -1.421875 
Q 22.515625 -1.421875 17.65625 -0.515625 
Q 12.796875 0.390625 7.625 2.203125 
L 7.625 11.71875 
Q 11.71875 9.328125 16.59375 8.109375 
Q 21.484375 6.890625 26.8125 6.890625 
Q 36.078125 6.890625 40.9375 10.546875 
Q 45.796875 14.203125 45.796875 21.1875 
Q 45.796875 27.640625 41.28125 31.265625 
Q 36.765625 34.90625 28.71875 34.90625 
L 20.21875 34.90625 
L 20.21875 43.015625 
L 29.109375 43.015625 
Q 36.375 43.015625 40.234375 45.921875 
Q 44.09375 48.828125 44.09375 54.296875 
Q 44.09375 59.90625 40.109375 62.90625 
Q 36.140625 65.921875 28.71875 65.921875 
Q 24.65625 65.921875 20.015625 65.03125 
Q 15.375 64.15625 9.8125 62.3125 
L 9.8125 71.09375 
Q 15.4375 72.65625 20.34375 73.4375 
Q 25.25 74.21875 29.59375 74.21875 
Q 40.828125 74.21875 47.359375 69.109375 
Q 53.90625 64.015625 53.90625 55.328125 
Q 53.90625 49.265625 50.4375 45.09375 
Q 46.96875 40.921875 40.578125 39.3125 
z
" id="DejaVuSans-33"/>
      </defs>
      <g transform="translate(108.9125 140.579337)scale(0.1 -0.1)">
       <use xlink:href="#DejaVuSans-33"/>
       <use x="63.623047" xlink:href="#DejaVuSans-30"/>
       <use x="127.246094" xlink:href="#DejaVuSans-30"/>
      </g>
     </g>
    </g>
    <g id="ytick_3">
     <g id="line2d_8">
      <g>
       <use style="stroke:#000000;stroke-width:0.8;" x="135" xlink:href="#m2eeae957f8" y="106.708202"/>
      </g>
     </g>
     <g id="text_8">
      <!-- 400 -->
      <defs>
       <path d="M 37.796875 64.3125 
L 12.890625 25.390625 
L 37.796875 25.390625 
z
M 35.203125 72.90625 
L 47.609375 72.90625 
L 47.609375 25.390625 
L 58.015625 25.390625 
L 58.015625 17.1875 
L 47.609375 17.1875 
L 47.609375 0 
L 37.796875 0 
L 37.796875 17.1875 
L 4.890625 17.1875 
L 4.890625 26.703125 
z
" id="DejaVuSans-34"/>
      </defs>
      <g transform="translate(108.9125 110.507421)scale(0.1 -0.1)">
       <use xlink:href="#DejaVuSans-34"/>
       <use x="63.623047" xlink:href="#DejaVuSans-30"/>
       <use x="127.246094" xlink:href="#DejaVuSans-30"/>
      </g>
     </g>
    </g>
    <g id="ytick_4">
     <g id="line2d_9">
      <g>
       <use style="stroke:#000000;stroke-width:0.8;" x="135" xlink:href="#m2eeae957f8" y="76.636286"/>
      </g>
     </g>
     <g id="text_9">
      <!-- 500 -->
      <g transform="translate(108.9125 80.435505)scale(0.1 -0.1)">
       <use xlink:href="#DejaVuSans-35"/>
       <use x="63.623047" xlink:href="#DejaVuSans-30"/>
       <use x="127.246094" xlink:href="#DejaVuSans-30"/>
      </g>
     </g>
    </g>
    <g id="ytick_5">
     <g id="line2d_10">
      <g>
       <use style="stroke:#000000;stroke-width:0.8;" x="135" xlink:href="#m2eeae957f8" y="46.56437"/>
      </g>
     </g>
     <g id="text_10">
      <!-- 600 -->
      <defs>
       <path d="M 33.015625 40.375 
Q 26.375 40.375 22.484375 35.828125 
Q 18.609375 31.296875 18.609375 23.390625 
Q 18.609375 15.53125 22.484375 10.953125 
Q 26.375 6.390625 33.015625 6.390625 
Q 39.65625 6.390625 43.53125 10.953125 
Q 47.40625 15.53125 47.40625 23.390625 
Q 47.40625 31.296875 43.53125 35.828125 
Q 39.65625 40.375 33.015625 40.375 
z
M 52.59375 71.296875 
L 52.59375 62.3125 
Q 48.875 64.0625 45.09375 64.984375 
Q 41.3125 65.921875 37.59375 65.921875 
Q 27.828125 65.921875 22.671875 59.328125 
Q 17.53125 52.734375 16.796875 39.40625 
Q 19.671875 43.65625 24.015625 45.921875 
Q 28.375 48.1875 33.59375 48.1875 
Q 44.578125 48.1875 50.953125 41.515625 
Q 57.328125 34.859375 57.328125 23.390625 
Q 57.328125 12.15625 50.6875 5.359375 
Q 44.046875 -1.421875 33.015625 -1.421875 
Q 20.359375 -1.421875 13.671875 8.265625 
Q 6.984375 17.96875 6.984375 36.375 
Q 6.984375 53.65625 15.1875 63.9375 
Q 23.390625 74.21875 37.203125 74.21875 
Q 40.921875 74.21875 44.703125 73.484375 
Q 48.484375 72.75 52.59375 71.296875 
z
" id="DejaVuSans-36"/>
      </defs>
      <g transform="translate(108.9125 50.363589)scale(0.1 -0.1)">
       <use xlink:href="#DejaVuSans-36"/>
       <use x="63.623047" xlink:href="#DejaVuSans-30"/>
       <use x="127.246094" xlink:href="#DejaVuSans-30"/>
      </g>
     </g>
    </g>
   </g>
   <g id="line2d_11">
    <path clip-path="url(#pb7a7ff0164)" d="M 141.917355 181.587273 
L 143.271045 181.587273 
L 143.406414 181.286554 
L 143.677152 181.286554 
L 143.812521 180.985834 
L 144.218628 180.985834 
L 144.353997 180.685115 
L 145.30158 180.685115 
L 145.436949 180.384396 
L 146.519901 180.384396 
L 146.65527 180.083677 
L 147.738222 180.083677 
L 147.873591 179.782958 
L 148.279698 179.782958 
L 148.415067 179.482239 
L 148.821174 179.482239 
L 148.956543 179.181519 
L 149.904126 179.181519 
L 150.039495 178.8808 
L 151.122447 178.8808 
L 151.257816 178.580081 
L 151.799292 178.580081 
L 151.934661 178.279362 
L 152.340768 178.279362 
L 152.476137 177.978643 
L 153.423719 177.978643 
L 153.559088 177.677924 
L 154.371302 177.677924 
L 154.506671 177.377204 
L 155.048147 177.377204 
L 155.183516 177.076485 
L 155.99573 177.076485 
L 156.131099 176.775766 
L 156.807944 176.775766 
L 156.943313 176.475047 
L 157.620158 176.475047 
L 157.755527 176.174328 
L 157.890896 176.174328 
L 158.026265 175.873609 
L 158.297003 175.873609 
L 158.432372 175.57289 
L 158.838479 175.57289 
L 158.973848 175.27217 
L 159.109217 175.27217 
L 159.244586 174.971451 
L 159.650693 174.971451 
L 159.786062 174.670732 
L 160.327538 174.670732 
L 160.462907 174.370013 
L 161.41049 174.370013 
L 161.545859 174.069294 
L 162.358073 174.069294 
L 162.493442 173.768575 
L 163.170287 173.768575 
L 163.305656 173.467855 
L 163.711763 173.467855 
L 163.847132 173.167136 
L 163.982501 173.167136 
L 164.11787 172.866417 
L 164.930084 172.866417 
L 165.065453 172.565698 
L 165.742298 172.565698 
L 165.877667 172.264979 
L 166.013036 172.264979 
L 166.148405 171.96426 
L 167.231356 171.96426 
L 167.366725 171.66354 
L 167.637463 171.66354 
L 167.772832 171.362821 
L 167.908201 171.362821 
L 168.04357 171.062102 
L 168.585046 171.062102 
L 168.720415 170.761383 
L 168.991153 170.761383 
L 169.126522 170.460664 
L 169.803367 170.460664 
L 169.938736 170.159945 
L 170.074105 170.159945 
L 170.209474 169.859226 
L 170.344843 169.859226 
L 170.480212 169.558506 
L 171.292426 169.558506 
L 171.427795 169.257787 
L 172.10464 169.257787 
L 172.240009 168.957068 
L 172.781485 168.957068 
L 172.916854 168.656349 
L 173.45833 168.656349 
L 173.729068 168.054911 
L 174.270544 168.054911 
L 174.405913 167.754191 
L 174.81202 167.754191 
L 174.947389 167.453472 
L 175.082758 167.453472 
L 175.218127 167.152753 
L 175.624234 167.152753 
L 175.759603 166.852034 
L 176.16571 166.852034 
L 176.301079 166.551315 
L 177.248662 166.551315 
L 177.384031 166.250596 
L 178.331614 166.250596 
L 178.466983 165.949876 
L 179.008459 165.949876 
L 179.143828 165.649157 
L 179.414566 165.649157 
L 179.549934 165.348438 
L 180.362148 165.348438 
L 180.497517 165.047719 
L 181.4451 165.047719 
L 181.580469 164.747 
L 181.986576 164.747 
L 182.121945 164.446281 
L 182.257314 164.446281 
L 182.392683 164.145561 
L 182.79879 164.145561 
L 182.934159 163.844842 
L 183.475635 163.844842 
L 183.611004 163.544123 
L 184.017111 163.544123 
L 184.15248 163.243404 
L 184.423218 163.243404 
L 184.558587 162.942685 
L 184.693956 162.942685 
L 184.829325 162.641966 
L 185.100063 162.641966 
L 185.370801 162.040527 
L 186.047646 162.040527 
L 186.183015 161.739808 
L 186.318384 161.739808 
L 186.453753 161.439089 
L 186.85986 161.439089 
L 187.130598 160.837651 
L 187.265967 160.837651 
L 187.401336 160.536932 
L 188.078181 160.536932 
L 188.21355 160.236212 
L 188.619657 160.236212 
L 188.755026 159.935493 
L 189.296502 159.935493 
L 189.431871 159.634774 
L 190.244085 159.634774 
L 190.379454 159.334055 
L 190.514823 159.334055 
L 190.650192 159.033336 
L 191.056299 159.033336 
L 191.191668 158.732617 
L 191.462406 158.732617 
L 191.597775 158.431897 
L 191.733144 158.431897 
L 191.868513 158.131178 
L 192.409989 158.131178 
L 192.545358 157.830459 
L 193.086833 157.830459 
L 193.222202 157.52974 
L 193.49294 157.52974 
L 193.628309 157.229021 
L 194.305154 157.229021 
L 194.440523 156.627583 
L 194.711261 156.627583 
L 194.84663 156.326863 
L 195.117368 156.326863 
L 195.252737 156.026144 
L 195.794213 156.026144 
L 195.929582 155.424706 
L 196.20032 155.424706 
L 196.335689 155.123987 
L 196.471058 155.123987 
L 196.741796 154.522548 
L 196.877165 154.522548 
L 197.012534 154.221829 
L 197.147903 154.221829 
L 197.283272 153.92111 
L 197.960117 153.92111 
L 198.095486 153.620391 
L 198.230855 153.620391 
L 198.366224 153.319672 
L 199.178438 153.319672 
L 199.313807 153.018953 
L 199.719914 153.018953 
L 199.855283 152.718233 
L 200.26139 152.718233 
L 200.396759 152.417514 
L 200.667497 152.417514 
L 200.802866 152.116795 
L 201.208973 152.116795 
L 201.344342 151.816076 
L 201.61508 151.816076 
L 201.750449 151.515357 
L 202.156556 151.515357 
L 202.427294 150.913918 
L 202.562663 150.913918 
L 202.698032 150.613199 
L 203.104139 150.613199 
L 203.239508 150.31248 
L 203.374877 150.31248 
L 203.510246 150.011761 
L 203.645615 150.011761 
L 203.780984 149.711042 
L 204.051722 149.711042 
L 204.32246 149.109604 
L 204.728567 149.109604 
L 204.999305 148.508165 
L 205.540781 148.508165 
L 205.67615 148.207446 
L 205.946887 148.207446 
L 206.082256 147.906727 
L 206.352994 147.906727 
L 206.623732 147.305289 
L 206.759101 147.305289 
L 206.89447 147.004569 
L 207.165208 147.004569 
L 207.300577 146.70385 
L 207.571315 146.70385 
L 207.706684 146.403131 
L 207.977422 146.403131 
L 208.112791 146.102412 
L 208.24816 146.102412 
L 208.383529 145.801693 
L 208.925005 145.801693 
L 209.195743 145.200254 
L 209.466481 145.200254 
L 209.60185 144.899535 
L 210.007957 144.899535 
L 210.143326 144.298097 
L 210.278695 144.298097 
L 210.414064 143.997378 
L 210.820171 143.997378 
L 210.95554 143.39594 
L 211.361647 143.39594 
L 211.497016 143.09522 
L 211.767754 143.09522 
L 212.038492 142.493782 
L 212.173861 142.493782 
L 212.30923 142.193063 
L 212.986075 142.193063 
L 213.121444 141.591625 
L 214.204396 141.591625 
L 214.339765 141.290905 
L 214.610503 141.290905 
L 214.745872 140.990186 
L 215.01661 140.990186 
L 215.151979 140.388748 
L 215.558086 140.388748 
L 215.828824 139.78731 
L 216.234931 139.78731 
L 216.3703 139.48659 
L 216.505669 139.48659 
L 216.641038 138.885152 
L 216.911776 138.885152 
L 217.047145 138.584433 
L 217.317883 138.584433 
L 217.453252 138.283714 
L 217.588621 138.283714 
L 217.72399 137.982995 
L 217.994728 137.982995 
L 218.130097 137.682275 
L 218.400835 137.682275 
L 218.536204 137.381556 
L 219.483786 137.381556 
L 219.619155 137.080837 
L 219.754524 137.080837 
L 219.889893 136.780118 
L 220.025262 136.780118 
L 220.296 135.877961 
L 220.566738 135.877961 
L 220.702107 135.577241 
L 220.972845 135.577241 
L 221.108214 135.276522 
L 221.785059 135.276522 
L 221.920428 134.975803 
L 222.326535 134.975803 
L 222.461904 134.675084 
L 223.00338 134.675084 
L 223.138749 134.073646 
L 223.544856 134.073646 
L 223.680225 133.772926 
L 223.815594 133.772926 
L 223.950963 133.472207 
L 224.086332 132.870769 
L 224.35707 132.870769 
L 224.492439 132.57005 
L 224.627808 132.57005 
L 224.763177 132.269331 
L 224.898546 132.269331 
L 225.033915 131.968611 
L 225.304653 131.968611 
L 225.440022 131.667892 
L 225.71076 131.667892 
L 225.981498 131.066454 
L 226.116867 130.465016 
L 226.252236 130.465016 
L 226.387605 130.164297 
L 226.522974 130.164297 
L 226.658343 129.863577 
L 226.793712 129.863577 
L 226.929081 129.562858 
L 227.199819 129.562858 
L 227.335188 129.262139 
L 227.470557 129.262139 
L 227.605926 128.96142 
L 228.147402 128.96142 
L 228.282771 128.660701 
L 228.553509 128.660701 
L 228.824247 128.059262 
L 229.094985 128.059262 
L 229.230354 127.758543 
L 229.365723 127.758543 
L 229.501092 127.457824 
L 229.907199 127.457824 
L 230.042568 126.856386 
L 230.313306 126.856386 
L 230.448675 126.555667 
L 230.584044 126.555667 
L 230.719413 126.254947 
L 231.260889 126.254947 
L 231.396258 125.653509 
L 231.937733 125.653509 
L 232.208471 125.052071 
L 232.34384 125.052071 
L 232.479209 124.751352 
L 232.614578 124.149913 
L 233.291423 124.149913 
L 233.426792 123.849194 
L 233.832899 123.849194 
L 234.239006 122.947037 
L 234.374375 122.947037 
L 234.509744 122.646318 
L 234.915851 122.646318 
L 235.05122 122.345598 
L 235.728065 122.345598 
L 235.863434 122.044879 
L 236.134172 122.044879 
L 236.269541 121.74416 
L 236.540279 121.74416 
L 236.675648 121.443441 
L 236.811017 121.443441 
L 237.081755 120.541283 
L 237.217124 120.541283 
L 237.487862 119.939845 
L 237.623231 119.338407 
L 237.7586 119.338407 
L 237.893969 119.037688 
L 238.029338 118.436249 
L 238.570814 118.436249 
L 238.706183 117.233373 
L 238.841552 117.233373 
L 238.976921 116.932654 
L 239.11229 116.932654 
L 239.383028 116.331215 
L 239.518397 116.331215 
L 239.653766 116.030496 
L 239.789135 116.030496 
L 239.924504 115.729777 
L 240.059873 115.729777 
L 240.330611 115.128339 
L 240.46598 114.226181 
L 240.872087 114.226181 
L 241.142825 113.624743 
L 241.278194 113.624743 
L 241.548932 112.722585 
L 241.684301 112.722585 
L 241.81967 112.421866 
L 242.090408 112.421866 
L 242.361146 111.820428 
L 242.496515 111.218989 
L 242.631884 111.218989 
L 242.902622 110.316832 
L 243.037991 110.016113 
L 243.444098 110.016113 
L 243.579467 109.715394 
L 244.391681 109.715394 
L 244.52705 109.414675 
L 244.662419 109.414675 
L 244.933157 108.813236 
L 245.068525 108.813236 
L 245.203894 108.512517 
L 245.474632 107.61036 
L 245.610001 107.61036 
L 246.016108 106.708202 
L 246.286846 106.708202 
L 246.422215 106.407483 
L 246.557584 105.806045 
L 246.963691 105.806045 
L 247.234429 105.204606 
L 247.505167 105.204606 
L 248.046643 104.00173 
L 248.182012 104.00173 
L 248.317381 103.701011 
L 248.723488 103.701011 
L 248.994226 103.099572 
L 249.129595 103.099572 
L 249.264964 102.798853 
L 249.535702 102.798853 
L 249.671071 102.197415 
L 249.80644 102.197415 
L 249.941809 101.595976 
L 250.077178 101.595976 
L 250.212547 101.295257 
L 250.483285 101.295257 
L 250.754023 100.3931 
L 251.024761 100.3931 
L 251.16013 99.490942 
L 251.430868 99.490942 
L 251.566237 99.190223 
L 251.836975 98.288066 
L 251.972344 97.987346 
L 252.243082 97.987346 
L 252.378451 97.686627 
L 253.055296 97.686627 
L 253.326034 97.085189 
L 253.461403 97.085189 
L 253.732141 95.280874 
L 254.002879 95.280874 
L 254.138248 94.980155 
L 254.408986 93.777278 
L 254.679724 93.17584 
L 254.815093 93.17584 
L 254.950462 92.875121 
L 255.085831 92.273682 
L 255.2212 92.273682 
L 255.491938 91.070806 
L 255.762676 90.469368 
L 255.898045 90.469368 
L 256.033414 90.168648 
L 256.168783 90.168648 
L 256.439521 89.266491 
L 256.57489 89.266491 
L 256.710259 88.965772 
L 256.845628 88.965772 
L 257.251735 88.063614 
L 257.387104 88.063614 
L 257.522473 87.462176 
L 257.657842 87.462176 
L 257.793211 87.161457 
L 257.92858 87.161457 
L 258.199317 85.657861 
L 258.334686 85.657861 
L 258.470055 85.056423 
L 258.740793 85.056423 
L 258.876162 84.755703 
L 259.1469 84.755703 
L 259.417638 84.154265 
L 259.553007 84.154265 
L 259.688376 83.853546 
L 259.823745 83.853546 
L 260.094483 83.252108 
L 260.229852 83.252108 
L 260.50059 82.049231 
L 260.635959 82.049231 
L 260.771328 81.447793 
L 260.906697 81.447793 
L 261.042066 80.545635 
L 261.177435 80.545635 
L 261.448173 79.944197 
L 261.583542 79.944197 
L 261.718911 79.643478 
L 261.989649 78.74132 
L 262.125018 78.74132 
L 262.260387 77.839163 
L 262.531125 77.839163 
L 262.937232 76.937005 
L 263.20797 76.034848 
L 263.343339 76.034848 
L 263.749446 75.13269 
L 263.884815 75.13269 
L 264.155553 73.929814 
L 264.56166 73.929814 
L 264.697029 73.328375 
L 264.832398 73.328375 
L 264.967767 73.027656 
L 265.103136 73.027656 
L 265.238505 72.726937 
L 265.509243 72.726937 
L 265.644612 72.426218 
L 265.91535 72.426218 
L 266.050719 72.125499 
L 266.321457 72.125499 
L 266.456826 71.82478 
L 266.727564 70.321184 
L 266.862933 70.020465 
L 266.998302 70.020465 
L 267.26904 68.516869 
L 267.404409 67.013273 
L 267.539778 67.013273 
L 268.216623 65.509677 
L 268.487361 64.60752 
L 269.028837 64.60752 
L 269.164206 64.306801 
L 269.299575 63.705362 
L 269.434944 63.705362 
L 269.570313 63.404643 
L 269.705682 63.404643 
L 269.841051 63.103924 
L 270.653265 59.495294 
L 271.059372 59.495294 
L 271.330109 58.893856 
L 271.600847 58.893856 
L 271.736216 58.593137 
L 271.871585 58.593137 
L 272.006954 57.991698 
L 272.142323 56.488103 
L 272.277692 56.488103 
L 272.413061 55.886664 
L 272.54843 55.886664 
L 272.683799 55.285226 
L 272.819168 55.285226 
L 272.954537 54.984507 
L 273.089906 54.984507 
L 273.360644 54.383068 
L 273.496013 54.383068 
L 273.631382 53.78163 
L 273.766751 53.78163 
L 274.037489 51.977315 
L 274.308227 51.977315 
L 274.443596 51.375877 
L 274.578965 51.375877 
L 274.714334 51.075158 
L 274.849703 51.075158 
L 274.985072 50.473719 
L 275.25581 48.970124 
L 275.526548 47.767247 
L 275.661917 47.767247 
L 275.797286 45.962932 
L 276.068024 45.361494 
L 276.338762 44.158617 
L 276.474131 43.857898 
L 276.6095 43.857898 
L 276.744869 42.95574 
L 276.880238 42.95574 
L 277.015607 40.850706 
L 277.286345 40.850706 
L 277.421714 40.549987 
L 277.692452 39.64783 
L 277.96319 39.046391 
L 278.233928 37.542796 
L 278.369297 37.542796 
L 278.504666 36.941357 
L 278.640035 36.941357 
L 278.775404 36.640638 
L 279.046142 36.640638 
L 279.181511 36.339919 
L 279.31688 36.339919 
L 279.452249 36.0392 
L 279.587618 36.0392 
L 279.858356 34.535604 
L 279.993725 34.535604 
L 280.264463 33.332727 
L 280.264463 33.332727 
" style="fill:none;stroke:#1f77b4;stroke-linecap:square;stroke-width:1.5;"/>
   </g>
   <g id="patch_3">
    <path d="M 135 189 
L 135 25.92 
" style="fill:none;stroke:#000000;stroke-linecap:square;stroke-linejoin:miter;stroke-width:0.8;"/>
   </g>
   <g id="patch_4">
    <path d="M 287.181818 189 
L 287.181818 25.92 
" style="fill:none;stroke:#000000;stroke-linecap:square;stroke-linejoin:miter;stroke-width:0.8;"/>
   </g>
   <g id="patch_5">
    <path d="M 135 189 
L 287.181818 189 
" style="fill:none;stroke:#000000;stroke-linecap:square;stroke-linejoin:miter;stroke-width:0.8;"/>
   </g>
   <g id="patch_6">
    <path d="M 135 25.92 
L 287.181818 25.92 
" style="fill:none;stroke:#000000;stroke-linecap:square;stroke-linejoin:miter;stroke-width:0.8;"/>
   </g>
   <g id="text_11">
    <!-- sorted plot -->
    <defs>
     <path d="M 44.28125 53.078125 
L 44.28125 44.578125 
Q 40.484375 46.53125 36.375 47.5 
Q 32.28125 48.484375 27.875 48.484375 
Q 21.1875 48.484375 17.84375 46.4375 
Q 14.5 44.390625 14.5 40.28125 
Q 14.5 37.15625 16.890625 35.375 
Q 19.28125 33.59375 26.515625 31.984375 
L 29.59375 31.296875 
Q 39.15625 29.25 43.1875 25.515625 
Q 47.21875 21.78125 47.21875 15.09375 
Q 47.21875 7.46875 41.1875 3.015625 
Q 35.15625 -1.421875 24.609375 -1.421875 
Q 20.21875 -1.421875 15.453125 -0.5625 
Q 10.6875 0.296875 5.421875 2 
L 5.421875 11.28125 
Q 10.40625 8.6875 15.234375 7.390625 
Q 20.0625 6.109375 24.8125 6.109375 
Q 31.15625 6.109375 34.5625 8.28125 
Q 37.984375 10.453125 37.984375 14.40625 
Q 37.984375 18.0625 35.515625 20.015625 
Q 33.0625 21.96875 24.703125 23.78125 
L 21.578125 24.515625 
Q 13.234375 26.265625 9.515625 29.90625 
Q 5.8125 33.546875 5.8125 39.890625 
Q 5.8125 47.609375 11.28125 51.796875 
Q 16.75 56 26.8125 56 
Q 31.78125 56 36.171875 55.265625 
Q 40.578125 54.546875 44.28125 53.078125 
z
" id="DejaVuSans-73"/>
     <path d="M 30.609375 48.390625 
Q 23.390625 48.390625 19.1875 42.75 
Q 14.984375 37.109375 14.984375 27.296875 
Q 14.984375 17.484375 19.15625 11.84375 
Q 23.34375 6.203125 30.609375 6.203125 
Q 37.796875 6.203125 41.984375 11.859375 
Q 46.1875 17.53125 46.1875 27.296875 
Q 46.1875 37.015625 41.984375 42.703125 
Q 37.796875 48.390625 30.609375 48.390625 
z
M 30.609375 56 
Q 42.328125 56 49.015625 48.375 
Q 55.71875 40.765625 55.71875 27.296875 
Q 55.71875 13.875 49.015625 6.21875 
Q 42.328125 -1.421875 30.609375 -1.421875 
Q 18.84375 -1.421875 12.171875 6.21875 
Q 5.515625 13.875 5.515625 27.296875 
Q 5.515625 40.765625 12.171875 48.375 
Q 18.84375 56 30.609375 56 
z
" id="DejaVuSans-6f"/>
     <path d="M 41.109375 46.296875 
Q 39.59375 47.171875 37.8125 47.578125 
Q 36.03125 48 33.890625 48 
Q 26.265625 48 22.1875 43.046875 
Q 18.109375 38.09375 18.109375 28.8125 
L 18.109375 0 
L 9.078125 0 
L 9.078125 54.6875 
L 18.109375 54.6875 
L 18.109375 46.1875 
Q 20.953125 51.171875 25.484375 53.578125 
Q 30.03125 56 36.53125 56 
Q 37.453125 56 38.578125 55.875 
Q 39.703125 55.765625 41.0625 55.515625 
z
" id="DejaVuSans-72"/>
     <path d="M 18.3125 70.21875 
L 18.3125 54.6875 
L 36.8125 54.6875 
L 36.8125 47.703125 
L 18.3125 47.703125 
L 18.3125 18.015625 
Q 18.3125 11.328125 20.140625 9.421875 
Q 21.96875 7.515625 27.59375 7.515625 
L 36.8125 7.515625 
L 36.8125 0 
L 27.59375 0 
Q 17.1875 0 13.234375 3.875 
Q 9.28125 7.765625 9.28125 18.015625 
L 9.28125 47.703125 
L 2.6875 47.703125 
L 2.6875 54.6875 
L 9.28125 54.6875 
L 9.28125 70.21875 
z
" id="DejaVuSans-74"/>
     <path d="M 56.203125 29.59375 
L 56.203125 25.203125 
L 14.890625 25.203125 
Q 15.484375 15.921875 20.484375 11.0625 
Q 25.484375 6.203125 34.421875 6.203125 
Q 39.59375 6.203125 44.453125 7.46875 
Q 49.3125 8.734375 54.109375 11.28125 
L 54.109375 2.78125 
Q 49.265625 0.734375 44.1875 -0.34375 
Q 39.109375 -1.421875 33.890625 -1.421875 
Q 20.796875 -1.421875 13.15625 6.1875 
Q 5.515625 13.8125 5.515625 26.8125 
Q 5.515625 40.234375 12.765625 48.109375 
Q 20.015625 56 32.328125 56 
Q 43.359375 56 49.78125 48.890625 
Q 56.203125 41.796875 56.203125 29.59375 
z
M 47.21875 32.234375 
Q 47.125 39.59375 43.09375 43.984375 
Q 39.0625 48.390625 32.421875 48.390625 
Q 24.90625 48.390625 20.390625 44.140625 
Q 15.875 39.890625 15.1875 32.171875 
z
" id="DejaVuSans-65"/>
     <path d="M 45.40625 46.390625 
L 45.40625 75.984375 
L 54.390625 75.984375 
L 54.390625 0 
L 45.40625 0 
L 45.40625 8.203125 
Q 42.578125 3.328125 38.25 0.953125 
Q 33.9375 -1.421875 27.875 -1.421875 
Q 17.96875 -1.421875 11.734375 6.484375 
Q 5.515625 14.40625 5.515625 27.296875 
Q 5.515625 40.1875 11.734375 48.09375 
Q 17.96875 56 27.875 56 
Q 33.9375 56 38.25 53.625 
Q 42.578125 51.265625 45.40625 46.390625 
z
M 14.796875 27.296875 
Q 14.796875 17.390625 18.875 11.75 
Q 22.953125 6.109375 30.078125 6.109375 
Q 37.203125 6.109375 41.296875 11.75 
Q 45.40625 17.390625 45.40625 27.296875 
Q 45.40625 37.203125 41.296875 42.84375 
Q 37.203125 48.484375 30.078125 48.484375 
Q 22.953125 48.484375 18.875 42.84375 
Q 14.796875 37.203125 14.796875 27.296875 
z
" id="DejaVuSans-64"/>
     <path id="DejaVuSans-20"/>
     <path d="M 18.109375 8.203125 
L 18.109375 -20.796875 
L 9.078125 -20.796875 
L 9.078125 54.6875 
L 18.109375 54.6875 
L 18.109375 46.390625 
Q 20.953125 51.265625 25.265625 53.625 
Q 29.59375 56 35.59375 56 
Q 45.5625 56 51.78125 48.09375 
Q 58.015625 40.1875 58.015625 27.296875 
Q 58.015625 14.40625 51.78125 6.484375 
Q 45.5625 -1.421875 35.59375 -1.421875 
Q 29.59375 -1.421875 25.265625 0.953125 
Q 20.953125 3.328125 18.109375 8.203125 
z
M 48.6875 27.296875 
Q 48.6875 37.203125 44.609375 42.84375 
Q 40.53125 48.484375 33.40625 48.484375 
Q 26.265625 48.484375 22.1875 42.84375 
Q 18.109375 37.203125 18.109375 27.296875 
Q 18.109375 17.390625 22.1875 11.75 
Q 26.265625 6.109375 33.40625 6.109375 
Q 40.53125 6.109375 44.609375 11.75 
Q 48.6875 17.390625 48.6875 27.296875 
z
" id="DejaVuSans-70"/>
     <path d="M 9.421875 75.984375 
L 18.40625 75.984375 
L 18.40625 0 
L 9.421875 0 
z
" id="DejaVuSans-6c"/>
    </defs>
    <g transform="translate(178.568097 19.92)scale(0.12 -0.12)">
     <use xlink:href="#DejaVuSans-73"/>
     <use x="52.099609" xlink:href="#DejaVuSans-6f"/>
     <use x="113.28125" xlink:href="#DejaVuSans-72"/>
     <use x="154.394531" xlink:href="#DejaVuSans-74"/>
     <use x="193.603516" xlink:href="#DejaVuSans-65"/>
     <use x="255.126953" xlink:href="#DejaVuSans-64"/>
     <use x="318.603516" xlink:href="#DejaVuSans-20"/>
     <use x="350.390625" xlink:href="#DejaVuSans-70"/>
     <use x="413.867188" xlink:href="#DejaVuSans-6c"/>
     <use x="441.650391" xlink:href="#DejaVuSans-6f"/>
     <use x="502.832031" xlink:href="#DejaVuSans-74"/>
    </g>
   </g>
  </g>
  <g id="axes_2">
   <g id="patch_7">
    <path d="M 363.272727 189 
L 972 189 
L 972 25.92 
L 363.272727 25.92 
z
" style="fill:#ffffff;"/>
   </g>
   <g id="matplotlib.axis_3">
    <g id="xtick_6">
     <g id="line2d_12">
      <g>
       <use style="stroke:#000000;stroke-width:0.8;" x="445.944244" xlink:href="#me1ecb345f5" y="189"/>
      </g>
     </g>
     <g id="text_12">
      <!-- 200 -->
      <g transform="translate(436.400494 203.598437)scale(0.1 -0.1)">
       <use xlink:href="#DejaVuSans-32"/>
       <use x="63.623047" xlink:href="#DejaVuSans-30"/>
       <use x="127.246094" xlink:href="#DejaVuSans-30"/>
      </g>
     </g>
    </g>
    <g id="xtick_7">
     <g id="line2d_13">
      <g>
       <use style="stroke:#000000;stroke-width:0.8;" x="558.193419" xlink:href="#me1ecb345f5" y="189"/>
      </g>
     </g>
     <g id="text_13">
      <!-- 300 -->
      <g transform="translate(548.649669 203.598437)scale(0.1 -0.1)">
       <use xlink:href="#DejaVuSans-33"/>
       <use x="63.623047" xlink:href="#DejaVuSans-30"/>
       <use x="127.246094" xlink:href="#DejaVuSans-30"/>
      </g>
     </g>
    </g>
    <g id="xtick_8">
     <g id="line2d_14">
      <g>
       <use style="stroke:#000000;stroke-width:0.8;" x="670.442593" xlink:href="#me1ecb345f5" y="189"/>
      </g>
     </g>
     <g id="text_14">
      <!-- 400 -->
      <g transform="translate(660.898843 203.598437)scale(0.1 -0.1)">
       <use xlink:href="#DejaVuSans-34"/>
       <use x="63.623047" xlink:href="#DejaVuSans-30"/>
       <use x="127.246094" xlink:href="#DejaVuSans-30"/>
      </g>
     </g>
    </g>
    <g id="xtick_9">
     <g id="line2d_15">
      <g>
       <use style="stroke:#000000;stroke-width:0.8;" x="782.691767" xlink:href="#me1ecb345f5" y="189"/>
      </g>
     </g>
     <g id="text_15">
      <!-- 500 -->
      <g transform="translate(773.148017 203.598437)scale(0.1 -0.1)">
       <use xlink:href="#DejaVuSans-35"/>
       <use x="63.623047" xlink:href="#DejaVuSans-30"/>
       <use x="127.246094" xlink:href="#DejaVuSans-30"/>
      </g>
     </g>
    </g>
    <g id="xtick_10">
     <g id="line2d_16">
      <g>
       <use style="stroke:#000000;stroke-width:0.8;" x="894.940942" xlink:href="#me1ecb345f5" y="189"/>
      </g>
     </g>
     <g id="text_16">
      <!-- 600 -->
      <g transform="translate(885.397192 203.598437)scale(0.1 -0.1)">
       <use xlink:href="#DejaVuSans-36"/>
       <use x="63.623047" xlink:href="#DejaVuSans-30"/>
       <use x="127.246094" xlink:href="#DejaVuSans-30"/>
      </g>
     </g>
    </g>
   </g>
   <g id="matplotlib.axis_4">
    <g id="ytick_6">
     <g id="line2d_17">
      <g>
       <use style="stroke:#000000;stroke-width:0.8;" x="363.272727" xlink:href="#m2eeae957f8" y="107.46"/>
      </g>
     </g>
     <g id="text_17">
      <!-- 1 -->
      <g transform="translate(349.910227 111.259219)scale(0.1 -0.1)">
       <use xlink:href="#DejaVuSans-31"/>
      </g>
     </g>
    </g>
   </g>
   <g id="line2d_18">
    <path clip-path="url(#p63599b6ff0)" d="M 447.066736 119.691 
L 447.066736 95.229 
L 522.671615 95.229 
L 533.4986 101.3445 
L 544.325586 95.229 
L 667.636364 95.229 
L 667.636364 119.691 
L 544.325586 119.691 
L 533.4986 113.5755 
L 522.671615 119.691 
L 447.066736 119.691 
" style="fill:none;stroke:#000000;stroke-linecap:square;"/>
   </g>
   <g id="line2d_19">
    <path clip-path="url(#p63599b6ff0)" d="M 447.066736 107.46 
L 390.942149 107.46 
" style="fill:none;stroke:#000000;stroke-linecap:square;"/>
   </g>
   <g id="line2d_20">
    <path clip-path="url(#p63599b6ff0)" d="M 667.636364 107.46 
L 944.330579 107.46 
" style="fill:none;stroke:#000000;stroke-linecap:square;"/>
   </g>
   <g id="line2d_21">
    <path clip-path="url(#p63599b6ff0)" d="M 390.942149 113.5755 
L 390.942149 101.3445 
" style="fill:none;stroke:#000000;stroke-linecap:square;"/>
   </g>
   <g id="line2d_22">
    <path clip-path="url(#p63599b6ff0)" d="M 944.330579 113.5755 
L 944.330579 101.3445 
" style="fill:none;stroke:#000000;stroke-linecap:square;"/>
   </g>
   <g id="line2d_23"/>
   <g id="line2d_24">
    <path clip-path="url(#p63599b6ff0)" d="M 533.4986 113.5755 
L 533.4986 101.3445 
" style="fill:none;stroke:#ff7f0e;stroke-linecap:square;"/>
   </g>
   <g id="patch_8">
    <path d="M 363.272727 189 
L 363.272727 25.92 
" style="fill:none;stroke:#000000;stroke-linecap:square;stroke-linejoin:miter;stroke-width:0.8;"/>
   </g>
   <g id="patch_9">
    <path d="M 972 189 
L 972 25.92 
" style="fill:none;stroke:#000000;stroke-linecap:square;stroke-linejoin:miter;stroke-width:0.8;"/>
   </g>
   <g id="patch_10">
    <path d="M 363.272727 189 
L 972 189 
" style="fill:none;stroke:#000000;stroke-linecap:square;stroke-linejoin:miter;stroke-width:0.8;"/>
   </g>
   <g id="patch_11">
    <path d="M 363.272727 25.92 
L 972 25.92 
" style="fill:none;stroke:#000000;stroke-linecap:square;stroke-linejoin:miter;stroke-width:0.8;"/>
   </g>
   <g id="text_18">
    <!-- box-plot -->
    <defs>
     <path d="M 48.6875 27.296875 
Q 48.6875 37.203125 44.609375 42.84375 
Q 40.53125 48.484375 33.40625 48.484375 
Q 26.265625 48.484375 22.1875 42.84375 
Q 18.109375 37.203125 18.109375 27.296875 
Q 18.109375 17.390625 22.1875 11.75 
Q 26.265625 6.109375 33.40625 6.109375 
Q 40.53125 6.109375 44.609375 11.75 
Q 48.6875 17.390625 48.6875 27.296875 
z
M 18.109375 46.390625 
Q 20.953125 51.265625 25.265625 53.625 
Q 29.59375 56 35.59375 56 
Q 45.5625 56 51.78125 48.09375 
Q 58.015625 40.1875 58.015625 27.296875 
Q 58.015625 14.40625 51.78125 6.484375 
Q 45.5625 -1.421875 35.59375 -1.421875 
Q 29.59375 -1.421875 25.265625 0.953125 
Q 20.953125 3.328125 18.109375 8.203125 
L 18.109375 0 
L 9.078125 0 
L 9.078125 75.984375 
L 18.109375 75.984375 
z
" id="DejaVuSans-62"/>
     <path d="M 54.890625 54.6875 
L 35.109375 28.078125 
L 55.90625 0 
L 45.3125 0 
L 29.390625 21.484375 
L 13.484375 0 
L 2.875 0 
L 24.125 28.609375 
L 4.6875 54.6875 
L 15.28125 54.6875 
L 29.78125 35.203125 
L 44.28125 54.6875 
z
" id="DejaVuSans-78"/>
     <path d="M 4.890625 31.390625 
L 31.203125 31.390625 
L 31.203125 23.390625 
L 4.890625 23.390625 
z
" id="DejaVuSans-2d"/>
    </defs>
    <g transform="translate(642.943551 19.92)scale(0.12 -0.12)">
     <use xlink:href="#DejaVuSans-62"/>
     <use x="63.476562" xlink:href="#DejaVuSans-6f"/>
     <use x="124.611328" xlink:href="#DejaVuSans-78"/>
     <use x="183.791016" xlink:href="#DejaVuSans-2d"/>
     <use x="219.875" xlink:href="#DejaVuSans-70"/>
     <use x="283.351562" xlink:href="#DejaVuSans-6c"/>
     <use x="311.134766" xlink:href="#DejaVuSans-6f"/>
     <use x="372.316406" xlink:href="#DejaVuSans-74"/>
    </g>
   </g>
  </g>
 </g>
 <defs>
  <clipPath id="pb7a7ff0164">
   <rect height="163.08" width="152.181818" x="135" y="25.92"/>
  </clipPath>
  <clipPath id="p63599b6ff0">
   <rect height="163.08" width="608.727273" x="363.272727" y="25.92"/>
  </clipPath>
 </defs>
</svg>
