<?xml version="1.0" encoding="utf-8" standalone="no"?>
<!DOCTYPE svg PUBLIC "-//W3C//DTD SVG 1.1//EN"
  "http://www.w3.org/Graphics/SVG/1.1/DTD/svg11.dtd">
<!-- Created with matplotlib (http://matplotlib.org/) -->
<svg height="720pt" version="1.1" viewBox="0 0 1080 720" width="1080pt" xmlns="http://www.w3.org/2000/svg" xmlns:xlink="http://www.w3.org/1999/xlink">
 <defs>
  <style type="text/css">
*{stroke-linecap:butt;stroke-linejoin:round;}
  </style>
 </defs>
 <g id="figure_1">
  <g id="patch_1">
   <path d="M 0 720 
L 1080 720 
L 1080 0 
L 0 0 
z
" style="fill:#ffffff;"/>
  </g>
  <g id="axes_1">
   <g id="LineCollection_1">
    <path clip-path="url(#p0aaa7792c0)" d="M 735.072709 164.987116 
L 870.545455 161.285419 
" style="fill:none;stroke:#0000ff;stroke-opacity:0.5;stroke-width:9;"/>
    <path clip-path="url(#p0aaa7792c0)" d="M 735.072709 164.987116 
L 608.129916 152.290909 
" style="fill:none;stroke:#0000ff;stroke-opacity:0.5;stroke-width:9;"/>
    <path clip-path="url(#p0aaa7792c0)" d="M 236.454545 547.491035 
L 372.250736 547.301359 
" style="fill:none;stroke:#0000ff;stroke-opacity:0.5;stroke-width:9;"/>
    <path clip-path="url(#p0aaa7792c0)" d="M 372.250736 547.301359 
L 493.23487 564.109091 
" style="fill:none;stroke:#0000ff;stroke-opacity:0.5;stroke-width:9;"/>
   </g>
   <g id="PathCollection_1">
    <path clip-path="url(#p0aaa7792c0)" d="M 735.072709 192.373244 
C 742.335595 192.373244 749.30199 189.487669 754.437626 184.352033 
C 759.573261 179.216397 762.458837 172.250002 762.458837 164.987116 
C 762.458837 157.72423 759.573261 150.757835 754.437626 145.622199 
C 749.30199 140.486563 742.335595 137.600988 735.072709 137.600988 
C 727.809823 137.600988 720.843428 140.486563 715.707792 145.622199 
C 710.572156 150.757835 707.686581 157.72423 707.686581 164.987116 
C 707.686581 172.250002 710.572156 179.216397 715.707792 184.352033 
C 720.843428 189.487669 727.809823 192.373244 735.072709 192.373244 
z
" style="fill:#ff0000;stroke:#ff0000;"/>
    <path clip-path="url(#p0aaa7792c0)" d="M 236.454545 563.302424 
C 240.647775 563.302424 244.669825 561.636436 247.634885 558.671375 
C 250.599946 555.706314 252.265934 551.684265 252.265934 547.491035 
C 252.265934 543.297806 250.599946 539.275756 247.634885 536.310696 
C 244.669825 533.345635 240.647775 531.679647 236.454545 531.679647 
C 232.261316 531.679647 228.239266 533.345635 225.274206 536.310696 
C 222.309145 539.275756 220.643157 543.297806 220.643157 547.491035 
C 220.643157 551.684265 222.309145 555.706314 225.274206 558.671375 
C 228.239266 561.636436 232.261316 563.302424 236.454545 563.302424 
z
" style="fill:#ff0000;stroke:#ff0000;"/>
    <path clip-path="url(#p0aaa7792c0)" d="M 372.250736 569.662039 
C 378.180857 569.662039 383.868895 567.305977 388.062124 563.112748 
C 392.255353 558.919518 394.611415 553.231481 394.611415 547.301359 
C 394.611415 541.371238 392.255353 535.6832 388.062124 531.489971 
C 383.868895 527.296742 378.180857 524.940679 372.250736 524.940679 
C 366.320614 524.940679 360.632577 527.296742 356.439347 531.489971 
C 352.246118 535.6832 349.890056 541.371238 349.890056 547.301359 
C 349.890056 553.231481 352.246118 558.919518 356.439347 563.112748 
C 360.632577 567.305977 366.320614 569.662039 372.250736 569.662039 
z
" style="fill:#ff0000;stroke:#ff0000;"/>
    <path clip-path="url(#p0aaa7792c0)" d="M 870.545455 177.096808 
C 874.738684 177.096808 878.760734 175.43082 881.725794 172.465759 
C 884.690855 169.500698 886.356843 165.478649 886.356843 161.285419 
C 886.356843 157.09219 884.690855 153.07014 881.725794 150.10508 
C 878.760734 147.140019 874.738684 145.474031 870.545455 145.474031 
C 866.352225 145.474031 862.330175 147.140019 859.365115 150.10508 
C 856.400054 153.07014 854.734066 157.09219 854.734066 161.285419 
C 854.734066 165.478649 856.400054 169.500698 859.365115 172.465759 
C 862.330175 175.43082 866.352225 177.096808 870.545455 177.096808 
z
" style="fill:#ff0000;stroke:#ff0000;"/>
    <path clip-path="url(#p0aaa7792c0)" d="M 608.129916 183.913686 
C 616.516375 183.913686 624.560475 180.58171 630.490596 174.651589 
C 636.420718 168.721467 639.752693 160.677367 639.752693 152.290909 
C 639.752693 143.904451 636.420718 135.860351 630.490596 129.930229 
C 624.560475 124.000108 616.516375 120.668132 608.129916 120.668132 
C 599.743458 120.668132 591.699358 124.000108 585.769237 129.930229 
C 579.839115 135.860351 576.50714 143.904451 576.50714 152.290909 
C 576.50714 160.677367 579.839115 168.721467 585.769237 174.651589 
C 591.699358 180.58171 599.743458 183.913686 608.129916 183.913686 
z
" style="fill:#ff0000;stroke:#ff0000;"/>
    <path clip-path="url(#p0aaa7792c0)" d="M 493.23487 586.469771 
C 499.164992 586.469771 504.853029 584.113708 509.046259 579.920479 
C 513.239488 575.72725 515.59555 570.039213 515.59555 564.109091 
C 515.59555 558.178969 513.239488 552.490932 509.046259 548.297703 
C 504.853029 544.104473 499.164992 541.748411 493.23487 541.748411 
C 487.304749 541.748411 481.616711 544.104473 477.423482 548.297703 
C 473.230253 552.490932 470.874191 558.178969 470.874191 564.109091 
C 470.874191 570.039213 473.230253 575.72725 477.423482 579.920479 
C 481.616711 584.113708 487.304749 586.469771 493.23487 586.469771 
z
" style="fill:#ff0000;stroke:#ff0000;"/>
   </g>
   <g id="text_1">
    <g clip-path="url(#p0aaa7792c0)">
     <!-- nooooooooode0 -->
     <defs>
      <path d="M 63.375 33.296875 
L 63.375 0 
L 45.796875 0 
L 45.796875 5.421875 
L 45.796875 25.484375 
Q 45.796875 32.5625 45.484375 35.25 
Q 45.171875 37.9375 44.390625 39.203125 
Q 43.359375 40.921875 41.59375 41.875 
Q 39.84375 42.828125 37.59375 42.828125 
Q 32.125 42.828125 29 38.59375 
Q 25.875 34.375 25.875 26.90625 
L 25.875 0 
L 8.40625 0 
L 8.40625 54.6875 
L 25.875 54.6875 
L 25.875 46.6875 
Q 29.828125 51.46875 34.265625 53.734375 
Q 38.71875 56 44.09375 56 
Q 53.5625 56 58.46875 50.1875 
Q 63.375 44.390625 63.375 33.296875 
z
" id="DejaVuSans-Bold-6e"/>
      <path d="M 34.421875 43.5 
Q 28.609375 43.5 25.5625 39.328125 
Q 22.515625 35.15625 22.515625 27.296875 
Q 22.515625 19.4375 25.5625 15.25 
Q 28.609375 11.078125 34.421875 11.078125 
Q 40.140625 11.078125 43.15625 15.25 
Q 46.1875 19.4375 46.1875 27.296875 
Q 46.1875 35.15625 43.15625 39.328125 
Q 40.140625 43.5 34.421875 43.5 
z
M 34.421875 56 
Q 48.53125 56 56.46875 48.375 
Q 64.40625 40.765625 64.40625 27.296875 
Q 64.40625 13.8125 56.46875 6.1875 
Q 48.53125 -1.421875 34.421875 -1.421875 
Q 20.265625 -1.421875 12.28125 6.1875 
Q 4.296875 13.8125 4.296875 27.296875 
Q 4.296875 40.765625 12.28125 48.375 
Q 20.265625 56 34.421875 56 
z
" id="DejaVuSans-Bold-6f"/>
      <path d="M 45.609375 46.6875 
L 45.609375 75.984375 
L 63.1875 75.984375 
L 63.1875 0 
L 45.609375 0 
L 45.609375 7.90625 
Q 42 3.078125 37.640625 0.828125 
Q 33.296875 -1.421875 27.59375 -1.421875 
Q 17.484375 -1.421875 10.984375 6.609375 
Q 4.5 14.65625 4.5 27.296875 
Q 4.5 39.9375 10.984375 47.96875 
Q 17.484375 56 27.59375 56 
Q 33.25 56 37.625 53.734375 
Q 42 51.46875 45.609375 46.6875 
z
M 34.078125 11.28125 
Q 39.703125 11.28125 42.65625 15.375 
Q 45.609375 19.484375 45.609375 27.296875 
Q 45.609375 35.109375 42.65625 39.203125 
Q 39.703125 43.3125 34.078125 43.3125 
Q 28.515625 43.3125 25.5625 39.203125 
Q 22.609375 35.109375 22.609375 27.296875 
Q 22.609375 19.484375 25.5625 15.375 
Q 28.515625 11.28125 34.078125 11.28125 
z
" id="DejaVuSans-Bold-64"/>
      <path d="M 62.984375 27.484375 
L 62.984375 22.515625 
L 22.125 22.515625 
Q 22.75 16.359375 26.5625 13.28125 
Q 30.375 10.203125 37.203125 10.203125 
Q 42.71875 10.203125 48.5 11.84375 
Q 54.296875 13.484375 60.40625 16.796875 
L 60.40625 3.328125 
Q 54.203125 0.984375 48 -0.21875 
Q 41.796875 -1.421875 35.59375 -1.421875 
Q 20.75 -1.421875 12.515625 6.125 
Q 4.296875 13.671875 4.296875 27.296875 
Q 4.296875 40.671875 12.375 48.328125 
Q 20.453125 56 34.625 56 
Q 47.515625 56 55.25 48.234375 
Q 62.984375 40.484375 62.984375 27.484375 
z
M 45.015625 33.296875 
Q 45.015625 38.28125 42.109375 41.328125 
Q 39.203125 44.390625 34.515625 44.390625 
Q 29.4375 44.390625 26.265625 41.53125 
Q 23.09375 38.671875 22.3125 33.296875 
z
" id="DejaVuSans-Bold-65"/>
      <path d="M 46 36.53125 
Q 46 50.203125 43.4375 55.78125 
Q 40.875 61.375 34.8125 61.375 
Q 28.765625 61.375 26.171875 55.78125 
Q 23.578125 50.203125 23.578125 36.53125 
Q 23.578125 22.703125 26.171875 17.03125 
Q 28.765625 11.375 34.8125 11.375 
Q 40.828125 11.375 43.40625 17.03125 
Q 46 22.703125 46 36.53125 
z
M 64.796875 36.375 
Q 64.796875 18.265625 56.984375 8.421875 
Q 49.171875 -1.421875 34.8125 -1.421875 
Q 20.40625 -1.421875 12.59375 8.421875 
Q 4.78125 18.265625 4.78125 36.375 
Q 4.78125 54.546875 12.59375 64.375 
Q 20.40625 74.21875 34.8125 74.21875 
Q 49.171875 74.21875 56.984375 64.375 
Q 64.796875 54.546875 64.796875 36.375 
z
" id="DejaVuSans-Bold-30"/>
     </defs>
     <g transform="translate(667.685209 169.126179)scale(0.15 -0.15)">
      <use xlink:href="#DejaVuSans-Bold-6e"/>
      <use x="71.191406" xlink:href="#DejaVuSans-Bold-6f"/>
      <use x="139.892578" xlink:href="#DejaVuSans-Bold-6f"/>
      <use x="208.59375" xlink:href="#DejaVuSans-Bold-6f"/>
      <use x="277.294922" xlink:href="#DejaVuSans-Bold-6f"/>
      <use x="345.996094" xlink:href="#DejaVuSans-Bold-6f"/>
      <use x="414.697266" xlink:href="#DejaVuSans-Bold-6f"/>
      <use x="483.398438" xlink:href="#DejaVuSans-Bold-6f"/>
      <use x="552.099609" xlink:href="#DejaVuSans-Bold-6f"/>
      <use x="620.800781" xlink:href="#DejaVuSans-Bold-6f"/>
      <use x="689.501953" xlink:href="#DejaVuSans-Bold-64"/>
      <use x="761.083984" xlink:href="#DejaVuSans-Bold-65"/>
      <use x="828.90625" xlink:href="#DejaVuSans-Bold-30"/>
     </g>
    </g>
   </g>
   <g id="text_2">
    <g clip-path="url(#p0aaa7792c0)">
     <!-- nooooooooode1 -->
     <defs>
      <path d="M 11.71875 12.984375 
L 28.328125 12.984375 
L 28.328125 60.109375 
L 11.28125 56.59375 
L 11.28125 69.390625 
L 28.21875 72.90625 
L 46.09375 72.90625 
L 46.09375 12.984375 
L 62.703125 12.984375 
L 62.703125 0 
L 11.71875 0 
z
" id="DejaVuSans-Bold-31"/>
     </defs>
     <g transform="translate(169.067045 551.630098)scale(0.15 -0.15)">
      <use xlink:href="#DejaVuSans-Bold-6e"/>
      <use x="71.191406" xlink:href="#DejaVuSans-Bold-6f"/>
      <use x="139.892578" xlink:href="#DejaVuSans-Bold-6f"/>
      <use x="208.59375" xlink:href="#DejaVuSans-Bold-6f"/>
      <use x="277.294922" xlink:href="#DejaVuSans-Bold-6f"/>
      <use x="345.996094" xlink:href="#DejaVuSans-Bold-6f"/>
      <use x="414.697266" xlink:href="#DejaVuSans-Bold-6f"/>
      <use x="483.398438" xlink:href="#DejaVuSans-Bold-6f"/>
      <use x="552.099609" xlink:href="#DejaVuSans-Bold-6f"/>
      <use x="620.800781" xlink:href="#DejaVuSans-Bold-6f"/>
      <use x="689.501953" xlink:href="#DejaVuSans-Bold-64"/>
      <use x="761.083984" xlink:href="#DejaVuSans-Bold-65"/>
      <use x="828.90625" xlink:href="#DejaVuSans-Bold-31"/>
     </g>
    </g>
   </g>
   <g id="text_3">
    <g clip-path="url(#p0aaa7792c0)">
     <!-- nooooooooode3 -->
     <defs>
      <path d="M 46.578125 39.3125 
Q 53.953125 37.40625 57.78125 32.6875 
Q 61.625 27.984375 61.625 20.703125 
Q 61.625 9.859375 53.3125 4.21875 
Q 45.015625 -1.421875 29.109375 -1.421875 
Q 23.484375 -1.421875 17.84375 -0.515625 
Q 12.203125 0.390625 6.6875 2.203125 
L 6.6875 16.703125 
Q 11.96875 14.0625 17.15625 12.71875 
Q 22.359375 11.375 27.390625 11.375 
Q 34.859375 11.375 38.84375 13.953125 
Q 42.828125 16.546875 42.828125 21.390625 
Q 42.828125 26.375 38.75 28.9375 
Q 34.671875 31.5 26.703125 31.5 
L 19.1875 31.5 
L 19.1875 43.609375 
L 27.09375 43.609375 
Q 34.1875 43.609375 37.640625 45.828125 
Q 41.109375 48.046875 41.109375 52.59375 
Q 41.109375 56.78125 37.734375 59.078125 
Q 34.375 61.375 28.21875 61.375 
Q 23.6875 61.375 19.046875 60.34375 
Q 14.40625 59.328125 9.8125 57.328125 
L 9.8125 71.09375 
Q 15.375 72.65625 20.84375 73.4375 
Q 26.3125 74.21875 31.59375 74.21875 
Q 45.796875 74.21875 52.84375 69.546875 
Q 59.90625 64.890625 59.90625 55.515625 
Q 59.90625 49.125 56.53125 45.046875 
Q 53.171875 40.96875 46.578125 39.3125 
z
" id="DejaVuSans-Bold-33"/>
     </defs>
     <g transform="translate(304.863236 551.440422)scale(0.15 -0.15)">
      <use xlink:href="#DejaVuSans-Bold-6e"/>
      <use x="71.191406" xlink:href="#DejaVuSans-Bold-6f"/>
      <use x="139.892578" xlink:href="#DejaVuSans-Bold-6f"/>
      <use x="208.59375" xlink:href="#DejaVuSans-Bold-6f"/>
      <use x="277.294922" xlink:href="#DejaVuSans-Bold-6f"/>
      <use x="345.996094" xlink:href="#DejaVuSans-Bold-6f"/>
      <use x="414.697266" xlink:href="#DejaVuSans-Bold-6f"/>
      <use x="483.398438" xlink:href="#DejaVuSans-Bold-6f"/>
      <use x="552.099609" xlink:href="#DejaVuSans-Bold-6f"/>
      <use x="620.800781" xlink:href="#DejaVuSans-Bold-6f"/>
      <use x="689.501953" xlink:href="#DejaVuSans-Bold-64"/>
      <use x="761.083984" xlink:href="#DejaVuSans-Bold-65"/>
      <use x="828.90625" xlink:href="#DejaVuSans-Bold-33"/>
     </g>
    </g>
   </g>
   <g id="text_4">
    <g clip-path="url(#p0aaa7792c0)">
     <!-- nooooooooode5 -->
     <defs>
      <path d="M 10.59375 72.90625 
L 57.328125 72.90625 
L 57.328125 59.078125 
L 25.59375 59.078125 
L 25.59375 47.796875 
Q 27.734375 48.390625 29.90625 48.703125 
Q 32.078125 49.03125 34.421875 49.03125 
Q 47.75 49.03125 55.171875 42.359375 
Q 62.59375 35.6875 62.59375 23.78125 
Q 62.59375 11.96875 54.515625 5.265625 
Q 46.4375 -1.421875 32.078125 -1.421875 
Q 25.875 -1.421875 19.796875 -0.21875 
Q 13.71875 0.984375 7.71875 3.421875 
L 7.71875 18.21875 
Q 13.671875 14.796875 19.015625 13.078125 
Q 24.359375 11.375 29.109375 11.375 
Q 35.9375 11.375 39.859375 14.71875 
Q 43.796875 18.0625 43.796875 23.78125 
Q 43.796875 29.546875 39.859375 32.859375 
Q 35.9375 36.1875 29.109375 36.1875 
Q 25.046875 36.1875 20.453125 35.125 
Q 15.875 34.078125 10.59375 31.890625 
z
" id="DejaVuSans-Bold-35"/>
     </defs>
     <g transform="translate(803.157955 165.424482)scale(0.15 -0.15)">
      <use xlink:href="#DejaVuSans-Bold-6e"/>
      <use x="71.191406" xlink:href="#DejaVuSans-Bold-6f"/>
      <use x="139.892578" xlink:href="#DejaVuSans-Bold-6f"/>
      <use x="208.59375" xlink:href="#DejaVuSans-Bold-6f"/>
      <use x="277.294922" xlink:href="#DejaVuSans-Bold-6f"/>
      <use x="345.996094" xlink:href="#DejaVuSans-Bold-6f"/>
      <use x="414.697266" xlink:href="#DejaVuSans-Bold-6f"/>
      <use x="483.398438" xlink:href="#DejaVuSans-Bold-6f"/>
      <use x="552.099609" xlink:href="#DejaVuSans-Bold-6f"/>
      <use x="620.800781" xlink:href="#DejaVuSans-Bold-6f"/>
      <use x="689.501953" xlink:href="#DejaVuSans-Bold-64"/>
      <use x="761.083984" xlink:href="#DejaVuSans-Bold-65"/>
      <use x="828.90625" xlink:href="#DejaVuSans-Bold-35"/>
     </g>
    </g>
   </g>
   <g id="text_5">
    <g clip-path="url(#p0aaa7792c0)">
     <!-- nooooooooode6 -->
     <defs>
      <path d="M 36.1875 35.984375 
Q 31.25 35.984375 28.78125 32.78125 
Q 26.3125 29.59375 26.3125 23.1875 
Q 26.3125 16.796875 28.78125 13.59375 
Q 31.25 10.40625 36.1875 10.40625 
Q 41.15625 10.40625 43.625 13.59375 
Q 46.09375 16.796875 46.09375 23.1875 
Q 46.09375 29.59375 43.625 32.78125 
Q 41.15625 35.984375 36.1875 35.984375 
z
M 59.421875 71 
L 59.421875 57.515625 
Q 54.78125 59.71875 50.671875 60.765625 
Q 46.578125 61.8125 42.671875 61.8125 
Q 34.28125 61.8125 29.59375 57.140625 
Q 24.90625 52.484375 24.125 43.3125 
Q 27.34375 45.703125 31.09375 46.890625 
Q 34.859375 48.09375 39.3125 48.09375 
Q 50.484375 48.09375 57.34375 41.546875 
Q 64.203125 35.015625 64.203125 24.421875 
Q 64.203125 12.703125 56.53125 5.640625 
Q 48.875 -1.421875 35.984375 -1.421875 
Q 21.78125 -1.421875 13.984375 8.171875 
Q 6.203125 17.78125 6.203125 35.40625 
Q 6.203125 53.46875 15.3125 63.796875 
Q 24.421875 74.125 40.28125 74.125 
Q 45.3125 74.125 50.046875 73.34375 
Q 54.78125 72.5625 59.421875 71 
z
" id="DejaVuSans-Bold-36"/>
     </defs>
     <g transform="translate(540.742416 156.429972)scale(0.15 -0.15)">
      <use xlink:href="#DejaVuSans-Bold-6e"/>
      <use x="71.191406" xlink:href="#DejaVuSans-Bold-6f"/>
      <use x="139.892578" xlink:href="#DejaVuSans-Bold-6f"/>
      <use x="208.59375" xlink:href="#DejaVuSans-Bold-6f"/>
      <use x="277.294922" xlink:href="#DejaVuSans-Bold-6f"/>
      <use x="345.996094" xlink:href="#DejaVuSans-Bold-6f"/>
      <use x="414.697266" xlink:href="#DejaVuSans-Bold-6f"/>
      <use x="483.398438" xlink:href="#DejaVuSans-Bold-6f"/>
      <use x="552.099609" xlink:href="#DejaVuSans-Bold-6f"/>
      <use x="620.800781" xlink:href="#DejaVuSans-Bold-6f"/>
      <use x="689.501953" xlink:href="#DejaVuSans-Bold-64"/>
      <use x="761.083984" xlink:href="#DejaVuSans-Bold-65"/>
      <use x="828.90625" xlink:href="#DejaVuSans-Bold-36"/>
     </g>
    </g>
   </g>
   <g id="text_6">
    <g clip-path="url(#p0aaa7792c0)">
     <!-- nooooooooode8 -->
     <defs>
      <path d="M 34.8125 32.625 
Q 29.546875 32.625 26.703125 29.734375 
Q 23.875 26.859375 23.875 21.484375 
Q 23.875 16.109375 26.703125 13.25 
Q 29.546875 10.40625 34.8125 10.40625 
Q 40.046875 10.40625 42.828125 13.25 
Q 45.609375 16.109375 45.609375 21.484375 
Q 45.609375 26.90625 42.828125 29.765625 
Q 40.046875 32.625 34.8125 32.625 
z
M 21.09375 38.8125 
Q 14.453125 40.828125 11.078125 44.96875 
Q 7.71875 49.125 7.71875 55.328125 
Q 7.71875 64.546875 14.59375 69.375 
Q 21.484375 74.21875 34.8125 74.21875 
Q 48.046875 74.21875 54.921875 69.40625 
Q 61.8125 64.59375 61.8125 55.328125 
Q 61.8125 49.125 58.421875 44.96875 
Q 55.03125 40.828125 48.390625 38.8125 
Q 55.8125 36.765625 59.59375 32.15625 
Q 63.375 27.546875 63.375 20.515625 
Q 63.375 9.671875 56.171875 4.125 
Q 48.96875 -1.421875 34.8125 -1.421875 
Q 20.609375 -1.421875 13.359375 4.125 
Q 6.109375 9.671875 6.109375 20.515625 
Q 6.109375 27.546875 9.890625 32.15625 
Q 13.671875 36.765625 21.09375 38.8125 
z
M 25.484375 53.421875 
Q 25.484375 49.078125 27.90625 46.734375 
Q 30.328125 44.390625 34.8125 44.390625 
Q 39.203125 44.390625 41.59375 46.734375 
Q 44 49.078125 44 53.421875 
Q 44 57.765625 41.59375 60.078125 
Q 39.203125 62.40625 34.8125 62.40625 
Q 30.328125 62.40625 27.90625 60.0625 
Q 25.484375 57.71875 25.484375 53.421875 
z
" id="DejaVuSans-Bold-38"/>
     </defs>
     <g transform="translate(425.84737 568.248153)scale(0.15 -0.15)">
      <use xlink:href="#DejaVuSans-Bold-6e"/>
      <use x="71.191406" xlink:href="#DejaVuSans-Bold-6f"/>
      <use x="139.892578" xlink:href="#DejaVuSans-Bold-6f"/>
      <use x="208.59375" xlink:href="#DejaVuSans-Bold-6f"/>
      <use x="277.294922" xlink:href="#DejaVuSans-Bold-6f"/>
      <use x="345.996094" xlink:href="#DejaVuSans-Bold-6f"/>
      <use x="414.697266" xlink:href="#DejaVuSans-Bold-6f"/>
      <use x="483.398438" xlink:href="#DejaVuSans-Bold-6f"/>
      <use x="552.099609" xlink:href="#DejaVuSans-Bold-6f"/>
      <use x="620.800781" xlink:href="#DejaVuSans-Bold-6f"/>
      <use x="689.501953" xlink:href="#DejaVuSans-Bold-64"/>
      <use x="761.083984" xlink:href="#DejaVuSans-Bold-65"/>
      <use x="828.90625" xlink:href="#DejaVuSans-Bold-38"/>
     </g>
    </g>
   </g>
  </g>
 </g>
 <defs>
  <clipPath id="p0aaa7792c0">
   <rect height="543.6" width="837" x="135" y="86.4"/>
  </clipPath>
 </defs>
</svg>
