<?xml version="1.0" encoding="utf-8" standalone="no"?>
<!DOCTYPE svg PUBLIC "-//W3C//DTD SVG 1.1//EN"
  "http://www.w3.org/Graphics/SVG/1.1/DTD/svg11.dtd">
<!-- Created with matplotlib (http://matplotlib.org/) -->
<svg height="288pt" version="1.1" viewBox="0 0 864 288" width="864pt" xmlns="http://www.w3.org/2000/svg" xmlns:xlink="http://www.w3.org/1999/xlink">
 <defs>
  <style type="text/css">
*{stroke-linecap:butt;stroke-linejoin:round;}
  </style>
 </defs>
 <g id="figure_1">
  <g id="patch_1">
   <path d="M 0 288 
L 864 288 
L 864 0 
L 0 0 
z
" style="fill:#ffffff;"/>
  </g>
  <g id="axes_1">
   <g id="patch_2">
    <path d="M 108 252 
L 777.6 252 
L 777.6 34.56 
L 108 34.56 
z
" style="fill:#ffffff;"/>
   </g>
   <g id="matplotlib.axis_1">
    <g id="xtick_1">
     <g id="line2d_1">
      <defs>
       <path d="M 0 0 
L 0 3.5 
" id="m77b45029a0" style="stroke:#000000;stroke-width:0.8;"/>
      </defs>
      <g>
       <use style="stroke:#000000;stroke-width:0.8;" x="138.436364" xlink:href="#m77b45029a0" y="252"/>
      </g>
     </g>
     <g id="text_1">
      <!-- 0 -->
      <defs>
       <path d="M 31.78125 66.40625 
Q 24.171875 66.40625 20.328125 58.90625 
Q 16.5 51.421875 16.5 36.375 
Q 16.5 21.390625 20.328125 13.890625 
Q 24.171875 6.390625 31.78125 6.390625 
Q 39.453125 6.390625 43.28125 13.890625 
Q 47.125 21.390625 47.125 36.375 
Q 47.125 51.421875 43.28125 58.90625 
Q 39.453125 66.40625 31.78125 66.40625 
z
M 31.78125 74.21875 
Q 44.046875 74.21875 50.515625 64.515625 
Q 56.984375 54.828125 56.984375 36.375 
Q 56.984375 17.96875 50.515625 8.265625 
Q 44.046875 -1.421875 31.78125 -1.421875 
Q 19.53125 -1.421875 13.0625 8.265625 
Q 6.59375 17.96875 6.59375 36.375 
Q 6.59375 54.828125 13.0625 64.515625 
Q 19.53125 74.21875 31.78125 74.21875 
z
" id="DejaVuSans-30"/>
      </defs>
      <g transform="translate(135.255114 266.598437)scale(0.1 -0.1)">
       <use xlink:href="#DejaVuSans-30"/>
      </g>
     </g>
    </g>
    <g id="xtick_2">
     <g id="line2d_2">
      <g>
       <use style="stroke:#000000;stroke-width:0.8;" x="260.425797" xlink:href="#m77b45029a0" y="252"/>
      </g>
     </g>
     <g id="text_2">
      <!-- 1 -->
      <defs>
       <path d="M 12.40625 8.296875 
L 28.515625 8.296875 
L 28.515625 63.921875 
L 10.984375 60.40625 
L 10.984375 69.390625 
L 28.421875 72.90625 
L 38.28125 72.90625 
L 38.28125 8.296875 
L 54.390625 8.296875 
L 54.390625 0 
L 12.40625 0 
z
" id="DejaVuSans-31"/>
      </defs>
      <g transform="translate(257.244547 266.598437)scale(0.1 -0.1)">
       <use xlink:href="#DejaVuSans-31"/>
      </g>
     </g>
    </g>
    <g id="xtick_3">
     <g id="line2d_3">
      <g>
       <use style="stroke:#000000;stroke-width:0.8;" x="382.41523" xlink:href="#m77b45029a0" y="252"/>
      </g>
     </g>
     <g id="text_3">
      <!-- 2 -->
      <defs>
       <path d="M 19.1875 8.296875 
L 53.609375 8.296875 
L 53.609375 0 
L 7.328125 0 
L 7.328125 8.296875 
Q 12.9375 14.109375 22.625 23.890625 
Q 32.328125 33.6875 34.8125 36.53125 
Q 39.546875 41.84375 41.421875 45.53125 
Q 43.3125 49.21875 43.3125 52.78125 
Q 43.3125 58.59375 39.234375 62.25 
Q 35.15625 65.921875 28.609375 65.921875 
Q 23.96875 65.921875 18.8125 64.3125 
Q 13.671875 62.703125 7.8125 59.421875 
L 7.8125 69.390625 
Q 13.765625 71.78125 18.9375 73 
Q 24.125 74.21875 28.421875 74.21875 
Q 39.75 74.21875 46.484375 68.546875 
Q 53.21875 62.890625 53.21875 53.421875 
Q 53.21875 48.921875 51.53125 44.890625 
Q 49.859375 40.875 45.40625 35.40625 
Q 44.1875 33.984375 37.640625 27.21875 
Q 31.109375 20.453125 19.1875 8.296875 
z
" id="DejaVuSans-32"/>
      </defs>
      <g transform="translate(379.23398 266.598437)scale(0.1 -0.1)">
       <use xlink:href="#DejaVuSans-32"/>
      </g>
     </g>
    </g>
    <g id="xtick_4">
     <g id="line2d_4">
      <g>
       <use style="stroke:#000000;stroke-width:0.8;" x="504.404664" xlink:href="#m77b45029a0" y="252"/>
      </g>
     </g>
     <g id="text_4">
      <!-- 3 -->
      <defs>
       <path d="M 40.578125 39.3125 
Q 47.65625 37.796875 51.625 33 
Q 55.609375 28.21875 55.609375 21.1875 
Q 55.609375 10.40625 48.1875 4.484375 
Q 40.765625 -1.421875 27.09375 -1.421875 
Q 22.515625 -1.421875 17.65625 -0.515625 
Q 12.796875 0.390625 7.625 2.203125 
L 7.625 11.71875 
Q 11.71875 9.328125 16.59375 8.109375 
Q 21.484375 6.890625 26.8125 6.890625 
Q 36.078125 6.890625 40.9375 10.546875 
Q 45.796875 14.203125 45.796875 21.1875 
Q 45.796875 27.640625 41.28125 31.265625 
Q 36.765625 34.90625 28.71875 34.90625 
L 20.21875 34.90625 
L 20.21875 43.015625 
L 29.109375 43.015625 
Q 36.375 43.015625 40.234375 45.921875 
Q 44.09375 48.828125 44.09375 54.296875 
Q 44.09375 59.90625 40.109375 62.90625 
Q 36.140625 65.921875 28.71875 65.921875 
Q 24.65625 65.921875 20.015625 65.03125 
Q 15.375 64.15625 9.8125 62.3125 
L 9.8125 71.09375 
Q 15.4375 72.65625 20.34375 73.4375 
Q 25.25 74.21875 29.59375 74.21875 
Q 40.828125 74.21875 47.359375 69.109375 
Q 53.90625 64.015625 53.90625 55.328125 
Q 53.90625 49.265625 50.4375 45.09375 
Q 46.96875 40.921875 40.578125 39.3125 
z
" id="DejaVuSans-33"/>
      </defs>
      <g transform="translate(501.223414 266.598437)scale(0.1 -0.1)">
       <use xlink:href="#DejaVuSans-33"/>
      </g>
     </g>
    </g>
    <g id="xtick_5">
     <g id="line2d_5">
      <g>
       <use style="stroke:#000000;stroke-width:0.8;" x="626.394097" xlink:href="#m77b45029a0" y="252"/>
      </g>
     </g>
     <g id="text_5">
      <!-- 4 -->
      <defs>
       <path d="M 37.796875 64.3125 
L 12.890625 25.390625 
L 37.796875 25.390625 
z
M 35.203125 72.90625 
L 47.609375 72.90625 
L 47.609375 25.390625 
L 58.015625 25.390625 
L 58.015625 17.1875 
L 47.609375 17.1875 
L 47.609375 0 
L 37.796875 0 
L 37.796875 17.1875 
L 4.890625 17.1875 
L 4.890625 26.703125 
z
" id="DejaVuSans-34"/>
      </defs>
      <g transform="translate(623.212847 266.598437)scale(0.1 -0.1)">
       <use xlink:href="#DejaVuSans-34"/>
      </g>
     </g>
    </g>
    <g id="xtick_6">
     <g id="line2d_6">
      <g>
       <use style="stroke:#000000;stroke-width:0.8;" x="748.383531" xlink:href="#m77b45029a0" y="252"/>
      </g>
     </g>
     <g id="text_6">
      <!-- 5 -->
      <defs>
       <path d="M 10.796875 72.90625 
L 49.515625 72.90625 
L 49.515625 64.59375 
L 19.828125 64.59375 
L 19.828125 46.734375 
Q 21.96875 47.46875 24.109375 47.828125 
Q 26.265625 48.1875 28.421875 48.1875 
Q 40.625 48.1875 47.75 41.5 
Q 54.890625 34.8125 54.890625 23.390625 
Q 54.890625 11.625 47.5625 5.09375 
Q 40.234375 -1.421875 26.90625 -1.421875 
Q 22.3125 -1.421875 17.546875 -0.640625 
Q 12.796875 0.140625 7.71875 1.703125 
L 7.71875 11.625 
Q 12.109375 9.234375 16.796875 8.0625 
Q 21.484375 6.890625 26.703125 6.890625 
Q 35.15625 6.890625 40.078125 11.328125 
Q 45.015625 15.765625 45.015625 23.390625 
Q 45.015625 31 40.078125 35.4375 
Q 35.15625 39.890625 26.703125 39.890625 
Q 22.75 39.890625 18.8125 39.015625 
Q 14.890625 38.140625 10.796875 36.28125 
z
" id="DejaVuSans-35"/>
      </defs>
      <g transform="translate(745.202281 266.598437)scale(0.1 -0.1)">
       <use xlink:href="#DejaVuSans-35"/>
      </g>
     </g>
    </g>
   </g>
   <g id="matplotlib.axis_2">
    <g id="ytick_1">
     <g id="line2d_7">
      <defs>
       <path d="M 0 0 
L -3.5 0 
" id="m22015687a6" style="stroke:#000000;stroke-width:0.8;"/>
      </defs>
      <g>
       <use style="stroke:#000000;stroke-width:0.8;" x="108" xlink:href="#m22015687a6" y="252"/>
      </g>
     </g>
     <g id="text_7">
      <!-- −2.0 -->
      <defs>
       <path d="M 10.59375 35.5 
L 73.1875 35.5 
L 73.1875 27.203125 
L 10.59375 27.203125 
z
" id="DejaVuSans-2212"/>
       <path d="M 10.6875 12.40625 
L 21 12.40625 
L 21 0 
L 10.6875 0 
z
" id="DejaVuSans-2e"/>
      </defs>
      <g transform="translate(76.717187 255.799219)scale(0.1 -0.1)">
       <use xlink:href="#DejaVuSans-2212"/>
       <use x="83.789062" xlink:href="#DejaVuSans-32"/>
       <use x="147.412109" xlink:href="#DejaVuSans-2e"/>
       <use x="179.199219" xlink:href="#DejaVuSans-30"/>
      </g>
     </g>
    </g>
    <g id="ytick_2">
     <g id="line2d_8">
      <g>
       <use style="stroke:#000000;stroke-width:0.8;" x="108" xlink:href="#m22015687a6" y="224.82"/>
      </g>
     </g>
     <g id="text_8">
      <!-- −1.5 -->
      <g transform="translate(76.717187 228.619219)scale(0.1 -0.1)">
       <use xlink:href="#DejaVuSans-2212"/>
       <use x="83.789062" xlink:href="#DejaVuSans-31"/>
       <use x="147.412109" xlink:href="#DejaVuSans-2e"/>
       <use x="179.199219" xlink:href="#DejaVuSans-35"/>
      </g>
     </g>
    </g>
    <g id="ytick_3">
     <g id="line2d_9">
      <g>
       <use style="stroke:#000000;stroke-width:0.8;" x="108" xlink:href="#m22015687a6" y="197.64"/>
      </g>
     </g>
     <g id="text_9">
      <!-- −1.0 -->
      <g transform="translate(76.717187 201.439219)scale(0.1 -0.1)">
       <use xlink:href="#DejaVuSans-2212"/>
       <use x="83.789062" xlink:href="#DejaVuSans-31"/>
       <use x="147.412109" xlink:href="#DejaVuSans-2e"/>
       <use x="179.199219" xlink:href="#DejaVuSans-30"/>
      </g>
     </g>
    </g>
    <g id="ytick_4">
     <g id="line2d_10">
      <g>
       <use style="stroke:#000000;stroke-width:0.8;" x="108" xlink:href="#m22015687a6" y="170.46"/>
      </g>
     </g>
     <g id="text_10">
      <!-- −0.5 -->
      <g transform="translate(76.717187 174.259219)scale(0.1 -0.1)">
       <use xlink:href="#DejaVuSans-2212"/>
       <use x="83.789062" xlink:href="#DejaVuSans-30"/>
       <use x="147.412109" xlink:href="#DejaVuSans-2e"/>
       <use x="179.199219" xlink:href="#DejaVuSans-35"/>
      </g>
     </g>
    </g>
    <g id="ytick_5">
     <g id="line2d_11">
      <g>
       <use style="stroke:#000000;stroke-width:0.8;" x="108" xlink:href="#m22015687a6" y="143.28"/>
      </g>
     </g>
     <g id="text_11">
      <!-- 0.0 -->
      <g transform="translate(85.096875 147.079219)scale(0.1 -0.1)">
       <use xlink:href="#DejaVuSans-30"/>
       <use x="63.623047" xlink:href="#DejaVuSans-2e"/>
       <use x="95.410156" xlink:href="#DejaVuSans-30"/>
      </g>
     </g>
    </g>
    <g id="ytick_6">
     <g id="line2d_12">
      <g>
       <use style="stroke:#000000;stroke-width:0.8;" x="108" xlink:href="#m22015687a6" y="116.1"/>
      </g>
     </g>
     <g id="text_12">
      <!-- 0.5 -->
      <g transform="translate(85.096875 119.899219)scale(0.1 -0.1)">
       <use xlink:href="#DejaVuSans-30"/>
       <use x="63.623047" xlink:href="#DejaVuSans-2e"/>
       <use x="95.410156" xlink:href="#DejaVuSans-35"/>
      </g>
     </g>
    </g>
    <g id="ytick_7">
     <g id="line2d_13">
      <g>
       <use style="stroke:#000000;stroke-width:0.8;" x="108" xlink:href="#m22015687a6" y="88.92"/>
      </g>
     </g>
     <g id="text_13">
      <!-- 1.0 -->
      <g transform="translate(85.096875 92.719219)scale(0.1 -0.1)">
       <use xlink:href="#DejaVuSans-31"/>
       <use x="63.623047" xlink:href="#DejaVuSans-2e"/>
       <use x="95.410156" xlink:href="#DejaVuSans-30"/>
      </g>
     </g>
    </g>
    <g id="ytick_8">
     <g id="line2d_14">
      <g>
       <use style="stroke:#000000;stroke-width:0.8;" x="108" xlink:href="#m22015687a6" y="61.74"/>
      </g>
     </g>
     <g id="text_14">
      <!-- 1.5 -->
      <g transform="translate(85.096875 65.539219)scale(0.1 -0.1)">
       <use xlink:href="#DejaVuSans-31"/>
       <use x="63.623047" xlink:href="#DejaVuSans-2e"/>
       <use x="95.410156" xlink:href="#DejaVuSans-35"/>
      </g>
     </g>
    </g>
    <g id="ytick_9">
     <g id="line2d_15">
      <g>
       <use style="stroke:#000000;stroke-width:0.8;" x="108" xlink:href="#m22015687a6" y="34.56"/>
      </g>
     </g>
     <g id="text_15">
      <!-- 2.0 -->
      <g transform="translate(85.096875 38.359219)scale(0.1 -0.1)">
       <use xlink:href="#DejaVuSans-32"/>
       <use x="63.623047" xlink:href="#DejaVuSans-2e"/>
       <use x="95.410156" xlink:href="#DejaVuSans-30"/>
      </g>
     </g>
    </g>
   </g>
   <g id="line2d_16">
    <path clip-path="url(#p7d0a6077a6)" d="M 138.436364 88.92 
L 139.656258 89.027267 
L 140.876152 89.348645 
L 142.096047 89.882865 
L 143.315941 90.627819 
L 144.535835 91.580568 
L 145.75573 92.73735 
L 146.975624 94.093601 
L 148.195518 95.643969 
L 150.635307 99.301836 
L 153.075096 103.653265 
L 155.514884 108.629632 
L 157.954673 114.152455 
L 160.394462 120.134638 
L 164.054145 129.761218 
L 170.153616 146.693293 
L 175.033194 160.078164 
L 178.692877 169.46813 
L 181.132665 175.232006 
L 183.572454 180.491981 
L 186.012243 185.1651 
L 188.452031 189.177666 
L 190.89182 192.466399 
L 192.111714 193.82265 
L 193.331609 194.979432 
L 194.551503 195.932181 
L 195.771397 196.677135 
L 196.991292 197.211355 
L 198.211186 197.532733 
L 199.43108 197.64 
L 200.650975 197.532733 
L 201.870869 197.211355 
L 203.090763 196.677135 
L 204.310658 195.932181 
L 205.530552 194.979432 
L 206.750446 193.82265 
L 207.970341 192.466399 
L 209.190235 190.916031 
L 211.630024 187.258164 
L 214.069812 182.906735 
L 216.509601 177.930368 
L 218.94939 172.407545 
L 221.389178 166.425362 
L 225.048861 156.798782 
L 231.148333 139.866707 
L 236.02791 126.481836 
L 239.687593 117.09187 
L 242.127382 111.327994 
L 244.567171 106.068019 
L 247.006959 101.3949 
L 249.446748 97.382334 
L 251.886537 94.093601 
L 253.106431 92.73735 
L 254.326325 91.580568 
L 255.54622 90.627819 
L 256.766114 89.882865 
L 257.986008 89.348645 
L 259.205903 89.027267 
L 260.425797 88.92 
L 261.645691 89.027267 
L 262.865586 89.348645 
L 264.08548 89.882865 
L 265.305374 90.627819 
L 266.525269 91.580568 
L 267.745163 92.73735 
L 268.965057 94.093601 
L 270.184952 95.643969 
L 272.62474 99.301836 
L 275.064529 103.653265 
L 277.504318 108.629632 
L 279.944106 114.152455 
L 282.383895 120.134638 
L 286.043578 129.761218 
L 292.14305 146.693293 
L 297.022627 160.078164 
L 300.68231 169.46813 
L 303.122099 175.232006 
L 305.561887 180.491981 
L 308.001676 185.1651 
L 310.441465 189.177666 
L 312.881253 192.466399 
L 314.101148 193.82265 
L 315.321042 194.979432 
L 316.540936 195.932181 
L 317.760831 196.677135 
L 318.980725 197.211355 
L 320.200619 197.532733 
L 321.420514 197.64 
L 322.640408 197.532733 
L 323.860302 197.211355 
L 325.080197 196.677135 
L 326.300091 195.932181 
L 327.519985 194.979432 
L 328.73988 193.82265 
L 329.959774 192.466399 
L 331.179668 190.916031 
L 333.619457 187.258164 
L 336.059246 182.906735 
L 338.499034 177.930368 
L 340.938823 172.407545 
L 343.378612 166.425362 
L 347.038295 156.798782 
L 353.137766 139.866707 
L 358.017344 126.481836 
L 361.677027 117.09187 
L 364.116815 111.327994 
L 366.556604 106.068019 
L 368.996393 101.3949 
L 371.436181 97.382334 
L 373.87597 94.093601 
L 375.095864 92.73735 
L 376.315759 91.580568 
L 377.535653 90.627819 
L 378.755547 89.882865 
L 379.975442 89.348645 
L 381.195336 89.027267 
L 382.41523 88.92 
L 383.635125 89.027267 
L 384.855019 89.348645 
L 386.074913 89.882865 
L 387.294808 90.627819 
L 388.514702 91.580568 
L 389.734596 92.73735 
L 390.954491 94.093601 
L 392.174385 95.643969 
L 394.614174 99.301836 
L 397.053962 103.653265 
L 399.493751 108.629632 
L 401.93354 114.152455 
L 404.373328 120.134638 
L 408.033011 129.761218 
L 414.132483 146.693293 
L 419.01206 160.078164 
L 422.671743 169.46813 
L 425.111532 175.232006 
L 427.551321 180.491981 
L 429.991109 185.1651 
L 432.430898 189.177666 
L 434.870687 192.466399 
L 436.090581 193.82265 
L 437.310475 194.979432 
L 438.53037 195.932181 
L 439.750264 196.677135 
L 440.970158 197.211355 
L 442.190053 197.532733 
L 443.409947 197.64 
L 444.629842 197.532733 
L 445.849736 197.211355 
L 447.06963 196.677135 
L 448.289525 195.932181 
L 449.509419 194.979432 
L 450.729313 193.82265 
L 451.949208 192.466399 
L 453.169102 190.916031 
L 455.608891 187.258164 
L 458.048679 182.906735 
L 460.488468 177.930368 
L 462.928257 172.407545 
L 465.368045 166.425362 
L 469.027728 156.798782 
L 475.1272 139.866707 
L 480.006777 126.481836 
L 483.66646 117.09187 
L 486.106249 111.327994 
L 488.546038 106.068019 
L 490.985826 101.3949 
L 493.425615 97.382334 
L 495.865404 94.093601 
L 497.085298 92.73735 
L 498.305192 91.580568 
L 499.525087 90.627819 
L 500.744981 89.882865 
L 501.964875 89.348645 
L 503.18477 89.027267 
L 504.404664 88.92 
L 505.624558 89.027267 
L 506.844453 89.348645 
L 508.064347 89.882865 
L 509.284241 90.627819 
L 510.504136 91.580568 
L 511.72403 92.73735 
L 512.943924 94.093601 
L 514.163819 95.643969 
L 516.603607 99.301836 
L 519.043396 103.653265 
L 521.483185 108.629632 
L 523.922973 114.152455 
L 526.362762 120.134638 
L 530.022445 129.761218 
L 536.121917 146.693293 
L 541.001494 160.078164 
L 544.661177 169.46813 
L 547.100966 175.232006 
L 549.540754 180.491981 
L 551.980543 185.1651 
L 554.420332 189.177666 
L 556.86012 192.466399 
L 558.080015 193.82265 
L 559.299909 194.979432 
L 560.519803 195.932181 
L 561.739698 196.677135 
L 562.959592 197.211355 
L 564.179486 197.532733 
L 565.399381 197.64 
L 566.619275 197.532733 
L 567.839169 197.211355 
L 569.059064 196.677135 
L 570.278958 195.932181 
L 571.498852 194.979432 
L 572.718747 193.82265 
L 573.938641 192.466399 
L 575.158535 190.916031 
L 577.598324 187.258164 
L 580.038113 182.906735 
L 582.477901 177.930368 
L 584.91769 172.407545 
L 587.357479 166.425362 
L 591.017162 156.798782 
L 597.116633 139.866707 
L 601.996211 126.481836 
L 605.655894 117.09187 
L 608.095682 111.327994 
L 610.535471 106.068019 
L 612.97526 101.3949 
L 615.415048 97.382334 
L 617.854837 94.093601 
L 619.074731 92.73735 
L 620.294626 91.580568 
L 621.51452 90.627819 
L 622.734414 89.882865 
L 623.954309 89.348645 
L 625.174203 89.027267 
L 626.394097 88.92 
L 627.613992 89.027267 
L 628.833886 89.348645 
L 630.05378 89.882865 
L 631.273675 90.627819 
L 632.493569 91.580568 
L 633.713463 92.73735 
L 634.933358 94.093601 
L 636.153252 95.643969 
L 638.593041 99.301836 
L 641.032829 103.653265 
L 643.472618 108.629632 
L 645.912407 114.152455 
L 648.352195 120.134638 
L 652.011878 129.761218 
L 658.11135 146.693293 
L 662.990927 160.078164 
L 666.65061 169.46813 
L 669.090399 175.232006 
L 671.530188 180.491981 
L 673.969976 185.1651 
L 676.409765 189.177666 
L 678.849554 192.466399 
L 680.069448 193.82265 
L 681.289342 194.979432 
L 682.509237 195.932181 
L 683.729131 196.677135 
L 684.949025 197.211355 
L 686.16892 197.532733 
L 687.388814 197.64 
L 688.608708 197.532733 
L 689.828603 197.211355 
L 691.048497 196.677135 
L 692.268391 195.932181 
L 693.488286 194.979432 
L 694.70818 193.82265 
L 695.928074 192.466399 
L 697.147969 190.916031 
L 699.587757 187.258164 
L 702.027546 182.906735 
L 704.467335 177.930368 
L 706.907123 172.407545 
L 709.346912 166.425362 
L 713.006595 156.798782 
L 719.106067 139.866707 
L 723.985644 126.481836 
L 727.645327 117.09187 
L 730.085116 111.327994 
L 732.524904 106.068019 
L 734.964693 101.3949 
L 737.404482 97.382334 
L 739.84427 94.093601 
L 741.064165 92.73735 
L 742.284059 91.580568 
L 743.503953 90.627819 
L 744.723848 89.882865 
L 745.943742 89.348645 
L 747.163636 89.027267 
L 747.163636 89.027267 
" style="fill:none;stroke:#1f77b4;stroke-linecap:square;stroke-width:2;"/>
   </g>
   <g id="patch_3">
    <path d="M 108 252 
L 108 34.56 
" style="fill:none;stroke:#000000;stroke-linecap:square;stroke-linejoin:miter;stroke-width:0.8;"/>
   </g>
   <g id="patch_4">
    <path d="M 777.6 252 
L 777.6 34.56 
" style="fill:none;stroke:#000000;stroke-linecap:square;stroke-linejoin:miter;stroke-width:0.8;"/>
   </g>
   <g id="patch_5">
    <path d="M 108 252 
L 777.6 252 
" style="fill:none;stroke:#000000;stroke-linecap:square;stroke-linejoin:miter;stroke-width:0.8;"/>
   </g>
   <g id="patch_6">
    <path d="M 108 34.56 
L 777.6 34.56 
" style="fill:none;stroke:#000000;stroke-linecap:square;stroke-linejoin:miter;stroke-width:0.8;"/>
   </g>
   <g id="patch_7">
    <path d="M 819.681227 68.429891 
Q 631.491562 78.110277 443.301897 87.790663 
L 443.507383 91.785382 
Q 437.360628 89.097601 431.213872 86.409821 
Q 437.052398 83.105524 442.890924 79.801226 
L 443.096411 83.795945 
Q 631.286076 74.115558 819.47574 64.435172 
L 819.681227 68.429891 
z
" style="stroke:#000000;stroke-linecap:round;"/>
   </g>
   <g id="text_16">
    <!-- local max -->
    <defs>
     <path d="M 9.421875 75.984375 
L 18.40625 75.984375 
L 18.40625 0 
L 9.421875 0 
z
" id="DejaVuSans-6c"/>
     <path d="M 30.609375 48.390625 
Q 23.390625 48.390625 19.1875 42.75 
Q 14.984375 37.109375 14.984375 27.296875 
Q 14.984375 17.484375 19.15625 11.84375 
Q 23.34375 6.203125 30.609375 6.203125 
Q 37.796875 6.203125 41.984375 11.859375 
Q 46.1875 17.53125 46.1875 27.296875 
Q 46.1875 37.015625 41.984375 42.703125 
Q 37.796875 48.390625 30.609375 48.390625 
z
M 30.609375 56 
Q 42.328125 56 49.015625 48.375 
Q 55.71875 40.765625 55.71875 27.296875 
Q 55.71875 13.875 49.015625 6.21875 
Q 42.328125 -1.421875 30.609375 -1.421875 
Q 18.84375 -1.421875 12.171875 6.21875 
Q 5.515625 13.875 5.515625 27.296875 
Q 5.515625 40.765625 12.171875 48.375 
Q 18.84375 56 30.609375 56 
z
" id="DejaVuSans-6f"/>
     <path d="M 48.78125 52.59375 
L 48.78125 44.1875 
Q 44.96875 46.296875 41.140625 47.34375 
Q 37.3125 48.390625 33.40625 48.390625 
Q 24.65625 48.390625 19.8125 42.84375 
Q 14.984375 37.3125 14.984375 27.296875 
Q 14.984375 17.28125 19.8125 11.734375 
Q 24.65625 6.203125 33.40625 6.203125 
Q 37.3125 6.203125 41.140625 7.25 
Q 44.96875 8.296875 48.78125 10.40625 
L 48.78125 2.09375 
Q 45.015625 0.34375 40.984375 -0.53125 
Q 36.96875 -1.421875 32.421875 -1.421875 
Q 20.0625 -1.421875 12.78125 6.34375 
Q 5.515625 14.109375 5.515625 27.296875 
Q 5.515625 40.671875 12.859375 48.328125 
Q 20.21875 56 33.015625 56 
Q 37.15625 56 41.109375 55.140625 
Q 45.0625 54.296875 48.78125 52.59375 
z
" id="DejaVuSans-63"/>
     <path d="M 34.28125 27.484375 
Q 23.390625 27.484375 19.1875 25 
Q 14.984375 22.515625 14.984375 16.5 
Q 14.984375 11.71875 18.140625 8.90625 
Q 21.296875 6.109375 26.703125 6.109375 
Q 34.1875 6.109375 38.703125 11.40625 
Q 43.21875 16.703125 43.21875 25.484375 
L 43.21875 27.484375 
z
M 52.203125 31.203125 
L 52.203125 0 
L 43.21875 0 
L 43.21875 8.296875 
Q 40.140625 3.328125 35.546875 0.953125 
Q 30.953125 -1.421875 24.3125 -1.421875 
Q 15.921875 -1.421875 10.953125 3.296875 
Q 6 8.015625 6 15.921875 
Q 6 25.140625 12.171875 29.828125 
Q 18.359375 34.515625 30.609375 34.515625 
L 43.21875 34.515625 
L 43.21875 35.40625 
Q 43.21875 41.609375 39.140625 45 
Q 35.0625 48.390625 27.6875 48.390625 
Q 23 48.390625 18.546875 47.265625 
Q 14.109375 46.140625 10.015625 43.890625 
L 10.015625 52.203125 
Q 14.9375 54.109375 19.578125 55.046875 
Q 24.21875 56 28.609375 56 
Q 40.484375 56 46.34375 49.84375 
Q 52.203125 43.703125 52.203125 31.203125 
z
" id="DejaVuSans-61"/>
     <path id="DejaVuSans-20"/>
     <path d="M 52 44.1875 
Q 55.375 50.25 60.0625 53.125 
Q 64.75 56 71.09375 56 
Q 79.640625 56 84.28125 50.015625 
Q 88.921875 44.046875 88.921875 33.015625 
L 88.921875 0 
L 79.890625 0 
L 79.890625 32.71875 
Q 79.890625 40.578125 77.09375 44.375 
Q 74.3125 48.1875 68.609375 48.1875 
Q 61.625 48.1875 57.5625 43.546875 
Q 53.515625 38.921875 53.515625 30.90625 
L 53.515625 0 
L 44.484375 0 
L 44.484375 32.71875 
Q 44.484375 40.625 41.703125 44.40625 
Q 38.921875 48.1875 33.109375 48.1875 
Q 26.21875 48.1875 22.15625 43.53125 
Q 18.109375 38.875 18.109375 30.90625 
L 18.109375 0 
L 9.078125 0 
L 9.078125 54.6875 
L 18.109375 54.6875 
L 18.109375 46.1875 
Q 21.1875 51.21875 25.484375 53.609375 
Q 29.78125 56 35.6875 56 
Q 41.65625 56 45.828125 52.96875 
Q 50 49.953125 52 44.1875 
z
" id="DejaVuSans-6d"/>
     <path d="M 54.890625 54.6875 
L 35.109375 28.078125 
L 55.90625 0 
L 45.3125 0 
L 29.390625 21.484375 
L 13.484375 0 
L 2.875 0 
L 24.125 28.609375 
L 4.6875 54.6875 
L 15.28125 54.6875 
L 29.78125 35.203125 
L 44.28125 54.6875 
z
" id="DejaVuSans-78"/>
    </defs>
    <g transform="translate(870.372964 61.74)scale(0.1 -0.1)">
     <use xlink:href="#DejaVuSans-6c"/>
     <use x="27.783203" xlink:href="#DejaVuSans-6f"/>
     <use x="88.964844" xlink:href="#DejaVuSans-63"/>
     <use x="143.945312" xlink:href="#DejaVuSans-61"/>
     <use x="205.224609" xlink:href="#DejaVuSans-6c"/>
     <use x="233.007812" xlink:href="#DejaVuSans-20"/>
     <use x="264.794922" xlink:href="#DejaVuSans-6d"/>
     <use x="362.207031" xlink:href="#DejaVuSans-61"/>
     <use x="423.486328" xlink:href="#DejaVuSans-78"/>
    </g>
   </g>
  </g>
 </g>
 <defs>
  <clipPath id="p7d0a6077a6">
   <rect height="217.44" width="669.6" x="108" y="34.56"/>
  </clipPath>
 </defs>
</svg>
