<?xml version="1.0" encoding="utf-8" standalone="no"?>
<!DOCTYPE svg PUBLIC "-//W3C//DTD SVG 1.1//EN"
  "http://www.w3.org/Graphics/SVG/1.1/DTD/svg11.dtd">
<!-- Created with matplotlib (http://matplotlib.org/) -->
<svg height="432pt" version="1.1" viewBox="0 0 864 432" width="864pt" xmlns="http://www.w3.org/2000/svg" xmlns:xlink="http://www.w3.org/1999/xlink">
 <defs>
  <style type="text/css">
*{stroke-linecap:butt;stroke-linejoin:round;}
  </style>
 </defs>
 <g id="figure_1">
  <g id="patch_1">
   <path d="M 0 432 
L 864 432 
L 864 0 
L 0 0 
z
" style="fill:#ffffff;"/>
  </g>
  <g id="axes_1">
   <g id="patch_2">
    <path d="M 108 378 
L 777.6 378 
L 777.6 51.84 
L 108 51.84 
z
" style="fill:#ffffff;"/>
   </g>
   <g id="matplotlib.axis_1">
    <g id="xtick_1">
     <g id="line2d_1">
      <defs>
       <path d="M 0 0 
L 0 3.5 
" id="m559040e10b" style="stroke:#000000;stroke-width:0.8;"/>
      </defs>
      <g>
       <use style="stroke:#000000;stroke-width:0.8;" x="138.436364" xlink:href="#m559040e10b" y="378"/>
      </g>
     </g>
     <g id="text_1">
      <!-- 0 -->
      <defs>
       <path d="M 31.78125 66.40625 
Q 24.171875 66.40625 20.328125 58.90625 
Q 16.5 51.421875 16.5 36.375 
Q 16.5 21.390625 20.328125 13.890625 
Q 24.171875 6.390625 31.78125 6.390625 
Q 39.453125 6.390625 43.28125 13.890625 
Q 47.125 21.390625 47.125 36.375 
Q 47.125 51.421875 43.28125 58.90625 
Q 39.453125 66.40625 31.78125 66.40625 
z
M 31.78125 74.21875 
Q 44.046875 74.21875 50.515625 64.515625 
Q 56.984375 54.828125 56.984375 36.375 
Q 56.984375 17.96875 50.515625 8.265625 
Q 44.046875 -1.421875 31.78125 -1.421875 
Q 19.53125 -1.421875 13.0625 8.265625 
Q 6.59375 17.96875 6.59375 36.375 
Q 6.59375 54.828125 13.0625 64.515625 
Q 19.53125 74.21875 31.78125 74.21875 
z
" id="DejaVuSans-30"/>
      </defs>
      <g transform="translate(135.255114 392.598437)scale(0.1 -0.1)">
       <use xlink:href="#DejaVuSans-30"/>
      </g>
     </g>
    </g>
    <g id="xtick_2">
     <g id="line2d_2">
      <g>
       <use style="stroke:#000000;stroke-width:0.8;" x="199.309091" xlink:href="#m559040e10b" y="378"/>
      </g>
     </g>
     <g id="text_2">
      <!-- 1 -->
      <defs>
       <path d="M 12.40625 8.296875 
L 28.515625 8.296875 
L 28.515625 63.921875 
L 10.984375 60.40625 
L 10.984375 69.390625 
L 28.421875 72.90625 
L 38.28125 72.90625 
L 38.28125 8.296875 
L 54.390625 8.296875 
L 54.390625 0 
L 12.40625 0 
z
" id="DejaVuSans-31"/>
      </defs>
      <g transform="translate(196.127841 392.598437)scale(0.1 -0.1)">
       <use xlink:href="#DejaVuSans-31"/>
      </g>
     </g>
    </g>
    <g id="xtick_3">
     <g id="line2d_3">
      <g>
       <use style="stroke:#000000;stroke-width:0.8;" x="260.181818" xlink:href="#m559040e10b" y="378"/>
      </g>
     </g>
     <g id="text_3">
      <!-- 2 -->
      <defs>
       <path d="M 19.1875 8.296875 
L 53.609375 8.296875 
L 53.609375 0 
L 7.328125 0 
L 7.328125 8.296875 
Q 12.9375 14.109375 22.625 23.890625 
Q 32.328125 33.6875 34.8125 36.53125 
Q 39.546875 41.84375 41.421875 45.53125 
Q 43.3125 49.21875 43.3125 52.78125 
Q 43.3125 58.59375 39.234375 62.25 
Q 35.15625 65.921875 28.609375 65.921875 
Q 23.96875 65.921875 18.8125 64.3125 
Q 13.671875 62.703125 7.8125 59.421875 
L 7.8125 69.390625 
Q 13.765625 71.78125 18.9375 73 
Q 24.125 74.21875 28.421875 74.21875 
Q 39.75 74.21875 46.484375 68.546875 
Q 53.21875 62.890625 53.21875 53.421875 
Q 53.21875 48.921875 51.53125 44.890625 
Q 49.859375 40.875 45.40625 35.40625 
Q 44.1875 33.984375 37.640625 27.21875 
Q 31.109375 20.453125 19.1875 8.296875 
z
" id="DejaVuSans-32"/>
      </defs>
      <g transform="translate(257.000568 392.598437)scale(0.1 -0.1)">
       <use xlink:href="#DejaVuSans-32"/>
      </g>
     </g>
    </g>
    <g id="xtick_4">
     <g id="line2d_4">
      <g>
       <use style="stroke:#000000;stroke-width:0.8;" x="321.054545" xlink:href="#m559040e10b" y="378"/>
      </g>
     </g>
     <g id="text_4">
      <!-- 3 -->
      <defs>
       <path d="M 40.578125 39.3125 
Q 47.65625 37.796875 51.625 33 
Q 55.609375 28.21875 55.609375 21.1875 
Q 55.609375 10.40625 48.1875 4.484375 
Q 40.765625 -1.421875 27.09375 -1.421875 
Q 22.515625 -1.421875 17.65625 -0.515625 
Q 12.796875 0.390625 7.625 2.203125 
L 7.625 11.71875 
Q 11.71875 9.328125 16.59375 8.109375 
Q 21.484375 6.890625 26.8125 6.890625 
Q 36.078125 6.890625 40.9375 10.546875 
Q 45.796875 14.203125 45.796875 21.1875 
Q 45.796875 27.640625 41.28125 31.265625 
Q 36.765625 34.90625 28.71875 34.90625 
L 20.21875 34.90625 
L 20.21875 43.015625 
L 29.109375 43.015625 
Q 36.375 43.015625 40.234375 45.921875 
Q 44.09375 48.828125 44.09375 54.296875 
Q 44.09375 59.90625 40.109375 62.90625 
Q 36.140625 65.921875 28.71875 65.921875 
Q 24.65625 65.921875 20.015625 65.03125 
Q 15.375 64.15625 9.8125 62.3125 
L 9.8125 71.09375 
Q 15.4375 72.65625 20.34375 73.4375 
Q 25.25 74.21875 29.59375 74.21875 
Q 40.828125 74.21875 47.359375 69.109375 
Q 53.90625 64.015625 53.90625 55.328125 
Q 53.90625 49.265625 50.4375 45.09375 
Q 46.96875 40.921875 40.578125 39.3125 
z
" id="DejaVuSans-33"/>
      </defs>
      <g transform="translate(317.873295 392.598437)scale(0.1 -0.1)">
       <use xlink:href="#DejaVuSans-33"/>
      </g>
     </g>
    </g>
    <g id="xtick_5">
     <g id="line2d_5">
      <g>
       <use style="stroke:#000000;stroke-width:0.8;" x="381.927273" xlink:href="#m559040e10b" y="378"/>
      </g>
     </g>
     <g id="text_5">
      <!-- 4 -->
      <defs>
       <path d="M 37.796875 64.3125 
L 12.890625 25.390625 
L 37.796875 25.390625 
z
M 35.203125 72.90625 
L 47.609375 72.90625 
L 47.609375 25.390625 
L 58.015625 25.390625 
L 58.015625 17.1875 
L 47.609375 17.1875 
L 47.609375 0 
L 37.796875 0 
L 37.796875 17.1875 
L 4.890625 17.1875 
L 4.890625 26.703125 
z
" id="DejaVuSans-34"/>
      </defs>
      <g transform="translate(378.746023 392.598437)scale(0.1 -0.1)">
       <use xlink:href="#DejaVuSans-34"/>
      </g>
     </g>
    </g>
    <g id="xtick_6">
     <g id="line2d_6">
      <g>
       <use style="stroke:#000000;stroke-width:0.8;" x="442.8" xlink:href="#m559040e10b" y="378"/>
      </g>
     </g>
     <g id="text_6">
      <!-- 5 -->
      <defs>
       <path d="M 10.796875 72.90625 
L 49.515625 72.90625 
L 49.515625 64.59375 
L 19.828125 64.59375 
L 19.828125 46.734375 
Q 21.96875 47.46875 24.109375 47.828125 
Q 26.265625 48.1875 28.421875 48.1875 
Q 40.625 48.1875 47.75 41.5 
Q 54.890625 34.8125 54.890625 23.390625 
Q 54.890625 11.625 47.5625 5.09375 
Q 40.234375 -1.421875 26.90625 -1.421875 
Q 22.3125 -1.421875 17.546875 -0.640625 
Q 12.796875 0.140625 7.71875 1.703125 
L 7.71875 11.625 
Q 12.109375 9.234375 16.796875 8.0625 
Q 21.484375 6.890625 26.703125 6.890625 
Q 35.15625 6.890625 40.078125 11.328125 
Q 45.015625 15.765625 45.015625 23.390625 
Q 45.015625 31 40.078125 35.4375 
Q 35.15625 39.890625 26.703125 39.890625 
Q 22.75 39.890625 18.8125 39.015625 
Q 14.890625 38.140625 10.796875 36.28125 
z
" id="DejaVuSans-35"/>
      </defs>
      <g transform="translate(439.61875 392.598437)scale(0.1 -0.1)">
       <use xlink:href="#DejaVuSans-35"/>
      </g>
     </g>
    </g>
    <g id="xtick_7">
     <g id="line2d_7">
      <g>
       <use style="stroke:#000000;stroke-width:0.8;" x="503.672727" xlink:href="#m559040e10b" y="378"/>
      </g>
     </g>
     <g id="text_7">
      <!-- 6 -->
      <defs>
       <path d="M 33.015625 40.375 
Q 26.375 40.375 22.484375 35.828125 
Q 18.609375 31.296875 18.609375 23.390625 
Q 18.609375 15.53125 22.484375 10.953125 
Q 26.375 6.390625 33.015625 6.390625 
Q 39.65625 6.390625 43.53125 10.953125 
Q 47.40625 15.53125 47.40625 23.390625 
Q 47.40625 31.296875 43.53125 35.828125 
Q 39.65625 40.375 33.015625 40.375 
z
M 52.59375 71.296875 
L 52.59375 62.3125 
Q 48.875 64.0625 45.09375 64.984375 
Q 41.3125 65.921875 37.59375 65.921875 
Q 27.828125 65.921875 22.671875 59.328125 
Q 17.53125 52.734375 16.796875 39.40625 
Q 19.671875 43.65625 24.015625 45.921875 
Q 28.375 48.1875 33.59375 48.1875 
Q 44.578125 48.1875 50.953125 41.515625 
Q 57.328125 34.859375 57.328125 23.390625 
Q 57.328125 12.15625 50.6875 5.359375 
Q 44.046875 -1.421875 33.015625 -1.421875 
Q 20.359375 -1.421875 13.671875 8.265625 
Q 6.984375 17.96875 6.984375 36.375 
Q 6.984375 53.65625 15.1875 63.9375 
Q 23.390625 74.21875 37.203125 74.21875 
Q 40.921875 74.21875 44.703125 73.484375 
Q 48.484375 72.75 52.59375 71.296875 
z
" id="DejaVuSans-36"/>
      </defs>
      <g transform="translate(500.491477 392.598437)scale(0.1 -0.1)">
       <use xlink:href="#DejaVuSans-36"/>
      </g>
     </g>
    </g>
    <g id="xtick_8">
     <g id="line2d_8">
      <g>
       <use style="stroke:#000000;stroke-width:0.8;" x="564.545455" xlink:href="#m559040e10b" y="378"/>
      </g>
     </g>
     <g id="text_8">
      <!-- 7 -->
      <defs>
       <path d="M 8.203125 72.90625 
L 55.078125 72.90625 
L 55.078125 68.703125 
L 28.609375 0 
L 18.3125 0 
L 43.21875 64.59375 
L 8.203125 64.59375 
z
" id="DejaVuSans-37"/>
      </defs>
      <g transform="translate(561.364205 392.598437)scale(0.1 -0.1)">
       <use xlink:href="#DejaVuSans-37"/>
      </g>
     </g>
    </g>
    <g id="xtick_9">
     <g id="line2d_9">
      <g>
       <use style="stroke:#000000;stroke-width:0.8;" x="625.418182" xlink:href="#m559040e10b" y="378"/>
      </g>
     </g>
     <g id="text_9">
      <!-- 8 -->
      <defs>
       <path d="M 31.78125 34.625 
Q 24.75 34.625 20.71875 30.859375 
Q 16.703125 27.09375 16.703125 20.515625 
Q 16.703125 13.921875 20.71875 10.15625 
Q 24.75 6.390625 31.78125 6.390625 
Q 38.8125 6.390625 42.859375 10.171875 
Q 46.921875 13.96875 46.921875 20.515625 
Q 46.921875 27.09375 42.890625 30.859375 
Q 38.875 34.625 31.78125 34.625 
z
M 21.921875 38.8125 
Q 15.578125 40.375 12.03125 44.71875 
Q 8.5 49.078125 8.5 55.328125 
Q 8.5 64.0625 14.71875 69.140625 
Q 20.953125 74.21875 31.78125 74.21875 
Q 42.671875 74.21875 48.875 69.140625 
Q 55.078125 64.0625 55.078125 55.328125 
Q 55.078125 49.078125 51.53125 44.71875 
Q 48 40.375 41.703125 38.8125 
Q 48.828125 37.15625 52.796875 32.3125 
Q 56.78125 27.484375 56.78125 20.515625 
Q 56.78125 9.90625 50.3125 4.234375 
Q 43.84375 -1.421875 31.78125 -1.421875 
Q 19.734375 -1.421875 13.25 4.234375 
Q 6.78125 9.90625 6.78125 20.515625 
Q 6.78125 27.484375 10.78125 32.3125 
Q 14.796875 37.15625 21.921875 38.8125 
z
M 18.3125 54.390625 
Q 18.3125 48.734375 21.84375 45.5625 
Q 25.390625 42.390625 31.78125 42.390625 
Q 38.140625 42.390625 41.71875 45.5625 
Q 45.3125 48.734375 45.3125 54.390625 
Q 45.3125 60.0625 41.71875 63.234375 
Q 38.140625 66.40625 31.78125 66.40625 
Q 25.390625 66.40625 21.84375 63.234375 
Q 18.3125 60.0625 18.3125 54.390625 
z
" id="DejaVuSans-38"/>
      </defs>
      <g transform="translate(622.236932 392.598437)scale(0.1 -0.1)">
       <use xlink:href="#DejaVuSans-38"/>
      </g>
     </g>
    </g>
    <g id="xtick_10">
     <g id="line2d_10">
      <g>
       <use style="stroke:#000000;stroke-width:0.8;" x="686.290909" xlink:href="#m559040e10b" y="378"/>
      </g>
     </g>
     <g id="text_10">
      <!-- 9 -->
      <defs>
       <path d="M 10.984375 1.515625 
L 10.984375 10.5 
Q 14.703125 8.734375 18.5 7.8125 
Q 22.3125 6.890625 25.984375 6.890625 
Q 35.75 6.890625 40.890625 13.453125 
Q 46.046875 20.015625 46.78125 33.40625 
Q 43.953125 29.203125 39.59375 26.953125 
Q 35.25 24.703125 29.984375 24.703125 
Q 19.046875 24.703125 12.671875 31.3125 
Q 6.296875 37.9375 6.296875 49.421875 
Q 6.296875 60.640625 12.9375 67.421875 
Q 19.578125 74.21875 30.609375 74.21875 
Q 43.265625 74.21875 49.921875 64.515625 
Q 56.59375 54.828125 56.59375 36.375 
Q 56.59375 19.140625 48.40625 8.859375 
Q 40.234375 -1.421875 26.421875 -1.421875 
Q 22.703125 -1.421875 18.890625 -0.6875 
Q 15.09375 0.046875 10.984375 1.515625 
z
M 30.609375 32.421875 
Q 37.25 32.421875 41.125 36.953125 
Q 45.015625 41.5 45.015625 49.421875 
Q 45.015625 57.28125 41.125 61.84375 
Q 37.25 66.40625 30.609375 66.40625 
Q 23.96875 66.40625 20.09375 61.84375 
Q 16.21875 57.28125 16.21875 49.421875 
Q 16.21875 41.5 20.09375 36.953125 
Q 23.96875 32.421875 30.609375 32.421875 
z
" id="DejaVuSans-39"/>
      </defs>
      <g transform="translate(683.109659 392.598437)scale(0.1 -0.1)">
       <use xlink:href="#DejaVuSans-39"/>
      </g>
     </g>
    </g>
    <g id="xtick_11">
     <g id="line2d_11">
      <g>
       <use style="stroke:#000000;stroke-width:0.8;" x="747.163636" xlink:href="#m559040e10b" y="378"/>
      </g>
     </g>
     <g id="text_11">
      <!-- 10 -->
      <g transform="translate(740.801136 392.598437)scale(0.1 -0.1)">
       <use xlink:href="#DejaVuSans-31"/>
       <use x="63.623047" xlink:href="#DejaVuSans-30"/>
      </g>
     </g>
    </g>
   </g>
   <g id="matplotlib.axis_2">
    <g id="ytick_1">
     <g id="line2d_12">
      <defs>
       <path d="M 0 0 
L -3.5 0 
" id="m3cfc281a8f" style="stroke:#000000;stroke-width:0.8;"/>
      </defs>
      <g>
       <use style="stroke:#000000;stroke-width:0.8;" x="108" xlink:href="#m3cfc281a8f" y="378"/>
      </g>
     </g>
     <g id="text_12">
      <!-- 0.0 -->
      <defs>
       <path d="M 10.6875 12.40625 
L 21 12.40625 
L 21 0 
L 10.6875 0 
z
" id="DejaVuSans-2e"/>
      </defs>
      <g transform="translate(85.096875 381.799219)scale(0.1 -0.1)">
       <use xlink:href="#DejaVuSans-30"/>
       <use x="63.623047" xlink:href="#DejaVuSans-2e"/>
       <use x="95.410156" xlink:href="#DejaVuSans-30"/>
      </g>
     </g>
    </g>
    <g id="ytick_2">
     <g id="line2d_13">
      <g>
       <use style="stroke:#000000;stroke-width:0.8;" x="108" xlink:href="#m3cfc281a8f" y="346.804654"/>
      </g>
     </g>
     <g id="text_13">
      <!-- 0.1 -->
      <g transform="translate(85.096875 350.603872)scale(0.1 -0.1)">
       <use xlink:href="#DejaVuSans-30"/>
       <use x="63.623047" xlink:href="#DejaVuSans-2e"/>
       <use x="95.410156" xlink:href="#DejaVuSans-31"/>
      </g>
     </g>
    </g>
    <g id="ytick_3">
     <g id="line2d_14">
      <g>
       <use style="stroke:#000000;stroke-width:0.8;" x="108" xlink:href="#m3cfc281a8f" y="315.609307"/>
      </g>
     </g>
     <g id="text_14">
      <!-- 0.2 -->
      <g transform="translate(85.096875 319.408526)scale(0.1 -0.1)">
       <use xlink:href="#DejaVuSans-30"/>
       <use x="63.623047" xlink:href="#DejaVuSans-2e"/>
       <use x="95.410156" xlink:href="#DejaVuSans-32"/>
      </g>
     </g>
    </g>
    <g id="ytick_4">
     <g id="line2d_15">
      <g>
       <use style="stroke:#000000;stroke-width:0.8;" x="108" xlink:href="#m3cfc281a8f" y="284.413961"/>
      </g>
     </g>
     <g id="text_15">
      <!-- 0.3 -->
      <g transform="translate(85.096875 288.213179)scale(0.1 -0.1)">
       <use xlink:href="#DejaVuSans-30"/>
       <use x="63.623047" xlink:href="#DejaVuSans-2e"/>
       <use x="95.410156" xlink:href="#DejaVuSans-33"/>
      </g>
     </g>
    </g>
    <g id="ytick_5">
     <g id="line2d_16">
      <g>
       <use style="stroke:#000000;stroke-width:0.8;" x="108" xlink:href="#m3cfc281a8f" y="253.218614"/>
      </g>
     </g>
     <g id="text_16">
      <!-- 0.4 -->
      <g transform="translate(85.096875 257.017833)scale(0.1 -0.1)">
       <use xlink:href="#DejaVuSans-30"/>
       <use x="63.623047" xlink:href="#DejaVuSans-2e"/>
       <use x="95.410156" xlink:href="#DejaVuSans-34"/>
      </g>
     </g>
    </g>
    <g id="ytick_6">
     <g id="line2d_17">
      <g>
       <use style="stroke:#000000;stroke-width:0.8;" x="108" xlink:href="#m3cfc281a8f" y="222.023268"/>
      </g>
     </g>
     <g id="text_17">
      <!-- 0.5 -->
      <g transform="translate(85.096875 225.822487)scale(0.1 -0.1)">
       <use xlink:href="#DejaVuSans-30"/>
       <use x="63.623047" xlink:href="#DejaVuSans-2e"/>
       <use x="95.410156" xlink:href="#DejaVuSans-35"/>
      </g>
     </g>
    </g>
    <g id="ytick_7">
     <g id="line2d_18">
      <g>
       <use style="stroke:#000000;stroke-width:0.8;" x="108" xlink:href="#m3cfc281a8f" y="190.827921"/>
      </g>
     </g>
     <g id="text_18">
      <!-- 0.6 -->
      <g transform="translate(85.096875 194.62714)scale(0.1 -0.1)">
       <use xlink:href="#DejaVuSans-30"/>
       <use x="63.623047" xlink:href="#DejaVuSans-2e"/>
       <use x="95.410156" xlink:href="#DejaVuSans-36"/>
      </g>
     </g>
    </g>
    <g id="ytick_8">
     <g id="line2d_19">
      <g>
       <use style="stroke:#000000;stroke-width:0.8;" x="108" xlink:href="#m3cfc281a8f" y="159.632575"/>
      </g>
     </g>
     <g id="text_19">
      <!-- 0.7 -->
      <g transform="translate(85.096875 163.431794)scale(0.1 -0.1)">
       <use xlink:href="#DejaVuSans-30"/>
       <use x="63.623047" xlink:href="#DejaVuSans-2e"/>
       <use x="95.410156" xlink:href="#DejaVuSans-37"/>
      </g>
     </g>
    </g>
    <g id="ytick_9">
     <g id="line2d_20">
      <g>
       <use style="stroke:#000000;stroke-width:0.8;" x="108" xlink:href="#m3cfc281a8f" y="128.437229"/>
      </g>
     </g>
     <g id="text_20">
      <!-- 0.8 -->
      <g transform="translate(85.096875 132.236447)scale(0.1 -0.1)">
       <use xlink:href="#DejaVuSans-30"/>
       <use x="63.623047" xlink:href="#DejaVuSans-2e"/>
       <use x="95.410156" xlink:href="#DejaVuSans-38"/>
      </g>
     </g>
    </g>
    <g id="ytick_10">
     <g id="line2d_21">
      <g>
       <use style="stroke:#000000;stroke-width:0.8;" x="108" xlink:href="#m3cfc281a8f" y="97.241882"/>
      </g>
     </g>
     <g id="text_21">
      <!-- 0.9 -->
      <g transform="translate(85.096875 101.041101)scale(0.1 -0.1)">
       <use xlink:href="#DejaVuSans-30"/>
       <use x="63.623047" xlink:href="#DejaVuSans-2e"/>
       <use x="95.410156" xlink:href="#DejaVuSans-39"/>
      </g>
     </g>
    </g>
    <g id="ytick_11">
     <g id="line2d_22">
      <g>
       <use style="stroke:#000000;stroke-width:0.8;" x="108" xlink:href="#m3cfc281a8f" y="66.046536"/>
      </g>
     </g>
     <g id="text_22">
      <!-- 1.0 -->
      <g transform="translate(85.096875 69.845754)scale(0.1 -0.1)">
       <use xlink:href="#DejaVuSans-31"/>
       <use x="63.623047" xlink:href="#DejaVuSans-2e"/>
       <use x="95.410156" xlink:href="#DejaVuSans-30"/>
      </g>
     </g>
    </g>
   </g>
   <g id="line2d_23">
    <path clip-path="url(#p7edc6886a0)" d="M 138.436364 198.916169 
L 199.309091 99.524643 
L 260.181818 71.943495 
L 321.054545 66.840982 
L 381.927273 66.133009 
L 442.8 66.054424 
L 503.672727 66.047155 
L 564.545455 66.046578 
L 625.418182 66.046538 
L 686.290909 66.046536 
L 747.163636 66.046536 
" style="fill:none;stroke:#1f77b4;stroke-dasharray:5.55,2.4;stroke-dashoffset:0;stroke-width:1.5;"/>
    <defs>
     <path d="M 0 3 
C 0.795609 3 1.55874 2.683901 2.12132 2.12132 
C 2.683901 1.55874 3 0.795609 3 0 
C 3 -0.795609 2.683901 -1.55874 2.12132 -2.12132 
C 1.55874 -2.683901 0.795609 -3 0 -3 
C -0.795609 -3 -1.55874 -2.683901 -2.12132 -2.12132 
C -2.683901 -1.55874 -3 -0.795609 -3 0 
C -3 0.795609 -2.683901 1.55874 -2.12132 2.12132 
C -1.55874 2.683901 -0.795609 3 0 3 
z
" id="mac34701005" style="stroke:#1f77b4;"/>
    </defs>
    <g clip-path="url(#p7edc6886a0)">
     <use style="fill:#1f77b4;stroke:#1f77b4;" x="138.436364" xlink:href="#mac34701005" y="198.916169"/>
     <use style="fill:#1f77b4;stroke:#1f77b4;" x="199.309091" xlink:href="#mac34701005" y="99.524643"/>
     <use style="fill:#1f77b4;stroke:#1f77b4;" x="260.181818" xlink:href="#mac34701005" y="71.943495"/>
     <use style="fill:#1f77b4;stroke:#1f77b4;" x="321.054545" xlink:href="#mac34701005" y="66.840982"/>
     <use style="fill:#1f77b4;stroke:#1f77b4;" x="381.927273" xlink:href="#mac34701005" y="66.133009"/>
     <use style="fill:#1f77b4;stroke:#1f77b4;" x="442.8" xlink:href="#mac34701005" y="66.054424"/>
     <use style="fill:#1f77b4;stroke:#1f77b4;" x="503.672727" xlink:href="#mac34701005" y="66.047155"/>
     <use style="fill:#1f77b4;stroke:#1f77b4;" x="564.545455" xlink:href="#mac34701005" y="66.046578"/>
     <use style="fill:#1f77b4;stroke:#1f77b4;" x="625.418182" xlink:href="#mac34701005" y="66.046538"/>
     <use style="fill:#1f77b4;stroke:#1f77b4;" x="686.290909" xlink:href="#mac34701005" y="66.046536"/>
     <use style="fill:#1f77b4;stroke:#1f77b4;" x="747.163636" xlink:href="#mac34701005" y="66.046536"/>
    </g>
   </g>
   <g id="line2d_24">
    <path clip-path="url(#p7edc6886a0)" d="M 138.436364 283.002172 
L 199.309091 170.049755 
L 260.181818 102.899544 
L 321.054545 76.285676 
L 381.927273 68.374704 
L 442.8 66.493475 
L 503.672727 66.120678 
L 564.545455 66.057356 
L 625.418182 66.047945 
L 686.290909 66.046701 
L 747.163636 66.046553 
" style="fill:none;stroke:#ff7f0e;stroke-dasharray:5.55,2.4;stroke-dashoffset:0;stroke-width:1.5;"/>
    <defs>
     <path d="M 0 3 
C 0.795609 3 1.55874 2.683901 2.12132 2.12132 
C 2.683901 1.55874 3 0.795609 3 0 
C 3 -0.795609 2.683901 -1.55874 2.12132 -2.12132 
C 1.55874 -2.683901 0.795609 -3 0 -3 
C -0.795609 -3 -1.55874 -2.683901 -2.12132 -2.12132 
C -2.683901 -1.55874 -3 -0.795609 -3 0 
C -3 0.795609 -2.683901 1.55874 -2.12132 2.12132 
C -1.55874 2.683901 -0.795609 3 0 3 
z
" id="m83c9bcfd6c" style="stroke:#ff7f0e;"/>
    </defs>
    <g clip-path="url(#p7edc6886a0)">
     <use style="fill:#ff7f0e;stroke:#ff7f0e;" x="138.436364" xlink:href="#m83c9bcfd6c" y="283.002172"/>
     <use style="fill:#ff7f0e;stroke:#ff7f0e;" x="199.309091" xlink:href="#m83c9bcfd6c" y="170.049755"/>
     <use style="fill:#ff7f0e;stroke:#ff7f0e;" x="260.181818" xlink:href="#m83c9bcfd6c" y="102.899544"/>
     <use style="fill:#ff7f0e;stroke:#ff7f0e;" x="321.054545" xlink:href="#m83c9bcfd6c" y="76.285676"/>
     <use style="fill:#ff7f0e;stroke:#ff7f0e;" x="381.927273" xlink:href="#m83c9bcfd6c" y="68.374704"/>
     <use style="fill:#ff7f0e;stroke:#ff7f0e;" x="442.8" xlink:href="#m83c9bcfd6c" y="66.493475"/>
     <use style="fill:#ff7f0e;stroke:#ff7f0e;" x="503.672727" xlink:href="#m83c9bcfd6c" y="66.120678"/>
     <use style="fill:#ff7f0e;stroke:#ff7f0e;" x="564.545455" xlink:href="#m83c9bcfd6c" y="66.057356"/>
     <use style="fill:#ff7f0e;stroke:#ff7f0e;" x="625.418182" xlink:href="#m83c9bcfd6c" y="66.047945"/>
     <use style="fill:#ff7f0e;stroke:#ff7f0e;" x="686.290909" xlink:href="#m83c9bcfd6c" y="66.046701"/>
     <use style="fill:#ff7f0e;stroke:#ff7f0e;" x="747.163636" xlink:href="#m83c9bcfd6c" y="66.046553"/>
    </g>
   </g>
   <g id="line2d_25">
    <path clip-path="url(#p7edc6886a0)" d="M 138.436364 313.293994 
L 199.309091 211.511447 
L 260.181818 131.459473 
L 321.054545 89.485555 
L 381.927273 72.979312 
L 442.8 67.786448 
L 503.672727 66.425052 
L 564.545455 66.119127 
L 625.418182 66.058974 
L 686.290909 66.048461 
L 747.163636 66.046807 
" style="fill:none;stroke:#2ca02c;stroke-dasharray:5.55,2.4;stroke-dashoffset:0;stroke-width:1.5;"/>
    <defs>
     <path d="M 0 3 
C 0.795609 3 1.55874 2.683901 2.12132 2.12132 
C 2.683901 1.55874 3 0.795609 3 0 
C 3 -0.795609 2.683901 -1.55874 2.12132 -2.12132 
C 1.55874 -2.683901 0.795609 -3 0 -3 
C -0.795609 -3 -1.55874 -2.683901 -2.12132 -2.12132 
C -2.683901 -1.55874 -3 -0.795609 -3 0 
C -3 0.795609 -2.683901 1.55874 -2.12132 2.12132 
C -1.55874 2.683901 -0.795609 3 0 3 
z
" id="mfdf2deb575" style="stroke:#2ca02c;"/>
    </defs>
    <g clip-path="url(#p7edc6886a0)">
     <use style="fill:#2ca02c;stroke:#2ca02c;" x="138.436364" xlink:href="#mfdf2deb575" y="313.293994"/>
     <use style="fill:#2ca02c;stroke:#2ca02c;" x="199.309091" xlink:href="#mfdf2deb575" y="211.511447"/>
     <use style="fill:#2ca02c;stroke:#2ca02c;" x="260.181818" xlink:href="#mfdf2deb575" y="131.459473"/>
     <use style="fill:#2ca02c;stroke:#2ca02c;" x="321.054545" xlink:href="#mfdf2deb575" y="89.485555"/>
     <use style="fill:#2ca02c;stroke:#2ca02c;" x="381.927273" xlink:href="#mfdf2deb575" y="72.979312"/>
     <use style="fill:#2ca02c;stroke:#2ca02c;" x="442.8" xlink:href="#mfdf2deb575" y="67.786448"/>
     <use style="fill:#2ca02c;stroke:#2ca02c;" x="503.672727" xlink:href="#mfdf2deb575" y="66.425052"/>
     <use style="fill:#2ca02c;stroke:#2ca02c;" x="564.545455" xlink:href="#mfdf2deb575" y="66.119127"/>
     <use style="fill:#2ca02c;stroke:#2ca02c;" x="625.418182" xlink:href="#mfdf2deb575" y="66.058974"/>
     <use style="fill:#2ca02c;stroke:#2ca02c;" x="686.290909" xlink:href="#mfdf2deb575" y="66.048461"/>
     <use style="fill:#2ca02c;stroke:#2ca02c;" x="747.163636" xlink:href="#mfdf2deb575" y="66.046807"/>
    </g>
   </g>
   <g id="line2d_26">
    <path clip-path="url(#p7edc6886a0)" d="M 138.436364 337.920939 
L 199.309091 255.678706 
L 260.181818 171.298176 
L 321.054545 113.581892 
L 381.927273 83.973439 
L 442.8 71.82213 
L 503.672727 67.666382 
L 564.545455 66.448154 
L 625.418182 66.135679 
L 686.290909 66.064435 
L 747.163636 66.049815 
" style="fill:none;stroke:#d62728;stroke-dasharray:5.55,2.4;stroke-dashoffset:0;stroke-width:1.5;"/>
    <defs>
     <path d="M 0 3 
C 0.795609 3 1.55874 2.683901 2.12132 2.12132 
C 2.683901 1.55874 3 0.795609 3 0 
C 3 -0.795609 2.683901 -1.55874 2.12132 -2.12132 
C 1.55874 -2.683901 0.795609 -3 0 -3 
C -0.795609 -3 -1.55874 -2.683901 -2.12132 -2.12132 
C -2.683901 -1.55874 -3 -0.795609 -3 0 
C -3 0.795609 -2.683901 1.55874 -2.12132 2.12132 
C -1.55874 2.683901 -0.795609 3 0 3 
z
" id="me672aa84e1" style="stroke:#d62728;"/>
    </defs>
    <g clip-path="url(#p7edc6886a0)">
     <use style="fill:#d62728;stroke:#d62728;" x="138.436364" xlink:href="#me672aa84e1" y="337.920939"/>
     <use style="fill:#d62728;stroke:#d62728;" x="199.309091" xlink:href="#me672aa84e1" y="255.678706"/>
     <use style="fill:#d62728;stroke:#d62728;" x="260.181818" xlink:href="#me672aa84e1" y="171.298176"/>
     <use style="fill:#d62728;stroke:#d62728;" x="321.054545" xlink:href="#me672aa84e1" y="113.581892"/>
     <use style="fill:#d62728;stroke:#d62728;" x="381.927273" xlink:href="#me672aa84e1" y="83.973439"/>
     <use style="fill:#d62728;stroke:#d62728;" x="442.8" xlink:href="#me672aa84e1" y="71.82213"/>
     <use style="fill:#d62728;stroke:#d62728;" x="503.672727" xlink:href="#me672aa84e1" y="67.666382"/>
     <use style="fill:#d62728;stroke:#d62728;" x="564.545455" xlink:href="#me672aa84e1" y="66.448154"/>
     <use style="fill:#d62728;stroke:#d62728;" x="625.418182" xlink:href="#me672aa84e1" y="66.135679"/>
     <use style="fill:#d62728;stroke:#d62728;" x="686.290909" xlink:href="#me672aa84e1" y="66.064435"/>
     <use style="fill:#d62728;stroke:#d62728;" x="747.163636" xlink:href="#me672aa84e1" y="66.049815"/>
    </g>
   </g>
   <g id="line2d_27">
    <path clip-path="url(#p7edc6886a0)" d="M 138.436364 350.17725 
L 199.309091 282.929664 
L 260.181818 201.660956 
L 321.054545 136.185467 
L 381.927273 96.621903 
L 442.8 77.496876 
L 503.672727 69.792677 
L 564.545455 67.132528 
L 625.418182 66.32883 
L 686.290909 66.112993 
L 747.163636 66.060825 
" style="fill:none;stroke:#9467bd;stroke-dasharray:5.55,2.4;stroke-dashoffset:0;stroke-width:1.5;"/>
    <defs>
     <path d="M 0 3 
C 0.795609 3 1.55874 2.683901 2.12132 2.12132 
C 2.683901 1.55874 3 0.795609 3 0 
C 3 -0.795609 2.683901 -1.55874 2.12132 -2.12132 
C 1.55874 -2.683901 0.795609 -3 0 -3 
C -0.795609 -3 -1.55874 -2.683901 -2.12132 -2.12132 
C -2.683901 -1.55874 -3 -0.795609 -3 0 
C -3 0.795609 -2.683901 1.55874 -2.12132 2.12132 
C -1.55874 2.683901 -0.795609 3 0 3 
z
" id="m6f2774395f" style="stroke:#9467bd;"/>
    </defs>
    <g clip-path="url(#p7edc6886a0)">
     <use style="fill:#9467bd;stroke:#9467bd;" x="138.436364" xlink:href="#m6f2774395f" y="350.17725"/>
     <use style="fill:#9467bd;stroke:#9467bd;" x="199.309091" xlink:href="#m6f2774395f" y="282.929664"/>
     <use style="fill:#9467bd;stroke:#9467bd;" x="260.181818" xlink:href="#m6f2774395f" y="201.660956"/>
     <use style="fill:#9467bd;stroke:#9467bd;" x="321.054545" xlink:href="#m6f2774395f" y="136.185467"/>
     <use style="fill:#9467bd;stroke:#9467bd;" x="381.927273" xlink:href="#m6f2774395f" y="96.621903"/>
     <use style="fill:#9467bd;stroke:#9467bd;" x="442.8" xlink:href="#m6f2774395f" y="77.496876"/>
     <use style="fill:#9467bd;stroke:#9467bd;" x="503.672727" xlink:href="#m6f2774395f" y="69.792677"/>
     <use style="fill:#9467bd;stroke:#9467bd;" x="564.545455" xlink:href="#m6f2774395f" y="67.132528"/>
     <use style="fill:#9467bd;stroke:#9467bd;" x="625.418182" xlink:href="#m6f2774395f" y="66.32883"/>
     <use style="fill:#9467bd;stroke:#9467bd;" x="686.290909" xlink:href="#m6f2774395f" y="66.112993"/>
     <use style="fill:#9467bd;stroke:#9467bd;" x="747.163636" xlink:href="#m6f2774395f" y="66.060825"/>
    </g>
   </g>
   <g id="patch_3">
    <path d="M 108 378 
L 108 51.84 
" style="fill:none;stroke:#000000;stroke-linecap:square;stroke-linejoin:miter;stroke-width:0.8;"/>
   </g>
   <g id="patch_4">
    <path d="M 777.6 378 
L 777.6 51.84 
" style="fill:none;stroke:#000000;stroke-linecap:square;stroke-linejoin:miter;stroke-width:0.8;"/>
   </g>
   <g id="patch_5">
    <path d="M 108 378 
L 777.6 378 
" style="fill:none;stroke:#000000;stroke-linecap:square;stroke-linejoin:miter;stroke-width:0.8;"/>
   </g>
   <g id="patch_6">
    <path d="M 108 51.84 
L 777.6 51.84 
" style="fill:none;stroke:#000000;stroke-linecap:square;stroke-linejoin:miter;stroke-width:0.8;"/>
   </g>
   <g id="legend_1">
    <g id="patch_7">
     <path d="M 644.99625 370.8 
L 767.52 370.8 
Q 770.4 370.8 770.4 367.92 
L 770.4 263.6775 
Q 770.4 260.7975 767.52 260.7975 
L 644.99625 260.7975 
Q 642.11625 260.7975 642.11625 263.6775 
L 642.11625 367.92 
Q 642.11625 370.8 644.99625 370.8 
z
" style="fill:#ffffff;opacity:0.8;stroke:#cccccc;stroke-linejoin:miter;"/>
    </g>
    <g id="line2d_28">
     <path d="M 647.87625 272.45925 
L 676.67625 272.45925 
" style="fill:none;stroke:#1f77b4;stroke-dasharray:5.55,2.4;stroke-dashoffset:0;stroke-width:1.5;"/>
    </g>
    <g id="line2d_29">
     <g>
      <use style="fill:#1f77b4;stroke:#1f77b4;" x="662.27625" xlink:href="#mac34701005" y="272.45925"/>
     </g>
    </g>
    <g id="text_23">
     <!-- mu=0.555 -->
     <defs>
      <path d="M 52 44.1875 
Q 55.375 50.25 60.0625 53.125 
Q 64.75 56 71.09375 56 
Q 79.640625 56 84.28125 50.015625 
Q 88.921875 44.046875 88.921875 33.015625 
L 88.921875 0 
L 79.890625 0 
L 79.890625 32.71875 
Q 79.890625 40.578125 77.09375 44.375 
Q 74.3125 48.1875 68.609375 48.1875 
Q 61.625 48.1875 57.5625 43.546875 
Q 53.515625 38.921875 53.515625 30.90625 
L 53.515625 0 
L 44.484375 0 
L 44.484375 32.71875 
Q 44.484375 40.625 41.703125 44.40625 
Q 38.921875 48.1875 33.109375 48.1875 
Q 26.21875 48.1875 22.15625 43.53125 
Q 18.109375 38.875 18.109375 30.90625 
L 18.109375 0 
L 9.078125 0 
L 9.078125 54.6875 
L 18.109375 54.6875 
L 18.109375 46.1875 
Q 21.1875 51.21875 25.484375 53.609375 
Q 29.78125 56 35.6875 56 
Q 41.65625 56 45.828125 52.96875 
Q 50 49.953125 52 44.1875 
z
" id="DejaVuSans-6d"/>
      <path d="M 8.5 21.578125 
L 8.5 54.6875 
L 17.484375 54.6875 
L 17.484375 21.921875 
Q 17.484375 14.15625 20.5 10.265625 
Q 23.53125 6.390625 29.59375 6.390625 
Q 36.859375 6.390625 41.078125 11.03125 
Q 45.3125 15.671875 45.3125 23.6875 
L 45.3125 54.6875 
L 54.296875 54.6875 
L 54.296875 0 
L 45.3125 0 
L 45.3125 8.40625 
Q 42.046875 3.421875 37.71875 1 
Q 33.40625 -1.421875 27.6875 -1.421875 
Q 18.265625 -1.421875 13.375 4.4375 
Q 8.5 10.296875 8.5 21.578125 
z
M 31.109375 56 
z
" id="DejaVuSans-75"/>
      <path d="M 10.59375 45.40625 
L 73.1875 45.40625 
L 73.1875 37.203125 
L 10.59375 37.203125 
z
M 10.59375 25.484375 
L 73.1875 25.484375 
L 73.1875 17.1875 
L 10.59375 17.1875 
z
" id="DejaVuSans-3d"/>
     </defs>
     <g transform="translate(688.19625 277.49925)scale(0.144 -0.144)">
      <use xlink:href="#DejaVuSans-6d"/>
      <use x="97.412109" xlink:href="#DejaVuSans-75"/>
      <use x="160.791016" xlink:href="#DejaVuSans-3d"/>
      <use x="244.580078" xlink:href="#DejaVuSans-30"/>
      <use x="308.203125" xlink:href="#DejaVuSans-2e"/>
      <use x="339.990234" xlink:href="#DejaVuSans-35"/>
      <use x="403.613281" xlink:href="#DejaVuSans-35"/>
      <use x="467.236328" xlink:href="#DejaVuSans-35"/>
     </g>
    </g>
    <g id="line2d_30">
     <path d="M 647.87625 293.59575 
L 676.67625 293.59575 
" style="fill:none;stroke:#ff7f0e;stroke-dasharray:5.55,2.4;stroke-dashoffset:0;stroke-width:1.5;"/>
    </g>
    <g id="line2d_31">
     <g>
      <use style="fill:#ff7f0e;stroke:#ff7f0e;" x="662.27625" xlink:href="#m83c9bcfd6c" y="293.59575"/>
     </g>
    </g>
    <g id="text_24">
     <!-- mu=1.189 -->
     <g transform="translate(688.19625 298.63575)scale(0.144 -0.144)">
      <use xlink:href="#DejaVuSans-6d"/>
      <use x="97.412109" xlink:href="#DejaVuSans-75"/>
      <use x="160.791016" xlink:href="#DejaVuSans-3d"/>
      <use x="244.580078" xlink:href="#DejaVuSans-31"/>
      <use x="308.203125" xlink:href="#DejaVuSans-2e"/>
      <use x="339.990234" xlink:href="#DejaVuSans-31"/>
      <use x="403.613281" xlink:href="#DejaVuSans-38"/>
      <use x="467.236328" xlink:href="#DejaVuSans-39"/>
     </g>
    </g>
    <g id="line2d_32">
     <path d="M 647.87625 314.73225 
L 676.67625 314.73225 
" style="fill:none;stroke:#2ca02c;stroke-dasharray:5.55,2.4;stroke-dashoffset:0;stroke-width:1.5;"/>
    </g>
    <g id="line2d_33">
     <g>
      <use style="fill:#2ca02c;stroke:#2ca02c;" x="662.27625" xlink:href="#mfdf2deb575" y="314.73225"/>
     </g>
    </g>
    <g id="text_25">
     <!-- mu=1.573 -->
     <g transform="translate(688.19625 319.77225)scale(0.144 -0.144)">
      <use xlink:href="#DejaVuSans-6d"/>
      <use x="97.412109" xlink:href="#DejaVuSans-75"/>
      <use x="160.791016" xlink:href="#DejaVuSans-3d"/>
      <use x="244.580078" xlink:href="#DejaVuSans-31"/>
      <use x="308.203125" xlink:href="#DejaVuSans-2e"/>
      <use x="339.990234" xlink:href="#DejaVuSans-35"/>
      <use x="403.613281" xlink:href="#DejaVuSans-37"/>
      <use x="467.236328" xlink:href="#DejaVuSans-33"/>
     </g>
    </g>
    <g id="line2d_34">
     <path d="M 647.87625 335.86875 
L 676.67625 335.86875 
" style="fill:none;stroke:#d62728;stroke-dasharray:5.55,2.4;stroke-dashoffset:0;stroke-width:1.5;"/>
    </g>
    <g id="line2d_35">
     <g>
      <use style="fill:#d62728;stroke:#d62728;" x="662.27625" xlink:href="#me672aa84e1" y="335.86875"/>
     </g>
    </g>
    <g id="text_26">
     <!-- mu=2.052 -->
     <g transform="translate(688.19625 340.90875)scale(0.144 -0.144)">
      <use xlink:href="#DejaVuSans-6d"/>
      <use x="97.412109" xlink:href="#DejaVuSans-75"/>
      <use x="160.791016" xlink:href="#DejaVuSans-3d"/>
      <use x="244.580078" xlink:href="#DejaVuSans-32"/>
      <use x="308.203125" xlink:href="#DejaVuSans-2e"/>
      <use x="339.990234" xlink:href="#DejaVuSans-30"/>
      <use x="403.613281" xlink:href="#DejaVuSans-35"/>
      <use x="467.236328" xlink:href="#DejaVuSans-32"/>
     </g>
    </g>
    <g id="line2d_36">
     <path d="M 647.87625 357.00525 
L 676.67625 357.00525 
" style="fill:none;stroke:#9467bd;stroke-dasharray:5.55,2.4;stroke-dashoffset:0;stroke-width:1.5;"/>
    </g>
    <g id="line2d_37">
     <g>
      <use style="fill:#9467bd;stroke:#9467bd;" x="662.27625" xlink:href="#m6f2774395f" y="357.00525"/>
     </g>
    </g>
    <g id="text_27">
     <!-- mu=2.417 -->
     <g transform="translate(688.19625 362.04525)scale(0.144 -0.144)">
      <use xlink:href="#DejaVuSans-6d"/>
      <use x="97.412109" xlink:href="#DejaVuSans-75"/>
      <use x="160.791016" xlink:href="#DejaVuSans-3d"/>
      <use x="244.580078" xlink:href="#DejaVuSans-32"/>
      <use x="308.203125" xlink:href="#DejaVuSans-2e"/>
      <use x="339.990234" xlink:href="#DejaVuSans-34"/>
      <use x="403.613281" xlink:href="#DejaVuSans-31"/>
      <use x="467.236328" xlink:href="#DejaVuSans-37"/>
     </g>
    </g>
   </g>
  </g>
 </g>
 <defs>
  <clipPath id="p7edc6886a0">
   <rect height="326.16" width="669.6" x="108" y="51.84"/>
  </clipPath>
 </defs>
</svg>
