<?xml version="1.0" encoding="UTF-8" standalone="no"?>
<!DOCTYPE svg PUBLIC "-//W3C//DTD SVG 1.1//EN"
 "http://www.w3.org/Graphics/SVG/1.1/DTD/svg11.dtd">
<!-- Generated by graphviz version 2.40.1 (20161225.0304)
 -->
<!-- Title: %3 Pages: 1 -->
<svg width="134pt" height="116pt"
 viewBox="0.00 0.00 134.00 116.00" xmlns="http://www.w3.org/2000/svg" xmlns:xlink="http://www.w3.org/1999/xlink">
<g id="graph0" class="graph" transform="scale(1 1) rotate(0) translate(4 112)">
<title>%3</title>
<polygon fill="#ffffff" stroke="transparent" points="-4,4 -4,-112 130,-112 130,4 -4,4"/>
<!-- A -->
<g id="node1" class="node">
<title>A</title>
<ellipse fill="none" stroke="#000000" cx="63" cy="-90" rx="27" ry="18"/>
<text text-anchor="middle" x="63" y="-85.8" font-family="Times,serif" font-size="14.00" fill="#000000">A</text>
</g>
<!-- B -->
<g id="node2" class="node">
<title>B</title>
<ellipse fill="none" stroke="#000000" cx="27" cy="-18" rx="27" ry="18"/>
<text text-anchor="middle" x="27" y="-13.8" font-family="Times,serif" font-size="14.00" fill="#000000">B</text>
</g>
<!-- A&#45;&gt;B -->
<g id="edge1" class="edge">
<title>A&#45;&gt;B</title>
<path fill="none" stroke="#000000" d="M49.5101,-74.3771C44.2925,-65.9398 38.6601,-55.276 34.1698,-45.4994"/>
<polygon fill="#000000" stroke="#000000" points="37.3009,-43.9219 30.1179,-36.1338 30.8764,-46.7014 37.3009,-43.9219"/>
</g>
<!-- A&#45;&gt;B -->
<g id="edge3" class="edge">
<title>A&#45;&gt;B</title>
<path fill="none" stroke="#000000" d="M59.8681,-71.8314C56.3098,-62.9918 51.0942,-52.2334 45.7758,-42.6648"/>
<polygon fill="#000000" stroke="#000000" points="48.758,-40.8309 40.6959,-33.9568 42.7116,-44.3581 48.758,-40.8309"/>
</g>
<!-- C -->
<g id="node3" class="node">
<title>C</title>
<ellipse fill="none" stroke="#000000" cx="99" cy="-18" rx="27" ry="18"/>
<text text-anchor="middle" x="99" y="-13.8" font-family="Times,serif" font-size="14.00" fill="#000000">C</text>
</g>
<!-- A&#45;&gt;C -->
<g id="edge2" class="edge">
<title>A&#45;&gt;C</title>
<path fill="none" stroke="#000000" d="M66.1319,-71.8314C69.6902,-62.9918 74.9058,-52.2334 80.2242,-42.6648"/>
<polygon fill="#000000" stroke="#000000" points="83.2884,-44.3581 85.3041,-33.9568 77.242,-40.8309 83.2884,-44.3581"/>
</g>
<!-- A&#45;&gt;C -->
<g id="edge4" class="edge">
<title>A&#45;&gt;C</title>
<path fill="none" stroke="#000000" d="M76.4899,-74.3771C81.7075,-65.9398 87.3399,-55.276 91.8302,-45.4994"/>
<polygon fill="#000000" stroke="#000000" points="95.1236,-46.7014 95.8821,-36.1338 88.6991,-43.9219 95.1236,-46.7014"/>
</g>
</g>
</svg>
