<?xml version="1.0" encoding="utf-8" standalone="no"?>
<!DOCTYPE svg PUBLIC "-//W3C//DTD SVG 1.1//EN"
  "http://www.w3.org/Graphics/SVG/1.1/DTD/svg11.dtd">
<!-- Created with matplotlib (http://matplotlib.org/) -->
<svg height="576pt" version="1.1" viewBox="0 0 576 576" width="576pt" xmlns="http://www.w3.org/2000/svg" xmlns:xlink="http://www.w3.org/1999/xlink">
 <defs>
  <style type="text/css">
*{stroke-linecap:butt;stroke-linejoin:round;}
  </style>
 </defs>
 <g id="figure_1">
  <g id="patch_1">
   <path d="M 0 576 
L 576 576 
L 576 0 
L 0 0 
z
" style="fill:#ffffff;"/>
  </g>
  <g id="axes_1">
   <g id="patch_2">
    <path d="M 77.76 504 
L 512.64 504 
L 512.64 69.12 
L 77.76 69.12 
z
" style="fill:#ffffff;"/>
   </g>
   <g id="QuadMesh_1">
    <path clip-path="url(#p356fe7f093)" d="M 77.76 69.12 
L 150.24 69.12 
L 150.24 141.6 
L 77.76 141.6 
L 77.76 69.12 
" style="fill:none;stroke:#ffffff;stroke-width:5;"/>
    <path clip-path="url(#p356fe7f093)" d="M 150.24 69.12 
L 222.72 69.12 
L 222.72 141.6 
L 150.24 141.6 
L 150.24 69.12 
" style="fill:none;stroke:#ffffff;stroke-width:5;"/>
    <path clip-path="url(#p356fe7f093)" d="M 222.72 69.12 
L 295.2 69.12 
L 295.2 141.6 
L 222.72 141.6 
L 222.72 69.12 
" style="fill:none;stroke:#ffffff;stroke-width:5;"/>
    <path clip-path="url(#p356fe7f093)" d="M 295.2 69.12 
L 367.68 69.12 
L 367.68 141.6 
L 295.2 141.6 
L 295.2 69.12 
" style="fill:none;stroke:#ffffff;stroke-width:5;"/>
    <path clip-path="url(#p356fe7f093)" d="M 367.68 69.12 
L 440.16 69.12 
L 440.16 141.6 
L 367.68 141.6 
L 367.68 69.12 
" style="fill:none;stroke:#ffffff;stroke-width:5;"/>
    <path clip-path="url(#p356fe7f093)" d="M 440.16 69.12 
L 512.64 69.12 
L 512.64 141.6 
L 440.16 141.6 
L 440.16 69.12 
" style="fill:none;stroke:#ffffff;stroke-width:5;"/>
    <path clip-path="url(#p356fe7f093)" d="M 77.76 141.6 
L 150.24 141.6 
L 150.24 214.08 
L 77.76 214.08 
L 77.76 141.6 
" style="fill:#fb8a58;stroke:#ffffff;stroke-width:5;"/>
    <path clip-path="url(#p356fe7f093)" d="M 150.24 141.6 
L 222.72 141.6 
L 222.72 214.08 
L 150.24 214.08 
L 150.24 141.6 
" style="fill:none;stroke:#ffffff;stroke-width:5;"/>
    <path clip-path="url(#p356fe7f093)" d="M 222.72 141.6 
L 295.2 141.6 
L 295.2 214.08 
L 222.72 214.08 
L 222.72 141.6 
" style="fill:none;stroke:#ffffff;stroke-width:5;"/>
    <path clip-path="url(#p356fe7f093)" d="M 295.2 141.6 
L 367.68 141.6 
L 367.68 214.08 
L 295.2 214.08 
L 295.2 141.6 
" style="fill:none;stroke:#ffffff;stroke-width:5;"/>
    <path clip-path="url(#p356fe7f093)" d="M 367.68 141.6 
L 440.16 141.6 
L 440.16 214.08 
L 367.68 214.08 
L 367.68 141.6 
" style="fill:none;stroke:#ffffff;stroke-width:5;"/>
    <path clip-path="url(#p356fe7f093)" d="M 440.16 141.6 
L 512.64 141.6 
L 512.64 214.08 
L 440.16 214.08 
L 440.16 141.6 
" style="fill:none;stroke:#ffffff;stroke-width:5;"/>
    <path clip-path="url(#p356fe7f093)" d="M 77.76 214.08 
L 150.24 214.08 
L 150.24 286.56 
L 77.76 286.56 
L 77.76 214.08 
" style="fill:#fc8e5a;stroke:#ffffff;stroke-width:5;"/>
    <path clip-path="url(#p356fe7f093)" d="M 150.24 214.08 
L 222.72 214.08 
L 222.72 286.56 
L 150.24 286.56 
L 150.24 214.08 
" style="fill:#fca26d;stroke:#ffffff;stroke-width:5;"/>
    <path clip-path="url(#p356fe7f093)" d="M 222.72 214.08 
L 295.2 214.08 
L 295.2 286.56 
L 222.72 286.56 
L 222.72 214.08 
" style="fill:none;stroke:#ffffff;stroke-width:5;"/>
    <path clip-path="url(#p356fe7f093)" d="M 295.2 214.08 
L 367.68 214.08 
L 367.68 286.56 
L 295.2 286.56 
L 295.2 214.08 
" style="fill:none;stroke:#ffffff;stroke-width:5;"/>
    <path clip-path="url(#p356fe7f093)" d="M 367.68 214.08 
L 440.16 214.08 
L 440.16 286.56 
L 367.68 286.56 
L 367.68 214.08 
" style="fill:none;stroke:#ffffff;stroke-width:5;"/>
    <path clip-path="url(#p356fe7f093)" d="M 440.16 214.08 
L 512.64 214.08 
L 512.64 286.56 
L 440.16 286.56 
L 440.16 214.08 
" style="fill:none;stroke:#ffffff;stroke-width:5;"/>
    <path clip-path="url(#p356fe7f093)" d="M 77.76 286.56 
L 150.24 286.56 
L 150.24 359.04 
L 77.76 359.04 
L 77.76 286.56 
" style="fill:#890000;stroke:#ffffff;stroke-width:5;"/>
    <path clip-path="url(#p356fe7f093)" d="M 150.24 286.56 
L 222.72 286.56 
L 222.72 359.04 
L 150.24 359.04 
L 150.24 286.56 
" style="fill:#7f0000;stroke:#ffffff;stroke-width:5;"/>
    <path clip-path="url(#p356fe7f093)" d="M 222.72 286.56 
L 295.2 286.56 
L 295.2 359.04 
L 222.72 359.04 
L 222.72 286.56 
" style="fill:#a50000;stroke:#ffffff;stroke-width:5;"/>
    <path clip-path="url(#p356fe7f093)" d="M 295.2 286.56 
L 367.68 286.56 
L 367.68 359.04 
L 295.2 359.04 
L 295.2 286.56 
" style="fill:none;stroke:#ffffff;stroke-width:5;"/>
    <path clip-path="url(#p356fe7f093)" d="M 367.68 286.56 
L 440.16 286.56 
L 440.16 359.04 
L 367.68 359.04 
L 367.68 286.56 
" style="fill:none;stroke:#ffffff;stroke-width:5;"/>
    <path clip-path="url(#p356fe7f093)" d="M 440.16 286.56 
L 512.64 286.56 
L 512.64 359.04 
L 440.16 359.04 
L 440.16 286.56 
" style="fill:none;stroke:#ffffff;stroke-width:5;"/>
    <path clip-path="url(#p356fe7f093)" d="M 77.76 359.04 
L 150.24 359.04 
L 150.24 431.52 
L 77.76 431.52 
L 77.76 359.04 
" style="fill:#dc3c28;stroke:#ffffff;stroke-width:5;"/>
    <path clip-path="url(#p356fe7f093)" d="M 150.24 359.04 
L 222.72 359.04 
L 222.72 431.52 
L 150.24 431.52 
L 150.24 359.04 
" style="fill:#dc3a27;stroke:#ffffff;stroke-width:5;"/>
    <path clip-path="url(#p356fe7f093)" d="M 222.72 359.04 
L 295.2 359.04 
L 295.2 431.52 
L 222.72 431.52 
L 222.72 359.04 
" style="fill:#ee6246;stroke:#ffffff;stroke-width:5;"/>
    <path clip-path="url(#p356fe7f093)" d="M 295.2 359.04 
L 367.68 359.04 
L 367.68 431.52 
L 295.2 431.52 
L 295.2 359.04 
" style="fill:#8e0000;stroke:#ffffff;stroke-width:5;"/>
    <path clip-path="url(#p356fe7f093)" d="M 367.68 359.04 
L 440.16 359.04 
L 440.16 431.52 
L 367.68 431.52 
L 367.68 359.04 
" style="fill:none;stroke:#ffffff;stroke-width:5;"/>
    <path clip-path="url(#p356fe7f093)" d="M 440.16 359.04 
L 512.64 359.04 
L 512.64 431.52 
L 440.16 431.52 
L 440.16 359.04 
" style="fill:none;stroke:#ffffff;stroke-width:5;"/>
    <path clip-path="url(#p356fe7f093)" d="M 77.76 431.52 
L 150.24 431.52 
L 150.24 504 
L 77.76 504 
L 77.76 431.52 
" style="fill:#f98455;stroke:#ffffff;stroke-width:5;"/>
    <path clip-path="url(#p356fe7f093)" d="M 150.24 431.52 
L 222.72 431.52 
L 222.72 504 
L 150.24 504 
L 150.24 431.52 
" style="fill:#f88154;stroke:#ffffff;stroke-width:5;"/>
    <path clip-path="url(#p356fe7f093)" d="M 222.72 431.52 
L 295.2 431.52 
L 295.2 504 
L 222.72 504 
L 222.72 431.52 
" style="fill:#fdb27b;stroke:#ffffff;stroke-width:5;"/>
    <path clip-path="url(#p356fe7f093)" d="M 295.2 431.52 
L 367.68 431.52 
L 367.68 504 
L 295.2 504 
L 295.2 431.52 
" style="fill:#c1120c;stroke:#ffffff;stroke-width:5;"/>
    <path clip-path="url(#p356fe7f093)" d="M 367.68 431.52 
L 440.16 431.52 
L 440.16 504 
L 367.68 504 
L 367.68 431.52 
" style="fill:#fdac76;stroke:#ffffff;stroke-width:5;"/>
    <path clip-path="url(#p356fe7f093)" d="M 440.16 431.52 
L 512.64 431.52 
L 512.64 504 
L 440.16 504 
L 440.16 431.52 
" style="fill:none;stroke:#ffffff;stroke-width:5;"/>
   </g>
   <g id="matplotlib.axis_1">
    <g id="xtick_1">
     <g id="line2d_1">
      <defs>
       <path d="M 0 0 
L 0 -3.5 
" id="m9e8c9208de" style="stroke:#000000;stroke-width:0.8;"/>
      </defs>
      <g>
       <use style="stroke:#000000;stroke-width:0.8;" x="114" xlink:href="#m9e8c9208de" y="69.12"/>
      </g>
     </g>
     <g id="text_1">
      <!-- Ellen -->
      <defs>
       <path d="M 9.8125 72.90625 
L 55.90625 72.90625 
L 55.90625 64.59375 
L 19.671875 64.59375 
L 19.671875 43.015625 
L 54.390625 43.015625 
L 54.390625 34.71875 
L 19.671875 34.71875 
L 19.671875 8.296875 
L 56.78125 8.296875 
L 56.78125 0 
L 9.8125 0 
z
" id="DejaVuSans-45"/>
       <path d="M 9.421875 75.984375 
L 18.40625 75.984375 
L 18.40625 0 
L 9.421875 0 
z
" id="DejaVuSans-6c"/>
       <path d="M 56.203125 29.59375 
L 56.203125 25.203125 
L 14.890625 25.203125 
Q 15.484375 15.921875 20.484375 11.0625 
Q 25.484375 6.203125 34.421875 6.203125 
Q 39.59375 6.203125 44.453125 7.46875 
Q 49.3125 8.734375 54.109375 11.28125 
L 54.109375 2.78125 
Q 49.265625 0.734375 44.1875 -0.34375 
Q 39.109375 -1.421875 33.890625 -1.421875 
Q 20.796875 -1.421875 13.15625 6.1875 
Q 5.515625 13.8125 5.515625 26.8125 
Q 5.515625 40.234375 12.765625 48.109375 
Q 20.015625 56 32.328125 56 
Q 43.359375 56 49.78125 48.890625 
Q 56.203125 41.796875 56.203125 29.59375 
z
M 47.21875 32.234375 
Q 47.125 39.59375 43.09375 43.984375 
Q 39.0625 48.390625 32.421875 48.390625 
Q 24.90625 48.390625 20.390625 44.140625 
Q 15.875 39.890625 15.1875 32.171875 
z
" id="DejaVuSans-65"/>
       <path d="M 54.890625 33.015625 
L 54.890625 0 
L 45.90625 0 
L 45.90625 32.71875 
Q 45.90625 40.484375 42.875 44.328125 
Q 39.84375 48.1875 33.796875 48.1875 
Q 26.515625 48.1875 22.3125 43.546875 
Q 18.109375 38.921875 18.109375 30.90625 
L 18.109375 0 
L 9.078125 0 
L 9.078125 54.6875 
L 18.109375 54.6875 
L 18.109375 46.1875 
Q 21.34375 51.125 25.703125 53.5625 
Q 30.078125 56 35.796875 56 
Q 45.21875 56 50.046875 50.171875 
Q 54.890625 44.34375 54.890625 33.015625 
z
" id="DejaVuSans-6e"/>
      </defs>
      <g transform="translate(105.33761 60.208271)rotate(-45)scale(0.13 -0.13)">
       <use xlink:href="#DejaVuSans-45"/>
       <use x="63.183594" xlink:href="#DejaVuSans-6c"/>
       <use x="90.966797" xlink:href="#DejaVuSans-6c"/>
       <use x="118.75" xlink:href="#DejaVuSans-65"/>
       <use x="180.273438" xlink:href="#DejaVuSans-6e"/>
      </g>
     </g>
    </g>
    <g id="xtick_2">
     <g id="line2d_2">
      <g>
       <use style="stroke:#000000;stroke-width:0.8;" x="186.48" xlink:href="#m9e8c9208de" y="69.12"/>
      </g>
     </g>
     <g id="text_2">
      <!-- Mike -->
      <defs>
       <path d="M 9.8125 72.90625 
L 24.515625 72.90625 
L 43.109375 23.296875 
L 61.8125 72.90625 
L 76.515625 72.90625 
L 76.515625 0 
L 66.890625 0 
L 66.890625 64.015625 
L 48.09375 14.015625 
L 38.1875 14.015625 
L 19.390625 64.015625 
L 19.390625 0 
L 9.8125 0 
z
" id="DejaVuSans-4d"/>
       <path d="M 9.421875 54.6875 
L 18.40625 54.6875 
L 18.40625 0 
L 9.421875 0 
z
M 9.421875 75.984375 
L 18.40625 75.984375 
L 18.40625 64.59375 
L 9.421875 64.59375 
z
" id="DejaVuSans-69"/>
       <path d="M 9.078125 75.984375 
L 18.109375 75.984375 
L 18.109375 31.109375 
L 44.921875 54.6875 
L 56.390625 54.6875 
L 27.390625 29.109375 
L 57.625 0 
L 45.90625 0 
L 18.109375 26.703125 
L 18.109375 0 
L 9.078125 0 
z
" id="DejaVuSans-6b"/>
      </defs>
      <g transform="translate(178.286566 60.208271)rotate(-45)scale(0.13 -0.13)">
       <use xlink:href="#DejaVuSans-4d"/>
       <use x="86.279297" xlink:href="#DejaVuSans-69"/>
       <use x="114.0625" xlink:href="#DejaVuSans-6b"/>
       <use x="171.925781" xlink:href="#DejaVuSans-65"/>
      </g>
     </g>
    </g>
    <g id="xtick_3">
     <g id="line2d_3">
      <g>
       <use style="stroke:#000000;stroke-width:0.8;" x="258.96" xlink:href="#m9e8c9208de" y="69.12"/>
      </g>
     </g>
     <g id="text_3">
      <!-- Pete -->
      <defs>
       <path d="M 19.671875 64.796875 
L 19.671875 37.40625 
L 32.078125 37.40625 
Q 38.96875 37.40625 42.71875 40.96875 
Q 46.484375 44.53125 46.484375 51.125 
Q 46.484375 57.671875 42.71875 61.234375 
Q 38.96875 64.796875 32.078125 64.796875 
z
M 9.8125 72.90625 
L 32.078125 72.90625 
Q 44.34375 72.90625 50.609375 67.359375 
Q 56.890625 61.8125 56.890625 51.125 
Q 56.890625 40.328125 50.609375 34.8125 
Q 44.34375 29.296875 32.078125 29.296875 
L 19.671875 29.296875 
L 19.671875 0 
L 9.8125 0 
z
" id="DejaVuSans-50"/>
       <path d="M 18.3125 70.21875 
L 18.3125 54.6875 
L 36.8125 54.6875 
L 36.8125 47.703125 
L 18.3125 47.703125 
L 18.3125 18.015625 
Q 18.3125 11.328125 20.140625 9.421875 
Q 21.96875 7.515625 27.59375 7.515625 
L 36.8125 7.515625 
L 36.8125 0 
L 27.59375 0 
Q 17.1875 0 13.234375 3.875 
Q 9.28125 7.765625 9.28125 18.015625 
L 9.28125 47.703125 
L 2.6875 47.703125 
L 2.6875 54.6875 
L 9.28125 54.6875 
L 9.28125 70.21875 
z
" id="DejaVuSans-74"/>
      </defs>
      <g transform="translate(251.269275 60.208271)rotate(-45)scale(0.13 -0.13)">
       <use xlink:href="#DejaVuSans-50"/>
       <use x="60.255859" xlink:href="#DejaVuSans-65"/>
       <use x="121.779297" xlink:href="#DejaVuSans-74"/>
       <use x="160.988281" xlink:href="#DejaVuSans-65"/>
      </g>
     </g>
    </g>
    <g id="xtick_4">
     <g id="line2d_4">
      <g>
       <use style="stroke:#000000;stroke-width:0.8;" x="331.44" xlink:href="#m9e8c9208de" y="69.12"/>
      </g>
     </g>
     <g id="text_4">
      <!-- Sara -->
      <defs>
       <path d="M 53.515625 70.515625 
L 53.515625 60.890625 
Q 47.90625 63.578125 42.921875 64.890625 
Q 37.9375 66.21875 33.296875 66.21875 
Q 25.25 66.21875 20.875 63.09375 
Q 16.5 59.96875 16.5 54.203125 
Q 16.5 49.359375 19.40625 46.890625 
Q 22.3125 44.4375 30.421875 42.921875 
L 36.375 41.703125 
Q 47.40625 39.59375 52.65625 34.296875 
Q 57.90625 29 57.90625 20.125 
Q 57.90625 9.515625 50.796875 4.046875 
Q 43.703125 -1.421875 29.984375 -1.421875 
Q 24.8125 -1.421875 18.96875 -0.25 
Q 13.140625 0.921875 6.890625 3.21875 
L 6.890625 13.375 
Q 12.890625 10.015625 18.65625 8.296875 
Q 24.421875 6.59375 29.984375 6.59375 
Q 38.421875 6.59375 43.015625 9.90625 
Q 47.609375 13.234375 47.609375 19.390625 
Q 47.609375 24.75 44.3125 27.78125 
Q 41.015625 30.8125 33.5 32.328125 
L 27.484375 33.5 
Q 16.453125 35.6875 11.515625 40.375 
Q 6.59375 45.0625 6.59375 53.421875 
Q 6.59375 63.09375 13.40625 68.65625 
Q 20.21875 74.21875 32.171875 74.21875 
Q 37.3125 74.21875 42.625 73.28125 
Q 47.953125 72.359375 53.515625 70.515625 
z
" id="DejaVuSans-53"/>
       <path d="M 34.28125 27.484375 
Q 23.390625 27.484375 19.1875 25 
Q 14.984375 22.515625 14.984375 16.5 
Q 14.984375 11.71875 18.140625 8.90625 
Q 21.296875 6.109375 26.703125 6.109375 
Q 34.1875 6.109375 38.703125 11.40625 
Q 43.21875 16.703125 43.21875 25.484375 
L 43.21875 27.484375 
z
M 52.203125 31.203125 
L 52.203125 0 
L 43.21875 0 
L 43.21875 8.296875 
Q 40.140625 3.328125 35.546875 0.953125 
Q 30.953125 -1.421875 24.3125 -1.421875 
Q 15.921875 -1.421875 10.953125 3.296875 
Q 6 8.015625 6 15.921875 
Q 6 25.140625 12.171875 29.828125 
Q 18.359375 34.515625 30.609375 34.515625 
L 43.21875 34.515625 
L 43.21875 35.40625 
Q 43.21875 41.609375 39.140625 45 
Q 35.0625 48.390625 27.6875 48.390625 
Q 23 48.390625 18.546875 47.265625 
Q 14.109375 46.140625 10.015625 43.890625 
L 10.015625 52.203125 
Q 14.9375 54.109375 19.578125 55.046875 
Q 24.21875 56 28.609375 56 
Q 40.484375 56 46.34375 49.84375 
Q 52.203125 43.703125 52.203125 31.203125 
z
" id="DejaVuSans-61"/>
       <path d="M 41.109375 46.296875 
Q 39.59375 47.171875 37.8125 47.578125 
Q 36.03125 48 33.890625 48 
Q 26.265625 48 22.1875 43.046875 
Q 18.109375 38.09375 18.109375 28.8125 
L 18.109375 0 
L 9.078125 0 
L 9.078125 54.6875 
L 18.109375 54.6875 
L 18.109375 46.1875 
Q 20.953125 51.171875 25.484375 53.578125 
Q 30.03125 56 36.53125 56 
Q 37.453125 56 38.578125 55.875 
Q 39.703125 55.765625 41.0625 55.515625 
z
" id="DejaVuSans-72"/>
      </defs>
      <g transform="translate(323.535982 60.208271)rotate(-45)scale(0.13 -0.13)">
       <use xlink:href="#DejaVuSans-53"/>
       <use x="63.476562" xlink:href="#DejaVuSans-61"/>
       <use x="124.755859" xlink:href="#DejaVuSans-72"/>
       <use x="165.869141" xlink:href="#DejaVuSans-61"/>
      </g>
     </g>
    </g>
    <g id="xtick_5">
     <g id="line2d_5">
      <g>
       <use style="stroke:#000000;stroke-width:0.8;" x="403.92" xlink:href="#m9e8c9208de" y="69.12"/>
      </g>
     </g>
     <g id="text_5">
      <!-- Sean -->
      <g transform="translate(394.981121 60.208271)rotate(-45)scale(0.13 -0.13)">
       <use xlink:href="#DejaVuSans-53"/>
       <use x="63.476562" xlink:href="#DejaVuSans-65"/>
       <use x="125" xlink:href="#DejaVuSans-61"/>
       <use x="186.279297" xlink:href="#DejaVuSans-6e"/>
      </g>
     </g>
    </g>
    <g id="xtick_6">
     <g id="line2d_6">
      <g>
       <use style="stroke:#000000;stroke-width:0.8;" x="476.4" xlink:href="#m9e8c9208de" y="69.12"/>
      </g>
     </g>
     <g id="text_6">
      <!-- Sue -->
      <defs>
       <path d="M 8.5 21.578125 
L 8.5 54.6875 
L 17.484375 54.6875 
L 17.484375 21.921875 
Q 17.484375 14.15625 20.5 10.265625 
Q 23.53125 6.390625 29.59375 6.390625 
Q 36.859375 6.390625 41.078125 11.03125 
Q 45.3125 15.671875 45.3125 23.6875 
L 45.3125 54.6875 
L 54.296875 54.6875 
L 54.296875 0 
L 45.3125 0 
L 45.3125 8.40625 
Q 42.046875 3.421875 37.71875 1 
Q 33.40625 -1.421875 27.6875 -1.421875 
Q 18.265625 -1.421875 13.375 4.4375 
Q 8.5 10.296875 8.5 21.578125 
z
M 31.109375 56 
z
" id="DejaVuSans-75"/>
      </defs>
      <g transform="translate(470.277726 60.208271)rotate(-45)scale(0.13 -0.13)">
       <use xlink:href="#DejaVuSans-53"/>
       <use x="63.476562" xlink:href="#DejaVuSans-75"/>
       <use x="126.855469" xlink:href="#DejaVuSans-65"/>
      </g>
     </g>
    </g>
   </g>
   <g id="matplotlib.axis_2">
    <g id="ytick_1">
     <g id="line2d_7">
      <defs>
       <path d="M 0 0 
L -3.5 0 
" id="m1bfc7adef6" style="stroke:#000000;stroke-width:0.8;"/>
      </defs>
      <g>
       <use style="stroke:#000000;stroke-width:0.8;" x="77.76" xlink:href="#m1bfc7adef6" y="105.36"/>
      </g>
     </g>
     <g id="text_7">
      <!-- Ellen -->
      <g transform="translate(39.084688 110.298984)scale(0.13 -0.13)">
       <use xlink:href="#DejaVuSans-45"/>
       <use x="63.183594" xlink:href="#DejaVuSans-6c"/>
       <use x="90.966797" xlink:href="#DejaVuSans-6c"/>
       <use x="118.75" xlink:href="#DejaVuSans-65"/>
       <use x="180.273438" xlink:href="#DejaVuSans-6e"/>
      </g>
     </g>
    </g>
    <g id="ytick_2">
     <g id="line2d_8">
      <g>
       <use style="stroke:#000000;stroke-width:0.8;" x="77.76" xlink:href="#m1bfc7adef6" y="177.84"/>
      </g>
     </g>
     <g id="text_8">
      <!-- Mike -->
      <g transform="translate(40.411094 182.778984)scale(0.13 -0.13)">
       <use xlink:href="#DejaVuSans-4d"/>
       <use x="86.279297" xlink:href="#DejaVuSans-69"/>
       <use x="114.0625" xlink:href="#DejaVuSans-6b"/>
       <use x="171.925781" xlink:href="#DejaVuSans-65"/>
      </g>
     </g>
    </g>
    <g id="ytick_3">
     <g id="line2d_9">
      <g>
       <use style="stroke:#000000;stroke-width:0.8;" x="77.76" xlink:href="#m1bfc7adef6" y="250.32"/>
      </g>
     </g>
     <g id="text_9">
      <!-- Pete -->
      <g transform="translate(41.832969 255.258984)scale(0.13 -0.13)">
       <use xlink:href="#DejaVuSans-50"/>
       <use x="60.255859" xlink:href="#DejaVuSans-65"/>
       <use x="121.779297" xlink:href="#DejaVuSans-74"/>
       <use x="160.988281" xlink:href="#DejaVuSans-65"/>
      </g>
     </g>
    </g>
    <g id="ytick_4">
     <g id="line2d_10">
      <g>
       <use style="stroke:#000000;stroke-width:0.8;" x="77.76" xlink:href="#m1bfc7adef6" y="322.8"/>
      </g>
     </g>
     <g id="text_10">
      <!-- Sara -->
      <g transform="translate(41.229688 327.738984)scale(0.13 -0.13)">
       <use xlink:href="#DejaVuSans-53"/>
       <use x="63.476562" xlink:href="#DejaVuSans-61"/>
       <use x="124.755859" xlink:href="#DejaVuSans-72"/>
       <use x="165.869141" xlink:href="#DejaVuSans-61"/>
      </g>
     </g>
    </g>
    <g id="ytick_5">
     <g id="line2d_11">
      <g>
       <use style="stroke:#000000;stroke-width:0.8;" x="77.76" xlink:href="#m1bfc7adef6" y="395.28"/>
      </g>
     </g>
     <g id="text_11">
      <!-- Sean -->
      <g transform="translate(38.302656 400.218984)scale(0.13 -0.13)">
       <use xlink:href="#DejaVuSans-53"/>
       <use x="63.476562" xlink:href="#DejaVuSans-65"/>
       <use x="125" xlink:href="#DejaVuSans-61"/>
       <use x="186.279297" xlink:href="#DejaVuSans-6e"/>
      </g>
     </g>
    </g>
    <g id="ytick_6">
     <g id="line2d_12">
      <g>
       <use style="stroke:#000000;stroke-width:0.8;" x="77.76" xlink:href="#m1bfc7adef6" y="467.76"/>
      </g>
     </g>
     <g id="text_12">
      <!-- Sue -->
      <g transform="translate(46.269219 472.698984)scale(0.13 -0.13)">
       <use xlink:href="#DejaVuSans-53"/>
       <use x="63.476562" xlink:href="#DejaVuSans-75"/>
       <use x="126.855469" xlink:href="#DejaVuSans-65"/>
      </g>
     </g>
    </g>
   </g>
  </g>
 </g>
 <defs>
  <clipPath id="p356fe7f093">
   <rect height="434.88" width="434.88" x="77.76" y="69.12"/>
  </clipPath>
 </defs>
</svg>
