<?xml version="1.0" encoding="utf-8" standalone="no"?>
<!DOCTYPE svg PUBLIC "-//W3C//DTD SVG 1.1//EN"
  "http://www.w3.org/Graphics/SVG/1.1/DTD/svg11.dtd">
<!-- Created with matplotlib (http://matplotlib.org/) -->
<svg height="288pt" version="1.1" viewBox="0 0 432 288" width="432pt" xmlns="http://www.w3.org/2000/svg" xmlns:xlink="http://www.w3.org/1999/xlink">
 <defs>
  <style type="text/css">
*{stroke-linecap:butt;stroke-linejoin:round;}
  </style>
 </defs>
 <g id="figure_1">
  <g id="patch_1">
   <path d="M 0 288 
L 432 288 
L 432 0 
L 0 0 
z
" style="fill:#ffffff;"/>
  </g>
  <g id="axes_1">
   <g id="LineCollection_1">
    <path clip-path="url(#pa53a8bfc4b)" d="M 223.914118 175.710089 
L 331.216883 72.155266 
" style="fill:none;stroke:#000000;"/>
    <path clip-path="url(#pa53a8bfc4b)" d="M 223.914118 175.710089 
L 250.084787 234.022978 
" style="fill:none;stroke:#000000;"/>
    <path clip-path="url(#pa53a8bfc4b)" d="M 223.914118 175.710089 
L 81.69431 162.707026 
" style="fill:none;stroke:#000000;"/>
    <path clip-path="url(#pa53a8bfc4b)" d="M 331.216883 72.155266 
L 250.084787 234.022978 
" style="fill:none;stroke:#000000;"/>
   </g>
   <g id="LineCollection_2">
    <path clip-path="url(#pa53a8bfc4b)" d="M 216.692799 174.750146 
L 125.339145 53.234027 
" style="fill:none;stroke:#000000;"/>
    <path clip-path="url(#pa53a8bfc4b)" d="M 216.692799 174.750146 
L 183.117416 229.041845 
" style="fill:none;stroke:#000000;"/>
    <path clip-path="url(#pa53a8bfc4b)" d="M 216.692799 174.750146 
L 361.760738 187.569341 
" style="fill:none;stroke:#000000;"/>
    <path clip-path="url(#pa53a8bfc4b)" d="M 125.339145 53.234027 
L 183.117416 229.041845 
" style="fill:none;stroke:#000000;"/>
   </g>
   <g id="PathCollection_1">
    <defs>
     <path d="M 0 8.660254 
C 2.296726 8.660254 4.499694 7.747755 6.123724 6.123724 
C 7.747755 4.499694 8.660254 2.296726 8.660254 0 
C 8.660254 -2.296726 7.747755 -4.499694 6.123724 -6.123724 
C 4.499694 -7.747755 2.296726 -8.660254 0 -8.660254 
C -2.296726 -8.660254 -4.499694 -7.747755 -6.123724 -6.123724 
C -7.747755 -4.499694 -8.660254 -2.296726 -8.660254 0 
C -8.660254 2.296726 -7.747755 4.499694 -6.123724 6.123724 
C -4.499694 7.747755 -2.296726 8.660254 0 8.660254 
z
" id="m92f251941b" style="stroke:#ff0000;"/>
    </defs>
    <g clip-path="url(#pa53a8bfc4b)">
     <use style="fill:#ff0000;stroke:#ff0000;" x="223.914118" xlink:href="#m92f251941b" y="175.710089"/>
     <use style="fill:#ff0000;stroke:#ff0000;" x="331.216883" xlink:href="#m92f251941b" y="72.155266"/>
     <use style="fill:#ff0000;stroke:#ff0000;" x="250.084787" xlink:href="#m92f251941b" y="234.022978"/>
     <use style="fill:#ff0000;stroke:#ff0000;" x="81.69431" xlink:href="#m92f251941b" y="162.707026"/>
    </g>
   </g>
   <g id="PathCollection_2">
    <g clip-path="url(#pa53a8bfc4b)">
     <use style="fill:#ff0000;stroke:#ff0000;" x="216.692799" xlink:href="#m92f251941b" y="174.750146"/>
     <use style="fill:#ff0000;stroke:#ff0000;" x="125.339145" xlink:href="#m92f251941b" y="53.234027"/>
     <use style="fill:#ff0000;stroke:#ff0000;" x="183.117416" xlink:href="#m92f251941b" y="229.041845"/>
     <use style="fill:#ff0000;stroke:#ff0000;" x="361.760738" xlink:href="#m92f251941b" y="187.569341"/>
    </g>
   </g>
   <g id="text_1">
    <g clip-path="url(#pa53a8bfc4b)">
     <!-- a -->
     <defs>
      <path d="M 34.28125 27.484375 
Q 23.390625 27.484375 19.1875 25 
Q 14.984375 22.515625 14.984375 16.5 
Q 14.984375 11.71875 18.140625 8.90625 
Q 21.296875 6.109375 26.703125 6.109375 
Q 34.1875 6.109375 38.703125 11.40625 
Q 43.21875 16.703125 43.21875 25.484375 
L 43.21875 27.484375 
z
M 52.203125 31.203125 
L 52.203125 0 
L 43.21875 0 
L 43.21875 8.296875 
Q 40.140625 3.328125 35.546875 0.953125 
Q 30.953125 -1.421875 24.3125 -1.421875 
Q 15.921875 -1.421875 10.953125 3.296875 
Q 6 8.015625 6 15.921875 
Q 6 25.140625 12.171875 29.828125 
Q 18.359375 34.515625 30.609375 34.515625 
L 43.21875 34.515625 
L 43.21875 35.40625 
Q 43.21875 41.609375 39.140625 45 
Q 35.0625 48.390625 27.6875 48.390625 
Q 23 48.390625 18.546875 47.265625 
Q 14.109375 46.140625 10.015625 43.890625 
L 10.015625 52.203125 
Q 14.9375 54.109375 19.578125 55.046875 
Q 24.21875 56 28.609375 56 
Q 40.484375 56 46.34375 49.84375 
Q 52.203125 43.703125 52.203125 31.203125 
z
" id="DejaVuSans-61"/>
     </defs>
     <g transform="translate(220.237243 179.021339)scale(0.12 -0.12)">
      <use xlink:href="#DejaVuSans-61"/>
     </g>
    </g>
   </g>
   <g id="text_2">
    <g clip-path="url(#pa53a8bfc4b)">
     <!-- b -->
     <defs>
      <path d="M 48.6875 27.296875 
Q 48.6875 37.203125 44.609375 42.84375 
Q 40.53125 48.484375 33.40625 48.484375 
Q 26.265625 48.484375 22.1875 42.84375 
Q 18.109375 37.203125 18.109375 27.296875 
Q 18.109375 17.390625 22.1875 11.75 
Q 26.265625 6.109375 33.40625 6.109375 
Q 40.53125 6.109375 44.609375 11.75 
Q 48.6875 17.390625 48.6875 27.296875 
z
M 18.109375 46.390625 
Q 20.953125 51.265625 25.265625 53.625 
Q 29.59375 56 35.59375 56 
Q 45.5625 56 51.78125 48.09375 
Q 58.015625 40.1875 58.015625 27.296875 
Q 58.015625 14.40625 51.78125 6.484375 
Q 45.5625 -1.421875 35.59375 -1.421875 
Q 29.59375 -1.421875 25.265625 0.953125 
Q 20.953125 3.328125 18.109375 8.203125 
L 18.109375 0 
L 9.078125 0 
L 9.078125 75.984375 
L 18.109375 75.984375 
z
" id="DejaVuSans-62"/>
     </defs>
     <g transform="translate(327.40782 75.466516)scale(0.12 -0.12)">
      <use xlink:href="#DejaVuSans-62"/>
     </g>
    </g>
   </g>
   <g id="text_3">
    <g clip-path="url(#pa53a8bfc4b)">
     <!-- c -->
     <defs>
      <path d="M 48.78125 52.59375 
L 48.78125 44.1875 
Q 44.96875 46.296875 41.140625 47.34375 
Q 37.3125 48.390625 33.40625 48.390625 
Q 24.65625 48.390625 19.8125 42.84375 
Q 14.984375 37.3125 14.984375 27.296875 
Q 14.984375 17.28125 19.8125 11.734375 
Q 24.65625 6.203125 33.40625 6.203125 
Q 37.3125 6.203125 41.140625 7.25 
Q 44.96875 8.296875 48.78125 10.40625 
L 48.78125 2.09375 
Q 45.015625 0.34375 40.984375 -0.53125 
Q 36.96875 -1.421875 32.421875 -1.421875 
Q 20.0625 -1.421875 12.78125 6.34375 
Q 5.515625 14.109375 5.515625 27.296875 
Q 5.515625 40.671875 12.859375 48.328125 
Q 20.21875 56 33.015625 56 
Q 37.15625 56 41.109375 55.140625 
Q 45.0625 54.296875 48.78125 52.59375 
z
" id="DejaVuSans-63"/>
     </defs>
     <g transform="translate(246.785724 237.334228)scale(0.12 -0.12)">
      <use xlink:href="#DejaVuSans-63"/>
     </g>
    </g>
   </g>
   <g id="text_4">
    <g clip-path="url(#pa53a8bfc4b)">
     <!-- d -->
     <defs>
      <path d="M 45.40625 46.390625 
L 45.40625 75.984375 
L 54.390625 75.984375 
L 54.390625 0 
L 45.40625 0 
L 45.40625 8.203125 
Q 42.578125 3.328125 38.25 0.953125 
Q 33.9375 -1.421875 27.875 -1.421875 
Q 17.96875 -1.421875 11.734375 6.484375 
Q 5.515625 14.40625 5.515625 27.296875 
Q 5.515625 40.1875 11.734375 48.09375 
Q 17.96875 56 27.875 56 
Q 33.9375 56 38.25 53.625 
Q 42.578125 51.265625 45.40625 46.390625 
z
M 14.796875 27.296875 
Q 14.796875 17.390625 18.875 11.75 
Q 22.953125 6.109375 30.078125 6.109375 
Q 37.203125 6.109375 41.296875 11.75 
Q 45.40625 17.390625 45.40625 27.296875 
Q 45.40625 37.203125 41.296875 42.84375 
Q 37.203125 48.484375 30.078125 48.484375 
Q 22.953125 48.484375 18.875 42.84375 
Q 14.796875 37.203125 14.796875 27.296875 
z
" id="DejaVuSans-64"/>
     </defs>
     <g transform="translate(77.885248 166.018276)scale(0.12 -0.12)">
      <use xlink:href="#DejaVuSans-64"/>
     </g>
    </g>
   </g>
   <g id="text_5">
    <g clip-path="url(#pa53a8bfc4b)">
     <!-- a -->
     <g transform="translate(213.015924 178.061396)scale(0.12 -0.12)">
      <use xlink:href="#DejaVuSans-61"/>
     </g>
    </g>
   </g>
   <g id="text_6">
    <g clip-path="url(#pa53a8bfc4b)">
     <!-- b -->
     <g transform="translate(121.530082 56.545277)scale(0.12 -0.12)">
      <use xlink:href="#DejaVuSans-62"/>
     </g>
    </g>
   </g>
   <g id="text_7">
    <g clip-path="url(#pa53a8bfc4b)">
     <!-- c -->
     <g transform="translate(179.818354 232.353095)scale(0.12 -0.12)">
      <use xlink:href="#DejaVuSans-63"/>
     </g>
    </g>
   </g>
   <g id="text_8">
    <g clip-path="url(#pa53a8bfc4b)">
     <!-- d -->
     <g transform="translate(357.951676 190.880591)scale(0.12 -0.12)">
      <use xlink:href="#DejaVuSans-64"/>
     </g>
    </g>
   </g>
  </g>
 </g>
 <defs>
  <clipPath id="pa53a8bfc4b">
   <rect height="217.44" width="334.8" x="54" y="34.56"/>
  </clipPath>
 </defs>
</svg>
