<?xml version="1.0" encoding="utf-8" standalone="no"?>
<!DOCTYPE svg PUBLIC "-//W3C//DTD SVG 1.1//EN"
  "http://www.w3.org/Graphics/SVG/1.1/DTD/svg11.dtd">
<!-- Created with matplotlib (http://matplotlib.org/) -->
<svg height="216pt" version="1.1" viewBox="0 0 1080 216" width="1080pt" xmlns="http://www.w3.org/2000/svg" xmlns:xlink="http://www.w3.org/1999/xlink">
 <defs>
  <style type="text/css">
*{stroke-linecap:butt;stroke-linejoin:round;}
  </style>
 </defs>
 <g id="figure_1">
  <g id="patch_1">
   <path d="M 0 216 
L 1080 216 
L 1080 0 
L 0 0 
z
" style="fill:#ffffff;"/>
  </g>
  <g id="axes_1">
   <g id="patch_2">
    <path d="M 135 189 
L 279.310345 189 
L 279.310345 25.92 
L 135 25.92 
z
" style="fill:#ffffff;"/>
   </g>
   <g id="matplotlib.axis_1">
    <g id="xtick_1">
     <g id="line2d_1">
      <defs>
       <path d="M 0 0 
L 0 3.5 
" id="m3df6ad27fd" style="stroke:#000000;stroke-width:0.8;"/>
      </defs>
      <g>
       <use style="stroke:#000000;stroke-width:0.8;" x="141.559561" xlink:href="#m3df6ad27fd" y="189"/>
      </g>
     </g>
     <g id="text_1">
      <!-- 0 -->
      <defs>
       <path d="M 31.78125 66.40625 
Q 24.171875 66.40625 20.328125 58.90625 
Q 16.5 51.421875 16.5 36.375 
Q 16.5 21.390625 20.328125 13.890625 
Q 24.171875 6.390625 31.78125 6.390625 
Q 39.453125 6.390625 43.28125 13.890625 
Q 47.125 21.390625 47.125 36.375 
Q 47.125 51.421875 43.28125 58.90625 
Q 39.453125 66.40625 31.78125 66.40625 
z
M 31.78125 74.21875 
Q 44.046875 74.21875 50.515625 64.515625 
Q 56.984375 54.828125 56.984375 36.375 
Q 56.984375 17.96875 50.515625 8.265625 
Q 44.046875 -1.421875 31.78125 -1.421875 
Q 19.53125 -1.421875 13.0625 8.265625 
Q 6.59375 17.96875 6.59375 36.375 
Q 6.59375 54.828125 13.0625 64.515625 
Q 19.53125 74.21875 31.78125 74.21875 
z
" id="DejaVuSans-30"/>
      </defs>
      <g transform="translate(138.378311 203.598437)scale(0.1 -0.1)">
       <use xlink:href="#DejaVuSans-30"/>
      </g>
     </g>
    </g>
    <g id="xtick_2">
     <g id="line2d_2">
      <g>
       <use style="stroke:#000000;stroke-width:0.8;" x="207.220834" xlink:href="#m3df6ad27fd" y="189"/>
      </g>
     </g>
     <g id="text_2">
      <!-- 500 -->
      <defs>
       <path d="M 10.796875 72.90625 
L 49.515625 72.90625 
L 49.515625 64.59375 
L 19.828125 64.59375 
L 19.828125 46.734375 
Q 21.96875 47.46875 24.109375 47.828125 
Q 26.265625 48.1875 28.421875 48.1875 
Q 40.625 48.1875 47.75 41.5 
Q 54.890625 34.8125 54.890625 23.390625 
Q 54.890625 11.625 47.5625 5.09375 
Q 40.234375 -1.421875 26.90625 -1.421875 
Q 22.3125 -1.421875 17.546875 -0.640625 
Q 12.796875 0.140625 7.71875 1.703125 
L 7.71875 11.625 
Q 12.109375 9.234375 16.796875 8.0625 
Q 21.484375 6.890625 26.703125 6.890625 
Q 35.15625 6.890625 40.078125 11.328125 
Q 45.015625 15.765625 45.015625 23.390625 
Q 45.015625 31 40.078125 35.4375 
Q 35.15625 39.890625 26.703125 39.890625 
Q 22.75 39.890625 18.8125 39.015625 
Q 14.890625 38.140625 10.796875 36.28125 
z
" id="DejaVuSans-35"/>
      </defs>
      <g transform="translate(197.677084 203.598437)scale(0.1 -0.1)">
       <use xlink:href="#DejaVuSans-35"/>
       <use x="63.623047" xlink:href="#DejaVuSans-30"/>
       <use x="127.246094" xlink:href="#DejaVuSans-30"/>
      </g>
     </g>
    </g>
    <g id="xtick_3">
     <g id="line2d_3">
      <g>
       <use style="stroke:#000000;stroke-width:0.8;" x="272.882106" xlink:href="#m3df6ad27fd" y="189"/>
      </g>
     </g>
     <g id="text_3">
      <!-- 1000 -->
      <defs>
       <path d="M 12.40625 8.296875 
L 28.515625 8.296875 
L 28.515625 63.921875 
L 10.984375 60.40625 
L 10.984375 69.390625 
L 28.421875 72.90625 
L 38.28125 72.90625 
L 38.28125 8.296875 
L 54.390625 8.296875 
L 54.390625 0 
L 12.40625 0 
z
" id="DejaVuSans-31"/>
      </defs>
      <g transform="translate(260.157106 203.598437)scale(0.1 -0.1)">
       <use xlink:href="#DejaVuSans-31"/>
       <use x="63.623047" xlink:href="#DejaVuSans-30"/>
       <use x="127.246094" xlink:href="#DejaVuSans-30"/>
       <use x="190.869141" xlink:href="#DejaVuSans-30"/>
      </g>
     </g>
    </g>
   </g>
   <g id="matplotlib.axis_2">
    <g id="ytick_1">
     <g id="line2d_4">
      <defs>
       <path d="M 0 0 
L -3.5 0 
" id="m01982ed8e0" style="stroke:#000000;stroke-width:0.8;"/>
      </defs>
      <g>
       <use style="stroke:#000000;stroke-width:0.8;" x="135" xlink:href="#m01982ed8e0" y="168.332053"/>
      </g>
     </g>
     <g id="text_4">
      <!-- −0.2 -->
      <defs>
       <path d="M 10.59375 35.5 
L 73.1875 35.5 
L 73.1875 27.203125 
L 10.59375 27.203125 
z
" id="DejaVuSans-2212"/>
       <path d="M 10.6875 12.40625 
L 21 12.40625 
L 21 0 
L 10.6875 0 
z
" id="DejaVuSans-2e"/>
       <path d="M 19.1875 8.296875 
L 53.609375 8.296875 
L 53.609375 0 
L 7.328125 0 
L 7.328125 8.296875 
Q 12.9375 14.109375 22.625 23.890625 
Q 32.328125 33.6875 34.8125 36.53125 
Q 39.546875 41.84375 41.421875 45.53125 
Q 43.3125 49.21875 43.3125 52.78125 
Q 43.3125 58.59375 39.234375 62.25 
Q 35.15625 65.921875 28.609375 65.921875 
Q 23.96875 65.921875 18.8125 64.3125 
Q 13.671875 62.703125 7.8125 59.421875 
L 7.8125 69.390625 
Q 13.765625 71.78125 18.9375 73 
Q 24.125 74.21875 28.421875 74.21875 
Q 39.75 74.21875 46.484375 68.546875 
Q 53.21875 62.890625 53.21875 53.421875 
Q 53.21875 48.921875 51.53125 44.890625 
Q 49.859375 40.875 45.40625 35.40625 
Q 44.1875 33.984375 37.640625 27.21875 
Q 31.109375 20.453125 19.1875 8.296875 
z
" id="DejaVuSans-32"/>
      </defs>
      <g transform="translate(103.717187 172.131271)scale(0.1 -0.1)">
       <use xlink:href="#DejaVuSans-2212"/>
       <use x="83.789062" xlink:href="#DejaVuSans-30"/>
       <use x="147.412109" xlink:href="#DejaVuSans-2e"/>
       <use x="179.199219" xlink:href="#DejaVuSans-32"/>
      </g>
     </g>
    </g>
    <g id="ytick_2">
     <g id="line2d_5">
      <g>
       <use style="stroke:#000000;stroke-width:0.8;" x="135" xlink:href="#m01982ed8e0" y="143.268784"/>
      </g>
     </g>
     <g id="text_5">
      <!-- 0.0 -->
      <g transform="translate(112.096875 147.068002)scale(0.1 -0.1)">
       <use xlink:href="#DejaVuSans-30"/>
       <use x="63.623047" xlink:href="#DejaVuSans-2e"/>
       <use x="95.410156" xlink:href="#DejaVuSans-30"/>
      </g>
     </g>
    </g>
    <g id="ytick_3">
     <g id="line2d_6">
      <g>
       <use style="stroke:#000000;stroke-width:0.8;" x="135" xlink:href="#m01982ed8e0" y="118.205515"/>
      </g>
     </g>
     <g id="text_6">
      <!-- 0.2 -->
      <g transform="translate(112.096875 122.004733)scale(0.1 -0.1)">
       <use xlink:href="#DejaVuSans-30"/>
       <use x="63.623047" xlink:href="#DejaVuSans-2e"/>
       <use x="95.410156" xlink:href="#DejaVuSans-32"/>
      </g>
     </g>
    </g>
    <g id="ytick_4">
     <g id="line2d_7">
      <g>
       <use style="stroke:#000000;stroke-width:0.8;" x="135" xlink:href="#m01982ed8e0" y="93.142246"/>
      </g>
     </g>
     <g id="text_7">
      <!-- 0.4 -->
      <defs>
       <path d="M 37.796875 64.3125 
L 12.890625 25.390625 
L 37.796875 25.390625 
z
M 35.203125 72.90625 
L 47.609375 72.90625 
L 47.609375 25.390625 
L 58.015625 25.390625 
L 58.015625 17.1875 
L 47.609375 17.1875 
L 47.609375 0 
L 37.796875 0 
L 37.796875 17.1875 
L 4.890625 17.1875 
L 4.890625 26.703125 
z
" id="DejaVuSans-34"/>
      </defs>
      <g transform="translate(112.096875 96.941464)scale(0.1 -0.1)">
       <use xlink:href="#DejaVuSans-30"/>
       <use x="63.623047" xlink:href="#DejaVuSans-2e"/>
       <use x="95.410156" xlink:href="#DejaVuSans-34"/>
      </g>
     </g>
    </g>
    <g id="ytick_5">
     <g id="line2d_8">
      <g>
       <use style="stroke:#000000;stroke-width:0.8;" x="135" xlink:href="#m01982ed8e0" y="68.078976"/>
      </g>
     </g>
     <g id="text_8">
      <!-- 0.6 -->
      <defs>
       <path d="M 33.015625 40.375 
Q 26.375 40.375 22.484375 35.828125 
Q 18.609375 31.296875 18.609375 23.390625 
Q 18.609375 15.53125 22.484375 10.953125 
Q 26.375 6.390625 33.015625 6.390625 
Q 39.65625 6.390625 43.53125 10.953125 
Q 47.40625 15.53125 47.40625 23.390625 
Q 47.40625 31.296875 43.53125 35.828125 
Q 39.65625 40.375 33.015625 40.375 
z
M 52.59375 71.296875 
L 52.59375 62.3125 
Q 48.875 64.0625 45.09375 64.984375 
Q 41.3125 65.921875 37.59375 65.921875 
Q 27.828125 65.921875 22.671875 59.328125 
Q 17.53125 52.734375 16.796875 39.40625 
Q 19.671875 43.65625 24.015625 45.921875 
Q 28.375 48.1875 33.59375 48.1875 
Q 44.578125 48.1875 50.953125 41.515625 
Q 57.328125 34.859375 57.328125 23.390625 
Q 57.328125 12.15625 50.6875 5.359375 
Q 44.046875 -1.421875 33.015625 -1.421875 
Q 20.359375 -1.421875 13.671875 8.265625 
Q 6.984375 17.96875 6.984375 36.375 
Q 6.984375 53.65625 15.1875 63.9375 
Q 23.390625 74.21875 37.203125 74.21875 
Q 40.921875 74.21875 44.703125 73.484375 
Q 48.484375 72.75 52.59375 71.296875 
z
" id="DejaVuSans-36"/>
      </defs>
      <g transform="translate(112.096875 71.878195)scale(0.1 -0.1)">
       <use xlink:href="#DejaVuSans-30"/>
       <use x="63.623047" xlink:href="#DejaVuSans-2e"/>
       <use x="95.410156" xlink:href="#DejaVuSans-36"/>
      </g>
     </g>
    </g>
    <g id="ytick_6">
     <g id="line2d_9">
      <g>
       <use style="stroke:#000000;stroke-width:0.8;" x="135" xlink:href="#m01982ed8e0" y="43.015707"/>
      </g>
     </g>
     <g id="text_9">
      <!-- 0.8 -->
      <defs>
       <path d="M 31.78125 34.625 
Q 24.75 34.625 20.71875 30.859375 
Q 16.703125 27.09375 16.703125 20.515625 
Q 16.703125 13.921875 20.71875 10.15625 
Q 24.75 6.390625 31.78125 6.390625 
Q 38.8125 6.390625 42.859375 10.171875 
Q 46.921875 13.96875 46.921875 20.515625 
Q 46.921875 27.09375 42.890625 30.859375 
Q 38.875 34.625 31.78125 34.625 
z
M 21.921875 38.8125 
Q 15.578125 40.375 12.03125 44.71875 
Q 8.5 49.078125 8.5 55.328125 
Q 8.5 64.0625 14.71875 69.140625 
Q 20.953125 74.21875 31.78125 74.21875 
Q 42.671875 74.21875 48.875 69.140625 
Q 55.078125 64.0625 55.078125 55.328125 
Q 55.078125 49.078125 51.53125 44.71875 
Q 48 40.375 41.703125 38.8125 
Q 48.828125 37.15625 52.796875 32.3125 
Q 56.78125 27.484375 56.78125 20.515625 
Q 56.78125 9.90625 50.3125 4.234375 
Q 43.84375 -1.421875 31.78125 -1.421875 
Q 19.734375 -1.421875 13.25 4.234375 
Q 6.78125 9.90625 6.78125 20.515625 
Q 6.78125 27.484375 10.78125 32.3125 
Q 14.796875 37.15625 21.921875 38.8125 
z
M 18.3125 54.390625 
Q 18.3125 48.734375 21.84375 45.5625 
Q 25.390625 42.390625 31.78125 42.390625 
Q 38.140625 42.390625 41.71875 45.5625 
Q 45.3125 48.734375 45.3125 54.390625 
Q 45.3125 60.0625 41.71875 63.234375 
Q 38.140625 66.40625 31.78125 66.40625 
Q 25.390625 66.40625 21.84375 63.234375 
Q 18.3125 60.0625 18.3125 54.390625 
z
" id="DejaVuSans-38"/>
      </defs>
      <g transform="translate(112.096875 46.814926)scale(0.1 -0.1)">
       <use xlink:href="#DejaVuSans-30"/>
       <use x="63.623047" xlink:href="#DejaVuSans-2e"/>
       <use x="95.410156" xlink:href="#DejaVuSans-38"/>
      </g>
     </g>
    </g>
   </g>
   <g id="line2d_10">
    <path clip-path="url(#p9890237a74)" d="M 141.559561 169.890572 
L 142.084851 169.890572 
L 142.216174 168.776495 
L 142.741464 168.776495 
L 142.872787 165.72866 
L 144.054689 165.627391 
L 144.186012 165.200272 
L 144.711302 165.200272 
L 144.842625 164.949333 
L 145.367915 164.949333 
L 145.63056 164.810422 
L 146.024528 164.810422 
L 146.287173 164.606819 
L 146.68114 164.606819 
L 146.812463 163.898559 
L 147.337753 163.898559 
L 147.469076 159.958176 
L 149.307591 159.949803 
L 149.438914 159.456045 
L 150.620817 159.360255 
L 150.883462 159.157043 
L 151.277429 159.157043 
L 151.408752 157.365999 
L 151.934042 157.365999 
L 152.065365 156.515277 
L 152.590655 156.515277 
L 152.8533 156.306828 
L 153.247268 156.306828 
L 153.37859 155.799655 
L 153.90388 155.799655 
L 154.035203 155.556315 
L 154.560493 155.556315 
L 154.691816 154.453491 
L 155.873719 154.362717 
L 156.136364 154.211764 
L 156.530331 154.211764 
L 156.792976 154.098134 
L 157.186944 154.098134 
L 157.318267 153.121751 
L 157.843557 153.121751 
L 157.974879 152.638257 
L 159.156782 152.620303 
L 159.288105 152.014846 
L 159.813395 152.014846 
L 159.944717 151.499393 
L 160.470008 151.499393 
L 160.60133 151.251953 
L 161.12662 151.251953 
L 161.257943 150.409072 
L 161.783233 150.409072 
L 161.914556 150.139649 
L 162.439846 150.139649 
L 162.702491 150.009759 
L 163.096459 150.009759 
L 163.227781 149.404196 
L 164.409684 149.335526 
L 164.541007 148.882841 
L 165.066297 148.882841 
L 165.328942 148.725938 
L 165.722909 148.725938 
L 165.854232 147.13127 
L 166.379522 147.13127 
L 166.510845 145.841354 
L 167.036135 145.841354 
L 167.29878 145.723836 
L 167.692748 145.723836 
L 167.82407 145.378983 
L 168.34936 145.378983 
L 168.612005 145.211816 
L 169.005973 145.211816 
L 169.137296 143.217611 
L 169.662586 143.217611 
L 169.793908 142.479209 
L 170.975811 142.381295 
L 171.369779 142.331653 
L 171.632424 142.331653 
L 171.895069 142.219588 
L 172.289037 142.219588 
L 172.420359 141.818407 
L 172.945649 141.818407 
L 173.076972 141.303269 
L 174.258875 141.241958 
L 174.390197 140.695611 
L 174.915488 140.695611 
L 175.04681 140.394686 
L 175.5721 140.394686 
L 175.703423 139.579973 
L 176.228713 139.579973 
L 176.360036 138.970863 
L 177.541938 138.865714 
L 177.673261 138.591529 
L 179.511777 138.525951 
L 179.643099 138.229198 
L 180.168389 138.229198 
L 180.299712 137.983133 
L 180.825002 137.983133 
L 180.956325 137.671021 
L 181.481615 137.671021 
L 181.612937 137.425585 
L 182.138228 137.425585 
L 182.26955 136.992979 
L 182.79484 136.992979 
L 182.926163 136.552876 
L 183.451453 136.552876 
L 183.582776 135.428948 
L 184.764678 135.426865 
L 185.027324 135.308685 
L 185.421291 135.308685 
L 185.552614 134.613572 
L 186.077904 134.613572 
L 186.209226 134.209095 
L 187.391129 134.10645 
L 187.522452 133.81546 
L 188.047742 133.81546 
L 188.179065 133.599973 
L 188.704355 133.599973 
L 188.835677 132.663903 
L 190.01758 132.593655 
L 190.411548 132.532827 
L 190.674193 132.532827 
L 190.805516 132.243244 
L 191.330806 132.243244 
L 191.462128 131.400762 
L 191.987418 131.400762 
L 192.118741 131.161286 
L 192.644031 131.161286 
L 192.775354 130.85871 
L 193.300644 130.85871 
L 193.563289 130.651558 
L 193.957257 130.651558 
L 194.219902 130.475273 
L 194.613869 130.475273 
L 194.876514 130.313874 
L 195.270482 130.313874 
L 195.533127 130.164291 
L 195.927095 130.164291 
L 196.058417 129.797013 
L 196.583708 129.797013 
L 196.846353 129.594635 
L 197.896933 129.493055 
L 198.290901 129.435364 
L 198.553546 129.435364 
L 198.684868 129.094748 
L 199.210158 129.094748 
L 199.341481 128.292565 
L 199.866771 128.292565 
L 199.998094 127.913618 
L 200.523384 127.913618 
L 200.786029 127.753353 
L 202.493222 127.683687 
L 202.755867 127.557059 
L 204.46306 127.447359 
L 204.594383 126.652887 
L 205.776286 126.640263 
L 206.038931 126.448562 
L 206.432898 126.448562 
L 206.564221 126.091195 
L 207.089511 126.091195 
L 207.352156 125.896746 
L 209.059349 125.800475 
L 209.190672 125.528476 
L 210.372575 125.422464 
L 210.766542 125.366971 
L 211.029187 125.366971 
L 211.16051 125.062928 
L 212.342413 125.033203 
L 212.605058 124.93189 
L 212.999026 124.93189 
L 213.130348 124.714445 
L 214.968864 124.624274 
L 215.100186 123.286582 
L 216.282089 123.214929 
L 216.413412 122.897483 
L 216.938702 122.897483 
L 217.201347 122.746252 
L 217.595315 122.746252 
L 217.726637 122.390815 
L 218.251927 122.390815 
L 218.38325 121.718187 
L 218.90854 121.718187 
L 219.039863 120.638677 
L 219.565153 120.638677 
L 219.827798 120.501779 
L 220.878378 120.42543 
L 221.009701 119.593959 
L 222.191604 119.529373 
L 222.454249 119.378853 
L 224.161442 119.279245 
L 224.292765 119.040047 
L 224.818055 119.040047 
L 224.949377 118.47879 
L 226.13128 118.385389 
L 226.262603 118.101985 
L 228.757731 117.991953 
L 229.020376 117.841811 
L 229.414344 117.841811 
L 229.545666 117.286465 
L 230.070957 117.286465 
L 230.333602 117.161168 
L 230.727569 117.161168 
L 230.858892 116.869459 
L 231.384182 116.869459 
L 231.515505 116.570071 
L 232.040795 116.570071 
L 232.30344 116.453017 
L 233.35402 116.383909 
L 233.616665 116.188707 
L 234.667246 116.080791 
L 234.929891 116.004541 
L 235.323858 116.004541 
L 235.455181 115.530271 
L 235.980471 115.530271 
L 236.243116 115.383203 
L 237.293697 115.348536 
L 237.425019 115.001531 
L 237.950309 115.001531 
L 238.212954 114.835038 
L 238.606922 114.835038 
L 238.738245 114.241528 
L 240.57676 114.198463 
L 240.839405 114.099588 
L 241.889986 114.081788 
L 242.152631 113.888154 
L 242.546598 113.888154 
L 242.809243 113.776105 
L 243.859824 113.670411 
L 243.991146 113.103426 
L 244.516436 113.103426 
L 244.647759 112.826155 
L 245.829662 112.797856 
L 245.960984 112.225228 
L 246.486275 112.225228 
L 246.617597 111.955477 
L 247.142887 111.955477 
L 247.27421 111.606502 
L 247.7995 111.606502 
L 247.930823 110.18686 
L 248.456113 110.18686 
L 248.587435 107.809526 
L 249.112726 107.809526 
L 249.244048 107.482184 
L 251.082564 107.413071 
L 251.345209 107.282886 
L 252.395789 107.195351 
L 253.052402 107.171295 
L 253.183724 106.915628 
L 253.709015 106.915628 
L 253.840337 106.628742 
L 255.02224 106.600116 
L 255.284885 106.514036 
L 255.678853 106.514036 
L 255.810175 106.174948 
L 256.335466 106.174948 
L 256.598111 106.011674 
L 257.648691 105.904729 
L 257.911336 105.793473 
L 258.305304 105.793473 
L 258.436626 105.389783 
L 258.961916 105.389783 
L 259.093239 104.93557 
L 259.618529 104.93557 
L 259.749852 104.700725 
L 260.275142 104.700725 
L 260.406464 104.059288 
L 262.24498 103.999145 
L 262.376303 103.089752 
L 263.558206 103.005421 
L 263.952173 102.964593 
L 264.214818 102.964593 
L 264.346141 102.378353 
L 264.871431 102.378353 
L 265.002754 101.735499 
L 266.184656 101.639021 
L 266.447302 101.431139 
L 266.841269 101.431139 
L 266.972592 101.104788 
L 267.497882 101.104788 
L 267.629204 99.234841 
L 268.811107 99.195924 
L 268.94243 98.581355 
L 269.46772 98.581355 
L 269.599043 97.756853 
L 270.124333 97.756853 
L 270.255655 96.594364 
L 270.780946 96.594364 
L 270.912268 96.146046 
L 271.437558 96.146046 
L 271.568881 94.807839 
L 272.094171 94.807839 
L 272.225494 93.286863 
L 272.750784 93.286863 
L 272.750784 93.286863 
" style="fill:none;stroke:#ff0000;stroke-dasharray:7.4,3.2;stroke-dashoffset:0;stroke-width:2;"/>
   </g>
   <g id="patch_3">
    <path d="M 135 189 
L 135 25.92 
" style="fill:none;stroke:#000000;stroke-linecap:square;stroke-linejoin:miter;stroke-width:0.8;"/>
   </g>
   <g id="patch_4">
    <path d="M 279.310345 189 
L 279.310345 25.92 
" style="fill:none;stroke:#000000;stroke-linecap:square;stroke-linejoin:miter;stroke-width:0.8;"/>
   </g>
   <g id="patch_5">
    <path d="M 135 189 
L 279.310345 189 
" style="fill:none;stroke:#000000;stroke-linecap:square;stroke-linejoin:miter;stroke-width:0.8;"/>
   </g>
   <g id="patch_6">
    <path d="M 135 25.92 
L 279.310345 25.92 
" style="fill:none;stroke:#000000;stroke-linecap:square;stroke-linejoin:miter;stroke-width:0.8;"/>
   </g>
   <g id="text_10">
    <!-- silhouette_score: 0.12 -->
    <defs>
     <path d="M 44.28125 53.078125 
L 44.28125 44.578125 
Q 40.484375 46.53125 36.375 47.5 
Q 32.28125 48.484375 27.875 48.484375 
Q 21.1875 48.484375 17.84375 46.4375 
Q 14.5 44.390625 14.5 40.28125 
Q 14.5 37.15625 16.890625 35.375 
Q 19.28125 33.59375 26.515625 31.984375 
L 29.59375 31.296875 
Q 39.15625 29.25 43.1875 25.515625 
Q 47.21875 21.78125 47.21875 15.09375 
Q 47.21875 7.46875 41.1875 3.015625 
Q 35.15625 -1.421875 24.609375 -1.421875 
Q 20.21875 -1.421875 15.453125 -0.5625 
Q 10.6875 0.296875 5.421875 2 
L 5.421875 11.28125 
Q 10.40625 8.6875 15.234375 7.390625 
Q 20.0625 6.109375 24.8125 6.109375 
Q 31.15625 6.109375 34.5625 8.28125 
Q 37.984375 10.453125 37.984375 14.40625 
Q 37.984375 18.0625 35.515625 20.015625 
Q 33.0625 21.96875 24.703125 23.78125 
L 21.578125 24.515625 
Q 13.234375 26.265625 9.515625 29.90625 
Q 5.8125 33.546875 5.8125 39.890625 
Q 5.8125 47.609375 11.28125 51.796875 
Q 16.75 56 26.8125 56 
Q 31.78125 56 36.171875 55.265625 
Q 40.578125 54.546875 44.28125 53.078125 
z
" id="DejaVuSans-73"/>
     <path d="M 9.421875 54.6875 
L 18.40625 54.6875 
L 18.40625 0 
L 9.421875 0 
z
M 9.421875 75.984375 
L 18.40625 75.984375 
L 18.40625 64.59375 
L 9.421875 64.59375 
z
" id="DejaVuSans-69"/>
     <path d="M 9.421875 75.984375 
L 18.40625 75.984375 
L 18.40625 0 
L 9.421875 0 
z
" id="DejaVuSans-6c"/>
     <path d="M 54.890625 33.015625 
L 54.890625 0 
L 45.90625 0 
L 45.90625 32.71875 
Q 45.90625 40.484375 42.875 44.328125 
Q 39.84375 48.1875 33.796875 48.1875 
Q 26.515625 48.1875 22.3125 43.546875 
Q 18.109375 38.921875 18.109375 30.90625 
L 18.109375 0 
L 9.078125 0 
L 9.078125 75.984375 
L 18.109375 75.984375 
L 18.109375 46.1875 
Q 21.34375 51.125 25.703125 53.5625 
Q 30.078125 56 35.796875 56 
Q 45.21875 56 50.046875 50.171875 
Q 54.890625 44.34375 54.890625 33.015625 
z
" id="DejaVuSans-68"/>
     <path d="M 30.609375 48.390625 
Q 23.390625 48.390625 19.1875 42.75 
Q 14.984375 37.109375 14.984375 27.296875 
Q 14.984375 17.484375 19.15625 11.84375 
Q 23.34375 6.203125 30.609375 6.203125 
Q 37.796875 6.203125 41.984375 11.859375 
Q 46.1875 17.53125 46.1875 27.296875 
Q 46.1875 37.015625 41.984375 42.703125 
Q 37.796875 48.390625 30.609375 48.390625 
z
M 30.609375 56 
Q 42.328125 56 49.015625 48.375 
Q 55.71875 40.765625 55.71875 27.296875 
Q 55.71875 13.875 49.015625 6.21875 
Q 42.328125 -1.421875 30.609375 -1.421875 
Q 18.84375 -1.421875 12.171875 6.21875 
Q 5.515625 13.875 5.515625 27.296875 
Q 5.515625 40.765625 12.171875 48.375 
Q 18.84375 56 30.609375 56 
z
" id="DejaVuSans-6f"/>
     <path d="M 8.5 21.578125 
L 8.5 54.6875 
L 17.484375 54.6875 
L 17.484375 21.921875 
Q 17.484375 14.15625 20.5 10.265625 
Q 23.53125 6.390625 29.59375 6.390625 
Q 36.859375 6.390625 41.078125 11.03125 
Q 45.3125 15.671875 45.3125 23.6875 
L 45.3125 54.6875 
L 54.296875 54.6875 
L 54.296875 0 
L 45.3125 0 
L 45.3125 8.40625 
Q 42.046875 3.421875 37.71875 1 
Q 33.40625 -1.421875 27.6875 -1.421875 
Q 18.265625 -1.421875 13.375 4.4375 
Q 8.5 10.296875 8.5 21.578125 
z
M 31.109375 56 
z
" id="DejaVuSans-75"/>
     <path d="M 56.203125 29.59375 
L 56.203125 25.203125 
L 14.890625 25.203125 
Q 15.484375 15.921875 20.484375 11.0625 
Q 25.484375 6.203125 34.421875 6.203125 
Q 39.59375 6.203125 44.453125 7.46875 
Q 49.3125 8.734375 54.109375 11.28125 
L 54.109375 2.78125 
Q 49.265625 0.734375 44.1875 -0.34375 
Q 39.109375 -1.421875 33.890625 -1.421875 
Q 20.796875 -1.421875 13.15625 6.1875 
Q 5.515625 13.8125 5.515625 26.8125 
Q 5.515625 40.234375 12.765625 48.109375 
Q 20.015625 56 32.328125 56 
Q 43.359375 56 49.78125 48.890625 
Q 56.203125 41.796875 56.203125 29.59375 
z
M 47.21875 32.234375 
Q 47.125 39.59375 43.09375 43.984375 
Q 39.0625 48.390625 32.421875 48.390625 
Q 24.90625 48.390625 20.390625 44.140625 
Q 15.875 39.890625 15.1875 32.171875 
z
" id="DejaVuSans-65"/>
     <path d="M 18.3125 70.21875 
L 18.3125 54.6875 
L 36.8125 54.6875 
L 36.8125 47.703125 
L 18.3125 47.703125 
L 18.3125 18.015625 
Q 18.3125 11.328125 20.140625 9.421875 
Q 21.96875 7.515625 27.59375 7.515625 
L 36.8125 7.515625 
L 36.8125 0 
L 27.59375 0 
Q 17.1875 0 13.234375 3.875 
Q 9.28125 7.765625 9.28125 18.015625 
L 9.28125 47.703125 
L 2.6875 47.703125 
L 2.6875 54.6875 
L 9.28125 54.6875 
L 9.28125 70.21875 
z
" id="DejaVuSans-74"/>
     <path d="M 50.984375 -16.609375 
L 50.984375 -23.578125 
L -0.984375 -23.578125 
L -0.984375 -16.609375 
z
" id="DejaVuSans-5f"/>
     <path d="M 48.78125 52.59375 
L 48.78125 44.1875 
Q 44.96875 46.296875 41.140625 47.34375 
Q 37.3125 48.390625 33.40625 48.390625 
Q 24.65625 48.390625 19.8125 42.84375 
Q 14.984375 37.3125 14.984375 27.296875 
Q 14.984375 17.28125 19.8125 11.734375 
Q 24.65625 6.203125 33.40625 6.203125 
Q 37.3125 6.203125 41.140625 7.25 
Q 44.96875 8.296875 48.78125 10.40625 
L 48.78125 2.09375 
Q 45.015625 0.34375 40.984375 -0.53125 
Q 36.96875 -1.421875 32.421875 -1.421875 
Q 20.0625 -1.421875 12.78125 6.34375 
Q 5.515625 14.109375 5.515625 27.296875 
Q 5.515625 40.671875 12.859375 48.328125 
Q 20.21875 56 33.015625 56 
Q 37.15625 56 41.109375 55.140625 
Q 45.0625 54.296875 48.78125 52.59375 
z
" id="DejaVuSans-63"/>
     <path d="M 41.109375 46.296875 
Q 39.59375 47.171875 37.8125 47.578125 
Q 36.03125 48 33.890625 48 
Q 26.265625 48 22.1875 43.046875 
Q 18.109375 38.09375 18.109375 28.8125 
L 18.109375 0 
L 9.078125 0 
L 9.078125 54.6875 
L 18.109375 54.6875 
L 18.109375 46.1875 
Q 20.953125 51.171875 25.484375 53.578125 
Q 30.03125 56 36.53125 56 
Q 37.453125 56 38.578125 55.875 
Q 39.703125 55.765625 41.0625 55.515625 
z
" id="DejaVuSans-72"/>
     <path d="M 11.71875 12.40625 
L 22.015625 12.40625 
L 22.015625 0 
L 11.71875 0 
z
M 11.71875 51.703125 
L 22.015625 51.703125 
L 22.015625 39.3125 
L 11.71875 39.3125 
z
" id="DejaVuSans-3a"/>
     <path id="DejaVuSans-20"/>
    </defs>
    <g transform="translate(140.791422 19.92)scale(0.12 -0.12)">
     <use xlink:href="#DejaVuSans-73"/>
     <use x="52.099609" xlink:href="#DejaVuSans-69"/>
     <use x="79.882812" xlink:href="#DejaVuSans-6c"/>
     <use x="107.666016" xlink:href="#DejaVuSans-68"/>
     <use x="171.044922" xlink:href="#DejaVuSans-6f"/>
     <use x="232.226562" xlink:href="#DejaVuSans-75"/>
     <use x="295.605469" xlink:href="#DejaVuSans-65"/>
     <use x="357.128906" xlink:href="#DejaVuSans-74"/>
     <use x="396.337891" xlink:href="#DejaVuSans-74"/>
     <use x="435.546875" xlink:href="#DejaVuSans-65"/>
     <use x="497.070312" xlink:href="#DejaVuSans-5f"/>
     <use x="547.070312" xlink:href="#DejaVuSans-73"/>
     <use x="599.169922" xlink:href="#DejaVuSans-63"/>
     <use x="654.150391" xlink:href="#DejaVuSans-6f"/>
     <use x="715.332031" xlink:href="#DejaVuSans-72"/>
     <use x="756.414062" xlink:href="#DejaVuSans-65"/>
     <use x="817.9375" xlink:href="#DejaVuSans-3a"/>
     <use x="851.628906" xlink:href="#DejaVuSans-20"/>
     <use x="883.416016" xlink:href="#DejaVuSans-30"/>
     <use x="947.039062" xlink:href="#DejaVuSans-2e"/>
     <use x="978.826172" xlink:href="#DejaVuSans-31"/>
     <use x="1042.449219" xlink:href="#DejaVuSans-32"/>
    </g>
   </g>
  </g>
  <g id="axes_2">
   <g id="patch_7">
    <path d="M 308.172414 189 
L 452.482759 189 
L 452.482759 25.92 
L 308.172414 25.92 
z
" style="fill:#ffffff;"/>
   </g>
   <g id="matplotlib.axis_3">
    <g id="xtick_4">
     <g id="line2d_11">
      <g>
       <use style="stroke:#000000;stroke-width:0.8;" x="314.731975" xlink:href="#m3df6ad27fd" y="189"/>
      </g>
     </g>
     <g id="text_11">
      <!-- 0 -->
      <g transform="translate(311.550725 203.598437)scale(0.1 -0.1)">
       <use xlink:href="#DejaVuSans-30"/>
      </g>
     </g>
    </g>
    <g id="xtick_5">
     <g id="line2d_12">
      <g>
       <use style="stroke:#000000;stroke-width:0.8;" x="380.393247" xlink:href="#m3df6ad27fd" y="189"/>
      </g>
     </g>
     <g id="text_12">
      <!-- 500 -->
      <g transform="translate(370.849497 203.598437)scale(0.1 -0.1)">
       <use xlink:href="#DejaVuSans-35"/>
       <use x="63.623047" xlink:href="#DejaVuSans-30"/>
       <use x="127.246094" xlink:href="#DejaVuSans-30"/>
      </g>
     </g>
    </g>
    <g id="xtick_6">
     <g id="line2d_13">
      <g>
       <use style="stroke:#000000;stroke-width:0.8;" x="446.05452" xlink:href="#m3df6ad27fd" y="189"/>
      </g>
     </g>
     <g id="text_13">
      <!-- 1000 -->
      <g transform="translate(433.32952 203.598437)scale(0.1 -0.1)">
       <use xlink:href="#DejaVuSans-31"/>
       <use x="63.623047" xlink:href="#DejaVuSans-30"/>
       <use x="127.246094" xlink:href="#DejaVuSans-30"/>
       <use x="190.869141" xlink:href="#DejaVuSans-30"/>
      </g>
     </g>
    </g>
   </g>
   <g id="matplotlib.axis_4">
    <g id="ytick_7">
     <g id="line2d_14">
      <g>
       <use style="stroke:#000000;stroke-width:0.8;" x="308.172414" xlink:href="#m01982ed8e0" y="168.332053"/>
      </g>
     </g>
    </g>
    <g id="ytick_8">
     <g id="line2d_15">
      <g>
       <use style="stroke:#000000;stroke-width:0.8;" x="308.172414" xlink:href="#m01982ed8e0" y="143.268784"/>
      </g>
     </g>
    </g>
    <g id="ytick_9">
     <g id="line2d_16">
      <g>
       <use style="stroke:#000000;stroke-width:0.8;" x="308.172414" xlink:href="#m01982ed8e0" y="118.205515"/>
      </g>
     </g>
    </g>
    <g id="ytick_10">
     <g id="line2d_17">
      <g>
       <use style="stroke:#000000;stroke-width:0.8;" x="308.172414" xlink:href="#m01982ed8e0" y="93.142246"/>
      </g>
     </g>
    </g>
    <g id="ytick_11">
     <g id="line2d_18">
      <g>
       <use style="stroke:#000000;stroke-width:0.8;" x="308.172414" xlink:href="#m01982ed8e0" y="68.078976"/>
      </g>
     </g>
    </g>
    <g id="ytick_12">
     <g id="line2d_19">
      <g>
       <use style="stroke:#000000;stroke-width:0.8;" x="308.172414" xlink:href="#m01982ed8e0" y="43.015707"/>
      </g>
     </g>
    </g>
   </g>
   <g id="line2d_20">
    <path clip-path="url(#p1663ce82a0)" d="M 314.731975 181.587273 
L 315.257265 181.587273 
L 315.388588 177.45361 
L 315.913878 177.45361 
L 316.0452 167.024939 
L 316.570491 167.024939 
L 316.701813 162.406595 
L 317.227103 162.406595 
L 317.358426 153.226181 
L 317.883716 153.226181 
L 318.015039 144.78598 
L 318.540329 144.78598 
L 318.802974 144.580175 
L 319.196941 144.580175 
L 319.328264 139.523326 
L 319.853554 139.523326 
L 319.984877 138.555135 
L 320.510167 138.555135 
L 320.641489 132.014395 
L 321.16678 132.014395 
L 321.298102 129.126948 
L 321.823392 129.126948 
L 321.954715 127.399556 
L 323.136618 127.313137 
L 323.26794 121.96652 
L 323.793231 121.96652 
L 323.924553 121.528293 
L 324.449843 121.528293 
L 324.581166 117.699866 
L 325.106456 117.699866 
L 325.237779 116.063369 
L 325.763069 116.063369 
L 325.894391 115.511373 
L 326.419681 115.511373 
L 326.551004 113.00753 
L 327.076294 113.00753 
L 327.207617 112.15154 
L 327.732907 112.15154 
L 327.864229 111.155487 
L 328.38952 111.155487 
L 328.520842 107.433379 
L 329.046132 107.433379 
L 329.177455 106.176967 
L 329.702745 106.176967 
L 329.96539 105.977755 
L 330.359358 105.977755 
L 330.622003 105.773585 
L 331.015971 105.773585 
L 331.147293 105.373536 
L 331.672583 105.373536 
L 331.803906 105.149681 
L 332.329196 105.149681 
L 332.591841 104.971309 
L 332.985809 104.971309 
L 333.248454 104.86 
L 333.642421 104.86 
L 333.773744 104.205804 
L 334.299034 104.205804 
L 334.430357 103.578107 
L 334.955647 103.578107 
L 335.086969 103.301661 
L 336.268872 103.202036 
L 336.400195 102.932075 
L 336.925485 102.932075 
L 337.056808 102.547008 
L 338.23871 102.437069 
L 338.370033 101.591497 
L 338.895323 101.591497 
L 339.026646 101.217672 
L 339.551936 101.217672 
L 339.683258 101.002505 
L 340.208549 101.002505 
L 340.339871 100.718994 
L 341.521774 100.697311 
L 341.653097 100.454095 
L 342.178387 100.454095 
L 342.441032 100.282332 
L 343.491612 100.259721 
L 343.622935 100.041198 
L 344.148225 100.041198 
L 344.41087 99.924283 
L 344.804838 99.924283 
L 344.93616 99.505885 
L 346.118063 99.427813 
L 346.249386 98.690557 
L 346.774676 98.690557 
L 346.905998 98.454406 
L 347.431289 98.454406 
L 347.693934 98.335212 
L 348.087901 98.335212 
L 348.219224 97.919726 
L 348.744514 97.919726 
L 348.875837 97.592929 
L 349.401127 97.592929 
L 349.663772 97.440031 
L 350.05774 97.440031 
L 350.320385 97.296259 
L 351.370965 97.242241 
L 351.63361 97.111706 
L 352.027578 97.111706 
L 352.1589 96.724531 
L 352.68419 96.724531 
L 352.815513 96.508752 
L 353.340803 96.508752 
L 353.472126 96.155602 
L 354.654029 96.098903 
L 354.916674 96.027395 
L 355.310641 96.027395 
L 355.441964 95.567844 
L 355.967254 95.567844 
L 356.098577 95.341545 
L 356.623867 95.341545 
L 356.886512 95.204831 
L 357.28048 95.204831 
L 357.411802 94.426185 
L 358.593705 94.409595 
L 358.725028 93.678117 
L 359.250318 93.678117 
L 359.512963 93.513621 
L 359.90693 93.513621 
L 360.038253 93.237642 
L 360.563543 93.237642 
L 360.826188 93.126087 
L 361.220156 93.126087 
L 361.351478 92.762436 
L 361.876769 92.762436 
L 362.008091 92.364079 
L 362.533381 92.364079 
L 362.664704 92.077982 
L 364.50322 92.061963 
L 364.634542 91.200736 
L 365.159832 91.200736 
L 365.422477 91.086103 
L 366.473058 91.081731 
L 366.60438 90.850616 
L 367.786283 90.842991 
L 368.048928 90.703418 
L 369.756121 90.604473 
L 370.018766 90.415324 
L 370.412734 90.415324 
L 370.675379 90.303397 
L 372.382572 90.195807 
L 372.645217 90.077745 
L 373.695798 89.969732 
L 373.958443 89.782682 
L 374.35241 89.782682 
L 374.615055 89.616473 
L 375.009023 89.616473 
L 375.140346 89.027098 
L 376.322249 89.004741 
L 376.584894 88.811176 
L 378.292087 88.739693 
L 378.554732 88.570898 
L 378.948699 88.570898 
L 379.211345 88.45443 
L 380.261925 88.358049 
L 380.655893 88.312693 
L 380.918538 88.312693 
L 381.04986 88.053233 
L 382.231763 87.946616 
L 382.494408 87.791113 
L 382.888376 87.791113 
L 383.019698 87.263069 
L 384.201601 87.154143 
L 384.464246 87.068024 
L 386.171439 86.995714 
L 386.434085 86.883827 
L 388.141278 86.79658 
L 388.2726 86.271333 
L 389.454503 86.216373 
L 389.717148 86.07148 
L 390.111116 86.07148 
L 390.373761 85.910958 
L 390.767729 85.910958 
L 390.899051 85.468903 
L 392.080954 85.387872 
L 392.474922 85.334442 
L 393.394179 85.294766 
L 393.656825 85.198971 
L 394.707405 85.191414 
L 394.838727 84.859463 
L 396.02063 84.841314 
L 396.283275 84.698876 
L 396.677243 84.698876 
L 396.808566 84.485095 
L 397.990469 84.382031 
L 398.253114 84.278402 
L 399.960307 84.211805 
L 400.091629 83.740329 
L 401.273532 83.701221 
L 401.536177 83.54532 
L 403.24337 83.453879 
L 403.506015 83.358898 
L 404.556596 83.306979 
L 404.819241 83.103985 
L 405.213209 83.103985 
L 405.344531 82.829258 
L 407.839659 82.736531 
L 408.102304 82.625331 
L 408.496272 82.625331 
L 408.627595 82.129913 
L 409.809498 82.070749 
L 410.072143 81.999389 
L 410.46611 81.999389 
L 410.597433 81.788018 
L 411.122723 81.788018 
L 411.385368 81.663108 
L 412.435948 81.622304 
L 412.567271 81.326738 
L 413.092561 81.326738 
L 413.223884 80.858146 
L 413.749174 80.858146 
L 413.880496 80.408366 
L 415.062399 80.372469 
L 415.193722 80.151256 
L 416.375625 80.131083 
L 416.506947 79.882121 
L 417.032238 79.882121 
L 417.294883 79.752766 
L 417.68885 79.752766 
L 417.951495 79.583887 
L 419.002076 79.576354 
L 419.133398 79.101384 
L 419.658688 79.101384 
L 419.921334 78.903192 
L 420.315301 78.903192 
L 420.446624 78.650517 
L 421.628527 78.634589 
L 421.759849 78.232537 
L 424.91159 78.1489 
L 425.042913 77.791075 
L 425.568203 77.791075 
L 425.699526 77.514627 
L 426.224816 77.514627 
L 426.487461 77.316329 
L 426.881428 77.316329 
L 427.144074 77.173062 
L 429.507879 77.073966 
L 429.770524 76.97716 
L 430.821105 76.941278 
L 431.08375 76.811369 
L 432.13433 76.789957 
L 432.265653 76.533555 
L 432.790943 76.533555 
L 432.922266 76.275829 
L 433.447556 76.275829 
L 433.578878 75.786604 
L 434.104168 75.786604 
L 434.366814 75.660893 
L 434.760781 75.660893 
L 434.892104 75.346665 
L 436.074007 75.2909 
L 436.336652 75.167693 
L 436.730619 75.167693 
L 436.861942 74.582693 
L 437.387232 74.582693 
L 437.518555 74.253009 
L 438.700458 74.204209 
L 438.963103 74.01663 
L 440.013683 73.983436 
L 440.145006 73.41971 
L 440.670296 73.41971 
L 440.932941 73.305499 
L 441.326908 73.305499 
L 441.589554 73.181816 
L 441.983521 73.181816 
L 442.114844 72.846917 
L 442.640134 72.846917 
L 442.771456 72.431264 
L 444.609972 72.329353 
L 444.741295 71.56633 
L 445.266585 71.56633 
L 445.397907 71.133426 
L 445.923197 71.133426 
L 445.923197 71.133426 
" style="fill:none;stroke:#ff0000;stroke-dasharray:7.4,3.2;stroke-dashoffset:0;stroke-width:2;"/>
   </g>
   <g id="patch_8">
    <path d="M 308.172414 189 
L 308.172414 25.92 
" style="fill:none;stroke:#000000;stroke-linecap:square;stroke-linejoin:miter;stroke-width:0.8;"/>
   </g>
   <g id="patch_9">
    <path d="M 452.482759 189 
L 452.482759 25.92 
" style="fill:none;stroke:#000000;stroke-linecap:square;stroke-linejoin:miter;stroke-width:0.8;"/>
   </g>
   <g id="patch_10">
    <path d="M 308.172414 189 
L 452.482759 189 
" style="fill:none;stroke:#000000;stroke-linecap:square;stroke-linejoin:miter;stroke-width:0.8;"/>
   </g>
   <g id="patch_11">
    <path d="M 308.172414 25.92 
L 452.482759 25.92 
" style="fill:none;stroke:#000000;stroke-linecap:square;stroke-linejoin:miter;stroke-width:0.8;"/>
   </g>
   <g id="text_14">
    <!-- silhouette_score: 0.4 -->
    <g transform="translate(317.781336 19.92)scale(0.12 -0.12)">
     <use xlink:href="#DejaVuSans-73"/>
     <use x="52.099609" xlink:href="#DejaVuSans-69"/>
     <use x="79.882812" xlink:href="#DejaVuSans-6c"/>
     <use x="107.666016" xlink:href="#DejaVuSans-68"/>
     <use x="171.044922" xlink:href="#DejaVuSans-6f"/>
     <use x="232.226562" xlink:href="#DejaVuSans-75"/>
     <use x="295.605469" xlink:href="#DejaVuSans-65"/>
     <use x="357.128906" xlink:href="#DejaVuSans-74"/>
     <use x="396.337891" xlink:href="#DejaVuSans-74"/>
     <use x="435.546875" xlink:href="#DejaVuSans-65"/>
     <use x="497.070312" xlink:href="#DejaVuSans-5f"/>
     <use x="547.070312" xlink:href="#DejaVuSans-73"/>
     <use x="599.169922" xlink:href="#DejaVuSans-63"/>
     <use x="654.150391" xlink:href="#DejaVuSans-6f"/>
     <use x="715.332031" xlink:href="#DejaVuSans-72"/>
     <use x="756.414062" xlink:href="#DejaVuSans-65"/>
     <use x="817.9375" xlink:href="#DejaVuSans-3a"/>
     <use x="851.628906" xlink:href="#DejaVuSans-20"/>
     <use x="883.416016" xlink:href="#DejaVuSans-30"/>
     <use x="947.039062" xlink:href="#DejaVuSans-2e"/>
     <use x="978.826172" xlink:href="#DejaVuSans-34"/>
    </g>
   </g>
  </g>
  <g id="axes_3">
   <g id="patch_12">
    <path d="M 481.344828 189 
L 625.655172 189 
L 625.655172 25.92 
L 481.344828 25.92 
z
" style="fill:#ffffff;"/>
   </g>
   <g id="matplotlib.axis_5">
    <g id="xtick_7">
     <g id="line2d_21">
      <g>
       <use style="stroke:#000000;stroke-width:0.8;" x="487.904389" xlink:href="#m3df6ad27fd" y="189"/>
      </g>
     </g>
     <g id="text_15">
      <!-- 0 -->
      <g transform="translate(484.723139 203.598437)scale(0.1 -0.1)">
       <use xlink:href="#DejaVuSans-30"/>
      </g>
     </g>
    </g>
    <g id="xtick_8">
     <g id="line2d_22">
      <g>
       <use style="stroke:#000000;stroke-width:0.8;" x="553.565661" xlink:href="#m3df6ad27fd" y="189"/>
      </g>
     </g>
     <g id="text_16">
      <!-- 500 -->
      <g transform="translate(544.021911 203.598437)scale(0.1 -0.1)">
       <use xlink:href="#DejaVuSans-35"/>
       <use x="63.623047" xlink:href="#DejaVuSans-30"/>
       <use x="127.246094" xlink:href="#DejaVuSans-30"/>
      </g>
     </g>
    </g>
    <g id="xtick_9">
     <g id="line2d_23">
      <g>
       <use style="stroke:#000000;stroke-width:0.8;" x="619.226934" xlink:href="#m3df6ad27fd" y="189"/>
      </g>
     </g>
     <g id="text_17">
      <!-- 1000 -->
      <g transform="translate(606.501934 203.598437)scale(0.1 -0.1)">
       <use xlink:href="#DejaVuSans-31"/>
       <use x="63.623047" xlink:href="#DejaVuSans-30"/>
       <use x="127.246094" xlink:href="#DejaVuSans-30"/>
       <use x="190.869141" xlink:href="#DejaVuSans-30"/>
      </g>
     </g>
    </g>
   </g>
   <g id="matplotlib.axis_6">
    <g id="ytick_13">
     <g id="line2d_24">
      <g>
       <use style="stroke:#000000;stroke-width:0.8;" x="481.344828" xlink:href="#m01982ed8e0" y="168.332053"/>
      </g>
     </g>
    </g>
    <g id="ytick_14">
     <g id="line2d_25">
      <g>
       <use style="stroke:#000000;stroke-width:0.8;" x="481.344828" xlink:href="#m01982ed8e0" y="143.268784"/>
      </g>
     </g>
    </g>
    <g id="ytick_15">
     <g id="line2d_26">
      <g>
       <use style="stroke:#000000;stroke-width:0.8;" x="481.344828" xlink:href="#m01982ed8e0" y="118.205515"/>
      </g>
     </g>
    </g>
    <g id="ytick_16">
     <g id="line2d_27">
      <g>
       <use style="stroke:#000000;stroke-width:0.8;" x="481.344828" xlink:href="#m01982ed8e0" y="93.142246"/>
      </g>
     </g>
    </g>
    <g id="ytick_17">
     <g id="line2d_28">
      <g>
       <use style="stroke:#000000;stroke-width:0.8;" x="481.344828" xlink:href="#m01982ed8e0" y="68.078976"/>
      </g>
     </g>
    </g>
    <g id="ytick_18">
     <g id="line2d_29">
      <g>
       <use style="stroke:#000000;stroke-width:0.8;" x="481.344828" xlink:href="#m01982ed8e0" y="43.015707"/>
      </g>
     </g>
    </g>
   </g>
   <g id="line2d_30">
    <path clip-path="url(#p493b6978eb)" d="M 487.904389 93.462368 
L 488.429679 93.462368 
L 488.561001 82.880092 
L 489.086292 82.880092 
L 489.217614 81.129193 
L 489.742904 81.129193 
L 489.874227 76.195475 
L 490.399517 76.195475 
L 490.53084 73.894355 
L 491.05613 73.894355 
L 491.187452 72.998423 
L 491.712743 72.998423 
L 491.844065 72.115993 
L 492.369355 72.115993 
L 492.500678 71.723357 
L 493.025968 71.723357 
L 493.157291 71.333199 
L 493.682581 71.333199 
L 493.813903 69.513482 
L 495.652419 69.446675 
L 495.783741 69.223418 
L 496.309032 69.223418 
L 496.440354 68.509902 
L 497.622257 68.465589 
L 497.884902 68.298889 
L 498.935483 68.250311 
L 499.066805 67.835789 
L 499.592095 67.835789 
L 499.723418 67.167308 
L 500.905321 67.142588 
L 501.167966 67.017341 
L 501.561933 67.017341 
L 501.693256 66.262221 
L 502.218546 66.262221 
L 502.349869 65.402814 
L 502.875159 65.402814 
L 503.006481 65.070018 
L 503.531772 65.070018 
L 503.794417 64.949015 
L 504.188384 64.949015 
L 504.451029 64.82528 
L 506.158222 64.740764 
L 506.289545 64.428124 
L 507.471448 64.322913 
L 507.60277 64.079303 
L 508.128061 64.079303 
L 508.259383 63.736295 
L 509.441286 63.71834 
L 509.703931 63.624328 
L 511.411124 63.529134 
L 511.542447 63.19074 
L 512.067737 63.19074 
L 512.19906 62.981227 
L 513.380962 62.94455 
L 513.643608 62.804486 
L 514.037575 62.804486 
L 514.168898 62.541 
L 515.350801 62.47228 
L 515.613446 62.387144 
L 516.664026 62.322685 
L 516.926671 62.192371 
L 517.977252 62.191584 
L 518.108574 61.848983 
L 518.633864 61.848983 
L 518.896509 61.703885 
L 519.290477 61.703885 
L 519.4218 61.164181 
L 520.603702 61.117508 
L 520.866348 61.032533 
L 521.260315 61.032533 
L 521.52296 60.899504 
L 522.573541 60.838241 
L 522.836186 60.718759 
L 523.230153 60.718759 
L 523.361476 60.413552 
L 523.886766 60.413552 
L 524.149411 60.217179 
L 525.199992 60.214884 
L 525.331314 59.940311 
L 525.856604 59.940311 
L 526.119249 59.763214 
L 527.16983 59.734853 
L 527.432475 59.540882 
L 528.483055 59.476904 
L 528.7457 59.381153 
L 530.452893 59.295822 
L 531.109506 59.269884 
L 531.240829 58.930104 
L 532.422732 58.821555 
L 532.554054 58.494652 
L 533.735957 58.421976 
L 534.129925 58.362904 
L 535.049182 58.324275 
L 535.180505 57.901042 
L 535.705795 57.901042 
L 535.96844 57.733557 
L 537.675633 57.665699 
L 538.069601 57.620637 
L 538.988859 57.557072 
L 539.251504 57.475277 
L 540.302084 57.440126 
L 540.564729 57.328648 
L 541.61531 57.286121 
L 541.746632 57.046046 
L 542.928535 57.030492 
L 543.19118 56.875655 
L 544.241761 56.833394 
L 544.504406 56.661432 
L 546.868211 56.574645 
L 547.393502 56.544875 
L 549.494662 56.493549 
L 549.757307 56.395927 
L 552.121113 56.328732 
L 552.383758 56.26355 
L 553.434339 56.256697 
L 553.696984 56.118966 
L 554.747564 56.072872 
L 555.010209 56.005906 
L 555.404177 56.005906 
L 555.666822 55.859609 
L 557.374015 55.791998 
L 557.63666 55.635511 
L 558.687241 55.535581 
L 559.212531 55.499976 
L 559.343853 55.499976 
L 559.475176 55.186801 
L 560.000466 55.186801 
L 560.131789 54.968022 
L 560.657079 54.968022 
L 560.788401 54.744049 
L 562.626917 54.646886 
L 562.889562 54.565416 
L 563.940142 54.489148 
L 564.202787 54.409823 
L 565.909981 54.298965 
L 566.566593 54.272452 
L 566.697916 54.011492 
L 567.223206 54.011492 
L 567.485851 53.828201 
L 569.193044 53.732033 
L 569.587012 53.68616 
L 571.162882 53.607172 
L 571.425527 53.43531 
L 571.819495 53.43531 
L 572.08214 53.323455 
L 573.13272 53.26078 
L 573.395366 53.157893 
L 575.759171 53.110014 
L 576.021816 53.010749 
L 577.072397 52.924458 
L 577.466364 52.884358 
L 577.72901 52.884358 
L 577.860332 52.494869 
L 579.698848 52.391012 
L 580.749428 52.375134 
L 582.325299 52.334897 
L 582.587944 52.251251 
L 583.638524 52.198038 
L 583.901169 52.11429 
L 584.95175 52.016576 
L 586.396298 51.852891 
L 589.548039 51.770794 
L 589.810684 51.695938 
L 590.861264 51.585903 
L 591.123909 51.458379 
L 591.517877 51.458379 
L 591.780522 51.296137 
L 594.144328 51.233573 
L 594.406973 51.101523 
L 595.457553 51.045276 
L 595.588876 50.410803 
L 596.770779 50.334672 
L 597.164746 50.284912 
L 598.740617 50.212102 
L 599.134584 50.172887 
L 600.710455 50.084461 
L 601.235745 50.049296 
L 602.02368 49.945401 
L 602.811616 49.893902 
L 603.993519 49.809023 
L 604.124841 49.588892 
L 605.963357 49.501187 
L 606.488647 49.465213 
L 607.276582 49.370943 
L 607.539227 49.164386 
L 607.933195 49.164386 
L 608.064517 48.904747 
L 609.24642 48.872015 
L 609.509065 48.739803 
L 610.559646 48.663779 
L 610.822291 48.503882 
L 611.216259 48.503882 
L 611.478904 48.362121 
L 611.872871 48.362121 
L 612.135516 48.212945 
L 613.842709 48.10508 
L 613.974032 47.880733 
L 614.499322 47.880733 
L 614.630645 47.600078 
L 615.812548 47.554639 
L 615.94387 47.335446 
L 617.125773 47.276294 
L 617.257096 46.383807 
L 617.782386 46.383807 
L 618.045031 46.257849 
L 618.438999 46.257849 
L 618.570321 45.503894 
L 619.095611 45.503894 
L 619.095611 45.503894 
" style="fill:none;stroke:#ff0000;stroke-dasharray:7.4,3.2;stroke-dashoffset:0;stroke-width:2;"/>
   </g>
   <g id="patch_13">
    <path d="M 481.344828 189 
L 481.344828 25.92 
" style="fill:none;stroke:#000000;stroke-linecap:square;stroke-linejoin:miter;stroke-width:0.8;"/>
   </g>
   <g id="patch_14">
    <path d="M 625.655172 189 
L 625.655172 25.92 
" style="fill:none;stroke:#000000;stroke-linecap:square;stroke-linejoin:miter;stroke-width:0.8;"/>
   </g>
   <g id="patch_15">
    <path d="M 481.344828 189 
L 625.655172 189 
" style="fill:none;stroke:#000000;stroke-linecap:square;stroke-linejoin:miter;stroke-width:0.8;"/>
   </g>
   <g id="patch_16">
    <path d="M 481.344828 25.92 
L 625.655172 25.92 
" style="fill:none;stroke:#000000;stroke-linecap:square;stroke-linejoin:miter;stroke-width:0.8;"/>
   </g>
   <g id="text_18">
    <!-- silhouette_score: 0.69 -->
    <defs>
     <path d="M 10.984375 1.515625 
L 10.984375 10.5 
Q 14.703125 8.734375 18.5 7.8125 
Q 22.3125 6.890625 25.984375 6.890625 
Q 35.75 6.890625 40.890625 13.453125 
Q 46.046875 20.015625 46.78125 33.40625 
Q 43.953125 29.203125 39.59375 26.953125 
Q 35.25 24.703125 29.984375 24.703125 
Q 19.046875 24.703125 12.671875 31.3125 
Q 6.296875 37.9375 6.296875 49.421875 
Q 6.296875 60.640625 12.9375 67.421875 
Q 19.578125 74.21875 30.609375 74.21875 
Q 43.265625 74.21875 49.921875 64.515625 
Q 56.59375 54.828125 56.59375 36.375 
Q 56.59375 19.140625 48.40625 8.859375 
Q 40.234375 -1.421875 26.421875 -1.421875 
Q 22.703125 -1.421875 18.890625 -0.6875 
Q 15.09375 0.046875 10.984375 1.515625 
z
M 30.609375 32.421875 
Q 37.25 32.421875 41.125 36.953125 
Q 45.015625 41.5 45.015625 49.421875 
Q 45.015625 57.28125 41.125 61.84375 
Q 37.25 66.40625 30.609375 66.40625 
Q 23.96875 66.40625 20.09375 61.84375 
Q 16.21875 57.28125 16.21875 49.421875 
Q 16.21875 41.5 20.09375 36.953125 
Q 23.96875 32.421875 30.609375 32.421875 
z
" id="DejaVuSans-39"/>
    </defs>
    <g transform="translate(487.13625 19.92)scale(0.12 -0.12)">
     <use xlink:href="#DejaVuSans-73"/>
     <use x="52.099609" xlink:href="#DejaVuSans-69"/>
     <use x="79.882812" xlink:href="#DejaVuSans-6c"/>
     <use x="107.666016" xlink:href="#DejaVuSans-68"/>
     <use x="171.044922" xlink:href="#DejaVuSans-6f"/>
     <use x="232.226562" xlink:href="#DejaVuSans-75"/>
     <use x="295.605469" xlink:href="#DejaVuSans-65"/>
     <use x="357.128906" xlink:href="#DejaVuSans-74"/>
     <use x="396.337891" xlink:href="#DejaVuSans-74"/>
     <use x="435.546875" xlink:href="#DejaVuSans-65"/>
     <use x="497.070312" xlink:href="#DejaVuSans-5f"/>
     <use x="547.070312" xlink:href="#DejaVuSans-73"/>
     <use x="599.169922" xlink:href="#DejaVuSans-63"/>
     <use x="654.150391" xlink:href="#DejaVuSans-6f"/>
     <use x="715.332031" xlink:href="#DejaVuSans-72"/>
     <use x="756.414062" xlink:href="#DejaVuSans-65"/>
     <use x="817.9375" xlink:href="#DejaVuSans-3a"/>
     <use x="851.628906" xlink:href="#DejaVuSans-20"/>
     <use x="883.416016" xlink:href="#DejaVuSans-30"/>
     <use x="947.039062" xlink:href="#DejaVuSans-2e"/>
     <use x="978.826172" xlink:href="#DejaVuSans-36"/>
     <use x="1042.449219" xlink:href="#DejaVuSans-39"/>
    </g>
   </g>
  </g>
  <g id="axes_4">
   <g id="patch_17">
    <path d="M 654.517241 189 
L 798.827586 189 
L 798.827586 25.92 
L 654.517241 25.92 
z
" style="fill:#ffffff;"/>
   </g>
   <g id="matplotlib.axis_7">
    <g id="xtick_10">
     <g id="line2d_31">
      <g>
       <use style="stroke:#000000;stroke-width:0.8;" x="661.076803" xlink:href="#m3df6ad27fd" y="189"/>
      </g>
     </g>
     <g id="text_19">
      <!-- 0 -->
      <g transform="translate(657.895553 203.598437)scale(0.1 -0.1)">
       <use xlink:href="#DejaVuSans-30"/>
      </g>
     </g>
    </g>
    <g id="xtick_11">
     <g id="line2d_32">
      <g>
       <use style="stroke:#000000;stroke-width:0.8;" x="726.738075" xlink:href="#m3df6ad27fd" y="189"/>
      </g>
     </g>
     <g id="text_20">
      <!-- 500 -->
      <g transform="translate(717.194325 203.598437)scale(0.1 -0.1)">
       <use xlink:href="#DejaVuSans-35"/>
       <use x="63.623047" xlink:href="#DejaVuSans-30"/>
       <use x="127.246094" xlink:href="#DejaVuSans-30"/>
      </g>
     </g>
    </g>
    <g id="xtick_12">
     <g id="line2d_33">
      <g>
       <use style="stroke:#000000;stroke-width:0.8;" x="792.399348" xlink:href="#m3df6ad27fd" y="189"/>
      </g>
     </g>
     <g id="text_21">
      <!-- 1000 -->
      <g transform="translate(779.674348 203.598437)scale(0.1 -0.1)">
       <use xlink:href="#DejaVuSans-31"/>
       <use x="63.623047" xlink:href="#DejaVuSans-30"/>
       <use x="127.246094" xlink:href="#DejaVuSans-30"/>
       <use x="190.869141" xlink:href="#DejaVuSans-30"/>
      </g>
     </g>
    </g>
   </g>
   <g id="matplotlib.axis_8">
    <g id="ytick_19">
     <g id="line2d_34">
      <g>
       <use style="stroke:#000000;stroke-width:0.8;" x="654.517241" xlink:href="#m01982ed8e0" y="168.332053"/>
      </g>
     </g>
    </g>
    <g id="ytick_20">
     <g id="line2d_35">
      <g>
       <use style="stroke:#000000;stroke-width:0.8;" x="654.517241" xlink:href="#m01982ed8e0" y="143.268784"/>
      </g>
     </g>
    </g>
    <g id="ytick_21">
     <g id="line2d_36">
      <g>
       <use style="stroke:#000000;stroke-width:0.8;" x="654.517241" xlink:href="#m01982ed8e0" y="118.205515"/>
      </g>
     </g>
    </g>
    <g id="ytick_22">
     <g id="line2d_37">
      <g>
       <use style="stroke:#000000;stroke-width:0.8;" x="654.517241" xlink:href="#m01982ed8e0" y="93.142246"/>
      </g>
     </g>
    </g>
    <g id="ytick_23">
     <g id="line2d_38">
      <g>
       <use style="stroke:#000000;stroke-width:0.8;" x="654.517241" xlink:href="#m01982ed8e0" y="68.078976"/>
      </g>
     </g>
    </g>
    <g id="ytick_24">
     <g id="line2d_39">
      <g>
       <use style="stroke:#000000;stroke-width:0.8;" x="654.517241" xlink:href="#m01982ed8e0" y="43.015707"/>
      </g>
     </g>
    </g>
   </g>
   <g id="line2d_40">
    <path clip-path="url(#pba90e28f57)" d="M 661.076803 72.625194 
L 661.602093 72.625194 
L 661.733415 61.508242 
L 662.915318 61.42162 
L 663.046641 60.646904 
L 663.571931 60.646904 
L 663.703253 60.178766 
L 664.228544 60.178766 
L 664.359866 59.790484 
L 664.885156 59.790484 
L 665.016479 57.852053 
L 665.541769 57.852053 
L 665.673092 56.997787 
L 666.198382 56.997787 
L 666.329704 56.216575 
L 666.854994 56.216575 
L 666.986317 55.503776 
L 668.16822 55.399528 
L 668.299542 55.144773 
L 669.481445 55.132583 
L 669.612768 54.662189 
L 670.138058 54.662189 
L 670.269381 53.682733 
L 670.794671 53.682733 
L 671.057316 53.504745 
L 672.107896 53.482605 
L 672.239219 53.10049 
L 672.764509 53.10049 
L 672.895832 52.735133 
L 674.077734 52.628966 
L 674.471702 52.573977 
L 674.734347 52.573977 
L 674.86567 51.962467 
L 676.704185 51.887998 
L 676.835508 51.322604 
L 678.017411 51.297244 
L 678.148733 51.001374 
L 678.674024 51.001374 
L 678.936669 50.872013 
L 680.643862 50.779349 
L 680.906507 50.655829 
L 681.957087 50.566639 
L 682.219732 50.407317 
L 682.6137 50.407317 
L 682.745022 50.163791 
L 684.583538 50.069619 
L 685.765441 49.961222 
L 685.896764 49.961222 
L 686.028086 49.742638 
L 686.553376 49.742638 
L 686.816021 49.623806 
L 687.866602 49.545405 
L 687.997924 49.329576 
L 689.179827 49.259672 
L 689.31115 48.938889 
L 690.493053 48.928832 
L 690.624375 48.590158 
L 692.462891 48.514787 
L 692.725536 48.316147 
L 693.119504 48.316147 
L 693.250826 48.053925 
L 693.776116 48.053925 
L 694.038761 47.877071 
L 695.745954 47.802432 
L 696.139922 47.76051 
L 696.402567 47.76051 
L 696.665212 47.585608 
L 698.372405 47.5039 
L 698.63505 47.365121 
L 699.685631 47.294104 
L 700.079598 47.252484 
L 700.342243 47.252484 
L 700.604889 47.064039 
L 701.655469 46.973785 
L 702.049437 46.918443 
L 704.28192 46.823502 
L 704.544565 46.746005 
L 704.938533 46.746005 
L 705.069855 46.532468 
L 705.595145 46.532468 
L 705.85779 46.389841 
L 708.878209 46.31403 
L 709.140854 46.245009 
L 709.534822 46.245009 
L 709.666144 45.999151 
L 711.50466 45.89196 
L 711.767305 45.826721 
L 712.817885 45.823558 
L 713.08053 45.651553 
L 713.474498 45.651553 
L 713.605821 45.309089 
L 714.131111 45.309089 
L 714.393756 45.165193 
L 716.100949 45.076071 
L 716.494917 45.020538 
L 716.757562 45.020538 
L 717.020207 44.868641 
L 720.040625 44.759171 
L 720.30327 44.657722 
L 721.353851 44.57078 
L 721.616496 44.36718 
L 722.667076 44.263898 
L 723.848979 44.100911 
L 725.95014 44.017614 
L 726.344107 43.977548 
L 729.889816 43.892879 
L 730.152461 43.778711 
L 731.859654 43.710741 
L 732.122299 43.577797 
L 733.829493 43.475377 
L 734.354783 43.443283 
L 735.799331 43.353749 
L 736.061976 43.24761 
L 738.425782 43.184774 
L 738.688427 43.092123 
L 740.39562 42.98215 
L 740.789587 42.939897 
L 741.052232 42.939897 
L 741.314878 42.775697 
L 743.022071 42.666172 
L 744.072651 42.611487 
L 746.305134 42.518778 
L 747.09307 42.496494 
L 748.274972 42.475776 
L 748.537618 42.343994 
L 750.244811 42.260898 
L 750.507456 42.192415 
L 751.558036 42.145262 
L 751.820681 42.008879 
L 752.871262 41.980672 
L 753.002584 41.709616 
L 754.184487 41.651322 
L 754.447132 41.545773 
L 754.8411 41.545773 
L 755.103745 41.427889 
L 756.154325 41.32429 
L 756.679615 41.295046 
L 758.780776 41.254166 
L 759.043421 41.151031 
L 760.750614 41.040163 
L 761.013259 40.970522 
L 762.720452 40.89762 
L 762.983098 40.820426 
L 764.690291 40.712077 
L 765.215581 40.681252 
L 767.973354 40.588787 
L 768.235999 40.399332 
L 771.256418 40.300128 
L 771.519063 40.16248 
L 774.539481 40.066252 
L 774.802127 39.947573 
L 775.196094 39.947573 
L 775.458739 39.800616 
L 777.822545 39.698847 
L 778.08519 39.573292 
L 778.479158 39.573292 
L 778.741803 39.458537 
L 781.105609 39.388972 
L 781.499576 39.346086 
L 781.762221 39.346086 
L 782.024867 39.213687 
L 783.73206 39.118861 
L 783.994705 38.956654 
L 785.045285 38.936756 
L 785.30793 38.773568 
L 787.015123 38.687367 
L 787.277768 38.602066 
L 788.984961 38.574337 
L 789.247607 38.457539 
L 790.298187 38.392222 
L 790.429509 38.121324 
L 790.9548 38.121324 
L 791.086122 37.750801 
L 792.268025 37.704583 
L 792.268025 37.704583 
" style="fill:none;stroke:#ff0000;stroke-dasharray:7.4,3.2;stroke-dashoffset:0;stroke-width:2;"/>
   </g>
   <g id="patch_18">
    <path d="M 654.517241 189 
L 654.517241 25.92 
" style="fill:none;stroke:#000000;stroke-linecap:square;stroke-linejoin:miter;stroke-width:0.8;"/>
   </g>
   <g id="patch_19">
    <path d="M 798.827586 189 
L 798.827586 25.92 
" style="fill:none;stroke:#000000;stroke-linecap:square;stroke-linejoin:miter;stroke-width:0.8;"/>
   </g>
   <g id="patch_20">
    <path d="M 654.517241 189 
L 798.827586 189 
" style="fill:none;stroke:#000000;stroke-linecap:square;stroke-linejoin:miter;stroke-width:0.8;"/>
   </g>
   <g id="patch_21">
    <path d="M 654.517241 25.92 
L 798.827586 25.92 
" style="fill:none;stroke:#000000;stroke-linecap:square;stroke-linejoin:miter;stroke-width:0.8;"/>
   </g>
   <g id="text_22">
    <!-- silhouette_score: 0.78 -->
    <defs>
     <path d="M 8.203125 72.90625 
L 55.078125 72.90625 
L 55.078125 68.703125 
L 28.609375 0 
L 18.3125 0 
L 43.21875 64.59375 
L 8.203125 64.59375 
z
" id="DejaVuSans-37"/>
    </defs>
    <g transform="translate(660.308664 19.92)scale(0.12 -0.12)">
     <use xlink:href="#DejaVuSans-73"/>
     <use x="52.099609" xlink:href="#DejaVuSans-69"/>
     <use x="79.882812" xlink:href="#DejaVuSans-6c"/>
     <use x="107.666016" xlink:href="#DejaVuSans-68"/>
     <use x="171.044922" xlink:href="#DejaVuSans-6f"/>
     <use x="232.226562" xlink:href="#DejaVuSans-75"/>
     <use x="295.605469" xlink:href="#DejaVuSans-65"/>
     <use x="357.128906" xlink:href="#DejaVuSans-74"/>
     <use x="396.337891" xlink:href="#DejaVuSans-74"/>
     <use x="435.546875" xlink:href="#DejaVuSans-65"/>
     <use x="497.070312" xlink:href="#DejaVuSans-5f"/>
     <use x="547.070312" xlink:href="#DejaVuSans-73"/>
     <use x="599.169922" xlink:href="#DejaVuSans-63"/>
     <use x="654.150391" xlink:href="#DejaVuSans-6f"/>
     <use x="715.332031" xlink:href="#DejaVuSans-72"/>
     <use x="756.414062" xlink:href="#DejaVuSans-65"/>
     <use x="817.9375" xlink:href="#DejaVuSans-3a"/>
     <use x="851.628906" xlink:href="#DejaVuSans-20"/>
     <use x="883.416016" xlink:href="#DejaVuSans-30"/>
     <use x="947.039062" xlink:href="#DejaVuSans-2e"/>
     <use x="978.826172" xlink:href="#DejaVuSans-37"/>
     <use x="1042.449219" xlink:href="#DejaVuSans-38"/>
    </g>
   </g>
  </g>
  <g id="axes_5">
   <g id="patch_22">
    <path d="M 827.689655 189 
L 972 189 
L 972 25.92 
L 827.689655 25.92 
z
" style="fill:#ffffff;"/>
   </g>
   <g id="matplotlib.axis_9">
    <g id="xtick_13">
     <g id="line2d_41">
      <g>
       <use style="stroke:#000000;stroke-width:0.8;" x="834.249216" xlink:href="#m3df6ad27fd" y="189"/>
      </g>
     </g>
     <g id="text_23">
      <!-- 0 -->
      <g transform="translate(831.067966 203.598437)scale(0.1 -0.1)">
       <use xlink:href="#DejaVuSans-30"/>
      </g>
     </g>
    </g>
    <g id="xtick_14">
     <g id="line2d_42">
      <g>
       <use style="stroke:#000000;stroke-width:0.8;" x="899.910489" xlink:href="#m3df6ad27fd" y="189"/>
      </g>
     </g>
     <g id="text_24">
      <!-- 500 -->
      <g transform="translate(890.366739 203.598437)scale(0.1 -0.1)">
       <use xlink:href="#DejaVuSans-35"/>
       <use x="63.623047" xlink:href="#DejaVuSans-30"/>
       <use x="127.246094" xlink:href="#DejaVuSans-30"/>
      </g>
     </g>
    </g>
    <g id="xtick_15">
     <g id="line2d_43">
      <g>
       <use style="stroke:#000000;stroke-width:0.8;" x="965.571761" xlink:href="#m3df6ad27fd" y="189"/>
      </g>
     </g>
     <g id="text_25">
      <!-- 1000 -->
      <g transform="translate(952.846761 203.598437)scale(0.1 -0.1)">
       <use xlink:href="#DejaVuSans-31"/>
       <use x="63.623047" xlink:href="#DejaVuSans-30"/>
       <use x="127.246094" xlink:href="#DejaVuSans-30"/>
       <use x="190.869141" xlink:href="#DejaVuSans-30"/>
      </g>
     </g>
    </g>
   </g>
   <g id="matplotlib.axis_10">
    <g id="ytick_25">
     <g id="line2d_44">
      <g>
       <use style="stroke:#000000;stroke-width:0.8;" x="827.689655" xlink:href="#m01982ed8e0" y="168.332053"/>
      </g>
     </g>
    </g>
    <g id="ytick_26">
     <g id="line2d_45">
      <g>
       <use style="stroke:#000000;stroke-width:0.8;" x="827.689655" xlink:href="#m01982ed8e0" y="143.268784"/>
      </g>
     </g>
    </g>
    <g id="ytick_27">
     <g id="line2d_46">
      <g>
       <use style="stroke:#000000;stroke-width:0.8;" x="827.689655" xlink:href="#m01982ed8e0" y="118.205515"/>
      </g>
     </g>
    </g>
    <g id="ytick_28">
     <g id="line2d_47">
      <g>
       <use style="stroke:#000000;stroke-width:0.8;" x="827.689655" xlink:href="#m01982ed8e0" y="93.142246"/>
      </g>
     </g>
    </g>
    <g id="ytick_29">
     <g id="line2d_48">
      <g>
       <use style="stroke:#000000;stroke-width:0.8;" x="827.689655" xlink:href="#m01982ed8e0" y="68.078976"/>
      </g>
     </g>
    </g>
    <g id="ytick_30">
     <g id="line2d_49">
      <g>
       <use style="stroke:#000000;stroke-width:0.8;" x="827.689655" xlink:href="#m01982ed8e0" y="43.015707"/>
      </g>
     </g>
    </g>
   </g>
   <g id="line2d_50">
    <path clip-path="url(#pd04088fd0b)" d="M 834.249216 49.204738 
L 834.774506 49.204738 
L 834.905829 48.716382 
L 835.431119 48.716382 
L 835.693764 48.582504 
L 836.087732 48.582504 
L 836.350377 48.452379 
L 836.744345 48.452379 
L 836.875667 47.524949 
L 837.400957 47.524949 
L 837.663602 47.337106 
L 838.05757 47.337106 
L 838.188893 47.087041 
L 838.714183 47.087041 
L 838.845505 46.111653 
L 839.370796 46.111653 
L 839.502118 45.62323 
L 840.684021 45.611638 
L 840.946666 45.463162 
L 841.340634 45.463162 
L 841.471956 45.214345 
L 841.997246 45.214345 
L 842.259892 45.043551 
L 843.310472 45.033884 
L 843.573117 44.909712 
L 845.28031 44.800112 
L 845.411633 44.537376 
L 845.936923 44.537376 
L 846.068245 43.923665 
L 846.593536 43.923665 
L 846.724858 43.611233 
L 847.906761 43.549949 
L 848.169406 43.385739 
L 848.563374 43.385739 
L 848.694696 43.162432 
L 849.219986 43.162432 
L 849.482632 43.004551 
L 851.189825 42.923979 
L 851.583792 42.87631 
L 852.50305 42.779126 
L 852.765695 42.665743 
L 854.472888 42.564152 
L 854.735533 42.447682 
L 855.786114 42.384705 
L 856.048759 42.307033 
L 856.442726 42.307033 
L 856.705372 42.172377 
L 858.412565 42.152518 
L 858.67521 42.029732 
L 860.382403 41.965606 
L 860.77637 41.905513 
L 861.695628 41.864257 
L 861.958273 41.781018 
L 863.008854 41.729746 
L 863.271499 41.637253 
L 864.978692 41.538174 
L 865.241337 41.376775 
L 866.291917 41.297064 
L 866.554562 41.200606 
L 868.918368 41.106566 
L 869.443658 41.078058 
L 872.858045 41.028338 
L 872.989367 40.770791 
L 873.514657 40.770791 
L 873.777302 40.593138 
L 874.827883 40.530026 
L 874.959205 40.16514 
L 877.454334 40.057133 
L 878.373591 39.999325 
L 879.424172 39.939895 
L 879.686817 39.877123 
L 880.737397 39.836628 
L 881.000042 39.690388 
L 883.363848 39.622326 
L 883.626493 39.513259 
L 885.990299 39.427278 
L 886.515589 39.393932 
L 887.303525 39.28513 
L 887.56617 39.217251 
L 889.273363 39.145592 
L 889.66733 39.10283 
L 890.586588 38.998809 
L 890.849233 38.890459 
L 894.526265 38.819017 
L 894.78891 38.728799 
L 897.152715 38.713123 
L 897.415361 38.521821 
L 902.405617 38.421861 
L 902.930907 38.386617 
L 904.375455 38.337716 
L 904.6381 38.225823 
L 908.315132 38.131354 
L 908.840422 38.10219 
L 910.28497 38.01568 
L 910.547615 37.87833 
L 910.941583 37.87833 
L 911.204228 37.759732 
L 913.568034 37.682065 
L 913.830679 37.491757 
L 914.881259 37.427299 
L 915.143904 37.365509 
L 918.164323 37.296876 
L 918.426968 37.222816 
L 920.790774 37.116918 
L 921.316064 37.080126 
L 924.073837 36.999813 
L 924.336482 36.879476 
L 925.387063 36.78201 
L 925.78103 36.734075 
L 927.356901 36.665576 
L 927.750868 36.613017 
L 928.670126 36.582214 
L 928.932771 36.501446 
L 930.639964 36.45707 
L 930.90261 36.388183 
L 932.609803 36.321784 
L 933.00377 36.274047 
L 933.923028 36.201716 
L 934.185673 36.106191 
L 938.519317 36.029395 
L 939.044607 35.993896 
L 941.145768 35.930105 
L 941.408413 35.788317 
L 943.772219 35.755448 
L 944.034864 35.612908 
L 945.742057 35.516815 
L 946.136025 35.46566 
L 946.39867 35.46566 
L 946.529992 35.252087 
L 949.025121 35.163935 
L 949.944379 35.101004 
L 950.994959 35.00289 
L 952.045539 34.963685 
L 954.934635 34.911017 
L 955.19728 34.79037 
L 956.904473 34.697669 
L 957.167119 34.591803 
L 957.561086 34.591803 
L 957.692409 34.353234 
L 959.530924 34.272682 
L 959.793569 34.156455 
L 960.187537 34.156455 
L 960.31886 33.933183 
L 961.500763 33.887947 
L 961.763408 33.792282 
L 962.813988 33.707839 
L 962.945311 33.469538 
L 964.783826 33.364843 
L 965.309116 33.332727 
L 965.440439 33.332727 
L 965.440439 33.332727 
" style="fill:none;stroke:#ff0000;stroke-dasharray:7.4,3.2;stroke-dashoffset:0;stroke-width:2;"/>
   </g>
   <g id="patch_23">
    <path d="M 827.689655 189 
L 827.689655 25.92 
" style="fill:none;stroke:#000000;stroke-linecap:square;stroke-linejoin:miter;stroke-width:0.8;"/>
   </g>
   <g id="patch_24">
    <path d="M 972 189 
L 972 25.92 
" style="fill:none;stroke:#000000;stroke-linecap:square;stroke-linejoin:miter;stroke-width:0.8;"/>
   </g>
   <g id="patch_25">
    <path d="M 827.689655 189 
L 972 189 
" style="fill:none;stroke:#000000;stroke-linecap:square;stroke-linejoin:miter;stroke-width:0.8;"/>
   </g>
   <g id="patch_26">
    <path d="M 827.689655 25.92 
L 972 25.92 
" style="fill:none;stroke:#000000;stroke-linecap:square;stroke-linejoin:miter;stroke-width:0.8;"/>
   </g>
   <g id="text_26">
    <!-- silhouette_score: 0.83 -->
    <defs>
     <path d="M 40.578125 39.3125 
Q 47.65625 37.796875 51.625 33 
Q 55.609375 28.21875 55.609375 21.1875 
Q 55.609375 10.40625 48.1875 4.484375 
Q 40.765625 -1.421875 27.09375 -1.421875 
Q 22.515625 -1.421875 17.65625 -0.515625 
Q 12.796875 0.390625 7.625 2.203125 
L 7.625 11.71875 
Q 11.71875 9.328125 16.59375 8.109375 
Q 21.484375 6.890625 26.8125 6.890625 
Q 36.078125 6.890625 40.9375 10.546875 
Q 45.796875 14.203125 45.796875 21.1875 
Q 45.796875 27.640625 41.28125 31.265625 
Q 36.765625 34.90625 28.71875 34.90625 
L 20.21875 34.90625 
L 20.21875 43.015625 
L 29.109375 43.015625 
Q 36.375 43.015625 40.234375 45.921875 
Q 44.09375 48.828125 44.09375 54.296875 
Q 44.09375 59.90625 40.109375 62.90625 
Q 36.140625 65.921875 28.71875 65.921875 
Q 24.65625 65.921875 20.015625 65.03125 
Q 15.375 64.15625 9.8125 62.3125 
L 9.8125 71.09375 
Q 15.4375 72.65625 20.34375 73.4375 
Q 25.25 74.21875 29.59375 74.21875 
Q 40.828125 74.21875 47.359375 69.109375 
Q 53.90625 64.015625 53.90625 55.328125 
Q 53.90625 49.265625 50.4375 45.09375 
Q 46.96875 40.921875 40.578125 39.3125 
z
" id="DejaVuSans-33"/>
    </defs>
    <g transform="translate(833.481078 19.92)scale(0.12 -0.12)">
     <use xlink:href="#DejaVuSans-73"/>
     <use x="52.099609" xlink:href="#DejaVuSans-69"/>
     <use x="79.882812" xlink:href="#DejaVuSans-6c"/>
     <use x="107.666016" xlink:href="#DejaVuSans-68"/>
     <use x="171.044922" xlink:href="#DejaVuSans-6f"/>
     <use x="232.226562" xlink:href="#DejaVuSans-75"/>
     <use x="295.605469" xlink:href="#DejaVuSans-65"/>
     <use x="357.128906" xlink:href="#DejaVuSans-74"/>
     <use x="396.337891" xlink:href="#DejaVuSans-74"/>
     <use x="435.546875" xlink:href="#DejaVuSans-65"/>
     <use x="497.070312" xlink:href="#DejaVuSans-5f"/>
     <use x="547.070312" xlink:href="#DejaVuSans-73"/>
     <use x="599.169922" xlink:href="#DejaVuSans-63"/>
     <use x="654.150391" xlink:href="#DejaVuSans-6f"/>
     <use x="715.332031" xlink:href="#DejaVuSans-72"/>
     <use x="756.414062" xlink:href="#DejaVuSans-65"/>
     <use x="817.9375" xlink:href="#DejaVuSans-3a"/>
     <use x="851.628906" xlink:href="#DejaVuSans-20"/>
     <use x="883.416016" xlink:href="#DejaVuSans-30"/>
     <use x="947.039062" xlink:href="#DejaVuSans-2e"/>
     <use x="978.826172" xlink:href="#DejaVuSans-38"/>
     <use x="1042.449219" xlink:href="#DejaVuSans-33"/>
    </g>
   </g>
  </g>
 </g>
 <defs>
  <clipPath id="p9890237a74">
   <rect height="163.08" width="144.310345" x="135" y="25.92"/>
  </clipPath>
  <clipPath id="p1663ce82a0">
   <rect height="163.08" width="144.310345" x="308.172414" y="25.92"/>
  </clipPath>
  <clipPath id="p493b6978eb">
   <rect height="163.08" width="144.310345" x="481.344828" y="25.92"/>
  </clipPath>
  <clipPath id="pba90e28f57">
   <rect height="163.08" width="144.310345" x="654.517241" y="25.92"/>
  </clipPath>
  <clipPath id="pd04088fd0b">
   <rect height="163.08" width="144.310345" x="827.689655" y="25.92"/>
  </clipPath>
 </defs>
</svg>
