<?xml version="1.0" encoding="utf-8" standalone="no"?>
<!DOCTYPE svg PUBLIC "-//W3C//DTD SVG 1.1//EN"
  "http://www.w3.org/Graphics/SVG/1.1/DTD/svg11.dtd">
<!-- Created with matplotlib (http://matplotlib.org/) -->
<svg height="216pt" version="1.1" viewBox="0 0 1080 216" width="1080pt" xmlns="http://www.w3.org/2000/svg" xmlns:xlink="http://www.w3.org/1999/xlink">
 <defs>
  <style type="text/css">
*{stroke-linecap:butt;stroke-linejoin:round;}
  </style>
 </defs>
 <g id="figure_1">
  <g id="patch_1">
   <path d="M 0 216 
L 1080 216 
L 1080 0 
L 0 0 
z
" style="fill:#ffffff;"/>
  </g>
  <g id="axes_1">
   <g id="patch_2">
    <path d="M 135 189 
L 279.310345 189 
L 279.310345 25.92 
L 135 25.92 
z
" style="fill:#ffffff;"/>
   </g>
   <g id="matplotlib.axis_1">
    <g id="xtick_1">
     <g id="line2d_1">
      <defs>
       <path d="M 0 0 
L 0 3.5 
" id="md90299a8e1" style="stroke:#000000;stroke-width:0.8;"/>
      </defs>
      <g>
       <use style="stroke:#000000;stroke-width:0.8;" x="141.559561" xlink:href="#md90299a8e1" y="189"/>
      </g>
     </g>
     <g id="text_1">
      <!-- 0 -->
      <defs>
       <path d="M 31.78125 66.40625 
Q 24.171875 66.40625 20.328125 58.90625 
Q 16.5 51.421875 16.5 36.375 
Q 16.5 21.390625 20.328125 13.890625 
Q 24.171875 6.390625 31.78125 6.390625 
Q 39.453125 6.390625 43.28125 13.890625 
Q 47.125 21.390625 47.125 36.375 
Q 47.125 51.421875 43.28125 58.90625 
Q 39.453125 66.40625 31.78125 66.40625 
z
M 31.78125 74.21875 
Q 44.046875 74.21875 50.515625 64.515625 
Q 56.984375 54.828125 56.984375 36.375 
Q 56.984375 17.96875 50.515625 8.265625 
Q 44.046875 -1.421875 31.78125 -1.421875 
Q 19.53125 -1.421875 13.0625 8.265625 
Q 6.59375 17.96875 6.59375 36.375 
Q 6.59375 54.828125 13.0625 64.515625 
Q 19.53125 74.21875 31.78125 74.21875 
z
" id="DejaVuSans-30"/>
      </defs>
      <g transform="translate(138.378311 203.598437)scale(0.1 -0.1)">
       <use xlink:href="#DejaVuSans-30"/>
      </g>
     </g>
    </g>
    <g id="xtick_2">
     <g id="line2d_2">
      <g>
       <use style="stroke:#000000;stroke-width:0.8;" x="207.220834" xlink:href="#md90299a8e1" y="189"/>
      </g>
     </g>
     <g id="text_2">
      <!-- 500 -->
      <defs>
       <path d="M 10.796875 72.90625 
L 49.515625 72.90625 
L 49.515625 64.59375 
L 19.828125 64.59375 
L 19.828125 46.734375 
Q 21.96875 47.46875 24.109375 47.828125 
Q 26.265625 48.1875 28.421875 48.1875 
Q 40.625 48.1875 47.75 41.5 
Q 54.890625 34.8125 54.890625 23.390625 
Q 54.890625 11.625 47.5625 5.09375 
Q 40.234375 -1.421875 26.90625 -1.421875 
Q 22.3125 -1.421875 17.546875 -0.640625 
Q 12.796875 0.140625 7.71875 1.703125 
L 7.71875 11.625 
Q 12.109375 9.234375 16.796875 8.0625 
Q 21.484375 6.890625 26.703125 6.890625 
Q 35.15625 6.890625 40.078125 11.328125 
Q 45.015625 15.765625 45.015625 23.390625 
Q 45.015625 31 40.078125 35.4375 
Q 35.15625 39.890625 26.703125 39.890625 
Q 22.75 39.890625 18.8125 39.015625 
Q 14.890625 38.140625 10.796875 36.28125 
z
" id="DejaVuSans-35"/>
      </defs>
      <g transform="translate(197.677084 203.598437)scale(0.1 -0.1)">
       <use xlink:href="#DejaVuSans-35"/>
       <use x="63.623047" xlink:href="#DejaVuSans-30"/>
       <use x="127.246094" xlink:href="#DejaVuSans-30"/>
      </g>
     </g>
    </g>
    <g id="xtick_3">
     <g id="line2d_3">
      <g>
       <use style="stroke:#000000;stroke-width:0.8;" x="272.882106" xlink:href="#md90299a8e1" y="189"/>
      </g>
     </g>
     <g id="text_3">
      <!-- 1000 -->
      <defs>
       <path d="M 12.40625 8.296875 
L 28.515625 8.296875 
L 28.515625 63.921875 
L 10.984375 60.40625 
L 10.984375 69.390625 
L 28.421875 72.90625 
L 38.28125 72.90625 
L 38.28125 8.296875 
L 54.390625 8.296875 
L 54.390625 0 
L 12.40625 0 
z
" id="DejaVuSans-31"/>
      </defs>
      <g transform="translate(260.157106 203.598437)scale(0.1 -0.1)">
       <use xlink:href="#DejaVuSans-31"/>
       <use x="63.623047" xlink:href="#DejaVuSans-30"/>
       <use x="127.246094" xlink:href="#DejaVuSans-30"/>
       <use x="190.869141" xlink:href="#DejaVuSans-30"/>
      </g>
     </g>
    </g>
   </g>
   <g id="matplotlib.axis_2">
    <g id="ytick_1">
     <g id="line2d_4">
      <defs>
       <path d="M 0 0 
L -3.5 0 
" id="m9189d8a9b1" style="stroke:#000000;stroke-width:0.8;"/>
      </defs>
      <g>
       <use style="stroke:#000000;stroke-width:0.8;" x="135" xlink:href="#m9189d8a9b1" y="171.821146"/>
      </g>
     </g>
     <g id="text_4">
      <!-- −0.2 -->
      <defs>
       <path d="M 10.59375 35.5 
L 73.1875 35.5 
L 73.1875 27.203125 
L 10.59375 27.203125 
z
" id="DejaVuSans-2212"/>
       <path d="M 10.6875 12.40625 
L 21 12.40625 
L 21 0 
L 10.6875 0 
z
" id="DejaVuSans-2e"/>
       <path d="M 19.1875 8.296875 
L 53.609375 8.296875 
L 53.609375 0 
L 7.328125 0 
L 7.328125 8.296875 
Q 12.9375 14.109375 22.625 23.890625 
Q 32.328125 33.6875 34.8125 36.53125 
Q 39.546875 41.84375 41.421875 45.53125 
Q 43.3125 49.21875 43.3125 52.78125 
Q 43.3125 58.59375 39.234375 62.25 
Q 35.15625 65.921875 28.609375 65.921875 
Q 23.96875 65.921875 18.8125 64.3125 
Q 13.671875 62.703125 7.8125 59.421875 
L 7.8125 69.390625 
Q 13.765625 71.78125 18.9375 73 
Q 24.125 74.21875 28.421875 74.21875 
Q 39.75 74.21875 46.484375 68.546875 
Q 53.21875 62.890625 53.21875 53.421875 
Q 53.21875 48.921875 51.53125 44.890625 
Q 49.859375 40.875 45.40625 35.40625 
Q 44.1875 33.984375 37.640625 27.21875 
Q 31.109375 20.453125 19.1875 8.296875 
z
" id="DejaVuSans-32"/>
      </defs>
      <g transform="translate(103.717187 175.620365)scale(0.1 -0.1)">
       <use xlink:href="#DejaVuSans-2212"/>
       <use x="83.789062" xlink:href="#DejaVuSans-30"/>
       <use x="147.412109" xlink:href="#DejaVuSans-2e"/>
       <use x="179.199219" xlink:href="#DejaVuSans-32"/>
      </g>
     </g>
    </g>
    <g id="ytick_2">
     <g id="line2d_5">
      <g>
       <use style="stroke:#000000;stroke-width:0.8;" x="135" xlink:href="#m9189d8a9b1" y="145.866259"/>
      </g>
     </g>
     <g id="text_5">
      <!-- 0.0 -->
      <g transform="translate(112.096875 149.665478)scale(0.1 -0.1)">
       <use xlink:href="#DejaVuSans-30"/>
       <use x="63.623047" xlink:href="#DejaVuSans-2e"/>
       <use x="95.410156" xlink:href="#DejaVuSans-30"/>
      </g>
     </g>
    </g>
    <g id="ytick_3">
     <g id="line2d_6">
      <g>
       <use style="stroke:#000000;stroke-width:0.8;" x="135" xlink:href="#m9189d8a9b1" y="119.911372"/>
      </g>
     </g>
     <g id="text_6">
      <!-- 0.2 -->
      <g transform="translate(112.096875 123.710591)scale(0.1 -0.1)">
       <use xlink:href="#DejaVuSans-30"/>
       <use x="63.623047" xlink:href="#DejaVuSans-2e"/>
       <use x="95.410156" xlink:href="#DejaVuSans-32"/>
      </g>
     </g>
    </g>
    <g id="ytick_4">
     <g id="line2d_7">
      <g>
       <use style="stroke:#000000;stroke-width:0.8;" x="135" xlink:href="#m9189d8a9b1" y="93.956485"/>
      </g>
     </g>
     <g id="text_7">
      <!-- 0.4 -->
      <defs>
       <path d="M 37.796875 64.3125 
L 12.890625 25.390625 
L 37.796875 25.390625 
z
M 35.203125 72.90625 
L 47.609375 72.90625 
L 47.609375 25.390625 
L 58.015625 25.390625 
L 58.015625 17.1875 
L 47.609375 17.1875 
L 47.609375 0 
L 37.796875 0 
L 37.796875 17.1875 
L 4.890625 17.1875 
L 4.890625 26.703125 
z
" id="DejaVuSans-34"/>
      </defs>
      <g transform="translate(112.096875 97.755704)scale(0.1 -0.1)">
       <use xlink:href="#DejaVuSans-30"/>
       <use x="63.623047" xlink:href="#DejaVuSans-2e"/>
       <use x="95.410156" xlink:href="#DejaVuSans-34"/>
      </g>
     </g>
    </g>
    <g id="ytick_5">
     <g id="line2d_8">
      <g>
       <use style="stroke:#000000;stroke-width:0.8;" x="135" xlink:href="#m9189d8a9b1" y="68.001598"/>
      </g>
     </g>
     <g id="text_8">
      <!-- 0.6 -->
      <defs>
       <path d="M 33.015625 40.375 
Q 26.375 40.375 22.484375 35.828125 
Q 18.609375 31.296875 18.609375 23.390625 
Q 18.609375 15.53125 22.484375 10.953125 
Q 26.375 6.390625 33.015625 6.390625 
Q 39.65625 6.390625 43.53125 10.953125 
Q 47.40625 15.53125 47.40625 23.390625 
Q 47.40625 31.296875 43.53125 35.828125 
Q 39.65625 40.375 33.015625 40.375 
z
M 52.59375 71.296875 
L 52.59375 62.3125 
Q 48.875 64.0625 45.09375 64.984375 
Q 41.3125 65.921875 37.59375 65.921875 
Q 27.828125 65.921875 22.671875 59.328125 
Q 17.53125 52.734375 16.796875 39.40625 
Q 19.671875 43.65625 24.015625 45.921875 
Q 28.375 48.1875 33.59375 48.1875 
Q 44.578125 48.1875 50.953125 41.515625 
Q 57.328125 34.859375 57.328125 23.390625 
Q 57.328125 12.15625 50.6875 5.359375 
Q 44.046875 -1.421875 33.015625 -1.421875 
Q 20.359375 -1.421875 13.671875 8.265625 
Q 6.984375 17.96875 6.984375 36.375 
Q 6.984375 53.65625 15.1875 63.9375 
Q 23.390625 74.21875 37.203125 74.21875 
Q 40.921875 74.21875 44.703125 73.484375 
Q 48.484375 72.75 52.59375 71.296875 
z
" id="DejaVuSans-36"/>
      </defs>
      <g transform="translate(112.096875 71.800817)scale(0.1 -0.1)">
       <use xlink:href="#DejaVuSans-30"/>
       <use x="63.623047" xlink:href="#DejaVuSans-2e"/>
       <use x="95.410156" xlink:href="#DejaVuSans-36"/>
      </g>
     </g>
    </g>
    <g id="ytick_6">
     <g id="line2d_9">
      <g>
       <use style="stroke:#000000;stroke-width:0.8;" x="135" xlink:href="#m9189d8a9b1" y="42.046711"/>
      </g>
     </g>
     <g id="text_9">
      <!-- 0.8 -->
      <defs>
       <path d="M 31.78125 34.625 
Q 24.75 34.625 20.71875 30.859375 
Q 16.703125 27.09375 16.703125 20.515625 
Q 16.703125 13.921875 20.71875 10.15625 
Q 24.75 6.390625 31.78125 6.390625 
Q 38.8125 6.390625 42.859375 10.171875 
Q 46.921875 13.96875 46.921875 20.515625 
Q 46.921875 27.09375 42.890625 30.859375 
Q 38.875 34.625 31.78125 34.625 
z
M 21.921875 38.8125 
Q 15.578125 40.375 12.03125 44.71875 
Q 8.5 49.078125 8.5 55.328125 
Q 8.5 64.0625 14.71875 69.140625 
Q 20.953125 74.21875 31.78125 74.21875 
Q 42.671875 74.21875 48.875 69.140625 
Q 55.078125 64.0625 55.078125 55.328125 
Q 55.078125 49.078125 51.53125 44.71875 
Q 48 40.375 41.703125 38.8125 
Q 48.828125 37.15625 52.796875 32.3125 
Q 56.78125 27.484375 56.78125 20.515625 
Q 56.78125 9.90625 50.3125 4.234375 
Q 43.84375 -1.421875 31.78125 -1.421875 
Q 19.734375 -1.421875 13.25 4.234375 
Q 6.78125 9.90625 6.78125 20.515625 
Q 6.78125 27.484375 10.78125 32.3125 
Q 14.796875 37.15625 21.921875 38.8125 
z
M 18.3125 54.390625 
Q 18.3125 48.734375 21.84375 45.5625 
Q 25.390625 42.390625 31.78125 42.390625 
Q 38.140625 42.390625 41.71875 45.5625 
Q 45.3125 48.734375 45.3125 54.390625 
Q 45.3125 60.0625 41.71875 63.234375 
Q 38.140625 66.40625 31.78125 66.40625 
Q 25.390625 66.40625 21.84375 63.234375 
Q 18.3125 60.0625 18.3125 54.390625 
z
" id="DejaVuSans-38"/>
      </defs>
      <g transform="translate(112.096875 45.84593)scale(0.1 -0.1)">
       <use xlink:href="#DejaVuSans-30"/>
       <use x="63.623047" xlink:href="#DejaVuSans-2e"/>
       <use x="95.410156" xlink:href="#DejaVuSans-38"/>
      </g>
     </g>
    </g>
   </g>
   <g id="line2d_10">
    <path clip-path="url(#p2ab330d5ae)" d="M 141.559561 170.512365 
L 142.084851 170.512365 
L 142.216174 163.932723 
L 142.741464 163.932723 
L 142.872787 163.145804 
L 143.398077 163.145804 
L 143.529399 162.293049 
L 144.054689 162.293049 
L 144.186012 160.834525 
L 144.711302 160.834525 
L 144.842625 160.478541 
L 145.367915 160.478541 
L 145.499237 159.859443 
L 146.024528 159.859443 
L 146.15585 159.471441 
L 146.68114 159.471441 
L 146.812463 159.138476 
L 147.337753 159.138476 
L 147.469076 156.391975 
L 147.994366 156.391975 
L 148.125688 155.865983 
L 148.650979 155.865983 
L 148.782301 155.616398 
L 149.307591 155.616398 
L 149.438914 154.696576 
L 149.964204 154.696576 
L 150.095527 153.850602 
L 150.620817 153.850602 
L 150.883462 153.665687 
L 151.277429 153.665687 
L 151.408752 153.061392 
L 151.934042 153.061392 
L 152.196687 152.942135 
L 152.590655 152.942135 
L 152.721977 152.359238 
L 153.247268 152.359238 
L 153.37859 151.148292 
L 153.90388 151.148292 
L 154.035203 150.261485 
L 154.560493 150.261485 
L 154.691816 149.041181 
L 155.217106 149.041181 
L 155.479751 148.888665 
L 156.530331 148.791507 
L 156.661654 148.420958 
L 157.186944 148.420958 
L 157.318267 147.13043 
L 157.843557 147.13043 
L 157.974879 146.789774 
L 158.500169 146.789774 
L 158.762815 146.658647 
L 159.813395 146.568169 
L 160.07604 146.445225 
L 161.12662 146.42944 
L 161.389265 146.276134 
L 161.783233 146.276134 
L 161.914556 145.538331 
L 162.439846 145.538331 
L 162.571168 144.813542 
L 163.096459 144.813542 
L 163.227781 142.965064 
L 164.409684 142.907753 
L 164.672329 142.740796 
L 165.066297 142.740796 
L 165.197619 142.058127 
L 165.722909 142.058127 
L 165.985555 141.860215 
L 167.036135 141.81853 
L 167.29878 141.738694 
L 167.692748 141.738694 
L 167.82407 141.477694 
L 168.34936 141.477694 
L 168.612005 141.334297 
L 169.005973 141.334297 
L 169.137296 140.72966 
L 169.662586 140.72966 
L 169.925231 140.614863 
L 170.319199 140.614863 
L 170.581844 140.468732 
L 170.975811 140.468732 
L 171.107134 139.945938 
L 171.632424 139.945938 
L 171.895069 139.769734 
L 172.289037 139.769734 
L 172.420359 139.185938 
L 174.258875 139.102138 
L 174.52152 138.951392 
L 176.228713 138.847924 
L 176.491358 138.774309 
L 176.885326 138.774309 
L 177.016648 138.39048 
L 177.541938 138.39048 
L 177.673261 138.172563 
L 178.198551 138.172563 
L 178.329874 137.936298 
L 180.168389 137.855026 
L 180.431034 137.741753 
L 182.138228 137.649955 
L 182.26955 137.396459 
L 183.451453 137.353172 
L 183.714098 137.265565 
L 184.108066 137.265565 
L 184.239388 136.504135 
L 184.764678 136.504135 
L 184.896001 135.579526 
L 186.077904 135.474462 
L 186.340549 135.319135 
L 186.734517 135.319135 
L 186.997162 135.183258 
L 187.391129 135.183258 
L 187.522452 134.504337 
L 188.704355 134.500173 
L 188.967 134.375305 
L 190.674193 134.270607 
L 191.199483 134.239441 
L 191.330806 134.239441 
L 191.462128 133.546025 
L 191.987418 133.546025 
L 192.250064 133.3635 
L 193.300644 133.276217 
L 193.431966 133.032993 
L 194.613869 133.026191 
L 194.745192 132.808619 
L 195.270482 132.808619 
L 195.533127 132.694561 
L 196.583708 132.60531 
L 196.846353 132.511446 
L 197.896933 132.408778 
L 198.028256 132.194369 
L 199.210158 132.185863 
L 199.472804 132.006135 
L 199.866771 132.006135 
L 200.129416 131.890005 
L 201.179997 131.795591 
L 201.311319 131.097478 
L 201.836609 131.097478 
L 201.967932 130.689797 
L 202.493222 130.689797 
L 202.624545 130.451049 
L 203.149835 130.451049 
L 203.281157 130.207514 
L 205.119673 130.193839 
L 205.250996 129.827417 
L 205.776286 129.827417 
L 205.907608 129.616198 
L 206.432898 129.616198 
L 206.564221 129.01656 
L 207.089511 129.01656 
L 207.220834 128.655247 
L 209.059349 128.568272 
L 209.321994 128.488442 
L 209.715962 128.488442 
L 209.847285 128.211135 
L 211.029187 128.124998 
L 211.423155 128.08044 
L 211.6858 128.08044 
L 211.817123 127.662055 
L 212.342413 127.662055 
L 212.605058 127.516745 
L 213.655638 127.504421 
L 213.786961 127.154437 
L 215.625477 127.151319 
L 215.756799 126.640814 
L 216.282089 126.640814 
L 216.544734 126.474078 
L 216.938702 126.474078 
L 217.070025 126.122163 
L 218.251927 126.027626 
L 218.645895 125.981045 
L 219.565153 125.896586 
L 219.696475 125.341802 
L 220.221766 125.341802 
L 220.484411 125.136064 
L 220.878378 125.136064 
L 221.141023 124.975682 
L 222.191604 124.869828 
L 222.322926 124.474532 
L 224.161442 124.379167 
L 224.55541 124.331952 
L 225.474667 124.272256 
L 225.60599 123.812925 
L 226.13128 123.812925 
L 226.262603 123.524718 
L 227.444506 123.427987 
L 227.707151 123.320677 
L 230.070957 123.219393 
L 230.202279 122.67746 
L 230.727569 122.67746 
L 230.990214 122.542647 
L 231.384182 122.542647 
L 231.515505 122.296469 
L 232.697407 122.274367 
L 232.960053 122.075551 
L 233.35402 122.075551 
L 233.485343 121.561125 
L 234.010633 121.561125 
L 234.141955 121.248259 
L 234.667246 121.248259 
L 234.798568 120.609737 
L 235.323858 120.609737 
L 235.455181 120.323568 
L 236.637084 120.224916 
L 236.768406 119.978337 
L 237.950309 119.902647 
L 238.081632 119.587195 
L 238.606922 119.587195 
L 238.738245 119.308647 
L 241.233373 119.203956 
L 241.364695 118.760885 
L 241.889986 118.760885 
L 242.152631 118.579849 
L 242.546598 118.579849 
L 242.677921 118.343147 
L 243.859824 118.326731 
L 243.991146 117.934195 
L 244.516436 117.934195 
L 244.779082 117.816554 
L 245.173049 117.816554 
L 245.435694 117.685011 
L 245.829662 117.685011 
L 245.960984 117.406364 
L 246.486275 117.406364 
L 246.617597 117.193117 
L 247.142887 117.193117 
L 247.27421 116.937275 
L 247.7995 116.937275 
L 248.062145 116.812701 
L 248.456113 116.812701 
L 248.718758 116.685908 
L 249.769338 116.622888 
L 249.900661 116.256097 
L 250.425951 116.256097 
L 250.557274 115.451861 
L 251.082564 115.451861 
L 251.213886 114.409456 
L 251.739176 114.409456 
L 251.870499 113.966554 
L 253.052402 113.891779 
L 253.183724 113.595963 
L 253.709015 113.595963 
L 253.840337 113.104369 
L 254.365627 113.104369 
L 254.49695 112.688159 
L 255.02224 112.688159 
L 255.153563 112.474246 
L 255.678853 112.474246 
L 255.810175 112.235403 
L 256.335466 112.235403 
L 256.598111 112.046762 
L 256.992078 112.046762 
L 257.254723 111.902013 
L 257.648691 111.902013 
L 257.780014 111.462508 
L 258.305304 111.462508 
L 258.567949 111.264495 
L 259.618529 111.200117 
L 259.881174 111.059443 
L 260.931755 111.013076 
L 261.1944 110.904729 
L 262.24498 110.84169 
L 262.376303 110.479668 
L 262.901593 110.479668 
L 263.164238 110.286553 
L 263.558206 110.286553 
L 263.689528 110.068679 
L 264.871431 109.983652 
L 265.134076 109.86171 
L 265.528044 109.86171 
L 265.659366 109.376146 
L 266.184656 109.376146 
L 266.315979 108.415382 
L 267.497882 108.343834 
L 267.629204 106.625465 
L 268.811107 106.579017 
L 268.94243 105.68121 
L 269.46772 105.68121 
L 269.730365 105.514556 
L 270.124333 105.514556 
L 270.255655 104.971634 
L 270.780946 104.971634 
L 270.912268 104.621333 
L 271.437558 104.621333 
L 271.568881 103.414328 
L 272.094171 103.414328 
L 272.225494 101.369201 
L 272.750784 101.369201 
L 272.750784 101.369201 
" style="fill:none;stroke:#ff0000;stroke-dasharray:7.4,3.2;stroke-dashoffset:0;stroke-width:2;"/>
   </g>
   <g id="patch_3">
    <path d="M 135 189 
L 135 25.92 
" style="fill:none;stroke:#000000;stroke-linecap:square;stroke-linejoin:miter;stroke-width:0.8;"/>
   </g>
   <g id="patch_4">
    <path d="M 279.310345 189 
L 279.310345 25.92 
" style="fill:none;stroke:#000000;stroke-linecap:square;stroke-linejoin:miter;stroke-width:0.8;"/>
   </g>
   <g id="patch_5">
    <path d="M 135 189 
L 279.310345 189 
" style="fill:none;stroke:#000000;stroke-linecap:square;stroke-linejoin:miter;stroke-width:0.8;"/>
   </g>
   <g id="patch_6">
    <path d="M 135 25.92 
L 279.310345 25.92 
" style="fill:none;stroke:#000000;stroke-linecap:square;stroke-linejoin:miter;stroke-width:0.8;"/>
   </g>
   <g id="text_10">
    <!-- silhouette_score: 0.12 -->
    <defs>
     <path d="M 44.28125 53.078125 
L 44.28125 44.578125 
Q 40.484375 46.53125 36.375 47.5 
Q 32.28125 48.484375 27.875 48.484375 
Q 21.1875 48.484375 17.84375 46.4375 
Q 14.5 44.390625 14.5 40.28125 
Q 14.5 37.15625 16.890625 35.375 
Q 19.28125 33.59375 26.515625 31.984375 
L 29.59375 31.296875 
Q 39.15625 29.25 43.1875 25.515625 
Q 47.21875 21.78125 47.21875 15.09375 
Q 47.21875 7.46875 41.1875 3.015625 
Q 35.15625 -1.421875 24.609375 -1.421875 
Q 20.21875 -1.421875 15.453125 -0.5625 
Q 10.6875 0.296875 5.421875 2 
L 5.421875 11.28125 
Q 10.40625 8.6875 15.234375 7.390625 
Q 20.0625 6.109375 24.8125 6.109375 
Q 31.15625 6.109375 34.5625 8.28125 
Q 37.984375 10.453125 37.984375 14.40625 
Q 37.984375 18.0625 35.515625 20.015625 
Q 33.0625 21.96875 24.703125 23.78125 
L 21.578125 24.515625 
Q 13.234375 26.265625 9.515625 29.90625 
Q 5.8125 33.546875 5.8125 39.890625 
Q 5.8125 47.609375 11.28125 51.796875 
Q 16.75 56 26.8125 56 
Q 31.78125 56 36.171875 55.265625 
Q 40.578125 54.546875 44.28125 53.078125 
z
" id="DejaVuSans-73"/>
     <path d="M 9.421875 54.6875 
L 18.40625 54.6875 
L 18.40625 0 
L 9.421875 0 
z
M 9.421875 75.984375 
L 18.40625 75.984375 
L 18.40625 64.59375 
L 9.421875 64.59375 
z
" id="DejaVuSans-69"/>
     <path d="M 9.421875 75.984375 
L 18.40625 75.984375 
L 18.40625 0 
L 9.421875 0 
z
" id="DejaVuSans-6c"/>
     <path d="M 54.890625 33.015625 
L 54.890625 0 
L 45.90625 0 
L 45.90625 32.71875 
Q 45.90625 40.484375 42.875 44.328125 
Q 39.84375 48.1875 33.796875 48.1875 
Q 26.515625 48.1875 22.3125 43.546875 
Q 18.109375 38.921875 18.109375 30.90625 
L 18.109375 0 
L 9.078125 0 
L 9.078125 75.984375 
L 18.109375 75.984375 
L 18.109375 46.1875 
Q 21.34375 51.125 25.703125 53.5625 
Q 30.078125 56 35.796875 56 
Q 45.21875 56 50.046875 50.171875 
Q 54.890625 44.34375 54.890625 33.015625 
z
" id="DejaVuSans-68"/>
     <path d="M 30.609375 48.390625 
Q 23.390625 48.390625 19.1875 42.75 
Q 14.984375 37.109375 14.984375 27.296875 
Q 14.984375 17.484375 19.15625 11.84375 
Q 23.34375 6.203125 30.609375 6.203125 
Q 37.796875 6.203125 41.984375 11.859375 
Q 46.1875 17.53125 46.1875 27.296875 
Q 46.1875 37.015625 41.984375 42.703125 
Q 37.796875 48.390625 30.609375 48.390625 
z
M 30.609375 56 
Q 42.328125 56 49.015625 48.375 
Q 55.71875 40.765625 55.71875 27.296875 
Q 55.71875 13.875 49.015625 6.21875 
Q 42.328125 -1.421875 30.609375 -1.421875 
Q 18.84375 -1.421875 12.171875 6.21875 
Q 5.515625 13.875 5.515625 27.296875 
Q 5.515625 40.765625 12.171875 48.375 
Q 18.84375 56 30.609375 56 
z
" id="DejaVuSans-6f"/>
     <path d="M 8.5 21.578125 
L 8.5 54.6875 
L 17.484375 54.6875 
L 17.484375 21.921875 
Q 17.484375 14.15625 20.5 10.265625 
Q 23.53125 6.390625 29.59375 6.390625 
Q 36.859375 6.390625 41.078125 11.03125 
Q 45.3125 15.671875 45.3125 23.6875 
L 45.3125 54.6875 
L 54.296875 54.6875 
L 54.296875 0 
L 45.3125 0 
L 45.3125 8.40625 
Q 42.046875 3.421875 37.71875 1 
Q 33.40625 -1.421875 27.6875 -1.421875 
Q 18.265625 -1.421875 13.375 4.4375 
Q 8.5 10.296875 8.5 21.578125 
z
M 31.109375 56 
z
" id="DejaVuSans-75"/>
     <path d="M 56.203125 29.59375 
L 56.203125 25.203125 
L 14.890625 25.203125 
Q 15.484375 15.921875 20.484375 11.0625 
Q 25.484375 6.203125 34.421875 6.203125 
Q 39.59375 6.203125 44.453125 7.46875 
Q 49.3125 8.734375 54.109375 11.28125 
L 54.109375 2.78125 
Q 49.265625 0.734375 44.1875 -0.34375 
Q 39.109375 -1.421875 33.890625 -1.421875 
Q 20.796875 -1.421875 13.15625 6.1875 
Q 5.515625 13.8125 5.515625 26.8125 
Q 5.515625 40.234375 12.765625 48.109375 
Q 20.015625 56 32.328125 56 
Q 43.359375 56 49.78125 48.890625 
Q 56.203125 41.796875 56.203125 29.59375 
z
M 47.21875 32.234375 
Q 47.125 39.59375 43.09375 43.984375 
Q 39.0625 48.390625 32.421875 48.390625 
Q 24.90625 48.390625 20.390625 44.140625 
Q 15.875 39.890625 15.1875 32.171875 
z
" id="DejaVuSans-65"/>
     <path d="M 18.3125 70.21875 
L 18.3125 54.6875 
L 36.8125 54.6875 
L 36.8125 47.703125 
L 18.3125 47.703125 
L 18.3125 18.015625 
Q 18.3125 11.328125 20.140625 9.421875 
Q 21.96875 7.515625 27.59375 7.515625 
L 36.8125 7.515625 
L 36.8125 0 
L 27.59375 0 
Q 17.1875 0 13.234375 3.875 
Q 9.28125 7.765625 9.28125 18.015625 
L 9.28125 47.703125 
L 2.6875 47.703125 
L 2.6875 54.6875 
L 9.28125 54.6875 
L 9.28125 70.21875 
z
" id="DejaVuSans-74"/>
     <path d="M 50.984375 -16.609375 
L 50.984375 -23.578125 
L -0.984375 -23.578125 
L -0.984375 -16.609375 
z
" id="DejaVuSans-5f"/>
     <path d="M 48.78125 52.59375 
L 48.78125 44.1875 
Q 44.96875 46.296875 41.140625 47.34375 
Q 37.3125 48.390625 33.40625 48.390625 
Q 24.65625 48.390625 19.8125 42.84375 
Q 14.984375 37.3125 14.984375 27.296875 
Q 14.984375 17.28125 19.8125 11.734375 
Q 24.65625 6.203125 33.40625 6.203125 
Q 37.3125 6.203125 41.140625 7.25 
Q 44.96875 8.296875 48.78125 10.40625 
L 48.78125 2.09375 
Q 45.015625 0.34375 40.984375 -0.53125 
Q 36.96875 -1.421875 32.421875 -1.421875 
Q 20.0625 -1.421875 12.78125 6.34375 
Q 5.515625 14.109375 5.515625 27.296875 
Q 5.515625 40.671875 12.859375 48.328125 
Q 20.21875 56 33.015625 56 
Q 37.15625 56 41.109375 55.140625 
Q 45.0625 54.296875 48.78125 52.59375 
z
" id="DejaVuSans-63"/>
     <path d="M 41.109375 46.296875 
Q 39.59375 47.171875 37.8125 47.578125 
Q 36.03125 48 33.890625 48 
Q 26.265625 48 22.1875 43.046875 
Q 18.109375 38.09375 18.109375 28.8125 
L 18.109375 0 
L 9.078125 0 
L 9.078125 54.6875 
L 18.109375 54.6875 
L 18.109375 46.1875 
Q 20.953125 51.171875 25.484375 53.578125 
Q 30.03125 56 36.53125 56 
Q 37.453125 56 38.578125 55.875 
Q 39.703125 55.765625 41.0625 55.515625 
z
" id="DejaVuSans-72"/>
     <path d="M 11.71875 12.40625 
L 22.015625 12.40625 
L 22.015625 0 
L 11.71875 0 
z
M 11.71875 51.703125 
L 22.015625 51.703125 
L 22.015625 39.3125 
L 11.71875 39.3125 
z
" id="DejaVuSans-3a"/>
     <path id="DejaVuSans-20"/>
    </defs>
    <g transform="translate(140.791422 19.92)scale(0.12 -0.12)">
     <use xlink:href="#DejaVuSans-73"/>
     <use x="52.099609" xlink:href="#DejaVuSans-69"/>
     <use x="79.882812" xlink:href="#DejaVuSans-6c"/>
     <use x="107.666016" xlink:href="#DejaVuSans-68"/>
     <use x="171.044922" xlink:href="#DejaVuSans-6f"/>
     <use x="232.226562" xlink:href="#DejaVuSans-75"/>
     <use x="295.605469" xlink:href="#DejaVuSans-65"/>
     <use x="357.128906" xlink:href="#DejaVuSans-74"/>
     <use x="396.337891" xlink:href="#DejaVuSans-74"/>
     <use x="435.546875" xlink:href="#DejaVuSans-65"/>
     <use x="497.070312" xlink:href="#DejaVuSans-5f"/>
     <use x="547.070312" xlink:href="#DejaVuSans-73"/>
     <use x="599.169922" xlink:href="#DejaVuSans-63"/>
     <use x="654.150391" xlink:href="#DejaVuSans-6f"/>
     <use x="715.332031" xlink:href="#DejaVuSans-72"/>
     <use x="756.414062" xlink:href="#DejaVuSans-65"/>
     <use x="817.9375" xlink:href="#DejaVuSans-3a"/>
     <use x="851.628906" xlink:href="#DejaVuSans-20"/>
     <use x="883.416016" xlink:href="#DejaVuSans-30"/>
     <use x="947.039062" xlink:href="#DejaVuSans-2e"/>
     <use x="978.826172" xlink:href="#DejaVuSans-31"/>
     <use x="1042.449219" xlink:href="#DejaVuSans-32"/>
    </g>
   </g>
  </g>
  <g id="axes_2">
   <g id="patch_7">
    <path d="M 308.172414 189 
L 452.482759 189 
L 452.482759 25.92 
L 308.172414 25.92 
z
" style="fill:#ffffff;"/>
   </g>
   <g id="matplotlib.axis_3">
    <g id="xtick_4">
     <g id="line2d_11">
      <g>
       <use style="stroke:#000000;stroke-width:0.8;" x="314.731975" xlink:href="#md90299a8e1" y="189"/>
      </g>
     </g>
     <g id="text_11">
      <!-- 0 -->
      <g transform="translate(311.550725 203.598437)scale(0.1 -0.1)">
       <use xlink:href="#DejaVuSans-30"/>
      </g>
     </g>
    </g>
    <g id="xtick_5">
     <g id="line2d_12">
      <g>
       <use style="stroke:#000000;stroke-width:0.8;" x="380.393247" xlink:href="#md90299a8e1" y="189"/>
      </g>
     </g>
     <g id="text_12">
      <!-- 500 -->
      <g transform="translate(370.849497 203.598437)scale(0.1 -0.1)">
       <use xlink:href="#DejaVuSans-35"/>
       <use x="63.623047" xlink:href="#DejaVuSans-30"/>
       <use x="127.246094" xlink:href="#DejaVuSans-30"/>
      </g>
     </g>
    </g>
    <g id="xtick_6">
     <g id="line2d_13">
      <g>
       <use style="stroke:#000000;stroke-width:0.8;" x="446.05452" xlink:href="#md90299a8e1" y="189"/>
      </g>
     </g>
     <g id="text_13">
      <!-- 1000 -->
      <g transform="translate(433.32952 203.598437)scale(0.1 -0.1)">
       <use xlink:href="#DejaVuSans-31"/>
       <use x="63.623047" xlink:href="#DejaVuSans-30"/>
       <use x="127.246094" xlink:href="#DejaVuSans-30"/>
       <use x="190.869141" xlink:href="#DejaVuSans-30"/>
      </g>
     </g>
    </g>
   </g>
   <g id="matplotlib.axis_4">
    <g id="ytick_7">
     <g id="line2d_14">
      <g>
       <use style="stroke:#000000;stroke-width:0.8;" x="308.172414" xlink:href="#m9189d8a9b1" y="171.821146"/>
      </g>
     </g>
    </g>
    <g id="ytick_8">
     <g id="line2d_15">
      <g>
       <use style="stroke:#000000;stroke-width:0.8;" x="308.172414" xlink:href="#m9189d8a9b1" y="145.866259"/>
      </g>
     </g>
    </g>
    <g id="ytick_9">
     <g id="line2d_16">
      <g>
       <use style="stroke:#000000;stroke-width:0.8;" x="308.172414" xlink:href="#m9189d8a9b1" y="119.911372"/>
      </g>
     </g>
    </g>
    <g id="ytick_10">
     <g id="line2d_17">
      <g>
       <use style="stroke:#000000;stroke-width:0.8;" x="308.172414" xlink:href="#m9189d8a9b1" y="93.956485"/>
      </g>
     </g>
    </g>
    <g id="ytick_11">
     <g id="line2d_18">
      <g>
       <use style="stroke:#000000;stroke-width:0.8;" x="308.172414" xlink:href="#m9189d8a9b1" y="68.001598"/>
      </g>
     </g>
    </g>
    <g id="ytick_12">
     <g id="line2d_19">
      <g>
       <use style="stroke:#000000;stroke-width:0.8;" x="308.172414" xlink:href="#m9189d8a9b1" y="42.046711"/>
      </g>
     </g>
    </g>
   </g>
   <g id="line2d_20">
    <path clip-path="url(#p59a9e75dea)" d="M 314.731975 172.467888 
L 315.257265 172.467888 
L 315.388588 168.070402 
L 315.913878 168.070402 
L 316.0452 162.002115 
L 316.570491 162.002115 
L 316.701813 154.731616 
L 317.227103 154.731616 
L 317.358426 151.423292 
L 317.883716 151.423292 
L 318.015039 151.102573 
L 318.540329 151.102573 
L 318.671651 150.270269 
L 319.853554 150.180515 
L 319.984877 146.697973 
L 320.510167 146.697973 
L 320.641489 145.954589 
L 323.136618 145.858658 
L 323.26794 144.009628 
L 323.793231 144.009628 
L 323.924553 143.782196 
L 324.449843 143.782196 
L 324.581166 142.161349 
L 325.106456 142.161349 
L 325.237779 141.117991 
L 325.763069 141.117991 
L 325.894391 138.571216 
L 326.419681 138.571216 
L 326.551004 136.801368 
L 327.076294 136.801368 
L 327.207617 136.264352 
L 327.732907 136.264352 
L 327.864229 135.750464 
L 328.38952 135.750464 
L 328.520842 135.085492 
L 329.046132 135.085492 
L 329.177455 134.809834 
L 329.702745 134.809834 
L 329.834068 134.21181 
L 330.359358 134.21181 
L 330.49068 132.700778 
L 331.015971 132.700778 
L 331.147293 132.303206 
L 331.672583 132.303206 
L 331.803906 131.846108 
L 332.329196 131.846108 
L 332.591841 131.721345 
L 332.985809 131.721345 
L 333.117131 130.705832 
L 334.299034 130.690583 
L 334.430357 130.2808 
L 334.955647 130.2808 
L 335.218292 130.077341 
L 336.268872 129.968852 
L 336.400195 129.656854 
L 336.925485 129.656854 
L 337.18813 129.496171 
L 337.582098 129.496171 
L 337.844743 129.34157 
L 338.23871 129.34157 
L 338.370033 128.149395 
L 339.551936 128.127477 
L 339.683258 127.081948 
L 340.208549 127.081948 
L 340.339871 126.809577 
L 340.865161 126.809577 
L 341.127806 126.683879 
L 341.521774 126.683879 
L 341.653097 125.800719 
L 343.491612 125.744224 
L 343.754257 125.641529 
L 344.148225 125.641529 
L 344.279548 124.393007 
L 345.46145 124.385615 
L 345.724096 124.273758 
L 346.118063 124.273758 
L 346.249386 124.002452 
L 346.774676 124.002452 
L 346.905998 123.389977 
L 347.431289 123.389977 
L 347.562611 122.826467 
L 349.401127 122.779119 
L 349.532449 122.569096 
L 350.05774 122.569096 
L 350.189062 122.340741 
L 351.370965 122.303732 
L 351.63361 122.174429 
L 352.027578 122.174429 
L 352.1589 121.387928 
L 352.68419 121.387928 
L 352.815513 120.917567 
L 353.340803 120.917567 
L 353.472126 119.880247 
L 354.654029 119.838184 
L 354.785351 119.510166 
L 355.310641 119.510166 
L 355.441964 119.140759 
L 355.967254 119.140759 
L 356.098577 118.875615 
L 356.623867 118.875615 
L 356.755189 118.434093 
L 357.937092 118.386844 
L 358.199737 118.229616 
L 359.250318 118.165112 
L 359.512963 118.069148 
L 359.90693 118.069148 
L 360.038253 117.486608 
L 361.876769 117.420123 
L 362.139414 117.268783 
L 363.189994 117.180737 
L 363.583962 117.140234 
L 363.846607 117.140234 
L 363.977929 116.815266 
L 365.816445 116.762591 
L 366.07909 116.644942 
L 366.473058 116.644942 
L 366.60438 115.9494 
L 367.12967 115.9494 
L 367.260993 115.735388 
L 367.786283 115.735388 
L 367.917606 114.84102 
L 368.442896 114.84102 
L 368.574218 114.211391 
L 369.099509 114.211391 
L 369.230831 113.245 
L 369.756121 113.245 
L 369.887444 112.929599 
L 371.069347 112.899801 
L 371.200669 112.619746 
L 371.72596 112.619746 
L 371.857282 112.264946 
L 373.039185 112.178348 
L 373.30183 112.010163 
L 373.695798 112.010163 
L 373.82712 111.721406 
L 374.35241 111.721406 
L 374.483733 111.273286 
L 375.009023 111.273286 
L 375.271668 111.111239 
L 375.665636 111.111239 
L 375.928281 110.93386 
L 376.322249 110.93386 
L 376.584894 110.822558 
L 376.978861 110.822558 
L 377.110184 110.476588 
L 377.635474 110.476588 
L 377.766797 109.168862 
L 378.948699 109.131732 
L 379.080022 107.807135 
L 379.605312 107.807135 
L 379.736635 107.517969 
L 380.261925 107.517969 
L 380.393247 106.97041 
L 382.231763 106.900481 
L 382.625731 106.840393 
L 382.888376 106.840393 
L 383.019698 106.461721 
L 383.544989 106.461721 
L 383.676311 105.854852 
L 384.858214 105.757583 
L 384.989537 105.368109 
L 385.514827 105.368109 
L 385.646149 105.113585 
L 386.171439 105.113585 
L 386.302762 104.874614 
L 386.828052 104.874614 
L 386.959375 103.695999 
L 387.484665 103.695999 
L 387.615987 102.992857 
L 388.79789 102.922247 
L 388.929213 102.487241 
L 390.767729 102.378411 
L 391.030374 102.285604 
L 391.424341 102.285604 
L 391.555664 100.987714 
L 392.737567 100.982049 
L 392.868889 100.517568 
L 394.050792 100.430033 
L 394.313437 100.347096 
L 394.707405 100.347096 
L 394.838727 100.048888 
L 395.364018 100.048888 
L 395.49534 99.636728 
L 396.02063 99.636728 
L 396.151953 98.867177 
L 396.677243 98.867177 
L 396.808566 98.528364 
L 397.990469 98.421909 
L 398.253114 98.327909 
L 398.647081 98.327909 
L 398.778404 97.536185 
L 399.303694 97.536185 
L 399.435017 97.294966 
L 400.616919 97.292763 
L 400.748242 96.965091 
L 401.273532 96.965091 
L 401.404855 96.58281 
L 401.930145 96.58281 
L 402.061467 96.33786 
L 402.586758 96.33786 
L 402.71808 96.078437 
L 403.24337 96.078437 
L 403.374693 95.397847 
L 404.556596 95.341384 
L 404.687918 95.112661 
L 405.213209 95.112661 
L 405.344531 94.526589 
L 406.526434 94.442559 
L 406.657757 92.854221 
L 407.183047 92.854221 
L 407.314369 91.979409 
L 407.839659 91.979409 
L 407.970982 91.741455 
L 408.496272 91.741455 
L 408.627595 91.337169 
L 409.809498 91.335348 
L 410.072143 91.215037 
L 410.46611 91.215037 
L 410.728755 91.061381 
L 411.122723 91.061381 
L 411.254046 90.166324 
L 412.435948 90.157874 
L 412.567271 89.718757 
L 413.092561 89.718757 
L 413.355206 89.579249 
L 413.749174 89.579249 
L 413.880496 88.968085 
L 415.062399 88.868241 
L 415.193722 88.428565 
L 415.719012 88.428565 
L 415.850335 88.158225 
L 416.375625 88.158225 
L 416.63827 88.033799 
L 417.032238 88.033799 
L 417.16356 87.34136 
L 417.68885 87.34136 
L 417.820173 87.001776 
L 418.345463 87.001776 
L 418.476786 86.637277 
L 419.002076 86.637277 
L 419.133398 86.420995 
L 419.658688 86.420995 
L 419.790011 86.060001 
L 420.315301 86.060001 
L 420.446624 85.314898 
L 420.971914 85.314898 
L 421.103236 85.083506 
L 421.628527 85.083506 
L 421.759849 84.788801 
L 422.285139 84.788801 
L 422.416462 84.246805 
L 422.941752 84.246805 
L 423.073075 83.803435 
L 423.598365 83.803435 
L 423.729687 83.25971 
L 424.254978 83.25971 
L 424.517623 83.12289 
L 424.91159 83.12289 
L 425.042913 82.853407 
L 426.881428 82.793856 
L 427.012751 82.333337 
L 428.194654 82.276147 
L 428.457299 82.174848 
L 429.507879 82.138147 
L 429.770524 81.983742 
L 430.164492 81.983742 
L 430.295815 81.647746 
L 431.477718 81.621138 
L 431.740363 81.46472 
L 432.13433 81.46472 
L 432.265653 81.020878 
L 432.790943 81.020878 
L 433.053588 80.824875 
L 433.447556 80.824875 
L 433.578878 79.568306 
L 434.104168 79.568306 
L 434.366814 79.454009 
L 434.760781 79.454009 
L 434.892104 79.151115 
L 436.074007 79.052295 
L 436.205329 78.6742 
L 436.730619 78.6742 
L 436.861942 78.080721 
L 437.387232 78.080721 
L 437.518555 76.996055 
L 438.043845 76.996055 
L 438.175167 76.594697 
L 439.35707 76.563257 
L 439.619715 76.473036 
L 440.013683 76.473036 
L 440.145006 75.812995 
L 440.670296 75.812995 
L 440.801618 75.496325 
L 441.326908 75.496325 
L 441.458231 74.899411 
L 441.983521 74.899411 
L 442.246166 74.780042 
L 443.296747 74.687202 
L 443.690714 74.63724 
L 444.609972 74.609448 
L 444.741295 73.134926 
L 445.266585 73.134926 
L 445.397907 72.695156 
L 445.923197 72.695156 
L 445.923197 72.695156 
" style="fill:none;stroke:#ff0000;stroke-dasharray:7.4,3.2;stroke-dashoffset:0;stroke-width:2;"/>
   </g>
   <g id="patch_8">
    <path d="M 308.172414 189 
L 308.172414 25.92 
" style="fill:none;stroke:#000000;stroke-linecap:square;stroke-linejoin:miter;stroke-width:0.8;"/>
   </g>
   <g id="patch_9">
    <path d="M 452.482759 189 
L 452.482759 25.92 
" style="fill:none;stroke:#000000;stroke-linecap:square;stroke-linejoin:miter;stroke-width:0.8;"/>
   </g>
   <g id="patch_10">
    <path d="M 308.172414 189 
L 452.482759 189 
" style="fill:none;stroke:#000000;stroke-linecap:square;stroke-linejoin:miter;stroke-width:0.8;"/>
   </g>
   <g id="patch_11">
    <path d="M 308.172414 25.92 
L 452.482759 25.92 
" style="fill:none;stroke:#000000;stroke-linecap:square;stroke-linejoin:miter;stroke-width:0.8;"/>
   </g>
   <g id="text_14">
    <!-- silhouette_score: 0.29 -->
    <defs>
     <path d="M 10.984375 1.515625 
L 10.984375 10.5 
Q 14.703125 8.734375 18.5 7.8125 
Q 22.3125 6.890625 25.984375 6.890625 
Q 35.75 6.890625 40.890625 13.453125 
Q 46.046875 20.015625 46.78125 33.40625 
Q 43.953125 29.203125 39.59375 26.953125 
Q 35.25 24.703125 29.984375 24.703125 
Q 19.046875 24.703125 12.671875 31.3125 
Q 6.296875 37.9375 6.296875 49.421875 
Q 6.296875 60.640625 12.9375 67.421875 
Q 19.578125 74.21875 30.609375 74.21875 
Q 43.265625 74.21875 49.921875 64.515625 
Q 56.59375 54.828125 56.59375 36.375 
Q 56.59375 19.140625 48.40625 8.859375 
Q 40.234375 -1.421875 26.421875 -1.421875 
Q 22.703125 -1.421875 18.890625 -0.6875 
Q 15.09375 0.046875 10.984375 1.515625 
z
M 30.609375 32.421875 
Q 37.25 32.421875 41.125 36.953125 
Q 45.015625 41.5 45.015625 49.421875 
Q 45.015625 57.28125 41.125 61.84375 
Q 37.25 66.40625 30.609375 66.40625 
Q 23.96875 66.40625 20.09375 61.84375 
Q 16.21875 57.28125 16.21875 49.421875 
Q 16.21875 41.5 20.09375 36.953125 
Q 23.96875 32.421875 30.609375 32.421875 
z
" id="DejaVuSans-39"/>
    </defs>
    <g transform="translate(313.963836 19.92)scale(0.12 -0.12)">
     <use xlink:href="#DejaVuSans-73"/>
     <use x="52.099609" xlink:href="#DejaVuSans-69"/>
     <use x="79.882812" xlink:href="#DejaVuSans-6c"/>
     <use x="107.666016" xlink:href="#DejaVuSans-68"/>
     <use x="171.044922" xlink:href="#DejaVuSans-6f"/>
     <use x="232.226562" xlink:href="#DejaVuSans-75"/>
     <use x="295.605469" xlink:href="#DejaVuSans-65"/>
     <use x="357.128906" xlink:href="#DejaVuSans-74"/>
     <use x="396.337891" xlink:href="#DejaVuSans-74"/>
     <use x="435.546875" xlink:href="#DejaVuSans-65"/>
     <use x="497.070312" xlink:href="#DejaVuSans-5f"/>
     <use x="547.070312" xlink:href="#DejaVuSans-73"/>
     <use x="599.169922" xlink:href="#DejaVuSans-63"/>
     <use x="654.150391" xlink:href="#DejaVuSans-6f"/>
     <use x="715.332031" xlink:href="#DejaVuSans-72"/>
     <use x="756.414062" xlink:href="#DejaVuSans-65"/>
     <use x="817.9375" xlink:href="#DejaVuSans-3a"/>
     <use x="851.628906" xlink:href="#DejaVuSans-20"/>
     <use x="883.416016" xlink:href="#DejaVuSans-30"/>
     <use x="947.039062" xlink:href="#DejaVuSans-2e"/>
     <use x="978.826172" xlink:href="#DejaVuSans-32"/>
     <use x="1042.449219" xlink:href="#DejaVuSans-39"/>
    </g>
   </g>
  </g>
  <g id="axes_3">
   <g id="patch_12">
    <path d="M 481.344828 189 
L 625.655172 189 
L 625.655172 25.92 
L 481.344828 25.92 
z
" style="fill:#ffffff;"/>
   </g>
   <g id="matplotlib.axis_5">
    <g id="xtick_7">
     <g id="line2d_21">
      <g>
       <use style="stroke:#000000;stroke-width:0.8;" x="487.904389" xlink:href="#md90299a8e1" y="189"/>
      </g>
     </g>
     <g id="text_15">
      <!-- 0 -->
      <g transform="translate(484.723139 203.598437)scale(0.1 -0.1)">
       <use xlink:href="#DejaVuSans-30"/>
      </g>
     </g>
    </g>
    <g id="xtick_8">
     <g id="line2d_22">
      <g>
       <use style="stroke:#000000;stroke-width:0.8;" x="553.565661" xlink:href="#md90299a8e1" y="189"/>
      </g>
     </g>
     <g id="text_16">
      <!-- 500 -->
      <g transform="translate(544.021911 203.598437)scale(0.1 -0.1)">
       <use xlink:href="#DejaVuSans-35"/>
       <use x="63.623047" xlink:href="#DejaVuSans-30"/>
       <use x="127.246094" xlink:href="#DejaVuSans-30"/>
      </g>
     </g>
    </g>
    <g id="xtick_9">
     <g id="line2d_23">
      <g>
       <use style="stroke:#000000;stroke-width:0.8;" x="619.226934" xlink:href="#md90299a8e1" y="189"/>
      </g>
     </g>
     <g id="text_17">
      <!-- 1000 -->
      <g transform="translate(606.501934 203.598437)scale(0.1 -0.1)">
       <use xlink:href="#DejaVuSans-31"/>
       <use x="63.623047" xlink:href="#DejaVuSans-30"/>
       <use x="127.246094" xlink:href="#DejaVuSans-30"/>
       <use x="190.869141" xlink:href="#DejaVuSans-30"/>
      </g>
     </g>
    </g>
   </g>
   <g id="matplotlib.axis_6">
    <g id="ytick_13">
     <g id="line2d_24">
      <g>
       <use style="stroke:#000000;stroke-width:0.8;" x="481.344828" xlink:href="#m9189d8a9b1" y="171.821146"/>
      </g>
     </g>
    </g>
    <g id="ytick_14">
     <g id="line2d_25">
      <g>
       <use style="stroke:#000000;stroke-width:0.8;" x="481.344828" xlink:href="#m9189d8a9b1" y="145.866259"/>
      </g>
     </g>
    </g>
    <g id="ytick_15">
     <g id="line2d_26">
      <g>
       <use style="stroke:#000000;stroke-width:0.8;" x="481.344828" xlink:href="#m9189d8a9b1" y="119.911372"/>
      </g>
     </g>
    </g>
    <g id="ytick_16">
     <g id="line2d_27">
      <g>
       <use style="stroke:#000000;stroke-width:0.8;" x="481.344828" xlink:href="#m9189d8a9b1" y="93.956485"/>
      </g>
     </g>
    </g>
    <g id="ytick_17">
     <g id="line2d_28">
      <g>
       <use style="stroke:#000000;stroke-width:0.8;" x="481.344828" xlink:href="#m9189d8a9b1" y="68.001598"/>
      </g>
     </g>
    </g>
    <g id="ytick_18">
     <g id="line2d_29">
      <g>
       <use style="stroke:#000000;stroke-width:0.8;" x="481.344828" xlink:href="#m9189d8a9b1" y="42.046711"/>
      </g>
     </g>
    </g>
   </g>
   <g id="line2d_30">
    <path clip-path="url(#p7a04e8ad16)" d="M 487.904389 153.896058 
L 488.429679 153.896058 
L 488.561001 151.686108 
L 489.086292 151.686108 
L 489.217614 151.293412 
L 489.742904 151.293412 
L 489.874227 150.928705 
L 490.399517 150.928705 
L 490.53084 148.223423 
L 491.05613 148.223423 
L 491.187452 145.821935 
L 491.712743 145.821935 
L 491.844065 143.168005 
L 493.682581 143.076111 
L 493.813903 142.827261 
L 494.339193 142.827261 
L 494.470516 141.150573 
L 494.995806 141.150573 
L 495.258451 141.015844 
L 496.309032 140.92117 
L 496.440354 140.269326 
L 496.965644 140.269326 
L 497.096967 139.53708 
L 497.622257 139.53708 
L 497.75358 138.579118 
L 498.27887 138.579118 
L 498.410192 138.252646 
L 499.592095 138.145921 
L 499.723418 137.808032 
L 500.248708 137.808032 
L 500.380031 137.351315 
L 501.561933 137.288796 
L 501.693256 136.89737 
L 502.218546 136.89737 
L 502.349869 135.899179 
L 503.531772 135.79148 
L 503.663094 134.645005 
L 504.188384 134.645005 
L 504.319707 134.057393 
L 504.844997 134.057393 
L 504.97632 132.983452 
L 505.50161 132.983452 
L 505.632932 132.578066 
L 506.158222 132.578066 
L 506.289545 132.16135 
L 506.814835 132.16135 
L 506.946158 131.93623 
L 507.471448 131.93623 
L 507.60277 130.119973 
L 508.128061 130.119973 
L 508.259383 129.491606 
L 508.784673 129.491606 
L 509.047318 129.336549 
L 509.441286 129.336549 
L 509.572609 128.916315 
L 510.097899 128.916315 
L 510.229221 128.39218 
L 510.754512 128.39218 
L 510.885834 128.079431 
L 511.411124 128.079431 
L 511.542447 127.444208 
L 512.72435 127.355425 
L 512.855672 127.023527 
L 514.037575 126.923161 
L 514.168898 126.529264 
L 514.694188 126.529264 
L 514.82551 125.524113 
L 516.007413 125.464546 
L 516.138736 125.194037 
L 516.664026 125.194037 
L 516.795349 124.96361 
L 517.320639 124.96361 
L 517.451961 124.707785 
L 517.977252 124.707785 
L 518.239897 124.539793 
L 519.290477 124.449692 
L 519.4218 123.86689 
L 520.603702 123.83668 
L 520.735025 122.70859 
L 521.260315 122.70859 
L 521.52296 122.565488 
L 521.916928 122.565488 
L 522.179573 122.426012 
L 522.573541 122.426012 
L 522.836186 122.292627 
L 523.230153 122.292627 
L 523.361476 121.724019 
L 523.886766 121.724019 
L 524.018089 121.325251 
L 524.543379 121.325251 
L 524.674701 120.901674 
L 525.856604 120.853155 
L 525.987927 120.574385 
L 526.513217 120.574385 
L 526.64454 119.516001 
L 527.16983 119.516001 
L 527.432475 119.404486 
L 527.826442 119.404486 
L 527.957765 118.358962 
L 528.483055 118.358962 
L 528.614378 117.797193 
L 529.796281 117.734767 
L 529.927603 117.476807 
L 531.109506 117.379112 
L 531.240829 116.83138 
L 531.766119 116.83138 
L 532.028764 116.642205 
L 532.422732 116.642205 
L 532.685377 116.463104 
L 533.735957 116.387221 
L 533.86728 116.110193 
L 535.049182 116.092801 
L 535.180505 115.422364 
L 536.362408 115.380531 
L 536.625053 115.212609 
L 537.019021 115.212609 
L 537.281666 115.074408 
L 537.675633 115.074408 
L 537.806956 114.581238 
L 538.332246 114.581238 
L 538.463569 114.359303 
L 539.645471 114.270815 
L 539.776794 114.028027 
L 540.302084 114.028027 
L 540.564729 113.837273 
L 540.958697 113.837273 
L 541.090019 113.449555 
L 541.61531 113.449555 
L 541.746632 112.878146 
L 542.271922 112.878146 
L 542.403245 112.580061 
L 542.928535 112.580061 
L 543.059858 112.258759 
L 544.241761 112.23514 
L 544.373083 110.471676 
L 544.898373 110.471676 
L 545.161018 110.27444 
L 545.554986 110.27444 
L 545.686309 109.220934 
L 546.211599 109.220934 
L 546.474244 109.059854 
L 546.868211 109.059854 
L 546.999534 108.404461 
L 547.524824 108.404461 
L 547.656147 107.812338 
L 548.181437 107.812338 
L 548.312759 106.934465 
L 549.494662 106.829234 
L 549.757307 106.622323 
L 550.151275 106.622323 
L 550.282598 105.160779 
L 550.807888 105.160779 
L 550.93921 104.56058 
L 551.464501 104.56058 
L 551.595823 103.068574 
L 552.121113 103.068574 
L 552.252436 99.929905 
L 552.777726 99.929905 
L 552.909049 97.617692 
L 553.434339 97.617692 
L 553.565661 97.186849 
L 554.090951 97.186849 
L 554.222274 84.380788 
L 554.747564 84.380788 
L 554.878887 79.379475 
L 555.404177 79.379475 
L 555.535499 77.406322 
L 556.06079 77.406322 
L 556.192112 75.223102 
L 556.717402 75.223102 
L 556.848725 74.750728 
L 557.374015 74.750728 
L 557.505338 74.07482 
L 558.687241 74.004834 
L 558.818563 73.081014 
L 559.343853 73.081014 
L 559.475176 72.226176 
L 560.000466 72.226176 
L 560.263111 72.091688 
L 560.657079 72.091688 
L 560.788401 71.335908 
L 561.313691 71.335908 
L 561.445014 70.629065 
L 563.28353 70.572564 
L 563.414852 69.561998 
L 563.940142 69.561998 
L 564.071465 68.314254 
L 564.596755 68.314254 
L 564.728078 67.792987 
L 565.909981 67.763572 
L 566.041303 67.553549 
L 566.566593 67.553549 
L 566.829238 67.372753 
L 567.223206 67.372753 
L 567.354529 67.068874 
L 568.536431 66.989273 
L 568.667754 65.995327 
L 569.193044 65.995327 
L 569.324367 65.140268 
L 569.849657 65.140268 
L 569.980979 64.543192 
L 571.162882 64.436166 
L 571.55685 64.382145 
L 571.819495 64.382145 
L 571.950818 63.797901 
L 572.476108 63.797901 
L 572.738753 63.628165 
L 573.789333 63.54274 
L 573.920656 63.003717 
L 575.102559 62.949045 
L 575.233881 62.488953 
L 576.415784 62.468896 
L 576.678429 62.340445 
L 577.072397 62.340445 
L 577.335042 62.174295 
L 577.72901 62.174295 
L 577.860332 61.849586 
L 579.042235 61.772694 
L 579.30488 61.634821 
L 580.35546 61.569897 
L 580.618106 61.481861 
L 581.012073 61.481861 
L 581.143396 61.096189 
L 581.668686 61.096189 
L 581.931331 60.891337 
L 582.325299 60.891337 
L 582.587944 60.716897 
L 584.295137 60.63647 
L 584.557782 60.533761 
L 584.95175 60.533761 
L 585.083072 60.324605 
L 586.264975 60.255774 
L 586.396298 58.974702 
L 587.5782 58.916599 
L 587.709523 58.674186 
L 588.234813 58.674186 
L 588.366136 58.460372 
L 588.891426 58.460372 
L 589.022748 58.060522 
L 590.204651 57.967598 
L 590.467296 57.894892 
L 591.517877 57.858867 
L 591.780522 57.753761 
L 592.17449 57.753761 
L 592.305812 57.465175 
L 593.487715 57.376595 
L 593.881683 57.332022 
L 594.144328 57.332022 
L 594.27565 56.671982 
L 594.80094 56.671982 
L 594.932263 56.284347 
L 595.457553 56.284347 
L 595.720198 56.144465 
L 596.114166 56.144465 
L 596.245488 55.901975 
L 596.770779 55.901975 
L 596.902101 55.676836 
L 597.427391 55.676836 
L 597.690036 55.499246 
L 598.740617 55.475573 
L 598.871939 55.025047 
L 600.710455 54.956188 
L 600.9731 54.877806 
L 602.02368 54.789791 
L 602.286326 54.704993 
L 603.336906 54.638412 
L 603.599551 54.571801 
L 604.650131 54.560546 
L 604.781454 54.307256 
L 605.963357 54.283023 
L 606.226002 54.143273 
L 607.276582 54.102858 
L 607.539227 53.993141 
L 608.589808 53.957535 
L 608.852453 53.808196 
L 609.24642 53.808196 
L 609.377743 53.576638 
L 610.559646 53.540355 
L 610.690968 53.036845 
L 611.216259 53.036845 
L 611.347581 52.804477 
L 611.872871 52.804477 
L 612.004194 52.181189 
L 613.186097 52.140763 
L 613.448742 52.044504 
L 614.499322 52.028638 
L 614.761967 51.855898 
L 615.155935 51.855898 
L 615.287257 51.533947 
L 615.812548 51.533947 
L 615.94387 51.297524 
L 616.46916 51.297524 
L 616.600483 50.947584 
L 617.125773 50.947584 
L 617.257096 49.215806 
L 619.095611 49.116557 
L 619.095611 49.116557 
" style="fill:none;stroke:#ff0000;stroke-dasharray:7.4,3.2;stroke-dashoffset:0;stroke-width:2;"/>
   </g>
   <g id="patch_13">
    <path d="M 481.344828 189 
L 481.344828 25.92 
" style="fill:none;stroke:#000000;stroke-linecap:square;stroke-linejoin:miter;stroke-width:0.8;"/>
   </g>
   <g id="patch_14">
    <path d="M 625.655172 189 
L 625.655172 25.92 
" style="fill:none;stroke:#000000;stroke-linecap:square;stroke-linejoin:miter;stroke-width:0.8;"/>
   </g>
   <g id="patch_15">
    <path d="M 481.344828 189 
L 625.655172 189 
" style="fill:none;stroke:#000000;stroke-linecap:square;stroke-linejoin:miter;stroke-width:0.8;"/>
   </g>
   <g id="patch_16">
    <path d="M 481.344828 25.92 
L 625.655172 25.92 
" style="fill:none;stroke:#000000;stroke-linecap:square;stroke-linejoin:miter;stroke-width:0.8;"/>
   </g>
   <g id="text_18">
    <!-- silhouette_score: 0.41 -->
    <g transform="translate(487.13625 19.92)scale(0.12 -0.12)">
     <use xlink:href="#DejaVuSans-73"/>
     <use x="52.099609" xlink:href="#DejaVuSans-69"/>
     <use x="79.882812" xlink:href="#DejaVuSans-6c"/>
     <use x="107.666016" xlink:href="#DejaVuSans-68"/>
     <use x="171.044922" xlink:href="#DejaVuSans-6f"/>
     <use x="232.226562" xlink:href="#DejaVuSans-75"/>
     <use x="295.605469" xlink:href="#DejaVuSans-65"/>
     <use x="357.128906" xlink:href="#DejaVuSans-74"/>
     <use x="396.337891" xlink:href="#DejaVuSans-74"/>
     <use x="435.546875" xlink:href="#DejaVuSans-65"/>
     <use x="497.070312" xlink:href="#DejaVuSans-5f"/>
     <use x="547.070312" xlink:href="#DejaVuSans-73"/>
     <use x="599.169922" xlink:href="#DejaVuSans-63"/>
     <use x="654.150391" xlink:href="#DejaVuSans-6f"/>
     <use x="715.332031" xlink:href="#DejaVuSans-72"/>
     <use x="756.414062" xlink:href="#DejaVuSans-65"/>
     <use x="817.9375" xlink:href="#DejaVuSans-3a"/>
     <use x="851.628906" xlink:href="#DejaVuSans-20"/>
     <use x="883.416016" xlink:href="#DejaVuSans-30"/>
     <use x="947.039062" xlink:href="#DejaVuSans-2e"/>
     <use x="978.826172" xlink:href="#DejaVuSans-34"/>
     <use x="1042.449219" xlink:href="#DejaVuSans-31"/>
    </g>
   </g>
  </g>
  <g id="axes_4">
   <g id="patch_17">
    <path d="M 654.517241 189 
L 798.827586 189 
L 798.827586 25.92 
L 654.517241 25.92 
z
" style="fill:#ffffff;"/>
   </g>
   <g id="matplotlib.axis_7">
    <g id="xtick_10">
     <g id="line2d_31">
      <g>
       <use style="stroke:#000000;stroke-width:0.8;" x="661.076803" xlink:href="#md90299a8e1" y="189"/>
      </g>
     </g>
     <g id="text_19">
      <!-- 0 -->
      <g transform="translate(657.895553 203.598437)scale(0.1 -0.1)">
       <use xlink:href="#DejaVuSans-30"/>
      </g>
     </g>
    </g>
    <g id="xtick_11">
     <g id="line2d_32">
      <g>
       <use style="stroke:#000000;stroke-width:0.8;" x="726.738075" xlink:href="#md90299a8e1" y="189"/>
      </g>
     </g>
     <g id="text_20">
      <!-- 500 -->
      <g transform="translate(717.194325 203.598437)scale(0.1 -0.1)">
       <use xlink:href="#DejaVuSans-35"/>
       <use x="63.623047" xlink:href="#DejaVuSans-30"/>
       <use x="127.246094" xlink:href="#DejaVuSans-30"/>
      </g>
     </g>
    </g>
    <g id="xtick_12">
     <g id="line2d_33">
      <g>
       <use style="stroke:#000000;stroke-width:0.8;" x="792.399348" xlink:href="#md90299a8e1" y="189"/>
      </g>
     </g>
     <g id="text_21">
      <!-- 1000 -->
      <g transform="translate(779.674348 203.598437)scale(0.1 -0.1)">
       <use xlink:href="#DejaVuSans-31"/>
       <use x="63.623047" xlink:href="#DejaVuSans-30"/>
       <use x="127.246094" xlink:href="#DejaVuSans-30"/>
       <use x="190.869141" xlink:href="#DejaVuSans-30"/>
      </g>
     </g>
    </g>
   </g>
   <g id="matplotlib.axis_8">
    <g id="ytick_19">
     <g id="line2d_34">
      <g>
       <use style="stroke:#000000;stroke-width:0.8;" x="654.517241" xlink:href="#m9189d8a9b1" y="171.821146"/>
      </g>
     </g>
    </g>
    <g id="ytick_20">
     <g id="line2d_35">
      <g>
       <use style="stroke:#000000;stroke-width:0.8;" x="654.517241" xlink:href="#m9189d8a9b1" y="145.866259"/>
      </g>
     </g>
    </g>
    <g id="ytick_21">
     <g id="line2d_36">
      <g>
       <use style="stroke:#000000;stroke-width:0.8;" x="654.517241" xlink:href="#m9189d8a9b1" y="119.911372"/>
      </g>
     </g>
    </g>
    <g id="ytick_22">
     <g id="line2d_37">
      <g>
       <use style="stroke:#000000;stroke-width:0.8;" x="654.517241" xlink:href="#m9189d8a9b1" y="93.956485"/>
      </g>
     </g>
    </g>
    <g id="ytick_23">
     <g id="line2d_38">
      <g>
       <use style="stroke:#000000;stroke-width:0.8;" x="654.517241" xlink:href="#m9189d8a9b1" y="68.001598"/>
      </g>
     </g>
    </g>
    <g id="ytick_24">
     <g id="line2d_39">
      <g>
       <use style="stroke:#000000;stroke-width:0.8;" x="654.517241" xlink:href="#m9189d8a9b1" y="42.046711"/>
      </g>
     </g>
    </g>
   </g>
   <g id="line2d_40">
    <path clip-path="url(#p5e62155104)" d="M 661.076803 161.732311 
L 661.602093 161.732311 
L 661.733415 159.527386 
L 662.258705 159.527386 
L 662.390028 155.296931 
L 662.915318 155.296931 
L 663.046641 154.740009 
L 663.571931 154.740009 
L 663.703253 152.79594 
L 664.228544 152.79594 
L 664.491189 152.611287 
L 664.885156 152.611287 
L 665.016479 151.383439 
L 665.541769 151.383439 
L 665.673092 148.889722 
L 666.198382 148.889722 
L 666.329704 146.370313 
L 666.854994 146.370313 
L 666.986317 144.702087 
L 667.511607 144.702087 
L 667.64293 143.233348 
L 668.16822 143.233348 
L 668.299542 141.637137 
L 668.824833 141.637137 
L 669.087478 141.485764 
L 669.481445 141.485764 
L 669.612768 140.793913 
L 670.138058 140.793913 
L 670.269381 139.714809 
L 670.794671 139.714809 
L 670.925993 138.989831 
L 671.451284 138.989831 
L 671.582606 137.092911 
L 672.107896 137.092911 
L 672.239219 136.51505 
L 673.421122 136.40487 
L 673.552444 135.270916 
L 674.734347 135.254421 
L 674.996992 135.142609 
L 675.39096 135.142609 
L 675.522282 134.230125 
L 676.047573 134.230125 
L 676.178895 133.045636 
L 677.360798 133.023467 
L 677.623443 132.839153 
L 678.017411 132.839153 
L 678.148733 132.412467 
L 678.674024 132.412467 
L 678.805346 131.855677 
L 679.987249 131.745998 
L 680.118572 131.05277 
L 680.643862 131.05277 
L 680.775184 130.84292 
L 681.300474 130.84292 
L 681.431797 130.456961 
L 681.957087 130.456961 
L 682.08841 130.229966 
L 682.6137 130.229966 
L 682.745022 129.691567 
L 683.926925 129.595956 
L 684.058248 129.365007 
L 684.583538 129.365007 
L 684.714861 129.107881 
L 685.896764 129.035846 
L 686.028086 128.774538 
L 686.553376 128.774538 
L 686.684699 128.493482 
L 687.209989 128.493482 
L 687.472634 128.294235 
L 688.523214 128.198832 
L 688.654537 127.137589 
L 689.179827 127.137589 
L 689.442472 126.978371 
L 689.83644 126.978371 
L 690.099085 126.854319 
L 690.493053 126.854319 
L 690.624375 126.539108 
L 691.149665 126.539108 
L 691.41231 126.413374 
L 691.806278 126.413374 
L 691.937601 125.370506 
L 693.776116 125.280798 
L 693.907439 124.749615 
L 694.432729 124.749615 
L 694.564052 124.520524 
L 695.089342 124.520524 
L 695.220664 123.673406 
L 695.745954 123.673406 
L 695.877277 123.366594 
L 696.402567 123.366594 
L 696.53389 123.030525 
L 697.715793 122.920573 
L 698.10976 122.867409 
L 699.029018 122.806943 
L 699.291663 122.690481 
L 699.685631 122.690481 
L 699.816953 122.467169 
L 700.342243 122.467169 
L 700.473566 121.175613 
L 701.655469 121.148206 
L 701.918114 121.041793 
L 702.312082 121.041793 
L 702.443404 120.625681 
L 702.968694 120.625681 
L 703.231339 120.432461 
L 703.625307 120.432461 
L 703.75663 119.715751 
L 704.938533 119.706848 
L 705.069855 118.147516 
L 705.595145 118.147516 
L 705.726468 117.876869 
L 706.251758 117.876869 
L 706.514403 117.729074 
L 706.908371 117.729074 
L 707.171016 117.586848 
L 707.564983 117.586848 
L 707.696306 117.213686 
L 708.221596 117.213686 
L 708.352919 116.64896 
L 708.878209 116.64896 
L 709.140854 116.536148 
L 709.534822 116.536148 
L 709.666144 115.913607 
L 710.191434 115.913607 
L 710.454079 115.742632 
L 710.848047 115.742632 
L 710.97937 115.068594 
L 711.50466 115.068594 
L 711.635982 114.310424 
L 712.817885 114.255636 
L 712.949208 114.003332 
L 714.131111 113.970121 
L 714.262433 113.262055 
L 714.787723 113.262055 
L 714.919046 112.68633 
L 715.444336 112.68633 
L 715.575659 112.450773 
L 716.100949 112.450773 
L 716.232271 111.84333 
L 716.757562 111.84333 
L 716.888884 111.37264 
L 717.414174 111.37264 
L 717.676819 111.251811 
L 718.070787 111.251811 
L 718.333432 111.057376 
L 718.7274 111.057376 
L 718.858722 110.618046 
L 719.384013 110.618046 
L 719.515335 110.016424 
L 720.040625 110.016424 
L 720.171948 109.508594 
L 720.697238 109.508594 
L 720.828561 108.520612 
L 721.353851 108.520612 
L 721.485173 107.664411 
L 722.667076 107.658946 
L 722.798399 107.290629 
L 723.323689 107.290629 
L 723.455011 105.707339 
L 724.636914 105.619515 
L 724.768237 105.146527 
L 725.293527 105.146527 
L 725.42485 104.334262 
L 725.95014 104.334262 
L 726.081462 103.005768 
L 726.606753 103.005768 
L 726.738075 60.502463 
L 727.263365 60.502463 
L 727.394688 60.258209 
L 727.919978 60.258209 
L 728.051301 58.325526 
L 728.576591 58.325526 
L 728.707913 54.166586 
L 729.233203 54.166586 
L 729.364526 52.889654 
L 729.889816 52.889654 
L 730.152461 52.729175 
L 730.546429 52.729175 
L 730.677751 52.386605 
L 731.203042 52.386605 
L 731.334364 52.158949 
L 731.859654 52.158949 
L 732.122299 52.017082 
L 732.516267 52.017082 
L 732.64759 51.36148 
L 733.17288 51.36148 
L 733.304202 50.642618 
L 734.486105 50.627431 
L 734.617428 49.983553 
L 735.142718 49.983553 
L 735.405363 49.818939 
L 735.799331 49.818939 
L 736.061976 49.703343 
L 736.455943 49.703343 
L 736.587266 48.797252 
L 737.112556 48.797252 
L 737.243879 48.201434 
L 737.769169 48.201434 
L 737.900491 47.967814 
L 738.425782 47.967814 
L 738.688427 47.779794 
L 739.082394 47.779794 
L 739.345039 47.616086 
L 739.739007 47.616086 
L 740.001652 47.437083 
L 740.39562 47.437083 
L 740.658265 47.307515 
L 742.365458 47.249325 
L 742.628103 47.181746 
L 743.022071 47.181746 
L 743.284716 47.043123 
L 744.335296 47.019074 
L 744.466619 46.720741 
L 744.991909 46.720741 
L 745.123231 46.486056 
L 746.305134 46.462054 
L 746.436457 46.238442 
L 747.61836 46.178219 
L 747.881005 45.981959 
L 748.274972 45.981959 
L 748.537618 45.808952 
L 748.931585 45.808952 
L 749.062908 45.567304 
L 749.588198 45.567304 
L 749.850843 45.437566 
L 750.901423 45.382665 
L 751.032746 45.069954 
L 752.214649 45.018418 
L 752.477294 44.928155 
L 752.871262 44.928155 
L 753.133907 44.797271 
L 753.527874 44.797271 
L 753.659197 44.516031 
L 754.184487 44.516031 
L 754.31581 44.220728 
L 754.8411 44.220728 
L 755.103745 44.054997 
L 756.810938 43.945837 
L 756.94226 43.246187 
L 757.467551 43.246187 
L 757.598873 42.997489 
L 761.407227 42.907375 
L 761.669872 42.823445 
L 763.377065 42.729152 
L 763.508388 42.164239 
L 766.660129 42.074054 
L 766.922774 41.949659 
L 768.629967 41.885157 
L 768.892612 41.800818 
L 769.28658 41.800818 
L 769.549225 41.657115 
L 770.599805 41.616063 
L 770.86245 41.518221 
L 772.569643 41.432008 
L 772.832288 41.357362 
L 773.882869 41.311949 
L 774.145514 41.203191 
L 775.196094 41.198291 
L 775.458739 41.023372 
L 775.852707 41.023372 
L 775.984029 40.671276 
L 776.50932 40.671276 
L 776.771965 40.525972 
L 778.479158 40.470333 
L 778.61048 40.124477 
L 779.792383 40.04978 
L 780.055028 39.966287 
L 780.448996 39.966287 
L 780.580319 39.711708 
L 781.762221 39.647925 
L 781.893544 39.426372 
L 783.075447 39.381284 
L 783.338092 39.284582 
L 784.388672 39.18443 
L 784.651317 39.088956 
L 785.045285 39.088956 
L 785.176608 38.856539 
L 786.358511 38.77101 
L 786.621156 38.703653 
L 787.671736 38.608295 
L 787.934381 38.517785 
L 788.984961 38.444665 
L 789.247607 38.280855 
L 790.298187 38.25956 
L 790.560832 38.063273 
L 790.9548 38.063273 
L 791.086122 37.138203 
L 792.268025 37.136652 
L 792.268025 37.136652 
" style="fill:none;stroke:#ff0000;stroke-dasharray:7.4,3.2;stroke-dashoffset:0;stroke-width:2;"/>
   </g>
   <g id="patch_18">
    <path d="M 654.517241 189 
L 654.517241 25.92 
" style="fill:none;stroke:#000000;stroke-linecap:square;stroke-linejoin:miter;stroke-width:0.8;"/>
   </g>
   <g id="patch_19">
    <path d="M 798.827586 189 
L 798.827586 25.92 
" style="fill:none;stroke:#000000;stroke-linecap:square;stroke-linejoin:miter;stroke-width:0.8;"/>
   </g>
   <g id="patch_20">
    <path d="M 654.517241 189 
L 798.827586 189 
" style="fill:none;stroke:#000000;stroke-linecap:square;stroke-linejoin:miter;stroke-width:0.8;"/>
   </g>
   <g id="patch_21">
    <path d="M 654.517241 25.92 
L 798.827586 25.92 
" style="fill:none;stroke:#000000;stroke-linecap:square;stroke-linejoin:miter;stroke-width:0.8;"/>
   </g>
   <g id="text_22">
    <!-- silhouette_score: 0.47 -->
    <defs>
     <path d="M 8.203125 72.90625 
L 55.078125 72.90625 
L 55.078125 68.703125 
L 28.609375 0 
L 18.3125 0 
L 43.21875 64.59375 
L 8.203125 64.59375 
z
" id="DejaVuSans-37"/>
    </defs>
    <g transform="translate(660.308664 19.92)scale(0.12 -0.12)">
     <use xlink:href="#DejaVuSans-73"/>
     <use x="52.099609" xlink:href="#DejaVuSans-69"/>
     <use x="79.882812" xlink:href="#DejaVuSans-6c"/>
     <use x="107.666016" xlink:href="#DejaVuSans-68"/>
     <use x="171.044922" xlink:href="#DejaVuSans-6f"/>
     <use x="232.226562" xlink:href="#DejaVuSans-75"/>
     <use x="295.605469" xlink:href="#DejaVuSans-65"/>
     <use x="357.128906" xlink:href="#DejaVuSans-74"/>
     <use x="396.337891" xlink:href="#DejaVuSans-74"/>
     <use x="435.546875" xlink:href="#DejaVuSans-65"/>
     <use x="497.070312" xlink:href="#DejaVuSans-5f"/>
     <use x="547.070312" xlink:href="#DejaVuSans-73"/>
     <use x="599.169922" xlink:href="#DejaVuSans-63"/>
     <use x="654.150391" xlink:href="#DejaVuSans-6f"/>
     <use x="715.332031" xlink:href="#DejaVuSans-72"/>
     <use x="756.414062" xlink:href="#DejaVuSans-65"/>
     <use x="817.9375" xlink:href="#DejaVuSans-3a"/>
     <use x="851.628906" xlink:href="#DejaVuSans-20"/>
     <use x="883.416016" xlink:href="#DejaVuSans-30"/>
     <use x="947.039062" xlink:href="#DejaVuSans-2e"/>
     <use x="978.826172" xlink:href="#DejaVuSans-34"/>
     <use x="1042.449219" xlink:href="#DejaVuSans-37"/>
    </g>
   </g>
  </g>
  <g id="axes_5">
   <g id="patch_22">
    <path d="M 827.689655 189 
L 972 189 
L 972 25.92 
L 827.689655 25.92 
z
" style="fill:#ffffff;"/>
   </g>
   <g id="matplotlib.axis_9">
    <g id="xtick_13">
     <g id="line2d_41">
      <g>
       <use style="stroke:#000000;stroke-width:0.8;" x="834.249216" xlink:href="#md90299a8e1" y="189"/>
      </g>
     </g>
     <g id="text_23">
      <!-- 0 -->
      <g transform="translate(831.067966 203.598437)scale(0.1 -0.1)">
       <use xlink:href="#DejaVuSans-30"/>
      </g>
     </g>
    </g>
    <g id="xtick_14">
     <g id="line2d_42">
      <g>
       <use style="stroke:#000000;stroke-width:0.8;" x="899.910489" xlink:href="#md90299a8e1" y="189"/>
      </g>
     </g>
     <g id="text_24">
      <!-- 500 -->
      <g transform="translate(890.366739 203.598437)scale(0.1 -0.1)">
       <use xlink:href="#DejaVuSans-35"/>
       <use x="63.623047" xlink:href="#DejaVuSans-30"/>
       <use x="127.246094" xlink:href="#DejaVuSans-30"/>
      </g>
     </g>
    </g>
    <g id="xtick_15">
     <g id="line2d_43">
      <g>
       <use style="stroke:#000000;stroke-width:0.8;" x="965.571761" xlink:href="#md90299a8e1" y="189"/>
      </g>
     </g>
     <g id="text_25">
      <!-- 1000 -->
      <g transform="translate(952.846761 203.598437)scale(0.1 -0.1)">
       <use xlink:href="#DejaVuSans-31"/>
       <use x="63.623047" xlink:href="#DejaVuSans-30"/>
       <use x="127.246094" xlink:href="#DejaVuSans-30"/>
       <use x="190.869141" xlink:href="#DejaVuSans-30"/>
      </g>
     </g>
    </g>
   </g>
   <g id="matplotlib.axis_10">
    <g id="ytick_25">
     <g id="line2d_44">
      <g>
       <use style="stroke:#000000;stroke-width:0.8;" x="827.689655" xlink:href="#m9189d8a9b1" y="171.821146"/>
      </g>
     </g>
    </g>
    <g id="ytick_26">
     <g id="line2d_45">
      <g>
       <use style="stroke:#000000;stroke-width:0.8;" x="827.689655" xlink:href="#m9189d8a9b1" y="145.866259"/>
      </g>
     </g>
    </g>
    <g id="ytick_27">
     <g id="line2d_46">
      <g>
       <use style="stroke:#000000;stroke-width:0.8;" x="827.689655" xlink:href="#m9189d8a9b1" y="119.911372"/>
      </g>
     </g>
    </g>
    <g id="ytick_28">
     <g id="line2d_47">
      <g>
       <use style="stroke:#000000;stroke-width:0.8;" x="827.689655" xlink:href="#m9189d8a9b1" y="93.956485"/>
      </g>
     </g>
    </g>
    <g id="ytick_29">
     <g id="line2d_48">
      <g>
       <use style="stroke:#000000;stroke-width:0.8;" x="827.689655" xlink:href="#m9189d8a9b1" y="68.001598"/>
      </g>
     </g>
    </g>
    <g id="ytick_30">
     <g id="line2d_49">
      <g>
       <use style="stroke:#000000;stroke-width:0.8;" x="827.689655" xlink:href="#m9189d8a9b1" y="42.046711"/>
      </g>
     </g>
    </g>
   </g>
   <g id="line2d_50">
    <path clip-path="url(#p9a982adeac)" d="M 834.249216 181.587273 
L 834.774506 181.587273 
L 834.905829 165.30768 
L 835.431119 165.30768 
L 835.562442 162.813126 
L 836.087732 162.813126 
L 836.219054 160.250979 
L 836.744345 160.250979 
L 836.875667 158.638279 
L 837.400957 158.638279 
L 837.53228 157.499423 
L 838.05757 157.499423 
L 838.188893 156.303947 
L 838.714183 156.303947 
L 838.845505 153.715954 
L 839.370796 153.715954 
L 839.502118 152.952481 
L 840.027408 152.952481 
L 840.158731 152.079958 
L 840.684021 152.079958 
L 840.815344 150.548018 
L 841.340634 150.548018 
L 841.471956 146.83212 
L 841.997246 146.83212 
L 842.128569 146.081463 
L 842.653859 146.081463 
L 842.916504 145.949792 
L 843.310472 145.949792 
L 843.441794 145.458674 
L 843.967085 145.458674 
L 844.098407 143.303819 
L 844.623697 143.303819 
L 844.75502 142.91867 
L 845.28031 142.91867 
L 845.542955 142.769114 
L 845.936923 142.769114 
L 846.068245 142.003272 
L 846.593536 142.003272 
L 846.724858 140.397308 
L 847.250148 140.397308 
L 847.381471 140.095886 
L 847.906761 140.095886 
L 848.038084 138.538681 
L 849.219986 138.461483 
L 849.351309 138.179078 
L 850.533212 138.15543 
L 850.664534 136.917681 
L 851.189825 136.917681 
L 851.321147 136.534655 
L 851.846437 136.534655 
L 851.97776 134.969103 
L 852.50305 134.969103 
L 852.634373 134.64185 
L 853.159663 134.64185 
L 853.290985 133.868939 
L 853.816276 133.868939 
L 853.947598 133.300786 
L 854.472888 133.300786 
L 854.604211 132.026335 
L 855.129501 132.026335 
L 855.260824 131.370783 
L 855.786114 131.370783 
L 855.917436 130.748158 
L 857.755952 130.676227 
L 857.887274 130.413299 
L 858.412565 130.413299 
L 858.543887 129.907822 
L 859.069177 129.907822 
L 859.2005 129.105405 
L 859.72579 129.105405 
L 859.857113 128.451193 
L 860.382403 128.451193 
L 860.513725 128.125683 
L 861.695628 128.039294 
L 861.826951 127.337483 
L 862.352241 127.337483 
L 862.483564 126.016494 
L 863.008854 126.016494 
L 863.140176 125.104956 
L 863.665466 125.104956 
L 863.796789 124.648363 
L 864.322079 124.648363 
L 864.453402 123.734425 
L 864.978692 123.734425 
L 865.241337 123.605981 
L 865.635305 123.605981 
L 865.766627 123.229434 
L 866.291917 123.229434 
L 866.42324 122.489636 
L 867.605143 122.48462 
L 867.736465 122.134295 
L 868.261755 122.134295 
L 868.393078 121.911335 
L 868.918368 121.911335 
L 869.049691 121.508497 
L 869.574981 121.508497 
L 869.706303 119.936629 
L 870.231594 119.936629 
L 870.362916 119.724954 
L 870.888206 119.724954 
L 871.019529 119.217454 
L 871.544819 119.217454 
L 871.807464 119.042306 
L 872.201432 119.042306 
L 872.332754 118.428692 
L 872.858045 118.428692 
L 872.989367 117.523149 
L 873.514657 117.523149 
L 873.64598 116.413829 
L 874.17127 116.413829 
L 874.433915 116.301406 
L 874.827883 116.301406 
L 874.959205 115.418285 
L 875.484495 115.418285 
L 875.747141 115.214101 
L 876.141108 115.214101 
L 876.272431 114.87348 
L 876.797721 114.87348 
L 876.929043 114.634404 
L 877.454334 114.634403 
L 877.585656 114.326624 
L 878.110946 114.326624 
L 878.242269 114.08228 
L 878.767559 114.08228 
L 878.898882 112.557018 
L 879.424172 112.557018 
L 879.686817 112.40264 
L 880.080785 112.40264 
L 880.212107 111.853705 
L 880.737397 111.853705 
L 880.86872 110.569789 
L 881.39401 110.569789 
L 881.525333 110.216774 
L 882.707235 110.172547 
L 882.838558 107.809175 
L 884.020461 107.776286 
L 884.151783 107.567395 
L 884.677074 107.567395 
L 884.808396 107.18529 
L 885.333686 107.18529 
L 885.596331 107.011907 
L 885.990299 107.011907 
L 886.121622 106.718622 
L 886.646912 106.718622 
L 886.778234 106.28962 
L 887.960137 106.217912 
L 888.09146 105.121769 
L 888.61675 105.121769 
L 888.748073 103.993612 
L 889.273363 103.993612 
L 889.404685 103.399803 
L 889.929975 103.399803 
L 890.061298 102.715766 
L 890.586588 102.715766 
L 890.717911 101.62161 
L 891.243201 101.62161 
L 891.374523 100.9748 
L 891.899814 100.9748 
L 892.031136 100.079275 
L 892.556426 100.079275 
L 892.687749 96.893696 
L 893.213039 96.893696 
L 893.344362 93.375361 
L 893.869652 93.375361 
L 894.000974 93.054819 
L 895.182877 92.947209 
L 895.445522 92.759912 
L 895.83949 92.759912 
L 895.970813 90.657399 
L 896.496103 90.657399 
L 896.627425 89.526102 
L 897.152715 89.526102 
L 897.284038 88.916074 
L 897.809328 88.916074 
L 897.940651 87.692583 
L 898.465941 87.692583 
L 898.597263 84.200186 
L 899.122554 84.200186 
L 899.253876 80.392779 
L 899.779166 80.392779 
L 899.910489 49.894661 
L 900.435779 49.894661 
L 900.567102 47.712634 
L 901.092392 47.712634 
L 901.223714 47.038939 
L 901.749004 47.038939 
L 902.01165 46.880177 
L 902.405617 46.880177 
L 902.53694 46.630885 
L 903.06223 46.630885 
L 903.193552 45.463297 
L 904.375455 45.429555 
L 904.506778 45.066622 
L 905.032068 45.066622 
L 905.163391 44.637569 
L 905.688681 44.637569 
L 905.820003 43.868054 
L 907.658519 43.766203 
L 907.921164 43.643343 
L 908.971744 43.542348 
L 909.103067 43.302872 
L 909.628357 43.302872 
L 909.891002 43.177499 
L 910.28497 43.177499 
L 910.416292 42.864447 
L 911.598195 42.793192 
L 911.729518 42.578378 
L 912.911421 42.475032 
L 913.042743 41.923485 
L 913.568034 41.923485 
L 913.699356 41.615563 
L 914.224646 41.615563 
L 914.355969 41.367644 
L 914.881259 41.367644 
L 915.143904 41.248997 
L 915.537872 41.248997 
L 915.800517 41.115469 
L 916.851097 41.055791 
L 917.113742 40.854791 
L 917.50771 40.854791 
L 917.639032 40.584949 
L 918.820935 40.535774 
L 919.08358 40.469848 
L 920.134161 40.43525 
L 920.396806 40.33757 
L 920.790774 40.33757 
L 921.053419 40.154783 
L 922.103999 40.115917 
L 922.235322 39.554735 
L 923.417224 39.544522 
L 923.548547 39.15667 
L 924.73045 39.061093 
L 925.25574 39.028519 
L 926.043675 38.983891 
L 926.30632 38.859855 
L 927.356901 38.851356 
L 927.619546 38.734716 
L 928.670126 38.672552 
L 928.932771 38.596038 
L 930.639964 38.515823 
L 930.771287 38.273865 
L 931.296577 38.273865 
L 931.559222 38.124747 
L 933.923028 38.033609 
L 934.185673 37.896046 
L 934.579641 37.896046 
L 934.710963 37.672456 
L 936.549479 37.57733 
L 936.812124 37.456084 
L 937.862704 37.356065 
L 940.357833 37.090468 
L 943.115606 36.98047 
L 943.903541 36.933701 
L 946.39867 36.841691 
L 947.580573 36.72371 
L 947.711895 36.72371 
L 947.97454 36.536757 
L 948.368508 36.536757 
L 948.499831 36.271558 
L 950.338346 36.241726 
L 950.600991 36.13281 
L 952.308184 36.070596 
L 952.570829 35.983745 
L 953.62141 35.952686 
L 953.884055 35.809768 
L 955.591248 35.792041 
L 955.722571 35.552411 
L 956.904473 35.531097 
L 957.035796 35.279783 
L 958.874312 35.233019 
L 959.136957 35.041388 
L 960.187537 34.982379 
L 960.450182 34.881015 
L 960.84415 34.881015 
L 960.975472 34.613935 
L 961.500763 34.613935 
L 961.632085 34.327888 
L 962.813988 34.246939 
L 963.076633 34.136955 
L 964.127213 34.061174 
L 964.389859 33.915337 
L 964.783826 33.915337 
L 964.915149 33.332727 
L 965.440439 33.332727 
L 965.440439 33.332727 
" style="fill:none;stroke:#ff0000;stroke-dasharray:7.4,3.2;stroke-dashoffset:0;stroke-width:2;"/>
   </g>
   <g id="patch_23">
    <path d="M 827.689655 189 
L 827.689655 25.92 
" style="fill:none;stroke:#000000;stroke-linecap:square;stroke-linejoin:miter;stroke-width:0.8;"/>
   </g>
   <g id="patch_24">
    <path d="M 972 189 
L 972 25.92 
" style="fill:none;stroke:#000000;stroke-linecap:square;stroke-linejoin:miter;stroke-width:0.8;"/>
   </g>
   <g id="patch_25">
    <path d="M 827.689655 189 
L 972 189 
" style="fill:none;stroke:#000000;stroke-linecap:square;stroke-linejoin:miter;stroke-width:0.8;"/>
   </g>
   <g id="patch_26">
    <path d="M 827.689655 25.92 
L 972 25.92 
" style="fill:none;stroke:#000000;stroke-linecap:square;stroke-linejoin:miter;stroke-width:0.8;"/>
   </g>
   <g id="text_26">
    <!-- silhouette_score: 0.5 -->
    <g transform="translate(837.298578 19.92)scale(0.12 -0.12)">
     <use xlink:href="#DejaVuSans-73"/>
     <use x="52.099609" xlink:href="#DejaVuSans-69"/>
     <use x="79.882812" xlink:href="#DejaVuSans-6c"/>
     <use x="107.666016" xlink:href="#DejaVuSans-68"/>
     <use x="171.044922" xlink:href="#DejaVuSans-6f"/>
     <use x="232.226562" xlink:href="#DejaVuSans-75"/>
     <use x="295.605469" xlink:href="#DejaVuSans-65"/>
     <use x="357.128906" xlink:href="#DejaVuSans-74"/>
     <use x="396.337891" xlink:href="#DejaVuSans-74"/>
     <use x="435.546875" xlink:href="#DejaVuSans-65"/>
     <use x="497.070312" xlink:href="#DejaVuSans-5f"/>
     <use x="547.070312" xlink:href="#DejaVuSans-73"/>
     <use x="599.169922" xlink:href="#DejaVuSans-63"/>
     <use x="654.150391" xlink:href="#DejaVuSans-6f"/>
     <use x="715.332031" xlink:href="#DejaVuSans-72"/>
     <use x="756.414062" xlink:href="#DejaVuSans-65"/>
     <use x="817.9375" xlink:href="#DejaVuSans-3a"/>
     <use x="851.628906" xlink:href="#DejaVuSans-20"/>
     <use x="883.416016" xlink:href="#DejaVuSans-30"/>
     <use x="947.039062" xlink:href="#DejaVuSans-2e"/>
     <use x="978.826172" xlink:href="#DejaVuSans-35"/>
    </g>
   </g>
  </g>
 </g>
 <defs>
  <clipPath id="p2ab330d5ae">
   <rect height="163.08" width="144.310345" x="135" y="25.92"/>
  </clipPath>
  <clipPath id="p59a9e75dea">
   <rect height="163.08" width="144.310345" x="308.172414" y="25.92"/>
  </clipPath>
  <clipPath id="p7a04e8ad16">
   <rect height="163.08" width="144.310345" x="481.344828" y="25.92"/>
  </clipPath>
  <clipPath id="p5e62155104">
   <rect height="163.08" width="144.310345" x="654.517241" y="25.92"/>
  </clipPath>
  <clipPath id="p9a982adeac">
   <rect height="163.08" width="144.310345" x="827.689655" y="25.92"/>
  </clipPath>
 </defs>
</svg>
