<?xml version="1.0" encoding="utf-8" standalone="no"?>
<!DOCTYPE svg PUBLIC "-//W3C//DTD SVG 1.1//EN"
  "http://www.w3.org/Graphics/SVG/1.1/DTD/svg11.dtd">
<!-- Created with matplotlib (http://matplotlib.org/) -->
<svg height="216pt" version="1.1" viewBox="0 0 1080 216" width="1080pt" xmlns="http://www.w3.org/2000/svg" xmlns:xlink="http://www.w3.org/1999/xlink">
 <defs>
  <style type="text/css">
*{stroke-linecap:butt;stroke-linejoin:round;}
  </style>
 </defs>
 <g id="figure_1">
  <g id="patch_1">
   <path d="M 0 216 
L 1080 216 
L 1080 0 
L 0 0 
z
" style="fill:#ffffff;"/>
  </g>
  <g id="axes_1">
   <g id="patch_2">
    <path d="M 135 189 
L 279.310345 189 
L 279.310345 25.92 
L 135 25.92 
z
" style="fill:#ffffff;"/>
   </g>
   <g id="matplotlib.axis_1">
    <g id="xtick_1">
     <g id="line2d_1">
      <defs>
       <path d="M 0 0 
L 0 3.5 
" id="m967c111550" style="stroke:#000000;stroke-width:0.8;"/>
      </defs>
      <g>
       <use style="stroke:#000000;stroke-width:0.8;" x="141.559561" xlink:href="#m967c111550" y="189"/>
      </g>
     </g>
     <g id="text_1">
      <!-- 0 -->
      <defs>
       <path d="M 31.78125 66.40625 
Q 24.171875 66.40625 20.328125 58.90625 
Q 16.5 51.421875 16.5 36.375 
Q 16.5 21.390625 20.328125 13.890625 
Q 24.171875 6.390625 31.78125 6.390625 
Q 39.453125 6.390625 43.28125 13.890625 
Q 47.125 21.390625 47.125 36.375 
Q 47.125 51.421875 43.28125 58.90625 
Q 39.453125 66.40625 31.78125 66.40625 
z
M 31.78125 74.21875 
Q 44.046875 74.21875 50.515625 64.515625 
Q 56.984375 54.828125 56.984375 36.375 
Q 56.984375 17.96875 50.515625 8.265625 
Q 44.046875 -1.421875 31.78125 -1.421875 
Q 19.53125 -1.421875 13.0625 8.265625 
Q 6.59375 17.96875 6.59375 36.375 
Q 6.59375 54.828125 13.0625 64.515625 
Q 19.53125 74.21875 31.78125 74.21875 
z
" id="DejaVuSans-30"/>
      </defs>
      <g transform="translate(138.378311 203.598437)scale(0.1 -0.1)">
       <use xlink:href="#DejaVuSans-30"/>
      </g>
     </g>
    </g>
    <g id="xtick_2">
     <g id="line2d_2">
      <g>
       <use style="stroke:#000000;stroke-width:0.8;" x="207.220834" xlink:href="#m967c111550" y="189"/>
      </g>
     </g>
     <g id="text_2">
      <!-- 500 -->
      <defs>
       <path d="M 10.796875 72.90625 
L 49.515625 72.90625 
L 49.515625 64.59375 
L 19.828125 64.59375 
L 19.828125 46.734375 
Q 21.96875 47.46875 24.109375 47.828125 
Q 26.265625 48.1875 28.421875 48.1875 
Q 40.625 48.1875 47.75 41.5 
Q 54.890625 34.8125 54.890625 23.390625 
Q 54.890625 11.625 47.5625 5.09375 
Q 40.234375 -1.421875 26.90625 -1.421875 
Q 22.3125 -1.421875 17.546875 -0.640625 
Q 12.796875 0.140625 7.71875 1.703125 
L 7.71875 11.625 
Q 12.109375 9.234375 16.796875 8.0625 
Q 21.484375 6.890625 26.703125 6.890625 
Q 35.15625 6.890625 40.078125 11.328125 
Q 45.015625 15.765625 45.015625 23.390625 
Q 45.015625 31 40.078125 35.4375 
Q 35.15625 39.890625 26.703125 39.890625 
Q 22.75 39.890625 18.8125 39.015625 
Q 14.890625 38.140625 10.796875 36.28125 
z
" id="DejaVuSans-35"/>
      </defs>
      <g transform="translate(197.677084 203.598437)scale(0.1 -0.1)">
       <use xlink:href="#DejaVuSans-35"/>
       <use x="63.623047" xlink:href="#DejaVuSans-30"/>
       <use x="127.246094" xlink:href="#DejaVuSans-30"/>
      </g>
     </g>
    </g>
    <g id="xtick_3">
     <g id="line2d_3">
      <g>
       <use style="stroke:#000000;stroke-width:0.8;" x="272.882106" xlink:href="#m967c111550" y="189"/>
      </g>
     </g>
     <g id="text_3">
      <!-- 1000 -->
      <defs>
       <path d="M 12.40625 8.296875 
L 28.515625 8.296875 
L 28.515625 63.921875 
L 10.984375 60.40625 
L 10.984375 69.390625 
L 28.421875 72.90625 
L 38.28125 72.90625 
L 38.28125 8.296875 
L 54.390625 8.296875 
L 54.390625 0 
L 12.40625 0 
z
" id="DejaVuSans-31"/>
      </defs>
      <g transform="translate(260.157106 203.598437)scale(0.1 -0.1)">
       <use xlink:href="#DejaVuSans-31"/>
       <use x="63.623047" xlink:href="#DejaVuSans-30"/>
       <use x="127.246094" xlink:href="#DejaVuSans-30"/>
       <use x="190.869141" xlink:href="#DejaVuSans-30"/>
      </g>
     </g>
    </g>
   </g>
   <g id="matplotlib.axis_2">
    <g id="ytick_1">
     <g id="line2d_4">
      <defs>
       <path d="M 0 0 
L -3.5 0 
" id="m4f41187285" style="stroke:#000000;stroke-width:0.8;"/>
      </defs>
      <g>
       <use style="stroke:#000000;stroke-width:0.8;" x="135" xlink:href="#m4f41187285" y="176.615549"/>
      </g>
     </g>
     <g id="text_4">
      <!-- −0.2 -->
      <defs>
       <path d="M 10.59375 35.5 
L 73.1875 35.5 
L 73.1875 27.203125 
L 10.59375 27.203125 
z
" id="DejaVuSans-2212"/>
       <path d="M 10.6875 12.40625 
L 21 12.40625 
L 21 0 
L 10.6875 0 
z
" id="DejaVuSans-2e"/>
       <path d="M 19.1875 8.296875 
L 53.609375 8.296875 
L 53.609375 0 
L 7.328125 0 
L 7.328125 8.296875 
Q 12.9375 14.109375 22.625 23.890625 
Q 32.328125 33.6875 34.8125 36.53125 
Q 39.546875 41.84375 41.421875 45.53125 
Q 43.3125 49.21875 43.3125 52.78125 
Q 43.3125 58.59375 39.234375 62.25 
Q 35.15625 65.921875 28.609375 65.921875 
Q 23.96875 65.921875 18.8125 64.3125 
Q 13.671875 62.703125 7.8125 59.421875 
L 7.8125 69.390625 
Q 13.765625 71.78125 18.9375 73 
Q 24.125 74.21875 28.421875 74.21875 
Q 39.75 74.21875 46.484375 68.546875 
Q 53.21875 62.890625 53.21875 53.421875 
Q 53.21875 48.921875 51.53125 44.890625 
Q 49.859375 40.875 45.40625 35.40625 
Q 44.1875 33.984375 37.640625 27.21875 
Q 31.109375 20.453125 19.1875 8.296875 
z
" id="DejaVuSans-32"/>
      </defs>
      <g transform="translate(103.717187 180.414768)scale(0.1 -0.1)">
       <use xlink:href="#DejaVuSans-2212"/>
       <use x="83.789062" xlink:href="#DejaVuSans-30"/>
       <use x="147.412109" xlink:href="#DejaVuSans-2e"/>
       <use x="179.199219" xlink:href="#DejaVuSans-32"/>
      </g>
     </g>
    </g>
    <g id="ytick_2">
     <g id="line2d_5">
      <g>
       <use style="stroke:#000000;stroke-width:0.8;" x="135" xlink:href="#m4f41187285" y="150.029332"/>
      </g>
     </g>
     <g id="text_5">
      <!-- 0.0 -->
      <g transform="translate(112.096875 153.828551)scale(0.1 -0.1)">
       <use xlink:href="#DejaVuSans-30"/>
       <use x="63.623047" xlink:href="#DejaVuSans-2e"/>
       <use x="95.410156" xlink:href="#DejaVuSans-30"/>
      </g>
     </g>
    </g>
    <g id="ytick_3">
     <g id="line2d_6">
      <g>
       <use style="stroke:#000000;stroke-width:0.8;" x="135" xlink:href="#m4f41187285" y="123.443115"/>
      </g>
     </g>
     <g id="text_6">
      <!-- 0.2 -->
      <g transform="translate(112.096875 127.242334)scale(0.1 -0.1)">
       <use xlink:href="#DejaVuSans-30"/>
       <use x="63.623047" xlink:href="#DejaVuSans-2e"/>
       <use x="95.410156" xlink:href="#DejaVuSans-32"/>
      </g>
     </g>
    </g>
    <g id="ytick_4">
     <g id="line2d_7">
      <g>
       <use style="stroke:#000000;stroke-width:0.8;" x="135" xlink:href="#m4f41187285" y="96.856898"/>
      </g>
     </g>
     <g id="text_7">
      <!-- 0.4 -->
      <defs>
       <path d="M 37.796875 64.3125 
L 12.890625 25.390625 
L 37.796875 25.390625 
z
M 35.203125 72.90625 
L 47.609375 72.90625 
L 47.609375 25.390625 
L 58.015625 25.390625 
L 58.015625 17.1875 
L 47.609375 17.1875 
L 47.609375 0 
L 37.796875 0 
L 37.796875 17.1875 
L 4.890625 17.1875 
L 4.890625 26.703125 
z
" id="DejaVuSans-34"/>
      </defs>
      <g transform="translate(112.096875 100.656117)scale(0.1 -0.1)">
       <use xlink:href="#DejaVuSans-30"/>
       <use x="63.623047" xlink:href="#DejaVuSans-2e"/>
       <use x="95.410156" xlink:href="#DejaVuSans-34"/>
      </g>
     </g>
    </g>
    <g id="ytick_5">
     <g id="line2d_8">
      <g>
       <use style="stroke:#000000;stroke-width:0.8;" x="135" xlink:href="#m4f41187285" y="70.270681"/>
      </g>
     </g>
     <g id="text_8">
      <!-- 0.6 -->
      <defs>
       <path d="M 33.015625 40.375 
Q 26.375 40.375 22.484375 35.828125 
Q 18.609375 31.296875 18.609375 23.390625 
Q 18.609375 15.53125 22.484375 10.953125 
Q 26.375 6.390625 33.015625 6.390625 
Q 39.65625 6.390625 43.53125 10.953125 
Q 47.40625 15.53125 47.40625 23.390625 
Q 47.40625 31.296875 43.53125 35.828125 
Q 39.65625 40.375 33.015625 40.375 
z
M 52.59375 71.296875 
L 52.59375 62.3125 
Q 48.875 64.0625 45.09375 64.984375 
Q 41.3125 65.921875 37.59375 65.921875 
Q 27.828125 65.921875 22.671875 59.328125 
Q 17.53125 52.734375 16.796875 39.40625 
Q 19.671875 43.65625 24.015625 45.921875 
Q 28.375 48.1875 33.59375 48.1875 
Q 44.578125 48.1875 50.953125 41.515625 
Q 57.328125 34.859375 57.328125 23.390625 
Q 57.328125 12.15625 50.6875 5.359375 
Q 44.046875 -1.421875 33.015625 -1.421875 
Q 20.359375 -1.421875 13.671875 8.265625 
Q 6.984375 17.96875 6.984375 36.375 
Q 6.984375 53.65625 15.1875 63.9375 
Q 23.390625 74.21875 37.203125 74.21875 
Q 40.921875 74.21875 44.703125 73.484375 
Q 48.484375 72.75 52.59375 71.296875 
z
" id="DejaVuSans-36"/>
      </defs>
      <g transform="translate(112.096875 74.0699)scale(0.1 -0.1)">
       <use xlink:href="#DejaVuSans-30"/>
       <use x="63.623047" xlink:href="#DejaVuSans-2e"/>
       <use x="95.410156" xlink:href="#DejaVuSans-36"/>
      </g>
     </g>
    </g>
    <g id="ytick_6">
     <g id="line2d_9">
      <g>
       <use style="stroke:#000000;stroke-width:0.8;" x="135" xlink:href="#m4f41187285" y="43.684464"/>
      </g>
     </g>
     <g id="text_9">
      <!-- 0.8 -->
      <defs>
       <path d="M 31.78125 34.625 
Q 24.75 34.625 20.71875 30.859375 
Q 16.703125 27.09375 16.703125 20.515625 
Q 16.703125 13.921875 20.71875 10.15625 
Q 24.75 6.390625 31.78125 6.390625 
Q 38.8125 6.390625 42.859375 10.171875 
Q 46.921875 13.96875 46.921875 20.515625 
Q 46.921875 27.09375 42.890625 30.859375 
Q 38.875 34.625 31.78125 34.625 
z
M 21.921875 38.8125 
Q 15.578125 40.375 12.03125 44.71875 
Q 8.5 49.078125 8.5 55.328125 
Q 8.5 64.0625 14.71875 69.140625 
Q 20.953125 74.21875 31.78125 74.21875 
Q 42.671875 74.21875 48.875 69.140625 
Q 55.078125 64.0625 55.078125 55.328125 
Q 55.078125 49.078125 51.53125 44.71875 
Q 48 40.375 41.703125 38.8125 
Q 48.828125 37.15625 52.796875 32.3125 
Q 56.78125 27.484375 56.78125 20.515625 
Q 56.78125 9.90625 50.3125 4.234375 
Q 43.84375 -1.421875 31.78125 -1.421875 
Q 19.734375 -1.421875 13.25 4.234375 
Q 6.78125 9.90625 6.78125 20.515625 
Q 6.78125 27.484375 10.78125 32.3125 
Q 14.796875 37.15625 21.921875 38.8125 
z
M 18.3125 54.390625 
Q 18.3125 48.734375 21.84375 45.5625 
Q 25.390625 42.390625 31.78125 42.390625 
Q 38.140625 42.390625 41.71875 45.5625 
Q 45.3125 48.734375 45.3125 54.390625 
Q 45.3125 60.0625 41.71875 63.234375 
Q 38.140625 66.40625 31.78125 66.40625 
Q 25.390625 66.40625 21.84375 63.234375 
Q 18.3125 60.0625 18.3125 54.390625 
z
" id="DejaVuSans-38"/>
      </defs>
      <g transform="translate(112.096875 47.483683)scale(0.1 -0.1)">
       <use xlink:href="#DejaVuSans-30"/>
       <use x="63.623047" xlink:href="#DejaVuSans-2e"/>
       <use x="95.410156" xlink:href="#DejaVuSans-38"/>
      </g>
     </g>
    </g>
   </g>
   <g id="line2d_10">
    <path clip-path="url(#p68c173a963)" d="M 141.559561 181.587273 
L 142.084851 181.587273 
L 142.216174 176.519269 
L 142.741464 176.519269 
L 142.872787 171.158083 
L 143.398077 171.158083 
L 143.529399 170.639572 
L 144.054689 170.639572 
L 144.186012 169.451888 
L 144.711302 169.451888 
L 144.842625 167.211092 
L 145.367915 167.211092 
L 145.499237 165.326269 
L 146.024528 165.326269 
L 146.15585 164.038958 
L 146.68114 164.038958 
L 146.812463 163.308455 
L 147.337753 163.308455 
L 147.469076 162.52861 
L 148.650979 162.446429 
L 148.913624 162.367778 
L 149.307591 162.367778 
L 149.570236 162.2288 
L 149.964204 162.2288 
L 150.095527 161.499142 
L 150.620817 161.499142 
L 150.752139 159.962773 
L 151.934042 159.926093 
L 152.196687 159.848618 
L 153.247268 159.811921 
L 153.37859 158.955264 
L 153.90388 158.955264 
L 154.035203 158.664919 
L 155.217106 158.577751 
L 155.348428 157.943559 
L 155.873719 157.943559 
L 156.005041 157.001304 
L 156.530331 157.001304 
L 156.661654 156.576368 
L 157.843557 156.569492 
L 157.974879 156.101757 
L 159.813395 156.004756 
L 159.944717 154.847412 
L 160.470008 154.847412 
L 160.60133 154.167332 
L 161.12662 154.167332 
L 161.257943 151.901186 
L 161.783233 151.901186 
L 162.045878 151.701414 
L 162.439846 151.701414 
L 162.571168 151.18706 
L 163.096459 151.18706 
L 163.359104 151.0622 
L 163.753071 151.0622 
L 163.884394 150.291919 
L 164.409684 150.291919 
L 164.541007 150.019766 
L 165.722909 150.014085 
L 165.854232 149.668433 
L 167.036135 149.623398 
L 167.29878 149.446776 
L 168.34936 149.349616 
L 168.480683 148.232902 
L 169.662586 148.134643 
L 169.925231 148.01118 
L 170.319199 148.01118 
L 170.450521 147.643801 
L 171.632424 147.57619 
L 171.763747 147.14292 
L 172.289037 147.14292 
L 172.551682 146.992021 
L 172.945649 146.992021 
L 173.076972 146.538667 
L 173.602262 146.538667 
L 173.733585 145.747739 
L 174.915488 145.731059 
L 175.178133 145.584312 
L 175.5721 145.584312 
L 175.703423 145.088182 
L 176.885326 144.98588 
L 177.147971 144.863182 
L 178.198551 144.825773 
L 178.461196 144.707815 
L 178.855164 144.707815 
L 178.986486 144.133457 
L 180.168389 144.115512 
L 180.299712 143.552794 
L 180.825002 143.552794 
L 180.956325 143.094664 
L 181.481615 143.094664 
L 181.612937 142.31352 
L 182.79484 142.291764 
L 182.926163 141.826647 
L 183.451453 141.826647 
L 183.582776 141.538776 
L 185.421291 141.486805 
L 185.683936 141.301534 
L 186.077904 141.301534 
L 186.209226 140.894138 
L 186.734517 140.894138 
L 186.865839 140.655186 
L 187.391129 140.655186 
L 187.522452 139.612285 
L 188.704355 139.534311 
L 188.835677 138.794648 
L 189.360968 138.794648 
L 189.49229 138.551688 
L 190.674193 138.540474 
L 190.805516 138.242217 
L 191.330806 138.242217 
L 191.462128 137.840968 
L 193.300644 137.779667 
L 193.431966 137.508353 
L 194.613869 137.493123 
L 194.876514 137.375655 
L 195.927095 137.333163 
L 196.18974 137.134191 
L 196.583708 137.134191 
L 196.71503 136.747875 
L 197.24032 136.747875 
L 197.371643 136.495875 
L 197.896933 136.495875 
L 198.028256 136.222301 
L 199.210158 136.157604 
L 199.341481 135.729833 
L 200.523384 135.647877 
L 200.786029 135.533272 
L 201.179997 135.533272 
L 201.311319 134.843803 
L 201.836609 134.843803 
L 202.099254 134.698997 
L 202.493222 134.698997 
L 202.624545 134.478062 
L 203.149835 134.478062 
L 203.41248 134.334323 
L 203.806448 134.334323 
L 203.93777 134.004376 
L 204.46306 134.004376 
L 204.725705 133.820626 
L 205.776286 133.742653 
L 205.907608 133.367267 
L 206.432898 133.367267 
L 206.564221 133.101003 
L 207.089511 133.101003 
L 207.352156 132.945269 
L 207.746124 132.945269 
L 207.877446 132.596265 
L 208.402737 132.596265 
L 208.534059 132.157317 
L 209.059349 132.157317 
L 209.190672 131.647904 
L 210.372575 131.539318 
L 210.503897 131.31676 
L 211.029187 131.31676 
L 211.16051 130.705947 
L 211.6858 130.705947 
L 211.948445 130.570941 
L 212.342413 130.570941 
L 212.473735 130.025122 
L 212.999026 130.025122 
L 213.130348 129.528118 
L 213.655638 129.528118 
L 213.786961 128.982424 
L 214.968864 128.950636 
L 215.231509 128.747857 
L 217.595315 128.638508 
L 217.726637 128.052094 
L 218.90854 127.969256 
L 219.039863 127.742272 
L 220.878378 127.669498 
L 221.141023 127.563227 
L 221.534991 127.563227 
L 221.666314 127.100488 
L 222.191604 127.100488 
L 222.322926 126.760377 
L 223.504829 126.757196 
L 223.636152 126.519288 
L 224.818055 126.497955 
L 224.949377 125.991657 
L 226.13128 125.949352 
L 226.262603 125.379273 
L 227.444506 125.348807 
L 227.707151 125.24122 
L 228.101118 125.24122 
L 228.363763 125.120298 
L 228.757731 125.120298 
L 228.889054 124.798751 
L 230.070957 124.796774 
L 230.333602 124.655606 
L 231.384182 124.624742 
L 231.515505 123.17535 
L 232.697407 123.081537 
L 232.82873 122.768582 
L 233.35402 122.768582 
L 233.485343 122.263971 
L 234.010633 122.263971 
L 234.141955 121.850715 
L 234.667246 121.850715 
L 234.798568 121.348712 
L 235.980471 121.248436 
L 236.111794 120.973591 
L 236.637084 120.973591 
L 236.768406 120.755675 
L 237.293697 120.755675 
L 237.425019 120.42162 
L 237.950309 120.42162 
L 238.212954 120.227966 
L 239.263535 120.199587 
L 239.394857 119.698638 
L 239.920147 119.698638 
L 240.05147 118.976996 
L 240.57676 118.976996 
L 240.708083 118.639039 
L 241.889986 118.613936 
L 242.021308 118.012785 
L 243.203211 117.9045 
L 244.779082 117.867793 
L 245.173049 117.867793 
L 245.304372 117.639278 
L 245.829662 117.639278 
L 246.092307 117.462066 
L 247.142887 117.428531 
L 247.27421 116.981205 
L 247.7995 116.981205 
L 247.930823 116.772318 
L 248.456113 116.772318 
L 248.587435 115.890692 
L 249.769338 115.813498 
L 249.900661 115.208001 
L 250.425951 115.208001 
L 250.557274 114.978077 
L 252.395789 114.90632 
L 252.658434 114.778481 
L 253.052402 114.778481 
L 253.315047 114.634622 
L 253.709015 114.634622 
L 253.840337 114.30066 
L 254.365627 114.30066 
L 254.628272 114.12491 
L 255.02224 114.12491 
L 255.153563 113.899792 
L 255.678853 113.899792 
L 255.941498 113.779662 
L 256.335466 113.779662 
L 256.466788 113.378551 
L 256.992078 113.378551 
L 257.254723 113.197082 
L 257.648691 113.197082 
L 257.780014 111.590907 
L 259.618529 111.495766 
L 259.749852 110.472252 
L 260.275142 110.472252 
L 260.406464 109.308081 
L 260.931755 109.308081 
L 261.063077 108.986126 
L 261.588367 108.986126 
L 261.71969 107.394085 
L 262.901593 107.296939 
L 263.164238 107.094432 
L 263.558206 107.094432 
L 263.689528 106.676035 
L 264.214818 106.676035 
L 264.346141 106.208561 
L 264.871431 106.208561 
L 265.002754 104.297568 
L 266.184656 104.217571 
L 266.315979 103.064385 
L 266.841269 103.064385 
L 266.972592 102.135497 
L 267.497882 102.135497 
L 267.629204 101.196314 
L 268.154495 101.196314 
L 268.41714 101.029109 
L 268.811107 101.029109 
L 268.94243 99.287271 
L 269.46772 99.287271 
L 269.599043 98.074026 
L 270.124333 98.074026 
L 270.255655 97.698897 
L 270.780946 97.698897 
L 270.912268 97.067123 
L 271.437558 97.067123 
L 271.568881 95.27025 
L 272.094171 95.27025 
L 272.225494 94.912889 
L 272.750784 94.912889 
L 272.750784 94.912889 
" style="fill:none;stroke:#ff0000;stroke-dasharray:7.4,3.2;stroke-dashoffset:0;stroke-width:2;"/>
   </g>
   <g id="patch_3">
    <path d="M 135 189 
L 135 25.92 
" style="fill:none;stroke:#000000;stroke-linecap:square;stroke-linejoin:miter;stroke-width:0.8;"/>
   </g>
   <g id="patch_4">
    <path d="M 279.310345 189 
L 279.310345 25.92 
" style="fill:none;stroke:#000000;stroke-linecap:square;stroke-linejoin:miter;stroke-width:0.8;"/>
   </g>
   <g id="patch_5">
    <path d="M 135 189 
L 279.310345 189 
" style="fill:none;stroke:#000000;stroke-linecap:square;stroke-linejoin:miter;stroke-width:0.8;"/>
   </g>
   <g id="patch_6">
    <path d="M 135 25.92 
L 279.310345 25.92 
" style="fill:none;stroke:#000000;stroke-linecap:square;stroke-linejoin:miter;stroke-width:0.8;"/>
   </g>
   <g id="text_10">
    <!-- silhouette_score: 0.13 -->
    <defs>
     <path d="M 44.28125 53.078125 
L 44.28125 44.578125 
Q 40.484375 46.53125 36.375 47.5 
Q 32.28125 48.484375 27.875 48.484375 
Q 21.1875 48.484375 17.84375 46.4375 
Q 14.5 44.390625 14.5 40.28125 
Q 14.5 37.15625 16.890625 35.375 
Q 19.28125 33.59375 26.515625 31.984375 
L 29.59375 31.296875 
Q 39.15625 29.25 43.1875 25.515625 
Q 47.21875 21.78125 47.21875 15.09375 
Q 47.21875 7.46875 41.1875 3.015625 
Q 35.15625 -1.421875 24.609375 -1.421875 
Q 20.21875 -1.421875 15.453125 -0.5625 
Q 10.6875 0.296875 5.421875 2 
L 5.421875 11.28125 
Q 10.40625 8.6875 15.234375 7.390625 
Q 20.0625 6.109375 24.8125 6.109375 
Q 31.15625 6.109375 34.5625 8.28125 
Q 37.984375 10.453125 37.984375 14.40625 
Q 37.984375 18.0625 35.515625 20.015625 
Q 33.0625 21.96875 24.703125 23.78125 
L 21.578125 24.515625 
Q 13.234375 26.265625 9.515625 29.90625 
Q 5.8125 33.546875 5.8125 39.890625 
Q 5.8125 47.609375 11.28125 51.796875 
Q 16.75 56 26.8125 56 
Q 31.78125 56 36.171875 55.265625 
Q 40.578125 54.546875 44.28125 53.078125 
z
" id="DejaVuSans-73"/>
     <path d="M 9.421875 54.6875 
L 18.40625 54.6875 
L 18.40625 0 
L 9.421875 0 
z
M 9.421875 75.984375 
L 18.40625 75.984375 
L 18.40625 64.59375 
L 9.421875 64.59375 
z
" id="DejaVuSans-69"/>
     <path d="M 9.421875 75.984375 
L 18.40625 75.984375 
L 18.40625 0 
L 9.421875 0 
z
" id="DejaVuSans-6c"/>
     <path d="M 54.890625 33.015625 
L 54.890625 0 
L 45.90625 0 
L 45.90625 32.71875 
Q 45.90625 40.484375 42.875 44.328125 
Q 39.84375 48.1875 33.796875 48.1875 
Q 26.515625 48.1875 22.3125 43.546875 
Q 18.109375 38.921875 18.109375 30.90625 
L 18.109375 0 
L 9.078125 0 
L 9.078125 75.984375 
L 18.109375 75.984375 
L 18.109375 46.1875 
Q 21.34375 51.125 25.703125 53.5625 
Q 30.078125 56 35.796875 56 
Q 45.21875 56 50.046875 50.171875 
Q 54.890625 44.34375 54.890625 33.015625 
z
" id="DejaVuSans-68"/>
     <path d="M 30.609375 48.390625 
Q 23.390625 48.390625 19.1875 42.75 
Q 14.984375 37.109375 14.984375 27.296875 
Q 14.984375 17.484375 19.15625 11.84375 
Q 23.34375 6.203125 30.609375 6.203125 
Q 37.796875 6.203125 41.984375 11.859375 
Q 46.1875 17.53125 46.1875 27.296875 
Q 46.1875 37.015625 41.984375 42.703125 
Q 37.796875 48.390625 30.609375 48.390625 
z
M 30.609375 56 
Q 42.328125 56 49.015625 48.375 
Q 55.71875 40.765625 55.71875 27.296875 
Q 55.71875 13.875 49.015625 6.21875 
Q 42.328125 -1.421875 30.609375 -1.421875 
Q 18.84375 -1.421875 12.171875 6.21875 
Q 5.515625 13.875 5.515625 27.296875 
Q 5.515625 40.765625 12.171875 48.375 
Q 18.84375 56 30.609375 56 
z
" id="DejaVuSans-6f"/>
     <path d="M 8.5 21.578125 
L 8.5 54.6875 
L 17.484375 54.6875 
L 17.484375 21.921875 
Q 17.484375 14.15625 20.5 10.265625 
Q 23.53125 6.390625 29.59375 6.390625 
Q 36.859375 6.390625 41.078125 11.03125 
Q 45.3125 15.671875 45.3125 23.6875 
L 45.3125 54.6875 
L 54.296875 54.6875 
L 54.296875 0 
L 45.3125 0 
L 45.3125 8.40625 
Q 42.046875 3.421875 37.71875 1 
Q 33.40625 -1.421875 27.6875 -1.421875 
Q 18.265625 -1.421875 13.375 4.4375 
Q 8.5 10.296875 8.5 21.578125 
z
M 31.109375 56 
z
" id="DejaVuSans-75"/>
     <path d="M 56.203125 29.59375 
L 56.203125 25.203125 
L 14.890625 25.203125 
Q 15.484375 15.921875 20.484375 11.0625 
Q 25.484375 6.203125 34.421875 6.203125 
Q 39.59375 6.203125 44.453125 7.46875 
Q 49.3125 8.734375 54.109375 11.28125 
L 54.109375 2.78125 
Q 49.265625 0.734375 44.1875 -0.34375 
Q 39.109375 -1.421875 33.890625 -1.421875 
Q 20.796875 -1.421875 13.15625 6.1875 
Q 5.515625 13.8125 5.515625 26.8125 
Q 5.515625 40.234375 12.765625 48.109375 
Q 20.015625 56 32.328125 56 
Q 43.359375 56 49.78125 48.890625 
Q 56.203125 41.796875 56.203125 29.59375 
z
M 47.21875 32.234375 
Q 47.125 39.59375 43.09375 43.984375 
Q 39.0625 48.390625 32.421875 48.390625 
Q 24.90625 48.390625 20.390625 44.140625 
Q 15.875 39.890625 15.1875 32.171875 
z
" id="DejaVuSans-65"/>
     <path d="M 18.3125 70.21875 
L 18.3125 54.6875 
L 36.8125 54.6875 
L 36.8125 47.703125 
L 18.3125 47.703125 
L 18.3125 18.015625 
Q 18.3125 11.328125 20.140625 9.421875 
Q 21.96875 7.515625 27.59375 7.515625 
L 36.8125 7.515625 
L 36.8125 0 
L 27.59375 0 
Q 17.1875 0 13.234375 3.875 
Q 9.28125 7.765625 9.28125 18.015625 
L 9.28125 47.703125 
L 2.6875 47.703125 
L 2.6875 54.6875 
L 9.28125 54.6875 
L 9.28125 70.21875 
z
" id="DejaVuSans-74"/>
     <path d="M 50.984375 -16.609375 
L 50.984375 -23.578125 
L -0.984375 -23.578125 
L -0.984375 -16.609375 
z
" id="DejaVuSans-5f"/>
     <path d="M 48.78125 52.59375 
L 48.78125 44.1875 
Q 44.96875 46.296875 41.140625 47.34375 
Q 37.3125 48.390625 33.40625 48.390625 
Q 24.65625 48.390625 19.8125 42.84375 
Q 14.984375 37.3125 14.984375 27.296875 
Q 14.984375 17.28125 19.8125 11.734375 
Q 24.65625 6.203125 33.40625 6.203125 
Q 37.3125 6.203125 41.140625 7.25 
Q 44.96875 8.296875 48.78125 10.40625 
L 48.78125 2.09375 
Q 45.015625 0.34375 40.984375 -0.53125 
Q 36.96875 -1.421875 32.421875 -1.421875 
Q 20.0625 -1.421875 12.78125 6.34375 
Q 5.515625 14.109375 5.515625 27.296875 
Q 5.515625 40.671875 12.859375 48.328125 
Q 20.21875 56 33.015625 56 
Q 37.15625 56 41.109375 55.140625 
Q 45.0625 54.296875 48.78125 52.59375 
z
" id="DejaVuSans-63"/>
     <path d="M 41.109375 46.296875 
Q 39.59375 47.171875 37.8125 47.578125 
Q 36.03125 48 33.890625 48 
Q 26.265625 48 22.1875 43.046875 
Q 18.109375 38.09375 18.109375 28.8125 
L 18.109375 0 
L 9.078125 0 
L 9.078125 54.6875 
L 18.109375 54.6875 
L 18.109375 46.1875 
Q 20.953125 51.171875 25.484375 53.578125 
Q 30.03125 56 36.53125 56 
Q 37.453125 56 38.578125 55.875 
Q 39.703125 55.765625 41.0625 55.515625 
z
" id="DejaVuSans-72"/>
     <path d="M 11.71875 12.40625 
L 22.015625 12.40625 
L 22.015625 0 
L 11.71875 0 
z
M 11.71875 51.703125 
L 22.015625 51.703125 
L 22.015625 39.3125 
L 11.71875 39.3125 
z
" id="DejaVuSans-3a"/>
     <path id="DejaVuSans-20"/>
     <path d="M 40.578125 39.3125 
Q 47.65625 37.796875 51.625 33 
Q 55.609375 28.21875 55.609375 21.1875 
Q 55.609375 10.40625 48.1875 4.484375 
Q 40.765625 -1.421875 27.09375 -1.421875 
Q 22.515625 -1.421875 17.65625 -0.515625 
Q 12.796875 0.390625 7.625 2.203125 
L 7.625 11.71875 
Q 11.71875 9.328125 16.59375 8.109375 
Q 21.484375 6.890625 26.8125 6.890625 
Q 36.078125 6.890625 40.9375 10.546875 
Q 45.796875 14.203125 45.796875 21.1875 
Q 45.796875 27.640625 41.28125 31.265625 
Q 36.765625 34.90625 28.71875 34.90625 
L 20.21875 34.90625 
L 20.21875 43.015625 
L 29.109375 43.015625 
Q 36.375 43.015625 40.234375 45.921875 
Q 44.09375 48.828125 44.09375 54.296875 
Q 44.09375 59.90625 40.109375 62.90625 
Q 36.140625 65.921875 28.71875 65.921875 
Q 24.65625 65.921875 20.015625 65.03125 
Q 15.375 64.15625 9.8125 62.3125 
L 9.8125 71.09375 
Q 15.4375 72.65625 20.34375 73.4375 
Q 25.25 74.21875 29.59375 74.21875 
Q 40.828125 74.21875 47.359375 69.109375 
Q 53.90625 64.015625 53.90625 55.328125 
Q 53.90625 49.265625 50.4375 45.09375 
Q 46.96875 40.921875 40.578125 39.3125 
z
" id="DejaVuSans-33"/>
    </defs>
    <g transform="translate(140.791422 19.92)scale(0.12 -0.12)">
     <use xlink:href="#DejaVuSans-73"/>
     <use x="52.099609" xlink:href="#DejaVuSans-69"/>
     <use x="79.882812" xlink:href="#DejaVuSans-6c"/>
     <use x="107.666016" xlink:href="#DejaVuSans-68"/>
     <use x="171.044922" xlink:href="#DejaVuSans-6f"/>
     <use x="232.226562" xlink:href="#DejaVuSans-75"/>
     <use x="295.605469" xlink:href="#DejaVuSans-65"/>
     <use x="357.128906" xlink:href="#DejaVuSans-74"/>
     <use x="396.337891" xlink:href="#DejaVuSans-74"/>
     <use x="435.546875" xlink:href="#DejaVuSans-65"/>
     <use x="497.070312" xlink:href="#DejaVuSans-5f"/>
     <use x="547.070312" xlink:href="#DejaVuSans-73"/>
     <use x="599.169922" xlink:href="#DejaVuSans-63"/>
     <use x="654.150391" xlink:href="#DejaVuSans-6f"/>
     <use x="715.332031" xlink:href="#DejaVuSans-72"/>
     <use x="756.414062" xlink:href="#DejaVuSans-65"/>
     <use x="817.9375" xlink:href="#DejaVuSans-3a"/>
     <use x="851.628906" xlink:href="#DejaVuSans-20"/>
     <use x="883.416016" xlink:href="#DejaVuSans-30"/>
     <use x="947.039062" xlink:href="#DejaVuSans-2e"/>
     <use x="978.826172" xlink:href="#DejaVuSans-31"/>
     <use x="1042.449219" xlink:href="#DejaVuSans-33"/>
    </g>
   </g>
  </g>
  <g id="axes_2">
   <g id="patch_7">
    <path d="M 308.172414 189 
L 452.482759 189 
L 452.482759 25.92 
L 308.172414 25.92 
z
" style="fill:#ffffff;"/>
   </g>
   <g id="matplotlib.axis_3">
    <g id="xtick_4">
     <g id="line2d_11">
      <g>
       <use style="stroke:#000000;stroke-width:0.8;" x="314.731975" xlink:href="#m967c111550" y="189"/>
      </g>
     </g>
     <g id="text_11">
      <!-- 0 -->
      <g transform="translate(311.550725 203.598437)scale(0.1 -0.1)">
       <use xlink:href="#DejaVuSans-30"/>
      </g>
     </g>
    </g>
    <g id="xtick_5">
     <g id="line2d_12">
      <g>
       <use style="stroke:#000000;stroke-width:0.8;" x="380.393247" xlink:href="#m967c111550" y="189"/>
      </g>
     </g>
     <g id="text_12">
      <!-- 500 -->
      <g transform="translate(370.849497 203.598437)scale(0.1 -0.1)">
       <use xlink:href="#DejaVuSans-35"/>
       <use x="63.623047" xlink:href="#DejaVuSans-30"/>
       <use x="127.246094" xlink:href="#DejaVuSans-30"/>
      </g>
     </g>
    </g>
    <g id="xtick_6">
     <g id="line2d_13">
      <g>
       <use style="stroke:#000000;stroke-width:0.8;" x="446.05452" xlink:href="#m967c111550" y="189"/>
      </g>
     </g>
     <g id="text_13">
      <!-- 1000 -->
      <g transform="translate(433.32952 203.598437)scale(0.1 -0.1)">
       <use xlink:href="#DejaVuSans-31"/>
       <use x="63.623047" xlink:href="#DejaVuSans-30"/>
       <use x="127.246094" xlink:href="#DejaVuSans-30"/>
       <use x="190.869141" xlink:href="#DejaVuSans-30"/>
      </g>
     </g>
    </g>
   </g>
   <g id="matplotlib.axis_4">
    <g id="ytick_7">
     <g id="line2d_14">
      <g>
       <use style="stroke:#000000;stroke-width:0.8;" x="308.172414" xlink:href="#m4f41187285" y="176.615549"/>
      </g>
     </g>
    </g>
    <g id="ytick_8">
     <g id="line2d_15">
      <g>
       <use style="stroke:#000000;stroke-width:0.8;" x="308.172414" xlink:href="#m4f41187285" y="150.029332"/>
      </g>
     </g>
    </g>
    <g id="ytick_9">
     <g id="line2d_16">
      <g>
       <use style="stroke:#000000;stroke-width:0.8;" x="308.172414" xlink:href="#m4f41187285" y="123.443115"/>
      </g>
     </g>
    </g>
    <g id="ytick_10">
     <g id="line2d_17">
      <g>
       <use style="stroke:#000000;stroke-width:0.8;" x="308.172414" xlink:href="#m4f41187285" y="96.856898"/>
      </g>
     </g>
    </g>
    <g id="ytick_11">
     <g id="line2d_18">
      <g>
       <use style="stroke:#000000;stroke-width:0.8;" x="308.172414" xlink:href="#m4f41187285" y="70.270681"/>
      </g>
     </g>
    </g>
    <g id="ytick_12">
     <g id="line2d_19">
      <g>
       <use style="stroke:#000000;stroke-width:0.8;" x="308.172414" xlink:href="#m4f41187285" y="43.684464"/>
      </g>
     </g>
    </g>
   </g>
   <g id="line2d_20">
    <path clip-path="url(#p6d52fedbc5)" d="M 314.731975 160.731444 
L 315.257265 160.731444 
L 315.388588 158.761373 
L 315.913878 158.761373 
L 316.0452 155.921176 
L 316.570491 155.921176 
L 316.701813 154.855895 
L 317.227103 154.855895 
L 317.358426 152.096368 
L 317.883716 152.096368 
L 318.015039 148.327202 
L 318.540329 148.327202 
L 318.671651 147.768656 
L 319.196941 147.768656 
L 319.328264 145.250438 
L 319.853554 145.250438 
L 319.984877 144.564471 
L 320.510167 144.564471 
L 320.641489 143.825995 
L 321.823392 143.810346 
L 321.954715 142.449053 
L 322.480005 142.449053 
L 322.611328 141.937624 
L 323.136618 141.937624 
L 323.26794 140.646358 
L 323.793231 140.646358 
L 323.924553 140.340752 
L 325.106456 140.324962 
L 325.237779 139.913555 
L 325.763069 139.913555 
L 325.894391 139.615576 
L 326.419681 139.615576 
L 326.551004 138.91318 
L 327.076294 138.91318 
L 327.207617 137.484826 
L 327.732907 137.484826 
L 327.864229 136.780349 
L 328.38952 136.780349 
L 328.520842 136.380923 
L 329.046132 136.380923 
L 329.177455 136.165399 
L 329.702745 136.165399 
L 329.834068 135.405937 
L 330.359358 135.405937 
L 330.49068 133.836572 
L 331.672583 133.748198 
L 331.935228 133.566218 
L 332.329196 133.566218 
L 332.460519 132.779905 
L 332.985809 132.779905 
L 333.117131 132.431889 
L 334.299034 132.429945 
L 334.430357 132.169798 
L 335.61226 132.093049 
L 336.006227 132.048496 
L 336.268872 132.048496 
L 336.531517 131.899848 
L 336.925485 131.899848 
L 337.056808 130.606618 
L 337.582098 130.606618 
L 337.844743 130.461661 
L 338.23871 130.461661 
L 338.370033 130.107713 
L 338.895323 130.107713 
L 339.026646 129.233939 
L 341.521774 129.14693 
L 341.653097 128.85536 
L 342.178387 128.85536 
L 342.441032 128.672793 
L 342.835 128.672793 
L 342.966322 128.3493 
L 343.491612 128.3493 
L 343.622935 127.834768 
L 344.148225 127.834768 
L 344.279548 127.502317 
L 344.804838 127.502317 
L 344.93616 127.253484 
L 345.46145 127.253484 
L 345.592773 126.66948 
L 346.118063 126.66948 
L 346.249386 125.963478 
L 346.774676 125.963478 
L 346.905998 125.740778 
L 347.431289 125.740778 
L 347.693934 125.599575 
L 348.087901 125.599575 
L 348.219224 124.19917 
L 349.401127 124.095004 
L 349.532449 123.77782 
L 350.05774 123.77782 
L 350.189062 123.406557 
L 350.714352 123.406557 
L 350.845675 122.792123 
L 351.370965 122.792123 
L 351.502288 122.490873 
L 352.027578 122.490873 
L 352.1589 122.147488 
L 352.68419 122.147488 
L 352.815513 120.259562 
L 353.340803 120.259562 
L 353.472126 119.97183 
L 354.654029 119.936754 
L 354.916674 119.745434 
L 355.310641 119.745434 
L 355.441964 119.432337 
L 355.967254 119.432337 
L 356.229899 119.239007 
L 356.623867 119.239007 
L 356.755189 117.87154 
L 357.28048 117.87154 
L 357.411802 117.540461 
L 359.90693 117.439702 
L 360.826188 117.352708 
L 361.220156 117.352708 
L 361.482801 117.181084 
L 361.876769 117.181084 
L 362.139414 117.001046 
L 363.189994 116.941221 
L 363.321317 116.33101 
L 363.846607 116.33101 
L 364.109252 116.159737 
L 364.50322 116.159737 
L 364.634542 115.577332 
L 365.159832 115.577332 
L 365.291155 115.298901 
L 366.473058 115.213433 
L 366.867025 115.162337 
L 367.786283 115.06498 
L 367.917606 114.583677 
L 368.442896 114.583677 
L 368.574218 114.125984 
L 369.756121 114.094234 
L 370.018766 113.981369 
L 370.412734 113.981369 
L 370.675379 113.823254 
L 371.72596 113.750772 
L 371.988605 113.662564 
L 372.382572 113.662564 
L 372.645217 113.475938 
L 373.039185 113.475938 
L 373.30183 113.323333 
L 373.695798 113.323333 
L 373.958443 113.197099 
L 375.009023 113.143188 
L 375.140346 112.668778 
L 376.322249 112.578288 
L 376.584894 112.412136 
L 376.978861 112.412136 
L 377.110184 111.191365 
L 378.292087 111.094244 
L 378.686054 111.04967 
L 378.948699 111.04967 
L 379.211345 110.895012 
L 379.605312 110.895012 
L 379.736635 110.545215 
L 380.261925 110.545215 
L 380.393247 109.053443 
L 380.918538 109.053443 
L 381.04986 108.681996 
L 382.888376 108.599302 
L 383.019698 107.950955 
L 383.544989 107.950955 
L 383.807634 107.75709 
L 384.201601 107.75709 
L 384.332924 107.541345 
L 384.858214 107.541345 
L 384.989537 107.248362 
L 386.171439 107.189077 
L 386.434085 107.008542 
L 386.828052 107.008542 
L 387.090697 106.821708 
L 387.484665 106.821708 
L 387.615987 106.489728 
L 388.141278 106.489728 
L 388.403923 106.354578 
L 388.79789 106.354578 
L 389.060535 106.167685 
L 389.454503 106.167685 
L 389.585826 105.647902 
L 390.111116 105.647902 
L 390.242438 104.946494 
L 391.424341 104.90591 
L 391.555664 104.080795 
L 392.080954 104.080795 
L 392.212277 103.829764 
L 392.737567 103.829764 
L 393.000212 103.713169 
L 393.394179 103.713169 
L 393.525502 103.465279 
L 394.050792 103.465279 
L 394.182115 103.16035 
L 395.364018 103.142285 
L 395.49534 102.928002 
L 396.02063 102.928002 
L 396.151953 102.414316 
L 396.677243 102.414316 
L 396.808566 102.110446 
L 397.333856 102.110446 
L 397.465178 101.500563 
L 397.990469 101.500563 
L 398.121791 101.050602 
L 398.647081 101.050602 
L 398.909726 100.872245 
L 399.303694 100.872245 
L 399.435017 100.306516 
L 399.960307 100.306516 
L 400.091629 99.995963 
L 401.273532 99.97924 
L 401.404855 99.151644 
L 401.930145 99.151644 
L 402.061467 98.886795 
L 403.24337 98.816269 
L 403.374693 97.954369 
L 403.899983 97.954369 
L 404.162628 97.816448 
L 405.213209 97.766806 
L 405.475854 97.697898 
L 405.869821 97.697898 
L 406.001144 97.11561 
L 406.526434 97.11561 
L 406.657757 96.650404 
L 407.183047 96.650404 
L 407.445692 96.489748 
L 407.839659 96.489748 
L 408.102304 96.286229 
L 409.152885 96.180669 
L 409.284207 95.887771 
L 410.46611 95.82776 
L 410.597433 95.159291 
L 412.435948 95.069818 
L 412.961239 95.036696 
L 415.062399 94.958673 
L 415.193722 94.444509 
L 415.719012 94.444509 
L 415.850335 93.810366 
L 416.375625 93.810366 
L 416.63827 93.611512 
L 417.68885 93.557604 
L 417.820173 93.304673 
L 419.002076 93.202457 
L 419.133398 92.295373 
L 419.658688 92.295373 
L 419.790011 91.570343 
L 420.315301 91.570343 
L 420.577946 91.367351 
L 421.628527 91.365484 
L 421.759849 90.968138 
L 422.285139 90.968138 
L 422.547784 90.836359 
L 422.941752 90.836359 
L 423.204397 90.658486 
L 423.598365 90.658486 
L 423.729687 90.392838 
L 424.91159 90.35105 
L 425.174235 90.189135 
L 425.568203 90.189135 
L 425.830848 90.023123 
L 426.224816 90.023123 
L 426.356138 87.513478 
L 426.881428 87.513478 
L 427.012751 86.950874 
L 427.538041 86.950874 
L 427.669364 86.604494 
L 428.851267 86.584063 
L 429.113912 86.407592 
L 429.507879 86.407592 
L 429.770524 86.286054 
L 430.164492 86.286054 
L 430.295815 85.505206 
L 430.821105 85.505206 
L 430.952427 85.253272 
L 431.477718 85.253272 
L 431.60904 84.749436 
L 432.13433 84.749436 
L 432.396975 84.541049 
L 432.790943 84.541049 
L 433.053588 84.354339 
L 433.447556 84.354339 
L 433.578878 84.105458 
L 434.104168 84.105458 
L 434.235491 83.816432 
L 434.760781 83.816432 
L 434.892104 83.588795 
L 435.417394 83.588795 
L 435.548716 83.156383 
L 436.074007 83.156383 
L 436.336652 83.032952 
L 437.387232 82.983605 
L 437.649877 82.852951 
L 439.35707 82.794125 
L 439.619715 82.667919 
L 440.013683 82.667919 
L 440.145006 82.365522 
L 440.670296 82.365522 
L 440.801618 81.216594 
L 441.983521 81.18445 
L 442.114844 79.618196 
L 442.640134 79.618196 
L 442.771456 78.711824 
L 443.296747 78.711824 
L 443.428069 77.549351 
L 444.609972 77.484826 
L 444.741295 75.187964 
L 445.266585 75.187964 
L 445.397907 74.783541 
L 445.923197 74.783541 
L 445.923197 74.783541 
" style="fill:none;stroke:#ff0000;stroke-dasharray:7.4,3.2;stroke-dashoffset:0;stroke-width:2;"/>
   </g>
   <g id="patch_8">
    <path d="M 308.172414 189 
L 308.172414 25.92 
" style="fill:none;stroke:#000000;stroke-linecap:square;stroke-linejoin:miter;stroke-width:0.8;"/>
   </g>
   <g id="patch_9">
    <path d="M 452.482759 189 
L 452.482759 25.92 
" style="fill:none;stroke:#000000;stroke-linecap:square;stroke-linejoin:miter;stroke-width:0.8;"/>
   </g>
   <g id="patch_10">
    <path d="M 308.172414 189 
L 452.482759 189 
" style="fill:none;stroke:#000000;stroke-linecap:square;stroke-linejoin:miter;stroke-width:0.8;"/>
   </g>
   <g id="patch_11">
    <path d="M 308.172414 25.92 
L 452.482759 25.92 
" style="fill:none;stroke:#000000;stroke-linecap:square;stroke-linejoin:miter;stroke-width:0.8;"/>
   </g>
   <g id="text_14">
    <!-- silhouette_score: 0.3 -->
    <g transform="translate(317.781336 19.92)scale(0.12 -0.12)">
     <use xlink:href="#DejaVuSans-73"/>
     <use x="52.099609" xlink:href="#DejaVuSans-69"/>
     <use x="79.882812" xlink:href="#DejaVuSans-6c"/>
     <use x="107.666016" xlink:href="#DejaVuSans-68"/>
     <use x="171.044922" xlink:href="#DejaVuSans-6f"/>
     <use x="232.226562" xlink:href="#DejaVuSans-75"/>
     <use x="295.605469" xlink:href="#DejaVuSans-65"/>
     <use x="357.128906" xlink:href="#DejaVuSans-74"/>
     <use x="396.337891" xlink:href="#DejaVuSans-74"/>
     <use x="435.546875" xlink:href="#DejaVuSans-65"/>
     <use x="497.070312" xlink:href="#DejaVuSans-5f"/>
     <use x="547.070312" xlink:href="#DejaVuSans-73"/>
     <use x="599.169922" xlink:href="#DejaVuSans-63"/>
     <use x="654.150391" xlink:href="#DejaVuSans-6f"/>
     <use x="715.332031" xlink:href="#DejaVuSans-72"/>
     <use x="756.414062" xlink:href="#DejaVuSans-65"/>
     <use x="817.9375" xlink:href="#DejaVuSans-3a"/>
     <use x="851.628906" xlink:href="#DejaVuSans-20"/>
     <use x="883.416016" xlink:href="#DejaVuSans-30"/>
     <use x="947.039062" xlink:href="#DejaVuSans-2e"/>
     <use x="978.826172" xlink:href="#DejaVuSans-33"/>
    </g>
   </g>
  </g>
  <g id="axes_3">
   <g id="patch_12">
    <path d="M 481.344828 189 
L 625.655172 189 
L 625.655172 25.92 
L 481.344828 25.92 
z
" style="fill:#ffffff;"/>
   </g>
   <g id="matplotlib.axis_5">
    <g id="xtick_7">
     <g id="line2d_21">
      <g>
       <use style="stroke:#000000;stroke-width:0.8;" x="487.904389" xlink:href="#m967c111550" y="189"/>
      </g>
     </g>
     <g id="text_15">
      <!-- 0 -->
      <g transform="translate(484.723139 203.598437)scale(0.1 -0.1)">
       <use xlink:href="#DejaVuSans-30"/>
      </g>
     </g>
    </g>
    <g id="xtick_8">
     <g id="line2d_22">
      <g>
       <use style="stroke:#000000;stroke-width:0.8;" x="553.565661" xlink:href="#m967c111550" y="189"/>
      </g>
     </g>
     <g id="text_16">
      <!-- 500 -->
      <g transform="translate(544.021911 203.598437)scale(0.1 -0.1)">
       <use xlink:href="#DejaVuSans-35"/>
       <use x="63.623047" xlink:href="#DejaVuSans-30"/>
       <use x="127.246094" xlink:href="#DejaVuSans-30"/>
      </g>
     </g>
    </g>
    <g id="xtick_9">
     <g id="line2d_23">
      <g>
       <use style="stroke:#000000;stroke-width:0.8;" x="619.226934" xlink:href="#m967c111550" y="189"/>
      </g>
     </g>
     <g id="text_17">
      <!-- 1000 -->
      <g transform="translate(606.501934 203.598437)scale(0.1 -0.1)">
       <use xlink:href="#DejaVuSans-31"/>
       <use x="63.623047" xlink:href="#DejaVuSans-30"/>
       <use x="127.246094" xlink:href="#DejaVuSans-30"/>
       <use x="190.869141" xlink:href="#DejaVuSans-30"/>
      </g>
     </g>
    </g>
   </g>
   <g id="matplotlib.axis_6">
    <g id="ytick_13">
     <g id="line2d_24">
      <g>
       <use style="stroke:#000000;stroke-width:0.8;" x="481.344828" xlink:href="#m4f41187285" y="176.615549"/>
      </g>
     </g>
    </g>
    <g id="ytick_14">
     <g id="line2d_25">
      <g>
       <use style="stroke:#000000;stroke-width:0.8;" x="481.344828" xlink:href="#m4f41187285" y="150.029332"/>
      </g>
     </g>
    </g>
    <g id="ytick_15">
     <g id="line2d_26">
      <g>
       <use style="stroke:#000000;stroke-width:0.8;" x="481.344828" xlink:href="#m4f41187285" y="123.443115"/>
      </g>
     </g>
    </g>
    <g id="ytick_16">
     <g id="line2d_27">
      <g>
       <use style="stroke:#000000;stroke-width:0.8;" x="481.344828" xlink:href="#m4f41187285" y="96.856898"/>
      </g>
     </g>
    </g>
    <g id="ytick_17">
     <g id="line2d_28">
      <g>
       <use style="stroke:#000000;stroke-width:0.8;" x="481.344828" xlink:href="#m4f41187285" y="70.270681"/>
      </g>
     </g>
    </g>
    <g id="ytick_18">
     <g id="line2d_29">
      <g>
       <use style="stroke:#000000;stroke-width:0.8;" x="481.344828" xlink:href="#m4f41187285" y="43.684464"/>
      </g>
     </g>
    </g>
   </g>
   <g id="line2d_30">
    <path clip-path="url(#p9da73d4ad1)" d="M 487.904389 179.657601 
L 488.429679 179.657601 
L 488.561001 176.212741 
L 489.086292 176.212741 
L 489.217614 170.233716 
L 489.742904 170.233716 
L 489.874227 169.970105 
L 490.399517 169.970105 
L 490.53084 168.688893 
L 491.05613 168.688893 
L 491.318775 168.54027 
L 491.712743 168.54027 
L 491.844065 166.172006 
L 492.369355 166.172006 
L 492.500678 164.50957 
L 493.025968 164.50957 
L 493.157291 163.792377 
L 493.682581 163.792377 
L 493.813903 162.10073 
L 494.339193 162.10073 
L 494.470516 161.655624 
L 494.995806 161.655624 
L 495.127129 159.94508 
L 495.652419 159.94508 
L 495.783741 159.193319 
L 496.309032 159.193319 
L 496.440354 158.798566 
L 496.965644 158.798566 
L 497.096967 156.589697 
L 497.622257 156.589697 
L 497.75358 151.550783 
L 498.935483 151.538559 
L 499.066805 150.448683 
L 500.248708 150.403011 
L 500.380031 150.036929 
L 500.905321 150.036929 
L 501.036643 149.061227 
L 501.561933 149.061227 
L 501.693256 148.844916 
L 502.218546 148.844916 
L 502.349869 148.548498 
L 502.875159 148.548498 
L 503.006481 146.878253 
L 503.531772 146.878253 
L 503.794417 146.674759 
L 504.188384 146.674759 
L 504.319707 144.37515 
L 504.844997 144.37515 
L 504.97632 143.115111 
L 505.50161 143.115111 
L 505.632932 142.353323 
L 506.158222 142.353323 
L 506.289545 141.94052 
L 506.814835 141.94052 
L 506.946158 141.339547 
L 507.471448 141.339547 
L 507.734093 141.207241 
L 508.128061 141.207241 
L 508.259383 140.388618 
L 508.784673 140.388618 
L 508.915996 139.781841 
L 509.441286 139.781841 
L 509.572609 138.400942 
L 510.097899 138.400942 
L 510.229221 136.62116 
L 510.754512 136.62116 
L 511.017157 136.481047 
L 512.067737 136.466609 
L 512.330382 136.264013 
L 512.72435 136.264013 
L 512.855672 135.790143 
L 513.380962 135.790143 
L 513.512285 133.902708 
L 514.037575 133.902708 
L 514.168898 133.385019 
L 514.694188 133.385019 
L 514.82551 132.356976 
L 515.350801 132.356976 
L 515.482123 131.089496 
L 516.007413 131.089496 
L 516.138736 130.568553 
L 516.664026 130.568553 
L 516.795349 130.212332 
L 517.320639 130.212332 
L 517.451961 129.795664 
L 517.977252 129.795664 
L 518.108574 127.986464 
L 518.633864 127.986464 
L 518.896509 127.794183 
L 519.94709 127.742434 
L 520.078412 126.984023 
L 520.603702 126.984023 
L 520.735025 126.762841 
L 521.260315 126.762841 
L 521.52296 126.620462 
L 521.916928 126.620462 
L 522.04825 125.873541 
L 523.230153 125.866171 
L 523.361476 123.544024 
L 524.543379 123.457276 
L 524.674701 122.510408 
L 525.856604 122.453934 
L 525.987927 122.187895 
L 527.16983 122.11354 
L 527.432475 122.006635 
L 527.826442 122.006635 
L 528.089088 121.798654 
L 528.483055 121.798654 
L 528.7457 121.635329 
L 529.139668 121.635329 
L 529.27099 120.970214 
L 529.796281 120.970214 
L 529.927603 119.853647 
L 530.452893 119.853647 
L 530.715538 119.676143 
L 531.109506 119.676143 
L 531.240829 119.191121 
L 531.766119 119.191121 
L 531.897441 118.46919 
L 532.422732 118.46919 
L 532.554054 118.076474 
L 533.079344 118.076474 
L 533.210667 117.076864 
L 533.735957 117.076864 
L 533.86728 116.704415 
L 534.39257 116.704415 
L 534.523892 116.36564 
L 535.049182 116.36564 
L 535.311828 116.212322 
L 535.705795 116.212322 
L 535.837118 115.791191 
L 537.019021 115.73855 
L 537.150343 114.919789 
L 537.675633 114.919789 
L 537.806956 114.453716 
L 538.332246 114.453716 
L 538.463569 113.979598 
L 538.988859 113.979598 
L 539.120181 111.823266 
L 539.645471 111.823266 
L 539.776794 111.465636 
L 540.958697 111.462478 
L 541.090019 110.82899 
L 541.61531 110.82899 
L 541.746632 107.656597 
L 542.271922 107.656597 
L 542.403245 107.195694 
L 543.585148 107.145407 
L 543.71647 106.338654 
L 544.898373 106.291132 
L 545.029696 105.717979 
L 545.554986 105.717979 
L 545.817631 105.54257 
L 546.211599 105.54257 
L 546.342921 104.553803 
L 546.868211 104.553803 
L 546.999534 103.893165 
L 547.524824 103.893165 
L 547.656147 102.149434 
L 548.181437 102.149434 
L 548.312759 100.558565 
L 548.83805 100.558565 
L 548.969372 100.117737 
L 549.494662 100.117737 
L 549.625985 99.476399 
L 550.151275 99.476399 
L 550.282598 99.037713 
L 550.807888 99.037713 
L 550.93921 98.007414 
L 551.464501 98.007414 
L 551.595823 94.688569 
L 552.121113 94.688569 
L 552.383758 94.500719 
L 552.777726 94.500719 
L 552.909049 93.613049 
L 553.434339 93.613049 
L 553.565661 87.755101 
L 554.090951 87.755101 
L 554.222274 85.496785 
L 554.747564 85.496785 
L 554.878887 81.453505 
L 555.404177 81.453505 
L 555.535499 74.759214 
L 556.06079 74.759214 
L 556.192112 74.446485 
L 556.717402 74.446485 
L 556.848725 73.152275 
L 557.374015 73.152275 
L 557.505338 72.041601 
L 558.030628 72.041601 
L 558.16195 71.711302 
L 559.343853 71.613907 
L 559.475176 71.136776 
L 560.000466 71.136776 
L 560.263111 70.939734 
L 560.657079 70.939734 
L 560.788401 70.610898 
L 561.313691 70.610898 
L 561.445014 69.562703 
L 561.970304 69.562703 
L 562.101627 67.884313 
L 562.626917 67.884313 
L 562.758239 67.562687 
L 563.28353 67.562687 
L 563.546175 67.371703 
L 564.596755 67.292011 
L 564.8594 67.121078 
L 565.253368 67.121078 
L 565.38469 66.405523 
L 565.909981 66.405523 
L 566.041303 66.00835 
L 566.566593 66.00835 
L 566.697916 65.496875 
L 567.879819 65.390089 
L 568.011141 64.727928 
L 569.193044 64.722376 
L 569.324367 64.27997 
L 569.849657 64.27997 
L 570.112302 64.148368 
L 571.162882 64.097377 
L 571.294205 63.307699 
L 571.819495 63.307699 
L 572.08214 63.104386 
L 573.13272 63.066428 
L 573.395366 62.88465 
L 573.789333 62.88465 
L 573.920656 62.423508 
L 574.445946 62.423508 
L 574.577268 61.981962 
L 575.102559 61.981962 
L 575.233881 61.646951 
L 576.415784 61.586643 
L 576.547107 61.343611 
L 577.072397 61.343611 
L 577.335042 61.218914 
L 578.385622 61.218913 
L 578.516945 60.587608 
L 579.698848 60.495655 
L 579.83017 60.208156 
L 580.35546 60.208156 
L 580.486783 59.845571 
L 581.012073 59.845571 
L 581.143396 59.405023 
L 582.325299 59.357501 
L 582.456621 59.029178 
L 582.981911 59.029178 
L 583.113234 58.723465 
L 583.638524 58.723465 
L 583.769847 58.373924 
L 584.95175 58.278931 
L 585.083072 57.9344 
L 585.608362 57.9344 
L 585.739685 57.592433 
L 586.921588 57.502069 
L 587.184233 57.317782 
L 587.5782 57.317782 
L 587.709523 57.06899 
L 588.891426 57.00161 
L 589.154071 56.912035 
L 589.548039 56.912035 
L 589.679361 56.692351 
L 590.204651 56.692351 
L 590.335974 55.939112 
L 590.861264 55.939112 
L 591.123909 55.813065 
L 591.517877 55.813065 
L 591.649199 55.138057 
L 592.17449 55.138057 
L 592.437135 54.946175 
L 594.144328 54.85121 
L 594.406973 54.672002 
L 594.80094 54.672002 
L 594.932263 54.444094 
L 595.457553 54.444094 
L 595.720198 54.330663 
L 596.114166 54.330663 
L 596.376811 54.217241 
L 597.427391 54.165227 
L 597.558714 53.814922 
L 598.084004 53.814922 
L 598.346649 53.623992 
L 598.740617 53.623992 
L 599.003262 53.4554 
L 599.39723 53.4554 
L 599.659875 53.249463 
L 600.710455 53.190323 
L 601.104423 53.136709 
L 601.367068 53.136709 
L 601.49839 52.890621 
L 602.680293 52.846527 
L 602.942938 52.773569 
L 603.993519 52.705579 
L 604.124841 52.373631 
L 605.306744 52.360828 
L 605.438067 52.109808 
L 606.619969 52.061605 
L 606.751292 51.79244 
L 607.933195 51.765229 
L 608.19584 51.632126 
L 608.589808 51.632126 
L 608.72113 51.370108 
L 609.903033 51.282034 
L 610.165678 51.18028 
L 611.216259 51.119041 
L 611.478904 51.039887 
L 612.529484 50.979947 
L 612.792129 50.786794 
L 613.842709 50.732706 
L 614.105355 50.666661 
L 614.499322 50.666661 
L 614.630645 49.74955 
L 615.155935 49.74955 
L 615.287257 49.451272 
L 615.812548 49.451272 
L 615.94387 48.826587 
L 616.46916 48.826587 
L 616.600483 48.450403 
L 617.782386 48.406662 
L 618.045031 48.264988 
L 618.438999 48.264988 
L 618.570321 47.560395 
L 619.095611 47.560395 
L 619.095611 47.560395 
" style="fill:none;stroke:#ff0000;stroke-dasharray:7.4,3.2;stroke-dashoffset:0;stroke-width:2;"/>
   </g>
   <g id="patch_13">
    <path d="M 481.344828 189 
L 481.344828 25.92 
" style="fill:none;stroke:#000000;stroke-linecap:square;stroke-linejoin:miter;stroke-width:0.8;"/>
   </g>
   <g id="patch_14">
    <path d="M 625.655172 189 
L 625.655172 25.92 
" style="fill:none;stroke:#000000;stroke-linecap:square;stroke-linejoin:miter;stroke-width:0.8;"/>
   </g>
   <g id="patch_15">
    <path d="M 481.344828 189 
L 625.655172 189 
" style="fill:none;stroke:#000000;stroke-linecap:square;stroke-linejoin:miter;stroke-width:0.8;"/>
   </g>
   <g id="patch_16">
    <path d="M 481.344828 25.92 
L 625.655172 25.92 
" style="fill:none;stroke:#000000;stroke-linecap:square;stroke-linejoin:miter;stroke-width:0.8;"/>
   </g>
   <g id="text_18">
    <!-- silhouette_score: 0.42 -->
    <g transform="translate(487.13625 19.92)scale(0.12 -0.12)">
     <use xlink:href="#DejaVuSans-73"/>
     <use x="52.099609" xlink:href="#DejaVuSans-69"/>
     <use x="79.882812" xlink:href="#DejaVuSans-6c"/>
     <use x="107.666016" xlink:href="#DejaVuSans-68"/>
     <use x="171.044922" xlink:href="#DejaVuSans-6f"/>
     <use x="232.226562" xlink:href="#DejaVuSans-75"/>
     <use x="295.605469" xlink:href="#DejaVuSans-65"/>
     <use x="357.128906" xlink:href="#DejaVuSans-74"/>
     <use x="396.337891" xlink:href="#DejaVuSans-74"/>
     <use x="435.546875" xlink:href="#DejaVuSans-65"/>
     <use x="497.070312" xlink:href="#DejaVuSans-5f"/>
     <use x="547.070312" xlink:href="#DejaVuSans-73"/>
     <use x="599.169922" xlink:href="#DejaVuSans-63"/>
     <use x="654.150391" xlink:href="#DejaVuSans-6f"/>
     <use x="715.332031" xlink:href="#DejaVuSans-72"/>
     <use x="756.414062" xlink:href="#DejaVuSans-65"/>
     <use x="817.9375" xlink:href="#DejaVuSans-3a"/>
     <use x="851.628906" xlink:href="#DejaVuSans-20"/>
     <use x="883.416016" xlink:href="#DejaVuSans-30"/>
     <use x="947.039062" xlink:href="#DejaVuSans-2e"/>
     <use x="978.826172" xlink:href="#DejaVuSans-34"/>
     <use x="1042.449219" xlink:href="#DejaVuSans-32"/>
    </g>
   </g>
  </g>
  <g id="axes_4">
   <g id="patch_17">
    <path d="M 654.517241 189 
L 798.827586 189 
L 798.827586 25.92 
L 654.517241 25.92 
z
" style="fill:#ffffff;"/>
   </g>
   <g id="matplotlib.axis_7">
    <g id="xtick_10">
     <g id="line2d_31">
      <g>
       <use style="stroke:#000000;stroke-width:0.8;" x="661.076803" xlink:href="#m967c111550" y="189"/>
      </g>
     </g>
     <g id="text_19">
      <!-- 0 -->
      <g transform="translate(657.895553 203.598437)scale(0.1 -0.1)">
       <use xlink:href="#DejaVuSans-30"/>
      </g>
     </g>
    </g>
    <g id="xtick_11">
     <g id="line2d_32">
      <g>
       <use style="stroke:#000000;stroke-width:0.8;" x="726.738075" xlink:href="#m967c111550" y="189"/>
      </g>
     </g>
     <g id="text_20">
      <!-- 500 -->
      <g transform="translate(717.194325 203.598437)scale(0.1 -0.1)">
       <use xlink:href="#DejaVuSans-35"/>
       <use x="63.623047" xlink:href="#DejaVuSans-30"/>
       <use x="127.246094" xlink:href="#DejaVuSans-30"/>
      </g>
     </g>
    </g>
    <g id="xtick_12">
     <g id="line2d_33">
      <g>
       <use style="stroke:#000000;stroke-width:0.8;" x="792.399348" xlink:href="#m967c111550" y="189"/>
      </g>
     </g>
     <g id="text_21">
      <!-- 1000 -->
      <g transform="translate(779.674348 203.598437)scale(0.1 -0.1)">
       <use xlink:href="#DejaVuSans-31"/>
       <use x="63.623047" xlink:href="#DejaVuSans-30"/>
       <use x="127.246094" xlink:href="#DejaVuSans-30"/>
       <use x="190.869141" xlink:href="#DejaVuSans-30"/>
      </g>
     </g>
    </g>
   </g>
   <g id="matplotlib.axis_8">
    <g id="ytick_19">
     <g id="line2d_34">
      <g>
       <use style="stroke:#000000;stroke-width:0.8;" x="654.517241" xlink:href="#m4f41187285" y="176.615549"/>
      </g>
     </g>
    </g>
    <g id="ytick_20">
     <g id="line2d_35">
      <g>
       <use style="stroke:#000000;stroke-width:0.8;" x="654.517241" xlink:href="#m4f41187285" y="150.029332"/>
      </g>
     </g>
    </g>
    <g id="ytick_21">
     <g id="line2d_36">
      <g>
       <use style="stroke:#000000;stroke-width:0.8;" x="654.517241" xlink:href="#m4f41187285" y="123.443115"/>
      </g>
     </g>
    </g>
    <g id="ytick_22">
     <g id="line2d_37">
      <g>
       <use style="stroke:#000000;stroke-width:0.8;" x="654.517241" xlink:href="#m4f41187285" y="96.856898"/>
      </g>
     </g>
    </g>
    <g id="ytick_23">
     <g id="line2d_38">
      <g>
       <use style="stroke:#000000;stroke-width:0.8;" x="654.517241" xlink:href="#m4f41187285" y="70.270681"/>
      </g>
     </g>
    </g>
    <g id="ytick_24">
     <g id="line2d_39">
      <g>
       <use style="stroke:#000000;stroke-width:0.8;" x="654.517241" xlink:href="#m4f41187285" y="43.684464"/>
      </g>
     </g>
    </g>
   </g>
   <g id="line2d_40">
    <path clip-path="url(#pa0b7449d8d)" d="M 661.076803 161.594933 
L 661.602093 161.594933 
L 661.733415 160.940985 
L 662.258705 160.940985 
L 662.390028 160.148975 
L 662.915318 160.148975 
L 663.177963 159.953854 
L 663.571931 159.953854 
L 663.834576 159.790328 
L 664.228544 159.790328 
L 664.359866 157.649244 
L 664.885156 157.649244 
L 665.016479 156.281691 
L 665.541769 156.281691 
L 665.673092 154.171498 
L 667.511607 154.102601 
L 667.64293 153.239522 
L 668.16822 153.239522 
L 668.299542 152.048123 
L 668.824833 152.048123 
L 668.956155 150.226303 
L 669.481445 150.226303 
L 669.612768 149.91138 
L 670.138058 149.91138 
L 670.269381 149.650351 
L 670.794671 149.650351 
L 670.925993 149.390822 
L 671.451284 149.390822 
L 671.582606 148.890085 
L 672.107896 148.890085 
L 672.239219 148.530812 
L 672.764509 148.530812 
L 672.895832 146.914849 
L 673.421122 146.914849 
L 673.552444 146.531117 
L 674.077734 146.531117 
L 674.209057 146.006584 
L 674.734347 146.006584 
L 674.86567 144.934454 
L 675.39096 144.934454 
L 675.522282 143.578482 
L 676.704185 143.532571 
L 676.835508 140.692825 
L 677.360798 140.692825 
L 677.492121 140.362774 
L 678.674024 140.306338 
L 678.936669 140.110361 
L 679.330636 140.110361 
L 679.461959 139.83685 
L 679.987249 139.83685 
L 680.118572 139.353488 
L 680.643862 139.353488 
L 680.775184 138.263661 
L 681.957087 138.214909 
L 682.08841 137.951599 
L 682.6137 137.951599 
L 682.745022 137.143802 
L 683.270313 137.143802 
L 683.532958 137.015505 
L 683.926925 137.015505 
L 684.058248 136.74312 
L 684.583538 136.74312 
L 684.846183 136.568555 
L 685.240151 136.568555 
L 685.502796 136.410947 
L 685.896764 136.410947 
L 686.028086 136.157509 
L 686.553376 136.157509 
L 686.684699 135.401131 
L 687.866602 135.309931 
L 688.129247 135.242532 
L 688.523214 135.242532 
L 688.654537 134.845826 
L 689.179827 134.845826 
L 689.31115 133.607407 
L 690.493053 133.580982 
L 690.624375 132.806654 
L 691.149665 132.806654 
L 691.280988 132.346639 
L 692.462891 132.285611 
L 692.594213 131.949338 
L 693.119504 131.949338 
L 693.250826 130.864847 
L 693.776116 130.864847 
L 694.038761 130.715159 
L 694.432729 130.715159 
L 694.564052 130.293748 
L 695.745954 130.243935 
L 696.0086 130.139161 
L 697.05918 130.072364 
L 697.321825 129.978906 
L 698.372405 129.881661 
L 698.503728 129.580711 
L 699.029018 129.580711 
L 699.160341 128.722664 
L 699.685631 128.722664 
L 699.816953 127.905135 
L 700.342243 127.905135 
L 700.473566 126.598706 
L 700.998856 126.598706 
L 701.130179 126.334081 
L 701.655469 126.334081 
L 701.786791 126.02242 
L 702.312082 126.02242 
L 702.443404 125.470711 
L 702.968694 125.470711 
L 703.100017 124.598906 
L 703.625307 124.598906 
L 703.75663 124.242476 
L 704.28192 124.242476 
L 704.544565 124.035043 
L 704.938533 124.035043 
L 705.201178 123.895748 
L 705.595145 123.895748 
L 705.726468 123.068499 
L 706.251758 123.068499 
L 706.383081 121.720735 
L 708.221596 121.642276 
L 708.484241 121.459224 
L 709.534822 121.422783 
L 709.666144 121.083999 
L 710.191434 121.083999 
L 710.322757 120.203907 
L 710.848047 120.203907 
L 710.97937 119.206367 
L 711.50466 119.206367 
L 711.767305 119.076128 
L 712.161273 119.076128 
L 712.292595 118.596416 
L 712.817885 118.596416 
L 713.08053 118.448177 
L 713.474498 118.448177 
L 713.605821 118.163504 
L 714.131111 118.163504 
L 714.262433 117.852838 
L 715.444336 117.754393 
L 715.706981 117.549359 
L 716.757562 117.446482 
L 716.888884 116.61441 
L 718.070787 116.606893 
L 718.20211 115.837941 
L 718.7274 115.837941 
L 718.858722 115.461108 
L 720.040625 115.460394 
L 720.171948 113.935879 
L 720.697238 113.935879 
L 720.828561 111.014355 
L 721.353851 111.014355 
L 721.485173 109.457943 
L 722.010463 109.457943 
L 722.141786 108.310323 
L 722.667076 108.310323 
L 722.798399 107.785542 
L 723.323689 107.785542 
L 723.455011 106.512845 
L 723.980302 106.512845 
L 724.111624 105.732942 
L 724.636914 105.732942 
L 724.768237 104.903965 
L 725.293527 104.903965 
L 725.42485 104.33334 
L 725.95014 104.33334 
L 726.081462 103.193784 
L 726.606753 103.193784 
L 726.738075 61.275564 
L 727.263365 61.275564 
L 727.394688 57.664599 
L 727.919978 57.664599 
L 728.051301 57.151154 
L 728.576591 57.151154 
L 728.707913 55.952169 
L 729.233203 55.952169 
L 729.364526 54.113642 
L 730.546429 54.044161 
L 730.809074 53.888284 
L 731.203042 53.888284 
L 731.334364 52.521138 
L 732.516267 52.512573 
L 732.64759 52.30018 
L 733.829493 52.292703 
L 733.960815 51.624574 
L 734.486105 51.624574 
L 734.617428 51.230362 
L 735.142718 51.230362 
L 735.27404 50.934858 
L 735.799331 50.934858 
L 736.061976 50.792178 
L 736.455943 50.792178 
L 736.718588 50.632556 
L 737.112556 50.632556 
L 737.243879 50.279717 
L 739.082394 50.229296 
L 739.213717 49.653637 
L 740.39562 49.602541 
L 740.658265 49.444553 
L 741.052232 49.444553 
L 741.183555 49.096919 
L 741.708845 49.096919 
L 741.97149 48.928526 
L 742.365458 48.928526 
L 742.628103 48.810211 
L 743.022071 48.810211 
L 743.153393 47.679204 
L 744.991909 47.629285 
L 745.254554 47.447182 
L 745.648522 47.447182 
L 745.779844 47.082384 
L 746.961747 47.019185 
L 747.224392 46.887459 
L 747.61836 46.887459 
L 747.749682 46.632437 
L 748.931585 46.568753 
L 749.19423 46.403772 
L 749.588198 46.403772 
L 749.850843 46.289527 
L 750.244811 46.289527 
L 750.507456 46.096093 
L 751.558036 46.049152 
L 751.820681 45.881275 
L 752.214649 45.881275 
L 752.477294 45.744515 
L 753.527874 45.634188 
L 753.790519 45.543581 
L 755.497712 45.448013 
L 755.760358 45.311998 
L 757.467551 45.256713 
L 757.730196 45.124453 
L 758.780776 45.04556 
L 758.912099 44.747544 
L 760.750614 44.724518 
L 760.881937 44.496101 
L 763.377065 44.412449 
L 763.771033 44.368024 
L 765.346903 44.342631 
L 765.609548 44.198396 
L 766.003516 44.198396 
L 766.266161 44.065476 
L 766.660129 44.065476 
L 766.922774 43.937205 
L 769.943192 43.858001 
L 770.074515 43.34986 
L 771.913031 43.30244 
L 772.044353 43.003489 
L 773.226256 42.910847 
L 773.357579 42.548587 
L 773.882869 42.548587 
L 774.014191 42.319181 
L 775.196094 42.300512 
L 775.458739 42.174274 
L 776.50932 42.17406 
L 776.771965 42.030491 
L 777.822545 41.987559 
L 778.08519 41.780372 
L 779.135771 41.68417 
L 779.398416 41.591132 
L 779.792383 41.591132 
L 779.923706 41.36892 
L 781.762221 41.340685 
L 782.024867 41.241184 
L 783.73206 41.148373 
L 784.913963 41.060691 
L 785.701898 40.968312 
L 785.964543 40.832866 
L 787.015123 40.800793 
L 787.146446 40.301688 
L 788.328349 40.258044 
L 788.459671 39.763351 
L 788.984961 39.763351 
L 789.116284 39.550145 
L 790.298187 39.480561 
L 790.560832 39.282376 
L 790.9548 39.282376 
L 791.217445 39.1245 
L 791.611412 39.1245 
L 791.874057 39.012083 
L 792.268025 39.012083 
L 792.268025 39.012083 
" style="fill:none;stroke:#ff0000;stroke-dasharray:7.4,3.2;stroke-dashoffset:0;stroke-width:2;"/>
   </g>
   <g id="patch_18">
    <path d="M 654.517241 189 
L 654.517241 25.92 
" style="fill:none;stroke:#000000;stroke-linecap:square;stroke-linejoin:miter;stroke-width:0.8;"/>
   </g>
   <g id="patch_19">
    <path d="M 798.827586 189 
L 798.827586 25.92 
" style="fill:none;stroke:#000000;stroke-linecap:square;stroke-linejoin:miter;stroke-width:0.8;"/>
   </g>
   <g id="patch_20">
    <path d="M 654.517241 189 
L 798.827586 189 
" style="fill:none;stroke:#000000;stroke-linecap:square;stroke-linejoin:miter;stroke-width:0.8;"/>
   </g>
   <g id="patch_21">
    <path d="M 654.517241 25.92 
L 798.827586 25.92 
" style="fill:none;stroke:#000000;stroke-linecap:square;stroke-linejoin:miter;stroke-width:0.8;"/>
   </g>
   <g id="text_22">
    <!-- silhouette_score: 0.46 -->
    <g transform="translate(660.308664 19.92)scale(0.12 -0.12)">
     <use xlink:href="#DejaVuSans-73"/>
     <use x="52.099609" xlink:href="#DejaVuSans-69"/>
     <use x="79.882812" xlink:href="#DejaVuSans-6c"/>
     <use x="107.666016" xlink:href="#DejaVuSans-68"/>
     <use x="171.044922" xlink:href="#DejaVuSans-6f"/>
     <use x="232.226562" xlink:href="#DejaVuSans-75"/>
     <use x="295.605469" xlink:href="#DejaVuSans-65"/>
     <use x="357.128906" xlink:href="#DejaVuSans-74"/>
     <use x="396.337891" xlink:href="#DejaVuSans-74"/>
     <use x="435.546875" xlink:href="#DejaVuSans-65"/>
     <use x="497.070312" xlink:href="#DejaVuSans-5f"/>
     <use x="547.070312" xlink:href="#DejaVuSans-73"/>
     <use x="599.169922" xlink:href="#DejaVuSans-63"/>
     <use x="654.150391" xlink:href="#DejaVuSans-6f"/>
     <use x="715.332031" xlink:href="#DejaVuSans-72"/>
     <use x="756.414062" xlink:href="#DejaVuSans-65"/>
     <use x="817.9375" xlink:href="#DejaVuSans-3a"/>
     <use x="851.628906" xlink:href="#DejaVuSans-20"/>
     <use x="883.416016" xlink:href="#DejaVuSans-30"/>
     <use x="947.039062" xlink:href="#DejaVuSans-2e"/>
     <use x="978.826172" xlink:href="#DejaVuSans-34"/>
     <use x="1042.449219" xlink:href="#DejaVuSans-36"/>
    </g>
   </g>
  </g>
  <g id="axes_5">
   <g id="patch_22">
    <path d="M 827.689655 189 
L 972 189 
L 972 25.92 
L 827.689655 25.92 
z
" style="fill:#ffffff;"/>
   </g>
   <g id="matplotlib.axis_9">
    <g id="xtick_13">
     <g id="line2d_41">
      <g>
       <use style="stroke:#000000;stroke-width:0.8;" x="834.249216" xlink:href="#m967c111550" y="189"/>
      </g>
     </g>
     <g id="text_23">
      <!-- 0 -->
      <g transform="translate(831.067966 203.598437)scale(0.1 -0.1)">
       <use xlink:href="#DejaVuSans-30"/>
      </g>
     </g>
    </g>
    <g id="xtick_14">
     <g id="line2d_42">
      <g>
       <use style="stroke:#000000;stroke-width:0.8;" x="899.910489" xlink:href="#m967c111550" y="189"/>
      </g>
     </g>
     <g id="text_24">
      <!-- 500 -->
      <g transform="translate(890.366739 203.598437)scale(0.1 -0.1)">
       <use xlink:href="#DejaVuSans-35"/>
       <use x="63.623047" xlink:href="#DejaVuSans-30"/>
       <use x="127.246094" xlink:href="#DejaVuSans-30"/>
      </g>
     </g>
    </g>
    <g id="xtick_15">
     <g id="line2d_43">
      <g>
       <use style="stroke:#000000;stroke-width:0.8;" x="965.571761" xlink:href="#m967c111550" y="189"/>
      </g>
     </g>
     <g id="text_25">
      <!-- 1000 -->
      <g transform="translate(952.846761 203.598437)scale(0.1 -0.1)">
       <use xlink:href="#DejaVuSans-31"/>
       <use x="63.623047" xlink:href="#DejaVuSans-30"/>
       <use x="127.246094" xlink:href="#DejaVuSans-30"/>
       <use x="190.869141" xlink:href="#DejaVuSans-30"/>
      </g>
     </g>
    </g>
   </g>
   <g id="matplotlib.axis_10">
    <g id="ytick_25">
     <g id="line2d_44">
      <g>
       <use style="stroke:#000000;stroke-width:0.8;" x="827.689655" xlink:href="#m4f41187285" y="176.615549"/>
      </g>
     </g>
    </g>
    <g id="ytick_26">
     <g id="line2d_45">
      <g>
       <use style="stroke:#000000;stroke-width:0.8;" x="827.689655" xlink:href="#m4f41187285" y="150.029332"/>
      </g>
     </g>
    </g>
    <g id="ytick_27">
     <g id="line2d_46">
      <g>
       <use style="stroke:#000000;stroke-width:0.8;" x="827.689655" xlink:href="#m4f41187285" y="123.443115"/>
      </g>
     </g>
    </g>
    <g id="ytick_28">
     <g id="line2d_47">
      <g>
       <use style="stroke:#000000;stroke-width:0.8;" x="827.689655" xlink:href="#m4f41187285" y="96.856898"/>
      </g>
     </g>
    </g>
    <g id="ytick_29">
     <g id="line2d_48">
      <g>
       <use style="stroke:#000000;stroke-width:0.8;" x="827.689655" xlink:href="#m4f41187285" y="70.270681"/>
      </g>
     </g>
    </g>
    <g id="ytick_30">
     <g id="line2d_49">
      <g>
       <use style="stroke:#000000;stroke-width:0.8;" x="827.689655" xlink:href="#m4f41187285" y="43.684464"/>
      </g>
     </g>
    </g>
   </g>
   <g id="line2d_50">
    <path clip-path="url(#p57808264eb)" d="M 834.249216 163.309012 
L 834.774506 163.309012 
L 834.905829 163.081619 
L 835.431119 163.081619 
L 835.562442 158.191853 
L 836.087732 158.191853 
L 836.219054 155.385921 
L 836.744345 155.385921 
L 836.875667 151.597236 
L 837.400957 151.597236 
L 837.53228 150.696928 
L 838.05757 150.696928 
L 838.188893 149.898965 
L 838.714183 149.898965 
L 838.845505 149.581034 
L 839.370796 149.581034 
L 839.502118 149.30227 
L 840.027408 149.30227 
L 840.158731 148.898061 
L 840.684021 148.898061 
L 840.815344 147.442388 
L 841.340634 147.442388 
L 841.471956 147.054107 
L 841.997246 147.054107 
L 842.128569 146.651792 
L 842.653859 146.651792 
L 842.785182 145.947241 
L 843.310472 145.947241 
L 843.441794 145.652398 
L 843.967085 145.652398 
L 844.098407 144.968183 
L 844.623697 144.968183 
L 844.75502 144.548079 
L 845.28031 144.548079 
L 845.411633 140.979227 
L 845.936923 140.979227 
L 846.068245 140.767729 
L 846.593536 140.767729 
L 846.724858 140.550016 
L 847.250148 140.550016 
L 847.381471 140.306596 
L 847.906761 140.306596 
L 848.038084 140.028069 
L 848.563374 140.028069 
L 848.694696 139.636336 
L 849.219986 139.636336 
L 849.351309 138.988097 
L 849.876599 138.988097 
L 850.007922 137.672521 
L 850.533212 137.672521 
L 850.664534 137.226834 
L 851.189825 137.226834 
L 851.321147 136.300149 
L 851.846437 136.300149 
L 851.97776 135.504145 
L 852.50305 135.504145 
L 852.634373 135.150963 
L 854.472888 135.060851 
L 854.604211 134.604631 
L 855.129501 134.604631 
L 855.260824 134.298762 
L 855.786114 134.298762 
L 855.917436 133.875268 
L 857.099339 133.81915 
L 857.361984 133.754676 
L 857.755952 133.754676 
L 858.018597 133.599937 
L 859.069177 133.536798 
L 859.2005 133.15086 
L 861.039016 133.044856 
L 861.170338 132.210535 
L 861.695628 132.210535 
L 861.826951 131.960814 
L 862.352241 131.960814 
L 862.483564 131.728447 
L 863.008854 131.728447 
L 863.140176 131.189951 
L 863.665466 131.189951 
L 863.796789 130.667219 
L 864.322079 130.667219 
L 864.584724 130.471187 
L 864.978692 130.471187 
L 865.110014 129.855621 
L 865.635305 129.855621 
L 865.89795 129.715953 
L 866.291917 129.715953 
L 866.42324 128.400437 
L 866.94853 128.400437 
L 867.079853 127.946483 
L 867.605143 127.946483 
L 867.736465 127.605549 
L 868.918368 127.588166 
L 869.181013 127.466067 
L 869.574981 127.466067 
L 869.706303 127.164662 
L 870.888206 127.082227 
L 871.019529 126.834792 
L 872.201432 126.79128 
L 872.332754 126.565211 
L 873.514657 126.540399 
L 873.64598 126.247736 
L 874.17127 126.247736 
L 874.302593 125.646605 
L 874.827883 125.646605 
L 874.959205 124.346896 
L 875.484495 124.346896 
L 875.615818 123.272232 
L 876.141108 123.272232 
L 876.403753 123.110866 
L 876.797721 123.110866 
L 876.929043 122.774385 
L 877.454334 122.774385 
L 877.585656 121.857978 
L 878.110946 121.857978 
L 878.242269 121.493904 
L 878.767559 121.493904 
L 878.898882 119.528217 
L 880.080785 119.492635 
L 880.212107 118.97497 
L 880.737397 118.97497 
L 880.86872 118.658662 
L 881.39401 118.658662 
L 881.525333 118.261707 
L 882.050623 118.261707 
L 882.181945 117.896448 
L 883.363848 117.859526 
L 883.626493 117.716649 
L 884.020461 117.716649 
L 884.151783 116.584177 
L 884.677074 116.584177 
L 884.808396 116.335121 
L 886.646912 116.259219 
L 886.909557 116.144512 
L 887.303525 116.144512 
L 887.434847 115.908177 
L 887.960137 115.908177 
L 888.222782 115.760412 
L 888.61675 115.760412 
L 888.748073 115.36964 
L 889.929975 115.308106 
L 890.192621 115.154872 
L 890.586588 115.154872 
L 890.849233 115.017118 
L 891.243201 115.017118 
L 891.374523 114.323255 
L 891.899814 114.323255 
L 892.031136 114.095846 
L 892.556426 114.095846 
L 892.687749 113.790072 
L 893.213039 113.790072 
L 893.344362 112.148651 
L 893.869652 112.148651 
L 894.132297 111.954423 
L 894.526265 111.954423 
L 894.657587 110.172992 
L 895.83949 110.150771 
L 895.970813 109.073969 
L 897.152715 109.000094 
L 897.284038 108.366386 
L 897.809328 108.366386 
L 897.940651 107.443194 
L 898.465941 107.443194 
L 898.597263 105.743167 
L 899.122554 105.743167 
L 899.253876 99.890133 
L 899.779166 99.890133 
L 899.910489 54.255724 
L 900.435779 54.255724 
L 900.698424 54.097124 
L 901.092392 54.097124 
L 901.223714 48.302973 
L 901.749004 48.302973 
L 901.880327 46.467092 
L 902.405617 46.467092 
L 902.53694 45.730576 
L 903.718843 45.672924 
L 903.850165 45.37077 
L 904.375455 45.37077 
L 904.506778 45.02896 
L 905.032068 45.02896 
L 905.163391 44.820446 
L 906.345294 44.807522 
L 906.476616 44.391319 
L 907.658519 44.358935 
L 907.921164 44.226536 
L 908.971744 44.135018 
L 909.103067 43.904909 
L 909.628357 43.904909 
L 909.75968 43.467315 
L 910.28497 43.467315 
L 910.547615 43.342023 
L 910.941583 43.342023 
L 911.072905 43.094999 
L 912.911421 42.996012 
L 913.042743 42.767177 
L 916.194484 42.670063 
L 916.45713 42.53839 
L 916.851097 42.53839 
L 917.113742 42.359932 
L 918.820935 42.34677 
L 919.08358 42.210805 
L 919.477548 42.210805 
L 919.608871 41.715487 
L 920.790774 41.713993 
L 920.922096 41.192791 
L 922.103999 41.171759 
L 922.366644 41.072203 
L 923.417224 41.028838 
L 923.548547 40.750088 
L 924.073837 40.750088 
L 924.20516 40.305154 
L 924.73045 40.305154 
L 924.993095 40.167271 
L 925.387063 40.167271 
L 925.518385 39.932312 
L 927.356901 39.834112 
L 928.013514 39.81096 
L 928.144836 39.53104 
L 929.983352 39.493908 
L 930.245997 39.296227 
L 931.296577 39.199059 
L 931.559222 39.047048 
L 932.609803 39.012914 
L 932.872448 38.864496 
L 933.266415 38.864496 
L 933.52906 38.718221 
L 934.579641 38.638435 
L 934.842286 38.431491 
L 935.892866 38.41269 
L 936.155511 38.270075 
L 936.549479 38.270075 
L 936.812124 38.082272 
L 937.206092 38.082272 
L 937.337414 37.347544 
L 937.862704 37.347544 
L 938.125349 37.175265 
L 939.832543 37.15338 
L 940.095188 37.063526 
L 941.802381 37.044866 
L 942.065026 36.922198 
L 945.085444 36.822678 
L 945.348089 36.733205 
L 947.711895 36.685244 
L 947.843218 36.467731 
L 949.025121 36.430562 
L 949.287766 36.2705 
L 952.308184 36.182458 
L 952.570829 36.0766 
L 952.964797 36.0766 
L 953.227442 35.917671 
L 954.934635 35.862591 
L 955.19728 35.771147 
L 956.247861 35.754025 
L 956.510506 35.640696 
L 957.561086 35.608923 
L 957.823731 35.447352 
L 958.217699 35.447352 
L 958.480344 35.280555 
L 960.84415 35.25115 
L 961.106795 35.146502 
L 962.157375 35.140938 
L 962.288698 34.170802 
L 962.813988 34.170802 
L 962.945311 33.707288 
L 964.783826 33.608258 
L 964.915149 33.332727 
L 965.440439 33.332727 
L 965.440439 33.332727 
" style="fill:none;stroke:#ff0000;stroke-dasharray:7.4,3.2;stroke-dashoffset:0;stroke-width:2;"/>
   </g>
   <g id="patch_23">
    <path d="M 827.689655 189 
L 827.689655 25.92 
" style="fill:none;stroke:#000000;stroke-linecap:square;stroke-linejoin:miter;stroke-width:0.8;"/>
   </g>
   <g id="patch_24">
    <path d="M 972 189 
L 972 25.92 
" style="fill:none;stroke:#000000;stroke-linecap:square;stroke-linejoin:miter;stroke-width:0.8;"/>
   </g>
   <g id="patch_25">
    <path d="M 827.689655 189 
L 972 189 
" style="fill:none;stroke:#000000;stroke-linecap:square;stroke-linejoin:miter;stroke-width:0.8;"/>
   </g>
   <g id="patch_26">
    <path d="M 827.689655 25.92 
L 972 25.92 
" style="fill:none;stroke:#000000;stroke-linecap:square;stroke-linejoin:miter;stroke-width:0.8;"/>
   </g>
   <g id="text_26">
    <!-- silhouette_score: 0.49 -->
    <defs>
     <path d="M 10.984375 1.515625 
L 10.984375 10.5 
Q 14.703125 8.734375 18.5 7.8125 
Q 22.3125 6.890625 25.984375 6.890625 
Q 35.75 6.890625 40.890625 13.453125 
Q 46.046875 20.015625 46.78125 33.40625 
Q 43.953125 29.203125 39.59375 26.953125 
Q 35.25 24.703125 29.984375 24.703125 
Q 19.046875 24.703125 12.671875 31.3125 
Q 6.296875 37.9375 6.296875 49.421875 
Q 6.296875 60.640625 12.9375 67.421875 
Q 19.578125 74.21875 30.609375 74.21875 
Q 43.265625 74.21875 49.921875 64.515625 
Q 56.59375 54.828125 56.59375 36.375 
Q 56.59375 19.140625 48.40625 8.859375 
Q 40.234375 -1.421875 26.421875 -1.421875 
Q 22.703125 -1.421875 18.890625 -0.6875 
Q 15.09375 0.046875 10.984375 1.515625 
z
M 30.609375 32.421875 
Q 37.25 32.421875 41.125 36.953125 
Q 45.015625 41.5 45.015625 49.421875 
Q 45.015625 57.28125 41.125 61.84375 
Q 37.25 66.40625 30.609375 66.40625 
Q 23.96875 66.40625 20.09375 61.84375 
Q 16.21875 57.28125 16.21875 49.421875 
Q 16.21875 41.5 20.09375 36.953125 
Q 23.96875 32.421875 30.609375 32.421875 
z
" id="DejaVuSans-39"/>
    </defs>
    <g transform="translate(833.481078 19.92)scale(0.12 -0.12)">
     <use xlink:href="#DejaVuSans-73"/>
     <use x="52.099609" xlink:href="#DejaVuSans-69"/>
     <use x="79.882812" xlink:href="#DejaVuSans-6c"/>
     <use x="107.666016" xlink:href="#DejaVuSans-68"/>
     <use x="171.044922" xlink:href="#DejaVuSans-6f"/>
     <use x="232.226562" xlink:href="#DejaVuSans-75"/>
     <use x="295.605469" xlink:href="#DejaVuSans-65"/>
     <use x="357.128906" xlink:href="#DejaVuSans-74"/>
     <use x="396.337891" xlink:href="#DejaVuSans-74"/>
     <use x="435.546875" xlink:href="#DejaVuSans-65"/>
     <use x="497.070312" xlink:href="#DejaVuSans-5f"/>
     <use x="547.070312" xlink:href="#DejaVuSans-73"/>
     <use x="599.169922" xlink:href="#DejaVuSans-63"/>
     <use x="654.150391" xlink:href="#DejaVuSans-6f"/>
     <use x="715.332031" xlink:href="#DejaVuSans-72"/>
     <use x="756.414062" xlink:href="#DejaVuSans-65"/>
     <use x="817.9375" xlink:href="#DejaVuSans-3a"/>
     <use x="851.628906" xlink:href="#DejaVuSans-20"/>
     <use x="883.416016" xlink:href="#DejaVuSans-30"/>
     <use x="947.039062" xlink:href="#DejaVuSans-2e"/>
     <use x="978.826172" xlink:href="#DejaVuSans-34"/>
     <use x="1042.449219" xlink:href="#DejaVuSans-39"/>
    </g>
   </g>
  </g>
 </g>
 <defs>
  <clipPath id="p68c173a963">
   <rect height="163.08" width="144.310345" x="135" y="25.92"/>
  </clipPath>
  <clipPath id="p6d52fedbc5">
   <rect height="163.08" width="144.310345" x="308.172414" y="25.92"/>
  </clipPath>
  <clipPath id="p9da73d4ad1">
   <rect height="163.08" width="144.310345" x="481.344828" y="25.92"/>
  </clipPath>
  <clipPath id="pa0b7449d8d">
   <rect height="163.08" width="144.310345" x="654.517241" y="25.92"/>
  </clipPath>
  <clipPath id="p57808264eb">
   <rect height="163.08" width="144.310345" x="827.689655" y="25.92"/>
  </clipPath>
 </defs>
</svg>
