<?xml version="1.0" encoding="UTF-8" standalone="no"?>
<!DOCTYPE svg PUBLIC "-//W3C//DTD SVG 1.1//EN"
 "http://www.w3.org/Graphics/SVG/1.1/DTD/svg11.dtd">
<!-- Generated by graphviz version 2.40.1 (20161225.0304)
 -->
<!-- Title: graphname Pages: 1 -->
<svg width="422pt" height="98pt"
 viewBox="0.00 0.00 422.00 98.00" xmlns="http://www.w3.org/2000/svg" xmlns:xlink="http://www.w3.org/1999/xlink">
<g id="graph0" class="graph" transform="scale(1 1) rotate(0) translate(4 94)">
<title>graphname</title>
<polygon fill="#ffffff" stroke="transparent" points="-4,4 -4,-94 418,-94 418,4 -4,4"/>
<!-- a -->
<g id="node1" class="node">
<title>a</title>
<ellipse fill="none" stroke="#000000" cx="27" cy="-45" rx="27" ry="18"/>
<text text-anchor="middle" x="27" y="-40.8" font-family="Times,serif" font-size="14.00" fill="#000000">a</text>
</g>
<!-- b -->
<g id="node2" class="node">
<title>b</title>
<ellipse fill="none" stroke="#000000" cx="117" cy="-45" rx="27" ry="18"/>
<text text-anchor="middle" x="117" y="-40.8" font-family="Times,serif" font-size="14.00" fill="#000000">b</text>
</g>
<!-- a&#45;&gt;b -->
<g id="edge1" class="edge">
<title>a&#45;&gt;b</title>
<path fill="none" stroke="#000000" d="M54.003,-45C62.0277,-45 70.9665,-45 79.5309,-45"/>
<polygon fill="#000000" stroke="#000000" points="79.7051,-48.5001 89.705,-45 79.705,-41.5001 79.7051,-48.5001"/>
</g>
<!-- c -->
<g id="node3" class="node">
<title>c</title>
<ellipse fill="none" stroke="#000000" cx="207" cy="-72" rx="27" ry="18"/>
<text text-anchor="middle" x="207" y="-67.8" font-family="Times,serif" font-size="14.00" fill="#000000">c</text>
</g>
<!-- b&#45;&gt;c -->
<g id="edge2" class="edge">
<title>b&#45;&gt;c</title>
<path fill="none" stroke="#000000" d="M142.07,-52.521C151.5102,-55.3531 162.4169,-58.6251 172.564,-61.6692"/>
<polygon fill="#000000" stroke="#000000" points="171.7915,-65.0915 182.3755,-64.6126 173.803,-58.3867 171.7915,-65.0915"/>
</g>
<!-- d -->
<g id="node6" class="node">
<title>d</title>
<ellipse fill="none" stroke="#000000" cx="207" cy="-18" rx="27" ry="18"/>
<text text-anchor="middle" x="207" y="-13.8" font-family="Times,serif" font-size="14.00" fill="#000000">d</text>
</g>
<!-- b&#45;&gt;d -->
<g id="edge5" class="edge">
<title>b&#45;&gt;d</title>
<path fill="none" stroke="#000000" d="M142.07,-37.479C151.5102,-34.6469 162.4169,-31.3749 172.564,-28.3308"/>
<polygon fill="#000000" stroke="#000000" points="173.803,-31.6133 182.3755,-25.3874 171.7915,-24.9085 173.803,-31.6133"/>
</g>
<!-- e -->
<g id="node4" class="node">
<title>e</title>
<ellipse fill="none" stroke="#000000" cx="297" cy="-72" rx="27" ry="18"/>
<text text-anchor="middle" x="297" y="-67.8" font-family="Times,serif" font-size="14.00" fill="#000000">e</text>
</g>
<!-- c&#45;&gt;e -->
<g id="edge3" class="edge">
<title>c&#45;&gt;e</title>
<path fill="none" stroke="#000000" d="M234.003,-72C242.0277,-72 250.9665,-72 259.5309,-72"/>
<polygon fill="#000000" stroke="#000000" points="259.7051,-75.5001 269.705,-72 259.705,-68.5001 259.7051,-75.5001"/>
</g>
<!-- f -->
<g id="node5" class="node">
<title>f</title>
<ellipse fill="none" stroke="#000000" cx="387" cy="-72" rx="27" ry="18"/>
<text text-anchor="middle" x="387" y="-67.8" font-family="Times,serif" font-size="14.00" fill="#000000">f</text>
</g>
<!-- e&#45;&gt;f -->
<g id="edge4" class="edge">
<title>e&#45;&gt;f</title>
<path fill="none" stroke="#000000" d="M324.003,-72C332.0277,-72 340.9665,-72 349.5309,-72"/>
<polygon fill="#000000" stroke="#000000" points="349.7051,-75.5001 359.705,-72 349.705,-68.5001 349.7051,-75.5001"/>
</g>
</g>
</svg>
