<?xml version="1.0" encoding="utf-8" standalone="no"?>
<!DOCTYPE svg PUBLIC "-//W3C//DTD SVG 1.1//EN"
  "http://www.w3.org/Graphics/SVG/1.1/DTD/svg11.dtd">
<!-- Created with matplotlib (http://matplotlib.org/) -->
<svg height="288pt" version="1.1" viewBox="0 0 864 288" width="864pt" xmlns="http://www.w3.org/2000/svg" xmlns:xlink="http://www.w3.org/1999/xlink">
 <defs>
  <style type="text/css">
*{stroke-linecap:butt;stroke-linejoin:round;}
  </style>
 </defs>
 <g id="figure_1">
  <g id="patch_1">
   <path d="M 0 288 
L 864 288 
L 864 0 
L 0 0 
z
" style="fill:#ffffff;"/>
  </g>
  <g id="axes_1">
   <g id="patch_2">
    <path d="M 108 252 
L 777.6 252 
L 777.6 34.56 
L 108 34.56 
z
" style="fill:#ffffff;"/>
   </g>
   <g id="PathCollection_1">
    <defs>
     <path d="M 0 3 
C 0.795609 3 1.55874 2.683901 2.12132 2.12132 
C 2.683901 1.55874 3 0.795609 3 0 
C 3 -0.795609 2.683901 -1.55874 2.12132 -2.12132 
C 1.55874 -2.683901 0.795609 -3 0 -3 
C -0.795609 -3 -1.55874 -2.683901 -2.12132 -2.12132 
C -2.683901 -1.55874 -3 -0.795609 -3 0 
C -3 0.795609 -2.683901 1.55874 -2.12132 2.12132 
C -1.55874 2.683901 -0.795609 3 0 3 
z
" id="mb108aa318f" style="stroke:#2adddd;stroke-opacity:0.5;"/>
    </defs>
    <g clip-path="url(#p8201442006)">
     <use style="fill:#2adddd;fill-opacity:0.5;stroke:#2adddd;stroke-opacity:0.5;" x="221.324492" xlink:href="#mb108aa318f" y="174.878887"/>
     <use style="fill:#2adddd;fill-opacity:0.5;stroke:#2adddd;stroke-opacity:0.5;" x="409.901509" xlink:href="#mb108aa318f" y="203.082656"/>
     <use style="fill:#2adddd;fill-opacity:0.5;stroke:#2adddd;stroke-opacity:0.5;" x="197.920901" xlink:href="#mb108aa318f" y="220.565877"/>
     <use style="fill:#2adddd;fill-opacity:0.5;stroke:#2adddd;stroke-opacity:0.5;" x="368.754715" xlink:href="#mb108aa318f" y="192.711525"/>
     <use style="fill:#2adddd;fill-opacity:0.5;stroke:#2adddd;stroke-opacity:0.5;" x="408.918826" xlink:href="#mb108aa318f" y="219.218196"/>
     <use style="fill:#2adddd;fill-opacity:0.5;stroke:#2adddd;stroke-opacity:0.5;" x="271.541289" xlink:href="#mb108aa318f" y="183.454481"/>
     <use style="fill:#2adddd;fill-opacity:0.5;stroke:#2adddd;stroke-opacity:0.5;" x="188.727932" xlink:href="#mb108aa318f" y="183.351612"/>
     <use style="fill:#2adddd;fill-opacity:0.5;stroke:#2adddd;stroke-opacity:0.5;" x="329.498966" xlink:href="#mb108aa318f" y="184.165947"/>
     <use style="fill:#2adddd;fill-opacity:0.5;stroke:#2adddd;stroke-opacity:0.5;" x="387.341226" xlink:href="#mb108aa318f" y="216.195146"/>
     <use style="fill:#2adddd;fill-opacity:0.5;stroke:#2adddd;stroke-opacity:0.5;" x="169.782386" xlink:href="#mb108aa318f" y="241.789166"/>
     <use style="fill:#2adddd;fill-opacity:0.5;stroke:#2adddd;stroke-opacity:0.5;" x="301.327591" xlink:href="#mb108aa318f" y="202.35937"/>
     <use style="fill:#2adddd;fill-opacity:0.5;stroke:#2adddd;stroke-opacity:0.5;" x="275.947305" xlink:href="#mb108aa318f" y="183.313558"/>
     <use style="fill:#2adddd;fill-opacity:0.5;stroke:#2adddd;stroke-opacity:0.5;" x="186.156801" xlink:href="#mb108aa318f" y="190.088921"/>
     <use style="fill:#2adddd;fill-opacity:0.5;stroke:#2adddd;stroke-opacity:0.5;" x="260.014157" xlink:href="#mb108aa318f" y="194.088489"/>
     <use style="fill:#2adddd;fill-opacity:0.5;stroke:#2adddd;stroke-opacity:0.5;" x="344.399517" xlink:href="#mb108aa318f" y="173.824559"/>
     <use style="fill:#2adddd;fill-opacity:0.5;stroke:#2adddd;stroke-opacity:0.5;" x="425.620727" xlink:href="#mb108aa318f" y="190.460701"/>
     <use style="fill:#2adddd;fill-opacity:0.5;stroke:#2adddd;stroke-opacity:0.5;" x="151.349653" xlink:href="#mb108aa318f" y="176.950463"/>
     <use style="fill:#2adddd;fill-opacity:0.5;stroke:#2adddd;stroke-opacity:0.5;" x="383.597039" xlink:href="#mb108aa318f" y="188.532546"/>
     <use style="fill:#2adddd;fill-opacity:0.5;stroke:#2adddd;stroke-opacity:0.5;" x="258.788183" xlink:href="#mb108aa318f" y="193.311809"/>
     <use style="fill:#2adddd;fill-opacity:0.5;stroke:#2adddd;stroke-opacity:0.5;" x="262.211009" xlink:href="#mb108aa318f" y="216.62242"/>
     <use style="fill:#2adddd;fill-opacity:0.5;stroke:#2adddd;stroke-opacity:0.5;" x="393.942686" xlink:href="#mb108aa318f" y="165.845838"/>
     <use style="fill:#2adddd;fill-opacity:0.5;stroke:#2adddd;stroke-opacity:0.5;" x="355.492955" xlink:href="#mb108aa318f" y="208.868311"/>
     <use style="fill:#2adddd;fill-opacity:0.5;stroke:#2adddd;stroke-opacity:0.5;" x="236.140587" xlink:href="#mb108aa318f" y="228.396245"/>
     <use style="fill:#2adddd;fill-opacity:0.5;stroke:#2adddd;stroke-opacity:0.5;" x="365.772535" xlink:href="#mb108aa318f" y="157.913077"/>
     <use style="fill:#2adddd;fill-opacity:0.5;stroke:#2adddd;stroke-opacity:0.5;" x="190.289716" xlink:href="#mb108aa318f" y="157.993719"/>
     <use style="fill:#2adddd;fill-opacity:0.5;stroke:#2adddd;stroke-opacity:0.5;" x="269.348842" xlink:href="#mb108aa318f" y="206.306002"/>
     <use style="fill:#2adddd;fill-opacity:0.5;stroke:#2adddd;stroke-opacity:0.5;" x="405.56694" xlink:href="#mb108aa318f" y="179.706249"/>
     <use style="fill:#2adddd;fill-opacity:0.5;stroke:#2adddd;stroke-opacity:0.5;" x="232.543504" xlink:href="#mb108aa318f" y="176.252833"/>
     <use style="fill:#2adddd;fill-opacity:0.5;stroke:#2adddd;stroke-opacity:0.5;" x="286.178367" xlink:href="#mb108aa318f" y="134.782264"/>
     <use style="fill:#2adddd;fill-opacity:0.5;stroke:#2adddd;stroke-opacity:0.5;" x="357.33163" xlink:href="#mb108aa318f" y="173.709965"/>
     <use style="fill:#2adddd;fill-opacity:0.5;stroke:#2adddd;stroke-opacity:0.5;" x="278.175534" xlink:href="#mb108aa318f" y="159.734197"/>
     <use style="fill:#2adddd;fill-opacity:0.5;stroke:#2adddd;stroke-opacity:0.5;" x="318.205621" xlink:href="#mb108aa318f" y="196.304639"/>
     <use style="fill:#2adddd;fill-opacity:0.5;stroke:#2adddd;stroke-opacity:0.5;" x="392.848728" xlink:href="#mb108aa318f" y="207.380293"/>
     <use style="fill:#2adddd;fill-opacity:0.5;stroke:#2adddd;stroke-opacity:0.5;" x="221.247549" xlink:href="#mb108aa318f" y="154.153846"/>
     <use style="fill:#2adddd;fill-opacity:0.5;stroke:#2adddd;stroke-opacity:0.5;" x="305.087829" xlink:href="#mb108aa318f" y="228.506161"/>
     <use style="fill:#2adddd;fill-opacity:0.5;stroke:#2adddd;stroke-opacity:0.5;" x="138.785013" xlink:href="#mb108aa318f" y="172.236494"/>
     <use style="fill:#2adddd;fill-opacity:0.5;stroke:#2adddd;stroke-opacity:0.5;" x="286.997373" xlink:href="#mb108aa318f" y="193.830011"/>
     <use style="fill:#2adddd;fill-opacity:0.5;stroke:#2adddd;stroke-opacity:0.5;" x="339.141829" xlink:href="#mb108aa318f" y="159.211861"/>
     <use style="fill:#2adddd;fill-opacity:0.5;stroke:#2adddd;stroke-opacity:0.5;" x="394.316791" xlink:href="#mb108aa318f" y="168.505227"/>
     <use style="fill:#2adddd;fill-opacity:0.5;stroke:#2adddd;stroke-opacity:0.5;" x="228.319022" xlink:href="#mb108aa318f" y="193.177388"/>
     <use style="fill:#2adddd;fill-opacity:0.5;stroke:#2adddd;stroke-opacity:0.5;" x="302.274034" xlink:href="#mb108aa318f" y="127.667243"/>
     <use style="fill:#2adddd;fill-opacity:0.5;stroke:#2adddd;stroke-opacity:0.5;" x="255.601604" xlink:href="#mb108aa318f" y="188.940567"/>
     <use style="fill:#2adddd;fill-opacity:0.5;stroke:#2adddd;stroke-opacity:0.5;" x="289.115361" xlink:href="#mb108aa318f" y="197.755116"/>
     <use style="fill:#2adddd;fill-opacity:0.5;stroke:#2adddd;stroke-opacity:0.5;" x="337.714252" xlink:href="#mb108aa318f" y="187.012895"/>
     <use style="fill:#2adddd;fill-opacity:0.5;stroke:#2adddd;stroke-opacity:0.5;" x="274.753795" xlink:href="#mb108aa318f" y="181.616406"/>
     <use style="fill:#2adddd;fill-opacity:0.5;stroke:#2adddd;stroke-opacity:0.5;" x="257.623098" xlink:href="#mb108aa318f" y="173.578689"/>
     <use style="fill:#2adddd;fill-opacity:0.5;stroke:#2adddd;stroke-opacity:0.5;" x="381.161475" xlink:href="#mb108aa318f" y="192.415735"/>
     <use style="fill:#2adddd;fill-opacity:0.5;stroke:#2adddd;stroke-opacity:0.5;" x="193.71761" xlink:href="#mb108aa318f" y="189.50428"/>
     <use style="fill:#2adddd;fill-opacity:0.5;stroke:#2adddd;stroke-opacity:0.5;" x="159.468716" xlink:href="#mb108aa318f" y="211.337239"/>
     <use style="fill:#2adddd;fill-opacity:0.5;stroke:#2adddd;stroke-opacity:0.5;" x="372.56358" xlink:href="#mb108aa318f" y="159.181133"/>
    </g>
   </g>
   <g id="PathCollection_2">
    <defs>
     <path d="M 0 3 
C 0.795609 3 1.55874 2.683901 2.12132 2.12132 
C 2.683901 1.55874 3 0.795609 3 0 
C 3 -0.795609 2.683901 -1.55874 2.12132 -2.12132 
C 1.55874 -2.683901 0.795609 -3 0 -3 
C -0.795609 -3 -1.55874 -2.683901 -2.12132 -2.12132 
C -2.683901 -1.55874 -3 -0.795609 -3 0 
C -3 0.795609 -2.683901 1.55874 -2.12132 2.12132 
C -1.55874 2.683901 -0.795609 3 0 3 
z
" id="mb431e079c0" style="stroke:#d4dd80;stroke-opacity:0.5;"/>
    </defs>
    <g clip-path="url(#p8201442006)">
     <use style="fill:#d4dd80;fill-opacity:0.5;stroke:#d4dd80;stroke-opacity:0.5;" x="522.089417" xlink:href="#mb431e079c0" y="130.52935"/>
     <use style="fill:#d4dd80;fill-opacity:0.5;stroke:#d4dd80;stroke-opacity:0.5;" x="475.457059" xlink:href="#mb431e079c0" y="152.162054"/>
     <use style="fill:#d4dd80;fill-opacity:0.5;stroke:#d4dd80;stroke-opacity:0.5;" x="421.154203" xlink:href="#mb431e079c0" y="157.833829"/>
     <use style="fill:#d4dd80;fill-opacity:0.5;stroke:#d4dd80;stroke-opacity:0.5;" x="526.182568" xlink:href="#mb431e079c0" y="130.723222"/>
     <use style="fill:#d4dd80;fill-opacity:0.5;stroke:#d4dd80;stroke-opacity:0.5;" x="423.05702" xlink:href="#mb431e079c0" y="113.930717"/>
     <use style="fill:#d4dd80;fill-opacity:0.5;stroke:#d4dd80;stroke-opacity:0.5;" x="425.898586" xlink:href="#mb431e079c0" y="127.220114"/>
     <use style="fill:#d4dd80;fill-opacity:0.5;stroke:#d4dd80;stroke-opacity:0.5;" x="527.755504" xlink:href="#mb431e079c0" y="117.479673"/>
     <use style="fill:#d4dd80;fill-opacity:0.5;stroke:#d4dd80;stroke-opacity:0.5;" x="272.715432" xlink:href="#mb431e079c0" y="162.237196"/>
     <use style="fill:#d4dd80;fill-opacity:0.5;stroke:#d4dd80;stroke-opacity:0.5;" x="367.527484" xlink:href="#mb431e079c0" y="111.556393"/>
     <use style="fill:#d4dd80;fill-opacity:0.5;stroke:#d4dd80;stroke-opacity:0.5;" x="527.084603" xlink:href="#mb431e079c0" y="128.955727"/>
     <use style="fill:#d4dd80;fill-opacity:0.5;stroke:#d4dd80;stroke-opacity:0.5;" x="345.359028" xlink:href="#mb431e079c0" y="199.04475"/>
     <use style="fill:#d4dd80;fill-opacity:0.5;stroke:#d4dd80;stroke-opacity:0.5;" x="411.283574" xlink:href="#mb431e079c0" y="163.302539"/>
     <use style="fill:#d4dd80;fill-opacity:0.5;stroke:#d4dd80;stroke-opacity:0.5;" x="467.585393" xlink:href="#mb431e079c0" y="201.592662"/>
     <use style="fill:#d4dd80;fill-opacity:0.5;stroke:#d4dd80;stroke-opacity:0.5;" x="450.207415" xlink:href="#mb431e079c0" y="112.0443"/>
     <use style="fill:#d4dd80;fill-opacity:0.5;stroke:#d4dd80;stroke-opacity:0.5;" x="464.360992" xlink:href="#mb431e079c0" y="113.460026"/>
     <use style="fill:#d4dd80;fill-opacity:0.5;stroke:#d4dd80;stroke-opacity:0.5;" x="563.4574" xlink:href="#mb431e079c0" y="161.384439"/>
     <use style="fill:#d4dd80;fill-opacity:0.5;stroke:#d4dd80;stroke-opacity:0.5;" x="404.797086" xlink:href="#mb431e079c0" y="145.615878"/>
     <use style="fill:#d4dd80;fill-opacity:0.5;stroke:#d4dd80;stroke-opacity:0.5;" x="480.962215" xlink:href="#mb431e079c0" y="123.259105"/>
     <use style="fill:#d4dd80;fill-opacity:0.5;stroke:#d4dd80;stroke-opacity:0.5;" x="540.749833" xlink:href="#mb431e079c0" y="137.374713"/>
     <use style="fill:#d4dd80;fill-opacity:0.5;stroke:#d4dd80;stroke-opacity:0.5;" x="453.43342" xlink:href="#mb431e079c0" y="175.411734"/>
     <use style="fill:#d4dd80;fill-opacity:0.5;stroke:#d4dd80;stroke-opacity:0.5;" x="481.881962" xlink:href="#mb431e079c0" y="146.452352"/>
     <use style="fill:#d4dd80;fill-opacity:0.5;stroke:#d4dd80;stroke-opacity:0.5;" x="423.428338" xlink:href="#mb431e079c0" y="194.901231"/>
     <use style="fill:#d4dd80;fill-opacity:0.5;stroke:#d4dd80;stroke-opacity:0.5;" x="262.046257" xlink:href="#mb431e079c0" y="164.899777"/>
     <use style="fill:#d4dd80;fill-opacity:0.5;stroke:#d4dd80;stroke-opacity:0.5;" x="383.712512" xlink:href="#mb431e079c0" y="146.343425"/>
     <use style="fill:#d4dd80;fill-opacity:0.5;stroke:#d4dd80;stroke-opacity:0.5;" x="398.169897" xlink:href="#mb431e079c0" y="166.21743"/>
     <use style="fill:#d4dd80;fill-opacity:0.5;stroke:#d4dd80;stroke-opacity:0.5;" x="457.765322" xlink:href="#mb431e079c0" y="151.635451"/>
     <use style="fill:#d4dd80;fill-opacity:0.5;stroke:#d4dd80;stroke-opacity:0.5;" x="494.279745" xlink:href="#mb431e079c0" y="168.845227"/>
     <use style="fill:#d4dd80;fill-opacity:0.5;stroke:#d4dd80;stroke-opacity:0.5;" x="367.661692" xlink:href="#mb431e079c0" y="168.469263"/>
     <use style="fill:#d4dd80;fill-opacity:0.5;stroke:#d4dd80;stroke-opacity:0.5;" x="470.80863" xlink:href="#mb431e079c0" y="155.476336"/>
     <use style="fill:#d4dd80;fill-opacity:0.5;stroke:#d4dd80;stroke-opacity:0.5;" x="460.0472" xlink:href="#mb431e079c0" y="156.621926"/>
     <use style="fill:#d4dd80;fill-opacity:0.5;stroke:#d4dd80;stroke-opacity:0.5;" x="485.466057" xlink:href="#mb431e079c0" y="121.805345"/>
     <use style="fill:#d4dd80;fill-opacity:0.5;stroke:#d4dd80;stroke-opacity:0.5;" x="514.347124" xlink:href="#mb431e079c0" y="148.450672"/>
     <use style="fill:#d4dd80;fill-opacity:0.5;stroke:#d4dd80;stroke-opacity:0.5;" x="346.007697" xlink:href="#mb431e079c0" y="154.89307"/>
     <use style="fill:#d4dd80;fill-opacity:0.5;stroke:#d4dd80;stroke-opacity:0.5;" x="415.631672" xlink:href="#mb431e079c0" y="142.203915"/>
     <use style="fill:#d4dd80;fill-opacity:0.5;stroke:#d4dd80;stroke-opacity:0.5;" x="370.85753" xlink:href="#mb431e079c0" y="170.088319"/>
     <use style="fill:#d4dd80;fill-opacity:0.5;stroke:#d4dd80;stroke-opacity:0.5;" x="376.301018" xlink:href="#mb431e079c0" y="171.644558"/>
     <use style="fill:#d4dd80;fill-opacity:0.5;stroke:#d4dd80;stroke-opacity:0.5;" x="321.483509" xlink:href="#mb431e079c0" y="150.363724"/>
     <use style="fill:#d4dd80;fill-opacity:0.5;stroke:#d4dd80;stroke-opacity:0.5;" x="342.971801" xlink:href="#mb431e079c0" y="111.871431"/>
     <use style="fill:#d4dd80;fill-opacity:0.5;stroke:#d4dd80;stroke-opacity:0.5;" x="437.995447" xlink:href="#mb431e079c0" y="195.239421"/>
     <use style="fill:#d4dd80;fill-opacity:0.5;stroke:#d4dd80;stroke-opacity:0.5;" x="351.432843" xlink:href="#mb431e079c0" y="183.445196"/>
     <use style="fill:#d4dd80;fill-opacity:0.5;stroke:#d4dd80;stroke-opacity:0.5;" x="540.963849" xlink:href="#mb431e079c0" y="147.138271"/>
     <use style="fill:#d4dd80;fill-opacity:0.5;stroke:#d4dd80;stroke-opacity:0.5;" x="518.816979" xlink:href="#mb431e079c0" y="195.067427"/>
     <use style="fill:#d4dd80;fill-opacity:0.5;stroke:#d4dd80;stroke-opacity:0.5;" x="612.5254" xlink:href="#mb431e079c0" y="157.531265"/>
     <use style="fill:#d4dd80;fill-opacity:0.5;stroke:#d4dd80;stroke-opacity:0.5;" x="493.484727" xlink:href="#mb431e079c0" y="140.115012"/>
     <use style="fill:#d4dd80;fill-opacity:0.5;stroke:#d4dd80;stroke-opacity:0.5;" x="345.450247" xlink:href="#mb431e079c0" y="180.129696"/>
     <use style="fill:#d4dd80;fill-opacity:0.5;stroke:#d4dd80;stroke-opacity:0.5;" x="438.621209" xlink:href="#mb431e079c0" y="182.426514"/>
     <use style="fill:#d4dd80;fill-opacity:0.5;stroke:#d4dd80;stroke-opacity:0.5;" x="492.846208" xlink:href="#mb431e079c0" y="105.452297"/>
     <use style="fill:#d4dd80;fill-opacity:0.5;stroke:#d4dd80;stroke-opacity:0.5;" x="519.03476" xlink:href="#mb431e079c0" y="139.959174"/>
     <use style="fill:#d4dd80;fill-opacity:0.5;stroke:#d4dd80;stroke-opacity:0.5;" x="449.806506" xlink:href="#mb431e079c0" y="152.458818"/>
     <use style="fill:#d4dd80;fill-opacity:0.5;stroke:#d4dd80;stroke-opacity:0.5;" x="373.969362" xlink:href="#mb431e079c0" y="159.28015"/>
    </g>
   </g>
   <g id="PathCollection_3">
    <defs>
     <path d="M 0 3 
C 0.795609 3 1.55874 2.683901 2.12132 2.12132 
C 2.683901 1.55874 3 0.795609 3 0 
C 3 -0.795609 2.683901 -1.55874 2.12132 -2.12132 
C 1.55874 -2.683901 0.795609 -3 0 -3 
C -0.795609 -3 -1.55874 -2.683901 -2.12132 -2.12132 
C -2.683901 -1.55874 -3 -0.795609 -3 0 
C -3 0.795609 -2.683901 1.55874 -2.12132 2.12132 
C -1.55874 2.683901 -0.795609 3 0 3 
z
" id="mcaf578321c" style="stroke:#ff0000;stroke-opacity:0.5;"/>
    </defs>
    <g clip-path="url(#p8201442006)">
     <use style="fill:#ff0000;fill-opacity:0.5;stroke:#ff0000;stroke-opacity:0.5;" x="554.399733" xlink:href="#mcaf578321c" y="77.198334"/>
     <use style="fill:#ff0000;fill-opacity:0.5;stroke:#ff0000;stroke-opacity:0.5;" x="550.633738" xlink:href="#mcaf578321c" y="84.683742"/>
     <use style="fill:#ff0000;fill-opacity:0.5;stroke:#ff0000;stroke-opacity:0.5;" x="481.086214" xlink:href="#mcaf578321c" y="92.555818"/>
     <use style="fill:#ff0000;fill-opacity:0.5;stroke:#ff0000;stroke-opacity:0.5;" x="601.078243" xlink:href="#mcaf578321c" y="83.033044"/>
     <use style="fill:#ff0000;fill-opacity:0.5;stroke:#ff0000;stroke-opacity:0.5;" x="597.32176" xlink:href="#mcaf578321c" y="126.91538"/>
     <use style="fill:#ff0000;fill-opacity:0.5;stroke:#ff0000;stroke-opacity:0.5;" x="741.430929" xlink:href="#mcaf578321c" y="110.69655"/>
     <use style="fill:#ff0000;fill-opacity:0.5;stroke:#ff0000;stroke-opacity:0.5;" x="620.319116" xlink:href="#mcaf578321c" y="106.537798"/>
     <use style="fill:#ff0000;fill-opacity:0.5;stroke:#ff0000;stroke-opacity:0.5;" x="685.000364" xlink:href="#mcaf578321c" y="89.498903"/>
     <use style="fill:#ff0000;fill-opacity:0.5;stroke:#ff0000;stroke-opacity:0.5;" x="483.335575" xlink:href="#mcaf578321c" y="121.509892"/>
     <use style="fill:#ff0000;fill-opacity:0.5;stroke:#ff0000;stroke-opacity:0.5;" x="744.820192" xlink:href="#mcaf578321c" y="90.070083"/>
     <use style="fill:#ff0000;fill-opacity:0.5;stroke:#ff0000;stroke-opacity:0.5;" x="559.06385" xlink:href="#mcaf578321c" y="103.786281"/>
     <use style="fill:#ff0000;fill-opacity:0.5;stroke:#ff0000;stroke-opacity:0.5;" x="598.057791" xlink:href="#mcaf578321c" y="109.87025"/>
     <use style="fill:#ff0000;fill-opacity:0.5;stroke:#ff0000;stroke-opacity:0.5;" x="541.038154" xlink:href="#mcaf578321c" y="106.17446"/>
     <use style="fill:#ff0000;fill-opacity:0.5;stroke:#ff0000;stroke-opacity:0.5;" x="662.099557" xlink:href="#mcaf578321c" y="75.164867"/>
     <use style="fill:#ff0000;fill-opacity:0.5;stroke:#ff0000;stroke-opacity:0.5;" x="640.101663" xlink:href="#mcaf578321c" y="144.705765"/>
     <use style="fill:#ff0000;fill-opacity:0.5;stroke:#ff0000;stroke-opacity:0.5;" x="502.920664" xlink:href="#mcaf578321c" y="147.445673"/>
     <use style="fill:#ff0000;fill-opacity:0.5;stroke:#ff0000;stroke-opacity:0.5;" x="548.149537" xlink:href="#mcaf578321c" y="133.43911"/>
     <use style="fill:#ff0000;fill-opacity:0.5;stroke:#ff0000;stroke-opacity:0.5;" x="463.680228" xlink:href="#mcaf578321c" y="71.694506"/>
     <use style="fill:#ff0000;fill-opacity:0.5;stroke:#ff0000;stroke-opacity:0.5;" x="528.272906" xlink:href="#mcaf578321c" y="79.881219"/>
     <use style="fill:#ff0000;fill-opacity:0.5;stroke:#ff0000;stroke-opacity:0.5;" x="609.375934" xlink:href="#mcaf578321c" y="116.442029"/>
     <use style="fill:#ff0000;fill-opacity:0.5;stroke:#ff0000;stroke-opacity:0.5;" x="680.797578" xlink:href="#mcaf578321c" y="78.778115"/>
     <use style="fill:#ff0000;fill-opacity:0.5;stroke:#ff0000;stroke-opacity:0.5;" x="544.217639" xlink:href="#mcaf578321c" y="133.154273"/>
     <use style="fill:#ff0000;fill-opacity:0.5;stroke:#ff0000;stroke-opacity:0.5;" x="596.420275" xlink:href="#mcaf578321c" y="92.532912"/>
     <use style="fill:#ff0000;fill-opacity:0.5;stroke:#ff0000;stroke-opacity:0.5;" x="468.450813" xlink:href="#mcaf578321c" y="112.126643"/>
     <use style="fill:#ff0000;fill-opacity:0.5;stroke:#ff0000;stroke-opacity:0.5;" x="640.636215" xlink:href="#mcaf578321c" y="95.939662"/>
     <use style="fill:#ff0000;fill-opacity:0.5;stroke:#ff0000;stroke-opacity:0.5;" x="506.199653" xlink:href="#mcaf578321c" y="119.914784"/>
     <use style="fill:#ff0000;fill-opacity:0.5;stroke:#ff0000;stroke-opacity:0.5;" x="724.661903" xlink:href="#mcaf578321c" y="104.664496"/>
     <use style="fill:#ff0000;fill-opacity:0.5;stroke:#ff0000;stroke-opacity:0.5;" x="576.581785" xlink:href="#mcaf578321c" y="137.635753"/>
     <use style="fill:#ff0000;fill-opacity:0.5;stroke:#ff0000;stroke-opacity:0.5;" x="615.154402" xlink:href="#mcaf578321c" y="108.871624"/>
     <use style="fill:#ff0000;fill-opacity:0.5;stroke:#ff0000;stroke-opacity:0.5;" x="478.639651" xlink:href="#mcaf578321c" y="102.018497"/>
     <use style="fill:#ff0000;fill-opacity:0.5;stroke:#ff0000;stroke-opacity:0.5;" x="441.295976" xlink:href="#mcaf578321c" y="159.593819"/>
     <use style="fill:#ff0000;fill-opacity:0.5;stroke:#ff0000;stroke-opacity:0.5;" x="626.560748" xlink:href="#mcaf578321c" y="111.910834"/>
     <use style="fill:#ff0000;fill-opacity:0.5;stroke:#ff0000;stroke-opacity:0.5;" x="674.646874" xlink:href="#mcaf578321c" y="69.042997"/>
     <use style="fill:#ff0000;fill-opacity:0.5;stroke:#ff0000;stroke-opacity:0.5;" x="685.167916" xlink:href="#mcaf578321c" y="85.335225"/>
     <use style="fill:#ff0000;fill-opacity:0.5;stroke:#ff0000;stroke-opacity:0.5;" x="680.377222" xlink:href="#mcaf578321c" y="106.922712"/>
     <use style="fill:#ff0000;fill-opacity:0.5;stroke:#ff0000;stroke-opacity:0.5;" x="453.724656" xlink:href="#mcaf578321c" y="158.994547"/>
     <use style="fill:#ff0000;fill-opacity:0.5;stroke:#ff0000;stroke-opacity:0.5;" x="686.831841" xlink:href="#mcaf578321c" y="53.429666"/>
     <use style="fill:#ff0000;fill-opacity:0.5;stroke:#ff0000;stroke-opacity:0.5;" x="712.925377" xlink:href="#mcaf578321c" y="46.544169"/>
     <use style="fill:#ff0000;fill-opacity:0.5;stroke:#ff0000;stroke-opacity:0.5;" x="639.250094" xlink:href="#mcaf578321c" y="93.305526"/>
     <use style="fill:#ff0000;fill-opacity:0.5;stroke:#ff0000;stroke-opacity:0.5;" x="636.231734" xlink:href="#mcaf578321c" y="75.039776"/>
     <use style="fill:#ff0000;fill-opacity:0.5;stroke:#ff0000;stroke-opacity:0.5;" x="559.061685" xlink:href="#mcaf578321c" y="124.735666"/>
     <use style="fill:#ff0000;fill-opacity:0.5;stroke:#ff0000;stroke-opacity:0.5;" x="524.316708" xlink:href="#mcaf578321c" y="121.386272"/>
     <use style="fill:#ff0000;fill-opacity:0.5;stroke:#ff0000;stroke-opacity:0.5;" x="642.225419" xlink:href="#mcaf578321c" y="97.712025"/>
     <use style="fill:#ff0000;fill-opacity:0.5;stroke:#ff0000;stroke-opacity:0.5;" x="540.19658" xlink:href="#mcaf578321c" y="90.20575"/>
     <use style="fill:#ff0000;fill-opacity:0.5;stroke:#ff0000;stroke-opacity:0.5;" x="579.417172" xlink:href="#mcaf578321c" y="86.710576"/>
     <use style="fill:#ff0000;fill-opacity:0.5;stroke:#ff0000;stroke-opacity:0.5;" x="555.115651" xlink:href="#mcaf578321c" y="126.004967"/>
     <use style="fill:#ff0000;fill-opacity:0.5;stroke:#ff0000;stroke-opacity:0.5;" x="544.169517" xlink:href="#mcaf578321c" y="135.113135"/>
     <use style="fill:#ff0000;fill-opacity:0.5;stroke:#ff0000;stroke-opacity:0.5;" x="597.392218" xlink:href="#mcaf578321c" y="129.699309"/>
     <use style="fill:#ff0000;fill-opacity:0.5;stroke:#ff0000;stroke-opacity:0.5;" x="573.752507" xlink:href="#mcaf578321c" y="81.388504"/>
     <use style="fill:#ff0000;fill-opacity:0.5;stroke:#ff0000;stroke-opacity:0.5;" x="523.815735" xlink:href="#mcaf578321c" y="112.629596"/>
    </g>
   </g>
   <g id="matplotlib.axis_1">
    <g id="xtick_1">
     <g id="line2d_1">
      <defs>
       <path d="M 0 0 
L 0 3.5 
" id="m305c120cf0" style="stroke:#000000;stroke-width:0.8;"/>
      </defs>
      <g>
       <use style="stroke:#000000;stroke-width:0.8;" x="129.111555" xlink:href="#m305c120cf0" y="252"/>
      </g>
     </g>
     <g id="text_1">
      <!-- −2 -->
      <defs>
       <path d="M 10.59375 35.5 
L 73.1875 35.5 
L 73.1875 27.203125 
L 10.59375 27.203125 
z
" id="DejaVuSans-2212"/>
       <path d="M 19.1875 8.296875 
L 53.609375 8.296875 
L 53.609375 0 
L 7.328125 0 
L 7.328125 8.296875 
Q 12.9375 14.109375 22.625 23.890625 
Q 32.328125 33.6875 34.8125 36.53125 
Q 39.546875 41.84375 41.421875 45.53125 
Q 43.3125 49.21875 43.3125 52.78125 
Q 43.3125 58.59375 39.234375 62.25 
Q 35.15625 65.921875 28.609375 65.921875 
Q 23.96875 65.921875 18.8125 64.3125 
Q 13.671875 62.703125 7.8125 59.421875 
L 7.8125 69.390625 
Q 13.765625 71.78125 18.9375 73 
Q 24.125 74.21875 28.421875 74.21875 
Q 39.75 74.21875 46.484375 68.546875 
Q 53.21875 62.890625 53.21875 53.421875 
Q 53.21875 48.921875 51.53125 44.890625 
Q 49.859375 40.875 45.40625 35.40625 
Q 44.1875 33.984375 37.640625 27.21875 
Q 31.109375 20.453125 19.1875 8.296875 
z
" id="DejaVuSans-32"/>
      </defs>
      <g transform="translate(121.740462 266.598437)scale(0.1 -0.1)">
       <use xlink:href="#DejaVuSans-2212"/>
       <use x="83.789062" xlink:href="#DejaVuSans-32"/>
      </g>
     </g>
    </g>
    <g id="xtick_2">
     <g id="line2d_2">
      <g>
       <use style="stroke:#000000;stroke-width:0.8;" x="206.930075" xlink:href="#m305c120cf0" y="252"/>
      </g>
     </g>
     <g id="text_2">
      <!-- −1 -->
      <defs>
       <path d="M 12.40625 8.296875 
L 28.515625 8.296875 
L 28.515625 63.921875 
L 10.984375 60.40625 
L 10.984375 69.390625 
L 28.421875 72.90625 
L 38.28125 72.90625 
L 38.28125 8.296875 
L 54.390625 8.296875 
L 54.390625 0 
L 12.40625 0 
z
" id="DejaVuSans-31"/>
      </defs>
      <g transform="translate(199.558981 266.598437)scale(0.1 -0.1)">
       <use xlink:href="#DejaVuSans-2212"/>
       <use x="83.789062" xlink:href="#DejaVuSans-31"/>
      </g>
     </g>
    </g>
    <g id="xtick_3">
     <g id="line2d_3">
      <g>
       <use style="stroke:#000000;stroke-width:0.8;" x="284.748594" xlink:href="#m305c120cf0" y="252"/>
      </g>
     </g>
     <g id="text_3">
      <!-- 0 -->
      <defs>
       <path d="M 31.78125 66.40625 
Q 24.171875 66.40625 20.328125 58.90625 
Q 16.5 51.421875 16.5 36.375 
Q 16.5 21.390625 20.328125 13.890625 
Q 24.171875 6.390625 31.78125 6.390625 
Q 39.453125 6.390625 43.28125 13.890625 
Q 47.125 21.390625 47.125 36.375 
Q 47.125 51.421875 43.28125 58.90625 
Q 39.453125 66.40625 31.78125 66.40625 
z
M 31.78125 74.21875 
Q 44.046875 74.21875 50.515625 64.515625 
Q 56.984375 54.828125 56.984375 36.375 
Q 56.984375 17.96875 50.515625 8.265625 
Q 44.046875 -1.421875 31.78125 -1.421875 
Q 19.53125 -1.421875 13.0625 8.265625 
Q 6.59375 17.96875 6.59375 36.375 
Q 6.59375 54.828125 13.0625 64.515625 
Q 19.53125 74.21875 31.78125 74.21875 
z
" id="DejaVuSans-30"/>
      </defs>
      <g transform="translate(281.567344 266.598437)scale(0.1 -0.1)">
       <use xlink:href="#DejaVuSans-30"/>
      </g>
     </g>
    </g>
    <g id="xtick_4">
     <g id="line2d_4">
      <g>
       <use style="stroke:#000000;stroke-width:0.8;" x="362.567114" xlink:href="#m305c120cf0" y="252"/>
      </g>
     </g>
     <g id="text_4">
      <!-- 1 -->
      <g transform="translate(359.385864 266.598437)scale(0.1 -0.1)">
       <use xlink:href="#DejaVuSans-31"/>
      </g>
     </g>
    </g>
    <g id="xtick_5">
     <g id="line2d_5">
      <g>
       <use style="stroke:#000000;stroke-width:0.8;" x="440.385633" xlink:href="#m305c120cf0" y="252"/>
      </g>
     </g>
     <g id="text_5">
      <!-- 2 -->
      <g transform="translate(437.204383 266.598437)scale(0.1 -0.1)">
       <use xlink:href="#DejaVuSans-32"/>
      </g>
     </g>
    </g>
    <g id="xtick_6">
     <g id="line2d_6">
      <g>
       <use style="stroke:#000000;stroke-width:0.8;" x="518.204152" xlink:href="#m305c120cf0" y="252"/>
      </g>
     </g>
     <g id="text_6">
      <!-- 3 -->
      <defs>
       <path d="M 40.578125 39.3125 
Q 47.65625 37.796875 51.625 33 
Q 55.609375 28.21875 55.609375 21.1875 
Q 55.609375 10.40625 48.1875 4.484375 
Q 40.765625 -1.421875 27.09375 -1.421875 
Q 22.515625 -1.421875 17.65625 -0.515625 
Q 12.796875 0.390625 7.625 2.203125 
L 7.625 11.71875 
Q 11.71875 9.328125 16.59375 8.109375 
Q 21.484375 6.890625 26.8125 6.890625 
Q 36.078125 6.890625 40.9375 10.546875 
Q 45.796875 14.203125 45.796875 21.1875 
Q 45.796875 27.640625 41.28125 31.265625 
Q 36.765625 34.90625 28.71875 34.90625 
L 20.21875 34.90625 
L 20.21875 43.015625 
L 29.109375 43.015625 
Q 36.375 43.015625 40.234375 45.921875 
Q 44.09375 48.828125 44.09375 54.296875 
Q 44.09375 59.90625 40.109375 62.90625 
Q 36.140625 65.921875 28.71875 65.921875 
Q 24.65625 65.921875 20.015625 65.03125 
Q 15.375 64.15625 9.8125 62.3125 
L 9.8125 71.09375 
Q 15.4375 72.65625 20.34375 73.4375 
Q 25.25 74.21875 29.59375 74.21875 
Q 40.828125 74.21875 47.359375 69.109375 
Q 53.90625 64.015625 53.90625 55.328125 
Q 53.90625 49.265625 50.4375 45.09375 
Q 46.96875 40.921875 40.578125 39.3125 
z
" id="DejaVuSans-33"/>
      </defs>
      <g transform="translate(515.022902 266.598437)scale(0.1 -0.1)">
       <use xlink:href="#DejaVuSans-33"/>
      </g>
     </g>
    </g>
    <g id="xtick_7">
     <g id="line2d_7">
      <g>
       <use style="stroke:#000000;stroke-width:0.8;" x="596.022672" xlink:href="#m305c120cf0" y="252"/>
      </g>
     </g>
     <g id="text_7">
      <!-- 4 -->
      <defs>
       <path d="M 37.796875 64.3125 
L 12.890625 25.390625 
L 37.796875 25.390625 
z
M 35.203125 72.90625 
L 47.609375 72.90625 
L 47.609375 25.390625 
L 58.015625 25.390625 
L 58.015625 17.1875 
L 47.609375 17.1875 
L 47.609375 0 
L 37.796875 0 
L 37.796875 17.1875 
L 4.890625 17.1875 
L 4.890625 26.703125 
z
" id="DejaVuSans-34"/>
      </defs>
      <g transform="translate(592.841422 266.598437)scale(0.1 -0.1)">
       <use xlink:href="#DejaVuSans-34"/>
      </g>
     </g>
    </g>
    <g id="xtick_8">
     <g id="line2d_8">
      <g>
       <use style="stroke:#000000;stroke-width:0.8;" x="673.841191" xlink:href="#m305c120cf0" y="252"/>
      </g>
     </g>
     <g id="text_8">
      <!-- 5 -->
      <defs>
       <path d="M 10.796875 72.90625 
L 49.515625 72.90625 
L 49.515625 64.59375 
L 19.828125 64.59375 
L 19.828125 46.734375 
Q 21.96875 47.46875 24.109375 47.828125 
Q 26.265625 48.1875 28.421875 48.1875 
Q 40.625 48.1875 47.75 41.5 
Q 54.890625 34.8125 54.890625 23.390625 
Q 54.890625 11.625 47.5625 5.09375 
Q 40.234375 -1.421875 26.90625 -1.421875 
Q 22.3125 -1.421875 17.546875 -0.640625 
Q 12.796875 0.140625 7.71875 1.703125 
L 7.71875 11.625 
Q 12.109375 9.234375 16.796875 8.0625 
Q 21.484375 6.890625 26.703125 6.890625 
Q 35.15625 6.890625 40.078125 11.328125 
Q 45.015625 15.765625 45.015625 23.390625 
Q 45.015625 31 40.078125 35.4375 
Q 35.15625 39.890625 26.703125 39.890625 
Q 22.75 39.890625 18.8125 39.015625 
Q 14.890625 38.140625 10.796875 36.28125 
z
" id="DejaVuSans-35"/>
      </defs>
      <g transform="translate(670.659941 266.598437)scale(0.1 -0.1)">
       <use xlink:href="#DejaVuSans-35"/>
      </g>
     </g>
    </g>
    <g id="xtick_9">
     <g id="line2d_9">
      <g>
       <use style="stroke:#000000;stroke-width:0.8;" x="751.65971" xlink:href="#m305c120cf0" y="252"/>
      </g>
     </g>
     <g id="text_9">
      <!-- 6 -->
      <defs>
       <path d="M 33.015625 40.375 
Q 26.375 40.375 22.484375 35.828125 
Q 18.609375 31.296875 18.609375 23.390625 
Q 18.609375 15.53125 22.484375 10.953125 
Q 26.375 6.390625 33.015625 6.390625 
Q 39.65625 6.390625 43.53125 10.953125 
Q 47.40625 15.53125 47.40625 23.390625 
Q 47.40625 31.296875 43.53125 35.828125 
Q 39.65625 40.375 33.015625 40.375 
z
M 52.59375 71.296875 
L 52.59375 62.3125 
Q 48.875 64.0625 45.09375 64.984375 
Q 41.3125 65.921875 37.59375 65.921875 
Q 27.828125 65.921875 22.671875 59.328125 
Q 17.53125 52.734375 16.796875 39.40625 
Q 19.671875 43.65625 24.015625 45.921875 
Q 28.375 48.1875 33.59375 48.1875 
Q 44.578125 48.1875 50.953125 41.515625 
Q 57.328125 34.859375 57.328125 23.390625 
Q 57.328125 12.15625 50.6875 5.359375 
Q 44.046875 -1.421875 33.015625 -1.421875 
Q 20.359375 -1.421875 13.671875 8.265625 
Q 6.984375 17.96875 6.984375 36.375 
Q 6.984375 53.65625 15.1875 63.9375 
Q 23.390625 74.21875 37.203125 74.21875 
Q 40.921875 74.21875 44.703125 73.484375 
Q 48.484375 72.75 52.59375 71.296875 
z
" id="DejaVuSans-36"/>
      </defs>
      <g transform="translate(748.47846 266.598437)scale(0.1 -0.1)">
       <use xlink:href="#DejaVuSans-36"/>
      </g>
     </g>
    </g>
   </g>
   <g id="matplotlib.axis_2">
    <g id="ytick_1">
     <g id="line2d_10">
      <defs>
       <path d="M 0 0 
L -3.5 0 
" id="m1328743eea" style="stroke:#000000;stroke-width:0.8;"/>
      </defs>
      <g>
       <use style="stroke:#000000;stroke-width:0.8;" x="108" xlink:href="#m1328743eea" y="242.252437"/>
      </g>
     </g>
     <g id="text_10">
      <!-- −2 -->
      <g transform="translate(86.257812 246.051656)scale(0.1 -0.1)">
       <use xlink:href="#DejaVuSans-2212"/>
       <use x="83.789062" xlink:href="#DejaVuSans-32"/>
      </g>
     </g>
    </g>
    <g id="ytick_2">
     <g id="line2d_11">
      <g>
       <use style="stroke:#000000;stroke-width:0.8;" x="108" xlink:href="#m1328743eea" y="194.82192"/>
      </g>
     </g>
     <g id="text_11">
      <!-- 0 -->
      <g transform="translate(94.6375 198.621139)scale(0.1 -0.1)">
       <use xlink:href="#DejaVuSans-30"/>
      </g>
     </g>
    </g>
    <g id="ytick_3">
     <g id="line2d_12">
      <g>
       <use style="stroke:#000000;stroke-width:0.8;" x="108" xlink:href="#m1328743eea" y="147.391403"/>
      </g>
     </g>
     <g id="text_12">
      <!-- 2 -->
      <g transform="translate(94.6375 151.190622)scale(0.1 -0.1)">
       <use xlink:href="#DejaVuSans-32"/>
      </g>
     </g>
    </g>
    <g id="ytick_4">
     <g id="line2d_13">
      <g>
       <use style="stroke:#000000;stroke-width:0.8;" x="108" xlink:href="#m1328743eea" y="99.960886"/>
      </g>
     </g>
     <g id="text_13">
      <!-- 4 -->
      <g transform="translate(94.6375 103.760104)scale(0.1 -0.1)">
       <use xlink:href="#DejaVuSans-34"/>
      </g>
     </g>
    </g>
    <g id="ytick_5">
     <g id="line2d_14">
      <g>
       <use style="stroke:#000000;stroke-width:0.8;" x="108" xlink:href="#m1328743eea" y="52.530368"/>
      </g>
     </g>
     <g id="text_14">
      <!-- 6 -->
      <g transform="translate(94.6375 56.329587)scale(0.1 -0.1)">
       <use xlink:href="#DejaVuSans-36"/>
      </g>
     </g>
    </g>
   </g>
   <g id="patch_3">
    <path d="M 108 252 
L 108 34.56 
" style="fill:none;stroke:#000000;stroke-linecap:square;stroke-linejoin:miter;stroke-width:0.8;"/>
   </g>
   <g id="patch_4">
    <path d="M 777.6 252 
L 777.6 34.56 
" style="fill:none;stroke:#000000;stroke-linecap:square;stroke-linejoin:miter;stroke-width:0.8;"/>
   </g>
   <g id="patch_5">
    <path d="M 108 252 
L 777.6 252 
" style="fill:none;stroke:#000000;stroke-linecap:square;stroke-linejoin:miter;stroke-width:0.8;"/>
   </g>
   <g id="patch_6">
    <path d="M 108 34.56 
L 777.6 34.56 
" style="fill:none;stroke:#000000;stroke-linecap:square;stroke-linejoin:miter;stroke-width:0.8;"/>
   </g>
   <g id="legend_1">
    <g id="patch_7">
     <path d="M 115 86.594375 
L 185.801562 86.594375 
Q 187.801562 86.594375 187.801562 84.594375 
L 187.801562 41.56 
Q 187.801562 39.56 185.801562 39.56 
L 115 39.56 
Q 113 39.56 113 41.56 
L 113 84.594375 
Q 113 86.594375 115 86.594375 
z
" style="fill:#ffffff;opacity:0.8;stroke:#cccccc;stroke-linejoin:miter;"/>
    </g>
    <g id="PathCollection_4">
     <g>
      <use style="fill:#2adddd;fill-opacity:0.5;stroke:#2adddd;stroke-opacity:0.5;" x="127" xlink:href="#mb108aa318f" y="48.533438"/>
     </g>
    </g>
    <g id="text_15">
     <!-- group 1 -->
     <defs>
      <path d="M 45.40625 27.984375 
Q 45.40625 37.75 41.375 43.109375 
Q 37.359375 48.484375 30.078125 48.484375 
Q 22.859375 48.484375 18.828125 43.109375 
Q 14.796875 37.75 14.796875 27.984375 
Q 14.796875 18.265625 18.828125 12.890625 
Q 22.859375 7.515625 30.078125 7.515625 
Q 37.359375 7.515625 41.375 12.890625 
Q 45.40625 18.265625 45.40625 27.984375 
z
M 54.390625 6.78125 
Q 54.390625 -7.171875 48.1875 -13.984375 
Q 42 -20.796875 29.203125 -20.796875 
Q 24.46875 -20.796875 20.265625 -20.09375 
Q 16.0625 -19.390625 12.109375 -17.921875 
L 12.109375 -9.1875 
Q 16.0625 -11.328125 19.921875 -12.34375 
Q 23.78125 -13.375 27.78125 -13.375 
Q 36.625 -13.375 41.015625 -8.765625 
Q 45.40625 -4.15625 45.40625 5.171875 
L 45.40625 9.625 
Q 42.625 4.78125 38.28125 2.390625 
Q 33.9375 0 27.875 0 
Q 17.828125 0 11.671875 7.65625 
Q 5.515625 15.328125 5.515625 27.984375 
Q 5.515625 40.671875 11.671875 48.328125 
Q 17.828125 56 27.875 56 
Q 33.9375 56 38.28125 53.609375 
Q 42.625 51.21875 45.40625 46.390625 
L 45.40625 54.6875 
L 54.390625 54.6875 
z
" id="DejaVuSans-67"/>
      <path d="M 41.109375 46.296875 
Q 39.59375 47.171875 37.8125 47.578125 
Q 36.03125 48 33.890625 48 
Q 26.265625 48 22.1875 43.046875 
Q 18.109375 38.09375 18.109375 28.8125 
L 18.109375 0 
L 9.078125 0 
L 9.078125 54.6875 
L 18.109375 54.6875 
L 18.109375 46.1875 
Q 20.953125 51.171875 25.484375 53.578125 
Q 30.03125 56 36.53125 56 
Q 37.453125 56 38.578125 55.875 
Q 39.703125 55.765625 41.0625 55.515625 
z
" id="DejaVuSans-72"/>
      <path d="M 30.609375 48.390625 
Q 23.390625 48.390625 19.1875 42.75 
Q 14.984375 37.109375 14.984375 27.296875 
Q 14.984375 17.484375 19.15625 11.84375 
Q 23.34375 6.203125 30.609375 6.203125 
Q 37.796875 6.203125 41.984375 11.859375 
Q 46.1875 17.53125 46.1875 27.296875 
Q 46.1875 37.015625 41.984375 42.703125 
Q 37.796875 48.390625 30.609375 48.390625 
z
M 30.609375 56 
Q 42.328125 56 49.015625 48.375 
Q 55.71875 40.765625 55.71875 27.296875 
Q 55.71875 13.875 49.015625 6.21875 
Q 42.328125 -1.421875 30.609375 -1.421875 
Q 18.84375 -1.421875 12.171875 6.21875 
Q 5.515625 13.875 5.515625 27.296875 
Q 5.515625 40.765625 12.171875 48.375 
Q 18.84375 56 30.609375 56 
z
" id="DejaVuSans-6f"/>
      <path d="M 8.5 21.578125 
L 8.5 54.6875 
L 17.484375 54.6875 
L 17.484375 21.921875 
Q 17.484375 14.15625 20.5 10.265625 
Q 23.53125 6.390625 29.59375 6.390625 
Q 36.859375 6.390625 41.078125 11.03125 
Q 45.3125 15.671875 45.3125 23.6875 
L 45.3125 54.6875 
L 54.296875 54.6875 
L 54.296875 0 
L 45.3125 0 
L 45.3125 8.40625 
Q 42.046875 3.421875 37.71875 1 
Q 33.40625 -1.421875 27.6875 -1.421875 
Q 18.265625 -1.421875 13.375 4.4375 
Q 8.5 10.296875 8.5 21.578125 
z
M 31.109375 56 
z
" id="DejaVuSans-75"/>
      <path d="M 18.109375 8.203125 
L 18.109375 -20.796875 
L 9.078125 -20.796875 
L 9.078125 54.6875 
L 18.109375 54.6875 
L 18.109375 46.390625 
Q 20.953125 51.265625 25.265625 53.625 
Q 29.59375 56 35.59375 56 
Q 45.5625 56 51.78125 48.09375 
Q 58.015625 40.1875 58.015625 27.296875 
Q 58.015625 14.40625 51.78125 6.484375 
Q 45.5625 -1.421875 35.59375 -1.421875 
Q 29.59375 -1.421875 25.265625 0.953125 
Q 20.953125 3.328125 18.109375 8.203125 
z
M 48.6875 27.296875 
Q 48.6875 37.203125 44.609375 42.84375 
Q 40.53125 48.484375 33.40625 48.484375 
Q 26.265625 48.484375 22.1875 42.84375 
Q 18.109375 37.203125 18.109375 27.296875 
Q 18.109375 17.390625 22.1875 11.75 
Q 26.265625 6.109375 33.40625 6.109375 
Q 40.53125 6.109375 44.609375 11.75 
Q 48.6875 17.390625 48.6875 27.296875 
z
" id="DejaVuSans-70"/>
      <path id="DejaVuSans-20"/>
     </defs>
     <g transform="translate(145 51.158438)scale(0.1 -0.1)">
      <use xlink:href="#DejaVuSans-67"/>
      <use x="63.476562" xlink:href="#DejaVuSans-72"/>
      <use x="104.558594" xlink:href="#DejaVuSans-6f"/>
      <use x="165.740234" xlink:href="#DejaVuSans-75"/>
      <use x="229.119141" xlink:href="#DejaVuSans-70"/>
      <use x="292.595703" xlink:href="#DejaVuSans-20"/>
      <use x="324.382812" xlink:href="#DejaVuSans-31"/>
     </g>
    </g>
    <g id="PathCollection_5">
     <g>
      <use style="fill:#d4dd80;fill-opacity:0.5;stroke:#d4dd80;stroke-opacity:0.5;" x="127" xlink:href="#mb431e079c0" y="63.211563"/>
     </g>
    </g>
    <g id="text_16">
     <!-- group 2 -->
     <g transform="translate(145 65.836563)scale(0.1 -0.1)">
      <use xlink:href="#DejaVuSans-67"/>
      <use x="63.476562" xlink:href="#DejaVuSans-72"/>
      <use x="104.558594" xlink:href="#DejaVuSans-6f"/>
      <use x="165.740234" xlink:href="#DejaVuSans-75"/>
      <use x="229.119141" xlink:href="#DejaVuSans-70"/>
      <use x="292.595703" xlink:href="#DejaVuSans-20"/>
      <use x="324.382812" xlink:href="#DejaVuSans-32"/>
     </g>
    </g>
    <g id="PathCollection_6">
     <g>
      <use style="fill:#ff0000;fill-opacity:0.5;stroke:#ff0000;stroke-opacity:0.5;" x="127" xlink:href="#mcaf578321c" y="77.889688"/>
     </g>
    </g>
    <g id="text_17">
     <!-- group 3 -->
     <g transform="translate(145 80.514688)scale(0.1 -0.1)">
      <use xlink:href="#DejaVuSans-67"/>
      <use x="63.476562" xlink:href="#DejaVuSans-72"/>
      <use x="104.558594" xlink:href="#DejaVuSans-6f"/>
      <use x="165.740234" xlink:href="#DejaVuSans-75"/>
      <use x="229.119141" xlink:href="#DejaVuSans-70"/>
      <use x="292.595703" xlink:href="#DejaVuSans-20"/>
      <use x="324.382812" xlink:href="#DejaVuSans-33"/>
     </g>
    </g>
   </g>
  </g>
 </g>
 <defs>
  <clipPath id="p8201442006">
   <rect height="217.44" width="669.6" x="108" y="34.56"/>
  </clipPath>
 </defs>
</svg>
