<?xml version="1.0" encoding="UTF-8" standalone="no"?>
<!DOCTYPE svg PUBLIC "-//W3C//DTD SVG 1.1//EN"
 "http://www.w3.org/Graphics/SVG/1.1/DTD/svg11.dtd">
<!-- Generated by graphviz version 2.40.1 (20161225.0304)
 -->
<!-- Title: %3 Pages: 1 -->
<svg width="353pt" height="144pt"
 viewBox="0.00 0.00 353.35 144.00" xmlns="http://www.w3.org/2000/svg" xmlns:xlink="http://www.w3.org/1999/xlink">
<g id="graph0" class="graph" transform="scale(.5538 .5538) rotate(0) translate(4 256)">
<title>%3</title>
<polygon fill="#ffffff" stroke="transparent" points="-4,4 -4,-256 634,-256 634,4 -4,4"/>
<!-- R13 -->
<g id="node1" class="node">
<title>R13</title>
<ellipse fill="none" stroke="#000000" cx="315" cy="-234" rx="27" ry="18"/>
<text text-anchor="middle" x="315" y="-230.3" font-family="Times,serif" font-size="14.00" fill="#000000">R13</text>
</g>
<!-- R07 -->
<g id="node2" class="node">
<title>R07</title>
<ellipse fill="none" stroke="#000000" cx="135" cy="-162" rx="27" ry="18"/>
<text text-anchor="middle" x="135" y="-158.3" font-family="Times,serif" font-size="14.00" fill="#000000">R07</text>
</g>
<!-- R13&#45;&#45;R07 -->
<g id="edge1" class="edge">
<title>R13&#45;&#45;R07</title>
<path fill="none" stroke="#000000" d="M291.8366,-224.7347C257.3693,-210.9477 192.9402,-185.1761 158.3596,-171.3438"/>
</g>
<!-- R17 -->
<g id="node3" class="node">
<title>R17</title>
<ellipse fill="none" stroke="#000000" cx="315" cy="-162" rx="27" ry="18"/>
<text text-anchor="middle" x="315" y="-158.3" font-family="Times,serif" font-size="14.00" fill="#000000">R17</text>
</g>
<!-- R13&#45;&#45;R17 -->
<g id="edge2" class="edge">
<title>R13&#45;&#45;R17</title>
<path fill="none" stroke="#000000" d="M315,-215.8314C315,-205 315,-191.2876 315,-180.4133"/>
</g>
<!-- R05 -->
<g id="node4" class="node">
<title>R05</title>
<ellipse fill="none" stroke="#000000" cx="495" cy="-162" rx="27" ry="18"/>
<text text-anchor="middle" x="495" y="-158.3" font-family="Times,serif" font-size="14.00" fill="#000000">R05</text>
</g>
<!-- R13&#45;&#45;R05 -->
<g id="edge3" class="edge">
<title>R13&#45;&#45;R05</title>
<path fill="none" stroke="#000000" d="M338.1634,-224.7347C372.6307,-210.9477 437.0598,-185.1761 471.6404,-171.3438"/>
</g>
<!-- R02 -->
<g id="node5" class="node">
<title>R02</title>
<ellipse fill="none" stroke="#000000" cx="27" cy="-90" rx="27" ry="18"/>
<text text-anchor="middle" x="27" y="-86.3" font-family="Times,serif" font-size="14.00" fill="#000000">R02</text>
</g>
<!-- R07&#45;&#45;R02 -->
<g id="edge4" class="edge">
<title>R07&#45;&#45;R02</title>
<path fill="none" stroke="#000000" d="M115.6918,-149.1278C96.0337,-136.0225 65.7386,-115.8257 46.1411,-102.7607"/>
</g>
<!-- R09 -->
<g id="node6" class="node">
<title>R09</title>
<ellipse fill="none" stroke="#000000" cx="99" cy="-90" rx="27" ry="18"/>
<text text-anchor="middle" x="99" y="-86.3" font-family="Times,serif" font-size="14.00" fill="#000000">R09</text>
</g>
<!-- R07&#45;&#45;R09 -->
<g id="edge5" class="edge">
<title>R07&#45;&#45;R09</title>
<path fill="none" stroke="#000000" d="M126.2854,-144.5708C120.6253,-133.2506 113.2784,-118.5568 107.6343,-107.2687"/>
</g>
<!-- R08 -->
<g id="node7" class="node">
<title>R08</title>
<ellipse fill="none" stroke="#000000" cx="171" cy="-90" rx="27" ry="18"/>
<text text-anchor="middle" x="171" y="-86.3" font-family="Times,serif" font-size="14.00" fill="#000000">R08</text>
</g>
<!-- R07&#45;&#45;R08 -->
<g id="edge6" class="edge">
<title>R07&#45;&#45;R08</title>
<path fill="none" stroke="#000000" d="M143.7146,-144.5708C149.3747,-133.2506 156.7216,-118.5568 162.3657,-107.2687"/>
</g>
<!-- R03 -->
<g id="node8" class="node">
<title>R03</title>
<ellipse fill="none" stroke="#000000" cx="243" cy="-90" rx="27" ry="18"/>
<text text-anchor="middle" x="243" y="-86.3" font-family="Times,serif" font-size="14.00" fill="#000000">R03</text>
</g>
<!-- R17&#45;&#45;R03 -->
<g id="edge7" class="edge">
<title>R17&#45;&#45;R03</title>
<path fill="none" stroke="#000000" d="M299.7307,-146.7307C287.512,-134.512 270.4602,-117.4602 258.2473,-105.2473"/>
</g>
<!-- R19 -->
<g id="node9" class="node">
<title>R19</title>
<ellipse fill="none" stroke="#000000" cx="315" cy="-90" rx="27" ry="18"/>
<text text-anchor="middle" x="315" y="-86.3" font-family="Times,serif" font-size="14.00" fill="#000000">R19</text>
</g>
<!-- R17&#45;&#45;R19 -->
<g id="edge8" class="edge">
<title>R17&#45;&#45;R19</title>
<path fill="none" stroke="#000000" d="M315,-143.8314C315,-133 315,-119.2876 315,-108.4133"/>
</g>
<!-- R11 -->
<g id="node10" class="node">
<title>R11</title>
<ellipse fill="none" stroke="#000000" cx="387" cy="-90" rx="27" ry="18"/>
<text text-anchor="middle" x="387" y="-86.3" font-family="Times,serif" font-size="14.00" fill="#000000">R11</text>
</g>
<!-- R17&#45;&#45;R11 -->
<g id="edge9" class="edge">
<title>R17&#45;&#45;R11</title>
<path fill="none" stroke="#000000" d="M330.2693,-146.7307C342.488,-134.512 359.5398,-117.4602 371.7527,-105.2473"/>
</g>
<!-- R00 -->
<g id="node11" class="node">
<title>R00</title>
<ellipse fill="none" stroke="#000000" cx="459" cy="-90" rx="27" ry="18"/>
<text text-anchor="middle" x="459" y="-86.3" font-family="Times,serif" font-size="14.00" fill="#000000">R00</text>
</g>
<!-- R05&#45;&#45;R00 -->
<g id="edge10" class="edge">
<title>R05&#45;&#45;R00</title>
<path fill="none" stroke="#000000" d="M486.2854,-144.5708C480.6253,-133.2506 473.2784,-118.5568 467.6343,-107.2687"/>
</g>
<!-- R16 -->
<g id="node12" class="node">
<title>R16</title>
<ellipse fill="none" stroke="#000000" cx="531" cy="-90" rx="27" ry="18"/>
<text text-anchor="middle" x="531" y="-86.3" font-family="Times,serif" font-size="14.00" fill="#000000">R16</text>
</g>
<!-- R05&#45;&#45;R16 -->
<g id="edge11" class="edge">
<title>R05&#45;&#45;R16</title>
<path fill="none" stroke="#000000" d="M503.7146,-144.5708C509.3747,-133.2506 516.7216,-118.5568 522.3657,-107.2687"/>
</g>
<!-- R04 -->
<g id="node13" class="node">
<title>R04</title>
<ellipse fill="none" stroke="#000000" cx="603" cy="-90" rx="27" ry="18"/>
<text text-anchor="middle" x="603" y="-86.3" font-family="Times,serif" font-size="14.00" fill="#000000">R04</text>
</g>
<!-- R05&#45;&#45;R04 -->
<g id="edge12" class="edge">
<title>R05&#45;&#45;R04</title>
<path fill="none" stroke="#000000" d="M514.3082,-149.1278C533.9663,-136.0225 564.2614,-115.8257 583.8589,-102.7607"/>
</g>
<!-- R18 -->
<g id="node14" class="node">
<title>R18</title>
<ellipse fill="none" stroke="#000000" cx="171" cy="-18" rx="27" ry="18"/>
<text text-anchor="middle" x="171" y="-14.3" font-family="Times,serif" font-size="14.00" fill="#000000">R18</text>
</g>
<!-- R08&#45;&#45;R18 -->
<g id="edge13" class="edge">
<title>R08&#45;&#45;R18</title>
<path fill="none" stroke="#000000" d="M171,-71.8314C171,-61 171,-47.2876 171,-36.4133"/>
</g>
<!-- R14 -->
<g id="node19" class="node">
<title>R14</title>
<ellipse fill="none" stroke="#000000" cx="243" cy="-18" rx="27" ry="18"/>
<text text-anchor="middle" x="243" y="-14.3" font-family="Times,serif" font-size="14.00" fill="#000000">R14</text>
</g>
<!-- R19&#45;&#45;R14 -->
<g id="edge18" class="edge">
<title>R19&#45;&#45;R14</title>
<path fill="none" stroke="#000000" d="M299.7307,-74.7307C287.512,-62.512 270.4602,-45.4602 258.2473,-33.2473"/>
</g>
<!-- R15 -->
<g id="node20" class="node">
<title>R15</title>
<ellipse fill="none" stroke="#000000" cx="315" cy="-18" rx="27" ry="18"/>
<text text-anchor="middle" x="315" y="-14.3" font-family="Times,serif" font-size="14.00" fill="#000000">R15</text>
</g>
<!-- R19&#45;&#45;R15 -->
<g id="edge19" class="edge">
<title>R19&#45;&#45;R15</title>
<path fill="none" stroke="#000000" d="M315,-71.8314C315,-61 315,-47.2876 315,-36.4133"/>
</g>
<!-- R10 -->
<g id="node15" class="node">
<title>R10</title>
<ellipse fill="none" stroke="#000000" cx="387" cy="-18" rx="27" ry="18"/>
<text text-anchor="middle" x="387" y="-14.3" font-family="Times,serif" font-size="14.00" fill="#000000">R10</text>
</g>
<!-- R11&#45;&#45;R10 -->
<g id="edge14" class="edge">
<title>R11&#45;&#45;R10</title>
<path fill="none" stroke="#000000" d="M387,-71.8314C387,-61 387,-47.2876 387,-36.4133"/>
</g>
<!-- R01 -->
<g id="node17" class="node">
<title>R01</title>
<ellipse fill="none" stroke="#000000" cx="459" cy="-18" rx="27" ry="18"/>
<text text-anchor="middle" x="459" y="-14.3" font-family="Times,serif" font-size="14.00" fill="#000000">R01</text>
</g>
<!-- R00&#45;&#45;R01 -->
<g id="edge16" class="edge">
<title>R00&#45;&#45;R01</title>
<path fill="none" stroke="#000000" d="M459,-71.8314C459,-61 459,-47.2876 459,-36.4133"/>
</g>
<!-- R12 -->
<g id="node18" class="node">
<title>R12</title>
<ellipse fill="none" stroke="#000000" cx="531" cy="-18" rx="27" ry="18"/>
<text text-anchor="middle" x="531" y="-14.3" font-family="Times,serif" font-size="14.00" fill="#000000">R12</text>
</g>
<!-- R00&#45;&#45;R12 -->
<g id="edge17" class="edge">
<title>R00&#45;&#45;R12</title>
<path fill="none" stroke="#000000" d="M474.2693,-74.7307C486.488,-62.512 503.5398,-45.4602 515.7527,-33.2473"/>
</g>
<!-- R06 -->
<g id="node16" class="node">
<title>R06</title>
<ellipse fill="none" stroke="#000000" cx="603" cy="-18" rx="27" ry="18"/>
<text text-anchor="middle" x="603" y="-14.3" font-family="Times,serif" font-size="14.00" fill="#000000">R06</text>
</g>
<!-- R04&#45;&#45;R06 -->
<g id="edge15" class="edge">
<title>R04&#45;&#45;R06</title>
<path fill="none" stroke="#000000" d="M603,-71.8314C603,-61 603,-47.2876 603,-36.4133"/>
</g>
</g>
</svg>
