<?xml version="1.0" encoding="UTF-8" standalone="no"?>
<!DOCTYPE svg PUBLIC "-//W3C//DTD SVG 1.1//EN"
 "http://www.w3.org/Graphics/SVG/1.1/DTD/svg11.dtd">
<!-- Generated by graphviz version 2.40.1 (20161225.0304)
 -->
<!-- Title: %3 Pages: 1 -->
<svg width="245pt" height="144pt"
 viewBox="0.00 0.00 245.49 144.00" xmlns="http://www.w3.org/2000/svg" xmlns:xlink="http://www.w3.org/1999/xlink">
<g id="graph0" class="graph" transform="scale(.4337 .4337) rotate(0) translate(4 328)">
<title>%3</title>
<polygon fill="#ffffff" stroke="transparent" points="-4,4 -4,-328 562,-328 562,4 -4,4"/>
<!-- R08 -->
<g id="node1" class="node">
<title>R08</title>
<ellipse fill="none" stroke="#000000" cx="243" cy="-306" rx="27" ry="18"/>
<text text-anchor="middle" x="243" y="-302.3" font-family="Times,serif" font-size="14.00" fill="#000000">R08</text>
</g>
<!-- R11 -->
<g id="node2" class="node">
<title>R11</title>
<ellipse fill="none" stroke="#000000" cx="387" cy="-234" rx="27" ry="18"/>
<text text-anchor="middle" x="387" y="-230.3" font-family="Times,serif" font-size="14.00" fill="#000000">R11</text>
</g>
<!-- R08&#45;&#45;R11 -->
<g id="edge1" class="edge">
<title>R08&#45;&#45;R11</title>
<path fill="none" stroke="#000000" d="M264.8705,-295.0647C292.0934,-281.4533 338.297,-258.3515 365.3955,-244.8022"/>
</g>
<!-- R18 -->
<g id="node3" class="node">
<title>R18</title>
<ellipse fill="none" stroke="#000000" cx="99" cy="-234" rx="27" ry="18"/>
<text text-anchor="middle" x="99" y="-230.3" font-family="Times,serif" font-size="14.00" fill="#000000">R18</text>
</g>
<!-- R08&#45;&#45;R18 -->
<g id="edge2" class="edge">
<title>R08&#45;&#45;R18</title>
<path fill="none" stroke="#000000" d="M221.1295,-295.0647C193.9066,-281.4533 147.703,-258.3515 120.6045,-244.8022"/>
</g>
<!-- R01 -->
<g id="node4" class="node">
<title>R01</title>
<ellipse fill="none" stroke="#000000" cx="243" cy="-234" rx="27" ry="18"/>
<text text-anchor="middle" x="243" y="-230.3" font-family="Times,serif" font-size="14.00" fill="#000000">R01</text>
</g>
<!-- R08&#45;&#45;R01 -->
<g id="edge3" class="edge">
<title>R08&#45;&#45;R01</title>
<path fill="none" stroke="#000000" d="M243,-287.8314C243,-277 243,-263.2876 243,-252.4133"/>
</g>
<!-- R14 -->
<g id="node5" class="node">
<title>R14</title>
<ellipse fill="none" stroke="#000000" cx="315" cy="-162" rx="27" ry="18"/>
<text text-anchor="middle" x="315" y="-158.3" font-family="Times,serif" font-size="14.00" fill="#000000">R14</text>
</g>
<!-- R11&#45;&#45;R14 -->
<g id="edge4" class="edge">
<title>R11&#45;&#45;R14</title>
<path fill="none" stroke="#000000" d="M371.7307,-218.7307C359.512,-206.512 342.4602,-189.4602 330.2473,-177.2473"/>
</g>
<!-- R00 -->
<g id="node6" class="node">
<title>R00</title>
<ellipse fill="none" stroke="#000000" cx="387" cy="-162" rx="27" ry="18"/>
<text text-anchor="middle" x="387" y="-158.3" font-family="Times,serif" font-size="14.00" fill="#000000">R00</text>
</g>
<!-- R11&#45;&#45;R00 -->
<g id="edge5" class="edge">
<title>R11&#45;&#45;R00</title>
<path fill="none" stroke="#000000" d="M387,-215.8314C387,-205 387,-191.2876 387,-180.4133"/>
</g>
<!-- R03 -->
<g id="node7" class="node">
<title>R03</title>
<ellipse fill="none" stroke="#000000" cx="459" cy="-162" rx="27" ry="18"/>
<text text-anchor="middle" x="459" y="-158.3" font-family="Times,serif" font-size="14.00" fill="#000000">R03</text>
</g>
<!-- R11&#45;&#45;R03 -->
<g id="edge6" class="edge">
<title>R11&#45;&#45;R03</title>
<path fill="none" stroke="#000000" d="M402.2693,-218.7307C414.488,-206.512 431.5398,-189.4602 443.7527,-177.2473"/>
</g>
<!-- R07 -->
<g id="node8" class="node">
<title>R07</title>
<ellipse fill="none" stroke="#000000" cx="531" cy="-162" rx="27" ry="18"/>
<text text-anchor="middle" x="531" y="-158.3" font-family="Times,serif" font-size="14.00" fill="#000000">R07</text>
</g>
<!-- R11&#45;&#45;R07 -->
<g id="edge7" class="edge">
<title>R11&#45;&#45;R07</title>
<path fill="none" stroke="#000000" d="M408.8705,-223.0647C436.0934,-209.4533 482.297,-186.3515 509.3955,-172.8022"/>
</g>
<!-- R15 -->
<g id="node9" class="node">
<title>R15</title>
<ellipse fill="none" stroke="#000000" cx="171" cy="-162" rx="27" ry="18"/>
<text text-anchor="middle" x="171" y="-158.3" font-family="Times,serif" font-size="14.00" fill="#000000">R15</text>
</g>
<!-- R18&#45;&#45;R15 -->
<g id="edge8" class="edge">
<title>R18&#45;&#45;R15</title>
<path fill="none" stroke="#000000" d="M114.2693,-218.7307C126.488,-206.512 143.5398,-189.4602 155.7527,-177.2473"/>
</g>
<!-- R12 -->
<g id="node10" class="node">
<title>R12</title>
<ellipse fill="none" stroke="#000000" cx="99" cy="-162" rx="27" ry="18"/>
<text text-anchor="middle" x="99" y="-158.3" font-family="Times,serif" font-size="14.00" fill="#000000">R12</text>
</g>
<!-- R18&#45;&#45;R12 -->
<g id="edge9" class="edge">
<title>R18&#45;&#45;R12</title>
<path fill="none" stroke="#000000" d="M99,-215.8314C99,-205 99,-191.2876 99,-180.4133"/>
</g>
<!-- R13 -->
<g id="node11" class="node">
<title>R13</title>
<ellipse fill="none" stroke="#000000" cx="27" cy="-162" rx="27" ry="18"/>
<text text-anchor="middle" x="27" y="-158.3" font-family="Times,serif" font-size="14.00" fill="#000000">R13</text>
</g>
<!-- R18&#45;&#45;R13 -->
<g id="edge10" class="edge">
<title>R18&#45;&#45;R13</title>
<path fill="none" stroke="#000000" d="M83.7307,-218.7307C71.512,-206.512 54.4602,-189.4602 42.2473,-177.2473"/>
</g>
<!-- R19 -->
<g id="node12" class="node">
<title>R19</title>
<ellipse fill="none" stroke="#000000" cx="243" cy="-162" rx="27" ry="18"/>
<text text-anchor="middle" x="243" y="-158.3" font-family="Times,serif" font-size="14.00" fill="#000000">R19</text>
</g>
<!-- R01&#45;&#45;R19 -->
<g id="edge11" class="edge">
<title>R01&#45;&#45;R19</title>
<path fill="none" stroke="#000000" d="M243,-215.8314C243,-205 243,-191.2876 243,-180.4133"/>
</g>
<!-- R02 -->
<g id="node14" class="node">
<title>R02</title>
<ellipse fill="none" stroke="#000000" cx="387" cy="-90" rx="27" ry="18"/>
<text text-anchor="middle" x="387" y="-86.3" font-family="Times,serif" font-size="14.00" fill="#000000">R02</text>
</g>
<!-- R00&#45;&#45;R02 -->
<g id="edge13" class="edge">
<title>R00&#45;&#45;R02</title>
<path fill="none" stroke="#000000" d="M387,-143.8314C387,-133 387,-119.2876 387,-108.4133"/>
</g>
<!-- R05 -->
<g id="node13" class="node">
<title>R05</title>
<ellipse fill="none" stroke="#000000" cx="459" cy="-90" rx="27" ry="18"/>
<text text-anchor="middle" x="459" y="-86.3" font-family="Times,serif" font-size="14.00" fill="#000000">R05</text>
</g>
<!-- R03&#45;&#45;R05 -->
<g id="edge12" class="edge">
<title>R03&#45;&#45;R05</title>
<path fill="none" stroke="#000000" d="M459,-143.8314C459,-133 459,-119.2876 459,-108.4133"/>
</g>
<!-- R16 -->
<g id="node16" class="node">
<title>R16</title>
<ellipse fill="none" stroke="#000000" cx="243" cy="-90" rx="27" ry="18"/>
<text text-anchor="middle" x="243" y="-86.3" font-family="Times,serif" font-size="14.00" fill="#000000">R16</text>
</g>
<!-- R15&#45;&#45;R16 -->
<g id="edge15" class="edge">
<title>R15&#45;&#45;R16</title>
<path fill="none" stroke="#000000" d="M186.2693,-146.7307C198.488,-134.512 215.5398,-117.4602 227.7527,-105.2473"/>
</g>
<!-- R09 -->
<g id="node17" class="node">
<title>R09</title>
<ellipse fill="none" stroke="#000000" cx="99" cy="-90" rx="27" ry="18"/>
<text text-anchor="middle" x="99" y="-86.3" font-family="Times,serif" font-size="14.00" fill="#000000">R09</text>
</g>
<!-- R15&#45;&#45;R09 -->
<g id="edge16" class="edge">
<title>R15&#45;&#45;R09</title>
<path fill="none" stroke="#000000" d="M155.7307,-146.7307C143.512,-134.512 126.4602,-117.4602 114.2473,-105.2473"/>
</g>
<!-- R04 -->
<g id="node18" class="node">
<title>R04</title>
<ellipse fill="none" stroke="#000000" cx="171" cy="-90" rx="27" ry="18"/>
<text text-anchor="middle" x="171" y="-86.3" font-family="Times,serif" font-size="14.00" fill="#000000">R04</text>
</g>
<!-- R15&#45;&#45;R04 -->
<g id="edge17" class="edge">
<title>R15&#45;&#45;R04</title>
<path fill="none" stroke="#000000" d="M171,-143.8314C171,-133 171,-119.2876 171,-108.4133"/>
</g>
<!-- R17 -->
<g id="node19" class="node">
<title>R17</title>
<ellipse fill="none" stroke="#000000" cx="27" cy="-90" rx="27" ry="18"/>
<text text-anchor="middle" x="27" y="-86.3" font-family="Times,serif" font-size="14.00" fill="#000000">R17</text>
</g>
<!-- R13&#45;&#45;R17 -->
<g id="edge18" class="edge">
<title>R13&#45;&#45;R17</title>
<path fill="none" stroke="#000000" d="M27,-143.8314C27,-133 27,-119.2876 27,-108.4133"/>
</g>
<!-- R06 -->
<g id="node15" class="node">
<title>R06</title>
<ellipse fill="none" stroke="#000000" cx="171" cy="-234" rx="27" ry="18"/>
<text text-anchor="middle" x="171" y="-230.3" font-family="Times,serif" font-size="14.00" fill="#000000">R06</text>
</g>
<!-- R06&#45;&#45;R15 -->
<g id="edge14" class="edge">
<title>R06&#45;&#45;R15</title>
<path fill="none" stroke="#000000" d="M171,-215.8314C171,-205 171,-191.2876 171,-180.4133"/>
</g>
<!-- R10 -->
<g id="node20" class="node">
<title>R10</title>
<ellipse fill="none" stroke="#000000" cx="27" cy="-18" rx="27" ry="18"/>
<text text-anchor="middle" x="27" y="-14.3" font-family="Times,serif" font-size="14.00" fill="#000000">R10</text>
</g>
<!-- R17&#45;&#45;R10 -->
<g id="edge19" class="edge">
<title>R17&#45;&#45;R10</title>
<path fill="none" stroke="#000000" d="M27,-71.8314C27,-61 27,-47.2876 27,-36.4133"/>
</g>
</g>
</svg>
