<?xml version="1.0" encoding="UTF-8" standalone="no"?>
<!DOCTYPE svg PUBLIC "-//W3C//DTD SVG 1.1//EN"
 "http://www.w3.org/Graphics/SVG/1.1/DTD/svg11.dtd">
<!-- Generated by graphviz version 2.40.1 (20161225.0304)
 -->
<!-- Title: %3 Pages: 1 -->
<svg width="277pt" height="144pt"
 viewBox="0.00 0.00 276.72 144.00" xmlns="http://www.w3.org/2000/svg" xmlns:xlink="http://www.w3.org/1999/xlink">
<g id="graph0" class="graph" transform="scale(.4337 .4337) rotate(0) translate(4 328)">
<title>%3</title>
<polygon fill="#ffffff" stroke="transparent" points="-4,4 -4,-328 634,-328 634,4 -4,4"/>
<!-- R08 -->
<g id="node1" class="node">
<title>R08</title>
<ellipse fill="none" stroke="#000000" cx="207" cy="-306" rx="27" ry="18"/>
<text text-anchor="middle" x="207" y="-302.3" font-family="Times,serif" font-size="14.00" fill="#000000">R08</text>
</g>
<!-- R11 -->
<g id="node2" class="node">
<title>R11</title>
<ellipse fill="none" stroke="#000000" cx="423" cy="-234" rx="27" ry="18"/>
<text text-anchor="middle" x="423" y="-230.3" font-family="Times,serif" font-size="14.00" fill="#000000">R11</text>
</g>
<!-- R08&#45;&#45;R11 -->
<g id="edge1" class="edge">
<title>R08&#45;&#45;R11</title>
<path fill="none" stroke="#000000" d="M231.3581,-297.8806C272.9529,-284.0157 357.1971,-255.9343 398.7309,-242.0897"/>
</g>
<!-- R18 -->
<g id="node3" class="node">
<title>R18</title>
<ellipse fill="none" stroke="#000000" cx="171" cy="-234" rx="27" ry="18"/>
<text text-anchor="middle" x="171" y="-230.3" font-family="Times,serif" font-size="14.00" fill="#000000">R18</text>
</g>
<!-- R08&#45;&#45;R18 -->
<g id="edge2" class="edge">
<title>R08&#45;&#45;R18</title>
<path fill="none" stroke="#000000" d="M198.2854,-288.5708C192.6253,-277.2506 185.2784,-262.5568 179.6343,-251.2687"/>
</g>
<!-- R01 -->
<g id="node4" class="node">
<title>R01</title>
<ellipse fill="none" stroke="#000000" cx="27" cy="-234" rx="27" ry="18"/>
<text text-anchor="middle" x="27" y="-230.3" font-family="Times,serif" font-size="14.00" fill="#000000">R01</text>
</g>
<!-- R08&#45;&#45;R01 -->
<g id="edge3" class="edge">
<title>R08&#45;&#45;R01</title>
<path fill="none" stroke="#000000" d="M182.7416,-297.7783C153.869,-287.7927 104.3615,-270.0365 63,-252 58.2601,-249.9331 53.2525,-247.5571 48.5278,-245.2234"/>
</g>
<!-- R19 -->
<g id="node5" class="node">
<title>R19</title>
<ellipse fill="none" stroke="#000000" cx="243" cy="-234" rx="27" ry="18"/>
<text text-anchor="middle" x="243" y="-230.3" font-family="Times,serif" font-size="14.00" fill="#000000">R19</text>
</g>
<!-- R08&#45;&#45;R19 -->
<g id="edge4" class="edge">
<title>R08&#45;&#45;R19</title>
<path fill="none" stroke="#000000" d="M215.7146,-288.5708C221.3747,-277.2506 228.7216,-262.5568 234.3657,-251.2687"/>
</g>
<!-- R00 -->
<g id="node6" class="node">
<title>R00</title>
<ellipse fill="none" stroke="#000000" cx="531" cy="-162" rx="27" ry="18"/>
<text text-anchor="middle" x="531" y="-158.3" font-family="Times,serif" font-size="14.00" fill="#000000">R00</text>
</g>
<!-- R11&#45;&#45;R00 -->
<g id="edge5" class="edge">
<title>R11&#45;&#45;R00</title>
<path fill="none" stroke="#000000" d="M442.3082,-221.1278C461.9663,-208.0225 492.2614,-187.8257 511.8589,-174.7607"/>
</g>
<!-- R03 -->
<g id="node7" class="node">
<title>R03</title>
<ellipse fill="none" stroke="#000000" cx="459" cy="-162" rx="27" ry="18"/>
<text text-anchor="middle" x="459" y="-158.3" font-family="Times,serif" font-size="14.00" fill="#000000">R03</text>
</g>
<!-- R11&#45;&#45;R03 -->
<g id="edge6" class="edge">
<title>R11&#45;&#45;R03</title>
<path fill="none" stroke="#000000" d="M431.7146,-216.5708C437.3747,-205.2506 444.7216,-190.5568 450.3657,-179.2687"/>
</g>
<!-- R09 -->
<g id="node8" class="node">
<title>R09</title>
<ellipse fill="none" stroke="#000000" cx="387" cy="-162" rx="27" ry="18"/>
<text text-anchor="middle" x="387" y="-158.3" font-family="Times,serif" font-size="14.00" fill="#000000">R09</text>
</g>
<!-- R11&#45;&#45;R09 -->
<g id="edge7" class="edge">
<title>R11&#45;&#45;R09</title>
<path fill="none" stroke="#000000" d="M414.2854,-216.5708C408.6253,-205.2506 401.2784,-190.5568 395.6343,-179.2687"/>
</g>
<!-- R12 -->
<g id="node9" class="node">
<title>R12</title>
<ellipse fill="none" stroke="#000000" cx="171" cy="-162" rx="27" ry="18"/>
<text text-anchor="middle" x="171" y="-158.3" font-family="Times,serif" font-size="14.00" fill="#000000">R12</text>
</g>
<!-- R18&#45;&#45;R12 -->
<g id="edge8" class="edge">
<title>R18&#45;&#45;R12</title>
<path fill="none" stroke="#000000" d="M171,-215.8314C171,-205 171,-191.2876 171,-180.4133"/>
</g>
<!-- R15 -->
<g id="node10" class="node">
<title>R15</title>
<ellipse fill="none" stroke="#000000" cx="63" cy="-162" rx="27" ry="18"/>
<text text-anchor="middle" x="63" y="-158.3" font-family="Times,serif" font-size="14.00" fill="#000000">R15</text>
</g>
<!-- R01&#45;&#45;R15 -->
<g id="edge9" class="edge">
<title>R01&#45;&#45;R15</title>
<path fill="none" stroke="#000000" d="M35.7146,-216.5708C41.3747,-205.2506 48.7216,-190.5568 54.3657,-179.2687"/>
</g>
<!-- R17 -->
<g id="node20" class="node">
<title>R17</title>
<ellipse fill="none" stroke="#000000" cx="243" cy="-162" rx="27" ry="18"/>
<text text-anchor="middle" x="243" y="-158.3" font-family="Times,serif" font-size="14.00" fill="#000000">R17</text>
</g>
<!-- R19&#45;&#45;R17 -->
<g id="edge19" class="edge">
<title>R19&#45;&#45;R17</title>
<path fill="none" stroke="#000000" d="M243,-215.8314C243,-205 243,-191.2876 243,-180.4133"/>
</g>
<!-- R02 -->
<g id="node13" class="node">
<title>R02</title>
<ellipse fill="none" stroke="#000000" cx="531" cy="-90" rx="27" ry="18"/>
<text text-anchor="middle" x="531" y="-86.3" font-family="Times,serif" font-size="14.00" fill="#000000">R02</text>
</g>
<!-- R00&#45;&#45;R02 -->
<g id="edge12" class="edge">
<title>R00&#45;&#45;R02</title>
<path fill="none" stroke="#000000" d="M531,-143.8314C531,-133 531,-119.2876 531,-108.4133"/>
</g>
<!-- R13 -->
<g id="node14" class="node">
<title>R13</title>
<ellipse fill="none" stroke="#000000" cx="603" cy="-90" rx="27" ry="18"/>
<text text-anchor="middle" x="603" y="-86.3" font-family="Times,serif" font-size="14.00" fill="#000000">R13</text>
</g>
<!-- R00&#45;&#45;R13 -->
<g id="edge13" class="edge">
<title>R00&#45;&#45;R13</title>
<path fill="none" stroke="#000000" d="M546.2693,-146.7307C558.488,-134.512 575.5398,-117.4602 587.7527,-105.2473"/>
</g>
<!-- R04 -->
<g id="node12" class="node">
<title>R04</title>
<ellipse fill="none" stroke="#000000" cx="459" cy="-90" rx="27" ry="18"/>
<text text-anchor="middle" x="459" y="-86.3" font-family="Times,serif" font-size="14.00" fill="#000000">R04</text>
</g>
<!-- R03&#45;&#45;R04 -->
<g id="edge11" class="edge">
<title>R03&#45;&#45;R04</title>
<path fill="none" stroke="#000000" d="M459,-143.8314C459,-133 459,-119.2876 459,-108.4133"/>
</g>
<!-- R14 -->
<g id="node15" class="node">
<title>R14</title>
<ellipse fill="none" stroke="#000000" cx="171" cy="-90" rx="27" ry="18"/>
<text text-anchor="middle" x="171" y="-86.3" font-family="Times,serif" font-size="14.00" fill="#000000">R14</text>
</g>
<!-- R12&#45;&#45;R14 -->
<g id="edge14" class="edge">
<title>R12&#45;&#45;R14</title>
<path fill="none" stroke="#000000" d="M171,-143.8314C171,-133 171,-119.2876 171,-108.4133"/>
</g>
<!-- R10 -->
<g id="node16" class="node">
<title>R10</title>
<ellipse fill="none" stroke="#000000" cx="279" cy="-90" rx="27" ry="18"/>
<text text-anchor="middle" x="279" y="-86.3" font-family="Times,serif" font-size="14.00" fill="#000000">R10</text>
</g>
<!-- R12&#45;&#45;R10 -->
<g id="edge15" class="edge">
<title>R12&#45;&#45;R10</title>
<path fill="none" stroke="#000000" d="M190.3082,-149.1278C209.9663,-136.0225 240.2614,-115.8257 259.8589,-102.7607"/>
</g>
<!-- R16 -->
<g id="node18" class="node">
<title>R16</title>
<ellipse fill="none" stroke="#000000" cx="63" cy="-90" rx="27" ry="18"/>
<text text-anchor="middle" x="63" y="-86.3" font-family="Times,serif" font-size="14.00" fill="#000000">R16</text>
</g>
<!-- R15&#45;&#45;R16 -->
<g id="edge17" class="edge">
<title>R15&#45;&#45;R16</title>
<path fill="none" stroke="#000000" d="M63,-143.8314C63,-133 63,-119.2876 63,-108.4133"/>
</g>
<!-- R07 -->
<g id="node11" class="node">
<title>R07</title>
<ellipse fill="none" stroke="#000000" cx="99" cy="-234" rx="27" ry="18"/>
<text text-anchor="middle" x="99" y="-230.3" font-family="Times,serif" font-size="14.00" fill="#000000">R07</text>
</g>
<!-- R07&#45;&#45;R15 -->
<g id="edge10" class="edge">
<title>R07&#45;&#45;R15</title>
<path fill="none" stroke="#000000" d="M90.2854,-216.5708C84.6253,-205.2506 77.2784,-190.5568 71.6343,-179.2687"/>
</g>
<!-- R05 -->
<g id="node19" class="node">
<title>R05</title>
<ellipse fill="none" stroke="#000000" cx="603" cy="-18" rx="27" ry="18"/>
<text text-anchor="middle" x="603" y="-14.3" font-family="Times,serif" font-size="14.00" fill="#000000">R05</text>
</g>
<!-- R13&#45;&#45;R05 -->
<g id="edge18" class="edge">
<title>R13&#45;&#45;R05</title>
<path fill="none" stroke="#000000" d="M603,-71.8314C603,-61 603,-47.2876 603,-36.4133"/>
</g>
<!-- R06 -->
<g id="node17" class="node">
<title>R06</title>
<ellipse fill="none" stroke="#000000" cx="315" cy="-162" rx="27" ry="18"/>
<text text-anchor="middle" x="315" y="-158.3" font-family="Times,serif" font-size="14.00" fill="#000000">R06</text>
</g>
<!-- R06&#45;&#45;R10 -->
<g id="edge16" class="edge">
<title>R06&#45;&#45;R10</title>
<path fill="none" stroke="#000000" d="M306.2854,-144.5708C300.6253,-133.2506 293.2784,-118.5568 287.6343,-107.2687"/>
</g>
</g>
</svg>
